0, 0, Header, 1, 20, 120
1, 0, Start_track
1, 0, Title_t, ""
1, 0, Tempo, 500000
1, 0, Time_signature, 4, 2, 24, 8
1, 0, Key_signature, 0, "major"
1, 480, End_track
2, 0, Start_track
2, 0, Title_t, ""
2, 120, Control_c, 0, 0, 0
2, 130, Control_c, 0, 32, 0
2, 140, Program_c, 0, 0
2, 150, Control_c, 0, 1, 0
2, 160, Control_c, 0, 7, 100
2, 170, Control_c, 0, 10, 64
2, 180, Control_c, 0, 11, 127
2, 190, Control_c, 0, 64, 0
2, 200, Control_c, 0, 91, 40
2, 210, Control_c, 0, 93, 0
2, 220, Control_c, 0, 94, 0
2, 356, Note_on_c, 0, 74, 38
2, 448, Note_on_c, 0, 76, 29
2, 469, Note_off_c, 0, 74, 34
2, 800, Note_off_c, 0, 76, 91
2, 881, Note_on_c, 0, 74, 39
2, 904, Control_c, 0, 64, 1
2, 904, Control_c, 0, 64, 7
2, 905, Control_c, 0, 64, 13
2, 905, Control_c, 0, 64, 20
2, 906, Control_c, 0, 64, 27
2, 908, Control_c, 0, 64, 33
2, 908, Control_c, 0, 64, 40
2, 909, Control_c, 0, 64, 47
2, 909, Control_c, 0, 64, 54
2, 911, Control_c, 0, 64, 63
2, 911, Control_c, 0, 64, 78
2, 912, Control_c, 0, 64, 80
2, 912, Control_c, 0, 64, 85
2, 913, Control_c, 0, 64, 92
2, 913, Control_c, 0, 64, 100
2, 914, Control_c, 0, 64, 102
2, 914, Control_c, 0, 64, 105
2, 916, Control_c, 0, 64, 108
2, 916, Control_c, 0, 64, 111
2, 917, Control_c, 0, 64, 114
2, 919, Control_c, 0, 64, 117
2, 919, Control_c, 0, 64, 119
2, 920, Control_c, 0, 64, 122
2, 920, Control_c, 0, 64, 124
2, 921, Control_c, 0, 64, 127
2, 1015, Note_on_c, 0, 76, 32
2, 1018, Note_off_c, 0, 74, 91
2, 1071, Note_off_c, 0, 76, 97
2, 1079, Note_on_c, 0, 74, 32
2, 1136, Note_off_c, 0, 74, 97
2, 1137, Note_on_c, 0, 76, 31
2, 1188, Note_off_c, 0, 76, 105
2, 1189, Note_on_c, 0, 74, 48
2, 1245, Note_off_c, 0, 74, 104
2, 1248, Note_on_c, 0, 76, 34
2, 1301, Note_on_c, 0, 74, 63
2, 1302, Note_off_c, 0, 76, 109
2, 1357, Note_off_c, 0, 74, 109
2, 1358, Note_on_c, 0, 76, 45
2, 1410, Note_off_c, 0, 76, 108
2, 1411, Note_on_c, 0, 74, 67
2, 1419, Control_c, 0, 64, 122
2, 1420, Control_c, 0, 64, 117
2, 1422, Control_c, 0, 64, 111
2, 1422, Control_c, 0, 64, 105
2, 1423, Control_c, 0, 64, 97
2, 1423, Control_c, 0, 64, 75
2, 1424, Control_c, 0, 64, 51
2, 1424, Control_c, 0, 64, 28
2, 1425, Control_c, 0, 64, 8
2, 1425, Control_c, 0, 64, 0
2, 1464, Control_c, 0, 64, 6
2, 1464, Control_c, 0, 64, 21
2, 1466, Control_c, 0, 64, 38
2, 1467, Control_c, 0, 64, 54
2, 1467, Control_c, 0, 64, 70
2, 1468, Control_c, 0, 64, 84
2, 1468, Control_c, 0, 64, 98
2, 1470, Control_c, 0, 64, 103
2, 1470, Control_c, 0, 64, 107
2, 1471, Control_c, 0, 64, 110
2, 1471, Control_c, 0, 64, 114
2, 1472, Control_c, 0, 64, 118
2, 1472, Control_c, 0, 64, 121
2, 1473, Control_c, 0, 64, 124
2, 1473, Control_c, 0, 64, 127
2, 1475, Note_off_c, 0, 74, 113
2, 1475, Note_on_c, 0, 76, 53
2, 1523, Note_off_c, 0, 76, 108
2, 1528, Note_on_c, 0, 74, 58
2, 1585, Note_on_c, 0, 76, 57
2, 1590, Note_off_c, 0, 74, 109
2, 1635, Note_off_c, 0, 76, 107
2, 1638, Note_on_c, 0, 74, 58
2, 1703, Note_on_c, 0, 76, 55
2, 1704, Note_off_c, 0, 74, 103
2, 1759, Note_off_c, 0, 76, 108
2, 1759, Note_on_c, 0, 74, 69
2, 1815, Note_on_c, 0, 76, 56
2, 1818, Note_off_c, 0, 74, 107
2, 1874, Note_off_c, 0, 76, 110
2, 1874, Note_on_c, 0, 74, 67
2, 1887, Control_c, 0, 64, 125
2, 1887, Control_c, 0, 64, 121
2, 1887, Control_c, 0, 64, 116
2, 1888, Control_c, 0, 64, 111
2, 1888, Control_c, 0, 64, 106
2, 1890, Control_c, 0, 64, 100
2, 1890, Control_c, 0, 64, 84
2, 1891, Control_c, 0, 64, 65
2, 1892, Control_c, 0, 64, 45
2, 1892, Control_c, 0, 64, 26
2, 1893, Control_c, 0, 64, 9
2, 1893, Control_c, 0, 64, 0
2, 1926, Control_c, 0, 64, 2
2, 1926, Control_c, 0, 64, 15
2, 1927, Control_c, 0, 64, 30
2, 1927, Control_c, 0, 64, 45
2, 1928, Control_c, 0, 64, 59
2, 1930, Control_c, 0, 64, 72
2, 1930, Control_c, 0, 64, 85
2, 1931, Control_c, 0, 64, 97
2, 1932, Control_c, 0, 64, 102
2, 1932, Control_c, 0, 64, 105
2, 1932, Control_c, 0, 64, 108
2, 1934, Control_c, 0, 64, 112
2, 1934, Control_c, 0, 64, 115
2, 1935, Control_c, 0, 64, 118
2, 1935, Control_c, 0, 64, 121
2, 1936, Note_off_c, 0, 74, 110
2, 1936, Note_on_c, 0, 76, 46
2, 1938, Control_c, 0, 64, 126
2, 1938, Control_c, 0, 64, 127
2, 1990, Note_off_c, 0, 76, 107
2, 1994, Note_on_c, 0, 74, 52
2, 2048, Note_off_c, 0, 74, 109
2, 2050, Note_on_c, 0, 76, 44
2, 2095, Note_off_c, 0, 76, 108
2, 2107, Note_on_c, 0, 74, 34
2, 2162, Note_off_c, 0, 74, 109
2, 2167, Note_on_c, 0, 76, 41
2, 2225, Note_off_c, 0, 76, 108
2, 2228, Note_on_c, 0, 74, 42
2, 2286, Note_off_c, 0, 74, 101
2, 2290, Note_on_c, 0, 76, 37
2, 2341, Note_off_c, 0, 76, 99
2, 2353, Note_on_c, 0, 74, 40
2, 2368, Control_c, 0, 64, 124
2, 2369, Control_c, 0, 64, 120
2, 2369, Control_c, 0, 64, 115
2, 2370, Control_c, 0, 64, 111
2, 2371, Control_c, 0, 64, 106
2, 2371, Control_c, 0, 64, 102
2, 2371, Control_c, 0, 64, 90
2, 2373, Control_c, 0, 64, 72
2, 2373, Control_c, 0, 64, 54
2, 2374, Control_c, 0, 64, 37
2, 2374, Control_c, 0, 64, 19
2, 2376, Control_c, 0, 64, 5
2, 2377, Control_c, 0, 64, 0
2, 2421, Note_off_c, 0, 74, 103
2, 2421, Control_c, 0, 64, 13
2, 2423, Control_c, 0, 64, 28
2, 2423, Control_c, 0, 64, 43
2, 2423, Control_c, 0, 64, 57
2, 2424, Control_c, 0, 64, 70
2, 2424, Note_on_c, 0, 76, 43
2, 2425, Control_c, 0, 64, 93
2, 2426, Control_c, 0, 64, 101
2, 2426, Control_c, 0, 64, 104
2, 2428, Control_c, 0, 64, 107
2, 2428, Control_c, 0, 64, 109
2, 2429, Control_c, 0, 64, 113
2, 2429, Control_c, 0, 64, 115
2, 2430, Control_c, 0, 64, 118
2, 2430, Control_c, 0, 64, 120
2, 2432, Control_c, 0, 64, 123
2, 2432, Control_c, 0, 64, 125
2, 2433, Control_c, 0, 64, 127
2, 2497, Note_off_c, 0, 76, 101
2, 2498, Note_on_c, 0, 74, 43
2, 2561, Note_off_c, 0, 74, 106
2, 2573, Note_on_c, 0, 72, 27
2, 2684, Note_on_c, 0, 74, 19
2, 2703, Note_off_c, 0, 72, 78
2, 2796, Note_on_c, 0, 76, 39
2, 2919, Note_off_c, 0, 76, 98
2, 2936, Note_on_c, 0, 77, 11
2, 2951, Note_off_c, 0, 74, 7
2, 3078, Note_on_c, 0, 76, 24
2, 3103, Note_off_c, 0, 77, 79
2, 3243, Note_off_c, 0, 76, 86
2, 3248, Note_on_c, 0, 74, 22
2, 3258, Control_c, 0, 64, 125
2, 3258, Control_c, 0, 64, 122
2, 3259, Control_c, 0, 64, 119
2, 3259, Control_c, 0, 64, 115
2, 3260, Control_c, 0, 64, 112
2, 3260, Control_c, 0, 64, 108
2, 3262, Control_c, 0, 64, 105
2, 3262, Control_c, 0, 64, 102
2, 3263, Control_c, 0, 64, 95
2, 3263, Control_c, 0, 64, 84
2, 3264, Control_c, 0, 64, 72
2, 3266, Control_c, 0, 64, 59
2, 3266, Control_c, 0, 64, 45
2, 3266, Control_c, 0, 64, 32
2, 3267, Control_c, 0, 64, 20
2, 3267, Control_c, 0, 64, 8
2, 3268, Control_c, 0, 64, 0
2, 3315, Control_c, 0, 64, 4
2, 3315, Control_c, 0, 64, 14
2, 3317, Control_c, 0, 64, 25
2, 3318, Control_c, 0, 64, 36
2, 3318, Control_c, 0, 64, 47
2, 3319, Control_c, 0, 64, 58
2, 3319, Control_c, 0, 64, 78
2, 3321, Control_c, 0, 64, 80
2, 3321, Control_c, 0, 64, 85
2, 3322, Control_c, 0, 64, 91
2, 3323, Control_c, 0, 64, 98
2, 3323, Control_c, 0, 64, 102
2, 3323, Control_c, 0, 64, 104
2, 3325, Control_c, 0, 64, 106
2, 3325, Control_c, 0, 64, 108
2, 3326, Control_c, 0, 64, 110
2, 3326, Control_c, 0, 64, 112
2, 3328, Control_c, 0, 64, 114
2, 3329, Control_c, 0, 64, 115
2, 3329, Control_c, 0, 64, 117
2, 3329, Control_c, 0, 64, 119
2, 3330, Control_c, 0, 64, 120
2, 3332, Control_c, 0, 64, 122
2, 3332, Control_c, 0, 64, 123
2, 3333, Control_c, 0, 64, 124
2, 3333, Control_c, 0, 64, 125
2, 3334, Control_c, 0, 64, 127
2, 3372, Note_on_c, 0, 76, 27
2, 3375, Note_off_c, 0, 74, 95
2, 3444, Note_off_c, 0, 76, 104
2, 3450, Note_on_c, 0, 74, 32
2, 3513, Note_off_c, 0, 74, 105
2, 3514, Note_on_c, 0, 76, 35
2, 3564, Note_off_c, 0, 76, 106
2, 3570, Note_on_c, 0, 74, 45
2, 3625, Note_off_c, 0, 74, 108
2, 3630, Note_on_c, 0, 76, 41
2, 3686, Note_off_c, 0, 76, 107
2, 3689, Note_on_c, 0, 74, 55
2, 3744, Note_off_c, 0, 74, 101
2, 3744, Note_on_c, 0, 76, 42
2, 3796, Note_off_c, 0, 76, 110
2, 3797, Note_on_c, 0, 74, 65
2, 3812, Control_c, 0, 64, 126
2, 3812, Control_c, 0, 64, 122
2, 3813, Control_c, 0, 64, 117
2, 3813, Control_c, 0, 64, 113
2, 3815, Control_c, 0, 64, 108
2, 3815, Control_c, 0, 64, 104
2, 3816, Control_c, 0, 64, 99
2, 3816, Control_c, 0, 64, 85
2, 3817, Control_c, 0, 64, 70
2, 3817, Control_c, 0, 64, 53
2, 3819, Control_c, 0, 64, 37
2, 3820, Control_c, 0, 64, 21
2, 3820, Control_c, 0, 64, 8
2, 3820, Control_c, 0, 64, 0
2, 3853, Control_c, 0, 64, 5
2, 3855, Control_c, 0, 64, 17
2, 3855, Control_c, 0, 64, 31
2, 3856, Control_c, 0, 64, 45
2, 3856, Control_c, 0, 64, 58
2, 3858, Control_c, 0, 64, 70
2, 3858, Control_c, 0, 64, 82
2, 3859, Control_c, 0, 64, 93
2, 3859, Control_c, 0, 64, 101
2, 3860, Control_c, 0, 64, 104
2, 3862, Control_c, 0, 64, 107
2, 3862, Control_c, 0, 64, 110
2, 3863, Control_c, 0, 64, 114
2, 3863, Control_c, 0, 64, 117
2, 3864, Control_c, 0, 64, 120
2, 3864, Control_c, 0, 64, 122
2, 3865, Control_c, 0, 64, 125
2, 3867, Control_c, 0, 64, 127
2, 3868, Note_off_c, 0, 74, 104
2, 3868, Note_on_c, 0, 76, 47
2, 3917, Note_off_c, 0, 76, 107
2, 3919, Note_on_c, 0, 74, 46
2, 3976, Note_off_c, 0, 74, 110
2, 3977, Note_on_c, 0, 76, 45
2, 4025, Note_off_c, 0, 76, 107
2, 4033, Note_on_c, 0, 74, 51
2, 4091, Note_off_c, 0, 74, 106
2, 4092, Note_on_c, 0, 76, 47
2, 4143, Note_off_c, 0, 76, 106
2, 4147, Note_on_c, 0, 74, 55
2, 4203, Note_off_c, 0, 74, 107
2, 4203, Note_on_c, 0, 76, 47
2, 4257, Note_off_c, 0, 76, 109
2, 4260, Note_on_c, 0, 74, 55
2, 4272, Control_c, 0, 64, 123
2, 4273, Control_c, 0, 64, 119
2, 4273, Control_c, 0, 64, 115
2, 4274, Control_c, 0, 64, 111
2, 4276, Control_c, 0, 64, 106
2, 4276, Control_c, 0, 64, 102
2, 4277, Control_c, 0, 64, 93
2, 4277, Control_c, 0, 64, 79
2, 4278, Control_c, 0, 64, 64
2, 4278, Control_c, 0, 64, 50
2, 4279, Control_c, 0, 64, 36
2, 4279, Control_c, 0, 64, 22
2, 4281, Control_c, 0, 64, 11
2, 4282, Control_c, 0, 64, 1
2, 4282, Control_c, 0, 64, 0
2, 4314, Control_c, 0, 64, 6
2, 4314, Control_c, 0, 64, 18
2, 4315, Control_c, 0, 64, 31
2, 4315, Control_c, 0, 64, 43
2, 4317, Control_c, 0, 64, 56
2, 4317, Control_c, 0, 64, 78
2, 4318, Control_c, 0, 64, 82
2, 4318, Control_c, 0, 64, 89
2, 4320, Note_off_c, 0, 74, 110
2, 4320, Control_c, 0, 64, 97
2, 4321, Control_c, 0, 64, 102
2, 4321, Control_c, 0, 64, 105
2, 4321, Control_c, 0, 64, 108
2, 4322, Note_on_c, 0, 76, 45
2, 4322, Control_c, 0, 64, 113
2, 4324, Control_c, 0, 64, 116
2, 4325, Control_c, 0, 64, 119
2, 4325, Control_c, 0, 64, 121
2, 4326, Control_c, 0, 64, 123
2, 4326, Control_c, 0, 64, 125
2, 4328, Control_c, 0, 64, 127
2, 4372, Note_off_c, 0, 76, 108
2, 4378, Note_on_c, 0, 74, 51
2, 4428, Note_off_c, 0, 74, 105
2, 4435, Note_on_c, 0, 76, 38
2, 4481, Note_off_c, 0, 76, 105
2, 4489, Note_on_c, 0, 74, 48
2, 4543, Note_off_c, 0, 74, 100
2, 4550, Note_on_c, 0, 76, 44
2, 4605, Note_on_c, 0, 74, 54
2, 4607, Note_off_c, 0, 76, 110
2, 4666, Note_off_c, 0, 74, 109
2, 4669, Note_on_c, 0, 76, 49
2, 4716, Note_off_c, 0, 76, 107
2, 4722, Note_on_c, 0, 74, 55
2, 4732, Control_c, 0, 64, 125
2, 4732, Control_c, 0, 64, 121
2, 4733, Control_c, 0, 64, 116
2, 4734, Control_c, 0, 64, 111
2, 4734, Control_c, 0, 64, 107
2, 4734, Control_c, 0, 64, 102
2, 4736, Control_c, 0, 64, 90
2, 4736, Control_c, 0, 64, 75
2, 4737, Control_c, 0, 64, 58
2, 4737, Control_c, 0, 64, 40
2, 4739, Control_c, 0, 64, 24
2, 4740, Control_c, 0, 64, 9
2, 4740, Control_c, 0, 64, 0
2, 4771, Control_c, 0, 64, 6
2, 4771, Control_c, 0, 64, 19
2, 4772, Control_c, 0, 64, 33
2, 4772, Control_c, 0, 64, 47
2, 4773, Control_c, 0, 64, 62
2, 4775, Control_c, 0, 64, 73
2, 4775, Control_c, 0, 64, 85
2, 4776, Control_c, 0, 64, 97
2, 4776, Control_c, 0, 64, 102
2, 4777, Control_c, 0, 64, 105
2, 4777, Control_c, 0, 64, 108
2, 4779, Note_off_c, 0, 74, 109
2, 4779, Control_c, 0, 64, 112
2, 4779, Control_c, 0, 64, 115
2, 4780, Control_c, 0, 64, 118
2, 4780, Control_c, 0, 64, 121
2, 4781, Control_c, 0, 64, 123
2, 4781, Note_on_c, 0, 76, 51
2, 4782, Control_c, 0, 64, 126
2, 4784, Control_c, 0, 64, 127
2, 4841, Note_on_c, 0, 74, 60
2, 4842, Note_off_c, 0, 76, 105
2, 4893, Note_off_c, 0, 74, 102
2, 4904, Note_on_c, 0, 72, 39
2, 4962, Note_on_c, 0, 74, 55
2, 4975, Note_off_c, 0, 72, 79
2, 5013, Note_on_c, 0, 76, 37
2, 5077, Note_off_c, 0, 74, 4
2, 5082, Note_off_c, 0, 76, 101
2, 5082, Note_on_c, 0, 77, 49
2, 5144, Note_on_c, 0, 76, 39
2, 5158, Note_off_c, 0, 77, 73
2, 5197, Note_off_c, 0, 76, 95
2, 5201, Note_on_c, 0, 74, 56
2, 5208, Control_c, 0, 64, 125
2, 5208, Control_c, 0, 64, 115
2, 5208, Control_c, 0, 64, 110
2, 5209, Control_c, 0, 64, 105
2, 5210, Control_c, 0, 64, 100
2, 5210, Control_c, 0, 64, 84
2, 5211, Control_c, 0, 64, 66
2, 5211, Control_c, 0, 64, 50
2, 5213, Control_c, 0, 64, 34
2, 5213, Control_c, 0, 64, 20
2, 5214, Control_c, 0, 64, 8
2, 5214, Control_c, 0, 64, 0
2, 5233, Note_off_c, 0, 74, 108
2, 5236, Control_c, 0, 64, 5
2, 5238, Control_c, 0, 64, 14
2, 5238, Control_c, 0, 64, 25
2, 5239, Control_c, 0, 64, 36
2, 5239, Control_c, 0, 64, 47
2, 5240, Control_c, 0, 64, 59
2, 5241, Control_c, 0, 64, 70
2, 5241, Control_c, 0, 64, 80
2, 5243, Control_c, 0, 64, 92
2, 5243, Control_c, 0, 64, 101
2, 5243, Control_c, 0, 64, 105
2, 5244, Control_c, 0, 64, 108
2, 5244, Control_c, 0, 64, 112
2, 5245, Control_c, 0, 64, 115
2, 5245, Control_c, 0, 64, 118
2, 5247, Control_c, 0, 64, 121
2, 5247, Control_c, 0, 64, 124
2, 5248, Control_c, 0, 64, 127
2, 5262, Note_on_c, 0, 76, 50
2, 5283, Note_off_c, 0, 76, 84
2, 5322, Note_on_c, 0, 76, 63
2, 5350, Note_off_c, 0, 76, 106
2, 5379, Note_on_c, 0, 76, 48
2, 5405, Note_off_c, 0, 76, 99
2, 5434, Note_on_c, 0, 76, 58
2, 5476, Note_off_c, 0, 76, 97
2, 5557, Note_on_c, 0, 72, 48
2, 5625, Note_on_c, 0, 79, 47
2, 5633, Note_off_c, 0, 72, 103
2, 5644, Note_off_c, 0, 79, 62
2, 5676, Control_c, 0, 64, 126
2, 5676, Control_c, 0, 64, 122
2, 5677, Control_c, 0, 64, 117
2, 5680, Control_c, 0, 64, 108
2, 5680, Control_c, 0, 64, 104
2, 5680, Control_c, 0, 64, 98
2, 5680, Note_on_c, 0, 72, 56
2, 5681, Control_c, 0, 64, 69
2, 5682, Control_c, 0, 64, 53
2, 5682, Control_c, 0, 64, 38
2, 5683, Control_c, 0, 64, 22
2, 5683, Control_c, 0, 64, 9
2, 5685, Control_c, 0, 64, 0
2, 5713, Control_c, 0, 64, 1
2, 5715, Control_c, 0, 64, 12
2, 5715, Control_c, 0, 64, 24
2, 5716, Control_c, 0, 64, 36
2, 5716, Control_c, 0, 64, 50
2, 5717, Control_c, 0, 64, 63
2, 5717, Control_c, 0, 64, 75
2, 5718, Control_c, 0, 64, 85
2, 5718, Control_c, 0, 64, 96
2, 5720, Control_c, 0, 64, 102
2, 5721, Control_c, 0, 64, 105
2, 5721, Control_c, 0, 64, 108
2, 5723, Control_c, 0, 64, 112
2, 5723, Control_c, 0, 64, 115
2, 5724, Control_c, 0, 64, 118
2, 5724, Control_c, 0, 64, 121
2, 5725, Control_c, 0, 64, 123
2, 5725, Control_c, 0, 64, 126
2, 5727, Control_c, 0, 64, 127
2, 5741, Note_off_c, 0, 72, 76
2, 5868, Note_on_c, 0, 72, 55
2, 5906, Note_off_c, 0, 72, 106
2, 5994, Note_on_c, 0, 67, 35
2, 6044, Note_off_c, 0, 67, 88
2, 6111, Note_on_c, 0, 67, 30
2, 6138, Note_off_c, 0, 67, 88
2, 6181, Note_on_c, 0, 67, 53
2, 6203, Control_c, 0, 64, 123
2, 6203, Control_c, 0, 64, 119
2, 6203, Control_c, 0, 64, 115
2, 6204, Control_c, 0, 64, 111
2, 6204, Control_c, 0, 64, 107
2, 6205, Control_c, 0, 64, 102
2, 6207, Control_c, 0, 64, 95
2, 6207, Control_c, 0, 64, 80
2, 6208, Control_c, 0, 64, 66
2, 6208, Control_c, 0, 64, 52
2, 6210, Control_c, 0, 64, 37
2, 6210, Control_c, 0, 64, 24
2, 6211, Control_c, 0, 64, 11
2, 6211, Control_c, 0, 64, 0
2, 6239, Control_c, 0, 64, 6
2, 6239, Control_c, 0, 64, 18
2, 6241, Control_c, 0, 64, 31
2, 6241, Control_c, 0, 64, 45
2, 6241, Control_c, 0, 64, 59
2, 6242, Control_c, 0, 64, 71
2, 6242, Control_c, 0, 64, 83
2, 6243, Control_c, 0, 64, 95
2, 6245, Control_c, 0, 64, 102
2, 6245, Control_c, 0, 64, 105
2, 6246, Note_on_c, 0, 69, 41
2, 6246, Control_c, 0, 64, 108
2, 6248, Control_c, 0, 64, 115
2, 6248, Control_c, 0, 64, 118
2, 6249, Control_c, 0, 64, 121
2, 6249, Control_c, 0, 64, 124
2, 6250, Control_c, 0, 64, 127
2, 6260, Note_off_c, 0, 67, 90
2, 6308, Note_on_c, 0, 72, 48
2, 6318, Note_off_c, 0, 69, 95
2, 6368, Note_on_c, 0, 67, 55
2, 6370, Note_off_c, 0, 72, 98
2, 6432, Note_on_c, 0, 69, 45
2, 6445, Note_off_c, 0, 67, 73
2, 6492, Note_on_c, 0, 72, 48
2, 6510, Note_off_c, 0, 69, 80
2, 6554, Note_on_c, 0, 74, 65
2, 6561, Note_off_c, 0, 72, 72
2, 6582, Note_off_c, 0, 74, 111
2, 6621, Note_on_c, 0, 76, 57
2, 6676, Note_off_c, 0, 76, 107
2, 6681, Note_on_c, 0, 74, 56
2, 6693, Control_c, 0, 64, 126
2, 6695, Control_c, 0, 64, 121
2, 6695, Control_c, 0, 64, 116
2, 6696, Control_c, 0, 64, 111
2, 6696, Control_c, 0, 64, 106
2, 6697, Control_c, 0, 64, 101
2, 6699, Control_c, 0, 64, 86
2, 6699, Control_c, 0, 64, 67
2, 6700, Control_c, 0, 64, 49
2, 6700, Control_c, 0, 64, 31
2, 6701, Control_c, 0, 64, 14
2, 6701, Control_c, 0, 64, 1
2, 6703, Control_c, 0, 64, 0
2, 6734, Control_c, 0, 64, 8
2, 6735, Control_c, 0, 64, 21
2, 6735, Control_c, 0, 64, 34
2, 6736, Control_c, 0, 64, 49
2, 6736, Control_c, 0, 64, 78
2, 6738, Control_c, 0, 64, 83
2, 6738, Control_c, 0, 64, 90
2, 6739, Control_c, 0, 64, 99
2, 6740, Control_c, 0, 64, 102
2, 6740, Control_c, 0, 64, 105
2, 6742, Note_off_c, 0, 74, 114
2, 6742, Control_c, 0, 64, 108
2, 6742, Note_on_c, 0, 76, 48
2, 6743, Control_c, 0, 64, 115
2, 6743, Control_c, 0, 64, 117
2, 6744, Control_c, 0, 64, 120
2, 6744, Control_c, 0, 64, 122
2, 6745, Control_c, 0, 64, 124
2, 6747, Control_c, 0, 64, 127
2, 6807, Note_off_c, 0, 76, 102
2, 6807, Note_on_c, 0, 74, 68
2, 6862, Note_off_c, 0, 74, 111
2, 6867, Note_on_c, 0, 72, 41
2, 6936, Note_on_c, 0, 74, 65
2, 6952, Note_off_c, 0, 72, 91
2, 6992, Note_on_c, 0, 76, 52
2, 7046, Note_off_c, 0, 74, 0
2, 7046, Note_on_c, 0, 74, 1
2, 7060, Note_off_c, 0, 76, 109
2, 7060, Note_on_c, 0, 77, 67
2, 7068, Note_off_c, 0, 74, 110
2, 7120, Note_on_c, 0, 76, 41
2, 7142, Note_off_c, 0, 77, 70
2, 7176, Note_off_c, 0, 76, 85
2, 7182, Note_on_c, 0, 74, 60
2, 7184, Control_c, 0, 64, 123
2, 7184, Control_c, 0, 64, 112
2, 7185, Control_c, 0, 64, 106
2, 7185, Control_c, 0, 64, 98
2, 7187, Control_c, 0, 64, 77
2, 7187, Control_c, 0, 64, 54
2, 7188, Control_c, 0, 64, 33
2, 7189, Control_c, 0, 64, 15
2, 7189, Control_c, 0, 64, 0
2, 7213, Control_c, 0, 64, 1
2, 7215, Control_c, 0, 64, 12
2, 7215, Control_c, 0, 64, 25
2, 7216, Note_off_c, 0, 74, 109
2, 7216, Control_c, 0, 64, 39
2, 7217, Control_c, 0, 64, 54
2, 7217, Control_c, 0, 64, 69
2, 7217, Control_c, 0, 64, 82
2, 7219, Control_c, 0, 64, 95
2, 7219, Control_c, 0, 64, 102
2, 7220, Control_c, 0, 64, 106
2, 7220, Control_c, 0, 64, 110
2, 7221, Control_c, 0, 64, 114
2, 7221, Control_c, 0, 64, 118
2, 7223, Control_c, 0, 64, 122
2, 7224, Control_c, 0, 64, 125
2, 7224, Control_c, 0, 64, 127
2, 7242, Note_on_c, 0, 76, 66
2, 7271, Note_off_c, 0, 76, 108
2, 7304, Note_on_c, 0, 76, 49
2, 7324, Note_off_c, 0, 76, 89
2, 7364, Note_on_c, 0, 76, 66
2, 7392, Note_off_c, 0, 76, 109
2, 7427, Note_on_c, 0, 76, 58
2, 7462, Note_off_c, 0, 76, 108
2, 7559, Note_on_c, 0, 72, 50
2, 7619, Note_on_c, 0, 81, 51
2, 7626, Note_off_c, 0, 72, 102
2, 7647, Note_off_c, 0, 81, 98
2, 7682, Control_c, 0, 64, 126
2, 7682, Control_c, 0, 64, 122
2, 7683, Control_c, 0, 64, 117
2, 7683, Control_c, 0, 64, 112
2, 7685, Note_on_c, 0, 72, 59
2, 7686, Control_c, 0, 64, 95
2, 7687, Control_c, 0, 64, 79
2, 7687, Control_c, 0, 64, 63
2, 7689, Control_c, 0, 64, 46
2, 7689, Control_c, 0, 64, 31
2, 7689, Note_on_c, 0, 81, 63
2, 7690, Control_c, 0, 64, 6
2, 7691, Control_c, 0, 64, 0
2, 7717, Control_c, 0, 64, 4
2, 7717, Control_c, 0, 64, 14
2, 7718, Control_c, 0, 64, 27
2, 7718, Control_c, 0, 64, 40
2, 7719, Control_c, 0, 64, 53
2, 7719, Control_c, 0, 64, 78
2, 7721, Control_c, 0, 64, 83
2, 7721, Control_c, 0, 64, 91
2, 7722, Control_c, 0, 64, 100
2, 7722, Control_c, 0, 64, 103
2, 7723, Control_c, 0, 64, 107
2, 7723, Control_c, 0, 64, 110
2, 7725, Control_c, 0, 64, 114
2, 7726, Control_c, 0, 64, 117
2, 7726, Control_c, 0, 64, 120
2, 7727, Control_c, 0, 64, 123
2, 7727, Control_c, 0, 64, 126
2, 7728, Control_c, 0, 64, 127
2, 7803, Note_off_c, 0, 81, 104
2, 7811, Note_off_c, 0, 72, 103
2, 7812, Note_on_c, 0, 79, 55
2, 7846, Note_off_c, 0, 79, 104
2, 7872, Note_on_c, 0, 72, 66
2, 7911, Note_off_c, 0, 72, 100
2, 7992, Note_on_c, 0, 72, 40
2, 8056, Note_on_c, 0, 74, 56
2, 8062, Note_off_c, 0, 72, 106
2, 8116, Note_off_c, 0, 74, 106
2, 8116, Note_on_c, 0, 72, 55
2, 8193, Control_c, 0, 64, 125
2, 8193, Control_c, 0, 64, 122
2, 8195, Control_c, 0, 64, 118
2, 8195, Control_c, 0, 64, 114
2, 8196, Control_c, 0, 64, 110
2, 8196, Control_c, 0, 64, 106
2, 8197, Control_c, 0, 64, 103
2, 8197, Control_c, 0, 64, 98
2, 8199, Control_c, 0, 64, 78
2, 8199, Control_c, 0, 64, 72
2, 8200, Control_c, 0, 64, 64
2, 8202, Control_c, 0, 64, 54
2, 8202, Control_c, 0, 64, 45
2, 8202, Control_c, 0, 64, 37
2, 8203, Control_c, 0, 64, 28
2, 8204, Control_c, 0, 64, 21
2, 8204, Control_c, 0, 64, 15
2, 8205, Control_c, 0, 64, 12
2, 8205, Control_c, 0, 64, 8
2, 8207, Control_c, 0, 64, 5
2, 8207, Control_c, 0, 64, 2
2, 8208, Control_c, 0, 64, 0
2, 8217, Control_c, 0, 64, 1
2, 8219, Control_c, 0, 64, 5
2, 8219, Control_c, 0, 64, 8
2, 8220, Control_c, 0, 64, 14
2, 8220, Control_c, 0, 64, 21
2, 8221, Control_c, 0, 64, 30
2, 8223, Control_c, 0, 64, 38
2, 8223, Control_c, 0, 64, 47
2, 8224, Control_c, 0, 64, 57
2, 8224, Control_c, 0, 64, 66
2, 8226, Control_c, 0, 64, 76
2, 8226, Control_c, 0, 64, 85
2, 8227, Note_off_c, 0, 72, 88
2, 8227, Control_c, 0, 64, 96
2, 8228, Control_c, 0, 64, 102
2, 8228, Control_c, 0, 64, 105
2, 8228, Control_c, 0, 64, 108
2, 8230, Control_c, 0, 64, 111
2, 8230, Control_c, 0, 64, 114
2, 8231, Control_c, 0, 64, 117
2, 8232, Control_c, 0, 64, 121
2, 8232, Control_c, 0, 64, 124
2, 8233, Control_c, 0, 64, 127
2, 8364, Note_on_c, 0, 67, 55
2, 8396, Note_off_c, 0, 67, 92
2, 8480, Note_on_c, 0, 67, 18
2, 8553, Note_on_c, 0, 69, 45
2, 8557, Note_off_c, 0, 67, 100
2, 8609, Note_on_c, 0, 67, 51
2, 8613, Note_off_c, 0, 69, 92
2, 8630, Note_off_c, 0, 67, 52
2, 8666, Note_on_c, 0, 67, 58
2, 8674, Note_on_c, 0, 72, 56
2, 8675, Control_c, 0, 64, 121
2, 8675, Control_c, 0, 64, 116
2, 8677, Control_c, 0, 64, 112
2, 8677, Control_c, 0, 64, 107
2, 8678, Control_c, 0, 64, 103
2, 8679, Control_c, 0, 64, 97
2, 8679, Control_c, 0, 64, 83
2, 8681, Control_c, 0, 64, 69
2, 8681, Control_c, 0, 64, 54
2, 8682, Control_c, 0, 64, 40
2, 8682, Control_c, 0, 64, 27
2, 8683, Control_c, 0, 64, 17
2, 8683, Control_c, 0, 64, 7
2, 8685, Control_c, 0, 64, 0
2, 8704, Control_c, 0, 64, 4
2, 8705, Control_c, 0, 64, 11
2, 8706, Control_c, 0, 64, 20
2, 8706, Control_c, 0, 64, 31
2, 8708, Control_c, 0, 64, 41
2, 8708, Control_c, 0, 64, 53
2, 8709, Control_c, 0, 64, 65
2, 8709, Control_c, 0, 64, 76
2, 8711, Control_c, 0, 64, 88
2, 8711, Control_c, 0, 64, 99
2, 8712, Control_c, 0, 64, 103
2, 8713, Control_c, 0, 64, 107
2, 8713, Control_c, 0, 64, 110
2, 8714, Control_c, 0, 64, 114
2, 8714, Control_c, 0, 64, 117
2, 8716, Control_c, 0, 64, 121
2, 8716, Control_c, 0, 64, 124
2, 8717, Control_c, 0, 64, 127
2, 8734, Note_off_c, 0, 67, 49
2, 8761, Note_off_c, 0, 72, 75
2, 8868, Note_on_c, 0, 67, 55
2, 8874, Note_on_c, 0, 71, 55
2, 8918, Note_off_c, 0, 67, 64
2, 8972, Note_off_c, 0, 71, 18
2, 8992, Note_on_c, 0, 72, 43
2, 9054, Note_off_c, 0, 72, 88
2, 9067, Note_on_c, 0, 71, 33
2, 9102, Note_off_c, 0, 71, 38
2, 9204, Note_on_c, 0, 72, 67
2, 9205, Control_c, 0, 64, 125
2, 9205, Control_c, 0, 64, 121
2, 9205, Control_c, 0, 64, 117
2, 9207, Control_c, 0, 64, 113
2, 9207, Control_c, 0, 64, 109
2, 9208, Control_c, 0, 64, 105
2, 9208, Control_c, 0, 64, 101
2, 9209, Control_c, 0, 64, 92
2, 9211, Control_c, 0, 64, 82
2, 9211, Control_c, 0, 64, 70
2, 9212, Control_c, 0, 64, 58
2, 9212, Control_c, 0, 64, 47
2, 9213, Control_c, 0, 64, 37
2, 9213, Control_c, 0, 64, 26
2, 9215, Control_c, 0, 64, 18
2, 9215, Control_c, 0, 64, 11
2, 9216, Control_c, 0, 64, 4
2, 9216, Control_c, 0, 64, 0
2, 9239, Control_c, 0, 64, 6
2, 9240, Control_c, 0, 64, 15
2, 9240, Control_c, 0, 64, 27
2, 9240, Control_c, 0, 64, 38
2, 9242, Control_c, 0, 64, 50
2, 9243, Control_c, 0, 64, 63
2, 9243, Control_c, 0, 64, 73
2, 9244, Control_c, 0, 64, 84
2, 9244, Control_c, 0, 64, 96
2, 9246, Control_c, 0, 64, 102
2, 9246, Control_c, 0, 64, 106
2, 9247, Control_c, 0, 64, 109
2, 9247, Control_c, 0, 64, 113
2, 9248, Control_c, 0, 64, 116
2, 9248, Control_c, 0, 64, 119
2, 9250, Control_c, 0, 64, 122
2, 9250, Control_c, 0, 64, 125
2, 9251, Control_c, 0, 64, 127
2, 9259, Note_off_c, 0, 72, 106
2, 9397, Note_on_c, 0, 84, 53
2, 9403, Note_on_c, 0, 72, 13
2, 9428, Note_off_c, 0, 72, 75
2, 9452, Note_off_c, 0, 84, 95
2, 9519, Note_on_c, 0, 84, 38
2, 9548, Note_off_c, 0, 84, 96
2, 9584, Note_on_c, 0, 86, 57
2, 9643, Note_off_c, 0, 86, 94
2, 9715, Note_on_c, 0, 74, 57
2, 9718, Note_on_c, 0, 86, 64
2, 9720, Control_c, 0, 64, 123
2, 9722, Control_c, 0, 64, 119
2, 9722, Control_c, 0, 64, 115
2, 9723, Control_c, 0, 64, 111
2, 9723, Control_c, 0, 64, 107
2, 9724, Control_c, 0, 64, 103
2, 9724, Control_c, 0, 64, 97
2, 9726, Control_c, 0, 64, 84
2, 9726, Control_c, 0, 64, 71
2, 9727, Control_c, 0, 64, 58
2, 9728, Control_c, 0, 64, 46
2, 9728, Control_c, 0, 64, 34
2, 9730, Control_c, 0, 64, 24
2, 9730, Control_c, 0, 64, 17
2, 9731, Control_c, 0, 64, 9
2, 9731, Control_c, 0, 64, 4
2, 9732, Control_c, 0, 64, 0
2, 9748, Control_c, 0, 64, 6
2, 9750, Control_c, 0, 64, 12
2, 9750, Control_c, 0, 64, 19
2, 9751, Control_c, 0, 64, 27
2, 9752, Control_c, 0, 64, 36
2, 9752, Control_c, 0, 64, 44
2, 9752, Control_c, 0, 64, 53
2, 9754, Control_c, 0, 64, 64
2, 9754, Control_c, 0, 64, 72
2, 9755, Control_c, 0, 64, 82
2, 9755, Control_c, 0, 64, 91
2, 9756, Control_c, 0, 64, 100
2, 9758, Control_c, 0, 64, 103
2, 9758, Control_c, 0, 64, 106
2, 9759, Control_c, 0, 64, 108
2, 9759, Control_c, 0, 64, 111
2, 9760, Control_c, 0, 64, 114
2, 9760, Control_c, 0, 64, 117
2, 9762, Control_c, 0, 64, 120
2, 9762, Control_c, 0, 64, 122
2, 9763, Control_c, 0, 64, 125
2, 9763, Control_c, 0, 64, 127
2, 9764, Note_off_c, 0, 74, 108
2, 9766, Note_off_c, 0, 86, 101
2, 9844, Note_on_c, 0, 72, 40
2, 9852, Note_on_c, 0, 84, 23
2, 9877, Note_off_c, 0, 72, 108
2, 9881, Note_off_c, 0, 84, 108
2, 9916, Note_on_c, 0, 71, 56
2, 9920, Note_on_c, 0, 83, 37
2, 9958, Note_off_c, 0, 83, 106
2, 9959, Note_off_c, 0, 71, 107
2, 10045, Note_on_c, 0, 67, 49
2, 10051, Note_on_c, 0, 79, 52
2, 10101, Note_off_c, 0, 79, 97
2, 10104, Note_off_c, 0, 67, 85
2, 10178, Note_on_c, 0, 67, 32
2, 10200, Note_off_c, 0, 67, 64
2, 10244, Note_on_c, 0, 67, 53
2, 10256, Note_on_c, 0, 79, 64
2, 10273, Control_c, 0, 64, 126
2, 10273, Control_c, 0, 64, 122
2, 10274, Control_c, 0, 64, 118
2, 10274, Control_c, 0, 64, 113
2, 10275, Control_c, 0, 64, 109
2, 10275, Control_c, 0, 64, 104
2, 10277, Control_c, 0, 64, 100
2, 10277, Control_c, 0, 64, 85
2, 10278, Control_c, 0, 64, 69
2, 10278, Control_c, 0, 64, 52
2, 10279, Control_c, 0, 64, 36
2, 10279, Control_c, 0, 64, 20
2, 10281, Control_c, 0, 64, 7
2, 10282, Control_c, 0, 64, 0
2, 10302, Note_off_c, 0, 67, 66
2, 10308, Control_c, 0, 64, 5
2, 10309, Control_c, 0, 64, 17
2, 10309, Control_c, 0, 64, 31
2, 10310, Control_c, 0, 64, 46
2, 10310, Control_c, 0, 64, 60
2, 10312, Control_c, 0, 64, 75
2, 10312, Control_c, 0, 64, 88
2, 10313, Control_c, 0, 64, 100
2, 10313, Control_c, 0, 64, 104
2, 10314, Control_c, 0, 64, 108
2, 10315, Control_c, 0, 64, 111
2, 10315, Control_c, 0, 64, 115
2, 10317, Control_c, 0, 64, 119
2, 10317, Control_c, 0, 64, 123
2, 10319, Control_c, 0, 64, 126
2, 10319, Control_c, 0, 64, 127
2, 10340, Note_off_c, 0, 79, 102
2, 10472, Note_on_c, 0, 81, 38
2, 10474, Note_on_c, 0, 69, 32
2, 10830, Note_off_c, 0, 81, 11
2, 10904, Note_off_c, 0, 69, 95
2, 11000, Note_on_c, 0, 69, 53
2, 11008, Note_on_c, 0, 81, 58
2, 11011, Control_c, 0, 64, 122
2, 11011, Control_c, 0, 64, 117
2, 11012, Control_c, 0, 64, 113
2, 11014, Control_c, 0, 64, 108
2, 11014, Control_c, 0, 64, 103
2, 11015, Control_c, 0, 64, 96
2, 11015, Control_c, 0, 64, 80
2, 11016, Control_c, 0, 64, 63
2, 11016, Control_c, 0, 64, 45
2, 11018, Control_c, 0, 64, 30
2, 11018, Control_c, 0, 64, 15
2, 11019, Control_c, 0, 64, 2
2, 11020, Control_c, 0, 64, 0
2, 11043, Control_c, 0, 64, 2
2, 11045, Control_c, 0, 64, 13
2, 11046, Control_c, 0, 64, 26
2, 11046, Control_c, 0, 64, 40
2, 11047, Control_c, 0, 64, 54
2, 11047, Control_c, 0, 64, 67
2, 11049, Control_c, 0, 64, 79
2, 11049, Control_c, 0, 64, 92
2, 11050, Control_c, 0, 64, 101
2, 11051, Control_c, 0, 64, 105
2, 11051, Control_c, 0, 64, 109
2, 11051, Control_c, 0, 64, 113
2, 11053, Control_c, 0, 64, 117
2, 11053, Control_c, 0, 64, 120
2, 11054, Control_c, 0, 64, 124
2, 11055, Control_c, 0, 64, 127
2, 11082, Note_off_c, 0, 69, 59
2, 11137, Note_off_c, 0, 81, 98
2, 11222, Note_on_c, 0, 71, 45
2, 11222, Note_on_c, 0, 83, 53
2, 11258, Note_off_c, 0, 71, 83
2, 11261, Note_off_c, 0, 83, 95
2, 11299, Note_on_c, 0, 71, 64
2, 11303, Note_on_c, 0, 83, 46
2, 11331, Note_off_c, 0, 71, 91
2, 11347, Note_off_c, 0, 83, 99
2, 11752, Control_c, 0, 64, 121
2, 11754, Control_c, 0, 64, 111
2, 11754, Control_c, 0, 64, 101
2, 11755, Control_c, 0, 64, 64
2, 11755, Control_c, 0, 64, 25
2, 11756, Control_c, 0, 64, 0
2, 11756, End_track
3, 0, Start_track
3, 0, Title_t, ""
3, 120, Control_c, 0, 0, 0
3, 130, Control_c, 0, 32, 0
3, 140, Program_c, 0, 0
3, 150, Control_c, 0, 1, 0
3, 160, Control_c, 0, 7, 100
3, 170, Control_c, 0, 10, 64
3, 180, Control_c, 0, 11, 127
3, 190, Control_c, 0, 64, 0
3, 200, Control_c, 0, 91, 40
3, 210, Control_c, 0, 93, 0
3, 220, Control_c, 0, 94, 0
3, 353, Note_on_c, 0, 48, 47
3, 795, Note_off_c, 0, 48, 89
3, 880, Note_on_c, 0, 48, 39
3, 904, Control_c, 0, 64, 1
3, 904, Control_c, 0, 64, 7
3, 905, Control_c, 0, 64, 13
3, 905, Control_c, 0, 64, 20
3, 906, Control_c, 0, 64, 27
3, 908, Control_c, 0, 64, 33
3, 908, Control_c, 0, 64, 40
3, 909, Control_c, 0, 64, 47
3, 909, Control_c, 0, 64, 54
3, 911, Control_c, 0, 64, 63
3, 911, Control_c, 0, 64, 78
3, 912, Control_c, 0, 64, 80
3, 912, Control_c, 0, 64, 85
3, 913, Control_c, 0, 64, 92
3, 913, Control_c, 0, 64, 100
3, 914, Control_c, 0, 64, 102
3, 914, Control_c, 0, 64, 105
3, 916, Control_c, 0, 64, 108
3, 916, Control_c, 0, 64, 111
3, 917, Control_c, 0, 64, 114
3, 919, Control_c, 0, 64, 117
3, 919, Control_c, 0, 64, 119
3, 920, Control_c, 0, 64, 122
3, 920, Control_c, 0, 64, 124
3, 921, Control_c, 0, 64, 127
3, 1069, Note_on_c, 0, 55, 34
3, 1072, Note_off_c, 0, 48, 91
3, 1176, Note_off_c, 0, 55, 97
3, 1186, Note_on_c, 0, 64, 38
3, 1274, Note_off_c, 0, 64, 104
3, 1292, Note_on_c, 0, 55, 57
3, 1314, Note_off_c, 0, 55, 84
3, 1405, Note_on_c, 0, 45, 57
3, 1419, Control_c, 0, 64, 122
3, 1420, Control_c, 0, 64, 117
3, 1422, Control_c, 0, 64, 111
3, 1422, Control_c, 0, 64, 105
3, 1423, Control_c, 0, 64, 97
3, 1423, Control_c, 0, 64, 75
3, 1424, Control_c, 0, 64, 51
3, 1424, Control_c, 0, 64, 28
3, 1425, Control_c, 0, 64, 8
3, 1425, Control_c, 0, 64, 0
3, 1464, Control_c, 0, 64, 6
3, 1464, Control_c, 0, 64, 21
3, 1466, Control_c, 0, 64, 38
3, 1467, Control_c, 0, 64, 54
3, 1467, Control_c, 0, 64, 70
3, 1468, Control_c, 0, 64, 84
3, 1468, Control_c, 0, 64, 98
3, 1470, Control_c, 0, 64, 103
3, 1470, Control_c, 0, 64, 107
3, 1471, Control_c, 0, 64, 110
3, 1471, Control_c, 0, 64, 114
3, 1472, Control_c, 0, 64, 118
3, 1472, Control_c, 0, 64, 121
3, 1473, Control_c, 0, 64, 124
3, 1473, Control_c, 0, 64, 127
3, 1522, Note_on_c, 0, 52, 54
3, 1528, Note_off_c, 0, 45, 98
3, 1638, Note_off_c, 0, 52, 96
3, 1638, Note_on_c, 0, 60, 64
3, 1747, Note_off_c, 0, 60, 106
3, 1756, Note_on_c, 0, 52, 68
3, 1779, Note_off_c, 0, 52, 107
3, 1872, Note_on_c, 0, 41, 57
3, 1887, Control_c, 0, 64, 125
3, 1887, Control_c, 0, 64, 121
3, 1887, Control_c, 0, 64, 116
3, 1888, Control_c, 0, 64, 111
3, 1888, Control_c, 0, 64, 106
3, 1890, Control_c, 0, 64, 100
3, 1890, Control_c, 0, 64, 84
3, 1891, Control_c, 0, 64, 65
3, 1892, Control_c, 0, 64, 45
3, 1892, Control_c, 0, 64, 26
3, 1893, Control_c, 0, 64, 9
3, 1893, Control_c, 0, 64, 0
3, 1926, Control_c, 0, 64, 2
3, 1926, Control_c, 0, 64, 15
3, 1927, Control_c, 0, 64, 30
3, 1927, Control_c, 0, 64, 45
3, 1928, Control_c, 0, 64, 59
3, 1930, Control_c, 0, 64, 72
3, 1930, Control_c, 0, 64, 85
3, 1931, Control_c, 0, 64, 97
3, 1932, Control_c, 0, 64, 102
3, 1932, Control_c, 0, 64, 105
3, 1932, Control_c, 0, 64, 108
3, 1934, Control_c, 0, 64, 112
3, 1934, Control_c, 0, 64, 115
3, 1935, Control_c, 0, 64, 118
3, 1935, Control_c, 0, 64, 121
3, 1938, Control_c, 0, 64, 126
3, 1938, Control_c, 0, 64, 127
3, 1983, Note_on_c, 0, 48, 37
3, 1987, Note_off_c, 0, 41, 89
3, 2102, Note_off_c, 0, 48, 90
3, 2106, Note_on_c, 0, 57, 41
3, 2224, Note_on_c, 0, 48, 45
3, 2232, Note_off_c, 0, 57, 102
3, 2267, Note_off_c, 0, 48, 88
3, 2350, Note_on_c, 0, 43, 52
3, 2368, Control_c, 0, 64, 124
3, 2369, Control_c, 0, 64, 120
3, 2369, Control_c, 0, 64, 115
3, 2370, Control_c, 0, 64, 111
3, 2371, Control_c, 0, 64, 106
3, 2371, Control_c, 0, 64, 102
3, 2371, Control_c, 0, 64, 90
3, 2373, Control_c, 0, 64, 72
3, 2373, Control_c, 0, 64, 54
3, 2374, Control_c, 0, 64, 37
3, 2374, Control_c, 0, 64, 19
3, 2376, Control_c, 0, 64, 5
3, 2377, Control_c, 0, 64, 0
3, 2421, Control_c, 0, 64, 13
3, 2423, Control_c, 0, 64, 28
3, 2423, Control_c, 0, 64, 43
3, 2423, Control_c, 0, 64, 57
3, 2424, Control_c, 0, 64, 70
3, 2425, Control_c, 0, 64, 93
3, 2426, Control_c, 0, 64, 101
3, 2426, Control_c, 0, 64, 104
3, 2428, Control_c, 0, 64, 107
3, 2428, Control_c, 0, 64, 109
3, 2429, Control_c, 0, 64, 113
3, 2429, Control_c, 0, 64, 115
3, 2430, Control_c, 0, 64, 118
3, 2430, Control_c, 0, 64, 120
3, 2432, Control_c, 0, 64, 123
3, 2432, Control_c, 0, 64, 125
3, 2433, Control_c, 0, 64, 127
3, 2484, Note_on_c, 0, 50, 45
3, 2493, Note_off_c, 0, 43, 91
3, 2679, Note_on_c, 0, 59, 29
3, 2689, Note_off_c, 0, 50, 86
3, 2915, Note_on_c, 0, 50, 44
3, 2932, Note_off_c, 0, 59, 96
3, 3054, Note_off_c, 0, 50, 104
3, 3234, Note_on_c, 0, 48, 37
3, 3258, Control_c, 0, 64, 125
3, 3258, Control_c, 0, 64, 122
3, 3259, Control_c, 0, 64, 119
3, 3259, Control_c, 0, 64, 115
3, 3260, Control_c, 0, 64, 112
3, 3260, Control_c, 0, 64, 108
3, 3262, Control_c, 0, 64, 105
3, 3262, Control_c, 0, 64, 102
3, 3263, Control_c, 0, 64, 95
3, 3263, Control_c, 0, 64, 84
3, 3264, Control_c, 0, 64, 72
3, 3266, Control_c, 0, 64, 59
3, 3266, Control_c, 0, 64, 45
3, 3266, Control_c, 0, 64, 32
3, 3267, Control_c, 0, 64, 20
3, 3267, Control_c, 0, 64, 8
3, 3268, Control_c, 0, 64, 0
3, 3315, Control_c, 0, 64, 4
3, 3315, Control_c, 0, 64, 14
3, 3317, Control_c, 0, 64, 25
3, 3318, Control_c, 0, 64, 36
3, 3318, Control_c, 0, 64, 47
3, 3319, Control_c, 0, 64, 58
3, 3319, Control_c, 0, 64, 78
3, 3321, Control_c, 0, 64, 80
3, 3321, Control_c, 0, 64, 85
3, 3322, Control_c, 0, 64, 91
3, 3323, Control_c, 0, 64, 98
3, 3323, Control_c, 0, 64, 102
3, 3323, Control_c, 0, 64, 104
3, 3325, Control_c, 0, 64, 106
3, 3325, Control_c, 0, 64, 108
3, 3326, Control_c, 0, 64, 110
3, 3326, Control_c, 0, 64, 112
3, 3328, Control_c, 0, 64, 114
3, 3329, Control_c, 0, 64, 115
3, 3329, Control_c, 0, 64, 117
3, 3329, Control_c, 0, 64, 119
3, 3330, Control_c, 0, 64, 120
3, 3332, Control_c, 0, 64, 122
3, 3332, Control_c, 0, 64, 123
3, 3333, Control_c, 0, 64, 124
3, 3333, Control_c, 0, 64, 125
3, 3334, Control_c, 0, 64, 127
3, 3448, Note_on_c, 0, 55, 30
3, 3456, Note_off_c, 0, 48, 82
3, 3559, Note_off_c, 0, 55, 94
3, 3571, Note_on_c, 0, 64, 41
3, 3676, Note_off_c, 0, 64, 96
3, 3683, Note_on_c, 0, 55, 58
3, 3708, Note_off_c, 0, 55, 98
3, 3793, Note_on_c, 0, 45, 52
3, 3812, Control_c, 0, 64, 126
3, 3812, Control_c, 0, 64, 122
3, 3813, Control_c, 0, 64, 117
3, 3813, Control_c, 0, 64, 113
3, 3815, Control_c, 0, 64, 108
3, 3815, Control_c, 0, 64, 104
3, 3816, Control_c, 0, 64, 99
3, 3816, Control_c, 0, 64, 85
3, 3817, Control_c, 0, 64, 70
3, 3817, Control_c, 0, 64, 53
3, 3819, Control_c, 0, 64, 37
3, 3820, Control_c, 0, 64, 21
3, 3820, Control_c, 0, 64, 8
3, 3820, Control_c, 0, 64, 0
3, 3853, Control_c, 0, 64, 5
3, 3855, Control_c, 0, 64, 17
3, 3855, Control_c, 0, 64, 31
3, 3856, Control_c, 0, 64, 45
3, 3856, Control_c, 0, 64, 58
3, 3858, Control_c, 0, 64, 70
3, 3858, Control_c, 0, 64, 82
3, 3859, Control_c, 0, 64, 93
3, 3859, Control_c, 0, 64, 101
3, 3860, Control_c, 0, 64, 104
3, 3862, Control_c, 0, 64, 107
3, 3862, Control_c, 0, 64, 110
3, 3863, Control_c, 0, 64, 114
3, 3863, Control_c, 0, 64, 117
3, 3864, Control_c, 0, 64, 120
3, 3864, Control_c, 0, 64, 122
3, 3865, Control_c, 0, 64, 125
3, 3867, Control_c, 0, 64, 127
3, 3921, Note_on_c, 0, 52, 50
3, 3934, Note_off_c, 0, 45, 100
3, 4038, Note_off_c, 0, 52, 100
3, 4038, Note_on_c, 0, 60, 49
3, 4145, Note_off_c, 0, 60, 102
3, 4145, Note_on_c, 0, 52, 59
3, 4170, Note_off_c, 0, 52, 101
3, 4259, Note_on_c, 0, 41, 59
3, 4272, Control_c, 0, 64, 123
3, 4273, Control_c, 0, 64, 119
3, 4273, Control_c, 0, 64, 115
3, 4274, Control_c, 0, 64, 111
3, 4276, Control_c, 0, 64, 106
3, 4276, Control_c, 0, 64, 102
3, 4277, Control_c, 0, 64, 93
3, 4277, Control_c, 0, 64, 79
3, 4278, Control_c, 0, 64, 64
3, 4278, Control_c, 0, 64, 50
3, 4279, Control_c, 0, 64, 36
3, 4279, Control_c, 0, 64, 22
3, 4281, Control_c, 0, 64, 11
3, 4282, Control_c, 0, 64, 1
3, 4282, Control_c, 0, 64, 0
3, 4314, Control_c, 0, 64, 6
3, 4314, Control_c, 0, 64, 18
3, 4315, Control_c, 0, 64, 31
3, 4315, Control_c, 0, 64, 43
3, 4317, Control_c, 0, 64, 56
3, 4317, Control_c, 0, 64, 78
3, 4318, Control_c, 0, 64, 82
3, 4318, Control_c, 0, 64, 89
3, 4320, Control_c, 0, 64, 97
3, 4321, Control_c, 0, 64, 102
3, 4321, Control_c, 0, 64, 105
3, 4321, Control_c, 0, 64, 108
3, 4322, Control_c, 0, 64, 113
3, 4324, Control_c, 0, 64, 116
3, 4325, Control_c, 0, 64, 119
3, 4325, Control_c, 0, 64, 121
3, 4326, Control_c, 0, 64, 123
3, 4326, Control_c, 0, 64, 125
3, 4328, Control_c, 0, 64, 127
3, 4371, Note_on_c, 0, 48, 46
3, 4374, Note_off_c, 0, 41, 95
3, 4484, Note_off_c, 0, 48, 102
3, 4489, Note_on_c, 0, 57, 68
3, 4607, Note_on_c, 0, 48, 57
3, 4613, Note_off_c, 0, 57, 104
3, 4647, Note_off_c, 0, 48, 88
3, 4722, Note_on_c, 0, 43, 52
3, 4732, Control_c, 0, 64, 125
3, 4732, Control_c, 0, 64, 121
3, 4733, Control_c, 0, 64, 116
3, 4734, Control_c, 0, 64, 111
3, 4734, Control_c, 0, 64, 107
3, 4734, Control_c, 0, 64, 102
3, 4736, Control_c, 0, 64, 90
3, 4736, Control_c, 0, 64, 75
3, 4737, Control_c, 0, 64, 58
3, 4737, Control_c, 0, 64, 40
3, 4739, Control_c, 0, 64, 24
3, 4740, Control_c, 0, 64, 9
3, 4740, Control_c, 0, 64, 0
3, 4771, Control_c, 0, 64, 6
3, 4771, Control_c, 0, 64, 19
3, 4772, Control_c, 0, 64, 33
3, 4772, Control_c, 0, 64, 47
3, 4773, Control_c, 0, 64, 62
3, 4775, Control_c, 0, 64, 73
3, 4775, Control_c, 0, 64, 85
3, 4776, Control_c, 0, 64, 97
3, 4776, Control_c, 0, 64, 102
3, 4777, Control_c, 0, 64, 105
3, 4777, Control_c, 0, 64, 108
3, 4779, Control_c, 0, 64, 112
3, 4779, Control_c, 0, 64, 115
3, 4780, Control_c, 0, 64, 118
3, 4780, Control_c, 0, 64, 121
3, 4781, Control_c, 0, 64, 123
3, 4782, Control_c, 0, 64, 126
3, 4784, Control_c, 0, 64, 127
3, 4835, Note_off_c, 0, 43, 93
3, 4839, Note_on_c, 0, 50, 56
3, 4959, Note_off_c, 0, 50, 101
3, 4962, Note_on_c, 0, 59, 65
3, 5084, Note_on_c, 0, 50, 55
3, 5091, Note_off_c, 0, 59, 103
3, 5099, Note_off_c, 0, 50, 69
3, 5205, Note_on_c, 0, 48, 60
3, 5208, Control_c, 0, 64, 125
3, 5208, Control_c, 0, 64, 115
3, 5208, Control_c, 0, 64, 110
3, 5209, Control_c, 0, 64, 105
3, 5210, Control_c, 0, 64, 100
3, 5210, Control_c, 0, 64, 84
3, 5211, Control_c, 0, 64, 66
3, 5211, Control_c, 0, 64, 50
3, 5213, Control_c, 0, 64, 34
3, 5213, Control_c, 0, 64, 20
3, 5214, Control_c, 0, 64, 8
3, 5214, Control_c, 0, 64, 0
3, 5236, Control_c, 0, 64, 5
3, 5238, Control_c, 0, 64, 14
3, 5238, Control_c, 0, 64, 25
3, 5239, Control_c, 0, 64, 36
3, 5239, Control_c, 0, 64, 47
3, 5240, Control_c, 0, 64, 59
3, 5241, Control_c, 0, 64, 70
3, 5241, Control_c, 0, 64, 80
3, 5243, Control_c, 0, 64, 92
3, 5243, Control_c, 0, 64, 101
3, 5243, Control_c, 0, 64, 105
3, 5244, Control_c, 0, 64, 108
3, 5244, Control_c, 0, 64, 112
3, 5245, Control_c, 0, 64, 115
3, 5245, Control_c, 0, 64, 118
3, 5247, Control_c, 0, 64, 121
3, 5247, Control_c, 0, 64, 124
3, 5248, Control_c, 0, 64, 127
3, 5257, Note_on_c, 0, 55, 55
3, 5265, Note_off_c, 0, 48, 98
3, 5290, Note_off_c, 0, 55, 103
3, 5307, Note_on_c, 0, 60, 46
3, 5334, Note_off_c, 0, 60, 98
3, 5370, Note_on_c, 0, 64, 55
3, 5409, Note_off_c, 0, 64, 97
3, 5434, Note_on_c, 0, 67, 67
3, 5484, Note_off_c, 0, 67, 106
3, 5494, Note_on_c, 0, 64, 58
3, 5511, Note_off_c, 0, 64, 71
3, 5676, Control_c, 0, 64, 126
3, 5676, Control_c, 0, 64, 122
3, 5677, Control_c, 0, 64, 117
3, 5677, Note_on_c, 0, 45, 59
3, 5680, Control_c, 0, 64, 108
3, 5680, Control_c, 0, 64, 104
3, 5680, Control_c, 0, 64, 98
3, 5681, Control_c, 0, 64, 69
3, 5682, Control_c, 0, 64, 53
3, 5682, Control_c, 0, 64, 38
3, 5683, Control_c, 0, 64, 22
3, 5683, Control_c, 0, 64, 9
3, 5685, Control_c, 0, 64, 0
3, 5713, Control_c, 0, 64, 1
3, 5715, Control_c, 0, 64, 12
3, 5715, Control_c, 0, 64, 24
3, 5716, Control_c, 0, 64, 36
3, 5716, Control_c, 0, 64, 50
3, 5717, Control_c, 0, 64, 63
3, 5717, Control_c, 0, 64, 75
3, 5718, Control_c, 0, 64, 85
3, 5718, Control_c, 0, 64, 96
3, 5720, Control_c, 0, 64, 102
3, 5721, Control_c, 0, 64, 105
3, 5721, Control_c, 0, 64, 108
3, 5723, Control_c, 0, 64, 112
3, 5723, Control_c, 0, 64, 115
3, 5724, Control_c, 0, 64, 118
3, 5724, Control_c, 0, 64, 121
3, 5725, Control_c, 0, 64, 123
3, 5725, Control_c, 0, 64, 126
3, 5727, Control_c, 0, 64, 127
3, 5744, Note_on_c, 0, 52, 45
3, 5752, Note_off_c, 0, 45, 97
3, 5785, Note_off_c, 0, 52, 102
3, 5798, Note_on_c, 0, 57, 44
3, 5829, Note_off_c, 0, 57, 89
3, 5859, Note_on_c, 0, 60, 47
3, 5921, Note_off_c, 0, 60, 109
3, 5933, Note_on_c, 0, 64, 41
3, 6001, Note_off_c, 0, 64, 95
3, 6055, Note_on_c, 0, 60, 38
3, 6069, Note_off_c, 0, 60, 91
3, 6173, Note_on_c, 0, 41, 48
3, 6203, Control_c, 0, 64, 123
3, 6203, Control_c, 0, 64, 119
3, 6203, Control_c, 0, 64, 115
3, 6204, Control_c, 0, 64, 111
3, 6204, Control_c, 0, 64, 107
3, 6205, Control_c, 0, 64, 102
3, 6207, Control_c, 0, 64, 95
3, 6207, Control_c, 0, 64, 80
3, 6208, Control_c, 0, 64, 66
3, 6208, Control_c, 0, 64, 52
3, 6210, Control_c, 0, 64, 37
3, 6210, Control_c, 0, 64, 24
3, 6211, Control_c, 0, 64, 11
3, 6211, Control_c, 0, 64, 0
3, 6239, Control_c, 0, 64, 6
3, 6239, Control_c, 0, 64, 18
3, 6241, Control_c, 0, 64, 31
3, 6241, Control_c, 0, 64, 45
3, 6241, Control_c, 0, 64, 59
3, 6242, Control_c, 0, 64, 71
3, 6242, Control_c, 0, 64, 83
3, 6243, Control_c, 0, 64, 95
3, 6245, Control_c, 0, 64, 102
3, 6245, Control_c, 0, 64, 105
3, 6246, Control_c, 0, 64, 108
3, 6248, Control_c, 0, 64, 115
3, 6248, Control_c, 0, 64, 118
3, 6249, Control_c, 0, 64, 121
3, 6249, Control_c, 0, 64, 124
3, 6250, Control_c, 0, 64, 127
3, 6298, Note_on_c, 0, 48, 49
3, 6307, Note_off_c, 0, 41, 100
3, 6424, Note_on_c, 0, 57, 49
3, 6432, Note_off_c, 0, 48, 86
3, 6551, Note_on_c, 0, 48, 62
3, 6561, Note_off_c, 0, 57, 106
3, 6584, Note_off_c, 0, 48, 100
3, 6677, Note_on_c, 0, 43, 63
3, 6693, Control_c, 0, 64, 126
3, 6695, Control_c, 0, 64, 121
3, 6695, Control_c, 0, 64, 116
3, 6696, Control_c, 0, 64, 111
3, 6696, Control_c, 0, 64, 106
3, 6697, Control_c, 0, 64, 101
3, 6699, Control_c, 0, 64, 86
3, 6699, Control_c, 0, 64, 67
3, 6700, Control_c, 0, 64, 49
3, 6700, Control_c, 0, 64, 31
3, 6701, Control_c, 0, 64, 14
3, 6701, Control_c, 0, 64, 1
3, 6703, Control_c, 0, 64, 0
3, 6734, Control_c, 0, 64, 8
3, 6735, Control_c, 0, 64, 21
3, 6735, Control_c, 0, 64, 34
3, 6736, Control_c, 0, 64, 49
3, 6736, Control_c, 0, 64, 78
3, 6738, Control_c, 0, 64, 83
3, 6738, Control_c, 0, 64, 90
3, 6739, Control_c, 0, 64, 99
3, 6740, Control_c, 0, 64, 102
3, 6740, Control_c, 0, 64, 105
3, 6742, Control_c, 0, 64, 108
3, 6743, Control_c, 0, 64, 115
3, 6743, Control_c, 0, 64, 117
3, 6744, Control_c, 0, 64, 120
3, 6744, Control_c, 0, 64, 122
3, 6745, Control_c, 0, 64, 124
3, 6747, Control_c, 0, 64, 127
3, 6785, Note_off_c, 0, 43, 94
3, 6802, Note_on_c, 0, 50, 72
3, 6929, Note_off_c, 0, 50, 107
3, 6931, Note_on_c, 0, 59, 67
3, 7057, Note_on_c, 0, 62, 53
3, 7065, Note_off_c, 0, 59, 107
3, 7065, Note_on_c, 0, 64, 33
3, 7069, Note_off_c, 0, 62, 102
3, 7078, Note_off_c, 0, 64, 110
3, 7178, Note_on_c, 0, 48, 49
3, 7184, Control_c, 0, 64, 123
3, 7184, Control_c, 0, 64, 112
3, 7185, Control_c, 0, 64, 106
3, 7185, Control_c, 0, 64, 98
3, 7187, Control_c, 0, 64, 77
3, 7187, Control_c, 0, 64, 54
3, 7188, Control_c, 0, 64, 33
3, 7189, Control_c, 0, 64, 15
3, 7189, Control_c, 0, 64, 0
3, 7213, Control_c, 0, 64, 1
3, 7215, Control_c, 0, 64, 12
3, 7215, Control_c, 0, 64, 25
3, 7216, Control_c, 0, 64, 39
3, 7217, Control_c, 0, 64, 54
3, 7217, Control_c, 0, 64, 69
3, 7217, Control_c, 0, 64, 82
3, 7219, Control_c, 0, 64, 95
3, 7219, Control_c, 0, 64, 102
3, 7220, Control_c, 0, 64, 106
3, 7220, Control_c, 0, 64, 110
3, 7221, Control_c, 0, 64, 114
3, 7221, Control_c, 0, 64, 118
3, 7223, Control_c, 0, 64, 122
3, 7224, Control_c, 0, 64, 125
3, 7224, Control_c, 0, 64, 127
3, 7239, Note_on_c, 0, 55, 53
3, 7243, Note_off_c, 0, 48, 90
3, 7265, Note_off_c, 0, 55, 102
3, 7292, Note_on_c, 0, 60, 44
3, 7320, Note_off_c, 0, 60, 100
3, 7363, Note_on_c, 0, 64, 50
3, 7392, Note_off_c, 0, 64, 91
3, 7426, Note_on_c, 0, 67, 64
3, 7489, Note_off_c, 0, 67, 104
3, 7495, Note_on_c, 0, 64, 50
3, 7515, Note_off_c, 0, 64, 87
3, 7682, Control_c, 0, 64, 126
3, 7682, Control_c, 0, 64, 122
3, 7683, Control_c, 0, 64, 117
3, 7683, Control_c, 0, 64, 112
3, 7683, Note_on_c, 0, 45, 65
3, 7686, Control_c, 0, 64, 95
3, 7687, Control_c, 0, 64, 79
3, 7687, Control_c, 0, 64, 63
3, 7689, Control_c, 0, 64, 46
3, 7689, Control_c, 0, 64, 31
3, 7690, Control_c, 0, 64, 6
3, 7691, Control_c, 0, 64, 0
3, 7717, Control_c, 0, 64, 4
3, 7717, Control_c, 0, 64, 14
3, 7718, Control_c, 0, 64, 27
3, 7718, Control_c, 0, 64, 40
3, 7719, Control_c, 0, 64, 53
3, 7719, Control_c, 0, 64, 78
3, 7721, Control_c, 0, 64, 83
3, 7721, Control_c, 0, 64, 91
3, 7722, Control_c, 0, 64, 100
3, 7722, Control_c, 0, 64, 103
3, 7723, Control_c, 0, 64, 107
3, 7723, Control_c, 0, 64, 110
3, 7725, Control_c, 0, 64, 114
3, 7726, Control_c, 0, 64, 117
3, 7726, Control_c, 0, 64, 120
3, 7727, Control_c, 0, 64, 123
3, 7727, Control_c, 0, 64, 126
3, 7728, Control_c, 0, 64, 127
3, 7745, Note_on_c, 0, 52, 50
3, 7754, Note_off_c, 0, 45, 100
3, 7792, Note_off_c, 0, 52, 102
3, 7803, Note_on_c, 0, 57, 66
3, 7835, Note_off_c, 0, 57, 104
3, 7862, Note_on_c, 0, 60, 48
3, 7928, Note_off_c, 0, 60, 108
3, 7934, Note_on_c, 0, 64, 49
3, 8036, Note_off_c, 0, 64, 102
3, 8053, Note_on_c, 0, 60, 57
3, 8065, Note_off_c, 0, 60, 100
3, 8174, Note_on_c, 0, 41, 53
3, 8193, Control_c, 0, 64, 125
3, 8193, Control_c, 0, 64, 122
3, 8195, Control_c, 0, 64, 118
3, 8195, Control_c, 0, 64, 114
3, 8196, Control_c, 0, 64, 110
3, 8196, Control_c, 0, 64, 106
3, 8197, Control_c, 0, 64, 103
3, 8197, Control_c, 0, 64, 98
3, 8199, Control_c, 0, 64, 78
3, 8199, Control_c, 0, 64, 72
3, 8200, Control_c, 0, 64, 64
3, 8202, Control_c, 0, 64, 54
3, 8202, Control_c, 0, 64, 45
3, 8202, Control_c, 0, 64, 37
3, 8203, Control_c, 0, 64, 28
3, 8204, Control_c, 0, 64, 21
3, 8204, Control_c, 0, 64, 15
3, 8205, Control_c, 0, 64, 12
3, 8205, Control_c, 0, 64, 8
3, 8207, Control_c, 0, 64, 5
3, 8207, Control_c, 0, 64, 2
3, 8208, Control_c, 0, 64, 0
3, 8217, Control_c, 0, 64, 1
3, 8219, Control_c, 0, 64, 5
3, 8219, Control_c, 0, 64, 8
3, 8220, Control_c, 0, 64, 14
3, 8220, Control_c, 0, 64, 21
3, 8221, Control_c, 0, 64, 30
3, 8223, Control_c, 0, 64, 38
3, 8223, Control_c, 0, 64, 47
3, 8224, Control_c, 0, 64, 57
3, 8224, Control_c, 0, 64, 66
3, 8226, Control_c, 0, 64, 76
3, 8226, Control_c, 0, 64, 85
3, 8227, Control_c, 0, 64, 96
3, 8228, Control_c, 0, 64, 102
3, 8228, Control_c, 0, 64, 105
3, 8228, Control_c, 0, 64, 108
3, 8230, Control_c, 0, 64, 111
3, 8230, Control_c, 0, 64, 114
3, 8231, Control_c, 0, 64, 117
3, 8232, Control_c, 0, 64, 121
3, 8232, Control_c, 0, 64, 124
3, 8233, Control_c, 0, 64, 127
3, 8235, Note_on_c, 0, 48, 41
3, 8251, Note_off_c, 0, 41, 101
3, 8284, Note_off_c, 0, 48, 101
3, 8297, Note_on_c, 0, 53, 49
3, 8316, Note_off_c, 0, 53, 81
3, 8357, Note_on_c, 0, 57, 59
3, 8415, Note_off_c, 0, 57, 108
3, 8423, Note_on_c, 0, 60, 34
3, 8543, Note_off_c, 0, 60, 105
3, 8544, Note_on_c, 0, 57, 60
3, 8568, Note_off_c, 0, 57, 95
3, 8660, Note_on_c, 0, 43, 57
3, 8675, Control_c, 0, 64, 121
3, 8675, Control_c, 0, 64, 116
3, 8677, Control_c, 0, 64, 112
3, 8677, Control_c, 0, 64, 107
3, 8678, Control_c, 0, 64, 103
3, 8679, Control_c, 0, 64, 97
3, 8679, Control_c, 0, 64, 83
3, 8681, Control_c, 0, 64, 69
3, 8681, Control_c, 0, 64, 54
3, 8682, Control_c, 0, 64, 40
3, 8682, Control_c, 0, 64, 27
3, 8683, Control_c, 0, 64, 17
3, 8683, Control_c, 0, 64, 7
3, 8685, Control_c, 0, 64, 0
3, 8704, Control_c, 0, 64, 4
3, 8705, Control_c, 0, 64, 11
3, 8706, Control_c, 0, 64, 20
3, 8706, Control_c, 0, 64, 31
3, 8708, Control_c, 0, 64, 41
3, 8708, Control_c, 0, 64, 53
3, 8709, Control_c, 0, 64, 65
3, 8709, Control_c, 0, 64, 76
3, 8711, Control_c, 0, 64, 88
3, 8711, Control_c, 0, 64, 99
3, 8712, Control_c, 0, 64, 103
3, 8713, Control_c, 0, 64, 107
3, 8713, Control_c, 0, 64, 110
3, 8714, Control_c, 0, 64, 114
3, 8714, Control_c, 0, 64, 117
3, 8716, Control_c, 0, 64, 121
3, 8716, Control_c, 0, 64, 124
3, 8717, Control_c, 0, 64, 127
3, 8729, Note_on_c, 0, 50, 45
3, 8750, Note_off_c, 0, 43, 101
3, 8787, Note_off_c, 0, 50, 101
3, 8796, Note_on_c, 0, 55, 45
3, 8830, Note_off_c, 0, 55, 102
3, 8859, Note_on_c, 0, 59, 48
3, 8918, Note_off_c, 0, 59, 108
3, 8922, Note_on_c, 0, 62, 48
3, 8942, Note_off_c, 0, 62, 87
3, 9201, Note_on_c, 0, 48, 60
3, 9205, Control_c, 0, 64, 125
3, 9205, Control_c, 0, 64, 121
3, 9205, Control_c, 0, 64, 117
3, 9207, Control_c, 0, 64, 113
3, 9207, Control_c, 0, 64, 109
3, 9208, Control_c, 0, 64, 105
3, 9208, Control_c, 0, 64, 101
3, 9209, Control_c, 0, 64, 92
3, 9211, Control_c, 0, 64, 82
3, 9211, Control_c, 0, 64, 70
3, 9212, Control_c, 0, 64, 58
3, 9212, Control_c, 0, 64, 47
3, 9213, Control_c, 0, 64, 37
3, 9213, Control_c, 0, 64, 26
3, 9215, Control_c, 0, 64, 18
3, 9215, Control_c, 0, 64, 11
3, 9216, Control_c, 0, 64, 4
3, 9216, Control_c, 0, 64, 0
3, 9239, Control_c, 0, 64, 6
3, 9240, Control_c, 0, 64, 15
3, 9240, Control_c, 0, 64, 27
3, 9240, Control_c, 0, 64, 38
3, 9242, Control_c, 0, 64, 50
3, 9243, Control_c, 0, 64, 63
3, 9243, Control_c, 0, 64, 73
3, 9244, Control_c, 0, 64, 84
3, 9244, Control_c, 0, 64, 96
3, 9246, Control_c, 0, 64, 102
3, 9246, Control_c, 0, 64, 106
3, 9247, Control_c, 0, 64, 109
3, 9247, Control_c, 0, 64, 113
3, 9248, Control_c, 0, 64, 116
3, 9248, Control_c, 0, 64, 119
3, 9250, Control_c, 0, 64, 122
3, 9250, Control_c, 0, 64, 125
3, 9251, Control_c, 0, 64, 127
3, 9271, Note_on_c, 0, 55, 31
3, 9280, Note_off_c, 0, 48, 87
3, 9325, Note_off_c, 0, 55, 101
3, 9330, Note_on_c, 0, 60, 45
3, 9385, Note_on_c, 0, 64, 65
3, 9390, Note_off_c, 0, 60, 99
3, 9463, Note_on_c, 0, 67, 57
3, 9474, Note_off_c, 0, 64, 106
3, 9490, Note_off_c, 0, 67, 101
3, 9711, Note_on_c, 0, 45, 60
3, 9720, Control_c, 0, 64, 123
3, 9722, Control_c, 0, 64, 119
3, 9722, Control_c, 0, 64, 115
3, 9723, Control_c, 0, 64, 111
3, 9723, Control_c, 0, 64, 107
3, 9724, Control_c, 0, 64, 103
3, 9724, Control_c, 0, 64, 97
3, 9726, Control_c, 0, 64, 84
3, 9726, Control_c, 0, 64, 71
3, 9727, Control_c, 0, 64, 58
3, 9728, Control_c, 0, 64, 46
3, 9728, Control_c, 0, 64, 34
3, 9730, Control_c, 0, 64, 24
3, 9730, Control_c, 0, 64, 17
3, 9731, Control_c, 0, 64, 9
3, 9731, Control_c, 0, 64, 4
3, 9732, Control_c, 0, 64, 0
3, 9748, Control_c, 0, 64, 6
3, 9750, Control_c, 0, 64, 12
3, 9750, Control_c, 0, 64, 19
3, 9751, Control_c, 0, 64, 27
3, 9752, Control_c, 0, 64, 36
3, 9752, Control_c, 0, 64, 44
3, 9752, Control_c, 0, 64, 53
3, 9754, Control_c, 0, 64, 64
3, 9754, Control_c, 0, 64, 72
3, 9755, Control_c, 0, 64, 82
3, 9755, Control_c, 0, 64, 91
3, 9756, Control_c, 0, 64, 100
3, 9758, Control_c, 0, 64, 103
3, 9758, Control_c, 0, 64, 106
3, 9759, Control_c, 0, 64, 108
3, 9759, Control_c, 0, 64, 111
3, 9760, Control_c, 0, 64, 114
3, 9760, Control_c, 0, 64, 117
3, 9762, Control_c, 0, 64, 120
3, 9762, Control_c, 0, 64, 122
3, 9763, Control_c, 0, 64, 125
3, 9763, Control_c, 0, 64, 127
3, 9777, Note_on_c, 0, 52, 56
3, 9792, Note_off_c, 0, 45, 91
3, 9833, Note_off_c, 0, 52, 106
3, 9843, Note_on_c, 0, 57, 72
3, 9884, Note_off_c, 0, 57, 106
3, 9908, Note_on_c, 0, 60, 27
3, 9986, Note_on_c, 0, 64, 53
3, 9991, Note_off_c, 0, 60, 105
3, 10081, Note_off_c, 0, 64, 82
3, 10113, Note_on_c, 0, 60, 48
3, 10140, Note_off_c, 0, 60, 87
3, 10237, Note_on_c, 0, 41, 57
3, 10273, Control_c, 0, 64, 126
3, 10273, Control_c, 0, 64, 122
3, 10274, Control_c, 0, 64, 118
3, 10274, Control_c, 0, 64, 113
3, 10275, Control_c, 0, 64, 109
3, 10275, Control_c, 0, 64, 104
3, 10277, Control_c, 0, 64, 100
3, 10277, Control_c, 0, 64, 85
3, 10278, Control_c, 0, 64, 69
3, 10278, Control_c, 0, 64, 52
3, 10279, Control_c, 0, 64, 36
3, 10279, Control_c, 0, 64, 20
3, 10281, Control_c, 0, 64, 7
3, 10282, Control_c, 0, 64, 0
3, 10308, Control_c, 0, 64, 5
3, 10309, Control_c, 0, 64, 17
3, 10309, Control_c, 0, 64, 31
3, 10310, Control_c, 0, 64, 46
3, 10310, Control_c, 0, 64, 60
3, 10312, Control_c, 0, 64, 75
3, 10312, Control_c, 0, 64, 88
3, 10313, Control_c, 0, 64, 100
3, 10313, Control_c, 0, 64, 104
3, 10314, Control_c, 0, 64, 108
3, 10315, Control_c, 0, 64, 111
3, 10315, Control_c, 0, 64, 115
3, 10317, Control_c, 0, 64, 119
3, 10317, Control_c, 0, 64, 123
3, 10319, Control_c, 0, 64, 126
3, 10319, Control_c, 0, 64, 127
3, 10328, Note_on_c, 0, 48, 50
3, 10356, Note_off_c, 0, 41, 96
3, 10464, Note_off_c, 0, 48, 103
3, 10465, Note_on_c, 0, 53, 54
3, 10505, Note_off_c, 0, 53, 103
3, 10685, Note_on_c, 0, 57, 58
3, 10835, Note_off_c, 0, 57, 106
3, 10999, Note_on_c, 0, 41, 51
3, 11011, Control_c, 0, 64, 122
3, 11011, Control_c, 0, 64, 117
3, 11012, Control_c, 0, 64, 113
3, 11014, Control_c, 0, 64, 108
3, 11014, Control_c, 0, 64, 103
3, 11015, Control_c, 0, 64, 96
3, 11015, Control_c, 0, 64, 80
3, 11016, Control_c, 0, 64, 63
3, 11016, Control_c, 0, 64, 45
3, 11018, Control_c, 0, 64, 30
3, 11018, Control_c, 0, 64, 15
3, 11019, Control_c, 0, 64, 2
3, 11020, Control_c, 0, 64, 0
3, 11043, Control_c, 0, 64, 2
3, 11045, Control_c, 0, 64, 13
3, 11046, Control_c, 0, 64, 26
3, 11046, Control_c, 0, 64, 40
3, 11047, Control_c, 0, 64, 54
3, 11047, Control_c, 0, 64, 67
3, 11049, Control_c, 0, 64, 79
3, 11049, Control_c, 0, 64, 92
3, 11050, Control_c, 0, 64, 101
3, 11051, Control_c, 0, 64, 105
3, 11051, Control_c, 0, 64, 109
3, 11051, Control_c, 0, 64, 113
3, 11053, Control_c, 0, 64, 117
3, 11053, Control_c, 0, 64, 120
3, 11054, Control_c, 0, 64, 124
3, 11055, Control_c, 0, 64, 127
3, 11082, Note_on_c, 0, 48, 35
3, 11107, Note_off_c, 0, 41, 93
3, 11159, Note_off_c, 0, 48, 102
3, 11161, Note_on_c, 0, 53, 44
3, 11202, Note_off_c, 0, 53, 100
3, 11221, Note_on_c, 0, 57, 58
3, 11282, Note_off_c, 0, 57, 108
3, 11288, Note_on_c, 0, 60, 63
3, 11323, Note_off_c, 0, 60, 107
3, 11752, Control_c, 0, 64, 121
3, 11754, Control_c, 0, 64, 111
3, 11754, Control_c, 0, 64, 101
3, 11755, Control_c, 0, 64, 64
3, 11755, Control_c, 0, 64, 25
3, 11756, Control_c, 0, 64, 0
3, 11756, End_track
4, 0, Start_track
4, 0, Title_t, ""
4, 120, Control_c, 1, 0, 0
4, 130, Control_c, 1, 32, 0
4, 140, Program_c, 1, 0
4, 150, Control_c, 1, 1, 0
4, 160, Control_c, 1, 7, 100
4, 170, Control_c, 1, 10, 64
4, 180, Control_c, 1, 11, 127
4, 190, Control_c, 1, 64, 0
4, 200, Control_c, 1, 91, 40
4, 210, Control_c, 1, 93, 0
4, 220, Control_c, 1, 94, 0
4, 700, End_track
5, 0, Start_track
5, 0, Title_t, ""
5, 120, Control_c, 2, 0, 0
5, 130, Control_c, 2, 32, 0
5, 140, Program_c, 2, 0
5, 150, Control_c, 2, 1, 0
5, 160, Control_c, 2, 7, 100
5, 170, Control_c, 2, 10, 64
5, 180, Control_c, 2, 11, 127
5, 190, Control_c, 2, 64, 0
5, 200, Control_c, 2, 91, 40
5, 210, Control_c, 2, 93, 0
5, 220, Control_c, 2, 94, 0
5, 480, End_track
6, 0, Start_track
6, 0, Title_t, ""
6, 120, Control_c, 3, 0, 0
6, 130, Control_c, 3, 32, 0
6, 140, Program_c, 3, 0
6, 150, Control_c, 3, 1, 0
6, 160, Control_c, 3, 7, 100
6, 170, Control_c, 3, 10, 64
6, 180, Control_c, 3, 11, 127
6, 190, Control_c, 3, 64, 0
6, 200, Control_c, 3, 91, 40
6, 210, Control_c, 3, 93, 0
6, 220, Control_c, 3, 94, 0
6, 480, End_track
7, 0, Start_track
7, 0, Title_t, ""
7, 120, Control_c, 4, 0, 0
7, 130, Control_c, 4, 32, 0
7, 140, Program_c, 4, 0
7, 150, Control_c, 4, 1, 0
7, 160, Control_c, 4, 7, 100
7, 170, Control_c, 4, 10, 64
7, 180, Control_c, 4, 11, 127
7, 190, Control_c, 4, 64, 0
7, 200, Control_c, 4, 91, 40
7, 210, Control_c, 4, 93, 0
7, 220, Control_c, 4, 94, 0
7, 480, End_track
8, 0, Start_track
8, 0, Title_t, ""
8, 120, Control_c, 5, 0, 0
8, 130, Control_c, 5, 32, 0
8, 140, Program_c, 5, 0
8, 150, Control_c, 5, 1, 0
8, 160, Control_c, 5, 7, 100
8, 170, Control_c, 5, 10, 64
8, 180, Control_c, 5, 11, 127
8, 190, Control_c, 5, 64, 0
8, 200, Control_c, 5, 91, 40
8, 210, Control_c, 5, 93, 0
8, 220, Control_c, 5, 94, 0
8, 600, End_track
9, 0, Start_track
9, 0, Title_t, ""
9, 120, Control_c, 6, 0, 0
9, 130, Control_c, 6, 32, 0
9, 140, Program_c, 6, 0
9, 150, Control_c, 6, 1, 0
9, 160, Control_c, 6, 7, 100
9, 170, Control_c, 6, 10, 64
9, 180, Control_c, 6, 11, 127
9, 190, Control_c, 6, 64, 0
9, 200, Control_c, 6, 91, 40
9, 210, Control_c, 6, 93, 0
9, 220, Control_c, 6, 94, 0
9, 480, End_track
10, 0, Start_track
10, 0, Title_t, ""
10, 120, Control_c, 7, 0, 0
10, 130, Control_c, 7, 32, 0
10, 140, Program_c, 7, 0
10, 150, Control_c, 7, 1, 0
10, 160, Control_c, 7, 7, 100
10, 170, Control_c, 7, 10, 64
10, 180, Control_c, 7, 11, 127
10, 190, Control_c, 7, 64, 0
10, 200, Control_c, 7, 91, 40
10, 210, Control_c, 7, 93, 0
10, 220, Control_c, 7, 94, 0
10, 480, End_track
11, 0, Start_track
11, 0, Title_t, ""
11, 120, Control_c, 8, 0, 0
11, 130, Control_c, 8, 32, 0
11, 140, Program_c, 8, 0
11, 150, Control_c, 8, 1, 0
11, 160, Control_c, 8, 7, 100
11, 170, Control_c, 8, 10, 64
11, 180, Control_c, 8, 11, 127
11, 190, Control_c, 8, 64, 0
11, 200, Control_c, 8, 91, 40
11, 210, Control_c, 8, 93, 0
11, 220, Control_c, 8, 94, 0
11, 480, End_track
12, 0, Start_track
12, 0, Title_t, ""
12, 120, Control_c, 9, 0, 0
12, 130, Control_c, 9, 32, 0
12, 140, Program_c, 9, 0
12, 150, Control_c, 9, 1, 0
12, 160, Control_c, 9, 7, 100
12, 170, Control_c, 9, 10, 64
12, 180, Control_c, 9, 11, 127
12, 190, Control_c, 9, 64, 0
12, 200, Control_c, 9, 91, 40
12, 210, Control_c, 9, 93, 0
12, 220, Control_c, 9, 94, 0
12, 480, End_track
13, 0, Start_track
13, 0, Title_t, ""
13, 120, Control_c, 10, 0, 0
13, 130, Control_c, 10, 32, 0
13, 140, Program_c, 10, 0
13, 150, Control_c, 10, 1, 0
13, 160, Control_c, 10, 7, 100
13, 170, Control_c, 10, 10, 64
13, 180, Control_c, 10, 11, 127
13, 190, Control_c, 10, 64, 0
13, 200, Control_c, 10, 91, 40
13, 210, Control_c, 10, 93, 0
13, 220, Control_c, 10, 94, 0
13, 480, End_track
14, 0, Start_track
14, 0, Title_t, ""
14, 120, Control_c, 11, 0, 0
14, 130, Control_c, 11, 32, 0
14, 140, Program_c, 11, 0
14, 150, Control_c, 11, 1, 0
14, 160, Control_c, 11, 7, 100
14, 170, Control_c, 11, 10, 64
14, 180, Control_c, 11, 11, 127
14, 190, Control_c, 11, 64, 0
14, 200, Control_c, 11, 91, 40
14, 210, Control_c, 11, 93, 0
14, 220, Control_c, 11, 94, 0
14, 480, End_track
15, 0, Start_track
15, 0, Title_t, ""
15, 120, Control_c, 12, 0, 0
15, 130, Control_c, 12, 32, 0
15, 140, Program_c, 12, 0
15, 150, Control_c, 12, 1, 0
15, 160, Control_c, 12, 7, 100
15, 170, Control_c, 12, 10, 64
15, 180, Control_c, 12, 11, 127
15, 190, Control_c, 12, 64, 0
15, 200, Control_c, 12, 91, 40
15, 210, Control_c, 12, 93, 0
15, 220, Control_c, 12, 94, 0
15, 480, End_track
16, 0, Start_track
16, 0, Title_t, ""
16, 120, Control_c, 13, 0, 0
16, 130, Control_c, 13, 32, 0
16, 140, Program_c, 13, 0
16, 150, Control_c, 13, 1, 0
16, 160, Control_c, 13, 7, 100
16, 170, Control_c, 13, 10, 64
16, 180, Control_c, 13, 11, 127
16, 190, Control_c, 13, 64, 0
16, 200, Control_c, 13, 91, 40
16, 210, Control_c, 13, 93, 0
16, 220, Control_c, 13, 94, 0
16, 480, End_track
17, 0, Start_track
17, 0, Title_t, ""
17, 120, Control_c, 14, 0, 0
17, 130, Control_c, 14, 32, 0
17, 140, Program_c, 14, 0
17, 150, Control_c, 14, 1, 0
17, 160, Control_c, 14, 7, 100
17, 170, Control_c, 14, 10, 64
17, 180, Control_c, 14, 11, 127
17, 190, Control_c, 14, 64, 0
17, 200, Control_c, 14, 91, 40
17, 210, Control_c, 14, 93, 0
17, 220, Control_c, 14, 94, 0
17, 690, End_track
18, 0, Start_track
18, 0, Title_t, ""
18, 120, Control_c, 15, 0, 0
18, 130, Control_c, 15, 32, 0
18, 140, Program_c, 15, 0
18, 150, Control_c, 15, 1, 0
18, 160, Control_c, 15, 7, 100
18, 170, Control_c, 15, 10, 64
18, 180, Control_c, 15, 11, 127
18, 190, Control_c, 15, 64, 0
18, 200, Control_c, 15, 91, 40
18, 210, Control_c, 15, 93, 0
18, 220, Control_c, 15, 94, 0
18, 480, End_track
19, 0, Start_track
19, 0, Title_t, ""
19, 120, Control_c, 15, 0, 0
19, 130, Control_c, 15, 32, 0
19, 140, Program_c, 15, 0
19, 150, Control_c, 15, 1, 0
19, 160, Control_c, 15, 7, 100
19, 170, Control_c, 15, 10, 64
19, 180, Control_c, 15, 11, 127
19, 190, Control_c, 15, 64, 0
19, 200, Control_c, 15, 91, 40
19, 210, Control_c, 15, 93, 0
19, 220, Control_c, 15, 94, 0
19, 480, End_track
20, 0, Start_track
20, 0, Title_t, ""
20, 120, Control_c, 15, 0, 0
20, 130, Control_c, 15, 32, 0
20, 140, Program_c, 15, 0
20, 150, Control_c, 15, 1, 0
20, 160, Control_c, 15, 7, 100
20, 170, Control_c, 15, 10, 64
20, 180, Control_c, 15, 11, 127
20, 190, Control_c, 15, 64, 0
20, 200, Control_c, 15, 91, 40
20, 210, Control_c, 15, 93, 0
20, 220, Control_c, 15, 94, 0
20, 480, End_track
0, 0, End_of_file
