0, 0, Header, 1, 21, 480
1, 0, Start_track
1, 0, Tempo, 468750
1, 0, Time_signature, 4, 2, 24, 8
1, 0, Key_signature, 0, "major"
1, 0, End_track
2, 0, Start_track
2, 0, Title_t, "Guns N' Roses- - -Sweet Child O' Mine"
2, 0, MIDI_port, 0
2, 0, End_track
3, 0, Start_track
3, 0, Title_t, "Lead Guitar"
3, 0, MIDI_port, 0
3, 0, Channel_prefix, 0
3, 0, Control_c, 0, 7, 127
3, 0, Control_c, 0, 10, 10
3, 0, Control_c, 0, 121, 0
3, 0, Control_c, 0, 100, 0
3, 0, Control_c, 0, 101, 0
3, 0, Control_c, 0, 6, 12
3, 0, Control_c, 0, 100, 127
3, 0, Control_c, 0, 101, 127
3, 0, Control_c, 0, 1, 0
3, 0, Control_c, 0, 11, 127
3, 0, Control_c, 0, 64, 0
3, 4, Program_c, 0, 30
3, 1920, Note_on_c, 0, 61, 102
3, 2160, Note_off_c, 0, 61, 64
3, 2160, Note_on_c, 0, 73, 102
3, 2400, Note_off_c, 0, 73, 64
3, 2400, Note_on_c, 0, 68, 102
3, 2640, Note_off_c, 0, 68, 64
3, 2640, Note_on_c, 0, 66, 102
3, 2880, Note_off_c, 0, 66, 64
3, 2880, Note_on_c, 0, 78, 102
3, 3120, Note_off_c, 0, 78, 64
3, 3120, Note_on_c, 0, 68, 102
3, 3360, Note_off_c, 0, 68, 64
3, 3360, Note_on_c, 0, 77, 102
3, 3600, Note_off_c, 0, 77, 64
3, 3600, Note_on_c, 0, 68, 102
3, 3840, Note_off_c, 0, 68, 64
3, 3840, Note_on_c, 0, 61, 102
3, 4080, Note_off_c, 0, 61, 64
3, 4080, Note_on_c, 0, 73, 102
3, 4320, Note_off_c, 0, 73, 64
3, 4320, Note_on_c, 0, 68, 102
3, 4560, Note_off_c, 0, 68, 64
3, 4560, Note_on_c, 0, 66, 102
3, 4800, Note_off_c, 0, 66, 64
3, 4800, Note_on_c, 0, 78, 102
3, 5040, Note_off_c, 0, 78, 64
3, 5040, Note_on_c, 0, 68, 102
3, 5280, Note_off_c, 0, 68, 64
3, 5280, Note_on_c, 0, 77, 102
3, 5520, Note_off_c, 0, 77, 64
3, 5520, Note_on_c, 0, 68, 102
3, 5760, Note_off_c, 0, 68, 64
3, 5760, Note_on_c, 0, 63, 102
3, 6000, Note_off_c, 0, 63, 64
3, 6000, Note_on_c, 0, 73, 102
3, 6240, Note_off_c, 0, 73, 64
3, 6240, Note_on_c, 0, 68, 102
3, 6480, Note_off_c, 0, 68, 64
3, 6480, Note_on_c, 0, 66, 102
3, 6720, Note_off_c, 0, 66, 64
3, 6720, Note_on_c, 0, 78, 102
3, 6960, Note_off_c, 0, 78, 64
3, 6960, Note_on_c, 0, 68, 102
3, 7200, Note_off_c, 0, 68, 64
3, 7200, Note_on_c, 0, 77, 102
3, 7440, Note_off_c, 0, 77, 64
3, 7440, Note_on_c, 0, 68, 102
3, 7680, Note_off_c, 0, 68, 64
3, 7680, Note_on_c, 0, 63, 102
3, 7920, Note_off_c, 0, 63, 64
3, 7920, Note_on_c, 0, 73, 102
3, 8160, Note_off_c, 0, 73, 64
3, 8160, Note_on_c, 0, 68, 102
3, 8400, Note_off_c, 0, 68, 64
3, 8400, Note_on_c, 0, 66, 102
3, 8640, Note_off_c, 0, 66, 64
3, 8640, Note_on_c, 0, 78, 102
3, 8880, Note_off_c, 0, 78, 64
3, 8880, Note_on_c, 0, 68, 102
3, 9120, Note_off_c, 0, 68, 64
3, 9120, Note_on_c, 0, 77, 102
3, 9360, Note_off_c, 0, 77, 64
3, 9360, Note_on_c, 0, 68, 102
3, 9600, Note_off_c, 0, 68, 64
3, 9600, Note_on_c, 0, 66, 102
3, 9840, Note_off_c, 0, 66, 64
3, 9840, Note_on_c, 0, 73, 102
3, 10080, Note_off_c, 0, 73, 64
3, 10080, Note_on_c, 0, 68, 102
3, 10320, Note_off_c, 0, 68, 64
3, 10320, Note_on_c, 0, 66, 102
3, 10560, Note_off_c, 0, 66, 64
3, 10560, Note_on_c, 0, 78, 102
3, 10800, Note_off_c, 0, 78, 64
3, 10800, Note_on_c, 0, 68, 102
3, 11040, Note_off_c, 0, 68, 64
3, 11040, Note_on_c, 0, 77, 102
3, 11280, Note_off_c, 0, 77, 64
3, 11280, Note_on_c, 0, 68, 102
3, 11520, Note_off_c, 0, 68, 64
3, 11520, Note_on_c, 0, 66, 102
3, 11760, Note_off_c, 0, 66, 64
3, 11760, Note_on_c, 0, 73, 102
3, 12000, Note_off_c, 0, 73, 64
3, 12000, Note_on_c, 0, 68, 102
3, 12240, Note_off_c, 0, 68, 64
3, 12240, Note_on_c, 0, 66, 102
3, 12480, Note_off_c, 0, 66, 64
3, 12480, Note_on_c, 0, 78, 102
3, 12720, Note_off_c, 0, 78, 64
3, 12720, Note_on_c, 0, 68, 102
3, 12960, Note_off_c, 0, 68, 64
3, 12960, Note_on_c, 0, 77, 102
3, 13200, Note_off_c, 0, 77, 64
3, 13200, Note_on_c, 0, 68, 102
3, 13440, Note_off_c, 0, 68, 64
3, 13440, Note_on_c, 0, 61, 102
3, 13680, Note_off_c, 0, 61, 64
3, 13680, Note_on_c, 0, 73, 102
3, 13920, Note_off_c, 0, 73, 64
3, 13920, Note_on_c, 0, 68, 102
3, 14160, Note_off_c, 0, 68, 64
3, 14160, Note_on_c, 0, 66, 102
3, 14400, Note_off_c, 0, 66, 64
3, 14400, Note_on_c, 0, 78, 102
3, 14640, Note_off_c, 0, 78, 64
3, 14640, Note_on_c, 0, 68, 102
3, 14880, Note_off_c, 0, 68, 64
3, 14880, Note_on_c, 0, 77, 102
3, 15120, Note_off_c, 0, 77, 64
3, 15120, Note_on_c, 0, 68, 102
3, 15360, Note_off_c, 0, 68, 64
3, 15360, Note_on_c, 0, 61, 102
3, 15600, Note_off_c, 0, 61, 64
3, 15600, Note_on_c, 0, 73, 102
3, 15840, Note_off_c, 0, 73, 64
3, 15840, Note_on_c, 0, 68, 102
3, 16080, Note_off_c, 0, 68, 64
3, 16080, Note_on_c, 0, 66, 102
3, 16320, Note_off_c, 0, 66, 64
3, 16320, Note_on_c, 0, 78, 102
3, 16560, Note_off_c, 0, 78, 64
3, 16560, Note_on_c, 0, 68, 102
3, 16800, Note_off_c, 0, 68, 64
3, 16800, Note_on_c, 0, 77, 102
3, 17040, Note_off_c, 0, 77, 64
3, 17040, Note_on_c, 0, 68, 102
3, 17280, Note_off_c, 0, 68, 64
3, 17280, Note_on_c, 0, 61, 102
3, 17520, Note_off_c, 0, 61, 64
3, 17520, Note_on_c, 0, 73, 102
3, 17760, Note_off_c, 0, 73, 64
3, 17760, Note_on_c, 0, 68, 102
3, 18000, Note_off_c, 0, 68, 64
3, 18000, Note_on_c, 0, 66, 102
3, 18240, Note_off_c, 0, 66, 64
3, 18240, Note_on_c, 0, 78, 102
3, 18480, Note_off_c, 0, 78, 64
3, 18480, Note_on_c, 0, 68, 102
3, 18720, Note_off_c, 0, 68, 64
3, 18720, Note_on_c, 0, 77, 102
3, 18960, Note_off_c, 0, 77, 64
3, 18960, Note_on_c, 0, 68, 102
3, 19200, Note_off_c, 0, 68, 64
3, 19200, Note_on_c, 0, 61, 102
3, 19440, Note_off_c, 0, 61, 64
3, 19440, Note_on_c, 0, 73, 102
3, 19680, Note_off_c, 0, 73, 64
3, 19680, Note_on_c, 0, 68, 102
3, 19920, Note_off_c, 0, 68, 64
3, 19920, Note_on_c, 0, 66, 102
3, 20160, Note_off_c, 0, 66, 64
3, 20160, Note_on_c, 0, 78, 102
3, 20400, Note_off_c, 0, 78, 64
3, 20400, Note_on_c, 0, 68, 102
3, 20640, Note_off_c, 0, 68, 64
3, 20640, Note_on_c, 0, 77, 102
3, 20880, Note_off_c, 0, 77, 64
3, 20880, Note_on_c, 0, 68, 102
3, 21120, Note_off_c, 0, 68, 64
3, 21120, Note_on_c, 0, 63, 102
3, 21360, Note_off_c, 0, 63, 64
3, 21360, Note_on_c, 0, 73, 102
3, 21600, Note_off_c, 0, 73, 64
3, 21600, Note_on_c, 0, 68, 102
3, 21840, Note_off_c, 0, 68, 64
3, 21840, Note_on_c, 0, 66, 102
3, 22080, Note_off_c, 0, 66, 64
3, 22080, Note_on_c, 0, 78, 102
3, 22320, Note_off_c, 0, 78, 64
3, 22320, Note_on_c, 0, 68, 102
3, 22560, Note_off_c, 0, 68, 64
3, 22560, Note_on_c, 0, 77, 102
3, 22800, Note_off_c, 0, 77, 64
3, 22800, Note_on_c, 0, 68, 102
3, 23040, Note_off_c, 0, 68, 64
3, 23040, Note_on_c, 0, 63, 102
3, 23280, Note_off_c, 0, 63, 64
3, 23280, Note_on_c, 0, 73, 102
3, 23520, Note_off_c, 0, 73, 64
3, 23520, Note_on_c, 0, 68, 102
3, 23760, Note_off_c, 0, 68, 64
3, 23760, Note_on_c, 0, 66, 102
3, 24000, Note_off_c, 0, 66, 64
3, 24000, Note_on_c, 0, 78, 102
3, 24240, Note_off_c, 0, 78, 64
3, 24240, Note_on_c, 0, 68, 102
3, 24480, Note_off_c, 0, 68, 64
3, 24480, Note_on_c, 0, 77, 102
3, 24720, Note_off_c, 0, 77, 64
3, 24720, Note_on_c, 0, 68, 102
3, 24960, Note_off_c, 0, 68, 64
3, 24960, Note_on_c, 0, 66, 102
3, 25200, Note_off_c, 0, 66, 64
3, 25200, Note_on_c, 0, 73, 102
3, 25440, Note_off_c, 0, 73, 64
3, 25440, Note_on_c, 0, 68, 102
3, 25680, Note_off_c, 0, 68, 64
3, 25680, Note_on_c, 0, 66, 102
3, 25920, Note_off_c, 0, 66, 64
3, 25920, Note_on_c, 0, 78, 102
3, 26160, Note_off_c, 0, 78, 64
3, 26160, Note_on_c, 0, 68, 102
3, 26400, Note_off_c, 0, 68, 64
3, 26400, Note_on_c, 0, 77, 102
3, 26640, Note_off_c, 0, 77, 64
3, 26640, Note_on_c, 0, 68, 102
3, 26880, Note_off_c, 0, 68, 64
3, 26880, Note_on_c, 0, 66, 102
3, 27120, Note_off_c, 0, 66, 64
3, 27120, Note_on_c, 0, 73, 102
3, 27360, Note_off_c, 0, 73, 64
3, 27360, Note_on_c, 0, 68, 102
3, 27600, Note_off_c, 0, 68, 64
3, 27600, Note_on_c, 0, 66, 102
3, 27840, Note_off_c, 0, 66, 64
3, 27840, Note_on_c, 0, 78, 102
3, 28080, Note_off_c, 0, 78, 64
3, 28080, Note_on_c, 0, 68, 102
3, 28320, Note_off_c, 0, 68, 64
3, 28320, Note_on_c, 0, 77, 102
3, 28560, Note_off_c, 0, 77, 64
3, 28560, Note_on_c, 0, 68, 102
3, 28800, Note_off_c, 0, 68, 64
3, 28800, Note_on_c, 0, 61, 102
3, 29040, Note_off_c, 0, 61, 64
3, 29040, Note_on_c, 0, 73, 102
3, 29280, Note_off_c, 0, 73, 64
3, 29280, Note_on_c, 0, 68, 102
3, 29520, Note_off_c, 0, 68, 64
3, 29520, Note_on_c, 0, 66, 102
3, 29760, Note_off_c, 0, 66, 64
3, 29760, Note_on_c, 0, 78, 102
3, 30000, Note_off_c, 0, 78, 64
3, 30000, Note_on_c, 0, 68, 102
3, 30240, Note_off_c, 0, 68, 64
3, 30240, Note_on_c, 0, 77, 102
3, 30480, Note_off_c, 0, 77, 64
3, 30480, Note_on_c, 0, 68, 102
3, 30720, Note_off_c, 0, 68, 64
3, 30720, Note_on_c, 0, 61, 102
3, 30960, Note_off_c, 0, 61, 64
3, 30960, Note_on_c, 0, 73, 102
3, 31200, Note_off_c, 0, 73, 64
3, 31200, Note_on_c, 0, 68, 102
3, 31440, Note_off_c, 0, 68, 64
3, 31440, Note_on_c, 0, 66, 102
3, 31680, Note_off_c, 0, 66, 64
3, 31680, Note_on_c, 0, 78, 102
3, 31920, Note_off_c, 0, 78, 64
3, 31920, Note_on_c, 0, 68, 102
3, 32160, Note_off_c, 0, 68, 64
3, 32160, Note_on_c, 0, 77, 102
3, 32400, Note_off_c, 0, 77, 64
3, 32400, Note_on_c, 0, 68, 102
3, 32640, Note_off_c, 0, 68, 64
3, 32640, Note_on_c, 0, 61, 102
3, 32880, Note_off_c, 0, 61, 64
3, 32880, Note_on_c, 0, 73, 102
3, 33120, Note_off_c, 0, 73, 64
3, 33120, Note_on_c, 0, 68, 102
3, 33360, Note_off_c, 0, 68, 64
3, 33360, Note_on_c, 0, 66, 102
3, 33600, Note_off_c, 0, 66, 64
3, 33600, Note_on_c, 0, 78, 102
3, 33840, Note_off_c, 0, 78, 64
3, 33840, Note_on_c, 0, 68, 102
3, 34080, Note_off_c, 0, 68, 64
3, 34080, Note_on_c, 0, 77, 102
3, 34320, Note_off_c, 0, 77, 64
3, 34320, Note_on_c, 0, 68, 102
3, 34560, Note_off_c, 0, 68, 64
3, 34560, Note_on_c, 0, 61, 102
3, 34800, Note_off_c, 0, 61, 64
3, 34800, Note_on_c, 0, 73, 102
3, 35040, Note_off_c, 0, 73, 64
3, 35040, Note_on_c, 0, 68, 102
3, 35280, Note_off_c, 0, 68, 64
3, 35280, Note_on_c, 0, 66, 102
3, 35520, Note_off_c, 0, 66, 64
3, 35520, Note_on_c, 0, 78, 102
3, 35760, Note_off_c, 0, 78, 64
3, 35760, Note_on_c, 0, 68, 102
3, 36000, Note_off_c, 0, 68, 64
3, 36000, Note_on_c, 0, 77, 102
3, 36240, Note_off_c, 0, 77, 64
3, 36240, Note_on_c, 0, 68, 102
3, 36480, Note_off_c, 0, 68, 64
3, 36480, Note_on_c, 0, 63, 102
3, 36720, Note_off_c, 0, 63, 64
3, 36720, Note_on_c, 0, 73, 102
3, 36960, Note_off_c, 0, 73, 64
3, 36960, Note_on_c, 0, 68, 102
3, 37200, Note_off_c, 0, 68, 64
3, 37200, Note_on_c, 0, 66, 102
3, 37440, Note_off_c, 0, 66, 64
3, 37440, Note_on_c, 0, 78, 102
3, 37680, Note_off_c, 0, 78, 64
3, 37680, Note_on_c, 0, 68, 102
3, 37920, Note_off_c, 0, 68, 64
3, 37920, Note_on_c, 0, 77, 102
3, 38160, Note_off_c, 0, 77, 64
3, 38160, Note_on_c, 0, 68, 102
3, 38400, Note_off_c, 0, 68, 64
3, 38400, Note_on_c, 0, 63, 102
3, 38640, Note_off_c, 0, 63, 64
3, 38640, Note_on_c, 0, 73, 102
3, 38880, Note_off_c, 0, 73, 64
3, 38880, Note_on_c, 0, 68, 102
3, 39120, Note_off_c, 0, 68, 64
3, 39120, Note_on_c, 0, 66, 102
3, 39360, Note_off_c, 0, 66, 64
3, 39360, Note_on_c, 0, 78, 102
3, 39600, Note_off_c, 0, 78, 64
3, 39600, Note_on_c, 0, 68, 102
3, 39840, Note_off_c, 0, 68, 64
3, 39840, Note_on_c, 0, 77, 102
3, 40080, Note_off_c, 0, 77, 64
3, 40080, Note_on_c, 0, 68, 102
3, 40320, Note_off_c, 0, 68, 64
3, 40320, Note_on_c, 0, 66, 102
3, 40560, Note_off_c, 0, 66, 64
3, 40560, Note_on_c, 0, 73, 102
3, 40800, Note_off_c, 0, 73, 64
3, 40800, Note_on_c, 0, 68, 102
3, 41040, Note_off_c, 0, 68, 64
3, 41040, Note_on_c, 0, 66, 102
3, 41280, Note_off_c, 0, 66, 64
3, 41280, Note_on_c, 0, 78, 102
3, 41520, Note_off_c, 0, 78, 64
3, 41520, Note_on_c, 0, 68, 102
3, 41760, Note_off_c, 0, 68, 64
3, 41760, Note_on_c, 0, 77, 102
3, 42000, Note_off_c, 0, 77, 64
3, 42000, Note_on_c, 0, 68, 102
3, 42240, Note_off_c, 0, 68, 64
3, 42240, Note_on_c, 0, 66, 102
3, 42480, Note_off_c, 0, 66, 64
3, 42480, Note_on_c, 0, 73, 102
3, 42720, Note_off_c, 0, 73, 64
3, 42720, Note_on_c, 0, 68, 102
3, 42960, Note_off_c, 0, 68, 64
3, 42960, Note_on_c, 0, 66, 102
3, 43200, Note_off_c, 0, 66, 64
3, 43200, Note_on_c, 0, 78, 102
3, 43440, Note_off_c, 0, 78, 64
3, 43440, Note_on_c, 0, 68, 102
3, 43680, Note_off_c, 0, 68, 64
3, 43680, Note_on_c, 0, 77, 102
3, 43920, Note_off_c, 0, 77, 64
3, 43920, Note_on_c, 0, 68, 102
3, 44160, Note_off_c, 0, 68, 64
3, 44160, Note_on_c, 0, 75, 102
3, 44400, Note_off_c, 0, 75, 64
3, 44400, Note_on_c, 0, 68, 102
3, 44640, Note_off_c, 0, 68, 64
3, 44640, Note_on_c, 0, 73, 102
3, 44880, Note_off_c, 0, 73, 64
3, 44880, Note_on_c, 0, 68, 102
3, 45120, Note_off_c, 0, 68, 64
3, 45120, Note_on_c, 0, 75, 102
3, 45360, Note_off_c, 0, 75, 64
3, 45360, Note_on_c, 0, 68, 102
3, 45600, Note_off_c, 0, 68, 64
3, 45600, Note_on_c, 0, 77, 102
3, 45840, Note_off_c, 0, 77, 64
3, 45840, Note_on_c, 0, 68, 102
3, 46080, Note_off_c, 0, 68, 64
3, 46080, Note_on_c, 0, 78, 102
3, 46320, Note_off_c, 0, 78, 64
3, 46320, Note_on_c, 0, 68, 102
3, 46560, Note_off_c, 0, 68, 64
3, 46560, Note_on_c, 0, 77, 102
3, 46800, Note_off_c, 0, 77, 64
3, 46800, Note_on_c, 0, 68, 102
3, 47040, Note_off_c, 0, 68, 64
3, 47040, Note_on_c, 0, 75, 102
3, 47280, Note_off_c, 0, 75, 64
3, 47280, Note_on_c, 0, 68, 102
3, 47520, Note_off_c, 0, 68, 64
3, 47520, Note_on_c, 0, 73, 102
3, 48000, Note_off_c, 0, 73, 64
3, 78720, Note_on_c, 0, 60, 102
3, 78960, Note_off_c, 0, 60, 64
3, 78960, Note_on_c, 0, 72, 102
3, 79200, Note_off_c, 0, 72, 64
3, 79200, Note_on_c, 0, 68, 102
3, 79440, Note_off_c, 0, 68, 64
3, 79440, Note_on_c, 0, 63, 102
3, 79680, Note_off_c, 0, 63, 64
3, 79680, Note_on_c, 0, 73, 102
3, 79920, Note_off_c, 0, 73, 64
3, 79920, Note_on_c, 0, 68, 102
3, 80160, Note_off_c, 0, 68, 64
3, 80160, Note_on_c, 0, 72, 102
3, 80400, Note_off_c, 0, 72, 64
3, 80400, Note_on_c, 0, 68, 102
3, 80640, Note_off_c, 0, 68, 64
3, 80640, Note_on_c, 0, 59, 102
3, 80880, Note_off_c, 0, 59, 64
3, 80880, Note_on_c, 0, 71, 102
3, 81120, Note_off_c, 0, 71, 64
3, 81120, Note_on_c, 0, 66, 102
3, 81360, Note_off_c, 0, 66, 64
3, 81360, Note_on_c, 0, 64, 102
3, 81600, Note_off_c, 0, 64, 64
3, 81600, Note_on_c, 0, 75, 102
3, 81840, Note_off_c, 0, 75, 64
3, 81840, Note_on_c, 0, 66, 102
3, 82080, Note_off_c, 0, 66, 64
3, 82080, Note_on_c, 0, 73, 102
3, 82320, Note_off_c, 0, 73, 64
3, 82320, Note_on_c, 0, 66, 102
3, 82560, Note_off_c, 0, 66, 64
3, 82560, Note_on_c, 0, 61, 102
3, 82800, Note_off_c, 0, 61, 64
3, 82800, Note_on_c, 0, 73, 102
3, 83040, Note_off_c, 0, 73, 64
3, 83040, Note_on_c, 0, 68, 102
3, 83280, Note_off_c, 0, 68, 64
3, 83280, Note_on_c, 0, 66, 102
3, 83520, Note_off_c, 0, 66, 64
3, 83520, Note_on_c, 0, 78, 102
3, 83760, Note_off_c, 0, 78, 64
3, 83760, Note_on_c, 0, 68, 102
3, 84000, Note_off_c, 0, 68, 64
3, 84000, Note_on_c, 0, 77, 102
3, 84240, Note_off_c, 0, 77, 64
3, 84240, Note_on_c, 0, 68, 102
3, 84480, Note_off_c, 0, 68, 64
3, 84480, Note_on_c, 0, 61, 102
3, 84720, Note_off_c, 0, 61, 64
3, 84720, Note_on_c, 0, 73, 102
3, 84960, Note_off_c, 0, 73, 64
3, 84960, Note_on_c, 0, 68, 102
3, 85200, Note_off_c, 0, 68, 64
3, 85200, Note_on_c, 0, 66, 102
3, 85440, Note_off_c, 0, 66, 64
3, 85440, Note_on_c, 0, 78, 102
3, 85680, Note_off_c, 0, 78, 64
3, 85680, Note_on_c, 0, 68, 102
3, 85920, Note_off_c, 0, 68, 64
3, 85920, Note_on_c, 0, 77, 102
3, 86160, Note_off_c, 0, 77, 64
3, 86160, Note_on_c, 0, 68, 102
3, 86400, Note_off_c, 0, 68, 64
3, 86400, Note_on_c, 0, 60, 102
3, 86640, Note_off_c, 0, 60, 64
3, 86640, Note_on_c, 0, 72, 102
3, 86880, Note_off_c, 0, 72, 64
3, 86880, Note_on_c, 0, 68, 102
3, 87120, Note_off_c, 0, 68, 64
3, 87120, Note_on_c, 0, 63, 102
3, 87360, Note_off_c, 0, 63, 64
3, 87360, Note_on_c, 0, 73, 102
3, 87600, Note_off_c, 0, 73, 64
3, 87600, Note_on_c, 0, 68, 102
3, 87840, Note_off_c, 0, 68, 64
3, 87840, Note_on_c, 0, 72, 102
3, 88080, Note_off_c, 0, 72, 64
3, 88080, Note_on_c, 0, 68, 102
3, 88320, Note_off_c, 0, 68, 64
3, 88320, Note_on_c, 0, 59, 102
3, 88560, Note_off_c, 0, 59, 64
3, 88560, Note_on_c, 0, 71, 102
3, 88800, Note_off_c, 0, 71, 64
3, 88800, Note_on_c, 0, 66, 102
3, 89040, Note_off_c, 0, 66, 64
3, 89040, Note_on_c, 0, 64, 102
3, 89280, Note_off_c, 0, 64, 64
3, 89280, Note_on_c, 0, 75, 102
3, 89520, Note_off_c, 0, 75, 64
3, 89520, Note_on_c, 0, 66, 102
3, 89760, Note_off_c, 0, 66, 64
3, 89760, Note_on_c, 0, 73, 102
3, 90000, Note_off_c, 0, 73, 64
3, 90000, Note_on_c, 0, 66, 102
3, 90240, Note_off_c, 0, 66, 64
3, 90240, Note_on_c, 0, 68, 102
3, 90480, Note_off_c, 0, 68, 64
3, 90480, Note_on_c, 0, 73, 102
3, 92396, Note_off_c, 0, 73, 64
3, 93840, Note_on_c, 0, 68, 102
3, 94080, Pitch_bend_c, 0, 6842
3, 94796, Note_off_c, 0, 68, 64
3, 94800, Pitch_bend_c, 0, 8192
3, 94800, Note_on_c, 0, 65, 102
3, 95760, Note_off_c, 0, 65, 64
3, 95760, Note_on_c, 0, 68, 102
3, 96000, Note_off_c, 0, 68, 64
3, 96000, Note_on_c, 0, 66, 102
3, 96720, Note_off_c, 0, 66, 64
3, 96720, Note_on_c, 0, 65, 102
3, 97680, Note_off_c, 0, 65, 64
3, 97680, Note_on_c, 0, 68, 102
3, 97920, Pitch_bend_c, 0, 6842
3, 98636, Note_off_c, 0, 68, 64
3, 98640, Pitch_bend_c, 0, 8192
3, 98640, Note_on_c, 0, 63, 95
3, 99600, Note_off_c, 0, 63, 64
3, 99600, Note_on_c, 0, 68, 102
3, 99840, Pitch_bend_c, 0, 6842
3, 100556, Note_off_c, 0, 68, 64
3, 100560, Pitch_bend_c, 0, 8192
3, 100560, Note_on_c, 0, 63, 95
3, 101520, Note_off_c, 0, 63, 64
3, 101520, Note_on_c, 0, 68, 102
3, 101760, Pitch_bend_c, 0, 6842
3, 102900, Note_off_c, 0, 68, 64
3, 102960, Pitch_bend_c, 0, 9567
3, 102960, Note_on_c, 0, 68, 102
3, 102976, Pitch_bend_c, 0, 9521
3, 103008, Pitch_bend_c, 0, 9397
3, 103040, Pitch_bend_c, 0, 9273
3, 103072, Pitch_bend_c, 0, 9150
3, 103104, Pitch_bend_c, 0, 9026
3, 103136, Pitch_bend_c, 0, 8903
3, 103168, Pitch_bend_c, 0, 8779
3, 103200, Pitch_bend_c, 0, 8655
3, 103232, Pitch_bend_c, 0, 8532
3, 103264, Pitch_bend_c, 0, 8408
3, 103296, Pitch_bend_c, 0, 8285
3, 103320, Pitch_bend_c, 0, 8192
3, 103440, Note_off_c, 0, 68, 64
3, 103440, Note_on_c, 0, 66, 102
3, 103620, Note_off_c, 0, 66, 64
3, 103680, Note_on_c, 0, 68, 108
3, 103696, Pitch_bend_c, 0, 8262
3, 103728, Pitch_bend_c, 0, 8448
3, 103760, Pitch_bend_c, 0, 8635
3, 103792, Pitch_bend_c, 0, 8821
3, 103824, Pitch_bend_c, 0, 9008
3, 103856, Pitch_bend_c, 0, 9194
3, 103888, Pitch_bend_c, 0, 9381
3, 103920, Pitch_bend_c, 0, 9567
3, 104100, Note_off_c, 0, 68, 64
3, 104160, Pitch_bend_c, 0, 8192
3, 104160, Note_on_c, 0, 73, 102
3, 104340, Note_off_c, 0, 73, 64
3, 104400, Pitch_bend_c, 0, 9567
3, 104400, Note_on_c, 0, 73, 102
3, 104652, Pitch_bend_c, 0, 9533
3, 104684, Pitch_bend_c, 0, 9441
3, 104716, Pitch_bend_c, 0, 9349
3, 104748, Pitch_bend_c, 0, 9258
3, 104780, Pitch_bend_c, 0, 9166
3, 104812, Pitch_bend_c, 0, 9074
3, 104844, Pitch_bend_c, 0, 8983
3, 104876, Pitch_bend_c, 0, 8891
3, 104908, Pitch_bend_c, 0, 8799
3, 104940, Pitch_bend_c, 0, 8708
3, 104972, Pitch_bend_c, 0, 8616
3, 105004, Pitch_bend_c, 0, 8524
3, 105036, Pitch_bend_c, 0, 8433
3, 105068, Pitch_bend_c, 0, 8341
3, 105100, Pitch_bend_c, 0, 8249
3, 105120, Pitch_bend_c, 0, 8192
3, 105440, Note_off_c, 0, 73, 64
3, 105440, Note_on_c, 0, 63, 102
3, 105448, Pitch_bend_c, 0, 8227
3, 105464, Pitch_bend_c, 0, 8368
3, 105480, Pitch_bend_c, 0, 8509
3, 105496, Pitch_bend_c, 0, 8650
3, 105512, Pitch_bend_c, 0, 8791
3, 105528, Pitch_bend_c, 0, 8932
3, 105544, Pitch_bend_c, 0, 9073
3, 105560, Pitch_bend_c, 0, 9214
3, 105576, Pitch_bend_c, 0, 9355
3, 105584, Pitch_bend_c, 0, 9426
3, 105600, Pitch_bend_c, 0, 9567
3, 107840, Note_off_c, 0, 63, 64
3, 140160, Pitch_bend_c, 0, 8192
3, 140160, Note_on_c, 0, 60, 102
3, 140400, Note_off_c, 0, 60, 64
3, 140400, Note_on_c, 0, 72, 102
3, 140640, Note_off_c, 0, 72, 64
3, 140640, Note_on_c, 0, 68, 102
3, 140880, Note_off_c, 0, 68, 64
3, 140880, Note_on_c, 0, 63, 102
3, 141120, Note_off_c, 0, 63, 64
3, 141120, Note_on_c, 0, 73, 102
3, 141360, Note_off_c, 0, 73, 64
3, 141360, Note_on_c, 0, 68, 102
3, 141600, Note_off_c, 0, 68, 64
3, 141600, Note_on_c, 0, 72, 102
3, 141840, Note_off_c, 0, 72, 64
3, 141840, Note_on_c, 0, 68, 102
3, 142080, Note_off_c, 0, 68, 64
3, 142080, Note_on_c, 0, 59, 102
3, 142320, Note_off_c, 0, 59, 64
3, 142320, Note_on_c, 0, 71, 102
3, 142560, Note_off_c, 0, 71, 64
3, 142560, Note_on_c, 0, 66, 102
3, 142800, Note_off_c, 0, 66, 64
3, 142800, Note_on_c, 0, 64, 102
3, 143040, Note_off_c, 0, 64, 64
3, 143040, Note_on_c, 0, 75, 102
3, 143280, Note_off_c, 0, 75, 64
3, 143280, Note_on_c, 0, 66, 102
3, 143520, Note_off_c, 0, 66, 64
3, 143520, Note_on_c, 0, 73, 102
3, 143760, Note_off_c, 0, 73, 64
3, 143760, Note_on_c, 0, 66, 102
3, 144000, Note_off_c, 0, 66, 64
3, 144000, Note_on_c, 0, 61, 102
3, 144240, Note_off_c, 0, 61, 64
3, 144240, Note_on_c, 0, 73, 102
3, 144480, Note_off_c, 0, 73, 64
3, 144480, Note_on_c, 0, 68, 102
3, 144720, Note_off_c, 0, 68, 64
3, 144720, Note_on_c, 0, 66, 102
3, 144960, Note_off_c, 0, 66, 64
3, 144960, Note_on_c, 0, 78, 102
3, 145200, Note_off_c, 0, 78, 64
3, 145200, Note_on_c, 0, 68, 102
3, 145440, Note_off_c, 0, 68, 64
3, 145440, Note_on_c, 0, 77, 102
3, 145680, Note_off_c, 0, 77, 64
3, 145680, Note_on_c, 0, 68, 102
3, 145920, Note_off_c, 0, 68, 64
3, 145920, Note_on_c, 0, 61, 102
3, 146160, Note_off_c, 0, 61, 64
3, 146160, Note_on_c, 0, 73, 102
3, 146400, Note_off_c, 0, 73, 64
3, 146400, Note_on_c, 0, 68, 102
3, 146640, Note_off_c, 0, 68, 64
3, 146640, Note_on_c, 0, 66, 102
3, 146880, Note_off_c, 0, 66, 64
3, 146880, Note_on_c, 0, 78, 102
3, 147120, Note_off_c, 0, 78, 64
3, 147120, Note_on_c, 0, 68, 102
3, 147360, Note_off_c, 0, 68, 64
3, 147360, Note_on_c, 0, 77, 102
3, 147600, Note_off_c, 0, 77, 64
3, 147600, Note_on_c, 0, 68, 102
3, 147840, Note_off_c, 0, 68, 64
3, 147840, Note_on_c, 0, 60, 102
3, 148080, Note_off_c, 0, 60, 64
3, 148080, Note_on_c, 0, 72, 102
3, 148320, Note_off_c, 0, 72, 64
3, 148320, Note_on_c, 0, 68, 102
3, 148560, Note_off_c, 0, 68, 64
3, 148560, Note_on_c, 0, 63, 102
3, 148800, Note_off_c, 0, 63, 64
3, 148800, Note_on_c, 0, 73, 102
3, 149040, Note_off_c, 0, 73, 64
3, 149040, Note_on_c, 0, 68, 102
3, 149280, Note_off_c, 0, 68, 64
3, 149280, Note_on_c, 0, 72, 102
3, 149520, Note_off_c, 0, 72, 64
3, 149520, Note_on_c, 0, 68, 102
3, 149760, Note_off_c, 0, 68, 64
3, 149760, Note_on_c, 0, 59, 102
3, 150000, Note_off_c, 0, 59, 64
3, 150000, Note_on_c, 0, 71, 102
3, 150240, Note_off_c, 0, 71, 64
3, 150240, Note_on_c, 0, 66, 102
3, 150480, Note_off_c, 0, 66, 64
3, 150480, Note_on_c, 0, 64, 102
3, 150720, Note_off_c, 0, 64, 64
3, 150720, Note_on_c, 0, 75, 102
3, 150960, Note_off_c, 0, 75, 64
3, 150960, Note_on_c, 0, 66, 102
3, 151200, Note_off_c, 0, 66, 64
3, 151200, Note_on_c, 0, 73, 102
3, 151440, Note_off_c, 0, 73, 64
3, 151440, Note_on_c, 0, 66, 102
3, 151680, Note_off_c, 0, 66, 64
3, 151680, Note_on_c, 0, 68, 102
3, 151920, Note_off_c, 0, 68, 64
3, 151920, Note_on_c, 0, 73, 102
3, 153836, Note_off_c, 0, 73, 64
3, 155280, Note_on_c, 0, 68, 102
3, 155520, Pitch_bend_c, 0, 6842
3, 156236, Note_off_c, 0, 68, 64
3, 156240, Pitch_bend_c, 0, 8192
3, 156240, Note_on_c, 0, 65, 102
3, 157200, Note_off_c, 0, 65, 64
3, 157200, Note_on_c, 0, 68, 102
3, 157440, Note_off_c, 0, 68, 64
3, 157440, Note_on_c, 0, 66, 102
3, 158160, Note_off_c, 0, 66, 64
3, 158160, Note_on_c, 0, 65, 102
3, 159120, Note_off_c, 0, 65, 64
3, 159120, Note_on_c, 0, 68, 102
3, 159360, Pitch_bend_c, 0, 6842
3, 160076, Note_off_c, 0, 68, 64
3, 160080, Pitch_bend_c, 0, 8192
3, 160080, Note_on_c, 0, 63, 95
3, 161040, Note_off_c, 0, 63, 64
3, 161040, Note_on_c, 0, 68, 102
3, 161280, Pitch_bend_c, 0, 6842
3, 161996, Note_off_c, 0, 68, 64
3, 162000, Pitch_bend_c, 0, 8192
3, 162000, Note_on_c, 0, 63, 95
3, 162960, Note_off_c, 0, 63, 64
3, 162960, Note_on_c, 0, 68, 102
3, 163200, Pitch_bend_c, 0, 6842
3, 164760, Note_off_c, 0, 68, 64
3, 164880, Pitch_bend_c, 0, 8192
3, 164880, Note_on_c, 0, 68, 102
3, 165120, Pitch_bend_c, 0, 6842
3, 166080, Note_off_c, 0, 68, 64
3, 166080, Pitch_bend_c, 0, 8892
3, 166080, Note_on_c, 0, 65, 102
3, 166112, Pitch_bend_c, 0, 8854
3, 166144, Pitch_bend_c, 0, 8752
3, 166176, Pitch_bend_c, 0, 8650
3, 166208, Pitch_bend_c, 0, 8548
3, 166240, Pitch_bend_c, 0, 8447
3, 166272, Pitch_bend_c, 0, 8345
3, 166304, Pitch_bend_c, 0, 8243
3, 166320, Pitch_bend_c, 0, 8192
3, 166560, Note_off_c, 0, 65, 64
3, 166560, Note_on_c, 0, 61, 102
3, 166780, Note_off_c, 0, 61, 64
3, 166780, Note_on_c, 0, 65, 102
3, 166788, Pitch_bend_c, 0, 8239
3, 166796, Pitch_bend_c, 0, 8332
3, 166804, Pitch_bend_c, 0, 8425
3, 166812, Pitch_bend_c, 0, 8519
3, 166820, Pitch_bend_c, 0, 8612
3, 166828, Pitch_bend_c, 0, 8705
3, 166836, Pitch_bend_c, 0, 8799
3, 166844, Pitch_bend_c, 0, 8892
3, 168216, Note_off_c, 0, 65, 64
3, 168240, Pitch_bend_c, 0, 8192
3, 168240, Note_on_c, 0, 73, 102
3, 168460, Note_off_c, 0, 73, 64
3, 168460, Pitch_bend_c, 0, 8192
3, 168460, Note_on_c, 0, 65, 102
3, 168492, Pitch_bend_c, 0, 8857
3, 168524, Pitch_bend_c, 0, 8764
3, 168556, Pitch_bend_c, 0, 8670
3, 168588, Pitch_bend_c, 0, 8577
3, 168620, Pitch_bend_c, 0, 8484
3, 168652, Pitch_bend_c, 0, 8390
3, 168684, Pitch_bend_c, 0, 8297
3, 168716, Pitch_bend_c, 0, 8204
3, 168720, Pitch_bend_c, 0, 8192
3, 168980, Control_c, 0, 1, 3
3, 169028, Control_c, 0, 1, 11
3, 169076, Control_c, 0, 1, 19
3, 169124, Control_c, 0, 1, 27
3, 169172, Control_c, 0, 1, 35
3, 169200, Control_c, 0, 1, 40
3, 170380, Note_off_c, 0, 65, 64
3, 170400, Note_on_c, 0, 68, 102
3, 170440, Note_off_c, 0, 68, 64
3, 170640, Control_c, 0, 1, 0
3, 170640, Note_on_c, 0, 68, 102
3, 170880, Pitch_bend_c, 0, 6842
3, 171596, Note_off_c, 0, 68, 64
3, 171600, Pitch_bend_c, 0, 8192
3, 171600, Note_on_c, 0, 65, 102
3, 172560, Note_off_c, 0, 65, 64
3, 172560, Note_on_c, 0, 68, 102
3, 172800, Pitch_bend_c, 0, 6842
3, 173516, Note_off_c, 0, 68, 64
3, 173520, Pitch_bend_c, 0, 8192
3, 173520, Note_on_c, 0, 65, 102
3, 173544, Pitch_bend_c, 0, 8255
3, 173560, Pitch_bend_c, 0, 8506
3, 173592, Pitch_bend_c, 0, 9007
3, 173624, Pitch_bend_c, 0, 9509
3, 173656, Pitch_bend_c, 0, 10011
3, 173688, Pitch_bend_c, 0, 10513
3, 173720, Pitch_bend_c, 0, 11015
3, 173752, Pitch_bend_c, 0, 11517
3, 173760, Pitch_bend_c, 0, 11642
3, 174240, Note_off_c, 0, 65, 64
3, 174240, Pitch_bend_c, 0, 8192
3, 174240, Note_on_c, 0, 73, 102
3, 174480, Note_off_c, 0, 73, 64
3, 174480, Note_on_c, 0, 73, 102
3, 174512, Pitch_bend_c, 0, 8118
3, 174544, Pitch_bend_c, 0, 7922
3, 174576, Pitch_bend_c, 0, 7726
3, 174608, Pitch_bend_c, 0, 7529
3, 174640, Pitch_bend_c, 0, 7333
3, 174672, Pitch_bend_c, 0, 7137
3, 174704, Pitch_bend_c, 0, 6940
3, 174720, Pitch_bend_c, 0, 6842
3, 175436, Note_off_c, 0, 73, 64
3, 175440, Pitch_bend_c, 0, 8192
3, 175440, Note_on_c, 0, 75, 102
3, 176400, Note_off_c, 0, 75, 64
3, 176400, Note_on_c, 0, 75, 102
3, 176640, Note_off_c, 0, 75, 64
3, 176640, Note_on_c, 0, 75, 102
3, 176708, Pitch_bend_c, 0, 8106
3, 176740, Pitch_bend_c, 0, 8008
3, 176772, Pitch_bend_c, 0, 7910
3, 176804, Pitch_bend_c, 0, 7812
3, 176836, Pitch_bend_c, 0, 7713
3, 176868, Pitch_bend_c, 0, 7615
3, 176900, Pitch_bend_c, 0, 7517
3, 176932, Pitch_bend_c, 0, 7419
3, 176964, Pitch_bend_c, 0, 7321
3, 176996, Pitch_bend_c, 0, 7222
3, 177028, Pitch_bend_c, 0, 7124
3, 177060, Pitch_bend_c, 0, 7026
3, 177092, Pitch_bend_c, 0, 6928
3, 177120, Pitch_bend_c, 0, 6842
3, 177360, Note_off_c, 0, 75, 64
3, 177360, Pitch_bend_c, 0, 8192
3, 177360, Note_on_c, 0, 73, 102
3, 177612, Pitch_bend_c, 0, 8124
3, 177644, Pitch_bend_c, 0, 7944
3, 177676, Pitch_bend_c, 0, 7764
3, 177708, Pitch_bend_c, 0, 7584
3, 177740, Pitch_bend_c, 0, 7404
3, 177772, Pitch_bend_c, 0, 7224
3, 177804, Pitch_bend_c, 0, 7044
3, 177836, Pitch_bend_c, 0, 6864
3, 177840, Pitch_bend_c, 0, 6842
3, 178296, Note_off_c, 0, 73, 64
3, 178300, Pitch_bend_c, 0, 8892
3, 178300, Note_on_c, 0, 70, 102
3, 178332, Pitch_bend_c, 0, 8857
3, 178364, Pitch_bend_c, 0, 8764
3, 178396, Pitch_bend_c, 0, 8670
3, 178428, Pitch_bend_c, 0, 8577
3, 178460, Pitch_bend_c, 0, 8484
3, 178492, Pitch_bend_c, 0, 8390
3, 178524, Pitch_bend_c, 0, 8297
3, 178556, Pitch_bend_c, 0, 8204
3, 178560, Pitch_bend_c, 0, 8192
3, 179040, Note_off_c, 0, 70, 64
3, 179040, Note_on_c, 0, 66, 102
3, 179280, Note_off_c, 0, 66, 64
3, 179280, Note_on_c, 0, 61, 102
3, 179312, Control_c, 0, 1, 10
3, 179344, Control_c, 0, 1, 21
3, 179376, Control_c, 0, 1, 32
3, 179400, Control_c, 0, 1, 40
3, 179976, Pitch_bend_c, 0, 8892
3, 179976, Control_c, 0, 1, 0
3, 179976, Note_on_c, 0, 68, 102
3, 179980, Note_off_c, 0, 61, 64
3, 180012, Pitch_bend_c, 0, 8822
3, 180028, Pitch_bend_c, 0, 8729
3, 180044, Pitch_bend_c, 0, 8635
3, 180060, Pitch_bend_c, 0, 8542
3, 180076, Pitch_bend_c, 0, 8449
3, 180092, Pitch_bend_c, 0, 8355
3, 180108, Pitch_bend_c, 0, 8262
3, 180120, Pitch_bend_c, 0, 8192
3, 180240, Pitch_bend_c, 0, 6842
3, 180456, Note_off_c, 0, 68, 64
3, 180480, Pitch_bend_c, 0, 8192
3, 180480, Control_c, 0, 1, 0
3, 180480, Note_on_c, 0, 68, 102
3, 180512, Pitch_bend_c, 0, 8267
3, 180544, Pitch_bend_c, 0, 8467
3, 180576, Pitch_bend_c, 0, 8667
3, 180608, Pitch_bend_c, 0, 8867
3, 180640, Pitch_bend_c, 0, 9067
3, 180672, Pitch_bend_c, 0, 9267
3, 180704, Pitch_bend_c, 0, 9467
3, 180720, Pitch_bend_c, 0, 9567
3, 180960, Note_off_c, 0, 68, 64
3, 180960, Pitch_bend_c, 0, 8192
3, 180960, Note_on_c, 0, 73, 102
3, 181140, Note_off_c, 0, 73, 64
3, 181200, Note_on_c, 0, 73, 102
3, 181224, Pitch_bend_c, 0, 8217
3, 181256, Pitch_bend_c, 0, 8421
3, 181288, Pitch_bend_c, 0, 8625
3, 181320, Pitch_bend_c, 0, 8829
3, 181352, Pitch_bend_c, 0, 9032
3, 181384, Pitch_bend_c, 0, 9236
3, 181416, Pitch_bend_c, 0, 9440
3, 181436, Pitch_bend_c, 0, 9567
3, 181692, Pitch_bend_c, 0, 9498
3, 181724, Pitch_bend_c, 0, 9315
3, 181756, Pitch_bend_c, 0, 9132
3, 181788, Pitch_bend_c, 0, 8948
3, 181820, Pitch_bend_c, 0, 8765
3, 181852, Pitch_bend_c, 0, 8582
3, 181884, Pitch_bend_c, 0, 8398
3, 181900, Pitch_bend_c, 0, 8307
3, 181920, Pitch_bend_c, 0, 8192
3, 182160, Note_off_c, 0, 73, 64
3, 182160, Note_on_c, 0, 75, 102
3, 182192, Pitch_bend_c, 0, 8267
3, 182224, Pitch_bend_c, 0, 8467
3, 182256, Pitch_bend_c, 0, 8667
3, 182288, Pitch_bend_c, 0, 8867
3, 182320, Pitch_bend_c, 0, 9067
3, 182352, Pitch_bend_c, 0, 9267
3, 182384, Pitch_bend_c, 0, 9467
3, 182400, Pitch_bend_c, 0, 9567
3, 186240, Note_off_c, 0, 75, 64
3, 190080, Pitch_bend_c, 0, 8192
3, 190080, Note_on_c, 0, 49, 76
3, 190084, Note_on_c, 0, 56, 76
3, 190088, Note_on_c, 0, 61, 76
3, 191760, Note_off_c, 0, 61, 64
3, 191760, Note_off_c, 0, 56, 64
3, 191760, Note_off_c, 0, 49, 64
3, 191760, Pitch_bend_c, 0, 8892
3, 191760, Note_on_c, 0, 65, 102
3, 192012, Pitch_bend_c, 0, 8857
3, 192044, Pitch_bend_c, 0, 8764
3, 192076, Pitch_bend_c, 0, 8670
3, 192108, Pitch_bend_c, 0, 8577
3, 192140, Pitch_bend_c, 0, 8484
3, 192172, Pitch_bend_c, 0, 8390
3, 192204, Pitch_bend_c, 0, 8297
3, 192236, Pitch_bend_c, 0, 8204
3, 192240, Pitch_bend_c, 0, 8192
3, 192480, Note_off_c, 0, 65, 64
3, 192480, Note_on_c, 0, 61, 102
3, 192720, Note_off_c, 0, 61, 64
3, 192720, Note_on_c, 0, 56, 102
3, 192960, Note_off_c, 0, 56, 64
3, 192960, Note_on_c, 0, 54, 102
3, 193200, Note_off_c, 0, 54, 64
3, 193200, Note_on_c, 0, 53, 102
3, 193440, Note_off_c, 0, 53, 64
3, 193440, Note_on_c, 0, 49, 102
3, 193680, Note_off_c, 0, 49, 64
3, 193680, Note_on_c, 0, 47, 76
3, 193704, Pitch_bend_c, 0, 8214
3, 193720, Pitch_bend_c, 0, 8304
3, 193736, Pitch_bend_c, 0, 8393
3, 193752, Pitch_bend_c, 0, 8482
3, 193760, Pitch_bend_c, 0, 8542
3, 193920, Note_off_c, 0, 47, 64
3, 205440, Pitch_bend_c, 0, 8192
3, 205440, Note_on_c, 0, 49, 76
3, 205444, Note_on_c, 0, 56, 76
3, 205448, Note_on_c, 0, 61, 76
3, 207120, Note_off_c, 0, 61, 64
3, 207120, Note_off_c, 0, 56, 64
3, 207120, Note_off_c, 0, 49, 64
3, 207120, Pitch_bend_c, 0, 8892
3, 207120, Note_on_c, 0, 65, 102
3, 207372, Pitch_bend_c, 0, 8857
3, 207404, Pitch_bend_c, 0, 8764
3, 207436, Pitch_bend_c, 0, 8670
3, 207468, Pitch_bend_c, 0, 8577
3, 207500, Pitch_bend_c, 0, 8484
3, 207532, Pitch_bend_c, 0, 8390
3, 207564, Pitch_bend_c, 0, 8297
3, 207596, Pitch_bend_c, 0, 8204
3, 207600, Pitch_bend_c, 0, 8192
3, 207840, Note_off_c, 0, 65, 64
3, 207840, Note_on_c, 0, 61, 102
3, 208080, Note_off_c, 0, 61, 64
3, 208080, Note_on_c, 0, 56, 102
3, 208320, Note_off_c, 0, 56, 64
3, 208320, Note_on_c, 0, 54, 102
3, 208560, Note_off_c, 0, 54, 64
3, 208560, Note_on_c, 0, 53, 102
3, 208800, Note_off_c, 0, 53, 64
3, 208800, Note_on_c, 0, 49, 102
3, 209040, Note_off_c, 0, 49, 64
3, 209040, Note_on_c, 0, 47, 70
3, 209064, Pitch_bend_c, 0, 8214
3, 209080, Pitch_bend_c, 0, 8304
3, 209096, Pitch_bend_c, 0, 8393
3, 209112, Pitch_bend_c, 0, 8482
3, 209120, Pitch_bend_c, 0, 8542
3, 209280, Note_off_c, 0, 47, 64
3, 216940, Pitch_bend_c, 0, 8192
3, 216940, Note_on_c, 0, 80, 108
3, 216944, Pitch_bend_c, 0, 8192
3, 216948, Pitch_bend_c, 0, 8536
3, 216952, Pitch_bend_c, 0, 8880
3, 216956, Pitch_bend_c, 0, 9223
3, 216960, Pitch_bend_c, 0, 9567
3, 217092, Control_c, 0, 1, 4
3, 217108, Control_c, 0, 1, 9
3, 217124, Control_c, 0, 1, 15
3, 217140, Control_c, 0, 1, 20
3, 217156, Control_c, 0, 1, 25
3, 217172, Control_c, 0, 1, 31
3, 217188, Control_c, 0, 1, 36
3, 217200, Control_c, 0, 1, 45
3, 218172, Pitch_bend_c, 0, 9521
3, 218204, Pitch_bend_c, 0, 9399
3, 218236, Pitch_bend_c, 0, 9277
3, 218264, Pitch_bend_c, 0, 9170
3, 218296, Pitch_bend_c, 0, 9048
3, 218328, Pitch_bend_c, 0, 8925
3, 218360, Pitch_bend_c, 0, 8803
3, 218392, Pitch_bend_c, 0, 8681
3, 218424, Pitch_bend_c, 0, 8559
3, 218456, Pitch_bend_c, 0, 8436
3, 218488, Pitch_bend_c, 0, 8314
3, 218520, Pitch_bend_c, 0, 8192
3, 218640, Note_off_c, 0, 80, 64
3, 218640, Control_c, 0, 1, 0
3, 218640, Note_on_c, 0, 78, 108
3, 218880, Note_off_c, 0, 78, 64
3, 218880, Note_on_c, 0, 77, 108
3, 219360, Pitch_bend_c, 0, 8892
3, 219480, Pitch_bend_c, 0, 8192
3, 219600, Note_off_c, 0, 77, 64
3, 219600, Note_on_c, 0, 75, 108
3, 219612, Control_c, 0, 1, 5
3, 219628, Control_c, 0, 1, 11
3, 219644, Control_c, 0, 1, 17
3, 219660, Control_c, 0, 1, 23
3, 219676, Control_c, 0, 1, 29
3, 219692, Control_c, 0, 1, 35
3, 219708, Control_c, 0, 1, 41
3, 219720, Control_c, 0, 1, 45
3, 220560, Note_off_c, 0, 75, 64
3, 220560, Control_c, 0, 1, 0
3, 220560, Note_on_c, 0, 78, 108
3, 220800, Note_off_c, 0, 78, 64
3, 220800, Note_on_c, 0, 77, 108
3, 221280, Pitch_bend_c, 0, 8892
3, 221360, Pitch_bend_c, 0, 8192
3, 221440, Note_off_c, 0, 77, 64
3, 221440, Note_on_c, 0, 75, 102
3, 221600, Note_off_c, 0, 75, 64
3, 221600, Note_on_c, 0, 74, 108
3, 221800, Note_off_c, 0, 74, 64
3, 221920, Note_on_c, 0, 75, 108
3, 222200, Note_off_c, 0, 75, 64
3, 222240, Note_on_c, 0, 77, 108
3, 222600, Note_off_c, 0, 77, 64
3, 222720, Pitch_bend_c, 0, 9567
3, 222720, Note_on_c, 0, 73, 108
3, 222752, Pitch_bend_c, 0, 9518
3, 222784, Pitch_bend_c, 0, 9389
3, 222816, Pitch_bend_c, 0, 9260
3, 222848, Pitch_bend_c, 0, 9130
3, 222880, Pitch_bend_c, 0, 9001
3, 222912, Pitch_bend_c, 0, 8871
3, 222944, Pitch_bend_c, 0, 8742
3, 222976, Pitch_bend_c, 0, 8613
3, 223008, Pitch_bend_c, 0, 8483
3, 223040, Pitch_bend_c, 0, 8354
3, 223064, Pitch_bend_c, 0, 8257
3, 223080, Pitch_bend_c, 0, 8192
3, 223200, Note_off_c, 0, 73, 64
3, 223200, Note_on_c, 0, 70, 108
3, 223440, Note_off_c, 0, 70, 64
3, 223440, Pitch_bend_c, 0, 9567
3, 223440, Note_on_c, 0, 68, 108
3, 223456, Pitch_bend_c, 0, 9497
3, 223488, Pitch_bend_c, 0, 9311
3, 223520, Pitch_bend_c, 0, 9124
3, 223552, Pitch_bend_c, 0, 8938
3, 223584, Pitch_bend_c, 0, 8751
3, 223616, Pitch_bend_c, 0, 8565
3, 223648, Pitch_bend_c, 0, 8378
3, 223664, Pitch_bend_c, 0, 8285
3, 223680, Pitch_bend_c, 0, 8192
3, 223920, Note_off_c, 0, 68, 64
3, 223920, Note_on_c, 0, 66, 108
3, 224160, Note_off_c, 0, 66, 64
3, 224160, Note_on_c, 0, 65, 108
3, 224400, Pitch_bend_c, 0, 8892
3, 224520, Pitch_bend_c, 0, 8192
3, 224640, Note_off_c, 0, 65, 64
3, 224640, Note_on_c, 0, 63, 108
3, 224712, Control_c, 0, 1, 7
3, 224748, Control_c, 0, 1, 15
3, 224784, Control_c, 0, 1, 23
3, 224816, Control_c, 0, 1, 31
3, 224852, Control_c, 0, 1, 39
3, 224880, Control_c, 0, 1, 45
3, 225120, Note_off_c, 0, 63, 64
3, 225120, Control_c, 0, 1, 0
3, 225120, Note_on_c, 0, 63, 108
3, 225120, Control_c, 0, 1, 0
3, 225760, Note_off_c, 0, 63, 64
3, 225760, Note_on_c, 0, 65, 108
3, 225920, Note_off_c, 0, 65, 64
3, 225920, Note_on_c, 0, 66, 108
3, 226080, Note_off_c, 0, 66, 64
3, 226080, Note_on_c, 0, 68, 108
3, 226240, Note_off_c, 0, 68, 64
3, 226240, Note_on_c, 0, 71, 108
3, 226560, Note_off_c, 0, 71, 64
3, 226560, Note_on_c, 0, 70, 108
3, 227040, Pitch_bend_c, 0, 8892
3, 227160, Pitch_bend_c, 0, 8192
3, 227176, Pitch_bend_c, 0, 8052
3, 227192, Pitch_bend_c, 0, 7866
3, 227208, Pitch_bend_c, 0, 7680
3, 227224, Pitch_bend_c, 0, 7494
3, 227240, Pitch_bend_c, 0, 7308
3, 227256, Pitch_bend_c, 0, 7121
3, 227272, Pitch_bend_c, 0, 6935
3, 227280, Pitch_bend_c, 0, 6842
3, 227980, Note_off_c, 0, 70, 64
3, 227980, Pitch_bend_c, 0, 8192
3, 227980, Note_on_c, 0, 71, 108
3, 227996, Pitch_bend_c, 0, 8313
3, 228012, Pitch_bend_c, 0, 8475
3, 228028, Pitch_bend_c, 0, 8637
3, 228044, Pitch_bend_c, 0, 8799
3, 228060, Pitch_bend_c, 0, 8960
3, 228076, Pitch_bend_c, 0, 9122
3, 228092, Pitch_bend_c, 0, 9284
3, 228108, Pitch_bend_c, 0, 9446
3, 228120, Pitch_bend_c, 0, 9567
3, 228460, Note_off_c, 0, 71, 64
3, 228480, Pitch_bend_c, 0, 8192
3, 228480, Note_on_c, 0, 71, 108
3, 228960, Note_off_c, 0, 71, 64
3, 228960, Note_on_c, 0, 70, 108
3, 229200, Note_off_c, 0, 70, 64
3, 229200, Note_on_c, 0, 70, 108
3, 229252, Control_c, 0, 1, 7
3, 229268, Control_c, 0, 1, 16
3, 229284, Control_c, 0, 1, 25
3, 229300, Control_c, 0, 1, 34
3, 229316, Control_c, 0, 1, 43
3, 229320, Control_c, 0, 1, 45
3, 229920, Note_off_c, 0, 70, 64
3, 229920, Control_c, 0, 1, 0
3, 229920, Note_on_c, 0, 70, 108
3, 229936, Pitch_bend_c, 0, 8264
3, 229952, Pitch_bend_c, 0, 8361
3, 229968, Pitch_bend_c, 0, 8458
3, 229984, Pitch_bend_c, 0, 8554
3, 230000, Pitch_bend_c, 0, 8651
3, 230016, Pitch_bend_c, 0, 8747
3, 230032, Pitch_bend_c, 0, 8844
3, 230040, Pitch_bend_c, 0, 8892
3, 230072, Pitch_bend_c, 0, 8837
3, 230104, Pitch_bend_c, 0, 8774
3, 230136, Pitch_bend_c, 0, 8711
3, 230168, Pitch_bend_c, 0, 8648
3, 230200, Pitch_bend_c, 0, 8585
3, 230232, Pitch_bend_c, 0, 8522
3, 230264, Pitch_bend_c, 0, 8459
3, 230296, Pitch_bend_c, 0, 8396
3, 230328, Pitch_bend_c, 0, 8334
3, 230356, Pitch_bend_c, 0, 8279
3, 230400, Pitch_bend_c, 0, 8192
3, 230880, Note_off_c, 0, 70, 64
3, 230880, Note_on_c, 0, 68, 108
3, 231100, Note_off_c, 0, 68, 64
3, 231100, Note_on_c, 0, 78, 95
3, 231108, Pitch_bend_c, 0, 8232
3, 231124, Pitch_bend_c, 0, 8394
3, 231140, Pitch_bend_c, 0, 8556
3, 231156, Pitch_bend_c, 0, 8718
3, 231172, Pitch_bend_c, 0, 8880
3, 231188, Pitch_bend_c, 0, 9041
3, 231204, Pitch_bend_c, 0, 9203
3, 231220, Pitch_bend_c, 0, 9365
3, 231236, Pitch_bend_c, 0, 9527
3, 231240, Pitch_bend_c, 0, 9567
3, 231484, Pitch_bend_c, 0, 9521
3, 231500, Pitch_bend_c, 0, 9338
3, 231516, Pitch_bend_c, 0, 9154
3, 231532, Pitch_bend_c, 0, 8971
3, 231548, Pitch_bend_c, 0, 8788
3, 231564, Pitch_bend_c, 0, 8604
3, 231580, Pitch_bend_c, 0, 8421
3, 231596, Pitch_bend_c, 0, 8238
3, 231600, Pitch_bend_c, 0, 8192
3, 231804, Pitch_bend_c, 0, 7919
3, 231812, Pitch_bend_c, 0, 7374
3, 231820, Pitch_bend_c, 0, 6829
3, 231828, Pitch_bend_c, 0, 6284
3, 231836, Pitch_bend_c, 0, 5739
3, 231840, Note_off_c, 0, 78, 64
3, 231840, Pitch_bend_c, 0, 5467
3, 232080, Pitch_bend_c, 0, 8192
3, 232080, Note_on_c, 0, 65, 108
3, 232096, Pitch_bend_c, 0, 8264
3, 232112, Pitch_bend_c, 0, 8361
3, 232128, Pitch_bend_c, 0, 8458
3, 232144, Pitch_bend_c, 0, 8554
3, 232160, Pitch_bend_c, 0, 8651
3, 232176, Pitch_bend_c, 0, 8747
3, 232192, Pitch_bend_c, 0, 8844
3, 232200, Pitch_bend_c, 0, 8892
3, 232216, Pitch_bend_c, 0, 8820
3, 232232, Pitch_bend_c, 0, 8723
3, 232248, Pitch_bend_c, 0, 8626
3, 232264, Pitch_bend_c, 0, 8530
3, 232280, Pitch_bend_c, 0, 8433
3, 232296, Pitch_bend_c, 0, 8337
3, 232312, Pitch_bend_c, 0, 8240
3, 232320, Pitch_bend_c, 0, 8192
3, 232800, Note_off_c, 0, 65, 64
3, 232800, Note_on_c, 0, 63, 108
3, 233040, Note_off_c, 0, 63, 64
3, 233040, Note_on_c, 0, 63, 108
3, 233056, Control_c, 0, 1, 5
3, 233088, Control_c, 0, 1, 17
3, 233120, Control_c, 0, 1, 29
3, 233160, Control_c, 0, 1, 45
3, 233996, Note_off_c, 0, 63, 64
3, 234000, Control_c, 0, 1, 0
3, 234000, Pitch_bend_c, 0, 8192
3, 234000, Note_on_c, 0, 65, 108
3, 234016, Pitch_bend_c, 0, 8264
3, 234032, Pitch_bend_c, 0, 8361
3, 234048, Pitch_bend_c, 0, 8458
3, 234064, Pitch_bend_c, 0, 8554
3, 234080, Pitch_bend_c, 0, 8651
3, 234096, Pitch_bend_c, 0, 8747
3, 234112, Pitch_bend_c, 0, 8844
3, 234120, Pitch_bend_c, 0, 8892
3, 234136, Pitch_bend_c, 0, 8820
3, 234152, Pitch_bend_c, 0, 8723
3, 234168, Pitch_bend_c, 0, 8626
3, 234184, Pitch_bend_c, 0, 8530
3, 234200, Pitch_bend_c, 0, 8433
3, 234216, Pitch_bend_c, 0, 8337
3, 234232, Pitch_bend_c, 0, 8240
3, 234240, Pitch_bend_c, 0, 8192
3, 234720, Note_off_c, 0, 65, 64
3, 234720, Note_on_c, 0, 63, 108
3, 234960, Note_off_c, 0, 63, 64
3, 234960, Note_on_c, 0, 63, 108
3, 234976, Control_c, 0, 1, 5
3, 235008, Control_c, 0, 1, 17
3, 235040, Control_c, 0, 1, 29
3, 235056, Control_c, 0, 1, 36
3, 235080, Control_c, 0, 1, 45
3, 235416, Note_off_c, 0, 63, 64
3, 235420, Control_c, 0, 1, 0
3, 235420, Note_on_c, 0, 62, 102
3, 235436, Pitch_bend_c, 0, 8254
3, 235468, Pitch_bend_c, 0, 8418
3, 235500, Pitch_bend_c, 0, 8583
3, 235532, Pitch_bend_c, 0, 8748
3, 235556, Pitch_bend_c, 0, 8871
3, 235560, Pitch_bend_c, 0, 8892
3, 236160, Note_off_c, 0, 62, 64
3, 236160, Pitch_bend_c, 0, 8192
3, 236160, Note_on_c, 0, 62, 95
3, 236192, Pitch_bend_c, 0, 8274
3, 236256, Pitch_bend_c, 0, 8460
3, 236320, Pitch_bend_c, 0, 8647
3, 236384, Pitch_bend_c, 0, 8833
3, 236448, Pitch_bend_c, 0, 9020
3, 236512, Pitch_bend_c, 0, 9206
3, 236580, Pitch_bend_c, 0, 9404
3, 236644, Pitch_bend_c, 0, 9591
3, 236708, Pitch_bend_c, 0, 9777
3, 236772, Pitch_bend_c, 0, 9964
3, 236836, Pitch_bend_c, 0, 10150
3, 236876, Pitch_bend_c, 0, 10267
3, 236880, Note_off_c, 0, 62, 64
3, 236880, Pitch_bend_c, 0, 8192
3, 236880, Note_on_c, 0, 65, 95
3, 237600, Note_off_c, 0, 65, 64
3, 237600, Pitch_bend_c, 0, 8192
3, 237600, Note_on_c, 0, 65, 108
3, 237608, Pitch_bend_c, 0, 8216
3, 237624, Pitch_bend_c, 0, 8313
3, 237640, Pitch_bend_c, 0, 8409
3, 237656, Pitch_bend_c, 0, 8506
3, 237672, Pitch_bend_c, 0, 8602
3, 237688, Pitch_bend_c, 0, 8699
3, 237704, Pitch_bend_c, 0, 8795
3, 237720, Pitch_bend_c, 0, 8892
3, 237752, Pitch_bend_c, 0, 8837
3, 237784, Pitch_bend_c, 0, 8774
3, 237816, Pitch_bend_c, 0, 8711
3, 237848, Pitch_bend_c, 0, 8648
3, 237880, Pitch_bend_c, 0, 8585
3, 237912, Pitch_bend_c, 0, 8522
3, 237944, Pitch_bend_c, 0, 8459
3, 237976, Pitch_bend_c, 0, 8396
3, 238008, Pitch_bend_c, 0, 8334
3, 238040, Pitch_bend_c, 0, 8271
3, 238072, Pitch_bend_c, 0, 8208
3, 238080, Pitch_bend_c, 0, 8192
3, 238560, Note_off_c, 0, 65, 64
3, 238560, Note_on_c, 0, 63, 108
3, 238800, Note_off_c, 0, 63, 64
3, 238800, Note_on_c, 0, 58, 102
3, 238816, Pitch_bend_c, 0, 8264
3, 238832, Pitch_bend_c, 0, 8361
3, 238848, Pitch_bend_c, 0, 8458
3, 238864, Pitch_bend_c, 0, 8554
3, 238880, Pitch_bend_c, 0, 8651
3, 238896, Pitch_bend_c, 0, 8747
3, 238912, Pitch_bend_c, 0, 8844
3, 238920, Pitch_bend_c, 0, 8892
3, 239280, Note_off_c, 0, 58, 64
3, 239280, Pitch_bend_c, 0, 8192
3, 239280, Note_on_c, 0, 56, 108
3, 239760, Note_off_c, 0, 56, 64
3, 239760, Note_on_c, 0, 58, 108
3, 240000, Note_off_c, 0, 58, 64
3, 240000, Note_on_c, 0, 63, 108
3, 240132, Control_c, 0, 1, 4
3, 240148, Control_c, 0, 1, 9
3, 240164, Control_c, 0, 1, 15
3, 240180, Control_c, 0, 1, 20
3, 240196, Control_c, 0, 1, 25
3, 240212, Control_c, 0, 1, 31
3, 240228, Control_c, 0, 1, 36
3, 240240, Control_c, 0, 1, 40
3, 241680, Note_off_c, 0, 63, 64
3, 241680, Control_c, 0, 1, 0
3, 241680, Note_on_c, 0, 65, 108
3, 241800, Pitch_bend_c, 0, 8892
3, 241920, Pitch_bend_c, 0, 8192
3, 241972, Control_c, 0, 1, 6
3, 241988, Control_c, 0, 1, 14
3, 242004, Control_c, 0, 1, 22
3, 242020, Control_c, 0, 1, 30
3, 242036, Control_c, 0, 1, 38
3, 242040, Control_c, 0, 1, 40
3, 242640, Note_off_c, 0, 65, 64
3, 242640, Control_c, 0, 1, 0
3, 242640, Note_on_c, 0, 63, 108
3, 243096, Note_off_c, 0, 63, 64
3, 243100, Note_on_c, 0, 62, 102
3, 243132, Pitch_bend_c, 0, 8227
3, 243164, Pitch_bend_c, 0, 8320
3, 243196, Pitch_bend_c, 0, 8414
3, 243228, Pitch_bend_c, 0, 8507
3, 243260, Pitch_bend_c, 0, 8600
3, 243292, Pitch_bend_c, 0, 8694
3, 243324, Pitch_bend_c, 0, 8787
3, 243356, Pitch_bend_c, 0, 8880
3, 243360, Pitch_bend_c, 0, 8892
3, 243840, Note_off_c, 0, 62, 64
3, 243840, Pitch_bend_c, 0, 8192
3, 243840, Note_on_c, 0, 62, 108
3, 244444, Pitch_bend_c, 0, 8264
3, 244460, Pitch_bend_c, 0, 8550
3, 244476, Pitch_bend_c, 0, 8836
3, 244492, Pitch_bend_c, 0, 9122
3, 244508, Pitch_bend_c, 0, 9408
3, 244524, Pitch_bend_c, 0, 9695
3, 244540, Pitch_bend_c, 0, 9981
3, 244556, Pitch_bend_c, 0, 10267
3, 244560, Note_off_c, 0, 62, 64
3, 244560, Pitch_bend_c, 0, 8192
3, 244560, Note_on_c, 0, 65, 108
3, 245040, Note_off_c, 0, 65, 64
3, 245040, Note_on_c, 0, 63, 95
3, 245056, Pitch_bend_c, 0, 8263
3, 245088, Pitch_bend_c, 0, 8453
3, 245120, Pitch_bend_c, 0, 8642
3, 245152, Pitch_bend_c, 0, 8832
3, 245184, Pitch_bend_c, 0, 9022
3, 245216, Pitch_bend_c, 0, 9211
3, 245248, Pitch_bend_c, 0, 9401
3, 245280, Pitch_bend_c, 0, 9567
3, 245760, Note_off_c, 0, 63, 64
3, 245760, Pitch_bend_c, 0, 8192
3, 245760, Note_on_c, 0, 63, 108
3, 245892, Control_c, 0, 1, 5
3, 245924, Control_c, 0, 1, 17
3, 245956, Control_c, 0, 1, 29
3, 245988, Control_c, 0, 1, 41
3, 246000, Control_c, 0, 1, 45
3, 249600, Note_off_c, 0, 63, 64
3, 249600, Control_c, 0, 1, 0
3, 249600, Note_on_c, 0, 73, 102
3, 249616, Pitch_bend_c, 0, 8262
3, 249648, Pitch_bend_c, 0, 8448
3, 249680, Pitch_bend_c, 0, 8635
3, 249712, Pitch_bend_c, 0, 8821
3, 249744, Pitch_bend_c, 0, 9008
3, 249780, Pitch_bend_c, 0, 9217
3, 249816, Pitch_bend_c, 0, 9427
3, 249840, Pitch_bend_c, 0, 9567
3, 250080, Note_off_c, 0, 73, 64
3, 250080, Pitch_bend_c, 0, 8192
3, 250080, Note_on_c, 0, 73, 102
3, 250096, Pitch_bend_c, 0, 8262
3, 250128, Pitch_bend_c, 0, 8448
3, 250160, Pitch_bend_c, 0, 8635
3, 250192, Pitch_bend_c, 0, 8821
3, 250228, Pitch_bend_c, 0, 9031
3, 250260, Pitch_bend_c, 0, 9217
3, 250292, Pitch_bend_c, 0, 9404
3, 250320, Pitch_bend_c, 0, 9567
3, 250412, Control_c, 0, 1, 5
3, 250444, Control_c, 0, 1, 17
3, 250476, Control_c, 0, 1, 29
3, 250508, Control_c, 0, 1, 41
3, 250520, Control_c, 0, 1, 45
3, 250996, Note_off_c, 0, 73, 64
3, 251000, Control_c, 0, 1, 0
3, 251000, Note_on_c, 0, 73, 102
3, 251008, Pitch_bend_c, 0, 9532
3, 251024, Pitch_bend_c, 0, 9391
3, 251040, Pitch_bend_c, 0, 9250
3, 251056, Pitch_bend_c, 0, 9109
3, 251072, Pitch_bend_c, 0, 8968
3, 251088, Pitch_bend_c, 0, 8827
3, 251104, Pitch_bend_c, 0, 8686
3, 251120, Pitch_bend_c, 0, 8545
3, 251136, Pitch_bend_c, 0, 8404
3, 251152, Pitch_bend_c, 0, 8263
3, 251160, Pitch_bend_c, 0, 8192
3, 251280, Pitch_bend_c, 0, 6117
3, 251400, Note_off_c, 0, 73, 64
3, 251400, Pitch_bend_c, 0, 8192
3, 251400, Note_on_c, 0, 68, 102
3, 251520, Note_off_c, 0, 68, 64
3, 251520, Note_on_c, 0, 73, 102
3, 251536, Pitch_bend_c, 0, 8262
3, 251568, Pitch_bend_c, 0, 8448
3, 251600, Pitch_bend_c, 0, 8635
3, 251632, Pitch_bend_c, 0, 8821
3, 251664, Pitch_bend_c, 0, 9008
3, 251700, Pitch_bend_c, 0, 9217
3, 251736, Pitch_bend_c, 0, 9427
3, 251760, Pitch_bend_c, 0, 9567
3, 252000, Note_off_c, 0, 73, 64
3, 252000, Pitch_bend_c, 0, 8192
3, 252000, Note_on_c, 0, 73, 102
3, 252016, Pitch_bend_c, 0, 8262
3, 252048, Pitch_bend_c, 0, 8448
3, 252080, Pitch_bend_c, 0, 8635
3, 252112, Pitch_bend_c, 0, 8821
3, 252148, Pitch_bend_c, 0, 9031
3, 252180, Pitch_bend_c, 0, 9217
3, 252212, Pitch_bend_c, 0, 9404
3, 252240, Pitch_bend_c, 0, 9567
3, 252332, Control_c, 0, 1, 5
3, 252364, Control_c, 0, 1, 17
3, 252396, Control_c, 0, 1, 29
3, 252428, Control_c, 0, 1, 41
3, 252440, Control_c, 0, 1, 45
3, 252916, Note_off_c, 0, 73, 64
3, 252920, Control_c, 0, 1, 0
3, 252920, Note_on_c, 0, 73, 102
3, 252928, Pitch_bend_c, 0, 9532
3, 252944, Pitch_bend_c, 0, 9391
3, 252960, Pitch_bend_c, 0, 9250
3, 252976, Pitch_bend_c, 0, 9109
3, 252992, Pitch_bend_c, 0, 8968
3, 253008, Pitch_bend_c, 0, 8827
3, 253024, Pitch_bend_c, 0, 8686
3, 253040, Pitch_bend_c, 0, 8545
3, 253056, Pitch_bend_c, 0, 8404
3, 253072, Pitch_bend_c, 0, 8263
3, 253080, Pitch_bend_c, 0, 8192
3, 253200, Pitch_bend_c, 0, 6117
3, 253320, Note_off_c, 0, 73, 64
3, 253320, Pitch_bend_c, 0, 8192
3, 253320, Note_on_c, 0, 68, 102
3, 253440, Note_off_c, 0, 68, 64
3, 253440, Note_on_c, 0, 75, 102
3, 253456, Pitch_bend_c, 0, 8262
3, 253488, Pitch_bend_c, 0, 8448
3, 253520, Pitch_bend_c, 0, 8635
3, 253552, Pitch_bend_c, 0, 8821
3, 253584, Pitch_bend_c, 0, 9008
3, 253620, Pitch_bend_c, 0, 9217
3, 253656, Pitch_bend_c, 0, 9427
3, 253680, Pitch_bend_c, 0, 9567
3, 253920, Note_off_c, 0, 75, 64
3, 253920, Pitch_bend_c, 0, 8192
3, 253920, Note_on_c, 0, 75, 102
3, 253936, Pitch_bend_c, 0, 8262
3, 253968, Pitch_bend_c, 0, 8448
3, 254000, Pitch_bend_c, 0, 8635
3, 254032, Pitch_bend_c, 0, 8821
3, 254068, Pitch_bend_c, 0, 9031
3, 254100, Pitch_bend_c, 0, 9217
3, 254132, Pitch_bend_c, 0, 9404
3, 254160, Pitch_bend_c, 0, 9567
3, 254252, Control_c, 0, 1, 5
3, 254284, Control_c, 0, 1, 17
3, 254316, Control_c, 0, 1, 29
3, 254348, Control_c, 0, 1, 41
3, 254360, Control_c, 0, 1, 45
3, 254836, Note_off_c, 0, 75, 64
3, 254840, Control_c, 0, 1, 0
3, 254840, Note_on_c, 0, 75, 102
3, 254856, Pitch_bend_c, 0, 8252
3, 254888, Pitch_bend_c, 0, 8411
3, 254920, Pitch_bend_c, 0, 8571
3, 254952, Pitch_bend_c, 0, 8730
3, 254984, Pitch_bend_c, 0, 8889
3, 255024, Pitch_bend_c, 0, 9089
3, 255064, Pitch_bend_c, 0, 9288
3, 255108, Pitch_bend_c, 0, 9507
3, 255120, Pitch_bend_c, 0, 9567
3, 255320, Note_off_c, 0, 75, 64
3, 255320, Pitch_bend_c, 0, 8192
3, 255320, Note_on_c, 0, 75, 102
3, 255336, Pitch_bend_c, 0, 8252
3, 255368, Pitch_bend_c, 0, 8411
3, 255400, Pitch_bend_c, 0, 8571
3, 255432, Pitch_bend_c, 0, 8730
3, 255464, Pitch_bend_c, 0, 8889
3, 255496, Pitch_bend_c, 0, 9049
3, 255528, Pitch_bend_c, 0, 9208
3, 255560, Pitch_bend_c, 0, 9368
3, 255592, Pitch_bend_c, 0, 9527
3, 255600, Pitch_bend_c, 0, 9567
3, 255800, Note_off_c, 0, 75, 64
3, 255800, Pitch_bend_c, 0, 8192
3, 255800, Note_on_c, 0, 75, 102
3, 255808, Pitch_bend_c, 0, 8245
3, 255824, Pitch_bend_c, 0, 8458
3, 255840, Pitch_bend_c, 0, 8671
3, 255856, Pitch_bend_c, 0, 8884
3, 255872, Pitch_bend_c, 0, 9096
3, 255888, Pitch_bend_c, 0, 9309
3, 255904, Pitch_bend_c, 0, 9522
3, 255920, Pitch_bend_c, 0, 9735
3, 255936, Pitch_bend_c, 0, 9948
3, 255960, Pitch_bend_c, 0, 10267
3, 256080, Note_off_c, 0, 75, 64
3, 256080, Pitch_bend_c, 0, 8192
3, 256080, Note_on_c, 0, 75, 102
3, 256096, Pitch_bend_c, 0, 8238
3, 256128, Pitch_bend_c, 0, 8362
3, 256160, Pitch_bend_c, 0, 8486
3, 256200, Pitch_bend_c, 0, 8640
3, 256232, Pitch_bend_c, 0, 8764
3, 256264, Pitch_bend_c, 0, 8887
3, 256296, Pitch_bend_c, 0, 9011
3, 256328, Pitch_bend_c, 0, 9134
3, 256360, Pitch_bend_c, 0, 9258
3, 256392, Pitch_bend_c, 0, 9382
3, 256424, Pitch_bend_c, 0, 9505
3, 256440, Pitch_bend_c, 0, 9567
3, 256760, Note_off_c, 0, 75, 64
3, 256760, Note_on_c, 0, 75, 102
3, 256776, Pitch_bend_c, 0, 9507
3, 256808, Pitch_bend_c, 0, 9348
3, 256840, Pitch_bend_c, 0, 9188
3, 256872, Pitch_bend_c, 0, 9029
3, 256912, Pitch_bend_c, 0, 8830
3, 256944, Pitch_bend_c, 0, 8670
3, 256976, Pitch_bend_c, 0, 8511
3, 257008, Pitch_bend_c, 0, 8351
3, 257032, Pitch_bend_c, 0, 8232
3, 257040, Pitch_bend_c, 0, 8192
3, 257160, Pitch_bend_c, 0, 6842
3, 257240, Note_off_c, 0, 75, 64
3, 257240, Pitch_bend_c, 0, 8192
3, 257240, Note_on_c, 0, 73, 102
3, 257280, Pitch_bend_c, 0, 9567
3, 257296, Control_c, 0, 1, 5
3, 257312, Control_c, 0, 1, 12
3, 257328, Control_c, 0, 1, 19
3, 257344, Control_c, 0, 1, 26
3, 257372, Control_c, 0, 1, 38
3, 257392, Control_c, 0, 1, 47
3, 257400, Control_c, 0, 1, 50
3, 257960, Control_c, 0, 1, 0
3, 257960, Pitch_bend_c, 0, 8192
3, 257960, Note_on_c, 0, 73, 102
3, 257996, Pitch_bend_c, 0, 8256
3, 258000, Note_off_c, 0, 73, 64
3, 258028, Pitch_bend_c, 0, 8428
3, 258060, Pitch_bend_c, 0, 8600
3, 258092, Pitch_bend_c, 0, 8772
3, 258124, Pitch_bend_c, 0, 8944
3, 258160, Pitch_bend_c, 0, 9137
3, 258192, Pitch_bend_c, 0, 9309
3, 258224, Pitch_bend_c, 0, 9481
3, 258240, Pitch_bend_c, 0, 9567
3, 258480, Note_off_c, 0, 73, 64
3, 258480, Pitch_bend_c, 0, 8192
3, 258480, Note_on_c, 0, 75, 102
3, 258720, Note_off_c, 0, 75, 64
3, 258720, Note_on_c, 0, 73, 102
3, 258960, Note_off_c, 0, 73, 64
3, 258960, Note_on_c, 0, 70, 102
3, 259200, Note_off_c, 0, 70, 64
3, 259200, Pitch_bend_c, 0, 8892
3, 259200, Note_on_c, 0, 68, 102
3, 259216, Pitch_bend_c, 0, 8856
3, 259248, Pitch_bend_c, 0, 8761
3, 259280, Pitch_bend_c, 0, 8667
3, 259312, Pitch_bend_c, 0, 8572
3, 259344, Pitch_bend_c, 0, 8477
3, 259376, Pitch_bend_c, 0, 8382
3, 259408, Pitch_bend_c, 0, 8287
3, 259424, Pitch_bend_c, 0, 8239
3, 259440, Pitch_bend_c, 0, 8192
3, 259560, Pitch_bend_c, 0, 6842
3, 259680, Note_off_c, 0, 68, 64
3, 259680, Pitch_bend_c, 0, 8192
3, 259680, Note_on_c, 0, 68, 102
3, 259712, Control_c, 0, 1, 5
3, 259728, Control_c, 0, 1, 13
3, 259744, Control_c, 0, 1, 20
3, 259760, Control_c, 0, 1, 27
3, 259776, Control_c, 0, 1, 34
3, 259800, Control_c, 0, 1, 45
3, 260040, Note_off_c, 0, 68, 64
3, 260040, Control_c, 0, 1, 0
3, 260040, Note_on_c, 0, 66, 102
3, 260160, Note_off_c, 0, 66, 64
3, 260160, Note_on_c, 0, 68, 95
3, 260192, Control_c, 0, 1, 5
3, 260208, Control_c, 0, 1, 11
3, 260240, Control_c, 0, 1, 23
3, 260256, Control_c, 0, 1, 29
3, 260300, Control_c, 0, 1, 45
3, 260640, Note_off_c, 0, 68, 64
3, 260640, Control_c, 0, 1, 0
3, 260640, Note_on_c, 0, 66, 102
3, 260880, Note_off_c, 0, 66, 64
3, 260880, Note_on_c, 0, 68, 102
3, 260896, Pitch_bend_c, 0, 8262
3, 260960, Pitch_bend_c, 0, 8635
3, 260992, Pitch_bend_c, 0, 8821
3, 261024, Pitch_bend_c, 0, 9008
3, 261056, Pitch_bend_c, 0, 9194
3, 261088, Pitch_bend_c, 0, 9381
3, 261120, Pitch_bend_c, 0, 9567
3, 261360, Note_off_c, 0, 68, 64
3, 261360, Pitch_bend_c, 0, 8192
3, 261360, Note_on_c, 0, 66, 102
3, 261600, Note_off_c, 0, 66, 64
3, 261600, Note_on_c, 0, 68, 95
3, 261840, Note_off_c, 0, 68, 64
3, 261840, Note_on_c, 0, 66, 102
3, 262080, Note_off_c, 0, 66, 64
3, 262080, Note_on_c, 0, 68, 95
3, 262088, Pitch_bend_c, 0, 8223
3, 262120, Pitch_bend_c, 0, 8473
3, 262152, Pitch_bend_c, 0, 8723
3, 262184, Pitch_bend_c, 0, 8973
3, 262216, Pitch_bend_c, 0, 9223
3, 262248, Pitch_bend_c, 0, 9473
3, 262260, Pitch_bend_c, 0, 9567
3, 262440, Note_off_c, 0, 68, 64
3, 262440, Pitch_bend_c, 0, 8192
3, 262440, Note_on_c, 0, 68, 102
3, 262448, Pitch_bend_c, 0, 8239
3, 262464, Pitch_bend_c, 0, 8429
3, 262480, Pitch_bend_c, 0, 8619
3, 262496, Pitch_bend_c, 0, 8808
3, 262512, Pitch_bend_c, 0, 8998
3, 262528, Pitch_bend_c, 0, 9188
3, 262544, Pitch_bend_c, 0, 9377
3, 262560, Pitch_bend_c, 0, 9567
3, 262680, Note_off_c, 0, 68, 64
3, 262680, Pitch_bend_c, 0, 8192
3, 262680, Note_on_c, 0, 66, 102
3, 262800, Note_off_c, 0, 66, 64
3, 262800, Note_on_c, 0, 68, 102
3, 262808, Pitch_bend_c, 0, 8239
3, 262824, Pitch_bend_c, 0, 8429
3, 262840, Pitch_bend_c, 0, 8619
3, 262856, Pitch_bend_c, 0, 8808
3, 262872, Pitch_bend_c, 0, 8998
3, 262888, Pitch_bend_c, 0, 9188
3, 262904, Pitch_bend_c, 0, 9377
3, 262920, Pitch_bend_c, 0, 9567
3, 263040, Note_off_c, 0, 68, 64
3, 263040, Pitch_bend_c, 0, 8192
3, 263040, Note_on_c, 0, 78, 89
3, 263040, Note_on_c, 0, 73, 89
3, 263280, Note_off_c, 0, 73, 64
3, 263280, Note_off_c, 0, 78, 64
3, 263280, Note_on_c, 0, 68, 102
3, 263288, Pitch_bend_c, 0, 8239
3, 263304, Pitch_bend_c, 0, 8429
3, 263320, Pitch_bend_c, 0, 8619
3, 263336, Pitch_bend_c, 0, 8808
3, 263352, Pitch_bend_c, 0, 8998
3, 263368, Pitch_bend_c, 0, 9188
3, 263384, Pitch_bend_c, 0, 9377
3, 263400, Pitch_bend_c, 0, 9567
3, 263520, Note_off_c, 0, 68, 64
3, 263520, Pitch_bend_c, 0, 8192
3, 263520, Note_on_c, 0, 78, 89
3, 263520, Note_on_c, 0, 73, 89
3, 263640, Note_off_c, 0, 73, 64
3, 263640, Note_off_c, 0, 78, 64
3, 263640, Note_on_c, 0, 68, 102
3, 263648, Pitch_bend_c, 0, 8239
3, 263664, Pitch_bend_c, 0, 8429
3, 263680, Pitch_bend_c, 0, 8619
3, 263696, Pitch_bend_c, 0, 8808
3, 263712, Pitch_bend_c, 0, 8998
3, 263728, Pitch_bend_c, 0, 9188
3, 263744, Pitch_bend_c, 0, 9377
3, 263760, Pitch_bend_c, 0, 9567
3, 263880, Note_off_c, 0, 68, 64
3, 263880, Pitch_bend_c, 0, 8192
3, 263880, Note_on_c, 0, 78, 89
3, 263960, Note_off_c, 0, 78, 64
3, 263960, Note_on_c, 0, 68, 102
3, 263968, Pitch_bend_c, 0, 8249
3, 263984, Pitch_bend_c, 0, 8478
3, 264000, Pitch_bend_c, 0, 8708
3, 264016, Pitch_bend_c, 0, 8937
3, 264032, Pitch_bend_c, 0, 9166
3, 264048, Pitch_bend_c, 0, 9395
3, 264060, Pitch_bend_c, 0, 9567
3, 264068, Pitch_bend_c, 0, 9461
3, 264084, Pitch_bend_c, 0, 9038
3, 264100, Pitch_bend_c, 0, 8615
3, 264112, Pitch_bend_c, 0, 8298
3, 264120, Pitch_bend_c, 0, 8192
3, 264240, Pitch_bend_c, 0, 6842
3, 264360, Note_off_c, 0, 68, 64
3, 264360, Pitch_bend_c, 0, 8192
3, 264360, Note_on_c, 0, 63, 102
3, 264480, Note_off_c, 0, 63, 64
3, 264480, Note_on_c, 0, 68, 102
3, 264600, Pitch_bend_c, 0, 6842
3, 264720, Note_off_c, 0, 68, 64
3, 264720, Pitch_bend_c, 0, 8192
3, 264720, Note_on_c, 0, 63, 102
3, 264840, Note_off_c, 0, 63, 64
3, 264840, Note_on_c, 0, 44, 89
3, 264840, Note_on_c, 0, 49, 89
3, 264900, Note_off_c, 0, 49, 64
3, 264900, Note_off_c, 0, 44, 64
3, 264960, Note_on_c, 0, 66, 102
3, 265440, Note_off_c, 0, 66, 64
3, 265440, Note_on_c, 0, 63, 102
3, 265560, Pitch_bend_c, 0, 6842
3, 265680, Pitch_bend_c, 0, 8192
3, 265680, Note_on_c, 0, 63, 102
3, 265800, Note_off_c, 0, 63, 64
3, 266160, Note_off_c, 0, 63, 64
3, 266160, Note_on_c, 0, 49, 89
3, 266160, Note_on_c, 0, 44, 89
3, 266220, Note_off_c, 0, 44, 64
3, 266220, Note_off_c, 0, 49, 64
3, 266280, Note_on_c, 0, 49, 89
3, 266280, Note_on_c, 0, 44, 89
3, 266340, Note_off_c, 0, 44, 64
3, 266340, Note_off_c, 0, 49, 64
3, 266400, Note_on_c, 0, 66, 102
3, 266520, Pitch_bend_c, 0, 9567
3, 266640, Pitch_bend_c, 0, 8192
3, 266760, Note_off_c, 0, 66, 64
3, 266760, Note_on_c, 0, 63, 102
3, 266880, Note_off_c, 0, 63, 64
3, 266880, Note_on_c, 0, 66, 102
3, 267360, Note_off_c, 0, 66, 64
3, 267360, Note_on_c, 0, 63, 102
3, 267480, Pitch_bend_c, 0, 6842
3, 267600, Pitch_bend_c, 0, 8192
3, 267600, Note_on_c, 0, 63, 102
3, 267720, Note_off_c, 0, 63, 64
3, 268080, Note_off_c, 0, 63, 64
3, 268080, Note_on_c, 0, 49, 89
3, 268080, Note_on_c, 0, 44, 89
3, 268140, Note_off_c, 0, 44, 64
3, 268140, Note_off_c, 0, 49, 64
3, 268200, Note_on_c, 0, 49, 89
3, 268200, Note_on_c, 0, 44, 89
3, 268260, Note_off_c, 0, 44, 64
3, 268260, Note_off_c, 0, 49, 64
3, 268320, Note_on_c, 0, 66, 102
3, 268440, Pitch_bend_c, 0, 9567
3, 268560, Pitch_bend_c, 0, 8192
3, 268680, Note_off_c, 0, 66, 64
3, 268680, Note_on_c, 0, 63, 102
3, 268800, Note_off_c, 0, 63, 64
3, 268800, Note_on_c, 0, 66, 102
3, 268920, Note_off_c, 0, 66, 64
3, 268920, Note_on_c, 0, 66, 102
3, 269040, Note_off_c, 0, 66, 64
3, 269040, Note_on_c, 0, 63, 102
3, 269160, Pitch_bend_c, 0, 6842
3, 269280, Note_off_c, 0, 63, 64
3, 269280, Pitch_bend_c, 0, 8192
3, 269280, Note_on_c, 0, 68, 102
3, 269400, Note_off_c, 0, 68, 64
3, 269400, Note_on_c, 0, 68, 102
3, 269520, Pitch_bend_c, 0, 6842
3, 269640, Note_off_c, 0, 68, 64
3, 269640, Pitch_bend_c, 0, 8192
3, 269640, Note_on_c, 0, 68, 102
3, 269760, Note_off_c, 0, 68, 64
3, 269760, Note_on_c, 0, 70, 102
3, 269880, Note_off_c, 0, 70, 64
3, 269880, Note_on_c, 0, 70, 102
3, 270000, Note_off_c, 0, 70, 64
3, 270000, Note_on_c, 0, 68, 102
3, 270120, Pitch_bend_c, 0, 6842
3, 270240, Note_off_c, 0, 68, 64
3, 270240, Pitch_bend_c, 0, 8192
3, 270240, Note_on_c, 0, 73, 102
3, 270360, Note_off_c, 0, 73, 64
3, 270360, Note_on_c, 0, 73, 102
3, 270480, Pitch_bend_c, 0, 6142
3, 270600, Note_off_c, 0, 73, 64
3, 270600, Pitch_bend_c, 0, 8192
3, 270600, Note_on_c, 0, 68, 102
3, 270720, Note_off_c, 0, 68, 64
3, 270720, Note_on_c, 0, 75, 102
3, 270840, Note_off_c, 0, 75, 64
3, 270840, Note_on_c, 0, 75, 102
3, 270960, Note_off_c, 0, 75, 64
3, 270960, Note_on_c, 0, 73, 102
3, 271080, Pitch_bend_c, 0, 6142
3, 271200, Note_off_c, 0, 73, 64
3, 271200, Pitch_bend_c, 0, 8192
3, 271200, Note_on_c, 0, 78, 102
3, 271320, Note_off_c, 0, 78, 64
3, 271320, Note_on_c, 0, 78, 102
3, 271440, Pitch_bend_c, 0, 6142
3, 271680, Note_off_c, 0, 78, 64
3, 271680, Pitch_bend_c, 0, 8192
3, 271680, Note_on_c, 0, 78, 102
3, 271920, Note_off_c, 0, 78, 64
3, 271920, Note_on_c, 0, 77, 102
3, 272160, Note_off_c, 0, 77, 64
3, 272160, Note_on_c, 0, 73, 102
3, 272240, Note_off_c, 0, 73, 64
3, 272240, Note_on_c, 0, 75, 102
3, 272320, Pitch_bend_c, 0, 10267
3, 272400, Pitch_bend_c, 0, 8192
3, 272520, Note_off_c, 0, 75, 64
3, 272520, Note_on_c, 0, 73, 102
3, 272528, Pitch_bend_c, 0, 8239
3, 272544, Pitch_bend_c, 0, 8429
3, 272560, Pitch_bend_c, 0, 8619
3, 272576, Pitch_bend_c, 0, 8808
3, 272592, Pitch_bend_c, 0, 8998
3, 272608, Pitch_bend_c, 0, 9188
3, 272624, Pitch_bend_c, 0, 9377
3, 272640, Pitch_bend_c, 0, 9567
3, 272760, Note_off_c, 0, 73, 64
3, 272760, Pitch_bend_c, 0, 8192
3, 272760, Note_on_c, 0, 75, 102
3, 272880, Note_off_c, 0, 75, 64
3, 272880, Note_on_c, 0, 73, 102
3, 273000, Pitch_bend_c, 0, 6142
3, 273080, Note_off_c, 0, 73, 64
3, 273080, Pitch_bend_c, 0, 8192
3, 273080, Note_on_c, 0, 68, 102
3, 273088, Pitch_bend_c, 0, 8227
3, 273104, Pitch_bend_c, 0, 8368
3, 273120, Pitch_bend_c, 0, 8509
3, 273136, Pitch_bend_c, 0, 8650
3, 273152, Pitch_bend_c, 0, 8791
3, 273168, Pitch_bend_c, 0, 8932
3, 273184, Pitch_bend_c, 0, 9073
3, 273200, Pitch_bend_c, 0, 9214
3, 273216, Pitch_bend_c, 0, 9355
3, 273232, Pitch_bend_c, 0, 9496
3, 273240, Pitch_bend_c, 0, 9567
3, 273360, Note_off_c, 0, 68, 64
3, 273360, Pitch_bend_c, 0, 8192
3, 273360, Note_on_c, 0, 75, 102
3, 273440, Note_off_c, 0, 75, 64
3, 273440, Note_on_c, 0, 73, 102
3, 273520, Pitch_bend_c, 0, 6142
3, 273560, Note_off_c, 0, 73, 64
3, 273560, Pitch_bend_c, 0, 8192
3, 273560, Note_on_c, 0, 73, 102
3, 273568, Pitch_bend_c, 0, 8227
3, 273584, Pitch_bend_c, 0, 8368
3, 273600, Pitch_bend_c, 0, 8509
3, 273616, Pitch_bend_c, 0, 8650
3, 273632, Pitch_bend_c, 0, 8791
3, 273648, Pitch_bend_c, 0, 8932
3, 273664, Pitch_bend_c, 0, 9073
3, 273680, Pitch_bend_c, 0, 9214
3, 273696, Pitch_bend_c, 0, 9355
3, 273720, Pitch_bend_c, 0, 9567
3, 273840, Note_off_c, 0, 73, 64
3, 273840, Pitch_bend_c, 0, 8192
3, 273840, Note_on_c, 0, 75, 102
3, 273920, Note_off_c, 0, 75, 64
3, 273920, Note_on_c, 0, 73, 102
3, 274000, Pitch_bend_c, 0, 6142
3, 274040, Note_off_c, 0, 73, 64
3, 274040, Pitch_bend_c, 0, 8192
3, 274040, Note_on_c, 0, 68, 102
3, 274048, Pitch_bend_c, 0, 8227
3, 274064, Pitch_bend_c, 0, 8368
3, 274080, Pitch_bend_c, 0, 8509
3, 274096, Pitch_bend_c, 0, 8650
3, 274112, Pitch_bend_c, 0, 8791
3, 274128, Pitch_bend_c, 0, 8932
3, 274144, Pitch_bend_c, 0, 9073
3, 274160, Pitch_bend_c, 0, 9214
3, 274176, Pitch_bend_c, 0, 9355
3, 274200, Pitch_bend_c, 0, 9567
3, 274320, Note_off_c, 0, 68, 64
3, 274320, Pitch_bend_c, 0, 8192
3, 274320, Note_on_c, 0, 75, 102
3, 274400, Note_off_c, 0, 75, 64
3, 274400, Note_on_c, 0, 73, 102
3, 274480, Pitch_bend_c, 0, 6142
3, 274520, Note_off_c, 0, 73, 64
3, 274520, Note_on_c, 0, 73, 102
3, 274528, Pitch_bend_c, 0, 8227
3, 274544, Pitch_bend_c, 0, 8368
3, 274560, Pitch_bend_c, 0, 8509
3, 274576, Pitch_bend_c, 0, 8650
3, 274592, Pitch_bend_c, 0, 8791
3, 274608, Pitch_bend_c, 0, 8932
3, 274624, Pitch_bend_c, 0, 9073
3, 274640, Pitch_bend_c, 0, 9214
3, 274656, Pitch_bend_c, 0, 9355
3, 274680, Pitch_bend_c, 0, 9567
3, 274800, Note_off_c, 0, 73, 64
3, 274800, Pitch_bend_c, 0, 8192
3, 274800, Note_on_c, 0, 75, 102
3, 274880, Note_off_c, 0, 75, 64
3, 274880, Note_on_c, 0, 73, 102
3, 274960, Note_off_c, 0, 73, 64
3, 275000, Note_on_c, 0, 68, 102
3, 275008, Pitch_bend_c, 0, 8227
3, 275024, Pitch_bend_c, 0, 8368
3, 275040, Pitch_bend_c, 0, 8509
3, 275056, Pitch_bend_c, 0, 8650
3, 275072, Pitch_bend_c, 0, 8791
3, 275088, Pitch_bend_c, 0, 8932
3, 275104, Pitch_bend_c, 0, 9073
3, 275120, Pitch_bend_c, 0, 9214
3, 275136, Pitch_bend_c, 0, 9355
3, 275160, Pitch_bend_c, 0, 9567
3, 275280, Note_off_c, 0, 68, 64
3, 275280, Pitch_bend_c, 0, 8192
3, 275280, Note_on_c, 0, 75, 102
3, 275360, Note_off_c, 0, 75, 64
3, 275360, Note_on_c, 0, 73, 102
3, 275440, Pitch_bend_c, 0, 6142
3, 275480, Note_off_c, 0, 73, 64
3, 275480, Note_on_c, 0, 73, 102
3, 275488, Pitch_bend_c, 0, 8227
3, 275504, Pitch_bend_c, 0, 8368
3, 275520, Pitch_bend_c, 0, 8509
3, 275536, Pitch_bend_c, 0, 8650
3, 275552, Pitch_bend_c, 0, 8791
3, 275572, Pitch_bend_c, 0, 8968
3, 275592, Pitch_bend_c, 0, 9144
3, 275608, Pitch_bend_c, 0, 9285
3, 275624, Pitch_bend_c, 0, 9426
3, 275640, Pitch_bend_c, 0, 9567
3, 275760, Note_off_c, 0, 73, 64
3, 275760, Note_on_c, 0, 75, 102
3, 275840, Note_off_c, 0, 75, 64
3, 275840, Note_on_c, 0, 73, 102
3, 275920, Pitch_bend_c, 0, 6142
3, 275960, Note_off_c, 0, 73, 64
3, 275960, Note_on_c, 0, 68, 102
3, 275968, Pitch_bend_c, 0, 8249
3, 275984, Pitch_bend_c, 0, 8478
3, 276000, Pitch_bend_c, 0, 8708
3, 276016, Pitch_bend_c, 0, 8937
3, 276032, Pitch_bend_c, 0, 9166
3, 276052, Pitch_bend_c, 0, 9452
3, 276060, Pitch_bend_c, 0, 9567
3, 276080, Note_off_c, 0, 68, 64
3, 276080, Pitch_bend_c, 0, 8192
3, 276080, Note_on_c, 0, 70, 102
3, 276160, Note_off_c, 0, 70, 64
3, 276160, Note_on_c, 0, 75, 102
3, 276240, Note_off_c, 0, 75, 64
3, 276240, Note_on_c, 0, 73, 102
3, 276320, Pitch_bend_c, 0, 6142
3, 276400, Note_off_c, 0, 73, 64
3, 276400, Pitch_bend_c, 0, 8192
3, 276400, Note_on_c, 0, 78, 93
3, 276612, Pitch_bend_c, 0, 8261
3, 276648, Pitch_bend_c, 0, 8469
3, 276680, Pitch_bend_c, 0, 8653
3, 276712, Pitch_bend_c, 0, 8838
3, 276744, Pitch_bend_c, 0, 9022
3, 276776, Pitch_bend_c, 0, 9206
3, 276816, Pitch_bend_c, 0, 9437
3, 276844, Pitch_bend_c, 0, 9598
3, 276876, Pitch_bend_c, 0, 9783
3, 276908, Pitch_bend_c, 0, 9967
3, 276940, Pitch_bend_c, 0, 10152
3, 276960, Pitch_bend_c, 0, 10267
3, 277560, Note_off_c, 0, 78, 64
3, 277560, Pitch_bend_c, 0, 8192
3, 277560, Note_on_c, 0, 78, 102
3, 277612, Control_c, 0, 1, 7
3, 277628, Control_c, 0, 1, 16
3, 277644, Control_c, 0, 1, 25
3, 277660, Control_c, 0, 1, 34
3, 277680, Control_c, 0, 1, 45
3, 277920, Note_off_c, 0, 78, 64
3, 277920, Control_c, 0, 1, 0
3, 277920, Note_on_c, 0, 75, 102
3, 278000, Pitch_bend_c, 0, 10267
3, 278080, Pitch_bend_c, 0, 8192
3, 278160, Note_off_c, 0, 75, 64
3, 278160, Note_on_c, 0, 73, 102
3, 278280, Note_off_c, 0, 73, 64
3, 278280, Note_on_c, 0, 75, 102
3, 278360, Note_off_c, 0, 75, 64
3, 278360, Note_on_c, 0, 73, 102
3, 278368, Pitch_bend_c, 0, 8249
3, 278384, Pitch_bend_c, 0, 8478
3, 278400, Pitch_bend_c, 0, 8708
3, 278416, Pitch_bend_c, 0, 8937
3, 278432, Pitch_bend_c, 0, 9166
3, 278448, Pitch_bend_c, 0, 9395
3, 278460, Pitch_bend_c, 0, 9567
3, 278520, Note_off_c, 0, 73, 64
3, 278520, Pitch_bend_c, 0, 8192
3, 278520, Note_on_c, 0, 75, 102
3, 278640, Note_off_c, 0, 75, 64
3, 278640, Note_on_c, 0, 73, 102
3, 278760, Pitch_bend_c, 0, 6142
3, 278840, Note_off_c, 0, 73, 64
3, 278840, Pitch_bend_c, 0, 8192
3, 278840, Note_on_c, 0, 68, 102
3, 278848, Pitch_bend_c, 0, 8345
3, 278856, Pitch_bend_c, 0, 8650
3, 278864, Pitch_bend_c, 0, 8956
3, 278872, Pitch_bend_c, 0, 9261
3, 278880, Pitch_bend_c, 0, 9567
3, 278896, Pitch_bend_c, 0, 9350
3, 278912, Pitch_bend_c, 0, 9060
3, 278928, Pitch_bend_c, 0, 8771
3, 278944, Pitch_bend_c, 0, 8481
3, 278952, Pitch_bend_c, 0, 8337
3, 278960, Pitch_bend_c, 0, 8192
3, 279040, Pitch_bend_c, 0, 6842
3, 279080, Note_off_c, 0, 68, 64
3, 279080, Pitch_bend_c, 0, 8192
3, 279080, Note_on_c, 0, 68, 102
3, 279108, Pitch_bend_c, 0, 8232
3, 279124, Pitch_bend_c, 0, 8394
3, 279140, Pitch_bend_c, 0, 8556
3, 279156, Pitch_bend_c, 0, 8718
3, 279172, Pitch_bend_c, 0, 8880
3, 279188, Pitch_bend_c, 0, 9041
3, 279204, Pitch_bend_c, 0, 9203
3, 279220, Pitch_bend_c, 0, 9365
3, 279240, Pitch_bend_c, 0, 9567
3, 279480, Note_off_c, 0, 68, 64
3, 279480, Pitch_bend_c, 0, 8192
3, 279480, Note_on_c, 0, 73, 102
3, 279560, Note_off_c, 0, 73, 64
3, 279560, Note_on_c, 0, 68, 102
3, 279588, Pitch_bend_c, 0, 8264
3, 279604, Pitch_bend_c, 0, 8554
3, 279620, Pitch_bend_c, 0, 8843
3, 279636, Pitch_bend_c, 0, 9133
3, 279652, Pitch_bend_c, 0, 9422
3, 279660, Pitch_bend_c, 0, 9567
3, 279668, Pitch_bend_c, 0, 9469
3, 279676, Pitch_bend_c, 0, 9272
3, 279684, Pitch_bend_c, 0, 9076
3, 279692, Pitch_bend_c, 0, 8879
3, 279700, Pitch_bend_c, 0, 8683
3, 279708, Pitch_bend_c, 0, 8487
3, 279716, Pitch_bend_c, 0, 8290
3, 279720, Pitch_bend_c, 0, 8192
3, 279840, Pitch_bend_c, 0, 6842
3, 279960, Note_off_c, 0, 68, 64
3, 279960, Pitch_bend_c, 0, 8192
3, 279960, Note_on_c, 0, 63, 102
3, 280080, Note_off_c, 0, 63, 64
3, 280080, Note_on_c, 0, 68, 102
3, 280160, Pitch_bend_c, 0, 6842
3, 280240, Note_off_c, 0, 68, 64
3, 280240, Pitch_bend_c, 0, 8192
3, 280240, Note_on_c, 0, 63, 102
3, 280320, Note_off_c, 0, 63, 64
3, 280320, Note_on_c, 0, 66, 76
3, 280440, Control_c, 0, 11, 120
3, 280552, Control_c, 0, 11, 112
3, 280664, Control_c, 0, 11, 104
3, 280776, Control_c, 0, 11, 96
3, 280812, Pitch_bend_c, 0, 8020
3, 280844, Pitch_bend_c, 0, 7562
3, 280876, Pitch_bend_c, 0, 7103
3, 280888, Control_c, 0, 11, 88
3, 280908, Pitch_bend_c, 0, 6645
3, 280940, Pitch_bend_c, 0, 6187
3, 280972, Pitch_bend_c, 0, 5728
3, 281000, Control_c, 0, 11, 80
3, 281004, Pitch_bend_c, 0, 5270
3, 281052, Pitch_bend_c, 0, 4583
3, 281084, Pitch_bend_c, 0, 4124
3, 281116, Pitch_bend_c, 0, 3666
3, 281140, Control_c, 0, 11, 70
3, 281148, Pitch_bend_c, 0, 3208
3, 281152, Control_c, 0, 11, 69
3, 281168, Control_c, 0, 11, 68
3, 281180, Control_c, 0, 11, 67
3, 281180, Pitch_bend_c, 0, 2749
3, 281196, Control_c, 0, 11, 66
3, 281208, Control_c, 0, 11, 65
3, 281212, Pitch_bend_c, 0, 2291
3, 281224, Control_c, 0, 11, 64
3, 281236, Control_c, 0, 11, 63
3, 281244, Pitch_bend_c, 0, 1833
3, 281252, Control_c, 0, 11, 62
3, 281264, Control_c, 0, 11, 61
3, 281276, Pitch_bend_c, 0, 1374
3, 281280, Note_off_c, 0, 66, 64
3, 281280, Control_c, 0, 11, 60
3, 281280, Pitch_bend_c, 0, 1317
3, 282240, Pitch_bend_c, 0, 8192
3, 282240, Control_c, 0, 11, 127
3, 284400, Pitch_bend_c, 0, 8192
3, 284400, Note_on_c, 0, 58, 51
3, 284400, Note_on_c, 0, 54, 51
3, 284400, Note_on_c, 0, 49, 51
3, 284440, Note_off_c, 0, 49, 64
3, 284440, Note_off_c, 0, 54, 64
3, 284440, Note_off_c, 0, 58, 64
3, 284520, Note_on_c, 0, 58, 51
3, 284520, Note_on_c, 0, 54, 51
3, 284520, Note_on_c, 0, 49, 51
3, 284560, Note_off_c, 0, 49, 64
3, 284560, Note_off_c, 0, 54, 64
3, 284560, Note_off_c, 0, 58, 64
3, 284640, Note_on_c, 0, 58, 76
3, 284640, Note_on_c, 0, 54, 76
3, 284640, Note_on_c, 0, 49, 76
3, 284680, Note_off_c, 0, 49, 64
3, 284680, Note_off_c, 0, 54, 64
3, 284680, Note_off_c, 0, 58, 64
3, 284760, Note_on_c, 0, 58, 76
3, 284760, Note_on_c, 0, 54, 76
3, 284760, Note_on_c, 0, 49, 76
3, 284800, Note_off_c, 0, 49, 64
3, 284800, Note_off_c, 0, 54, 64
3, 284800, Note_off_c, 0, 58, 64
3, 284880, Note_on_c, 0, 58, 76
3, 284880, Note_on_c, 0, 54, 76
3, 284880, Note_on_c, 0, 49, 76
3, 284920, Note_off_c, 0, 49, 64
3, 284920, Note_off_c, 0, 54, 64
3, 284920, Note_off_c, 0, 58, 64
3, 287760, Note_on_c, 0, 61, 76
3, 287760, Note_on_c, 0, 56, 76
3, 287760, Note_on_c, 0, 49, 76
3, 287820, Note_off_c, 0, 49, 64
3, 287820, Note_off_c, 0, 56, 64
3, 287820, Note_off_c, 0, 61, 64
3, 287880, Note_on_c, 0, 61, 76
3, 287880, Note_on_c, 0, 56, 76
3, 287880, Note_on_c, 0, 49, 76
3, 287940, Note_off_c, 0, 49, 64
3, 287940, Note_off_c, 0, 56, 64
3, 287940, Note_off_c, 0, 61, 64
3, 287976, Note_on_c, 0, 61, 102
3, 288000, Pitch_bend_c, 0, 9567
3, 288716, Note_off_c, 0, 61, 64
3, 288720, Pitch_bend_c, 0, 8192
3, 288720, Note_on_c, 0, 65, 32
3, 289920, Note_off_c, 0, 65, 64
3, 291120, Note_on_c, 0, 61, 83
3, 291120, Note_on_c, 0, 56, 83
3, 291120, Note_on_c, 0, 49, 83
3, 291180, Note_off_c, 0, 49, 64
3, 291180, Note_off_c, 0, 56, 64
3, 291180, Note_off_c, 0, 61, 64
3, 291360, Note_on_c, 0, 49, 64
3, 291360, Note_on_c, 0, 56, 64
3, 291360, Note_on_c, 0, 61, 64
3, 291420, Note_off_c, 0, 61, 64
3, 291420, Note_off_c, 0, 56, 64
3, 291420, Note_off_c, 0, 49, 64
3, 291600, Note_on_c, 0, 61, 83
3, 291600, Note_on_c, 0, 56, 83
3, 291600, Note_on_c, 0, 49, 83
3, 291660, Note_off_c, 0, 49, 64
3, 291660, Note_off_c, 0, 56, 64
3, 291660, Note_off_c, 0, 61, 64
3, 295320, Note_on_c, 0, 61, 76
3, 295320, Note_on_c, 0, 56, 76
3, 295320, Note_on_c, 0, 49, 76
3, 295380, Note_off_c, 0, 49, 64
3, 295380, Note_off_c, 0, 56, 64
3, 295380, Note_off_c, 0, 61, 64
3, 295440, Note_on_c, 0, 56, 76
3, 295440, Note_on_c, 0, 61, 76
3, 295440, Note_on_c, 0, 49, 76
3, 295500, Note_off_c, 0, 49, 64
3, 295500, Note_off_c, 0, 61, 64
3, 295500, Note_off_c, 0, 56, 64
3, 295560, Note_on_c, 0, 56, 76
3, 295560, Note_on_c, 0, 61, 76
3, 295560, Note_on_c, 0, 49, 76
3, 295620, Note_off_c, 0, 49, 64
3, 295620, Note_off_c, 0, 61, 64
3, 295620, Note_off_c, 0, 56, 64
3, 295680, Note_on_c, 0, 56, 102
3, 295800, Pitch_bend_c, 0, 6842
3, 295920, Note_off_c, 0, 56, 64
3, 297360, Pitch_bend_c, 0, 8192
3, 297360, Note_on_c, 0, 61, 83
3, 297360, Note_on_c, 0, 56, 83
3, 297360, Note_on_c, 0, 49, 83
3, 297420, Note_off_c, 0, 49, 64
3, 297420, Note_off_c, 0, 56, 64
3, 297420, Note_off_c, 0, 61, 64
3, 297480, Note_on_c, 0, 61, 83
3, 297480, Note_on_c, 0, 56, 83
3, 297480, Note_on_c, 0, 49, 83
3, 297540, Note_off_c, 0, 49, 64
3, 297540, Note_off_c, 0, 56, 64
3, 297540, Note_off_c, 0, 61, 64
3, 297600, Note_on_c, 0, 56, 102
3, 297720, Pitch_bend_c, 0, 6842
3, 297840, Note_off_c, 0, 56, 64
3, 297840, Pitch_bend_c, 0, 8192
3, 297840, Note_on_c, 0, 51, 102
3, 297960, Pitch_bend_c, 0, 6842
3, 298080, Note_off_c, 0, 51, 64
3, 298080, Pitch_bend_c, 0, 8192
3, 298080, Note_on_c, 0, 46, 102
3, 298200, Pitch_bend_c, 0, 6842
3, 298320, Pitch_bend_c, 0, 5467
3, 298560, Note_off_c, 0, 46, 64
3, 301200, Control_c, 0, 11, 95
3, 301200, Pitch_bend_c, 0, 8192
3, 301200, Note_on_c, 0, 61, 121
3, 301320, Pitch_bend_c, 0, 9567
3, 301440, Pitch_bend_c, 0, 8192
3, 301520, Pitch_bend_c, 0, 9567
3, 301600, Pitch_bend_c, 0, 8192
3, 301680, Pitch_bend_c, 0, 9567
3, 301760, Pitch_bend_c, 0, 8192
3, 301804, Control_c, 0, 11, 98
3, 301840, Pitch_bend_c, 0, 9567
3, 301896, Control_c, 0, 11, 104
3, 301920, Pitch_bend_c, 0, 8192
3, 301956, Control_c, 0, 11, 108
3, 302000, Pitch_bend_c, 0, 9567
3, 302016, Control_c, 0, 11, 112
3, 302080, Pitch_bend_c, 0, 8192
3, 302104, Control_c, 0, 11, 118
3, 302160, Pitch_bend_c, 0, 9567
3, 302196, Control_c, 0, 11, 124
3, 302224, Control_c, 0, 11, 126
3, 302240, Control_c, 0, 11, 127
3, 302240, Pitch_bend_c, 0, 8192
3, 302288, Control_c, 0, 11, 124
3, 302320, Pitch_bend_c, 0, 9567
3, 302348, Control_c, 0, 11, 120
3, 302400, Pitch_bend_c, 0, 8192
3, 302408, Control_c, 0, 11, 116
3, 302468, Control_c, 0, 11, 112
3, 302480, Pitch_bend_c, 0, 9567
3, 302528, Control_c, 0, 11, 108
3, 302560, Pitch_bend_c, 0, 8192
3, 302588, Control_c, 0, 11, 104
3, 302640, Pitch_bend_c, 0, 9567
3, 302644, Control_c, 0, 11, 100
3, 302720, Pitch_bend_c, 0, 8192
3, 302764, Control_c, 0, 11, 97
3, 302800, Pitch_bend_c, 0, 9567
3, 302844, Control_c, 0, 11, 101
3, 302880, Pitch_bend_c, 0, 8192
3, 302920, Control_c, 0, 11, 105
3, 302960, Control_c, 0, 11, 107
3, 302960, Pitch_bend_c, 0, 9567
3, 303040, Control_c, 0, 11, 111
3, 303040, Pitch_bend_c, 0, 8192
3, 303120, Control_c, 0, 11, 115
3, 303120, Pitch_bend_c, 0, 9567
3, 303200, Control_c, 0, 11, 119
3, 303200, Pitch_bend_c, 0, 8192
3, 303276, Control_c, 0, 11, 123
3, 303280, Pitch_bend_c, 0, 9567
3, 303356, Control_c, 0, 11, 127
3, 303360, Note_off_c, 0, 61, 64
3, 303360, Pitch_bend_c, 0, 8192
3, 303360, Note_on_c, 0, 66, 76
3, 303840, Note_off_c, 0, 66, 64
3, 303840, Note_on_c, 0, 63, 64
3, 303856, Pitch_bend_c, 0, 8053
3, 303888, Pitch_bend_c, 0, 7684
3, 303920, Pitch_bend_c, 0, 7314
3, 303952, Pitch_bend_c, 0, 6945
3, 303984, Pitch_bend_c, 0, 6575
3, 304016, Pitch_bend_c, 0, 6206
3, 304048, Pitch_bend_c, 0, 5836
3, 304080, Note_off_c, 0, 63, 64
3, 304080, Pitch_bend_c, 0, 5467
3, 307200, Pitch_bend_c, 0, 9567
3, 307200, Note_on_c, 0, 73, 102
3, 307232, Pitch_bend_c, 0, 9404
3, 307264, Pitch_bend_c, 0, 9217
3, 307304, Pitch_bend_c, 0, 8984
3, 307340, Pitch_bend_c, 0, 8775
3, 307372, Pitch_bend_c, 0, 8588
3, 307404, Pitch_bend_c, 0, 8402
3, 307436, Pitch_bend_c, 0, 8215
3, 307440, Pitch_bend_c, 0, 8192
3, 307680, Note_off_c, 0, 73, 64
3, 307680, Note_on_c, 0, 70, 102
3, 307920, Note_off_c, 0, 70, 64
3, 307920, Note_on_c, 0, 68, 102
3, 308400, Note_off_c, 0, 68, 64
3, 308400, Note_on_c, 0, 66, 102
3, 308640, Note_off_c, 0, 66, 64
3, 308880, Note_on_c, 0, 66, 102
3, 309120, Note_off_c, 0, 66, 64
3, 309120, Note_on_c, 0, 72, 83
3, 309360, Note_off_c, 0, 72, 64
3, 309360, Note_on_c, 0, 75, 95
3, 309600, Note_off_c, 0, 75, 64
3, 310080, Note_on_c, 0, 72, 83
3, 310320, Note_off_c, 0, 72, 64
3, 310320, Note_on_c, 0, 75, 102
3, 310560, Note_off_c, 0, 75, 64
3, 310560, Note_on_c, 0, 75, 102
3, 310760, Note_off_c, 0, 75, 64
3, 310760, Note_on_c, 0, 85, 95
3, 310812, Pitch_bend_c, 0, 8261
3, 310844, Pitch_bend_c, 0, 8444
3, 310876, Pitch_bend_c, 0, 8627
3, 310916, Pitch_bend_c, 0, 8857
3, 310948, Pitch_bend_c, 0, 9040
3, 310984, Pitch_bend_c, 0, 9246
3, 311028, Pitch_bend_c, 0, 9498
3, 311040, Note_off_c, 0, 85, 64
3, 311040, Pitch_bend_c, 0, 9567
3, 311040, Note_on_c, 0, 85, 97
3, 312000, Note_off_c, 0, 85, 64
3, 312000, Note_on_c, 0, 85, 97
3, 312320, Note_off_c, 0, 85, 64
3, 312320, Note_on_c, 0, 85, 97
3, 312640, Note_off_c, 0, 85, 64
3, 312640, Note_on_c, 0, 85, 97
3, 312960, Note_off_c, 0, 85, 64
3, 312960, Note_on_c, 0, 85, 97
3, 313600, Note_off_c, 0, 85, 64
3, 313600, Note_on_c, 0, 85, 97
3, 313796, Control_c, 0, 1, 7
3, 313840, Control_c, 0, 1, 15
3, 313884, Control_c, 0, 1, 23
3, 313924, Control_c, 0, 1, 31
3, 313968, Control_c, 0, 1, 39
3, 314000, Control_c, 0, 1, 45
3, 314880, Note_off_c, 0, 85, 64
3, 314880, Pitch_bend_c, 0, 8192
3, 314880, Control_c, 0, 1, 0
3, 314880, Note_on_c, 0, 75, 85
3, 315160, Note_off_c, 0, 75, 64
3, 315160, Pitch_bend_c, 0, 9567
3, 315160, Note_on_c, 0, 80, 97
3, 315192, Pitch_bend_c, 0, 9459
3, 315224, Pitch_bend_c, 0, 9335
3, 315260, Pitch_bend_c, 0, 9196
3, 315292, Pitch_bend_c, 0, 9073
3, 315328, Pitch_bend_c, 0, 8934
3, 315368, Pitch_bend_c, 0, 8779
3, 315404, Pitch_bend_c, 0, 8640
3, 315436, Pitch_bend_c, 0, 8516
3, 315468, Pitch_bend_c, 0, 8393
3, 315500, Pitch_bend_c, 0, 8269
3, 315520, Pitch_bend_c, 0, 8192
3, 315720, Note_off_c, 0, 80, 64
3, 315800, Pitch_bend_c, 0, 9567
3, 315800, Note_on_c, 0, 80, 97
3, 315832, Pitch_bend_c, 0, 9459
3, 315868, Pitch_bend_c, 0, 9320
3, 315900, Pitch_bend_c, 0, 9196
3, 315936, Pitch_bend_c, 0, 9057
3, 315972, Pitch_bend_c, 0, 8918
3, 316008, Pitch_bend_c, 0, 8779
3, 316048, Pitch_bend_c, 0, 8625
3, 316084, Pitch_bend_c, 0, 8486
3, 316124, Pitch_bend_c, 0, 8331
3, 316160, Pitch_bend_c, 0, 8192
3, 316360, Note_off_c, 0, 80, 64
3, 316440, Pitch_bend_c, 0, 9567
3, 316440, Note_on_c, 0, 80, 97
3, 316680, Note_off_c, 0, 80, 64
3, 316760, Control_c, 0, 11, 80
3, 316760, Pitch_bend_c, 0, 8192
3, 316760, Note_on_c, 0, 80, 121
3, 316776, Pitch_bend_c, 0, 8298
3, 316792, Pitch_bend_c, 0, 8439
3, 316808, Pitch_bend_c, 0, 8580
3, 316824, Pitch_bend_c, 0, 8721
3, 316840, Pitch_bend_c, 0, 8862
3, 316856, Pitch_bend_c, 0, 9003
3, 316872, Pitch_bend_c, 0, 9144
3, 316888, Pitch_bend_c, 0, 9285
3, 316904, Pitch_bend_c, 0, 9426
3, 316920, Pitch_bend_c, 0, 9567
3, 316952, Pitch_bend_c, 0, 9471
3, 316984, Pitch_bend_c, 0, 9360
3, 317016, Pitch_bend_c, 0, 9250
3, 317048, Pitch_bend_c, 0, 9140
3, 317080, Pitch_bend_c, 0, 9030
3, 317112, Pitch_bend_c, 0, 8920
3, 317120, Control_c, 0, 11, 80
3, 317120, Pitch_bend_c, 0, 8892
3, 317184, Pitch_bend_c, 0, 8956
3, 317228, Control_c, 0, 11, 88
3, 317248, Pitch_bend_c, 0, 9024
3, 317312, Control_c, 0, 11, 94
3, 317312, Pitch_bend_c, 0, 9092
3, 317376, Pitch_bend_c, 0, 9159
3, 317420, Control_c, 0, 11, 102
3, 317440, Pitch_bend_c, 0, 9227
3, 317504, Pitch_bend_c, 0, 9295
3, 317528, Control_c, 0, 11, 110
3, 317568, Pitch_bend_c, 0, 9363
3, 317632, Pitch_bend_c, 0, 9431
3, 317636, Control_c, 0, 11, 118
3, 317696, Pitch_bend_c, 0, 9499
3, 317760, Control_c, 0, 11, 127
3, 317760, Pitch_bend_c, 0, 9567
3, 317764, Pitch_bend_c, 0, 9567
3, 317768, Pitch_bend_c, 0, 9544
3, 317772, Pitch_bend_c, 0, 9520
3, 317776, Pitch_bend_c, 0, 9497
3, 317780, Pitch_bend_c, 0, 9474
3, 317784, Pitch_bend_c, 0, 9450
3, 317788, Pitch_bend_c, 0, 9427
3, 317792, Pitch_bend_c, 0, 9404
3, 317796, Pitch_bend_c, 0, 9381
3, 317800, Pitch_bend_c, 0, 9357
3, 317804, Pitch_bend_c, 0, 9334
3, 317808, Pitch_bend_c, 0, 9311
3, 317812, Pitch_bend_c, 0, 9287
3, 317816, Pitch_bend_c, 0, 9264
3, 317820, Pitch_bend_c, 0, 9241
3, 317824, Pitch_bend_c, 0, 9217
3, 317828, Pitch_bend_c, 0, 9194
3, 317832, Pitch_bend_c, 0, 9171
3, 317836, Pitch_bend_c, 0, 9148
3, 317840, Pitch_bend_c, 0, 9124
3, 317844, Pitch_bend_c, 0, 9101
3, 317848, Pitch_bend_c, 0, 9078
3, 317852, Pitch_bend_c, 0, 9054
3, 317856, Pitch_bend_c, 0, 9031
3, 317860, Pitch_bend_c, 0, 9008
3, 317864, Pitch_bend_c, 0, 8984
3, 317868, Pitch_bend_c, 0, 8961
3, 317872, Pitch_bend_c, 0, 8938
3, 317876, Pitch_bend_c, 0, 8914
3, 317880, Pitch_bend_c, 0, 8891
3, 317884, Pitch_bend_c, 0, 8868
3, 317888, Pitch_bend_c, 0, 8845
3, 317892, Pitch_bend_c, 0, 8821
3, 317896, Pitch_bend_c, 0, 8798
3, 317900, Pitch_bend_c, 0, 8775
3, 317904, Pitch_bend_c, 0, 8751
3, 317908, Pitch_bend_c, 0, 8728
3, 317912, Pitch_bend_c, 0, 8705
3, 317916, Pitch_bend_c, 0, 8681
3, 317920, Pitch_bend_c, 0, 8658
3, 317924, Pitch_bend_c, 0, 8635
3, 317928, Pitch_bend_c, 0, 8611
3, 317932, Pitch_bend_c, 0, 8588
3, 317936, Pitch_bend_c, 0, 8565
3, 317940, Pitch_bend_c, 0, 8542
3, 317944, Pitch_bend_c, 0, 8518
3, 317948, Pitch_bend_c, 0, 8495
3, 317952, Pitch_bend_c, 0, 8472
3, 317956, Pitch_bend_c, 0, 8448
3, 317960, Pitch_bend_c, 0, 8425
3, 317964, Pitch_bend_c, 0, 8402
3, 317968, Pitch_bend_c, 0, 8378
3, 317972, Pitch_bend_c, 0, 8355
3, 317976, Pitch_bend_c, 0, 8332
3, 317980, Pitch_bend_c, 0, 8309
3, 317984, Pitch_bend_c, 0, 8285
3, 317988, Pitch_bend_c, 0, 8262
3, 317992, Pitch_bend_c, 0, 8239
3, 317996, Pitch_bend_c, 0, 8215
3, 318000, Pitch_bend_c, 0, 8192
3, 318120, Pitch_bend_c, 0, 6842
3, 318240, Note_off_c, 0, 80, 64
3, 318240, Pitch_bend_c, 0, 8192
3, 318240, Note_on_c, 0, 75, 79
3, 318480, Note_off_c, 0, 75, 64
3, 318480, Note_on_c, 0, 75, 97
3, 318496, Control_c, 0, 1, 10
3, 318512, Control_c, 0, 1, 23
3, 318528, Control_c, 0, 1, 35
3, 318540, Control_c, 0, 1, 45
3, 318724, Control_c, 0, 1, 0
3, 318724, Pitch_bend_c, 0, 8101
3, 318740, Pitch_bend_c, 0, 7738
3, 318756, Pitch_bend_c, 0, 7374
3, 318772, Pitch_bend_c, 0, 7011
3, 318788, Pitch_bend_c, 0, 6648
3, 318804, Pitch_bend_c, 0, 6284
3, 318820, Pitch_bend_c, 0, 5921
3, 318840, Note_off_c, 0, 75, 64
3, 318840, Pitch_bend_c, 0, 5467
3, 319200, Pitch_bend_c, 0, 8192
3, 319200, Note_on_c, 0, 73, 97
3, 319232, Pitch_bend_c, 0, 8229
3, 319292, Pitch_bend_c, 0, 8309
3, 319356, Pitch_bend_c, 0, 8394
3, 319420, Pitch_bend_c, 0, 8479
3, 319484, Pitch_bend_c, 0, 8564
3, 319548, Pitch_bend_c, 0, 8649
3, 319612, Pitch_bend_c, 0, 8734
3, 319676, Pitch_bend_c, 0, 8818
3, 319740, Pitch_bend_c, 0, 8903
3, 319804, Pitch_bend_c, 0, 8988
3, 319868, Pitch_bend_c, 0, 9073
3, 319932, Pitch_bend_c, 0, 9158
3, 319996, Pitch_bend_c, 0, 9243
3, 320060, Pitch_bend_c, 0, 9328
3, 320124, Pitch_bend_c, 0, 9413
3, 320188, Pitch_bend_c, 0, 9498
3, 320240, Pitch_bend_c, 0, 9567
3, 320400, Note_off_c, 0, 73, 64
3, 320400, Pitch_bend_c, 0, 8192
3, 320400, Note_on_c, 0, 73, 97
3, 320560, Pitch_bend_c, 0, 6142
3, 320640, Note_off_c, 0, 73, 64
3, 320640, Pitch_bend_c, 0, 8192
3, 320640, Note_on_c, 0, 73, 97
3, 320736, Pitch_bend_c, 0, 6142
3, 320832, Pitch_bend_c, 0, 7517
3, 320928, Pitch_bend_c, 0, 6142
3, 321024, Note_off_c, 0, 73, 64
3, 321024, Pitch_bend_c, 0, 8192
3, 321024, Note_on_c, 0, 75, 97
3, 321120, Note_off_c, 0, 75, 64
3, 321120, Note_on_c, 0, 73, 97
3, 321216, Pitch_bend_c, 0, 6142
3, 321312, Note_off_c, 0, 73, 64
3, 321312, Pitch_bend_c, 0, 8192
3, 321312, Note_on_c, 0, 73, 97
3, 321408, Note_off_c, 0, 73, 64
3, 321408, Note_on_c, 0, 73, 97
3, 321504, Pitch_bend_c, 0, 6142
3, 321600, Note_off_c, 0, 73, 64
3, 321600, Pitch_bend_c, 0, 8192
3, 321600, Note_on_c, 0, 68, 97
3, 321696, Note_off_c, 0, 68, 64
3, 321696, Note_on_c, 0, 75, 97
3, 321792, Note_off_c, 0, 75, 64
3, 321792, Note_on_c, 0, 73, 97
3, 321888, Pitch_bend_c, 0, 6142
3, 321984, Note_off_c, 0, 73, 64
3, 321984, Pitch_bend_c, 0, 8192
3, 321984, Note_on_c, 0, 68, 97
3, 322080, Note_off_c, 0, 68, 64
3, 322080, Note_on_c, 0, 75, 97
3, 322176, Note_off_c, 0, 75, 64
3, 322176, Note_on_c, 0, 73, 97
3, 322272, Pitch_bend_c, 0, 6142
3, 322368, Note_off_c, 0, 73, 64
3, 322368, Pitch_bend_c, 0, 8192
3, 322368, Note_on_c, 0, 68, 97
3, 322464, Note_off_c, 0, 68, 64
3, 322464, Note_on_c, 0, 75, 97
3, 322560, Note_off_c, 0, 75, 64
3, 322560, Note_on_c, 0, 73, 97
3, 322656, Pitch_bend_c, 0, 6142
3, 322752, Note_off_c, 0, 73, 64
3, 322752, Pitch_bend_c, 0, 8192
3, 322752, Note_on_c, 0, 68, 97
3, 322848, Note_off_c, 0, 68, 64
3, 322848, Note_on_c, 0, 75, 97
3, 322944, Note_off_c, 0, 75, 64
3, 322944, Note_on_c, 0, 73, 97
3, 323040, Pitch_bend_c, 0, 6142
3, 323136, Note_off_c, 0, 73, 64
3, 323136, Pitch_bend_c, 0, 8192
3, 323136, Note_on_c, 0, 68, 97
3, 323232, Note_off_c, 0, 68, 64
3, 323232, Note_on_c, 0, 75, 97
3, 323328, Note_off_c, 0, 75, 64
3, 323328, Note_on_c, 0, 73, 97
3, 323424, Pitch_bend_c, 0, 6142
3, 323520, Note_off_c, 0, 73, 64
3, 323520, Pitch_bend_c, 0, 8192
3, 323520, Note_on_c, 0, 68, 97
3, 323616, Note_off_c, 0, 68, 64
3, 323616, Note_on_c, 0, 75, 97
3, 323712, Note_off_c, 0, 75, 64
3, 323712, Note_on_c, 0, 73, 97
3, 323808, Pitch_bend_c, 0, 6142
3, 323904, Note_off_c, 0, 73, 64
3, 323904, Pitch_bend_c, 0, 8192
3, 323904, Note_on_c, 0, 68, 97
3, 324000, Note_off_c, 0, 68, 64
3, 324000, Note_on_c, 0, 75, 97
3, 324096, Note_off_c, 0, 75, 64
3, 324096, Note_on_c, 0, 73, 97
3, 324192, Pitch_bend_c, 0, 6142
3, 324248, Note_off_c, 0, 73, 64
3, 324248, Pitch_bend_c, 0, 8192
3, 324248, Note_on_c, 0, 68, 97
3, 324256, Pitch_bend_c, 0, 8243
3, 324272, Pitch_bend_c, 0, 8447
3, 324288, Pitch_bend_c, 0, 8650
3, 324304, Pitch_bend_c, 0, 8854
3, 324320, Pitch_bend_c, 0, 9058
3, 324336, Pitch_bend_c, 0, 9261
3, 324352, Pitch_bend_c, 0, 9465
3, 324360, Pitch_bend_c, 0, 9567
3, 324372, Pitch_bend_c, 0, 9472
3, 324388, Pitch_bend_c, 0, 9283
3, 324404, Pitch_bend_c, 0, 9093
3, 324420, Pitch_bend_c, 0, 8903
3, 324436, Pitch_bend_c, 0, 8714
3, 324452, Pitch_bend_c, 0, 8524
3, 324468, Pitch_bend_c, 0, 8334
3, 324480, Pitch_bend_c, 0, 8192
3, 324600, Pitch_bend_c, 0, 6842
3, 324672, Note_off_c, 0, 68, 64
3, 324680, Pitch_bend_c, 0, 8192
3, 324680, Note_on_c, 0, 73, 103
3, 324688, Pitch_bend_c, 0, 8227
3, 324716, Pitch_bend_c, 0, 8474
3, 324748, Pitch_bend_c, 0, 8756
3, 324780, Pitch_bend_c, 0, 9038
3, 324812, Pitch_bend_c, 0, 9320
3, 324840, Pitch_bend_c, 0, 9567
3, 324964, Pitch_bend_c, 0, 9521
3, 324980, Pitch_bend_c, 0, 9338
3, 324996, Pitch_bend_c, 0, 9154
3, 325012, Pitch_bend_c, 0, 8971
3, 325028, Pitch_bend_c, 0, 8788
3, 325044, Pitch_bend_c, 0, 8604
3, 325060, Pitch_bend_c, 0, 8421
3, 325076, Pitch_bend_c, 0, 8238
3, 325080, Pitch_bend_c, 0, 8192
3, 325088, Pitch_bend_c, 0, 8239
3, 325104, Pitch_bend_c, 0, 8429
3, 325120, Pitch_bend_c, 0, 8619
3, 325136, Pitch_bend_c, 0, 8808
3, 325152, Pitch_bend_c, 0, 8998
3, 325168, Pitch_bend_c, 0, 9188
3, 325184, Pitch_bend_c, 0, 9377
3, 325200, Pitch_bend_c, 0, 9567
3, 325208, Pitch_bend_c, 0, 9520
3, 325224, Pitch_bend_c, 0, 9330
3, 325240, Pitch_bend_c, 0, 9140
3, 325256, Pitch_bend_c, 0, 8951
3, 325272, Pitch_bend_c, 0, 8761
3, 325288, Pitch_bend_c, 0, 8571
3, 325304, Pitch_bend_c, 0, 8382
3, 325312, Pitch_bend_c, 0, 8287
3, 325320, Pitch_bend_c, 0, 8192
3, 325328, Pitch_bend_c, 0, 8239
3, 325344, Pitch_bend_c, 0, 8429
3, 325360, Pitch_bend_c, 0, 8619
3, 325376, Pitch_bend_c, 0, 8808
3, 325392, Pitch_bend_c, 0, 8998
3, 325408, Pitch_bend_c, 0, 9188
3, 325424, Pitch_bend_c, 0, 9377
3, 325440, Pitch_bend_c, 0, 9567
3, 325680, Note_off_c, 0, 73, 64
3, 325800, Pitch_bend_c, 0, 8192
3, 325800, Note_on_c, 0, 73, 97
3, 325920, Pitch_bend_c, 0, 6142
3, 326000, Note_off_c, 0, 73, 64
3, 326000, Note_on_c, 0, 68, 97
3, 326008, Pitch_bend_c, 0, 8227
3, 326024, Pitch_bend_c, 0, 8368
3, 326040, Pitch_bend_c, 0, 8509
3, 326056, Pitch_bend_c, 0, 8650
3, 326072, Pitch_bend_c, 0, 8791
3, 326088, Pitch_bend_c, 0, 8932
3, 326104, Pitch_bend_c, 0, 9073
3, 326120, Pitch_bend_c, 0, 9214
3, 326136, Pitch_bend_c, 0, 9355
3, 326160, Pitch_bend_c, 0, 9567
3, 326280, Note_off_c, 0, 68, 64
3, 326280, Pitch_bend_c, 0, 8192
3, 326280, Note_on_c, 0, 68, 97
3, 326460, Pitch_bend_c, 0, 8249
3, 326524, Pitch_bend_c, 0, 8310
3, 326588, Pitch_bend_c, 0, 8372
3, 326656, Pitch_bend_c, 0, 8436
3, 326720, Pitch_bend_c, 0, 8498
3, 326788, Pitch_bend_c, 0, 8562
3, 326852, Pitch_bend_c, 0, 8624
3, 326916, Pitch_bend_c, 0, 8685
3, 326980, Pitch_bend_c, 0, 8746
3, 327044, Pitch_bend_c, 0, 8807
3, 327108, Pitch_bend_c, 0, 8868
3, 327172, Pitch_bend_c, 0, 8929
3, 327236, Pitch_bend_c, 0, 8990
3, 327300, Pitch_bend_c, 0, 9051
3, 327364, Pitch_bend_c, 0, 9112
3, 327428, Pitch_bend_c, 0, 9174
3, 327492, Pitch_bend_c, 0, 9235
3, 327556, Pitch_bend_c, 0, 9296
3, 327620, Pitch_bend_c, 0, 9357
3, 327684, Pitch_bend_c, 0, 9418
3, 327748, Pitch_bend_c, 0, 9479
3, 327812, Pitch_bend_c, 0, 9540
3, 327840, Pitch_bend_c, 0, 9567
3, 327920, Note_on_c, 0, 73, 97
3, 327960, Note_off_c, 0, 68, 64
3, 327960, Pitch_bend_c, 0, 8192
3, 328040, Note_off_c, 0, 73, 64
3, 328040, Note_on_c, 0, 68, 97
3, 328048, Pitch_bend_c, 0, 8345
3, 328056, Pitch_bend_c, 0, 8650
3, 328064, Pitch_bend_c, 0, 8956
3, 328072, Pitch_bend_c, 0, 9261
3, 328080, Pitch_bend_c, 0, 9567
3, 328088, Pitch_bend_c, 0, 9495
3, 328104, Pitch_bend_c, 0, 9205
3, 328120, Pitch_bend_c, 0, 8916
3, 328136, Pitch_bend_c, 0, 8626
3, 328152, Pitch_bend_c, 0, 8337
3, 328160, Pitch_bend_c, 0, 8192
3, 328240, Pitch_bend_c, 0, 6842
3, 328320, Note_off_c, 0, 68, 64
3, 328320, Pitch_bend_c, 0, 8192
3, 328320, Note_on_c, 0, 68, 97
3, 328372, Control_c, 0, 1, 7
3, 328388, Control_c, 0, 1, 16
3, 328404, Control_c, 0, 1, 25
3, 328420, Control_c, 0, 1, 34
3, 328440, Control_c, 0, 1, 45
3, 328640, Note_off_c, 0, 68, 64
3, 328640, Control_c, 0, 1, 0
3, 328640, Note_on_c, 0, 68, 97
3, 328644, Pitch_bend_c, 0, 8192
3, 328648, Pitch_bend_c, 0, 8345
3, 328656, Pitch_bend_c, 0, 8650
3, 328664, Pitch_bend_c, 0, 8956
3, 328672, Pitch_bend_c, 0, 9261
3, 328680, Pitch_bend_c, 0, 9567
3, 328696, Pitch_bend_c, 0, 9425
3, 328712, Pitch_bend_c, 0, 9235
3, 328728, Pitch_bend_c, 0, 9045
3, 328744, Pitch_bend_c, 0, 8856
3, 328760, Pitch_bend_c, 0, 8666
3, 328776, Pitch_bend_c, 0, 8476
3, 328796, Pitch_bend_c, 0, 8239
3, 328800, Pitch_bend_c, 0, 8192
3, 329040, Pitch_bend_c, 0, 6842
3, 329280, Note_off_c, 0, 68, 64
3, 329280, Pitch_bend_c, 0, 8192
3, 329280, Note_on_c, 0, 68, 85
3, 329440, Note_off_c, 0, 68, 64
3, 329440, Note_on_c, 0, 68, 85
3, 329600, Note_off_c, 0, 68, 64
3, 329600, Note_on_c, 0, 66, 85
3, 329760, Note_off_c, 0, 66, 64
3, 329760, Note_on_c, 0, 63, 90
3, 330000, Note_off_c, 0, 63, 64
3, 330000, Note_on_c, 0, 61, 90
3, 330240, Note_off_c, 0, 61, 64
3, 330240, Note_on_c, 0, 73, 97
3, 330256, Pitch_bend_c, 0, 8262
3, 330288, Pitch_bend_c, 0, 8448
3, 330320, Pitch_bend_c, 0, 8635
3, 330352, Pitch_bend_c, 0, 8821
3, 330392, Pitch_bend_c, 0, 9054
3, 330432, Pitch_bend_c, 0, 9287
3, 330468, Pitch_bend_c, 0, 9497
3, 330480, Pitch_bend_c, 0, 9567
3, 330600, Note_off_c, 0, 73, 64
3, 330960, Pitch_bend_c, 0, 8192
3, 330960, Note_on_c, 0, 73, 97
3, 330976, Pitch_bend_c, 0, 8262
3, 331008, Pitch_bend_c, 0, 8448
3, 331040, Pitch_bend_c, 0, 8635
3, 331072, Pitch_bend_c, 0, 8821
3, 331104, Pitch_bend_c, 0, 9008
3, 331136, Pitch_bend_c, 0, 9194
3, 331168, Pitch_bend_c, 0, 9381
3, 331184, Pitch_bend_c, 0, 9474
3, 331200, Pitch_bend_c, 0, 9567
3, 331440, Note_off_c, 0, 73, 64
3, 331440, Pitch_bend_c, 0, 8192
3, 331440, Note_on_c, 0, 75, 97
3, 331680, Note_off_c, 0, 75, 64
3, 331680, Note_on_c, 0, 73, 97
3, 331920, Pitch_bend_c, 0, 6142
3, 332120, Note_off_c, 0, 73, 64
3, 332120, Pitch_bend_c, 0, 8192
3, 332120, Note_on_c, 0, 73, 97
3, 332124, Pitch_bend_c, 0, 8192
3, 332128, Pitch_bend_c, 0, 8345
3, 332136, Pitch_bend_c, 0, 8650
3, 332144, Pitch_bend_c, 0, 8956
3, 332152, Pitch_bend_c, 0, 9261
3, 332160, Pitch_bend_c, 0, 9567
3, 332480, Note_off_c, 0, 73, 64
3, 332480, Pitch_bend_c, 0, 8192
3, 332480, Note_on_c, 0, 73, 97
3, 332800, Note_off_c, 0, 73, 64
3, 332800, Note_on_c, 0, 70, 97
3, 333080, Note_off_c, 0, 70, 64
3, 333080, Note_on_c, 0, 68, 97
3, 333084, Pitch_bend_c, 0, 8192
3, 333088, Pitch_bend_c, 0, 8270
3, 333096, Pitch_bend_c, 0, 8425
3, 333104, Pitch_bend_c, 0, 8581
3, 333112, Pitch_bend_c, 0, 8736
3, 333120, Pitch_bend_c, 0, 8892
3, 333440, Note_off_c, 0, 68, 64
3, 333440, Pitch_bend_c, 0, 8192
3, 333440, Note_on_c, 0, 68, 97
3, 333760, Note_off_c, 0, 68, 64
3, 333760, Note_on_c, 0, 66, 97
3, 334080, Note_off_c, 0, 66, 64
3, 334080, Pitch_bend_c, 0, 8892
3, 334080, Note_on_c, 0, 68, 97
3, 334112, Pitch_bend_c, 0, 8851
3, 334176, Pitch_bend_c, 0, 8757
3, 334240, Pitch_bend_c, 0, 8663
3, 334304, Pitch_bend_c, 0, 8568
3, 334368, Pitch_bend_c, 0, 8474
3, 334436, Pitch_bend_c, 0, 8374
3, 334496, Pitch_bend_c, 0, 8286
3, 334560, Pitch_bend_c, 0, 8192
3, 334760, Note_off_c, 0, 68, 64
3, 334760, Note_on_c, 0, 68, 97
3, 334776, Pitch_bend_c, 0, 8246
3, 334792, Pitch_bend_c, 0, 8318
3, 334808, Pitch_bend_c, 0, 8389
3, 334824, Pitch_bend_c, 0, 8461
3, 334840, Pitch_bend_c, 0, 8533
3, 334856, Pitch_bend_c, 0, 8605
3, 334872, Pitch_bend_c, 0, 8677
3, 334888, Pitch_bend_c, 0, 8748
3, 334904, Pitch_bend_c, 0, 8820
3, 334920, Pitch_bend_c, 0, 8892
3, 335240, Note_off_c, 0, 68, 64
3, 335280, Note_on_c, 0, 68, 97
3, 335332, Control_c, 0, 1, 7
3, 335348, Control_c, 0, 1, 16
3, 335364, Control_c, 0, 1, 30
3, 335520, Note_off_c, 0, 68, 64
3, 335520, Note_on_c, 0, 68, 97
3, 336000, Note_off_c, 0, 68, 64
3, 336000, Note_on_c, 0, 68, 97
3, 336320, Note_off_c, 0, 68, 64
3, 336320, Note_on_c, 0, 68, 97
3, 336640, Note_off_c, 0, 68, 64
3, 336640, Note_on_c, 0, 68, 97
3, 336920, Note_off_c, 0, 68, 64
3, 336920, Control_c, 0, 1, 0
3, 336920, Note_on_c, 0, 68, 97
3, 336936, Pitch_bend_c, 0, 8944
3, 336968, Pitch_bend_c, 0, 9082
3, 337000, Pitch_bend_c, 0, 9221
3, 337032, Pitch_bend_c, 0, 9359
3, 337064, Pitch_bend_c, 0, 9498
3, 337080, Pitch_bend_c, 0, 9567
3, 337088, Pitch_bend_c, 0, 9473
3, 337104, Pitch_bend_c, 0, 9097
3, 337120, Pitch_bend_c, 0, 8721
3, 337136, Pitch_bend_c, 0, 8345
3, 337140, Pitch_bend_c, 0, 8251
3, 337144, Pitch_bend_c, 0, 8158
3, 337152, Pitch_bend_c, 0, 7970
3, 337160, Pitch_bend_c, 0, 7782
3, 337168, Pitch_bend_c, 0, 7594
3, 337176, Pitch_bend_c, 0, 7406
3, 337184, Pitch_bend_c, 0, 7218
3, 337192, Pitch_bend_c, 0, 7030
3, 337200, Note_off_c, 0, 68, 64
3, 337200, Pitch_bend_c, 0, 6842
3, 337680, Control_c, 0, 1, 0
3, 337680, Pitch_bend_c, 0, 8192
3, 337680, Note_on_c, 0, 49, 97
3, 337680, Note_on_c, 0, 44, 97
3, 337740, Note_off_c, 0, 44, 64
3, 337740, Note_off_c, 0, 49, 64
3, 337920, Note_on_c, 0, 63, 102
3, 337972, Control_c, 0, 1, 6
3, 337988, Control_c, 0, 1, 14
3, 338004, Control_c, 0, 1, 22
3, 338020, Control_c, 0, 1, 30
3, 338040, Control_c, 0, 1, 40
3, 339600, Control_c, 0, 1, 0
3, 339604, Pitch_bend_c, 0, 8134
3, 339620, Pitch_bend_c, 0, 7904
3, 339636, Pitch_bend_c, 0, 7674
3, 339652, Pitch_bend_c, 0, 7444
3, 339668, Pitch_bend_c, 0, 7214
3, 339684, Pitch_bend_c, 0, 6984
3, 339700, Pitch_bend_c, 0, 6754
3, 339716, Pitch_bend_c, 0, 6524
3, 339732, Pitch_bend_c, 0, 6294
3, 339748, Pitch_bend_c, 0, 6064
3, 339764, Pitch_bend_c, 0, 5834
3, 339780, Pitch_bend_c, 0, 5604
3, 339796, Pitch_bend_c, 0, 5374
3, 339812, Pitch_bend_c, 0, 5144
3, 339828, Pitch_bend_c, 0, 4914
3, 339836, Pitch_bend_c, 0, 4742
3, 339892, Control_c, 0, 1, 6
3, 339908, Control_c, 0, 1, 14
3, 339924, Control_c, 0, 1, 22
3, 339940, Control_c, 0, 1, 30
3, 339960, Control_c, 0, 1, 40
3, 340588, Control_c, 0, 1, 0
3, 340588, Pitch_bend_c, 0, 4419
3, 340620, Pitch_bend_c, 0, 4049
3, 340652, Pitch_bend_c, 0, 3680
3, 340684, Pitch_bend_c, 0, 3310
3, 340716, Pitch_bend_c, 0, 2941
3, 340748, Pitch_bend_c, 0, 2571
3, 340780, Pitch_bend_c, 0, 2202
3, 340796, Pitch_bend_c, 0, 2017
3, 340852, Control_c, 0, 1, 6
3, 340868, Control_c, 0, 1, 14
3, 340884, Control_c, 0, 1, 22
3, 340900, Control_c, 0, 1, 30
3, 340920, Control_c, 0, 1, 40
3, 341640, Note_off_c, 0, 63, 64
3, 341640, Control_c, 0, 1, 0
3, 341640, Pitch_bend_c, 0, 8192
3, 341640, Note_on_c, 0, 54, 102
3, 341656, Pitch_bend_c, 0, 7977
3, 341672, Pitch_bend_c, 0, 7691
3, 341688, Pitch_bend_c, 0, 7405
3, 341704, Pitch_bend_c, 0, 7119
3, 341720, Pitch_bend_c, 0, 6833
3, 341736, Pitch_bend_c, 0, 6546
3, 341760, Pitch_bend_c, 0, 6117
3, 341812, Control_c, 0, 1, 6
3, 341828, Control_c, 0, 1, 14
3, 341844, Control_c, 0, 1, 22
3, 341860, Control_c, 0, 1, 30
3, 341880, Control_c, 0, 1, 40
3, 343228, Control_c, 0, 1, 0
3, 343228, Pitch_bend_c, 0, 5917
3, 343260, Pitch_bend_c, 0, 5689
3, 343292, Pitch_bend_c, 0, 5461
3, 343324, Pitch_bend_c, 0, 5232
3, 343356, Pitch_bend_c, 0, 5004
3, 343388, Pitch_bend_c, 0, 4776
3, 343420, Pitch_bend_c, 0, 4547
3, 343452, Pitch_bend_c, 0, 4319
3, 343484, Pitch_bend_c, 0, 4091
3, 343516, Pitch_bend_c, 0, 3862
3, 343548, Pitch_bend_c, 0, 3634
3, 343580, Pitch_bend_c, 0, 3406
3, 343612, Pitch_bend_c, 0, 3177
3, 343644, Pitch_bend_c, 0, 2949
3, 343680, Pitch_bend_c, 0, 2692
3, 344520, Note_off_c, 0, 54, 64
3, 344520, Pitch_bend_c, 0, 8192
3, 344520, Note_on_c, 0, 44, 92
3, 345600, Note_off_c, 0, 44, 64
3, 345600, Note_on_c, 0, 42, 85
3, 345728, Pitch_bend_c, 0, 8283
3, 345792, Pitch_bend_c, 0, 8330
3, 345860, Pitch_bend_c, 0, 8379
3, 345924, Pitch_bend_c, 0, 8426
3, 345988, Pitch_bend_c, 0, 8473
3, 346052, Pitch_bend_c, 0, 8520
3, 346116, Pitch_bend_c, 0, 8567
3, 346180, Pitch_bend_c, 0, 8614
3, 346244, Pitch_bend_c, 0, 8661
3, 346308, Pitch_bend_c, 0, 8707
3, 346372, Pitch_bend_c, 0, 8754
3, 346436, Pitch_bend_c, 0, 8801
3, 346500, Pitch_bend_c, 0, 8848
3, 346560, Pitch_bend_c, 0, 8892
3, 346680, Note_off_c, 0, 42, 64
3, 346680, Pitch_bend_c, 0, 8192
3, 346680, Note_on_c, 0, 39, 95
3, 349948, Pitch_bend_c, 0, 8153
3, 350012, Pitch_bend_c, 0, 8063
3, 350076, Pitch_bend_c, 0, 7973
3, 350140, Pitch_bend_c, 0, 7883
3, 350204, Pitch_bend_c, 0, 7793
3, 350268, Pitch_bend_c, 0, 7703
3, 350332, Pitch_bend_c, 0, 7613
3, 350400, Pitch_bend_c, 0, 7517
3, 350432, Pitch_bend_c, 0, 7557
3, 350496, Pitch_bend_c, 0, 7647
3, 350560, Pitch_bend_c, 0, 7738
3, 350624, Pitch_bend_c, 0, 7829
3, 350688, Pitch_bend_c, 0, 7920
3, 350752, Pitch_bend_c, 0, 8010
3, 350816, Pitch_bend_c, 0, 8101
3, 350880, Pitch_bend_c, 0, 8192
3, 352424, Control_c, 0, 11, 120
3, 352668, Control_c, 0, 11, 104
3, 352908, Control_c, 0, 11, 88
3, 353152, Control_c, 0, 11, 72
3, 353392, Control_c, 0, 11, 56
3, 353636, Control_c, 0, 11, 40
3, 353876, Control_c, 0, 11, 24
3, 354120, Control_c, 0, 11, 8
3, 354240, Control_c, 0, 11, 0
3, 355200, Note_off_c, 0, 39, 64
3, 355200, Control_c, 0, 121, 0
3, 355200, End_track
4, 0, Start_track
4, 0, Title_t, "       """
4, 0, MIDI_port, 0
4, 20, Control_c, 1, 121, 0
4, 20, Control_c, 1, 100, 0
4, 20, Control_c, 1, 101, 0
4, 20, Control_c, 1, 6, 12
4, 20, Control_c, 1, 100, 127
4, 20, Control_c, 1, 101, 127
4, 20, Control_c, 1, 1, 0
4, 20, Control_c, 1, 7, 127
4, 20, Control_c, 1, 10, 117
4, 20, Control_c, 1, 11, 127
4, 20, Control_c, 1, 64, 0
4, 20, Control_c, 1, 91, 64
4, 20, Control_c, 1, 93, 51
4, 24, Program_c, 1, 30
4, 1940, Note_on_c, 1, 61, 102
4, 2180, Note_off_c, 1, 61, 64
4, 2180, Note_on_c, 1, 73, 102
4, 2420, Note_off_c, 1, 73, 64
4, 2420, Note_on_c, 1, 68, 102
4, 2660, Note_off_c, 1, 68, 64
4, 2660, Note_on_c, 1, 66, 102
4, 2900, Note_off_c, 1, 66, 64
4, 2900, Note_on_c, 1, 78, 102
4, 3140, Note_off_c, 1, 78, 64
4, 3140, Note_on_c, 1, 68, 102
4, 3380, Note_off_c, 1, 68, 64
4, 3380, Note_on_c, 1, 77, 102
4, 3620, Note_off_c, 1, 77, 64
4, 3620, Note_on_c, 1, 68, 102
4, 3860, Note_off_c, 1, 68, 64
4, 3860, Note_on_c, 1, 61, 102
4, 4100, Note_off_c, 1, 61, 64
4, 4100, Note_on_c, 1, 73, 102
4, 4340, Note_off_c, 1, 73, 64
4, 4340, Note_on_c, 1, 68, 102
4, 4580, Note_off_c, 1, 68, 64
4, 4580, Note_on_c, 1, 66, 102
4, 4820, Note_off_c, 1, 66, 64
4, 4820, Note_on_c, 1, 78, 102
4, 5060, Note_off_c, 1, 78, 64
4, 5060, Note_on_c, 1, 68, 102
4, 5300, Note_off_c, 1, 68, 64
4, 5300, Note_on_c, 1, 77, 102
4, 5540, Note_off_c, 1, 77, 64
4, 5540, Note_on_c, 1, 68, 102
4, 5780, Note_off_c, 1, 68, 64
4, 5780, Note_on_c, 1, 63, 102
4, 6020, Note_off_c, 1, 63, 64
4, 6020, Note_on_c, 1, 73, 102
4, 6260, Note_off_c, 1, 73, 64
4, 6260, Note_on_c, 1, 68, 102
4, 6500, Note_off_c, 1, 68, 64
4, 6500, Note_on_c, 1, 66, 102
4, 6740, Note_off_c, 1, 66, 64
4, 6740, Note_on_c, 1, 78, 102
4, 6980, Note_off_c, 1, 78, 64
4, 6980, Note_on_c, 1, 68, 102
4, 7220, Note_off_c, 1, 68, 64
4, 7220, Note_on_c, 1, 77, 102
4, 7460, Note_off_c, 1, 77, 64
4, 7460, Note_on_c, 1, 68, 102
4, 7700, Note_off_c, 1, 68, 64
4, 7700, Note_on_c, 1, 63, 102
4, 7940, Note_off_c, 1, 63, 64
4, 7940, Note_on_c, 1, 73, 102
4, 8180, Note_off_c, 1, 73, 64
4, 8180, Note_on_c, 1, 68, 102
4, 8420, Note_off_c, 1, 68, 64
4, 8420, Note_on_c, 1, 66, 102
4, 8660, Note_off_c, 1, 66, 64
4, 8660, Note_on_c, 1, 78, 102
4, 8900, Note_off_c, 1, 78, 64
4, 8900, Note_on_c, 1, 68, 102
4, 9140, Note_off_c, 1, 68, 64
4, 9140, Note_on_c, 1, 77, 102
4, 9380, Note_off_c, 1, 77, 64
4, 9380, Note_on_c, 1, 68, 102
4, 9620, Note_off_c, 1, 68, 64
4, 9620, Note_on_c, 1, 66, 102
4, 9860, Note_off_c, 1, 66, 64
4, 9860, Note_on_c, 1, 73, 102
4, 10100, Note_off_c, 1, 73, 64
4, 10100, Note_on_c, 1, 68, 102
4, 10340, Note_off_c, 1, 68, 64
4, 10340, Note_on_c, 1, 66, 102
4, 10580, Note_off_c, 1, 66, 64
4, 10580, Note_on_c, 1, 78, 102
4, 10820, Note_off_c, 1, 78, 64
4, 10820, Note_on_c, 1, 68, 102
4, 11060, Note_off_c, 1, 68, 64
4, 11060, Note_on_c, 1, 77, 102
4, 11300, Note_off_c, 1, 77, 64
4, 11300, Note_on_c, 1, 68, 102
4, 11540, Note_off_c, 1, 68, 64
4, 11540, Note_on_c, 1, 66, 102
4, 11780, Note_off_c, 1, 66, 64
4, 11780, Note_on_c, 1, 73, 102
4, 12020, Note_off_c, 1, 73, 64
4, 12020, Note_on_c, 1, 68, 102
4, 12260, Note_off_c, 1, 68, 64
4, 12260, Note_on_c, 1, 66, 102
4, 12500, Note_off_c, 1, 66, 64
4, 12500, Note_on_c, 1, 78, 102
4, 12740, Note_off_c, 1, 78, 64
4, 12740, Note_on_c, 1, 68, 102
4, 12980, Note_off_c, 1, 68, 64
4, 12980, Note_on_c, 1, 77, 102
4, 13220, Note_off_c, 1, 77, 64
4, 13220, Note_on_c, 1, 68, 102
4, 13460, Note_off_c, 1, 68, 64
4, 13460, Note_on_c, 1, 61, 102
4, 13700, Note_off_c, 1, 61, 64
4, 13700, Note_on_c, 1, 73, 102
4, 13940, Note_off_c, 1, 73, 64
4, 13940, Note_on_c, 1, 68, 102
4, 14180, Note_off_c, 1, 68, 64
4, 14180, Note_on_c, 1, 66, 102
4, 14420, Note_off_c, 1, 66, 64
4, 14420, Note_on_c, 1, 78, 102
4, 14660, Note_off_c, 1, 78, 64
4, 14660, Note_on_c, 1, 68, 102
4, 14900, Note_off_c, 1, 68, 64
4, 14900, Note_on_c, 1, 77, 102
4, 15140, Note_off_c, 1, 77, 64
4, 15140, Note_on_c, 1, 68, 102
4, 15380, Note_off_c, 1, 68, 64
4, 15380, Note_on_c, 1, 61, 102
4, 15620, Note_off_c, 1, 61, 64
4, 15620, Note_on_c, 1, 73, 102
4, 15860, Note_off_c, 1, 73, 64
4, 15860, Note_on_c, 1, 68, 102
4, 16100, Note_off_c, 1, 68, 64
4, 16100, Note_on_c, 1, 66, 102
4, 16340, Note_off_c, 1, 66, 64
4, 16340, Note_on_c, 1, 78, 102
4, 16580, Note_off_c, 1, 78, 64
4, 16580, Note_on_c, 1, 68, 102
4, 16820, Note_off_c, 1, 68, 64
4, 16820, Note_on_c, 1, 77, 102
4, 17060, Note_off_c, 1, 77, 64
4, 17060, Note_on_c, 1, 68, 102
4, 17300, Note_off_c, 1, 68, 64
4, 17300, Note_on_c, 1, 61, 102
4, 17540, Note_off_c, 1, 61, 64
4, 17540, Note_on_c, 1, 73, 102
4, 17780, Note_off_c, 1, 73, 64
4, 17780, Note_on_c, 1, 68, 102
4, 18020, Note_off_c, 1, 68, 64
4, 18020, Note_on_c, 1, 66, 102
4, 18260, Note_off_c, 1, 66, 64
4, 18260, Note_on_c, 1, 78, 102
4, 18500, Note_off_c, 1, 78, 64
4, 18500, Note_on_c, 1, 68, 102
4, 18740, Note_off_c, 1, 68, 64
4, 18740, Note_on_c, 1, 77, 102
4, 18980, Note_off_c, 1, 77, 64
4, 18980, Note_on_c, 1, 68, 102
4, 19220, Note_off_c, 1, 68, 64
4, 19220, Note_on_c, 1, 61, 102
4, 19460, Note_off_c, 1, 61, 64
4, 19460, Note_on_c, 1, 73, 102
4, 19700, Note_off_c, 1, 73, 64
4, 19700, Note_on_c, 1, 68, 102
4, 19940, Note_off_c, 1, 68, 64
4, 19940, Note_on_c, 1, 66, 102
4, 20180, Note_off_c, 1, 66, 64
4, 20180, Note_on_c, 1, 78, 102
4, 20420, Note_off_c, 1, 78, 64
4, 20420, Note_on_c, 1, 68, 102
4, 20660, Note_off_c, 1, 68, 64
4, 20660, Note_on_c, 1, 77, 102
4, 20900, Note_off_c, 1, 77, 64
4, 20900, Note_on_c, 1, 68, 102
4, 21140, Note_off_c, 1, 68, 64
4, 21140, Note_on_c, 1, 63, 102
4, 21380, Note_off_c, 1, 63, 64
4, 21380, Note_on_c, 1, 73, 102
4, 21620, Note_off_c, 1, 73, 64
4, 21620, Note_on_c, 1, 68, 102
4, 21860, Note_off_c, 1, 68, 64
4, 21860, Note_on_c, 1, 66, 102
4, 22100, Note_off_c, 1, 66, 64
4, 22100, Note_on_c, 1, 78, 102
4, 22340, Note_off_c, 1, 78, 64
4, 22340, Note_on_c, 1, 68, 102
4, 22580, Note_off_c, 1, 68, 64
4, 22580, Note_on_c, 1, 77, 102
4, 22820, Note_off_c, 1, 77, 64
4, 22820, Note_on_c, 1, 68, 102
4, 23060, Note_off_c, 1, 68, 64
4, 23060, Note_on_c, 1, 63, 102
4, 23300, Note_off_c, 1, 63, 64
4, 23300, Note_on_c, 1, 73, 102
4, 23540, Note_off_c, 1, 73, 64
4, 23540, Note_on_c, 1, 68, 102
4, 23780, Note_off_c, 1, 68, 64
4, 23780, Note_on_c, 1, 66, 102
4, 24020, Note_off_c, 1, 66, 64
4, 24020, Note_on_c, 1, 78, 102
4, 24260, Note_off_c, 1, 78, 64
4, 24260, Note_on_c, 1, 68, 102
4, 24500, Note_off_c, 1, 68, 64
4, 24500, Note_on_c, 1, 77, 102
4, 24740, Note_off_c, 1, 77, 64
4, 24740, Note_on_c, 1, 68, 102
4, 24980, Note_off_c, 1, 68, 64
4, 24980, Note_on_c, 1, 66, 102
4, 25220, Note_off_c, 1, 66, 64
4, 25220, Note_on_c, 1, 73, 102
4, 25460, Note_off_c, 1, 73, 64
4, 25460, Note_on_c, 1, 68, 102
4, 25700, Note_off_c, 1, 68, 64
4, 25700, Note_on_c, 1, 66, 102
4, 25940, Note_off_c, 1, 66, 64
4, 25940, Note_on_c, 1, 78, 102
4, 26180, Note_off_c, 1, 78, 64
4, 26180, Note_on_c, 1, 68, 102
4, 26420, Note_off_c, 1, 68, 64
4, 26420, Note_on_c, 1, 77, 102
4, 26660, Note_off_c, 1, 77, 64
4, 26660, Note_on_c, 1, 68, 102
4, 26900, Note_off_c, 1, 68, 64
4, 26900, Note_on_c, 1, 66, 102
4, 27140, Note_off_c, 1, 66, 64
4, 27140, Note_on_c, 1, 73, 102
4, 27380, Note_off_c, 1, 73, 64
4, 27380, Note_on_c, 1, 68, 102
4, 27620, Note_off_c, 1, 68, 64
4, 27620, Note_on_c, 1, 66, 102
4, 27860, Note_off_c, 1, 66, 64
4, 27860, Note_on_c, 1, 78, 102
4, 28100, Note_off_c, 1, 78, 64
4, 28100, Note_on_c, 1, 68, 102
4, 28340, Note_off_c, 1, 68, 64
4, 28340, Note_on_c, 1, 77, 102
4, 28580, Note_off_c, 1, 77, 64
4, 28580, Note_on_c, 1, 68, 102
4, 28820, Note_off_c, 1, 68, 64
4, 28820, Note_on_c, 1, 61, 102
4, 29060, Note_off_c, 1, 61, 64
4, 29060, Note_on_c, 1, 73, 102
4, 29300, Note_off_c, 1, 73, 64
4, 29300, Note_on_c, 1, 68, 102
4, 29540, Note_off_c, 1, 68, 64
4, 29540, Note_on_c, 1, 66, 102
4, 29780, Note_off_c, 1, 66, 64
4, 29780, Note_on_c, 1, 78, 102
4, 30020, Note_off_c, 1, 78, 64
4, 30020, Note_on_c, 1, 68, 102
4, 30260, Note_off_c, 1, 68, 64
4, 30260, Note_on_c, 1, 77, 102
4, 30500, Note_off_c, 1, 77, 64
4, 30500, Note_on_c, 1, 68, 102
4, 30740, Note_off_c, 1, 68, 64
4, 30740, Note_on_c, 1, 61, 102
4, 30980, Note_off_c, 1, 61, 64
4, 30980, Note_on_c, 1, 73, 102
4, 31220, Note_off_c, 1, 73, 64
4, 31220, Note_on_c, 1, 68, 102
4, 31460, Note_off_c, 1, 68, 64
4, 31460, Note_on_c, 1, 66, 102
4, 31700, Note_off_c, 1, 66, 64
4, 31700, Note_on_c, 1, 78, 102
4, 31940, Note_off_c, 1, 78, 64
4, 31940, Note_on_c, 1, 68, 102
4, 32180, Note_off_c, 1, 68, 64
4, 32180, Note_on_c, 1, 77, 102
4, 32420, Note_off_c, 1, 77, 64
4, 32420, Note_on_c, 1, 68, 102
4, 32660, Note_off_c, 1, 68, 64
4, 32660, Note_on_c, 1, 61, 102
4, 32900, Note_off_c, 1, 61, 64
4, 32900, Note_on_c, 1, 73, 102
4, 33140, Note_off_c, 1, 73, 64
4, 33140, Note_on_c, 1, 68, 102
4, 33380, Note_off_c, 1, 68, 64
4, 33380, Note_on_c, 1, 66, 102
4, 33620, Note_off_c, 1, 66, 64
4, 33620, Note_on_c, 1, 78, 102
4, 33860, Note_off_c, 1, 78, 64
4, 33860, Note_on_c, 1, 68, 102
4, 34100, Note_off_c, 1, 68, 64
4, 34100, Note_on_c, 1, 77, 102
4, 34340, Note_off_c, 1, 77, 64
4, 34340, Note_on_c, 1, 68, 102
4, 34580, Note_off_c, 1, 68, 64
4, 34580, Note_on_c, 1, 61, 102
4, 34820, Note_off_c, 1, 61, 64
4, 34820, Note_on_c, 1, 73, 102
4, 35060, Note_off_c, 1, 73, 64
4, 35060, Note_on_c, 1, 68, 102
4, 35300, Note_off_c, 1, 68, 64
4, 35300, Note_on_c, 1, 66, 102
4, 35540, Note_off_c, 1, 66, 64
4, 35540, Note_on_c, 1, 78, 102
4, 35780, Note_off_c, 1, 78, 64
4, 35780, Note_on_c, 1, 68, 102
4, 36020, Note_off_c, 1, 68, 64
4, 36020, Note_on_c, 1, 77, 102
4, 36260, Note_off_c, 1, 77, 64
4, 36260, Note_on_c, 1, 68, 102
4, 36500, Note_off_c, 1, 68, 64
4, 36500, Note_on_c, 1, 63, 102
4, 36740, Note_off_c, 1, 63, 64
4, 36740, Note_on_c, 1, 73, 102
4, 36980, Note_off_c, 1, 73, 64
4, 36980, Note_on_c, 1, 68, 102
4, 37220, Note_off_c, 1, 68, 64
4, 37220, Note_on_c, 1, 66, 102
4, 37460, Note_off_c, 1, 66, 64
4, 37460, Note_on_c, 1, 78, 102
4, 37700, Note_off_c, 1, 78, 64
4, 37700, Note_on_c, 1, 68, 102
4, 37940, Note_off_c, 1, 68, 64
4, 37940, Note_on_c, 1, 77, 102
4, 38180, Note_off_c, 1, 77, 64
4, 38180, Note_on_c, 1, 68, 102
4, 38420, Note_off_c, 1, 68, 64
4, 38420, Note_on_c, 1, 63, 102
4, 38660, Note_off_c, 1, 63, 64
4, 38660, Note_on_c, 1, 73, 102
4, 38900, Note_off_c, 1, 73, 64
4, 38900, Note_on_c, 1, 68, 102
4, 39140, Note_off_c, 1, 68, 64
4, 39140, Note_on_c, 1, 66, 102
4, 39380, Note_off_c, 1, 66, 64
4, 39380, Note_on_c, 1, 78, 102
4, 39620, Note_off_c, 1, 78, 64
4, 39620, Note_on_c, 1, 68, 102
4, 39860, Note_off_c, 1, 68, 64
4, 39860, Note_on_c, 1, 77, 102
4, 40100, Note_off_c, 1, 77, 64
4, 40100, Note_on_c, 1, 68, 102
4, 40340, Note_off_c, 1, 68, 64
4, 40340, Note_on_c, 1, 66, 102
4, 40580, Note_off_c, 1, 66, 64
4, 40580, Note_on_c, 1, 73, 102
4, 40820, Note_off_c, 1, 73, 64
4, 40820, Note_on_c, 1, 68, 102
4, 41060, Note_off_c, 1, 68, 64
4, 41060, Note_on_c, 1, 66, 102
4, 41300, Note_off_c, 1, 66, 64
4, 41300, Note_on_c, 1, 78, 102
4, 41540, Note_off_c, 1, 78, 64
4, 41540, Note_on_c, 1, 68, 102
4, 41780, Note_off_c, 1, 68, 64
4, 41780, Note_on_c, 1, 77, 102
4, 42020, Note_off_c, 1, 77, 64
4, 42020, Note_on_c, 1, 68, 102
4, 42260, Note_off_c, 1, 68, 64
4, 42260, Note_on_c, 1, 66, 102
4, 42500, Note_off_c, 1, 66, 64
4, 42500, Note_on_c, 1, 73, 102
4, 42740, Note_off_c, 1, 73, 64
4, 42740, Note_on_c, 1, 68, 102
4, 42980, Note_off_c, 1, 68, 64
4, 42980, Note_on_c, 1, 66, 102
4, 43220, Note_off_c, 1, 66, 64
4, 43220, Note_on_c, 1, 78, 102
4, 43460, Note_off_c, 1, 78, 64
4, 43460, Note_on_c, 1, 68, 102
4, 43700, Note_off_c, 1, 68, 64
4, 43700, Note_on_c, 1, 77, 102
4, 43940, Note_off_c, 1, 77, 64
4, 43940, Note_on_c, 1, 68, 102
4, 44180, Note_off_c, 1, 68, 64
4, 44180, Note_on_c, 1, 75, 102
4, 44420, Note_off_c, 1, 75, 64
4, 44420, Note_on_c, 1, 68, 102
4, 44660, Note_off_c, 1, 68, 64
4, 44660, Note_on_c, 1, 73, 102
4, 44900, Note_off_c, 1, 73, 64
4, 44900, Note_on_c, 1, 68, 102
4, 45140, Note_off_c, 1, 68, 64
4, 45140, Note_on_c, 1, 75, 102
4, 45380, Note_off_c, 1, 75, 64
4, 45380, Note_on_c, 1, 68, 102
4, 45620, Note_off_c, 1, 68, 64
4, 45620, Note_on_c, 1, 77, 102
4, 45860, Note_off_c, 1, 77, 64
4, 45860, Note_on_c, 1, 68, 102
4, 46100, Note_off_c, 1, 68, 64
4, 46100, Note_on_c, 1, 78, 102
4, 46340, Note_off_c, 1, 78, 64
4, 46340, Note_on_c, 1, 68, 102
4, 46580, Note_off_c, 1, 68, 64
4, 46580, Note_on_c, 1, 77, 102
4, 46820, Note_off_c, 1, 77, 64
4, 46820, Note_on_c, 1, 68, 102
4, 47060, Note_off_c, 1, 68, 64
4, 47060, Note_on_c, 1, 75, 102
4, 47300, Note_off_c, 1, 75, 64
4, 47300, Note_on_c, 1, 68, 102
4, 47540, Note_off_c, 1, 68, 64
4, 47540, Note_on_c, 1, 73, 102
4, 48020, Note_off_c, 1, 73, 64
4, 78740, Note_on_c, 1, 60, 102
4, 78980, Note_off_c, 1, 60, 64
4, 78980, Note_on_c, 1, 72, 102
4, 79220, Note_off_c, 1, 72, 64
4, 79220, Note_on_c, 1, 68, 102
4, 79460, Note_off_c, 1, 68, 64
4, 79460, Note_on_c, 1, 63, 102
4, 79700, Note_off_c, 1, 63, 64
4, 79700, Note_on_c, 1, 73, 102
4, 79940, Note_off_c, 1, 73, 64
4, 79940, Note_on_c, 1, 68, 102
4, 80180, Note_off_c, 1, 68, 64
4, 80180, Note_on_c, 1, 72, 102
4, 80420, Note_off_c, 1, 72, 64
4, 80420, Note_on_c, 1, 68, 102
4, 80660, Note_off_c, 1, 68, 64
4, 80660, Note_on_c, 1, 59, 102
4, 80900, Note_off_c, 1, 59, 64
4, 80900, Note_on_c, 1, 71, 102
4, 81140, Note_off_c, 1, 71, 64
4, 81140, Note_on_c, 1, 66, 102
4, 81380, Note_off_c, 1, 66, 64
4, 81380, Note_on_c, 1, 64, 102
4, 81620, Note_off_c, 1, 64, 64
4, 81620, Note_on_c, 1, 75, 102
4, 81860, Note_off_c, 1, 75, 64
4, 81860, Note_on_c, 1, 66, 102
4, 82100, Note_off_c, 1, 66, 64
4, 82100, Note_on_c, 1, 73, 102
4, 82340, Note_off_c, 1, 73, 64
4, 82340, Note_on_c, 1, 66, 102
4, 82580, Note_off_c, 1, 66, 64
4, 82580, Note_on_c, 1, 61, 102
4, 82820, Note_off_c, 1, 61, 64
4, 82820, Note_on_c, 1, 73, 102
4, 83060, Note_off_c, 1, 73, 64
4, 83060, Note_on_c, 1, 68, 102
4, 83300, Note_off_c, 1, 68, 64
4, 83300, Note_on_c, 1, 66, 102
4, 83540, Note_off_c, 1, 66, 64
4, 83540, Note_on_c, 1, 78, 102
4, 83780, Note_off_c, 1, 78, 64
4, 83780, Note_on_c, 1, 68, 102
4, 84020, Note_off_c, 1, 68, 64
4, 84020, Note_on_c, 1, 77, 102
4, 84260, Note_off_c, 1, 77, 64
4, 84260, Note_on_c, 1, 68, 102
4, 84500, Note_off_c, 1, 68, 64
4, 84500, Note_on_c, 1, 61, 102
4, 84740, Note_off_c, 1, 61, 64
4, 84740, Note_on_c, 1, 73, 102
4, 84980, Note_off_c, 1, 73, 64
4, 84980, Note_on_c, 1, 68, 102
4, 85220, Note_off_c, 1, 68, 64
4, 85220, Note_on_c, 1, 66, 102
4, 85460, Note_off_c, 1, 66, 64
4, 85460, Note_on_c, 1, 78, 102
4, 85700, Note_off_c, 1, 78, 64
4, 85700, Note_on_c, 1, 68, 102
4, 85940, Note_off_c, 1, 68, 64
4, 85940, Note_on_c, 1, 77, 102
4, 86180, Note_off_c, 1, 77, 64
4, 86180, Note_on_c, 1, 68, 102
4, 86420, Note_off_c, 1, 68, 64
4, 86420, Note_on_c, 1, 60, 102
4, 86660, Note_off_c, 1, 60, 64
4, 86660, Note_on_c, 1, 72, 102
4, 86900, Note_off_c, 1, 72, 64
4, 86900, Note_on_c, 1, 68, 102
4, 87140, Note_off_c, 1, 68, 64
4, 87140, Note_on_c, 1, 63, 102
4, 87380, Note_off_c, 1, 63, 64
4, 87380, Note_on_c, 1, 73, 102
4, 87620, Note_off_c, 1, 73, 64
4, 87620, Note_on_c, 1, 68, 102
4, 87860, Note_off_c, 1, 68, 64
4, 87860, Note_on_c, 1, 72, 102
4, 88100, Note_off_c, 1, 72, 64
4, 88100, Note_on_c, 1, 68, 102
4, 88340, Note_off_c, 1, 68, 64
4, 88340, Note_on_c, 1, 59, 102
4, 88580, Note_off_c, 1, 59, 64
4, 88580, Note_on_c, 1, 71, 102
4, 88820, Note_off_c, 1, 71, 64
4, 88820, Note_on_c, 1, 66, 102
4, 89060, Note_off_c, 1, 66, 64
4, 89060, Note_on_c, 1, 64, 102
4, 89300, Note_off_c, 1, 64, 64
4, 89300, Note_on_c, 1, 75, 102
4, 89540, Note_off_c, 1, 75, 64
4, 89540, Note_on_c, 1, 66, 102
4, 89780, Note_off_c, 1, 66, 64
4, 89780, Note_on_c, 1, 73, 102
4, 90020, Note_off_c, 1, 73, 64
4, 90020, Note_on_c, 1, 66, 102
4, 90260, Note_off_c, 1, 66, 64
4, 90260, Note_on_c, 1, 68, 102
4, 90500, Note_off_c, 1, 68, 64
4, 90500, Note_on_c, 1, 73, 102
4, 92416, Note_off_c, 1, 73, 64
4, 93860, Note_on_c, 1, 68, 102
4, 94100, Pitch_bend_c, 1, 6842
4, 94816, Note_off_c, 1, 68, 64
4, 94820, Pitch_bend_c, 1, 8192
4, 94820, Note_on_c, 1, 65, 102
4, 95780, Note_off_c, 1, 65, 64
4, 95780, Note_on_c, 1, 68, 102
4, 96020, Note_off_c, 1, 68, 64
4, 96020, Note_on_c, 1, 66, 102
4, 96740, Note_off_c, 1, 66, 64
4, 96740, Note_on_c, 1, 65, 102
4, 97700, Note_off_c, 1, 65, 64
4, 97700, Note_on_c, 1, 68, 102
4, 97940, Pitch_bend_c, 1, 6842
4, 98656, Note_off_c, 1, 68, 64
4, 98660, Pitch_bend_c, 1, 8192
4, 98660, Note_on_c, 1, 63, 95
4, 99620, Note_off_c, 1, 63, 64
4, 99620, Note_on_c, 1, 68, 102
4, 99860, Pitch_bend_c, 1, 6842
4, 100576, Note_off_c, 1, 68, 64
4, 100580, Pitch_bend_c, 1, 8192
4, 100580, Note_on_c, 1, 63, 95
4, 101540, Note_off_c, 1, 63, 64
4, 101540, Note_on_c, 1, 68, 102
4, 101780, Pitch_bend_c, 1, 6842
4, 102920, Note_off_c, 1, 68, 64
4, 102980, Pitch_bend_c, 1, 9567
4, 102980, Note_on_c, 1, 68, 102
4, 102996, Pitch_bend_c, 1, 9521
4, 103028, Pitch_bend_c, 1, 9397
4, 103060, Pitch_bend_c, 1, 9273
4, 103092, Pitch_bend_c, 1, 9150
4, 103124, Pitch_bend_c, 1, 9026
4, 103156, Pitch_bend_c, 1, 8903
4, 103188, Pitch_bend_c, 1, 8779
4, 103220, Pitch_bend_c, 1, 8655
4, 103252, Pitch_bend_c, 1, 8532
4, 103284, Pitch_bend_c, 1, 8408
4, 103316, Pitch_bend_c, 1, 8285
4, 103340, Pitch_bend_c, 1, 8192
4, 103460, Note_off_c, 1, 68, 64
4, 103460, Note_on_c, 1, 66, 102
4, 103640, Note_off_c, 1, 66, 64
4, 103700, Note_on_c, 1, 68, 108
4, 103716, Pitch_bend_c, 1, 8262
4, 103748, Pitch_bend_c, 1, 8448
4, 103780, Pitch_bend_c, 1, 8635
4, 103812, Pitch_bend_c, 1, 8821
4, 103844, Pitch_bend_c, 1, 9008
4, 103876, Pitch_bend_c, 1, 9194
4, 103908, Pitch_bend_c, 1, 9381
4, 103940, Pitch_bend_c, 1, 9567
4, 104120, Note_off_c, 1, 68, 64
4, 104180, Pitch_bend_c, 1, 8192
4, 104180, Note_on_c, 1, 73, 102
4, 104360, Note_off_c, 1, 73, 64
4, 104420, Pitch_bend_c, 1, 9567
4, 104420, Note_on_c, 1, 73, 102
4, 104672, Pitch_bend_c, 1, 9533
4, 104704, Pitch_bend_c, 1, 9441
4, 104736, Pitch_bend_c, 1, 9349
4, 104768, Pitch_bend_c, 1, 9258
4, 104800, Pitch_bend_c, 1, 9166
4, 104832, Pitch_bend_c, 1, 9074
4, 104864, Pitch_bend_c, 1, 8983
4, 104896, Pitch_bend_c, 1, 8891
4, 104928, Pitch_bend_c, 1, 8799
4, 104960, Pitch_bend_c, 1, 8708
4, 104992, Pitch_bend_c, 1, 8616
4, 105024, Pitch_bend_c, 1, 8524
4, 105056, Pitch_bend_c, 1, 8433
4, 105088, Pitch_bend_c, 1, 8341
4, 105120, Pitch_bend_c, 1, 8249
4, 105140, Pitch_bend_c, 1, 8192
4, 105460, Note_off_c, 1, 73, 64
4, 105460, Note_on_c, 1, 63, 102
4, 105468, Pitch_bend_c, 1, 8227
4, 105484, Pitch_bend_c, 1, 8368
4, 105500, Pitch_bend_c, 1, 8509
4, 105516, Pitch_bend_c, 1, 8650
4, 105532, Pitch_bend_c, 1, 8791
4, 105548, Pitch_bend_c, 1, 8932
4, 105564, Pitch_bend_c, 1, 9073
4, 105580, Pitch_bend_c, 1, 9214
4, 105596, Pitch_bend_c, 1, 9355
4, 105604, Pitch_bend_c, 1, 9426
4, 105620, Pitch_bend_c, 1, 9567
4, 107860, Note_off_c, 1, 63, 64
4, 140180, Pitch_bend_c, 1, 8192
4, 140180, Note_on_c, 1, 60, 102
4, 140420, Note_off_c, 1, 60, 64
4, 140420, Note_on_c, 1, 72, 102
4, 140660, Note_off_c, 1, 72, 64
4, 140660, Note_on_c, 1, 68, 102
4, 140900, Note_off_c, 1, 68, 64
4, 140900, Note_on_c, 1, 63, 102
4, 141140, Note_off_c, 1, 63, 64
4, 141140, Note_on_c, 1, 73, 102
4, 141380, Note_off_c, 1, 73, 64
4, 141380, Note_on_c, 1, 68, 102
4, 141620, Note_off_c, 1, 68, 64
4, 141620, Note_on_c, 1, 72, 102
4, 141860, Note_off_c, 1, 72, 64
4, 141860, Note_on_c, 1, 68, 102
4, 142100, Note_off_c, 1, 68, 64
4, 142100, Note_on_c, 1, 59, 102
4, 142340, Note_off_c, 1, 59, 64
4, 142340, Note_on_c, 1, 71, 102
4, 142580, Note_off_c, 1, 71, 64
4, 142580, Note_on_c, 1, 66, 102
4, 142820, Note_off_c, 1, 66, 64
4, 142820, Note_on_c, 1, 64, 102
4, 143060, Note_off_c, 1, 64, 64
4, 143060, Note_on_c, 1, 75, 102
4, 143300, Note_off_c, 1, 75, 64
4, 143300, Note_on_c, 1, 66, 102
4, 143540, Note_off_c, 1, 66, 64
4, 143540, Note_on_c, 1, 73, 102
4, 143780, Note_off_c, 1, 73, 64
4, 143780, Note_on_c, 1, 66, 102
4, 144020, Note_off_c, 1, 66, 64
4, 144020, Note_on_c, 1, 61, 102
4, 144260, Note_off_c, 1, 61, 64
4, 144260, Note_on_c, 1, 73, 102
4, 144500, Note_off_c, 1, 73, 64
4, 144500, Note_on_c, 1, 68, 102
4, 144740, Note_off_c, 1, 68, 64
4, 144740, Note_on_c, 1, 66, 102
4, 144980, Note_off_c, 1, 66, 64
4, 144980, Note_on_c, 1, 78, 102
4, 145220, Note_off_c, 1, 78, 64
4, 145220, Note_on_c, 1, 68, 102
4, 145460, Note_off_c, 1, 68, 64
4, 145460, Note_on_c, 1, 77, 102
4, 145700, Note_off_c, 1, 77, 64
4, 145700, Note_on_c, 1, 68, 102
4, 145940, Note_off_c, 1, 68, 64
4, 145940, Note_on_c, 1, 61, 102
4, 146180, Note_off_c, 1, 61, 64
4, 146180, Note_on_c, 1, 73, 102
4, 146420, Note_off_c, 1, 73, 64
4, 146420, Note_on_c, 1, 68, 102
4, 146660, Note_off_c, 1, 68, 64
4, 146660, Note_on_c, 1, 66, 102
4, 146900, Note_off_c, 1, 66, 64
4, 146900, Note_on_c, 1, 78, 102
4, 147140, Note_off_c, 1, 78, 64
4, 147140, Note_on_c, 1, 68, 102
4, 147380, Note_off_c, 1, 68, 64
4, 147380, Note_on_c, 1, 77, 102
4, 147620, Note_off_c, 1, 77, 64
4, 147620, Note_on_c, 1, 68, 102
4, 147860, Note_off_c, 1, 68, 64
4, 147860, Note_on_c, 1, 60, 102
4, 148100, Note_off_c, 1, 60, 64
4, 148100, Note_on_c, 1, 72, 102
4, 148340, Note_off_c, 1, 72, 64
4, 148340, Note_on_c, 1, 68, 102
4, 148580, Note_off_c, 1, 68, 64
4, 148580, Note_on_c, 1, 63, 102
4, 148820, Note_off_c, 1, 63, 64
4, 148820, Note_on_c, 1, 73, 102
4, 149060, Note_off_c, 1, 73, 64
4, 149060, Note_on_c, 1, 68, 102
4, 149300, Note_off_c, 1, 68, 64
4, 149300, Note_on_c, 1, 72, 102
4, 149540, Note_off_c, 1, 72, 64
4, 149540, Note_on_c, 1, 68, 102
4, 149780, Note_off_c, 1, 68, 64
4, 149780, Note_on_c, 1, 59, 102
4, 150020, Note_off_c, 1, 59, 64
4, 150020, Note_on_c, 1, 71, 102
4, 150260, Note_off_c, 1, 71, 64
4, 150260, Note_on_c, 1, 66, 102
4, 150500, Note_off_c, 1, 66, 64
4, 150500, Note_on_c, 1, 64, 102
4, 150740, Note_off_c, 1, 64, 64
4, 150740, Note_on_c, 1, 75, 102
4, 150980, Note_off_c, 1, 75, 64
4, 150980, Note_on_c, 1, 66, 102
4, 151220, Note_off_c, 1, 66, 64
4, 151220, Note_on_c, 1, 73, 102
4, 151460, Note_off_c, 1, 73, 64
4, 151460, Note_on_c, 1, 66, 102
4, 151700, Note_off_c, 1, 66, 64
4, 151700, Note_on_c, 1, 68, 102
4, 151940, Note_off_c, 1, 68, 64
4, 151940, Note_on_c, 1, 73, 102
4, 153856, Note_off_c, 1, 73, 64
4, 155300, Note_on_c, 1, 68, 102
4, 155540, Pitch_bend_c, 1, 6842
4, 156256, Note_off_c, 1, 68, 64
4, 156260, Pitch_bend_c, 1, 8192
4, 156260, Note_on_c, 1, 65, 102
4, 157220, Note_off_c, 1, 65, 64
4, 157220, Note_on_c, 1, 68, 102
4, 157460, Note_off_c, 1, 68, 64
4, 157460, Note_on_c, 1, 66, 102
4, 158180, Note_off_c, 1, 66, 64
4, 158180, Note_on_c, 1, 65, 102
4, 159140, Note_off_c, 1, 65, 64
4, 159140, Note_on_c, 1, 68, 102
4, 159380, Pitch_bend_c, 1, 6842
4, 160096, Note_off_c, 1, 68, 64
4, 160100, Pitch_bend_c, 1, 8192
4, 160100, Note_on_c, 1, 63, 95
4, 161060, Note_off_c, 1, 63, 64
4, 161060, Note_on_c, 1, 68, 102
4, 161300, Pitch_bend_c, 1, 6842
4, 162016, Note_off_c, 1, 68, 64
4, 162020, Pitch_bend_c, 1, 8192
4, 162020, Note_on_c, 1, 63, 95
4, 162980, Note_off_c, 1, 63, 64
4, 162980, Note_on_c, 1, 68, 102
4, 163220, Pitch_bend_c, 1, 6842
4, 164780, Note_off_c, 1, 68, 64
4, 164900, Pitch_bend_c, 1, 8192
4, 164900, Note_on_c, 1, 68, 102
4, 165140, Pitch_bend_c, 1, 6842
4, 166100, Note_off_c, 1, 68, 64
4, 166100, Pitch_bend_c, 1, 8892
4, 166100, Note_on_c, 1, 65, 102
4, 166132, Pitch_bend_c, 1, 8854
4, 166164, Pitch_bend_c, 1, 8752
4, 166196, Pitch_bend_c, 1, 8650
4, 166228, Pitch_bend_c, 1, 8548
4, 166260, Pitch_bend_c, 1, 8447
4, 166292, Pitch_bend_c, 1, 8345
4, 166324, Pitch_bend_c, 1, 8243
4, 166340, Pitch_bend_c, 1, 8192
4, 166580, Note_off_c, 1, 65, 64
4, 166580, Note_on_c, 1, 61, 102
4, 166800, Note_off_c, 1, 61, 64
4, 166800, Note_on_c, 1, 65, 102
4, 166808, Pitch_bend_c, 1, 8239
4, 166816, Pitch_bend_c, 1, 8332
4, 166824, Pitch_bend_c, 1, 8425
4, 166832, Pitch_bend_c, 1, 8519
4, 166840, Pitch_bend_c, 1, 8612
4, 166848, Pitch_bend_c, 1, 8705
4, 166856, Pitch_bend_c, 1, 8799
4, 166864, Pitch_bend_c, 1, 8892
4, 168236, Note_off_c, 1, 65, 64
4, 168260, Pitch_bend_c, 1, 8192
4, 168260, Note_on_c, 1, 73, 102
4, 168480, Note_off_c, 1, 73, 64
4, 168480, Pitch_bend_c, 1, 8192
4, 168480, Note_on_c, 1, 65, 102
4, 168512, Pitch_bend_c, 1, 8857
4, 168544, Pitch_bend_c, 1, 8764
4, 168576, Pitch_bend_c, 1, 8670
4, 168608, Pitch_bend_c, 1, 8577
4, 168640, Pitch_bend_c, 1, 8484
4, 168672, Pitch_bend_c, 1, 8390
4, 168704, Pitch_bend_c, 1, 8297
4, 168736, Pitch_bend_c, 1, 8204
4, 168740, Pitch_bend_c, 1, 8192
4, 169000, Control_c, 1, 1, 3
4, 169048, Control_c, 1, 1, 11
4, 169096, Control_c, 1, 1, 19
4, 169144, Control_c, 1, 1, 27
4, 169192, Control_c, 1, 1, 35
4, 169220, Control_c, 1, 1, 40
4, 170400, Note_off_c, 1, 65, 64
4, 170420, Note_on_c, 1, 68, 102
4, 170460, Note_off_c, 1, 68, 64
4, 170660, Control_c, 1, 1, 0
4, 170660, Note_on_c, 1, 68, 102
4, 170900, Pitch_bend_c, 1, 6842
4, 171616, Note_off_c, 1, 68, 64
4, 171620, Pitch_bend_c, 1, 8192
4, 171620, Note_on_c, 1, 65, 102
4, 172580, Note_off_c, 1, 65, 64
4, 172580, Note_on_c, 1, 68, 102
4, 172820, Pitch_bend_c, 1, 6842
4, 173536, Note_off_c, 1, 68, 64
4, 173540, Pitch_bend_c, 1, 8192
4, 173540, Note_on_c, 1, 65, 102
4, 173564, Pitch_bend_c, 1, 8255
4, 173580, Pitch_bend_c, 1, 8506
4, 173612, Pitch_bend_c, 1, 9007
4, 173644, Pitch_bend_c, 1, 9509
4, 173676, Pitch_bend_c, 1, 10011
4, 173708, Pitch_bend_c, 1, 10513
4, 173740, Pitch_bend_c, 1, 11015
4, 173772, Pitch_bend_c, 1, 11517
4, 173780, Pitch_bend_c, 1, 11642
4, 174260, Note_off_c, 1, 65, 64
4, 174260, Pitch_bend_c, 1, 8192
4, 174260, Note_on_c, 1, 73, 102
4, 174500, Note_off_c, 1, 73, 64
4, 174500, Note_on_c, 1, 73, 102
4, 174532, Pitch_bend_c, 1, 8118
4, 174564, Pitch_bend_c, 1, 7922
4, 174596, Pitch_bend_c, 1, 7726
4, 174628, Pitch_bend_c, 1, 7529
4, 174660, Pitch_bend_c, 1, 7333
4, 174692, Pitch_bend_c, 1, 7137
4, 174724, Pitch_bend_c, 1, 6940
4, 174740, Pitch_bend_c, 1, 6842
4, 175456, Note_off_c, 1, 73, 64
4, 175460, Pitch_bend_c, 1, 8192
4, 175460, Note_on_c, 1, 75, 102
4, 176420, Note_off_c, 1, 75, 64
4, 176420, Note_on_c, 1, 75, 102
4, 176660, Note_off_c, 1, 75, 64
4, 176660, Note_on_c, 1, 75, 102
4, 176728, Pitch_bend_c, 1, 8106
4, 176760, Pitch_bend_c, 1, 8008
4, 176792, Pitch_bend_c, 1, 7910
4, 176824, Pitch_bend_c, 1, 7812
4, 176856, Pitch_bend_c, 1, 7713
4, 176888, Pitch_bend_c, 1, 7615
4, 176920, Pitch_bend_c, 1, 7517
4, 176952, Pitch_bend_c, 1, 7419
4, 176984, Pitch_bend_c, 1, 7321
4, 177016, Pitch_bend_c, 1, 7222
4, 177048, Pitch_bend_c, 1, 7124
4, 177080, Pitch_bend_c, 1, 7026
4, 177112, Pitch_bend_c, 1, 6928
4, 177140, Pitch_bend_c, 1, 6842
4, 177380, Note_off_c, 1, 75, 64
4, 177380, Pitch_bend_c, 1, 8192
4, 177380, Note_on_c, 1, 73, 102
4, 177632, Pitch_bend_c, 1, 8124
4, 177664, Pitch_bend_c, 1, 7944
4, 177696, Pitch_bend_c, 1, 7764
4, 177728, Pitch_bend_c, 1, 7584
4, 177760, Pitch_bend_c, 1, 7404
4, 177792, Pitch_bend_c, 1, 7224
4, 177824, Pitch_bend_c, 1, 7044
4, 177856, Pitch_bend_c, 1, 6864
4, 177860, Pitch_bend_c, 1, 6842
4, 178316, Note_off_c, 1, 73, 64
4, 178320, Pitch_bend_c, 1, 8892
4, 178320, Note_on_c, 1, 70, 102
4, 178352, Pitch_bend_c, 1, 8857
4, 178384, Pitch_bend_c, 1, 8764
4, 178416, Pitch_bend_c, 1, 8670
4, 178448, Pitch_bend_c, 1, 8577
4, 178480, Pitch_bend_c, 1, 8484
4, 178512, Pitch_bend_c, 1, 8390
4, 178544, Pitch_bend_c, 1, 8297
4, 178576, Pitch_bend_c, 1, 8204
4, 178580, Pitch_bend_c, 1, 8192
4, 179060, Note_off_c, 1, 70, 64
4, 179060, Note_on_c, 1, 66, 102
4, 179300, Note_off_c, 1, 66, 64
4, 179300, Note_on_c, 1, 61, 102
4, 179332, Control_c, 1, 1, 10
4, 179364, Control_c, 1, 1, 21
4, 179396, Control_c, 1, 1, 32
4, 179420, Control_c, 1, 1, 40
4, 179996, Pitch_bend_c, 1, 8892
4, 179996, Control_c, 1, 1, 0
4, 179996, Note_on_c, 1, 68, 102
4, 180000, Note_off_c, 1, 61, 64
4, 180032, Pitch_bend_c, 1, 8822
4, 180048, Pitch_bend_c, 1, 8729
4, 180064, Pitch_bend_c, 1, 8635
4, 180080, Pitch_bend_c, 1, 8542
4, 180096, Pitch_bend_c, 1, 8449
4, 180112, Pitch_bend_c, 1, 8355
4, 180128, Pitch_bend_c, 1, 8262
4, 180140, Pitch_bend_c, 1, 8192
4, 180260, Pitch_bend_c, 1, 6842
4, 180476, Note_off_c, 1, 68, 64
4, 180500, Pitch_bend_c, 1, 8192
4, 180500, Control_c, 1, 1, 0
4, 180500, Note_on_c, 1, 68, 102
4, 180532, Pitch_bend_c, 1, 8267
4, 180564, Pitch_bend_c, 1, 8467
4, 180596, Pitch_bend_c, 1, 8667
4, 180628, Pitch_bend_c, 1, 8867
4, 180660, Pitch_bend_c, 1, 9067
4, 180692, Pitch_bend_c, 1, 9267
4, 180724, Pitch_bend_c, 1, 9467
4, 180740, Pitch_bend_c, 1, 9567
4, 180980, Note_off_c, 1, 68, 64
4, 180980, Pitch_bend_c, 1, 8192
4, 180980, Note_on_c, 1, 73, 102
4, 181160, Note_off_c, 1, 73, 64
4, 181220, Note_on_c, 1, 73, 102
4, 181244, Pitch_bend_c, 1, 8217
4, 181276, Pitch_bend_c, 1, 8421
4, 181308, Pitch_bend_c, 1, 8625
4, 181340, Pitch_bend_c, 1, 8829
4, 181372, Pitch_bend_c, 1, 9032
4, 181404, Pitch_bend_c, 1, 9236
4, 181436, Pitch_bend_c, 1, 9440
4, 181456, Pitch_bend_c, 1, 9567
4, 181712, Pitch_bend_c, 1, 9498
4, 181744, Pitch_bend_c, 1, 9315
4, 181776, Pitch_bend_c, 1, 9132
4, 181808, Pitch_bend_c, 1, 8948
4, 181840, Pitch_bend_c, 1, 8765
4, 181872, Pitch_bend_c, 1, 8582
4, 181904, Pitch_bend_c, 1, 8398
4, 181920, Pitch_bend_c, 1, 8307
4, 181940, Pitch_bend_c, 1, 8192
4, 182180, Note_off_c, 1, 73, 64
4, 182180, Note_on_c, 1, 75, 102
4, 182212, Pitch_bend_c, 1, 8267
4, 182244, Pitch_bend_c, 1, 8467
4, 182276, Pitch_bend_c, 1, 8667
4, 182308, Pitch_bend_c, 1, 8867
4, 182340, Pitch_bend_c, 1, 9067
4, 182372, Pitch_bend_c, 1, 9267
4, 182404, Pitch_bend_c, 1, 9467
4, 182420, Pitch_bend_c, 1, 9567
4, 186260, Note_off_c, 1, 75, 64
4, 190100, Pitch_bend_c, 1, 8192
4, 190100, Note_on_c, 1, 49, 76
4, 190104, Note_on_c, 1, 56, 76
4, 190108, Note_on_c, 1, 61, 76
4, 191780, Note_off_c, 1, 61, 64
4, 191780, Note_off_c, 1, 56, 64
4, 191780, Note_off_c, 1, 49, 64
4, 191780, Pitch_bend_c, 1, 8892
4, 191780, Note_on_c, 1, 65, 102
4, 192032, Pitch_bend_c, 1, 8857
4, 192064, Pitch_bend_c, 1, 8764
4, 192096, Pitch_bend_c, 1, 8670
4, 192128, Pitch_bend_c, 1, 8577
4, 192160, Pitch_bend_c, 1, 8484
4, 192192, Pitch_bend_c, 1, 8390
4, 192224, Pitch_bend_c, 1, 8297
4, 192256, Pitch_bend_c, 1, 8204
4, 192260, Pitch_bend_c, 1, 8192
4, 192500, Note_off_c, 1, 65, 64
4, 192500, Note_on_c, 1, 61, 102
4, 192740, Note_off_c, 1, 61, 64
4, 192740, Note_on_c, 1, 56, 102
4, 192980, Note_off_c, 1, 56, 64
4, 192980, Note_on_c, 1, 54, 102
4, 193220, Note_off_c, 1, 54, 64
4, 193220, Note_on_c, 1, 53, 102
4, 193460, Note_off_c, 1, 53, 64
4, 193460, Note_on_c, 1, 49, 102
4, 193700, Note_off_c, 1, 49, 64
4, 193700, Note_on_c, 1, 47, 76
4, 193724, Pitch_bend_c, 1, 8214
4, 193740, Pitch_bend_c, 1, 8304
4, 193756, Pitch_bend_c, 1, 8393
4, 193772, Pitch_bend_c, 1, 8482
4, 193780, Pitch_bend_c, 1, 8542
4, 193940, Note_off_c, 1, 47, 64
4, 205460, Pitch_bend_c, 1, 8192
4, 205460, Note_on_c, 1, 49, 76
4, 205464, Note_on_c, 1, 56, 76
4, 205468, Note_on_c, 1, 61, 76
4, 207140, Note_off_c, 1, 61, 64
4, 207140, Note_off_c, 1, 56, 64
4, 207140, Note_off_c, 1, 49, 64
4, 207140, Pitch_bend_c, 1, 8892
4, 207140, Note_on_c, 1, 65, 102
4, 207392, Pitch_bend_c, 1, 8857
4, 207424, Pitch_bend_c, 1, 8764
4, 207456, Pitch_bend_c, 1, 8670
4, 207488, Pitch_bend_c, 1, 8577
4, 207520, Pitch_bend_c, 1, 8484
4, 207552, Pitch_bend_c, 1, 8390
4, 207584, Pitch_bend_c, 1, 8297
4, 207616, Pitch_bend_c, 1, 8204
4, 207620, Pitch_bend_c, 1, 8192
4, 207860, Note_off_c, 1, 65, 64
4, 207860, Note_on_c, 1, 61, 102
4, 208100, Note_off_c, 1, 61, 64
4, 208100, Note_on_c, 1, 56, 102
4, 208340, Note_off_c, 1, 56, 64
4, 208340, Note_on_c, 1, 54, 102
4, 208580, Note_off_c, 1, 54, 64
4, 208580, Note_on_c, 1, 53, 102
4, 208820, Note_off_c, 1, 53, 64
4, 208820, Note_on_c, 1, 49, 102
4, 209060, Note_off_c, 1, 49, 64
4, 209060, Note_on_c, 1, 47, 70
4, 209084, Pitch_bend_c, 1, 8214
4, 209100, Pitch_bend_c, 1, 8304
4, 209116, Pitch_bend_c, 1, 8393
4, 209132, Pitch_bend_c, 1, 8482
4, 209140, Pitch_bend_c, 1, 8542
4, 209300, Note_off_c, 1, 47, 64
4, 216960, Pitch_bend_c, 1, 8192
4, 216960, Note_on_c, 1, 80, 108
4, 216964, Pitch_bend_c, 1, 8192
4, 216968, Pitch_bend_c, 1, 8536
4, 216972, Pitch_bend_c, 1, 8880
4, 216976, Pitch_bend_c, 1, 9223
4, 216980, Pitch_bend_c, 1, 9567
4, 217112, Control_c, 1, 1, 4
4, 217128, Control_c, 1, 1, 9
4, 217144, Control_c, 1, 1, 15
4, 217160, Control_c, 1, 1, 20
4, 217176, Control_c, 1, 1, 25
4, 217192, Control_c, 1, 1, 31
4, 217208, Control_c, 1, 1, 36
4, 217220, Control_c, 1, 1, 45
4, 218192, Pitch_bend_c, 1, 9521
4, 218224, Pitch_bend_c, 1, 9399
4, 218256, Pitch_bend_c, 1, 9277
4, 218284, Pitch_bend_c, 1, 9170
4, 218316, Pitch_bend_c, 1, 9048
4, 218348, Pitch_bend_c, 1, 8925
4, 218380, Pitch_bend_c, 1, 8803
4, 218412, Pitch_bend_c, 1, 8681
4, 218444, Pitch_bend_c, 1, 8559
4, 218476, Pitch_bend_c, 1, 8436
4, 218508, Pitch_bend_c, 1, 8314
4, 218540, Pitch_bend_c, 1, 8192
4, 218660, Note_off_c, 1, 80, 64
4, 218660, Control_c, 1, 1, 0
4, 218660, Note_on_c, 1, 78, 108
4, 218900, Note_off_c, 1, 78, 64
4, 218900, Note_on_c, 1, 77, 108
4, 219380, Pitch_bend_c, 1, 8892
4, 219500, Pitch_bend_c, 1, 8192
4, 219620, Note_off_c, 1, 77, 64
4, 219620, Note_on_c, 1, 75, 108
4, 219632, Control_c, 1, 1, 5
4, 219648, Control_c, 1, 1, 11
4, 219664, Control_c, 1, 1, 17
4, 219680, Control_c, 1, 1, 23
4, 219696, Control_c, 1, 1, 29
4, 219712, Control_c, 1, 1, 35
4, 219728, Control_c, 1, 1, 41
4, 219740, Control_c, 1, 1, 45
4, 220580, Note_off_c, 1, 75, 64
4, 220580, Control_c, 1, 1, 0
4, 220580, Note_on_c, 1, 78, 108
4, 220820, Note_off_c, 1, 78, 64
4, 220820, Note_on_c, 1, 77, 108
4, 221300, Pitch_bend_c, 1, 8892
4, 221380, Pitch_bend_c, 1, 8192
4, 221460, Note_off_c, 1, 77, 64
4, 221460, Note_on_c, 1, 75, 102
4, 221620, Note_off_c, 1, 75, 64
4, 221620, Note_on_c, 1, 74, 108
4, 221820, Note_off_c, 1, 74, 64
4, 221940, Note_on_c, 1, 75, 108
4, 222220, Note_off_c, 1, 75, 64
4, 222260, Note_on_c, 1, 77, 108
4, 222620, Note_off_c, 1, 77, 64
4, 222740, Pitch_bend_c, 1, 9567
4, 222740, Note_on_c, 1, 73, 108
4, 222772, Pitch_bend_c, 1, 9518
4, 222804, Pitch_bend_c, 1, 9389
4, 222836, Pitch_bend_c, 1, 9260
4, 222868, Pitch_bend_c, 1, 9130
4, 222900, Pitch_bend_c, 1, 9001
4, 222932, Pitch_bend_c, 1, 8871
4, 222964, Pitch_bend_c, 1, 8742
4, 222996, Pitch_bend_c, 1, 8613
4, 223028, Pitch_bend_c, 1, 8483
4, 223060, Pitch_bend_c, 1, 8354
4, 223084, Pitch_bend_c, 1, 8257
4, 223100, Pitch_bend_c, 1, 8192
4, 223220, Note_off_c, 1, 73, 64
4, 223220, Note_on_c, 1, 70, 108
4, 223460, Note_off_c, 1, 70, 64
4, 223460, Pitch_bend_c, 1, 9567
4, 223460, Note_on_c, 1, 68, 108
4, 223476, Pitch_bend_c, 1, 9497
4, 223508, Pitch_bend_c, 1, 9311
4, 223540, Pitch_bend_c, 1, 9124
4, 223572, Pitch_bend_c, 1, 8938
4, 223604, Pitch_bend_c, 1, 8751
4, 223636, Pitch_bend_c, 1, 8565
4, 223668, Pitch_bend_c, 1, 8378
4, 223684, Pitch_bend_c, 1, 8285
4, 223700, Pitch_bend_c, 1, 8192
4, 223940, Note_off_c, 1, 68, 64
4, 223940, Note_on_c, 1, 66, 108
4, 224180, Note_off_c, 1, 66, 64
4, 224180, Note_on_c, 1, 65, 108
4, 224420, Pitch_bend_c, 1, 8892
4, 224540, Pitch_bend_c, 1, 8192
4, 224660, Note_off_c, 1, 65, 64
4, 224660, Note_on_c, 1, 63, 108
4, 224732, Control_c, 1, 1, 7
4, 224768, Control_c, 1, 1, 15
4, 224804, Control_c, 1, 1, 23
4, 224836, Control_c, 1, 1, 31
4, 224872, Control_c, 1, 1, 39
4, 224900, Control_c, 1, 1, 45
4, 225140, Note_off_c, 1, 63, 64
4, 225140, Control_c, 1, 1, 0
4, 225140, Note_on_c, 1, 63, 108
4, 225140, Control_c, 1, 1, 0
4, 225780, Note_off_c, 1, 63, 64
4, 225780, Note_on_c, 1, 65, 108
4, 225940, Note_off_c, 1, 65, 64
4, 225940, Note_on_c, 1, 66, 108
4, 226100, Note_off_c, 1, 66, 64
4, 226100, Note_on_c, 1, 68, 108
4, 226260, Note_off_c, 1, 68, 64
4, 226260, Note_on_c, 1, 71, 108
4, 226580, Note_off_c, 1, 71, 64
4, 226580, Note_on_c, 1, 70, 108
4, 227060, Pitch_bend_c, 1, 8892
4, 227180, Pitch_bend_c, 1, 8192
4, 227196, Pitch_bend_c, 1, 8052
4, 227212, Pitch_bend_c, 1, 7866
4, 227228, Pitch_bend_c, 1, 7680
4, 227244, Pitch_bend_c, 1, 7494
4, 227260, Pitch_bend_c, 1, 7308
4, 227276, Pitch_bend_c, 1, 7121
4, 227292, Pitch_bend_c, 1, 6935
4, 227300, Pitch_bend_c, 1, 6842
4, 228000, Note_off_c, 1, 70, 64
4, 228000, Pitch_bend_c, 1, 8192
4, 228000, Note_on_c, 1, 71, 108
4, 228016, Pitch_bend_c, 1, 8313
4, 228032, Pitch_bend_c, 1, 8475
4, 228048, Pitch_bend_c, 1, 8637
4, 228064, Pitch_bend_c, 1, 8799
4, 228080, Pitch_bend_c, 1, 8960
4, 228096, Pitch_bend_c, 1, 9122
4, 228112, Pitch_bend_c, 1, 9284
4, 228128, Pitch_bend_c, 1, 9446
4, 228140, Pitch_bend_c, 1, 9567
4, 228480, Note_off_c, 1, 71, 64
4, 228500, Pitch_bend_c, 1, 8192
4, 228500, Note_on_c, 1, 71, 108
4, 228980, Note_off_c, 1, 71, 64
4, 228980, Note_on_c, 1, 70, 108
4, 229220, Note_off_c, 1, 70, 64
4, 229220, Note_on_c, 1, 70, 108
4, 229272, Control_c, 1, 1, 7
4, 229288, Control_c, 1, 1, 16
4, 229304, Control_c, 1, 1, 25
4, 229320, Control_c, 1, 1, 34
4, 229336, Control_c, 1, 1, 43
4, 229340, Control_c, 1, 1, 45
4, 229940, Note_off_c, 1, 70, 64
4, 229940, Control_c, 1, 1, 0
4, 229940, Note_on_c, 1, 70, 108
4, 229956, Pitch_bend_c, 1, 8264
4, 229972, Pitch_bend_c, 1, 8361
4, 229988, Pitch_bend_c, 1, 8458
4, 230004, Pitch_bend_c, 1, 8554
4, 230020, Pitch_bend_c, 1, 8651
4, 230036, Pitch_bend_c, 1, 8747
4, 230052, Pitch_bend_c, 1, 8844
4, 230060, Pitch_bend_c, 1, 8892
4, 230092, Pitch_bend_c, 1, 8837
4, 230124, Pitch_bend_c, 1, 8774
4, 230156, Pitch_bend_c, 1, 8711
4, 230188, Pitch_bend_c, 1, 8648
4, 230220, Pitch_bend_c, 1, 8585
4, 230252, Pitch_bend_c, 1, 8522
4, 230284, Pitch_bend_c, 1, 8459
4, 230316, Pitch_bend_c, 1, 8396
4, 230348, Pitch_bend_c, 1, 8334
4, 230376, Pitch_bend_c, 1, 8279
4, 230420, Pitch_bend_c, 1, 8192
4, 230900, Note_off_c, 1, 70, 64
4, 230900, Note_on_c, 1, 68, 108
4, 231120, Note_off_c, 1, 68, 64
4, 231120, Note_on_c, 1, 78, 95
4, 231128, Pitch_bend_c, 1, 8232
4, 231144, Pitch_bend_c, 1, 8394
4, 231160, Pitch_bend_c, 1, 8556
4, 231176, Pitch_bend_c, 1, 8718
4, 231192, Pitch_bend_c, 1, 8880
4, 231208, Pitch_bend_c, 1, 9041
4, 231224, Pitch_bend_c, 1, 9203
4, 231240, Pitch_bend_c, 1, 9365
4, 231256, Pitch_bend_c, 1, 9527
4, 231260, Pitch_bend_c, 1, 9567
4, 231504, Pitch_bend_c, 1, 9521
4, 231520, Pitch_bend_c, 1, 9338
4, 231536, Pitch_bend_c, 1, 9154
4, 231552, Pitch_bend_c, 1, 8971
4, 231568, Pitch_bend_c, 1, 8788
4, 231584, Pitch_bend_c, 1, 8604
4, 231600, Pitch_bend_c, 1, 8421
4, 231616, Pitch_bend_c, 1, 8238
4, 231620, Pitch_bend_c, 1, 8192
4, 231824, Pitch_bend_c, 1, 7919
4, 231832, Pitch_bend_c, 1, 7374
4, 231840, Pitch_bend_c, 1, 6829
4, 231848, Pitch_bend_c, 1, 6284
4, 231856, Pitch_bend_c, 1, 5739
4, 231860, Note_off_c, 1, 78, 64
4, 231860, Pitch_bend_c, 1, 5467
4, 232100, Pitch_bend_c, 1, 8192
4, 232100, Note_on_c, 1, 65, 108
4, 232116, Pitch_bend_c, 1, 8264
4, 232132, Pitch_bend_c, 1, 8361
4, 232148, Pitch_bend_c, 1, 8458
4, 232164, Pitch_bend_c, 1, 8554
4, 232180, Pitch_bend_c, 1, 8651
4, 232196, Pitch_bend_c, 1, 8747
4, 232212, Pitch_bend_c, 1, 8844
4, 232220, Pitch_bend_c, 1, 8892
4, 232236, Pitch_bend_c, 1, 8820
4, 232252, Pitch_bend_c, 1, 8723
4, 232268, Pitch_bend_c, 1, 8626
4, 232284, Pitch_bend_c, 1, 8530
4, 232300, Pitch_bend_c, 1, 8433
4, 232316, Pitch_bend_c, 1, 8337
4, 232332, Pitch_bend_c, 1, 8240
4, 232340, Pitch_bend_c, 1, 8192
4, 232820, Note_off_c, 1, 65, 64
4, 232820, Note_on_c, 1, 63, 108
4, 233060, Note_off_c, 1, 63, 64
4, 233060, Note_on_c, 1, 63, 108
4, 233076, Control_c, 1, 1, 5
4, 233108, Control_c, 1, 1, 17
4, 233140, Control_c, 1, 1, 29
4, 233180, Control_c, 1, 1, 45
4, 234016, Note_off_c, 1, 63, 64
4, 234020, Control_c, 1, 1, 0
4, 234020, Pitch_bend_c, 1, 8192
4, 234020, Note_on_c, 1, 65, 108
4, 234036, Pitch_bend_c, 1, 8264
4, 234052, Pitch_bend_c, 1, 8361
4, 234068, Pitch_bend_c, 1, 8458
4, 234084, Pitch_bend_c, 1, 8554
4, 234100, Pitch_bend_c, 1, 8651
4, 234116, Pitch_bend_c, 1, 8747
4, 234132, Pitch_bend_c, 1, 8844
4, 234140, Pitch_bend_c, 1, 8892
4, 234156, Pitch_bend_c, 1, 8820
4, 234172, Pitch_bend_c, 1, 8723
4, 234188, Pitch_bend_c, 1, 8626
4, 234204, Pitch_bend_c, 1, 8530
4, 234220, Pitch_bend_c, 1, 8433
4, 234236, Pitch_bend_c, 1, 8337
4, 234252, Pitch_bend_c, 1, 8240
4, 234260, Pitch_bend_c, 1, 8192
4, 234740, Note_off_c, 1, 65, 64
4, 234740, Note_on_c, 1, 63, 108
4, 234980, Note_off_c, 1, 63, 64
4, 234980, Note_on_c, 1, 63, 108
4, 234996, Control_c, 1, 1, 5
4, 235028, Control_c, 1, 1, 17
4, 235060, Control_c, 1, 1, 29
4, 235076, Control_c, 1, 1, 36
4, 235100, Control_c, 1, 1, 45
4, 235436, Note_off_c, 1, 63, 64
4, 235440, Control_c, 1, 1, 0
4, 235440, Note_on_c, 1, 62, 102
4, 235456, Pitch_bend_c, 1, 8254
4, 235488, Pitch_bend_c, 1, 8418
4, 235520, Pitch_bend_c, 1, 8583
4, 235552, Pitch_bend_c, 1, 8748
4, 235576, Pitch_bend_c, 1, 8871
4, 235580, Pitch_bend_c, 1, 8892
4, 236180, Note_off_c, 1, 62, 64
4, 236180, Pitch_bend_c, 1, 8192
4, 236180, Note_on_c, 1, 62, 95
4, 236212, Pitch_bend_c, 1, 8274
4, 236276, Pitch_bend_c, 1, 8460
4, 236340, Pitch_bend_c, 1, 8647
4, 236404, Pitch_bend_c, 1, 8833
4, 236468, Pitch_bend_c, 1, 9020
4, 236532, Pitch_bend_c, 1, 9206
4, 236600, Pitch_bend_c, 1, 9404
4, 236664, Pitch_bend_c, 1, 9591
4, 236728, Pitch_bend_c, 1, 9777
4, 236792, Pitch_bend_c, 1, 9964
4, 236856, Pitch_bend_c, 1, 10150
4, 236896, Pitch_bend_c, 1, 10267
4, 236900, Note_off_c, 1, 62, 64
4, 236900, Pitch_bend_c, 1, 8192
4, 236900, Note_on_c, 1, 65, 95
4, 237620, Note_off_c, 1, 65, 64
4, 237620, Pitch_bend_c, 1, 8192
4, 237620, Note_on_c, 1, 65, 108
4, 237628, Pitch_bend_c, 1, 8216
4, 237644, Pitch_bend_c, 1, 8313
4, 237660, Pitch_bend_c, 1, 8409
4, 237676, Pitch_bend_c, 1, 8506
4, 237692, Pitch_bend_c, 1, 8602
4, 237708, Pitch_bend_c, 1, 8699
4, 237724, Pitch_bend_c, 1, 8795
4, 237740, Pitch_bend_c, 1, 8892
4, 237772, Pitch_bend_c, 1, 8837
4, 237804, Pitch_bend_c, 1, 8774
4, 237836, Pitch_bend_c, 1, 8711
4, 237868, Pitch_bend_c, 1, 8648
4, 237900, Pitch_bend_c, 1, 8585
4, 237932, Pitch_bend_c, 1, 8522
4, 237964, Pitch_bend_c, 1, 8459
4, 237996, Pitch_bend_c, 1, 8396
4, 238028, Pitch_bend_c, 1, 8334
4, 238060, Pitch_bend_c, 1, 8271
4, 238092, Pitch_bend_c, 1, 8208
4, 238100, Pitch_bend_c, 1, 8192
4, 238580, Note_off_c, 1, 65, 64
4, 238580, Note_on_c, 1, 63, 108
4, 238820, Note_off_c, 1, 63, 64
4, 238820, Note_on_c, 1, 58, 102
4, 238836, Pitch_bend_c, 1, 8264
4, 238852, Pitch_bend_c, 1, 8361
4, 238868, Pitch_bend_c, 1, 8458
4, 238884, Pitch_bend_c, 1, 8554
4, 238900, Pitch_bend_c, 1, 8651
4, 238916, Pitch_bend_c, 1, 8747
4, 238932, Pitch_bend_c, 1, 8844
4, 238940, Pitch_bend_c, 1, 8892
4, 239300, Note_off_c, 1, 58, 64
4, 239300, Pitch_bend_c, 1, 8192
4, 239300, Note_on_c, 1, 56, 108
4, 239780, Note_off_c, 1, 56, 64
4, 239780, Note_on_c, 1, 58, 108
4, 240020, Note_off_c, 1, 58, 64
4, 240020, Note_on_c, 1, 63, 108
4, 240152, Control_c, 1, 1, 4
4, 240168, Control_c, 1, 1, 9
4, 240184, Control_c, 1, 1, 15
4, 240200, Control_c, 1, 1, 20
4, 240216, Control_c, 1, 1, 25
4, 240232, Control_c, 1, 1, 31
4, 240248, Control_c, 1, 1, 36
4, 240260, Control_c, 1, 1, 40
4, 241700, Note_off_c, 1, 63, 64
4, 241700, Control_c, 1, 1, 0
4, 241700, Note_on_c, 1, 65, 108
4, 241820, Pitch_bend_c, 1, 8892
4, 241940, Pitch_bend_c, 1, 8192
4, 241992, Control_c, 1, 1, 6
4, 242008, Control_c, 1, 1, 14
4, 242024, Control_c, 1, 1, 22
4, 242040, Control_c, 1, 1, 30
4, 242056, Control_c, 1, 1, 38
4, 242060, Control_c, 1, 1, 40
4, 242660, Note_off_c, 1, 65, 64
4, 242660, Control_c, 1, 1, 0
4, 242660, Note_on_c, 1, 63, 108
4, 243116, Note_off_c, 1, 63, 64
4, 243120, Note_on_c, 1, 62, 102
4, 243152, Pitch_bend_c, 1, 8227
4, 243184, Pitch_bend_c, 1, 8320
4, 243216, Pitch_bend_c, 1, 8414
4, 243248, Pitch_bend_c, 1, 8507
4, 243280, Pitch_bend_c, 1, 8600
4, 243312, Pitch_bend_c, 1, 8694
4, 243344, Pitch_bend_c, 1, 8787
4, 243376, Pitch_bend_c, 1, 8880
4, 243380, Pitch_bend_c, 1, 8892
4, 243860, Note_off_c, 1, 62, 64
4, 243860, Pitch_bend_c, 1, 8192
4, 243860, Note_on_c, 1, 62, 108
4, 244464, Pitch_bend_c, 1, 8264
4, 244480, Pitch_bend_c, 1, 8550
4, 244496, Pitch_bend_c, 1, 8836
4, 244512, Pitch_bend_c, 1, 9122
4, 244528, Pitch_bend_c, 1, 9408
4, 244544, Pitch_bend_c, 1, 9695
4, 244560, Pitch_bend_c, 1, 9981
4, 244576, Pitch_bend_c, 1, 10267
4, 244580, Note_off_c, 1, 62, 64
4, 244580, Pitch_bend_c, 1, 8192
4, 244580, Note_on_c, 1, 65, 108
4, 245060, Note_off_c, 1, 65, 64
4, 245060, Note_on_c, 1, 63, 95
4, 245076, Pitch_bend_c, 1, 8263
4, 245108, Pitch_bend_c, 1, 8453
4, 245140, Pitch_bend_c, 1, 8642
4, 245172, Pitch_bend_c, 1, 8832
4, 245204, Pitch_bend_c, 1, 9022
4, 245236, Pitch_bend_c, 1, 9211
4, 245268, Pitch_bend_c, 1, 9401
4, 245300, Pitch_bend_c, 1, 9567
4, 245780, Note_off_c, 1, 63, 64
4, 245780, Pitch_bend_c, 1, 8192
4, 245780, Note_on_c, 1, 63, 108
4, 245912, Control_c, 1, 1, 5
4, 245944, Control_c, 1, 1, 17
4, 245976, Control_c, 1, 1, 29
4, 246008, Control_c, 1, 1, 41
4, 246020, Control_c, 1, 1, 45
4, 249620, Note_off_c, 1, 63, 64
4, 249620, Control_c, 1, 1, 0
4, 249620, Note_on_c, 1, 73, 102
4, 249636, Pitch_bend_c, 1, 8262
4, 249668, Pitch_bend_c, 1, 8448
4, 249700, Pitch_bend_c, 1, 8635
4, 249732, Pitch_bend_c, 1, 8821
4, 249764, Pitch_bend_c, 1, 9008
4, 249800, Pitch_bend_c, 1, 9217
4, 249836, Pitch_bend_c, 1, 9427
4, 249860, Pitch_bend_c, 1, 9567
4, 250100, Note_off_c, 1, 73, 64
4, 250100, Pitch_bend_c, 1, 8192
4, 250100, Note_on_c, 1, 73, 102
4, 250116, Pitch_bend_c, 1, 8262
4, 250148, Pitch_bend_c, 1, 8448
4, 250180, Pitch_bend_c, 1, 8635
4, 250212, Pitch_bend_c, 1, 8821
4, 250248, Pitch_bend_c, 1, 9031
4, 250280, Pitch_bend_c, 1, 9217
4, 250312, Pitch_bend_c, 1, 9404
4, 250340, Pitch_bend_c, 1, 9567
4, 250432, Control_c, 1, 1, 5
4, 250464, Control_c, 1, 1, 17
4, 250496, Control_c, 1, 1, 29
4, 250528, Control_c, 1, 1, 41
4, 250540, Control_c, 1, 1, 45
4, 251016, Note_off_c, 1, 73, 64
4, 251020, Control_c, 1, 1, 0
4, 251020, Note_on_c, 1, 73, 102
4, 251028, Pitch_bend_c, 1, 9532
4, 251044, Pitch_bend_c, 1, 9391
4, 251060, Pitch_bend_c, 1, 9250
4, 251076, Pitch_bend_c, 1, 9109
4, 251092, Pitch_bend_c, 1, 8968
4, 251108, Pitch_bend_c, 1, 8827
4, 251124, Pitch_bend_c, 1, 8686
4, 251140, Pitch_bend_c, 1, 8545
4, 251156, Pitch_bend_c, 1, 8404
4, 251172, Pitch_bend_c, 1, 8263
4, 251180, Pitch_bend_c, 1, 8192
4, 251300, Pitch_bend_c, 1, 6117
4, 251420, Note_off_c, 1, 73, 64
4, 251420, Pitch_bend_c, 1, 8192
4, 251420, Note_on_c, 1, 68, 102
4, 251540, Note_off_c, 1, 68, 64
4, 251540, Note_on_c, 1, 73, 102
4, 251556, Pitch_bend_c, 1, 8262
4, 251588, Pitch_bend_c, 1, 8448
4, 251620, Pitch_bend_c, 1, 8635
4, 251652, Pitch_bend_c, 1, 8821
4, 251684, Pitch_bend_c, 1, 9008
4, 251720, Pitch_bend_c, 1, 9217
4, 251756, Pitch_bend_c, 1, 9427
4, 251780, Pitch_bend_c, 1, 9567
4, 252020, Note_off_c, 1, 73, 64
4, 252020, Pitch_bend_c, 1, 8192
4, 252020, Note_on_c, 1, 73, 102
4, 252036, Pitch_bend_c, 1, 8262
4, 252068, Pitch_bend_c, 1, 8448
4, 252100, Pitch_bend_c, 1, 8635
4, 252132, Pitch_bend_c, 1, 8821
4, 252168, Pitch_bend_c, 1, 9031
4, 252200, Pitch_bend_c, 1, 9217
4, 252232, Pitch_bend_c, 1, 9404
4, 252260, Pitch_bend_c, 1, 9567
4, 252352, Control_c, 1, 1, 5
4, 252384, Control_c, 1, 1, 17
4, 252416, Control_c, 1, 1, 29
4, 252448, Control_c, 1, 1, 41
4, 252460, Control_c, 1, 1, 45
4, 252936, Note_off_c, 1, 73, 64
4, 252940, Control_c, 1, 1, 0
4, 252940, Note_on_c, 1, 73, 102
4, 252948, Pitch_bend_c, 1, 9532
4, 252964, Pitch_bend_c, 1, 9391
4, 252980, Pitch_bend_c, 1, 9250
4, 252996, Pitch_bend_c, 1, 9109
4, 253012, Pitch_bend_c, 1, 8968
4, 253028, Pitch_bend_c, 1, 8827
4, 253044, Pitch_bend_c, 1, 8686
4, 253060, Pitch_bend_c, 1, 8545
4, 253076, Pitch_bend_c, 1, 8404
4, 253092, Pitch_bend_c, 1, 8263
4, 253100, Pitch_bend_c, 1, 8192
4, 253220, Pitch_bend_c, 1, 6117
4, 253340, Note_off_c, 1, 73, 64
4, 253340, Pitch_bend_c, 1, 8192
4, 253340, Note_on_c, 1, 68, 102
4, 253460, Note_off_c, 1, 68, 64
4, 253460, Note_on_c, 1, 75, 102
4, 253476, Pitch_bend_c, 1, 8262
4, 253508, Pitch_bend_c, 1, 8448
4, 253540, Pitch_bend_c, 1, 8635
4, 253572, Pitch_bend_c, 1, 8821
4, 253604, Pitch_bend_c, 1, 9008
4, 253640, Pitch_bend_c, 1, 9217
4, 253676, Pitch_bend_c, 1, 9427
4, 253700, Pitch_bend_c, 1, 9567
4, 253940, Note_off_c, 1, 75, 64
4, 253940, Pitch_bend_c, 1, 8192
4, 253940, Note_on_c, 1, 75, 102
4, 253956, Pitch_bend_c, 1, 8262
4, 253988, Pitch_bend_c, 1, 8448
4, 254020, Pitch_bend_c, 1, 8635
4, 254052, Pitch_bend_c, 1, 8821
4, 254088, Pitch_bend_c, 1, 9031
4, 254120, Pitch_bend_c, 1, 9217
4, 254152, Pitch_bend_c, 1, 9404
4, 254180, Pitch_bend_c, 1, 9567
4, 254272, Control_c, 1, 1, 5
4, 254304, Control_c, 1, 1, 17
4, 254336, Control_c, 1, 1, 29
4, 254368, Control_c, 1, 1, 41
4, 254380, Control_c, 1, 1, 45
4, 254856, Note_off_c, 1, 75, 64
4, 254860, Control_c, 1, 1, 0
4, 254860, Note_on_c, 1, 75, 102
4, 254876, Pitch_bend_c, 1, 8252
4, 254908, Pitch_bend_c, 1, 8411
4, 254940, Pitch_bend_c, 1, 8571
4, 254972, Pitch_bend_c, 1, 8730
4, 255004, Pitch_bend_c, 1, 8889
4, 255044, Pitch_bend_c, 1, 9089
4, 255084, Pitch_bend_c, 1, 9288
4, 255128, Pitch_bend_c, 1, 9507
4, 255140, Pitch_bend_c, 1, 9567
4, 255340, Note_off_c, 1, 75, 64
4, 255340, Pitch_bend_c, 1, 8192
4, 255340, Note_on_c, 1, 75, 102
4, 255356, Pitch_bend_c, 1, 8252
4, 255388, Pitch_bend_c, 1, 8411
4, 255420, Pitch_bend_c, 1, 8571
4, 255452, Pitch_bend_c, 1, 8730
4, 255484, Pitch_bend_c, 1, 8889
4, 255516, Pitch_bend_c, 1, 9049
4, 255548, Pitch_bend_c, 1, 9208
4, 255580, Pitch_bend_c, 1, 9368
4, 255612, Pitch_bend_c, 1, 9527
4, 255620, Pitch_bend_c, 1, 9567
4, 255820, Note_off_c, 1, 75, 64
4, 255820, Pitch_bend_c, 1, 8192
4, 255820, Note_on_c, 1, 75, 102
4, 255828, Pitch_bend_c, 1, 8245
4, 255844, Pitch_bend_c, 1, 8458
4, 255860, Pitch_bend_c, 1, 8671
4, 255876, Pitch_bend_c, 1, 8884
4, 255892, Pitch_bend_c, 1, 9096
4, 255908, Pitch_bend_c, 1, 9309
4, 255924, Pitch_bend_c, 1, 9522
4, 255940, Pitch_bend_c, 1, 9735
4, 255956, Pitch_bend_c, 1, 9948
4, 255980, Pitch_bend_c, 1, 10267
4, 256100, Note_off_c, 1, 75, 64
4, 256100, Pitch_bend_c, 1, 8192
4, 256100, Note_on_c, 1, 75, 102
4, 256116, Pitch_bend_c, 1, 8238
4, 256148, Pitch_bend_c, 1, 8362
4, 256180, Pitch_bend_c, 1, 8486
4, 256220, Pitch_bend_c, 1, 8640
4, 256252, Pitch_bend_c, 1, 8764
4, 256284, Pitch_bend_c, 1, 8887
4, 256316, Pitch_bend_c, 1, 9011
4, 256348, Pitch_bend_c, 1, 9134
4, 256380, Pitch_bend_c, 1, 9258
4, 256412, Pitch_bend_c, 1, 9382
4, 256444, Pitch_bend_c, 1, 9505
4, 256460, Pitch_bend_c, 1, 9567
4, 256780, Note_off_c, 1, 75, 64
4, 256780, Note_on_c, 1, 75, 102
4, 256796, Pitch_bend_c, 1, 9507
4, 256828, Pitch_bend_c, 1, 9348
4, 256860, Pitch_bend_c, 1, 9188
4, 256892, Pitch_bend_c, 1, 9029
4, 256932, Pitch_bend_c, 1, 8830
4, 256964, Pitch_bend_c, 1, 8670
4, 256996, Pitch_bend_c, 1, 8511
4, 257028, Pitch_bend_c, 1, 8351
4, 257052, Pitch_bend_c, 1, 8232
4, 257060, Pitch_bend_c, 1, 8192
4, 257180, Pitch_bend_c, 1, 6842
4, 257260, Note_off_c, 1, 75, 64
4, 257260, Pitch_bend_c, 1, 8192
4, 257260, Note_on_c, 1, 73, 102
4, 257300, Pitch_bend_c, 1, 9567
4, 257316, Control_c, 1, 1, 5
4, 257332, Control_c, 1, 1, 12
4, 257348, Control_c, 1, 1, 19
4, 257364, Control_c, 1, 1, 26
4, 257392, Control_c, 1, 1, 38
4, 257412, Control_c, 1, 1, 47
4, 257420, Control_c, 1, 1, 50
4, 257980, Control_c, 1, 1, 0
4, 257980, Pitch_bend_c, 1, 8192
4, 257980, Note_on_c, 1, 73, 102
4, 258016, Pitch_bend_c, 1, 8256
4, 258020, Note_off_c, 1, 73, 64
4, 258048, Pitch_bend_c, 1, 8428
4, 258080, Pitch_bend_c, 1, 8600
4, 258112, Pitch_bend_c, 1, 8772
4, 258144, Pitch_bend_c, 1, 8944
4, 258180, Pitch_bend_c, 1, 9137
4, 258212, Pitch_bend_c, 1, 9309
4, 258244, Pitch_bend_c, 1, 9481
4, 258260, Pitch_bend_c, 1, 9567
4, 258500, Note_off_c, 1, 73, 64
4, 258500, Pitch_bend_c, 1, 8192
4, 258500, Note_on_c, 1, 75, 102
4, 258740, Note_off_c, 1, 75, 64
4, 258740, Note_on_c, 1, 73, 102
4, 258980, Note_off_c, 1, 73, 64
4, 258980, Note_on_c, 1, 70, 102
4, 259220, Note_off_c, 1, 70, 64
4, 259220, Pitch_bend_c, 1, 8892
4, 259220, Note_on_c, 1, 68, 102
4, 259236, Pitch_bend_c, 1, 8856
4, 259268, Pitch_bend_c, 1, 8761
4, 259300, Pitch_bend_c, 1, 8667
4, 259332, Pitch_bend_c, 1, 8572
4, 259364, Pitch_bend_c, 1, 8477
4, 259396, Pitch_bend_c, 1, 8382
4, 259428, Pitch_bend_c, 1, 8287
4, 259444, Pitch_bend_c, 1, 8239
4, 259460, Pitch_bend_c, 1, 8192
4, 259580, Pitch_bend_c, 1, 6842
4, 259700, Note_off_c, 1, 68, 64
4, 259700, Pitch_bend_c, 1, 8192
4, 259700, Note_on_c, 1, 68, 102
4, 259732, Control_c, 1, 1, 5
4, 259748, Control_c, 1, 1, 13
4, 259764, Control_c, 1, 1, 20
4, 259780, Control_c, 1, 1, 27
4, 259796, Control_c, 1, 1, 34
4, 259820, Control_c, 1, 1, 45
4, 260060, Note_off_c, 1, 68, 64
4, 260060, Control_c, 1, 1, 0
4, 260060, Note_on_c, 1, 66, 102
4, 260180, Note_off_c, 1, 66, 64
4, 260180, Note_on_c, 1, 68, 95
4, 260212, Control_c, 1, 1, 5
4, 260228, Control_c, 1, 1, 11
4, 260260, Control_c, 1, 1, 23
4, 260276, Control_c, 1, 1, 29
4, 260320, Control_c, 1, 1, 45
4, 260660, Note_off_c, 1, 68, 64
4, 260660, Control_c, 1, 1, 0
4, 260660, Note_on_c, 1, 66, 102
4, 260900, Note_off_c, 1, 66, 64
4, 260900, Note_on_c, 1, 68, 102
4, 260916, Pitch_bend_c, 1, 8262
4, 260980, Pitch_bend_c, 1, 8635
4, 261012, Pitch_bend_c, 1, 8821
4, 261044, Pitch_bend_c, 1, 9008
4, 261076, Pitch_bend_c, 1, 9194
4, 261108, Pitch_bend_c, 1, 9381
4, 261140, Pitch_bend_c, 1, 9567
4, 261380, Note_off_c, 1, 68, 64
4, 261380, Pitch_bend_c, 1, 8192
4, 261380, Note_on_c, 1, 66, 102
4, 261620, Note_off_c, 1, 66, 64
4, 261620, Note_on_c, 1, 68, 95
4, 261860, Note_off_c, 1, 68, 64
4, 261860, Note_on_c, 1, 66, 102
4, 262100, Note_off_c, 1, 66, 64
4, 262100, Note_on_c, 1, 68, 95
4, 262108, Pitch_bend_c, 1, 8223
4, 262140, Pitch_bend_c, 1, 8473
4, 262172, Pitch_bend_c, 1, 8723
4, 262204, Pitch_bend_c, 1, 8973
4, 262236, Pitch_bend_c, 1, 9223
4, 262268, Pitch_bend_c, 1, 9473
4, 262280, Pitch_bend_c, 1, 9567
4, 262460, Note_off_c, 1, 68, 64
4, 262460, Pitch_bend_c, 1, 8192
4, 262460, Note_on_c, 1, 68, 102
4, 262468, Pitch_bend_c, 1, 8239
4, 262484, Pitch_bend_c, 1, 8429
4, 262500, Pitch_bend_c, 1, 8619
4, 262516, Pitch_bend_c, 1, 8808
4, 262532, Pitch_bend_c, 1, 8998
4, 262548, Pitch_bend_c, 1, 9188
4, 262564, Pitch_bend_c, 1, 9377
4, 262580, Pitch_bend_c, 1, 9567
4, 262700, Note_off_c, 1, 68, 64
4, 262700, Pitch_bend_c, 1, 8192
4, 262700, Note_on_c, 1, 66, 102
4, 262820, Note_off_c, 1, 66, 64
4, 262820, Note_on_c, 1, 68, 102
4, 262828, Pitch_bend_c, 1, 8239
4, 262844, Pitch_bend_c, 1, 8429
4, 262860, Pitch_bend_c, 1, 8619
4, 262876, Pitch_bend_c, 1, 8808
4, 262892, Pitch_bend_c, 1, 8998
4, 262908, Pitch_bend_c, 1, 9188
4, 262924, Pitch_bend_c, 1, 9377
4, 262940, Pitch_bend_c, 1, 9567
4, 263060, Note_off_c, 1, 68, 64
4, 263060, Pitch_bend_c, 1, 8192
4, 263060, Note_on_c, 1, 78, 89
4, 263060, Note_on_c, 1, 73, 89
4, 263300, Note_off_c, 1, 73, 64
4, 263300, Note_off_c, 1, 78, 64
4, 263300, Note_on_c, 1, 68, 102
4, 263308, Pitch_bend_c, 1, 8239
4, 263324, Pitch_bend_c, 1, 8429
4, 263340, Pitch_bend_c, 1, 8619
4, 263356, Pitch_bend_c, 1, 8808
4, 263372, Pitch_bend_c, 1, 8998
4, 263388, Pitch_bend_c, 1, 9188
4, 263404, Pitch_bend_c, 1, 9377
4, 263420, Pitch_bend_c, 1, 9567
4, 263540, Note_off_c, 1, 68, 64
4, 263540, Pitch_bend_c, 1, 8192
4, 263540, Note_on_c, 1, 78, 89
4, 263540, Note_on_c, 1, 73, 89
4, 263660, Note_off_c, 1, 73, 64
4, 263660, Note_off_c, 1, 78, 64
4, 263660, Note_on_c, 1, 68, 102
4, 263668, Pitch_bend_c, 1, 8239
4, 263684, Pitch_bend_c, 1, 8429
4, 263700, Pitch_bend_c, 1, 8619
4, 263716, Pitch_bend_c, 1, 8808
4, 263732, Pitch_bend_c, 1, 8998
4, 263748, Pitch_bend_c, 1, 9188
4, 263764, Pitch_bend_c, 1, 9377
4, 263780, Pitch_bend_c, 1, 9567
4, 263900, Note_off_c, 1, 68, 64
4, 263900, Pitch_bend_c, 1, 8192
4, 263900, Note_on_c, 1, 78, 89
4, 263980, Note_off_c, 1, 78, 64
4, 263980, Note_on_c, 1, 68, 102
4, 263988, Pitch_bend_c, 1, 8249
4, 264004, Pitch_bend_c, 1, 8478
4, 264020, Pitch_bend_c, 1, 8708
4, 264036, Pitch_bend_c, 1, 8937
4, 264052, Pitch_bend_c, 1, 9166
4, 264068, Pitch_bend_c, 1, 9395
4, 264080, Pitch_bend_c, 1, 9567
4, 264088, Pitch_bend_c, 1, 9461
4, 264104, Pitch_bend_c, 1, 9038
4, 264120, Pitch_bend_c, 1, 8615
4, 264132, Pitch_bend_c, 1, 8298
4, 264140, Pitch_bend_c, 1, 8192
4, 264260, Pitch_bend_c, 1, 6842
4, 264380, Note_off_c, 1, 68, 64
4, 264380, Pitch_bend_c, 1, 8192
4, 264380, Note_on_c, 1, 63, 102
4, 264500, Note_off_c, 1, 63, 64
4, 264500, Note_on_c, 1, 68, 102
4, 264620, Pitch_bend_c, 1, 6842
4, 264740, Note_off_c, 1, 68, 64
4, 264740, Pitch_bend_c, 1, 8192
4, 264740, Note_on_c, 1, 63, 102
4, 264860, Note_off_c, 1, 63, 64
4, 264860, Note_on_c, 1, 44, 89
4, 264860, Note_on_c, 1, 49, 89
4, 264920, Note_off_c, 1, 49, 64
4, 264920, Note_off_c, 1, 44, 64
4, 264980, Note_on_c, 1, 66, 102
4, 265460, Note_off_c, 1, 66, 64
4, 265460, Note_on_c, 1, 63, 102
4, 265580, Pitch_bend_c, 1, 6842
4, 265700, Pitch_bend_c, 1, 8192
4, 265700, Note_on_c, 1, 63, 102
4, 265820, Note_off_c, 1, 63, 64
4, 266180, Note_off_c, 1, 63, 64
4, 266180, Note_on_c, 1, 49, 89
4, 266180, Note_on_c, 1, 44, 89
4, 266240, Note_off_c, 1, 44, 64
4, 266240, Note_off_c, 1, 49, 64
4, 266300, Note_on_c, 1, 49, 89
4, 266300, Note_on_c, 1, 44, 89
4, 266360, Note_off_c, 1, 44, 64
4, 266360, Note_off_c, 1, 49, 64
4, 266420, Note_on_c, 1, 66, 102
4, 266540, Pitch_bend_c, 1, 9567
4, 266660, Pitch_bend_c, 1, 8192
4, 266780, Note_off_c, 1, 66, 64
4, 266780, Note_on_c, 1, 63, 102
4, 266900, Note_off_c, 1, 63, 64
4, 266900, Note_on_c, 1, 66, 102
4, 267380, Note_off_c, 1, 66, 64
4, 267380, Note_on_c, 1, 63, 102
4, 267500, Pitch_bend_c, 1, 6842
4, 267620, Pitch_bend_c, 1, 8192
4, 267620, Note_on_c, 1, 63, 102
4, 267740, Note_off_c, 1, 63, 64
4, 268100, Note_off_c, 1, 63, 64
4, 268100, Note_on_c, 1, 49, 89
4, 268100, Note_on_c, 1, 44, 89
4, 268160, Note_off_c, 1, 44, 64
4, 268160, Note_off_c, 1, 49, 64
4, 268220, Note_on_c, 1, 49, 89
4, 268220, Note_on_c, 1, 44, 89
4, 268280, Note_off_c, 1, 44, 64
4, 268280, Note_off_c, 1, 49, 64
4, 268340, Note_on_c, 1, 66, 102
4, 268460, Pitch_bend_c, 1, 9567
4, 268580, Pitch_bend_c, 1, 8192
4, 268700, Note_off_c, 1, 66, 64
4, 268700, Note_on_c, 1, 63, 102
4, 268820, Note_off_c, 1, 63, 64
4, 268820, Note_on_c, 1, 66, 102
4, 268940, Note_off_c, 1, 66, 64
4, 268940, Note_on_c, 1, 66, 102
4, 269060, Note_off_c, 1, 66, 64
4, 269060, Note_on_c, 1, 63, 102
4, 269180, Pitch_bend_c, 1, 6842
4, 269300, Note_off_c, 1, 63, 64
4, 269300, Pitch_bend_c, 1, 8192
4, 269300, Note_on_c, 1, 68, 102
4, 269420, Note_off_c, 1, 68, 64
4, 269420, Note_on_c, 1, 68, 102
4, 269540, Pitch_bend_c, 1, 6842
4, 269660, Note_off_c, 1, 68, 64
4, 269660, Pitch_bend_c, 1, 8192
4, 269660, Note_on_c, 1, 68, 102
4, 269780, Note_off_c, 1, 68, 64
4, 269780, Note_on_c, 1, 70, 102
4, 269900, Note_off_c, 1, 70, 64
4, 269900, Note_on_c, 1, 70, 102
4, 270020, Note_off_c, 1, 70, 64
4, 270020, Note_on_c, 1, 68, 102
4, 270140, Pitch_bend_c, 1, 6842
4, 270260, Note_off_c, 1, 68, 64
4, 270260, Pitch_bend_c, 1, 8192
4, 270260, Note_on_c, 1, 73, 102
4, 270380, Note_off_c, 1, 73, 64
4, 270380, Note_on_c, 1, 73, 102
4, 270500, Pitch_bend_c, 1, 6142
4, 270620, Note_off_c, 1, 73, 64
4, 270620, Pitch_bend_c, 1, 8192
4, 270620, Note_on_c, 1, 68, 102
4, 270740, Note_off_c, 1, 68, 64
4, 270740, Note_on_c, 1, 75, 102
4, 270860, Note_off_c, 1, 75, 64
4, 270860, Note_on_c, 1, 75, 102
4, 270980, Note_off_c, 1, 75, 64
4, 270980, Note_on_c, 1, 73, 102
4, 271100, Pitch_bend_c, 1, 6142
4, 271220, Note_off_c, 1, 73, 64
4, 271220, Pitch_bend_c, 1, 8192
4, 271220, Note_on_c, 1, 78, 102
4, 271340, Note_off_c, 1, 78, 64
4, 271340, Note_on_c, 1, 78, 102
4, 271460, Pitch_bend_c, 1, 6142
4, 271700, Note_off_c, 1, 78, 64
4, 271700, Pitch_bend_c, 1, 8192
4, 271700, Note_on_c, 1, 78, 102
4, 271940, Note_off_c, 1, 78, 64
4, 271940, Note_on_c, 1, 77, 102
4, 272180, Note_off_c, 1, 77, 64
4, 272180, Note_on_c, 1, 73, 102
4, 272260, Note_off_c, 1, 73, 64
4, 272260, Note_on_c, 1, 75, 102
4, 272340, Pitch_bend_c, 1, 10267
4, 272420, Pitch_bend_c, 1, 8192
4, 272540, Note_off_c, 1, 75, 64
4, 272540, Note_on_c, 1, 73, 102
4, 272548, Pitch_bend_c, 1, 8239
4, 272564, Pitch_bend_c, 1, 8429
4, 272580, Pitch_bend_c, 1, 8619
4, 272596, Pitch_bend_c, 1, 8808
4, 272612, Pitch_bend_c, 1, 8998
4, 272628, Pitch_bend_c, 1, 9188
4, 272644, Pitch_bend_c, 1, 9377
4, 272660, Pitch_bend_c, 1, 9567
4, 272780, Note_off_c, 1, 73, 64
4, 272780, Pitch_bend_c, 1, 8192
4, 272780, Note_on_c, 1, 75, 102
4, 272900, Note_off_c, 1, 75, 64
4, 272900, Note_on_c, 1, 73, 102
4, 273020, Pitch_bend_c, 1, 6142
4, 273100, Note_off_c, 1, 73, 64
4, 273100, Pitch_bend_c, 1, 8192
4, 273100, Note_on_c, 1, 68, 102
4, 273108, Pitch_bend_c, 1, 8227
4, 273124, Pitch_bend_c, 1, 8368
4, 273140, Pitch_bend_c, 1, 8509
4, 273156, Pitch_bend_c, 1, 8650
4, 273172, Pitch_bend_c, 1, 8791
4, 273188, Pitch_bend_c, 1, 8932
4, 273204, Pitch_bend_c, 1, 9073
4, 273220, Pitch_bend_c, 1, 9214
4, 273236, Pitch_bend_c, 1, 9355
4, 273252, Pitch_bend_c, 1, 9496
4, 273260, Pitch_bend_c, 1, 9567
4, 273380, Note_off_c, 1, 68, 64
4, 273380, Pitch_bend_c, 1, 8192
4, 273380, Note_on_c, 1, 75, 102
4, 273460, Note_off_c, 1, 75, 64
4, 273460, Note_on_c, 1, 73, 102
4, 273540, Pitch_bend_c, 1, 6142
4, 273580, Note_off_c, 1, 73, 64
4, 273580, Pitch_bend_c, 1, 8192
4, 273580, Note_on_c, 1, 73, 102
4, 273588, Pitch_bend_c, 1, 8227
4, 273604, Pitch_bend_c, 1, 8368
4, 273620, Pitch_bend_c, 1, 8509
4, 273636, Pitch_bend_c, 1, 8650
4, 273652, Pitch_bend_c, 1, 8791
4, 273668, Pitch_bend_c, 1, 8932
4, 273684, Pitch_bend_c, 1, 9073
4, 273700, Pitch_bend_c, 1, 9214
4, 273716, Pitch_bend_c, 1, 9355
4, 273740, Pitch_bend_c, 1, 9567
4, 273860, Note_off_c, 1, 73, 64
4, 273860, Pitch_bend_c, 1, 8192
4, 273860, Note_on_c, 1, 75, 102
4, 273940, Note_off_c, 1, 75, 64
4, 273940, Note_on_c, 1, 73, 102
4, 274020, Pitch_bend_c, 1, 6142
4, 274060, Note_off_c, 1, 73, 64
4, 274060, Pitch_bend_c, 1, 8192
4, 274060, Note_on_c, 1, 68, 102
4, 274068, Pitch_bend_c, 1, 8227
4, 274084, Pitch_bend_c, 1, 8368
4, 274100, Pitch_bend_c, 1, 8509
4, 274116, Pitch_bend_c, 1, 8650
4, 274132, Pitch_bend_c, 1, 8791
4, 274148, Pitch_bend_c, 1, 8932
4, 274164, Pitch_bend_c, 1, 9073
4, 274180, Pitch_bend_c, 1, 9214
4, 274196, Pitch_bend_c, 1, 9355
4, 274220, Pitch_bend_c, 1, 9567
4, 274340, Note_off_c, 1, 68, 64
4, 274340, Pitch_bend_c, 1, 8192
4, 274340, Note_on_c, 1, 75, 102
4, 274420, Note_off_c, 1, 75, 64
4, 274420, Note_on_c, 1, 73, 102
4, 274500, Pitch_bend_c, 1, 6142
4, 274540, Note_off_c, 1, 73, 64
4, 274540, Note_on_c, 1, 73, 102
4, 274548, Pitch_bend_c, 1, 8227
4, 274564, Pitch_bend_c, 1, 8368
4, 274580, Pitch_bend_c, 1, 8509
4, 274596, Pitch_bend_c, 1, 8650
4, 274612, Pitch_bend_c, 1, 8791
4, 274628, Pitch_bend_c, 1, 8932
4, 274644, Pitch_bend_c, 1, 9073
4, 274660, Pitch_bend_c, 1, 9214
4, 274676, Pitch_bend_c, 1, 9355
4, 274700, Pitch_bend_c, 1, 9567
4, 274820, Note_off_c, 1, 73, 64
4, 274820, Pitch_bend_c, 1, 8192
4, 274820, Note_on_c, 1, 75, 102
4, 274900, Note_off_c, 1, 75, 64
4, 274900, Note_on_c, 1, 73, 102
4, 274980, Note_off_c, 1, 73, 64
4, 275020, Note_on_c, 1, 68, 102
4, 275028, Pitch_bend_c, 1, 8227
4, 275044, Pitch_bend_c, 1, 8368
4, 275060, Pitch_bend_c, 1, 8509
4, 275076, Pitch_bend_c, 1, 8650
4, 275092, Pitch_bend_c, 1, 8791
4, 275108, Pitch_bend_c, 1, 8932
4, 275124, Pitch_bend_c, 1, 9073
4, 275140, Pitch_bend_c, 1, 9214
4, 275156, Pitch_bend_c, 1, 9355
4, 275180, Pitch_bend_c, 1, 9567
4, 275300, Note_off_c, 1, 68, 64
4, 275300, Pitch_bend_c, 1, 8192
4, 275300, Note_on_c, 1, 75, 102
4, 275380, Note_off_c, 1, 75, 64
4, 275380, Note_on_c, 1, 73, 102
4, 275460, Pitch_bend_c, 1, 6142
4, 275500, Note_off_c, 1, 73, 64
4, 275500, Note_on_c, 1, 73, 102
4, 275508, Pitch_bend_c, 1, 8227
4, 275524, Pitch_bend_c, 1, 8368
4, 275540, Pitch_bend_c, 1, 8509
4, 275556, Pitch_bend_c, 1, 8650
4, 275572, Pitch_bend_c, 1, 8791
4, 275592, Pitch_bend_c, 1, 8968
4, 275612, Pitch_bend_c, 1, 9144
4, 275628, Pitch_bend_c, 1, 9285
4, 275644, Pitch_bend_c, 1, 9426
4, 275660, Pitch_bend_c, 1, 9567
4, 275780, Note_off_c, 1, 73, 64
4, 275780, Note_on_c, 1, 75, 102
4, 275860, Note_off_c, 1, 75, 64
4, 275860, Note_on_c, 1, 73, 102
4, 275940, Pitch_bend_c, 1, 6142
4, 275980, Note_off_c, 1, 73, 64
4, 275980, Note_on_c, 1, 68, 102
4, 275988, Pitch_bend_c, 1, 8249
4, 276004, Pitch_bend_c, 1, 8478
4, 276020, Pitch_bend_c, 1, 8708
4, 276036, Pitch_bend_c, 1, 8937
4, 276052, Pitch_bend_c, 1, 9166
4, 276072, Pitch_bend_c, 1, 9452
4, 276080, Pitch_bend_c, 1, 9567
4, 276100, Note_off_c, 1, 68, 64
4, 276100, Pitch_bend_c, 1, 8192
4, 276100, Note_on_c, 1, 70, 102
4, 276180, Note_off_c, 1, 70, 64
4, 276180, Note_on_c, 1, 75, 102
4, 276260, Note_off_c, 1, 75, 64
4, 276260, Note_on_c, 1, 73, 102
4, 276340, Pitch_bend_c, 1, 6142
4, 276420, Note_off_c, 1, 73, 64
4, 276420, Pitch_bend_c, 1, 8192
4, 276420, Note_on_c, 1, 78, 93
4, 276632, Pitch_bend_c, 1, 8261
4, 276668, Pitch_bend_c, 1, 8469
4, 276700, Pitch_bend_c, 1, 8653
4, 276732, Pitch_bend_c, 1, 8838
4, 276764, Pitch_bend_c, 1, 9022
4, 276796, Pitch_bend_c, 1, 9206
4, 276836, Pitch_bend_c, 1, 9437
4, 276864, Pitch_bend_c, 1, 9598
4, 276896, Pitch_bend_c, 1, 9783
4, 276928, Pitch_bend_c, 1, 9967
4, 276960, Pitch_bend_c, 1, 10152
4, 276980, Pitch_bend_c, 1, 10267
4, 277580, Note_off_c, 1, 78, 64
4, 277580, Pitch_bend_c, 1, 8192
4, 277580, Note_on_c, 1, 78, 102
4, 277632, Control_c, 1, 1, 7
4, 277648, Control_c, 1, 1, 16
4, 277664, Control_c, 1, 1, 25
4, 277680, Control_c, 1, 1, 34
4, 277700, Control_c, 1, 1, 45
4, 277940, Note_off_c, 1, 78, 64
4, 277940, Control_c, 1, 1, 0
4, 277940, Note_on_c, 1, 75, 102
4, 278020, Pitch_bend_c, 1, 10267
4, 278100, Pitch_bend_c, 1, 8192
4, 278180, Note_off_c, 1, 75, 64
4, 278180, Note_on_c, 1, 73, 102
4, 278300, Note_off_c, 1, 73, 64
4, 278300, Note_on_c, 1, 75, 102
4, 278380, Note_off_c, 1, 75, 64
4, 278380, Note_on_c, 1, 73, 102
4, 278388, Pitch_bend_c, 1, 8249
4, 278404, Pitch_bend_c, 1, 8478
4, 278420, Pitch_bend_c, 1, 8708
4, 278436, Pitch_bend_c, 1, 8937
4, 278452, Pitch_bend_c, 1, 9166
4, 278468, Pitch_bend_c, 1, 9395
4, 278480, Pitch_bend_c, 1, 9567
4, 278540, Note_off_c, 1, 73, 64
4, 278540, Pitch_bend_c, 1, 8192
4, 278540, Note_on_c, 1, 75, 102
4, 278660, Note_off_c, 1, 75, 64
4, 278660, Note_on_c, 1, 73, 102
4, 278780, Pitch_bend_c, 1, 6142
4, 278860, Note_off_c, 1, 73, 64
4, 278860, Pitch_bend_c, 1, 8192
4, 278860, Note_on_c, 1, 68, 102
4, 278868, Pitch_bend_c, 1, 8345
4, 278876, Pitch_bend_c, 1, 8650
4, 278884, Pitch_bend_c, 1, 8956
4, 278892, Pitch_bend_c, 1, 9261
4, 278900, Pitch_bend_c, 1, 9567
4, 278916, Pitch_bend_c, 1, 9350
4, 278932, Pitch_bend_c, 1, 9060
4, 278948, Pitch_bend_c, 1, 8771
4, 278964, Pitch_bend_c, 1, 8481
4, 278972, Pitch_bend_c, 1, 8337
4, 278980, Pitch_bend_c, 1, 8192
4, 279060, Pitch_bend_c, 1, 6842
4, 279100, Note_off_c, 1, 68, 64
4, 279100, Pitch_bend_c, 1, 8192
4, 279100, Note_on_c, 1, 68, 102
4, 279128, Pitch_bend_c, 1, 8232
4, 279144, Pitch_bend_c, 1, 8394
4, 279160, Pitch_bend_c, 1, 8556
4, 279176, Pitch_bend_c, 1, 8718
4, 279192, Pitch_bend_c, 1, 8880
4, 279208, Pitch_bend_c, 1, 9041
4, 279224, Pitch_bend_c, 1, 9203
4, 279240, Pitch_bend_c, 1, 9365
4, 279260, Pitch_bend_c, 1, 9567
4, 279500, Note_off_c, 1, 68, 64
4, 279500, Pitch_bend_c, 1, 8192
4, 279500, Note_on_c, 1, 73, 102
4, 279580, Note_off_c, 1, 73, 64
4, 279580, Note_on_c, 1, 68, 102
4, 279608, Pitch_bend_c, 1, 8264
4, 279624, Pitch_bend_c, 1, 8554
4, 279640, Pitch_bend_c, 1, 8843
4, 279656, Pitch_bend_c, 1, 9133
4, 279672, Pitch_bend_c, 1, 9422
4, 279680, Pitch_bend_c, 1, 9567
4, 279688, Pitch_bend_c, 1, 9469
4, 279696, Pitch_bend_c, 1, 9272
4, 279704, Pitch_bend_c, 1, 9076
4, 279712, Pitch_bend_c, 1, 8879
4, 279720, Pitch_bend_c, 1, 8683
4, 279728, Pitch_bend_c, 1, 8487
4, 279736, Pitch_bend_c, 1, 8290
4, 279740, Pitch_bend_c, 1, 8192
4, 279860, Pitch_bend_c, 1, 6842
4, 279980, Note_off_c, 1, 68, 64
4, 279980, Pitch_bend_c, 1, 8192
4, 279980, Note_on_c, 1, 63, 102
4, 280100, Note_off_c, 1, 63, 64
4, 280100, Note_on_c, 1, 68, 102
4, 280180, Pitch_bend_c, 1, 6842
4, 280260, Note_off_c, 1, 68, 64
4, 280260, Pitch_bend_c, 1, 8192
4, 280260, Note_on_c, 1, 63, 102
4, 280340, Note_off_c, 1, 63, 64
4, 280340, Note_on_c, 1, 66, 76
4, 280460, Control_c, 1, 11, 120
4, 280572, Control_c, 1, 11, 112
4, 280684, Control_c, 1, 11, 104
4, 280796, Control_c, 1, 11, 96
4, 280832, Pitch_bend_c, 1, 8020
4, 280864, Pitch_bend_c, 1, 7562
4, 280896, Pitch_bend_c, 1, 7103
4, 280908, Control_c, 1, 11, 88
4, 280928, Pitch_bend_c, 1, 6645
4, 280960, Pitch_bend_c, 1, 6187
4, 280992, Pitch_bend_c, 1, 5728
4, 281020, Control_c, 1, 11, 80
4, 281024, Pitch_bend_c, 1, 5270
4, 281072, Pitch_bend_c, 1, 4583
4, 281104, Pitch_bend_c, 1, 4124
4, 281136, Pitch_bend_c, 1, 3666
4, 281160, Control_c, 1, 11, 70
4, 281168, Pitch_bend_c, 1, 3208
4, 281172, Control_c, 1, 11, 69
4, 281188, Control_c, 1, 11, 68
4, 281200, Control_c, 1, 11, 67
4, 281200, Pitch_bend_c, 1, 2749
4, 281216, Control_c, 1, 11, 66
4, 281228, Control_c, 1, 11, 65
4, 281232, Pitch_bend_c, 1, 2291
4, 281244, Control_c, 1, 11, 64
4, 281256, Control_c, 1, 11, 63
4, 281264, Pitch_bend_c, 1, 1833
4, 281272, Control_c, 1, 11, 62
4, 281284, Control_c, 1, 11, 61
4, 281296, Pitch_bend_c, 1, 1374
4, 281300, Note_off_c, 1, 66, 64
4, 281300, Control_c, 1, 11, 60
4, 281300, Pitch_bend_c, 1, 1317
4, 282260, Pitch_bend_c, 1, 8192
4, 282260, Control_c, 1, 11, 127
4, 284420, Pitch_bend_c, 1, 8192
4, 284420, Note_on_c, 1, 58, 51
4, 284420, Note_on_c, 1, 54, 51
4, 284420, Note_on_c, 1, 49, 51
4, 284460, Note_off_c, 1, 49, 64
4, 284460, Note_off_c, 1, 54, 64
4, 284460, Note_off_c, 1, 58, 64
4, 284540, Note_on_c, 1, 58, 51
4, 284540, Note_on_c, 1, 54, 51
4, 284540, Note_on_c, 1, 49, 51
4, 284580, Note_off_c, 1, 49, 64
4, 284580, Note_off_c, 1, 54, 64
4, 284580, Note_off_c, 1, 58, 64
4, 284660, Note_on_c, 1, 58, 76
4, 284660, Note_on_c, 1, 54, 76
4, 284660, Note_on_c, 1, 49, 76
4, 284700, Note_off_c, 1, 49, 64
4, 284700, Note_off_c, 1, 54, 64
4, 284700, Note_off_c, 1, 58, 64
4, 284780, Note_on_c, 1, 58, 76
4, 284780, Note_on_c, 1, 54, 76
4, 284780, Note_on_c, 1, 49, 76
4, 284820, Note_off_c, 1, 49, 64
4, 284820, Note_off_c, 1, 54, 64
4, 284820, Note_off_c, 1, 58, 64
4, 284900, Note_on_c, 1, 58, 76
4, 284900, Note_on_c, 1, 54, 76
4, 284900, Note_on_c, 1, 49, 76
4, 284940, Note_off_c, 1, 49, 64
4, 284940, Note_off_c, 1, 54, 64
4, 284940, Note_off_c, 1, 58, 64
4, 287780, Note_on_c, 1, 61, 76
4, 287780, Note_on_c, 1, 56, 76
4, 287780, Note_on_c, 1, 49, 76
4, 287840, Note_off_c, 1, 49, 64
4, 287840, Note_off_c, 1, 56, 64
4, 287840, Note_off_c, 1, 61, 64
4, 287900, Note_on_c, 1, 61, 76
4, 287900, Note_on_c, 1, 56, 76
4, 287900, Note_on_c, 1, 49, 76
4, 287960, Note_off_c, 1, 49, 64
4, 287960, Note_off_c, 1, 56, 64
4, 287960, Note_off_c, 1, 61, 64
4, 287996, Note_on_c, 1, 61, 102
4, 288020, Pitch_bend_c, 1, 9567
4, 288736, Note_off_c, 1, 61, 64
4, 288740, Pitch_bend_c, 1, 8192
4, 288740, Note_on_c, 1, 65, 32
4, 289940, Note_off_c, 1, 65, 64
4, 291140, Note_on_c, 1, 61, 83
4, 291140, Note_on_c, 1, 56, 83
4, 291140, Note_on_c, 1, 49, 83
4, 291200, Note_off_c, 1, 49, 64
4, 291200, Note_off_c, 1, 56, 64
4, 291200, Note_off_c, 1, 61, 64
4, 291380, Note_on_c, 1, 49, 64
4, 291380, Note_on_c, 1, 56, 64
4, 291380, Note_on_c, 1, 61, 64
4, 291440, Note_off_c, 1, 61, 64
4, 291440, Note_off_c, 1, 56, 64
4, 291440, Note_off_c, 1, 49, 64
4, 291620, Note_on_c, 1, 61, 83
4, 291620, Note_on_c, 1, 56, 83
4, 291620, Note_on_c, 1, 49, 83
4, 291680, Note_off_c, 1, 49, 64
4, 291680, Note_off_c, 1, 56, 64
4, 291680, Note_off_c, 1, 61, 64
4, 295340, Note_on_c, 1, 61, 76
4, 295340, Note_on_c, 1, 56, 76
4, 295340, Note_on_c, 1, 49, 76
4, 295400, Note_off_c, 1, 49, 64
4, 295400, Note_off_c, 1, 56, 64
4, 295400, Note_off_c, 1, 61, 64
4, 295460, Note_on_c, 1, 56, 76
4, 295460, Note_on_c, 1, 61, 76
4, 295460, Note_on_c, 1, 49, 76
4, 295520, Note_off_c, 1, 49, 64
4, 295520, Note_off_c, 1, 61, 64
4, 295520, Note_off_c, 1, 56, 64
4, 295580, Note_on_c, 1, 56, 76
4, 295580, Note_on_c, 1, 61, 76
4, 295580, Note_on_c, 1, 49, 76
4, 295640, Note_off_c, 1, 49, 64
4, 295640, Note_off_c, 1, 61, 64
4, 295640, Note_off_c, 1, 56, 64
4, 295700, Note_on_c, 1, 56, 102
4, 295820, Pitch_bend_c, 1, 6842
4, 295940, Note_off_c, 1, 56, 64
4, 297380, Pitch_bend_c, 1, 8192
4, 297380, Note_on_c, 1, 61, 83
4, 297380, Note_on_c, 1, 56, 83
4, 297380, Note_on_c, 1, 49, 83
4, 297440, Note_off_c, 1, 49, 64
4, 297440, Note_off_c, 1, 56, 64
4, 297440, Note_off_c, 1, 61, 64
4, 297500, Note_on_c, 1, 61, 83
4, 297500, Note_on_c, 1, 56, 83
4, 297500, Note_on_c, 1, 49, 83
4, 297560, Note_off_c, 1, 49, 64
4, 297560, Note_off_c, 1, 56, 64
4, 297560, Note_off_c, 1, 61, 64
4, 297620, Note_on_c, 1, 56, 102
4, 297740, Pitch_bend_c, 1, 6842
4, 297860, Note_off_c, 1, 56, 64
4, 297860, Pitch_bend_c, 1, 8192
4, 297860, Note_on_c, 1, 51, 102
4, 297980, Pitch_bend_c, 1, 6842
4, 298100, Note_off_c, 1, 51, 64
4, 298100, Pitch_bend_c, 1, 8192
4, 298100, Note_on_c, 1, 46, 102
4, 298220, Pitch_bend_c, 1, 6842
4, 298340, Pitch_bend_c, 1, 5467
4, 298580, Note_off_c, 1, 46, 64
4, 301220, Control_c, 1, 11, 95
4, 301220, Pitch_bend_c, 1, 8192
4, 301220, Note_on_c, 1, 61, 121
4, 301340, Pitch_bend_c, 1, 9567
4, 301460, Pitch_bend_c, 1, 8192
4, 301540, Pitch_bend_c, 1, 9567
4, 301620, Pitch_bend_c, 1, 8192
4, 301700, Pitch_bend_c, 1, 9567
4, 301780, Pitch_bend_c, 1, 8192
4, 301824, Control_c, 1, 11, 98
4, 301860, Pitch_bend_c, 1, 9567
4, 301916, Control_c, 1, 11, 104
4, 301940, Pitch_bend_c, 1, 8192
4, 301976, Control_c, 1, 11, 108
4, 302020, Pitch_bend_c, 1, 9567
4, 302036, Control_c, 1, 11, 112
4, 302100, Pitch_bend_c, 1, 8192
4, 302124, Control_c, 1, 11, 118
4, 302180, Pitch_bend_c, 1, 9567
4, 302216, Control_c, 1, 11, 124
4, 302244, Control_c, 1, 11, 126
4, 302260, Control_c, 1, 11, 127
4, 302260, Pitch_bend_c, 1, 8192
4, 302308, Control_c, 1, 11, 124
4, 302340, Pitch_bend_c, 1, 9567
4, 302368, Control_c, 1, 11, 120
4, 302420, Pitch_bend_c, 1, 8192
4, 302428, Control_c, 1, 11, 116
4, 302488, Control_c, 1, 11, 112
4, 302500, Pitch_bend_c, 1, 9567
4, 302548, Control_c, 1, 11, 108
4, 302580, Pitch_bend_c, 1, 8192
4, 302608, Control_c, 1, 11, 104
4, 302660, Pitch_bend_c, 1, 9567
4, 302664, Control_c, 1, 11, 100
4, 302740, Pitch_bend_c, 1, 8192
4, 302784, Control_c, 1, 11, 97
4, 302820, Pitch_bend_c, 1, 9567
4, 302864, Control_c, 1, 11, 101
4, 302900, Pitch_bend_c, 1, 8192
4, 302940, Control_c, 1, 11, 105
4, 302980, Control_c, 1, 11, 107
4, 302980, Pitch_bend_c, 1, 9567
4, 303060, Control_c, 1, 11, 111
4, 303060, Pitch_bend_c, 1, 8192
4, 303140, Control_c, 1, 11, 115
4, 303140, Pitch_bend_c, 1, 9567
4, 303220, Control_c, 1, 11, 119
4, 303220, Pitch_bend_c, 1, 8192
4, 303296, Control_c, 1, 11, 123
4, 303300, Pitch_bend_c, 1, 9567
4, 303376, Control_c, 1, 11, 127
4, 303380, Note_off_c, 1, 61, 64
4, 303380, Pitch_bend_c, 1, 8192
4, 303380, Note_on_c, 1, 66, 76
4, 303860, Note_off_c, 1, 66, 64
4, 303860, Note_on_c, 1, 63, 64
4, 303876, Pitch_bend_c, 1, 8053
4, 303908, Pitch_bend_c, 1, 7684
4, 303940, Pitch_bend_c, 1, 7314
4, 303972, Pitch_bend_c, 1, 6945
4, 304004, Pitch_bend_c, 1, 6575
4, 304036, Pitch_bend_c, 1, 6206
4, 304068, Pitch_bend_c, 1, 5836
4, 304100, Note_off_c, 1, 63, 64
4, 304100, Pitch_bend_c, 1, 5467
4, 307220, Pitch_bend_c, 1, 9567
4, 307220, Note_on_c, 1, 73, 102
4, 307252, Pitch_bend_c, 1, 9404
4, 307284, Pitch_bend_c, 1, 9217
4, 307324, Pitch_bend_c, 1, 8984
4, 307360, Pitch_bend_c, 1, 8775
4, 307392, Pitch_bend_c, 1, 8588
4, 307424, Pitch_bend_c, 1, 8402
4, 307456, Pitch_bend_c, 1, 8215
4, 307460, Pitch_bend_c, 1, 8192
4, 307700, Note_off_c, 1, 73, 64
4, 307700, Note_on_c, 1, 70, 102
4, 307940, Note_off_c, 1, 70, 64
4, 307940, Note_on_c, 1, 68, 102
4, 308420, Note_off_c, 1, 68, 64
4, 308420, Note_on_c, 1, 66, 102
4, 308660, Note_off_c, 1, 66, 64
4, 308900, Note_on_c, 1, 66, 102
4, 309140, Note_off_c, 1, 66, 64
4, 309140, Note_on_c, 1, 72, 83
4, 309380, Note_off_c, 1, 72, 64
4, 309380, Note_on_c, 1, 75, 95
4, 309620, Note_off_c, 1, 75, 64
4, 310100, Note_on_c, 1, 72, 83
4, 310340, Note_off_c, 1, 72, 64
4, 310340, Note_on_c, 1, 75, 102
4, 310580, Note_off_c, 1, 75, 64
4, 310580, Note_on_c, 1, 75, 102
4, 310780, Note_off_c, 1, 75, 64
4, 310780, Note_on_c, 1, 85, 95
4, 310832, Pitch_bend_c, 1, 8261
4, 310864, Pitch_bend_c, 1, 8444
4, 310896, Pitch_bend_c, 1, 8627
4, 310936, Pitch_bend_c, 1, 8857
4, 310968, Pitch_bend_c, 1, 9040
4, 311004, Pitch_bend_c, 1, 9246
4, 311048, Pitch_bend_c, 1, 9498
4, 311060, Note_off_c, 1, 85, 64
4, 311060, Pitch_bend_c, 1, 9567
4, 311060, Note_on_c, 1, 85, 97
4, 312020, Note_off_c, 1, 85, 64
4, 312020, Note_on_c, 1, 85, 97
4, 312340, Note_off_c, 1, 85, 64
4, 312340, Note_on_c, 1, 85, 97
4, 312660, Note_off_c, 1, 85, 64
4, 312660, Note_on_c, 1, 85, 97
4, 312980, Note_off_c, 1, 85, 64
4, 312980, Note_on_c, 1, 85, 97
4, 313620, Note_off_c, 1, 85, 64
4, 313620, Note_on_c, 1, 85, 97
4, 313816, Control_c, 1, 1, 7
4, 313860, Control_c, 1, 1, 15
4, 313904, Control_c, 1, 1, 23
4, 313944, Control_c, 1, 1, 31
4, 313988, Control_c, 1, 1, 39
4, 314020, Control_c, 1, 1, 45
4, 314900, Note_off_c, 1, 85, 64
4, 314900, Pitch_bend_c, 1, 8192
4, 314900, Control_c, 1, 1, 0
4, 314900, Note_on_c, 1, 75, 85
4, 315180, Note_off_c, 1, 75, 64
4, 315180, Pitch_bend_c, 1, 9567
4, 315180, Note_on_c, 1, 80, 97
4, 315212, Pitch_bend_c, 1, 9459
4, 315244, Pitch_bend_c, 1, 9335
4, 315280, Pitch_bend_c, 1, 9196
4, 315312, Pitch_bend_c, 1, 9073
4, 315348, Pitch_bend_c, 1, 8934
4, 315388, Pitch_bend_c, 1, 8779
4, 315424, Pitch_bend_c, 1, 8640
4, 315456, Pitch_bend_c, 1, 8516
4, 315488, Pitch_bend_c, 1, 8393
4, 315520, Pitch_bend_c, 1, 8269
4, 315540, Pitch_bend_c, 1, 8192
4, 315740, Note_off_c, 1, 80, 64
4, 315820, Pitch_bend_c, 1, 9567
4, 315820, Note_on_c, 1, 80, 97
4, 315852, Pitch_bend_c, 1, 9459
4, 315888, Pitch_bend_c, 1, 9320
4, 315920, Pitch_bend_c, 1, 9196
4, 315956, Pitch_bend_c, 1, 9057
4, 315992, Pitch_bend_c, 1, 8918
4, 316028, Pitch_bend_c, 1, 8779
4, 316068, Pitch_bend_c, 1, 8625
4, 316104, Pitch_bend_c, 1, 8486
4, 316144, Pitch_bend_c, 1, 8331
4, 316180, Pitch_bend_c, 1, 8192
4, 316380, Note_off_c, 1, 80, 64
4, 316460, Pitch_bend_c, 1, 9567
4, 316460, Note_on_c, 1, 80, 97
4, 316700, Note_off_c, 1, 80, 64
4, 316780, Control_c, 1, 11, 80
4, 316780, Pitch_bend_c, 1, 8192
4, 316780, Note_on_c, 1, 80, 121
4, 316796, Pitch_bend_c, 1, 8298
4, 316812, Pitch_bend_c, 1, 8439
4, 316828, Pitch_bend_c, 1, 8580
4, 316844, Pitch_bend_c, 1, 8721
4, 316860, Pitch_bend_c, 1, 8862
4, 316876, Pitch_bend_c, 1, 9003
4, 316892, Pitch_bend_c, 1, 9144
4, 316908, Pitch_bend_c, 1, 9285
4, 316924, Pitch_bend_c, 1, 9426
4, 316940, Pitch_bend_c, 1, 9567
4, 316972, Pitch_bend_c, 1, 9471
4, 317004, Pitch_bend_c, 1, 9360
4, 317036, Pitch_bend_c, 1, 9250
4, 317068, Pitch_bend_c, 1, 9140
4, 317100, Pitch_bend_c, 1, 9030
4, 317132, Pitch_bend_c, 1, 8920
4, 317140, Control_c, 1, 11, 80
4, 317140, Pitch_bend_c, 1, 8892
4, 317204, Pitch_bend_c, 1, 8956
4, 317248, Control_c, 1, 11, 88
4, 317268, Pitch_bend_c, 1, 9024
4, 317332, Control_c, 1, 11, 94
4, 317332, Pitch_bend_c, 1, 9092
4, 317396, Pitch_bend_c, 1, 9159
4, 317440, Control_c, 1, 11, 102
4, 317460, Pitch_bend_c, 1, 9227
4, 317524, Pitch_bend_c, 1, 9295
4, 317548, Control_c, 1, 11, 110
4, 317588, Pitch_bend_c, 1, 9363
4, 317652, Pitch_bend_c, 1, 9431
4, 317656, Control_c, 1, 11, 118
4, 317716, Pitch_bend_c, 1, 9499
4, 317780, Control_c, 1, 11, 127
4, 317780, Pitch_bend_c, 1, 9567
4, 317784, Pitch_bend_c, 1, 9567
4, 317788, Pitch_bend_c, 1, 9544
4, 317792, Pitch_bend_c, 1, 9520
4, 317796, Pitch_bend_c, 1, 9497
4, 317800, Pitch_bend_c, 1, 9474
4, 317804, Pitch_bend_c, 1, 9450
4, 317808, Pitch_bend_c, 1, 9427
4, 317812, Pitch_bend_c, 1, 9404
4, 317816, Pitch_bend_c, 1, 9381
4, 317820, Pitch_bend_c, 1, 9357
4, 317824, Pitch_bend_c, 1, 9334
4, 317828, Pitch_bend_c, 1, 9311
4, 317832, Pitch_bend_c, 1, 9287
4, 317836, Pitch_bend_c, 1, 9264
4, 317840, Pitch_bend_c, 1, 9241
4, 317844, Pitch_bend_c, 1, 9217
4, 317848, Pitch_bend_c, 1, 9194
4, 317852, Pitch_bend_c, 1, 9171
4, 317856, Pitch_bend_c, 1, 9148
4, 317860, Pitch_bend_c, 1, 9124
4, 317864, Pitch_bend_c, 1, 9101
4, 317868, Pitch_bend_c, 1, 9078
4, 317872, Pitch_bend_c, 1, 9054
4, 317876, Pitch_bend_c, 1, 9031
4, 317880, Pitch_bend_c, 1, 9008
4, 317884, Pitch_bend_c, 1, 8984
4, 317888, Pitch_bend_c, 1, 8961
4, 317892, Pitch_bend_c, 1, 8938
4, 317896, Pitch_bend_c, 1, 8914
4, 317900, Pitch_bend_c, 1, 8891
4, 317904, Pitch_bend_c, 1, 8868
4, 317908, Pitch_bend_c, 1, 8845
4, 317912, Pitch_bend_c, 1, 8821
4, 317916, Pitch_bend_c, 1, 8798
4, 317920, Pitch_bend_c, 1, 8775
4, 317924, Pitch_bend_c, 1, 8751
4, 317928, Pitch_bend_c, 1, 8728
4, 317932, Pitch_bend_c, 1, 8705
4, 317936, Pitch_bend_c, 1, 8681
4, 317940, Pitch_bend_c, 1, 8658
4, 317944, Pitch_bend_c, 1, 8635
4, 317948, Pitch_bend_c, 1, 8611
4, 317952, Pitch_bend_c, 1, 8588
4, 317956, Pitch_bend_c, 1, 8565
4, 317960, Pitch_bend_c, 1, 8542
4, 317964, Pitch_bend_c, 1, 8518
4, 317968, Pitch_bend_c, 1, 8495
4, 317972, Pitch_bend_c, 1, 8472
4, 317976, Pitch_bend_c, 1, 8448
4, 317980, Pitch_bend_c, 1, 8425
4, 317984, Pitch_bend_c, 1, 8402
4, 317988, Pitch_bend_c, 1, 8378
4, 317992, Pitch_bend_c, 1, 8355
4, 317996, Pitch_bend_c, 1, 8332
4, 318000, Pitch_bend_c, 1, 8309
4, 318004, Pitch_bend_c, 1, 8285
4, 318008, Pitch_bend_c, 1, 8262
4, 318012, Pitch_bend_c, 1, 8239
4, 318016, Pitch_bend_c, 1, 8215
4, 318020, Pitch_bend_c, 1, 8192
4, 318140, Pitch_bend_c, 1, 6842
4, 318260, Note_off_c, 1, 80, 64
4, 318260, Pitch_bend_c, 1, 8192
4, 318260, Note_on_c, 1, 75, 79
4, 318500, Note_off_c, 1, 75, 64
4, 318500, Note_on_c, 1, 75, 97
4, 318516, Control_c, 1, 1, 10
4, 318532, Control_c, 1, 1, 23
4, 318548, Control_c, 1, 1, 35
4, 318560, Control_c, 1, 1, 45
4, 318744, Control_c, 1, 1, 0
4, 318744, Pitch_bend_c, 1, 8101
4, 318760, Pitch_bend_c, 1, 7738
4, 318776, Pitch_bend_c, 1, 7374
4, 318792, Pitch_bend_c, 1, 7011
4, 318808, Pitch_bend_c, 1, 6648
4, 318824, Pitch_bend_c, 1, 6284
4, 318840, Pitch_bend_c, 1, 5921
4, 318860, Note_off_c, 1, 75, 64
4, 318860, Pitch_bend_c, 1, 5467
4, 319220, Pitch_bend_c, 1, 8192
4, 319220, Note_on_c, 1, 73, 97
4, 319252, Pitch_bend_c, 1, 8229
4, 319312, Pitch_bend_c, 1, 8309
4, 319376, Pitch_bend_c, 1, 8394
4, 319440, Pitch_bend_c, 1, 8479
4, 319504, Pitch_bend_c, 1, 8564
4, 319568, Pitch_bend_c, 1, 8649
4, 319632, Pitch_bend_c, 1, 8734
4, 319696, Pitch_bend_c, 1, 8818
4, 319760, Pitch_bend_c, 1, 8903
4, 319824, Pitch_bend_c, 1, 8988
4, 319888, Pitch_bend_c, 1, 9073
4, 319952, Pitch_bend_c, 1, 9158
4, 320016, Pitch_bend_c, 1, 9243
4, 320080, Pitch_bend_c, 1, 9328
4, 320144, Pitch_bend_c, 1, 9413
4, 320208, Pitch_bend_c, 1, 9498
4, 320260, Pitch_bend_c, 1, 9567
4, 320420, Note_off_c, 1, 73, 64
4, 320420, Pitch_bend_c, 1, 8192
4, 320420, Note_on_c, 1, 73, 97
4, 320580, Pitch_bend_c, 1, 6142
4, 320660, Note_off_c, 1, 73, 64
4, 320660, Pitch_bend_c, 1, 8192
4, 320660, Note_on_c, 1, 73, 97
4, 320756, Pitch_bend_c, 1, 6142
4, 320852, Pitch_bend_c, 1, 7517
4, 320948, Pitch_bend_c, 1, 6142
4, 321044, Note_off_c, 1, 73, 64
4, 321044, Pitch_bend_c, 1, 8192
4, 321044, Note_on_c, 1, 75, 97
4, 321140, Note_off_c, 1, 75, 64
4, 321140, Note_on_c, 1, 73, 97
4, 321236, Pitch_bend_c, 1, 6142
4, 321332, Note_off_c, 1, 73, 64
4, 321332, Pitch_bend_c, 1, 8192
4, 321332, Note_on_c, 1, 73, 97
4, 321428, Note_off_c, 1, 73, 64
4, 321428, Note_on_c, 1, 73, 97
4, 321524, Pitch_bend_c, 1, 6142
4, 321620, Note_off_c, 1, 73, 64
4, 321620, Pitch_bend_c, 1, 8192
4, 321620, Note_on_c, 1, 68, 97
4, 321716, Note_off_c, 1, 68, 64
4, 321716, Note_on_c, 1, 75, 97
4, 321812, Note_off_c, 1, 75, 64
4, 321812, Note_on_c, 1, 73, 97
4, 321908, Pitch_bend_c, 1, 6142
4, 322004, Note_off_c, 1, 73, 64
4, 322004, Pitch_bend_c, 1, 8192
4, 322004, Note_on_c, 1, 68, 97
4, 322100, Note_off_c, 1, 68, 64
4, 322100, Note_on_c, 1, 75, 97
4, 322196, Note_off_c, 1, 75, 64
4, 322196, Note_on_c, 1, 73, 97
4, 322292, Pitch_bend_c, 1, 6142
4, 322388, Note_off_c, 1, 73, 64
4, 322388, Pitch_bend_c, 1, 8192
4, 322388, Note_on_c, 1, 68, 97
4, 322484, Note_off_c, 1, 68, 64
4, 322484, Note_on_c, 1, 75, 97
4, 322580, Note_off_c, 1, 75, 64
4, 322580, Note_on_c, 1, 73, 97
4, 322676, Pitch_bend_c, 1, 6142
4, 322772, Note_off_c, 1, 73, 64
4, 322772, Pitch_bend_c, 1, 8192
4, 322772, Note_on_c, 1, 68, 97
4, 322868, Note_off_c, 1, 68, 64
4, 322868, Note_on_c, 1, 75, 97
4, 322964, Note_off_c, 1, 75, 64
4, 322964, Note_on_c, 1, 73, 97
4, 323060, Pitch_bend_c, 1, 6142
4, 323156, Note_off_c, 1, 73, 64
4, 323156, Pitch_bend_c, 1, 8192
4, 323156, Note_on_c, 1, 68, 97
4, 323252, Note_off_c, 1, 68, 64
4, 323252, Note_on_c, 1, 75, 97
4, 323348, Note_off_c, 1, 75, 64
4, 323348, Note_on_c, 1, 73, 97
4, 323444, Pitch_bend_c, 1, 6142
4, 323540, Note_off_c, 1, 73, 64
4, 323540, Pitch_bend_c, 1, 8192
4, 323540, Note_on_c, 1, 68, 97
4, 323636, Note_off_c, 1, 68, 64
4, 323636, Note_on_c, 1, 75, 97
4, 323732, Note_off_c, 1, 75, 64
4, 323732, Note_on_c, 1, 73, 97
4, 323828, Pitch_bend_c, 1, 6142
4, 323924, Note_off_c, 1, 73, 64
4, 323924, Pitch_bend_c, 1, 8192
4, 323924, Note_on_c, 1, 68, 97
4, 324020, Note_off_c, 1, 68, 64
4, 324020, Note_on_c, 1, 75, 97
4, 324116, Note_off_c, 1, 75, 64
4, 324116, Note_on_c, 1, 73, 97
4, 324212, Pitch_bend_c, 1, 6142
4, 324268, Note_off_c, 1, 73, 64
4, 324268, Pitch_bend_c, 1, 8192
4, 324268, Note_on_c, 1, 68, 97
4, 324276, Pitch_bend_c, 1, 8243
4, 324292, Pitch_bend_c, 1, 8447
4, 324308, Pitch_bend_c, 1, 8650
4, 324324, Pitch_bend_c, 1, 8854
4, 324340, Pitch_bend_c, 1, 9058
4, 324356, Pitch_bend_c, 1, 9261
4, 324372, Pitch_bend_c, 1, 9465
4, 324380, Pitch_bend_c, 1, 9567
4, 324392, Pitch_bend_c, 1, 9472
4, 324408, Pitch_bend_c, 1, 9283
4, 324424, Pitch_bend_c, 1, 9093
4, 324440, Pitch_bend_c, 1, 8903
4, 324456, Pitch_bend_c, 1, 8714
4, 324472, Pitch_bend_c, 1, 8524
4, 324488, Pitch_bend_c, 1, 8334
4, 324500, Pitch_bend_c, 1, 8192
4, 324620, Pitch_bend_c, 1, 6842
4, 324692, Note_off_c, 1, 68, 64
4, 324700, Pitch_bend_c, 1, 8192
4, 324700, Note_on_c, 1, 73, 103
4, 324708, Pitch_bend_c, 1, 8227
4, 324736, Pitch_bend_c, 1, 8474
4, 324768, Pitch_bend_c, 1, 8756
4, 324800, Pitch_bend_c, 1, 9038
4, 324832, Pitch_bend_c, 1, 9320
4, 324860, Pitch_bend_c, 1, 9567
4, 324984, Pitch_bend_c, 1, 9521
4, 325000, Pitch_bend_c, 1, 9338
4, 325016, Pitch_bend_c, 1, 9154
4, 325032, Pitch_bend_c, 1, 8971
4, 325048, Pitch_bend_c, 1, 8788
4, 325064, Pitch_bend_c, 1, 8604
4, 325080, Pitch_bend_c, 1, 8421
4, 325096, Pitch_bend_c, 1, 8238
4, 325100, Pitch_bend_c, 1, 8192
4, 325108, Pitch_bend_c, 1, 8239
4, 325124, Pitch_bend_c, 1, 8429
4, 325140, Pitch_bend_c, 1, 8619
4, 325156, Pitch_bend_c, 1, 8808
4, 325172, Pitch_bend_c, 1, 8998
4, 325188, Pitch_bend_c, 1, 9188
4, 325204, Pitch_bend_c, 1, 9377
4, 325220, Pitch_bend_c, 1, 9567
4, 325228, Pitch_bend_c, 1, 9520
4, 325244, Pitch_bend_c, 1, 9330
4, 325260, Pitch_bend_c, 1, 9140
4, 325276, Pitch_bend_c, 1, 8951
4, 325292, Pitch_bend_c, 1, 8761
4, 325308, Pitch_bend_c, 1, 8571
4, 325324, Pitch_bend_c, 1, 8382
4, 325332, Pitch_bend_c, 1, 8287
4, 325340, Pitch_bend_c, 1, 8192
4, 325348, Pitch_bend_c, 1, 8239
4, 325364, Pitch_bend_c, 1, 8429
4, 325380, Pitch_bend_c, 1, 8619
4, 325396, Pitch_bend_c, 1, 8808
4, 325412, Pitch_bend_c, 1, 8998
4, 325428, Pitch_bend_c, 1, 9188
4, 325444, Pitch_bend_c, 1, 9377
4, 325460, Pitch_bend_c, 1, 9567
4, 325700, Note_off_c, 1, 73, 64
4, 325820, Pitch_bend_c, 1, 8192
4, 325820, Note_on_c, 1, 73, 97
4, 325940, Pitch_bend_c, 1, 6142
4, 326020, Note_off_c, 1, 73, 64
4, 326020, Note_on_c, 1, 68, 97
4, 326028, Pitch_bend_c, 1, 8227
4, 326044, Pitch_bend_c, 1, 8368
4, 326060, Pitch_bend_c, 1, 8509
4, 326076, Pitch_bend_c, 1, 8650
4, 326092, Pitch_bend_c, 1, 8791
4, 326108, Pitch_bend_c, 1, 8932
4, 326124, Pitch_bend_c, 1, 9073
4, 326140, Pitch_bend_c, 1, 9214
4, 326156, Pitch_bend_c, 1, 9355
4, 326180, Pitch_bend_c, 1, 9567
4, 326300, Note_off_c, 1, 68, 64
4, 326300, Pitch_bend_c, 1, 8192
4, 326300, Note_on_c, 1, 68, 97
4, 326480, Pitch_bend_c, 1, 8249
4, 326544, Pitch_bend_c, 1, 8310
4, 326608, Pitch_bend_c, 1, 8372
4, 326676, Pitch_bend_c, 1, 8436
4, 326740, Pitch_bend_c, 1, 8498
4, 326808, Pitch_bend_c, 1, 8562
4, 326872, Pitch_bend_c, 1, 8624
4, 326936, Pitch_bend_c, 1, 8685
4, 327000, Pitch_bend_c, 1, 8746
4, 327064, Pitch_bend_c, 1, 8807
4, 327128, Pitch_bend_c, 1, 8868
4, 327192, Pitch_bend_c, 1, 8929
4, 327256, Pitch_bend_c, 1, 8990
4, 327320, Pitch_bend_c, 1, 9051
4, 327384, Pitch_bend_c, 1, 9112
4, 327448, Pitch_bend_c, 1, 9174
4, 327512, Pitch_bend_c, 1, 9235
4, 327576, Pitch_bend_c, 1, 9296
4, 327640, Pitch_bend_c, 1, 9357
4, 327704, Pitch_bend_c, 1, 9418
4, 327768, Pitch_bend_c, 1, 9479
4, 327832, Pitch_bend_c, 1, 9540
4, 327860, Pitch_bend_c, 1, 9567
4, 327940, Note_on_c, 1, 73, 97
4, 327980, Note_off_c, 1, 68, 64
4, 327980, Pitch_bend_c, 1, 8192
4, 328060, Note_off_c, 1, 73, 64
4, 328060, Note_on_c, 1, 68, 97
4, 328068, Pitch_bend_c, 1, 8345
4, 328076, Pitch_bend_c, 1, 8650
4, 328084, Pitch_bend_c, 1, 8956
4, 328092, Pitch_bend_c, 1, 9261
4, 328100, Pitch_bend_c, 1, 9567
4, 328108, Pitch_bend_c, 1, 9495
4, 328124, Pitch_bend_c, 1, 9205
4, 328140, Pitch_bend_c, 1, 8916
4, 328156, Pitch_bend_c, 1, 8626
4, 328172, Pitch_bend_c, 1, 8337
4, 328180, Pitch_bend_c, 1, 8192
4, 328260, Pitch_bend_c, 1, 6842
4, 328340, Note_off_c, 1, 68, 64
4, 328340, Pitch_bend_c, 1, 8192
4, 328340, Note_on_c, 1, 68, 97
4, 328392, Control_c, 1, 1, 7
4, 328408, Control_c, 1, 1, 16
4, 328424, Control_c, 1, 1, 25
4, 328440, Control_c, 1, 1, 34
4, 328460, Control_c, 1, 1, 45
4, 328660, Note_off_c, 1, 68, 64
4, 328660, Control_c, 1, 1, 0
4, 328660, Note_on_c, 1, 68, 97
4, 328664, Pitch_bend_c, 1, 8192
4, 328668, Pitch_bend_c, 1, 8345
4, 328676, Pitch_bend_c, 1, 8650
4, 328684, Pitch_bend_c, 1, 8956
4, 328692, Pitch_bend_c, 1, 9261
4, 328700, Pitch_bend_c, 1, 9567
4, 328716, Pitch_bend_c, 1, 9425
4, 328732, Pitch_bend_c, 1, 9235
4, 328748, Pitch_bend_c, 1, 9045
4, 328764, Pitch_bend_c, 1, 8856
4, 328780, Pitch_bend_c, 1, 8666
4, 328796, Pitch_bend_c, 1, 8476
4, 328816, Pitch_bend_c, 1, 8239
4, 328820, Pitch_bend_c, 1, 8192
4, 329060, Pitch_bend_c, 1, 6842
4, 329300, Note_off_c, 1, 68, 64
4, 329300, Pitch_bend_c, 1, 8192
4, 329300, Note_on_c, 1, 68, 85
4, 329460, Note_off_c, 1, 68, 64
4, 329460, Note_on_c, 1, 68, 85
4, 329620, Note_off_c, 1, 68, 64
4, 329620, Note_on_c, 1, 66, 85
4, 329780, Note_off_c, 1, 66, 64
4, 329780, Note_on_c, 1, 63, 90
4, 330020, Note_off_c, 1, 63, 64
4, 330020, Note_on_c, 1, 61, 90
4, 330260, Note_off_c, 1, 61, 64
4, 330260, Note_on_c, 1, 73, 97
4, 330276, Pitch_bend_c, 1, 8262
4, 330308, Pitch_bend_c, 1, 8448
4, 330340, Pitch_bend_c, 1, 8635
4, 330372, Pitch_bend_c, 1, 8821
4, 330412, Pitch_bend_c, 1, 9054
4, 330452, Pitch_bend_c, 1, 9287
4, 330488, Pitch_bend_c, 1, 9497
4, 330500, Pitch_bend_c, 1, 9567
4, 330620, Note_off_c, 1, 73, 64
4, 330980, Pitch_bend_c, 1, 8192
4, 330980, Note_on_c, 1, 73, 97
4, 330996, Pitch_bend_c, 1, 8262
4, 331028, Pitch_bend_c, 1, 8448
4, 331060, Pitch_bend_c, 1, 8635
4, 331092, Pitch_bend_c, 1, 8821
4, 331124, Pitch_bend_c, 1, 9008
4, 331156, Pitch_bend_c, 1, 9194
4, 331188, Pitch_bend_c, 1, 9381
4, 331204, Pitch_bend_c, 1, 9474
4, 331220, Pitch_bend_c, 1, 9567
4, 331460, Note_off_c, 1, 73, 64
4, 331460, Pitch_bend_c, 1, 8192
4, 331460, Note_on_c, 1, 75, 97
4, 331700, Note_off_c, 1, 75, 64
4, 331700, Note_on_c, 1, 73, 97
4, 331940, Pitch_bend_c, 1, 6142
4, 332140, Note_off_c, 1, 73, 64
4, 332140, Pitch_bend_c, 1, 8192
4, 332140, Note_on_c, 1, 73, 97
4, 332144, Pitch_bend_c, 1, 8192
4, 332148, Pitch_bend_c, 1, 8345
4, 332156, Pitch_bend_c, 1, 8650
4, 332164, Pitch_bend_c, 1, 8956
4, 332172, Pitch_bend_c, 1, 9261
4, 332180, Pitch_bend_c, 1, 9567
4, 332500, Note_off_c, 1, 73, 64
4, 332500, Pitch_bend_c, 1, 8192
4, 332500, Note_on_c, 1, 73, 97
4, 332820, Note_off_c, 1, 73, 64
4, 332820, Note_on_c, 1, 70, 97
4, 333100, Note_off_c, 1, 70, 64
4, 333100, Note_on_c, 1, 68, 97
4, 333104, Pitch_bend_c, 1, 8192
4, 333108, Pitch_bend_c, 1, 8270
4, 333116, Pitch_bend_c, 1, 8425
4, 333124, Pitch_bend_c, 1, 8581
4, 333132, Pitch_bend_c, 1, 8736
4, 333140, Pitch_bend_c, 1, 8892
4, 333460, Note_off_c, 1, 68, 64
4, 333460, Pitch_bend_c, 1, 8192
4, 333460, Note_on_c, 1, 68, 97
4, 333780, Note_off_c, 1, 68, 64
4, 333780, Note_on_c, 1, 66, 97
4, 334100, Note_off_c, 1, 66, 64
4, 334100, Pitch_bend_c, 1, 8892
4, 334100, Note_on_c, 1, 68, 97
4, 334132, Pitch_bend_c, 1, 8851
4, 334196, Pitch_bend_c, 1, 8757
4, 334260, Pitch_bend_c, 1, 8663
4, 334324, Pitch_bend_c, 1, 8568
4, 334388, Pitch_bend_c, 1, 8474
4, 334456, Pitch_bend_c, 1, 8374
4, 334516, Pitch_bend_c, 1, 8286
4, 334580, Pitch_bend_c, 1, 8192
4, 334780, Note_off_c, 1, 68, 64
4, 334780, Note_on_c, 1, 68, 97
4, 334796, Pitch_bend_c, 1, 8246
4, 334812, Pitch_bend_c, 1, 8318
4, 334828, Pitch_bend_c, 1, 8389
4, 334844, Pitch_bend_c, 1, 8461
4, 334860, Pitch_bend_c, 1, 8533
4, 334876, Pitch_bend_c, 1, 8605
4, 334892, Pitch_bend_c, 1, 8677
4, 334908, Pitch_bend_c, 1, 8748
4, 334924, Pitch_bend_c, 1, 8820
4, 334940, Pitch_bend_c, 1, 8892
4, 335260, Note_off_c, 1, 68, 64
4, 335300, Note_on_c, 1, 68, 97
4, 335352, Control_c, 1, 1, 7
4, 335368, Control_c, 1, 1, 16
4, 335384, Control_c, 1, 1, 30
4, 335540, Note_off_c, 1, 68, 64
4, 335540, Note_on_c, 1, 68, 97
4, 336020, Note_off_c, 1, 68, 64
4, 336020, Note_on_c, 1, 68, 97
4, 336340, Note_off_c, 1, 68, 64
4, 336340, Note_on_c, 1, 68, 97
4, 336660, Note_off_c, 1, 68, 64
4, 336660, Note_on_c, 1, 68, 97
4, 336940, Note_off_c, 1, 68, 64
4, 336940, Control_c, 1, 1, 0
4, 336940, Note_on_c, 1, 68, 97
4, 336956, Pitch_bend_c, 1, 8944
4, 336988, Pitch_bend_c, 1, 9082
4, 337020, Pitch_bend_c, 1, 9221
4, 337052, Pitch_bend_c, 1, 9359
4, 337084, Pitch_bend_c, 1, 9498
4, 337100, Pitch_bend_c, 1, 9567
4, 337108, Pitch_bend_c, 1, 9473
4, 337124, Pitch_bend_c, 1, 9097
4, 337140, Pitch_bend_c, 1, 8721
4, 337156, Pitch_bend_c, 1, 8345
4, 337160, Pitch_bend_c, 1, 8251
4, 337164, Pitch_bend_c, 1, 8158
4, 337172, Pitch_bend_c, 1, 7970
4, 337180, Pitch_bend_c, 1, 7782
4, 337188, Pitch_bend_c, 1, 7594
4, 337196, Pitch_bend_c, 1, 7406
4, 337204, Pitch_bend_c, 1, 7218
4, 337212, Pitch_bend_c, 1, 7030
4, 337220, Note_off_c, 1, 68, 64
4, 337220, Pitch_bend_c, 1, 6842
4, 337700, Control_c, 1, 1, 0
4, 337700, Pitch_bend_c, 1, 8192
4, 337700, Note_on_c, 1, 49, 97
4, 337700, Note_on_c, 1, 44, 97
4, 337760, Note_off_c, 1, 44, 64
4, 337760, Note_off_c, 1, 49, 64
4, 337940, Note_on_c, 1, 63, 102
4, 337992, Control_c, 1, 1, 6
4, 338008, Control_c, 1, 1, 14
4, 338024, Control_c, 1, 1, 22
4, 338040, Control_c, 1, 1, 30
4, 338060, Control_c, 1, 1, 40
4, 339620, Control_c, 1, 1, 0
4, 339624, Pitch_bend_c, 1, 8134
4, 339640, Pitch_bend_c, 1, 7904
4, 339656, Pitch_bend_c, 1, 7674
4, 339672, Pitch_bend_c, 1, 7444
4, 339688, Pitch_bend_c, 1, 7214
4, 339704, Pitch_bend_c, 1, 6984
4, 339720, Pitch_bend_c, 1, 6754
4, 339736, Pitch_bend_c, 1, 6524
4, 339752, Pitch_bend_c, 1, 6294
4, 339768, Pitch_bend_c, 1, 6064
4, 339784, Pitch_bend_c, 1, 5834
4, 339800, Pitch_bend_c, 1, 5604
4, 339816, Pitch_bend_c, 1, 5374
4, 339832, Pitch_bend_c, 1, 5144
4, 339848, Pitch_bend_c, 1, 4914
4, 339856, Pitch_bend_c, 1, 4742
4, 339912, Control_c, 1, 1, 6
4, 339928, Control_c, 1, 1, 14
4, 339944, Control_c, 1, 1, 22
4, 339960, Control_c, 1, 1, 30
4, 339980, Control_c, 1, 1, 40
4, 340608, Control_c, 1, 1, 0
4, 340608, Pitch_bend_c, 1, 4419
4, 340640, Pitch_bend_c, 1, 4049
4, 340672, Pitch_bend_c, 1, 3680
4, 340704, Pitch_bend_c, 1, 3310
4, 340736, Pitch_bend_c, 1, 2941
4, 340768, Pitch_bend_c, 1, 2571
4, 340800, Pitch_bend_c, 1, 2202
4, 340816, Pitch_bend_c, 1, 2017
4, 340872, Control_c, 1, 1, 6
4, 340888, Control_c, 1, 1, 14
4, 340904, Control_c, 1, 1, 22
4, 340920, Control_c, 1, 1, 30
4, 340940, Control_c, 1, 1, 40
4, 341660, Note_off_c, 1, 63, 64
4, 341660, Control_c, 1, 1, 0
4, 341660, Pitch_bend_c, 1, 8192
4, 341660, Note_on_c, 1, 54, 102
4, 341676, Pitch_bend_c, 1, 7977
4, 341692, Pitch_bend_c, 1, 7691
4, 341708, Pitch_bend_c, 1, 7405
4, 341724, Pitch_bend_c, 1, 7119
4, 341740, Pitch_bend_c, 1, 6833
4, 341756, Pitch_bend_c, 1, 6546
4, 341780, Pitch_bend_c, 1, 6117
4, 341832, Control_c, 1, 1, 6
4, 341848, Control_c, 1, 1, 14
4, 341864, Control_c, 1, 1, 22
4, 341880, Control_c, 1, 1, 30
4, 341900, Control_c, 1, 1, 40
4, 343248, Control_c, 1, 1, 0
4, 343248, Pitch_bend_c, 1, 5917
4, 343280, Pitch_bend_c, 1, 5689
4, 343312, Pitch_bend_c, 1, 5461
4, 343344, Pitch_bend_c, 1, 5232
4, 343376, Pitch_bend_c, 1, 5004
4, 343408, Pitch_bend_c, 1, 4776
4, 343440, Pitch_bend_c, 1, 4547
4, 343472, Pitch_bend_c, 1, 4319
4, 343504, Pitch_bend_c, 1, 4091
4, 343536, Pitch_bend_c, 1, 3862
4, 343568, Pitch_bend_c, 1, 3634
4, 343600, Pitch_bend_c, 1, 3406
4, 343632, Pitch_bend_c, 1, 3177
4, 343664, Pitch_bend_c, 1, 2949
4, 343700, Pitch_bend_c, 1, 2692
4, 344540, Note_off_c, 1, 54, 64
4, 344540, Pitch_bend_c, 1, 8192
4, 344540, Note_on_c, 1, 44, 92
4, 345620, Note_off_c, 1, 44, 64
4, 345620, Note_on_c, 1, 42, 85
4, 345748, Pitch_bend_c, 1, 8283
4, 345812, Pitch_bend_c, 1, 8330
4, 345880, Pitch_bend_c, 1, 8379
4, 345944, Pitch_bend_c, 1, 8426
4, 346008, Pitch_bend_c, 1, 8473
4, 346072, Pitch_bend_c, 1, 8520
4, 346136, Pitch_bend_c, 1, 8567
4, 346200, Pitch_bend_c, 1, 8614
4, 346264, Pitch_bend_c, 1, 8661
4, 346328, Pitch_bend_c, 1, 8707
4, 346392, Pitch_bend_c, 1, 8754
4, 346456, Pitch_bend_c, 1, 8801
4, 346520, Pitch_bend_c, 1, 8848
4, 346580, Pitch_bend_c, 1, 8892
4, 346700, Note_off_c, 1, 42, 64
4, 346700, Pitch_bend_c, 1, 8192
4, 346700, Note_on_c, 1, 39, 95
4, 349968, Pitch_bend_c, 1, 8153
4, 350032, Pitch_bend_c, 1, 8063
4, 350096, Pitch_bend_c, 1, 7973
4, 350160, Pitch_bend_c, 1, 7883
4, 350224, Pitch_bend_c, 1, 7793
4, 350288, Pitch_bend_c, 1, 7703
4, 350352, Pitch_bend_c, 1, 7613
4, 350420, Pitch_bend_c, 1, 7517
4, 350452, Pitch_bend_c, 1, 7557
4, 350516, Pitch_bend_c, 1, 7647
4, 350580, Pitch_bend_c, 1, 7738
4, 350644, Pitch_bend_c, 1, 7829
4, 350708, Pitch_bend_c, 1, 7920
4, 350772, Pitch_bend_c, 1, 8010
4, 350836, Pitch_bend_c, 1, 8101
4, 350900, Pitch_bend_c, 1, 8192
4, 352444, Control_c, 1, 11, 120
4, 352688, Control_c, 1, 11, 104
4, 352928, Control_c, 1, 11, 88
4, 353172, Control_c, 1, 11, 72
4, 353412, Control_c, 1, 11, 56
4, 353656, Control_c, 1, 11, 40
4, 353896, Control_c, 1, 11, 24
4, 354140, Control_c, 1, 11, 8
4, 354260, Control_c, 1, 11, 0
4, 355200, Control_c, 0, 121, 0
4, 355220, Note_off_c, 1, 39, 64
4, 355220, End_track
5, 0, Start_track
5, 0, Title_t, "       """
5, 0, MIDI_port, 0
5, 0, Control_c, 2, 121, 0
5, 0, Control_c, 2, 100, 0
5, 0, Control_c, 2, 101, 0
5, 0, Control_c, 2, 6, 12
5, 0, Control_c, 2, 100, 127
5, 0, Control_c, 2, 101, 127
5, 0, Control_c, 2, 1, 0
5, 0, Control_c, 2, 11, 127
5, 0, Control_c, 2, 64, 0
5, 0, Control_c, 2, 7, 127
5, 0, Control_c, 2, 10, 10
5, 0, Control_c, 2, 91, 64
5, 0, Control_c, 2, 93, 51
5, 4, Program_c, 2, 30
5, 182640, Note_on_c, 2, 80, 102
5, 186240, Note_off_c, 2, 80, 64
5, 254840, Note_on_c, 2, 71, 76
5, 254856, Pitch_bend_c, 2, 8222
5, 254888, Pitch_bend_c, 2, 8304
5, 254920, Pitch_bend_c, 2, 8385
5, 254952, Pitch_bend_c, 2, 8466
5, 254984, Pitch_bend_c, 2, 8547
5, 255016, Pitch_bend_c, 2, 8628
5, 255048, Pitch_bend_c, 2, 8709
5, 255080, Pitch_bend_c, 2, 8791
5, 255112, Pitch_bend_c, 2, 8872
5, 255120, Pitch_bend_c, 2, 8892
5, 255320, Note_off_c, 2, 71, 64
5, 262320, Pitch_bend_c, 2, 8192
5, 262320, Note_on_c, 2, 73, 89
5, 262440, Note_off_c, 2, 73, 64
5, 262800, Note_on_c, 2, 73, 89
5, 263040, Note_off_c, 2, 73, 64
5, 303360, Note_on_c, 2, 70, 89
5, 303840, Note_off_c, 2, 70, 64
5, 330720, Note_on_c, 2, 75, 102
5, 331440, Note_off_c, 2, 75, 64
5, 355200, Control_c, 0, 121, 0
5, 355200, End_track
6, 0, Start_track
6, 0, Title_t, "       """
6, 0, MIDI_port, 0
6, 0, Control_c, 3, 121, 0
6, 0, Control_c, 3, 100, 0
6, 0, Control_c, 3, 101, 0
6, 0, Control_c, 3, 6, 12
6, 0, Control_c, 3, 100, 127
6, 0, Control_c, 3, 101, 127
6, 0, Control_c, 3, 1, 0
6, 0, Control_c, 3, 11, 127
6, 0, Control_c, 3, 64, 0
6, 0, Control_c, 3, 7, 127
6, 0, Control_c, 3, 10, 117
6, 0, Control_c, 3, 91, 64
6, 0, Control_c, 3, 93, 51
6, 4, Program_c, 3, 30
6, 182660, Note_on_c, 3, 80, 102
6, 186260, Note_off_c, 3, 80, 64
6, 254860, Note_on_c, 3, 71, 76
6, 254876, Pitch_bend_c, 3, 8222
6, 254908, Pitch_bend_c, 3, 8304
6, 254940, Pitch_bend_c, 3, 8385
6, 254972, Pitch_bend_c, 3, 8466
6, 255004, Pitch_bend_c, 3, 8547
6, 255036, Pitch_bend_c, 3, 8628
6, 255068, Pitch_bend_c, 3, 8709
6, 255100, Pitch_bend_c, 3, 8791
6, 255132, Pitch_bend_c, 3, 8872
6, 255140, Pitch_bend_c, 3, 8892
6, 255340, Note_off_c, 3, 71, 64
6, 262340, Pitch_bend_c, 3, 8192
6, 262340, Note_on_c, 3, 73, 89
6, 262460, Note_off_c, 3, 73, 64
6, 262820, Note_on_c, 3, 73, 89
6, 263060, Note_off_c, 3, 73, 64
6, 303380, Note_on_c, 3, 70, 89
6, 303860, Note_off_c, 3, 70, 64
6, 330740, Note_on_c, 3, 75, 102
6, 331460, Note_off_c, 3, 75, 64
6, 355200, Control_c, 0, 121, 0
6, 355200, End_track
7, 0, Start_track
7, 0, Title_t, "Rhthym Guitar Dist"
7, 0, MIDI_port, 0
7, 0, Control_c, 4, 121, 0
7, 0, Control_c, 4, 100, 0
7, 0, Control_c, 4, 101, 0
7, 0, Control_c, 4, 6, 12
7, 0, Control_c, 4, 100, 127
7, 0, Control_c, 4, 101, 127
7, 0, Control_c, 4, 1, 0
7, 0, Control_c, 4, 11, 127
7, 0, Control_c, 4, 64, 0
7, 0, Control_c, 4, 7, 120
7, 0, Control_c, 4, 10, 0
7, 0, Control_c, 4, 91, 64
7, 0, Control_c, 4, 93, 51
7, 24, Program_c, 4, 30
7, 14400, Control_c, 4, 11, 30
7, 14400, Note_on_c, 4, 49, 98
7, 14408, Note_on_c, 4, 56, 98
7, 14416, Note_on_c, 4, 61, 98
7, 14596, Control_c, 4, 11, 38
7, 14640, Note_off_c, 4, 61, 64
7, 14640, Note_off_c, 4, 56, 64
7, 14640, Note_off_c, 4, 49, 64
7, 14640, Note_on_c, 4, 49, 98
7, 14648, Note_on_c, 4, 56, 98
7, 14656, Note_on_c, 4, 61, 98
7, 14820, Control_c, 4, 11, 47
7, 14880, Note_off_c, 4, 56, 64
7, 14880, Note_off_c, 4, 49, 64
7, 14880, Note_on_c, 4, 49, 98
7, 14888, Note_on_c, 4, 56, 98
7, 14896, Note_off_c, 4, 61, 64
7, 14896, Note_on_c, 4, 61, 98
7, 15020, Control_c, 4, 11, 55
7, 15120, Note_off_c, 4, 49, 64
7, 15120, Note_off_c, 4, 56, 64
7, 15120, Note_on_c, 4, 49, 98
7, 15128, Note_on_c, 4, 56, 98
7, 15136, Note_off_c, 4, 61, 64
7, 15136, Note_on_c, 4, 61, 98
7, 15216, Control_c, 4, 11, 63
7, 15360, Note_off_c, 4, 49, 64
7, 15360, Note_on_c, 4, 49, 98
7, 15368, Note_off_c, 4, 56, 64
7, 15368, Note_on_c, 4, 56, 98
7, 15376, Note_off_c, 4, 61, 64
7, 15376, Note_on_c, 4, 61, 98
7, 15416, Control_c, 4, 11, 71
7, 15600, Note_off_c, 4, 49, 64
7, 15600, Note_off_c, 4, 56, 64
7, 15600, Note_on_c, 4, 49, 98
7, 15608, Note_on_c, 4, 56, 98
7, 15612, Control_c, 4, 11, 79
7, 15616, Note_off_c, 4, 61, 64
7, 15616, Note_on_c, 4, 61, 98
7, 15760, Control_c, 4, 11, 85
7, 15840, Note_off_c, 4, 49, 64
7, 15840, Note_off_c, 4, 56, 64
7, 15840, Note_on_c, 4, 49, 98
7, 15848, Note_on_c, 4, 56, 98
7, 15856, Note_off_c, 4, 61, 64
7, 15856, Note_on_c, 4, 61, 98
7, 15960, Control_c, 4, 11, 93
7, 16056, Control_c, 4, 11, 97
7, 16080, Note_off_c, 4, 49, 64
7, 16080, Note_off_c, 4, 56, 64
7, 16080, Note_on_c, 4, 49, 98
7, 16088, Note_on_c, 4, 56, 98
7, 16096, Note_off_c, 4, 61, 64
7, 16096, Note_on_c, 4, 61, 98
7, 16256, Control_c, 4, 11, 105
7, 16320, Note_off_c, 4, 49, 64
7, 16320, Note_off_c, 4, 56, 64
7, 16320, Note_on_c, 4, 49, 98
7, 16328, Note_on_c, 4, 56, 98
7, 16336, Note_off_c, 4, 61, 64
7, 16336, Note_on_c, 4, 61, 98
7, 16452, Control_c, 4, 11, 113
7, 16552, Control_c, 4, 11, 117
7, 16560, Note_off_c, 4, 49, 64
7, 16560, Note_off_c, 4, 56, 64
7, 16560, Note_on_c, 4, 49, 98
7, 16568, Note_on_c, 4, 56, 98
7, 16576, Note_off_c, 4, 61, 64
7, 16576, Note_on_c, 4, 61, 98
7, 16800, Note_off_c, 4, 49, 64
7, 16800, Note_off_c, 4, 56, 64
7, 16800, Control_c, 4, 11, 127
7, 16800, Note_on_c, 4, 49, 98
7, 16808, Note_on_c, 4, 56, 98
7, 16816, Note_off_c, 4, 61, 64
7, 16816, Note_on_c, 4, 61, 98
7, 17040, Note_off_c, 4, 49, 64
7, 17040, Note_off_c, 4, 56, 64
7, 17040, Note_on_c, 4, 49, 98
7, 17048, Note_on_c, 4, 56, 98
7, 17056, Note_off_c, 4, 61, 64
7, 17056, Note_on_c, 4, 61, 98
7, 17280, Note_off_c, 4, 49, 64
7, 17280, Note_on_c, 4, 49, 98
7, 17284, Note_on_c, 4, 56, 98
7, 17288, Note_off_c, 4, 56, 64
7, 17288, Note_on_c, 4, 61, 98
7, 17292, Note_on_c, 4, 65, 72
7, 17296, Note_off_c, 4, 61, 64
7, 17988, Note_off_c, 4, 65, 64
7, 17992, Note_off_c, 4, 61, 64
7, 17996, Note_off_c, 4, 56, 64
7, 18000, Note_off_c, 4, 49, 64
7, 18000, Note_on_c, 4, 49, 98
7, 18004, Note_on_c, 4, 56, 98
7, 18008, Note_on_c, 4, 61, 98
7, 18012, Note_on_c, 4, 65, 72
7, 18948, Note_off_c, 4, 65, 64
7, 18952, Note_off_c, 4, 61, 64
7, 18956, Note_off_c, 4, 56, 64
7, 18960, Note_off_c, 4, 49, 64
7, 18960, Note_on_c, 4, 49, 98
7, 18964, Note_on_c, 4, 56, 98
7, 18968, Note_on_c, 4, 61, 98
7, 18972, Note_on_c, 4, 65, 72
7, 19200, Note_off_c, 4, 49, 64
7, 19200, Note_on_c, 4, 49, 98
7, 19204, Note_off_c, 4, 56, 64
7, 19208, Note_off_c, 4, 61, 64
7, 19208, Note_on_c, 4, 56, 98
7, 19212, Note_off_c, 4, 65, 64
7, 19216, Note_on_c, 4, 61, 98
7, 19680, Note_off_c, 4, 49, 64
7, 19680, Note_off_c, 4, 56, 64
7, 19680, Note_off_c, 4, 61, 64
7, 19680, Note_on_c, 4, 65, 98
7, 19920, Note_off_c, 4, 65, 64
7, 19920, Note_on_c, 4, 56, 98
7, 19928, Note_on_c, 4, 61, 98
7, 19936, Note_on_c, 4, 66, 98
7, 20400, Note_off_c, 4, 66, 64
7, 20400, Note_off_c, 4, 61, 64
7, 20400, Note_off_c, 4, 56, 64
7, 20400, Note_on_c, 4, 65, 98
7, 20640, Note_off_c, 4, 65, 64
7, 20640, Note_on_c, 4, 56, 98
7, 20648, Note_on_c, 4, 61, 98
7, 20880, Note_off_c, 4, 61, 64
7, 20880, Note_off_c, 4, 56, 64
7, 20880, Note_on_c, 4, 49, 98
7, 20888, Note_on_c, 4, 56, 98
7, 21120, Note_off_c, 4, 49, 64
7, 21120, Note_on_c, 4, 47, 98
7, 21124, Note_on_c, 4, 51, 98
7, 21128, Note_off_c, 4, 56, 64
7, 21128, Note_on_c, 4, 54, 98
7, 21132, Note_on_c, 4, 59, 98
7, 21136, Note_on_c, 4, 63, 98
7, 21584, Note_off_c, 4, 63, 64
7, 21588, Note_off_c, 4, 59, 64
7, 21592, Note_off_c, 4, 54, 64
7, 21596, Note_off_c, 4, 51, 64
7, 21600, Note_off_c, 4, 47, 64
7, 21600, Note_on_c, 4, 61, 98
7, 21840, Note_off_c, 4, 61, 64
7, 21840, Note_on_c, 4, 47, 98
7, 21844, Note_on_c, 4, 51, 98
7, 21848, Note_on_c, 4, 54, 98
7, 21852, Note_on_c, 4, 59, 98
7, 21856, Note_on_c, 4, 63, 98
7, 23040, Note_off_c, 4, 47, 64
7, 23040, Note_on_c, 4, 47, 98
7, 23044, Note_off_c, 4, 51, 64
7, 23044, Note_on_c, 4, 51, 98
7, 23048, Note_off_c, 4, 54, 64
7, 23048, Note_on_c, 4, 54, 98
7, 23052, Note_off_c, 4, 59, 64
7, 23052, Note_on_c, 4, 61, 98
7, 23056, Note_off_c, 4, 63, 64
7, 23268, Note_off_c, 4, 61, 64
7, 23280, Note_on_c, 4, 59, 98
7, 23508, Note_off_c, 4, 54, 64
7, 23520, Note_off_c, 4, 59, 64
7, 23520, Note_on_c, 4, 54, 98
7, 23760, Note_off_c, 4, 54, 64
7, 23760, Note_on_c, 4, 59, 98
7, 23996, Note_off_c, 4, 47, 64
7, 24000, Note_off_c, 4, 51, 64
7, 24720, Note_off_c, 4, 59, 64
7, 24720, Note_on_c, 4, 54, 98
7, 24960, Note_off_c, 4, 54, 64
7, 24960, Note_on_c, 4, 42, 98
7, 24964, Note_on_c, 4, 46, 98
7, 24968, Note_on_c, 4, 49, 98
7, 24972, Note_on_c, 4, 54, 98
7, 24976, Note_on_c, 4, 61, 98
7, 25424, Note_off_c, 4, 61, 64
7, 25428, Note_off_c, 4, 54, 64
7, 25432, Note_off_c, 4, 49, 64
7, 25436, Note_off_c, 4, 46, 64
7, 25440, Note_off_c, 4, 42, 64
7, 25440, Note_on_c, 4, 54, 98
7, 25680, Note_off_c, 4, 54, 64
7, 25680, Note_on_c, 4, 42, 98
7, 25684, Note_on_c, 4, 46, 98
7, 25688, Note_on_c, 4, 49, 98
7, 25692, Note_on_c, 4, 54, 98
7, 25696, Note_on_c, 4, 58, 98
7, 27056, Control_c, 4, 11, 120
7, 27252, Control_c, 4, 11, 112
7, 27452, Control_c, 4, 11, 104
7, 27652, Control_c, 4, 11, 96
7, 27852, Control_c, 4, 11, 88
7, 28048, Control_c, 4, 11, 80
7, 28248, Control_c, 4, 11, 72
7, 28448, Control_c, 4, 11, 64
7, 28648, Control_c, 4, 11, 56
7, 28784, Note_off_c, 4, 58, 64
7, 28788, Note_off_c, 4, 54, 64
7, 28792, Note_off_c, 4, 49, 64
7, 28796, Note_off_c, 4, 46, 64
7, 28796, Control_c, 4, 11, 50
7, 28800, Note_off_c, 4, 42, 64
7, 28800, Control_c, 4, 11, 127
7, 28800, Note_on_c, 4, 49, 98
7, 28808, Note_on_c, 4, 56, 98
7, 28816, Note_on_c, 4, 61, 98
7, 29280, Note_off_c, 4, 61, 64
7, 29280, Note_off_c, 4, 56, 64
7, 29280, Note_off_c, 4, 49, 64
7, 29280, Control_c, 4, 11, 85
7, 29280, Note_on_c, 4, 49, 98
7, 29288, Note_on_c, 4, 56, 98
7, 29296, Note_on_c, 4, 61, 98
7, 29520, Note_off_c, 4, 56, 64
7, 29520, Note_off_c, 4, 49, 64
7, 29520, Note_on_c, 4, 49, 98
7, 29528, Note_on_c, 4, 56, 98
7, 29536, Note_off_c, 4, 61, 64
7, 29536, Note_on_c, 4, 61, 98
7, 29760, Note_off_c, 4, 49, 64
7, 29760, Note_off_c, 4, 56, 64
7, 29760, Note_on_c, 4, 49, 98
7, 29768, Note_on_c, 4, 56, 98
7, 29776, Note_off_c, 4, 61, 64
7, 29776, Note_on_c, 4, 61, 98
7, 30000, Note_off_c, 4, 49, 64
7, 30000, Note_off_c, 4, 56, 64
7, 30000, Note_on_c, 4, 49, 98
7, 30008, Note_on_c, 4, 56, 98
7, 30016, Note_off_c, 4, 61, 64
7, 30016, Note_on_c, 4, 61, 98
7, 30240, Note_off_c, 4, 49, 64
7, 30240, Note_off_c, 4, 56, 64
7, 30240, Note_on_c, 4, 49, 98
7, 30248, Note_on_c, 4, 56, 98
7, 30256, Note_off_c, 4, 61, 64
7, 30256, Note_on_c, 4, 61, 98
7, 30388, Control_c, 4, 11, 91
7, 30480, Note_off_c, 4, 49, 64
7, 30480, Note_off_c, 4, 56, 64
7, 30480, Note_on_c, 4, 49, 98
7, 30488, Note_on_c, 4, 56, 98
7, 30496, Note_off_c, 4, 61, 64
7, 30496, Note_on_c, 4, 61, 98
7, 30624, Control_c, 4, 11, 105
7, 30720, Note_off_c, 4, 49, 64
7, 30720, Note_on_c, 4, 49, 98
7, 30724, Note_on_c, 4, 56, 98
7, 30728, Note_off_c, 4, 56, 64
7, 30728, Note_on_c, 4, 61, 98
7, 30732, Note_on_c, 4, 66, 98
7, 30736, Note_off_c, 4, 61, 64
7, 30784, Control_c, 4, 11, 110
7, 30944, Control_c, 4, 11, 120
7, 30960, Note_off_c, 4, 49, 64
7, 30960, Note_on_c, 4, 49, 98
7, 30964, Note_off_c, 4, 56, 64
7, 30964, Note_on_c, 4, 56, 98
7, 30968, Note_off_c, 4, 61, 64
7, 30968, Note_on_c, 4, 61, 98
7, 30972, Note_off_c, 4, 66, 64
7, 30972, Note_on_c, 4, 65, 85
7, 31188, Note_off_c, 4, 65, 64
7, 31192, Note_off_c, 4, 61, 64
7, 31196, Note_off_c, 4, 56, 64
7, 31200, Note_off_c, 4, 49, 64
7, 31200, Note_on_c, 4, 49, 98
7, 31200, Control_c, 4, 11, 127
7, 31208, Note_on_c, 4, 54, 98
7, 31440, Note_off_c, 4, 54, 64
7, 31440, Note_off_c, 4, 49, 64
7, 31440, Note_on_c, 4, 49, 98
7, 31444, Note_on_c, 4, 56, 98
7, 31448, Note_on_c, 4, 61, 98
7, 31452, Note_on_c, 4, 65, 85
7, 32388, Note_off_c, 4, 65, 64
7, 32392, Note_off_c, 4, 61, 64
7, 32396, Note_off_c, 4, 56, 64
7, 32400, Note_off_c, 4, 49, 64
7, 32400, Note_on_c, 4, 49, 98
7, 32404, Note_on_c, 4, 56, 98
7, 32408, Note_on_c, 4, 61, 98
7, 32412, Note_on_c, 4, 63, 98
7, 32640, Note_off_c, 4, 49, 64
7, 32640, Note_on_c, 4, 49, 98
7, 32644, Note_off_c, 4, 56, 64
7, 32644, Note_on_c, 4, 56, 98
7, 32648, Note_off_c, 4, 61, 64
7, 32648, Note_on_c, 4, 61, 98
7, 32652, Note_off_c, 4, 63, 64
7, 32652, Note_on_c, 4, 65, 72
7, 33348, Note_off_c, 4, 65, 64
7, 33352, Note_off_c, 4, 61, 64
7, 33356, Note_off_c, 4, 56, 64
7, 33360, Note_off_c, 4, 49, 64
7, 33360, Note_on_c, 4, 49, 98
7, 33364, Note_on_c, 4, 56, 98
7, 33368, Note_on_c, 4, 61, 98
7, 33372, Note_on_c, 4, 65, 72
7, 34308, Note_off_c, 4, 65, 64
7, 34312, Note_off_c, 4, 61, 64
7, 34316, Note_off_c, 4, 56, 64
7, 34320, Note_off_c, 4, 49, 64
7, 34320, Note_on_c, 4, 49, 98
7, 34324, Note_on_c, 4, 56, 98
7, 34328, Note_on_c, 4, 61, 98
7, 34332, Note_on_c, 4, 65, 72
7, 34560, Note_off_c, 4, 49, 64
7, 34560, Note_on_c, 4, 49, 98
7, 34564, Note_off_c, 4, 56, 64
7, 34568, Note_off_c, 4, 61, 64
7, 34568, Note_on_c, 4, 56, 98
7, 34572, Note_off_c, 4, 65, 64
7, 34576, Note_on_c, 4, 61, 98
7, 35040, Note_off_c, 4, 49, 64
7, 35040, Note_off_c, 4, 56, 64
7, 35040, Note_off_c, 4, 61, 64
7, 35040, Note_on_c, 4, 65, 98
7, 35280, Note_off_c, 4, 65, 64
7, 35280, Note_on_c, 4, 56, 98
7, 35288, Note_on_c, 4, 61, 98
7, 35296, Note_on_c, 4, 66, 98
7, 35760, Note_off_c, 4, 66, 64
7, 35760, Note_off_c, 4, 61, 64
7, 35760, Note_off_c, 4, 56, 64
7, 35760, Note_on_c, 4, 65, 98
7, 36000, Note_off_c, 4, 65, 64
7, 36000, Note_on_c, 4, 56, 98
7, 36008, Note_on_c, 4, 61, 98
7, 36240, Note_off_c, 4, 61, 64
7, 36240, Note_off_c, 4, 56, 64
7, 36240, Note_on_c, 4, 49, 98
7, 36248, Note_on_c, 4, 56, 98
7, 36480, Note_off_c, 4, 49, 64
7, 36480, Note_on_c, 4, 47, 98
7, 36484, Note_on_c, 4, 51, 98
7, 36488, Note_off_c, 4, 56, 64
7, 36488, Note_on_c, 4, 54, 98
7, 36492, Note_on_c, 4, 59, 98
7, 36496, Note_on_c, 4, 63, 98
7, 36944, Note_off_c, 4, 63, 64
7, 36948, Note_off_c, 4, 59, 64
7, 36952, Note_off_c, 4, 54, 64
7, 36956, Note_off_c, 4, 51, 64
7, 36960, Note_off_c, 4, 47, 64
7, 36960, Note_on_c, 4, 61, 98
7, 37200, Note_off_c, 4, 61, 64
7, 37200, Note_on_c, 4, 47, 98
7, 37204, Note_on_c, 4, 51, 98
7, 37208, Note_on_c, 4, 54, 98
7, 37212, Note_on_c, 4, 59, 98
7, 37216, Note_on_c, 4, 63, 98
7, 38400, Note_off_c, 4, 47, 64
7, 38400, Note_on_c, 4, 47, 98
7, 38404, Note_off_c, 4, 51, 64
7, 38404, Note_on_c, 4, 51, 98
7, 38408, Note_off_c, 4, 54, 64
7, 38408, Note_on_c, 4, 54, 98
7, 38412, Note_off_c, 4, 59, 64
7, 38412, Note_on_c, 4, 61, 98
7, 38416, Note_off_c, 4, 63, 64
7, 38628, Note_off_c, 4, 61, 64
7, 38640, Note_on_c, 4, 59, 98
7, 38868, Note_off_c, 4, 54, 64
7, 38880, Note_off_c, 4, 59, 64
7, 38880, Note_on_c, 4, 54, 98
7, 39120, Note_off_c, 4, 54, 64
7, 39120, Note_on_c, 4, 59, 98
7, 39356, Note_off_c, 4, 47, 64
7, 39360, Note_off_c, 4, 51, 64
7, 40080, Note_off_c, 4, 59, 64
7, 40080, Note_on_c, 4, 54, 98
7, 40320, Note_off_c, 4, 54, 64
7, 40320, Note_on_c, 4, 42, 98
7, 40324, Note_on_c, 4, 46, 98
7, 40328, Note_on_c, 4, 49, 98
7, 40332, Note_on_c, 4, 54, 98
7, 40336, Note_on_c, 4, 61, 98
7, 40784, Note_off_c, 4, 61, 64
7, 40788, Note_off_c, 4, 54, 64
7, 40792, Note_off_c, 4, 49, 64
7, 40796, Note_off_c, 4, 46, 64
7, 40800, Note_off_c, 4, 42, 64
7, 40800, Note_on_c, 4, 54, 98
7, 41040, Note_off_c, 4, 54, 64
7, 41040, Note_on_c, 4, 42, 98
7, 41044, Note_on_c, 4, 46, 98
7, 41048, Note_on_c, 4, 49, 98
7, 41052, Note_on_c, 4, 54, 98
7, 41056, Note_on_c, 4, 58, 98
7, 42416, Control_c, 4, 11, 120
7, 42612, Control_c, 4, 11, 112
7, 42812, Control_c, 4, 11, 104
7, 43012, Control_c, 4, 11, 96
7, 43212, Control_c, 4, 11, 88
7, 43408, Control_c, 4, 11, 80
7, 43608, Control_c, 4, 11, 72
7, 43808, Control_c, 4, 11, 64
7, 44008, Control_c, 4, 11, 56
7, 44144, Note_off_c, 4, 58, 64
7, 44148, Note_off_c, 4, 54, 64
7, 44152, Note_off_c, 4, 49, 64
7, 44156, Note_off_c, 4, 46, 64
7, 44156, Control_c, 4, 11, 50
7, 44160, Note_off_c, 4, 42, 64
7, 44160, Control_c, 4, 11, 127
7, 44160, Note_on_c, 4, 49, 98
7, 44168, Note_on_c, 4, 56, 98
7, 44176, Note_on_c, 4, 61, 98
7, 44640, Note_off_c, 4, 61, 64
7, 44640, Note_off_c, 4, 56, 64
7, 44640, Note_off_c, 4, 49, 64
7, 44640, Control_c, 4, 11, 85
7, 44640, Note_on_c, 4, 49, 98
7, 44648, Note_on_c, 4, 56, 98
7, 44656, Note_on_c, 4, 61, 98
7, 44880, Note_off_c, 4, 56, 64
7, 44880, Note_off_c, 4, 49, 64
7, 44880, Note_on_c, 4, 49, 98
7, 44888, Note_on_c, 4, 56, 98
7, 44896, Note_off_c, 4, 61, 64
7, 44896, Note_on_c, 4, 61, 98
7, 45120, Note_off_c, 4, 49, 64
7, 45120, Note_off_c, 4, 56, 64
7, 45120, Note_on_c, 4, 49, 98
7, 45128, Note_on_c, 4, 56, 98
7, 45136, Note_off_c, 4, 61, 64
7, 45136, Note_on_c, 4, 61, 98
7, 45360, Note_off_c, 4, 49, 64
7, 45360, Note_off_c, 4, 56, 64
7, 45360, Note_on_c, 4, 49, 98
7, 45368, Note_on_c, 4, 56, 98
7, 45376, Note_off_c, 4, 61, 64
7, 45376, Note_on_c, 4, 61, 98
7, 45600, Note_off_c, 4, 49, 64
7, 45600, Note_off_c, 4, 56, 64
7, 45600, Note_on_c, 4, 49, 98
7, 45608, Note_on_c, 4, 56, 98
7, 45616, Note_off_c, 4, 61, 64
7, 45616, Note_on_c, 4, 61, 98
7, 45748, Control_c, 4, 11, 91
7, 45840, Note_off_c, 4, 49, 64
7, 45840, Note_off_c, 4, 56, 64
7, 45840, Note_on_c, 4, 49, 98
7, 45848, Note_on_c, 4, 56, 98
7, 45856, Note_off_c, 4, 61, 64
7, 45856, Note_on_c, 4, 61, 98
7, 45984, Control_c, 4, 11, 105
7, 46080, Note_off_c, 4, 49, 64
7, 46080, Note_on_c, 4, 49, 98
7, 46084, Note_on_c, 4, 56, 98
7, 46088, Note_off_c, 4, 56, 64
7, 46088, Note_on_c, 4, 61, 98
7, 46092, Note_on_c, 4, 66, 98
7, 46096, Note_off_c, 4, 61, 64
7, 46144, Control_c, 4, 11, 115
7, 46304, Control_c, 4, 11, 120
7, 46320, Note_off_c, 4, 49, 64
7, 46320, Note_on_c, 4, 49, 98
7, 46324, Note_off_c, 4, 56, 64
7, 46324, Note_on_c, 4, 56, 98
7, 46328, Note_off_c, 4, 61, 64
7, 46328, Note_on_c, 4, 61, 98
7, 46332, Note_off_c, 4, 66, 64
7, 46332, Note_on_c, 4, 65, 85
7, 46548, Note_off_c, 4, 65, 64
7, 46552, Note_off_c, 4, 61, 64
7, 46556, Note_off_c, 4, 56, 64
7, 46560, Note_off_c, 4, 49, 64
7, 46560, Note_on_c, 4, 49, 98
7, 46560, Control_c, 4, 11, 127
7, 46568, Note_on_c, 4, 54, 98
7, 46800, Note_off_c, 4, 54, 64
7, 46800, Note_off_c, 4, 49, 64
7, 46800, Note_on_c, 4, 49, 98
7, 46804, Note_on_c, 4, 56, 98
7, 46808, Note_on_c, 4, 61, 98
7, 46812, Note_on_c, 4, 65, 85
7, 47748, Note_off_c, 4, 65, 64
7, 47752, Note_off_c, 4, 61, 64
7, 47756, Note_off_c, 4, 56, 64
7, 47760, Note_off_c, 4, 49, 64
7, 47760, Note_on_c, 4, 49, 98
7, 47764, Note_on_c, 4, 56, 98
7, 47768, Note_on_c, 4, 61, 98
7, 47772, Note_on_c, 4, 63, 98
7, 48000, Note_off_c, 4, 49, 64
7, 48000, Note_on_c, 4, 49, 88
7, 48004, Note_off_c, 4, 56, 64
7, 48004, Note_on_c, 4, 56, 88
7, 48008, Note_off_c, 4, 61, 64
7, 48008, Note_on_c, 4, 61, 88
7, 48012, Note_off_c, 4, 63, 64
7, 48012, Note_on_c, 4, 65, 65
7, 48708, Note_off_c, 4, 65, 64
7, 48712, Note_off_c, 4, 61, 64
7, 48716, Note_off_c, 4, 56, 64
7, 48720, Note_off_c, 4, 49, 64
7, 48720, Note_on_c, 4, 49, 88
7, 48724, Note_on_c, 4, 56, 88
7, 48728, Note_on_c, 4, 61, 88
7, 48732, Note_on_c, 4, 65, 65
7, 49668, Note_off_c, 4, 65, 64
7, 49672, Note_off_c, 4, 61, 64
7, 49676, Note_off_c, 4, 56, 64
7, 49680, Note_off_c, 4, 49, 64
7, 49680, Note_on_c, 4, 49, 88
7, 49684, Note_on_c, 4, 56, 88
7, 49688, Note_on_c, 4, 61, 88
7, 49692, Note_on_c, 4, 65, 65
7, 49920, Note_off_c, 4, 49, 64
7, 49920, Note_on_c, 4, 49, 88
7, 49924, Note_off_c, 4, 56, 64
7, 49928, Note_off_c, 4, 61, 64
7, 49928, Note_on_c, 4, 56, 88
7, 49932, Note_off_c, 4, 65, 64
7, 49936, Note_on_c, 4, 61, 88
7, 50400, Note_off_c, 4, 49, 64
7, 50400, Note_off_c, 4, 56, 64
7, 50400, Note_off_c, 4, 61, 64
7, 50400, Note_on_c, 4, 65, 88
7, 50640, Note_off_c, 4, 65, 64
7, 50640, Note_on_c, 4, 56, 88
7, 50648, Note_on_c, 4, 61, 88
7, 50656, Note_on_c, 4, 66, 88
7, 51120, Note_off_c, 4, 66, 64
7, 51120, Note_off_c, 4, 61, 64
7, 51120, Note_off_c, 4, 56, 64
7, 51120, Note_on_c, 4, 65, 88
7, 51360, Note_off_c, 4, 65, 64
7, 51360, Note_on_c, 4, 56, 88
7, 51368, Note_on_c, 4, 61, 88
7, 51600, Note_off_c, 4, 61, 64
7, 51600, Note_off_c, 4, 56, 64
7, 51600, Note_on_c, 4, 49, 88
7, 51608, Note_on_c, 4, 56, 88
7, 51840, Note_off_c, 4, 49, 64
7, 51840, Note_on_c, 4, 47, 88
7, 51844, Note_on_c, 4, 51, 76
7, 51848, Note_off_c, 4, 56, 64
7, 51848, Note_on_c, 4, 54, 88
7, 51852, Note_on_c, 4, 59, 88
7, 51856, Note_on_c, 4, 63, 76
7, 52304, Note_off_c, 4, 63, 64
7, 52308, Note_off_c, 4, 59, 64
7, 52312, Note_off_c, 4, 54, 64
7, 52316, Note_off_c, 4, 51, 64
7, 52320, Note_off_c, 4, 47, 64
7, 52320, Note_on_c, 4, 61, 88
7, 52560, Note_off_c, 4, 61, 64
7, 52560, Note_on_c, 4, 47, 88
7, 52564, Note_on_c, 4, 51, 76
7, 52568, Note_on_c, 4, 54, 88
7, 52572, Note_on_c, 4, 59, 88
7, 52576, Note_on_c, 4, 63, 76
7, 53760, Note_off_c, 4, 47, 64
7, 53760, Note_on_c, 4, 47, 88
7, 53764, Note_off_c, 4, 51, 64
7, 53764, Note_on_c, 4, 51, 88
7, 53768, Note_off_c, 4, 54, 64
7, 53768, Note_on_c, 4, 54, 88
7, 53772, Note_off_c, 4, 59, 64
7, 53772, Note_on_c, 4, 61, 88
7, 53776, Note_off_c, 4, 63, 64
7, 53988, Note_off_c, 4, 61, 64
7, 54000, Note_on_c, 4, 59, 88
7, 54228, Note_off_c, 4, 54, 64
7, 54240, Note_off_c, 4, 59, 64
7, 54240, Note_on_c, 4, 54, 88
7, 54480, Note_off_c, 4, 54, 64
7, 54480, Note_on_c, 4, 59, 88
7, 54716, Note_off_c, 4, 47, 64
7, 54720, Note_off_c, 4, 51, 64
7, 55440, Note_off_c, 4, 59, 64
7, 55440, Note_on_c, 4, 54, 88
7, 55680, Note_off_c, 4, 54, 64
7, 55680, Note_on_c, 4, 42, 88
7, 55684, Note_on_c, 4, 46, 88
7, 55688, Note_on_c, 4, 49, 88
7, 55692, Note_on_c, 4, 54, 88
7, 55696, Note_on_c, 4, 61, 88
7, 56144, Note_off_c, 4, 61, 64
7, 56148, Note_off_c, 4, 54, 64
7, 56152, Note_off_c, 4, 49, 64
7, 56156, Note_off_c, 4, 46, 64
7, 56160, Note_off_c, 4, 42, 64
7, 56160, Note_on_c, 4, 54, 88
7, 56400, Note_off_c, 4, 54, 64
7, 56400, Note_on_c, 4, 42, 88
7, 56404, Note_on_c, 4, 46, 88
7, 56408, Note_on_c, 4, 49, 88
7, 56412, Note_on_c, 4, 54, 88
7, 56416, Note_on_c, 4, 58, 88
7, 57776, Control_c, 4, 11, 120
7, 57972, Control_c, 4, 11, 112
7, 58172, Control_c, 4, 11, 104
7, 58372, Control_c, 4, 11, 96
7, 58572, Control_c, 4, 11, 88
7, 58768, Control_c, 4, 11, 80
7, 58968, Control_c, 4, 11, 72
7, 59168, Control_c, 4, 11, 64
7, 59368, Control_c, 4, 11, 56
7, 59504, Note_off_c, 4, 58, 64
7, 59508, Note_off_c, 4, 54, 64
7, 59512, Note_off_c, 4, 49, 64
7, 59516, Note_off_c, 4, 46, 64
7, 59516, Control_c, 4, 11, 50
7, 59520, Note_off_c, 4, 42, 64
7, 59520, Control_c, 4, 11, 127
7, 59520, Note_on_c, 4, 49, 88
7, 59528, Note_on_c, 4, 56, 88
7, 59536, Note_on_c, 4, 61, 88
7, 60000, Note_off_c, 4, 61, 64
7, 60000, Note_off_c, 4, 56, 64
7, 60000, Note_off_c, 4, 49, 64
7, 60000, Control_c, 4, 11, 85
7, 60000, Note_on_c, 4, 49, 88
7, 60008, Note_on_c, 4, 56, 88
7, 60016, Note_on_c, 4, 61, 88
7, 60240, Note_off_c, 4, 56, 64
7, 60240, Note_off_c, 4, 49, 64
7, 60240, Note_on_c, 4, 49, 88
7, 60248, Note_on_c, 4, 56, 88
7, 60256, Note_off_c, 4, 61, 64
7, 60256, Note_on_c, 4, 61, 88
7, 60480, Note_off_c, 4, 49, 64
7, 60480, Note_off_c, 4, 56, 64
7, 60480, Note_on_c, 4, 49, 88
7, 60488, Note_on_c, 4, 56, 88
7, 60496, Note_off_c, 4, 61, 64
7, 60496, Note_on_c, 4, 61, 88
7, 60720, Note_off_c, 4, 49, 64
7, 60720, Note_off_c, 4, 56, 64
7, 60720, Note_on_c, 4, 49, 88
7, 60728, Note_on_c, 4, 56, 88
7, 60736, Note_off_c, 4, 61, 64
7, 60736, Note_on_c, 4, 61, 88
7, 60960, Note_off_c, 4, 49, 64
7, 60960, Note_off_c, 4, 56, 64
7, 60960, Note_on_c, 4, 49, 88
7, 60968, Note_on_c, 4, 56, 88
7, 60976, Note_off_c, 4, 61, 64
7, 60976, Note_on_c, 4, 61, 88
7, 61108, Control_c, 4, 11, 91
7, 61200, Note_off_c, 4, 49, 64
7, 61200, Note_off_c, 4, 56, 64
7, 61200, Note_on_c, 4, 49, 88
7, 61208, Note_on_c, 4, 56, 88
7, 61216, Note_off_c, 4, 61, 64
7, 61216, Note_on_c, 4, 61, 88
7, 61344, Control_c, 4, 11, 105
7, 61440, Note_off_c, 4, 49, 64
7, 61440, Note_on_c, 4, 49, 98
7, 61444, Note_on_c, 4, 56, 98
7, 61448, Note_off_c, 4, 56, 64
7, 61448, Note_on_c, 4, 61, 98
7, 61452, Note_on_c, 4, 66, 98
7, 61456, Note_off_c, 4, 61, 64
7, 61504, Control_c, 4, 11, 110
7, 61664, Control_c, 4, 11, 120
7, 61680, Note_off_c, 4, 49, 64
7, 61680, Note_on_c, 4, 49, 98
7, 61684, Note_off_c, 4, 56, 64
7, 61684, Note_on_c, 4, 56, 98
7, 61688, Note_off_c, 4, 61, 64
7, 61688, Note_on_c, 4, 61, 98
7, 61692, Note_off_c, 4, 66, 64
7, 61692, Note_on_c, 4, 65, 85
7, 61908, Note_off_c, 4, 65, 64
7, 61912, Note_off_c, 4, 61, 64
7, 61916, Note_off_c, 4, 56, 64
7, 61920, Note_off_c, 4, 49, 64
7, 61920, Note_on_c, 4, 49, 98
7, 61920, Control_c, 4, 11, 127
7, 61928, Note_on_c, 4, 54, 98
7, 62160, Note_off_c, 4, 54, 64
7, 62160, Note_off_c, 4, 49, 64
7, 62160, Note_on_c, 4, 49, 98
7, 62164, Note_on_c, 4, 56, 98
7, 62168, Note_on_c, 4, 61, 98
7, 62172, Note_on_c, 4, 65, 85
7, 63108, Note_off_c, 4, 65, 64
7, 63112, Note_off_c, 4, 61, 64
7, 63116, Note_off_c, 4, 56, 64
7, 63120, Note_off_c, 4, 49, 64
7, 63120, Note_on_c, 4, 49, 98
7, 63124, Note_on_c, 4, 56, 98
7, 63128, Note_on_c, 4, 61, 98
7, 63132, Note_on_c, 4, 63, 98
7, 63360, Note_off_c, 4, 49, 64
7, 63360, Note_on_c, 4, 49, 88
7, 63364, Note_off_c, 4, 56, 64
7, 63364, Note_on_c, 4, 56, 88
7, 63368, Note_off_c, 4, 61, 64
7, 63368, Note_on_c, 4, 61, 88
7, 63372, Note_off_c, 4, 63, 64
7, 63372, Note_on_c, 4, 65, 65
7, 64068, Note_off_c, 4, 65, 64
7, 64072, Note_off_c, 4, 61, 64
7, 64076, Note_off_c, 4, 56, 64
7, 64080, Note_off_c, 4, 49, 64
7, 64080, Note_on_c, 4, 49, 88
7, 64084, Note_on_c, 4, 56, 88
7, 64088, Note_on_c, 4, 61, 88
7, 64092, Note_on_c, 4, 65, 65
7, 65028, Note_off_c, 4, 65, 64
7, 65032, Note_off_c, 4, 61, 64
7, 65036, Note_off_c, 4, 56, 64
7, 65040, Note_off_c, 4, 49, 64
7, 65040, Note_on_c, 4, 49, 88
7, 65044, Note_on_c, 4, 56, 88
7, 65048, Note_on_c, 4, 61, 88
7, 65052, Note_on_c, 4, 65, 65
7, 65280, Note_off_c, 4, 49, 64
7, 65280, Note_on_c, 4, 49, 88
7, 65284, Note_off_c, 4, 56, 64
7, 65288, Note_off_c, 4, 61, 64
7, 65288, Note_on_c, 4, 56, 88
7, 65292, Note_off_c, 4, 65, 64
7, 65296, Note_on_c, 4, 61, 88
7, 65760, Note_off_c, 4, 49, 64
7, 65760, Note_off_c, 4, 56, 64
7, 65760, Note_off_c, 4, 61, 64
7, 65760, Note_on_c, 4, 65, 88
7, 66000, Note_off_c, 4, 65, 64
7, 66000, Note_on_c, 4, 56, 88
7, 66008, Note_on_c, 4, 61, 88
7, 66016, Note_on_c, 4, 66, 88
7, 66480, Note_off_c, 4, 66, 64
7, 66480, Note_off_c, 4, 61, 64
7, 66480, Note_off_c, 4, 56, 64
7, 66480, Note_on_c, 4, 65, 88
7, 66720, Note_off_c, 4, 65, 64
7, 66720, Note_on_c, 4, 56, 88
7, 66728, Note_on_c, 4, 61, 88
7, 66960, Note_off_c, 4, 61, 64
7, 66960, Note_off_c, 4, 56, 64
7, 66960, Note_on_c, 4, 49, 88
7, 66968, Note_on_c, 4, 56, 88
7, 67200, Note_off_c, 4, 49, 64
7, 67200, Note_on_c, 4, 47, 88
7, 67204, Note_on_c, 4, 51, 76
7, 67208, Note_off_c, 4, 56, 64
7, 67208, Note_on_c, 4, 54, 88
7, 67212, Note_on_c, 4, 59, 88
7, 67216, Note_on_c, 4, 63, 76
7, 67664, Note_off_c, 4, 63, 64
7, 67668, Note_off_c, 4, 59, 64
7, 67672, Note_off_c, 4, 54, 64
7, 67676, Note_off_c, 4, 51, 64
7, 67680, Note_off_c, 4, 47, 64
7, 67680, Note_on_c, 4, 61, 88
7, 67920, Note_off_c, 4, 61, 64
7, 67920, Note_on_c, 4, 47, 88
7, 67924, Note_on_c, 4, 51, 76
7, 67928, Note_on_c, 4, 54, 88
7, 67932, Note_on_c, 4, 59, 88
7, 67936, Note_on_c, 4, 63, 76
7, 69120, Note_off_c, 4, 47, 64
7, 69120, Note_on_c, 4, 47, 88
7, 69124, Note_off_c, 4, 51, 64
7, 69124, Note_on_c, 4, 51, 88
7, 69128, Note_off_c, 4, 54, 64
7, 69128, Note_on_c, 4, 54, 88
7, 69132, Note_off_c, 4, 59, 64
7, 69132, Note_on_c, 4, 61, 88
7, 69136, Note_off_c, 4, 63, 64
7, 69348, Note_off_c, 4, 61, 64
7, 69360, Note_on_c, 4, 59, 88
7, 69588, Note_off_c, 4, 54, 64
7, 69600, Note_off_c, 4, 59, 64
7, 69600, Note_on_c, 4, 54, 88
7, 69840, Note_off_c, 4, 54, 64
7, 69840, Note_on_c, 4, 59, 88
7, 70076, Note_off_c, 4, 47, 64
7, 70080, Note_off_c, 4, 51, 64
7, 70800, Note_off_c, 4, 59, 64
7, 70800, Note_on_c, 4, 54, 88
7, 71040, Note_off_c, 4, 54, 64
7, 71040, Note_on_c, 4, 42, 88
7, 71044, Note_on_c, 4, 46, 88
7, 71048, Note_on_c, 4, 49, 88
7, 71052, Note_on_c, 4, 54, 88
7, 71056, Note_on_c, 4, 61, 88
7, 71504, Note_off_c, 4, 61, 64
7, 71508, Note_off_c, 4, 54, 64
7, 71512, Note_off_c, 4, 49, 64
7, 71516, Note_off_c, 4, 46, 64
7, 71520, Note_off_c, 4, 42, 64
7, 71520, Note_on_c, 4, 54, 88
7, 71760, Note_off_c, 4, 54, 64
7, 71760, Note_on_c, 4, 42, 88
7, 71764, Note_on_c, 4, 46, 88
7, 71768, Note_on_c, 4, 49, 88
7, 71772, Note_on_c, 4, 54, 88
7, 71776, Note_on_c, 4, 58, 88
7, 73136, Control_c, 4, 11, 120
7, 73332, Control_c, 4, 11, 112
7, 73532, Control_c, 4, 11, 104
7, 73732, Control_c, 4, 11, 96
7, 73932, Control_c, 4, 11, 88
7, 74128, Control_c, 4, 11, 80
7, 74328, Control_c, 4, 11, 72
7, 74528, Control_c, 4, 11, 64
7, 74728, Control_c, 4, 11, 56
7, 74824, Note_off_c, 4, 58, 64
7, 74828, Note_off_c, 4, 54, 64
7, 74832, Note_off_c, 4, 49, 64
7, 74836, Note_off_c, 4, 46, 64
7, 74840, Note_off_c, 4, 42, 64
7, 74876, Control_c, 4, 11, 50
7, 74880, Control_c, 4, 11, 127
7, 74880, Note_on_c, 4, 49, 98
7, 74888, Note_on_c, 4, 56, 98
7, 74896, Note_on_c, 4, 61, 98
7, 75360, Note_off_c, 4, 61, 64
7, 75360, Note_off_c, 4, 56, 64
7, 75360, Note_off_c, 4, 49, 64
7, 75360, Control_c, 4, 11, 85
7, 75360, Note_on_c, 4, 49, 98
7, 75368, Note_on_c, 4, 56, 98
7, 75376, Note_on_c, 4, 61, 98
7, 75600, Note_off_c, 4, 56, 64
7, 75600, Note_off_c, 4, 49, 64
7, 75600, Note_on_c, 4, 49, 98
7, 75608, Note_on_c, 4, 56, 98
7, 75616, Note_off_c, 4, 61, 64
7, 75616, Note_on_c, 4, 61, 98
7, 75840, Note_off_c, 4, 49, 64
7, 75840, Note_off_c, 4, 56, 64
7, 75840, Note_on_c, 4, 49, 98
7, 75848, Note_on_c, 4, 56, 98
7, 75856, Note_off_c, 4, 61, 64
7, 75856, Note_on_c, 4, 61, 98
7, 76080, Note_off_c, 4, 49, 64
7, 76080, Note_off_c, 4, 56, 64
7, 76080, Note_on_c, 4, 49, 98
7, 76088, Note_on_c, 4, 56, 98
7, 76096, Note_off_c, 4, 61, 64
7, 76096, Note_on_c, 4, 61, 98
7, 76320, Note_off_c, 4, 49, 64
7, 76320, Note_off_c, 4, 56, 64
7, 76320, Note_on_c, 4, 49, 98
7, 76328, Note_on_c, 4, 56, 98
7, 76336, Note_off_c, 4, 61, 64
7, 76336, Note_on_c, 4, 61, 98
7, 76468, Control_c, 4, 11, 91
7, 76560, Note_off_c, 4, 49, 64
7, 76560, Note_off_c, 4, 56, 64
7, 76560, Note_on_c, 4, 49, 98
7, 76568, Note_on_c, 4, 56, 98
7, 76576, Note_off_c, 4, 61, 64
7, 76576, Note_on_c, 4, 61, 98
7, 76704, Control_c, 4, 11, 105
7, 76800, Note_off_c, 4, 49, 64
7, 76800, Control_c, 4, 11, 127
7, 76800, Note_on_c, 4, 49, 89
7, 76804, Note_on_c, 4, 56, 89
7, 76808, Note_off_c, 4, 56, 64
7, 76808, Note_on_c, 4, 61, 89
7, 76812, Note_on_c, 4, 66, 89
7, 76816, Note_off_c, 4, 61, 64
7, 77040, Note_off_c, 4, 49, 64
7, 77040, Note_off_c, 4, 56, 64
7, 77040, Note_off_c, 4, 61, 64
7, 77040, Note_off_c, 4, 66, 64
7, 77040, Note_on_c, 4, 49, 89
7, 77044, Note_on_c, 4, 56, 89
7, 77048, Note_on_c, 4, 61, 89
7, 77052, Note_on_c, 4, 65, 89
7, 77280, Note_off_c, 4, 65, 64
7, 77280, Note_off_c, 4, 61, 64
7, 77280, Note_off_c, 4, 56, 64
7, 77280, Note_off_c, 4, 49, 64
7, 77280, Note_on_c, 4, 49, 89
7, 77284, Note_on_c, 4, 56, 89
7, 77288, Note_on_c, 4, 61, 89
7, 77292, Note_on_c, 4, 63, 89
7, 77520, Note_off_c, 4, 61, 64
7, 77520, Note_off_c, 4, 56, 64
7, 77520, Note_off_c, 4, 49, 64
7, 77520, Note_on_c, 4, 49, 89
7, 77524, Note_on_c, 4, 56, 89
7, 77528, Note_on_c, 4, 61, 89
7, 77532, Note_off_c, 4, 63, 64
7, 77532, Note_on_c, 4, 65, 89
7, 78720, Note_off_c, 4, 49, 64
7, 78720, Note_on_c, 4, 44, 102
7, 78724, Note_off_c, 4, 56, 64
7, 78728, Note_off_c, 4, 61, 64
7, 78728, Note_on_c, 4, 51, 102
7, 78732, Note_off_c, 4, 65, 64
7, 78736, Note_on_c, 4, 56, 102
7, 79200, Note_off_c, 4, 44, 64
7, 79208, Note_off_c, 4, 51, 64
7, 79216, Note_off_c, 4, 56, 64
7, 79440, Note_on_c, 4, 44, 102
7, 79448, Note_on_c, 4, 51, 102
7, 79456, Note_on_c, 4, 56, 102
7, 80160, Note_off_c, 4, 56, 64
7, 80160, Note_off_c, 4, 51, 64
7, 80160, Note_off_c, 4, 44, 64
7, 80160, Note_on_c, 4, 46, 102
7, 80168, Note_on_c, 4, 53, 102
7, 80176, Note_on_c, 4, 58, 102
7, 80388, Note_off_c, 4, 58, 64
7, 80400, Note_off_c, 4, 53, 64
7, 80400, Note_off_c, 4, 46, 64
7, 80400, Note_on_c, 4, 46, 102
7, 80408, Note_on_c, 4, 53, 102
7, 80416, Note_on_c, 4, 58, 102
7, 80628, Note_off_c, 4, 46, 64
7, 80640, Note_off_c, 4, 53, 64
7, 80640, Note_off_c, 4, 58, 64
7, 80640, Note_on_c, 4, 47, 102
7, 80648, Note_on_c, 4, 54, 102
7, 80656, Note_on_c, 4, 59, 102
7, 81120, Note_off_c, 4, 47, 64
7, 81128, Note_off_c, 4, 54, 64
7, 81136, Note_off_c, 4, 59, 64
7, 81360, Note_on_c, 4, 47, 102
7, 81368, Note_on_c, 4, 54, 102
7, 81376, Note_on_c, 4, 59, 102
7, 82560, Note_off_c, 4, 47, 64
7, 82560, Note_on_c, 4, 49, 102
7, 82568, Note_off_c, 4, 54, 64
7, 82568, Note_on_c, 4, 56, 102
7, 82576, Note_off_c, 4, 59, 64
7, 82576, Note_on_c, 4, 61, 102
7, 83280, Note_off_c, 4, 49, 64
7, 83280, Note_off_c, 4, 56, 64
7, 83280, Note_off_c, 4, 61, 64
7, 83280, Note_on_c, 4, 49, 102
7, 83288, Note_on_c, 4, 56, 102
7, 83296, Note_on_c, 4, 61, 102
7, 83520, Note_off_c, 4, 61, 64
7, 83520, Note_off_c, 4, 56, 64
7, 83520, Note_off_c, 4, 49, 64
7, 83520, Note_on_c, 4, 49, 102
7, 83528, Note_on_c, 4, 56, 102
7, 83536, Note_on_c, 4, 61, 102
7, 84240, Note_off_c, 4, 61, 64
7, 84240, Note_off_c, 4, 56, 64
7, 84240, Note_off_c, 4, 49, 64
7, 84240, Note_on_c, 4, 49, 102
7, 84248, Note_on_c, 4, 56, 102
7, 84256, Note_on_c, 4, 61, 102
7, 84480, Note_off_c, 4, 49, 64
7, 84480, Note_on_c, 4, 49, 89
7, 84484, Note_on_c, 4, 56, 89
7, 84488, Note_off_c, 4, 56, 64
7, 84488, Note_on_c, 4, 61, 89
7, 84492, Note_on_c, 4, 66, 89
7, 84496, Note_off_c, 4, 61, 64
7, 84720, Note_off_c, 4, 49, 64
7, 84720, Note_off_c, 4, 56, 64
7, 84720, Note_off_c, 4, 61, 64
7, 84720, Note_off_c, 4, 66, 64
7, 84720, Note_on_c, 4, 49, 89
7, 84724, Note_on_c, 4, 56, 89
7, 84728, Note_on_c, 4, 61, 89
7, 84732, Note_on_c, 4, 65, 89
7, 84960, Note_off_c, 4, 65, 64
7, 84960, Note_off_c, 4, 61, 64
7, 84960, Note_off_c, 4, 56, 64
7, 84960, Note_off_c, 4, 49, 64
7, 84960, Note_on_c, 4, 49, 89
7, 84964, Note_on_c, 4, 56, 89
7, 84968, Note_on_c, 4, 61, 89
7, 84972, Note_on_c, 4, 63, 89
7, 85200, Note_off_c, 4, 61, 64
7, 85200, Note_off_c, 4, 56, 64
7, 85200, Note_off_c, 4, 49, 64
7, 85200, Note_on_c, 4, 49, 89
7, 85204, Note_on_c, 4, 56, 89
7, 85208, Note_on_c, 4, 61, 89
7, 85212, Note_off_c, 4, 63, 64
7, 85212, Note_on_c, 4, 65, 89
7, 86400, Note_off_c, 4, 49, 64
7, 86400, Note_on_c, 4, 44, 102
7, 86404, Note_off_c, 4, 56, 64
7, 86408, Note_off_c, 4, 61, 64
7, 86408, Note_on_c, 4, 51, 102
7, 86412, Note_off_c, 4, 65, 64
7, 86416, Note_on_c, 4, 56, 102
7, 86880, Note_off_c, 4, 44, 64
7, 86888, Note_off_c, 4, 51, 64
7, 86896, Note_off_c, 4, 56, 64
7, 87120, Note_on_c, 4, 44, 102
7, 87128, Note_on_c, 4, 51, 102
7, 87136, Note_on_c, 4, 56, 102
7, 87840, Note_off_c, 4, 56, 64
7, 87840, Note_off_c, 4, 51, 64
7, 87840, Note_off_c, 4, 44, 64
7, 87840, Note_on_c, 4, 46, 102
7, 87848, Note_on_c, 4, 53, 102
7, 87856, Note_on_c, 4, 58, 102
7, 88068, Note_off_c, 4, 58, 64
7, 88080, Note_off_c, 4, 53, 64
7, 88080, Note_off_c, 4, 46, 64
7, 88080, Note_on_c, 4, 46, 102
7, 88088, Note_on_c, 4, 53, 102
7, 88096, Note_on_c, 4, 58, 102
7, 88308, Note_off_c, 4, 46, 64
7, 88320, Note_off_c, 4, 53, 64
7, 88320, Note_off_c, 4, 58, 64
7, 88320, Note_on_c, 4, 47, 102
7, 88328, Note_on_c, 4, 54, 102
7, 88336, Note_on_c, 4, 59, 102
7, 88800, Note_off_c, 4, 47, 64
7, 88808, Note_off_c, 4, 54, 64
7, 88816, Note_off_c, 4, 59, 64
7, 89040, Note_on_c, 4, 47, 102
7, 89048, Note_on_c, 4, 54, 102
7, 89056, Note_on_c, 4, 59, 102
7, 90240, Note_off_c, 4, 47, 64
7, 90240, Note_on_c, 4, 49, 102
7, 90248, Note_off_c, 4, 54, 64
7, 90248, Note_on_c, 4, 56, 102
7, 90256, Note_off_c, 4, 59, 64
7, 90256, Note_on_c, 4, 61, 102
7, 92160, Note_off_c, 4, 49, 64
7, 92160, Note_on_c, 4, 49, 81
7, 92168, Note_off_c, 4, 56, 64
7, 92168, Note_on_c, 4, 56, 81
7, 92176, Note_off_c, 4, 61, 64
7, 92176, Note_on_c, 4, 61, 81
7, 92880, Note_off_c, 4, 49, 64
7, 92880, Note_on_c, 4, 49, 81
7, 92888, Note_off_c, 4, 56, 64
7, 92888, Note_on_c, 4, 56, 81
7, 92896, Note_off_c, 4, 61, 64
7, 92896, Note_on_c, 4, 61, 81
7, 93120, Note_off_c, 4, 49, 64
7, 93120, Note_on_c, 4, 49, 81
7, 93128, Note_off_c, 4, 56, 64
7, 93128, Note_on_c, 4, 56, 81
7, 93136, Note_off_c, 4, 61, 64
7, 93136, Note_on_c, 4, 61, 81
7, 93600, Note_off_c, 4, 49, 64
7, 93600, Note_on_c, 4, 49, 81
7, 93608, Note_off_c, 4, 56, 64
7, 93608, Note_on_c, 4, 56, 81
7, 93616, Note_off_c, 4, 61, 64
7, 93616, Note_on_c, 4, 61, 81
7, 94080, Note_off_c, 4, 49, 64
7, 94080, Note_on_c, 4, 49, 98
7, 94084, Note_on_c, 4, 56, 98
7, 94088, Note_off_c, 4, 56, 64
7, 94088, Note_on_c, 4, 61, 98
7, 94092, Note_on_c, 4, 65, 72
7, 94096, Note_off_c, 4, 61, 64
7, 94788, Note_off_c, 4, 65, 64
7, 94792, Note_off_c, 4, 61, 64
7, 94796, Note_off_c, 4, 56, 64
7, 94800, Note_off_c, 4, 49, 64
7, 94800, Note_on_c, 4, 49, 98
7, 94804, Note_on_c, 4, 56, 98
7, 94808, Note_on_c, 4, 61, 98
7, 94812, Note_on_c, 4, 65, 72
7, 95748, Note_off_c, 4, 65, 64
7, 95752, Note_off_c, 4, 61, 64
7, 95756, Note_off_c, 4, 56, 64
7, 95760, Note_off_c, 4, 49, 64
7, 95760, Note_on_c, 4, 49, 98
7, 95764, Note_on_c, 4, 56, 98
7, 95768, Note_on_c, 4, 61, 98
7, 95772, Note_on_c, 4, 65, 72
7, 96000, Note_off_c, 4, 49, 64
7, 96000, Note_on_c, 4, 49, 98
7, 96004, Note_off_c, 4, 56, 64
7, 96008, Note_off_c, 4, 61, 64
7, 96008, Note_on_c, 4, 56, 98
7, 96012, Note_off_c, 4, 65, 64
7, 96016, Note_on_c, 4, 61, 98
7, 96480, Note_off_c, 4, 49, 64
7, 96480, Note_off_c, 4, 56, 64
7, 96480, Note_off_c, 4, 61, 64
7, 96480, Note_on_c, 4, 65, 89
7, 96720, Note_off_c, 4, 65, 64
7, 96720, Note_on_c, 4, 56, 98
7, 96728, Note_on_c, 4, 61, 98
7, 96736, Note_on_c, 4, 66, 51
7, 97200, Note_off_c, 4, 66, 64
7, 97200, Note_off_c, 4, 61, 64
7, 97200, Note_off_c, 4, 56, 64
7, 97200, Note_on_c, 4, 65, 89
7, 97440, Note_off_c, 4, 65, 64
7, 97440, Note_on_c, 4, 56, 98
7, 97448, Note_on_c, 4, 61, 98
7, 97680, Note_off_c, 4, 61, 64
7, 97680, Note_off_c, 4, 56, 64
7, 97680, Note_on_c, 4, 49, 98
7, 97688, Note_on_c, 4, 56, 98
7, 97920, Note_off_c, 4, 49, 64
7, 97920, Note_on_c, 4, 47, 98
7, 97924, Note_on_c, 4, 51, 98
7, 97928, Note_off_c, 4, 56, 64
7, 97928, Note_on_c, 4, 54, 98
7, 97932, Note_on_c, 4, 59, 98
7, 97936, Note_on_c, 4, 63, 98
7, 98384, Note_off_c, 4, 63, 64
7, 98388, Note_off_c, 4, 59, 64
7, 98392, Note_off_c, 4, 54, 64
7, 98396, Note_off_c, 4, 51, 64
7, 98400, Note_off_c, 4, 47, 64
7, 98400, Note_on_c, 4, 61, 98
7, 98640, Note_off_c, 4, 61, 64
7, 98640, Note_on_c, 4, 47, 98
7, 98644, Note_on_c, 4, 51, 98
7, 98648, Note_on_c, 4, 54, 98
7, 98652, Note_on_c, 4, 59, 98
7, 98656, Note_on_c, 4, 63, 98
7, 99840, Note_off_c, 4, 47, 64
7, 99840, Note_on_c, 4, 47, 98
7, 99844, Note_off_c, 4, 51, 64
7, 99844, Note_on_c, 4, 51, 98
7, 99848, Note_off_c, 4, 54, 64
7, 99848, Note_on_c, 4, 54, 98
7, 99852, Note_off_c, 4, 59, 64
7, 99852, Note_on_c, 4, 61, 98
7, 99856, Note_off_c, 4, 63, 64
7, 100068, Note_off_c, 4, 61, 64
7, 100080, Note_on_c, 4, 59, 98
7, 100308, Note_off_c, 4, 54, 64
7, 100320, Note_off_c, 4, 59, 64
7, 100320, Note_on_c, 4, 54, 98
7, 100560, Note_off_c, 4, 54, 64
7, 100560, Note_on_c, 4, 59, 98
7, 100796, Note_off_c, 4, 47, 64
7, 100800, Note_off_c, 4, 51, 64
7, 101520, Note_off_c, 4, 59, 64
7, 101520, Note_on_c, 4, 54, 98
7, 101760, Note_off_c, 4, 54, 64
7, 101760, Note_on_c, 4, 42, 98
7, 101764, Note_on_c, 4, 46, 98
7, 101768, Note_on_c, 4, 49, 98
7, 101772, Note_on_c, 4, 54, 98
7, 101776, Note_on_c, 4, 61, 98
7, 102224, Note_off_c, 4, 61, 64
7, 102228, Note_off_c, 4, 54, 64
7, 102232, Note_off_c, 4, 49, 64
7, 102236, Note_off_c, 4, 46, 64
7, 102240, Note_off_c, 4, 42, 64
7, 102240, Note_on_c, 4, 54, 98
7, 102480, Note_off_c, 4, 54, 64
7, 102480, Note_on_c, 4, 42, 98
7, 102484, Note_on_c, 4, 46, 98
7, 102488, Note_on_c, 4, 49, 98
7, 102492, Note_on_c, 4, 54, 98
7, 102496, Note_on_c, 4, 58, 98
7, 103856, Control_c, 4, 11, 120
7, 104052, Control_c, 4, 11, 112
7, 104252, Control_c, 4, 11, 104
7, 104452, Control_c, 4, 11, 96
7, 104652, Control_c, 4, 11, 88
7, 104848, Control_c, 4, 11, 80
7, 105048, Control_c, 4, 11, 72
7, 105248, Control_c, 4, 11, 64
7, 105448, Control_c, 4, 11, 56
7, 105584, Note_off_c, 4, 58, 64
7, 105588, Note_off_c, 4, 54, 64
7, 105592, Note_off_c, 4, 49, 64
7, 105596, Note_off_c, 4, 46, 64
7, 105596, Control_c, 4, 11, 50
7, 105600, Note_off_c, 4, 42, 64
7, 105600, Control_c, 4, 11, 127
7, 105600, Note_on_c, 4, 49, 98
7, 105608, Note_on_c, 4, 56, 98
7, 105616, Note_on_c, 4, 61, 98
7, 106080, Note_off_c, 4, 61, 64
7, 106080, Note_off_c, 4, 56, 64
7, 106080, Note_off_c, 4, 49, 64
7, 106080, Control_c, 4, 11, 85
7, 106080, Note_on_c, 4, 49, 98
7, 106088, Note_on_c, 4, 56, 98
7, 106096, Note_on_c, 4, 61, 98
7, 106320, Note_off_c, 4, 56, 64
7, 106320, Note_off_c, 4, 49, 64
7, 106320, Note_on_c, 4, 49, 98
7, 106328, Note_on_c, 4, 56, 98
7, 106336, Note_off_c, 4, 61, 64
7, 106336, Note_on_c, 4, 61, 98
7, 106560, Note_off_c, 4, 49, 64
7, 106560, Note_off_c, 4, 56, 64
7, 106560, Note_on_c, 4, 49, 98
7, 106568, Note_on_c, 4, 56, 98
7, 106576, Note_off_c, 4, 61, 64
7, 106576, Note_on_c, 4, 61, 98
7, 106800, Note_off_c, 4, 49, 64
7, 106800, Note_off_c, 4, 56, 64
7, 106800, Note_on_c, 4, 49, 98
7, 106808, Note_on_c, 4, 56, 98
7, 106816, Note_off_c, 4, 61, 64
7, 106816, Note_on_c, 4, 61, 98
7, 107040, Note_off_c, 4, 49, 64
7, 107040, Note_off_c, 4, 56, 64
7, 107040, Note_on_c, 4, 49, 98
7, 107048, Note_on_c, 4, 56, 98
7, 107056, Note_off_c, 4, 61, 64
7, 107056, Note_on_c, 4, 61, 98
7, 107188, Control_c, 4, 11, 91
7, 107280, Note_off_c, 4, 49, 64
7, 107280, Note_off_c, 4, 56, 64
7, 107280, Note_on_c, 4, 49, 98
7, 107288, Note_on_c, 4, 56, 98
7, 107296, Note_off_c, 4, 61, 64
7, 107296, Note_on_c, 4, 61, 98
7, 107424, Control_c, 4, 11, 105
7, 107520, Note_off_c, 4, 49, 64
7, 107520, Note_on_c, 4, 49, 98
7, 107524, Note_on_c, 4, 56, 98
7, 107528, Note_off_c, 4, 56, 64
7, 107528, Note_on_c, 4, 61, 98
7, 107532, Note_on_c, 4, 66, 98
7, 107536, Note_off_c, 4, 61, 64
7, 107584, Control_c, 4, 11, 110
7, 107744, Control_c, 4, 11, 120
7, 107760, Note_off_c, 4, 49, 64
7, 107760, Note_on_c, 4, 49, 98
7, 107764, Note_off_c, 4, 56, 64
7, 107764, Note_on_c, 4, 56, 98
7, 107768, Note_off_c, 4, 61, 64
7, 107768, Note_on_c, 4, 61, 98
7, 107772, Note_off_c, 4, 66, 64
7, 107772, Note_on_c, 4, 65, 85
7, 107988, Note_off_c, 4, 65, 64
7, 107992, Note_off_c, 4, 61, 64
7, 107996, Note_off_c, 4, 56, 64
7, 108000, Note_off_c, 4, 49, 64
7, 108000, Note_on_c, 4, 49, 98
7, 108000, Control_c, 4, 11, 127
7, 108008, Note_on_c, 4, 54, 98
7, 108240, Note_off_c, 4, 54, 64
7, 108240, Note_off_c, 4, 49, 64
7, 108240, Note_on_c, 4, 49, 98
7, 108244, Note_on_c, 4, 56, 98
7, 108248, Note_on_c, 4, 61, 98
7, 108252, Note_on_c, 4, 65, 85
7, 109188, Note_off_c, 4, 65, 64
7, 109192, Note_off_c, 4, 61, 64
7, 109196, Note_off_c, 4, 56, 64
7, 109200, Note_off_c, 4, 49, 64
7, 109200, Note_on_c, 4, 49, 98
7, 109204, Note_on_c, 4, 56, 98
7, 109208, Note_on_c, 4, 61, 98
7, 109212, Note_on_c, 4, 63, 98
7, 109440, Note_off_c, 4, 49, 64
7, 109440, Note_on_c, 4, 49, 88
7, 109444, Note_off_c, 4, 56, 64
7, 109444, Note_on_c, 4, 56, 88
7, 109448, Note_off_c, 4, 61, 64
7, 109448, Note_on_c, 4, 61, 88
7, 109452, Note_off_c, 4, 63, 64
7, 109452, Note_on_c, 4, 65, 65
7, 110148, Note_off_c, 4, 65, 64
7, 110152, Note_off_c, 4, 61, 64
7, 110156, Note_off_c, 4, 56, 64
7, 110160, Note_off_c, 4, 49, 64
7, 110160, Note_on_c, 4, 49, 88
7, 110164, Note_on_c, 4, 56, 88
7, 110168, Note_on_c, 4, 61, 88
7, 110172, Note_on_c, 4, 65, 65
7, 111108, Note_off_c, 4, 65, 64
7, 111112, Note_off_c, 4, 61, 64
7, 111116, Note_off_c, 4, 56, 64
7, 111120, Note_off_c, 4, 49, 64
7, 111120, Note_on_c, 4, 49, 88
7, 111124, Note_on_c, 4, 56, 88
7, 111128, Note_on_c, 4, 61, 88
7, 111132, Note_on_c, 4, 65, 65
7, 111360, Note_off_c, 4, 49, 64
7, 111360, Note_on_c, 4, 49, 88
7, 111364, Note_off_c, 4, 56, 64
7, 111368, Note_off_c, 4, 61, 64
7, 111368, Note_on_c, 4, 56, 88
7, 111372, Note_off_c, 4, 65, 64
7, 111376, Note_on_c, 4, 61, 88
7, 111840, Note_off_c, 4, 49, 64
7, 111840, Note_off_c, 4, 56, 64
7, 111840, Note_off_c, 4, 61, 64
7, 111840, Note_on_c, 4, 65, 88
7, 112080, Note_off_c, 4, 65, 64
7, 112080, Note_on_c, 4, 56, 88
7, 112088, Note_on_c, 4, 61, 88
7, 112096, Note_on_c, 4, 66, 88
7, 112560, Note_off_c, 4, 66, 64
7, 112560, Note_off_c, 4, 61, 64
7, 112560, Note_off_c, 4, 56, 64
7, 112560, Note_on_c, 4, 65, 88
7, 112800, Note_off_c, 4, 65, 64
7, 112800, Note_on_c, 4, 56, 88
7, 112808, Note_on_c, 4, 61, 88
7, 113040, Note_off_c, 4, 61, 64
7, 113040, Note_off_c, 4, 56, 64
7, 113040, Note_on_c, 4, 49, 88
7, 113048, Note_on_c, 4, 56, 88
7, 113280, Note_off_c, 4, 49, 64
7, 113280, Note_on_c, 4, 47, 88
7, 113284, Note_on_c, 4, 51, 76
7, 113288, Note_off_c, 4, 56, 64
7, 113288, Note_on_c, 4, 54, 88
7, 113292, Note_on_c, 4, 59, 88
7, 113296, Note_on_c, 4, 63, 76
7, 113744, Note_off_c, 4, 63, 64
7, 113748, Note_off_c, 4, 59, 64
7, 113752, Note_off_c, 4, 54, 64
7, 113756, Note_off_c, 4, 51, 64
7, 113760, Note_off_c, 4, 47, 64
7, 113760, Note_on_c, 4, 61, 88
7, 114000, Note_off_c, 4, 61, 64
7, 114000, Note_on_c, 4, 47, 88
7, 114004, Note_on_c, 4, 51, 76
7, 114008, Note_on_c, 4, 54, 88
7, 114012, Note_on_c, 4, 59, 88
7, 114016, Note_on_c, 4, 63, 76
7, 115200, Note_off_c, 4, 47, 64
7, 115200, Note_on_c, 4, 47, 88
7, 115204, Note_off_c, 4, 51, 64
7, 115204, Note_on_c, 4, 51, 88
7, 115208, Note_off_c, 4, 54, 64
7, 115208, Note_on_c, 4, 54, 88
7, 115212, Note_off_c, 4, 59, 64
7, 115212, Note_on_c, 4, 61, 88
7, 115216, Note_off_c, 4, 63, 64
7, 115428, Note_off_c, 4, 61, 64
7, 115440, Note_on_c, 4, 59, 88
7, 115668, Note_off_c, 4, 54, 64
7, 115680, Note_off_c, 4, 59, 64
7, 115680, Note_on_c, 4, 54, 88
7, 115920, Note_off_c, 4, 54, 64
7, 115920, Note_on_c, 4, 59, 88
7, 116156, Note_off_c, 4, 47, 64
7, 116160, Note_off_c, 4, 51, 64
7, 116880, Note_off_c, 4, 59, 64
7, 116880, Note_on_c, 4, 54, 88
7, 117120, Note_off_c, 4, 54, 64
7, 117120, Note_on_c, 4, 42, 88
7, 117124, Note_on_c, 4, 46, 88
7, 117128, Note_on_c, 4, 49, 88
7, 117132, Note_on_c, 4, 54, 88
7, 117136, Note_on_c, 4, 61, 88
7, 117584, Note_off_c, 4, 61, 64
7, 117588, Note_off_c, 4, 54, 64
7, 117592, Note_off_c, 4, 49, 64
7, 117596, Note_off_c, 4, 46, 64
7, 117600, Note_off_c, 4, 42, 64
7, 117600, Note_on_c, 4, 54, 88
7, 117840, Note_off_c, 4, 54, 64
7, 117840, Note_on_c, 4, 42, 88
7, 117844, Note_on_c, 4, 46, 88
7, 117848, Note_on_c, 4, 49, 88
7, 117852, Note_on_c, 4, 54, 88
7, 117856, Note_on_c, 4, 58, 88
7, 119216, Control_c, 4, 11, 120
7, 119412, Control_c, 4, 11, 112
7, 119612, Control_c, 4, 11, 104
7, 119812, Control_c, 4, 11, 96
7, 120012, Control_c, 4, 11, 88
7, 120208, Control_c, 4, 11, 80
7, 120408, Control_c, 4, 11, 72
7, 120608, Control_c, 4, 11, 64
7, 120808, Control_c, 4, 11, 56
7, 120944, Note_off_c, 4, 58, 64
7, 120948, Note_off_c, 4, 54, 64
7, 120952, Note_off_c, 4, 49, 64
7, 120956, Note_off_c, 4, 46, 64
7, 120956, Control_c, 4, 11, 50
7, 120960, Note_off_c, 4, 42, 64
7, 120960, Control_c, 4, 11, 127
7, 120960, Note_on_c, 4, 49, 88
7, 120968, Note_on_c, 4, 56, 88
7, 120976, Note_on_c, 4, 61, 88
7, 121440, Note_off_c, 4, 61, 64
7, 121440, Note_off_c, 4, 56, 64
7, 121440, Note_off_c, 4, 49, 64
7, 121440, Control_c, 4, 11, 85
7, 121440, Note_on_c, 4, 49, 88
7, 121448, Note_on_c, 4, 56, 88
7, 121456, Note_on_c, 4, 61, 88
7, 121680, Note_off_c, 4, 56, 64
7, 121680, Note_off_c, 4, 49, 64
7, 121680, Note_on_c, 4, 49, 88
7, 121688, Note_on_c, 4, 56, 88
7, 121696, Note_off_c, 4, 61, 64
7, 121696, Note_on_c, 4, 61, 88
7, 121920, Note_off_c, 4, 49, 64
7, 121920, Note_off_c, 4, 56, 64
7, 121920, Note_on_c, 4, 49, 88
7, 121928, Note_on_c, 4, 56, 88
7, 121936, Note_off_c, 4, 61, 64
7, 121936, Note_on_c, 4, 61, 88
7, 122160, Note_off_c, 4, 49, 64
7, 122160, Note_off_c, 4, 56, 64
7, 122160, Note_on_c, 4, 49, 88
7, 122168, Note_on_c, 4, 56, 88
7, 122176, Note_off_c, 4, 61, 64
7, 122176, Note_on_c, 4, 61, 88
7, 122400, Note_off_c, 4, 49, 64
7, 122400, Note_off_c, 4, 56, 64
7, 122400, Note_on_c, 4, 49, 88
7, 122408, Note_on_c, 4, 56, 88
7, 122416, Note_off_c, 4, 61, 64
7, 122416, Note_on_c, 4, 61, 88
7, 122548, Control_c, 4, 11, 91
7, 122640, Note_off_c, 4, 49, 64
7, 122640, Note_off_c, 4, 56, 64
7, 122640, Note_on_c, 4, 49, 88
7, 122648, Note_on_c, 4, 56, 88
7, 122656, Note_off_c, 4, 61, 64
7, 122656, Note_on_c, 4, 61, 88
7, 122784, Control_c, 4, 11, 105
7, 122880, Note_off_c, 4, 49, 64
7, 122880, Note_on_c, 4, 49, 98
7, 122884, Note_on_c, 4, 56, 98
7, 122888, Note_off_c, 4, 56, 64
7, 122888, Note_on_c, 4, 61, 98
7, 122892, Note_on_c, 4, 66, 98
7, 122896, Note_off_c, 4, 61, 64
7, 122944, Control_c, 4, 11, 110
7, 123104, Control_c, 4, 11, 120
7, 123120, Note_off_c, 4, 49, 64
7, 123120, Note_on_c, 4, 49, 98
7, 123124, Note_off_c, 4, 56, 64
7, 123124, Note_on_c, 4, 56, 98
7, 123128, Note_off_c, 4, 61, 64
7, 123128, Note_on_c, 4, 61, 98
7, 123132, Note_off_c, 4, 66, 64
7, 123132, Note_on_c, 4, 65, 85
7, 123348, Note_off_c, 4, 65, 64
7, 123352, Note_off_c, 4, 61, 64
7, 123356, Note_off_c, 4, 56, 64
7, 123360, Note_off_c, 4, 49, 64
7, 123360, Note_on_c, 4, 49, 98
7, 123360, Control_c, 4, 11, 127
7, 123368, Note_on_c, 4, 54, 98
7, 123600, Note_off_c, 4, 54, 64
7, 123600, Note_off_c, 4, 49, 64
7, 123600, Note_on_c, 4, 49, 98
7, 123604, Note_on_c, 4, 56, 98
7, 123608, Note_on_c, 4, 61, 98
7, 123612, Note_on_c, 4, 65, 85
7, 124548, Note_off_c, 4, 65, 64
7, 124552, Note_off_c, 4, 61, 64
7, 124556, Note_off_c, 4, 56, 64
7, 124560, Note_off_c, 4, 49, 64
7, 124560, Note_on_c, 4, 49, 98
7, 124564, Note_on_c, 4, 56, 98
7, 124568, Note_on_c, 4, 61, 98
7, 124572, Note_on_c, 4, 63, 98
7, 124800, Note_off_c, 4, 49, 64
7, 124800, Note_on_c, 4, 49, 88
7, 124804, Note_off_c, 4, 56, 64
7, 124804, Note_on_c, 4, 56, 88
7, 124808, Note_off_c, 4, 61, 64
7, 124808, Note_on_c, 4, 61, 88
7, 124812, Note_off_c, 4, 63, 64
7, 124812, Note_on_c, 4, 65, 65
7, 125508, Note_off_c, 4, 65, 64
7, 125512, Note_off_c, 4, 61, 64
7, 125516, Note_off_c, 4, 56, 64
7, 125520, Note_off_c, 4, 49, 64
7, 125520, Note_on_c, 4, 49, 88
7, 125524, Note_on_c, 4, 56, 88
7, 125528, Note_on_c, 4, 61, 88
7, 125532, Note_on_c, 4, 65, 65
7, 126468, Note_off_c, 4, 65, 64
7, 126472, Note_off_c, 4, 61, 64
7, 126476, Note_off_c, 4, 56, 64
7, 126480, Note_off_c, 4, 49, 64
7, 126480, Note_on_c, 4, 49, 88
7, 126484, Note_on_c, 4, 56, 88
7, 126488, Note_on_c, 4, 61, 88
7, 126492, Note_on_c, 4, 65, 65
7, 126720, Note_off_c, 4, 49, 64
7, 126720, Note_on_c, 4, 49, 88
7, 126724, Note_off_c, 4, 56, 64
7, 126728, Note_off_c, 4, 61, 64
7, 126728, Note_on_c, 4, 56, 88
7, 126732, Note_off_c, 4, 65, 64
7, 126736, Note_on_c, 4, 61, 88
7, 127200, Note_off_c, 4, 49, 64
7, 127200, Note_off_c, 4, 56, 64
7, 127200, Note_off_c, 4, 61, 64
7, 127200, Note_on_c, 4, 65, 88
7, 127440, Note_off_c, 4, 65, 64
7, 127440, Note_on_c, 4, 56, 88
7, 127448, Note_on_c, 4, 61, 88
7, 127456, Note_on_c, 4, 66, 88
7, 127920, Note_off_c, 4, 66, 64
7, 127920, Note_off_c, 4, 61, 64
7, 127920, Note_off_c, 4, 56, 64
7, 127920, Note_on_c, 4, 65, 88
7, 128160, Note_off_c, 4, 65, 64
7, 128160, Note_on_c, 4, 56, 88
7, 128168, Note_on_c, 4, 61, 88
7, 128400, Note_off_c, 4, 61, 64
7, 128400, Note_off_c, 4, 56, 64
7, 128400, Note_on_c, 4, 49, 88
7, 128408, Note_on_c, 4, 56, 88
7, 128640, Note_off_c, 4, 49, 64
7, 128640, Note_on_c, 4, 47, 88
7, 128644, Note_on_c, 4, 51, 76
7, 128648, Note_off_c, 4, 56, 64
7, 128648, Note_on_c, 4, 54, 88
7, 128652, Note_on_c, 4, 59, 88
7, 128656, Note_on_c, 4, 63, 76
7, 129104, Note_off_c, 4, 63, 64
7, 129108, Note_off_c, 4, 59, 64
7, 129112, Note_off_c, 4, 54, 64
7, 129116, Note_off_c, 4, 51, 64
7, 129120, Note_off_c, 4, 47, 64
7, 129120, Note_on_c, 4, 61, 88
7, 129360, Note_off_c, 4, 61, 64
7, 129360, Note_on_c, 4, 47, 88
7, 129364, Note_on_c, 4, 51, 76
7, 129368, Note_on_c, 4, 54, 88
7, 129372, Note_on_c, 4, 59, 88
7, 129376, Note_on_c, 4, 63, 76
7, 130560, Note_off_c, 4, 47, 64
7, 130560, Note_on_c, 4, 47, 88
7, 130564, Note_off_c, 4, 51, 64
7, 130564, Note_on_c, 4, 51, 88
7, 130568, Note_off_c, 4, 54, 64
7, 130568, Note_on_c, 4, 54, 88
7, 130572, Note_off_c, 4, 59, 64
7, 130572, Note_on_c, 4, 61, 88
7, 130576, Note_off_c, 4, 63, 64
7, 130788, Note_off_c, 4, 61, 64
7, 130800, Note_on_c, 4, 59, 88
7, 131028, Note_off_c, 4, 54, 64
7, 131040, Note_off_c, 4, 59, 64
7, 131040, Note_on_c, 4, 54, 88
7, 131280, Note_off_c, 4, 54, 64
7, 131280, Note_on_c, 4, 59, 88
7, 131516, Note_off_c, 4, 47, 64
7, 131520, Note_off_c, 4, 51, 64
7, 132240, Note_off_c, 4, 59, 64
7, 132240, Note_on_c, 4, 54, 88
7, 132480, Note_off_c, 4, 54, 64
7, 132480, Note_on_c, 4, 42, 88
7, 132484, Note_on_c, 4, 46, 88
7, 132488, Note_on_c, 4, 49, 88
7, 132492, Note_on_c, 4, 54, 88
7, 132496, Note_on_c, 4, 61, 88
7, 132944, Note_off_c, 4, 61, 64
7, 132948, Note_off_c, 4, 54, 64
7, 132952, Note_off_c, 4, 49, 64
7, 132956, Note_off_c, 4, 46, 64
7, 132960, Note_off_c, 4, 42, 64
7, 132960, Note_on_c, 4, 54, 88
7, 133200, Note_off_c, 4, 54, 64
7, 133200, Note_on_c, 4, 42, 88
7, 133204, Note_on_c, 4, 46, 88
7, 133208, Note_on_c, 4, 49, 88
7, 133212, Note_on_c, 4, 54, 88
7, 133216, Note_on_c, 4, 58, 88
7, 134576, Control_c, 4, 11, 120
7, 134772, Control_c, 4, 11, 112
7, 134972, Control_c, 4, 11, 104
7, 135172, Control_c, 4, 11, 96
7, 135372, Control_c, 4, 11, 88
7, 135568, Control_c, 4, 11, 80
7, 135768, Control_c, 4, 11, 72
7, 135968, Control_c, 4, 11, 64
7, 136168, Control_c, 4, 11, 56
7, 136264, Note_off_c, 4, 58, 64
7, 136268, Note_off_c, 4, 54, 64
7, 136272, Note_off_c, 4, 49, 64
7, 136276, Note_off_c, 4, 46, 64
7, 136280, Note_off_c, 4, 42, 64
7, 136316, Control_c, 4, 11, 50
7, 136320, Control_c, 4, 11, 127
7, 136320, Note_on_c, 4, 49, 98
7, 136328, Note_on_c, 4, 56, 98
7, 136336, Note_on_c, 4, 61, 98
7, 136800, Note_off_c, 4, 61, 64
7, 136800, Note_off_c, 4, 56, 64
7, 136800, Note_off_c, 4, 49, 64
7, 136800, Control_c, 4, 11, 85
7, 136800, Note_on_c, 4, 49, 98
7, 136808, Note_on_c, 4, 56, 98
7, 136816, Note_on_c, 4, 61, 98
7, 137040, Note_off_c, 4, 56, 64
7, 137040, Note_off_c, 4, 49, 64
7, 137040, Note_on_c, 4, 49, 98
7, 137048, Note_on_c, 4, 56, 98
7, 137056, Note_off_c, 4, 61, 64
7, 137056, Note_on_c, 4, 61, 98
7, 137280, Note_off_c, 4, 49, 64
7, 137280, Note_off_c, 4, 56, 64
7, 137280, Note_on_c, 4, 49, 98
7, 137288, Note_on_c, 4, 56, 98
7, 137296, Note_off_c, 4, 61, 64
7, 137296, Note_on_c, 4, 61, 98
7, 137520, Note_off_c, 4, 49, 64
7, 137520, Note_off_c, 4, 56, 64
7, 137520, Note_on_c, 4, 49, 98
7, 137528, Note_on_c, 4, 56, 98
7, 137536, Note_off_c, 4, 61, 64
7, 137536, Note_on_c, 4, 61, 98
7, 137760, Note_off_c, 4, 49, 64
7, 137760, Note_off_c, 4, 56, 64
7, 137760, Note_on_c, 4, 49, 98
7, 137768, Note_on_c, 4, 56, 98
7, 137776, Note_off_c, 4, 61, 64
7, 137776, Note_on_c, 4, 61, 98
7, 137908, Control_c, 4, 11, 91
7, 138000, Note_off_c, 4, 49, 64
7, 138000, Note_off_c, 4, 56, 64
7, 138000, Note_on_c, 4, 49, 98
7, 138008, Note_on_c, 4, 56, 98
7, 138016, Note_off_c, 4, 61, 64
7, 138016, Note_on_c, 4, 61, 98
7, 138144, Control_c, 4, 11, 105
7, 138240, Note_off_c, 4, 49, 64
7, 138240, Control_c, 4, 11, 127
7, 138240, Note_on_c, 4, 49, 89
7, 138244, Note_on_c, 4, 56, 89
7, 138248, Note_off_c, 4, 56, 64
7, 138248, Note_on_c, 4, 61, 89
7, 138252, Note_on_c, 4, 66, 89
7, 138256, Note_off_c, 4, 61, 64
7, 138480, Note_off_c, 4, 49, 64
7, 138480, Note_off_c, 4, 56, 64
7, 138480, Note_off_c, 4, 61, 64
7, 138480, Note_off_c, 4, 66, 64
7, 138480, Note_on_c, 4, 49, 89
7, 138484, Note_on_c, 4, 56, 89
7, 138488, Note_on_c, 4, 61, 89
7, 138492, Note_on_c, 4, 65, 89
7, 138720, Note_off_c, 4, 65, 64
7, 138720, Note_off_c, 4, 61, 64
7, 138720, Note_off_c, 4, 56, 64
7, 138720, Note_off_c, 4, 49, 64
7, 138720, Note_on_c, 4, 49, 89
7, 138724, Note_on_c, 4, 56, 89
7, 138728, Note_on_c, 4, 61, 89
7, 138732, Note_on_c, 4, 63, 89
7, 138960, Note_off_c, 4, 61, 64
7, 138960, Note_off_c, 4, 56, 64
7, 138960, Note_off_c, 4, 49, 64
7, 138960, Note_on_c, 4, 49, 89
7, 138964, Note_on_c, 4, 56, 89
7, 138968, Note_on_c, 4, 61, 89
7, 138972, Note_off_c, 4, 63, 64
7, 138972, Note_on_c, 4, 65, 89
7, 140160, Note_off_c, 4, 49, 64
7, 140160, Note_on_c, 4, 44, 102
7, 140164, Note_off_c, 4, 56, 64
7, 140168, Note_off_c, 4, 61, 64
7, 140168, Note_on_c, 4, 51, 102
7, 140172, Note_off_c, 4, 65, 64
7, 140176, Note_on_c, 4, 56, 102
7, 140640, Note_off_c, 4, 44, 64
7, 140648, Note_off_c, 4, 51, 64
7, 140656, Note_off_c, 4, 56, 64
7, 140880, Note_on_c, 4, 44, 102
7, 140888, Note_on_c, 4, 51, 102
7, 140896, Note_on_c, 4, 56, 102
7, 141600, Note_off_c, 4, 56, 64
7, 141600, Note_off_c, 4, 51, 64
7, 141600, Note_off_c, 4, 44, 64
7, 141600, Note_on_c, 4, 46, 102
7, 141608, Note_on_c, 4, 53, 102
7, 141616, Note_on_c, 4, 58, 102
7, 141828, Note_off_c, 4, 58, 64
7, 141840, Note_off_c, 4, 53, 64
7, 141840, Note_off_c, 4, 46, 64
7, 141840, Note_on_c, 4, 46, 102
7, 141848, Note_on_c, 4, 53, 102
7, 141856, Note_on_c, 4, 58, 102
7, 142068, Note_off_c, 4, 46, 64
7, 142080, Note_off_c, 4, 53, 64
7, 142080, Note_off_c, 4, 58, 64
7, 142080, Note_on_c, 4, 47, 102
7, 142088, Note_on_c, 4, 54, 102
7, 142096, Note_on_c, 4, 59, 102
7, 142560, Note_off_c, 4, 47, 64
7, 142568, Note_off_c, 4, 54, 64
7, 142576, Note_off_c, 4, 59, 64
7, 142800, Note_on_c, 4, 47, 102
7, 142808, Note_on_c, 4, 54, 102
7, 142816, Note_on_c, 4, 59, 102
7, 144000, Note_off_c, 4, 47, 64
7, 144000, Note_on_c, 4, 49, 102
7, 144008, Note_off_c, 4, 54, 64
7, 144008, Note_on_c, 4, 56, 102
7, 144016, Note_off_c, 4, 59, 64
7, 144016, Note_on_c, 4, 61, 102
7, 144720, Note_off_c, 4, 49, 64
7, 144720, Note_off_c, 4, 56, 64
7, 144720, Note_off_c, 4, 61, 64
7, 144720, Note_on_c, 4, 49, 102
7, 144728, Note_on_c, 4, 56, 102
7, 144736, Note_on_c, 4, 61, 102
7, 144960, Note_off_c, 4, 61, 64
7, 144960, Note_off_c, 4, 56, 64
7, 144960, Note_off_c, 4, 49, 64
7, 144960, Note_on_c, 4, 49, 102
7, 144968, Note_on_c, 4, 56, 102
7, 144976, Note_on_c, 4, 61, 102
7, 145680, Note_off_c, 4, 61, 64
7, 145680, Note_off_c, 4, 56, 64
7, 145680, Note_off_c, 4, 49, 64
7, 145680, Note_on_c, 4, 49, 102
7, 145688, Note_on_c, 4, 56, 102
7, 145696, Note_on_c, 4, 61, 102
7, 145920, Note_off_c, 4, 49, 64
7, 145920, Note_on_c, 4, 49, 89
7, 145924, Note_on_c, 4, 56, 89
7, 145928, Note_off_c, 4, 56, 64
7, 145928, Note_on_c, 4, 61, 89
7, 145932, Note_on_c, 4, 66, 89
7, 145936, Note_off_c, 4, 61, 64
7, 146160, Note_off_c, 4, 49, 64
7, 146160, Note_off_c, 4, 56, 64
7, 146160, Note_off_c, 4, 61, 64
7, 146160, Note_off_c, 4, 66, 64
7, 146160, Note_on_c, 4, 49, 89
7, 146164, Note_on_c, 4, 56, 89
7, 146168, Note_on_c, 4, 61, 89
7, 146172, Note_on_c, 4, 65, 89
7, 146400, Note_off_c, 4, 65, 64
7, 146400, Note_off_c, 4, 61, 64
7, 146400, Note_off_c, 4, 56, 64
7, 146400, Note_off_c, 4, 49, 64
7, 146400, Note_on_c, 4, 49, 89
7, 146404, Note_on_c, 4, 56, 89
7, 146408, Note_on_c, 4, 61, 89
7, 146412, Note_on_c, 4, 63, 89
7, 146640, Note_off_c, 4, 61, 64
7, 146640, Note_off_c, 4, 56, 64
7, 146640, Note_off_c, 4, 49, 64
7, 146640, Note_on_c, 4, 49, 89
7, 146644, Note_on_c, 4, 56, 89
7, 146648, Note_on_c, 4, 61, 89
7, 146652, Note_off_c, 4, 63, 64
7, 146652, Note_on_c, 4, 65, 89
7, 147840, Note_off_c, 4, 49, 64
7, 147840, Note_on_c, 4, 44, 102
7, 147844, Note_off_c, 4, 56, 64
7, 147848, Note_off_c, 4, 61, 64
7, 147848, Note_on_c, 4, 51, 102
7, 147852, Note_off_c, 4, 65, 64
7, 147856, Note_on_c, 4, 56, 102
7, 148320, Note_off_c, 4, 44, 64
7, 148328, Note_off_c, 4, 51, 64
7, 148336, Note_off_c, 4, 56, 64
7, 148560, Note_on_c, 4, 44, 102
7, 148568, Note_on_c, 4, 51, 102
7, 148576, Note_on_c, 4, 56, 102
7, 149280, Note_off_c, 4, 56, 64
7, 149280, Note_off_c, 4, 51, 64
7, 149280, Note_off_c, 4, 44, 64
7, 149280, Note_on_c, 4, 46, 102
7, 149288, Note_on_c, 4, 53, 102
7, 149296, Note_on_c, 4, 58, 102
7, 149508, Note_off_c, 4, 58, 64
7, 149520, Note_off_c, 4, 53, 64
7, 149520, Note_off_c, 4, 46, 64
7, 149520, Note_on_c, 4, 46, 102
7, 149528, Note_on_c, 4, 53, 102
7, 149536, Note_on_c, 4, 58, 102
7, 149748, Note_off_c, 4, 46, 64
7, 149760, Note_off_c, 4, 53, 64
7, 149760, Note_off_c, 4, 58, 64
7, 149760, Note_on_c, 4, 47, 102
7, 149768, Note_on_c, 4, 54, 102
7, 149776, Note_on_c, 4, 59, 102
7, 150240, Note_off_c, 4, 47, 64
7, 150248, Note_off_c, 4, 54, 64
7, 150256, Note_off_c, 4, 59, 64
7, 150480, Note_on_c, 4, 47, 102
7, 150488, Note_on_c, 4, 54, 102
7, 150496, Note_on_c, 4, 59, 102
7, 151680, Note_off_c, 4, 47, 64
7, 151680, Note_on_c, 4, 49, 102
7, 151688, Note_off_c, 4, 54, 64
7, 151688, Note_on_c, 4, 56, 102
7, 151696, Note_off_c, 4, 59, 64
7, 151696, Note_on_c, 4, 61, 102
7, 153600, Note_off_c, 4, 49, 64
7, 153600, Note_on_c, 4, 49, 81
7, 153608, Note_off_c, 4, 56, 64
7, 153608, Note_on_c, 4, 56, 81
7, 153616, Note_off_c, 4, 61, 64
7, 153616, Note_on_c, 4, 61, 81
7, 154320, Note_off_c, 4, 49, 64
7, 154320, Note_on_c, 4, 49, 81
7, 154328, Note_off_c, 4, 56, 64
7, 154328, Note_on_c, 4, 56, 81
7, 154336, Note_off_c, 4, 61, 64
7, 154336, Note_on_c, 4, 61, 81
7, 154560, Note_off_c, 4, 49, 64
7, 154560, Note_on_c, 4, 49, 81
7, 154568, Note_off_c, 4, 56, 64
7, 154568, Note_on_c, 4, 56, 81
7, 154576, Note_off_c, 4, 61, 64
7, 154576, Note_on_c, 4, 61, 81
7, 155040, Note_off_c, 4, 49, 64
7, 155040, Note_on_c, 4, 49, 81
7, 155048, Note_off_c, 4, 56, 64
7, 155048, Note_on_c, 4, 56, 81
7, 155056, Note_off_c, 4, 61, 64
7, 155056, Note_on_c, 4, 61, 81
7, 155520, Note_off_c, 4, 49, 64
7, 155520, Note_on_c, 4, 49, 98
7, 155524, Note_on_c, 4, 56, 98
7, 155528, Note_off_c, 4, 56, 64
7, 155528, Note_on_c, 4, 61, 98
7, 155532, Note_on_c, 4, 65, 72
7, 155536, Note_off_c, 4, 61, 64
7, 156228, Note_off_c, 4, 65, 64
7, 156232, Note_off_c, 4, 61, 64
7, 156236, Note_off_c, 4, 56, 64
7, 156240, Note_off_c, 4, 49, 64
7, 156240, Note_on_c, 4, 49, 98
7, 156244, Note_on_c, 4, 56, 98
7, 156248, Note_on_c, 4, 61, 98
7, 156252, Note_on_c, 4, 65, 72
7, 157188, Note_off_c, 4, 65, 64
7, 157192, Note_off_c, 4, 61, 64
7, 157196, Note_off_c, 4, 56, 64
7, 157200, Note_off_c, 4, 49, 64
7, 157200, Note_on_c, 4, 49, 98
7, 157204, Note_on_c, 4, 56, 98
7, 157208, Note_on_c, 4, 61, 98
7, 157212, Note_on_c, 4, 65, 72
7, 157440, Note_off_c, 4, 49, 64
7, 157440, Note_on_c, 4, 49, 98
7, 157444, Note_off_c, 4, 56, 64
7, 157448, Note_off_c, 4, 61, 64
7, 157448, Note_on_c, 4, 56, 98
7, 157452, Note_off_c, 4, 65, 64
7, 157456, Note_on_c, 4, 61, 98
7, 157920, Note_off_c, 4, 49, 64
7, 157920, Note_off_c, 4, 56, 64
7, 157920, Note_off_c, 4, 61, 64
7, 157920, Note_on_c, 4, 65, 89
7, 158160, Note_off_c, 4, 65, 64
7, 158160, Note_on_c, 4, 56, 98
7, 158168, Note_on_c, 4, 61, 98
7, 158176, Note_on_c, 4, 66, 51
7, 158640, Note_off_c, 4, 66, 64
7, 158640, Note_off_c, 4, 61, 64
7, 158640, Note_off_c, 4, 56, 64
7, 158640, Note_on_c, 4, 65, 89
7, 158880, Note_off_c, 4, 65, 64
7, 158880, Note_on_c, 4, 56, 98
7, 158888, Note_on_c, 4, 61, 98
7, 159120, Note_off_c, 4, 61, 64
7, 159120, Note_off_c, 4, 56, 64
7, 159120, Note_on_c, 4, 49, 98
7, 159128, Note_on_c, 4, 56, 98
7, 159360, Note_off_c, 4, 49, 64
7, 159360, Note_on_c, 4, 47, 98
7, 159364, Note_on_c, 4, 51, 98
7, 159368, Note_off_c, 4, 56, 64
7, 159368, Note_on_c, 4, 54, 98
7, 159372, Note_on_c, 4, 59, 98
7, 159376, Note_on_c, 4, 63, 98
7, 159824, Note_off_c, 4, 63, 64
7, 159828, Note_off_c, 4, 59, 64
7, 159832, Note_off_c, 4, 54, 64
7, 159836, Note_off_c, 4, 51, 64
7, 159840, Note_off_c, 4, 47, 64
7, 159840, Note_on_c, 4, 61, 98
7, 160080, Note_off_c, 4, 61, 64
7, 160080, Note_on_c, 4, 47, 98
7, 160084, Note_on_c, 4, 51, 98
7, 160088, Note_on_c, 4, 54, 98
7, 160092, Note_on_c, 4, 59, 98
7, 160096, Note_on_c, 4, 63, 98
7, 161280, Note_off_c, 4, 47, 64
7, 161280, Note_on_c, 4, 47, 98
7, 161284, Note_off_c, 4, 51, 64
7, 161284, Note_on_c, 4, 51, 98
7, 161288, Note_off_c, 4, 54, 64
7, 161288, Note_on_c, 4, 54, 98
7, 161292, Note_off_c, 4, 59, 64
7, 161292, Note_on_c, 4, 61, 98
7, 161296, Note_off_c, 4, 63, 64
7, 161508, Note_off_c, 4, 61, 64
7, 161520, Note_on_c, 4, 59, 98
7, 161748, Note_off_c, 4, 54, 64
7, 161760, Note_off_c, 4, 59, 64
7, 161760, Note_on_c, 4, 54, 98
7, 162000, Note_off_c, 4, 54, 64
7, 162000, Note_on_c, 4, 59, 98
7, 162236, Note_off_c, 4, 47, 64
7, 162240, Note_off_c, 4, 51, 64
7, 162960, Note_off_c, 4, 59, 64
7, 162960, Note_on_c, 4, 54, 98
7, 163200, Note_off_c, 4, 54, 64
7, 163200, Note_on_c, 4, 42, 98
7, 163204, Note_on_c, 4, 46, 98
7, 163208, Note_on_c, 4, 49, 98
7, 163212, Note_on_c, 4, 54, 98
7, 163216, Note_on_c, 4, 61, 98
7, 163664, Note_off_c, 4, 61, 64
7, 163668, Note_off_c, 4, 54, 64
7, 163672, Note_off_c, 4, 49, 64
7, 163676, Note_off_c, 4, 46, 64
7, 163680, Note_off_c, 4, 42, 64
7, 163680, Note_on_c, 4, 54, 98
7, 163920, Note_off_c, 4, 54, 64
7, 163920, Note_on_c, 4, 42, 98
7, 163924, Note_on_c, 4, 46, 98
7, 163928, Note_on_c, 4, 49, 98
7, 163932, Note_on_c, 4, 54, 98
7, 163936, Note_on_c, 4, 58, 98
7, 165296, Control_c, 4, 11, 120
7, 165492, Control_c, 4, 11, 112
7, 165692, Control_c, 4, 11, 104
7, 165892, Control_c, 4, 11, 96
7, 166092, Control_c, 4, 11, 88
7, 166288, Control_c, 4, 11, 80
7, 166488, Control_c, 4, 11, 72
7, 166688, Control_c, 4, 11, 64
7, 166888, Control_c, 4, 11, 56
7, 167024, Note_off_c, 4, 58, 64
7, 167028, Note_off_c, 4, 54, 64
7, 167032, Note_off_c, 4, 49, 64
7, 167036, Note_off_c, 4, 46, 64
7, 167036, Control_c, 4, 11, 50
7, 167040, Note_off_c, 4, 42, 64
7, 167040, Control_c, 4, 11, 127
7, 167040, Note_on_c, 4, 49, 98
7, 167048, Note_on_c, 4, 56, 98
7, 167056, Note_on_c, 4, 61, 98
7, 167520, Note_off_c, 4, 61, 64
7, 167520, Note_off_c, 4, 56, 64
7, 167520, Note_off_c, 4, 49, 64
7, 167520, Control_c, 4, 11, 85
7, 167520, Note_on_c, 4, 49, 98
7, 167528, Note_on_c, 4, 56, 98
7, 167536, Note_on_c, 4, 61, 98
7, 167760, Note_off_c, 4, 56, 64
7, 167760, Note_off_c, 4, 49, 64
7, 167760, Note_on_c, 4, 49, 98
7, 167768, Note_on_c, 4, 56, 98
7, 167776, Note_off_c, 4, 61, 64
7, 167776, Note_on_c, 4, 61, 98
7, 168000, Note_off_c, 4, 49, 64
7, 168000, Note_off_c, 4, 56, 64
7, 168000, Note_on_c, 4, 49, 98
7, 168008, Note_on_c, 4, 56, 98
7, 168016, Note_off_c, 4, 61, 64
7, 168016, Note_on_c, 4, 61, 98
7, 168240, Note_off_c, 4, 49, 64
7, 168240, Note_off_c, 4, 56, 64
7, 168240, Note_on_c, 4, 49, 98
7, 168248, Note_on_c, 4, 56, 98
7, 168256, Note_off_c, 4, 61, 64
7, 168256, Note_on_c, 4, 61, 98
7, 168480, Note_off_c, 4, 49, 64
7, 168480, Note_off_c, 4, 56, 64
7, 168480, Note_on_c, 4, 49, 98
7, 168488, Note_on_c, 4, 56, 98
7, 168496, Note_off_c, 4, 61, 64
7, 168496, Note_on_c, 4, 61, 98
7, 168628, Control_c, 4, 11, 91
7, 168720, Note_off_c, 4, 49, 64
7, 168720, Note_off_c, 4, 56, 64
7, 168720, Note_on_c, 4, 49, 98
7, 168728, Note_on_c, 4, 56, 98
7, 168736, Note_off_c, 4, 61, 64
7, 168736, Note_on_c, 4, 61, 98
7, 168864, Control_c, 4, 11, 105
7, 168960, Note_off_c, 4, 49, 64
7, 168960, Note_on_c, 4, 49, 98
7, 168964, Note_on_c, 4, 56, 98
7, 168968, Note_off_c, 4, 56, 64
7, 168968, Note_on_c, 4, 61, 98
7, 168972, Note_on_c, 4, 66, 98
7, 168976, Note_off_c, 4, 61, 64
7, 169024, Control_c, 4, 11, 110
7, 169184, Control_c, 4, 11, 120
7, 169200, Note_off_c, 4, 49, 64
7, 169200, Note_on_c, 4, 49, 98
7, 169204, Note_off_c, 4, 56, 64
7, 169204, Note_on_c, 4, 56, 98
7, 169208, Note_off_c, 4, 61, 64
7, 169208, Note_on_c, 4, 61, 98
7, 169212, Note_off_c, 4, 66, 64
7, 169212, Note_on_c, 4, 65, 85
7, 169428, Note_off_c, 4, 65, 64
7, 169432, Note_off_c, 4, 61, 64
7, 169436, Note_off_c, 4, 56, 64
7, 169440, Note_off_c, 4, 49, 64
7, 169440, Note_on_c, 4, 49, 98
7, 169440, Control_c, 4, 11, 127
7, 169448, Note_on_c, 4, 54, 98
7, 169680, Note_off_c, 4, 54, 64
7, 169680, Note_off_c, 4, 49, 64
7, 169680, Note_on_c, 4, 49, 98
7, 169684, Note_on_c, 4, 56, 98
7, 169688, Note_on_c, 4, 61, 98
7, 169692, Note_on_c, 4, 65, 85
7, 170628, Note_off_c, 4, 65, 64
7, 170632, Note_off_c, 4, 61, 64
7, 170636, Note_off_c, 4, 56, 64
7, 170640, Note_off_c, 4, 49, 64
7, 170640, Note_on_c, 4, 49, 98
7, 170644, Note_on_c, 4, 56, 98
7, 170648, Note_on_c, 4, 61, 98
7, 170652, Note_on_c, 4, 63, 98
7, 170880, Note_off_c, 4, 49, 64
7, 170880, Note_on_c, 4, 49, 98
7, 170884, Note_off_c, 4, 56, 64
7, 170884, Note_on_c, 4, 56, 98
7, 170888, Note_off_c, 4, 61, 64
7, 170888, Note_on_c, 4, 61, 98
7, 170892, Note_off_c, 4, 63, 64
7, 170892, Note_on_c, 4, 65, 72
7, 171588, Note_off_c, 4, 65, 64
7, 171592, Note_off_c, 4, 61, 64
7, 171596, Note_off_c, 4, 56, 64
7, 171600, Note_off_c, 4, 49, 64
7, 171600, Note_on_c, 4, 49, 98
7, 171604, Note_on_c, 4, 56, 98
7, 171608, Note_on_c, 4, 61, 98
7, 171612, Note_on_c, 4, 65, 72
7, 172548, Note_off_c, 4, 65, 64
7, 172552, Note_off_c, 4, 61, 64
7, 172556, Note_off_c, 4, 56, 64
7, 172560, Note_off_c, 4, 49, 64
7, 172560, Note_on_c, 4, 49, 98
7, 172564, Note_on_c, 4, 56, 98
7, 172568, Note_on_c, 4, 61, 98
7, 172572, Note_on_c, 4, 65, 72
7, 172800, Note_off_c, 4, 49, 64
7, 172800, Note_on_c, 4, 49, 98
7, 172804, Note_off_c, 4, 56, 64
7, 172808, Note_off_c, 4, 61, 64
7, 172808, Note_on_c, 4, 56, 98
7, 172812, Note_off_c, 4, 65, 64
7, 172816, Note_on_c, 4, 61, 98
7, 173280, Note_off_c, 4, 49, 64
7, 173280, Note_off_c, 4, 56, 64
7, 173280, Note_off_c, 4, 61, 64
7, 173280, Note_on_c, 4, 65, 89
7, 173520, Note_off_c, 4, 65, 64
7, 173520, Note_on_c, 4, 56, 98
7, 173528, Note_on_c, 4, 61, 98
7, 173536, Note_on_c, 4, 66, 51
7, 174000, Note_off_c, 4, 66, 64
7, 174000, Note_off_c, 4, 61, 64
7, 174000, Note_off_c, 4, 56, 64
7, 174000, Note_on_c, 4, 65, 89
7, 174240, Note_off_c, 4, 65, 64
7, 174240, Note_on_c, 4, 56, 98
7, 174248, Note_on_c, 4, 61, 98
7, 174480, Note_off_c, 4, 61, 64
7, 174480, Note_off_c, 4, 56, 64
7, 174480, Note_on_c, 4, 49, 98
7, 174488, Note_on_c, 4, 56, 98
7, 174720, Note_off_c, 4, 49, 64
7, 174720, Note_on_c, 4, 47, 98
7, 174724, Note_on_c, 4, 51, 98
7, 174728, Note_off_c, 4, 56, 64
7, 174728, Note_on_c, 4, 54, 98
7, 174732, Note_on_c, 4, 59, 98
7, 174736, Note_on_c, 4, 63, 98
7, 175184, Note_off_c, 4, 63, 64
7, 175188, Note_off_c, 4, 59, 64
7, 175192, Note_off_c, 4, 54, 64
7, 175196, Note_off_c, 4, 51, 64
7, 175200, Note_off_c, 4, 47, 64
7, 175200, Note_on_c, 4, 61, 98
7, 175440, Note_off_c, 4, 61, 64
7, 175440, Note_on_c, 4, 47, 98
7, 175444, Note_on_c, 4, 51, 98
7, 175448, Note_on_c, 4, 54, 98
7, 175452, Note_on_c, 4, 59, 98
7, 175456, Note_on_c, 4, 63, 98
7, 176640, Note_off_c, 4, 47, 64
7, 176640, Note_on_c, 4, 47, 98
7, 176644, Note_off_c, 4, 51, 64
7, 176644, Note_on_c, 4, 51, 98
7, 176648, Note_off_c, 4, 54, 64
7, 176648, Note_on_c, 4, 54, 98
7, 176652, Note_off_c, 4, 59, 64
7, 176652, Note_on_c, 4, 61, 98
7, 176656, Note_off_c, 4, 63, 64
7, 176868, Note_off_c, 4, 61, 64
7, 176880, Note_on_c, 4, 59, 98
7, 177108, Note_off_c, 4, 54, 64
7, 177120, Note_off_c, 4, 59, 64
7, 177120, Note_on_c, 4, 54, 98
7, 177360, Note_off_c, 4, 54, 64
7, 177360, Note_on_c, 4, 59, 98
7, 177596, Note_off_c, 4, 47, 64
7, 177600, Note_off_c, 4, 51, 64
7, 178320, Note_off_c, 4, 59, 64
7, 178320, Note_on_c, 4, 54, 98
7, 178560, Note_off_c, 4, 54, 64
7, 178560, Note_on_c, 4, 42, 98
7, 178564, Note_on_c, 4, 46, 98
7, 178568, Note_on_c, 4, 49, 98
7, 178572, Note_on_c, 4, 54, 98
7, 178576, Note_on_c, 4, 61, 98
7, 179024, Note_off_c, 4, 61, 64
7, 179028, Note_off_c, 4, 54, 64
7, 179032, Note_off_c, 4, 49, 64
7, 179036, Note_off_c, 4, 46, 64
7, 179040, Note_off_c, 4, 42, 64
7, 179040, Note_on_c, 4, 54, 98
7, 179280, Note_off_c, 4, 54, 64
7, 179280, Note_on_c, 4, 42, 98
7, 179284, Note_on_c, 4, 46, 98
7, 179288, Note_on_c, 4, 49, 98
7, 179292, Note_on_c, 4, 54, 98
7, 179296, Note_on_c, 4, 58, 98
7, 180656, Control_c, 4, 11, 120
7, 180852, Control_c, 4, 11, 112
7, 181052, Control_c, 4, 11, 104
7, 181252, Control_c, 4, 11, 96
7, 181452, Control_c, 4, 11, 88
7, 181648, Control_c, 4, 11, 80
7, 181848, Control_c, 4, 11, 72
7, 182048, Control_c, 4, 11, 64
7, 182248, Control_c, 4, 11, 56
7, 182384, Note_off_c, 4, 58, 64
7, 182388, Note_off_c, 4, 54, 64
7, 182392, Note_off_c, 4, 49, 64
7, 182396, Note_off_c, 4, 46, 64
7, 182396, Control_c, 4, 11, 50
7, 182400, Note_off_c, 4, 42, 64
7, 182400, Control_c, 4, 11, 127
7, 182400, Note_on_c, 4, 49, 98
7, 182408, Note_on_c, 4, 56, 98
7, 182416, Note_on_c, 4, 61, 98
7, 182880, Note_off_c, 4, 61, 64
7, 182880, Note_off_c, 4, 56, 64
7, 182880, Note_off_c, 4, 49, 64
7, 182880, Control_c, 4, 11, 85
7, 182880, Note_on_c, 4, 49, 98
7, 182888, Note_on_c, 4, 56, 98
7, 182896, Note_on_c, 4, 61, 98
7, 183120, Note_off_c, 4, 56, 64
7, 183120, Note_off_c, 4, 49, 64
7, 183120, Note_on_c, 4, 49, 98
7, 183128, Note_on_c, 4, 56, 98
7, 183136, Note_off_c, 4, 61, 64
7, 183136, Note_on_c, 4, 61, 98
7, 183360, Note_off_c, 4, 49, 64
7, 183360, Note_off_c, 4, 56, 64
7, 183360, Note_on_c, 4, 49, 98
7, 183368, Note_on_c, 4, 56, 98
7, 183376, Note_off_c, 4, 61, 64
7, 183376, Note_on_c, 4, 61, 98
7, 183600, Note_off_c, 4, 49, 64
7, 183600, Note_off_c, 4, 56, 64
7, 183600, Note_on_c, 4, 49, 98
7, 183608, Note_on_c, 4, 56, 98
7, 183616, Note_off_c, 4, 61, 64
7, 183616, Note_on_c, 4, 61, 98
7, 183840, Note_off_c, 4, 49, 64
7, 183840, Note_off_c, 4, 56, 64
7, 183840, Note_on_c, 4, 49, 98
7, 183848, Note_on_c, 4, 56, 98
7, 183856, Note_off_c, 4, 61, 64
7, 183856, Note_on_c, 4, 61, 98
7, 183988, Control_c, 4, 11, 91
7, 184080, Note_off_c, 4, 49, 64
7, 184080, Note_off_c, 4, 56, 64
7, 184080, Note_on_c, 4, 49, 98
7, 184088, Note_on_c, 4, 56, 98
7, 184096, Note_off_c, 4, 61, 64
7, 184096, Note_on_c, 4, 61, 98
7, 184224, Control_c, 4, 11, 105
7, 184320, Note_off_c, 4, 49, 64
7, 184320, Control_c, 4, 11, 127
7, 184320, Note_on_c, 4, 49, 98
7, 184324, Note_on_c, 4, 56, 98
7, 184328, Note_off_c, 4, 56, 64
7, 184328, Note_on_c, 4, 61, 98
7, 184332, Note_on_c, 4, 66, 98
7, 184336, Note_off_c, 4, 61, 64
7, 184560, Note_off_c, 4, 49, 64
7, 184560, Note_off_c, 4, 56, 64
7, 184560, Note_off_c, 4, 61, 64
7, 184560, Note_off_c, 4, 66, 64
7, 184560, Note_on_c, 4, 49, 98
7, 184564, Note_on_c, 4, 56, 98
7, 184568, Note_on_c, 4, 61, 98
7, 184572, Note_on_c, 4, 65, 98
7, 184800, Note_off_c, 4, 65, 64
7, 184800, Note_off_c, 4, 61, 64
7, 184800, Note_off_c, 4, 56, 64
7, 184800, Note_off_c, 4, 49, 64
7, 184800, Note_on_c, 4, 49, 98
7, 184804, Note_on_c, 4, 56, 98
7, 184808, Note_on_c, 4, 61, 98
7, 184812, Note_on_c, 4, 63, 98
7, 185040, Note_off_c, 4, 61, 64
7, 185040, Note_off_c, 4, 56, 64
7, 185040, Note_off_c, 4, 49, 64
7, 185040, Note_on_c, 4, 49, 98
7, 185044, Note_on_c, 4, 56, 98
7, 185048, Note_on_c, 4, 61, 98
7, 185052, Note_off_c, 4, 63, 64
7, 185052, Note_on_c, 4, 65, 98
7, 186240, Note_off_c, 4, 49, 64
7, 186240, Note_on_c, 4, 44, 102
7, 186244, Note_off_c, 4, 56, 64
7, 186248, Note_off_c, 4, 61, 64
7, 186248, Note_on_c, 4, 51, 102
7, 186252, Note_off_c, 4, 65, 64
7, 186256, Note_on_c, 4, 56, 102
7, 186720, Note_off_c, 4, 44, 64
7, 186728, Note_off_c, 4, 51, 64
7, 186736, Note_off_c, 4, 56, 64
7, 186960, Note_on_c, 4, 44, 102
7, 186968, Note_on_c, 4, 51, 102
7, 186976, Note_on_c, 4, 56, 102
7, 187680, Note_off_c, 4, 56, 64
7, 187680, Note_off_c, 4, 51, 64
7, 187680, Note_off_c, 4, 44, 64
7, 187680, Note_on_c, 4, 46, 102
7, 187688, Note_on_c, 4, 53, 102
7, 187696, Note_on_c, 4, 58, 102
7, 187908, Note_off_c, 4, 58, 64
7, 187920, Note_off_c, 4, 53, 64
7, 187920, Note_off_c, 4, 46, 64
7, 187920, Note_on_c, 4, 46, 102
7, 187928, Note_on_c, 4, 53, 102
7, 187936, Note_on_c, 4, 58, 102
7, 188148, Note_off_c, 4, 46, 64
7, 188160, Note_off_c, 4, 53, 64
7, 188160, Note_off_c, 4, 58, 64
7, 188160, Note_on_c, 4, 47, 102
7, 188168, Note_on_c, 4, 54, 102
7, 188176, Note_on_c, 4, 59, 102
7, 188640, Note_off_c, 4, 47, 64
7, 188648, Note_off_c, 4, 54, 64
7, 188656, Note_off_c, 4, 59, 64
7, 188880, Note_on_c, 4, 47, 102
7, 188888, Note_on_c, 4, 54, 102
7, 188896, Note_on_c, 4, 59, 102
7, 190080, Note_off_c, 4, 47, 64
7, 190080, Note_on_c, 4, 49, 102
7, 190084, Note_on_c, 4, 56, 102
7, 190088, Note_off_c, 4, 54, 64
7, 190088, Note_on_c, 4, 61, 102
7, 190092, Note_on_c, 4, 65, 70
7, 190096, Note_off_c, 4, 59, 64
7, 190560, Note_off_c, 4, 49, 64
7, 190560, Note_on_c, 4, 49, 102
7, 190564, Note_off_c, 4, 56, 64
7, 190564, Note_on_c, 4, 56, 102
7, 190568, Note_off_c, 4, 61, 64
7, 190568, Note_on_c, 4, 61, 102
7, 190572, Note_off_c, 4, 65, 64
7, 190572, Note_on_c, 4, 65, 70
7, 190800, Note_off_c, 4, 49, 64
7, 190800, Note_on_c, 4, 49, 102
7, 190804, Note_off_c, 4, 56, 64
7, 190804, Note_on_c, 4, 56, 102
7, 190808, Note_off_c, 4, 61, 64
7, 190808, Note_on_c, 4, 61, 102
7, 190812, Note_off_c, 4, 65, 64
7, 190812, Note_on_c, 4, 65, 70
7, 191760, Note_off_c, 4, 49, 64
7, 191760, Note_on_c, 4, 49, 102
7, 191764, Note_off_c, 4, 56, 64
7, 191764, Note_on_c, 4, 56, 102
7, 191768, Note_off_c, 4, 61, 64
7, 191768, Note_on_c, 4, 61, 102
7, 191772, Note_off_c, 4, 65, 64
7, 191772, Note_on_c, 4, 65, 70
7, 191880, Note_off_c, 4, 49, 64
7, 191880, Note_on_c, 4, 49, 102
7, 191884, Note_off_c, 4, 56, 64
7, 191884, Note_on_c, 4, 56, 102
7, 191888, Note_off_c, 4, 61, 64
7, 191888, Note_on_c, 4, 61, 102
7, 191892, Note_off_c, 4, 65, 64
7, 191892, Note_on_c, 4, 65, 70
7, 192000, Note_off_c, 4, 49, 64
7, 192000, Note_on_c, 4, 49, 98
7, 192004, Note_off_c, 4, 56, 64
7, 192004, Note_on_c, 4, 56, 98
7, 192008, Note_off_c, 4, 61, 64
7, 192008, Note_on_c, 4, 61, 98
7, 192012, Note_off_c, 4, 65, 64
7, 192012, Note_on_c, 4, 66, 98
7, 192240, Note_off_c, 4, 49, 64
7, 192240, Note_off_c, 4, 56, 64
7, 192240, Note_off_c, 4, 61, 64
7, 192240, Note_off_c, 4, 66, 64
7, 192240, Note_on_c, 4, 49, 98
7, 192244, Note_on_c, 4, 56, 98
7, 192248, Note_on_c, 4, 61, 98
7, 192252, Note_on_c, 4, 65, 98
7, 192480, Note_off_c, 4, 65, 64
7, 192480, Note_off_c, 4, 61, 64
7, 192480, Note_off_c, 4, 56, 64
7, 192480, Note_off_c, 4, 49, 64
7, 192480, Note_on_c, 4, 49, 98
7, 192484, Note_on_c, 4, 56, 98
7, 192488, Note_on_c, 4, 61, 98
7, 192492, Note_on_c, 4, 63, 98
7, 192720, Note_off_c, 4, 61, 64
7, 192720, Note_off_c, 4, 56, 64
7, 192720, Note_off_c, 4, 49, 64
7, 192720, Note_on_c, 4, 49, 98
7, 192724, Note_on_c, 4, 56, 98
7, 192728, Note_on_c, 4, 61, 98
7, 192732, Note_off_c, 4, 63, 64
7, 192732, Note_on_c, 4, 65, 98
7, 193200, Note_off_c, 4, 49, 64
7, 193200, Note_on_c, 4, 49, 102
7, 193204, Note_off_c, 4, 56, 64
7, 193204, Note_on_c, 4, 56, 102
7, 193208, Note_off_c, 4, 61, 64
7, 193208, Note_on_c, 4, 61, 102
7, 193212, Note_off_c, 4, 65, 64
7, 193212, Note_on_c, 4, 65, 70
7, 193440, Note_off_c, 4, 49, 64
7, 193440, Note_on_c, 4, 49, 102
7, 193444, Note_off_c, 4, 56, 64
7, 193444, Note_on_c, 4, 56, 102
7, 193448, Note_off_c, 4, 61, 64
7, 193448, Note_on_c, 4, 61, 102
7, 193452, Note_off_c, 4, 65, 64
7, 193452, Note_on_c, 4, 65, 70
7, 193680, Note_off_c, 4, 49, 64
7, 193680, Note_on_c, 4, 49, 102
7, 193684, Note_off_c, 4, 56, 64
7, 193684, Note_on_c, 4, 56, 102
7, 193688, Note_off_c, 4, 61, 64
7, 193688, Note_on_c, 4, 61, 102
7, 193692, Note_off_c, 4, 65, 64
7, 193692, Note_on_c, 4, 65, 70
7, 193920, Note_off_c, 4, 49, 64
7, 193920, Note_on_c, 4, 44, 102
7, 193924, Note_off_c, 4, 56, 64
7, 193928, Note_off_c, 4, 61, 64
7, 193928, Note_on_c, 4, 51, 102
7, 193932, Note_off_c, 4, 65, 64
7, 193936, Note_on_c, 4, 56, 102
7, 194400, Note_off_c, 4, 44, 64
7, 194408, Note_off_c, 4, 51, 64
7, 194416, Note_off_c, 4, 56, 64
7, 194640, Note_on_c, 4, 44, 102
7, 194648, Note_on_c, 4, 51, 102
7, 194656, Note_on_c, 4, 56, 102
7, 195360, Note_off_c, 4, 56, 64
7, 195360, Note_off_c, 4, 51, 64
7, 195360, Note_off_c, 4, 44, 64
7, 195360, Note_on_c, 4, 46, 102
7, 195368, Note_on_c, 4, 53, 102
7, 195376, Note_on_c, 4, 58, 102
7, 195588, Note_off_c, 4, 58, 64
7, 195600, Note_off_c, 4, 53, 64
7, 195600, Note_off_c, 4, 46, 64
7, 195600, Note_on_c, 4, 46, 102
7, 195608, Note_on_c, 4, 53, 102
7, 195616, Note_on_c, 4, 58, 102
7, 195828, Note_off_c, 4, 46, 64
7, 195840, Note_off_c, 4, 53, 64
7, 195840, Note_off_c, 4, 58, 64
7, 195840, Note_on_c, 4, 47, 102
7, 195848, Note_on_c, 4, 54, 102
7, 195856, Note_on_c, 4, 59, 102
7, 196320, Note_off_c, 4, 47, 64
7, 196328, Note_off_c, 4, 54, 64
7, 196336, Note_off_c, 4, 59, 64
7, 196560, Note_on_c, 4, 47, 102
7, 196568, Note_on_c, 4, 54, 102
7, 196576, Note_on_c, 4, 59, 102
7, 197760, Note_off_c, 4, 47, 64
7, 197760, Note_on_c, 4, 49, 102
7, 197764, Note_on_c, 4, 56, 102
7, 197768, Note_off_c, 4, 54, 64
7, 197768, Note_on_c, 4, 61, 102
7, 197772, Note_on_c, 4, 65, 70
7, 197776, Note_off_c, 4, 59, 64
7, 199680, Note_off_c, 4, 49, 64
7, 199680, Note_on_c, 4, 49, 102
7, 199684, Note_off_c, 4, 56, 64
7, 199684, Note_on_c, 4, 56, 102
7, 199688, Note_off_c, 4, 61, 64
7, 199688, Note_on_c, 4, 61, 102
7, 199692, Note_off_c, 4, 65, 64
7, 199692, Note_on_c, 4, 65, 70
7, 200000, Note_off_c, 4, 49, 64
7, 200000, Note_on_c, 4, 49, 102
7, 200004, Note_off_c, 4, 56, 64
7, 200004, Note_on_c, 4, 56, 102
7, 200008, Note_off_c, 4, 61, 64
7, 200008, Note_on_c, 4, 61, 102
7, 200012, Note_off_c, 4, 65, 64
7, 200012, Note_on_c, 4, 65, 70
7, 200320, Note_off_c, 4, 49, 64
7, 200320, Note_on_c, 4, 49, 102
7, 200324, Note_off_c, 4, 56, 64
7, 200324, Note_on_c, 4, 56, 102
7, 200328, Note_off_c, 4, 61, 64
7, 200328, Note_on_c, 4, 61, 102
7, 200332, Note_off_c, 4, 65, 64
7, 200332, Note_on_c, 4, 65, 70
7, 200640, Note_off_c, 4, 49, 64
7, 200640, Note_on_c, 4, 49, 102
7, 200644, Note_off_c, 4, 56, 64
7, 200644, Note_on_c, 4, 56, 102
7, 200648, Note_off_c, 4, 61, 64
7, 200648, Note_on_c, 4, 61, 102
7, 200652, Note_off_c, 4, 65, 64
7, 200652, Note_on_c, 4, 65, 70
7, 200960, Note_off_c, 4, 49, 64
7, 200960, Note_on_c, 4, 49, 102
7, 200964, Note_off_c, 4, 56, 64
7, 200964, Note_on_c, 4, 56, 102
7, 200968, Note_off_c, 4, 61, 64
7, 200968, Note_on_c, 4, 61, 102
7, 200972, Note_off_c, 4, 65, 64
7, 200972, Note_on_c, 4, 65, 70
7, 201280, Note_off_c, 4, 49, 64
7, 201280, Note_on_c, 4, 49, 102
7, 201284, Note_off_c, 4, 56, 64
7, 201284, Note_on_c, 4, 56, 102
7, 201288, Note_off_c, 4, 61, 64
7, 201288, Note_on_c, 4, 61, 102
7, 201292, Note_off_c, 4, 65, 64
7, 201292, Note_on_c, 4, 65, 70
7, 201600, Note_off_c, 4, 49, 64
7, 201600, Note_on_c, 4, 44, 102
7, 201604, Note_off_c, 4, 56, 64
7, 201608, Note_off_c, 4, 61, 64
7, 201608, Note_on_c, 4, 51, 102
7, 201612, Note_off_c, 4, 65, 64
7, 201616, Note_on_c, 4, 56, 102
7, 202080, Note_off_c, 4, 44, 64
7, 202088, Note_off_c, 4, 51, 64
7, 202096, Note_off_c, 4, 56, 64
7, 202320, Note_on_c, 4, 44, 102
7, 202328, Note_on_c, 4, 51, 102
7, 202336, Note_on_c, 4, 56, 102
7, 203040, Note_off_c, 4, 56, 64
7, 203040, Note_off_c, 4, 51, 64
7, 203040, Note_off_c, 4, 44, 64
7, 203040, Note_on_c, 4, 46, 102
7, 203048, Note_on_c, 4, 53, 102
7, 203056, Note_on_c, 4, 58, 102
7, 203268, Note_off_c, 4, 58, 64
7, 203280, Note_off_c, 4, 53, 64
7, 203280, Note_off_c, 4, 46, 64
7, 203280, Note_on_c, 4, 46, 102
7, 203288, Note_on_c, 4, 53, 102
7, 203296, Note_on_c, 4, 58, 102
7, 203508, Note_off_c, 4, 46, 64
7, 203520, Note_off_c, 4, 53, 64
7, 203520, Note_off_c, 4, 58, 64
7, 203520, Note_on_c, 4, 47, 102
7, 203528, Note_on_c, 4, 54, 102
7, 203536, Note_on_c, 4, 59, 102
7, 204000, Note_off_c, 4, 47, 64
7, 204008, Note_off_c, 4, 54, 64
7, 204016, Note_off_c, 4, 59, 64
7, 204240, Note_on_c, 4, 47, 102
7, 204248, Note_on_c, 4, 54, 102
7, 204256, Note_on_c, 4, 59, 102
7, 205440, Note_off_c, 4, 47, 64
7, 205440, Note_on_c, 4, 49, 102
7, 205444, Note_on_c, 4, 56, 102
7, 205448, Note_off_c, 4, 54, 64
7, 205448, Note_on_c, 4, 61, 102
7, 205452, Note_on_c, 4, 65, 70
7, 205456, Note_off_c, 4, 59, 64
7, 205920, Note_off_c, 4, 49, 64
7, 205920, Note_on_c, 4, 49, 102
7, 205924, Note_off_c, 4, 56, 64
7, 205924, Note_on_c, 4, 56, 102
7, 205928, Note_off_c, 4, 61, 64
7, 205928, Note_on_c, 4, 61, 102
7, 205932, Note_off_c, 4, 65, 64
7, 205932, Note_on_c, 4, 65, 70
7, 206160, Note_off_c, 4, 49, 64
7, 206160, Note_on_c, 4, 49, 102
7, 206164, Note_off_c, 4, 56, 64
7, 206164, Note_on_c, 4, 56, 102
7, 206168, Note_off_c, 4, 61, 64
7, 206168, Note_on_c, 4, 61, 102
7, 206172, Note_off_c, 4, 65, 64
7, 206172, Note_on_c, 4, 65, 70
7, 207120, Note_off_c, 4, 49, 64
7, 207120, Note_on_c, 4, 49, 102
7, 207124, Note_off_c, 4, 56, 64
7, 207124, Note_on_c, 4, 56, 102
7, 207128, Note_off_c, 4, 61, 64
7, 207128, Note_on_c, 4, 61, 102
7, 207132, Note_off_c, 4, 65, 64
7, 207132, Note_on_c, 4, 65, 70
7, 207240, Note_off_c, 4, 49, 64
7, 207240, Note_on_c, 4, 49, 102
7, 207244, Note_off_c, 4, 56, 64
7, 207244, Note_on_c, 4, 56, 102
7, 207248, Note_off_c, 4, 61, 64
7, 207248, Note_on_c, 4, 61, 102
7, 207252, Note_off_c, 4, 65, 64
7, 207252, Note_on_c, 4, 65, 70
7, 207360, Note_off_c, 4, 49, 64
7, 207360, Note_on_c, 4, 49, 98
7, 207364, Note_off_c, 4, 56, 64
7, 207364, Note_on_c, 4, 56, 98
7, 207368, Note_off_c, 4, 61, 64
7, 207368, Note_on_c, 4, 61, 98
7, 207372, Note_off_c, 4, 65, 64
7, 207372, Note_on_c, 4, 66, 98
7, 207600, Note_off_c, 4, 49, 64
7, 207600, Note_off_c, 4, 56, 64
7, 207600, Note_off_c, 4, 61, 64
7, 207600, Note_off_c, 4, 66, 64
7, 207600, Note_on_c, 4, 49, 98
7, 207604, Note_on_c, 4, 56, 98
7, 207608, Note_on_c, 4, 61, 98
7, 207612, Note_on_c, 4, 65, 98
7, 207840, Note_off_c, 4, 65, 64
7, 207840, Note_off_c, 4, 61, 64
7, 207840, Note_off_c, 4, 56, 64
7, 207840, Note_off_c, 4, 49, 64
7, 207840, Note_on_c, 4, 49, 98
7, 207844, Note_on_c, 4, 56, 98
7, 207848, Note_on_c, 4, 61, 98
7, 207852, Note_on_c, 4, 63, 98
7, 208080, Note_off_c, 4, 61, 64
7, 208080, Note_off_c, 4, 56, 64
7, 208080, Note_off_c, 4, 49, 64
7, 208080, Note_on_c, 4, 49, 98
7, 208084, Note_on_c, 4, 56, 98
7, 208088, Note_on_c, 4, 61, 98
7, 208092, Note_off_c, 4, 63, 64
7, 208092, Note_on_c, 4, 65, 98
7, 208560, Note_off_c, 4, 49, 64
7, 208560, Note_on_c, 4, 49, 102
7, 208564, Note_off_c, 4, 56, 64
7, 208564, Note_on_c, 4, 56, 102
7, 208568, Note_off_c, 4, 61, 64
7, 208568, Note_on_c, 4, 61, 102
7, 208572, Note_off_c, 4, 65, 64
7, 208572, Note_on_c, 4, 65, 70
7, 208800, Note_off_c, 4, 49, 64
7, 208800, Note_on_c, 4, 49, 102
7, 208804, Note_off_c, 4, 56, 64
7, 208804, Note_on_c, 4, 56, 102
7, 208808, Note_off_c, 4, 61, 64
7, 208808, Note_on_c, 4, 61, 102
7, 208812, Note_off_c, 4, 65, 64
7, 208812, Note_on_c, 4, 65, 70
7, 209040, Note_off_c, 4, 49, 64
7, 209040, Note_on_c, 4, 49, 102
7, 209044, Note_off_c, 4, 56, 64
7, 209044, Note_on_c, 4, 56, 102
7, 209048, Note_off_c, 4, 61, 64
7, 209048, Note_on_c, 4, 61, 102
7, 209052, Note_off_c, 4, 65, 64
7, 209052, Note_on_c, 4, 65, 70
7, 209280, Note_off_c, 4, 49, 64
7, 209280, Note_on_c, 4, 44, 102
7, 209284, Note_off_c, 4, 56, 64
7, 209288, Note_off_c, 4, 61, 64
7, 209288, Note_on_c, 4, 51, 102
7, 209292, Note_off_c, 4, 65, 64
7, 209296, Note_on_c, 4, 56, 102
7, 209760, Note_off_c, 4, 44, 64
7, 209768, Note_off_c, 4, 51, 64
7, 209776, Note_off_c, 4, 56, 64
7, 210000, Note_on_c, 4, 44, 102
7, 210008, Note_on_c, 4, 51, 102
7, 210016, Note_on_c, 4, 56, 102
7, 210720, Note_off_c, 4, 56, 64
7, 210720, Note_off_c, 4, 51, 64
7, 210720, Note_off_c, 4, 44, 64
7, 210720, Note_on_c, 4, 46, 102
7, 210728, Note_on_c, 4, 53, 102
7, 210736, Note_on_c, 4, 58, 102
7, 210948, Note_off_c, 4, 58, 64
7, 210960, Note_off_c, 4, 53, 64
7, 210960, Note_off_c, 4, 46, 64
7, 210960, Note_on_c, 4, 46, 102
7, 210968, Note_on_c, 4, 53, 102
7, 210976, Note_on_c, 4, 58, 102
7, 211188, Note_off_c, 4, 46, 64
7, 211200, Note_off_c, 4, 53, 64
7, 211200, Note_off_c, 4, 58, 64
7, 211200, Note_on_c, 4, 47, 102
7, 211208, Note_on_c, 4, 54, 102
7, 211216, Note_on_c, 4, 59, 102
7, 211680, Note_off_c, 4, 47, 64
7, 211688, Note_off_c, 4, 54, 64
7, 211696, Note_off_c, 4, 59, 64
7, 211920, Note_on_c, 4, 47, 102
7, 211928, Note_on_c, 4, 54, 102
7, 211936, Note_on_c, 4, 59, 102
7, 213120, Note_off_c, 4, 47, 64
7, 213120, Note_on_c, 4, 49, 102
7, 213124, Control_c, 4, 11, 75
7, 213124, Note_on_c, 4, 56, 102
7, 213128, Note_off_c, 4, 54, 64
7, 213128, Note_on_c, 4, 61, 102
7, 213136, Note_off_c, 4, 59, 64
7, 213360, Note_off_c, 4, 49, 64
7, 213360, Note_on_c, 4, 49, 102
7, 213364, Note_off_c, 4, 56, 64
7, 213364, Note_on_c, 4, 56, 102
7, 213368, Note_off_c, 4, 61, 64
7, 213368, Note_on_c, 4, 61, 102
7, 213584, Control_c, 4, 11, 85
7, 213600, Note_off_c, 4, 49, 64
7, 213600, Note_on_c, 4, 49, 102
7, 213604, Note_off_c, 4, 56, 64
7, 213604, Note_on_c, 4, 56, 102
7, 213608, Note_off_c, 4, 61, 64
7, 213608, Note_on_c, 4, 61, 102
7, 213840, Note_off_c, 4, 49, 64
7, 213840, Note_on_c, 4, 49, 102
7, 213844, Note_off_c, 4, 56, 64
7, 213844, Note_on_c, 4, 56, 102
7, 213848, Note_off_c, 4, 61, 64
7, 213848, Note_on_c, 4, 61, 102
7, 214044, Control_c, 4, 11, 95
7, 214080, Note_off_c, 4, 49, 64
7, 214080, Note_on_c, 4, 49, 102
7, 214084, Note_off_c, 4, 56, 64
7, 214084, Note_on_c, 4, 56, 102
7, 214088, Note_off_c, 4, 61, 64
7, 214088, Note_on_c, 4, 61, 102
7, 214320, Note_off_c, 4, 49, 64
7, 214320, Note_on_c, 4, 49, 102
7, 214324, Note_off_c, 4, 56, 64
7, 214324, Note_on_c, 4, 56, 102
7, 214328, Note_off_c, 4, 61, 64
7, 214328, Note_on_c, 4, 61, 102
7, 214508, Control_c, 4, 11, 105
7, 214560, Note_off_c, 4, 49, 64
7, 214560, Note_on_c, 4, 49, 102
7, 214564, Note_off_c, 4, 56, 64
7, 214564, Note_on_c, 4, 56, 102
7, 214568, Note_off_c, 4, 61, 64
7, 214568, Note_on_c, 4, 61, 102
7, 214800, Note_off_c, 4, 49, 64
7, 214800, Note_on_c, 4, 49, 102
7, 214804, Note_off_c, 4, 56, 64
7, 214804, Note_on_c, 4, 56, 102
7, 214808, Note_off_c, 4, 61, 64
7, 214808, Note_on_c, 4, 61, 102
7, 214968, Control_c, 4, 11, 115
7, 215040, Note_off_c, 4, 49, 64
7, 215040, Note_on_c, 4, 49, 102
7, 215044, Note_off_c, 4, 56, 64
7, 215044, Note_on_c, 4, 56, 102
7, 215048, Note_off_c, 4, 61, 64
7, 215048, Note_on_c, 4, 61, 102
7, 215280, Note_off_c, 4, 49, 64
7, 215280, Note_on_c, 4, 49, 102
7, 215284, Note_off_c, 4, 56, 64
7, 215284, Note_on_c, 4, 56, 102
7, 215288, Note_off_c, 4, 61, 64
7, 215288, Note_on_c, 4, 61, 102
7, 215520, Note_off_c, 4, 49, 64
7, 215520, Control_c, 4, 11, 127
7, 215520, Note_on_c, 4, 49, 102
7, 215524, Note_off_c, 4, 56, 64
7, 215524, Note_on_c, 4, 56, 102
7, 215528, Note_off_c, 4, 61, 64
7, 215528, Note_on_c, 4, 61, 102
7, 215760, Note_off_c, 4, 49, 64
7, 215760, Note_on_c, 4, 49, 102
7, 215764, Note_off_c, 4, 56, 64
7, 215764, Note_on_c, 4, 56, 102
7, 215768, Note_off_c, 4, 61, 64
7, 215768, Note_on_c, 4, 61, 102
7, 216000, Note_off_c, 4, 49, 64
7, 216000, Note_on_c, 4, 49, 102
7, 216004, Note_off_c, 4, 56, 64
7, 216004, Note_on_c, 4, 56, 102
7, 216008, Note_off_c, 4, 61, 64
7, 216008, Note_on_c, 4, 61, 102
7, 216360, Note_off_c, 4, 49, 64
7, 216364, Note_off_c, 4, 56, 64
7, 216368, Note_off_c, 4, 61, 64
7, 216480, Note_on_c, 4, 62, 102
7, 216480, Note_on_c, 4, 50, 102
7, 216484, Note_on_c, 4, 57, 102
7, 216960, Note_off_c, 4, 50, 64
7, 216960, Note_off_c, 4, 62, 64
7, 216960, Note_on_c, 4, 39, 102
7, 216964, Note_off_c, 4, 57, 64
7, 216964, Note_on_c, 4, 46, 102
7, 216968, Note_on_c, 4, 51, 102
7, 216972, Note_on_c, 4, 54, 64
7, 216976, Note_on_c, 4, 58, 102
7, 217680, Note_off_c, 4, 58, 64
7, 217680, Note_off_c, 4, 54, 64
7, 217680, Note_off_c, 4, 51, 64
7, 217680, Note_off_c, 4, 39, 64
7, 217680, Note_off_c, 4, 46, 64
7, 217680, Note_on_c, 4, 39, 102
7, 217684, Note_on_c, 4, 46, 102
7, 217688, Note_on_c, 4, 51, 102
7, 217692, Note_on_c, 4, 54, 64
7, 217696, Note_on_c, 4, 58, 102
7, 218640, Note_off_c, 4, 58, 64
7, 218640, Note_off_c, 4, 51, 64
7, 218640, Note_off_c, 4, 46, 64
7, 218640, Note_off_c, 4, 39, 64
7, 218640, Note_on_c, 4, 39, 102
7, 218648, Note_on_c, 4, 46, 102
7, 218648, Note_on_c, 4, 51, 102
7, 218652, Note_off_c, 4, 54, 64
7, 218656, Note_on_c, 4, 58, 102
7, 218880, Note_off_c, 4, 39, 64
7, 218880, Note_on_c, 4, 47, 102
7, 218884, Note_on_c, 4, 51, 64
7, 218888, Note_off_c, 4, 46, 64
7, 218888, Note_off_c, 4, 51, 64
7, 218888, Note_on_c, 4, 54, 102
7, 218892, Note_on_c, 4, 59, 102
7, 218896, Note_off_c, 4, 58, 64
7, 219600, Note_off_c, 4, 47, 64
7, 219600, Note_on_c, 4, 47, 102
7, 219604, Note_off_c, 4, 51, 64
7, 219604, Note_on_c, 4, 51, 64
7, 219608, Note_off_c, 4, 54, 64
7, 219608, Note_on_c, 4, 54, 102
7, 219612, Note_off_c, 4, 59, 64
7, 219612, Note_on_c, 4, 59, 102
7, 220560, Note_off_c, 4, 47, 64
7, 220560, Note_off_c, 4, 51, 64
7, 220560, Note_off_c, 4, 54, 64
7, 220560, Note_off_c, 4, 59, 64
7, 220560, Note_on_c, 4, 47, 102
7, 220568, Note_on_c, 4, 51, 64
7, 220572, Note_on_c, 4, 54, 102
7, 220576, Note_on_c, 4, 59, 102
7, 220800, Note_off_c, 4, 47, 64
7, 220800, Note_on_c, 4, 46, 102
7, 220804, Note_on_c, 4, 53, 102
7, 220808, Note_off_c, 4, 51, 64
7, 220808, Note_on_c, 4, 58, 102
7, 220812, Note_off_c, 4, 54, 64
7, 220816, Note_off_c, 4, 59, 64
7, 221520, Note_off_c, 4, 46, 64
7, 221520, Note_off_c, 4, 53, 64
7, 221520, Note_off_c, 4, 58, 64
7, 221520, Note_on_c, 4, 46, 102
7, 221524, Note_on_c, 4, 53, 102
7, 221528, Note_on_c, 4, 58, 102
7, 222480, Note_off_c, 4, 58, 64
7, 222480, Note_off_c, 4, 53, 64
7, 222480, Note_off_c, 4, 46, 64
7, 222480, Note_on_c, 4, 46, 102
7, 222484, Note_on_c, 4, 53, 102
7, 222488, Note_on_c, 4, 58, 102
7, 222720, Note_off_c, 4, 46, 64
7, 222720, Note_on_c, 4, 44, 102
7, 222724, Note_off_c, 4, 53, 64
7, 222724, Note_on_c, 4, 51, 102
7, 222728, Note_off_c, 4, 58, 64
7, 222728, Note_on_c, 4, 56, 102
7, 222732, Note_on_c, 4, 59, 64
7, 223440, Note_off_c, 4, 59, 64
7, 223440, Note_off_c, 4, 44, 64
7, 223440, Note_off_c, 4, 51, 64
7, 223440, Note_off_c, 4, 56, 64
7, 223440, Note_on_c, 4, 44, 102
7, 223444, Note_on_c, 4, 51, 102
7, 223448, Note_on_c, 4, 56, 102
7, 223452, Note_on_c, 4, 59, 64
7, 224160, Note_off_c, 4, 59, 64
7, 224160, Note_off_c, 4, 56, 64
7, 224160, Note_off_c, 4, 51, 64
7, 224160, Note_off_c, 4, 44, 64
7, 224160, Note_on_c, 4, 44, 102
7, 224164, Note_on_c, 4, 51, 102
7, 224168, Note_on_c, 4, 56, 102
7, 224172, Note_on_c, 4, 59, 64
7, 224400, Note_off_c, 4, 59, 64
7, 224400, Note_off_c, 4, 56, 64
7, 224400, Note_off_c, 4, 51, 64
7, 224400, Note_off_c, 4, 44, 64
7, 224400, Note_on_c, 4, 56, 89
7, 224400, Note_on_c, 4, 51, 89
7, 224400, Note_on_c, 4, 44, 89
7, 224440, Note_off_c, 4, 44, 64
7, 224440, Note_off_c, 4, 56, 64
7, 224520, Note_off_c, 4, 51, 64
7, 224520, Note_on_c, 4, 56, 89
7, 224520, Note_on_c, 4, 51, 89
7, 224520, Note_on_c, 4, 44, 89
7, 224560, Note_off_c, 4, 44, 64
7, 224560, Note_off_c, 4, 51, 64
7, 224560, Note_off_c, 4, 56, 64
7, 224640, Note_on_c, 4, 39, 102
7, 224644, Note_on_c, 4, 46, 102
7, 224648, Note_on_c, 4, 51, 102
7, 224652, Note_on_c, 4, 54, 64
7, 224656, Note_on_c, 4, 58, 102
7, 225360, Note_off_c, 4, 58, 64
7, 225360, Note_off_c, 4, 54, 64
7, 225360, Note_off_c, 4, 51, 64
7, 225360, Note_off_c, 4, 46, 64
7, 225360, Note_off_c, 4, 39, 64
7, 225360, Note_on_c, 4, 39, 102
7, 225364, Note_on_c, 4, 46, 102
7, 225368, Note_on_c, 4, 51, 102
7, 225372, Note_on_c, 4, 54, 64
7, 225376, Note_on_c, 4, 58, 102
7, 226320, Note_off_c, 4, 58, 64
7, 226320, Note_off_c, 4, 51, 64
7, 226320, Note_off_c, 4, 46, 64
7, 226320, Note_off_c, 4, 39, 64
7, 226320, Note_on_c, 4, 39, 102
7, 226328, Note_on_c, 4, 46, 102
7, 226328, Note_on_c, 4, 51, 102
7, 226332, Note_off_c, 4, 54, 64
7, 226336, Note_on_c, 4, 58, 102
7, 226560, Note_off_c, 4, 39, 64
7, 226560, Note_on_c, 4, 47, 102
7, 226564, Note_on_c, 4, 51, 64
7, 226568, Note_off_c, 4, 46, 64
7, 226568, Note_off_c, 4, 51, 64
7, 226568, Note_on_c, 4, 54, 102
7, 226572, Note_on_c, 4, 59, 102
7, 226576, Note_off_c, 4, 58, 64
7, 227280, Note_off_c, 4, 47, 64
7, 227280, Note_on_c, 4, 47, 102
7, 227284, Note_off_c, 4, 51, 64
7, 227284, Note_on_c, 4, 51, 64
7, 227288, Note_off_c, 4, 54, 64
7, 227288, Note_on_c, 4, 54, 102
7, 227292, Note_off_c, 4, 59, 64
7, 227292, Note_on_c, 4, 59, 102
7, 228240, Note_off_c, 4, 47, 64
7, 228240, Note_off_c, 4, 51, 64
7, 228240, Note_off_c, 4, 54, 64
7, 228240, Note_off_c, 4, 59, 64
7, 228240, Note_on_c, 4, 47, 102
7, 228248, Note_on_c, 4, 51, 64
7, 228252, Note_on_c, 4, 54, 102
7, 228256, Note_on_c, 4, 59, 102
7, 228480, Note_off_c, 4, 47, 64
7, 228480, Note_on_c, 4, 46, 102
7, 228484, Note_on_c, 4, 53, 102
7, 228488, Note_off_c, 4, 51, 64
7, 228488, Note_on_c, 4, 58, 102
7, 228492, Note_off_c, 4, 54, 64
7, 228496, Note_off_c, 4, 59, 64
7, 229200, Note_off_c, 4, 46, 64
7, 229200, Note_off_c, 4, 53, 64
7, 229200, Note_off_c, 4, 58, 64
7, 229200, Note_on_c, 4, 46, 102
7, 229204, Note_on_c, 4, 53, 102
7, 229208, Note_on_c, 4, 58, 102
7, 230160, Note_off_c, 4, 58, 64
7, 230160, Note_off_c, 4, 53, 64
7, 230160, Note_off_c, 4, 46, 64
7, 230160, Note_on_c, 4, 46, 102
7, 230164, Note_on_c, 4, 53, 102
7, 230168, Note_on_c, 4, 58, 102
7, 230400, Note_off_c, 4, 46, 64
7, 230400, Note_on_c, 4, 44, 102
7, 230404, Note_off_c, 4, 53, 64
7, 230404, Note_on_c, 4, 51, 102
7, 230408, Note_off_c, 4, 58, 64
7, 230408, Note_on_c, 4, 56, 102
7, 230412, Note_on_c, 4, 59, 64
7, 231120, Note_off_c, 4, 59, 64
7, 231120, Note_off_c, 4, 44, 64
7, 231120, Note_off_c, 4, 51, 64
7, 231120, Note_off_c, 4, 56, 64
7, 231120, Note_on_c, 4, 44, 102
7, 231124, Note_on_c, 4, 51, 102
7, 231128, Note_on_c, 4, 56, 102
7, 231132, Note_on_c, 4, 59, 64
7, 231840, Note_off_c, 4, 59, 64
7, 231840, Note_off_c, 4, 56, 64
7, 231840, Note_off_c, 4, 51, 64
7, 231840, Note_off_c, 4, 44, 64
7, 231840, Note_on_c, 4, 44, 102
7, 231844, Note_on_c, 4, 51, 102
7, 231848, Note_on_c, 4, 56, 102
7, 231852, Note_on_c, 4, 59, 64
7, 232080, Note_off_c, 4, 59, 64
7, 232080, Note_off_c, 4, 56, 64
7, 232080, Note_off_c, 4, 51, 64
7, 232080, Note_off_c, 4, 44, 64
7, 232080, Note_on_c, 4, 56, 89
7, 232080, Note_on_c, 4, 51, 89
7, 232080, Note_on_c, 4, 44, 89
7, 232120, Note_off_c, 4, 44, 64
7, 232120, Note_off_c, 4, 56, 64
7, 232200, Note_off_c, 4, 51, 64
7, 232200, Note_on_c, 4, 56, 89
7, 232200, Note_on_c, 4, 51, 89
7, 232200, Note_on_c, 4, 44, 89
7, 232240, Note_off_c, 4, 44, 64
7, 232240, Note_off_c, 4, 51, 64
7, 232240, Note_off_c, 4, 56, 64
7, 232320, Note_on_c, 4, 39, 102
7, 232324, Note_on_c, 4, 46, 102
7, 232328, Note_on_c, 4, 51, 102
7, 232332, Note_on_c, 4, 54, 64
7, 232336, Note_on_c, 4, 58, 102
7, 233040, Note_off_c, 4, 58, 64
7, 233040, Note_off_c, 4, 54, 64
7, 233040, Note_off_c, 4, 51, 64
7, 233040, Note_off_c, 4, 46, 64
7, 233040, Note_off_c, 4, 39, 64
7, 233040, Note_on_c, 4, 39, 102
7, 233044, Note_on_c, 4, 46, 102
7, 233048, Note_on_c, 4, 51, 102
7, 233052, Note_on_c, 4, 54, 64
7, 233056, Note_on_c, 4, 58, 102
7, 234000, Note_off_c, 4, 58, 64
7, 234000, Note_off_c, 4, 51, 64
7, 234000, Note_off_c, 4, 46, 64
7, 234000, Note_off_c, 4, 39, 64
7, 234000, Note_on_c, 4, 39, 102
7, 234008, Note_on_c, 4, 46, 102
7, 234008, Note_on_c, 4, 51, 102
7, 234012, Note_off_c, 4, 54, 64
7, 234016, Note_on_c, 4, 58, 102
7, 234240, Note_off_c, 4, 39, 64
7, 234240, Note_on_c, 4, 47, 102
7, 234244, Note_on_c, 4, 51, 64
7, 234248, Note_off_c, 4, 46, 64
7, 234248, Note_off_c, 4, 51, 64
7, 234248, Note_on_c, 4, 54, 102
7, 234252, Note_on_c, 4, 59, 102
7, 234256, Note_off_c, 4, 58, 64
7, 234960, Note_off_c, 4, 47, 64
7, 234960, Note_on_c, 4, 47, 102
7, 234964, Note_off_c, 4, 51, 64
7, 234964, Note_on_c, 4, 51, 64
7, 234968, Note_off_c, 4, 54, 64
7, 234968, Note_on_c, 4, 54, 102
7, 234972, Note_off_c, 4, 59, 64
7, 234972, Note_on_c, 4, 59, 102
7, 235920, Note_off_c, 4, 47, 64
7, 235920, Note_off_c, 4, 51, 64
7, 235920, Note_off_c, 4, 54, 64
7, 235920, Note_off_c, 4, 59, 64
7, 235920, Note_on_c, 4, 47, 102
7, 235928, Note_on_c, 4, 51, 64
7, 235932, Note_on_c, 4, 54, 102
7, 235936, Note_on_c, 4, 59, 102
7, 236160, Note_off_c, 4, 47, 64
7, 236160, Note_on_c, 4, 46, 102
7, 236164, Note_on_c, 4, 53, 102
7, 236168, Note_off_c, 4, 51, 64
7, 236168, Note_on_c, 4, 58, 102
7, 236172, Note_off_c, 4, 54, 64
7, 236176, Note_off_c, 4, 59, 64
7, 236880, Note_off_c, 4, 46, 64
7, 236880, Note_off_c, 4, 53, 64
7, 236880, Note_off_c, 4, 58, 64
7, 236880, Note_on_c, 4, 46, 102
7, 236884, Note_on_c, 4, 53, 102
7, 236888, Note_on_c, 4, 58, 102
7, 237840, Note_off_c, 4, 58, 64
7, 237840, Note_off_c, 4, 53, 64
7, 237840, Note_off_c, 4, 46, 64
7, 237840, Note_on_c, 4, 46, 102
7, 237844, Note_on_c, 4, 53, 102
7, 237848, Note_on_c, 4, 58, 102
7, 238080, Note_off_c, 4, 46, 64
7, 238080, Note_on_c, 4, 44, 102
7, 238084, Note_off_c, 4, 53, 64
7, 238084, Note_on_c, 4, 51, 102
7, 238088, Note_off_c, 4, 58, 64
7, 238088, Note_on_c, 4, 56, 102
7, 238092, Note_on_c, 4, 59, 64
7, 238800, Note_off_c, 4, 59, 64
7, 238800, Note_off_c, 4, 44, 64
7, 238800, Note_off_c, 4, 51, 64
7, 238800, Note_off_c, 4, 56, 64
7, 238800, Note_on_c, 4, 44, 102
7, 238804, Note_on_c, 4, 51, 102
7, 238808, Note_on_c, 4, 56, 102
7, 238812, Note_on_c, 4, 59, 64
7, 239520, Note_off_c, 4, 59, 64
7, 239520, Note_off_c, 4, 56, 64
7, 239520, Note_off_c, 4, 51, 64
7, 239520, Note_off_c, 4, 44, 64
7, 239520, Note_on_c, 4, 44, 102
7, 239524, Note_on_c, 4, 51, 102
7, 239528, Note_on_c, 4, 56, 102
7, 239532, Note_on_c, 4, 59, 64
7, 239760, Note_off_c, 4, 59, 64
7, 239760, Note_off_c, 4, 56, 64
7, 239760, Note_off_c, 4, 51, 64
7, 239760, Note_off_c, 4, 44, 64
7, 239760, Note_on_c, 4, 56, 89
7, 239760, Note_on_c, 4, 51, 89
7, 239760, Note_on_c, 4, 44, 89
7, 239800, Note_off_c, 4, 44, 64
7, 239800, Note_off_c, 4, 56, 64
7, 239880, Note_off_c, 4, 51, 64
7, 239880, Note_on_c, 4, 56, 89
7, 239880, Note_on_c, 4, 51, 89
7, 239880, Note_on_c, 4, 44, 89
7, 239920, Note_off_c, 4, 44, 64
7, 239920, Note_off_c, 4, 51, 64
7, 239920, Note_off_c, 4, 56, 64
7, 240000, Note_on_c, 4, 39, 102
7, 240004, Note_on_c, 4, 46, 102
7, 240008, Note_on_c, 4, 51, 102
7, 240012, Note_on_c, 4, 54, 64
7, 240016, Note_on_c, 4, 58, 102
7, 240720, Note_off_c, 4, 58, 64
7, 240720, Note_off_c, 4, 54, 64
7, 240720, Note_off_c, 4, 51, 64
7, 240720, Note_off_c, 4, 46, 64
7, 240720, Note_off_c, 4, 39, 64
7, 240720, Note_on_c, 4, 39, 102
7, 240724, Note_on_c, 4, 46, 102
7, 240728, Note_on_c, 4, 51, 102
7, 240732, Note_on_c, 4, 54, 64
7, 240736, Note_on_c, 4, 58, 102
7, 241680, Note_off_c, 4, 58, 64
7, 241680, Note_off_c, 4, 51, 64
7, 241680, Note_off_c, 4, 46, 64
7, 241680, Note_off_c, 4, 39, 64
7, 241680, Note_on_c, 4, 39, 102
7, 241688, Note_on_c, 4, 46, 102
7, 241688, Note_on_c, 4, 51, 102
7, 241692, Note_off_c, 4, 54, 64
7, 241696, Note_on_c, 4, 58, 102
7, 241920, Note_off_c, 4, 39, 64
7, 241920, Note_on_c, 4, 47, 102
7, 241924, Note_on_c, 4, 51, 64
7, 241928, Note_off_c, 4, 46, 64
7, 241928, Note_off_c, 4, 51, 64
7, 241928, Note_on_c, 4, 54, 102
7, 241932, Note_on_c, 4, 59, 102
7, 241936, Note_off_c, 4, 58, 64
7, 242640, Note_off_c, 4, 47, 64
7, 242640, Note_on_c, 4, 47, 102
7, 242644, Note_off_c, 4, 51, 64
7, 242644, Note_on_c, 4, 51, 64
7, 242648, Note_off_c, 4, 54, 64
7, 242648, Note_on_c, 4, 54, 102
7, 242652, Note_off_c, 4, 59, 64
7, 242652, Note_on_c, 4, 59, 102
7, 243600, Note_off_c, 4, 47, 64
7, 243600, Note_off_c, 4, 51, 64
7, 243600, Note_off_c, 4, 54, 64
7, 243600, Note_off_c, 4, 59, 64
7, 243600, Note_on_c, 4, 47, 102
7, 243608, Note_on_c, 4, 51, 64
7, 243612, Note_on_c, 4, 54, 102
7, 243616, Note_on_c, 4, 59, 102
7, 243840, Note_off_c, 4, 47, 64
7, 243840, Note_on_c, 4, 46, 102
7, 243844, Note_on_c, 4, 53, 102
7, 243848, Note_off_c, 4, 51, 64
7, 243848, Note_on_c, 4, 58, 102
7, 243852, Note_off_c, 4, 54, 64
7, 243856, Note_off_c, 4, 59, 64
7, 244560, Note_off_c, 4, 46, 64
7, 244560, Note_off_c, 4, 53, 64
7, 244560, Note_off_c, 4, 58, 64
7, 244560, Note_on_c, 4, 46, 102
7, 244564, Note_on_c, 4, 53, 102
7, 244568, Note_on_c, 4, 58, 102
7, 245520, Note_off_c, 4, 58, 64
7, 245520, Note_off_c, 4, 53, 64
7, 245520, Note_off_c, 4, 46, 64
7, 245520, Note_on_c, 4, 46, 102
7, 245524, Note_on_c, 4, 53, 102
7, 245528, Note_on_c, 4, 58, 102
7, 245760, Note_off_c, 4, 46, 64
7, 245760, Control_c, 4, 11, 95
7, 245760, Note_on_c, 4, 44, 95
7, 245764, Note_off_c, 4, 53, 64
7, 245764, Note_on_c, 4, 51, 95
7, 245768, Note_off_c, 4, 58, 64
7, 245768, Note_on_c, 4, 56, 95
7, 245820, Control_c, 4, 11, 96
7, 245880, Control_c, 4, 11, 97
7, 245940, Control_c, 4, 11, 98
7, 245980, Note_off_c, 4, 44, 64
7, 245980, Note_off_c, 4, 51, 64
7, 245980, Note_off_c, 4, 56, 64
7, 246000, Control_c, 4, 11, 99
7, 246000, Note_on_c, 4, 44, 95
7, 246004, Note_on_c, 4, 51, 95
7, 246008, Note_on_c, 4, 56, 95
7, 246060, Control_c, 4, 11, 100
7, 246120, Control_c, 4, 11, 101
7, 246180, Control_c, 4, 11, 102
7, 246220, Note_off_c, 4, 56, 64
7, 246220, Note_off_c, 4, 51, 64
7, 246220, Note_off_c, 4, 44, 64
7, 246240, Control_c, 4, 11, 103
7, 246240, Note_on_c, 4, 44, 95
7, 246244, Note_on_c, 4, 51, 95
7, 246248, Note_on_c, 4, 56, 95
7, 246300, Control_c, 4, 11, 104
7, 246360, Control_c, 4, 11, 105
7, 246420, Control_c, 4, 11, 106
7, 246460, Note_off_c, 4, 56, 64
7, 246460, Note_off_c, 4, 51, 64
7, 246460, Note_off_c, 4, 44, 64
7, 246480, Control_c, 4, 11, 107
7, 246480, Note_on_c, 4, 44, 95
7, 246484, Note_on_c, 4, 51, 95
7, 246488, Note_on_c, 4, 56, 95
7, 246540, Control_c, 4, 11, 108
7, 246600, Control_c, 4, 11, 109
7, 246660, Control_c, 4, 11, 110
7, 246700, Note_off_c, 4, 56, 64
7, 246700, Note_off_c, 4, 51, 64
7, 246700, Note_off_c, 4, 44, 64
7, 246720, Control_c, 4, 11, 111
7, 246720, Note_on_c, 4, 44, 95
7, 246724, Note_on_c, 4, 51, 95
7, 246728, Note_on_c, 4, 56, 95
7, 246776, Control_c, 4, 11, 112
7, 246836, Control_c, 4, 11, 113
7, 246896, Control_c, 4, 11, 114
7, 246940, Note_off_c, 4, 56, 64
7, 246940, Note_off_c, 4, 51, 64
7, 246940, Note_off_c, 4, 44, 64
7, 246956, Control_c, 4, 11, 115
7, 246960, Note_on_c, 4, 44, 95
7, 246964, Note_on_c, 4, 51, 95
7, 246968, Note_on_c, 4, 56, 95
7, 247016, Control_c, 4, 11, 116
7, 247076, Control_c, 4, 11, 117
7, 247136, Control_c, 4, 11, 118
7, 247180, Note_off_c, 4, 56, 64
7, 247180, Note_off_c, 4, 51, 64
7, 247180, Note_off_c, 4, 44, 64
7, 247196, Control_c, 4, 11, 119
7, 247200, Note_on_c, 4, 44, 95
7, 247204, Note_on_c, 4, 51, 95
7, 247208, Note_on_c, 4, 56, 95
7, 247256, Control_c, 4, 11, 120
7, 247316, Control_c, 4, 11, 121
7, 247376, Control_c, 4, 11, 122
7, 247420, Note_off_c, 4, 56, 64
7, 247420, Note_off_c, 4, 51, 64
7, 247420, Note_off_c, 4, 44, 64
7, 247436, Control_c, 4, 11, 123
7, 247440, Note_on_c, 4, 44, 95
7, 247444, Note_on_c, 4, 51, 95
7, 247448, Note_on_c, 4, 56, 95
7, 247496, Control_c, 4, 11, 124
7, 247556, Control_c, 4, 11, 125
7, 247616, Control_c, 4, 11, 126
7, 247660, Note_off_c, 4, 56, 64
7, 247660, Note_off_c, 4, 51, 64
7, 247660, Note_off_c, 4, 44, 64
7, 247676, Control_c, 4, 11, 127
7, 247680, Note_on_c, 4, 44, 95
7, 247684, Note_on_c, 4, 51, 95
7, 247688, Note_on_c, 4, 56, 95
7, 247900, Note_off_c, 4, 56, 64
7, 247900, Note_off_c, 4, 51, 64
7, 247900, Note_off_c, 4, 44, 64
7, 247920, Note_on_c, 4, 44, 95
7, 247924, Note_on_c, 4, 51, 95
7, 247928, Note_on_c, 4, 56, 95
7, 248140, Note_off_c, 4, 56, 64
7, 248140, Note_off_c, 4, 51, 64
7, 248140, Note_off_c, 4, 44, 64
7, 248160, Note_on_c, 4, 44, 95
7, 248164, Note_on_c, 4, 51, 95
7, 248168, Note_on_c, 4, 56, 95
7, 248380, Note_off_c, 4, 56, 64
7, 248380, Note_off_c, 4, 51, 64
7, 248380, Note_off_c, 4, 44, 64
7, 248400, Note_on_c, 4, 44, 95
7, 248404, Note_on_c, 4, 51, 95
7, 248408, Note_on_c, 4, 56, 95
7, 248620, Note_off_c, 4, 56, 64
7, 248620, Note_off_c, 4, 51, 64
7, 248620, Note_off_c, 4, 44, 64
7, 248640, Note_on_c, 4, 44, 95
7, 248644, Note_on_c, 4, 51, 95
7, 248648, Note_on_c, 4, 56, 95
7, 248860, Note_off_c, 4, 56, 64
7, 248860, Note_off_c, 4, 51, 64
7, 248860, Note_off_c, 4, 44, 64
7, 248880, Note_on_c, 4, 44, 95
7, 248884, Note_on_c, 4, 51, 95
7, 248888, Note_on_c, 4, 56, 95
7, 249100, Note_off_c, 4, 56, 64
7, 249120, Note_off_c, 4, 51, 64
7, 249120, Note_off_c, 4, 44, 64
7, 249120, Note_on_c, 4, 42, 102
7, 249360, Note_off_c, 4, 42, 64
7, 249360, Note_on_c, 4, 41, 102
7, 249600, Note_off_c, 4, 41, 64
7, 249600, Note_on_c, 4, 39, 102
7, 249604, Note_on_c, 4, 46, 102
7, 249608, Note_on_c, 4, 51, 102
7, 249612, Note_on_c, 4, 54, 70
7, 249616, Note_on_c, 4, 58, 70
7, 250320, Note_off_c, 4, 58, 64
7, 250320, Note_off_c, 4, 54, 64
7, 250320, Note_off_c, 4, 51, 64
7, 250320, Note_off_c, 4, 46, 64
7, 250320, Note_off_c, 4, 39, 64
7, 250320, Note_on_c, 4, 39, 102
7, 250324, Note_on_c, 4, 46, 102
7, 250328, Note_on_c, 4, 51, 102
7, 250332, Note_on_c, 4, 54, 70
7, 250336, Note_on_c, 4, 58, 70
7, 251040, Note_off_c, 4, 58, 64
7, 251040, Note_off_c, 4, 54, 64
7, 251040, Note_off_c, 4, 51, 64
7, 251040, Note_off_c, 4, 46, 64
7, 251040, Note_off_c, 4, 39, 64
7, 251040, Note_on_c, 4, 39, 108
7, 251280, Note_off_c, 4, 39, 64
7, 251280, Note_on_c, 4, 41, 108
7, 251520, Note_off_c, 4, 41, 64
7, 251520, Note_on_c, 4, 42, 102
7, 251524, Note_on_c, 4, 49, 102
7, 251528, Note_on_c, 4, 54, 102
7, 251532, Note_on_c, 4, 61, 89
7, 252240, Note_off_c, 4, 61, 64
7, 252240, Note_off_c, 4, 54, 64
7, 252240, Note_off_c, 4, 49, 64
7, 252240, Note_off_c, 4, 42, 64
7, 252240, Note_on_c, 4, 42, 102
7, 252244, Note_on_c, 4, 49, 102
7, 252248, Note_on_c, 4, 54, 102
7, 252252, Note_on_c, 4, 61, 89
7, 252960, Note_off_c, 4, 61, 64
7, 252960, Note_off_c, 4, 54, 64
7, 252960, Note_off_c, 4, 49, 64
7, 252960, Note_off_c, 4, 42, 64
7, 252960, Note_on_c, 4, 42, 102
7, 252964, Note_on_c, 4, 49, 102
7, 252968, Note_on_c, 4, 54, 102
7, 252972, Note_on_c, 4, 61, 89
7, 253200, Note_off_c, 4, 61, 64
7, 253200, Note_off_c, 4, 54, 64
7, 253200, Note_off_c, 4, 49, 64
7, 253200, Note_off_c, 4, 42, 64
7, 253200, Note_on_c, 4, 42, 102
7, 253204, Note_on_c, 4, 49, 102
7, 253208, Note_on_c, 4, 54, 102
7, 253212, Note_on_c, 4, 61, 89
7, 253440, Note_off_c, 4, 61, 64
7, 253440, Note_off_c, 4, 54, 64
7, 253440, Note_off_c, 4, 49, 64
7, 253440, Note_off_c, 4, 42, 64
7, 253440, Note_on_c, 4, 44, 102
7, 253444, Note_on_c, 4, 51, 102
7, 253448, Note_on_c, 4, 56, 102
7, 254160, Note_off_c, 4, 56, 64
7, 254160, Note_off_c, 4, 51, 64
7, 254160, Note_off_c, 4, 44, 64
7, 254160, Note_on_c, 4, 44, 102
7, 254164, Note_on_c, 4, 51, 102
7, 254168, Note_on_c, 4, 56, 102
7, 254880, Note_off_c, 4, 56, 64
7, 254880, Note_off_c, 4, 51, 64
7, 254880, Note_off_c, 4, 44, 64
7, 254880, Note_on_c, 4, 44, 102
7, 254884, Note_on_c, 4, 51, 102
7, 254888, Note_on_c, 4, 56, 102
7, 255120, Note_off_c, 4, 44, 64
7, 255120, Note_on_c, 4, 44, 102
7, 255124, Note_off_c, 4, 51, 64
7, 255124, Note_on_c, 4, 51, 102
7, 255128, Note_off_c, 4, 56, 64
7, 255128, Note_on_c, 4, 56, 102
7, 255360, Note_off_c, 4, 44, 64
7, 255360, Note_on_c, 4, 47, 102
7, 255364, Note_off_c, 4, 51, 64
7, 255364, Note_on_c, 4, 54, 102
7, 255368, Note_off_c, 4, 56, 64
7, 255368, Note_on_c, 4, 59, 102
7, 255840, Note_off_c, 4, 47, 64
7, 255840, Note_off_c, 4, 54, 64
7, 255840, Note_on_c, 4, 47, 102
7, 255844, Note_off_c, 4, 59, 64
7, 255844, Note_on_c, 4, 54, 102
7, 255848, Note_on_c, 4, 59, 102
7, 256080, Note_off_c, 4, 59, 64
7, 256080, Note_off_c, 4, 47, 64
7, 256080, Note_off_c, 4, 54, 64
7, 256080, Note_on_c, 4, 47, 102
7, 256084, Note_on_c, 4, 54, 102
7, 256088, Note_on_c, 4, 59, 102
7, 256200, Note_off_c, 4, 59, 64
7, 256200, Note_off_c, 4, 54, 64
7, 256200, Note_off_c, 4, 47, 64
7, 256200, Note_on_c, 4, 47, 102
7, 256204, Note_on_c, 4, 54, 102
7, 256208, Note_on_c, 4, 59, 102
7, 256320, Note_off_c, 4, 59, 64
7, 256320, Note_off_c, 4, 54, 64
7, 256320, Note_off_c, 4, 47, 64
7, 256320, Note_on_c, 4, 49, 102
7, 256324, Note_on_c, 4, 56, 102
7, 256328, Note_on_c, 4, 61, 102
7, 256800, Note_off_c, 4, 61, 64
7, 256800, Note_off_c, 4, 56, 64
7, 256800, Note_off_c, 4, 49, 64
7, 256800, Note_on_c, 4, 42, 102
7, 256804, Note_on_c, 4, 49, 102
7, 256808, Note_on_c, 4, 54, 102
7, 256812, Note_on_c, 4, 61, 89
7, 257280, Note_off_c, 4, 42, 64
7, 257280, Note_on_c, 4, 39, 102
7, 257284, Note_off_c, 4, 49, 64
7, 257284, Note_on_c, 4, 46, 102
7, 257288, Note_off_c, 4, 54, 64
7, 257288, Note_on_c, 4, 51, 102
7, 257292, Note_off_c, 4, 61, 64
7, 257292, Note_on_c, 4, 54, 70
7, 257296, Note_on_c, 4, 58, 70
7, 258000, Note_off_c, 4, 58, 64
7, 258000, Note_off_c, 4, 39, 64
7, 258000, Note_off_c, 4, 46, 64
7, 258000, Note_off_c, 4, 51, 64
7, 258000, Note_off_c, 4, 54, 64
7, 258000, Note_on_c, 4, 39, 102
7, 258004, Note_on_c, 4, 46, 102
7, 258008, Note_on_c, 4, 51, 102
7, 258012, Note_on_c, 4, 54, 70
7, 258016, Note_on_c, 4, 58, 70
7, 258720, Note_off_c, 4, 58, 64
7, 258720, Note_off_c, 4, 54, 64
7, 258720, Note_off_c, 4, 51, 64
7, 258720, Note_off_c, 4, 46, 64
7, 258720, Note_off_c, 4, 39, 64
7, 258720, Note_on_c, 4, 39, 108
7, 258960, Note_off_c, 4, 39, 64
7, 258960, Note_on_c, 4, 41, 108
7, 259200, Note_off_c, 4, 41, 64
7, 259200, Note_on_c, 4, 42, 102
7, 259204, Note_on_c, 4, 49, 102
7, 259208, Note_on_c, 4, 54, 102
7, 259212, Note_on_c, 4, 61, 89
7, 259920, Note_off_c, 4, 61, 64
7, 259920, Note_off_c, 4, 54, 64
7, 259920, Note_off_c, 4, 49, 64
7, 259920, Note_off_c, 4, 42, 64
7, 259920, Note_on_c, 4, 42, 102
7, 259924, Note_on_c, 4, 49, 102
7, 259928, Note_on_c, 4, 54, 102
7, 259932, Note_on_c, 4, 61, 89
7, 260640, Note_off_c, 4, 61, 64
7, 260640, Note_off_c, 4, 54, 64
7, 260640, Note_off_c, 4, 49, 64
7, 260640, Note_off_c, 4, 42, 64
7, 260640, Note_on_c, 4, 42, 102
7, 260644, Note_on_c, 4, 49, 102
7, 260648, Note_on_c, 4, 54, 102
7, 260652, Note_on_c, 4, 61, 89
7, 260880, Note_off_c, 4, 61, 64
7, 260880, Note_off_c, 4, 54, 64
7, 260880, Note_off_c, 4, 49, 64
7, 260880, Note_off_c, 4, 42, 64
7, 260880, Note_on_c, 4, 42, 102
7, 260884, Note_on_c, 4, 49, 102
7, 260888, Note_on_c, 4, 54, 102
7, 260892, Note_on_c, 4, 61, 89
7, 261120, Note_off_c, 4, 61, 64
7, 261120, Note_off_c, 4, 54, 64
7, 261120, Note_off_c, 4, 49, 64
7, 261120, Note_off_c, 4, 42, 64
7, 261120, Note_on_c, 4, 44, 102
7, 261124, Note_on_c, 4, 51, 102
7, 261128, Note_on_c, 4, 56, 102
7, 261840, Note_off_c, 4, 56, 64
7, 261840, Note_off_c, 4, 51, 64
7, 261840, Note_off_c, 4, 44, 64
7, 261840, Note_on_c, 4, 44, 102
7, 261844, Note_on_c, 4, 51, 102
7, 261848, Note_on_c, 4, 56, 102
7, 262560, Note_off_c, 4, 56, 64
7, 262560, Note_off_c, 4, 51, 64
7, 262560, Note_off_c, 4, 44, 64
7, 262560, Note_on_c, 4, 44, 102
7, 262564, Note_on_c, 4, 51, 102
7, 262568, Note_on_c, 4, 56, 102
7, 262800, Note_off_c, 4, 44, 64
7, 262800, Note_on_c, 4, 44, 102
7, 262804, Note_off_c, 4, 51, 64
7, 262804, Note_on_c, 4, 51, 102
7, 262808, Note_off_c, 4, 56, 64
7, 262808, Note_on_c, 4, 56, 102
7, 263040, Note_off_c, 4, 44, 64
7, 263040, Note_on_c, 4, 47, 102
7, 263044, Note_off_c, 4, 51, 64
7, 263044, Note_on_c, 4, 54, 102
7, 263048, Note_off_c, 4, 56, 64
7, 263048, Note_on_c, 4, 59, 102
7, 263520, Note_off_c, 4, 47, 64
7, 263520, Note_off_c, 4, 54, 64
7, 263520, Note_on_c, 4, 47, 102
7, 263524, Note_off_c, 4, 59, 64
7, 263524, Note_on_c, 4, 54, 102
7, 263528, Note_on_c, 4, 59, 102
7, 263760, Note_off_c, 4, 59, 64
7, 263760, Note_off_c, 4, 47, 64
7, 263760, Note_off_c, 4, 54, 64
7, 263760, Note_on_c, 4, 47, 102
7, 263764, Note_on_c, 4, 54, 102
7, 263768, Note_on_c, 4, 59, 102
7, 263880, Note_off_c, 4, 59, 64
7, 263880, Note_off_c, 4, 54, 64
7, 263880, Note_off_c, 4, 47, 64
7, 263880, Note_on_c, 4, 47, 102
7, 263884, Note_on_c, 4, 54, 102
7, 263888, Note_on_c, 4, 59, 102
7, 264000, Note_off_c, 4, 59, 64
7, 264000, Note_off_c, 4, 54, 64
7, 264000, Note_off_c, 4, 47, 64
7, 264000, Note_on_c, 4, 49, 102
7, 264004, Note_on_c, 4, 56, 102
7, 264008, Note_on_c, 4, 61, 102
7, 264480, Note_off_c, 4, 61, 64
7, 264480, Note_off_c, 4, 56, 64
7, 264480, Note_off_c, 4, 49, 64
7, 264480, Note_on_c, 4, 42, 102
7, 264484, Note_on_c, 4, 49, 102
7, 264488, Note_on_c, 4, 54, 102
7, 264492, Note_on_c, 4, 61, 89
7, 264960, Note_off_c, 4, 42, 64
7, 264960, Note_on_c, 4, 39, 102
7, 264964, Note_off_c, 4, 49, 64
7, 264964, Note_on_c, 4, 46, 102
7, 264968, Note_off_c, 4, 54, 64
7, 264968, Note_on_c, 4, 51, 102
7, 264972, Note_off_c, 4, 61, 64
7, 264972, Note_on_c, 4, 54, 70
7, 264976, Note_on_c, 4, 58, 70
7, 265680, Note_off_c, 4, 58, 64
7, 265680, Note_off_c, 4, 39, 64
7, 265680, Note_off_c, 4, 46, 64
7, 265680, Note_off_c, 4, 51, 64
7, 265680, Note_off_c, 4, 54, 64
7, 265680, Note_on_c, 4, 39, 102
7, 265684, Note_on_c, 4, 46, 102
7, 265688, Note_on_c, 4, 51, 102
7, 265692, Note_on_c, 4, 54, 70
7, 265696, Note_on_c, 4, 58, 70
7, 266400, Note_off_c, 4, 58, 64
7, 266400, Note_off_c, 4, 54, 64
7, 266400, Note_off_c, 4, 51, 64
7, 266400, Note_off_c, 4, 46, 64
7, 266400, Note_off_c, 4, 39, 64
7, 266400, Note_on_c, 4, 39, 108
7, 266640, Note_off_c, 4, 39, 64
7, 266640, Note_on_c, 4, 41, 108
7, 266880, Note_off_c, 4, 41, 64
7, 266880, Note_on_c, 4, 42, 102
7, 266884, Note_on_c, 4, 49, 102
7, 266888, Note_on_c, 4, 54, 102
7, 266892, Note_on_c, 4, 61, 89
7, 267600, Note_off_c, 4, 61, 64
7, 267600, Note_off_c, 4, 54, 64
7, 267600, Note_off_c, 4, 49, 64
7, 267600, Note_off_c, 4, 42, 64
7, 267600, Note_on_c, 4, 42, 102
7, 267604, Note_on_c, 4, 49, 102
7, 267608, Note_on_c, 4, 54, 102
7, 267612, Note_on_c, 4, 61, 89
7, 268320, Note_off_c, 4, 61, 64
7, 268320, Note_off_c, 4, 54, 64
7, 268320, Note_off_c, 4, 49, 64
7, 268320, Note_off_c, 4, 42, 64
7, 268320, Note_on_c, 4, 42, 102
7, 268324, Note_on_c, 4, 49, 102
7, 268328, Note_on_c, 4, 54, 102
7, 268332, Note_on_c, 4, 61, 89
7, 268560, Note_off_c, 4, 61, 64
7, 268560, Note_off_c, 4, 54, 64
7, 268560, Note_off_c, 4, 49, 64
7, 268560, Note_off_c, 4, 42, 64
7, 268560, Note_on_c, 4, 42, 102
7, 268564, Note_on_c, 4, 49, 102
7, 268568, Note_on_c, 4, 54, 102
7, 268572, Note_on_c, 4, 61, 89
7, 268800, Note_off_c, 4, 61, 64
7, 268800, Note_off_c, 4, 54, 64
7, 268800, Note_off_c, 4, 49, 64
7, 268800, Note_off_c, 4, 42, 64
7, 268800, Note_on_c, 4, 44, 102
7, 268804, Note_on_c, 4, 51, 102
7, 268808, Note_on_c, 4, 56, 102
7, 269520, Note_off_c, 4, 56, 64
7, 269520, Note_off_c, 4, 51, 64
7, 269520, Note_off_c, 4, 44, 64
7, 269520, Note_on_c, 4, 44, 102
7, 269524, Note_on_c, 4, 51, 102
7, 269528, Note_on_c, 4, 56, 102
7, 270240, Note_off_c, 4, 56, 64
7, 270240, Note_off_c, 4, 51, 64
7, 270240, Note_off_c, 4, 44, 64
7, 270240, Note_on_c, 4, 44, 102
7, 270244, Note_on_c, 4, 51, 102
7, 270248, Note_on_c, 4, 56, 102
7, 270480, Note_off_c, 4, 44, 64
7, 270480, Note_on_c, 4, 44, 102
7, 270484, Note_off_c, 4, 51, 64
7, 270484, Note_on_c, 4, 51, 102
7, 270488, Note_off_c, 4, 56, 64
7, 270488, Note_on_c, 4, 56, 102
7, 270720, Note_off_c, 4, 44, 64
7, 270720, Note_on_c, 4, 47, 102
7, 270724, Note_off_c, 4, 51, 64
7, 270724, Note_on_c, 4, 54, 102
7, 270728, Note_off_c, 4, 56, 64
7, 270728, Note_on_c, 4, 59, 102
7, 271200, Note_off_c, 4, 47, 64
7, 271200, Note_off_c, 4, 54, 64
7, 271200, Note_on_c, 4, 47, 102
7, 271204, Note_off_c, 4, 59, 64
7, 271204, Note_on_c, 4, 54, 102
7, 271208, Note_on_c, 4, 59, 102
7, 271440, Note_off_c, 4, 59, 64
7, 271440, Note_off_c, 4, 47, 64
7, 271440, Note_off_c, 4, 54, 64
7, 271440, Note_on_c, 4, 47, 102
7, 271444, Note_on_c, 4, 54, 102
7, 271448, Note_on_c, 4, 59, 102
7, 271560, Note_off_c, 4, 59, 64
7, 271560, Note_off_c, 4, 54, 64
7, 271560, Note_off_c, 4, 47, 64
7, 271560, Note_on_c, 4, 47, 102
7, 271564, Note_on_c, 4, 54, 102
7, 271568, Note_on_c, 4, 59, 102
7, 271680, Note_off_c, 4, 59, 64
7, 271680, Note_off_c, 4, 54, 64
7, 271680, Note_off_c, 4, 47, 64
7, 271680, Note_on_c, 4, 49, 102
7, 271684, Note_on_c, 4, 56, 102
7, 271688, Note_on_c, 4, 61, 102
7, 272160, Note_off_c, 4, 61, 64
7, 272160, Note_off_c, 4, 56, 64
7, 272160, Note_off_c, 4, 49, 64
7, 272160, Note_on_c, 4, 42, 102
7, 272164, Note_on_c, 4, 49, 102
7, 272168, Note_on_c, 4, 54, 102
7, 272172, Note_on_c, 4, 61, 89
7, 272640, Note_off_c, 4, 42, 64
7, 272640, Note_on_c, 4, 39, 102
7, 272644, Note_off_c, 4, 49, 64
7, 272644, Note_on_c, 4, 46, 102
7, 272648, Note_off_c, 4, 54, 64
7, 272648, Note_on_c, 4, 51, 102
7, 272652, Note_off_c, 4, 61, 64
7, 272652, Note_on_c, 4, 54, 70
7, 272656, Note_on_c, 4, 58, 70
7, 273360, Note_off_c, 4, 58, 64
7, 273360, Note_off_c, 4, 39, 64
7, 273360, Note_off_c, 4, 46, 64
7, 273360, Note_off_c, 4, 51, 64
7, 273360, Note_off_c, 4, 54, 64
7, 273360, Note_on_c, 4, 39, 102
7, 273364, Note_on_c, 4, 46, 102
7, 273368, Note_on_c, 4, 51, 102
7, 273372, Note_on_c, 4, 54, 70
7, 273376, Note_on_c, 4, 58, 70
7, 274080, Note_off_c, 4, 58, 64
7, 274080, Note_off_c, 4, 54, 64
7, 274080, Note_off_c, 4, 51, 64
7, 274080, Note_off_c, 4, 46, 64
7, 274080, Note_off_c, 4, 39, 64
7, 274080, Note_on_c, 4, 39, 108
7, 274320, Note_off_c, 4, 39, 64
7, 274320, Note_on_c, 4, 41, 108
7, 274560, Note_off_c, 4, 41, 64
7, 274560, Note_on_c, 4, 42, 102
7, 274564, Note_on_c, 4, 49, 102
7, 274568, Note_on_c, 4, 54, 102
7, 274572, Note_on_c, 4, 61, 89
7, 275280, Note_off_c, 4, 61, 64
7, 275280, Note_off_c, 4, 54, 64
7, 275280, Note_off_c, 4, 49, 64
7, 275280, Note_off_c, 4, 42, 64
7, 275280, Note_on_c, 4, 42, 102
7, 275284, Note_on_c, 4, 49, 102
7, 275288, Note_on_c, 4, 54, 102
7, 275292, Note_on_c, 4, 61, 89
7, 276000, Note_off_c, 4, 61, 64
7, 276000, Note_off_c, 4, 54, 64
7, 276000, Note_off_c, 4, 49, 64
7, 276000, Note_off_c, 4, 42, 64
7, 276000, Note_on_c, 4, 42, 102
7, 276004, Note_on_c, 4, 49, 102
7, 276008, Note_on_c, 4, 54, 102
7, 276012, Note_on_c, 4, 61, 89
7, 276240, Note_off_c, 4, 61, 64
7, 276240, Note_off_c, 4, 54, 64
7, 276240, Note_off_c, 4, 49, 64
7, 276240, Note_off_c, 4, 42, 64
7, 276240, Note_on_c, 4, 42, 102
7, 276244, Note_on_c, 4, 49, 102
7, 276248, Note_on_c, 4, 54, 102
7, 276252, Note_on_c, 4, 61, 89
7, 276480, Note_off_c, 4, 61, 64
7, 276480, Note_off_c, 4, 54, 64
7, 276480, Note_off_c, 4, 49, 64
7, 276480, Note_off_c, 4, 42, 64
7, 276480, Note_on_c, 4, 44, 102
7, 276484, Note_on_c, 4, 51, 102
7, 276488, Note_on_c, 4, 56, 102
7, 277200, Note_off_c, 4, 56, 64
7, 277200, Note_off_c, 4, 51, 64
7, 277200, Note_off_c, 4, 44, 64
7, 277200, Note_on_c, 4, 44, 102
7, 277204, Note_on_c, 4, 51, 102
7, 277208, Note_on_c, 4, 56, 102
7, 277920, Note_off_c, 4, 56, 64
7, 277920, Note_off_c, 4, 51, 64
7, 277920, Note_off_c, 4, 44, 64
7, 277920, Note_on_c, 4, 44, 102
7, 277924, Note_on_c, 4, 51, 102
7, 277928, Note_on_c, 4, 56, 102
7, 278160, Note_off_c, 4, 44, 64
7, 278160, Note_on_c, 4, 44, 102
7, 278164, Note_off_c, 4, 51, 64
7, 278164, Note_on_c, 4, 51, 102
7, 278168, Note_off_c, 4, 56, 64
7, 278168, Note_on_c, 4, 56, 102
7, 278400, Note_off_c, 4, 44, 64
7, 278400, Note_on_c, 4, 47, 102
7, 278404, Note_off_c, 4, 51, 64
7, 278404, Note_on_c, 4, 54, 102
7, 278408, Note_off_c, 4, 56, 64
7, 278408, Note_on_c, 4, 59, 102
7, 278880, Note_off_c, 4, 47, 64
7, 278880, Note_off_c, 4, 54, 64
7, 278880, Note_on_c, 4, 47, 102
7, 278884, Note_off_c, 4, 59, 64
7, 278884, Note_on_c, 4, 54, 102
7, 278888, Note_on_c, 4, 59, 102
7, 279120, Note_off_c, 4, 59, 64
7, 279120, Note_off_c, 4, 47, 64
7, 279120, Note_off_c, 4, 54, 64
7, 279120, Note_on_c, 4, 47, 102
7, 279124, Note_on_c, 4, 54, 102
7, 279128, Note_on_c, 4, 59, 102
7, 279240, Note_off_c, 4, 59, 64
7, 279240, Note_off_c, 4, 54, 64
7, 279240, Note_off_c, 4, 47, 64
7, 279240, Note_on_c, 4, 47, 102
7, 279244, Note_on_c, 4, 54, 102
7, 279248, Note_on_c, 4, 59, 102
7, 279360, Note_off_c, 4, 59, 64
7, 279360, Note_off_c, 4, 54, 64
7, 279360, Note_off_c, 4, 47, 64
7, 279360, Note_on_c, 4, 49, 102
7, 279364, Note_on_c, 4, 56, 102
7, 279368, Note_on_c, 4, 61, 102
7, 279840, Note_off_c, 4, 61, 64
7, 279840, Note_off_c, 4, 56, 64
7, 279840, Note_off_c, 4, 49, 64
7, 279840, Note_on_c, 4, 42, 102
7, 279844, Note_on_c, 4, 49, 102
7, 279848, Note_on_c, 4, 54, 102
7, 279852, Note_on_c, 4, 61, 89
7, 280320, Note_off_c, 4, 42, 64
7, 280320, Note_on_c, 4, 39, 102
7, 280324, Note_off_c, 4, 49, 64
7, 280328, Note_off_c, 4, 54, 64
7, 280332, Note_off_c, 4, 61, 64
7, 280560, Note_off_c, 4, 39, 64
7, 281040, Note_on_c, 4, 39, 102
7, 281280, Note_off_c, 4, 39, 64
7, 282000, Note_on_c, 4, 39, 102
7, 282060, Note_off_c, 4, 39, 64
7, 282240, Note_on_c, 4, 42, 102
7, 282244, Note_on_c, 4, 49, 102
7, 282248, Note_on_c, 4, 54, 102
7, 282480, Note_off_c, 4, 49, 64
7, 282480, Note_off_c, 4, 42, 64
7, 282488, Note_off_c, 4, 54, 64
7, 282960, Note_on_c, 4, 54, 57
7, 283212, Pitch_bend_c, 4, 8089
7, 283244, Pitch_bend_c, 4, 7816
7, 283276, Pitch_bend_c, 4, 7543
7, 283308, Pitch_bend_c, 4, 7269
7, 283340, Pitch_bend_c, 4, 6996
7, 283376, Pitch_bend_c, 4, 6689
7, 283404, Pitch_bend_c, 4, 6449
7, 283440, Note_off_c, 4, 54, 64
7, 283440, Pitch_bend_c, 4, 6142
7, 284160, Pitch_bend_c, 4, 8192
7, 284160, Note_on_c, 4, 44, 102
7, 284164, Note_on_c, 4, 51, 102
7, 284168, Note_on_c, 4, 56, 102
7, 284400, Note_off_c, 4, 51, 64
7, 284400, Note_off_c, 4, 44, 64
7, 284408, Note_off_c, 4, 56, 64
7, 284880, Note_on_c, 4, 56, 57
7, 285132, Pitch_bend_c, 4, 8089
7, 285164, Pitch_bend_c, 4, 7816
7, 285196, Pitch_bend_c, 4, 7543
7, 285232, Pitch_bend_c, 4, 7235
7, 285264, Pitch_bend_c, 4, 6962
7, 285300, Pitch_bend_c, 4, 6654
7, 285332, Pitch_bend_c, 4, 6381
7, 285360, Note_off_c, 4, 56, 64
7, 285360, Pitch_bend_c, 4, 6142
7, 286320, Pitch_bend_c, 4, 8192
7, 286320, Note_on_c, 4, 47, 102
7, 286324, Note_on_c, 4, 54, 102
7, 286328, Note_on_c, 4, 59, 102
7, 286560, Note_off_c, 4, 47, 64
7, 286564, Note_off_c, 4, 54, 64
7, 286568, Note_off_c, 4, 59, 64
7, 287040, Note_on_c, 4, 49, 102
7, 287044, Note_on_c, 4, 56, 102
7, 287048, Note_on_c, 4, 61, 102
7, 287520, Note_off_c, 4, 61, 64
7, 287520, Note_off_c, 4, 56, 64
7, 287520, Note_off_c, 4, 49, 64
7, 287520, Note_on_c, 4, 42, 102
7, 287524, Note_on_c, 4, 49, 102
7, 287528, Note_on_c, 4, 54, 102
7, 288000, Note_off_c, 4, 42, 64
7, 288000, Note_on_c, 4, 39, 102
7, 288004, Note_off_c, 4, 49, 64
7, 288004, Note_on_c, 4, 46, 102
7, 288008, Note_off_c, 4, 54, 64
7, 288008, Note_on_c, 4, 51, 102
7, 288240, Note_off_c, 4, 39, 64
7, 288240, Note_off_c, 4, 46, 64
7, 288240, Note_off_c, 4, 51, 64
7, 288720, Note_on_c, 4, 51, 57
7, 288972, Pitch_bend_c, 4, 8124
7, 289004, Pitch_bend_c, 4, 7944
7, 289036, Pitch_bend_c, 4, 7764
7, 289076, Pitch_bend_c, 4, 7539
7, 289116, Pitch_bend_c, 4, 7314
7, 289152, Pitch_bend_c, 4, 7112
7, 289188, Pitch_bend_c, 4, 6909
7, 289200, Note_off_c, 4, 51, 64
7, 289200, Pitch_bend_c, 4, 6842
7, 289920, Pitch_bend_c, 4, 8192
7, 289920, Note_on_c, 4, 42, 102
7, 289924, Note_on_c, 4, 49, 102
7, 289928, Note_on_c, 4, 54, 102
7, 290160, Note_off_c, 4, 49, 64
7, 290160, Note_off_c, 4, 42, 64
7, 290168, Note_off_c, 4, 54, 64
7, 290640, Note_on_c, 4, 54, 57
7, 290892, Pitch_bend_c, 4, 8089
7, 290924, Pitch_bend_c, 4, 7816
7, 290956, Pitch_bend_c, 4, 7543
7, 290988, Pitch_bend_c, 4, 7269
7, 291020, Pitch_bend_c, 4, 6996
7, 291056, Pitch_bend_c, 4, 6689
7, 291084, Pitch_bend_c, 4, 6449
7, 291120, Note_off_c, 4, 54, 64
7, 291120, Pitch_bend_c, 4, 6142
7, 291840, Pitch_bend_c, 4, 8192
7, 291840, Note_on_c, 4, 44, 102
7, 291844, Note_on_c, 4, 51, 102
7, 291848, Note_on_c, 4, 56, 102
7, 292080, Note_off_c, 4, 51, 64
7, 292080, Note_off_c, 4, 44, 64
7, 292088, Note_off_c, 4, 56, 64
7, 292560, Note_on_c, 4, 56, 57
7, 292812, Pitch_bend_c, 4, 8089
7, 292844, Pitch_bend_c, 4, 7816
7, 292876, Pitch_bend_c, 4, 7543
7, 292912, Pitch_bend_c, 4, 7235
7, 292944, Pitch_bend_c, 4, 6962
7, 292980, Pitch_bend_c, 4, 6654
7, 293012, Pitch_bend_c, 4, 6381
7, 293040, Note_off_c, 4, 56, 64
7, 293040, Pitch_bend_c, 4, 6142
7, 293760, Note_on_c, 4, 59, 89
7, 293760, Note_on_c, 4, 54, 89
7, 293760, Note_on_c, 4, 47, 89
7, 293820, Note_off_c, 4, 47, 64
7, 293820, Note_off_c, 4, 54, 64
7, 293820, Note_off_c, 4, 59, 64
7, 294000, Pitch_bend_c, 4, 8192
7, 294000, Note_on_c, 4, 47, 102
7, 294004, Note_on_c, 4, 54, 102
7, 294008, Note_on_c, 4, 59, 102
7, 294240, Note_off_c, 4, 47, 64
7, 294244, Note_off_c, 4, 54, 64
7, 294248, Note_off_c, 4, 59, 64
7, 294720, Note_on_c, 4, 49, 102
7, 294724, Note_on_c, 4, 56, 102
7, 294728, Note_on_c, 4, 61, 102
7, 295200, Note_off_c, 4, 61, 64
7, 295200, Note_off_c, 4, 56, 64
7, 295200, Note_off_c, 4, 49, 64
7, 295200, Note_on_c, 4, 42, 102
7, 295204, Note_on_c, 4, 49, 102
7, 295208, Note_on_c, 4, 54, 102
7, 295680, Note_off_c, 4, 42, 64
7, 295680, Note_on_c, 4, 39, 102
7, 295684, Note_off_c, 4, 49, 64
7, 295684, Note_on_c, 4, 46, 102
7, 295688, Note_off_c, 4, 54, 64
7, 295688, Note_on_c, 4, 51, 102
7, 295920, Note_off_c, 4, 39, 64
7, 295920, Note_off_c, 4, 46, 64
7, 295920, Note_off_c, 4, 51, 64
7, 295920, Note_on_c, 4, 39, 89
7, 296160, Note_off_c, 4, 39, 64
7, 296160, Note_on_c, 4, 39, 89
7, 296400, Note_off_c, 4, 39, 64
7, 296400, Note_on_c, 4, 39, 102
7, 296404, Note_on_c, 4, 46, 102
7, 296408, Note_on_c, 4, 51, 102
7, 296640, Note_off_c, 4, 39, 64
7, 296644, Note_off_c, 4, 46, 64
7, 296648, Note_off_c, 4, 51, 64
7, 296880, Note_on_c, 4, 39, 89
7, 297120, Note_off_c, 4, 39, 64
7, 297120, Note_on_c, 4, 39, 102
7, 297124, Note_on_c, 4, 46, 102
7, 297128, Note_on_c, 4, 51, 102
7, 297360, Note_off_c, 4, 39, 64
7, 297360, Note_on_c, 4, 39, 89
7, 297364, Note_off_c, 4, 46, 64
7, 297368, Note_off_c, 4, 51, 64
7, 297600, Note_off_c, 4, 39, 64
7, 297600, Note_on_c, 4, 42, 102
7, 297604, Note_on_c, 4, 49, 102
7, 297608, Note_on_c, 4, 54, 102
7, 298080, Note_off_c, 4, 54, 64
7, 298080, Note_off_c, 4, 49, 64
7, 298080, Note_off_c, 4, 42, 64
7, 298080, Note_on_c, 4, 49, 83
7, 298096, Pitch_bend_c, 4, 8122
7, 298128, Pitch_bend_c, 4, 7936
7, 298160, Pitch_bend_c, 4, 7750
7, 298192, Pitch_bend_c, 4, 7564
7, 298224, Pitch_bend_c, 4, 7377
7, 298256, Pitch_bend_c, 4, 7191
7, 298288, Pitch_bend_c, 4, 7005
7, 298316, Pitch_bend_c, 4, 6842
7, 298320, Note_off_c, 4, 49, 64
7, 298320, Pitch_bend_c, 4, 8192
7, 298320, Note_on_c, 4, 42, 102
7, 298324, Note_on_c, 4, 49, 102
7, 298328, Note_on_c, 4, 54, 102
7, 298560, Note_off_c, 4, 49, 64
7, 298560, Note_off_c, 4, 42, 64
7, 298568, Note_off_c, 4, 54, 64
7, 299040, Note_on_c, 4, 49, 83
7, 299280, Note_off_c, 4, 49, 64
7, 299280, Note_on_c, 4, 42, 102
7, 299284, Note_on_c, 4, 49, 102
7, 299288, Note_on_c, 4, 54, 102
7, 299520, Note_off_c, 4, 42, 64
7, 299520, Note_on_c, 4, 44, 91
7, 299524, Note_off_c, 4, 49, 64
7, 299524, Note_on_c, 4, 51, 91
7, 299528, Note_off_c, 4, 54, 64
7, 299528, Note_on_c, 4, 56, 91
7, 299760, Note_off_c, 4, 44, 64
7, 299760, Note_on_c, 4, 44, 91
7, 299764, Note_off_c, 4, 51, 64
7, 299764, Note_on_c, 4, 51, 91
7, 299768, Note_off_c, 4, 56, 64
7, 299768, Note_on_c, 4, 56, 91
7, 300000, Note_off_c, 4, 44, 64
7, 300000, Note_on_c, 4, 44, 91
7, 300004, Note_off_c, 4, 51, 64
7, 300004, Note_on_c, 4, 51, 91
7, 300008, Note_off_c, 4, 56, 64
7, 300008, Note_on_c, 4, 56, 91
7, 300480, Note_off_c, 4, 44, 64
7, 300480, Note_off_c, 4, 51, 64
7, 300480, Note_off_c, 4, 56, 64
7, 300480, Note_on_c, 4, 44, 91
7, 300484, Note_on_c, 4, 51, 91
7, 300488, Note_on_c, 4, 56, 91
7, 300720, Note_off_c, 4, 44, 64
7, 300720, Note_on_c, 4, 44, 91
7, 300724, Note_off_c, 4, 51, 64
7, 300724, Note_on_c, 4, 51, 91
7, 300728, Note_off_c, 4, 56, 64
7, 300728, Note_on_c, 4, 56, 91
7, 300960, Note_off_c, 4, 44, 64
7, 300960, Note_on_c, 4, 44, 91
7, 300964, Note_off_c, 4, 51, 64
7, 300964, Note_on_c, 4, 51, 91
7, 300968, Note_off_c, 4, 56, 64
7, 300968, Note_on_c, 4, 56, 91
7, 301200, Note_off_c, 4, 44, 64
7, 301200, Note_on_c, 4, 44, 80
7, 301204, Note_off_c, 4, 51, 64
7, 301204, Note_on_c, 4, 51, 80
7, 301208, Note_off_c, 4, 56, 64
7, 301208, Note_on_c, 4, 56, 80
7, 301260, Note_off_c, 4, 44, 64
7, 301264, Note_off_c, 4, 51, 64
7, 301268, Note_off_c, 4, 56, 64
7, 301680, Pitch_bend_c, 4, 8192
7, 301680, Note_on_c, 4, 47, 102
7, 301684, Note_on_c, 4, 54, 102
7, 301688, Note_on_c, 4, 59, 102
7, 301920, Note_off_c, 4, 47, 64
7, 301924, Note_off_c, 4, 54, 64
7, 301928, Note_off_c, 4, 59, 64
7, 302400, Note_on_c, 4, 49, 102
7, 302404, Note_on_c, 4, 56, 102
7, 302408, Note_on_c, 4, 61, 102
7, 302880, Note_off_c, 4, 61, 64
7, 302880, Note_off_c, 4, 56, 64
7, 302880, Note_off_c, 4, 49, 64
7, 302880, Note_on_c, 4, 42, 102
7, 302884, Note_on_c, 4, 49, 102
7, 302888, Note_on_c, 4, 54, 102
7, 303360, Note_off_c, 4, 42, 64
7, 303360, Note_on_c, 4, 39, 89
7, 303364, Note_off_c, 4, 49, 64
7, 303364, Note_on_c, 4, 46, 89
7, 303368, Note_off_c, 4, 54, 64
7, 303368, Note_on_c, 4, 51, 89
7, 303600, Note_off_c, 4, 39, 64
7, 303600, Note_off_c, 4, 46, 64
7, 303600, Note_off_c, 4, 51, 64
7, 303600, Note_on_c, 4, 39, 89
7, 303604, Note_on_c, 4, 46, 89
7, 303608, Note_on_c, 4, 51, 89
7, 303840, Note_off_c, 4, 51, 64
7, 303840, Note_off_c, 4, 46, 64
7, 303840, Note_off_c, 4, 39, 64
7, 303840, Note_on_c, 4, 39, 89
7, 303844, Note_on_c, 4, 46, 89
7, 303848, Note_on_c, 4, 51, 89
7, 304080, Note_off_c, 4, 51, 64
7, 304080, Note_off_c, 4, 46, 64
7, 304080, Note_off_c, 4, 39, 64
7, 304080, Note_on_c, 4, 39, 89
7, 304084, Note_on_c, 4, 46, 89
7, 304088, Note_on_c, 4, 51, 89
7, 304320, Note_off_c, 4, 51, 64
7, 304320, Note_off_c, 4, 46, 64
7, 304320, Note_off_c, 4, 39, 64
7, 304344, Note_on_c, 4, 39, 89
7, 304348, Note_on_c, 4, 46, 89
7, 304352, Note_on_c, 4, 51, 89
7, 304572, Note_on_c, 4, 39, 89
7, 304576, Note_on_c, 4, 46, 89
7, 304580, Note_on_c, 4, 51, 89
7, 304584, Note_off_c, 4, 51, 64
7, 304584, Note_off_c, 4, 46, 64
7, 304584, Note_off_c, 4, 39, 64
7, 304812, Note_off_c, 4, 51, 64
7, 304812, Note_off_c, 4, 39, 64
7, 304812, Note_off_c, 4, 46, 64
7, 304812, Note_on_c, 4, 39, 89
7, 304816, Note_on_c, 4, 46, 89
7, 304820, Note_on_c, 4, 51, 89
7, 305040, Note_on_c, 4, 39, 89
7, 305044, Note_on_c, 4, 46, 89
7, 305048, Note_on_c, 4, 51, 89
7, 305052, Note_off_c, 4, 51, 64
7, 305052, Note_off_c, 4, 46, 64
7, 305052, Note_off_c, 4, 39, 64
7, 305280, Note_off_c, 4, 51, 64
7, 305280, Note_off_c, 4, 39, 64
7, 305280, Note_off_c, 4, 46, 64
7, 305280, Note_on_c, 4, 42, 102
7, 305284, Note_on_c, 4, 49, 102
7, 305288, Note_on_c, 4, 54, 102
7, 305756, Note_off_c, 4, 54, 64
7, 305756, Note_off_c, 4, 49, 64
7, 305760, Note_off_c, 4, 42, 64
7, 305760, Note_on_c, 4, 42, 102
7, 305764, Note_on_c, 4, 49, 102
7, 305768, Note_on_c, 4, 54, 102
7, 306236, Note_off_c, 4, 54, 64
7, 306236, Note_off_c, 4, 49, 64
7, 306240, Note_off_c, 4, 42, 64
7, 306240, Note_on_c, 4, 42, 102
7, 306244, Note_on_c, 4, 49, 102
7, 306248, Note_on_c, 4, 54, 102
7, 306480, Note_off_c, 4, 54, 64
7, 306480, Note_off_c, 4, 49, 64
7, 306480, Note_off_c, 4, 42, 64
7, 306492, Note_on_c, 4, 42, 102
7, 306496, Note_on_c, 4, 49, 102
7, 306500, Note_on_c, 4, 54, 102
7, 306732, Note_off_c, 4, 54, 64
7, 306732, Note_off_c, 4, 49, 64
7, 306732, Note_off_c, 4, 42, 64
7, 306744, Note_on_c, 4, 42, 102
7, 306748, Note_on_c, 4, 49, 102
7, 306752, Note_on_c, 4, 54, 102
7, 306960, Note_off_c, 4, 54, 64
7, 306960, Note_off_c, 4, 49, 64
7, 306960, Note_off_c, 4, 42, 64
7, 306960, Note_on_c, 4, 39, 102
7, 307200, Note_off_c, 4, 39, 64
7, 307200, Note_on_c, 4, 44, 102
7, 307204, Note_on_c, 4, 51, 102
7, 307208, Note_on_c, 4, 56, 102
7, 307676, Note_off_c, 4, 56, 64
7, 307676, Note_off_c, 4, 51, 64
7, 307680, Note_off_c, 4, 44, 64
7, 307680, Note_on_c, 4, 44, 102
7, 307684, Note_on_c, 4, 51, 102
7, 307688, Note_on_c, 4, 56, 102
7, 307920, Note_off_c, 4, 56, 64
7, 307920, Note_off_c, 4, 51, 64
7, 307920, Note_off_c, 4, 44, 64
7, 307920, Note_on_c, 4, 44, 102
7, 307924, Note_on_c, 4, 51, 102
7, 307928, Note_on_c, 4, 56, 102
7, 308160, Note_off_c, 4, 56, 64
7, 308160, Note_off_c, 4, 51, 64
7, 308160, Note_off_c, 4, 44, 64
7, 308160, Note_on_c, 4, 44, 102
7, 308164, Note_on_c, 4, 51, 102
7, 308168, Note_on_c, 4, 56, 102
7, 308400, Note_off_c, 4, 56, 64
7, 308400, Note_off_c, 4, 51, 64
7, 308400, Note_off_c, 4, 44, 64
7, 308400, Note_on_c, 4, 44, 102
7, 308404, Note_on_c, 4, 51, 102
7, 308408, Note_on_c, 4, 56, 102
7, 308640, Note_off_c, 4, 56, 64
7, 308640, Note_off_c, 4, 51, 64
7, 308640, Note_off_c, 4, 44, 64
7, 308640, Note_on_c, 4, 44, 102
7, 308644, Note_on_c, 4, 51, 102
7, 308648, Note_on_c, 4, 56, 102
7, 308880, Note_off_c, 4, 56, 64
7, 308880, Note_off_c, 4, 51, 64
7, 308880, Note_off_c, 4, 44, 64
7, 308880, Note_on_c, 4, 44, 102
7, 308884, Note_on_c, 4, 51, 102
7, 308888, Note_on_c, 4, 56, 102
7, 309120, Note_off_c, 4, 56, 64
7, 309120, Note_off_c, 4, 51, 64
7, 309120, Note_off_c, 4, 44, 64
7, 309120, Note_on_c, 4, 47, 102
7, 309124, Note_on_c, 4, 54, 102
7, 309128, Note_on_c, 4, 59, 102
7, 309360, Note_off_c, 4, 59, 64
7, 309360, Note_off_c, 4, 54, 64
7, 309360, Note_off_c, 4, 47, 64
7, 309360, Note_on_c, 4, 47, 102
7, 309364, Note_on_c, 4, 54, 102
7, 309368, Note_on_c, 4, 59, 102
7, 309600, Note_off_c, 4, 59, 64
7, 309600, Note_off_c, 4, 54, 64
7, 309600, Note_off_c, 4, 47, 64
7, 309600, Note_on_c, 4, 47, 102
7, 309604, Note_on_c, 4, 54, 102
7, 309608, Note_on_c, 4, 59, 102
7, 309840, Note_off_c, 4, 59, 64
7, 309840, Note_off_c, 4, 54, 64
7, 309840, Note_off_c, 4, 47, 64
7, 309840, Note_on_c, 4, 47, 102
7, 309844, Note_on_c, 4, 54, 102
7, 309848, Note_on_c, 4, 59, 102
7, 310080, Note_off_c, 4, 59, 64
7, 310080, Note_off_c, 4, 54, 64
7, 310080, Note_off_c, 4, 47, 64
7, 310080, Note_on_c, 4, 49, 102
7, 310084, Note_on_c, 4, 56, 102
7, 310088, Note_on_c, 4, 61, 102
7, 310560, Note_off_c, 4, 61, 64
7, 310560, Note_off_c, 4, 56, 64
7, 310560, Note_off_c, 4, 49, 64
7, 310560, Note_on_c, 4, 42, 102
7, 310564, Note_on_c, 4, 49, 102
7, 310568, Note_on_c, 4, 54, 102
7, 311040, Note_off_c, 4, 42, 64
7, 311040, Note_on_c, 4, 39, 102
7, 311044, Note_off_c, 4, 49, 64
7, 311044, Note_on_c, 4, 46, 102
7, 311048, Note_off_c, 4, 54, 64
7, 311048, Note_on_c, 4, 51, 102
7, 311516, Note_off_c, 4, 51, 64
7, 311520, Note_off_c, 4, 39, 64
7, 311520, Note_off_c, 4, 46, 64
7, 311520, Note_on_c, 4, 54, 89
7, 311520, Note_on_c, 4, 49, 89
7, 311520, Note_on_c, 4, 44, 89
7, 311580, Note_off_c, 4, 44, 64
7, 311580, Note_off_c, 4, 49, 64
7, 311580, Note_off_c, 4, 54, 64
7, 311760, Note_on_c, 4, 39, 102
7, 311764, Note_on_c, 4, 46, 102
7, 311768, Note_on_c, 4, 51, 102
7, 312236, Note_off_c, 4, 51, 64
7, 312236, Note_off_c, 4, 46, 64
7, 312240, Note_off_c, 4, 39, 64
7, 312240, Note_on_c, 4, 39, 102
7, 312244, Note_on_c, 4, 46, 102
7, 312248, Note_on_c, 4, 51, 102
7, 312480, Note_off_c, 4, 51, 64
7, 312480, Note_off_c, 4, 46, 64
7, 312480, Note_off_c, 4, 39, 64
7, 312480, Note_on_c, 4, 39, 102
7, 312484, Note_on_c, 4, 46, 102
7, 312488, Note_on_c, 4, 51, 102
7, 312720, Note_off_c, 4, 51, 64
7, 312720, Note_off_c, 4, 46, 64
7, 312720, Note_off_c, 4, 39, 64
7, 312720, Note_on_c, 4, 41, 102
7, 312960, Note_off_c, 4, 41, 64
7, 312960, Note_on_c, 4, 42, 102
7, 312964, Note_on_c, 4, 49, 102
7, 312968, Note_on_c, 4, 54, 102
7, 313440, Note_off_c, 4, 54, 64
7, 313440, Note_off_c, 4, 49, 64
7, 313440, Note_off_c, 4, 42, 64
7, 313440, Note_on_c, 4, 54, 89
7, 313440, Note_on_c, 4, 49, 89
7, 313440, Note_on_c, 4, 44, 89
7, 313500, Note_off_c, 4, 44, 64
7, 313500, Note_off_c, 4, 49, 64
7, 313500, Note_off_c, 4, 54, 64
7, 313680, Note_on_c, 4, 42, 102
7, 313684, Note_on_c, 4, 49, 102
7, 313688, Note_on_c, 4, 54, 102
7, 314400, Note_off_c, 4, 42, 64
7, 314400, Note_on_c, 4, 42, 102
7, 314404, Note_off_c, 4, 49, 64
7, 314404, Note_on_c, 4, 49, 102
7, 314408, Note_off_c, 4, 54, 64
7, 314408, Note_on_c, 4, 54, 102
7, 314640, Note_off_c, 4, 42, 64
7, 314640, Note_on_c, 4, 39, 102
7, 314644, Note_off_c, 4, 49, 64
7, 314648, Note_off_c, 4, 54, 64
7, 314880, Note_off_c, 4, 39, 64
7, 314880, Note_on_c, 4, 44, 102
7, 314884, Note_on_c, 4, 51, 102
7, 314888, Note_on_c, 4, 56, 102
7, 315360, Note_off_c, 4, 56, 64
7, 315360, Note_off_c, 4, 51, 64
7, 315360, Note_off_c, 4, 44, 64
7, 315360, Note_on_c, 4, 54, 89
7, 315360, Note_on_c, 4, 49, 89
7, 315360, Note_on_c, 4, 44, 89
7, 315420, Note_off_c, 4, 44, 64
7, 315420, Note_off_c, 4, 49, 64
7, 315420, Note_off_c, 4, 54, 64
7, 315600, Note_on_c, 4, 44, 102
7, 315604, Note_on_c, 4, 51, 102
7, 315608, Note_on_c, 4, 56, 102
7, 316080, Note_off_c, 4, 56, 64
7, 316080, Note_off_c, 4, 51, 64
7, 316080, Note_off_c, 4, 44, 64
7, 316080, Note_on_c, 4, 44, 102
7, 316084, Note_on_c, 4, 51, 102
7, 316088, Note_on_c, 4, 56, 102
7, 316320, Note_off_c, 4, 56, 64
7, 316320, Note_off_c, 4, 51, 64
7, 316320, Note_off_c, 4, 44, 64
7, 316320, Note_on_c, 4, 44, 102
7, 316324, Note_on_c, 4, 51, 102
7, 316328, Note_on_c, 4, 56, 102
7, 316560, Note_off_c, 4, 44, 64
7, 316560, Note_on_c, 4, 54, 89
7, 316560, Note_on_c, 4, 49, 89
7, 316560, Note_on_c, 4, 44, 89
7, 316564, Note_off_c, 4, 51, 64
7, 316568, Note_off_c, 4, 56, 64
7, 316620, Note_off_c, 4, 54, 64
7, 316620, Note_off_c, 4, 49, 64
7, 316620, Note_off_c, 4, 44, 64
7, 316800, Note_on_c, 4, 47, 102
7, 316804, Note_on_c, 4, 54, 102
7, 316808, Note_on_c, 4, 59, 102
7, 317280, Note_off_c, 4, 59, 64
7, 317280, Note_off_c, 4, 54, 64
7, 317280, Note_off_c, 4, 47, 64
7, 317280, Note_on_c, 4, 47, 102
7, 317284, Note_on_c, 4, 54, 102
7, 317288, Note_on_c, 4, 59, 102
7, 317760, Note_off_c, 4, 59, 64
7, 317760, Note_off_c, 4, 54, 64
7, 317760, Note_off_c, 4, 47, 64
7, 317760, Note_on_c, 4, 49, 102
7, 317764, Note_on_c, 4, 56, 102
7, 317768, Note_on_c, 4, 61, 102
7, 318240, Note_off_c, 4, 61, 64
7, 318240, Note_off_c, 4, 56, 64
7, 318240, Note_off_c, 4, 49, 64
7, 318240, Note_on_c, 4, 42, 102
7, 318244, Note_on_c, 4, 49, 102
7, 318248, Note_on_c, 4, 54, 102
7, 318720, Note_off_c, 4, 42, 64
7, 318720, Note_on_c, 4, 39, 102
7, 318724, Note_off_c, 4, 49, 64
7, 318724, Note_on_c, 4, 46, 102
7, 318728, Note_off_c, 4, 54, 64
7, 318728, Note_on_c, 4, 51, 102
7, 319196, Note_off_c, 4, 51, 64
7, 319200, Note_off_c, 4, 39, 64
7, 319200, Note_off_c, 4, 46, 64
7, 319200, Note_on_c, 4, 54, 89
7, 319200, Note_on_c, 4, 49, 89
7, 319200, Note_on_c, 4, 44, 89
7, 319260, Note_off_c, 4, 44, 64
7, 319260, Note_off_c, 4, 49, 64
7, 319260, Note_off_c, 4, 54, 64
7, 319440, Note_on_c, 4, 39, 102
7, 319444, Note_on_c, 4, 46, 102
7, 319448, Note_on_c, 4, 51, 102
7, 319916, Note_off_c, 4, 51, 64
7, 319916, Note_off_c, 4, 46, 64
7, 319920, Note_off_c, 4, 39, 64
7, 319920, Note_on_c, 4, 39, 102
7, 319924, Note_on_c, 4, 46, 102
7, 319928, Note_on_c, 4, 51, 102
7, 320160, Note_off_c, 4, 51, 64
7, 320160, Note_off_c, 4, 46, 64
7, 320160, Note_off_c, 4, 39, 64
7, 320160, Note_on_c, 4, 39, 102
7, 320164, Note_on_c, 4, 46, 102
7, 320168, Note_on_c, 4, 51, 102
7, 320400, Note_off_c, 4, 51, 64
7, 320400, Note_off_c, 4, 46, 64
7, 320400, Note_off_c, 4, 39, 64
7, 320400, Note_on_c, 4, 41, 102
7, 320640, Note_off_c, 4, 41, 64
7, 320640, Note_on_c, 4, 42, 102
7, 320644, Note_on_c, 4, 49, 102
7, 320648, Note_on_c, 4, 54, 102
7, 321120, Note_off_c, 4, 54, 64
7, 321120, Note_off_c, 4, 49, 64
7, 321120, Note_off_c, 4, 42, 64
7, 321120, Note_on_c, 4, 54, 89
7, 321120, Note_on_c, 4, 49, 89
7, 321120, Note_on_c, 4, 44, 89
7, 321180, Note_off_c, 4, 44, 64
7, 321180, Note_off_c, 4, 49, 64
7, 321180, Note_off_c, 4, 54, 64
7, 321360, Note_on_c, 4, 42, 102
7, 321364, Note_on_c, 4, 49, 102
7, 321368, Note_on_c, 4, 54, 102
7, 322080, Note_off_c, 4, 42, 64
7, 322080, Note_on_c, 4, 42, 102
7, 322084, Note_off_c, 4, 49, 64
7, 322084, Note_on_c, 4, 49, 102
7, 322088, Note_off_c, 4, 54, 64
7, 322088, Note_on_c, 4, 54, 102
7, 322320, Note_off_c, 4, 42, 64
7, 322320, Note_on_c, 4, 39, 102
7, 322324, Note_off_c, 4, 49, 64
7, 322328, Note_off_c, 4, 54, 64
7, 322560, Note_off_c, 4, 39, 64
7, 322560, Note_on_c, 4, 44, 102
7, 322564, Note_on_c, 4, 51, 102
7, 322568, Note_on_c, 4, 56, 102
7, 323040, Note_off_c, 4, 56, 64
7, 323040, Note_off_c, 4, 51, 64
7, 323040, Note_off_c, 4, 44, 64
7, 323040, Note_on_c, 4, 54, 89
7, 323040, Note_on_c, 4, 49, 89
7, 323040, Note_on_c, 4, 44, 89
7, 323100, Note_off_c, 4, 44, 64
7, 323100, Note_off_c, 4, 49, 64
7, 323100, Note_off_c, 4, 54, 64
7, 323280, Note_on_c, 4, 44, 102
7, 323284, Note_on_c, 4, 51, 102
7, 323288, Note_on_c, 4, 56, 102
7, 323760, Note_off_c, 4, 56, 64
7, 323760, Note_off_c, 4, 51, 64
7, 323760, Note_off_c, 4, 44, 64
7, 323760, Note_on_c, 4, 44, 102
7, 323764, Note_on_c, 4, 51, 102
7, 323768, Note_on_c, 4, 56, 102
7, 324000, Note_off_c, 4, 56, 64
7, 324000, Note_off_c, 4, 51, 64
7, 324000, Note_off_c, 4, 44, 64
7, 324000, Note_on_c, 4, 44, 102
7, 324004, Note_on_c, 4, 51, 102
7, 324008, Note_on_c, 4, 56, 102
7, 324240, Note_off_c, 4, 44, 64
7, 324240, Note_on_c, 4, 54, 89
7, 324240, Note_on_c, 4, 49, 89
7, 324240, Note_on_c, 4, 44, 89
7, 324244, Note_off_c, 4, 51, 64
7, 324248, Note_off_c, 4, 56, 64
7, 324300, Note_off_c, 4, 54, 64
7, 324300, Note_off_c, 4, 49, 64
7, 324300, Note_off_c, 4, 44, 64
7, 324480, Note_on_c, 4, 47, 102
7, 324484, Note_on_c, 4, 54, 102
7, 324488, Note_on_c, 4, 59, 102
7, 324960, Note_off_c, 4, 59, 64
7, 324960, Note_off_c, 4, 54, 64
7, 324960, Note_off_c, 4, 47, 64
7, 324960, Note_on_c, 4, 47, 102
7, 324964, Note_on_c, 4, 54, 102
7, 324968, Note_on_c, 4, 59, 102
7, 325440, Note_off_c, 4, 59, 64
7, 325440, Note_off_c, 4, 54, 64
7, 325440, Note_off_c, 4, 47, 64
7, 325440, Note_on_c, 4, 49, 102
7, 325444, Note_on_c, 4, 56, 102
7, 325448, Note_on_c, 4, 61, 102
7, 325920, Note_off_c, 4, 61, 64
7, 325920, Note_off_c, 4, 56, 64
7, 325920, Note_off_c, 4, 49, 64
7, 325920, Note_on_c, 4, 42, 102
7, 325924, Note_on_c, 4, 49, 102
7, 325928, Note_on_c, 4, 54, 102
7, 326400, Note_off_c, 4, 42, 64
7, 326400, Note_on_c, 4, 39, 102
7, 326404, Note_off_c, 4, 49, 64
7, 326404, Note_on_c, 4, 46, 102
7, 326408, Note_off_c, 4, 54, 64
7, 326408, Note_on_c, 4, 51, 102
7, 326876, Note_off_c, 4, 51, 64
7, 326880, Note_off_c, 4, 39, 64
7, 326880, Note_off_c, 4, 46, 64
7, 326880, Note_on_c, 4, 54, 89
7, 326880, Note_on_c, 4, 49, 89
7, 326880, Note_on_c, 4, 44, 89
7, 326940, Note_off_c, 4, 44, 64
7, 326940, Note_off_c, 4, 49, 64
7, 326940, Note_off_c, 4, 54, 64
7, 327120, Note_on_c, 4, 39, 102
7, 327124, Note_on_c, 4, 46, 102
7, 327128, Note_on_c, 4, 51, 102
7, 327596, Note_off_c, 4, 51, 64
7, 327596, Note_off_c, 4, 46, 64
7, 327600, Note_off_c, 4, 39, 64
7, 327600, Note_on_c, 4, 39, 102
7, 327604, Note_on_c, 4, 46, 102
7, 327608, Note_on_c, 4, 51, 102
7, 327840, Note_off_c, 4, 51, 64
7, 327840, Note_off_c, 4, 46, 64
7, 327840, Note_off_c, 4, 39, 64
7, 327840, Note_on_c, 4, 39, 102
7, 327844, Note_on_c, 4, 46, 102
7, 327848, Note_on_c, 4, 51, 102
7, 328080, Note_off_c, 4, 51, 64
7, 328080, Note_off_c, 4, 46, 64
7, 328080, Note_off_c, 4, 39, 64
7, 328080, Note_on_c, 4, 41, 102
7, 328320, Note_off_c, 4, 41, 64
7, 328320, Note_on_c, 4, 42, 102
7, 328324, Note_on_c, 4, 49, 102
7, 328328, Note_on_c, 4, 54, 102
7, 328800, Note_off_c, 4, 54, 64
7, 328800, Note_off_c, 4, 49, 64
7, 328800, Note_off_c, 4, 42, 64
7, 328800, Note_on_c, 4, 54, 89
7, 328800, Note_on_c, 4, 49, 89
7, 328800, Note_on_c, 4, 44, 89
7, 328860, Note_off_c, 4, 44, 64
7, 328860, Note_off_c, 4, 49, 64
7, 328860, Note_off_c, 4, 54, 64
7, 329040, Note_on_c, 4, 42, 102
7, 329044, Note_on_c, 4, 49, 102
7, 329048, Note_on_c, 4, 54, 102
7, 329760, Note_off_c, 4, 42, 64
7, 329760, Note_on_c, 4, 42, 102
7, 329764, Note_off_c, 4, 49, 64
7, 329764, Note_on_c, 4, 49, 102
7, 329768, Note_off_c, 4, 54, 64
7, 329768, Note_on_c, 4, 54, 102
7, 330000, Note_off_c, 4, 42, 64
7, 330000, Note_on_c, 4, 39, 102
7, 330004, Note_off_c, 4, 49, 64
7, 330008, Note_off_c, 4, 54, 64
7, 330240, Note_off_c, 4, 39, 64
7, 330240, Note_on_c, 4, 44, 102
7, 330244, Note_on_c, 4, 51, 102
7, 330248, Note_on_c, 4, 56, 102
7, 330720, Note_off_c, 4, 56, 64
7, 330720, Note_off_c, 4, 51, 64
7, 330720, Note_off_c, 4, 44, 64
7, 330720, Note_on_c, 4, 54, 89
7, 330720, Note_on_c, 4, 49, 89
7, 330720, Note_on_c, 4, 44, 89
7, 330780, Note_off_c, 4, 44, 64
7, 330780, Note_off_c, 4, 49, 64
7, 330780, Note_off_c, 4, 54, 64
7, 330960, Note_on_c, 4, 44, 102
7, 330964, Note_on_c, 4, 51, 102
7, 330968, Note_on_c, 4, 56, 102
7, 331440, Note_off_c, 4, 56, 64
7, 331440, Note_off_c, 4, 51, 64
7, 331440, Note_off_c, 4, 44, 64
7, 331440, Note_on_c, 4, 44, 102
7, 331444, Note_on_c, 4, 51, 102
7, 331448, Note_on_c, 4, 56, 102
7, 331680, Note_off_c, 4, 56, 64
7, 331680, Note_off_c, 4, 51, 64
7, 331680, Note_off_c, 4, 44, 64
7, 331680, Note_on_c, 4, 44, 102
7, 331684, Note_on_c, 4, 51, 102
7, 331688, Note_on_c, 4, 56, 102
7, 331920, Note_off_c, 4, 44, 64
7, 331920, Note_on_c, 4, 54, 89
7, 331920, Note_on_c, 4, 49, 89
7, 331920, Note_on_c, 4, 44, 89
7, 331924, Note_off_c, 4, 51, 64
7, 331928, Note_off_c, 4, 56, 64
7, 331980, Note_off_c, 4, 54, 64
7, 331980, Note_off_c, 4, 49, 64
7, 331980, Note_off_c, 4, 44, 64
7, 332160, Note_on_c, 4, 51, 102
7, 332480, Note_off_c, 4, 51, 64
7, 332480, Note_on_c, 4, 49, 102
7, 332800, Note_off_c, 4, 49, 64
7, 332800, Note_on_c, 4, 46, 102
7, 333120, Note_off_c, 4, 46, 64
7, 333120, Note_on_c, 4, 45, 102
7, 333440, Note_off_c, 4, 45, 64
7, 333440, Note_on_c, 4, 44, 102
7, 333760, Note_off_c, 4, 44, 64
7, 333760, Note_on_c, 4, 42, 102
7, 334080, Note_off_c, 4, 42, 64
7, 334080, Note_on_c, 4, 39, 102
7, 334084, Note_on_c, 4, 46, 102
7, 334088, Note_on_c, 4, 51, 102
7, 334556, Note_off_c, 4, 51, 64
7, 334560, Note_off_c, 4, 46, 64
7, 334560, Note_off_c, 4, 39, 64
7, 334560, Note_on_c, 4, 54, 89
7, 334560, Note_on_c, 4, 49, 89
7, 334560, Note_on_c, 4, 44, 89
7, 334620, Note_off_c, 4, 44, 64
7, 334620, Note_off_c, 4, 49, 64
7, 334620, Note_off_c, 4, 54, 64
7, 334800, Note_on_c, 4, 39, 102
7, 334804, Note_on_c, 4, 46, 102
7, 334808, Note_on_c, 4, 51, 102
7, 335276, Note_off_c, 4, 51, 64
7, 335276, Note_off_c, 4, 46, 64
7, 335280, Note_off_c, 4, 39, 64
7, 335280, Note_on_c, 4, 39, 102
7, 335284, Note_on_c, 4, 46, 102
7, 335288, Note_on_c, 4, 51, 102
7, 335520, Note_off_c, 4, 51, 64
7, 335520, Note_off_c, 4, 46, 64
7, 335520, Note_off_c, 4, 39, 64
7, 335520, Note_on_c, 4, 39, 102
7, 335524, Note_on_c, 4, 46, 102
7, 335528, Note_on_c, 4, 51, 102
7, 335760, Note_off_c, 4, 51, 64
7, 335760, Note_off_c, 4, 46, 64
7, 335760, Note_off_c, 4, 39, 64
7, 335760, Note_on_c, 4, 41, 102
7, 336000, Note_off_c, 4, 41, 64
7, 336000, Note_on_c, 4, 42, 102
7, 336004, Note_on_c, 4, 49, 102
7, 336008, Note_on_c, 4, 54, 102
7, 336720, Note_off_c, 4, 54, 64
7, 336720, Note_off_c, 4, 49, 64
7, 336720, Note_off_c, 4, 42, 64
7, 336720, Note_on_c, 4, 42, 102
7, 336724, Note_on_c, 4, 49, 102
7, 336728, Note_on_c, 4, 54, 102
7, 337680, Note_off_c, 4, 54, 64
7, 337680, Note_off_c, 4, 49, 64
7, 337680, Note_off_c, 4, 42, 64
7, 337680, Note_on_c, 4, 42, 102
7, 337684, Note_on_c, 4, 49, 102
7, 337688, Note_on_c, 4, 54, 102
7, 337920, Note_off_c, 4, 42, 64
7, 337920, Note_on_c, 4, 44, 102
7, 337924, Note_off_c, 4, 49, 64
7, 337924, Note_on_c, 4, 51, 102
7, 337928, Note_off_c, 4, 54, 64
7, 337928, Note_on_c, 4, 56, 102
7, 339840, Note_off_c, 4, 44, 64
7, 339840, Note_on_c, 4, 47, 102
7, 339844, Note_off_c, 4, 51, 64
7, 339844, Note_on_c, 4, 54, 102
7, 339848, Note_off_c, 4, 56, 64
7, 339848, Note_on_c, 4, 59, 102
7, 340800, Note_off_c, 4, 47, 64
7, 340800, Note_off_c, 4, 54, 64
7, 340800, Note_off_c, 4, 59, 64
7, 340800, Note_on_c, 4, 49, 102
7, 340804, Note_on_c, 4, 56, 102
7, 340808, Note_on_c, 4, 61, 102
7, 341760, Note_off_c, 4, 49, 64
7, 341760, Note_on_c, 4, 51, 102
7, 341764, Note_off_c, 4, 56, 64
7, 341764, Note_on_c, 4, 58, 102
7, 341768, Note_off_c, 4, 61, 64
7, 341768, Note_on_c, 4, 63, 102
7, 349440, Note_off_c, 4, 51, 64
7, 349444, Note_off_c, 4, 58, 64
7, 349448, Note_off_c, 4, 63, 64
7, 355200, Control_c, 0, 121, 0
7, 355200, End_track
8, 0, Start_track
8, 0, Title_t, "       """
8, 0, MIDI_port, 0
8, 0, Control_c, 5, 121, 0
8, 0, Control_c, 5, 100, 0
8, 0, Control_c, 5, 101, 0
8, 0, Control_c, 5, 6, 12
8, 0, Control_c, 5, 100, 127
8, 0, Control_c, 5, 101, 127
8, 0, Control_c, 5, 1, 0
8, 0, Control_c, 5, 11, 127
8, 0, Control_c, 5, 64, 0
8, 0, Control_c, 5, 7, 123
8, 0, Control_c, 5, 10, 0
8, 0, Control_c, 5, 91, 64
8, 0, Control_c, 5, 93, 51
8, 4, Program_c, 5, 30
8, 19200, Note_on_c, 5, 66, 95
8, 19440, Pitch_bend_c, 5, 7517
8, 19680, Note_off_c, 5, 66, 64
8, 19680, Pitch_bend_c, 5, 8192
8, 355200, Control_c, 0, 121, 0
8, 355200, End_track
9, 0, Start_track
9, 0, Title_t, "Acoustic Guitar"
9, 0, MIDI_port, 0
9, 0, Control_c, 6, 121, 0
9, 0, Control_c, 6, 100, 0
9, 0, Control_c, 6, 101, 0
9, 0, Control_c, 6, 6, 12
9, 0, Control_c, 6, 100, 127
9, 0, Control_c, 6, 101, 127
9, 0, Control_c, 6, 1, 0
9, 0, Control_c, 6, 11, 127
9, 0, Control_c, 6, 64, 0
9, 0, Control_c, 6, 7, 92
9, 0, Control_c, 6, 10, 127
9, 0, Control_c, 6, 91, 50
9, 0, Control_c, 6, 93, 64
9, 4, Program_c, 6, 25
9, 17280, Note_on_c, 6, 49, 95
9, 17312, Note_on_c, 6, 56, 95
9, 17344, Note_on_c, 6, 61, 95
9, 17376, Note_on_c, 6, 65, 95
9, 19200, Note_off_c, 6, 49, 64
9, 19232, Note_off_c, 6, 56, 64
9, 19264, Note_off_c, 6, 61, 64
9, 19296, Note_off_c, 6, 65, 64
9, 21120, Note_on_c, 6, 47, 95
9, 21144, Note_on_c, 6, 51, 95
9, 21168, Note_on_c, 6, 54, 95
9, 21192, Note_on_c, 6, 59, 95
9, 21216, Note_on_c, 6, 63, 95
9, 23040, Note_off_c, 6, 47, 64
9, 23064, Note_off_c, 6, 51, 64
9, 23088, Note_off_c, 6, 54, 64
9, 23112, Note_off_c, 6, 59, 64
9, 23136, Note_off_c, 6, 63, 64
9, 24960, Note_on_c, 6, 42, 95
9, 24984, Note_on_c, 6, 46, 95
9, 25008, Note_on_c, 6, 49, 95
9, 25032, Note_on_c, 6, 54, 95
9, 25056, Note_on_c, 6, 61, 95
9, 25080, Note_on_c, 6, 66, 95
9, 28800, Note_off_c, 6, 66, 64
9, 28800, Note_off_c, 6, 61, 64
9, 28800, Note_off_c, 6, 54, 64
9, 28800, Note_off_c, 6, 49, 64
9, 28800, Note_off_c, 6, 46, 64
9, 28800, Note_off_c, 6, 42, 64
9, 28800, Note_on_c, 6, 49, 83
9, 28808, Note_on_c, 6, 56, 83
9, 28816, Note_on_c, 6, 61, 83
9, 28824, Note_on_c, 6, 65, 83
9, 29040, Note_off_c, 6, 65, 64
9, 29040, Note_off_c, 6, 61, 64
9, 29040, Note_off_c, 6, 56, 64
9, 29040, Note_off_c, 6, 49, 64
9, 32640, Note_on_c, 6, 49, 95
9, 32648, Note_on_c, 6, 56, 95
9, 32656, Note_on_c, 6, 61, 95
9, 32664, Note_on_c, 6, 65, 95
9, 33360, Note_off_c, 6, 65, 64
9, 33360, Note_off_c, 6, 61, 64
9, 33360, Note_off_c, 6, 56, 64
9, 33360, Note_off_c, 6, 49, 64
9, 33360, Note_on_c, 6, 49, 83
9, 33368, Note_on_c, 6, 56, 83
9, 33376, Note_on_c, 6, 61, 83
9, 33384, Note_on_c, 6, 65, 83
9, 33600, Note_off_c, 6, 49, 64
9, 33600, Note_on_c, 6, 49, 95
9, 33608, Note_off_c, 6, 56, 64
9, 33608, Note_on_c, 6, 56, 95
9, 33616, Note_off_c, 6, 61, 64
9, 33616, Note_on_c, 6, 61, 95
9, 33624, Note_off_c, 6, 65, 64
9, 33624, Note_on_c, 6, 65, 95
9, 34320, Note_off_c, 6, 49, 64
9, 34320, Note_on_c, 6, 49, 95
9, 34328, Note_off_c, 6, 56, 64
9, 34328, Note_on_c, 6, 56, 95
9, 34336, Note_off_c, 6, 61, 64
9, 34336, Note_on_c, 6, 61, 95
9, 34344, Note_off_c, 6, 65, 64
9, 34344, Note_on_c, 6, 65, 95
9, 34560, Note_off_c, 6, 49, 64
9, 34560, Note_on_c, 6, 49, 95
9, 34568, Note_off_c, 6, 56, 64
9, 34568, Note_on_c, 6, 56, 95
9, 34576, Note_off_c, 6, 61, 64
9, 34576, Note_on_c, 6, 61, 95
9, 34584, Note_off_c, 6, 65, 64
9, 34584, Note_on_c, 6, 65, 95
9, 35280, Note_off_c, 6, 49, 64
9, 35280, Note_off_c, 6, 56, 64
9, 35280, Note_off_c, 6, 61, 64
9, 35280, Note_off_c, 6, 65, 64
9, 35280, Note_on_c, 6, 65, 95
9, 35520, Note_off_c, 6, 65, 64
9, 35520, Note_on_c, 6, 66, 95
9, 35760, Note_off_c, 6, 66, 64
9, 35760, Note_on_c, 6, 65, 95
9, 36000, Note_off_c, 6, 65, 64
9, 36000, Note_on_c, 6, 63, 95
9, 36480, Note_off_c, 6, 63, 64
9, 36480, Note_on_c, 6, 47, 95
9, 36488, Note_on_c, 6, 51, 95
9, 36496, Note_on_c, 6, 54, 95
9, 36504, Note_on_c, 6, 59, 95
9, 36512, Note_on_c, 6, 63, 95
9, 37200, Note_off_c, 6, 63, 64
9, 37200, Note_off_c, 6, 59, 64
9, 37200, Note_off_c, 6, 54, 64
9, 37200, Note_off_c, 6, 51, 64
9, 37200, Note_off_c, 6, 47, 64
9, 37200, Note_on_c, 6, 47, 95
9, 37208, Note_on_c, 6, 51, 95
9, 37216, Note_on_c, 6, 54, 95
9, 37224, Note_on_c, 6, 59, 95
9, 37232, Note_on_c, 6, 63, 95
9, 37440, Note_off_c, 6, 63, 64
9, 37440, Note_off_c, 6, 59, 64
9, 37440, Note_off_c, 6, 54, 64
9, 37440, Note_off_c, 6, 51, 64
9, 37440, Note_off_c, 6, 47, 64
9, 37440, Note_on_c, 6, 47, 95
9, 37448, Note_on_c, 6, 51, 95
9, 37456, Note_on_c, 6, 54, 95
9, 37464, Note_on_c, 6, 59, 95
9, 37472, Note_on_c, 6, 63, 95
9, 38160, Note_off_c, 6, 47, 64
9, 38160, Note_on_c, 6, 47, 95
9, 38168, Note_off_c, 6, 51, 64
9, 38168, Note_on_c, 6, 51, 95
9, 38176, Note_off_c, 6, 54, 64
9, 38176, Note_on_c, 6, 54, 95
9, 38184, Note_off_c, 6, 59, 64
9, 38184, Note_on_c, 6, 59, 95
9, 38192, Note_off_c, 6, 63, 64
9, 38192, Note_on_c, 6, 63, 95
9, 38400, Note_off_c, 6, 47, 64
9, 38400, Note_on_c, 6, 47, 95
9, 38408, Note_off_c, 6, 51, 64
9, 38408, Note_on_c, 6, 51, 95
9, 38416, Note_off_c, 6, 54, 64
9, 38416, Note_on_c, 6, 54, 95
9, 38424, Note_off_c, 6, 59, 64
9, 38424, Note_on_c, 6, 59, 95
9, 38432, Note_off_c, 6, 63, 64
9, 38432, Note_on_c, 6, 63, 95
9, 39120, Note_off_c, 6, 47, 64
9, 39120, Note_off_c, 6, 51, 64
9, 39120, Note_off_c, 6, 54, 64
9, 39120, Note_off_c, 6, 59, 64
9, 39120, Note_off_c, 6, 63, 64
9, 39120, Note_on_c, 6, 63, 95
9, 39360, Note_off_c, 6, 63, 64
9, 39360, Note_on_c, 6, 66, 95
9, 39600, Note_off_c, 6, 66, 64
9, 39600, Note_on_c, 6, 65, 95
9, 39840, Note_off_c, 6, 65, 64
9, 39840, Note_on_c, 6, 63, 95
9, 40320, Note_off_c, 6, 63, 64
9, 40320, Note_on_c, 6, 42, 95
9, 40328, Note_on_c, 6, 46, 95
9, 40336, Note_on_c, 6, 49, 95
9, 40344, Note_on_c, 6, 54, 95
9, 40352, Note_on_c, 6, 61, 95
9, 41040, Note_off_c, 6, 54, 64
9, 41040, Note_off_c, 6, 49, 64
9, 41040, Note_off_c, 6, 46, 64
9, 41040, Note_off_c, 6, 42, 64
9, 41040, Note_on_c, 6, 42, 95
9, 41048, Note_on_c, 6, 46, 95
9, 41056, Note_on_c, 6, 49, 95
9, 41064, Note_on_c, 6, 54, 95
9, 41072, Note_off_c, 6, 61, 64
9, 41072, Note_on_c, 6, 61, 95
9, 41280, Note_off_c, 6, 42, 64
9, 41280, Note_off_c, 6, 46, 64
9, 41280, Note_off_c, 6, 49, 64
9, 41280, Note_off_c, 6, 54, 64
9, 41280, Note_on_c, 6, 42, 95
9, 41288, Note_on_c, 6, 46, 95
9, 41296, Note_on_c, 6, 49, 95
9, 41304, Note_on_c, 6, 54, 95
9, 41312, Note_off_c, 6, 61, 64
9, 41312, Note_on_c, 6, 61, 95
9, 42000, Note_off_c, 6, 42, 64
9, 42000, Note_off_c, 6, 46, 64
9, 42000, Note_off_c, 6, 49, 64
9, 42000, Note_off_c, 6, 54, 64
9, 42000, Note_on_c, 6, 42, 95
9, 42008, Note_on_c, 6, 46, 95
9, 42016, Note_on_c, 6, 49, 95
9, 42024, Note_on_c, 6, 54, 95
9, 42032, Note_off_c, 6, 61, 64
9, 42032, Note_on_c, 6, 61, 95
9, 42240, Note_off_c, 6, 42, 64
9, 42240, Note_on_c, 6, 42, 95
9, 42248, Note_off_c, 6, 46, 64
9, 42248, Note_on_c, 6, 46, 95
9, 42256, Note_off_c, 6, 49, 64
9, 42256, Note_on_c, 6, 49, 95
9, 42264, Note_off_c, 6, 54, 64
9, 42264, Note_on_c, 6, 54, 95
9, 42272, Note_off_c, 6, 61, 64
9, 42272, Note_on_c, 6, 61, 95
9, 42960, Note_off_c, 6, 42, 64
9, 42960, Note_on_c, 6, 61, 95
9, 42968, Note_off_c, 6, 46, 64
9, 42976, Note_off_c, 6, 49, 64
9, 42984, Note_off_c, 6, 54, 64
9, 42992, Note_off_c, 6, 61, 64
9, 43200, Note_off_c, 6, 61, 64
9, 43200, Note_on_c, 6, 66, 95
9, 43440, Note_off_c, 6, 66, 64
9, 43440, Note_on_c, 6, 65, 95
9, 43680, Note_off_c, 6, 65, 64
9, 43680, Note_on_c, 6, 63, 95
9, 44160, Note_off_c, 6, 63, 64
9, 44160, Note_on_c, 6, 49, 95
9, 44168, Note_on_c, 6, 56, 95
9, 44176, Note_on_c, 6, 61, 95
9, 44184, Note_on_c, 6, 65, 83
9, 44880, Note_off_c, 6, 49, 64
9, 44880, Note_on_c, 6, 49, 95
9, 44888, Note_off_c, 6, 56, 64
9, 44888, Note_on_c, 6, 56, 95
9, 44896, Note_off_c, 6, 61, 64
9, 44896, Note_on_c, 6, 61, 95
9, 44904, Note_off_c, 6, 65, 64
9, 44904, Note_on_c, 6, 65, 83
9, 45120, Note_off_c, 6, 49, 64
9, 45120, Note_on_c, 6, 49, 95
9, 45128, Note_on_c, 6, 56, 95
9, 45136, Note_on_c, 6, 61, 95
9, 45144, Note_on_c, 6, 65, 83
9, 45608, Note_off_c, 6, 56, 64
9, 45616, Note_off_c, 6, 61, 64
9, 45624, Note_off_c, 6, 65, 64
9, 45840, Note_off_c, 6, 49, 64
9, 45840, Note_on_c, 6, 49, 95
9, 45848, Note_off_c, 6, 56, 64
9, 45848, Note_on_c, 6, 56, 95
9, 45856, Note_off_c, 6, 61, 64
9, 45856, Note_on_c, 6, 61, 95
9, 45864, Note_off_c, 6, 65, 64
9, 45864, Note_on_c, 6, 65, 83
9, 46080, Note_off_c, 6, 49, 64
9, 46080, Note_on_c, 6, 49, 95
9, 46088, Note_on_c, 6, 56, 95
9, 46096, Note_on_c, 6, 61, 95
9, 46104, Note_on_c, 6, 65, 83
9, 46568, Note_off_c, 6, 56, 64
9, 46576, Note_off_c, 6, 61, 64
9, 46584, Note_off_c, 6, 65, 64
9, 46800, Note_off_c, 6, 49, 64
9, 46800, Note_on_c, 6, 49, 95
9, 46808, Note_off_c, 6, 56, 64
9, 46808, Note_on_c, 6, 56, 95
9, 46816, Note_off_c, 6, 61, 64
9, 46816, Note_on_c, 6, 61, 95
9, 46824, Note_off_c, 6, 65, 64
9, 46824, Note_on_c, 6, 65, 83
9, 47040, Note_off_c, 6, 49, 64
9, 47040, Note_on_c, 6, 49, 95
9, 47048, Note_on_c, 6, 56, 95
9, 47056, Note_on_c, 6, 61, 95
9, 47064, Note_on_c, 6, 65, 83
9, 47528, Note_off_c, 6, 56, 64
9, 47536, Note_off_c, 6, 61, 64
9, 47544, Note_off_c, 6, 65, 64
9, 47760, Note_off_c, 6, 49, 64
9, 47760, Note_on_c, 6, 49, 95
9, 47768, Note_off_c, 6, 56, 64
9, 47768, Note_on_c, 6, 56, 95
9, 47776, Note_off_c, 6, 61, 64
9, 47776, Note_on_c, 6, 61, 95
9, 47784, Note_off_c, 6, 65, 64
9, 47784, Note_on_c, 6, 65, 83
9, 48000, Note_off_c, 6, 49, 64
9, 48488, Note_off_c, 6, 56, 64
9, 48496, Note_off_c, 6, 61, 64
9, 48504, Note_off_c, 6, 65, 64
9, 78720, Note_on_c, 6, 44, 102
9, 78728, Note_on_c, 6, 51, 102
9, 78736, Note_on_c, 6, 56, 102
9, 79200, Note_off_c, 6, 44, 64
9, 79208, Note_off_c, 6, 51, 64
9, 79216, Note_off_c, 6, 56, 64
9, 79440, Note_on_c, 6, 44, 102
9, 79448, Note_on_c, 6, 51, 102
9, 79456, Note_on_c, 6, 56, 102
9, 80160, Note_off_c, 6, 56, 64
9, 80160, Note_off_c, 6, 51, 64
9, 80160, Note_off_c, 6, 44, 64
9, 80160, Note_on_c, 6, 46, 102
9, 80168, Note_on_c, 6, 53, 102
9, 80176, Note_on_c, 6, 58, 102
9, 80388, Note_off_c, 6, 58, 64
9, 80400, Note_off_c, 6, 53, 64
9, 80400, Note_off_c, 6, 46, 64
9, 80400, Note_on_c, 6, 46, 102
9, 80408, Note_on_c, 6, 53, 102
9, 80416, Note_on_c, 6, 58, 102
9, 80628, Note_off_c, 6, 46, 64
9, 80640, Note_off_c, 6, 53, 64
9, 80640, Note_off_c, 6, 58, 64
9, 80640, Note_on_c, 6, 47, 102
9, 80648, Note_on_c, 6, 54, 102
9, 80656, Note_on_c, 6, 59, 102
9, 81120, Note_off_c, 6, 47, 64
9, 81128, Note_off_c, 6, 54, 64
9, 81136, Note_off_c, 6, 59, 64
9, 81360, Note_on_c, 6, 47, 102
9, 81368, Note_on_c, 6, 54, 102
9, 81376, Note_on_c, 6, 59, 102
9, 82560, Note_off_c, 6, 47, 64
9, 82560, Note_on_c, 6, 49, 102
9, 82568, Note_off_c, 6, 54, 64
9, 82568, Note_on_c, 6, 56, 102
9, 82576, Note_off_c, 6, 59, 64
9, 82576, Note_on_c, 6, 61, 102
9, 83280, Note_off_c, 6, 49, 64
9, 83280, Note_off_c, 6, 56, 64
9, 83280, Note_off_c, 6, 61, 64
9, 83280, Note_on_c, 6, 49, 102
9, 83288, Note_on_c, 6, 56, 102
9, 83296, Note_on_c, 6, 61, 102
9, 83520, Note_off_c, 6, 61, 64
9, 83520, Note_off_c, 6, 56, 64
9, 83520, Note_off_c, 6, 49, 64
9, 83520, Note_on_c, 6, 49, 102
9, 83528, Note_on_c, 6, 56, 102
9, 83536, Note_on_c, 6, 61, 102
9, 84240, Note_off_c, 6, 61, 64
9, 84240, Note_off_c, 6, 56, 64
9, 84240, Note_off_c, 6, 49, 64
9, 84240, Note_on_c, 6, 49, 102
9, 84248, Note_on_c, 6, 56, 102
9, 84256, Note_on_c, 6, 61, 102
9, 84480, Note_off_c, 6, 49, 64
9, 84480, Note_on_c, 6, 49, 89
9, 84484, Note_on_c, 6, 56, 89
9, 84488, Note_off_c, 6, 56, 64
9, 84488, Note_on_c, 6, 61, 89
9, 84492, Note_on_c, 6, 66, 89
9, 84496, Note_off_c, 6, 61, 64
9, 84720, Note_off_c, 6, 49, 64
9, 84720, Note_off_c, 6, 56, 64
9, 84720, Note_off_c, 6, 61, 64
9, 84720, Note_off_c, 6, 66, 64
9, 84720, Note_on_c, 6, 49, 89
9, 84724, Note_on_c, 6, 56, 89
9, 84728, Note_on_c, 6, 61, 89
9, 84732, Note_on_c, 6, 65, 89
9, 84960, Note_off_c, 6, 65, 64
9, 84960, Note_off_c, 6, 61, 64
9, 84960, Note_off_c, 6, 56, 64
9, 84960, Note_off_c, 6, 49, 64
9, 84960, Note_on_c, 6, 49, 89
9, 84964, Note_on_c, 6, 56, 89
9, 84968, Note_on_c, 6, 61, 89
9, 84972, Note_on_c, 6, 63, 89
9, 85200, Note_off_c, 6, 61, 64
9, 85200, Note_off_c, 6, 56, 64
9, 85200, Note_off_c, 6, 49, 64
9, 85200, Note_on_c, 6, 49, 89
9, 85204, Note_on_c, 6, 56, 89
9, 85208, Note_on_c, 6, 61, 89
9, 85212, Note_off_c, 6, 63, 64
9, 85212, Note_on_c, 6, 65, 89
9, 86400, Note_off_c, 6, 49, 64
9, 86400, Note_on_c, 6, 44, 102
9, 86404, Note_off_c, 6, 56, 64
9, 86408, Note_off_c, 6, 61, 64
9, 86408, Note_on_c, 6, 51, 102
9, 86412, Note_off_c, 6, 65, 64
9, 86416, Note_on_c, 6, 56, 102
9, 86880, Note_off_c, 6, 44, 64
9, 86888, Note_off_c, 6, 51, 64
9, 86896, Note_off_c, 6, 56, 64
9, 87120, Note_on_c, 6, 44, 102
9, 87128, Note_on_c, 6, 51, 102
9, 87136, Note_on_c, 6, 56, 102
9, 87840, Note_off_c, 6, 56, 64
9, 87840, Note_off_c, 6, 51, 64
9, 87840, Note_off_c, 6, 44, 64
9, 87840, Note_on_c, 6, 46, 102
9, 87848, Note_on_c, 6, 53, 102
9, 87856, Note_on_c, 6, 58, 102
9, 88068, Note_off_c, 6, 58, 64
9, 88080, Note_off_c, 6, 53, 64
9, 88080, Note_off_c, 6, 46, 64
9, 88080, Note_on_c, 6, 46, 102
9, 88088, Note_on_c, 6, 53, 102
9, 88096, Note_on_c, 6, 58, 102
9, 88308, Note_off_c, 6, 46, 64
9, 88320, Note_off_c, 6, 53, 64
9, 88320, Note_off_c, 6, 58, 64
9, 88320, Note_on_c, 6, 47, 102
9, 88328, Note_on_c, 6, 54, 102
9, 88336, Note_on_c, 6, 59, 102
9, 88800, Note_off_c, 6, 47, 64
9, 88808, Note_off_c, 6, 54, 64
9, 88816, Note_off_c, 6, 59, 64
9, 89040, Note_on_c, 6, 47, 102
9, 89048, Note_on_c, 6, 54, 102
9, 89056, Note_on_c, 6, 59, 102
9, 90240, Note_off_c, 6, 47, 64
9, 90240, Note_on_c, 6, 49, 102
9, 90248, Note_off_c, 6, 54, 64
9, 90248, Note_on_c, 6, 56, 102
9, 90256, Note_off_c, 6, 59, 64
9, 90256, Note_on_c, 6, 61, 102
9, 92160, Note_off_c, 6, 49, 64
9, 92160, Note_on_c, 6, 49, 81
9, 92168, Note_off_c, 6, 56, 64
9, 92168, Note_on_c, 6, 56, 81
9, 92176, Note_off_c, 6, 61, 64
9, 92176, Note_on_c, 6, 61, 81
9, 92880, Note_off_c, 6, 49, 64
9, 92880, Note_on_c, 6, 49, 81
9, 92888, Note_off_c, 6, 56, 64
9, 92888, Note_on_c, 6, 56, 81
9, 92896, Note_off_c, 6, 61, 64
9, 92896, Note_on_c, 6, 61, 81
9, 93120, Note_off_c, 6, 49, 64
9, 93120, Note_on_c, 6, 49, 81
9, 93128, Note_off_c, 6, 56, 64
9, 93128, Note_on_c, 6, 56, 81
9, 93136, Note_off_c, 6, 61, 64
9, 93136, Note_on_c, 6, 61, 81
9, 93600, Note_off_c, 6, 49, 64
9, 93600, Note_on_c, 6, 49, 81
9, 93608, Note_off_c, 6, 56, 64
9, 93608, Note_on_c, 6, 56, 81
9, 93616, Note_off_c, 6, 61, 64
9, 93616, Note_on_c, 6, 61, 81
9, 94080, Note_off_c, 6, 49, 64
9, 94080, Note_on_c, 6, 49, 95
9, 94088, Note_off_c, 6, 56, 64
9, 94088, Note_on_c, 6, 56, 95
9, 94096, Note_off_c, 6, 61, 64
9, 94096, Note_on_c, 6, 61, 95
9, 94104, Note_on_c, 6, 65, 95
9, 94800, Note_off_c, 6, 65, 64
9, 94800, Note_off_c, 6, 49, 64
9, 94800, Note_off_c, 6, 56, 64
9, 94800, Note_off_c, 6, 61, 64
9, 94800, Note_on_c, 6, 49, 83
9, 94808, Note_on_c, 6, 56, 83
9, 94816, Note_on_c, 6, 61, 83
9, 94824, Note_on_c, 6, 65, 83
9, 95040, Note_off_c, 6, 49, 64
9, 95040, Note_on_c, 6, 49, 95
9, 95048, Note_off_c, 6, 56, 64
9, 95048, Note_on_c, 6, 56, 95
9, 95056, Note_off_c, 6, 61, 64
9, 95056, Note_on_c, 6, 61, 95
9, 95064, Note_off_c, 6, 65, 64
9, 95064, Note_on_c, 6, 65, 95
9, 95760, Note_off_c, 6, 49, 64
9, 95760, Note_on_c, 6, 49, 95
9, 95768, Note_off_c, 6, 56, 64
9, 95768, Note_on_c, 6, 56, 95
9, 95776, Note_off_c, 6, 61, 64
9, 95776, Note_on_c, 6, 61, 95
9, 95784, Note_off_c, 6, 65, 64
9, 95784, Note_on_c, 6, 65, 95
9, 96000, Note_off_c, 6, 49, 64
9, 96000, Note_on_c, 6, 49, 95
9, 96008, Note_off_c, 6, 56, 64
9, 96008, Note_on_c, 6, 56, 95
9, 96016, Note_off_c, 6, 61, 64
9, 96016, Note_on_c, 6, 61, 95
9, 96024, Note_off_c, 6, 65, 64
9, 96024, Note_on_c, 6, 65, 95
9, 96720, Note_off_c, 6, 49, 64
9, 96720, Note_off_c, 6, 56, 64
9, 96720, Note_off_c, 6, 61, 64
9, 96720, Note_off_c, 6, 65, 64
9, 96720, Note_on_c, 6, 65, 70
9, 96960, Note_off_c, 6, 65, 64
9, 96960, Note_on_c, 6, 66, 70
9, 97200, Note_off_c, 6, 66, 64
9, 97200, Note_on_c, 6, 65, 70
9, 97440, Note_off_c, 6, 65, 64
9, 97440, Note_on_c, 6, 63, 70
9, 97920, Note_off_c, 6, 63, 64
9, 97920, Note_on_c, 6, 47, 95
9, 97928, Note_on_c, 6, 51, 95
9, 97936, Note_on_c, 6, 54, 95
9, 97944, Note_on_c, 6, 59, 95
9, 97952, Note_on_c, 6, 63, 95
9, 98640, Note_off_c, 6, 63, 64
9, 98640, Note_off_c, 6, 59, 64
9, 98640, Note_off_c, 6, 54, 64
9, 98640, Note_off_c, 6, 51, 64
9, 98640, Note_off_c, 6, 47, 64
9, 98640, Note_on_c, 6, 47, 95
9, 98648, Note_on_c, 6, 51, 95
9, 98656, Note_on_c, 6, 54, 95
9, 98664, Note_on_c, 6, 59, 95
9, 98672, Note_on_c, 6, 63, 95
9, 98880, Note_off_c, 6, 63, 64
9, 98880, Note_off_c, 6, 59, 64
9, 98880, Note_off_c, 6, 54, 64
9, 98880, Note_off_c, 6, 51, 64
9, 98880, Note_off_c, 6, 47, 64
9, 98880, Note_on_c, 6, 47, 95
9, 98888, Note_on_c, 6, 51, 95
9, 98896, Note_on_c, 6, 54, 95
9, 98904, Note_on_c, 6, 59, 95
9, 98912, Note_on_c, 6, 63, 95
9, 99600, Note_off_c, 6, 47, 64
9, 99600, Note_on_c, 6, 47, 95
9, 99608, Note_off_c, 6, 51, 64
9, 99608, Note_on_c, 6, 51, 95
9, 99616, Note_off_c, 6, 54, 64
9, 99616, Note_on_c, 6, 54, 95
9, 99624, Note_off_c, 6, 59, 64
9, 99624, Note_on_c, 6, 59, 95
9, 99632, Note_off_c, 6, 63, 64
9, 99632, Note_on_c, 6, 63, 95
9, 99840, Note_off_c, 6, 47, 64
9, 99840, Note_on_c, 6, 47, 95
9, 99848, Note_off_c, 6, 51, 64
9, 99848, Note_on_c, 6, 51, 95
9, 99856, Note_off_c, 6, 54, 64
9, 99856, Note_on_c, 6, 54, 95
9, 99864, Note_off_c, 6, 59, 64
9, 99864, Note_on_c, 6, 59, 95
9, 99872, Note_off_c, 6, 63, 64
9, 99872, Note_on_c, 6, 63, 95
9, 100560, Note_off_c, 6, 47, 64
9, 100560, Note_off_c, 6, 51, 64
9, 100560, Note_off_c, 6, 54, 64
9, 100560, Note_off_c, 6, 59, 64
9, 100560, Note_off_c, 6, 63, 64
9, 100560, Note_on_c, 6, 63, 95
9, 100800, Note_off_c, 6, 63, 64
9, 100800, Note_on_c, 6, 66, 95
9, 101040, Note_off_c, 6, 66, 64
9, 101040, Note_on_c, 6, 65, 95
9, 101280, Note_off_c, 6, 65, 64
9, 101280, Note_on_c, 6, 63, 95
9, 101760, Note_off_c, 6, 63, 64
9, 101760, Note_on_c, 6, 42, 95
9, 101768, Note_on_c, 6, 46, 95
9, 101776, Note_on_c, 6, 49, 95
9, 101784, Note_on_c, 6, 54, 95
9, 101792, Note_on_c, 6, 61, 95
9, 102480, Note_off_c, 6, 54, 64
9, 102480, Note_off_c, 6, 49, 64
9, 102480, Note_off_c, 6, 46, 64
9, 102480, Note_off_c, 6, 42, 64
9, 102480, Note_on_c, 6, 42, 95
9, 102488, Note_on_c, 6, 46, 95
9, 102496, Note_on_c, 6, 49, 95
9, 102504, Note_on_c, 6, 54, 95
9, 102512, Note_off_c, 6, 61, 64
9, 102512, Note_on_c, 6, 61, 95
9, 102720, Note_off_c, 6, 42, 64
9, 102720, Note_off_c, 6, 46, 64
9, 102720, Note_off_c, 6, 49, 64
9, 102720, Note_off_c, 6, 54, 64
9, 102720, Note_on_c, 6, 42, 95
9, 102728, Note_on_c, 6, 46, 95
9, 102736, Note_on_c, 6, 49, 95
9, 102744, Note_on_c, 6, 54, 95
9, 102752, Note_off_c, 6, 61, 64
9, 102752, Note_on_c, 6, 61, 95
9, 103440, Note_off_c, 6, 42, 64
9, 103440, Note_off_c, 6, 46, 64
9, 103440, Note_off_c, 6, 49, 64
9, 103440, Note_off_c, 6, 54, 64
9, 103440, Note_on_c, 6, 42, 95
9, 103448, Note_on_c, 6, 46, 95
9, 103456, Note_on_c, 6, 49, 95
9, 103464, Note_on_c, 6, 54, 95
9, 103472, Note_off_c, 6, 61, 64
9, 103472, Note_on_c, 6, 61, 95
9, 103680, Note_off_c, 6, 42, 64
9, 103680, Note_on_c, 6, 42, 95
9, 103688, Note_off_c, 6, 46, 64
9, 103688, Note_on_c, 6, 46, 95
9, 103696, Note_off_c, 6, 49, 64
9, 103696, Note_on_c, 6, 49, 95
9, 103704, Note_off_c, 6, 54, 64
9, 103704, Note_on_c, 6, 54, 95
9, 103712, Note_off_c, 6, 61, 64
9, 103712, Note_on_c, 6, 61, 95
9, 104400, Note_off_c, 6, 42, 64
9, 104400, Note_on_c, 6, 61, 83
9, 104408, Note_off_c, 6, 46, 64
9, 104416, Note_off_c, 6, 49, 64
9, 104424, Note_off_c, 6, 54, 64
9, 104432, Note_off_c, 6, 61, 64
9, 104640, Note_off_c, 6, 61, 64
9, 104640, Note_on_c, 6, 66, 83
9, 104880, Note_off_c, 6, 66, 64
9, 104880, Note_on_c, 6, 65, 83
9, 105120, Note_off_c, 6, 65, 64
9, 105120, Note_on_c, 6, 63, 83
9, 105600, Note_off_c, 6, 63, 64
9, 105600, Note_on_c, 6, 49, 95
9, 105608, Note_on_c, 6, 56, 95
9, 105616, Note_on_c, 6, 61, 95
9, 105624, Note_on_c, 6, 65, 83
9, 106320, Note_off_c, 6, 49, 64
9, 106320, Note_on_c, 6, 49, 95
9, 106328, Note_off_c, 6, 56, 64
9, 106328, Note_on_c, 6, 56, 95
9, 106336, Note_off_c, 6, 61, 64
9, 106336, Note_on_c, 6, 61, 95
9, 106344, Note_off_c, 6, 65, 64
9, 106344, Note_on_c, 6, 65, 83
9, 106560, Note_off_c, 6, 49, 64
9, 106560, Note_on_c, 6, 49, 95
9, 106568, Note_on_c, 6, 56, 95
9, 106576, Note_on_c, 6, 61, 95
9, 106584, Note_on_c, 6, 65, 83
9, 107048, Note_off_c, 6, 56, 64
9, 107056, Note_off_c, 6, 61, 64
9, 107064, Note_off_c, 6, 65, 64
9, 107280, Note_off_c, 6, 49, 64
9, 107280, Note_on_c, 6, 49, 95
9, 107288, Note_off_c, 6, 56, 64
9, 107288, Note_on_c, 6, 56, 95
9, 107296, Note_off_c, 6, 61, 64
9, 107296, Note_on_c, 6, 61, 95
9, 107304, Note_off_c, 6, 65, 64
9, 107304, Note_on_c, 6, 65, 83
9, 107520, Note_off_c, 6, 49, 64
9, 107520, Note_on_c, 6, 49, 95
9, 107528, Note_on_c, 6, 56, 95
9, 107536, Note_on_c, 6, 61, 95
9, 107544, Note_on_c, 6, 65, 83
9, 108008, Note_off_c, 6, 56, 64
9, 108016, Note_off_c, 6, 61, 64
9, 108024, Note_off_c, 6, 65, 64
9, 108240, Note_off_c, 6, 49, 64
9, 108240, Note_on_c, 6, 49, 95
9, 108248, Note_off_c, 6, 56, 64
9, 108248, Note_on_c, 6, 56, 95
9, 108256, Note_off_c, 6, 61, 64
9, 108256, Note_on_c, 6, 61, 95
9, 108264, Note_off_c, 6, 65, 64
9, 108264, Note_on_c, 6, 65, 83
9, 108480, Note_off_c, 6, 49, 64
9, 108480, Note_on_c, 6, 49, 95
9, 108488, Note_on_c, 6, 56, 95
9, 108496, Note_on_c, 6, 61, 95
9, 108504, Note_on_c, 6, 65, 83
9, 108968, Note_off_c, 6, 56, 64
9, 108976, Note_off_c, 6, 61, 64
9, 108984, Note_off_c, 6, 65, 64
9, 109200, Note_off_c, 6, 49, 64
9, 109200, Note_on_c, 6, 49, 95
9, 109208, Note_off_c, 6, 56, 64
9, 109208, Note_on_c, 6, 56, 95
9, 109216, Note_off_c, 6, 61, 64
9, 109216, Note_on_c, 6, 61, 95
9, 109224, Note_off_c, 6, 65, 64
9, 109224, Note_on_c, 6, 65, 83
9, 109440, Note_off_c, 6, 49, 64
9, 109448, Note_off_c, 6, 56, 64
9, 109456, Note_off_c, 6, 61, 64
9, 109464, Note_off_c, 6, 65, 64
9, 140160, Note_on_c, 6, 44, 102
9, 140168, Note_on_c, 6, 51, 102
9, 140176, Note_on_c, 6, 56, 102
9, 140640, Note_off_c, 6, 44, 64
9, 140648, Note_off_c, 6, 51, 64
9, 140656, Note_off_c, 6, 56, 64
9, 140880, Note_on_c, 6, 44, 102
9, 140888, Note_on_c, 6, 51, 102
9, 140896, Note_on_c, 6, 56, 102
9, 141600, Note_off_c, 6, 56, 64
9, 141600, Note_off_c, 6, 51, 64
9, 141600, Note_off_c, 6, 44, 64
9, 141600, Note_on_c, 6, 46, 102
9, 141608, Note_on_c, 6, 53, 102
9, 141616, Note_on_c, 6, 58, 102
9, 141828, Note_off_c, 6, 58, 64
9, 141840, Note_off_c, 6, 53, 64
9, 141840, Note_off_c, 6, 46, 64
9, 141840, Note_on_c, 6, 46, 102
9, 141848, Note_on_c, 6, 53, 102
9, 141856, Note_on_c, 6, 58, 102
9, 142068, Note_off_c, 6, 46, 64
9, 142080, Note_off_c, 6, 53, 64
9, 142080, Note_off_c, 6, 58, 64
9, 142080, Note_on_c, 6, 47, 102
9, 142088, Note_on_c, 6, 54, 102
9, 142096, Note_on_c, 6, 59, 102
9, 142560, Note_off_c, 6, 47, 64
9, 142568, Note_off_c, 6, 54, 64
9, 142576, Note_off_c, 6, 59, 64
9, 142800, Note_on_c, 6, 47, 102
9, 142808, Note_on_c, 6, 54, 102
9, 142816, Note_on_c, 6, 59, 102
9, 144000, Note_off_c, 6, 47, 64
9, 144000, Note_on_c, 6, 49, 102
9, 144008, Note_off_c, 6, 54, 64
9, 144008, Note_on_c, 6, 56, 102
9, 144016, Note_off_c, 6, 59, 64
9, 144016, Note_on_c, 6, 61, 102
9, 144720, Note_off_c, 6, 49, 64
9, 144720, Note_off_c, 6, 56, 64
9, 144720, Note_off_c, 6, 61, 64
9, 144720, Note_on_c, 6, 49, 102
9, 144728, Note_on_c, 6, 56, 102
9, 144736, Note_on_c, 6, 61, 102
9, 144960, Note_off_c, 6, 61, 64
9, 144960, Note_off_c, 6, 56, 64
9, 144960, Note_off_c, 6, 49, 64
9, 144960, Note_on_c, 6, 49, 102
9, 144968, Note_on_c, 6, 56, 102
9, 144976, Note_on_c, 6, 61, 102
9, 145680, Note_off_c, 6, 61, 64
9, 145680, Note_off_c, 6, 56, 64
9, 145680, Note_off_c, 6, 49, 64
9, 145680, Note_on_c, 6, 49, 102
9, 145688, Note_on_c, 6, 56, 102
9, 145696, Note_on_c, 6, 61, 102
9, 145920, Note_off_c, 6, 49, 64
9, 145920, Note_on_c, 6, 49, 89
9, 145924, Note_on_c, 6, 56, 89
9, 145928, Note_off_c, 6, 56, 64
9, 145928, Note_on_c, 6, 61, 89
9, 145932, Note_on_c, 6, 66, 89
9, 145936, Note_off_c, 6, 61, 64
9, 146160, Note_off_c, 6, 49, 64
9, 146160, Note_off_c, 6, 56, 64
9, 146160, Note_off_c, 6, 61, 64
9, 146160, Note_off_c, 6, 66, 64
9, 146160, Note_on_c, 6, 49, 89
9, 146164, Note_on_c, 6, 56, 89
9, 146168, Note_on_c, 6, 61, 89
9, 146172, Note_on_c, 6, 65, 89
9, 146400, Note_off_c, 6, 65, 64
9, 146400, Note_off_c, 6, 61, 64
9, 146400, Note_off_c, 6, 56, 64
9, 146400, Note_off_c, 6, 49, 64
9, 146400, Note_on_c, 6, 49, 89
9, 146404, Note_on_c, 6, 56, 89
9, 146408, Note_on_c, 6, 61, 89
9, 146412, Note_on_c, 6, 63, 89
9, 146640, Note_off_c, 6, 61, 64
9, 146640, Note_off_c, 6, 56, 64
9, 146640, Note_off_c, 6, 49, 64
9, 146640, Note_on_c, 6, 49, 89
9, 146644, Note_on_c, 6, 56, 89
9, 146648, Note_on_c, 6, 61, 89
9, 146652, Note_off_c, 6, 63, 64
9, 146652, Note_on_c, 6, 65, 89
9, 147840, Note_off_c, 6, 49, 64
9, 147840, Note_on_c, 6, 44, 102
9, 147844, Note_off_c, 6, 56, 64
9, 147848, Note_off_c, 6, 61, 64
9, 147848, Note_on_c, 6, 51, 102
9, 147852, Note_off_c, 6, 65, 64
9, 147856, Note_on_c, 6, 56, 102
9, 148320, Note_off_c, 6, 44, 64
9, 148328, Note_off_c, 6, 51, 64
9, 148336, Note_off_c, 6, 56, 64
9, 148560, Note_on_c, 6, 44, 102
9, 148568, Note_on_c, 6, 51, 102
9, 148576, Note_on_c, 6, 56, 102
9, 149280, Note_off_c, 6, 56, 64
9, 149280, Note_off_c, 6, 51, 64
9, 149280, Note_off_c, 6, 44, 64
9, 149280, Note_on_c, 6, 46, 102
9, 149288, Note_on_c, 6, 53, 102
9, 149296, Note_on_c, 6, 58, 102
9, 149508, Note_off_c, 6, 58, 64
9, 149520, Note_off_c, 6, 53, 64
9, 149520, Note_off_c, 6, 46, 64
9, 149520, Note_on_c, 6, 46, 102
9, 149528, Note_on_c, 6, 53, 102
9, 149536, Note_on_c, 6, 58, 102
9, 149748, Note_off_c, 6, 46, 64
9, 149760, Note_off_c, 6, 53, 64
9, 149760, Note_off_c, 6, 58, 64
9, 149760, Note_on_c, 6, 47, 102
9, 149768, Note_on_c, 6, 54, 102
9, 149776, Note_on_c, 6, 59, 102
9, 150240, Note_off_c, 6, 47, 64
9, 150248, Note_off_c, 6, 54, 64
9, 150256, Note_off_c, 6, 59, 64
9, 150480, Note_on_c, 6, 47, 102
9, 150488, Note_on_c, 6, 54, 102
9, 150496, Note_on_c, 6, 59, 102
9, 151680, Note_off_c, 6, 47, 64
9, 151680, Note_on_c, 6, 49, 102
9, 151688, Note_off_c, 6, 54, 64
9, 151688, Note_on_c, 6, 56, 102
9, 151696, Note_off_c, 6, 59, 64
9, 151696, Note_on_c, 6, 61, 102
9, 153600, Note_off_c, 6, 49, 64
9, 153600, Note_on_c, 6, 49, 81
9, 153608, Note_off_c, 6, 56, 64
9, 153608, Note_on_c, 6, 56, 81
9, 153616, Note_off_c, 6, 61, 64
9, 153616, Note_on_c, 6, 61, 81
9, 154320, Note_off_c, 6, 49, 64
9, 154320, Note_on_c, 6, 49, 81
9, 154328, Note_off_c, 6, 56, 64
9, 154328, Note_on_c, 6, 56, 81
9, 154336, Note_off_c, 6, 61, 64
9, 154336, Note_on_c, 6, 61, 81
9, 154560, Note_off_c, 6, 49, 64
9, 154560, Note_on_c, 6, 49, 81
9, 154568, Note_off_c, 6, 56, 64
9, 154568, Note_on_c, 6, 56, 81
9, 154576, Note_off_c, 6, 61, 64
9, 154576, Note_on_c, 6, 61, 81
9, 155040, Note_off_c, 6, 49, 64
9, 155040, Note_on_c, 6, 49, 81
9, 155048, Note_off_c, 6, 56, 64
9, 155048, Note_on_c, 6, 56, 81
9, 155056, Note_off_c, 6, 61, 64
9, 155056, Note_on_c, 6, 61, 81
9, 155520, Note_off_c, 6, 49, 64
9, 155520, Note_on_c, 6, 49, 95
9, 155528, Note_off_c, 6, 56, 64
9, 155528, Note_on_c, 6, 56, 95
9, 155536, Note_off_c, 6, 61, 64
9, 155536, Note_on_c, 6, 61, 95
9, 155544, Note_on_c, 6, 65, 95
9, 156240, Note_off_c, 6, 65, 64
9, 156240, Note_off_c, 6, 49, 64
9, 156240, Note_off_c, 6, 56, 64
9, 156240, Note_off_c, 6, 61, 64
9, 156240, Note_on_c, 6, 49, 83
9, 156248, Note_on_c, 6, 56, 83
9, 156256, Note_on_c, 6, 61, 83
9, 156264, Note_on_c, 6, 65, 83
9, 156480, Note_off_c, 6, 49, 64
9, 156480, Note_on_c, 6, 49, 95
9, 156488, Note_off_c, 6, 56, 64
9, 156488, Note_on_c, 6, 56, 95
9, 156496, Note_off_c, 6, 61, 64
9, 156496, Note_on_c, 6, 61, 95
9, 156504, Note_off_c, 6, 65, 64
9, 156504, Note_on_c, 6, 65, 95
9, 157200, Note_off_c, 6, 49, 64
9, 157200, Note_on_c, 6, 49, 95
9, 157208, Note_off_c, 6, 56, 64
9, 157208, Note_on_c, 6, 56, 95
9, 157216, Note_off_c, 6, 61, 64
9, 157216, Note_on_c, 6, 61, 95
9, 157224, Note_off_c, 6, 65, 64
9, 157224, Note_on_c, 6, 65, 95
9, 157440, Note_off_c, 6, 49, 64
9, 157440, Note_on_c, 6, 49, 95
9, 157448, Note_off_c, 6, 56, 64
9, 157448, Note_on_c, 6, 56, 95
9, 157456, Note_off_c, 6, 61, 64
9, 157456, Note_on_c, 6, 61, 95
9, 157464, Note_off_c, 6, 65, 64
9, 157464, Note_on_c, 6, 65, 95
9, 158160, Note_off_c, 6, 49, 64
9, 158160, Note_off_c, 6, 56, 64
9, 158160, Note_off_c, 6, 61, 64
9, 158160, Note_off_c, 6, 65, 64
9, 158160, Note_on_c, 6, 65, 70
9, 158400, Note_off_c, 6, 65, 64
9, 158400, Note_on_c, 6, 66, 70
9, 158640, Note_off_c, 6, 66, 64
9, 158640, Note_on_c, 6, 65, 70
9, 158880, Note_off_c, 6, 65, 64
9, 158880, Note_on_c, 6, 63, 70
9, 159360, Note_off_c, 6, 63, 64
9, 159360, Note_on_c, 6, 47, 95
9, 159368, Note_on_c, 6, 51, 95
9, 159376, Note_on_c, 6, 54, 95
9, 159384, Note_on_c, 6, 59, 95
9, 159392, Note_on_c, 6, 63, 95
9, 160080, Note_off_c, 6, 63, 64
9, 160080, Note_off_c, 6, 59, 64
9, 160080, Note_off_c, 6, 54, 64
9, 160080, Note_off_c, 6, 51, 64
9, 160080, Note_off_c, 6, 47, 64
9, 160080, Note_on_c, 6, 47, 95
9, 160088, Note_on_c, 6, 51, 95
9, 160096, Note_on_c, 6, 54, 95
9, 160104, Note_on_c, 6, 59, 95
9, 160112, Note_on_c, 6, 63, 95
9, 160320, Note_off_c, 6, 63, 64
9, 160320, Note_off_c, 6, 59, 64
9, 160320, Note_off_c, 6, 54, 64
9, 160320, Note_off_c, 6, 51, 64
9, 160320, Note_off_c, 6, 47, 64
9, 160320, Note_on_c, 6, 47, 95
9, 160328, Note_on_c, 6, 51, 95
9, 160336, Note_on_c, 6, 54, 95
9, 160344, Note_on_c, 6, 59, 95
9, 160352, Note_on_c, 6, 63, 95
9, 161040, Note_off_c, 6, 47, 64
9, 161040, Note_on_c, 6, 47, 95
9, 161048, Note_off_c, 6, 51, 64
9, 161048, Note_on_c, 6, 51, 95
9, 161056, Note_off_c, 6, 54, 64
9, 161056, Note_on_c, 6, 54, 95
9, 161064, Note_off_c, 6, 59, 64
9, 161064, Note_on_c, 6, 59, 95
9, 161072, Note_off_c, 6, 63, 64
9, 161072, Note_on_c, 6, 63, 95
9, 161280, Note_off_c, 6, 47, 64
9, 161280, Note_on_c, 6, 47, 95
9, 161288, Note_off_c, 6, 51, 64
9, 161288, Note_on_c, 6, 51, 95
9, 161296, Note_off_c, 6, 54, 64
9, 161296, Note_on_c, 6, 54, 95
9, 161304, Note_off_c, 6, 59, 64
9, 161304, Note_on_c, 6, 59, 95
9, 161312, Note_off_c, 6, 63, 64
9, 161312, Note_on_c, 6, 63, 95
9, 162000, Note_off_c, 6, 47, 64
9, 162000, Note_off_c, 6, 51, 64
9, 162000, Note_off_c, 6, 54, 64
9, 162000, Note_off_c, 6, 59, 64
9, 162000, Note_off_c, 6, 63, 64
9, 162000, Note_on_c, 6, 63, 95
9, 162240, Note_off_c, 6, 63, 64
9, 162240, Note_on_c, 6, 66, 95
9, 162480, Note_off_c, 6, 66, 64
9, 162480, Note_on_c, 6, 65, 95
9, 162720, Note_off_c, 6, 65, 64
9, 162720, Note_on_c, 6, 63, 95
9, 163200, Note_off_c, 6, 63, 64
9, 163200, Note_on_c, 6, 42, 95
9, 163208, Note_on_c, 6, 46, 95
9, 163216, Note_on_c, 6, 49, 95
9, 163224, Note_on_c, 6, 54, 95
9, 163232, Note_on_c, 6, 61, 95
9, 163920, Note_off_c, 6, 54, 64
9, 163920, Note_off_c, 6, 49, 64
9, 163920, Note_off_c, 6, 46, 64
9, 163920, Note_off_c, 6, 42, 64
9, 163920, Note_on_c, 6, 42, 95
9, 163928, Note_on_c, 6, 46, 95
9, 163936, Note_on_c, 6, 49, 95
9, 163944, Note_on_c, 6, 54, 95
9, 163952, Note_off_c, 6, 61, 64
9, 163952, Note_on_c, 6, 61, 95
9, 164160, Note_off_c, 6, 42, 64
9, 164160, Note_off_c, 6, 46, 64
9, 164160, Note_off_c, 6, 49, 64
9, 164160, Note_off_c, 6, 54, 64
9, 164160, Note_on_c, 6, 42, 95
9, 164168, Note_on_c, 6, 46, 95
9, 164176, Note_on_c, 6, 49, 95
9, 164184, Note_on_c, 6, 54, 95
9, 164192, Note_off_c, 6, 61, 64
9, 164192, Note_on_c, 6, 61, 95
9, 164880, Note_off_c, 6, 42, 64
9, 164880, Note_off_c, 6, 46, 64
9, 164880, Note_off_c, 6, 49, 64
9, 164880, Note_off_c, 6, 54, 64
9, 164880, Note_on_c, 6, 42, 95
9, 164888, Note_on_c, 6, 46, 95
9, 164896, Note_on_c, 6, 49, 95
9, 164904, Note_on_c, 6, 54, 95
9, 164912, Note_off_c, 6, 61, 64
9, 164912, Note_on_c, 6, 61, 95
9, 165120, Note_off_c, 6, 42, 64
9, 165120, Note_on_c, 6, 42, 95
9, 165128, Note_off_c, 6, 46, 64
9, 165128, Note_on_c, 6, 46, 95
9, 165136, Note_off_c, 6, 49, 64
9, 165136, Note_on_c, 6, 49, 95
9, 165144, Note_off_c, 6, 54, 64
9, 165144, Note_on_c, 6, 54, 95
9, 165152, Note_off_c, 6, 61, 64
9, 165152, Note_on_c, 6, 61, 95
9, 165840, Note_off_c, 6, 42, 64
9, 165840, Note_on_c, 6, 61, 83
9, 165848, Note_off_c, 6, 46, 64
9, 165856, Note_off_c, 6, 49, 64
9, 165864, Note_off_c, 6, 54, 64
9, 165872, Note_off_c, 6, 61, 64
9, 166080, Note_off_c, 6, 61, 64
9, 166080, Note_on_c, 6, 66, 83
9, 166320, Note_off_c, 6, 66, 64
9, 166320, Note_on_c, 6, 65, 83
9, 166560, Note_off_c, 6, 65, 64
9, 166560, Note_on_c, 6, 63, 83
9, 167040, Note_off_c, 6, 63, 64
9, 167040, Note_on_c, 6, 49, 95
9, 167048, Note_on_c, 6, 56, 95
9, 167056, Note_on_c, 6, 61, 95
9, 167064, Note_on_c, 6, 65, 83
9, 167760, Note_off_c, 6, 49, 64
9, 167760, Note_on_c, 6, 49, 95
9, 167768, Note_off_c, 6, 56, 64
9, 167768, Note_on_c, 6, 56, 95
9, 167776, Note_off_c, 6, 61, 64
9, 167776, Note_on_c, 6, 61, 95
9, 167784, Note_off_c, 6, 65, 64
9, 167784, Note_on_c, 6, 65, 83
9, 168000, Note_off_c, 6, 49, 64
9, 168000, Note_on_c, 6, 49, 95
9, 168008, Note_on_c, 6, 56, 95
9, 168016, Note_on_c, 6, 61, 95
9, 168024, Note_on_c, 6, 65, 83
9, 168488, Note_off_c, 6, 56, 64
9, 168496, Note_off_c, 6, 61, 64
9, 168504, Note_off_c, 6, 65, 64
9, 168720, Note_off_c, 6, 49, 64
9, 168720, Note_on_c, 6, 49, 95
9, 168728, Note_off_c, 6, 56, 64
9, 168728, Note_on_c, 6, 56, 95
9, 168736, Note_off_c, 6, 61, 64
9, 168736, Note_on_c, 6, 61, 95
9, 168744, Note_off_c, 6, 65, 64
9, 168744, Note_on_c, 6, 65, 83
9, 168960, Note_off_c, 6, 49, 64
9, 168960, Note_on_c, 6, 49, 95
9, 168968, Note_on_c, 6, 56, 95
9, 168976, Note_on_c, 6, 61, 95
9, 168984, Note_on_c, 6, 65, 83
9, 169448, Note_off_c, 6, 56, 64
9, 169456, Note_off_c, 6, 61, 64
9, 169464, Note_off_c, 6, 65, 64
9, 169680, Note_off_c, 6, 49, 64
9, 169680, Note_on_c, 6, 49, 95
9, 169688, Note_off_c, 6, 56, 64
9, 169688, Note_on_c, 6, 56, 95
9, 169696, Note_off_c, 6, 61, 64
9, 169696, Note_on_c, 6, 61, 95
9, 169704, Note_off_c, 6, 65, 64
9, 169704, Note_on_c, 6, 65, 83
9, 169920, Note_off_c, 6, 49, 64
9, 169920, Note_on_c, 6, 49, 95
9, 169928, Note_on_c, 6, 56, 95
9, 169936, Note_on_c, 6, 61, 95
9, 169944, Note_on_c, 6, 65, 83
9, 170408, Note_off_c, 6, 56, 64
9, 170416, Note_off_c, 6, 61, 64
9, 170424, Note_off_c, 6, 65, 64
9, 170640, Note_off_c, 6, 49, 64
9, 170640, Note_on_c, 6, 49, 95
9, 170648, Note_off_c, 6, 56, 64
9, 170648, Note_on_c, 6, 56, 95
9, 170656, Note_off_c, 6, 61, 64
9, 170656, Note_on_c, 6, 61, 95
9, 170664, Note_off_c, 6, 65, 64
9, 170664, Note_on_c, 6, 65, 83
9, 170880, Note_off_c, 6, 49, 64
9, 170880, Note_on_c, 6, 49, 95
9, 170888, Note_off_c, 6, 56, 64
9, 170888, Note_on_c, 6, 56, 95
9, 170896, Note_off_c, 6, 61, 64
9, 170896, Note_on_c, 6, 61, 95
9, 170904, Note_off_c, 6, 65, 64
9, 170904, Note_on_c, 6, 65, 95
9, 171600, Note_off_c, 6, 49, 64
9, 171600, Note_off_c, 6, 56, 64
9, 171600, Note_off_c, 6, 61, 64
9, 171600, Note_off_c, 6, 65, 64
9, 171600, Note_on_c, 6, 49, 83
9, 171608, Note_on_c, 6, 56, 83
9, 171616, Note_on_c, 6, 61, 83
9, 171624, Note_on_c, 6, 65, 83
9, 171840, Note_off_c, 6, 49, 64
9, 171840, Note_on_c, 6, 49, 95
9, 171848, Note_off_c, 6, 56, 64
9, 171848, Note_on_c, 6, 56, 95
9, 171856, Note_off_c, 6, 61, 64
9, 171856, Note_on_c, 6, 61, 95
9, 171864, Note_off_c, 6, 65, 64
9, 171864, Note_on_c, 6, 65, 95
9, 172560, Note_off_c, 6, 49, 64
9, 172560, Note_on_c, 6, 49, 95
9, 172568, Note_off_c, 6, 56, 64
9, 172568, Note_on_c, 6, 56, 95
9, 172576, Note_off_c, 6, 61, 64
9, 172576, Note_on_c, 6, 61, 95
9, 172584, Note_off_c, 6, 65, 64
9, 172584, Note_on_c, 6, 65, 95
9, 172800, Note_off_c, 6, 49, 64
9, 172800, Note_on_c, 6, 49, 95
9, 172808, Note_off_c, 6, 56, 64
9, 172808, Note_on_c, 6, 56, 95
9, 172816, Note_off_c, 6, 61, 64
9, 172816, Note_on_c, 6, 61, 95
9, 172824, Note_off_c, 6, 65, 64
9, 172824, Note_on_c, 6, 65, 95
9, 173520, Note_off_c, 6, 49, 64
9, 173520, Note_off_c, 6, 56, 64
9, 173520, Note_off_c, 6, 61, 64
9, 173520, Note_off_c, 6, 65, 64
9, 173520, Note_on_c, 6, 65, 70
9, 173760, Note_off_c, 6, 65, 64
9, 173760, Note_on_c, 6, 66, 70
9, 174000, Note_off_c, 6, 66, 64
9, 174000, Note_on_c, 6, 65, 70
9, 174240, Note_off_c, 6, 65, 64
9, 174240, Note_on_c, 6, 63, 70
9, 174720, Note_off_c, 6, 63, 64
9, 174720, Note_on_c, 6, 47, 95
9, 174728, Note_on_c, 6, 51, 95
9, 174736, Note_on_c, 6, 54, 95
9, 174744, Note_on_c, 6, 59, 95
9, 174752, Note_on_c, 6, 63, 95
9, 175440, Note_off_c, 6, 63, 64
9, 175440, Note_off_c, 6, 59, 64
9, 175440, Note_off_c, 6, 54, 64
9, 175440, Note_off_c, 6, 51, 64
9, 175440, Note_off_c, 6, 47, 64
9, 175440, Note_on_c, 6, 47, 95
9, 175448, Note_on_c, 6, 51, 95
9, 175456, Note_on_c, 6, 54, 95
9, 175464, Note_on_c, 6, 59, 95
9, 175472, Note_on_c, 6, 63, 95
9, 175680, Note_off_c, 6, 63, 64
9, 175680, Note_off_c, 6, 59, 64
9, 175680, Note_off_c, 6, 54, 64
9, 175680, Note_off_c, 6, 51, 64
9, 175680, Note_off_c, 6, 47, 64
9, 175680, Note_on_c, 6, 47, 95
9, 175688, Note_on_c, 6, 51, 95
9, 175696, Note_on_c, 6, 54, 95
9, 175704, Note_on_c, 6, 59, 95
9, 175712, Note_on_c, 6, 63, 95
9, 176400, Note_off_c, 6, 47, 64
9, 176400, Note_on_c, 6, 47, 95
9, 176408, Note_off_c, 6, 51, 64
9, 176408, Note_on_c, 6, 51, 95
9, 176416, Note_off_c, 6, 54, 64
9, 176416, Note_on_c, 6, 54, 95
9, 176424, Note_off_c, 6, 59, 64
9, 176424, Note_on_c, 6, 59, 95
9, 176432, Note_off_c, 6, 63, 64
9, 176432, Note_on_c, 6, 63, 95
9, 176640, Note_off_c, 6, 47, 64
9, 176640, Note_on_c, 6, 47, 95
9, 176648, Note_off_c, 6, 51, 64
9, 176648, Note_on_c, 6, 51, 95
9, 176656, Note_off_c, 6, 54, 64
9, 176656, Note_on_c, 6, 54, 95
9, 176664, Note_off_c, 6, 59, 64
9, 176664, Note_on_c, 6, 59, 95
9, 176672, Note_off_c, 6, 63, 64
9, 176672, Note_on_c, 6, 63, 95
9, 177360, Note_off_c, 6, 47, 64
9, 177360, Note_off_c, 6, 51, 64
9, 177360, Note_off_c, 6, 54, 64
9, 177360, Note_off_c, 6, 59, 64
9, 177360, Note_off_c, 6, 63, 64
9, 177360, Note_on_c, 6, 63, 95
9, 177600, Note_off_c, 6, 63, 64
9, 177600, Note_on_c, 6, 66, 95
9, 177840, Note_off_c, 6, 66, 64
9, 177840, Note_on_c, 6, 65, 95
9, 178080, Note_off_c, 6, 65, 64
9, 178080, Note_on_c, 6, 63, 95
9, 178560, Note_off_c, 6, 63, 64
9, 178560, Note_on_c, 6, 42, 95
9, 178568, Note_on_c, 6, 46, 95
9, 178576, Note_on_c, 6, 49, 95
9, 178584, Note_on_c, 6, 54, 95
9, 178592, Note_on_c, 6, 61, 95
9, 179280, Note_off_c, 6, 54, 64
9, 179280, Note_off_c, 6, 49, 64
9, 179280, Note_off_c, 6, 46, 64
9, 179280, Note_off_c, 6, 42, 64
9, 179280, Note_on_c, 6, 42, 95
9, 179288, Note_on_c, 6, 46, 95
9, 179296, Note_on_c, 6, 49, 95
9, 179304, Note_on_c, 6, 54, 95
9, 179312, Note_off_c, 6, 61, 64
9, 179312, Note_on_c, 6, 61, 95
9, 179520, Note_off_c, 6, 42, 64
9, 179520, Note_off_c, 6, 46, 64
9, 179520, Note_off_c, 6, 49, 64
9, 179520, Note_off_c, 6, 54, 64
9, 179520, Note_on_c, 6, 42, 95
9, 179528, Note_on_c, 6, 46, 95
9, 179536, Note_on_c, 6, 49, 95
9, 179544, Note_on_c, 6, 54, 95
9, 179552, Note_off_c, 6, 61, 64
9, 179552, Note_on_c, 6, 61, 95
9, 180240, Note_off_c, 6, 42, 64
9, 180240, Note_off_c, 6, 46, 64
9, 180240, Note_off_c, 6, 49, 64
9, 180240, Note_off_c, 6, 54, 64
9, 180240, Note_on_c, 6, 42, 95
9, 180248, Note_on_c, 6, 46, 95
9, 180256, Note_on_c, 6, 49, 95
9, 180264, Note_on_c, 6, 54, 95
9, 180272, Note_off_c, 6, 61, 64
9, 180272, Note_on_c, 6, 61, 95
9, 180480, Note_off_c, 6, 42, 64
9, 180480, Note_on_c, 6, 42, 95
9, 180488, Note_off_c, 6, 46, 64
9, 180488, Note_on_c, 6, 46, 95
9, 180496, Note_off_c, 6, 49, 64
9, 180496, Note_on_c, 6, 49, 95
9, 180504, Note_off_c, 6, 54, 64
9, 180504, Note_on_c, 6, 54, 95
9, 180512, Note_off_c, 6, 61, 64
9, 180512, Note_on_c, 6, 61, 95
9, 181200, Note_off_c, 6, 42, 64
9, 181200, Note_on_c, 6, 61, 83
9, 181208, Note_off_c, 6, 46, 64
9, 181216, Note_off_c, 6, 49, 64
9, 181224, Note_off_c, 6, 54, 64
9, 181232, Note_off_c, 6, 61, 64
9, 181440, Note_off_c, 6, 61, 64
9, 181440, Note_on_c, 6, 66, 83
9, 181680, Note_off_c, 6, 66, 64
9, 181680, Note_on_c, 6, 65, 83
9, 181920, Note_off_c, 6, 65, 64
9, 181920, Note_on_c, 6, 63, 83
9, 182400, Note_off_c, 6, 63, 64
9, 182400, Note_on_c, 6, 49, 95
9, 182408, Note_on_c, 6, 56, 95
9, 182416, Note_on_c, 6, 61, 95
9, 182424, Note_on_c, 6, 65, 83
9, 183120, Note_off_c, 6, 49, 64
9, 183120, Note_on_c, 6, 49, 95
9, 183128, Note_off_c, 6, 56, 64
9, 183128, Note_on_c, 6, 56, 95
9, 183136, Note_off_c, 6, 61, 64
9, 183136, Note_on_c, 6, 61, 95
9, 183144, Note_off_c, 6, 65, 64
9, 183144, Note_on_c, 6, 65, 83
9, 183360, Note_off_c, 6, 49, 64
9, 183360, Note_on_c, 6, 49, 95
9, 183368, Note_on_c, 6, 56, 95
9, 183376, Note_on_c, 6, 61, 95
9, 183384, Note_on_c, 6, 65, 83
9, 183848, Note_off_c, 6, 56, 64
9, 183856, Note_off_c, 6, 61, 64
9, 183864, Note_off_c, 6, 65, 64
9, 184080, Note_off_c, 6, 49, 64
9, 184080, Note_on_c, 6, 49, 95
9, 184088, Note_off_c, 6, 56, 64
9, 184088, Note_on_c, 6, 56, 95
9, 184096, Note_off_c, 6, 61, 64
9, 184096, Note_on_c, 6, 61, 95
9, 184104, Note_off_c, 6, 65, 64
9, 184104, Note_on_c, 6, 65, 83
9, 184320, Note_off_c, 6, 49, 64
9, 184320, Control_c, 6, 11, 127
9, 184320, Note_on_c, 6, 49, 89
9, 184324, Note_on_c, 6, 56, 89
9, 184328, Note_on_c, 6, 61, 89
9, 184332, Note_on_c, 6, 66, 89
9, 184560, Note_off_c, 6, 66, 64
9, 184560, Note_off_c, 6, 49, 64
9, 184560, Note_off_c, 6, 56, 64
9, 184560, Note_off_c, 6, 61, 64
9, 184560, Note_on_c, 6, 49, 89
9, 184564, Note_on_c, 6, 56, 89
9, 184568, Note_on_c, 6, 61, 89
9, 184572, Note_on_c, 6, 65, 89
9, 184800, Note_off_c, 6, 61, 64
9, 184800, Note_off_c, 6, 65, 64
9, 184800, Note_off_c, 6, 56, 64
9, 184800, Note_off_c, 6, 49, 64
9, 184800, Note_on_c, 6, 49, 89
9, 184804, Note_on_c, 6, 56, 89
9, 184808, Note_off_c, 6, 56, 64
9, 184808, Note_on_c, 6, 61, 89
9, 184812, Note_on_c, 6, 63, 89
9, 184816, Note_off_c, 6, 61, 64
9, 184824, Note_off_c, 6, 65, 64
9, 185040, Note_off_c, 6, 49, 64
9, 185040, Note_off_c, 6, 56, 64
9, 185040, Note_off_c, 6, 61, 64
9, 185040, Note_on_c, 6, 49, 89
9, 185044, Note_on_c, 6, 56, 89
9, 185048, Note_on_c, 6, 61, 89
9, 185052, Note_off_c, 6, 63, 64
9, 185052, Note_on_c, 6, 65, 89
9, 186240, Note_off_c, 6, 49, 64
9, 186240, Note_on_c, 6, 44, 102
9, 186244, Note_off_c, 6, 56, 64
9, 186248, Note_off_c, 6, 61, 64
9, 186248, Note_on_c, 6, 51, 102
9, 186252, Note_off_c, 6, 65, 64
9, 186256, Note_on_c, 6, 56, 102
9, 186720, Note_off_c, 6, 44, 64
9, 186728, Note_off_c, 6, 51, 64
9, 186736, Note_off_c, 6, 56, 64
9, 186960, Note_on_c, 6, 44, 102
9, 186968, Note_on_c, 6, 51, 102
9, 186976, Note_on_c, 6, 56, 102
9, 187680, Note_off_c, 6, 56, 64
9, 187680, Note_off_c, 6, 51, 64
9, 187680, Note_off_c, 6, 44, 64
9, 187680, Note_on_c, 6, 46, 102
9, 187688, Note_on_c, 6, 53, 102
9, 187696, Note_on_c, 6, 58, 102
9, 187908, Note_off_c, 6, 58, 64
9, 187920, Note_off_c, 6, 53, 64
9, 187920, Note_off_c, 6, 46, 64
9, 187920, Note_on_c, 6, 46, 102
9, 187928, Note_on_c, 6, 53, 102
9, 187936, Note_on_c, 6, 58, 102
9, 188148, Note_off_c, 6, 46, 64
9, 188160, Note_off_c, 6, 53, 64
9, 188160, Note_off_c, 6, 58, 64
9, 188160, Note_on_c, 6, 47, 102
9, 188168, Note_on_c, 6, 54, 102
9, 188176, Note_on_c, 6, 59, 102
9, 188640, Note_off_c, 6, 47, 64
9, 188648, Note_off_c, 6, 54, 64
9, 188656, Note_off_c, 6, 59, 64
9, 188880, Note_on_c, 6, 47, 102
9, 188888, Note_on_c, 6, 54, 102
9, 188896, Note_on_c, 6, 59, 102
9, 190080, Note_off_c, 6, 47, 64
9, 190080, Note_on_c, 6, 49, 102
9, 190084, Note_on_c, 6, 56, 102
9, 190088, Note_off_c, 6, 54, 64
9, 190088, Note_on_c, 6, 61, 102
9, 190092, Note_on_c, 6, 65, 70
9, 190096, Note_off_c, 6, 59, 64
9, 190560, Note_off_c, 6, 49, 64
9, 190560, Note_on_c, 6, 49, 102
9, 190564, Note_off_c, 6, 56, 64
9, 190564, Note_on_c, 6, 56, 102
9, 190568, Note_off_c, 6, 61, 64
9, 190568, Note_on_c, 6, 61, 102
9, 190572, Note_off_c, 6, 65, 64
9, 190572, Note_on_c, 6, 65, 70
9, 190800, Note_off_c, 6, 49, 64
9, 190800, Note_on_c, 6, 49, 102
9, 190804, Note_off_c, 6, 56, 64
9, 190804, Note_on_c, 6, 56, 102
9, 190808, Note_off_c, 6, 61, 64
9, 190808, Note_on_c, 6, 61, 102
9, 190812, Note_off_c, 6, 65, 64
9, 190812, Note_on_c, 6, 65, 70
9, 191760, Note_off_c, 6, 49, 64
9, 191760, Note_on_c, 6, 49, 102
9, 191764, Note_off_c, 6, 56, 64
9, 191764, Note_on_c, 6, 56, 102
9, 191768, Note_off_c, 6, 61, 64
9, 191768, Note_on_c, 6, 61, 102
9, 191772, Note_off_c, 6, 65, 64
9, 191772, Note_on_c, 6, 65, 70
9, 191880, Note_off_c, 6, 49, 64
9, 191880, Note_on_c, 6, 49, 102
9, 191884, Note_off_c, 6, 56, 64
9, 191884, Note_on_c, 6, 56, 102
9, 191888, Note_off_c, 6, 61, 64
9, 191888, Note_on_c, 6, 61, 102
9, 191892, Note_off_c, 6, 65, 64
9, 191892, Note_on_c, 6, 65, 70
9, 192000, Note_off_c, 6, 49, 64
9, 192000, Note_on_c, 6, 49, 98
9, 192004, Note_off_c, 6, 56, 64
9, 192004, Note_on_c, 6, 56, 98
9, 192008, Note_off_c, 6, 61, 64
9, 192008, Note_on_c, 6, 61, 98
9, 192012, Note_off_c, 6, 65, 64
9, 192012, Note_on_c, 6, 66, 98
9, 192240, Note_off_c, 6, 49, 64
9, 192240, Note_off_c, 6, 56, 64
9, 192240, Note_off_c, 6, 61, 64
9, 192240, Note_off_c, 6, 66, 64
9, 192240, Note_on_c, 6, 49, 98
9, 192244, Note_on_c, 6, 56, 98
9, 192248, Note_on_c, 6, 61, 98
9, 192252, Note_on_c, 6, 65, 98
9, 192480, Note_off_c, 6, 65, 64
9, 192480, Note_off_c, 6, 61, 64
9, 192480, Note_off_c, 6, 56, 64
9, 192480, Note_off_c, 6, 49, 64
9, 192480, Note_on_c, 6, 49, 98
9, 192484, Note_on_c, 6, 56, 98
9, 192488, Note_on_c, 6, 61, 98
9, 192492, Note_on_c, 6, 63, 98
9, 192720, Note_off_c, 6, 61, 64
9, 192720, Note_off_c, 6, 56, 64
9, 192720, Note_off_c, 6, 49, 64
9, 192720, Note_on_c, 6, 49, 98
9, 192724, Note_on_c, 6, 56, 98
9, 192728, Note_on_c, 6, 61, 98
9, 192732, Note_off_c, 6, 63, 64
9, 192732, Note_on_c, 6, 65, 98
9, 193200, Note_off_c, 6, 49, 64
9, 193200, Note_on_c, 6, 49, 102
9, 193204, Note_off_c, 6, 56, 64
9, 193204, Note_on_c, 6, 56, 102
9, 193208, Note_off_c, 6, 61, 64
9, 193208, Note_on_c, 6, 61, 102
9, 193212, Note_off_c, 6, 65, 64
9, 193212, Note_on_c, 6, 65, 70
9, 193440, Note_off_c, 6, 49, 64
9, 193440, Note_on_c, 6, 49, 102
9, 193444, Note_off_c, 6, 56, 64
9, 193444, Note_on_c, 6, 56, 102
9, 193448, Note_off_c, 6, 61, 64
9, 193448, Note_on_c, 6, 61, 102
9, 193452, Note_off_c, 6, 65, 64
9, 193452, Note_on_c, 6, 65, 70
9, 193680, Note_off_c, 6, 49, 64
9, 193680, Note_on_c, 6, 49, 102
9, 193684, Note_off_c, 6, 56, 64
9, 193684, Note_on_c, 6, 56, 102
9, 193688, Note_off_c, 6, 61, 64
9, 193688, Note_on_c, 6, 61, 102
9, 193692, Note_off_c, 6, 65, 64
9, 193692, Note_on_c, 6, 65, 70
9, 193920, Note_off_c, 6, 49, 64
9, 193920, Note_on_c, 6, 44, 102
9, 193924, Note_off_c, 6, 56, 64
9, 193928, Note_off_c, 6, 61, 64
9, 193928, Note_on_c, 6, 51, 102
9, 193932, Note_off_c, 6, 65, 64
9, 193936, Note_on_c, 6, 56, 102
9, 194400, Note_off_c, 6, 44, 64
9, 194408, Note_off_c, 6, 51, 64
9, 194416, Note_off_c, 6, 56, 64
9, 194640, Note_on_c, 6, 44, 102
9, 194648, Note_on_c, 6, 51, 102
9, 194656, Note_on_c, 6, 56, 102
9, 195360, Note_off_c, 6, 56, 64
9, 195360, Note_off_c, 6, 51, 64
9, 195360, Note_off_c, 6, 44, 64
9, 195360, Note_on_c, 6, 46, 102
9, 195368, Note_on_c, 6, 53, 102
9, 195376, Note_on_c, 6, 58, 102
9, 195588, Note_off_c, 6, 58, 64
9, 195600, Note_off_c, 6, 53, 64
9, 195600, Note_off_c, 6, 46, 64
9, 195600, Note_on_c, 6, 46, 102
9, 195608, Note_on_c, 6, 53, 102
9, 195616, Note_on_c, 6, 58, 102
9, 195828, Note_off_c, 6, 46, 64
9, 195840, Note_off_c, 6, 53, 64
9, 195840, Note_off_c, 6, 58, 64
9, 195840, Note_on_c, 6, 47, 102
9, 195848, Note_on_c, 6, 54, 102
9, 195856, Note_on_c, 6, 59, 102
9, 196320, Note_off_c, 6, 47, 64
9, 196328, Note_off_c, 6, 54, 64
9, 196336, Note_off_c, 6, 59, 64
9, 196560, Note_on_c, 6, 47, 102
9, 196568, Note_on_c, 6, 54, 102
9, 196576, Note_on_c, 6, 59, 102
9, 197760, Note_off_c, 6, 47, 64
9, 197760, Note_on_c, 6, 49, 102
9, 197764, Note_on_c, 6, 56, 102
9, 197768, Note_off_c, 6, 54, 64
9, 197768, Note_on_c, 6, 61, 102
9, 197772, Note_on_c, 6, 65, 70
9, 197776, Note_off_c, 6, 59, 64
9, 199680, Note_off_c, 6, 49, 64
9, 199680, Note_on_c, 6, 49, 102
9, 199684, Note_off_c, 6, 56, 64
9, 199684, Note_on_c, 6, 56, 102
9, 199688, Note_off_c, 6, 61, 64
9, 199688, Note_on_c, 6, 61, 102
9, 199692, Note_off_c, 6, 65, 64
9, 199692, Note_on_c, 6, 65, 70
9, 200000, Note_off_c, 6, 49, 64
9, 200000, Note_on_c, 6, 49, 102
9, 200004, Note_off_c, 6, 56, 64
9, 200004, Note_on_c, 6, 56, 102
9, 200008, Note_off_c, 6, 61, 64
9, 200008, Note_on_c, 6, 61, 102
9, 200012, Note_off_c, 6, 65, 64
9, 200012, Note_on_c, 6, 65, 70
9, 200320, Note_off_c, 6, 49, 64
9, 200320, Note_on_c, 6, 49, 102
9, 200324, Note_off_c, 6, 56, 64
9, 200324, Note_on_c, 6, 56, 102
9, 200328, Note_off_c, 6, 61, 64
9, 200328, Note_on_c, 6, 61, 102
9, 200332, Note_off_c, 6, 65, 64
9, 200332, Note_on_c, 6, 65, 70
9, 200640, Note_off_c, 6, 49, 64
9, 200640, Note_on_c, 6, 49, 102
9, 200644, Note_off_c, 6, 56, 64
9, 200644, Note_on_c, 6, 56, 102
9, 200648, Note_off_c, 6, 61, 64
9, 200648, Note_on_c, 6, 61, 102
9, 200652, Note_off_c, 6, 65, 64
9, 200652, Note_on_c, 6, 65, 70
9, 200960, Note_off_c, 6, 49, 64
9, 200960, Note_on_c, 6, 49, 102
9, 200964, Note_off_c, 6, 56, 64
9, 200964, Note_on_c, 6, 56, 102
9, 200968, Note_off_c, 6, 61, 64
9, 200968, Note_on_c, 6, 61, 102
9, 200972, Note_off_c, 6, 65, 64
9, 200972, Note_on_c, 6, 65, 70
9, 201280, Note_off_c, 6, 49, 64
9, 201280, Note_on_c, 6, 49, 102
9, 201284, Note_off_c, 6, 56, 64
9, 201284, Note_on_c, 6, 56, 102
9, 201288, Note_off_c, 6, 61, 64
9, 201288, Note_on_c, 6, 61, 102
9, 201292, Note_off_c, 6, 65, 64
9, 201292, Note_on_c, 6, 65, 70
9, 201600, Note_off_c, 6, 49, 64
9, 201600, Note_on_c, 6, 44, 102
9, 201604, Note_off_c, 6, 56, 64
9, 201608, Note_off_c, 6, 61, 64
9, 201608, Note_on_c, 6, 51, 102
9, 201612, Note_off_c, 6, 65, 64
9, 201616, Note_on_c, 6, 56, 102
9, 202080, Note_off_c, 6, 44, 64
9, 202088, Note_off_c, 6, 51, 64
9, 202096, Note_off_c, 6, 56, 64
9, 202320, Note_on_c, 6, 44, 102
9, 202328, Note_on_c, 6, 51, 102
9, 202336, Note_on_c, 6, 56, 102
9, 203040, Note_off_c, 6, 56, 64
9, 203040, Note_off_c, 6, 51, 64
9, 203040, Note_off_c, 6, 44, 64
9, 203040, Note_on_c, 6, 46, 102
9, 203048, Note_on_c, 6, 53, 102
9, 203056, Note_on_c, 6, 58, 102
9, 203268, Note_off_c, 6, 58, 64
9, 203280, Note_off_c, 6, 53, 64
9, 203280, Note_off_c, 6, 46, 64
9, 203280, Note_on_c, 6, 46, 102
9, 203288, Note_on_c, 6, 53, 102
9, 203296, Note_on_c, 6, 58, 102
9, 203508, Note_off_c, 6, 46, 64
9, 203520, Note_off_c, 6, 53, 64
9, 203520, Note_off_c, 6, 58, 64
9, 203520, Note_on_c, 6, 47, 102
9, 203528, Note_on_c, 6, 54, 102
9, 203536, Note_on_c, 6, 59, 102
9, 204000, Note_off_c, 6, 47, 64
9, 204008, Note_off_c, 6, 54, 64
9, 204016, Note_off_c, 6, 59, 64
9, 204240, Note_on_c, 6, 47, 102
9, 204248, Note_on_c, 6, 54, 102
9, 204256, Note_on_c, 6, 59, 102
9, 205440, Note_off_c, 6, 47, 64
9, 205440, Note_on_c, 6, 49, 102
9, 205444, Note_on_c, 6, 56, 102
9, 205448, Note_off_c, 6, 54, 64
9, 205448, Note_on_c, 6, 61, 102
9, 205452, Note_on_c, 6, 65, 70
9, 205456, Note_off_c, 6, 59, 64
9, 205920, Note_off_c, 6, 49, 64
9, 205920, Note_on_c, 6, 49, 102
9, 205924, Note_off_c, 6, 56, 64
9, 205924, Note_on_c, 6, 56, 102
9, 205928, Note_off_c, 6, 61, 64
9, 205928, Note_on_c, 6, 61, 102
9, 205932, Note_off_c, 6, 65, 64
9, 205932, Note_on_c, 6, 65, 70
9, 206160, Note_off_c, 6, 49, 64
9, 206160, Note_on_c, 6, 49, 102
9, 206164, Note_off_c, 6, 56, 64
9, 206164, Note_on_c, 6, 56, 102
9, 206168, Note_off_c, 6, 61, 64
9, 206168, Note_on_c, 6, 61, 102
9, 206172, Note_off_c, 6, 65, 64
9, 206172, Note_on_c, 6, 65, 70
9, 207120, Note_off_c, 6, 49, 64
9, 207120, Note_on_c, 6, 49, 102
9, 207124, Note_off_c, 6, 56, 64
9, 207124, Note_on_c, 6, 56, 102
9, 207128, Note_off_c, 6, 61, 64
9, 207128, Note_on_c, 6, 61, 102
9, 207132, Note_off_c, 6, 65, 64
9, 207132, Note_on_c, 6, 65, 70
9, 207240, Note_off_c, 6, 49, 64
9, 207240, Note_on_c, 6, 49, 102
9, 207244, Note_off_c, 6, 56, 64
9, 207244, Note_on_c, 6, 56, 102
9, 207248, Note_off_c, 6, 61, 64
9, 207248, Note_on_c, 6, 61, 102
9, 207252, Note_off_c, 6, 65, 64
9, 207252, Note_on_c, 6, 65, 70
9, 207360, Note_off_c, 6, 49, 64
9, 207360, Note_on_c, 6, 49, 98
9, 207364, Note_off_c, 6, 56, 64
9, 207364, Note_on_c, 6, 56, 98
9, 207368, Note_off_c, 6, 61, 64
9, 207368, Note_on_c, 6, 61, 98
9, 207372, Note_off_c, 6, 65, 64
9, 207372, Note_on_c, 6, 66, 98
9, 207600, Note_off_c, 6, 49, 64
9, 207600, Note_off_c, 6, 56, 64
9, 207600, Note_off_c, 6, 61, 64
9, 207600, Note_off_c, 6, 66, 64
9, 207600, Note_on_c, 6, 49, 98
9, 207604, Note_on_c, 6, 56, 98
9, 207608, Note_on_c, 6, 61, 98
9, 207612, Note_on_c, 6, 65, 98
9, 207840, Note_off_c, 6, 65, 64
9, 207840, Note_off_c, 6, 61, 64
9, 207840, Note_off_c, 6, 56, 64
9, 207840, Note_off_c, 6, 49, 64
9, 207840, Note_on_c, 6, 49, 98
9, 207844, Note_on_c, 6, 56, 98
9, 207848, Note_on_c, 6, 61, 98
9, 207852, Note_on_c, 6, 63, 98
9, 208080, Note_off_c, 6, 61, 64
9, 208080, Note_off_c, 6, 56, 64
9, 208080, Note_off_c, 6, 49, 64
9, 208080, Note_on_c, 6, 49, 98
9, 208084, Note_on_c, 6, 56, 98
9, 208088, Note_on_c, 6, 61, 98
9, 208092, Note_off_c, 6, 63, 64
9, 208092, Note_on_c, 6, 65, 98
9, 208560, Note_off_c, 6, 49, 64
9, 208560, Note_on_c, 6, 49, 102
9, 208564, Note_off_c, 6, 56, 64
9, 208564, Note_on_c, 6, 56, 102
9, 208568, Note_off_c, 6, 61, 64
9, 208568, Note_on_c, 6, 61, 102
9, 208572, Note_off_c, 6, 65, 64
9, 208572, Note_on_c, 6, 65, 70
9, 208800, Note_off_c, 6, 49, 64
9, 208800, Note_on_c, 6, 49, 102
9, 208804, Note_off_c, 6, 56, 64
9, 208804, Note_on_c, 6, 56, 102
9, 208808, Note_off_c, 6, 61, 64
9, 208808, Note_on_c, 6, 61, 102
9, 208812, Note_off_c, 6, 65, 64
9, 208812, Note_on_c, 6, 65, 70
9, 209040, Note_off_c, 6, 49, 64
9, 209040, Note_on_c, 6, 49, 102
9, 209044, Note_off_c, 6, 56, 64
9, 209044, Note_on_c, 6, 56, 102
9, 209048, Note_off_c, 6, 61, 64
9, 209048, Note_on_c, 6, 61, 102
9, 209052, Note_off_c, 6, 65, 64
9, 209052, Note_on_c, 6, 65, 70
9, 209280, Note_off_c, 6, 49, 64
9, 209280, Note_on_c, 6, 44, 102
9, 209284, Note_off_c, 6, 56, 64
9, 209288, Note_off_c, 6, 61, 64
9, 209288, Note_on_c, 6, 51, 102
9, 209292, Note_off_c, 6, 65, 64
9, 209296, Note_on_c, 6, 56, 102
9, 209760, Note_off_c, 6, 44, 64
9, 209768, Note_off_c, 6, 51, 64
9, 209776, Note_off_c, 6, 56, 64
9, 210000, Note_on_c, 6, 44, 102
9, 210008, Note_on_c, 6, 51, 102
9, 210016, Note_on_c, 6, 56, 102
9, 210720, Note_off_c, 6, 56, 64
9, 210720, Note_off_c, 6, 51, 64
9, 210720, Note_off_c, 6, 44, 64
9, 210720, Note_on_c, 6, 46, 102
9, 210728, Note_on_c, 6, 53, 102
9, 210736, Note_on_c, 6, 58, 102
9, 210948, Note_off_c, 6, 58, 64
9, 210960, Note_off_c, 6, 53, 64
9, 210960, Note_off_c, 6, 46, 64
9, 210960, Note_on_c, 6, 46, 102
9, 210968, Note_on_c, 6, 53, 102
9, 210976, Note_on_c, 6, 58, 102
9, 211188, Note_off_c, 6, 46, 64
9, 211200, Note_off_c, 6, 53, 64
9, 211200, Note_off_c, 6, 58, 64
9, 211200, Note_on_c, 6, 47, 102
9, 211208, Note_on_c, 6, 54, 102
9, 211216, Note_on_c, 6, 59, 102
9, 211680, Note_off_c, 6, 47, 64
9, 211688, Note_off_c, 6, 54, 64
9, 211696, Note_off_c, 6, 59, 64
9, 211920, Note_on_c, 6, 47, 102
9, 211928, Note_on_c, 6, 54, 102
9, 211936, Note_on_c, 6, 59, 102
9, 213120, Note_off_c, 6, 47, 64
9, 213120, Note_on_c, 6, 49, 102
9, 213124, Control_c, 6, 11, 75
9, 213124, Note_on_c, 6, 56, 102
9, 213128, Note_off_c, 6, 54, 64
9, 213128, Note_on_c, 6, 61, 102
9, 213136, Note_off_c, 6, 59, 64
9, 213360, Note_off_c, 6, 49, 64
9, 213360, Note_on_c, 6, 49, 102
9, 213364, Note_off_c, 6, 56, 64
9, 213364, Note_on_c, 6, 56, 102
9, 213368, Note_off_c, 6, 61, 64
9, 213368, Note_on_c, 6, 61, 102
9, 213584, Control_c, 6, 11, 85
9, 213600, Note_off_c, 6, 49, 64
9, 213600, Note_on_c, 6, 49, 102
9, 213604, Note_off_c, 6, 56, 64
9, 213604, Note_on_c, 6, 56, 102
9, 213608, Note_off_c, 6, 61, 64
9, 213608, Note_on_c, 6, 61, 102
9, 213840, Note_off_c, 6, 49, 64
9, 213840, Note_on_c, 6, 49, 102
9, 213844, Note_off_c, 6, 56, 64
9, 213844, Note_on_c, 6, 56, 102
9, 213848, Note_off_c, 6, 61, 64
9, 213848, Note_on_c, 6, 61, 102
9, 214044, Control_c, 6, 11, 95
9, 214080, Note_off_c, 6, 49, 64
9, 214080, Note_on_c, 6, 49, 102
9, 214084, Note_off_c, 6, 56, 64
9, 214084, Note_on_c, 6, 56, 102
9, 214088, Note_off_c, 6, 61, 64
9, 214088, Note_on_c, 6, 61, 102
9, 214320, Note_off_c, 6, 49, 64
9, 214320, Note_on_c, 6, 49, 102
9, 214324, Note_off_c, 6, 56, 64
9, 214324, Note_on_c, 6, 56, 102
9, 214328, Note_off_c, 6, 61, 64
9, 214328, Note_on_c, 6, 61, 102
9, 214508, Control_c, 6, 11, 105
9, 214560, Note_off_c, 6, 49, 64
9, 214560, Note_on_c, 6, 49, 102
9, 214564, Note_off_c, 6, 56, 64
9, 214564, Note_on_c, 6, 56, 102
9, 214568, Note_off_c, 6, 61, 64
9, 214568, Note_on_c, 6, 61, 102
9, 214800, Note_off_c, 6, 49, 64
9, 214800, Note_on_c, 6, 49, 102
9, 214804, Note_off_c, 6, 56, 64
9, 214804, Note_on_c, 6, 56, 102
9, 214808, Note_off_c, 6, 61, 64
9, 214808, Note_on_c, 6, 61, 102
9, 214968, Control_c, 6, 11, 115
9, 215040, Note_off_c, 6, 49, 64
9, 215040, Note_on_c, 6, 49, 102
9, 215044, Note_off_c, 6, 56, 64
9, 215044, Note_on_c, 6, 56, 102
9, 215048, Note_off_c, 6, 61, 64
9, 215048, Note_on_c, 6, 61, 102
9, 215280, Note_off_c, 6, 49, 64
9, 215280, Note_on_c, 6, 49, 102
9, 215284, Note_off_c, 6, 56, 64
9, 215284, Note_on_c, 6, 56, 102
9, 215288, Note_off_c, 6, 61, 64
9, 215288, Note_on_c, 6, 61, 102
9, 215520, Note_off_c, 6, 49, 64
9, 215520, Control_c, 6, 11, 127
9, 215520, Note_on_c, 6, 49, 102
9, 215524, Note_off_c, 6, 56, 64
9, 215524, Note_on_c, 6, 56, 102
9, 215528, Note_off_c, 6, 61, 64
9, 215528, Note_on_c, 6, 61, 102
9, 215760, Note_off_c, 6, 49, 64
9, 215760, Note_on_c, 6, 49, 102
9, 215764, Note_off_c, 6, 56, 64
9, 215764, Note_on_c, 6, 56, 102
9, 215768, Note_off_c, 6, 61, 64
9, 215768, Note_on_c, 6, 61, 102
9, 216000, Note_off_c, 6, 49, 64
9, 216000, Note_on_c, 6, 49, 102
9, 216004, Note_off_c, 6, 56, 64
9, 216004, Note_on_c, 6, 56, 102
9, 216008, Note_off_c, 6, 61, 64
9, 216008, Note_on_c, 6, 61, 102
9, 216360, Note_off_c, 6, 49, 64
9, 216364, Note_off_c, 6, 56, 64
9, 216368, Note_off_c, 6, 61, 64
9, 216480, Note_on_c, 6, 62, 102
9, 216480, Note_on_c, 6, 50, 102
9, 216484, Note_on_c, 6, 57, 102
9, 216960, Note_off_c, 6, 50, 64
9, 216960, Note_off_c, 6, 62, 64
9, 216960, Note_on_c, 6, 39, 102
9, 216964, Note_off_c, 6, 57, 64
9, 216964, Note_on_c, 6, 46, 102
9, 216968, Note_on_c, 6, 51, 102
9, 216972, Note_on_c, 6, 54, 64
9, 216976, Note_on_c, 6, 58, 102
9, 217680, Note_off_c, 6, 58, 64
9, 217680, Note_off_c, 6, 54, 64
9, 217680, Note_off_c, 6, 51, 64
9, 217680, Note_off_c, 6, 39, 64
9, 217680, Note_off_c, 6, 46, 64
9, 217680, Note_on_c, 6, 39, 102
9, 217684, Note_on_c, 6, 46, 102
9, 217688, Note_on_c, 6, 51, 102
9, 217692, Note_on_c, 6, 54, 64
9, 217696, Note_on_c, 6, 58, 102
9, 218640, Note_off_c, 6, 58, 64
9, 218640, Note_off_c, 6, 51, 64
9, 218640, Note_off_c, 6, 46, 64
9, 218640, Note_off_c, 6, 39, 64
9, 218640, Note_on_c, 6, 39, 102
9, 218648, Note_on_c, 6, 46, 102
9, 218648, Note_on_c, 6, 51, 102
9, 218652, Note_off_c, 6, 54, 64
9, 218656, Note_on_c, 6, 58, 102
9, 218880, Note_off_c, 6, 39, 64
9, 218880, Note_on_c, 6, 47, 102
9, 218884, Note_on_c, 6, 51, 64
9, 218888, Note_off_c, 6, 46, 64
9, 218888, Note_off_c, 6, 51, 64
9, 218888, Note_on_c, 6, 54, 102
9, 218892, Note_on_c, 6, 59, 102
9, 218896, Note_off_c, 6, 58, 64
9, 219600, Note_off_c, 6, 47, 64
9, 219600, Note_on_c, 6, 47, 102
9, 219604, Note_off_c, 6, 51, 64
9, 219604, Note_on_c, 6, 51, 64
9, 219608, Note_off_c, 6, 54, 64
9, 219608, Note_on_c, 6, 54, 102
9, 219612, Note_off_c, 6, 59, 64
9, 219612, Note_on_c, 6, 59, 102
9, 220560, Note_off_c, 6, 47, 64
9, 220560, Note_off_c, 6, 51, 64
9, 220560, Note_off_c, 6, 54, 64
9, 220560, Note_off_c, 6, 59, 64
9, 220560, Note_on_c, 6, 47, 102
9, 220568, Note_on_c, 6, 51, 64
9, 220572, Note_on_c, 6, 54, 102
9, 220576, Note_on_c, 6, 59, 102
9, 220800, Note_off_c, 6, 47, 64
9, 220800, Note_on_c, 6, 46, 102
9, 220804, Note_on_c, 6, 53, 102
9, 220808, Note_off_c, 6, 51, 64
9, 220808, Note_on_c, 6, 58, 102
9, 220812, Note_off_c, 6, 54, 64
9, 220816, Note_off_c, 6, 59, 64
9, 221520, Note_off_c, 6, 46, 64
9, 221520, Note_off_c, 6, 53, 64
9, 221520, Note_off_c, 6, 58, 64
9, 221520, Note_on_c, 6, 46, 102
9, 221524, Note_on_c, 6, 53, 102
9, 221528, Note_on_c, 6, 58, 102
9, 222480, Note_off_c, 6, 58, 64
9, 222480, Note_off_c, 6, 53, 64
9, 222480, Note_off_c, 6, 46, 64
9, 222480, Note_on_c, 6, 46, 102
9, 222484, Note_on_c, 6, 53, 102
9, 222488, Note_on_c, 6, 58, 102
9, 222720, Note_off_c, 6, 46, 64
9, 222720, Note_on_c, 6, 44, 102
9, 222724, Note_off_c, 6, 53, 64
9, 222724, Note_on_c, 6, 51, 102
9, 222728, Note_off_c, 6, 58, 64
9, 222728, Note_on_c, 6, 56, 102
9, 222732, Note_on_c, 6, 59, 64
9, 223440, Note_off_c, 6, 59, 64
9, 223440, Note_off_c, 6, 44, 64
9, 223440, Note_off_c, 6, 51, 64
9, 223440, Note_off_c, 6, 56, 64
9, 223440, Note_on_c, 6, 44, 102
9, 223444, Note_on_c, 6, 51, 102
9, 223448, Note_on_c, 6, 56, 102
9, 223452, Note_on_c, 6, 59, 64
9, 224160, Note_off_c, 6, 59, 64
9, 224160, Note_off_c, 6, 56, 64
9, 224160, Note_off_c, 6, 51, 64
9, 224160, Note_off_c, 6, 44, 64
9, 224160, Note_on_c, 6, 44, 102
9, 224164, Note_on_c, 6, 51, 102
9, 224168, Note_on_c, 6, 56, 102
9, 224172, Note_on_c, 6, 59, 64
9, 224400, Note_off_c, 6, 59, 64
9, 224400, Note_off_c, 6, 56, 64
9, 224400, Note_off_c, 6, 51, 64
9, 224400, Note_off_c, 6, 44, 64
9, 224400, Note_on_c, 6, 56, 89
9, 224400, Note_on_c, 6, 51, 89
9, 224400, Note_on_c, 6, 44, 89
9, 224440, Note_off_c, 6, 44, 64
9, 224440, Note_off_c, 6, 56, 64
9, 224520, Note_off_c, 6, 51, 64
9, 224520, Note_on_c, 6, 56, 89
9, 224520, Note_on_c, 6, 51, 89
9, 224520, Note_on_c, 6, 44, 89
9, 224560, Note_off_c, 6, 44, 64
9, 224560, Note_off_c, 6, 51, 64
9, 224560, Note_off_c, 6, 56, 64
9, 224640, Note_on_c, 6, 39, 102
9, 224644, Note_on_c, 6, 46, 102
9, 224648, Note_on_c, 6, 51, 102
9, 224652, Note_on_c, 6, 54, 64
9, 224656, Note_on_c, 6, 58, 102
9, 225360, Note_off_c, 6, 58, 64
9, 225360, Note_off_c, 6, 54, 64
9, 225360, Note_off_c, 6, 51, 64
9, 225360, Note_off_c, 6, 46, 64
9, 225360, Note_off_c, 6, 39, 64
9, 225360, Note_on_c, 6, 39, 102
9, 225364, Note_on_c, 6, 46, 102
9, 225368, Note_on_c, 6, 51, 102
9, 225372, Note_on_c, 6, 54, 64
9, 225376, Note_on_c, 6, 58, 102
9, 226320, Note_off_c, 6, 58, 64
9, 226320, Note_off_c, 6, 51, 64
9, 226320, Note_off_c, 6, 46, 64
9, 226320, Note_off_c, 6, 39, 64
9, 226320, Note_on_c, 6, 39, 102
9, 226328, Note_on_c, 6, 46, 102
9, 226328, Note_on_c, 6, 51, 102
9, 226332, Note_off_c, 6, 54, 64
9, 226336, Note_on_c, 6, 58, 102
9, 226560, Note_off_c, 6, 39, 64
9, 226560, Note_on_c, 6, 47, 102
9, 226564, Note_on_c, 6, 51, 64
9, 226568, Note_off_c, 6, 46, 64
9, 226568, Note_off_c, 6, 51, 64
9, 226568, Note_on_c, 6, 54, 102
9, 226572, Note_on_c, 6, 59, 102
9, 226576, Note_off_c, 6, 58, 64
9, 227280, Note_off_c, 6, 47, 64
9, 227280, Note_on_c, 6, 47, 102
9, 227284, Note_off_c, 6, 51, 64
9, 227284, Note_on_c, 6, 51, 64
9, 227288, Note_off_c, 6, 54, 64
9, 227288, Note_on_c, 6, 54, 102
9, 227292, Note_off_c, 6, 59, 64
9, 227292, Note_on_c, 6, 59, 102
9, 228240, Note_off_c, 6, 47, 64
9, 228240, Note_off_c, 6, 51, 64
9, 228240, Note_off_c, 6, 54, 64
9, 228240, Note_off_c, 6, 59, 64
9, 228240, Note_on_c, 6, 47, 102
9, 228248, Note_on_c, 6, 51, 64
9, 228252, Note_on_c, 6, 54, 102
9, 228256, Note_on_c, 6, 59, 102
9, 228480, Note_off_c, 6, 47, 64
9, 228480, Note_on_c, 6, 46, 102
9, 228484, Note_on_c, 6, 53, 102
9, 228488, Note_off_c, 6, 51, 64
9, 228488, Note_on_c, 6, 58, 102
9, 228492, Note_off_c, 6, 54, 64
9, 228496, Note_off_c, 6, 59, 64
9, 229200, Note_off_c, 6, 46, 64
9, 229200, Note_off_c, 6, 53, 64
9, 229200, Note_off_c, 6, 58, 64
9, 229200, Note_on_c, 6, 46, 102
9, 229204, Note_on_c, 6, 53, 102
9, 229208, Note_on_c, 6, 58, 102
9, 230160, Note_off_c, 6, 58, 64
9, 230160, Note_off_c, 6, 53, 64
9, 230160, Note_off_c, 6, 46, 64
9, 230160, Note_on_c, 6, 46, 102
9, 230164, Note_on_c, 6, 53, 102
9, 230168, Note_on_c, 6, 58, 102
9, 230400, Note_off_c, 6, 46, 64
9, 230400, Note_on_c, 6, 44, 102
9, 230404, Note_off_c, 6, 53, 64
9, 230404, Note_on_c, 6, 51, 102
9, 230408, Note_off_c, 6, 58, 64
9, 230408, Note_on_c, 6, 56, 102
9, 230412, Note_on_c, 6, 59, 64
9, 231120, Note_off_c, 6, 59, 64
9, 231120, Note_off_c, 6, 44, 64
9, 231120, Note_off_c, 6, 51, 64
9, 231120, Note_off_c, 6, 56, 64
9, 231120, Note_on_c, 6, 44, 102
9, 231124, Note_on_c, 6, 51, 102
9, 231128, Note_on_c, 6, 56, 102
9, 231132, Note_on_c, 6, 59, 64
9, 231840, Note_off_c, 6, 59, 64
9, 231840, Note_off_c, 6, 56, 64
9, 231840, Note_off_c, 6, 51, 64
9, 231840, Note_off_c, 6, 44, 64
9, 231840, Note_on_c, 6, 44, 102
9, 231844, Note_on_c, 6, 51, 102
9, 231848, Note_on_c, 6, 56, 102
9, 231852, Note_on_c, 6, 59, 64
9, 232080, Note_off_c, 6, 59, 64
9, 232080, Note_off_c, 6, 56, 64
9, 232080, Note_off_c, 6, 51, 64
9, 232080, Note_off_c, 6, 44, 64
9, 232080, Note_on_c, 6, 56, 89
9, 232080, Note_on_c, 6, 51, 89
9, 232080, Note_on_c, 6, 44, 89
9, 232120, Note_off_c, 6, 44, 64
9, 232120, Note_off_c, 6, 56, 64
9, 232200, Note_off_c, 6, 51, 64
9, 232200, Note_on_c, 6, 56, 89
9, 232200, Note_on_c, 6, 51, 89
9, 232200, Note_on_c, 6, 44, 89
9, 232240, Note_off_c, 6, 44, 64
9, 232240, Note_off_c, 6, 51, 64
9, 232240, Note_off_c, 6, 56, 64
9, 232320, Note_on_c, 6, 39, 102
9, 232324, Note_on_c, 6, 46, 102
9, 232328, Note_on_c, 6, 51, 102
9, 232332, Note_on_c, 6, 54, 64
9, 232336, Note_on_c, 6, 58, 102
9, 233040, Note_off_c, 6, 58, 64
9, 233040, Note_off_c, 6, 54, 64
9, 233040, Note_off_c, 6, 51, 64
9, 233040, Note_off_c, 6, 46, 64
9, 233040, Note_off_c, 6, 39, 64
9, 233040, Note_on_c, 6, 39, 102
9, 233044, Note_on_c, 6, 46, 102
9, 233048, Note_on_c, 6, 51, 102
9, 233052, Note_on_c, 6, 54, 64
9, 233056, Note_on_c, 6, 58, 102
9, 234000, Note_off_c, 6, 58, 64
9, 234000, Note_off_c, 6, 51, 64
9, 234000, Note_off_c, 6, 46, 64
9, 234000, Note_off_c, 6, 39, 64
9, 234000, Note_on_c, 6, 39, 102
9, 234008, Note_on_c, 6, 46, 102
9, 234008, Note_on_c, 6, 51, 102
9, 234012, Note_off_c, 6, 54, 64
9, 234016, Note_on_c, 6, 58, 102
9, 234240, Note_off_c, 6, 39, 64
9, 234240, Note_on_c, 6, 47, 102
9, 234244, Note_on_c, 6, 51, 64
9, 234248, Note_off_c, 6, 46, 64
9, 234248, Note_off_c, 6, 51, 64
9, 234248, Note_on_c, 6, 54, 102
9, 234252, Note_on_c, 6, 59, 102
9, 234256, Note_off_c, 6, 58, 64
9, 234960, Note_off_c, 6, 47, 64
9, 234960, Note_on_c, 6, 47, 102
9, 234964, Note_off_c, 6, 51, 64
9, 234964, Note_on_c, 6, 51, 64
9, 234968, Note_off_c, 6, 54, 64
9, 234968, Note_on_c, 6, 54, 102
9, 234972, Note_off_c, 6, 59, 64
9, 234972, Note_on_c, 6, 59, 102
9, 235920, Note_off_c, 6, 47, 64
9, 235920, Note_off_c, 6, 51, 64
9, 235920, Note_off_c, 6, 54, 64
9, 235920, Note_off_c, 6, 59, 64
9, 235920, Note_on_c, 6, 47, 102
9, 235928, Note_on_c, 6, 51, 64
9, 235932, Note_on_c, 6, 54, 102
9, 235936, Note_on_c, 6, 59, 102
9, 236160, Note_off_c, 6, 47, 64
9, 236160, Note_on_c, 6, 46, 102
9, 236164, Note_on_c, 6, 53, 102
9, 236168, Note_off_c, 6, 51, 64
9, 236168, Note_on_c, 6, 58, 102
9, 236172, Note_off_c, 6, 54, 64
9, 236176, Note_off_c, 6, 59, 64
9, 236880, Note_off_c, 6, 46, 64
9, 236880, Note_off_c, 6, 53, 64
9, 236880, Note_off_c, 6, 58, 64
9, 236880, Note_on_c, 6, 46, 102
9, 236884, Note_on_c, 6, 53, 102
9, 236888, Note_on_c, 6, 58, 102
9, 237840, Note_off_c, 6, 58, 64
9, 237840, Note_off_c, 6, 53, 64
9, 237840, Note_off_c, 6, 46, 64
9, 237840, Note_on_c, 6, 46, 102
9, 237844, Note_on_c, 6, 53, 102
9, 237848, Note_on_c, 6, 58, 102
9, 238080, Note_off_c, 6, 46, 64
9, 238080, Note_on_c, 6, 44, 102
9, 238084, Note_off_c, 6, 53, 64
9, 238084, Note_on_c, 6, 51, 102
9, 238088, Note_off_c, 6, 58, 64
9, 238088, Note_on_c, 6, 56, 102
9, 238092, Note_on_c, 6, 59, 64
9, 238800, Note_off_c, 6, 59, 64
9, 238800, Note_off_c, 6, 44, 64
9, 238800, Note_off_c, 6, 51, 64
9, 238800, Note_off_c, 6, 56, 64
9, 238800, Note_on_c, 6, 44, 102
9, 238804, Note_on_c, 6, 51, 102
9, 238808, Note_on_c, 6, 56, 102
9, 238812, Note_on_c, 6, 59, 64
9, 239520, Note_off_c, 6, 59, 64
9, 239520, Note_off_c, 6, 56, 64
9, 239520, Note_off_c, 6, 51, 64
9, 239520, Note_off_c, 6, 44, 64
9, 239520, Note_on_c, 6, 44, 102
9, 239524, Note_on_c, 6, 51, 102
9, 239528, Note_on_c, 6, 56, 102
9, 239532, Note_on_c, 6, 59, 64
9, 239760, Note_off_c, 6, 59, 64
9, 239760, Note_off_c, 6, 56, 64
9, 239760, Note_off_c, 6, 51, 64
9, 239760, Note_off_c, 6, 44, 64
9, 239760, Note_on_c, 6, 56, 89
9, 239760, Note_on_c, 6, 51, 89
9, 239760, Note_on_c, 6, 44, 89
9, 239800, Note_off_c, 6, 44, 64
9, 239800, Note_off_c, 6, 56, 64
9, 239880, Note_off_c, 6, 51, 64
9, 239880, Note_on_c, 6, 56, 89
9, 239880, Note_on_c, 6, 51, 89
9, 239880, Note_on_c, 6, 44, 89
9, 239920, Note_off_c, 6, 44, 64
9, 239920, Note_off_c, 6, 51, 64
9, 239920, Note_off_c, 6, 56, 64
9, 240000, Note_on_c, 6, 39, 102
9, 240004, Note_on_c, 6, 46, 102
9, 240008, Note_on_c, 6, 51, 102
9, 240012, Note_on_c, 6, 54, 64
9, 240016, Note_on_c, 6, 58, 102
9, 240720, Note_off_c, 6, 58, 64
9, 240720, Note_off_c, 6, 54, 64
9, 240720, Note_off_c, 6, 51, 64
9, 240720, Note_off_c, 6, 46, 64
9, 240720, Note_off_c, 6, 39, 64
9, 240720, Note_on_c, 6, 39, 102
9, 240724, Note_on_c, 6, 46, 102
9, 240728, Note_on_c, 6, 51, 102
9, 240732, Note_on_c, 6, 54, 64
9, 240736, Note_on_c, 6, 58, 102
9, 241680, Note_off_c, 6, 58, 64
9, 241680, Note_off_c, 6, 51, 64
9, 241680, Note_off_c, 6, 46, 64
9, 241680, Note_off_c, 6, 39, 64
9, 241680, Note_on_c, 6, 39, 102
9, 241688, Note_on_c, 6, 46, 102
9, 241688, Note_on_c, 6, 51, 102
9, 241692, Note_off_c, 6, 54, 64
9, 241696, Note_on_c, 6, 58, 102
9, 241920, Note_off_c, 6, 39, 64
9, 241920, Note_on_c, 6, 47, 102
9, 241924, Note_on_c, 6, 51, 64
9, 241928, Note_off_c, 6, 46, 64
9, 241928, Note_off_c, 6, 51, 64
9, 241928, Note_on_c, 6, 54, 102
9, 241932, Note_on_c, 6, 59, 102
9, 241936, Note_off_c, 6, 58, 64
9, 242640, Note_off_c, 6, 47, 64
9, 242640, Note_on_c, 6, 47, 102
9, 242644, Note_off_c, 6, 51, 64
9, 242644, Note_on_c, 6, 51, 64
9, 242648, Note_off_c, 6, 54, 64
9, 242648, Note_on_c, 6, 54, 102
9, 242652, Note_off_c, 6, 59, 64
9, 242652, Note_on_c, 6, 59, 102
9, 243600, Note_off_c, 6, 47, 64
9, 243600, Note_off_c, 6, 51, 64
9, 243600, Note_off_c, 6, 54, 64
9, 243600, Note_off_c, 6, 59, 64
9, 243600, Note_on_c, 6, 47, 102
9, 243608, Note_on_c, 6, 51, 64
9, 243612, Note_on_c, 6, 54, 102
9, 243616, Note_on_c, 6, 59, 102
9, 243840, Note_off_c, 6, 47, 64
9, 243840, Note_on_c, 6, 46, 102
9, 243844, Note_on_c, 6, 53, 102
9, 243848, Note_off_c, 6, 51, 64
9, 243848, Note_on_c, 6, 58, 102
9, 243852, Note_off_c, 6, 54, 64
9, 243856, Note_off_c, 6, 59, 64
9, 244560, Note_off_c, 6, 46, 64
9, 244560, Note_off_c, 6, 53, 64
9, 244560, Note_off_c, 6, 58, 64
9, 244560, Note_on_c, 6, 46, 102
9, 244564, Note_on_c, 6, 53, 102
9, 244568, Note_on_c, 6, 58, 102
9, 245520, Note_off_c, 6, 58, 64
9, 245520, Note_off_c, 6, 53, 64
9, 245520, Note_off_c, 6, 46, 64
9, 245520, Note_on_c, 6, 46, 102
9, 245524, Note_on_c, 6, 53, 102
9, 245528, Note_on_c, 6, 58, 102
9, 245760, Note_off_c, 6, 46, 64
9, 245760, Control_c, 6, 11, 95
9, 245760, Note_on_c, 6, 44, 95
9, 245764, Note_off_c, 6, 53, 64
9, 245764, Note_on_c, 6, 51, 95
9, 245768, Note_off_c, 6, 58, 64
9, 245768, Note_on_c, 6, 56, 95
9, 245820, Control_c, 6, 11, 96
9, 245880, Control_c, 6, 11, 97
9, 245940, Control_c, 6, 11, 98
9, 245980, Note_off_c, 6, 44, 64
9, 245980, Note_off_c, 6, 51, 64
9, 245980, Note_off_c, 6, 56, 64
9, 246000, Control_c, 6, 11, 99
9, 246000, Note_on_c, 6, 44, 95
9, 246004, Note_on_c, 6, 51, 95
9, 246008, Note_on_c, 6, 56, 95
9, 246060, Control_c, 6, 11, 100
9, 246120, Control_c, 6, 11, 101
9, 246180, Control_c, 6, 11, 102
9, 246220, Note_off_c, 6, 56, 64
9, 246220, Note_off_c, 6, 51, 64
9, 246220, Note_off_c, 6, 44, 64
9, 246240, Control_c, 6, 11, 103
9, 246240, Note_on_c, 6, 44, 95
9, 246244, Note_on_c, 6, 51, 95
9, 246248, Note_on_c, 6, 56, 95
9, 246300, Control_c, 6, 11, 104
9, 246360, Control_c, 6, 11, 105
9, 246420, Control_c, 6, 11, 106
9, 246460, Note_off_c, 6, 56, 64
9, 246460, Note_off_c, 6, 51, 64
9, 246460, Note_off_c, 6, 44, 64
9, 246480, Control_c, 6, 11, 107
9, 246480, Note_on_c, 6, 44, 95
9, 246484, Note_on_c, 6, 51, 95
9, 246488, Note_on_c, 6, 56, 95
9, 246540, Control_c, 6, 11, 108
9, 246600, Control_c, 6, 11, 109
9, 246660, Control_c, 6, 11, 110
9, 246700, Note_off_c, 6, 56, 64
9, 246700, Note_off_c, 6, 51, 64
9, 246700, Note_off_c, 6, 44, 64
9, 246720, Control_c, 6, 11, 111
9, 246720, Note_on_c, 6, 44, 95
9, 246724, Note_on_c, 6, 51, 95
9, 246728, Note_on_c, 6, 56, 95
9, 246776, Control_c, 6, 11, 112
9, 246836, Control_c, 6, 11, 113
9, 246896, Control_c, 6, 11, 114
9, 246940, Note_off_c, 6, 56, 64
9, 246940, Note_off_c, 6, 51, 64
9, 246940, Note_off_c, 6, 44, 64
9, 246956, Control_c, 6, 11, 115
9, 246960, Note_on_c, 6, 44, 95
9, 246964, Note_on_c, 6, 51, 95
9, 246968, Note_on_c, 6, 56, 95
9, 247016, Control_c, 6, 11, 116
9, 247076, Control_c, 6, 11, 117
9, 247136, Control_c, 6, 11, 118
9, 247180, Note_off_c, 6, 56, 64
9, 247180, Note_off_c, 6, 51, 64
9, 247180, Note_off_c, 6, 44, 64
9, 247196, Control_c, 6, 11, 119
9, 247200, Note_on_c, 6, 44, 95
9, 247204, Note_on_c, 6, 51, 95
9, 247208, Note_on_c, 6, 56, 95
9, 247256, Control_c, 6, 11, 120
9, 247316, Control_c, 6, 11, 121
9, 247376, Control_c, 6, 11, 122
9, 247420, Note_off_c, 6, 56, 64
9, 247420, Note_off_c, 6, 51, 64
9, 247420, Note_off_c, 6, 44, 64
9, 247436, Control_c, 6, 11, 123
9, 247440, Note_on_c, 6, 44, 95
9, 247444, Note_on_c, 6, 51, 95
9, 247448, Note_on_c, 6, 56, 95
9, 247496, Control_c, 6, 11, 124
9, 247556, Control_c, 6, 11, 125
9, 247616, Control_c, 6, 11, 126
9, 247660, Note_off_c, 6, 56, 64
9, 247660, Note_off_c, 6, 51, 64
9, 247660, Note_off_c, 6, 44, 64
9, 247676, Control_c, 6, 11, 127
9, 247680, Note_on_c, 6, 44, 95
9, 247684, Note_on_c, 6, 51, 95
9, 247688, Note_on_c, 6, 56, 95
9, 247900, Note_off_c, 6, 56, 64
9, 247900, Note_off_c, 6, 51, 64
9, 247900, Note_off_c, 6, 44, 64
9, 247920, Note_on_c, 6, 44, 95
9, 247924, Note_on_c, 6, 51, 95
9, 247928, Note_on_c, 6, 56, 95
9, 248140, Note_off_c, 6, 56, 64
9, 248140, Note_off_c, 6, 51, 64
9, 248140, Note_off_c, 6, 44, 64
9, 248160, Note_on_c, 6, 44, 95
9, 248164, Note_on_c, 6, 51, 95
9, 248168, Note_on_c, 6, 56, 95
9, 248380, Note_off_c, 6, 56, 64
9, 248380, Note_off_c, 6, 51, 64
9, 248380, Note_off_c, 6, 44, 64
9, 248400, Note_on_c, 6, 44, 95
9, 248404, Note_on_c, 6, 51, 95
9, 248408, Note_on_c, 6, 56, 95
9, 248620, Note_off_c, 6, 56, 64
9, 248620, Note_off_c, 6, 51, 64
9, 248620, Note_off_c, 6, 44, 64
9, 248640, Note_on_c, 6, 44, 95
9, 248644, Note_on_c, 6, 51, 95
9, 248648, Note_on_c, 6, 56, 95
9, 248860, Note_off_c, 6, 56, 64
9, 248860, Note_off_c, 6, 51, 64
9, 248860, Note_off_c, 6, 44, 64
9, 248880, Note_on_c, 6, 44, 95
9, 248884, Note_on_c, 6, 51, 95
9, 248888, Note_on_c, 6, 56, 95
9, 249100, Note_off_c, 6, 56, 64
9, 249120, Note_off_c, 6, 51, 64
9, 249120, Note_off_c, 6, 44, 64
9, 249120, Note_on_c, 6, 42, 102
9, 249360, Note_off_c, 6, 42, 64
9, 249360, Note_on_c, 6, 41, 102
9, 249600, Note_off_c, 6, 41, 64
9, 249600, Note_on_c, 6, 39, 102
9, 249604, Note_on_c, 6, 46, 102
9, 249608, Note_on_c, 6, 51, 102
9, 249612, Note_on_c, 6, 54, 70
9, 249616, Note_on_c, 6, 58, 70
9, 250320, Note_off_c, 6, 58, 64
9, 250320, Note_off_c, 6, 54, 64
9, 250320, Note_off_c, 6, 51, 64
9, 250320, Note_off_c, 6, 46, 64
9, 250320, Note_off_c, 6, 39, 64
9, 250320, Note_on_c, 6, 39, 102
9, 250324, Note_on_c, 6, 46, 102
9, 250328, Note_on_c, 6, 51, 102
9, 250332, Note_on_c, 6, 54, 70
9, 250336, Note_on_c, 6, 58, 70
9, 251040, Note_off_c, 6, 58, 64
9, 251040, Note_off_c, 6, 54, 64
9, 251040, Note_off_c, 6, 51, 64
9, 251040, Note_off_c, 6, 46, 64
9, 251040, Note_off_c, 6, 39, 64
9, 251040, Note_on_c, 6, 39, 108
9, 251280, Note_off_c, 6, 39, 64
9, 251280, Note_on_c, 6, 41, 108
9, 251520, Note_off_c, 6, 41, 64
9, 251520, Note_on_c, 6, 42, 102
9, 251524, Note_on_c, 6, 49, 102
9, 251528, Note_on_c, 6, 54, 102
9, 251532, Note_on_c, 6, 61, 89
9, 252240, Note_off_c, 6, 61, 64
9, 252240, Note_off_c, 6, 54, 64
9, 252240, Note_off_c, 6, 49, 64
9, 252240, Note_off_c, 6, 42, 64
9, 252240, Note_on_c, 6, 42, 102
9, 252244, Note_on_c, 6, 49, 102
9, 252248, Note_on_c, 6, 54, 102
9, 252252, Note_on_c, 6, 61, 89
9, 252960, Note_off_c, 6, 61, 64
9, 252960, Note_off_c, 6, 54, 64
9, 252960, Note_off_c, 6, 49, 64
9, 252960, Note_off_c, 6, 42, 64
9, 252960, Note_on_c, 6, 42, 102
9, 252964, Note_on_c, 6, 49, 102
9, 252968, Note_on_c, 6, 54, 102
9, 252972, Note_on_c, 6, 61, 89
9, 253200, Note_off_c, 6, 61, 64
9, 253200, Note_off_c, 6, 54, 64
9, 253200, Note_off_c, 6, 49, 64
9, 253200, Note_off_c, 6, 42, 64
9, 253200, Note_on_c, 6, 42, 102
9, 253204, Note_on_c, 6, 49, 102
9, 253208, Note_on_c, 6, 54, 102
9, 253212, Note_on_c, 6, 61, 89
9, 253440, Note_off_c, 6, 61, 64
9, 253440, Note_off_c, 6, 54, 64
9, 253440, Note_off_c, 6, 49, 64
9, 253440, Note_off_c, 6, 42, 64
9, 253440, Note_on_c, 6, 44, 102
9, 253444, Note_on_c, 6, 51, 102
9, 253448, Note_on_c, 6, 56, 102
9, 254160, Note_off_c, 6, 56, 64
9, 254160, Note_off_c, 6, 51, 64
9, 254160, Note_off_c, 6, 44, 64
9, 254160, Note_on_c, 6, 44, 102
9, 254164, Note_on_c, 6, 51, 102
9, 254168, Note_on_c, 6, 56, 102
9, 254880, Note_off_c, 6, 56, 64
9, 254880, Note_off_c, 6, 51, 64
9, 254880, Note_off_c, 6, 44, 64
9, 254880, Note_on_c, 6, 44, 102
9, 254884, Note_on_c, 6, 51, 102
9, 254888, Note_on_c, 6, 56, 102
9, 255120, Note_off_c, 6, 44, 64
9, 255120, Note_on_c, 6, 44, 102
9, 255124, Note_off_c, 6, 51, 64
9, 255124, Note_on_c, 6, 51, 102
9, 255128, Note_off_c, 6, 56, 64
9, 255128, Note_on_c, 6, 56, 102
9, 255360, Note_off_c, 6, 44, 64
9, 255360, Note_on_c, 6, 47, 102
9, 255364, Note_off_c, 6, 51, 64
9, 255364, Note_on_c, 6, 54, 102
9, 255368, Note_off_c, 6, 56, 64
9, 255368, Note_on_c, 6, 59, 102
9, 255840, Note_off_c, 6, 47, 64
9, 255840, Note_off_c, 6, 54, 64
9, 255840, Note_on_c, 6, 47, 102
9, 255844, Note_off_c, 6, 59, 64
9, 255844, Note_on_c, 6, 54, 102
9, 255848, Note_on_c, 6, 59, 102
9, 256080, Note_off_c, 6, 59, 64
9, 256080, Note_off_c, 6, 47, 64
9, 256080, Note_off_c, 6, 54, 64
9, 256080, Note_on_c, 6, 47, 102
9, 256084, Note_on_c, 6, 54, 102
9, 256088, Note_on_c, 6, 59, 102
9, 256200, Note_off_c, 6, 59, 64
9, 256200, Note_off_c, 6, 54, 64
9, 256200, Note_off_c, 6, 47, 64
9, 256200, Note_on_c, 6, 47, 102
9, 256204, Note_on_c, 6, 54, 102
9, 256208, Note_on_c, 6, 59, 102
9, 256320, Note_off_c, 6, 59, 64
9, 256320, Note_off_c, 6, 54, 64
9, 256320, Note_off_c, 6, 47, 64
9, 256320, Note_on_c, 6, 49, 102
9, 256324, Note_on_c, 6, 56, 102
9, 256328, Note_on_c, 6, 61, 102
9, 256800, Note_off_c, 6, 61, 64
9, 256800, Note_off_c, 6, 56, 64
9, 256800, Note_off_c, 6, 49, 64
9, 256800, Note_on_c, 6, 42, 102
9, 256804, Note_on_c, 6, 49, 102
9, 256808, Note_on_c, 6, 54, 102
9, 256812, Note_on_c, 6, 61, 89
9, 257280, Note_off_c, 6, 42, 64
9, 257280, Note_on_c, 6, 39, 102
9, 257284, Note_off_c, 6, 49, 64
9, 257284, Note_on_c, 6, 46, 102
9, 257288, Note_off_c, 6, 54, 64
9, 257288, Note_on_c, 6, 51, 102
9, 257292, Note_off_c, 6, 61, 64
9, 257292, Note_on_c, 6, 54, 70
9, 257296, Note_on_c, 6, 58, 70
9, 258000, Note_off_c, 6, 58, 64
9, 258000, Note_off_c, 6, 39, 64
9, 258000, Note_off_c, 6, 46, 64
9, 258000, Note_off_c, 6, 51, 64
9, 258000, Note_off_c, 6, 54, 64
9, 258000, Note_on_c, 6, 39, 102
9, 258004, Note_on_c, 6, 46, 102
9, 258008, Note_on_c, 6, 51, 102
9, 258012, Note_on_c, 6, 54, 70
9, 258016, Note_on_c, 6, 58, 70
9, 258720, Note_off_c, 6, 58, 64
9, 258720, Note_off_c, 6, 54, 64
9, 258720, Note_off_c, 6, 51, 64
9, 258720, Note_off_c, 6, 46, 64
9, 258720, Note_off_c, 6, 39, 64
9, 258720, Note_on_c, 6, 39, 108
9, 258960, Note_off_c, 6, 39, 64
9, 258960, Note_on_c, 6, 41, 108
9, 259200, Note_off_c, 6, 41, 64
9, 259200, Note_on_c, 6, 42, 102
9, 259204, Note_on_c, 6, 49, 102
9, 259208, Note_on_c, 6, 54, 102
9, 259212, Note_on_c, 6, 61, 89
9, 259920, Note_off_c, 6, 61, 64
9, 259920, Note_off_c, 6, 54, 64
9, 259920, Note_off_c, 6, 49, 64
9, 259920, Note_off_c, 6, 42, 64
9, 259920, Note_on_c, 6, 42, 102
9, 259924, Note_on_c, 6, 49, 102
9, 259928, Note_on_c, 6, 54, 102
9, 259932, Note_on_c, 6, 61, 89
9, 260640, Note_off_c, 6, 61, 64
9, 260640, Note_off_c, 6, 54, 64
9, 260640, Note_off_c, 6, 49, 64
9, 260640, Note_off_c, 6, 42, 64
9, 260640, Note_on_c, 6, 42, 102
9, 260644, Note_on_c, 6, 49, 102
9, 260648, Note_on_c, 6, 54, 102
9, 260652, Note_on_c, 6, 61, 89
9, 260880, Note_off_c, 6, 61, 64
9, 260880, Note_off_c, 6, 54, 64
9, 260880, Note_off_c, 6, 49, 64
9, 260880, Note_off_c, 6, 42, 64
9, 260880, Note_on_c, 6, 42, 102
9, 260884, Note_on_c, 6, 49, 102
9, 260888, Note_on_c, 6, 54, 102
9, 260892, Note_on_c, 6, 61, 89
9, 261120, Note_off_c, 6, 61, 64
9, 261120, Note_off_c, 6, 54, 64
9, 261120, Note_off_c, 6, 49, 64
9, 261120, Note_off_c, 6, 42, 64
9, 261120, Note_on_c, 6, 44, 102
9, 261124, Note_on_c, 6, 51, 102
9, 261128, Note_on_c, 6, 56, 102
9, 261840, Note_off_c, 6, 56, 64
9, 261840, Note_off_c, 6, 51, 64
9, 261840, Note_off_c, 6, 44, 64
9, 261840, Note_on_c, 6, 44, 102
9, 261844, Note_on_c, 6, 51, 102
9, 261848, Note_on_c, 6, 56, 102
9, 262560, Note_off_c, 6, 56, 64
9, 262560, Note_off_c, 6, 51, 64
9, 262560, Note_off_c, 6, 44, 64
9, 262560, Note_on_c, 6, 44, 102
9, 262564, Note_on_c, 6, 51, 102
9, 262568, Note_on_c, 6, 56, 102
9, 262800, Note_off_c, 6, 44, 64
9, 262800, Note_on_c, 6, 44, 102
9, 262804, Note_off_c, 6, 51, 64
9, 262804, Note_on_c, 6, 51, 102
9, 262808, Note_off_c, 6, 56, 64
9, 262808, Note_on_c, 6, 56, 102
9, 263040, Note_off_c, 6, 44, 64
9, 263040, Note_on_c, 6, 47, 102
9, 263044, Note_off_c, 6, 51, 64
9, 263044, Note_on_c, 6, 54, 102
9, 263048, Note_off_c, 6, 56, 64
9, 263048, Note_on_c, 6, 59, 102
9, 263520, Note_off_c, 6, 47, 64
9, 263520, Note_off_c, 6, 54, 64
9, 263520, Note_on_c, 6, 47, 102
9, 263524, Note_off_c, 6, 59, 64
9, 263524, Note_on_c, 6, 54, 102
9, 263528, Note_on_c, 6, 59, 102
9, 263760, Note_off_c, 6, 59, 64
9, 263760, Note_off_c, 6, 47, 64
9, 263760, Note_off_c, 6, 54, 64
9, 263760, Note_on_c, 6, 47, 102
9, 263764, Note_on_c, 6, 54, 102
9, 263768, Note_on_c, 6, 59, 102
9, 263880, Note_off_c, 6, 59, 64
9, 263880, Note_off_c, 6, 54, 64
9, 263880, Note_off_c, 6, 47, 64
9, 263880, Note_on_c, 6, 47, 102
9, 263884, Note_on_c, 6, 54, 102
9, 263888, Note_on_c, 6, 59, 102
9, 264000, Note_off_c, 6, 59, 64
9, 264000, Note_off_c, 6, 54, 64
9, 264000, Note_off_c, 6, 47, 64
9, 264000, Note_on_c, 6, 49, 102
9, 264004, Note_on_c, 6, 56, 102
9, 264008, Note_on_c, 6, 61, 102
9, 264480, Note_off_c, 6, 61, 64
9, 264480, Note_off_c, 6, 56, 64
9, 264480, Note_off_c, 6, 49, 64
9, 264480, Note_on_c, 6, 42, 102
9, 264484, Note_on_c, 6, 49, 102
9, 264488, Note_on_c, 6, 54, 102
9, 264492, Note_on_c, 6, 61, 89
9, 264960, Note_off_c, 6, 42, 64
9, 264960, Note_on_c, 6, 39, 102
9, 264964, Note_off_c, 6, 49, 64
9, 264964, Note_on_c, 6, 46, 102
9, 264968, Note_off_c, 6, 54, 64
9, 264968, Note_on_c, 6, 51, 102
9, 264972, Note_off_c, 6, 61, 64
9, 264972, Note_on_c, 6, 54, 70
9, 264976, Note_on_c, 6, 58, 70
9, 265680, Note_off_c, 6, 58, 64
9, 265680, Note_off_c, 6, 39, 64
9, 265680, Note_off_c, 6, 46, 64
9, 265680, Note_off_c, 6, 51, 64
9, 265680, Note_off_c, 6, 54, 64
9, 265680, Note_on_c, 6, 39, 102
9, 265684, Note_on_c, 6, 46, 102
9, 265688, Note_on_c, 6, 51, 102
9, 265692, Note_on_c, 6, 54, 70
9, 265696, Note_on_c, 6, 58, 70
9, 266400, Note_off_c, 6, 58, 64
9, 266400, Note_off_c, 6, 54, 64
9, 266400, Note_off_c, 6, 51, 64
9, 266400, Note_off_c, 6, 46, 64
9, 266400, Note_off_c, 6, 39, 64
9, 266400, Note_on_c, 6, 39, 108
9, 266640, Note_off_c, 6, 39, 64
9, 266640, Note_on_c, 6, 41, 108
9, 266880, Note_off_c, 6, 41, 64
9, 266880, Note_on_c, 6, 42, 102
9, 266884, Note_on_c, 6, 49, 102
9, 266888, Note_on_c, 6, 54, 102
9, 266892, Note_on_c, 6, 61, 89
9, 267600, Note_off_c, 6, 61, 64
9, 267600, Note_off_c, 6, 54, 64
9, 267600, Note_off_c, 6, 49, 64
9, 267600, Note_off_c, 6, 42, 64
9, 267600, Note_on_c, 6, 42, 102
9, 267604, Note_on_c, 6, 49, 102
9, 267608, Note_on_c, 6, 54, 102
9, 267612, Note_on_c, 6, 61, 89
9, 268320, Note_off_c, 6, 61, 64
9, 268320, Note_off_c, 6, 54, 64
9, 268320, Note_off_c, 6, 49, 64
9, 268320, Note_off_c, 6, 42, 64
9, 268320, Note_on_c, 6, 42, 102
9, 268324, Note_on_c, 6, 49, 102
9, 268328, Note_on_c, 6, 54, 102
9, 268332, Note_on_c, 6, 61, 89
9, 268560, Note_off_c, 6, 61, 64
9, 268560, Note_off_c, 6, 54, 64
9, 268560, Note_off_c, 6, 49, 64
9, 268560, Note_off_c, 6, 42, 64
9, 268560, Note_on_c, 6, 42, 102
9, 268564, Note_on_c, 6, 49, 102
9, 268568, Note_on_c, 6, 54, 102
9, 268572, Note_on_c, 6, 61, 89
9, 268800, Note_off_c, 6, 61, 64
9, 268800, Note_off_c, 6, 54, 64
9, 268800, Note_off_c, 6, 49, 64
9, 268800, Note_off_c, 6, 42, 64
9, 268800, Note_on_c, 6, 44, 102
9, 268804, Note_on_c, 6, 51, 102
9, 268808, Note_on_c, 6, 56, 102
9, 269520, Note_off_c, 6, 56, 64
9, 269520, Note_off_c, 6, 51, 64
9, 269520, Note_off_c, 6, 44, 64
9, 269520, Note_on_c, 6, 44, 102
9, 269524, Note_on_c, 6, 51, 102
9, 269528, Note_on_c, 6, 56, 102
9, 270240, Note_off_c, 6, 56, 64
9, 270240, Note_off_c, 6, 51, 64
9, 270240, Note_off_c, 6, 44, 64
9, 270240, Note_on_c, 6, 44, 102
9, 270244, Note_on_c, 6, 51, 102
9, 270248, Note_on_c, 6, 56, 102
9, 270480, Note_off_c, 6, 44, 64
9, 270480, Note_on_c, 6, 44, 102
9, 270484, Note_off_c, 6, 51, 64
9, 270484, Note_on_c, 6, 51, 102
9, 270488, Note_off_c, 6, 56, 64
9, 270488, Note_on_c, 6, 56, 102
9, 270720, Note_off_c, 6, 44, 64
9, 270720, Note_on_c, 6, 47, 102
9, 270724, Note_off_c, 6, 51, 64
9, 270724, Note_on_c, 6, 54, 102
9, 270728, Note_off_c, 6, 56, 64
9, 270728, Note_on_c, 6, 59, 102
9, 271200, Note_off_c, 6, 47, 64
9, 271200, Note_off_c, 6, 54, 64
9, 271200, Note_on_c, 6, 47, 102
9, 271204, Note_off_c, 6, 59, 64
9, 271204, Note_on_c, 6, 54, 102
9, 271208, Note_on_c, 6, 59, 102
9, 271440, Note_off_c, 6, 59, 64
9, 271440, Note_off_c, 6, 47, 64
9, 271440, Note_off_c, 6, 54, 64
9, 271440, Note_on_c, 6, 47, 102
9, 271444, Note_on_c, 6, 54, 102
9, 271448, Note_on_c, 6, 59, 102
9, 271560, Note_off_c, 6, 59, 64
9, 271560, Note_off_c, 6, 54, 64
9, 271560, Note_off_c, 6, 47, 64
9, 271560, Note_on_c, 6, 47, 102
9, 271564, Note_on_c, 6, 54, 102
9, 271568, Note_on_c, 6, 59, 102
9, 271680, Note_off_c, 6, 59, 64
9, 271680, Note_off_c, 6, 54, 64
9, 271680, Note_off_c, 6, 47, 64
9, 271680, Note_on_c, 6, 49, 102
9, 271684, Note_on_c, 6, 56, 102
9, 271688, Note_on_c, 6, 61, 102
9, 272160, Note_off_c, 6, 61, 64
9, 272160, Note_off_c, 6, 56, 64
9, 272160, Note_off_c, 6, 49, 64
9, 272160, Note_on_c, 6, 42, 102
9, 272164, Note_on_c, 6, 49, 102
9, 272168, Note_on_c, 6, 54, 102
9, 272172, Note_on_c, 6, 61, 89
9, 272640, Note_off_c, 6, 42, 64
9, 272640, Note_on_c, 6, 39, 102
9, 272644, Note_off_c, 6, 49, 64
9, 272644, Note_on_c, 6, 46, 102
9, 272648, Note_off_c, 6, 54, 64
9, 272648, Note_on_c, 6, 51, 102
9, 272652, Note_off_c, 6, 61, 64
9, 272652, Note_on_c, 6, 54, 70
9, 272656, Note_on_c, 6, 58, 70
9, 273360, Note_off_c, 6, 58, 64
9, 273360, Note_off_c, 6, 39, 64
9, 273360, Note_off_c, 6, 46, 64
9, 273360, Note_off_c, 6, 51, 64
9, 273360, Note_off_c, 6, 54, 64
9, 273360, Note_on_c, 6, 39, 102
9, 273364, Note_on_c, 6, 46, 102
9, 273368, Note_on_c, 6, 51, 102
9, 273372, Note_on_c, 6, 54, 70
9, 273376, Note_on_c, 6, 58, 70
9, 274080, Note_off_c, 6, 58, 64
9, 274080, Note_off_c, 6, 54, 64
9, 274080, Note_off_c, 6, 51, 64
9, 274080, Note_off_c, 6, 46, 64
9, 274080, Note_off_c, 6, 39, 64
9, 274080, Note_on_c, 6, 39, 108
9, 274320, Note_off_c, 6, 39, 64
9, 274320, Note_on_c, 6, 41, 108
9, 274560, Note_off_c, 6, 41, 64
9, 274560, Note_on_c, 6, 42, 102
9, 274564, Note_on_c, 6, 49, 102
9, 274568, Note_on_c, 6, 54, 102
9, 274572, Note_on_c, 6, 61, 89
9, 275280, Note_off_c, 6, 61, 64
9, 275280, Note_off_c, 6, 54, 64
9, 275280, Note_off_c, 6, 49, 64
9, 275280, Note_off_c, 6, 42, 64
9, 275280, Note_on_c, 6, 42, 102
9, 275284, Note_on_c, 6, 49, 102
9, 275288, Note_on_c, 6, 54, 102
9, 275292, Note_on_c, 6, 61, 89
9, 276000, Note_off_c, 6, 61, 64
9, 276000, Note_off_c, 6, 54, 64
9, 276000, Note_off_c, 6, 49, 64
9, 276000, Note_off_c, 6, 42, 64
9, 276000, Note_on_c, 6, 42, 102
9, 276004, Note_on_c, 6, 49, 102
9, 276008, Note_on_c, 6, 54, 102
9, 276012, Note_on_c, 6, 61, 89
9, 276240, Note_off_c, 6, 61, 64
9, 276240, Note_off_c, 6, 54, 64
9, 276240, Note_off_c, 6, 49, 64
9, 276240, Note_off_c, 6, 42, 64
9, 276240, Note_on_c, 6, 42, 102
9, 276244, Note_on_c, 6, 49, 102
9, 276248, Note_on_c, 6, 54, 102
9, 276252, Note_on_c, 6, 61, 89
9, 276480, Note_off_c, 6, 61, 64
9, 276480, Note_off_c, 6, 54, 64
9, 276480, Note_off_c, 6, 49, 64
9, 276480, Note_off_c, 6, 42, 64
9, 276480, Note_on_c, 6, 44, 102
9, 276484, Note_on_c, 6, 51, 102
9, 276488, Note_on_c, 6, 56, 102
9, 277200, Note_off_c, 6, 56, 64
9, 277200, Note_off_c, 6, 51, 64
9, 277200, Note_off_c, 6, 44, 64
9, 277200, Note_on_c, 6, 44, 102
9, 277204, Note_on_c, 6, 51, 102
9, 277208, Note_on_c, 6, 56, 102
9, 277920, Note_off_c, 6, 56, 64
9, 277920, Note_off_c, 6, 51, 64
9, 277920, Note_off_c, 6, 44, 64
9, 277920, Note_on_c, 6, 44, 102
9, 277924, Note_on_c, 6, 51, 102
9, 277928, Note_on_c, 6, 56, 102
9, 278160, Note_off_c, 6, 44, 64
9, 278160, Note_on_c, 6, 44, 102
9, 278164, Note_off_c, 6, 51, 64
9, 278164, Note_on_c, 6, 51, 102
9, 278168, Note_off_c, 6, 56, 64
9, 278168, Note_on_c, 6, 56, 102
9, 278400, Note_off_c, 6, 44, 64
9, 278400, Note_on_c, 6, 47, 102
9, 278404, Note_off_c, 6, 51, 64
9, 278404, Note_on_c, 6, 54, 102
9, 278408, Note_off_c, 6, 56, 64
9, 278408, Note_on_c, 6, 59, 102
9, 278880, Note_off_c, 6, 47, 64
9, 278880, Note_off_c, 6, 54, 64
9, 278880, Note_on_c, 6, 47, 102
9, 278884, Note_off_c, 6, 59, 64
9, 278884, Note_on_c, 6, 54, 102
9, 278888, Note_on_c, 6, 59, 102
9, 279120, Note_off_c, 6, 59, 64
9, 279120, Note_off_c, 6, 47, 64
9, 279120, Note_off_c, 6, 54, 64
9, 279120, Note_on_c, 6, 47, 102
9, 279124, Note_on_c, 6, 54, 102
9, 279128, Note_on_c, 6, 59, 102
9, 279240, Note_off_c, 6, 59, 64
9, 279240, Note_off_c, 6, 54, 64
9, 279240, Note_off_c, 6, 47, 64
9, 279240, Note_on_c, 6, 47, 102
9, 279244, Note_on_c, 6, 54, 102
9, 279248, Note_on_c, 6, 59, 102
9, 279360, Note_off_c, 6, 59, 64
9, 279360, Note_off_c, 6, 54, 64
9, 279360, Note_off_c, 6, 47, 64
9, 279360, Note_on_c, 6, 49, 102
9, 279364, Note_on_c, 6, 56, 102
9, 279368, Note_on_c, 6, 61, 102
9, 279840, Note_off_c, 6, 61, 64
9, 279840, Note_off_c, 6, 56, 64
9, 279840, Note_off_c, 6, 49, 64
9, 279840, Note_on_c, 6, 42, 102
9, 279844, Note_on_c, 6, 49, 102
9, 279848, Note_on_c, 6, 54, 102
9, 279852, Note_on_c, 6, 61, 89
9, 280320, Note_off_c, 6, 42, 64
9, 280324, Note_off_c, 6, 49, 64
9, 280328, Note_off_c, 6, 54, 64
9, 280332, Note_off_c, 6, 61, 64
9, 355200, Control_c, 0, 121, 0
9, 355200, End_track
10, 0, Start_track
10, 0, Title_t, "Rhthym Guitar Clean & Dist"
10, 0, MIDI_port, 0
10, 0, Control_c, 7, 121, 0
10, 0, Control_c, 7, 100, 0
10, 0, Control_c, 7, 101, 0
10, 0, Control_c, 7, 6, 12
10, 0, Control_c, 7, 100, 127
10, 0, Control_c, 7, 101, 127
10, 0, Control_c, 7, 1, 0
10, 0, Control_c, 7, 11, 127
10, 0, Control_c, 7, 64, 0
10, 0, Control_c, 7, 7, 89
10, 0, Control_c, 7, 10, 127
10, 0, Control_c, 7, 91, 64
10, 0, Control_c, 7, 93, 51
10, 4, Program_c, 7, 27
10, 48000, Note_on_c, 7, 61, 89
10, 48012, Note_on_c, 7, 65, 89
10, 48024, Note_on_c, 7, 68, 89
10, 48036, Note_on_c, 7, 73, 89
10, 50208, Note_off_c, 7, 61, 64
10, 50220, Note_off_c, 7, 65, 64
10, 50232, Note_off_c, 7, 68, 64
10, 50244, Note_off_c, 7, 73, 64
10, 51840, Note_on_c, 7, 59, 89
10, 51852, Note_on_c, 7, 63, 89
10, 51864, Note_on_c, 7, 66, 89
10, 51876, Note_on_c, 7, 71, 89
10, 53568, Note_off_c, 7, 59, 64
10, 53580, Note_off_c, 7, 63, 64
10, 53592, Note_off_c, 7, 66, 64
10, 53604, Note_off_c, 7, 71, 64
10, 53760, Note_on_c, 7, 73, 102
10, 54000, Pitch_bend_c, 7, 6842
10, 54480, Note_off_c, 7, 73, 64
10, 54480, Pitch_bend_c, 7, 8192
10, 54480, Note_on_c, 7, 66, 95
10, 54964, Pitch_bend_c, 7, 8055
10, 54972, Pitch_bend_c, 7, 7782
10, 54980, Pitch_bend_c, 7, 7509
10, 54988, Pitch_bend_c, 7, 7235
10, 54996, Pitch_bend_c, 7, 6962
10, 55004, Pitch_bend_c, 7, 6689
10, 55012, Pitch_bend_c, 7, 6415
10, 55020, Pitch_bend_c, 7, 6142
10, 55200, Note_off_c, 7, 66, 64
10, 55680, Pitch_bend_c, 7, 8192
10, 55680, Note_on_c, 7, 54, 102
10, 55704, Note_on_c, 7, 61, 102
10, 55728, Note_on_c, 7, 66, 102
10, 57600, Note_off_c, 7, 54, 64
10, 57600, Control_c, 7, 64, 127
10, 57600, Note_on_c, 7, 66, 89
10, 57624, Note_off_c, 7, 61, 64
10, 57648, Note_off_c, 7, 66, 64
10, 57840, Note_off_c, 7, 66, 64
10, 57840, Note_on_c, 7, 61, 89
10, 58080, Note_off_c, 7, 61, 64
10, 58080, Note_on_c, 7, 54, 89
10, 58320, Note_off_c, 7, 54, 64
10, 58320, Note_on_c, 7, 66, 89
10, 58800, Note_off_c, 7, 66, 64
10, 58800, Note_on_c, 7, 61, 89
10, 59040, Note_off_c, 7, 61, 64
10, 59040, Note_on_c, 7, 66, 89
10, 59520, Note_off_c, 7, 66, 64
10, 59520, Note_on_c, 7, 56, 89
10, 59520, Control_c, 7, 64, 0
10, 59520, Note_on_c, 7, 49, 89
10, 59528, Note_on_c, 7, 61, 89
10, 59532, Note_on_c, 7, 65, 76
10, 60000, Note_off_c, 7, 65, 64
10, 60000, Note_off_c, 7, 61, 64
10, 60000, Note_off_c, 7, 49, 64
10, 60000, Note_off_c, 7, 56, 64
10, 60000, Note_on_c, 7, 56, 83
10, 60000, Control_c, 7, 64, 0
10, 60000, Note_on_c, 7, 49, 83
10, 60008, Note_on_c, 7, 61, 83
10, 60012, Note_on_c, 7, 65, 70
10, 61200, Note_on_c, 7, 56, 89
10, 61200, Control_c, 7, 64, 0
10, 61200, Note_on_c, 7, 49, 89
10, 61208, Note_on_c, 7, 61, 89
10, 61212, Note_off_c, 7, 65, 64
10, 61212, Note_on_c, 7, 65, 76
10, 61440, Note_on_c, 7, 56, 89
10, 61440, Control_c, 7, 64, 0
10, 61440, Note_on_c, 7, 49, 89
10, 61448, Note_on_c, 7, 61, 89
10, 61452, Note_off_c, 7, 65, 64
10, 61680, Note_off_c, 7, 61, 64
10, 61680, Note_off_c, 7, 56, 64
10, 61680, Note_off_c, 7, 49, 64
10, 61920, Note_off_c, 7, 49, 64
10, 61920, Note_off_c, 7, 56, 64
10, 61928, Note_off_c, 7, 61, 64
10, 63360, Note_off_c, 7, 49, 64
10, 63360, Note_off_c, 7, 56, 64
10, 63360, Control_c, 7, 64, 127
10, 63360, Note_on_c, 7, 49, 85
10, 63368, Note_off_c, 7, 61, 64
10, 63600, Note_off_c, 7, 49, 64
10, 63600, Note_on_c, 7, 61, 85
10, 63840, Note_off_c, 7, 61, 64
10, 63840, Note_on_c, 7, 56, 85
10, 64080, Note_off_c, 7, 56, 64
10, 64080, Note_on_c, 7, 63, 85
10, 64560, Note_off_c, 7, 63, 64
10, 64560, Note_on_c, 7, 61, 85
10, 64800, Note_off_c, 7, 61, 64
10, 64800, Note_on_c, 7, 56, 85
10, 65040, Note_off_c, 7, 56, 64
10, 65040, Note_on_c, 7, 65, 85
10, 65280, Note_off_c, 7, 65, 64
10, 65280, Note_on_c, 7, 61, 85
10, 65520, Note_off_c, 7, 61, 64
10, 65520, Note_on_c, 7, 56, 85
10, 65760, Note_off_c, 7, 56, 64
10, 65760, Note_on_c, 7, 49, 85
10, 66000, Note_off_c, 7, 49, 64
10, 66000, Control_c, 7, 64, 0
10, 66000, Note_on_c, 7, 65, 85
10, 66240, Note_off_c, 7, 65, 64
10, 66240, Note_on_c, 7, 66, 85
10, 66480, Note_off_c, 7, 66, 64
10, 66480, Note_on_c, 7, 65, 85
10, 66720, Note_off_c, 7, 65, 64
10, 66720, Note_on_c, 7, 63, 85
10, 66960, Note_off_c, 7, 63, 64
10, 66960, Note_on_c, 7, 61, 85
10, 67200, Note_off_c, 7, 61, 64
10, 67200, Control_c, 7, 64, 127
10, 67200, Note_on_c, 7, 47, 85
10, 67440, Note_off_c, 7, 47, 64
10, 67440, Note_on_c, 7, 54, 85
10, 67680, Note_off_c, 7, 54, 64
10, 67680, Note_on_c, 7, 51, 85
10, 67920, Note_off_c, 7, 51, 64
10, 67920, Note_on_c, 7, 61, 85
10, 68400, Note_off_c, 7, 61, 64
10, 68400, Note_on_c, 7, 54, 85
10, 68640, Note_off_c, 7, 54, 64
10, 68640, Note_on_c, 7, 51, 85
10, 68880, Note_off_c, 7, 51, 64
10, 68880, Note_on_c, 7, 63, 85
10, 69120, Note_off_c, 7, 63, 64
10, 69120, Note_on_c, 7, 63, 85
10, 69360, Note_off_c, 7, 63, 64
10, 69360, Note_on_c, 7, 61, 85
10, 69600, Note_off_c, 7, 61, 64
10, 69600, Note_on_c, 7, 47, 85
10, 69840, Note_off_c, 7, 47, 64
10, 69840, Note_on_c, 7, 61, 85
10, 70320, Note_off_c, 7, 61, 64
10, 70320, Note_on_c, 7, 54, 85
10, 70560, Note_off_c, 7, 54, 64
10, 70560, Note_on_c, 7, 47, 85
10, 70800, Note_off_c, 7, 47, 64
10, 70800, Note_on_c, 7, 54, 85
10, 71040, Note_off_c, 7, 54, 64
10, 71040, Note_on_c, 7, 56, 85
10, 71280, Pitch_bend_c, 7, 9567
10, 71520, Note_off_c, 7, 56, 64
10, 71520, Pitch_bend_c, 7, 8192
10, 71520, Note_on_c, 7, 61, 85
10, 71760, Note_off_c, 7, 61, 64
10, 71760, Note_on_c, 7, 56, 85
10, 72000, Pitch_bend_c, 7, 9567
10, 72240, Note_off_c, 7, 56, 64
10, 72240, Pitch_bend_c, 7, 8192
10, 72240, Note_on_c, 7, 61, 85
10, 72720, Note_off_c, 7, 61, 64
10, 72720, Note_on_c, 7, 54, 85
10, 72960, Note_off_c, 7, 54, 64
10, 72960, Note_on_c, 7, 63, 85
10, 73200, Note_off_c, 7, 63, 64
10, 73200, Note_on_c, 7, 61, 85
10, 73440, Note_off_c, 7, 61, 64
10, 73440, Note_on_c, 7, 54, 85
10, 73680, Note_off_c, 7, 54, 64
10, 73680, Note_on_c, 7, 61, 85
10, 74160, Note_off_c, 7, 61, 64
10, 74160, Note_on_c, 7, 63, 85
10, 74400, Note_off_c, 7, 63, 64
10, 74400, Note_on_c, 7, 61, 85
10, 74640, Note_off_c, 7, 61, 64
10, 74640, Note_on_c, 7, 54, 85
10, 74880, Note_off_c, 7, 54, 64
10, 74880, Control_c, 7, 64, 0
10, 74880, Note_on_c, 7, 49, 85
10, 75120, Note_on_c, 7, 61, 85
10, 75240, Note_off_c, 7, 49, 64
10, 75360, Note_on_c, 7, 56, 85
10, 75480, Note_off_c, 7, 61, 64
10, 75600, Note_on_c, 7, 54, 85
10, 75720, Note_off_c, 7, 56, 64
10, 76080, Note_on_c, 7, 61, 85
10, 76200, Note_off_c, 7, 54, 64
10, 76320, Note_on_c, 7, 54, 85
10, 76440, Note_off_c, 7, 61, 64
10, 76560, Note_off_c, 7, 54, 64
10, 76560, Note_on_c, 7, 56, 85
10, 76564, Note_on_c, 7, 61, 85
10, 76568, Note_on_c, 7, 66, 85
10, 77036, Note_off_c, 7, 66, 64
10, 77036, Note_off_c, 7, 61, 64
10, 77040, Note_off_c, 7, 56, 64
10, 77040, Note_on_c, 7, 61, 89
10, 77280, Note_off_c, 7, 61, 64
10, 77280, Note_on_c, 7, 56, 89
10, 77760, Note_off_c, 7, 56, 64
10, 77760, Note_on_c, 7, 49, 89
10, 77768, Note_on_c, 7, 56, 89
10, 77776, Note_on_c, 7, 61, 89
10, 77784, Note_on_c, 7, 65, 83
10, 78720, Note_off_c, 7, 49, 64
10, 78720, Program_c, 7, 30
10, 78720, Pitch_bend_c, 7, 8192
10, 78720, Note_on_c, 7, 44, 102
10, 78728, Note_off_c, 7, 56, 64
10, 78728, Note_on_c, 7, 51, 102
10, 78736, Note_off_c, 7, 61, 64
10, 78736, Note_on_c, 7, 56, 102
10, 78744, Note_off_c, 7, 65, 64
10, 79200, Note_off_c, 7, 44, 64
10, 79208, Note_off_c, 7, 51, 64
10, 79216, Note_off_c, 7, 56, 64
10, 79440, Note_on_c, 7, 44, 102
10, 79448, Note_on_c, 7, 51, 102
10, 79456, Note_on_c, 7, 56, 102
10, 80160, Note_off_c, 7, 56, 64
10, 80160, Note_off_c, 7, 51, 64
10, 80160, Note_off_c, 7, 44, 64
10, 80160, Note_on_c, 7, 46, 102
10, 80168, Note_on_c, 7, 53, 102
10, 80176, Note_on_c, 7, 58, 102
10, 80388, Note_off_c, 7, 58, 64
10, 80400, Note_off_c, 7, 53, 64
10, 80400, Note_off_c, 7, 46, 64
10, 80400, Note_on_c, 7, 46, 102
10, 80408, Note_on_c, 7, 53, 102
10, 80416, Note_on_c, 7, 58, 102
10, 80628, Note_off_c, 7, 46, 64
10, 80640, Note_off_c, 7, 53, 64
10, 80640, Note_off_c, 7, 58, 64
10, 80640, Note_on_c, 7, 47, 102
10, 80648, Note_on_c, 7, 54, 102
10, 80656, Note_on_c, 7, 59, 102
10, 81120, Note_off_c, 7, 47, 64
10, 81128, Note_off_c, 7, 54, 64
10, 81136, Note_off_c, 7, 59, 64
10, 81360, Note_on_c, 7, 47, 102
10, 81368, Note_on_c, 7, 54, 102
10, 81376, Note_on_c, 7, 59, 102
10, 82560, Note_off_c, 7, 47, 64
10, 82560, Note_on_c, 7, 49, 102
10, 82568, Note_off_c, 7, 54, 64
10, 82568, Note_on_c, 7, 56, 102
10, 82576, Note_off_c, 7, 59, 64
10, 82576, Note_on_c, 7, 61, 102
10, 83280, Note_off_c, 7, 49, 64
10, 83280, Note_off_c, 7, 56, 64
10, 83280, Note_off_c, 7, 61, 64
10, 83280, Note_on_c, 7, 49, 102
10, 83288, Note_on_c, 7, 56, 102
10, 83296, Note_on_c, 7, 61, 102
10, 83520, Note_off_c, 7, 61, 64
10, 83520, Note_off_c, 7, 56, 64
10, 83520, Note_off_c, 7, 49, 64
10, 83520, Note_on_c, 7, 49, 102
10, 83528, Note_on_c, 7, 56, 102
10, 83536, Note_on_c, 7, 61, 102
10, 84240, Note_off_c, 7, 61, 64
10, 84240, Note_off_c, 7, 56, 64
10, 84240, Note_off_c, 7, 49, 64
10, 84240, Note_on_c, 7, 49, 102
10, 84248, Note_on_c, 7, 56, 102
10, 84256, Note_on_c, 7, 61, 102
10, 84480, Note_off_c, 7, 49, 64
10, 84480, Note_on_c, 7, 49, 89
10, 84484, Note_on_c, 7, 56, 89
10, 84488, Note_off_c, 7, 56, 64
10, 84488, Note_on_c, 7, 61, 89
10, 84492, Note_on_c, 7, 66, 89
10, 84496, Note_off_c, 7, 61, 64
10, 84720, Note_off_c, 7, 49, 64
10, 84720, Note_off_c, 7, 56, 64
10, 84720, Note_off_c, 7, 61, 64
10, 84720, Note_off_c, 7, 66, 64
10, 84720, Note_on_c, 7, 49, 89
10, 84724, Note_on_c, 7, 56, 89
10, 84728, Note_on_c, 7, 61, 89
10, 84732, Note_on_c, 7, 65, 89
10, 84960, Note_off_c, 7, 65, 64
10, 84960, Note_off_c, 7, 61, 64
10, 84960, Note_off_c, 7, 56, 64
10, 84960, Note_off_c, 7, 49, 64
10, 84960, Note_on_c, 7, 49, 89
10, 84964, Note_on_c, 7, 56, 89
10, 84968, Note_on_c, 7, 61, 89
10, 84972, Note_on_c, 7, 63, 89
10, 85200, Note_off_c, 7, 61, 64
10, 85200, Note_off_c, 7, 56, 64
10, 85200, Note_off_c, 7, 49, 64
10, 85200, Note_on_c, 7, 49, 89
10, 85204, Note_on_c, 7, 56, 89
10, 85208, Note_on_c, 7, 61, 89
10, 85212, Note_off_c, 7, 63, 64
10, 85212, Note_on_c, 7, 65, 89
10, 86400, Note_off_c, 7, 49, 64
10, 86400, Note_on_c, 7, 44, 102
10, 86404, Note_off_c, 7, 56, 64
10, 86408, Note_off_c, 7, 61, 64
10, 86408, Note_on_c, 7, 51, 102
10, 86412, Note_off_c, 7, 65, 64
10, 86416, Note_on_c, 7, 56, 102
10, 86880, Note_off_c, 7, 44, 64
10, 86888, Note_off_c, 7, 51, 64
10, 86896, Note_off_c, 7, 56, 64
10, 87120, Note_on_c, 7, 44, 102
10, 87128, Note_on_c, 7, 51, 102
10, 87136, Note_on_c, 7, 56, 102
10, 87840, Note_off_c, 7, 56, 64
10, 87840, Note_off_c, 7, 51, 64
10, 87840, Note_off_c, 7, 44, 64
10, 87840, Note_on_c, 7, 46, 102
10, 87848, Note_on_c, 7, 53, 102
10, 87856, Note_on_c, 7, 58, 102
10, 88068, Note_off_c, 7, 58, 64
10, 88080, Note_off_c, 7, 53, 64
10, 88080, Note_off_c, 7, 46, 64
10, 88080, Note_on_c, 7, 46, 102
10, 88088, Note_on_c, 7, 53, 102
10, 88096, Note_on_c, 7, 58, 102
10, 88308, Note_off_c, 7, 46, 64
10, 88320, Note_off_c, 7, 53, 64
10, 88320, Note_off_c, 7, 58, 64
10, 88320, Note_on_c, 7, 47, 102
10, 88328, Note_on_c, 7, 54, 102
10, 88336, Note_on_c, 7, 59, 102
10, 88800, Note_off_c, 7, 47, 64
10, 88808, Note_off_c, 7, 54, 64
10, 88816, Note_off_c, 7, 59, 64
10, 89040, Note_on_c, 7, 47, 102
10, 89048, Note_on_c, 7, 54, 102
10, 89056, Note_on_c, 7, 59, 102
10, 90240, Note_off_c, 7, 47, 64
10, 90240, Note_on_c, 7, 49, 102
10, 90248, Note_off_c, 7, 54, 64
10, 90248, Note_on_c, 7, 56, 102
10, 90256, Note_off_c, 7, 59, 64
10, 90256, Note_on_c, 7, 61, 102
10, 92160, Note_off_c, 7, 49, 64
10, 92160, Note_on_c, 7, 49, 81
10, 92168, Note_off_c, 7, 56, 64
10, 92168, Note_on_c, 7, 56, 81
10, 92176, Note_off_c, 7, 61, 64
10, 92176, Note_on_c, 7, 61, 81
10, 92880, Note_off_c, 7, 49, 64
10, 92880, Note_on_c, 7, 49, 81
10, 92888, Note_off_c, 7, 56, 64
10, 92888, Note_on_c, 7, 56, 81
10, 92896, Note_off_c, 7, 61, 64
10, 92896, Note_on_c, 7, 61, 81
10, 93120, Note_off_c, 7, 49, 64
10, 93120, Note_on_c, 7, 49, 81
10, 93128, Note_off_c, 7, 56, 64
10, 93128, Note_on_c, 7, 56, 81
10, 93136, Note_off_c, 7, 61, 64
10, 93136, Note_on_c, 7, 61, 81
10, 93600, Note_off_c, 7, 49, 64
10, 93600, Note_on_c, 7, 49, 81
10, 93608, Note_off_c, 7, 56, 64
10, 93608, Note_on_c, 7, 56, 81
10, 93616, Note_off_c, 7, 61, 64
10, 93616, Note_on_c, 7, 61, 81
10, 94080, Note_off_c, 7, 49, 64
10, 94088, Note_off_c, 7, 56, 64
10, 94096, Note_off_c, 7, 61, 64
10, 109440, Program_c, 7, 27
10, 109440, Note_on_c, 7, 61, 89
10, 109452, Note_on_c, 7, 65, 89
10, 109464, Note_on_c, 7, 68, 89
10, 109476, Note_on_c, 7, 73, 89
10, 111648, Note_off_c, 7, 61, 64
10, 111660, Note_off_c, 7, 65, 64
10, 111672, Note_off_c, 7, 68, 64
10, 111684, Note_off_c, 7, 73, 64
10, 113280, Note_on_c, 7, 59, 89
10, 113292, Note_on_c, 7, 63, 89
10, 113304, Note_on_c, 7, 66, 89
10, 113316, Note_on_c, 7, 71, 89
10, 115008, Note_off_c, 7, 59, 64
10, 115020, Note_off_c, 7, 63, 64
10, 115032, Note_off_c, 7, 66, 64
10, 115044, Note_off_c, 7, 71, 64
10, 115200, Note_on_c, 7, 73, 102
10, 115440, Pitch_bend_c, 7, 6842
10, 115920, Note_off_c, 7, 73, 64
10, 115920, Pitch_bend_c, 7, 8192
10, 115920, Note_on_c, 7, 66, 95
10, 116404, Pitch_bend_c, 7, 8055
10, 116412, Pitch_bend_c, 7, 7782
10, 116420, Pitch_bend_c, 7, 7509
10, 116428, Pitch_bend_c, 7, 7235
10, 116436, Pitch_bend_c, 7, 6962
10, 116444, Pitch_bend_c, 7, 6689
10, 116452, Pitch_bend_c, 7, 6415
10, 116460, Pitch_bend_c, 7, 6142
10, 116640, Note_off_c, 7, 66, 64
10, 117120, Pitch_bend_c, 7, 8192
10, 117120, Note_on_c, 7, 54, 102
10, 117144, Note_on_c, 7, 61, 102
10, 117168, Note_on_c, 7, 66, 102
10, 119040, Note_off_c, 7, 54, 64
10, 119040, Control_c, 7, 64, 127
10, 119040, Note_on_c, 7, 66, 89
10, 119064, Note_off_c, 7, 61, 64
10, 119088, Note_off_c, 7, 66, 64
10, 119280, Note_off_c, 7, 66, 64
10, 119280, Note_on_c, 7, 61, 89
10, 119520, Note_off_c, 7, 61, 64
10, 119520, Note_on_c, 7, 54, 89
10, 119760, Note_off_c, 7, 54, 64
10, 119760, Note_on_c, 7, 66, 89
10, 120240, Note_off_c, 7, 66, 64
10, 120240, Note_on_c, 7, 61, 89
10, 120480, Note_off_c, 7, 61, 64
10, 120480, Note_on_c, 7, 66, 89
10, 120960, Note_off_c, 7, 66, 64
10, 120960, Note_on_c, 7, 56, 89
10, 120960, Control_c, 7, 64, 0
10, 120960, Note_on_c, 7, 49, 89
10, 120968, Note_on_c, 7, 61, 89
10, 120972, Note_on_c, 7, 65, 76
10, 121440, Note_off_c, 7, 65, 64
10, 121440, Note_off_c, 7, 61, 64
10, 121440, Note_off_c, 7, 49, 64
10, 121440, Note_off_c, 7, 56, 64
10, 121440, Note_on_c, 7, 56, 83
10, 121440, Control_c, 7, 64, 0
10, 121440, Note_on_c, 7, 49, 83
10, 121448, Note_on_c, 7, 61, 83
10, 121452, Note_on_c, 7, 65, 70
10, 122640, Note_on_c, 7, 56, 89
10, 122640, Control_c, 7, 64, 0
10, 122640, Note_on_c, 7, 49, 89
10, 122648, Note_on_c, 7, 61, 89
10, 122652, Note_off_c, 7, 65, 64
10, 122652, Note_on_c, 7, 65, 76
10, 122880, Note_on_c, 7, 56, 89
10, 122880, Control_c, 7, 64, 0
10, 122880, Note_on_c, 7, 49, 89
10, 122888, Note_on_c, 7, 61, 89
10, 122892, Note_off_c, 7, 65, 64
10, 123120, Note_off_c, 7, 61, 64
10, 123120, Note_off_c, 7, 56, 64
10, 123120, Note_off_c, 7, 49, 64
10, 123360, Note_off_c, 7, 49, 64
10, 123360, Note_off_c, 7, 56, 64
10, 123368, Note_off_c, 7, 61, 64
10, 124800, Note_off_c, 7, 49, 64
10, 124800, Note_off_c, 7, 56, 64
10, 124800, Control_c, 7, 64, 127
10, 124800, Note_on_c, 7, 49, 85
10, 124808, Note_off_c, 7, 61, 64
10, 125040, Note_off_c, 7, 49, 64
10, 125040, Note_on_c, 7, 61, 85
10, 125280, Note_off_c, 7, 61, 64
10, 125280, Note_on_c, 7, 56, 85
10, 125520, Note_off_c, 7, 56, 64
10, 125520, Note_on_c, 7, 63, 85
10, 126000, Note_off_c, 7, 63, 64
10, 126000, Note_on_c, 7, 61, 85
10, 126240, Note_off_c, 7, 61, 64
10, 126240, Note_on_c, 7, 56, 85
10, 126480, Note_off_c, 7, 56, 64
10, 126480, Note_on_c, 7, 65, 85
10, 126720, Note_off_c, 7, 65, 64
10, 126720, Note_on_c, 7, 61, 85
10, 126960, Note_off_c, 7, 61, 64
10, 126960, Note_on_c, 7, 56, 85
10, 127200, Note_off_c, 7, 56, 64
10, 127200, Note_on_c, 7, 49, 85
10, 127440, Note_off_c, 7, 49, 64
10, 127440, Control_c, 7, 64, 0
10, 127440, Note_on_c, 7, 65, 85
10, 127680, Note_off_c, 7, 65, 64
10, 127680, Note_on_c, 7, 66, 85
10, 127920, Note_off_c, 7, 66, 64
10, 127920, Note_on_c, 7, 65, 85
10, 128160, Note_off_c, 7, 65, 64
10, 128160, Note_on_c, 7, 63, 85
10, 128400, Note_off_c, 7, 63, 64
10, 128400, Note_on_c, 7, 61, 85
10, 128640, Note_off_c, 7, 61, 64
10, 128640, Control_c, 7, 64, 127
10, 128640, Note_on_c, 7, 47, 85
10, 128880, Note_off_c, 7, 47, 64
10, 128880, Note_on_c, 7, 54, 85
10, 129120, Note_off_c, 7, 54, 64
10, 129120, Note_on_c, 7, 51, 85
10, 129360, Note_off_c, 7, 51, 64
10, 129360, Note_on_c, 7, 61, 85
10, 129840, Note_off_c, 7, 61, 64
10, 129840, Note_on_c, 7, 54, 85
10, 130080, Note_off_c, 7, 54, 64
10, 130080, Note_on_c, 7, 51, 85
10, 130320, Note_off_c, 7, 51, 64
10, 130320, Note_on_c, 7, 63, 85
10, 130560, Note_off_c, 7, 63, 64
10, 130560, Note_on_c, 7, 63, 85
10, 130800, Note_off_c, 7, 63, 64
10, 130800, Note_on_c, 7, 61, 85
10, 131040, Note_off_c, 7, 61, 64
10, 131040, Note_on_c, 7, 47, 85
10, 131280, Note_off_c, 7, 47, 64
10, 131280, Note_on_c, 7, 61, 85
10, 131760, Note_off_c, 7, 61, 64
10, 131760, Note_on_c, 7, 54, 85
10, 132000, Note_off_c, 7, 54, 64
10, 132000, Note_on_c, 7, 47, 85
10, 132240, Note_off_c, 7, 47, 64
10, 132240, Note_on_c, 7, 54, 85
10, 132480, Note_off_c, 7, 54, 64
10, 132480, Note_on_c, 7, 56, 85
10, 132720, Pitch_bend_c, 7, 9567
10, 132960, Note_off_c, 7, 56, 64
10, 132960, Pitch_bend_c, 7, 8192
10, 132960, Note_on_c, 7, 61, 85
10, 133200, Note_off_c, 7, 61, 64
10, 133200, Note_on_c, 7, 56, 85
10, 133440, Pitch_bend_c, 7, 9567
10, 133680, Note_off_c, 7, 56, 64
10, 133680, Pitch_bend_c, 7, 8192
10, 133680, Note_on_c, 7, 61, 85
10, 134160, Note_off_c, 7, 61, 64
10, 134160, Note_on_c, 7, 54, 85
10, 134400, Note_off_c, 7, 54, 64
10, 134400, Note_on_c, 7, 63, 85
10, 134640, Note_off_c, 7, 63, 64
10, 134640, Note_on_c, 7, 61, 85
10, 134880, Note_off_c, 7, 61, 64
10, 134880, Note_on_c, 7, 54, 85
10, 135120, Note_off_c, 7, 54, 64
10, 135120, Note_on_c, 7, 61, 85
10, 135600, Note_off_c, 7, 61, 64
10, 135600, Note_on_c, 7, 63, 85
10, 135840, Note_off_c, 7, 63, 64
10, 135840, Note_on_c, 7, 61, 85
10, 136080, Note_off_c, 7, 61, 64
10, 136080, Note_on_c, 7, 54, 85
10, 136320, Note_off_c, 7, 54, 64
10, 136320, Control_c, 7, 64, 0
10, 136320, Note_on_c, 7, 49, 85
10, 136560, Note_on_c, 7, 61, 85
10, 136680, Note_off_c, 7, 49, 64
10, 136800, Note_on_c, 7, 56, 85
10, 136920, Note_off_c, 7, 61, 64
10, 137040, Note_on_c, 7, 54, 85
10, 137160, Note_off_c, 7, 56, 64
10, 137520, Note_on_c, 7, 61, 85
10, 137640, Note_off_c, 7, 54, 64
10, 137760, Note_on_c, 7, 54, 85
10, 137880, Note_off_c, 7, 61, 64
10, 138000, Note_off_c, 7, 54, 64
10, 138000, Note_on_c, 7, 56, 85
10, 138004, Note_on_c, 7, 61, 85
10, 138008, Note_on_c, 7, 66, 85
10, 138476, Note_off_c, 7, 66, 64
10, 138476, Note_off_c, 7, 61, 64
10, 138480, Note_off_c, 7, 56, 64
10, 138480, Note_on_c, 7, 61, 89
10, 138720, Note_off_c, 7, 61, 64
10, 138720, Note_on_c, 7, 56, 89
10, 139200, Note_off_c, 7, 56, 64
10, 139200, Note_on_c, 7, 49, 89
10, 139208, Note_on_c, 7, 56, 89
10, 139216, Note_on_c, 7, 61, 89
10, 139224, Note_on_c, 7, 65, 83
10, 140160, Note_off_c, 7, 49, 64
10, 140160, Program_c, 7, 30
10, 140160, Pitch_bend_c, 7, 8192
10, 140160, Note_on_c, 7, 44, 102
10, 140168, Note_off_c, 7, 56, 64
10, 140168, Note_on_c, 7, 51, 102
10, 140176, Note_off_c, 7, 61, 64
10, 140176, Note_on_c, 7, 56, 102
10, 140184, Note_off_c, 7, 65, 64
10, 140640, Note_off_c, 7, 44, 64
10, 140648, Note_off_c, 7, 51, 64
10, 140656, Note_off_c, 7, 56, 64
10, 140880, Note_on_c, 7, 44, 102
10, 140888, Note_on_c, 7, 51, 102
10, 140896, Note_on_c, 7, 56, 102
10, 141600, Note_off_c, 7, 56, 64
10, 141600, Note_off_c, 7, 51, 64
10, 141600, Note_off_c, 7, 44, 64
10, 141600, Note_on_c, 7, 46, 102
10, 141608, Note_on_c, 7, 53, 102
10, 141616, Note_on_c, 7, 58, 102
10, 141828, Note_off_c, 7, 58, 64
10, 141840, Note_off_c, 7, 53, 64
10, 141840, Note_off_c, 7, 46, 64
10, 141840, Note_on_c, 7, 46, 102
10, 141848, Note_on_c, 7, 53, 102
10, 141856, Note_on_c, 7, 58, 102
10, 142068, Note_off_c, 7, 46, 64
10, 142080, Note_off_c, 7, 53, 64
10, 142080, Note_off_c, 7, 58, 64
10, 142080, Note_on_c, 7, 47, 102
10, 142088, Note_on_c, 7, 54, 102
10, 142096, Note_on_c, 7, 59, 102
10, 142560, Note_off_c, 7, 47, 64
10, 142568, Note_off_c, 7, 54, 64
10, 142576, Note_off_c, 7, 59, 64
10, 142800, Note_on_c, 7, 47, 102
10, 142808, Note_on_c, 7, 54, 102
10, 142816, Note_on_c, 7, 59, 102
10, 144000, Note_off_c, 7, 47, 64
10, 144000, Note_on_c, 7, 49, 102
10, 144008, Note_off_c, 7, 54, 64
10, 144008, Note_on_c, 7, 56, 102
10, 144016, Note_off_c, 7, 59, 64
10, 144016, Note_on_c, 7, 61, 102
10, 144720, Note_off_c, 7, 49, 64
10, 144720, Note_off_c, 7, 56, 64
10, 144720, Note_off_c, 7, 61, 64
10, 144720, Note_on_c, 7, 49, 102
10, 144728, Note_on_c, 7, 56, 102
10, 144736, Note_on_c, 7, 61, 102
10, 144960, Note_off_c, 7, 61, 64
10, 144960, Note_off_c, 7, 56, 64
10, 144960, Note_off_c, 7, 49, 64
10, 144960, Note_on_c, 7, 49, 102
10, 144968, Note_on_c, 7, 56, 102
10, 144976, Note_on_c, 7, 61, 102
10, 145680, Note_off_c, 7, 61, 64
10, 145680, Note_off_c, 7, 56, 64
10, 145680, Note_off_c, 7, 49, 64
10, 145680, Note_on_c, 7, 49, 102
10, 145688, Note_on_c, 7, 56, 102
10, 145696, Note_on_c, 7, 61, 102
10, 145920, Note_off_c, 7, 49, 64
10, 145920, Note_on_c, 7, 49, 89
10, 145924, Note_on_c, 7, 56, 89
10, 145928, Note_off_c, 7, 56, 64
10, 145928, Note_on_c, 7, 61, 89
10, 145932, Note_on_c, 7, 66, 89
10, 145936, Note_off_c, 7, 61, 64
10, 146160, Note_off_c, 7, 49, 64
10, 146160, Note_off_c, 7, 56, 64
10, 146160, Note_off_c, 7, 61, 64
10, 146160, Note_off_c, 7, 66, 64
10, 146160, Note_on_c, 7, 49, 89
10, 146164, Note_on_c, 7, 56, 89
10, 146168, Note_on_c, 7, 61, 89
10, 146172, Note_on_c, 7, 65, 89
10, 146400, Note_off_c, 7, 65, 64
10, 146400, Note_off_c, 7, 61, 64
10, 146400, Note_off_c, 7, 56, 64
10, 146400, Note_off_c, 7, 49, 64
10, 146400, Note_on_c, 7, 49, 89
10, 146404, Note_on_c, 7, 56, 89
10, 146408, Note_on_c, 7, 61, 89
10, 146412, Note_on_c, 7, 63, 89
10, 146640, Note_off_c, 7, 61, 64
10, 146640, Note_off_c, 7, 56, 64
10, 146640, Note_off_c, 7, 49, 64
10, 146640, Note_on_c, 7, 49, 89
10, 146644, Note_on_c, 7, 56, 89
10, 146648, Note_on_c, 7, 61, 89
10, 146652, Note_off_c, 7, 63, 64
10, 146652, Note_on_c, 7, 65, 89
10, 147840, Note_off_c, 7, 49, 64
10, 147840, Note_on_c, 7, 44, 102
10, 147844, Note_off_c, 7, 56, 64
10, 147848, Note_off_c, 7, 61, 64
10, 147848, Note_on_c, 7, 51, 102
10, 147852, Note_off_c, 7, 65, 64
10, 147856, Note_on_c, 7, 56, 102
10, 148320, Note_off_c, 7, 44, 64
10, 148328, Note_off_c, 7, 51, 64
10, 148336, Note_off_c, 7, 56, 64
10, 148560, Note_on_c, 7, 44, 102
10, 148568, Note_on_c, 7, 51, 102
10, 148576, Note_on_c, 7, 56, 102
10, 149280, Note_off_c, 7, 56, 64
10, 149280, Note_off_c, 7, 51, 64
10, 149280, Note_off_c, 7, 44, 64
10, 149280, Note_on_c, 7, 46, 102
10, 149288, Note_on_c, 7, 53, 102
10, 149296, Note_on_c, 7, 58, 102
10, 149508, Note_off_c, 7, 58, 64
10, 149520, Note_off_c, 7, 53, 64
10, 149520, Note_off_c, 7, 46, 64
10, 149520, Note_on_c, 7, 46, 102
10, 149528, Note_on_c, 7, 53, 102
10, 149536, Note_on_c, 7, 58, 102
10, 149748, Note_off_c, 7, 46, 64
10, 149760, Note_off_c, 7, 53, 64
10, 149760, Note_off_c, 7, 58, 64
10, 149760, Note_on_c, 7, 47, 102
10, 149768, Note_on_c, 7, 54, 102
10, 149776, Note_on_c, 7, 59, 102
10, 150240, Note_off_c, 7, 47, 64
10, 150248, Note_off_c, 7, 54, 64
10, 150256, Note_off_c, 7, 59, 64
10, 150480, Note_on_c, 7, 47, 102
10, 150488, Note_on_c, 7, 54, 102
10, 150496, Note_on_c, 7, 59, 102
10, 151680, Note_off_c, 7, 47, 64
10, 151680, Note_on_c, 7, 49, 102
10, 151688, Note_off_c, 7, 54, 64
10, 151688, Note_on_c, 7, 56, 102
10, 151696, Note_off_c, 7, 59, 64
10, 151696, Note_on_c, 7, 61, 102
10, 153600, Note_off_c, 7, 49, 64
10, 153600, Note_on_c, 7, 49, 81
10, 153608, Note_off_c, 7, 56, 64
10, 153608, Note_on_c, 7, 56, 81
10, 153616, Note_off_c, 7, 61, 64
10, 153616, Note_on_c, 7, 61, 81
10, 154320, Note_off_c, 7, 49, 64
10, 154320, Note_on_c, 7, 49, 81
10, 154328, Note_off_c, 7, 56, 64
10, 154328, Note_on_c, 7, 56, 81
10, 154336, Note_off_c, 7, 61, 64
10, 154336, Note_on_c, 7, 61, 81
10, 154560, Note_off_c, 7, 49, 64
10, 154560, Note_on_c, 7, 49, 81
10, 154568, Note_off_c, 7, 56, 64
10, 154568, Note_on_c, 7, 56, 81
10, 154576, Note_off_c, 7, 61, 64
10, 154576, Note_on_c, 7, 61, 81
10, 155040, Note_off_c, 7, 49, 64
10, 155040, Note_on_c, 7, 49, 81
10, 155048, Note_off_c, 7, 56, 64
10, 155048, Note_on_c, 7, 56, 81
10, 155056, Note_off_c, 7, 61, 64
10, 155056, Note_on_c, 7, 61, 81
10, 155520, Note_off_c, 7, 49, 64
10, 155528, Note_off_c, 7, 56, 64
10, 155536, Note_off_c, 7, 61, 64
10, 186240, Program_c, 7, 30
10, 186240, Note_on_c, 7, 44, 102
10, 186248, Note_on_c, 7, 51, 102
10, 186256, Note_on_c, 7, 56, 102
10, 186720, Note_off_c, 7, 44, 64
10, 186728, Note_off_c, 7, 51, 64
10, 186736, Note_off_c, 7, 56, 64
10, 186960, Note_on_c, 7, 44, 102
10, 186968, Note_on_c, 7, 51, 102
10, 186976, Note_on_c, 7, 56, 102
10, 187680, Note_off_c, 7, 56, 64
10, 187680, Note_off_c, 7, 51, 64
10, 187680, Note_off_c, 7, 44, 64
10, 187680, Note_on_c, 7, 46, 102
10, 187688, Note_on_c, 7, 53, 102
10, 187696, Note_on_c, 7, 58, 102
10, 187908, Note_off_c, 7, 58, 64
10, 187920, Note_off_c, 7, 53, 64
10, 187920, Note_off_c, 7, 46, 64
10, 187920, Note_on_c, 7, 46, 102
10, 187928, Note_on_c, 7, 53, 102
10, 187936, Note_on_c, 7, 58, 102
10, 188148, Note_off_c, 7, 46, 64
10, 188160, Note_off_c, 7, 53, 64
10, 188160, Note_off_c, 7, 58, 64
10, 188160, Note_on_c, 7, 47, 102
10, 188168, Note_on_c, 7, 54, 102
10, 188176, Note_on_c, 7, 59, 102
10, 188640, Note_off_c, 7, 47, 64
10, 188648, Note_off_c, 7, 54, 64
10, 188656, Note_off_c, 7, 59, 64
10, 188880, Note_on_c, 7, 47, 102
10, 188888, Note_on_c, 7, 54, 102
10, 188896, Note_on_c, 7, 59, 102
10, 190080, Note_off_c, 7, 47, 64
10, 190080, Note_on_c, 7, 49, 92
10, 190084, Note_on_c, 7, 56, 92
10, 190088, Note_off_c, 7, 54, 64
10, 190088, Note_on_c, 7, 61, 92
10, 190096, Note_off_c, 7, 59, 64
10, 190560, Note_off_c, 7, 49, 64
10, 190560, Note_on_c, 7, 49, 102
10, 190564, Note_off_c, 7, 56, 64
10, 190564, Note_on_c, 7, 56, 102
10, 190568, Note_off_c, 7, 61, 64
10, 190568, Note_on_c, 7, 61, 102
10, 190572, Note_on_c, 7, 65, 70
10, 190800, Note_off_c, 7, 49, 64
10, 190800, Note_on_c, 7, 49, 102
10, 190804, Note_off_c, 7, 56, 64
10, 190804, Note_on_c, 7, 56, 102
10, 190808, Note_off_c, 7, 61, 64
10, 190808, Note_on_c, 7, 61, 102
10, 190812, Note_off_c, 7, 65, 64
10, 190812, Note_on_c, 7, 65, 70
10, 191760, Note_off_c, 7, 49, 64
10, 191760, Note_on_c, 7, 49, 102
10, 191764, Note_off_c, 7, 56, 64
10, 191764, Note_on_c, 7, 56, 102
10, 191768, Note_off_c, 7, 61, 64
10, 191768, Note_on_c, 7, 61, 102
10, 191772, Note_off_c, 7, 65, 64
10, 191772, Note_on_c, 7, 65, 70
10, 191880, Note_off_c, 7, 49, 64
10, 191880, Note_on_c, 7, 49, 102
10, 191884, Note_off_c, 7, 56, 64
10, 191884, Note_on_c, 7, 56, 102
10, 191888, Note_off_c, 7, 61, 64
10, 191888, Note_on_c, 7, 61, 102
10, 191892, Note_off_c, 7, 65, 64
10, 191892, Note_on_c, 7, 65, 70
10, 192000, Note_off_c, 7, 49, 64
10, 192000, Note_on_c, 7, 49, 98
10, 192004, Note_off_c, 7, 56, 64
10, 192004, Note_on_c, 7, 56, 98
10, 192008, Note_off_c, 7, 61, 64
10, 192008, Note_on_c, 7, 61, 98
10, 192012, Note_off_c, 7, 65, 64
10, 192012, Note_on_c, 7, 66, 98
10, 192240, Note_off_c, 7, 49, 64
10, 192240, Note_off_c, 7, 56, 64
10, 192240, Note_off_c, 7, 61, 64
10, 192240, Note_off_c, 7, 66, 64
10, 192240, Note_on_c, 7, 49, 98
10, 192244, Note_on_c, 7, 56, 98
10, 192248, Note_on_c, 7, 61, 98
10, 192252, Note_on_c, 7, 65, 98
10, 192480, Note_off_c, 7, 65, 64
10, 192480, Note_off_c, 7, 61, 64
10, 192480, Note_off_c, 7, 56, 64
10, 192480, Note_off_c, 7, 49, 64
10, 192480, Note_on_c, 7, 49, 98
10, 192484, Note_on_c, 7, 56, 98
10, 192488, Note_on_c, 7, 61, 98
10, 192492, Note_on_c, 7, 63, 98
10, 192720, Note_off_c, 7, 61, 64
10, 192720, Note_off_c, 7, 56, 64
10, 192720, Note_off_c, 7, 49, 64
10, 192720, Note_on_c, 7, 49, 98
10, 192724, Note_on_c, 7, 56, 98
10, 192728, Note_on_c, 7, 61, 98
10, 192732, Note_off_c, 7, 63, 64
10, 192732, Note_on_c, 7, 65, 98
10, 193200, Note_off_c, 7, 49, 64
10, 193200, Note_on_c, 7, 49, 102
10, 193204, Note_off_c, 7, 56, 64
10, 193204, Note_on_c, 7, 56, 102
10, 193208, Note_off_c, 7, 61, 64
10, 193208, Note_on_c, 7, 61, 102
10, 193212, Note_off_c, 7, 65, 64
10, 193212, Note_on_c, 7, 65, 70
10, 193440, Note_off_c, 7, 49, 64
10, 193440, Note_on_c, 7, 49, 102
10, 193444, Note_off_c, 7, 56, 64
10, 193444, Note_on_c, 7, 56, 102
10, 193448, Note_off_c, 7, 61, 64
10, 193448, Note_on_c, 7, 61, 102
10, 193452, Note_off_c, 7, 65, 64
10, 193452, Note_on_c, 7, 65, 70
10, 193680, Note_off_c, 7, 49, 64
10, 193680, Note_on_c, 7, 49, 102
10, 193684, Note_off_c, 7, 56, 64
10, 193684, Note_on_c, 7, 56, 102
10, 193688, Note_off_c, 7, 61, 64
10, 193688, Note_on_c, 7, 61, 102
10, 193692, Note_off_c, 7, 65, 64
10, 193692, Note_on_c, 7, 65, 70
10, 193920, Note_off_c, 7, 49, 64
10, 193920, Note_on_c, 7, 44, 102
10, 193924, Note_off_c, 7, 56, 64
10, 193928, Note_off_c, 7, 61, 64
10, 193928, Note_on_c, 7, 51, 102
10, 193932, Note_off_c, 7, 65, 64
10, 193936, Note_on_c, 7, 56, 102
10, 194400, Note_off_c, 7, 44, 64
10, 194408, Note_off_c, 7, 51, 64
10, 194416, Note_off_c, 7, 56, 64
10, 194640, Note_on_c, 7, 44, 102
10, 194648, Note_on_c, 7, 51, 102
10, 194656, Note_on_c, 7, 56, 102
10, 195360, Note_off_c, 7, 56, 64
10, 195360, Note_off_c, 7, 51, 64
10, 195360, Note_off_c, 7, 44, 64
10, 195360, Note_on_c, 7, 46, 102
10, 195368, Note_on_c, 7, 53, 102
10, 195376, Note_on_c, 7, 58, 102
10, 195588, Note_off_c, 7, 58, 64
10, 195600, Note_off_c, 7, 53, 64
10, 195600, Note_off_c, 7, 46, 64
10, 195600, Note_on_c, 7, 46, 102
10, 195608, Note_on_c, 7, 53, 102
10, 195616, Note_on_c, 7, 58, 102
10, 195828, Note_off_c, 7, 46, 64
10, 195840, Note_off_c, 7, 53, 64
10, 195840, Note_off_c, 7, 58, 64
10, 195840, Note_on_c, 7, 47, 102
10, 195848, Note_on_c, 7, 54, 102
10, 195856, Note_on_c, 7, 59, 102
10, 196320, Note_off_c, 7, 47, 64
10, 196328, Note_off_c, 7, 54, 64
10, 196336, Note_off_c, 7, 59, 64
10, 196560, Note_on_c, 7, 47, 102
10, 196568, Note_on_c, 7, 54, 102
10, 196576, Note_on_c, 7, 59, 102
10, 197760, Note_off_c, 7, 47, 64
10, 197760, Note_on_c, 7, 49, 102
10, 197764, Note_on_c, 7, 56, 102
10, 197768, Note_off_c, 7, 54, 64
10, 197768, Note_on_c, 7, 61, 102
10, 197772, Note_on_c, 7, 65, 70
10, 197776, Note_off_c, 7, 59, 64
10, 199680, Note_off_c, 7, 49, 64
10, 199680, Note_on_c, 7, 49, 102
10, 199684, Note_off_c, 7, 56, 64
10, 199684, Note_on_c, 7, 56, 102
10, 199688, Note_off_c, 7, 61, 64
10, 199688, Note_on_c, 7, 61, 102
10, 199692, Note_off_c, 7, 65, 64
10, 199692, Note_on_c, 7, 65, 70
10, 200000, Note_off_c, 7, 49, 64
10, 200000, Note_on_c, 7, 49, 102
10, 200004, Note_off_c, 7, 56, 64
10, 200004, Note_on_c, 7, 56, 102
10, 200008, Note_off_c, 7, 61, 64
10, 200008, Note_on_c, 7, 61, 102
10, 200012, Note_off_c, 7, 65, 64
10, 200012, Note_on_c, 7, 65, 70
10, 200320, Note_off_c, 7, 49, 64
10, 200320, Note_on_c, 7, 49, 102
10, 200324, Note_off_c, 7, 56, 64
10, 200324, Note_on_c, 7, 56, 102
10, 200328, Note_off_c, 7, 61, 64
10, 200328, Note_on_c, 7, 61, 102
10, 200332, Note_off_c, 7, 65, 64
10, 200332, Note_on_c, 7, 65, 70
10, 200640, Note_off_c, 7, 49, 64
10, 200640, Note_on_c, 7, 49, 102
10, 200644, Note_off_c, 7, 56, 64
10, 200644, Note_on_c, 7, 56, 102
10, 200648, Note_off_c, 7, 61, 64
10, 200648, Note_on_c, 7, 61, 102
10, 200652, Note_off_c, 7, 65, 64
10, 200652, Note_on_c, 7, 65, 70
10, 200960, Note_off_c, 7, 49, 64
10, 200960, Note_on_c, 7, 49, 102
10, 200964, Note_off_c, 7, 56, 64
10, 200964, Note_on_c, 7, 56, 102
10, 200968, Note_off_c, 7, 61, 64
10, 200968, Note_on_c, 7, 61, 102
10, 200972, Note_off_c, 7, 65, 64
10, 200972, Note_on_c, 7, 65, 70
10, 201280, Note_off_c, 7, 49, 64
10, 201280, Note_on_c, 7, 49, 102
10, 201284, Note_off_c, 7, 56, 64
10, 201284, Note_on_c, 7, 56, 102
10, 201288, Note_off_c, 7, 61, 64
10, 201288, Note_on_c, 7, 61, 102
10, 201292, Note_off_c, 7, 65, 64
10, 201292, Note_on_c, 7, 65, 70
10, 201600, Note_off_c, 7, 49, 64
10, 201600, Note_on_c, 7, 44, 102
10, 201604, Note_off_c, 7, 56, 64
10, 201608, Note_off_c, 7, 61, 64
10, 201608, Note_on_c, 7, 51, 102
10, 201612, Note_off_c, 7, 65, 64
10, 201616, Note_on_c, 7, 56, 102
10, 202080, Note_off_c, 7, 44, 64
10, 202088, Note_off_c, 7, 51, 64
10, 202096, Note_off_c, 7, 56, 64
10, 202320, Note_on_c, 7, 44, 102
10, 202328, Note_on_c, 7, 51, 102
10, 202336, Note_on_c, 7, 56, 102
10, 203040, Note_off_c, 7, 56, 64
10, 203040, Note_off_c, 7, 51, 64
10, 203040, Note_off_c, 7, 44, 64
10, 203040, Note_on_c, 7, 46, 102
10, 203048, Note_on_c, 7, 53, 102
10, 203056, Note_on_c, 7, 58, 102
10, 203268, Note_off_c, 7, 58, 64
10, 203280, Note_off_c, 7, 53, 64
10, 203280, Note_off_c, 7, 46, 64
10, 203280, Note_on_c, 7, 46, 102
10, 203288, Note_on_c, 7, 53, 102
10, 203296, Note_on_c, 7, 58, 102
10, 203508, Note_off_c, 7, 46, 64
10, 203520, Note_off_c, 7, 53, 64
10, 203520, Note_off_c, 7, 58, 64
10, 203520, Note_on_c, 7, 47, 102
10, 203528, Note_on_c, 7, 54, 102
10, 203536, Note_on_c, 7, 59, 102
10, 204000, Note_off_c, 7, 47, 64
10, 204008, Note_off_c, 7, 54, 64
10, 204016, Note_off_c, 7, 59, 64
10, 204240, Note_on_c, 7, 47, 102
10, 204248, Note_on_c, 7, 54, 102
10, 204256, Note_on_c, 7, 59, 102
10, 205440, Note_off_c, 7, 47, 64
10, 205440, Note_on_c, 7, 49, 92
10, 205444, Note_on_c, 7, 56, 92
10, 205448, Note_off_c, 7, 54, 64
10, 205448, Note_on_c, 7, 61, 92
10, 205456, Note_off_c, 7, 59, 64
10, 205920, Note_off_c, 7, 49, 64
10, 205920, Note_on_c, 7, 49, 102
10, 205924, Note_off_c, 7, 56, 64
10, 205924, Note_on_c, 7, 56, 102
10, 205928, Note_off_c, 7, 61, 64
10, 205928, Note_on_c, 7, 61, 102
10, 205932, Note_on_c, 7, 65, 70
10, 206160, Note_off_c, 7, 49, 64
10, 206160, Note_on_c, 7, 49, 102
10, 206164, Note_off_c, 7, 56, 64
10, 206164, Note_on_c, 7, 56, 102
10, 206168, Note_off_c, 7, 61, 64
10, 206168, Note_on_c, 7, 61, 102
10, 206172, Note_off_c, 7, 65, 64
10, 206172, Note_on_c, 7, 65, 70
10, 207120, Note_off_c, 7, 49, 64
10, 207120, Note_on_c, 7, 49, 102
10, 207124, Note_off_c, 7, 56, 64
10, 207124, Note_on_c, 7, 56, 102
10, 207128, Note_off_c, 7, 61, 64
10, 207128, Note_on_c, 7, 61, 102
10, 207132, Note_off_c, 7, 65, 64
10, 207132, Note_on_c, 7, 65, 70
10, 207240, Note_off_c, 7, 49, 64
10, 207240, Note_on_c, 7, 49, 102
10, 207244, Note_off_c, 7, 56, 64
10, 207244, Note_on_c, 7, 56, 102
10, 207248, Note_off_c, 7, 61, 64
10, 207248, Note_on_c, 7, 61, 102
10, 207252, Note_off_c, 7, 65, 64
10, 207252, Note_on_c, 7, 65, 70
10, 207360, Note_off_c, 7, 49, 64
10, 207360, Note_on_c, 7, 49, 98
10, 207364, Note_off_c, 7, 56, 64
10, 207364, Note_on_c, 7, 56, 98
10, 207368, Note_off_c, 7, 61, 64
10, 207368, Note_on_c, 7, 61, 98
10, 207372, Note_off_c, 7, 65, 64
10, 207372, Note_on_c, 7, 66, 98
10, 207600, Note_off_c, 7, 49, 64
10, 207600, Note_off_c, 7, 56, 64
10, 207600, Note_off_c, 7, 61, 64
10, 207600, Note_off_c, 7, 66, 64
10, 207600, Note_on_c, 7, 49, 98
10, 207604, Note_on_c, 7, 56, 98
10, 207608, Note_on_c, 7, 61, 98
10, 207612, Note_on_c, 7, 65, 98
10, 207840, Note_off_c, 7, 65, 64
10, 207840, Note_off_c, 7, 61, 64
10, 207840, Note_off_c, 7, 56, 64
10, 207840, Note_off_c, 7, 49, 64
10, 207840, Note_on_c, 7, 49, 98
10, 207844, Note_on_c, 7, 56, 98
10, 207848, Note_on_c, 7, 61, 98
10, 207852, Note_on_c, 7, 63, 98
10, 208080, Note_off_c, 7, 61, 64
10, 208080, Note_off_c, 7, 56, 64
10, 208080, Note_off_c, 7, 49, 64
10, 208080, Note_on_c, 7, 49, 98
10, 208084, Note_on_c, 7, 56, 98
10, 208088, Note_on_c, 7, 61, 98
10, 208092, Note_off_c, 7, 63, 64
10, 208092, Note_on_c, 7, 65, 98
10, 208560, Note_off_c, 7, 49, 64
10, 208560, Note_on_c, 7, 49, 102
10, 208564, Note_off_c, 7, 56, 64
10, 208564, Note_on_c, 7, 56, 102
10, 208568, Note_off_c, 7, 61, 64
10, 208568, Note_on_c, 7, 61, 102
10, 208572, Note_off_c, 7, 65, 64
10, 208572, Note_on_c, 7, 65, 70
10, 208800, Note_off_c, 7, 49, 64
10, 208800, Note_on_c, 7, 49, 102
10, 208804, Note_off_c, 7, 56, 64
10, 208804, Note_on_c, 7, 56, 102
10, 208808, Note_off_c, 7, 61, 64
10, 208808, Note_on_c, 7, 61, 102
10, 208812, Note_off_c, 7, 65, 64
10, 208812, Note_on_c, 7, 65, 70
10, 209040, Note_off_c, 7, 49, 64
10, 209040, Note_on_c, 7, 49, 102
10, 209044, Note_off_c, 7, 56, 64
10, 209044, Note_on_c, 7, 56, 102
10, 209048, Note_off_c, 7, 61, 64
10, 209048, Note_on_c, 7, 61, 102
10, 209052, Note_off_c, 7, 65, 64
10, 209052, Note_on_c, 7, 65, 70
10, 209280, Note_off_c, 7, 49, 64
10, 209280, Note_on_c, 7, 44, 102
10, 209284, Note_off_c, 7, 56, 64
10, 209288, Note_off_c, 7, 61, 64
10, 209288, Note_on_c, 7, 51, 102
10, 209292, Note_off_c, 7, 65, 64
10, 209296, Note_on_c, 7, 56, 102
10, 209760, Note_off_c, 7, 44, 64
10, 209768, Note_off_c, 7, 51, 64
10, 209776, Note_off_c, 7, 56, 64
10, 210000, Note_on_c, 7, 44, 102
10, 210008, Note_on_c, 7, 51, 102
10, 210016, Note_on_c, 7, 56, 102
10, 210720, Note_off_c, 7, 56, 64
10, 210720, Note_off_c, 7, 51, 64
10, 210720, Note_off_c, 7, 44, 64
10, 210720, Note_on_c, 7, 46, 102
10, 210728, Note_on_c, 7, 53, 102
10, 210736, Note_on_c, 7, 58, 102
10, 210948, Note_off_c, 7, 58, 64
10, 210960, Note_off_c, 7, 53, 64
10, 210960, Note_off_c, 7, 46, 64
10, 210960, Note_on_c, 7, 46, 102
10, 210968, Note_on_c, 7, 53, 102
10, 210976, Note_on_c, 7, 58, 102
10, 211188, Note_off_c, 7, 46, 64
10, 211200, Note_off_c, 7, 53, 64
10, 211200, Note_off_c, 7, 58, 64
10, 211200, Note_on_c, 7, 47, 102
10, 211208, Note_on_c, 7, 54, 102
10, 211216, Note_on_c, 7, 59, 102
10, 211680, Note_off_c, 7, 47, 64
10, 211688, Note_off_c, 7, 54, 64
10, 211696, Note_off_c, 7, 59, 64
10, 211920, Note_on_c, 7, 47, 102
10, 211928, Note_on_c, 7, 54, 102
10, 211936, Note_on_c, 7, 59, 102
10, 213120, Note_off_c, 7, 47, 64
10, 213120, Note_on_c, 7, 49, 102
10, 213124, Control_c, 7, 11, 75
10, 213124, Note_on_c, 7, 56, 102
10, 213128, Note_off_c, 7, 54, 64
10, 213128, Note_on_c, 7, 61, 102
10, 213136, Note_off_c, 7, 59, 64
10, 213360, Note_off_c, 7, 49, 64
10, 213360, Note_on_c, 7, 49, 102
10, 213364, Note_off_c, 7, 56, 64
10, 213364, Note_on_c, 7, 56, 102
10, 213368, Note_off_c, 7, 61, 64
10, 213368, Note_on_c, 7, 61, 102
10, 213584, Control_c, 7, 11, 85
10, 213600, Note_off_c, 7, 49, 64
10, 213600, Note_on_c, 7, 49, 102
10, 213604, Note_off_c, 7, 56, 64
10, 213604, Note_on_c, 7, 56, 102
10, 213608, Note_off_c, 7, 61, 64
10, 213608, Note_on_c, 7, 61, 102
10, 213840, Note_off_c, 7, 49, 64
10, 213840, Note_on_c, 7, 49, 102
10, 213844, Note_off_c, 7, 56, 64
10, 213844, Note_on_c, 7, 56, 102
10, 213848, Note_off_c, 7, 61, 64
10, 213848, Note_on_c, 7, 61, 102
10, 214044, Control_c, 7, 11, 95
10, 214080, Note_off_c, 7, 49, 64
10, 214080, Note_on_c, 7, 49, 102
10, 214084, Note_off_c, 7, 56, 64
10, 214084, Note_on_c, 7, 56, 102
10, 214088, Note_off_c, 7, 61, 64
10, 214088, Note_on_c, 7, 61, 102
10, 214320, Note_off_c, 7, 49, 64
10, 214320, Note_on_c, 7, 49, 102
10, 214324, Note_off_c, 7, 56, 64
10, 214324, Note_on_c, 7, 56, 102
10, 214328, Note_off_c, 7, 61, 64
10, 214328, Note_on_c, 7, 61, 102
10, 214508, Control_c, 7, 11, 105
10, 214560, Note_off_c, 7, 49, 64
10, 214560, Note_on_c, 7, 49, 102
10, 214564, Note_off_c, 7, 56, 64
10, 214564, Note_on_c, 7, 56, 102
10, 214568, Note_off_c, 7, 61, 64
10, 214568, Note_on_c, 7, 61, 102
10, 214800, Note_off_c, 7, 49, 64
10, 214800, Note_on_c, 7, 49, 102
10, 214804, Note_off_c, 7, 56, 64
10, 214804, Note_on_c, 7, 56, 102
10, 214808, Note_off_c, 7, 61, 64
10, 214808, Note_on_c, 7, 61, 102
10, 214968, Control_c, 7, 11, 115
10, 215040, Note_off_c, 7, 49, 64
10, 215040, Note_on_c, 7, 49, 102
10, 215044, Note_off_c, 7, 56, 64
10, 215044, Note_on_c, 7, 56, 102
10, 215048, Note_off_c, 7, 61, 64
10, 215048, Note_on_c, 7, 61, 102
10, 215280, Note_off_c, 7, 49, 64
10, 215280, Note_on_c, 7, 49, 102
10, 215284, Note_off_c, 7, 56, 64
10, 215284, Note_on_c, 7, 56, 102
10, 215288, Note_off_c, 7, 61, 64
10, 215288, Note_on_c, 7, 61, 102
10, 215520, Note_off_c, 7, 49, 64
10, 215520, Control_c, 7, 11, 127
10, 215520, Note_on_c, 7, 49, 102
10, 215524, Note_off_c, 7, 56, 64
10, 215524, Note_on_c, 7, 56, 102
10, 215528, Note_off_c, 7, 61, 64
10, 215528, Note_on_c, 7, 61, 102
10, 215760, Note_off_c, 7, 49, 64
10, 215760, Note_on_c, 7, 49, 102
10, 215764, Note_off_c, 7, 56, 64
10, 215764, Note_on_c, 7, 56, 102
10, 215768, Note_off_c, 7, 61, 64
10, 215768, Note_on_c, 7, 61, 102
10, 216000, Note_off_c, 7, 49, 64
10, 216000, Note_on_c, 7, 49, 102
10, 216004, Note_off_c, 7, 56, 64
10, 216004, Note_on_c, 7, 56, 102
10, 216008, Note_off_c, 7, 61, 64
10, 216008, Note_on_c, 7, 61, 102
10, 216360, Note_off_c, 7, 49, 64
10, 216364, Note_off_c, 7, 56, 64
10, 216368, Note_off_c, 7, 61, 64
10, 216480, Note_on_c, 7, 62, 102
10, 216480, Note_on_c, 7, 50, 102
10, 216484, Note_on_c, 7, 57, 102
10, 216956, Program_c, 7, 27
10, 216960, Note_off_c, 7, 50, 64
10, 216960, Note_off_c, 7, 62, 64
10, 216960, Note_on_c, 7, 39, 89
10, 216964, Note_off_c, 7, 57, 64
10, 217200, Note_off_c, 7, 39, 64
10, 217200, Note_on_c, 7, 54, 89
10, 217440, Note_off_c, 7, 54, 64
10, 217440, Note_on_c, 7, 58, 89
10, 217680, Note_off_c, 7, 58, 64
10, 217680, Note_on_c, 7, 63, 89
10, 217920, Note_off_c, 7, 63, 64
10, 217920, Note_on_c, 7, 58, 89
10, 218160, Note_off_c, 7, 58, 64
10, 218160, Note_on_c, 7, 54, 89
10, 218400, Note_off_c, 7, 54, 64
10, 218400, Note_on_c, 7, 51, 89
10, 218640, Note_off_c, 7, 51, 64
10, 218640, Note_on_c, 7, 54, 89
10, 218880, Note_off_c, 7, 54, 64
10, 218880, Note_on_c, 7, 51, 89
10, 219120, Note_off_c, 7, 51, 64
10, 219120, Note_on_c, 7, 54, 89
10, 219360, Note_off_c, 7, 54, 64
10, 219360, Note_on_c, 7, 59, 89
10, 219600, Note_off_c, 7, 59, 64
10, 219600, Note_on_c, 7, 66, 89
10, 219840, Note_off_c, 7, 66, 64
10, 219840, Note_on_c, 7, 59, 89
10, 220080, Note_off_c, 7, 59, 64
10, 220080, Note_on_c, 7, 54, 89
10, 220320, Note_off_c, 7, 54, 64
10, 220320, Note_on_c, 7, 51, 89
10, 220560, Note_off_c, 7, 51, 64
10, 220560, Note_on_c, 7, 54, 89
10, 220800, Note_off_c, 7, 54, 64
10, 220800, Note_on_c, 7, 50, 89
10, 221040, Note_off_c, 7, 50, 64
10, 221040, Note_on_c, 7, 56, 89
10, 221280, Note_off_c, 7, 56, 64
10, 221280, Note_on_c, 7, 58, 89
10, 221520, Note_off_c, 7, 58, 64
10, 221520, Note_on_c, 7, 65, 89
10, 221760, Note_off_c, 7, 65, 64
10, 221760, Note_on_c, 7, 58, 89
10, 222000, Note_off_c, 7, 58, 64
10, 222000, Note_on_c, 7, 56, 89
10, 222240, Note_off_c, 7, 56, 64
10, 222240, Note_on_c, 7, 50, 89
10, 222480, Note_off_c, 7, 50, 64
10, 222480, Note_on_c, 7, 56, 89
10, 222720, Note_off_c, 7, 56, 64
10, 222720, Note_on_c, 7, 44, 89
10, 222960, Note_off_c, 7, 44, 64
10, 222960, Note_on_c, 7, 51, 89
10, 223200, Note_off_c, 7, 51, 64
10, 223200, Note_on_c, 7, 56, 89
10, 223440, Note_off_c, 7, 56, 64
10, 223440, Note_on_c, 7, 63, 89
10, 223680, Note_off_c, 7, 63, 64
10, 223680, Note_on_c, 7, 59, 89
10, 223920, Note_off_c, 7, 59, 64
10, 223920, Note_on_c, 7, 56, 89
10, 224160, Note_off_c, 7, 56, 64
10, 224160, Note_on_c, 7, 42, 89
10, 224400, Note_off_c, 7, 42, 64
10, 224400, Note_on_c, 7, 41, 89
10, 224640, Note_off_c, 7, 41, 64
10, 224640, Note_on_c, 7, 39, 89
10, 224880, Note_off_c, 7, 39, 64
10, 224880, Note_on_c, 7, 54, 89
10, 225120, Note_off_c, 7, 54, 64
10, 225120, Note_on_c, 7, 58, 89
10, 225360, Note_off_c, 7, 58, 64
10, 225360, Note_on_c, 7, 63, 89
10, 225600, Note_off_c, 7, 63, 64
10, 225600, Note_on_c, 7, 58, 89
10, 225840, Note_off_c, 7, 58, 64
10, 225840, Note_on_c, 7, 54, 89
10, 226080, Note_off_c, 7, 54, 64
10, 226080, Note_on_c, 7, 51, 89
10, 226320, Note_off_c, 7, 51, 64
10, 226320, Note_on_c, 7, 54, 89
10, 226560, Note_off_c, 7, 54, 64
10, 226560, Note_on_c, 7, 51, 89
10, 226800, Note_off_c, 7, 51, 64
10, 226800, Note_on_c, 7, 54, 89
10, 227040, Note_off_c, 7, 54, 64
10, 227040, Note_on_c, 7, 59, 89
10, 227280, Note_off_c, 7, 59, 64
10, 227280, Note_on_c, 7, 66, 89
10, 227520, Note_off_c, 7, 66, 64
10, 227520, Note_on_c, 7, 59, 89
10, 227760, Note_off_c, 7, 59, 64
10, 227760, Note_on_c, 7, 54, 89
10, 228000, Note_off_c, 7, 54, 64
10, 228000, Note_on_c, 7, 51, 89
10, 228240, Note_off_c, 7, 51, 64
10, 228240, Note_on_c, 7, 54, 89
10, 228480, Note_off_c, 7, 54, 64
10, 228480, Note_on_c, 7, 50, 89
10, 228720, Note_off_c, 7, 50, 64
10, 228720, Note_on_c, 7, 56, 89
10, 228960, Note_off_c, 7, 56, 64
10, 228960, Note_on_c, 7, 58, 89
10, 229200, Note_off_c, 7, 58, 64
10, 229200, Note_on_c, 7, 65, 89
10, 229440, Note_off_c, 7, 65, 64
10, 229440, Note_on_c, 7, 58, 89
10, 229680, Note_off_c, 7, 58, 64
10, 229680, Note_on_c, 7, 56, 89
10, 229920, Note_off_c, 7, 56, 64
10, 229920, Note_on_c, 7, 50, 89
10, 230160, Note_off_c, 7, 50, 64
10, 230160, Note_on_c, 7, 56, 89
10, 230400, Note_off_c, 7, 56, 64
10, 230400, Note_on_c, 7, 44, 89
10, 230640, Note_off_c, 7, 44, 64
10, 230640, Note_on_c, 7, 51, 89
10, 230880, Note_off_c, 7, 51, 64
10, 230880, Note_on_c, 7, 56, 89
10, 231120, Note_off_c, 7, 56, 64
10, 231120, Note_on_c, 7, 63, 89
10, 231360, Note_off_c, 7, 63, 64
10, 231360, Note_on_c, 7, 59, 89
10, 231600, Note_off_c, 7, 59, 64
10, 231600, Note_on_c, 7, 56, 89
10, 231840, Note_off_c, 7, 56, 64
10, 231840, Note_on_c, 7, 42, 89
10, 232080, Note_off_c, 7, 42, 64
10, 232080, Note_on_c, 7, 41, 89
10, 232320, Note_off_c, 7, 41, 64
10, 232320, Note_on_c, 7, 39, 89
10, 232560, Note_off_c, 7, 39, 64
10, 232560, Note_on_c, 7, 54, 89
10, 232800, Note_off_c, 7, 54, 64
10, 232800, Note_on_c, 7, 58, 89
10, 233040, Note_off_c, 7, 58, 64
10, 233040, Note_on_c, 7, 63, 89
10, 233280, Note_off_c, 7, 63, 64
10, 233280, Note_on_c, 7, 58, 89
10, 233520, Note_off_c, 7, 58, 64
10, 233520, Note_on_c, 7, 54, 89
10, 233760, Note_off_c, 7, 54, 64
10, 233760, Note_on_c, 7, 51, 89
10, 234000, Note_off_c, 7, 51, 64
10, 234000, Note_on_c, 7, 54, 89
10, 234240, Note_off_c, 7, 54, 64
10, 234240, Note_on_c, 7, 51, 89
10, 234480, Note_off_c, 7, 51, 64
10, 234480, Note_on_c, 7, 54, 89
10, 234720, Note_off_c, 7, 54, 64
10, 234720, Note_on_c, 7, 59, 89
10, 234960, Note_off_c, 7, 59, 64
10, 234960, Note_on_c, 7, 66, 89
10, 235200, Note_off_c, 7, 66, 64
10, 235200, Note_on_c, 7, 59, 89
10, 235440, Note_off_c, 7, 59, 64
10, 235440, Note_on_c, 7, 54, 89
10, 235680, Note_off_c, 7, 54, 64
10, 235680, Note_on_c, 7, 51, 89
10, 235920, Note_off_c, 7, 51, 64
10, 235920, Note_on_c, 7, 54, 89
10, 236160, Note_off_c, 7, 54, 64
10, 236160, Note_on_c, 7, 50, 89
10, 236400, Note_off_c, 7, 50, 64
10, 236400, Note_on_c, 7, 56, 89
10, 236640, Note_off_c, 7, 56, 64
10, 236640, Note_on_c, 7, 58, 89
10, 236880, Note_off_c, 7, 58, 64
10, 236880, Note_on_c, 7, 65, 89
10, 237120, Note_off_c, 7, 65, 64
10, 237120, Note_on_c, 7, 58, 89
10, 237360, Note_off_c, 7, 58, 64
10, 237360, Note_on_c, 7, 56, 89
10, 237600, Note_off_c, 7, 56, 64
10, 237600, Note_on_c, 7, 50, 89
10, 237840, Note_off_c, 7, 50, 64
10, 237840, Note_on_c, 7, 56, 89
10, 238080, Note_off_c, 7, 56, 64
10, 238080, Note_on_c, 7, 44, 89
10, 238320, Note_off_c, 7, 44, 64
10, 238320, Note_on_c, 7, 51, 89
10, 238560, Note_off_c, 7, 51, 64
10, 238560, Note_on_c, 7, 56, 89
10, 238800, Note_off_c, 7, 56, 64
10, 238800, Note_on_c, 7, 63, 89
10, 239040, Note_off_c, 7, 63, 64
10, 239040, Note_on_c, 7, 59, 89
10, 239280, Note_off_c, 7, 59, 64
10, 239280, Note_on_c, 7, 56, 89
10, 239520, Note_off_c, 7, 56, 64
10, 239520, Note_on_c, 7, 42, 89
10, 239760, Note_off_c, 7, 42, 64
10, 239760, Note_on_c, 7, 41, 89
10, 240000, Note_off_c, 7, 41, 64
10, 240000, Note_on_c, 7, 39, 89
10, 240240, Note_off_c, 7, 39, 64
10, 240240, Note_on_c, 7, 54, 89
10, 240480, Note_off_c, 7, 54, 64
10, 240480, Note_on_c, 7, 58, 89
10, 240720, Note_off_c, 7, 58, 64
10, 240720, Note_on_c, 7, 63, 89
10, 240960, Note_off_c, 7, 63, 64
10, 240960, Note_on_c, 7, 58, 89
10, 241200, Note_off_c, 7, 58, 64
10, 241200, Note_on_c, 7, 54, 89
10, 241440, Note_off_c, 7, 54, 64
10, 241440, Note_on_c, 7, 51, 89
10, 241680, Note_off_c, 7, 51, 64
10, 241680, Note_on_c, 7, 54, 89
10, 241920, Note_off_c, 7, 54, 64
10, 241920, Note_on_c, 7, 51, 89
10, 242160, Note_off_c, 7, 51, 64
10, 242160, Note_on_c, 7, 54, 89
10, 242400, Note_off_c, 7, 54, 64
10, 242400, Note_on_c, 7, 59, 89
10, 242640, Note_off_c, 7, 59, 64
10, 242640, Note_on_c, 7, 66, 89
10, 242880, Note_off_c, 7, 66, 64
10, 242880, Note_on_c, 7, 59, 89
10, 243120, Note_off_c, 7, 59, 64
10, 243120, Note_on_c, 7, 54, 89
10, 243360, Note_off_c, 7, 54, 64
10, 243360, Note_on_c, 7, 51, 89
10, 243600, Note_off_c, 7, 51, 64
10, 243600, Note_on_c, 7, 54, 89
10, 243840, Note_off_c, 7, 54, 64
10, 243840, Note_on_c, 7, 50, 89
10, 244080, Note_off_c, 7, 50, 64
10, 244080, Note_on_c, 7, 56, 89
10, 244320, Note_off_c, 7, 56, 64
10, 244320, Note_on_c, 7, 58, 89
10, 244560, Note_off_c, 7, 58, 64
10, 244560, Note_on_c, 7, 65, 89
10, 244800, Note_off_c, 7, 65, 64
10, 244800, Note_on_c, 7, 58, 89
10, 245040, Note_off_c, 7, 58, 64
10, 245040, Note_on_c, 7, 56, 89
10, 245280, Note_off_c, 7, 56, 64
10, 245280, Note_on_c, 7, 50, 89
10, 245520, Note_off_c, 7, 50, 64
10, 245520, Note_on_c, 7, 56, 89
10, 245760, Note_off_c, 7, 56, 64
10, 245760, Note_on_c, 7, 44, 89
10, 246000, Note_off_c, 7, 44, 64
10, 246000, Note_on_c, 7, 51, 89
10, 246240, Note_off_c, 7, 51, 64
10, 246240, Note_on_c, 7, 56, 89
10, 246480, Note_off_c, 7, 56, 64
10, 246480, Note_on_c, 7, 63, 89
10, 246720, Note_off_c, 7, 63, 64
10, 246720, Note_on_c, 7, 59, 89
10, 246960, Note_off_c, 7, 59, 64
10, 246960, Note_on_c, 7, 56, 89
10, 247200, Note_off_c, 7, 56, 64
10, 247200, Note_on_c, 7, 51, 89
10, 247440, Note_off_c, 7, 51, 64
10, 247440, Note_on_c, 7, 56, 89
10, 247680, Note_off_c, 7, 56, 64
10, 247680, Note_on_c, 7, 44, 89
10, 247920, Note_off_c, 7, 44, 64
10, 247920, Note_on_c, 7, 51, 89
10, 248160, Note_off_c, 7, 51, 64
10, 248160, Note_on_c, 7, 56, 89
10, 248400, Note_off_c, 7, 56, 64
10, 248400, Note_on_c, 7, 63, 89
10, 248640, Note_off_c, 7, 63, 64
10, 248640, Note_on_c, 7, 59, 89
10, 248880, Note_off_c, 7, 59, 64
10, 248880, Note_on_c, 7, 56, 89
10, 249120, Note_off_c, 7, 56, 64
10, 249120, Note_on_c, 7, 42, 89
10, 249360, Note_off_c, 7, 42, 64
10, 249360, Note_on_c, 7, 41, 89
10, 249600, Note_off_c, 7, 41, 64
10, 249600, Program_c, 7, 30
10, 249600, Note_on_c, 7, 39, 102
10, 249604, Note_on_c, 7, 46, 102
10, 249608, Note_on_c, 7, 51, 102
10, 249612, Note_on_c, 7, 54, 70
10, 249616, Note_on_c, 7, 58, 70
10, 250320, Note_off_c, 7, 58, 64
10, 250320, Note_off_c, 7, 54, 64
10, 250320, Note_off_c, 7, 51, 64
10, 250320, Note_off_c, 7, 46, 64
10, 250320, Note_off_c, 7, 39, 64
10, 250320, Note_on_c, 7, 39, 102
10, 250324, Note_on_c, 7, 46, 102
10, 250328, Note_on_c, 7, 51, 102
10, 250332, Note_on_c, 7, 54, 70
10, 250336, Note_on_c, 7, 58, 70
10, 251040, Note_off_c, 7, 58, 64
10, 251040, Note_off_c, 7, 54, 64
10, 251040, Note_off_c, 7, 51, 64
10, 251040, Note_off_c, 7, 46, 64
10, 251040, Note_off_c, 7, 39, 64
10, 251040, Note_on_c, 7, 39, 108
10, 251280, Note_off_c, 7, 39, 64
10, 251280, Note_on_c, 7, 41, 108
10, 251520, Note_off_c, 7, 41, 64
10, 251520, Note_on_c, 7, 42, 102
10, 251524, Note_on_c, 7, 49, 102
10, 251528, Note_on_c, 7, 54, 102
10, 251532, Note_on_c, 7, 61, 89
10, 252240, Note_off_c, 7, 61, 64
10, 252240, Note_off_c, 7, 54, 64
10, 252240, Note_off_c, 7, 49, 64
10, 252240, Note_off_c, 7, 42, 64
10, 252240, Note_on_c, 7, 42, 102
10, 252244, Note_on_c, 7, 49, 102
10, 252248, Note_on_c, 7, 54, 102
10, 252252, Note_on_c, 7, 61, 89
10, 252960, Note_off_c, 7, 61, 64
10, 252960, Note_off_c, 7, 54, 64
10, 252960, Note_off_c, 7, 49, 64
10, 252960, Note_off_c, 7, 42, 64
10, 252960, Note_on_c, 7, 42, 102
10, 252964, Note_on_c, 7, 49, 102
10, 252968, Note_on_c, 7, 54, 102
10, 252972, Note_on_c, 7, 61, 89
10, 253200, Note_off_c, 7, 61, 64
10, 253200, Note_off_c, 7, 54, 64
10, 253200, Note_off_c, 7, 49, 64
10, 253200, Note_off_c, 7, 42, 64
10, 253200, Note_on_c, 7, 42, 102
10, 253204, Note_on_c, 7, 49, 102
10, 253208, Note_on_c, 7, 54, 102
10, 253212, Note_on_c, 7, 61, 89
10, 253440, Note_off_c, 7, 61, 64
10, 253440, Note_off_c, 7, 54, 64
10, 253440, Note_off_c, 7, 49, 64
10, 253440, Note_off_c, 7, 42, 64
10, 253440, Note_on_c, 7, 44, 102
10, 253444, Note_on_c, 7, 51, 102
10, 253448, Note_on_c, 7, 56, 102
10, 254160, Note_off_c, 7, 56, 64
10, 254160, Note_off_c, 7, 51, 64
10, 254160, Note_off_c, 7, 44, 64
10, 254160, Note_on_c, 7, 44, 102
10, 254164, Note_on_c, 7, 51, 102
10, 254168, Note_on_c, 7, 56, 102
10, 254880, Note_off_c, 7, 56, 64
10, 254880, Note_off_c, 7, 51, 64
10, 254880, Note_off_c, 7, 44, 64
10, 254880, Note_on_c, 7, 44, 102
10, 254884, Note_on_c, 7, 51, 102
10, 254888, Note_on_c, 7, 56, 102
10, 255120, Note_off_c, 7, 44, 64
10, 255120, Note_on_c, 7, 44, 102
10, 255124, Note_off_c, 7, 51, 64
10, 255124, Note_on_c, 7, 51, 102
10, 255128, Note_off_c, 7, 56, 64
10, 255128, Note_on_c, 7, 56, 102
10, 255360, Note_off_c, 7, 44, 64
10, 255360, Note_on_c, 7, 47, 102
10, 255364, Note_off_c, 7, 51, 64
10, 255364, Note_on_c, 7, 54, 102
10, 255368, Note_off_c, 7, 56, 64
10, 255368, Note_on_c, 7, 59, 102
10, 255840, Note_off_c, 7, 47, 64
10, 255840, Note_off_c, 7, 54, 64
10, 255840, Note_on_c, 7, 47, 102
10, 255844, Note_off_c, 7, 59, 64
10, 255844, Note_on_c, 7, 54, 102
10, 255848, Note_on_c, 7, 59, 102
10, 256080, Note_off_c, 7, 59, 64
10, 256080, Note_off_c, 7, 47, 64
10, 256080, Note_off_c, 7, 54, 64
10, 256080, Note_on_c, 7, 47, 102
10, 256084, Note_on_c, 7, 54, 102
10, 256088, Note_on_c, 7, 59, 102
10, 256200, Note_off_c, 7, 59, 64
10, 256200, Note_off_c, 7, 54, 64
10, 256200, Note_off_c, 7, 47, 64
10, 256200, Note_on_c, 7, 47, 102
10, 256204, Note_on_c, 7, 54, 102
10, 256208, Note_on_c, 7, 59, 102
10, 256320, Note_off_c, 7, 59, 64
10, 256320, Note_off_c, 7, 54, 64
10, 256320, Note_off_c, 7, 47, 64
10, 256320, Note_on_c, 7, 49, 102
10, 256324, Note_on_c, 7, 56, 102
10, 256328, Note_on_c, 7, 61, 102
10, 256800, Note_off_c, 7, 61, 64
10, 256800, Note_off_c, 7, 56, 64
10, 256800, Note_off_c, 7, 49, 64
10, 256800, Note_on_c, 7, 42, 102
10, 256804, Note_on_c, 7, 49, 102
10, 256808, Note_on_c, 7, 54, 102
10, 256812, Note_on_c, 7, 61, 89
10, 257280, Note_off_c, 7, 42, 64
10, 257280, Note_on_c, 7, 39, 102
10, 257284, Note_off_c, 7, 49, 64
10, 257284, Note_on_c, 7, 46, 102
10, 257288, Note_off_c, 7, 54, 64
10, 257288, Note_on_c, 7, 51, 102
10, 257292, Note_off_c, 7, 61, 64
10, 257292, Note_on_c, 7, 54, 70
10, 257296, Note_on_c, 7, 58, 70
10, 258000, Note_off_c, 7, 58, 64
10, 258000, Note_off_c, 7, 39, 64
10, 258000, Note_off_c, 7, 46, 64
10, 258000, Note_off_c, 7, 51, 64
10, 258000, Note_off_c, 7, 54, 64
10, 258000, Note_on_c, 7, 39, 102
10, 258004, Note_on_c, 7, 46, 102
10, 258008, Note_on_c, 7, 51, 102
10, 258012, Note_on_c, 7, 54, 70
10, 258016, Note_on_c, 7, 58, 70
10, 258720, Note_off_c, 7, 58, 64
10, 258720, Note_off_c, 7, 54, 64
10, 258720, Note_off_c, 7, 51, 64
10, 258720, Note_off_c, 7, 46, 64
10, 258720, Note_off_c, 7, 39, 64
10, 258720, Note_on_c, 7, 39, 108
10, 258960, Note_off_c, 7, 39, 64
10, 258960, Note_on_c, 7, 41, 108
10, 259200, Note_off_c, 7, 41, 64
10, 259200, Note_on_c, 7, 42, 102
10, 259204, Note_on_c, 7, 49, 102
10, 259208, Note_on_c, 7, 54, 102
10, 259212, Note_on_c, 7, 61, 89
10, 259920, Note_off_c, 7, 61, 64
10, 259920, Note_off_c, 7, 54, 64
10, 259920, Note_off_c, 7, 49, 64
10, 259920, Note_off_c, 7, 42, 64
10, 259920, Note_on_c, 7, 42, 102
10, 259924, Note_on_c, 7, 49, 102
10, 259928, Note_on_c, 7, 54, 102
10, 259932, Note_on_c, 7, 61, 89
10, 260640, Note_off_c, 7, 61, 64
10, 260640, Note_off_c, 7, 54, 64
10, 260640, Note_off_c, 7, 49, 64
10, 260640, Note_off_c, 7, 42, 64
10, 260640, Note_on_c, 7, 42, 102
10, 260644, Note_on_c, 7, 49, 102
10, 260648, Note_on_c, 7, 54, 102
10, 260652, Note_on_c, 7, 61, 89
10, 260880, Note_off_c, 7, 61, 64
10, 260880, Note_off_c, 7, 54, 64
10, 260880, Note_off_c, 7, 49, 64
10, 260880, Note_off_c, 7, 42, 64
10, 260880, Note_on_c, 7, 42, 102
10, 260884, Note_on_c, 7, 49, 102
10, 260888, Note_on_c, 7, 54, 102
10, 260892, Note_on_c, 7, 61, 89
10, 261120, Note_off_c, 7, 61, 64
10, 261120, Note_off_c, 7, 54, 64
10, 261120, Note_off_c, 7, 49, 64
10, 261120, Note_off_c, 7, 42, 64
10, 261120, Note_on_c, 7, 44, 102
10, 261124, Note_on_c, 7, 51, 102
10, 261128, Note_on_c, 7, 56, 102
10, 261840, Note_off_c, 7, 56, 64
10, 261840, Note_off_c, 7, 51, 64
10, 261840, Note_off_c, 7, 44, 64
10, 261840, Note_on_c, 7, 44, 102
10, 261844, Note_on_c, 7, 51, 102
10, 261848, Note_on_c, 7, 56, 102
10, 262560, Note_off_c, 7, 56, 64
10, 262560, Note_off_c, 7, 51, 64
10, 262560, Note_off_c, 7, 44, 64
10, 262560, Note_on_c, 7, 44, 102
10, 262564, Note_on_c, 7, 51, 102
10, 262568, Note_on_c, 7, 56, 102
10, 262800, Note_off_c, 7, 44, 64
10, 262800, Note_on_c, 7, 44, 102
10, 262804, Note_off_c, 7, 51, 64
10, 262804, Note_on_c, 7, 51, 102
10, 262808, Note_off_c, 7, 56, 64
10, 262808, Note_on_c, 7, 56, 102
10, 263040, Note_off_c, 7, 44, 64
10, 263040, Note_on_c, 7, 47, 102
10, 263044, Note_off_c, 7, 51, 64
10, 263044, Note_on_c, 7, 54, 102
10, 263048, Note_off_c, 7, 56, 64
10, 263048, Note_on_c, 7, 59, 102
10, 263520, Note_off_c, 7, 47, 64
10, 263520, Note_off_c, 7, 54, 64
10, 263520, Note_on_c, 7, 47, 102
10, 263524, Note_off_c, 7, 59, 64
10, 263524, Note_on_c, 7, 54, 102
10, 263528, Note_on_c, 7, 59, 102
10, 263760, Note_off_c, 7, 59, 64
10, 263760, Note_off_c, 7, 47, 64
10, 263760, Note_off_c, 7, 54, 64
10, 263760, Note_on_c, 7, 47, 102
10, 263764, Note_on_c, 7, 54, 102
10, 263768, Note_on_c, 7, 59, 102
10, 263880, Note_off_c, 7, 59, 64
10, 263880, Note_off_c, 7, 54, 64
10, 263880, Note_off_c, 7, 47, 64
10, 263880, Note_on_c, 7, 47, 102
10, 263884, Note_on_c, 7, 54, 102
10, 263888, Note_on_c, 7, 59, 102
10, 264000, Note_off_c, 7, 59, 64
10, 264000, Note_off_c, 7, 54, 64
10, 264000, Note_off_c, 7, 47, 64
10, 264000, Note_on_c, 7, 49, 102
10, 264004, Note_on_c, 7, 56, 102
10, 264008, Note_on_c, 7, 61, 102
10, 264480, Note_off_c, 7, 61, 64
10, 264480, Note_off_c, 7, 56, 64
10, 264480, Note_off_c, 7, 49, 64
10, 264480, Note_on_c, 7, 42, 102
10, 264484, Note_on_c, 7, 49, 102
10, 264488, Note_on_c, 7, 54, 102
10, 264492, Note_on_c, 7, 61, 89
10, 264960, Note_off_c, 7, 42, 64
10, 264960, Note_on_c, 7, 39, 102
10, 264964, Note_off_c, 7, 49, 64
10, 264964, Note_on_c, 7, 46, 102
10, 264968, Note_off_c, 7, 54, 64
10, 264968, Note_on_c, 7, 51, 102
10, 264972, Note_off_c, 7, 61, 64
10, 264972, Note_on_c, 7, 54, 70
10, 264976, Note_on_c, 7, 58, 70
10, 265680, Note_off_c, 7, 58, 64
10, 265680, Note_off_c, 7, 39, 64
10, 265680, Note_off_c, 7, 46, 64
10, 265680, Note_off_c, 7, 51, 64
10, 265680, Note_off_c, 7, 54, 64
10, 265680, Note_on_c, 7, 39, 102
10, 265684, Note_on_c, 7, 46, 102
10, 265688, Note_on_c, 7, 51, 102
10, 265692, Note_on_c, 7, 54, 70
10, 265696, Note_on_c, 7, 58, 70
10, 266400, Note_off_c, 7, 58, 64
10, 266400, Note_off_c, 7, 54, 64
10, 266400, Note_off_c, 7, 51, 64
10, 266400, Note_off_c, 7, 46, 64
10, 266400, Note_off_c, 7, 39, 64
10, 266400, Note_on_c, 7, 39, 108
10, 266640, Note_off_c, 7, 39, 64
10, 266640, Note_on_c, 7, 41, 108
10, 266880, Note_off_c, 7, 41, 64
10, 266880, Note_on_c, 7, 42, 102
10, 266884, Note_on_c, 7, 49, 102
10, 266888, Note_on_c, 7, 54, 102
10, 266892, Note_on_c, 7, 61, 89
10, 267600, Note_off_c, 7, 61, 64
10, 267600, Note_off_c, 7, 54, 64
10, 267600, Note_off_c, 7, 49, 64
10, 267600, Note_off_c, 7, 42, 64
10, 267600, Note_on_c, 7, 42, 102
10, 267604, Note_on_c, 7, 49, 102
10, 267608, Note_on_c, 7, 54, 102
10, 267612, Note_on_c, 7, 61, 89
10, 268320, Note_off_c, 7, 61, 64
10, 268320, Note_off_c, 7, 54, 64
10, 268320, Note_off_c, 7, 49, 64
10, 268320, Note_off_c, 7, 42, 64
10, 268320, Note_on_c, 7, 42, 102
10, 268324, Note_on_c, 7, 49, 102
10, 268328, Note_on_c, 7, 54, 102
10, 268332, Note_on_c, 7, 61, 89
10, 268560, Note_off_c, 7, 61, 64
10, 268560, Note_off_c, 7, 54, 64
10, 268560, Note_off_c, 7, 49, 64
10, 268560, Note_off_c, 7, 42, 64
10, 268560, Note_on_c, 7, 42, 102
10, 268564, Note_on_c, 7, 49, 102
10, 268568, Note_on_c, 7, 54, 102
10, 268572, Note_on_c, 7, 61, 89
10, 268800, Note_off_c, 7, 61, 64
10, 268800, Note_off_c, 7, 54, 64
10, 268800, Note_off_c, 7, 49, 64
10, 268800, Note_off_c, 7, 42, 64
10, 268800, Note_on_c, 7, 44, 102
10, 268804, Note_on_c, 7, 51, 102
10, 268808, Note_on_c, 7, 56, 102
10, 269520, Note_off_c, 7, 56, 64
10, 269520, Note_off_c, 7, 51, 64
10, 269520, Note_off_c, 7, 44, 64
10, 269520, Note_on_c, 7, 44, 102
10, 269524, Note_on_c, 7, 51, 102
10, 269528, Note_on_c, 7, 56, 102
10, 270240, Note_off_c, 7, 56, 64
10, 270240, Note_off_c, 7, 51, 64
10, 270240, Note_off_c, 7, 44, 64
10, 270240, Note_on_c, 7, 44, 102
10, 270244, Note_on_c, 7, 51, 102
10, 270248, Note_on_c, 7, 56, 102
10, 270480, Note_off_c, 7, 44, 64
10, 270480, Note_on_c, 7, 44, 102
10, 270484, Note_off_c, 7, 51, 64
10, 270484, Note_on_c, 7, 51, 102
10, 270488, Note_off_c, 7, 56, 64
10, 270488, Note_on_c, 7, 56, 102
10, 270720, Note_off_c, 7, 44, 64
10, 270720, Note_on_c, 7, 47, 102
10, 270724, Note_off_c, 7, 51, 64
10, 270724, Note_on_c, 7, 54, 102
10, 270728, Note_off_c, 7, 56, 64
10, 270728, Note_on_c, 7, 59, 102
10, 271200, Note_off_c, 7, 47, 64
10, 271200, Note_off_c, 7, 54, 64
10, 271200, Note_on_c, 7, 47, 102
10, 271204, Note_off_c, 7, 59, 64
10, 271204, Note_on_c, 7, 54, 102
10, 271208, Note_on_c, 7, 59, 102
10, 271440, Note_off_c, 7, 59, 64
10, 271440, Note_off_c, 7, 47, 64
10, 271440, Note_off_c, 7, 54, 64
10, 271440, Note_on_c, 7, 47, 102
10, 271444, Note_on_c, 7, 54, 102
10, 271448, Note_on_c, 7, 59, 102
10, 271560, Note_off_c, 7, 59, 64
10, 271560, Note_off_c, 7, 54, 64
10, 271560, Note_off_c, 7, 47, 64
10, 271560, Note_on_c, 7, 47, 102
10, 271564, Note_on_c, 7, 54, 102
10, 271568, Note_on_c, 7, 59, 102
10, 271680, Note_off_c, 7, 59, 64
10, 271680, Note_off_c, 7, 54, 64
10, 271680, Note_off_c, 7, 47, 64
10, 271680, Note_on_c, 7, 49, 102
10, 271684, Note_on_c, 7, 56, 102
10, 271688, Note_on_c, 7, 61, 102
10, 272160, Note_off_c, 7, 61, 64
10, 272160, Note_off_c, 7, 56, 64
10, 272160, Note_off_c, 7, 49, 64
10, 272160, Note_on_c, 7, 42, 102
10, 272164, Note_on_c, 7, 49, 102
10, 272168, Note_on_c, 7, 54, 102
10, 272172, Note_on_c, 7, 61, 89
10, 272640, Note_off_c, 7, 42, 64
10, 272640, Note_on_c, 7, 39, 102
10, 272644, Note_off_c, 7, 49, 64
10, 272644, Note_on_c, 7, 46, 102
10, 272648, Note_off_c, 7, 54, 64
10, 272648, Note_on_c, 7, 51, 102
10, 272652, Note_off_c, 7, 61, 64
10, 272652, Note_on_c, 7, 54, 70
10, 272656, Note_on_c, 7, 58, 70
10, 273360, Note_off_c, 7, 58, 64
10, 273360, Note_off_c, 7, 39, 64
10, 273360, Note_off_c, 7, 46, 64
10, 273360, Note_off_c, 7, 51, 64
10, 273360, Note_off_c, 7, 54, 64
10, 273360, Note_on_c, 7, 39, 102
10, 273364, Note_on_c, 7, 46, 102
10, 273368, Note_on_c, 7, 51, 102
10, 273372, Note_on_c, 7, 54, 70
10, 273376, Note_on_c, 7, 58, 70
10, 274080, Note_off_c, 7, 58, 64
10, 274080, Note_off_c, 7, 54, 64
10, 274080, Note_off_c, 7, 51, 64
10, 274080, Note_off_c, 7, 46, 64
10, 274080, Note_off_c, 7, 39, 64
10, 274080, Note_on_c, 7, 39, 108
10, 274320, Note_off_c, 7, 39, 64
10, 274320, Note_on_c, 7, 41, 108
10, 274560, Note_off_c, 7, 41, 64
10, 274560, Note_on_c, 7, 42, 102
10, 274564, Note_on_c, 7, 49, 102
10, 274568, Note_on_c, 7, 54, 102
10, 274572, Note_on_c, 7, 61, 89
10, 275280, Note_off_c, 7, 61, 64
10, 275280, Note_off_c, 7, 54, 64
10, 275280, Note_off_c, 7, 49, 64
10, 275280, Note_off_c, 7, 42, 64
10, 275280, Note_on_c, 7, 42, 102
10, 275284, Note_on_c, 7, 49, 102
10, 275288, Note_on_c, 7, 54, 102
10, 275292, Note_on_c, 7, 61, 89
10, 276000, Note_off_c, 7, 61, 64
10, 276000, Note_off_c, 7, 54, 64
10, 276000, Note_off_c, 7, 49, 64
10, 276000, Note_off_c, 7, 42, 64
10, 276000, Note_on_c, 7, 42, 102
10, 276004, Note_on_c, 7, 49, 102
10, 276008, Note_on_c, 7, 54, 102
10, 276012, Note_on_c, 7, 61, 89
10, 276240, Note_off_c, 7, 61, 64
10, 276240, Note_off_c, 7, 54, 64
10, 276240, Note_off_c, 7, 49, 64
10, 276240, Note_off_c, 7, 42, 64
10, 276240, Note_on_c, 7, 42, 102
10, 276244, Note_on_c, 7, 49, 102
10, 276248, Note_on_c, 7, 54, 102
10, 276252, Note_on_c, 7, 61, 89
10, 276480, Note_off_c, 7, 61, 64
10, 276480, Note_off_c, 7, 54, 64
10, 276480, Note_off_c, 7, 49, 64
10, 276480, Note_off_c, 7, 42, 64
10, 276480, Note_on_c, 7, 44, 102
10, 276484, Note_on_c, 7, 51, 102
10, 276488, Note_on_c, 7, 56, 102
10, 277200, Note_off_c, 7, 56, 64
10, 277200, Note_off_c, 7, 51, 64
10, 277200, Note_off_c, 7, 44, 64
10, 277200, Note_on_c, 7, 44, 102
10, 277204, Note_on_c, 7, 51, 102
10, 277208, Note_on_c, 7, 56, 102
10, 277920, Note_off_c, 7, 56, 64
10, 277920, Note_off_c, 7, 51, 64
10, 277920, Note_off_c, 7, 44, 64
10, 277920, Note_on_c, 7, 44, 102
10, 277924, Note_on_c, 7, 51, 102
10, 277928, Note_on_c, 7, 56, 102
10, 278160, Note_off_c, 7, 44, 64
10, 278160, Note_on_c, 7, 44, 102
10, 278164, Note_off_c, 7, 51, 64
10, 278164, Note_on_c, 7, 51, 102
10, 278168, Note_off_c, 7, 56, 64
10, 278168, Note_on_c, 7, 56, 102
10, 278400, Note_off_c, 7, 44, 64
10, 278400, Note_on_c, 7, 47, 102
10, 278404, Note_off_c, 7, 51, 64
10, 278404, Note_on_c, 7, 54, 102
10, 278408, Note_off_c, 7, 56, 64
10, 278408, Note_on_c, 7, 59, 102
10, 278880, Note_off_c, 7, 47, 64
10, 278880, Note_off_c, 7, 54, 64
10, 278880, Note_on_c, 7, 47, 102
10, 278884, Note_off_c, 7, 59, 64
10, 278884, Note_on_c, 7, 54, 102
10, 278888, Note_on_c, 7, 59, 102
10, 279120, Note_off_c, 7, 59, 64
10, 279120, Note_off_c, 7, 47, 64
10, 279120, Note_off_c, 7, 54, 64
10, 279120, Note_on_c, 7, 47, 102
10, 279124, Note_on_c, 7, 54, 102
10, 279128, Note_on_c, 7, 59, 102
10, 279240, Note_off_c, 7, 59, 64
10, 279240, Note_off_c, 7, 54, 64
10, 279240, Note_off_c, 7, 47, 64
10, 279240, Note_on_c, 7, 47, 102
10, 279244, Note_on_c, 7, 54, 102
10, 279248, Note_on_c, 7, 59, 102
10, 279360, Note_off_c, 7, 59, 64
10, 279360, Note_off_c, 7, 54, 64
10, 279360, Note_off_c, 7, 47, 64
10, 279360, Note_on_c, 7, 49, 102
10, 279364, Note_on_c, 7, 56, 102
10, 279368, Note_on_c, 7, 61, 102
10, 279840, Note_off_c, 7, 61, 64
10, 279840, Note_off_c, 7, 56, 64
10, 279840, Note_off_c, 7, 49, 64
10, 279840, Note_on_c, 7, 42, 102
10, 279844, Note_on_c, 7, 49, 102
10, 279848, Note_on_c, 7, 54, 102
10, 279852, Note_on_c, 7, 61, 89
10, 280320, Note_off_c, 7, 42, 64
10, 280324, Note_off_c, 7, 49, 64
10, 280328, Note_off_c, 7, 54, 64
10, 280332, Note_off_c, 7, 61, 64
10, 311040, Note_on_c, 7, 39, 102
10, 311044, Note_on_c, 7, 46, 102
10, 311048, Note_on_c, 7, 51, 102
10, 311516, Note_off_c, 7, 51, 64
10, 311520, Note_off_c, 7, 46, 64
10, 311520, Note_off_c, 7, 39, 64
10, 311520, Note_on_c, 7, 54, 89
10, 311520, Note_on_c, 7, 49, 89
10, 311520, Note_on_c, 7, 44, 89
10, 311580, Note_off_c, 7, 44, 64
10, 311580, Note_off_c, 7, 49, 64
10, 311580, Note_off_c, 7, 54, 64
10, 311760, Note_on_c, 7, 39, 102
10, 311764, Note_on_c, 7, 46, 102
10, 311768, Note_on_c, 7, 51, 102
10, 312236, Note_off_c, 7, 51, 64
10, 312236, Note_off_c, 7, 46, 64
10, 312240, Note_off_c, 7, 39, 64
10, 312240, Note_on_c, 7, 39, 102
10, 312244, Note_on_c, 7, 46, 102
10, 312248, Note_on_c, 7, 51, 102
10, 312480, Note_off_c, 7, 51, 64
10, 312480, Note_off_c, 7, 46, 64
10, 312480, Note_off_c, 7, 39, 64
10, 312480, Note_on_c, 7, 39, 102
10, 312484, Note_on_c, 7, 46, 102
10, 312488, Note_on_c, 7, 51, 102
10, 312720, Note_off_c, 7, 51, 64
10, 312720, Note_off_c, 7, 46, 64
10, 312720, Note_off_c, 7, 39, 64
10, 312720, Note_on_c, 7, 41, 102
10, 312960, Note_off_c, 7, 41, 64
10, 312960, Note_on_c, 7, 42, 102
10, 312964, Note_on_c, 7, 49, 102
10, 312968, Note_on_c, 7, 54, 102
10, 313440, Note_off_c, 7, 54, 64
10, 313440, Note_off_c, 7, 49, 64
10, 313440, Note_off_c, 7, 42, 64
10, 313440, Note_on_c, 7, 54, 89
10, 313440, Note_on_c, 7, 49, 89
10, 313440, Note_on_c, 7, 44, 89
10, 313500, Note_off_c, 7, 44, 64
10, 313500, Note_off_c, 7, 49, 64
10, 313500, Note_off_c, 7, 54, 64
10, 313680, Note_on_c, 7, 42, 102
10, 313684, Note_on_c, 7, 49, 102
10, 313688, Note_on_c, 7, 54, 102
10, 314400, Note_off_c, 7, 42, 64
10, 314400, Note_on_c, 7, 42, 102
10, 314404, Note_off_c, 7, 49, 64
10, 314404, Note_on_c, 7, 49, 102
10, 314408, Note_off_c, 7, 54, 64
10, 314408, Note_on_c, 7, 54, 102
10, 314640, Note_off_c, 7, 42, 64
10, 314640, Note_on_c, 7, 39, 102
10, 314644, Note_off_c, 7, 49, 64
10, 314648, Note_off_c, 7, 54, 64
10, 314880, Note_off_c, 7, 39, 64
10, 314880, Note_on_c, 7, 44, 102
10, 314884, Note_on_c, 7, 51, 102
10, 314888, Note_on_c, 7, 56, 102
10, 315360, Note_off_c, 7, 56, 64
10, 315360, Note_off_c, 7, 51, 64
10, 315360, Note_off_c, 7, 44, 64
10, 315360, Note_on_c, 7, 54, 89
10, 315360, Note_on_c, 7, 49, 89
10, 315360, Note_on_c, 7, 44, 89
10, 315420, Note_off_c, 7, 44, 64
10, 315420, Note_off_c, 7, 49, 64
10, 315420, Note_off_c, 7, 54, 64
10, 315600, Note_on_c, 7, 44, 102
10, 315604, Note_on_c, 7, 51, 102
10, 315608, Note_on_c, 7, 56, 102
10, 316080, Note_off_c, 7, 56, 64
10, 316080, Note_off_c, 7, 51, 64
10, 316080, Note_off_c, 7, 44, 64
10, 316080, Note_on_c, 7, 44, 102
10, 316084, Note_on_c, 7, 51, 102
10, 316088, Note_on_c, 7, 56, 102
10, 316320, Note_off_c, 7, 56, 64
10, 316320, Note_off_c, 7, 51, 64
10, 316320, Note_off_c, 7, 44, 64
10, 316320, Note_on_c, 7, 44, 102
10, 316324, Note_on_c, 7, 51, 102
10, 316328, Note_on_c, 7, 56, 102
10, 316560, Note_off_c, 7, 44, 64
10, 316560, Note_on_c, 7, 54, 89
10, 316560, Note_on_c, 7, 49, 89
10, 316560, Note_on_c, 7, 44, 89
10, 316564, Note_off_c, 7, 51, 64
10, 316568, Note_off_c, 7, 56, 64
10, 316620, Note_off_c, 7, 54, 64
10, 316620, Note_off_c, 7, 49, 64
10, 316620, Note_off_c, 7, 44, 64
10, 316800, Note_on_c, 7, 47, 102
10, 316804, Note_on_c, 7, 54, 102
10, 316808, Note_on_c, 7, 59, 102
10, 317280, Note_off_c, 7, 59, 64
10, 317280, Note_off_c, 7, 54, 64
10, 317280, Note_off_c, 7, 47, 64
10, 317280, Note_on_c, 7, 47, 102
10, 317284, Note_on_c, 7, 54, 102
10, 317288, Note_on_c, 7, 59, 102
10, 317760, Note_off_c, 7, 59, 64
10, 317760, Note_off_c, 7, 54, 64
10, 317760, Note_off_c, 7, 47, 64
10, 317760, Note_on_c, 7, 49, 102
10, 317764, Note_on_c, 7, 56, 102
10, 317768, Note_on_c, 7, 61, 102
10, 318240, Note_off_c, 7, 61, 64
10, 318240, Note_off_c, 7, 56, 64
10, 318240, Note_off_c, 7, 49, 64
10, 318240, Note_on_c, 7, 42, 102
10, 318244, Note_on_c, 7, 49, 102
10, 318248, Note_on_c, 7, 54, 102
10, 318720, Note_off_c, 7, 42, 64
10, 318720, Note_on_c, 7, 39, 102
10, 318724, Note_off_c, 7, 49, 64
10, 318724, Note_on_c, 7, 46, 102
10, 318728, Note_off_c, 7, 54, 64
10, 318728, Note_on_c, 7, 51, 102
10, 319196, Note_off_c, 7, 51, 64
10, 319200, Note_off_c, 7, 39, 64
10, 319200, Note_off_c, 7, 46, 64
10, 319200, Note_on_c, 7, 54, 89
10, 319200, Note_on_c, 7, 49, 89
10, 319200, Note_on_c, 7, 44, 89
10, 319260, Note_off_c, 7, 44, 64
10, 319260, Note_off_c, 7, 49, 64
10, 319260, Note_off_c, 7, 54, 64
10, 319440, Note_on_c, 7, 39, 102
10, 319444, Note_on_c, 7, 46, 102
10, 319448, Note_on_c, 7, 51, 102
10, 319916, Note_off_c, 7, 51, 64
10, 319916, Note_off_c, 7, 46, 64
10, 319920, Note_off_c, 7, 39, 64
10, 319920, Note_on_c, 7, 39, 102
10, 319924, Note_on_c, 7, 46, 102
10, 319928, Note_on_c, 7, 51, 102
10, 320160, Note_off_c, 7, 51, 64
10, 320160, Note_off_c, 7, 46, 64
10, 320160, Note_off_c, 7, 39, 64
10, 320160, Note_on_c, 7, 39, 102
10, 320164, Note_on_c, 7, 46, 102
10, 320168, Note_on_c, 7, 51, 102
10, 320400, Note_off_c, 7, 51, 64
10, 320400, Note_off_c, 7, 46, 64
10, 320400, Note_off_c, 7, 39, 64
10, 320400, Note_on_c, 7, 41, 102
10, 320640, Note_off_c, 7, 41, 64
10, 320640, Note_on_c, 7, 42, 102
10, 320644, Note_on_c, 7, 49, 102
10, 320648, Note_on_c, 7, 54, 102
10, 321120, Note_off_c, 7, 54, 64
10, 321120, Note_off_c, 7, 49, 64
10, 321120, Note_off_c, 7, 42, 64
10, 321120, Note_on_c, 7, 54, 89
10, 321120, Note_on_c, 7, 49, 89
10, 321120, Note_on_c, 7, 44, 89
10, 321180, Note_off_c, 7, 44, 64
10, 321180, Note_off_c, 7, 49, 64
10, 321180, Note_off_c, 7, 54, 64
10, 321360, Note_on_c, 7, 42, 102
10, 321364, Note_on_c, 7, 49, 102
10, 321368, Note_on_c, 7, 54, 102
10, 322080, Note_off_c, 7, 42, 64
10, 322080, Note_on_c, 7, 42, 102
10, 322084, Note_off_c, 7, 49, 64
10, 322084, Note_on_c, 7, 49, 102
10, 322088, Note_off_c, 7, 54, 64
10, 322088, Note_on_c, 7, 54, 102
10, 322320, Note_off_c, 7, 42, 64
10, 322320, Note_on_c, 7, 39, 102
10, 322324, Note_off_c, 7, 49, 64
10, 322328, Note_off_c, 7, 54, 64
10, 322560, Note_off_c, 7, 39, 64
10, 322560, Note_on_c, 7, 44, 102
10, 322564, Note_on_c, 7, 51, 102
10, 322568, Note_on_c, 7, 56, 102
10, 323040, Note_off_c, 7, 56, 64
10, 323040, Note_off_c, 7, 51, 64
10, 323040, Note_off_c, 7, 44, 64
10, 323040, Note_on_c, 7, 54, 89
10, 323040, Note_on_c, 7, 49, 89
10, 323040, Note_on_c, 7, 44, 89
10, 323100, Note_off_c, 7, 44, 64
10, 323100, Note_off_c, 7, 49, 64
10, 323100, Note_off_c, 7, 54, 64
10, 323280, Note_on_c, 7, 44, 102
10, 323284, Note_on_c, 7, 51, 102
10, 323288, Note_on_c, 7, 56, 102
10, 323760, Note_off_c, 7, 56, 64
10, 323760, Note_off_c, 7, 51, 64
10, 323760, Note_off_c, 7, 44, 64
10, 323760, Note_on_c, 7, 44, 102
10, 323764, Note_on_c, 7, 51, 102
10, 323768, Note_on_c, 7, 56, 102
10, 324000, Note_off_c, 7, 56, 64
10, 324000, Note_off_c, 7, 51, 64
10, 324000, Note_off_c, 7, 44, 64
10, 324000, Note_on_c, 7, 44, 102
10, 324004, Note_on_c, 7, 51, 102
10, 324008, Note_on_c, 7, 56, 102
10, 324240, Note_off_c, 7, 44, 64
10, 324240, Note_on_c, 7, 54, 89
10, 324240, Note_on_c, 7, 49, 89
10, 324240, Note_on_c, 7, 44, 89
10, 324244, Note_off_c, 7, 51, 64
10, 324248, Note_off_c, 7, 56, 64
10, 324300, Note_off_c, 7, 54, 64
10, 324300, Note_off_c, 7, 49, 64
10, 324300, Note_off_c, 7, 44, 64
10, 324480, Note_on_c, 7, 47, 102
10, 324484, Note_on_c, 7, 54, 102
10, 324488, Note_on_c, 7, 59, 102
10, 324960, Note_off_c, 7, 59, 64
10, 324960, Note_off_c, 7, 54, 64
10, 324960, Note_off_c, 7, 47, 64
10, 324960, Note_on_c, 7, 47, 102
10, 324964, Note_on_c, 7, 54, 102
10, 324968, Note_on_c, 7, 59, 102
10, 325440, Note_off_c, 7, 59, 64
10, 325440, Note_off_c, 7, 54, 64
10, 325440, Note_off_c, 7, 47, 64
10, 325440, Note_on_c, 7, 49, 102
10, 325444, Note_on_c, 7, 56, 102
10, 325448, Note_on_c, 7, 61, 102
10, 325920, Note_off_c, 7, 61, 64
10, 325920, Note_off_c, 7, 56, 64
10, 325920, Note_off_c, 7, 49, 64
10, 325920, Note_on_c, 7, 42, 102
10, 325924, Note_on_c, 7, 49, 102
10, 325928, Note_on_c, 7, 54, 102
10, 326400, Note_off_c, 7, 42, 64
10, 326400, Note_on_c, 7, 39, 102
10, 326404, Note_off_c, 7, 49, 64
10, 326404, Note_on_c, 7, 46, 102
10, 326408, Note_off_c, 7, 54, 64
10, 326408, Note_on_c, 7, 51, 102
10, 326876, Note_off_c, 7, 51, 64
10, 326880, Note_off_c, 7, 39, 64
10, 326880, Note_off_c, 7, 46, 64
10, 326880, Note_on_c, 7, 54, 89
10, 326880, Note_on_c, 7, 49, 89
10, 326880, Note_on_c, 7, 44, 89
10, 326940, Note_off_c, 7, 44, 64
10, 326940, Note_off_c, 7, 49, 64
10, 326940, Note_off_c, 7, 54, 64
10, 327120, Note_on_c, 7, 39, 102
10, 327124, Note_on_c, 7, 46, 102
10, 327128, Note_on_c, 7, 51, 102
10, 327596, Note_off_c, 7, 51, 64
10, 327596, Note_off_c, 7, 46, 64
10, 327600, Note_off_c, 7, 39, 64
10, 327600, Note_on_c, 7, 39, 102
10, 327604, Note_on_c, 7, 46, 102
10, 327608, Note_on_c, 7, 51, 102
10, 327840, Note_off_c, 7, 51, 64
10, 327840, Note_off_c, 7, 46, 64
10, 327840, Note_off_c, 7, 39, 64
10, 327840, Note_on_c, 7, 39, 102
10, 327844, Note_on_c, 7, 46, 102
10, 327848, Note_on_c, 7, 51, 102
10, 328080, Note_off_c, 7, 51, 64
10, 328080, Note_off_c, 7, 46, 64
10, 328080, Note_off_c, 7, 39, 64
10, 328080, Note_on_c, 7, 41, 102
10, 328320, Note_off_c, 7, 41, 64
10, 328320, Note_on_c, 7, 42, 102
10, 328324, Note_on_c, 7, 49, 102
10, 328328, Note_on_c, 7, 54, 102
10, 328800, Note_off_c, 7, 54, 64
10, 328800, Note_off_c, 7, 49, 64
10, 328800, Note_off_c, 7, 42, 64
10, 328800, Note_on_c, 7, 54, 89
10, 328800, Note_on_c, 7, 49, 89
10, 328800, Note_on_c, 7, 44, 89
10, 328860, Note_off_c, 7, 44, 64
10, 328860, Note_off_c, 7, 49, 64
10, 328860, Note_off_c, 7, 54, 64
10, 329040, Note_on_c, 7, 42, 102
10, 329044, Note_on_c, 7, 49, 102
10, 329048, Note_on_c, 7, 54, 102
10, 329760, Note_off_c, 7, 42, 64
10, 329760, Note_on_c, 7, 42, 102
10, 329764, Note_off_c, 7, 49, 64
10, 329764, Note_on_c, 7, 49, 102
10, 329768, Note_off_c, 7, 54, 64
10, 329768, Note_on_c, 7, 54, 102
10, 330000, Note_off_c, 7, 42, 64
10, 330000, Note_on_c, 7, 39, 102
10, 330004, Note_off_c, 7, 49, 64
10, 330008, Note_off_c, 7, 54, 64
10, 330240, Note_off_c, 7, 39, 64
10, 330240, Note_on_c, 7, 44, 102
10, 330244, Note_on_c, 7, 51, 102
10, 330248, Note_on_c, 7, 56, 102
10, 330720, Note_off_c, 7, 56, 64
10, 330720, Note_off_c, 7, 51, 64
10, 330720, Note_off_c, 7, 44, 64
10, 330720, Note_on_c, 7, 54, 89
10, 330720, Note_on_c, 7, 49, 89
10, 330720, Note_on_c, 7, 44, 89
10, 330780, Note_off_c, 7, 44, 64
10, 330780, Note_off_c, 7, 49, 64
10, 330780, Note_off_c, 7, 54, 64
10, 330960, Note_on_c, 7, 44, 102
10, 330964, Note_on_c, 7, 51, 102
10, 330968, Note_on_c, 7, 56, 102
10, 331440, Note_off_c, 7, 56, 64
10, 331440, Note_off_c, 7, 51, 64
10, 331440, Note_off_c, 7, 44, 64
10, 331440, Note_on_c, 7, 44, 102
10, 331444, Note_on_c, 7, 51, 102
10, 331448, Note_on_c, 7, 56, 102
10, 331680, Note_off_c, 7, 56, 64
10, 331680, Note_off_c, 7, 51, 64
10, 331680, Note_off_c, 7, 44, 64
10, 331680, Note_on_c, 7, 44, 102
10, 331684, Note_on_c, 7, 51, 102
10, 331688, Note_on_c, 7, 56, 102
10, 331920, Note_off_c, 7, 44, 64
10, 331920, Note_on_c, 7, 54, 89
10, 331920, Note_on_c, 7, 49, 89
10, 331920, Note_on_c, 7, 44, 89
10, 331924, Note_off_c, 7, 51, 64
10, 331928, Note_off_c, 7, 56, 64
10, 331980, Note_off_c, 7, 54, 64
10, 331980, Note_off_c, 7, 49, 64
10, 331980, Note_off_c, 7, 44, 64
10, 332160, Note_on_c, 7, 63, 102
10, 332480, Note_off_c, 7, 63, 64
10, 332480, Note_on_c, 7, 61, 102
10, 332800, Note_off_c, 7, 61, 64
10, 332800, Note_on_c, 7, 58, 102
10, 333120, Note_off_c, 7, 58, 64
10, 333120, Note_on_c, 7, 57, 102
10, 333440, Note_off_c, 7, 57, 64
10, 333440, Note_on_c, 7, 56, 102
10, 333760, Note_off_c, 7, 56, 64
10, 333760, Note_on_c, 7, 54, 102
10, 334080, Note_off_c, 7, 54, 64
10, 334080, Note_on_c, 7, 39, 102
10, 334084, Note_on_c, 7, 46, 102
10, 334088, Note_on_c, 7, 51, 102
10, 334556, Note_off_c, 7, 51, 64
10, 334560, Note_off_c, 7, 46, 64
10, 334560, Note_off_c, 7, 39, 64
10, 334560, Note_on_c, 7, 54, 89
10, 334560, Note_on_c, 7, 49, 89
10, 334560, Note_on_c, 7, 44, 89
10, 334620, Note_off_c, 7, 44, 64
10, 334620, Note_off_c, 7, 49, 64
10, 334620, Note_off_c, 7, 54, 64
10, 334800, Note_on_c, 7, 39, 102
10, 334804, Note_on_c, 7, 46, 102
10, 334808, Note_on_c, 7, 51, 102
10, 335276, Note_off_c, 7, 51, 64
10, 335276, Note_off_c, 7, 46, 64
10, 335280, Note_off_c, 7, 39, 64
10, 335280, Note_on_c, 7, 39, 102
10, 335284, Note_on_c, 7, 46, 102
10, 335288, Note_on_c, 7, 51, 102
10, 335520, Note_off_c, 7, 51, 64
10, 335520, Note_off_c, 7, 46, 64
10, 335520, Note_off_c, 7, 39, 64
10, 335520, Note_on_c, 7, 39, 102
10, 335524, Note_on_c, 7, 46, 102
10, 335528, Note_on_c, 7, 51, 102
10, 335760, Note_off_c, 7, 51, 64
10, 335760, Note_off_c, 7, 46, 64
10, 335760, Note_off_c, 7, 39, 64
10, 335760, Note_on_c, 7, 41, 102
10, 336000, Note_off_c, 7, 41, 64
10, 336000, Note_on_c, 7, 42, 102
10, 336004, Note_on_c, 7, 49, 102
10, 336008, Note_on_c, 7, 54, 102
10, 336720, Note_off_c, 7, 54, 64
10, 336720, Note_off_c, 7, 49, 64
10, 336720, Note_off_c, 7, 42, 64
10, 336720, Note_on_c, 7, 42, 102
10, 336724, Note_on_c, 7, 49, 102
10, 336728, Note_on_c, 7, 54, 102
10, 337680, Note_off_c, 7, 54, 64
10, 337680, Note_off_c, 7, 49, 64
10, 337680, Note_off_c, 7, 42, 64
10, 337680, Note_on_c, 7, 42, 102
10, 337684, Note_on_c, 7, 49, 102
10, 337688, Note_on_c, 7, 54, 102
10, 337920, Note_off_c, 7, 42, 64
10, 337920, Note_on_c, 7, 44, 102
10, 337924, Note_off_c, 7, 49, 64
10, 337924, Note_on_c, 7, 51, 102
10, 337928, Note_off_c, 7, 54, 64
10, 337928, Note_on_c, 7, 56, 102
10, 339840, Note_off_c, 7, 44, 64
10, 339840, Note_on_c, 7, 47, 102
10, 339844, Note_off_c, 7, 51, 64
10, 339844, Note_on_c, 7, 54, 102
10, 339848, Note_off_c, 7, 56, 64
10, 339848, Note_on_c, 7, 59, 102
10, 340800, Note_off_c, 7, 47, 64
10, 340800, Note_off_c, 7, 54, 64
10, 340800, Note_off_c, 7, 59, 64
10, 340800, Note_on_c, 7, 49, 102
10, 340804, Note_on_c, 7, 56, 102
10, 340808, Note_on_c, 7, 61, 102
10, 341760, Note_off_c, 7, 49, 64
10, 341760, Note_on_c, 7, 51, 102
10, 341764, Note_off_c, 7, 56, 64
10, 341764, Note_on_c, 7, 58, 102
10, 341768, Note_off_c, 7, 61, 64
10, 341768, Note_on_c, 7, 63, 102
10, 349440, Note_off_c, 7, 51, 64
10, 349444, Note_off_c, 7, 58, 64
10, 349448, Note_off_c, 7, 63, 64
10, 355200, Control_c, 0, 121, 0
10, 355200, End_track
11, 0, Start_track
11, 0, Title_t, "       """
11, 0, MIDI_port, 0
11, 0, Control_c, 8, 121, 0
11, 0, Control_c, 8, 100, 0
11, 0, Control_c, 8, 101, 0
11, 0, Control_c, 8, 6, 12
11, 0, Control_c, 8, 100, 127
11, 0, Control_c, 8, 101, 127
11, 0, Control_c, 8, 1, 0
11, 0, Control_c, 8, 11, 127
11, 0, Control_c, 8, 64, 0
11, 0, Control_c, 8, 7, 94
11, 0, Control_c, 8, 10, 64
11, 0, Control_c, 8, 91, 64
11, 0, Control_c, 8, 93, 51
11, 4, Program_c, 8, 27
11, 61440, Note_on_c, 8, 65, 95
11, 61680, Pitch_bend_c, 8, 7517
11, 63360, Note_off_c, 8, 65, 64
11, 109440, Program_c, 8, 27
11, 122880, Note_on_c, 8, 65, 95
11, 123120, Pitch_bend_c, 8, 7517
11, 124800, Note_off_c, 8, 65, 64
11, 355200, Control_c, 0, 121, 0
11, 355200, End_track
12, 0, Start_track
12, 0, Title_t, "Lead Guitar Fill"
12, 0, MIDI_port, 0
12, 0, Control_c, 10, 121, 0
12, 0, Control_c, 10, 100, 0
12, 0, Control_c, 10, 101, 0
12, 0, Control_c, 10, 6, 12
12, 0, Control_c, 10, 100, 127
12, 0, Control_c, 10, 101, 127
12, 0, Control_c, 10, 1, 0
12, 0, Control_c, 10, 11, 127
12, 0, Control_c, 10, 64, 0
12, 0, Control_c, 10, 7, 127
12, 0, Control_c, 10, 10, 0
12, 0, Control_c, 10, 91, 64
12, 0, Control_c, 10, 93, 51
12, 4, Program_c, 10, 30
12, 245520, Note_on_c, 10, 62, 98
12, 245640, Note_off_c, 10, 62, 64
12, 245640, Note_on_c, 10, 63, 98
12, 245760, Note_off_c, 10, 63, 64
12, 245760, Note_on_c, 10, 66, 98
12, 245880, Pitch_bend_c, 10, 7517
12, 246000, Note_off_c, 10, 66, 64
12, 246000, Pitch_bend_c, 10, 8192
12, 246000, Note_on_c, 10, 63, 98
12, 246120, Note_off_c, 10, 63, 64
12, 246120, Note_on_c, 10, 65, 98
12, 246216, Note_on_c, 10, 68, 98
12, 246220, Note_off_c, 10, 65, 64
12, 246220, Pitch_bend_c, 10, 8192
12, 246224, Pitch_bend_c, 10, 8467
12, 246228, Pitch_bend_c, 10, 8742
12, 246232, Pitch_bend_c, 10, 9017
12, 246236, Pitch_bend_c, 10, 9292
12, 246240, Pitch_bend_c, 10, 9567
12, 246480, Note_off_c, 10, 68, 64
12, 246480, Pitch_bend_c, 10, 8192
12, 246480, Note_on_c, 10, 71, 98
12, 246600, Pitch_bend_c, 10, 7517
12, 246720, Note_off_c, 10, 71, 64
12, 246720, Pitch_bend_c, 10, 8192
12, 246720, Note_on_c, 10, 74, 98
12, 246840, Note_off_c, 10, 74, 64
12, 246840, Note_on_c, 10, 70, 98
12, 246960, Note_off_c, 10, 70, 64
12, 246960, Note_on_c, 10, 71, 98
12, 247080, Note_off_c, 10, 71, 64
12, 247080, Note_on_c, 10, 74, 98
12, 247200, Note_off_c, 10, 74, 64
12, 247200, Note_on_c, 10, 75, 98
12, 247232, Pitch_bend_c, 10, 8524
12, 247296, Pitch_bend_c, 10, 9283
12, 247320, Pitch_bend_c, 10, 9567
12, 247440, Note_off_c, 10, 75, 64
12, 247440, Pitch_bend_c, 10, 8192
12, 247440, Note_on_c, 10, 74, 98
12, 247560, Note_off_c, 10, 74, 64
12, 247560, Note_on_c, 10, 75, 98
12, 247680, Note_off_c, 10, 75, 64
12, 247680, Note_on_c, 10, 77, 98
12, 247728, Pitch_bend_c, 10, 8458
12, 247800, Pitch_bend_c, 10, 8892
12, 247920, Note_off_c, 10, 77, 64
12, 247920, Pitch_bend_c, 10, 8192
12, 247920, Note_on_c, 10, 75, 98
12, 248040, Note_off_c, 10, 75, 64
12, 248040, Note_on_c, 10, 77, 98
12, 248160, Note_off_c, 10, 77, 64
12, 248160, Note_on_c, 10, 78, 98
12, 248280, Note_off_c, 10, 78, 64
12, 248280, Note_on_c, 10, 77, 98
12, 248400, Pitch_bend_c, 10, 6842
12, 248520, Note_off_c, 10, 77, 64
12, 248520, Pitch_bend_c, 10, 8192
12, 248520, Note_on_c, 10, 73, 98
12, 248640, Note_off_c, 10, 73, 64
12, 248640, Note_on_c, 10, 77, 98
12, 248760, Note_off_c, 10, 77, 64
12, 248760, Note_on_c, 10, 74, 98
12, 248880, Note_off_c, 10, 74, 64
12, 248880, Note_on_c, 10, 75, 98
12, 248960, Pitch_bend_c, 10, 9567
12, 249040, Pitch_bend_c, 10, 8192
12, 249120, Note_off_c, 10, 75, 64
12, 249120, Note_on_c, 10, 73, 98
12, 249240, Note_off_c, 10, 73, 64
12, 249240, Note_on_c, 10, 75, 98
12, 249300, Note_off_c, 10, 75, 64
12, 249300, Note_on_c, 10, 73, 98
12, 249316, Pitch_bend_c, 10, 8307
12, 249332, Pitch_bend_c, 10, 8459
12, 249348, Pitch_bend_c, 10, 8612
12, 249364, Pitch_bend_c, 10, 8765
12, 249380, Pitch_bend_c, 10, 8918
12, 249396, Pitch_bend_c, 10, 9070
12, 249412, Pitch_bend_c, 10, 9223
12, 249428, Pitch_bend_c, 10, 9376
12, 249444, Pitch_bend_c, 10, 9529
12, 249448, Pitch_bend_c, 10, 9567
12, 249464, Pitch_bend_c, 10, 9452
12, 249480, Pitch_bend_c, 10, 9300
12, 249496, Pitch_bend_c, 10, 9147
12, 249512, Pitch_bend_c, 10, 8994
12, 249528, Pitch_bend_c, 10, 8841
12, 249544, Pitch_bend_c, 10, 8689
12, 249560, Pitch_bend_c, 10, 8536
12, 249576, Pitch_bend_c, 10, 8383
12, 249592, Pitch_bend_c, 10, 8230
12, 249596, Pitch_bend_c, 10, 8192
12, 249600, Note_off_c, 10, 73, 64
12, 352800, Note_on_c, 10, 51, 45
12, 353040, Note_on_c, 10, 58, 45
12, 353280, Note_off_c, 10, 51, 64
12, 353280, Note_on_c, 10, 63, 35
12, 353520, Note_off_c, 10, 58, 64
12, 353520, Note_on_c, 10, 66, 35
12, 353760, Note_off_c, 10, 63, 64
12, 354000, Note_off_c, 10, 66, 64
12, 355200, Control_c, 0, 121, 0
12, 355200, End_track
13, 0, Start_track
13, 0, Title_t, "       """
13, 0, MIDI_port, 0
13, 0, Control_c, 11, 121, 0
13, 0, Control_c, 11, 100, 0
13, 0, Control_c, 11, 101, 0
13, 0, Control_c, 11, 6, 12
13, 0, Control_c, 11, 100, 127
13, 0, Control_c, 11, 101, 127
13, 0, Control_c, 11, 1, 20
13, 0, Control_c, 11, 11, 127
13, 0, Control_c, 11, 64, 0
13, 0, Control_c, 11, 7, 115
13, 0, Control_c, 11, 10, 127
13, 0, Control_c, 11, 91, 127
13, 0, Control_c, 11, 93, 127
13, 24, Program_c, 11, 30
13, 245540, Note_on_c, 11, 62, 98
13, 245660, Note_off_c, 11, 62, 64
13, 245660, Note_on_c, 11, 63, 98
13, 245780, Note_off_c, 11, 63, 64
13, 245780, Note_on_c, 11, 66, 98
13, 245900, Pitch_bend_c, 11, 7517
13, 246020, Note_off_c, 11, 66, 64
13, 246020, Pitch_bend_c, 11, 8192
13, 246020, Note_on_c, 11, 63, 98
13, 246140, Note_off_c, 11, 63, 64
13, 246140, Note_on_c, 11, 65, 98
13, 246236, Note_on_c, 11, 68, 91
13, 246240, Note_off_c, 11, 65, 64
13, 246240, Pitch_bend_c, 11, 8192
13, 246244, Pitch_bend_c, 11, 8467
13, 246248, Pitch_bend_c, 11, 8742
13, 246252, Pitch_bend_c, 11, 9017
13, 246256, Pitch_bend_c, 11, 9292
13, 246260, Pitch_bend_c, 11, 9567
13, 246500, Note_off_c, 11, 68, 64
13, 246500, Pitch_bend_c, 11, 8192
13, 246500, Note_on_c, 11, 71, 98
13, 246620, Pitch_bend_c, 11, 7517
13, 246740, Note_off_c, 11, 71, 64
13, 246740, Pitch_bend_c, 11, 8192
13, 246740, Note_on_c, 11, 74, 98
13, 246860, Note_off_c, 11, 74, 64
13, 246860, Note_on_c, 11, 70, 98
13, 246980, Note_off_c, 11, 70, 64
13, 246980, Note_on_c, 11, 71, 98
13, 247100, Note_off_c, 11, 71, 64
13, 247100, Note_on_c, 11, 74, 98
13, 247220, Note_off_c, 11, 74, 64
13, 247220, Note_on_c, 11, 75, 98
13, 247252, Pitch_bend_c, 11, 8524
13, 247316, Pitch_bend_c, 11, 9283
13, 247340, Pitch_bend_c, 11, 9567
13, 247460, Note_off_c, 11, 75, 64
13, 247460, Pitch_bend_c, 11, 8192
13, 247460, Note_on_c, 11, 74, 98
13, 247580, Note_off_c, 11, 74, 64
13, 247580, Note_on_c, 11, 75, 98
13, 247700, Note_off_c, 11, 75, 64
13, 247700, Note_on_c, 11, 77, 98
13, 247748, Pitch_bend_c, 11, 8458
13, 247820, Pitch_bend_c, 11, 8892
13, 247940, Note_off_c, 11, 77, 64
13, 247940, Pitch_bend_c, 11, 8192
13, 247940, Note_on_c, 11, 75, 98
13, 248060, Note_off_c, 11, 75, 64
13, 248060, Note_on_c, 11, 77, 98
13, 248180, Note_off_c, 11, 77, 64
13, 248180, Note_on_c, 11, 78, 98
13, 248300, Note_off_c, 11, 78, 64
13, 248300, Note_on_c, 11, 77, 98
13, 248420, Pitch_bend_c, 11, 6842
13, 248540, Note_off_c, 11, 77, 64
13, 248540, Pitch_bend_c, 11, 8192
13, 248540, Note_on_c, 11, 73, 98
13, 248660, Note_off_c, 11, 73, 64
13, 248660, Note_on_c, 11, 77, 98
13, 248780, Note_off_c, 11, 77, 64
13, 248780, Note_on_c, 11, 74, 98
13, 248900, Note_off_c, 11, 74, 64
13, 248900, Note_on_c, 11, 75, 98
13, 248980, Pitch_bend_c, 11, 9567
13, 249060, Pitch_bend_c, 11, 8192
13, 249140, Note_off_c, 11, 75, 64
13, 249140, Note_on_c, 11, 73, 98
13, 249260, Note_off_c, 11, 73, 64
13, 249260, Note_on_c, 11, 75, 98
13, 249320, Note_off_c, 11, 75, 64
13, 249320, Note_on_c, 11, 73, 98
13, 249336, Pitch_bend_c, 11, 8307
13, 249352, Pitch_bend_c, 11, 8459
13, 249368, Pitch_bend_c, 11, 8612
13, 249384, Pitch_bend_c, 11, 8765
13, 249400, Pitch_bend_c, 11, 8918
13, 249416, Pitch_bend_c, 11, 9070
13, 249432, Pitch_bend_c, 11, 9223
13, 249448, Pitch_bend_c, 11, 9376
13, 249464, Pitch_bend_c, 11, 9529
13, 249468, Pitch_bend_c, 11, 9567
13, 249484, Pitch_bend_c, 11, 9452
13, 249500, Pitch_bend_c, 11, 9300
13, 249516, Pitch_bend_c, 11, 9147
13, 249532, Pitch_bend_c, 11, 8994
13, 249548, Pitch_bend_c, 11, 8841
13, 249564, Pitch_bend_c, 11, 8689
13, 249580, Pitch_bend_c, 11, 8536
13, 249596, Pitch_bend_c, 11, 8383
13, 249612, Pitch_bend_c, 11, 8230
13, 249616, Pitch_bend_c, 11, 8192
13, 249620, Note_off_c, 11, 73, 64
13, 355200, Control_c, 0, 121, 0
13, 355200, End_track
14, 0, Start_track
14, 0, Title_t, "Guitar Harmonics"
14, 0, MIDI_port, 0
14, 0, Control_c, 12, 121, 0
14, 0, Control_c, 12, 100, 0
14, 0, Control_c, 12, 101, 0
14, 0, Control_c, 12, 6, 12
14, 0, Control_c, 12, 100, 127
14, 0, Control_c, 12, 101, 127
14, 0, Control_c, 12, 1, 0
14, 0, Control_c, 12, 11, 127
14, 0, Control_c, 12, 64, 0
14, 0, Control_c, 12, 7, 127
14, 0, Control_c, 12, 10, 0
14, 0, Control_c, 12, 91, 64
14, 0, Control_c, 12, 93, 51
14, 4, Program_c, 12, 31
14, 286560, Note_on_c, 12, 53, 28
14, 286680, Note_off_c, 12, 53, 64
14, 286680, Note_on_c, 12, 53, 28
14, 286800, Note_off_c, 12, 53, 64
14, 291360, Note_on_c, 12, 61, 51
14, 291600, Note_off_c, 12, 61, 64
14, 355200, Control_c, 0, 121, 0
14, 355200, End_track
15, 0, Start_track
15, 0, Title_t, "       """
15, 0, MIDI_port, 0
15, 0, Control_c, 13, 121, 0
15, 0, Control_c, 13, 100, 0
15, 0, Control_c, 13, 101, 0
15, 0, Control_c, 13, 6, 12
15, 0, Control_c, 13, 100, 127
15, 0, Control_c, 13, 101, 127
15, 0, Control_c, 13, 1, 0
15, 0, Control_c, 13, 11, 127
15, 0, Control_c, 13, 64, 0
15, 0, Control_c, 13, 7, 127
15, 0, Control_c, 13, 10, 127
15, 0, Control_c, 13, 91, 64
15, 0, Control_c, 13, 93, 51
15, 24, Program_c, 13, 31
15, 286560, Note_on_c, 13, 53, 28
15, 286680, Note_off_c, 13, 53, 64
15, 286680, Note_on_c, 13, 53, 28
15, 286800, Note_off_c, 13, 53, 64
15, 291360, Note_on_c, 13, 61, 51
15, 291600, Note_off_c, 13, 61, 64
15, 355200, Control_c, 0, 121, 0
15, 355200, End_track
16, 0, Start_track
16, 0, Title_t, "Bass"
16, 0, MIDI_port, 0
16, 0, Control_c, 14, 121, 0
16, 0, Control_c, 14, 100, 0
16, 0, Control_c, 14, 101, 0
16, 0, Control_c, 14, 6, 12
16, 0, Control_c, 14, 100, 127
16, 0, Control_c, 14, 101, 127
16, 0, Control_c, 14, 1, 0
16, 0, Control_c, 14, 11, 127
16, 0, Control_c, 14, 64, 0
16, 0, Control_c, 14, 7, 122
16, 0, Control_c, 14, 10, 64
16, 0, Control_c, 14, 91, 20
16, 0, Control_c, 14, 93, 10
16, 4, Program_c, 14, 33
16, 17040, Note_on_c, 14, 44, 95
16, 17232, Note_off_c, 14, 44, 64
16, 17280, Note_on_c, 14, 49, 95
16, 17940, Note_off_c, 14, 49, 64
16, 18000, Note_on_c, 14, 53, 89
16, 18440, Note_off_c, 14, 53, 64
16, 18480, Note_on_c, 14, 49, 95
16, 18700, Note_off_c, 14, 49, 64
16, 18720, Note_on_c, 14, 53, 89
16, 18940, Note_off_c, 14, 53, 64
16, 18960, Note_on_c, 14, 54, 89
16, 19180, Note_off_c, 14, 54, 64
16, 19200, Note_on_c, 14, 56, 89
16, 19584, Note_off_c, 14, 56, 64
16, 19680, Note_on_c, 14, 58, 89
16, 19900, Note_off_c, 14, 58, 64
16, 19920, Note_on_c, 14, 56, 95
16, 20140, Note_off_c, 14, 56, 64
16, 20160, Note_on_c, 14, 54, 89
16, 20380, Note_off_c, 14, 54, 64
16, 20400, Note_on_c, 14, 53, 89
16, 20620, Note_off_c, 14, 53, 64
16, 20640, Note_on_c, 14, 49, 95
16, 20860, Note_off_c, 14, 49, 64
16, 20880, Note_on_c, 14, 37, 95
16, 21100, Note_off_c, 14, 37, 64
16, 21120, Note_on_c, 14, 47, 95
16, 21768, Note_off_c, 14, 47, 64
16, 21840, Note_on_c, 14, 54, 89
16, 22704, Note_off_c, 14, 54, 64
16, 22800, Note_on_c, 14, 47, 95
16, 23016, Note_off_c, 14, 47, 64
16, 23040, Note_on_c, 14, 52, 89
16, 23256, Note_off_c, 14, 52, 64
16, 23280, Note_on_c, 14, 51, 89
16, 23496, Note_off_c, 14, 51, 64
16, 23520, Note_on_c, 14, 47, 89
16, 23736, Note_off_c, 14, 47, 64
16, 23760, Note_on_c, 14, 52, 89
16, 24192, Note_off_c, 14, 52, 64
16, 24240, Note_on_c, 14, 51, 89
16, 24456, Note_off_c, 14, 51, 64
16, 24480, Note_on_c, 14, 47, 95
16, 24696, Note_off_c, 14, 47, 64
16, 24720, Note_on_c, 14, 37, 95
16, 24936, Note_off_c, 14, 37, 64
16, 24960, Note_on_c, 14, 42, 95
16, 26160, Note_off_c, 14, 42, 64
16, 26640, Note_on_c, 14, 49, 89
16, 26856, Note_off_c, 14, 49, 64
16, 26880, Note_on_c, 14, 54, 89
16, 28080, Note_off_c, 14, 54, 64
16, 28560, Note_on_c, 14, 49, 89
16, 28776, Note_off_c, 14, 49, 64
16, 28800, Note_on_c, 14, 54, 89
16, 29016, Note_off_c, 14, 54, 64
16, 29040, Note_on_c, 14, 53, 89
16, 29256, Note_off_c, 14, 53, 64
16, 29280, Note_on_c, 14, 49, 89
16, 29496, Note_off_c, 14, 49, 64
16, 29520, Note_on_c, 14, 54, 89
16, 29952, Note_off_c, 14, 54, 64
16, 30000, Note_on_c, 14, 53, 89
16, 30216, Note_off_c, 14, 53, 64
16, 30240, Note_on_c, 14, 49, 89
16, 30960, Note_off_c, 14, 49, 64
16, 32280, Note_on_c, 14, 37, 95
16, 32292, Pitch_bend_c, 14, 7987
16, 32308, Pitch_bend_c, 14, 7714
16, 32324, Pitch_bend_c, 14, 7440
16, 32340, Pitch_bend_c, 14, 7167
16, 32356, Pitch_bend_c, 14, 6894
16, 32372, Pitch_bend_c, 14, 6620
16, 32388, Pitch_bend_c, 14, 6347
16, 32400, Pitch_bend_c, 14, 6142
16, 32604, Note_off_c, 14, 37, 64
16, 32644, Pitch_bend_c, 14, 8192
16, 32644, Note_on_c, 14, 37, 89
16, 33216, Note_off_c, 14, 37, 64
16, 33360, Note_on_c, 14, 37, 89
16, 33580, Note_off_c, 14, 37, 64
16, 33600, Note_on_c, 14, 37, 89
16, 34176, Note_off_c, 14, 37, 64
16, 34320, Note_on_c, 14, 37, 89
16, 34540, Note_off_c, 14, 37, 64
16, 34560, Note_on_c, 14, 37, 89
16, 35136, Note_off_c, 14, 37, 64
16, 35280, Note_on_c, 14, 37, 95
16, 35500, Note_off_c, 14, 37, 64
16, 35520, Note_on_c, 14, 41, 95
16, 35740, Note_off_c, 14, 41, 64
16, 35760, Note_on_c, 14, 44, 83
16, 35980, Note_off_c, 14, 44, 64
16, 36000, Note_on_c, 14, 41, 64
16, 36192, Note_off_c, 14, 41, 64
16, 36240, Note_on_c, 14, 32, 95
16, 36432, Note_off_c, 14, 32, 64
16, 36480, Note_on_c, 14, 35, 95
16, 37056, Note_off_c, 14, 35, 64
16, 37200, Note_on_c, 14, 35, 95
16, 37420, Note_off_c, 14, 35, 64
16, 37440, Note_on_c, 14, 35, 95
16, 38016, Note_off_c, 14, 35, 64
16, 38160, Note_on_c, 14, 35, 95
16, 38380, Note_off_c, 14, 35, 64
16, 38400, Note_on_c, 14, 35, 95
16, 38976, Note_off_c, 14, 35, 64
16, 39120, Note_on_c, 14, 35, 95
16, 39340, Note_off_c, 14, 35, 64
16, 39360, Note_on_c, 14, 40, 95
16, 39580, Note_off_c, 14, 40, 64
16, 39600, Note_on_c, 14, 39, 95
16, 39820, Note_off_c, 14, 39, 64
16, 39840, Note_on_c, 14, 37, 95
16, 40060, Note_off_c, 14, 37, 64
16, 40080, Note_on_c, 14, 34, 95
16, 40272, Note_off_c, 14, 34, 64
16, 40320, Note_on_c, 14, 30, 95
16, 40896, Note_off_c, 14, 30, 64
16, 41040, Note_on_c, 14, 30, 95
16, 41260, Note_off_c, 14, 30, 64
16, 41280, Note_on_c, 14, 30, 95
16, 41856, Note_off_c, 14, 30, 64
16, 42000, Note_on_c, 14, 30, 95
16, 42192, Note_off_c, 14, 30, 64
16, 42240, Note_on_c, 14, 30, 95
16, 42432, Note_off_c, 14, 30, 64
16, 42480, Note_on_c, 14, 27, 95
16, 42672, Note_off_c, 14, 27, 64
16, 42720, Note_on_c, 14, 40, 95
16, 42940, Note_off_c, 14, 40, 64
16, 42960, Note_on_c, 14, 41, 83
16, 43180, Note_off_c, 14, 41, 64
16, 43200, Note_on_c, 14, 42, 83
16, 43420, Note_off_c, 14, 42, 64
16, 43440, Note_on_c, 14, 32, 95
16, 43660, Note_off_c, 14, 32, 64
16, 43680, Note_on_c, 14, 35, 95
16, 43900, Note_off_c, 14, 35, 64
16, 43920, Note_on_c, 14, 36, 95
16, 44112, Note_off_c, 14, 36, 64
16, 44160, Note_on_c, 14, 37, 95
16, 44544, Note_off_c, 14, 37, 64
16, 44640, Note_on_c, 14, 32, 95
16, 44832, Note_off_c, 14, 32, 64
16, 44880, Note_on_c, 14, 37, 95
16, 45100, Note_off_c, 14, 37, 64
16, 45120, Note_on_c, 14, 37, 83
16, 45720, Note_off_c, 14, 37, 64
16, 45840, Note_on_c, 14, 37, 95
16, 46032, Note_off_c, 14, 37, 64
16, 46060, Note_on_c, 14, 39, 95
16, 46064, Pitch_bend_c, 14, 8192
16, 46068, Pitch_bend_c, 14, 8536
16, 46072, Pitch_bend_c, 14, 8880
16, 46076, Pitch_bend_c, 14, 9223
16, 46080, Pitch_bend_c, 14, 9567
16, 46296, Note_off_c, 14, 39, 64
16, 46320, Pitch_bend_c, 14, 8192
16, 46320, Note_on_c, 14, 44, 89
16, 46536, Note_off_c, 14, 44, 64
16, 46560, Note_on_c, 14, 32, 95
16, 46776, Note_off_c, 14, 32, 64
16, 46800, Note_on_c, 14, 37, 95
16, 47016, Note_off_c, 14, 37, 64
16, 47040, Note_on_c, 14, 42, 89
16, 47472, Note_off_c, 14, 42, 64
16, 47520, Note_on_c, 14, 41, 89
16, 47952, Note_off_c, 14, 41, 64
16, 48000, Note_on_c, 14, 37, 95
16, 48480, Note_off_c, 14, 37, 64
16, 48720, Note_on_c, 14, 37, 95
16, 48936, Note_off_c, 14, 37, 64
16, 48960, Note_on_c, 14, 37, 95
16, 49608, Note_off_c, 14, 37, 64
16, 49680, Note_on_c, 14, 37, 95
16, 49896, Note_off_c, 14, 37, 64
16, 49920, Note_on_c, 14, 37, 95
16, 50400, Note_off_c, 14, 37, 64
16, 50640, Note_on_c, 14, 37, 95
16, 50856, Note_off_c, 14, 37, 64
16, 50880, Note_on_c, 14, 37, 95
16, 51312, Note_off_c, 14, 37, 64
16, 51360, Note_on_c, 14, 32, 95
16, 51576, Note_off_c, 14, 32, 64
16, 51600, Note_on_c, 14, 34, 95
16, 51816, Note_off_c, 14, 34, 64
16, 51840, Note_on_c, 14, 35, 95
16, 52320, Note_off_c, 14, 35, 64
16, 52560, Note_on_c, 14, 35, 95
16, 52776, Note_off_c, 14, 35, 64
16, 52800, Note_on_c, 14, 35, 95
16, 53232, Note_off_c, 14, 35, 64
16, 53280, Note_on_c, 14, 32, 95
16, 53496, Note_off_c, 14, 32, 64
16, 53520, Note_on_c, 14, 35, 95
16, 53736, Note_off_c, 14, 35, 64
16, 53760, Note_on_c, 14, 35, 95
16, 53976, Note_off_c, 14, 35, 64
16, 54000, Note_on_c, 14, 35, 95
16, 54216, Note_off_c, 14, 35, 64
16, 54240, Note_on_c, 14, 32, 95
16, 54456, Note_off_c, 14, 32, 64
16, 54480, Note_on_c, 14, 35, 95
16, 54696, Note_off_c, 14, 35, 64
16, 54720, Note_on_c, 14, 35, 95
16, 55152, Note_off_c, 14, 35, 64
16, 55200, Note_on_c, 14, 34, 95
16, 55416, Note_off_c, 14, 34, 64
16, 55440, Note_on_c, 14, 32, 95
16, 55656, Note_off_c, 14, 32, 64
16, 55680, Note_on_c, 14, 30, 95
16, 56160, Note_off_c, 14, 30, 64
16, 56400, Note_on_c, 14, 30, 95
16, 56616, Note_off_c, 14, 30, 64
16, 56640, Note_on_c, 14, 30, 95
16, 57072, Note_off_c, 14, 30, 64
16, 57120, Note_on_c, 14, 27, 95
16, 57336, Note_off_c, 14, 27, 64
16, 57360, Note_on_c, 14, 30, 95
16, 57576, Note_off_c, 14, 30, 64
16, 57600, Note_on_c, 14, 30, 95
16, 58080, Note_off_c, 14, 30, 64
16, 58320, Note_on_c, 14, 30, 95
16, 58536, Note_off_c, 14, 30, 64
16, 58560, Note_on_c, 14, 30, 95
16, 58776, Note_off_c, 14, 30, 64
16, 58800, Note_on_c, 14, 42, 83
16, 59016, Note_off_c, 14, 42, 64
16, 59040, Note_on_c, 14, 32, 95
16, 59256, Note_off_c, 14, 32, 64
16, 59280, Note_on_c, 14, 32, 95
16, 59496, Note_off_c, 14, 32, 64
16, 59520, Note_on_c, 14, 37, 95
16, 59952, Note_off_c, 14, 37, 64
16, 60000, Note_on_c, 14, 32, 95
16, 60216, Note_off_c, 14, 32, 64
16, 60240, Note_on_c, 14, 37, 95
16, 60456, Note_off_c, 14, 37, 64
16, 60480, Note_on_c, 14, 37, 95
16, 60960, Note_off_c, 14, 37, 64
16, 61200, Note_on_c, 14, 37, 95
16, 61416, Note_off_c, 14, 37, 64
16, 61440, Note_on_c, 14, 37, 95
16, 61656, Note_off_c, 14, 37, 64
16, 61680, Note_on_c, 14, 49, 89
16, 61896, Note_off_c, 14, 49, 64
16, 61920, Note_on_c, 14, 32, 95
16, 62136, Note_off_c, 14, 32, 64
16, 62160, Note_on_c, 14, 37, 95
16, 62376, Note_off_c, 14, 37, 64
16, 62400, Note_on_c, 14, 42, 91
16, 62832, Note_off_c, 14, 42, 64
16, 62880, Note_on_c, 14, 41, 91
16, 63312, Note_off_c, 14, 41, 64
16, 63360, Note_on_c, 14, 37, 95
16, 63840, Note_off_c, 14, 37, 64
16, 64080, Note_on_c, 14, 37, 95
16, 64296, Note_off_c, 14, 37, 64
16, 64320, Note_on_c, 14, 37, 95
16, 64968, Note_off_c, 14, 37, 64
16, 65040, Note_on_c, 14, 37, 95
16, 65256, Note_off_c, 14, 37, 64
16, 65280, Note_on_c, 14, 37, 95
16, 65760, Note_off_c, 14, 37, 64
16, 66000, Note_on_c, 14, 37, 95
16, 66216, Note_off_c, 14, 37, 64
16, 66240, Note_on_c, 14, 37, 95
16, 66672, Note_off_c, 14, 37, 64
16, 66720, Note_on_c, 14, 32, 95
16, 66936, Note_off_c, 14, 32, 64
16, 66960, Note_on_c, 14, 34, 95
16, 67176, Note_off_c, 14, 34, 64
16, 67200, Note_on_c, 14, 35, 95
16, 67680, Note_off_c, 14, 35, 64
16, 67920, Note_on_c, 14, 35, 95
16, 68136, Note_off_c, 14, 35, 64
16, 68160, Note_on_c, 14, 35, 95
16, 68592, Note_off_c, 14, 35, 64
16, 68640, Note_on_c, 14, 32, 95
16, 68856, Note_off_c, 14, 32, 64
16, 68880, Note_on_c, 14, 35, 95
16, 69096, Note_off_c, 14, 35, 64
16, 69120, Note_on_c, 14, 35, 95
16, 69336, Note_off_c, 14, 35, 64
16, 69360, Note_on_c, 14, 27, 95
16, 69576, Note_off_c, 14, 27, 64
16, 69600, Note_on_c, 14, 27, 95
16, 69816, Note_off_c, 14, 27, 64
16, 69840, Note_on_c, 14, 27, 95
16, 70056, Note_off_c, 14, 27, 64
16, 70080, Note_on_c, 14, 28, 95
16, 70296, Note_off_c, 14, 28, 64
16, 70320, Note_on_c, 14, 28, 95
16, 70536, Note_off_c, 14, 28, 64
16, 70560, Note_on_c, 14, 29, 95
16, 70776, Note_off_c, 14, 29, 64
16, 70800, Note_on_c, 14, 29, 95
16, 71016, Note_off_c, 14, 29, 64
16, 71040, Note_on_c, 14, 30, 95
16, 71472, Note_off_c, 14, 30, 64
16, 71520, Note_on_c, 14, 27, 95
16, 71736, Note_off_c, 14, 27, 64
16, 71760, Note_on_c, 14, 30, 95
16, 71976, Note_off_c, 14, 30, 64
16, 72000, Note_on_c, 14, 30, 95
16, 72432, Note_off_c, 14, 30, 64
16, 72480, Note_on_c, 14, 27, 95
16, 72696, Note_off_c, 14, 27, 64
16, 72720, Note_on_c, 14, 30, 95
16, 72936, Note_off_c, 14, 30, 64
16, 72960, Note_on_c, 14, 30, 95
16, 73392, Note_off_c, 14, 30, 64
16, 73440, Note_on_c, 14, 27, 95
16, 73656, Note_off_c, 14, 27, 64
16, 73680, Note_on_c, 14, 30, 95
16, 73896, Note_off_c, 14, 30, 64
16, 73920, Note_on_c, 14, 30, 95
16, 74136, Note_off_c, 14, 30, 64
16, 74160, Note_on_c, 14, 27, 95
16, 74376, Note_off_c, 14, 27, 64
16, 74400, Note_on_c, 14, 35, 95
16, 74616, Note_off_c, 14, 35, 64
16, 74640, Note_on_c, 14, 36, 95
16, 74856, Note_off_c, 14, 36, 64
16, 74880, Note_on_c, 14, 37, 95
16, 75360, Note_off_c, 14, 37, 64
16, 75600, Note_on_c, 14, 37, 95
16, 75816, Note_off_c, 14, 37, 64
16, 75840, Note_on_c, 14, 37, 95
16, 76272, Note_off_c, 14, 37, 64
16, 76320, Note_on_c, 14, 32, 95
16, 76536, Note_off_c, 14, 32, 64
16, 76560, Note_on_c, 14, 47, 83
16, 76668, Note_off_c, 14, 47, 64
16, 76680, Note_on_c, 14, 48, 83
16, 76788, Note_off_c, 14, 48, 64
16, 76800, Note_on_c, 14, 49, 83
16, 77016, Note_off_c, 14, 49, 64
16, 77040, Note_on_c, 14, 49, 83
16, 77148, Note_off_c, 14, 49, 64
16, 77160, Note_on_c, 14, 49, 83
16, 77268, Note_off_c, 14, 49, 64
16, 77280, Note_on_c, 14, 49, 83
16, 77496, Note_off_c, 14, 49, 64
16, 77520, Note_on_c, 14, 49, 83
16, 77628, Note_off_c, 14, 49, 64
16, 77640, Note_on_c, 14, 49, 83
16, 77748, Note_off_c, 14, 49, 64
16, 77760, Note_on_c, 14, 49, 83
16, 77976, Note_off_c, 14, 49, 64
16, 78000, Note_on_c, 14, 27, 95
16, 78216, Note_off_c, 14, 27, 64
16, 78240, Note_on_c, 14, 40, 89
16, 78272, Pitch_bend_c, 14, 8120
16, 78304, Pitch_bend_c, 14, 7927
16, 78336, Pitch_bend_c, 14, 7734
16, 78368, Pitch_bend_c, 14, 7541
16, 78400, Pitch_bend_c, 14, 7348
16, 78432, Pitch_bend_c, 14, 7155
16, 78464, Pitch_bend_c, 14, 6962
16, 78496, Pitch_bend_c, 14, 6769
16, 78528, Pitch_bend_c, 14, 6576
16, 78560, Pitch_bend_c, 14, 6383
16, 78592, Pitch_bend_c, 14, 6190
16, 78600, Pitch_bend_c, 14, 6142
16, 78672, Note_off_c, 14, 40, 64
16, 78720, Pitch_bend_c, 14, 8192
16, 78720, Note_on_c, 14, 32, 102
16, 79200, Note_off_c, 14, 32, 64
16, 79440, Note_on_c, 14, 32, 102
16, 79872, Note_off_c, 14, 32, 64
16, 79920, Note_on_c, 14, 32, 102
16, 80136, Note_off_c, 14, 32, 64
16, 80160, Note_on_c, 14, 32, 102
16, 80376, Note_off_c, 14, 32, 64
16, 80400, Note_on_c, 14, 34, 102
16, 80616, Note_off_c, 14, 34, 64
16, 80640, Note_on_c, 14, 35, 102
16, 81120, Note_off_c, 14, 35, 64
16, 81360, Note_on_c, 14, 35, 102
16, 82008, Note_off_c, 14, 35, 64
16, 82080, Note_on_c, 14, 35, 102
16, 82296, Note_off_c, 14, 35, 64
16, 82320, Note_on_c, 14, 32, 102
16, 82536, Note_off_c, 14, 32, 64
16, 82560, Note_on_c, 14, 37, 102
16, 83040, Note_off_c, 14, 37, 64
16, 83280, Note_on_c, 14, 37, 102
16, 83496, Note_off_c, 14, 37, 64
16, 83520, Note_on_c, 14, 37, 102
16, 84000, Note_off_c, 14, 37, 64
16, 84240, Note_on_c, 14, 37, 102
16, 84456, Note_off_c, 14, 37, 64
16, 84480, Note_on_c, 14, 37, 102
16, 84960, Note_off_c, 14, 37, 64
16, 85200, Note_on_c, 14, 37, 102
16, 85416, Note_off_c, 14, 37, 64
16, 85440, Note_on_c, 14, 44, 89
16, 85656, Note_off_c, 14, 44, 64
16, 85680, Note_on_c, 14, 42, 89
16, 85896, Note_off_c, 14, 42, 64
16, 85920, Note_on_c, 14, 41, 89
16, 86136, Note_off_c, 14, 41, 64
16, 86160, Note_on_c, 14, 37, 95
16, 86376, Note_off_c, 14, 37, 64
16, 86400, Note_on_c, 14, 32, 102
16, 86880, Note_off_c, 14, 32, 64
16, 87120, Note_on_c, 14, 32, 102
16, 87768, Note_off_c, 14, 32, 64
16, 87840, Note_on_c, 14, 32, 102
16, 88056, Note_off_c, 14, 32, 64
16, 88080, Note_on_c, 14, 34, 102
16, 88296, Note_off_c, 14, 34, 64
16, 88320, Note_on_c, 14, 35, 102
16, 88800, Note_off_c, 14, 35, 64
16, 89040, Note_on_c, 14, 35, 102
16, 89688, Note_off_c, 14, 35, 64
16, 89760, Note_on_c, 14, 35, 102
16, 89976, Note_off_c, 14, 35, 64
16, 90000, Note_on_c, 14, 35, 102
16, 90108, Note_off_c, 14, 35, 64
16, 90120, Note_on_c, 14, 36, 102
16, 90228, Note_off_c, 14, 36, 64
16, 90240, Note_on_c, 14, 37, 102
16, 90720, Note_off_c, 14, 37, 64
16, 90960, Note_on_c, 14, 37, 102
16, 91176, Note_off_c, 14, 37, 64
16, 91200, Note_on_c, 14, 37, 102
16, 91848, Note_off_c, 14, 37, 64
16, 91920, Note_on_c, 14, 47, 83
16, 92028, Note_off_c, 14, 47, 64
16, 92040, Note_on_c, 14, 48, 83
16, 92148, Note_off_c, 14, 48, 64
16, 92160, Note_on_c, 14, 49, 83
16, 92376, Note_off_c, 14, 49, 64
16, 92400, Note_on_c, 14, 49, 83
16, 92616, Note_off_c, 14, 49, 64
16, 92640, Note_on_c, 14, 49, 83
16, 92856, Note_off_c, 14, 49, 64
16, 92880, Note_on_c, 14, 49, 83
16, 93096, Note_off_c, 14, 49, 64
16, 93120, Note_on_c, 14, 49, 83
16, 93336, Note_off_c, 14, 49, 64
16, 93360, Note_on_c, 14, 27, 102
16, 93576, Note_off_c, 14, 27, 64
16, 93600, Note_on_c, 14, 39, 102
16, 93632, Pitch_bend_c, 14, 8120
16, 93664, Pitch_bend_c, 14, 7927
16, 93696, Pitch_bend_c, 14, 7734
16, 93728, Pitch_bend_c, 14, 7541
16, 93760, Pitch_bend_c, 14, 7348
16, 93792, Pitch_bend_c, 14, 7155
16, 93824, Pitch_bend_c, 14, 6962
16, 93856, Pitch_bend_c, 14, 6769
16, 93888, Pitch_bend_c, 14, 6576
16, 93920, Pitch_bend_c, 14, 6383
16, 93952, Pitch_bend_c, 14, 6190
16, 93960, Pitch_bend_c, 14, 6142
16, 94032, Note_off_c, 14, 39, 64
16, 94080, Pitch_bend_c, 14, 8192
16, 94080, Note_on_c, 14, 37, 95
16, 94560, Note_off_c, 14, 37, 64
16, 94800, Note_on_c, 14, 37, 95
16, 95016, Note_off_c, 14, 37, 64
16, 95040, Note_on_c, 14, 37, 95
16, 95688, Note_off_c, 14, 37, 64
16, 95760, Note_on_c, 14, 37, 95
16, 95976, Note_off_c, 14, 37, 64
16, 96000, Note_on_c, 14, 37, 95
16, 96480, Note_off_c, 14, 37, 64
16, 96720, Note_on_c, 14, 37, 95
16, 96936, Note_off_c, 14, 37, 64
16, 96960, Note_on_c, 14, 37, 95
16, 97176, Note_off_c, 14, 37, 64
16, 97200, Note_on_c, 14, 49, 83
16, 97416, Note_off_c, 14, 49, 64
16, 97440, Note_on_c, 14, 37, 95
16, 97656, Note_off_c, 14, 37, 64
16, 97680, Note_on_c, 14, 32, 95
16, 97896, Note_off_c, 14, 32, 64
16, 97920, Note_on_c, 14, 35, 95
16, 98400, Note_off_c, 14, 35, 64
16, 98640, Note_on_c, 14, 35, 95
16, 98856, Note_off_c, 14, 35, 64
16, 98880, Note_on_c, 14, 35, 95
16, 99360, Note_off_c, 14, 35, 64
16, 99600, Note_on_c, 14, 35, 95
16, 99816, Note_off_c, 14, 35, 64
16, 99840, Note_on_c, 14, 35, 95
16, 100056, Note_off_c, 14, 35, 64
16, 100080, Note_on_c, 14, 47, 83
16, 100440, Note_off_c, 14, 47, 64
16, 100560, Note_on_c, 14, 32, 95
16, 100776, Note_off_c, 14, 32, 64
16, 100800, Note_on_c, 14, 35, 95
16, 101016, Note_off_c, 14, 35, 64
16, 101040, Note_on_c, 14, 47, 83
16, 101400, Note_off_c, 14, 47, 64
16, 101520, Note_on_c, 14, 32, 95
16, 101736, Note_off_c, 14, 32, 64
16, 101760, Note_on_c, 14, 30, 95
16, 102192, Note_off_c, 14, 30, 64
16, 102240, Note_on_c, 14, 27, 95
16, 102456, Note_off_c, 14, 27, 64
16, 102480, Note_on_c, 14, 30, 95
16, 102696, Note_off_c, 14, 30, 64
16, 102720, Note_on_c, 14, 30, 95
16, 103152, Note_off_c, 14, 30, 64
16, 103200, Note_on_c, 14, 27, 95
16, 103416, Note_off_c, 14, 27, 64
16, 103440, Note_on_c, 14, 30, 95
16, 103656, Note_off_c, 14, 30, 64
16, 103680, Note_on_c, 14, 30, 95
16, 103896, Note_off_c, 14, 30, 64
16, 103920, Note_on_c, 14, 27, 95
16, 104136, Note_off_c, 14, 27, 64
16, 104160, Note_on_c, 14, 29, 95
16, 104376, Note_off_c, 14, 29, 64
16, 104400, Note_on_c, 14, 32, 95
16, 104616, Note_off_c, 14, 32, 64
16, 104640, Note_on_c, 14, 35, 95
16, 104856, Note_off_c, 14, 35, 64
16, 104880, Note_on_c, 14, 32, 95
16, 105096, Note_off_c, 14, 32, 64
16, 105120, Note_on_c, 14, 36, 95
16, 105336, Note_off_c, 14, 36, 64
16, 105360, Note_on_c, 14, 44, 76
16, 105576, Note_off_c, 14, 44, 64
16, 105600, Note_on_c, 14, 37, 95
16, 106032, Note_off_c, 14, 37, 64
16, 106080, Note_on_c, 14, 32, 95
16, 106296, Note_off_c, 14, 32, 64
16, 106320, Note_on_c, 14, 37, 95
16, 106536, Note_off_c, 14, 37, 64
16, 106560, Note_on_c, 14, 37, 95
16, 107040, Note_off_c, 14, 37, 64
16, 107280, Note_on_c, 14, 37, 95
16, 107496, Note_off_c, 14, 37, 64
16, 107520, Note_on_c, 14, 37, 95
16, 107736, Note_off_c, 14, 37, 64
16, 107760, Note_on_c, 14, 49, 83
16, 108120, Note_off_c, 14, 49, 64
16, 108240, Note_on_c, 14, 37, 95
16, 108456, Note_off_c, 14, 37, 64
16, 108480, Note_on_c, 14, 42, 89
16, 108912, Note_off_c, 14, 42, 64
16, 108960, Note_on_c, 14, 41, 89
16, 109392, Note_off_c, 14, 41, 64
16, 109440, Note_on_c, 14, 37, 95
16, 109920, Note_off_c, 14, 37, 64
16, 110160, Note_on_c, 14, 37, 95
16, 110376, Note_off_c, 14, 37, 64
16, 110400, Note_on_c, 14, 37, 95
16, 111048, Note_off_c, 14, 37, 64
16, 111120, Note_on_c, 14, 37, 95
16, 111336, Note_off_c, 14, 37, 64
16, 111360, Note_on_c, 14, 37, 95
16, 111840, Note_off_c, 14, 37, 64
16, 112080, Note_on_c, 14, 37, 95
16, 112296, Note_off_c, 14, 37, 64
16, 112320, Note_on_c, 14, 37, 95
16, 112752, Note_off_c, 14, 37, 64
16, 112800, Note_on_c, 14, 32, 95
16, 113016, Note_off_c, 14, 32, 64
16, 113040, Note_on_c, 14, 34, 95
16, 113256, Note_off_c, 14, 34, 64
16, 113280, Note_on_c, 14, 35, 95
16, 113760, Note_off_c, 14, 35, 64
16, 114000, Note_on_c, 14, 35, 95
16, 114216, Note_off_c, 14, 35, 64
16, 114240, Note_on_c, 14, 35, 95
16, 114672, Note_off_c, 14, 35, 64
16, 114720, Note_on_c, 14, 32, 95
16, 114936, Note_off_c, 14, 32, 64
16, 114960, Note_on_c, 14, 35, 95
16, 115176, Note_off_c, 14, 35, 64
16, 115200, Note_on_c, 14, 35, 95
16, 115416, Note_off_c, 14, 35, 64
16, 115440, Note_on_c, 14, 35, 95
16, 115656, Note_off_c, 14, 35, 64
16, 115680, Note_on_c, 14, 32, 95
16, 115896, Note_off_c, 14, 32, 64
16, 115920, Note_on_c, 14, 35, 95
16, 116136, Note_off_c, 14, 35, 64
16, 116160, Note_on_c, 14, 35, 95
16, 116592, Note_off_c, 14, 35, 64
16, 116640, Note_on_c, 14, 34, 95
16, 116856, Note_off_c, 14, 34, 64
16, 116880, Note_on_c, 14, 32, 95
16, 117096, Note_off_c, 14, 32, 64
16, 117120, Note_on_c, 14, 30, 95
16, 117600, Note_off_c, 14, 30, 64
16, 117840, Note_on_c, 14, 30, 95
16, 118056, Note_off_c, 14, 30, 64
16, 118080, Note_on_c, 14, 30, 95
16, 118512, Note_off_c, 14, 30, 64
16, 118560, Note_on_c, 14, 27, 95
16, 118776, Note_off_c, 14, 27, 64
16, 118800, Note_on_c, 14, 30, 95
16, 119016, Note_off_c, 14, 30, 64
16, 119040, Note_on_c, 14, 30, 95
16, 119520, Note_off_c, 14, 30, 64
16, 119760, Note_on_c, 14, 30, 95
16, 119976, Note_off_c, 14, 30, 64
16, 120000, Note_on_c, 14, 30, 95
16, 120216, Note_off_c, 14, 30, 64
16, 120240, Note_on_c, 14, 42, 83
16, 120456, Note_off_c, 14, 42, 64
16, 120480, Note_on_c, 14, 32, 95
16, 120696, Note_off_c, 14, 32, 64
16, 120720, Note_on_c, 14, 32, 95
16, 120936, Note_off_c, 14, 32, 64
16, 120960, Note_on_c, 14, 37, 95
16, 121392, Note_off_c, 14, 37, 64
16, 121440, Note_on_c, 14, 32, 95
16, 121656, Note_off_c, 14, 32, 64
16, 121680, Note_on_c, 14, 37, 95
16, 121896, Note_off_c, 14, 37, 64
16, 121920, Note_on_c, 14, 37, 95
16, 122400, Note_off_c, 14, 37, 64
16, 122640, Note_on_c, 14, 37, 95
16, 122856, Note_off_c, 14, 37, 64
16, 122880, Note_on_c, 14, 37, 95
16, 123096, Note_off_c, 14, 37, 64
16, 123120, Note_on_c, 14, 49, 89
16, 123336, Note_off_c, 14, 49, 64
16, 123360, Note_on_c, 14, 32, 95
16, 123576, Note_off_c, 14, 32, 64
16, 123600, Note_on_c, 14, 37, 95
16, 123816, Note_off_c, 14, 37, 64
16, 123840, Note_on_c, 14, 42, 91
16, 124272, Note_off_c, 14, 42, 64
16, 124320, Note_on_c, 14, 41, 91
16, 124752, Note_off_c, 14, 41, 64
16, 124800, Note_on_c, 14, 37, 95
16, 125280, Note_off_c, 14, 37, 64
16, 125520, Note_on_c, 14, 37, 95
16, 125736, Note_off_c, 14, 37, 64
16, 125760, Note_on_c, 14, 37, 95
16, 126408, Note_off_c, 14, 37, 64
16, 126480, Note_on_c, 14, 37, 95
16, 126696, Note_off_c, 14, 37, 64
16, 126720, Note_on_c, 14, 37, 95
16, 127200, Note_off_c, 14, 37, 64
16, 127440, Note_on_c, 14, 37, 95
16, 127656, Note_off_c, 14, 37, 64
16, 127680, Note_on_c, 14, 37, 95
16, 128112, Note_off_c, 14, 37, 64
16, 128160, Note_on_c, 14, 32, 95
16, 128376, Note_off_c, 14, 32, 64
16, 128400, Note_on_c, 14, 34, 95
16, 128616, Note_off_c, 14, 34, 64
16, 128640, Note_on_c, 14, 35, 95
16, 129120, Note_off_c, 14, 35, 64
16, 129360, Note_on_c, 14, 35, 95
16, 129576, Note_off_c, 14, 35, 64
16, 129600, Note_on_c, 14, 35, 95
16, 130032, Note_off_c, 14, 35, 64
16, 130080, Note_on_c, 14, 32, 95
16, 130296, Note_off_c, 14, 32, 64
16, 130320, Note_on_c, 14, 35, 95
16, 130536, Note_off_c, 14, 35, 64
16, 130560, Note_on_c, 14, 35, 95
16, 130776, Note_off_c, 14, 35, 64
16, 130800, Note_on_c, 14, 27, 95
16, 131016, Note_off_c, 14, 27, 64
16, 131040, Note_on_c, 14, 27, 95
16, 131256, Note_off_c, 14, 27, 64
16, 131280, Note_on_c, 14, 27, 95
16, 131496, Note_off_c, 14, 27, 64
16, 131520, Note_on_c, 14, 28, 95
16, 131736, Note_off_c, 14, 28, 64
16, 131760, Note_on_c, 14, 28, 95
16, 131976, Note_off_c, 14, 28, 64
16, 132000, Note_on_c, 14, 29, 95
16, 132216, Note_off_c, 14, 29, 64
16, 132240, Note_on_c, 14, 29, 95
16, 132456, Note_off_c, 14, 29, 64
16, 132480, Note_on_c, 14, 30, 95
16, 132912, Note_off_c, 14, 30, 64
16, 132960, Note_on_c, 14, 27, 95
16, 133176, Note_off_c, 14, 27, 64
16, 133200, Note_on_c, 14, 30, 95
16, 133416, Note_off_c, 14, 30, 64
16, 133440, Note_on_c, 14, 30, 95
16, 133872, Note_off_c, 14, 30, 64
16, 133920, Note_on_c, 14, 27, 95
16, 134136, Note_off_c, 14, 27, 64
16, 134160, Note_on_c, 14, 30, 95
16, 134376, Note_off_c, 14, 30, 64
16, 134400, Note_on_c, 14, 30, 95
16, 134832, Note_off_c, 14, 30, 64
16, 134880, Note_on_c, 14, 27, 95
16, 135096, Note_off_c, 14, 27, 64
16, 135120, Note_on_c, 14, 30, 95
16, 135336, Note_off_c, 14, 30, 64
16, 135360, Note_on_c, 14, 30, 95
16, 135576, Note_off_c, 14, 30, 64
16, 135600, Note_on_c, 14, 27, 95
16, 135816, Note_off_c, 14, 27, 64
16, 135840, Note_on_c, 14, 35, 95
16, 136056, Note_off_c, 14, 35, 64
16, 136080, Note_on_c, 14, 36, 95
16, 136296, Note_off_c, 14, 36, 64
16, 136320, Note_on_c, 14, 37, 95
16, 136800, Note_off_c, 14, 37, 64
16, 137040, Note_on_c, 14, 37, 95
16, 137256, Note_off_c, 14, 37, 64
16, 137280, Note_on_c, 14, 37, 95
16, 137712, Note_off_c, 14, 37, 64
16, 137760, Note_on_c, 14, 32, 95
16, 137976, Note_off_c, 14, 32, 64
16, 138000, Note_on_c, 14, 47, 83
16, 138108, Note_off_c, 14, 47, 64
16, 138120, Note_on_c, 14, 48, 83
16, 138228, Note_off_c, 14, 48, 64
16, 138240, Note_on_c, 14, 49, 83
16, 138456, Note_off_c, 14, 49, 64
16, 138480, Note_on_c, 14, 49, 83
16, 138588, Note_off_c, 14, 49, 64
16, 138600, Note_on_c, 14, 49, 83
16, 138708, Note_off_c, 14, 49, 64
16, 138720, Note_on_c, 14, 49, 83
16, 138936, Note_off_c, 14, 49, 64
16, 138960, Note_on_c, 14, 49, 83
16, 139068, Note_off_c, 14, 49, 64
16, 139080, Note_on_c, 14, 49, 83
16, 139188, Note_off_c, 14, 49, 64
16, 139200, Note_on_c, 14, 49, 83
16, 139416, Note_off_c, 14, 49, 64
16, 139440, Note_on_c, 14, 27, 95
16, 139656, Note_off_c, 14, 27, 64
16, 139680, Note_on_c, 14, 40, 89
16, 139712, Pitch_bend_c, 14, 8120
16, 139744, Pitch_bend_c, 14, 7927
16, 139776, Pitch_bend_c, 14, 7734
16, 139808, Pitch_bend_c, 14, 7541
16, 139840, Pitch_bend_c, 14, 7348
16, 139872, Pitch_bend_c, 14, 7155
16, 139904, Pitch_bend_c, 14, 6962
16, 139936, Pitch_bend_c, 14, 6769
16, 139968, Pitch_bend_c, 14, 6576
16, 140000, Pitch_bend_c, 14, 6383
16, 140032, Pitch_bend_c, 14, 6190
16, 140040, Pitch_bend_c, 14, 6142
16, 140112, Note_off_c, 14, 40, 64
16, 140160, Pitch_bend_c, 14, 8192
16, 140160, Note_on_c, 14, 32, 102
16, 140640, Note_off_c, 14, 32, 64
16, 140880, Note_on_c, 14, 32, 102
16, 141312, Note_off_c, 14, 32, 64
16, 141360, Note_on_c, 14, 32, 102
16, 141576, Note_off_c, 14, 32, 64
16, 141600, Note_on_c, 14, 32, 102
16, 141816, Note_off_c, 14, 32, 64
16, 141840, Note_on_c, 14, 34, 102
16, 142056, Note_off_c, 14, 34, 64
16, 142080, Note_on_c, 14, 35, 102
16, 142560, Note_off_c, 14, 35, 64
16, 142800, Note_on_c, 14, 35, 102
16, 143448, Note_off_c, 14, 35, 64
16, 143520, Note_on_c, 14, 35, 102
16, 143736, Note_off_c, 14, 35, 64
16, 143760, Note_on_c, 14, 32, 102
16, 143976, Note_off_c, 14, 32, 64
16, 144000, Note_on_c, 14, 37, 102
16, 144480, Note_off_c, 14, 37, 64
16, 144720, Note_on_c, 14, 37, 102
16, 144936, Note_off_c, 14, 37, 64
16, 144960, Note_on_c, 14, 37, 102
16, 145440, Note_off_c, 14, 37, 64
16, 145680, Note_on_c, 14, 37, 102
16, 145896, Note_off_c, 14, 37, 64
16, 145920, Note_on_c, 14, 37, 102
16, 146400, Note_off_c, 14, 37, 64
16, 146640, Note_on_c, 14, 37, 102
16, 146856, Note_off_c, 14, 37, 64
16, 146880, Note_on_c, 14, 44, 89
16, 147096, Note_off_c, 14, 44, 64
16, 147120, Note_on_c, 14, 42, 89
16, 147336, Note_off_c, 14, 42, 64
16, 147360, Note_on_c, 14, 41, 89
16, 147576, Note_off_c, 14, 41, 64
16, 147600, Note_on_c, 14, 37, 95
16, 147816, Note_off_c, 14, 37, 64
16, 147840, Note_on_c, 14, 32, 102
16, 148320, Note_off_c, 14, 32, 64
16, 148560, Note_on_c, 14, 32, 102
16, 149208, Note_off_c, 14, 32, 64
16, 149280, Note_on_c, 14, 32, 102
16, 149496, Note_off_c, 14, 32, 64
16, 149520, Note_on_c, 14, 34, 102
16, 149736, Note_off_c, 14, 34, 64
16, 149760, Note_on_c, 14, 35, 102
16, 150240, Note_off_c, 14, 35, 64
16, 150480, Note_on_c, 14, 35, 102
16, 151128, Note_off_c, 14, 35, 64
16, 151200, Note_on_c, 14, 35, 102
16, 151416, Note_off_c, 14, 35, 64
16, 151440, Note_on_c, 14, 35, 102
16, 151548, Note_off_c, 14, 35, 64
16, 151560, Note_on_c, 14, 36, 102
16, 151668, Note_off_c, 14, 36, 64
16, 151680, Note_on_c, 14, 37, 102
16, 152160, Note_off_c, 14, 37, 64
16, 152400, Note_on_c, 14, 37, 102
16, 152616, Note_off_c, 14, 37, 64
16, 152640, Note_on_c, 14, 37, 102
16, 153288, Note_off_c, 14, 37, 64
16, 153360, Note_on_c, 14, 47, 83
16, 153468, Note_off_c, 14, 47, 64
16, 153480, Note_on_c, 14, 48, 83
16, 153588, Note_off_c, 14, 48, 64
16, 153600, Note_on_c, 14, 49, 83
16, 153816, Note_off_c, 14, 49, 64
16, 153840, Note_on_c, 14, 49, 83
16, 154056, Note_off_c, 14, 49, 64
16, 154080, Note_on_c, 14, 49, 83
16, 154296, Note_off_c, 14, 49, 64
16, 154320, Note_on_c, 14, 49, 83
16, 154536, Note_off_c, 14, 49, 64
16, 154560, Note_on_c, 14, 49, 83
16, 154776, Note_off_c, 14, 49, 64
16, 154800, Note_on_c, 14, 27, 102
16, 155016, Note_off_c, 14, 27, 64
16, 155040, Note_on_c, 14, 39, 102
16, 155072, Pitch_bend_c, 14, 8120
16, 155104, Pitch_bend_c, 14, 7927
16, 155136, Pitch_bend_c, 14, 7734
16, 155168, Pitch_bend_c, 14, 7541
16, 155200, Pitch_bend_c, 14, 7348
16, 155232, Pitch_bend_c, 14, 7155
16, 155264, Pitch_bend_c, 14, 6962
16, 155296, Pitch_bend_c, 14, 6769
16, 155328, Pitch_bend_c, 14, 6576
16, 155360, Pitch_bend_c, 14, 6383
16, 155392, Pitch_bend_c, 14, 6190
16, 155400, Pitch_bend_c, 14, 6142
16, 155472, Note_off_c, 14, 39, 64
16, 155520, Pitch_bend_c, 14, 8192
16, 155520, Note_on_c, 14, 37, 95
16, 156000, Note_off_c, 14, 37, 64
16, 156240, Note_on_c, 14, 37, 95
16, 156456, Note_off_c, 14, 37, 64
16, 156480, Note_on_c, 14, 37, 95
16, 157128, Note_off_c, 14, 37, 64
16, 157200, Note_on_c, 14, 37, 95
16, 157416, Note_off_c, 14, 37, 64
16, 157440, Note_on_c, 14, 37, 95
16, 157920, Note_off_c, 14, 37, 64
16, 158160, Note_on_c, 14, 37, 95
16, 158376, Note_off_c, 14, 37, 64
16, 158400, Note_on_c, 14, 37, 95
16, 158616, Note_off_c, 14, 37, 64
16, 158640, Note_on_c, 14, 49, 83
16, 158856, Note_off_c, 14, 49, 64
16, 158880, Note_on_c, 14, 37, 95
16, 159096, Note_off_c, 14, 37, 64
16, 159120, Note_on_c, 14, 32, 95
16, 159336, Note_off_c, 14, 32, 64
16, 159360, Note_on_c, 14, 35, 95
16, 159840, Note_off_c, 14, 35, 64
16, 160080, Note_on_c, 14, 35, 95
16, 160296, Note_off_c, 14, 35, 64
16, 160320, Note_on_c, 14, 35, 95
16, 160800, Note_off_c, 14, 35, 64
16, 161040, Note_on_c, 14, 35, 95
16, 161256, Note_off_c, 14, 35, 64
16, 161280, Note_on_c, 14, 35, 102
16, 161496, Note_off_c, 14, 35, 64
16, 161520, Note_on_c, 14, 39, 95
16, 161736, Note_off_c, 14, 39, 64
16, 161760, Note_on_c, 14, 39, 95
16, 161976, Note_off_c, 14, 39, 64
16, 162000, Note_on_c, 14, 39, 95
16, 162216, Note_off_c, 14, 39, 64
16, 162240, Note_on_c, 14, 40, 89
16, 162456, Note_off_c, 14, 40, 64
16, 162480, Note_on_c, 14, 40, 89
16, 162696, Note_off_c, 14, 40, 64
16, 162720, Note_on_c, 14, 41, 89
16, 162936, Note_off_c, 14, 41, 64
16, 162960, Note_on_c, 14, 27, 102
16, 163176, Note_off_c, 14, 27, 64
16, 163200, Note_on_c, 14, 30, 95
16, 163632, Note_off_c, 14, 30, 64
16, 163680, Note_on_c, 14, 27, 95
16, 163896, Note_off_c, 14, 27, 64
16, 163920, Note_on_c, 14, 30, 95
16, 164136, Note_off_c, 14, 30, 64
16, 164160, Note_on_c, 14, 30, 95
16, 164592, Note_off_c, 14, 30, 64
16, 164640, Note_on_c, 14, 27, 95
16, 164856, Note_off_c, 14, 27, 64
16, 164880, Note_on_c, 14, 30, 95
16, 165096, Note_off_c, 14, 30, 64
16, 165120, Note_on_c, 14, 30, 102
16, 165336, Note_off_c, 14, 30, 64
16, 165360, Note_on_c, 14, 27, 102
16, 165576, Note_off_c, 14, 27, 64
16, 165600, Note_on_c, 14, 40, 89
16, 165816, Note_off_c, 14, 40, 64
16, 165840, Note_on_c, 14, 41, 89
16, 166056, Note_off_c, 14, 41, 64
16, 166080, Note_on_c, 14, 42, 89
16, 166296, Note_off_c, 14, 42, 64
16, 166320, Note_on_c, 14, 32, 102
16, 166536, Note_off_c, 14, 32, 64
16, 166560, Note_on_c, 14, 35, 102
16, 166776, Note_off_c, 14, 35, 64
16, 166800, Note_on_c, 14, 36, 102
16, 167016, Note_off_c, 14, 36, 64
16, 167040, Note_on_c, 14, 37, 95
16, 167472, Note_off_c, 14, 37, 64
16, 167520, Note_on_c, 14, 32, 95
16, 167736, Note_off_c, 14, 32, 64
16, 167760, Note_on_c, 14, 37, 95
16, 167976, Note_off_c, 14, 37, 64
16, 168000, Note_on_c, 14, 37, 95
16, 168480, Note_off_c, 14, 37, 64
16, 168720, Note_on_c, 14, 37, 95
16, 168920, Note_off_c, 14, 37, 64
16, 168940, Note_on_c, 14, 39, 89
16, 168944, Pitch_bend_c, 14, 8192
16, 168948, Pitch_bend_c, 14, 8536
16, 168952, Pitch_bend_c, 14, 8880
16, 168956, Pitch_bend_c, 14, 9223
16, 168960, Pitch_bend_c, 14, 9567
16, 169176, Note_off_c, 14, 39, 64
16, 169200, Pitch_bend_c, 14, 8192
16, 169200, Note_on_c, 14, 44, 89
16, 169416, Note_off_c, 14, 44, 64
16, 169440, Note_on_c, 14, 32, 102
16, 169656, Note_off_c, 14, 32, 64
16, 169680, Note_on_c, 14, 37, 95
16, 169896, Note_off_c, 14, 37, 64
16, 169920, Note_on_c, 14, 42, 89
16, 170352, Note_off_c, 14, 42, 64
16, 170400, Note_on_c, 14, 41, 95
16, 170832, Note_off_c, 14, 41, 64
16, 170880, Note_on_c, 14, 37, 95
16, 171312, Note_off_c, 14, 37, 64
16, 171360, Note_on_c, 14, 32, 95
16, 171576, Note_off_c, 14, 32, 64
16, 171600, Note_on_c, 14, 37, 95
16, 171816, Note_off_c, 14, 37, 64
16, 171840, Note_on_c, 14, 37, 95
16, 172320, Note_off_c, 14, 37, 64
16, 172560, Note_on_c, 14, 37, 95
16, 172776, Note_off_c, 14, 37, 64
16, 172800, Note_on_c, 14, 37, 95
16, 173400, Note_off_c, 14, 37, 64
16, 173520, Note_on_c, 14, 37, 95
16, 173736, Note_off_c, 14, 37, 64
16, 173760, Note_on_c, 14, 37, 95
16, 174192, Note_off_c, 14, 37, 64
16, 174240, Note_on_c, 14, 32, 102
16, 174456, Note_off_c, 14, 32, 64
16, 174480, Note_on_c, 14, 34, 102
16, 174696, Note_off_c, 14, 34, 64
16, 174720, Note_on_c, 14, 35, 102
16, 175152, Note_off_c, 14, 35, 64
16, 175200, Note_on_c, 14, 32, 102
16, 175416, Note_off_c, 14, 32, 64
16, 175440, Note_on_c, 14, 35, 102
16, 175656, Note_off_c, 14, 35, 64
16, 175680, Note_on_c, 14, 35, 102
16, 176112, Note_off_c, 14, 35, 64
16, 176160, Note_on_c, 14, 32, 102
16, 176376, Note_off_c, 14, 32, 64
16, 176400, Note_on_c, 14, 35, 102
16, 176616, Note_off_c, 14, 35, 64
16, 176640, Note_on_c, 14, 35, 102
16, 177072, Note_off_c, 14, 35, 64
16, 177120, Note_on_c, 14, 32, 102
16, 177336, Note_off_c, 14, 32, 64
16, 177360, Note_on_c, 14, 35, 102
16, 177576, Note_off_c, 14, 35, 64
16, 177600, Note_on_c, 14, 35, 102
16, 177816, Note_off_c, 14, 35, 64
16, 177840, Note_on_c, 14, 34, 102
16, 178056, Note_off_c, 14, 34, 64
16, 178080, Note_on_c, 14, 32, 102
16, 178296, Note_off_c, 14, 32, 64
16, 178320, Note_on_c, 14, 32, 102
16, 178536, Note_off_c, 14, 32, 64
16, 178560, Note_on_c, 14, 30, 95
16, 178992, Note_off_c, 14, 30, 64
16, 179040, Note_on_c, 14, 27, 95
16, 179256, Note_off_c, 14, 27, 64
16, 179280, Note_on_c, 14, 30, 95
16, 179496, Note_off_c, 14, 30, 64
16, 179520, Note_on_c, 14, 30, 95
16, 179952, Note_off_c, 14, 30, 64
16, 180000, Note_on_c, 14, 27, 95
16, 180216, Note_off_c, 14, 27, 64
16, 180240, Note_on_c, 14, 30, 95
16, 180456, Note_off_c, 14, 30, 64
16, 180480, Note_on_c, 14, 30, 102
16, 180696, Note_off_c, 14, 30, 64
16, 180720, Note_on_c, 14, 27, 102
16, 180936, Note_off_c, 14, 27, 64
16, 180960, Note_on_c, 14, 40, 89
16, 181176, Note_off_c, 14, 40, 64
16, 181200, Note_on_c, 14, 41, 89
16, 181416, Note_off_c, 14, 41, 64
16, 181440, Note_on_c, 14, 42, 89
16, 181656, Note_off_c, 14, 42, 64
16, 181680, Note_on_c, 14, 32, 102
16, 181896, Note_off_c, 14, 32, 64
16, 181920, Note_on_c, 14, 35, 102
16, 182136, Note_off_c, 14, 35, 64
16, 182160, Note_on_c, 14, 36, 95
16, 182376, Note_off_c, 14, 36, 64
16, 182400, Note_on_c, 14, 37, 95
16, 182832, Note_off_c, 14, 37, 64
16, 182880, Note_on_c, 14, 32, 95
16, 183096, Note_off_c, 14, 32, 64
16, 183120, Note_on_c, 14, 37, 95
16, 183336, Note_off_c, 14, 37, 64
16, 183360, Note_on_c, 14, 37, 95
16, 183840, Note_off_c, 14, 37, 64
16, 184080, Note_on_c, 14, 37, 95
16, 184296, Note_off_c, 14, 37, 64
16, 184320, Note_on_c, 14, 32, 102
16, 184536, Note_off_c, 14, 32, 64
16, 184560, Note_on_c, 14, 49, 89
16, 184668, Note_off_c, 14, 49, 64
16, 184680, Note_on_c, 14, 49, 89
16, 184788, Note_off_c, 14, 49, 64
16, 184800, Note_on_c, 14, 49, 89
16, 185016, Note_off_c, 14, 49, 64
16, 185040, Note_on_c, 14, 49, 89
16, 185148, Note_off_c, 14, 49, 64
16, 185160, Note_on_c, 14, 49, 89
16, 185268, Note_off_c, 14, 49, 64
16, 185280, Note_on_c, 14, 49, 89
16, 185496, Note_off_c, 14, 49, 64
16, 185520, Note_on_c, 14, 49, 89
16, 185736, Note_off_c, 14, 49, 64
16, 185760, Note_on_c, 14, 49, 89
16, 185976, Note_off_c, 14, 49, 64
16, 186000, Note_on_c, 14, 27, 102
16, 186216, Note_off_c, 14, 27, 64
16, 186240, Note_on_c, 14, 32, 102
16, 186840, Note_off_c, 14, 32, 64
16, 186960, Note_on_c, 14, 32, 102
16, 187608, Note_off_c, 14, 32, 64
16, 187680, Note_on_c, 14, 32, 102
16, 187896, Note_off_c, 14, 32, 64
16, 187920, Note_on_c, 14, 34, 102
16, 188136, Note_off_c, 14, 34, 64
16, 188160, Note_on_c, 14, 35, 102
16, 188760, Note_off_c, 14, 35, 64
16, 188880, Note_on_c, 14, 35, 102
16, 189528, Note_off_c, 14, 35, 64
16, 189600, Note_on_c, 14, 35, 102
16, 189816, Note_off_c, 14, 35, 64
16, 189840, Note_on_c, 14, 32, 102
16, 190056, Note_off_c, 14, 32, 64
16, 190080, Note_on_c, 14, 37, 102
16, 190680, Note_off_c, 14, 37, 64
16, 190800, Note_on_c, 14, 37, 102
16, 191016, Note_off_c, 14, 37, 64
16, 191040, Note_on_c, 14, 37, 102
16, 191688, Note_off_c, 14, 37, 64
16, 191760, Note_on_c, 14, 37, 102
16, 191976, Note_off_c, 14, 37, 64
16, 192000, Note_on_c, 14, 37, 102
16, 192216, Note_off_c, 14, 37, 64
16, 192240, Note_on_c, 14, 49, 89
16, 192456, Note_off_c, 14, 49, 64
16, 192480, Note_on_c, 14, 49, 89
16, 192696, Note_off_c, 14, 49, 64
16, 192720, Note_on_c, 14, 49, 89
16, 192936, Note_off_c, 14, 49, 64
16, 192960, Note_on_c, 14, 44, 95
16, 193176, Note_off_c, 14, 44, 64
16, 193200, Note_on_c, 14, 42, 95
16, 193416, Note_off_c, 14, 42, 64
16, 193440, Note_on_c, 14, 41, 102
16, 193656, Note_off_c, 14, 41, 64
16, 193680, Note_on_c, 14, 37, 102
16, 193896, Note_off_c, 14, 37, 64
16, 193920, Note_on_c, 14, 32, 102
16, 194520, Note_off_c, 14, 32, 64
16, 194640, Note_on_c, 14, 32, 102
16, 195288, Note_off_c, 14, 32, 64
16, 195360, Note_on_c, 14, 32, 102
16, 195576, Note_off_c, 14, 32, 64
16, 195600, Note_on_c, 14, 34, 102
16, 195816, Note_off_c, 14, 34, 64
16, 195840, Note_on_c, 14, 35, 102
16, 196440, Note_off_c, 14, 35, 64
16, 196560, Note_on_c, 14, 35, 102
16, 197208, Note_off_c, 14, 35, 64
16, 197280, Note_on_c, 14, 35, 102
16, 197496, Note_off_c, 14, 35, 64
16, 197520, Note_on_c, 14, 35, 102
16, 197628, Note_off_c, 14, 35, 64
16, 197640, Note_on_c, 14, 36, 102
16, 197748, Note_off_c, 14, 36, 64
16, 197760, Note_on_c, 14, 37, 102
16, 198360, Note_off_c, 14, 37, 64
16, 198480, Note_on_c, 14, 37, 102
16, 198696, Note_off_c, 14, 37, 64
16, 198720, Note_on_c, 14, 37, 102
16, 199368, Note_off_c, 14, 37, 64
16, 199440, Note_on_c, 14, 37, 102
16, 199656, Note_off_c, 14, 37, 64
16, 199680, Note_on_c, 14, 37, 102
16, 199896, Note_off_c, 14, 37, 64
16, 199920, Note_on_c, 14, 27, 102
16, 200136, Note_off_c, 14, 27, 64
16, 200160, Note_on_c, 14, 29, 102
16, 200376, Note_off_c, 14, 29, 64
16, 200400, Note_on_c, 14, 27, 102
16, 200616, Note_off_c, 14, 27, 64
16, 200640, Note_on_c, 14, 30, 102
16, 200856, Note_off_c, 14, 30, 64
16, 200880, Note_on_c, 14, 27, 102
16, 201096, Note_off_c, 14, 27, 64
16, 201120, Note_on_c, 14, 31, 102
16, 201336, Note_off_c, 14, 31, 64
16, 201360, Note_on_c, 14, 27, 102
16, 201576, Note_off_c, 14, 27, 64
16, 201600, Note_on_c, 14, 32, 102
16, 202200, Note_off_c, 14, 32, 64
16, 202320, Note_on_c, 14, 32, 102
16, 202968, Note_off_c, 14, 32, 64
16, 203040, Note_on_c, 14, 32, 102
16, 203256, Note_off_c, 14, 32, 64
16, 203280, Note_on_c, 14, 34, 102
16, 203496, Note_off_c, 14, 34, 64
16, 203520, Note_on_c, 14, 35, 102
16, 204120, Note_off_c, 14, 35, 64
16, 204240, Note_on_c, 14, 35, 102
16, 204888, Note_off_c, 14, 35, 64
16, 204960, Note_on_c, 14, 35, 102
16, 205176, Note_off_c, 14, 35, 64
16, 205200, Note_on_c, 14, 32, 102
16, 205308, Note_off_c, 14, 32, 64
16, 205320, Note_on_c, 14, 32, 102
16, 205428, Note_off_c, 14, 32, 64
16, 205440, Note_on_c, 14, 37, 102
16, 206040, Note_off_c, 14, 37, 64
16, 206160, Note_on_c, 14, 37, 102
16, 206376, Note_off_c, 14, 37, 64
16, 206400, Note_on_c, 14, 37, 102
16, 207048, Note_off_c, 14, 37, 64
16, 207120, Note_on_c, 14, 37, 102
16, 207336, Note_off_c, 14, 37, 64
16, 207360, Note_on_c, 14, 37, 102
16, 207576, Note_off_c, 14, 37, 64
16, 207600, Note_on_c, 14, 49, 89
16, 207816, Note_off_c, 14, 49, 64
16, 207840, Note_on_c, 14, 37, 102
16, 208056, Note_off_c, 14, 37, 64
16, 208080, Note_on_c, 14, 37, 102
16, 208296, Note_off_c, 14, 37, 64
16, 208320, Note_on_c, 14, 49, 89
16, 208536, Note_off_c, 14, 49, 64
16, 208560, Note_on_c, 14, 37, 102
16, 208776, Note_off_c, 14, 37, 64
16, 208800, Note_on_c, 14, 49, 89
16, 209016, Note_off_c, 14, 49, 64
16, 209040, Note_on_c, 14, 32, 102
16, 209256, Note_off_c, 14, 32, 64
16, 209280, Note_on_c, 14, 32, 102
16, 209880, Note_off_c, 14, 32, 64
16, 210000, Note_on_c, 14, 32, 102
16, 210648, Note_off_c, 14, 32, 64
16, 210720, Note_on_c, 14, 32, 102
16, 210936, Note_off_c, 14, 32, 64
16, 210960, Note_on_c, 14, 34, 102
16, 211176, Note_off_c, 14, 34, 64
16, 211200, Note_on_c, 14, 35, 102
16, 211800, Note_off_c, 14, 35, 64
16, 211920, Note_on_c, 14, 35, 102
16, 212352, Note_off_c, 14, 35, 64
16, 212400, Note_on_c, 14, 35, 102
16, 212616, Note_off_c, 14, 35, 64
16, 212640, Note_on_c, 14, 35, 102
16, 212856, Note_off_c, 14, 35, 64
16, 212880, Note_on_c, 14, 32, 102
16, 213096, Note_off_c, 14, 32, 64
16, 213120, Note_on_c, 14, 37, 95
16, 213336, Note_off_c, 14, 37, 64
16, 213360, Note_on_c, 14, 37, 95
16, 213576, Note_off_c, 14, 37, 64
16, 213600, Note_on_c, 14, 37, 95
16, 213816, Note_off_c, 14, 37, 64
16, 213840, Note_on_c, 14, 37, 95
16, 214056, Note_off_c, 14, 37, 64
16, 214080, Note_on_c, 14, 37, 95
16, 214296, Note_off_c, 14, 37, 64
16, 214320, Note_on_c, 14, 37, 95
16, 214536, Note_off_c, 14, 37, 64
16, 214560, Note_on_c, 14, 37, 95
16, 214776, Note_off_c, 14, 37, 64
16, 214800, Note_on_c, 14, 37, 95
16, 215016, Note_off_c, 14, 37, 64
16, 215040, Note_on_c, 14, 37, 95
16, 215256, Note_off_c, 14, 37, 64
16, 215280, Note_on_c, 14, 37, 95
16, 215496, Note_off_c, 14, 37, 64
16, 215520, Note_on_c, 14, 37, 95
16, 215736, Note_off_c, 14, 37, 64
16, 215760, Note_on_c, 14, 37, 95
16, 215976, Note_off_c, 14, 37, 64
16, 216000, Note_on_c, 14, 37, 95
16, 216216, Note_off_c, 14, 37, 64
16, 216240, Note_on_c, 14, 32, 102
16, 216456, Note_off_c, 14, 32, 64
16, 216480, Note_on_c, 14, 38, 95
16, 216912, Note_off_c, 14, 38, 64
16, 216960, Note_on_c, 14, 27, 102
16, 217392, Note_off_c, 14, 27, 64
16, 217440, Note_on_c, 14, 39, 95
16, 217656, Note_off_c, 14, 39, 64
16, 217680, Note_on_c, 14, 39, 95
16, 218328, Note_off_c, 14, 39, 64
16, 218400, Note_on_c, 14, 27, 102
16, 218616, Note_off_c, 14, 27, 64
16, 218640, Note_on_c, 14, 27, 102
16, 218856, Note_off_c, 14, 27, 64
16, 218880, Note_on_c, 14, 35, 102
16, 219312, Note_off_c, 14, 35, 64
16, 219360, Note_on_c, 14, 35, 102
16, 219576, Note_off_c, 14, 35, 64
16, 219600, Note_on_c, 14, 47, 89
16, 220464, Note_off_c, 14, 47, 64
16, 220560, Note_on_c, 14, 32, 102
16, 220776, Note_off_c, 14, 32, 64
16, 220800, Note_on_c, 14, 34, 102
16, 221232, Note_off_c, 14, 34, 64
16, 221280, Note_on_c, 14, 34, 102
16, 221496, Note_off_c, 14, 34, 64
16, 221520, Note_on_c, 14, 46, 89
16, 222384, Note_off_c, 14, 46, 64
16, 222480, Note_on_c, 14, 27, 102
16, 222696, Note_off_c, 14, 27, 64
16, 222720, Note_on_c, 14, 32, 102
16, 223152, Note_off_c, 14, 32, 64
16, 223200, Note_on_c, 14, 32, 102
16, 223416, Note_off_c, 14, 32, 64
16, 223440, Note_on_c, 14, 44, 95
16, 223872, Note_off_c, 14, 44, 64
16, 223920, Note_on_c, 14, 27, 102
16, 224136, Note_off_c, 14, 27, 64
16, 224160, Note_on_c, 14, 30, 102
16, 224376, Note_off_c, 14, 30, 64
16, 224400, Note_on_c, 14, 29, 102
16, 224616, Note_off_c, 14, 29, 64
16, 224640, Note_on_c, 14, 27, 102
16, 225072, Note_off_c, 14, 27, 64
16, 225120, Note_on_c, 14, 39, 95
16, 225336, Note_off_c, 14, 39, 64
16, 225360, Note_on_c, 14, 39, 95
16, 226008, Note_off_c, 14, 39, 64
16, 226080, Note_on_c, 14, 27, 102
16, 226296, Note_off_c, 14, 27, 64
16, 226320, Note_on_c, 14, 27, 102
16, 226536, Note_off_c, 14, 27, 64
16, 226560, Note_on_c, 14, 35, 102
16, 226992, Note_off_c, 14, 35, 64
16, 227040, Note_on_c, 14, 35, 102
16, 227256, Note_off_c, 14, 35, 64
16, 227280, Note_on_c, 14, 47, 89
16, 228144, Note_off_c, 14, 47, 64
16, 228240, Note_on_c, 14, 32, 102
16, 228456, Note_off_c, 14, 32, 64
16, 228480, Note_on_c, 14, 34, 102
16, 228912, Note_off_c, 14, 34, 64
16, 228960, Note_on_c, 14, 34, 102
16, 229176, Note_off_c, 14, 34, 64
16, 229200, Note_on_c, 14, 46, 89
16, 230064, Note_off_c, 14, 46, 64
16, 230160, Note_on_c, 14, 27, 102
16, 230376, Note_off_c, 14, 27, 64
16, 230400, Note_on_c, 14, 32, 102
16, 230832, Note_off_c, 14, 32, 64
16, 230880, Note_on_c, 14, 32, 102
16, 231096, Note_off_c, 14, 32, 64
16, 231120, Note_on_c, 14, 44, 95
16, 231552, Note_off_c, 14, 44, 64
16, 231600, Note_on_c, 14, 27, 102
16, 231816, Note_off_c, 14, 27, 64
16, 231840, Note_on_c, 14, 30, 102
16, 232056, Note_off_c, 14, 30, 64
16, 232080, Note_on_c, 14, 29, 102
16, 232296, Note_off_c, 14, 29, 64
16, 232320, Note_on_c, 14, 27, 102
16, 232752, Note_off_c, 14, 27, 64
16, 232800, Note_on_c, 14, 39, 95
16, 233016, Note_off_c, 14, 39, 64
16, 233040, Note_on_c, 14, 39, 95
16, 233688, Note_off_c, 14, 39, 64
16, 233760, Note_on_c, 14, 27, 102
16, 233976, Note_off_c, 14, 27, 64
16, 234000, Note_on_c, 14, 27, 102
16, 234216, Note_off_c, 14, 27, 64
16, 234240, Note_on_c, 14, 35, 102
16, 234672, Note_off_c, 14, 35, 64
16, 234720, Note_on_c, 14, 35, 102
16, 234936, Note_off_c, 14, 35, 64
16, 234960, Note_on_c, 14, 47, 89
16, 235824, Note_off_c, 14, 47, 64
16, 235920, Note_on_c, 14, 32, 102
16, 236136, Note_off_c, 14, 32, 64
16, 236160, Note_on_c, 14, 34, 102
16, 236592, Note_off_c, 14, 34, 64
16, 236640, Note_on_c, 14, 34, 102
16, 236856, Note_off_c, 14, 34, 64
16, 236880, Note_on_c, 14, 46, 89
16, 237744, Note_off_c, 14, 46, 64
16, 237840, Note_on_c, 14, 27, 102
16, 238056, Note_off_c, 14, 27, 64
16, 238080, Note_on_c, 14, 32, 102
16, 238512, Note_off_c, 14, 32, 64
16, 238560, Note_on_c, 14, 32, 102
16, 238776, Note_off_c, 14, 32, 64
16, 238800, Note_on_c, 14, 44, 95
16, 239232, Note_off_c, 14, 44, 64
16, 239280, Note_on_c, 14, 27, 102
16, 239496, Note_off_c, 14, 27, 64
16, 239520, Note_on_c, 14, 30, 102
16, 239736, Note_off_c, 14, 30, 64
16, 239760, Note_on_c, 14, 29, 102
16, 239976, Note_off_c, 14, 29, 64
16, 240000, Note_on_c, 14, 27, 102
16, 240432, Note_off_c, 14, 27, 64
16, 240480, Note_on_c, 14, 39, 95
16, 240696, Note_off_c, 14, 39, 64
16, 240720, Note_on_c, 14, 39, 95
16, 241368, Note_off_c, 14, 39, 64
16, 241440, Note_on_c, 14, 27, 102
16, 241656, Note_off_c, 14, 27, 64
16, 241680, Note_on_c, 14, 27, 102
16, 241896, Note_off_c, 14, 27, 64
16, 241920, Note_on_c, 14, 35, 102
16, 242352, Note_off_c, 14, 35, 64
16, 242400, Note_on_c, 14, 35, 102
16, 242616, Note_off_c, 14, 35, 64
16, 242640, Note_on_c, 14, 47, 89
16, 243504, Note_off_c, 14, 47, 64
16, 243600, Note_on_c, 14, 32, 102
16, 243816, Note_off_c, 14, 32, 64
16, 243840, Note_on_c, 14, 34, 102
16, 244272, Note_off_c, 14, 34, 64
16, 244320, Note_on_c, 14, 34, 102
16, 244536, Note_off_c, 14, 34, 64
16, 244560, Note_on_c, 14, 46, 89
16, 245424, Note_off_c, 14, 46, 64
16, 245520, Note_on_c, 14, 27, 102
16, 245736, Note_off_c, 14, 27, 64
16, 245760, Note_on_c, 14, 32, 102
16, 246192, Note_off_c, 14, 32, 64
16, 246240, Note_on_c, 14, 32, 102
16, 246456, Note_off_c, 14, 32, 64
16, 246480, Note_on_c, 14, 32, 102
16, 246696, Note_off_c, 14, 32, 64
16, 246720, Note_on_c, 14, 32, 102
16, 246936, Note_off_c, 14, 32, 64
16, 246960, Note_on_c, 14, 32, 102
16, 247176, Note_off_c, 14, 32, 64
16, 247200, Note_on_c, 14, 32, 102
16, 247416, Note_off_c, 14, 32, 64
16, 247440, Note_on_c, 14, 42, 95
16, 247548, Note_off_c, 14, 42, 64
16, 247560, Note_on_c, 14, 43, 95
16, 247668, Note_off_c, 14, 43, 64
16, 247680, Note_on_c, 14, 44, 89
16, 247896, Note_off_c, 14, 44, 64
16, 247920, Note_on_c, 14, 44, 89
16, 248136, Note_off_c, 14, 44, 64
16, 248160, Note_on_c, 14, 44, 89
16, 248376, Note_off_c, 14, 44, 64
16, 248400, Note_on_c, 14, 44, 89
16, 248616, Note_off_c, 14, 44, 64
16, 248640, Note_on_c, 14, 44, 89
16, 248856, Note_off_c, 14, 44, 64
16, 248880, Note_on_c, 14, 42, 89
16, 249096, Note_off_c, 14, 42, 64
16, 249120, Note_on_c, 14, 39, 95
16, 249336, Note_off_c, 14, 39, 64
16, 249360, Note_on_c, 14, 37, 95
16, 249576, Note_off_c, 14, 37, 64
16, 249600, Note_on_c, 14, 27, 108
16, 250032, Note_off_c, 14, 27, 64
16, 250080, Note_on_c, 14, 27, 102
16, 250296, Note_off_c, 14, 27, 64
16, 250320, Note_on_c, 14, 39, 102
16, 250752, Note_off_c, 14, 39, 64
16, 250800, Note_on_c, 14, 27, 102
16, 251016, Note_off_c, 14, 27, 64
16, 251040, Note_on_c, 14, 27, 102
16, 251256, Note_off_c, 14, 27, 64
16, 251280, Note_on_c, 14, 29, 102
16, 251496, Note_off_c, 14, 29, 64
16, 251520, Note_on_c, 14, 30, 102
16, 251952, Note_off_c, 14, 30, 64
16, 252000, Note_on_c, 14, 30, 102
16, 252216, Note_off_c, 14, 30, 64
16, 252240, Note_on_c, 14, 42, 95
16, 252672, Note_off_c, 14, 42, 64
16, 252720, Note_on_c, 14, 30, 102
16, 252936, Note_off_c, 14, 30, 64
16, 252960, Note_on_c, 14, 30, 102
16, 253176, Note_off_c, 14, 30, 64
16, 253200, Note_on_c, 14, 27, 102
16, 253416, Note_off_c, 14, 27, 64
16, 253440, Note_on_c, 14, 32, 102
16, 253872, Note_off_c, 14, 32, 64
16, 253920, Note_on_c, 14, 27, 102
16, 254136, Note_off_c, 14, 27, 64
16, 254160, Note_on_c, 14, 32, 102
16, 254592, Note_off_c, 14, 32, 64
16, 254640, Note_on_c, 14, 32, 102
16, 254856, Note_off_c, 14, 32, 64
16, 254880, Note_on_c, 14, 32, 102
16, 255096, Note_off_c, 14, 32, 64
16, 255120, Note_on_c, 14, 27, 102
16, 255336, Note_off_c, 14, 27, 64
16, 255360, Note_on_c, 14, 35, 102
16, 255576, Note_off_c, 14, 35, 64
16, 255600, Note_on_c, 14, 35, 102
16, 255816, Note_off_c, 14, 35, 64
16, 255840, Note_on_c, 14, 35, 102
16, 256056, Note_off_c, 14, 35, 64
16, 256080, Note_on_c, 14, 35, 102
16, 256296, Note_off_c, 14, 35, 64
16, 256320, Note_on_c, 14, 37, 102
16, 256752, Note_off_c, 14, 37, 64
16, 256800, Note_on_c, 14, 30, 102
16, 257232, Note_off_c, 14, 30, 64
16, 257280, Note_on_c, 14, 27, 108
16, 257712, Note_off_c, 14, 27, 64
16, 257760, Note_on_c, 14, 27, 102
16, 257976, Note_off_c, 14, 27, 64
16, 258000, Note_on_c, 14, 39, 102
16, 258432, Note_off_c, 14, 39, 64
16, 258480, Note_on_c, 14, 27, 102
16, 258696, Note_off_c, 14, 27, 64
16, 258720, Note_on_c, 14, 27, 102
16, 258936, Note_off_c, 14, 27, 64
16, 258960, Note_on_c, 14, 29, 102
16, 259176, Note_off_c, 14, 29, 64
16, 259200, Note_on_c, 14, 30, 102
16, 259632, Note_off_c, 14, 30, 64
16, 259680, Note_on_c, 14, 30, 102
16, 259896, Note_off_c, 14, 30, 64
16, 259920, Note_on_c, 14, 42, 95
16, 260352, Note_off_c, 14, 42, 64
16, 260400, Note_on_c, 14, 30, 102
16, 260616, Note_off_c, 14, 30, 64
16, 260640, Note_on_c, 14, 30, 102
16, 260856, Note_off_c, 14, 30, 64
16, 260880, Note_on_c, 14, 27, 102
16, 261096, Note_off_c, 14, 27, 64
16, 261120, Note_on_c, 14, 32, 102
16, 261552, Note_off_c, 14, 32, 64
16, 261600, Note_on_c, 14, 27, 102
16, 261816, Note_off_c, 14, 27, 64
16, 261840, Note_on_c, 14, 32, 102
16, 262272, Note_off_c, 14, 32, 64
16, 262320, Note_on_c, 14, 32, 102
16, 262536, Note_off_c, 14, 32, 64
16, 262560, Note_on_c, 14, 32, 102
16, 262776, Note_off_c, 14, 32, 64
16, 262800, Note_on_c, 14, 27, 102
16, 263016, Note_off_c, 14, 27, 64
16, 263040, Note_on_c, 14, 35, 102
16, 263256, Note_off_c, 14, 35, 64
16, 263280, Note_on_c, 14, 35, 102
16, 263496, Note_off_c, 14, 35, 64
16, 263520, Note_on_c, 14, 35, 102
16, 263736, Note_off_c, 14, 35, 64
16, 263760, Note_on_c, 14, 35, 102
16, 263976, Note_off_c, 14, 35, 64
16, 264000, Note_on_c, 14, 37, 102
16, 264432, Note_off_c, 14, 37, 64
16, 264480, Note_on_c, 14, 30, 102
16, 264912, Note_off_c, 14, 30, 64
16, 264960, Note_on_c, 14, 27, 108
16, 265392, Note_off_c, 14, 27, 64
16, 265440, Note_on_c, 14, 27, 102
16, 265656, Note_off_c, 14, 27, 64
16, 265680, Note_on_c, 14, 39, 102
16, 266112, Note_off_c, 14, 39, 64
16, 266160, Note_on_c, 14, 27, 102
16, 266376, Note_off_c, 14, 27, 64
16, 266400, Note_on_c, 14, 27, 102
16, 266616, Note_off_c, 14, 27, 64
16, 266640, Note_on_c, 14, 29, 102
16, 266856, Note_off_c, 14, 29, 64
16, 266880, Note_on_c, 14, 30, 102
16, 267312, Note_off_c, 14, 30, 64
16, 267360, Note_on_c, 14, 30, 102
16, 267576, Note_off_c, 14, 30, 64
16, 267600, Note_on_c, 14, 42, 95
16, 268032, Note_off_c, 14, 42, 64
16, 268080, Note_on_c, 14, 30, 102
16, 268296, Note_off_c, 14, 30, 64
16, 268320, Note_on_c, 14, 30, 102
16, 268536, Note_off_c, 14, 30, 64
16, 268560, Note_on_c, 14, 27, 102
16, 268776, Note_off_c, 14, 27, 64
16, 268800, Note_on_c, 14, 32, 102
16, 269232, Note_off_c, 14, 32, 64
16, 269280, Note_on_c, 14, 27, 102
16, 269496, Note_off_c, 14, 27, 64
16, 269520, Note_on_c, 14, 32, 102
16, 269952, Note_off_c, 14, 32, 64
16, 270000, Note_on_c, 14, 32, 102
16, 270216, Note_off_c, 14, 32, 64
16, 270240, Note_on_c, 14, 32, 102
16, 270456, Note_off_c, 14, 32, 64
16, 270480, Note_on_c, 14, 27, 102
16, 270696, Note_off_c, 14, 27, 64
16, 270720, Note_on_c, 14, 35, 102
16, 270936, Note_off_c, 14, 35, 64
16, 270960, Note_on_c, 14, 35, 102
16, 271176, Note_off_c, 14, 35, 64
16, 271200, Note_on_c, 14, 35, 102
16, 271416, Note_off_c, 14, 35, 64
16, 271440, Note_on_c, 14, 35, 102
16, 271656, Note_off_c, 14, 35, 64
16, 271680, Note_on_c, 14, 37, 102
16, 272112, Note_off_c, 14, 37, 64
16, 272160, Note_on_c, 14, 30, 102
16, 272592, Note_off_c, 14, 30, 64
16, 272640, Note_on_c, 14, 27, 108
16, 273072, Note_off_c, 14, 27, 64
16, 273120, Note_on_c, 14, 27, 102
16, 273336, Note_off_c, 14, 27, 64
16, 273360, Note_on_c, 14, 39, 102
16, 273792, Note_off_c, 14, 39, 64
16, 273840, Note_on_c, 14, 27, 102
16, 274056, Note_off_c, 14, 27, 64
16, 274080, Note_on_c, 14, 27, 102
16, 274296, Note_off_c, 14, 27, 64
16, 274320, Note_on_c, 14, 29, 102
16, 274536, Note_off_c, 14, 29, 64
16, 274560, Note_on_c, 14, 30, 102
16, 274992, Note_off_c, 14, 30, 64
16, 275040, Note_on_c, 14, 30, 102
16, 275256, Note_off_c, 14, 30, 64
16, 275280, Note_on_c, 14, 42, 95
16, 275712, Note_off_c, 14, 42, 64
16, 275760, Note_on_c, 14, 30, 102
16, 275976, Note_off_c, 14, 30, 64
16, 276000, Note_on_c, 14, 30, 102
16, 276216, Note_off_c, 14, 30, 64
16, 276240, Note_on_c, 14, 27, 102
16, 276456, Note_off_c, 14, 27, 64
16, 276480, Note_on_c, 14, 32, 102
16, 276912, Note_off_c, 14, 32, 64
16, 276960, Note_on_c, 14, 27, 102
16, 277176, Note_off_c, 14, 27, 64
16, 277200, Note_on_c, 14, 32, 102
16, 277632, Note_off_c, 14, 32, 64
16, 277680, Note_on_c, 14, 32, 102
16, 277896, Note_off_c, 14, 32, 64
16, 277920, Note_on_c, 14, 32, 102
16, 278136, Note_off_c, 14, 32, 64
16, 278160, Note_on_c, 14, 27, 102
16, 278376, Note_off_c, 14, 27, 64
16, 278400, Note_on_c, 14, 35, 102
16, 278616, Note_off_c, 14, 35, 64
16, 278640, Note_on_c, 14, 35, 102
16, 278856, Note_off_c, 14, 35, 64
16, 278880, Note_on_c, 14, 35, 102
16, 279096, Note_off_c, 14, 35, 64
16, 279120, Note_on_c, 14, 35, 102
16, 279336, Note_off_c, 14, 35, 64
16, 279360, Note_on_c, 14, 37, 102
16, 279792, Note_off_c, 14, 37, 64
16, 279840, Note_on_c, 14, 30, 102
16, 280272, Note_off_c, 14, 30, 64
16, 280320, Note_on_c, 14, 27, 102
16, 280560, Note_off_c, 14, 27, 64
16, 281040, Note_on_c, 14, 27, 102
16, 281280, Note_off_c, 14, 27, 64
16, 282000, Note_on_c, 14, 29, 102
16, 282216, Note_off_c, 14, 29, 64
16, 282240, Note_on_c, 14, 30, 102
16, 282480, Note_off_c, 14, 30, 64
16, 282960, Note_on_c, 14, 30, 102
16, 283200, Note_off_c, 14, 30, 64
16, 284160, Note_on_c, 14, 32, 102
16, 284400, Note_off_c, 14, 32, 64
16, 284880, Note_on_c, 14, 32, 102
16, 285120, Note_off_c, 14, 32, 64
16, 286320, Note_on_c, 14, 35, 102
16, 286536, Note_off_c, 14, 35, 64
16, 286560, Note_on_c, 14, 35, 102
16, 286776, Note_off_c, 14, 35, 64
16, 286800, Note_on_c, 14, 35, 102
16, 287016, Note_off_c, 14, 35, 64
16, 287040, Note_on_c, 14, 37, 102
16, 287472, Note_off_c, 14, 37, 64
16, 287520, Note_on_c, 14, 30, 102
16, 287952, Note_off_c, 14, 30, 64
16, 288000, Note_on_c, 14, 27, 102
16, 288240, Note_off_c, 14, 27, 64
16, 288720, Note_on_c, 14, 27, 102
16, 288960, Note_off_c, 14, 27, 64
16, 289680, Note_on_c, 14, 29, 102
16, 289896, Note_off_c, 14, 29, 64
16, 289920, Note_on_c, 14, 30, 102
16, 290160, Note_off_c, 14, 30, 64
16, 290640, Note_on_c, 14, 30, 102
16, 290880, Note_off_c, 14, 30, 64
16, 291840, Note_on_c, 14, 32, 102
16, 292080, Note_off_c, 14, 32, 64
16, 292560, Note_on_c, 14, 32, 102
16, 292800, Note_off_c, 14, 32, 64
16, 294000, Note_on_c, 14, 35, 102
16, 294216, Note_off_c, 14, 35, 64
16, 294240, Note_on_c, 14, 35, 102
16, 294456, Note_off_c, 14, 35, 64
16, 294480, Note_on_c, 14, 35, 102
16, 294696, Note_off_c, 14, 35, 64
16, 294720, Note_on_c, 14, 37, 102
16, 295152, Note_off_c, 14, 37, 64
16, 295200, Note_on_c, 14, 30, 102
16, 295632, Note_off_c, 14, 30, 64
16, 295680, Note_on_c, 14, 27, 102
16, 295920, Note_off_c, 14, 27, 64
16, 296400, Note_on_c, 14, 27, 102
16, 296640, Note_off_c, 14, 27, 64
16, 297360, Note_on_c, 14, 29, 102
16, 297576, Note_off_c, 14, 29, 64
16, 297600, Note_on_c, 14, 30, 102
16, 297840, Note_off_c, 14, 30, 64
16, 298320, Note_on_c, 14, 30, 102
16, 298560, Note_off_c, 14, 30, 64
16, 299520, Note_on_c, 14, 32, 102
16, 299760, Note_off_c, 14, 32, 64
16, 300240, Note_on_c, 14, 32, 102
16, 300480, Note_off_c, 14, 32, 64
16, 301440, Note_on_c, 14, 35, 102
16, 301656, Note_off_c, 14, 35, 64
16, 301680, Note_on_c, 14, 35, 102
16, 301896, Note_off_c, 14, 35, 64
16, 301920, Note_on_c, 14, 35, 102
16, 302136, Note_off_c, 14, 35, 64
16, 302160, Note_on_c, 14, 35, 102
16, 302376, Note_off_c, 14, 35, 64
16, 302400, Note_on_c, 14, 37, 102
16, 302832, Note_off_c, 14, 37, 64
16, 302880, Note_on_c, 14, 30, 102
16, 303096, Note_off_c, 14, 30, 64
16, 303120, Note_on_c, 14, 30, 102
16, 303336, Note_off_c, 14, 30, 64
16, 303360, Note_on_c, 14, 27, 102
16, 303792, Note_off_c, 14, 27, 64
16, 303840, Note_on_c, 14, 27, 102
16, 304056, Note_off_c, 14, 27, 64
16, 304080, Note_on_c, 14, 27, 102
16, 304296, Note_off_c, 14, 27, 64
16, 304320, Note_on_c, 14, 27, 102
16, 304536, Note_off_c, 14, 27, 64
16, 304560, Note_on_c, 14, 27, 102
16, 304776, Note_off_c, 14, 27, 64
16, 304800, Note_on_c, 14, 27, 102
16, 305016, Note_off_c, 14, 27, 64
16, 305040, Note_on_c, 14, 29, 102
16, 305256, Note_off_c, 14, 29, 64
16, 305280, Note_on_c, 14, 30, 102
16, 305712, Note_off_c, 14, 30, 64
16, 305760, Note_on_c, 14, 30, 102
16, 305976, Note_off_c, 14, 30, 64
16, 306000, Note_on_c, 14, 30, 102
16, 306216, Note_off_c, 14, 30, 64
16, 306240, Note_on_c, 14, 30, 102
16, 306456, Note_off_c, 14, 30, 64
16, 306480, Note_on_c, 14, 30, 102
16, 306696, Note_off_c, 14, 30, 64
16, 306720, Note_on_c, 14, 30, 102
16, 306936, Note_off_c, 14, 30, 64
16, 306960, Note_on_c, 14, 27, 102
16, 307176, Note_off_c, 14, 27, 64
16, 307200, Note_on_c, 14, 32, 102
16, 307416, Note_off_c, 14, 32, 64
16, 307440, Note_on_c, 14, 32, 102
16, 307656, Note_off_c, 14, 32, 64
16, 307680, Note_on_c, 14, 32, 102
16, 307896, Note_off_c, 14, 32, 64
16, 307920, Note_on_c, 14, 32, 102
16, 308136, Note_off_c, 14, 32, 64
16, 308160, Note_on_c, 14, 32, 102
16, 308376, Note_off_c, 14, 32, 64
16, 308400, Note_on_c, 14, 32, 102
16, 308616, Note_off_c, 14, 32, 64
16, 308640, Note_on_c, 14, 27, 102
16, 308856, Note_off_c, 14, 27, 64
16, 308880, Note_on_c, 14, 27, 102
16, 309096, Note_off_c, 14, 27, 64
16, 309120, Note_on_c, 14, 51, 83
16, 309552, Note_off_c, 14, 51, 64
16, 309600, Note_on_c, 14, 51, 83
16, 310032, Note_off_c, 14, 51, 64
16, 310080, Note_on_c, 14, 51, 83
16, 310296, Note_off_c, 14, 51, 64
16, 310320, Note_on_c, 14, 37, 102
16, 310536, Note_off_c, 14, 37, 64
16, 310560, Note_on_c, 14, 32, 102
16, 310776, Note_off_c, 14, 32, 64
16, 310800, Note_on_c, 14, 30, 102
16, 311016, Note_off_c, 14, 30, 64
16, 311040, Note_on_c, 14, 27, 102
16, 311640, Note_off_c, 14, 27, 64
16, 311760, Note_on_c, 14, 39, 95
16, 312192, Note_off_c, 14, 39, 64
16, 312240, Note_on_c, 14, 27, 102
16, 312456, Note_off_c, 14, 27, 64
16, 312480, Note_on_c, 14, 27, 102
16, 312696, Note_off_c, 14, 27, 64
16, 312720, Note_on_c, 14, 29, 102
16, 312936, Note_off_c, 14, 29, 64
16, 312960, Note_on_c, 14, 30, 102
16, 313392, Note_off_c, 14, 30, 64
16, 313440, Note_on_c, 14, 30, 102
16, 313656, Note_off_c, 14, 30, 64
16, 313680, Note_on_c, 14, 42, 89
16, 314328, Note_off_c, 14, 42, 64
16, 314400, Note_on_c, 14, 30, 102
16, 314616, Note_off_c, 14, 30, 64
16, 314640, Note_on_c, 14, 27, 102
16, 314856, Note_off_c, 14, 27, 64
16, 314880, Note_on_c, 14, 32, 102
16, 315312, Note_off_c, 14, 32, 64
16, 315360, Note_on_c, 14, 27, 102
16, 315576, Note_off_c, 14, 27, 64
16, 315600, Note_on_c, 14, 32, 102
16, 316032, Note_off_c, 14, 32, 64
16, 316080, Note_on_c, 14, 32, 102
16, 316296, Note_off_c, 14, 32, 64
16, 316320, Note_on_c, 14, 32, 102
16, 316536, Note_off_c, 14, 32, 64
16, 316560, Note_on_c, 14, 27, 102
16, 316776, Note_off_c, 14, 27, 64
16, 316800, Note_on_c, 14, 35, 102
16, 317016, Note_off_c, 14, 35, 64
16, 317040, Note_on_c, 14, 35, 102
16, 317256, Note_off_c, 14, 35, 64
16, 317280, Note_on_c, 14, 35, 102
16, 317496, Note_off_c, 14, 35, 64
16, 317520, Note_on_c, 14, 35, 102
16, 317528, Pitch_bend_c, 14, 8241
16, 317544, Pitch_bend_c, 14, 8438
16, 317560, Pitch_bend_c, 14, 8634
16, 317576, Pitch_bend_c, 14, 8830
16, 317592, Pitch_bend_c, 14, 9027
16, 317608, Pitch_bend_c, 14, 9223
16, 317624, Pitch_bend_c, 14, 9420
16, 317636, Pitch_bend_c, 14, 9567
16, 317736, Note_off_c, 14, 35, 64
16, 317760, Pitch_bend_c, 14, 8192
16, 317760, Note_on_c, 14, 37, 102
16, 318192, Note_off_c, 14, 37, 64
16, 318240, Note_on_c, 14, 30, 102
16, 318672, Note_off_c, 14, 30, 64
16, 318720, Note_on_c, 14, 27, 102
16, 319152, Note_off_c, 14, 27, 64
16, 319200, Note_on_c, 14, 27, 102
16, 319416, Note_off_c, 14, 27, 64
16, 319440, Note_on_c, 14, 39, 95
16, 319872, Note_off_c, 14, 39, 64
16, 319920, Note_on_c, 14, 27, 102
16, 320136, Note_off_c, 14, 27, 64
16, 320160, Note_on_c, 14, 27, 102
16, 320376, Note_off_c, 14, 27, 64
16, 320400, Note_on_c, 14, 29, 102
16, 320508, Note_off_c, 14, 29, 64
16, 320520, Note_on_c, 14, 29, 102
16, 320628, Note_off_c, 14, 29, 64
16, 320640, Note_on_c, 14, 30, 102
16, 321072, Note_off_c, 14, 30, 64
16, 321120, Note_on_c, 14, 30, 102
16, 321336, Note_off_c, 14, 30, 64
16, 321360, Note_on_c, 14, 42, 89
16, 321792, Note_off_c, 14, 42, 64
16, 321840, Note_on_c, 14, 27, 102
16, 322056, Note_off_c, 14, 27, 64
16, 322080, Note_on_c, 14, 27, 102
16, 322296, Note_off_c, 14, 27, 64
16, 322320, Note_on_c, 14, 27, 102
16, 322536, Note_off_c, 14, 27, 64
16, 322560, Note_on_c, 14, 32, 102
16, 322992, Note_off_c, 14, 32, 64
16, 323040, Note_on_c, 14, 27, 102
16, 323256, Note_off_c, 14, 27, 64
16, 323280, Note_on_c, 14, 32, 102
16, 323712, Note_off_c, 14, 32, 64
16, 323760, Note_on_c, 14, 32, 102
16, 323976, Note_off_c, 14, 32, 64
16, 324000, Note_on_c, 14, 32, 102
16, 324216, Note_off_c, 14, 32, 64
16, 324240, Note_on_c, 14, 27, 102
16, 324456, Note_off_c, 14, 27, 64
16, 324480, Note_on_c, 14, 35, 102
16, 324696, Note_off_c, 14, 35, 64
16, 324720, Note_on_c, 14, 35, 102
16, 324936, Note_off_c, 14, 35, 64
16, 324960, Note_on_c, 14, 35, 102
16, 325176, Note_off_c, 14, 35, 64
16, 325200, Note_on_c, 14, 35, 102
16, 325416, Note_off_c, 14, 35, 64
16, 325440, Note_on_c, 14, 37, 102
16, 325872, Note_off_c, 14, 37, 64
16, 325920, Note_on_c, 14, 30, 102
16, 326352, Note_off_c, 14, 30, 64
16, 326400, Note_on_c, 14, 27, 102
16, 326832, Note_off_c, 14, 27, 64
16, 326880, Note_on_c, 14, 27, 102
16, 327096, Note_off_c, 14, 27, 64
16, 327120, Note_on_c, 14, 51, 83
16, 327552, Note_off_c, 14, 51, 64
16, 327600, Note_on_c, 14, 27, 102
16, 327816, Note_off_c, 14, 27, 64
16, 327840, Note_on_c, 14, 27, 102
16, 328056, Note_off_c, 14, 27, 64
16, 328080, Note_on_c, 14, 29, 102
16, 328188, Note_off_c, 14, 29, 64
16, 328200, Note_on_c, 14, 29, 102
16, 328308, Note_off_c, 14, 29, 64
16, 328320, Note_on_c, 14, 30, 102
16, 328752, Note_off_c, 14, 30, 64
16, 328800, Note_on_c, 14, 30, 102
16, 329016, Note_off_c, 14, 30, 64
16, 329040, Note_on_c, 14, 42, 89
16, 329472, Note_off_c, 14, 42, 64
16, 329520, Note_on_c, 14, 42, 89
16, 329736, Note_off_c, 14, 42, 64
16, 329760, Note_on_c, 14, 42, 89
16, 329976, Note_off_c, 14, 42, 64
16, 330000, Note_on_c, 14, 27, 102
16, 330216, Note_off_c, 14, 27, 64
16, 330240, Note_on_c, 14, 32, 102
16, 330672, Note_off_c, 14, 32, 64
16, 330720, Note_on_c, 14, 27, 102
16, 330936, Note_off_c, 14, 27, 64
16, 330960, Note_on_c, 14, 32, 102
16, 331392, Note_off_c, 14, 32, 64
16, 331440, Note_on_c, 14, 32, 102
16, 331656, Note_off_c, 14, 32, 64
16, 331680, Note_on_c, 14, 32, 102
16, 331896, Note_off_c, 14, 32, 64
16, 331920, Note_on_c, 14, 27, 102
16, 332136, Note_off_c, 14, 27, 64
16, 332160, Note_on_c, 14, 39, 102
16, 332448, Note_off_c, 14, 39, 64
16, 332480, Note_on_c, 14, 37, 102
16, 332768, Note_off_c, 14, 37, 64
16, 332800, Note_on_c, 14, 34, 102
16, 333088, Note_off_c, 14, 34, 64
16, 333120, Note_on_c, 14, 33, 102
16, 333408, Note_off_c, 14, 33, 64
16, 333440, Note_on_c, 14, 32, 102
16, 333728, Note_off_c, 14, 32, 64
16, 333760, Note_on_c, 14, 30, 102
16, 334048, Note_off_c, 14, 30, 64
16, 334080, Note_on_c, 14, 27, 102
16, 334512, Note_off_c, 14, 27, 64
16, 334560, Note_on_c, 14, 27, 102
16, 334668, Note_off_c, 14, 27, 64
16, 334680, Note_on_c, 14, 27, 102
16, 334788, Note_off_c, 14, 27, 64
16, 334800, Note_on_c, 14, 39, 95
16, 335232, Note_off_c, 14, 39, 64
16, 335280, Note_on_c, 14, 27, 102
16, 335496, Note_off_c, 14, 27, 64
16, 335520, Note_on_c, 14, 27, 102
16, 335736, Note_off_c, 14, 27, 64
16, 335760, Note_on_c, 14, 29, 102
16, 335976, Note_off_c, 14, 29, 64
16, 336000, Note_on_c, 14, 30, 102
16, 336432, Note_off_c, 14, 30, 64
16, 336480, Note_on_c, 14, 30, 102
16, 336696, Note_off_c, 14, 30, 64
16, 336720, Note_on_c, 14, 42, 89
16, 337152, Note_off_c, 14, 42, 64
16, 337200, Note_on_c, 14, 46, 83
16, 337416, Note_off_c, 14, 46, 64
16, 337440, Note_on_c, 14, 30, 102
16, 337656, Note_off_c, 14, 30, 64
16, 337680, Note_on_c, 14, 27, 102
16, 337896, Note_off_c, 14, 27, 64
16, 337920, Note_on_c, 14, 32, 102
16, 339648, Note_off_c, 14, 32, 64
16, 339840, Note_on_c, 14, 35, 102
16, 340704, Note_off_c, 14, 35, 64
16, 340800, Note_on_c, 14, 37, 102
16, 341664, Note_off_c, 14, 37, 64
16, 341760, Note_on_c, 14, 27, 102
16, 347520, Note_off_c, 14, 27, 64
16, 355200, Control_c, 0, 121, 0
16, 355200, End_track
17, 0, Start_track
17, 0, Title_t, "Drums"
17, 0, MIDI_port, 0
17, 0, Channel_prefix, 9
17, 0, Control_c, 9, 7, 127
17, 0, Control_c, 9, 10, 10
17, 0, Control_c, 9, 121, 0
17, 0, Control_c, 9, 1, 0
17, 0, Control_c, 9, 11, 127
17, 0, Control_c, 9, 64, 0
17, 0, Control_c, 9, 99, 28
17, 0, Control_c, 9, 98, 49
17, 0, Control_c, 9, 6, 44
17, 0, Control_c, 9, 99, 28
17, 0, Control_c, 9, 98, 57
17, 0, Control_c, 9, 6, 84
17, 0, Control_c, 9, 99, 28
17, 0, Control_c, 9, 98, 42
17, 0, Control_c, 9, 6, 75
17, 0, Control_c, 9, 99, 28
17, 0, Control_c, 9, 98, 46
17, 0, Control_c, 9, 6, 75
17, 0, Control_c, 9, 99, 28
17, 0, Control_c, 9, 98, 51
17, 0, Control_c, 9, 6, 45
17, 0, Control_c, 9, 99, 28
17, 0, Control_c, 9, 98, 59
17, 0, Control_c, 9, 6, 80
17, 0, Control_c, 9, 99, 28
17, 0, Control_c, 9, 98, 50
17, 0, Control_c, 9, 6, 120
17, 0, Control_c, 9, 99, 28
17, 0, Control_c, 9, 98, 48
17, 0, Control_c, 9, 6, 120
17, 0, Control_c, 9, 99, 28
17, 0, Control_c, 9, 98, 47
17, 0, Control_c, 9, 6, 110
17, 0, Control_c, 9, 99, 28
17, 0, Control_c, 9, 98, 45
17, 0, Control_c, 9, 6, 90
17, 0, Control_c, 9, 99, 28
17, 0, Control_c, 9, 98, 43
17, 0, Control_c, 9, 6, 40
17, 0, Control_c, 9, 99, 28
17, 0, Control_c, 9, 98, 41
17, 0, Control_c, 9, 6, 25
17, 0, Control_c, 9, 7, 127
17, 0, Control_c, 9, 10, 64
17, 0, Control_c, 9, 91, 60
17, 0, Control_c, 9, 93, 40
17, 4, Control_c, 9, 99, 30
17, 4, Control_c, 9, 98, 40
17, 4, Control_c, 9, 6, 127
17, 4, Control_c, 9, 99, 29
17, 4, Control_c, 9, 98, 40
17, 4, Control_c, 9, 6, 127
17, 8, Program_c, 9, 0
17, 17160, Note_on_c, 9, 59, 76
17, 17220, Note_on_c, 9, 59, 76
17, 17280, Note_off_c, 9, 59, 64
17, 17280, Note_on_c, 9, 49, 45
17, 17340, Note_off_c, 9, 59, 64
17, 17520, Note_off_c, 9, 49, 64
17, 17760, Note_on_c, 9, 42, 77
17, 18000, Note_off_c, 9, 42, 64
17, 18240, Note_on_c, 9, 42, 73
17, 18720, Note_off_c, 9, 42, 64
17, 18720, Note_on_c, 9, 42, 76
17, 18960, Note_off_c, 9, 42, 64
17, 19080, Note_on_c, 9, 59, 76
17, 19140, Note_on_c, 9, 59, 76
17, 19200, Note_off_c, 9, 59, 64
17, 19200, Note_on_c, 9, 55, 40
17, 19200, Note_on_c, 9, 42, 81
17, 19260, Note_off_c, 9, 59, 64
17, 19680, Note_off_c, 9, 55, 64
17, 19680, Note_off_c, 9, 42, 64
17, 19680, Note_on_c, 9, 42, 81
17, 20160, Note_off_c, 9, 42, 64
17, 20160, Note_on_c, 9, 42, 79
17, 20640, Note_off_c, 9, 42, 64
17, 20640, Note_on_c, 9, 42, 82
17, 20880, Note_off_c, 9, 42, 64
17, 21000, Note_on_c, 9, 59, 76
17, 21060, Note_on_c, 9, 59, 76
17, 21120, Note_off_c, 9, 59, 64
17, 21120, Note_on_c, 9, 49, 46
17, 21180, Note_off_c, 9, 59, 64
17, 21600, Note_off_c, 9, 49, 64
17, 21600, Note_on_c, 9, 42, 75
17, 22080, Note_off_c, 9, 42, 64
17, 22080, Note_on_c, 9, 42, 76
17, 22560, Note_off_c, 9, 42, 64
17, 22560, Note_on_c, 9, 42, 82
17, 22800, Note_off_c, 9, 42, 64
17, 22860, Note_on_c, 9, 59, 76
17, 22920, Note_on_c, 9, 59, 76
17, 22980, Note_off_c, 9, 59, 64
17, 23040, Note_off_c, 9, 59, 64
17, 23040, Note_on_c, 9, 55, 40
17, 23040, Note_on_c, 9, 42, 79
17, 23520, Note_off_c, 9, 42, 64
17, 23520, Note_off_c, 9, 55, 64
17, 23520, Note_on_c, 9, 42, 79
17, 24000, Note_off_c, 9, 42, 64
17, 24000, Note_on_c, 9, 42, 81
17, 24480, Note_off_c, 9, 42, 64
17, 24480, Note_on_c, 9, 42, 76
17, 24720, Note_off_c, 9, 42, 64
17, 24840, Note_on_c, 9, 59, 76
17, 24900, Note_on_c, 9, 59, 76
17, 24960, Note_off_c, 9, 59, 64
17, 24960, Note_on_c, 9, 49, 47
17, 25020, Note_off_c, 9, 59, 64
17, 25440, Note_off_c, 9, 49, 64
17, 25440, Note_on_c, 9, 42, 77
17, 25920, Note_off_c, 9, 42, 64
17, 25920, Note_on_c, 9, 42, 79
17, 26400, Note_off_c, 9, 42, 64
17, 26400, Note_on_c, 9, 42, 78
17, 26640, Note_off_c, 9, 42, 64
17, 26700, Note_on_c, 9, 59, 76
17, 26760, Note_on_c, 9, 59, 76
17, 26820, Note_off_c, 9, 59, 64
17, 26880, Note_off_c, 9, 59, 64
17, 26880, Note_on_c, 9, 55, 40
17, 26880, Note_on_c, 9, 42, 82
17, 27360, Note_off_c, 9, 42, 64
17, 27360, Note_off_c, 9, 55, 64
17, 27360, Note_on_c, 9, 42, 73
17, 27840, Note_off_c, 9, 42, 64
17, 27840, Note_on_c, 9, 42, 80
17, 28320, Note_off_c, 9, 42, 64
17, 28320, Note_on_c, 9, 42, 75
17, 28560, Note_off_c, 9, 42, 64
17, 28680, Note_on_c, 9, 59, 76
17, 28740, Note_on_c, 9, 59, 76
17, 28800, Note_off_c, 9, 59, 64
17, 28800, Note_on_c, 9, 40, 55
17, 28800, Note_on_c, 9, 36, 45
17, 28800, Note_on_c, 9, 49, 67
17, 28860, Note_off_c, 9, 59, 64
17, 29040, Note_off_c, 9, 40, 64
17, 29040, Note_off_c, 9, 36, 64
17, 29040, Note_off_c, 9, 49, 64
17, 29040, Note_on_c, 9, 40, 50
17, 29040, Note_on_c, 9, 36, 48
17, 29280, Note_off_c, 9, 36, 64
17, 29280, Note_off_c, 9, 40, 64
17, 29280, Note_on_c, 9, 40, 49
17, 29280, Note_on_c, 9, 36, 51
17, 29520, Note_off_c, 9, 36, 64
17, 29520, Note_off_c, 9, 40, 64
17, 29520, Note_on_c, 9, 40, 48
17, 29520, Note_on_c, 9, 36, 53
17, 29760, Note_off_c, 9, 36, 64
17, 29760, Note_off_c, 9, 40, 64
17, 29760, Note_on_c, 9, 40, 58
17, 29760, Note_on_c, 9, 36, 55
17, 30000, Note_off_c, 9, 36, 64
17, 30000, Note_off_c, 9, 40, 64
17, 30000, Note_on_c, 9, 40, 56
17, 30000, Note_on_c, 9, 36, 58
17, 30240, Note_off_c, 9, 36, 64
17, 30240, Note_off_c, 9, 40, 64
17, 30240, Note_on_c, 9, 40, 58
17, 30240, Note_on_c, 9, 36, 68
17, 30480, Note_off_c, 9, 36, 64
17, 30480, Note_off_c, 9, 40, 64
17, 30480, Note_on_c, 9, 40, 59
17, 30480, Note_on_c, 9, 36, 67
17, 30720, Note_off_c, 9, 36, 64
17, 30720, Note_off_c, 9, 40, 64
17, 30720, Note_on_c, 9, 55, 40
17, 30720, Note_on_c, 9, 40, 71
17, 30720, Note_on_c, 9, 36, 81
17, 30840, Note_off_c, 9, 36, 64
17, 30840, Note_off_c, 9, 40, 64
17, 30840, Note_off_c, 9, 55, 64
17, 30840, Note_on_c, 9, 55, 40
17, 30960, Note_off_c, 9, 55, 64
17, 30960, Note_on_c, 9, 55, 40
17, 30960, Note_on_c, 9, 40, 78
17, 30960, Note_on_c, 9, 36, 77
17, 31080, Note_off_c, 9, 36, 64
17, 31080, Note_off_c, 9, 40, 64
17, 31080, Note_off_c, 9, 55, 64
17, 31080, Note_on_c, 9, 55, 40
17, 31200, Note_off_c, 9, 55, 64
17, 31200, Note_on_c, 9, 55, 40
17, 31200, Note_on_c, 9, 40, 86
17, 31200, Note_on_c, 9, 36, 90
17, 31320, Note_off_c, 9, 36, 64
17, 31320, Note_off_c, 9, 40, 64
17, 31320, Note_off_c, 9, 55, 64
17, 31320, Note_on_c, 9, 55, 40
17, 31440, Note_off_c, 9, 55, 64
17, 31440, Note_on_c, 9, 55, 40
17, 31440, Note_on_c, 9, 40, 96
17, 31440, Note_on_c, 9, 36, 86
17, 31560, Note_off_c, 9, 36, 64
17, 31560, Note_off_c, 9, 40, 64
17, 31560, Note_off_c, 9, 55, 64
17, 31560, Note_on_c, 9, 55, 40
17, 31680, Note_off_c, 9, 55, 64
17, 31680, Note_on_c, 9, 55, 40
17, 31680, Note_on_c, 9, 40, 107
17, 31680, Note_on_c, 9, 36, 89
17, 31920, Note_off_c, 9, 36, 64
17, 31920, Note_off_c, 9, 40, 64
17, 31920, Note_off_c, 9, 55, 64
17, 31920, Note_on_c, 9, 36, 98
17, 32160, Note_off_c, 9, 36, 64
17, 32160, Note_on_c, 9, 40, 127
17, 32400, Note_off_c, 9, 40, 64
17, 32640, Note_on_c, 9, 36, 83
17, 32640, Note_on_c, 9, 49, 62
17, 32880, Note_off_c, 9, 49, 64
17, 32880, Note_off_c, 9, 36, 64
17, 32880, Note_on_c, 9, 42, 68
17, 33120, Note_off_c, 9, 42, 64
17, 33120, Note_on_c, 9, 42, 74
17, 33120, Note_on_c, 9, 40, 123
17, 33360, Note_off_c, 9, 40, 64
17, 33360, Note_off_c, 9, 42, 64
17, 33360, Note_on_c, 9, 36, 89
17, 33360, Note_on_c, 9, 42, 75
17, 33600, Note_off_c, 9, 42, 64
17, 33600, Note_off_c, 9, 36, 64
17, 33600, Note_on_c, 9, 36, 82
17, 33600, Note_on_c, 9, 42, 68
17, 33840, Note_off_c, 9, 42, 64
17, 33840, Note_off_c, 9, 36, 64
17, 33840, Note_on_c, 9, 42, 67
17, 34080, Note_off_c, 9, 42, 64
17, 34080, Note_on_c, 9, 42, 69
17, 34080, Note_on_c, 9, 40, 122
17, 34320, Note_off_c, 9, 40, 64
17, 34320, Note_off_c, 9, 42, 64
17, 34320, Note_on_c, 9, 36, 84
17, 34320, Note_on_c, 9, 42, 69
17, 34560, Note_off_c, 9, 42, 64
17, 34560, Note_off_c, 9, 36, 64
17, 34560, Note_on_c, 9, 36, 81
17, 34560, Note_on_c, 9, 42, 67
17, 34800, Note_off_c, 9, 42, 64
17, 34800, Note_off_c, 9, 36, 64
17, 34800, Note_on_c, 9, 42, 70
17, 35040, Note_off_c, 9, 42, 64
17, 35040, Note_on_c, 9, 42, 69
17, 35040, Note_on_c, 9, 40, 127
17, 35280, Note_off_c, 9, 40, 64
17, 35280, Note_off_c, 9, 42, 64
17, 35280, Note_on_c, 9, 36, 80
17, 35280, Note_on_c, 9, 42, 72
17, 35520, Note_off_c, 9, 42, 64
17, 35520, Note_off_c, 9, 36, 64
17, 35520, Note_on_c, 9, 36, 86
17, 35520, Note_on_c, 9, 42, 72
17, 35760, Note_off_c, 9, 42, 64
17, 35760, Note_off_c, 9, 36, 64
17, 35760, Note_on_c, 9, 42, 73
17, 36000, Note_off_c, 9, 42, 64
17, 36000, Note_on_c, 9, 42, 65
17, 36000, Note_on_c, 9, 40, 123
17, 36240, Note_off_c, 9, 40, 64
17, 36240, Note_off_c, 9, 42, 64
17, 36240, Note_on_c, 9, 42, 71
17, 36480, Note_off_c, 9, 42, 64
17, 36480, Note_on_c, 9, 36, 85
17, 36480, Note_on_c, 9, 49, 62
17, 36720, Note_off_c, 9, 49, 64
17, 36720, Note_off_c, 9, 36, 64
17, 36720, Note_on_c, 9, 42, 76
17, 36960, Note_off_c, 9, 42, 64
17, 36960, Note_on_c, 9, 42, 66
17, 36960, Note_on_c, 9, 40, 124
17, 37200, Note_off_c, 9, 40, 64
17, 37200, Note_off_c, 9, 42, 64
17, 37200, Note_on_c, 9, 36, 82
17, 37200, Note_on_c, 9, 42, 71
17, 37440, Note_off_c, 9, 42, 64
17, 37440, Note_off_c, 9, 36, 64
17, 37440, Note_on_c, 9, 36, 80
17, 37440, Note_on_c, 9, 42, 75
17, 37680, Note_off_c, 9, 42, 64
17, 37680, Note_off_c, 9, 36, 64
17, 37680, Note_on_c, 9, 42, 69
17, 37920, Note_off_c, 9, 42, 64
17, 37920, Note_on_c, 9, 42, 74
17, 37920, Note_on_c, 9, 40, 126
17, 38160, Note_off_c, 9, 40, 64
17, 38160, Note_off_c, 9, 42, 64
17, 38160, Note_on_c, 9, 36, 80
17, 38160, Note_on_c, 9, 42, 76
17, 38400, Note_off_c, 9, 42, 64
17, 38400, Note_off_c, 9, 36, 64
17, 38400, Note_on_c, 9, 36, 80
17, 38400, Note_on_c, 9, 42, 65
17, 38640, Note_off_c, 9, 42, 64
17, 38640, Note_off_c, 9, 36, 64
17, 38640, Note_on_c, 9, 42, 76
17, 38880, Note_off_c, 9, 42, 64
17, 38880, Note_on_c, 9, 42, 66
17, 38880, Note_on_c, 9, 40, 123
17, 39120, Note_off_c, 9, 40, 64
17, 39120, Note_off_c, 9, 42, 64
17, 39120, Note_on_c, 9, 36, 82
17, 39120, Note_on_c, 9, 42, 65
17, 39360, Note_off_c, 9, 42, 64
17, 39360, Note_off_c, 9, 36, 64
17, 39360, Note_on_c, 9, 36, 83
17, 39360, Note_on_c, 9, 42, 65
17, 39600, Note_off_c, 9, 42, 64
17, 39600, Note_off_c, 9, 36, 64
17, 39600, Note_on_c, 9, 42, 67
17, 39840, Note_off_c, 9, 42, 64
17, 39840, Note_on_c, 9, 42, 75
17, 39840, Note_on_c, 9, 40, 119
17, 40080, Note_off_c, 9, 40, 64
17, 40080, Note_off_c, 9, 42, 64
17, 40080, Note_on_c, 9, 42, 71
17, 40320, Note_off_c, 9, 42, 64
17, 40320, Note_on_c, 9, 36, 84
17, 40320, Note_on_c, 9, 42, 75
17, 40560, Note_off_c, 9, 42, 64
17, 40560, Note_off_c, 9, 36, 64
17, 40560, Note_on_c, 9, 42, 67
17, 40800, Note_off_c, 9, 42, 64
17, 40800, Note_on_c, 9, 42, 65
17, 40800, Note_on_c, 9, 40, 119
17, 41040, Note_off_c, 9, 40, 64
17, 41040, Note_off_c, 9, 42, 64
17, 41040, Note_on_c, 9, 36, 82
17, 41040, Note_on_c, 9, 42, 76
17, 41280, Note_off_c, 9, 42, 64
17, 41280, Note_off_c, 9, 36, 64
17, 41280, Note_on_c, 9, 36, 88
17, 41280, Note_on_c, 9, 42, 71
17, 41520, Note_off_c, 9, 42, 64
17, 41520, Note_off_c, 9, 36, 64
17, 41520, Note_on_c, 9, 42, 72
17, 41760, Note_off_c, 9, 42, 64
17, 41760, Note_on_c, 9, 42, 65
17, 41760, Note_on_c, 9, 40, 127
17, 42000, Note_off_c, 9, 40, 64
17, 42000, Note_off_c, 9, 42, 64
17, 42000, Note_on_c, 9, 36, 80
17, 42000, Note_on_c, 9, 42, 76
17, 42240, Note_off_c, 9, 42, 64
17, 42240, Note_off_c, 9, 36, 64
17, 42240, Note_on_c, 9, 36, 82
17, 42240, Note_on_c, 9, 42, 69
17, 42480, Note_off_c, 9, 42, 64
17, 42480, Note_off_c, 9, 36, 64
17, 42480, Note_on_c, 9, 42, 73
17, 42720, Note_off_c, 9, 42, 64
17, 42720, Note_on_c, 9, 42, 72
17, 42720, Note_on_c, 9, 40, 124
17, 42960, Note_off_c, 9, 40, 64
17, 42960, Note_off_c, 9, 42, 64
17, 42960, Note_on_c, 9, 36, 88
17, 42960, Note_on_c, 9, 42, 75
17, 43200, Note_off_c, 9, 42, 64
17, 43200, Note_off_c, 9, 36, 64
17, 43200, Note_on_c, 9, 36, 84
17, 43200, Note_on_c, 9, 42, 65
17, 43440, Note_off_c, 9, 42, 64
17, 43440, Note_off_c, 9, 36, 64
17, 43440, Note_on_c, 9, 42, 67
17, 43680, Note_off_c, 9, 42, 64
17, 43680, Note_on_c, 9, 42, 66
17, 43680, Note_on_c, 9, 40, 124
17, 43920, Note_off_c, 9, 40, 64
17, 43920, Note_off_c, 9, 42, 64
17, 43920, Note_on_c, 9, 36, 81
17, 43920, Note_on_c, 9, 42, 66
17, 44160, Note_off_c, 9, 42, 64
17, 44160, Note_off_c, 9, 36, 64
17, 44160, Note_on_c, 9, 36, 80
17, 44160, Note_on_c, 9, 42, 71
17, 44400, Note_off_c, 9, 42, 64
17, 44400, Note_off_c, 9, 36, 64
17, 44400, Note_on_c, 9, 42, 73
17, 44640, Note_off_c, 9, 42, 64
17, 44640, Note_on_c, 9, 42, 68
17, 44640, Note_on_c, 9, 40, 123
17, 44880, Note_off_c, 9, 40, 64
17, 44880, Note_off_c, 9, 42, 64
17, 44880, Note_on_c, 9, 36, 86
17, 44880, Note_on_c, 9, 42, 75
17, 45120, Note_off_c, 9, 42, 64
17, 45120, Note_off_c, 9, 36, 64
17, 45120, Note_on_c, 9, 36, 86
17, 45120, Note_on_c, 9, 42, 72
17, 45360, Note_off_c, 9, 42, 64
17, 45360, Note_off_c, 9, 36, 64
17, 45360, Note_on_c, 9, 42, 66
17, 45600, Note_off_c, 9, 42, 64
17, 45600, Note_on_c, 9, 42, 75
17, 45600, Note_on_c, 9, 40, 126
17, 45840, Note_off_c, 9, 40, 64
17, 45840, Note_off_c, 9, 42, 64
17, 45840, Note_on_c, 9, 36, 83
17, 45840, Note_on_c, 9, 42, 68
17, 46080, Note_off_c, 9, 42, 64
17, 46080, Note_off_c, 9, 36, 64
17, 46080, Note_on_c, 9, 36, 85
17, 46080, Note_on_c, 9, 42, 76
17, 46320, Note_off_c, 9, 42, 64
17, 46320, Note_off_c, 9, 36, 64
17, 46320, Note_on_c, 9, 49, 61
17, 46320, Note_on_c, 9, 40, 122
17, 46800, Note_off_c, 9, 40, 64
17, 46800, Note_off_c, 9, 49, 64
17, 46800, Note_on_c, 9, 36, 81
17, 47040, Note_off_c, 9, 36, 64
17, 47040, Note_on_c, 9, 57, 64
17, 47040, Note_on_c, 9, 40, 124
17, 47280, Note_off_c, 9, 40, 64
17, 47280, Note_off_c, 9, 57, 64
17, 47280, Note_on_c, 9, 36, 87
17, 47520, Note_off_c, 9, 36, 64
17, 47520, Note_on_c, 9, 49, 63
17, 47520, Note_on_c, 9, 40, 127
17, 47760, Note_off_c, 9, 40, 64
17, 47760, Note_off_c, 9, 49, 64
17, 47760, Note_on_c, 9, 36, 83
17, 48000, Note_off_c, 9, 36, 64
17, 48000, Note_on_c, 9, 36, 88
17, 48000, Note_on_c, 9, 46, 49
17, 48480, Note_off_c, 9, 46, 64
17, 48480, Note_off_c, 9, 36, 64
17, 48480, Note_on_c, 9, 46, 51
17, 48480, Note_on_c, 9, 40, 123
17, 48720, Note_off_c, 9, 40, 64
17, 48720, Note_off_c, 9, 46, 64
17, 48720, Note_on_c, 9, 36, 89
17, 48960, Note_off_c, 9, 36, 64
17, 48960, Note_on_c, 9, 36, 80
17, 48960, Note_on_c, 9, 46, 56
17, 49440, Note_off_c, 9, 46, 64
17, 49440, Note_off_c, 9, 36, 64
17, 49440, Note_on_c, 9, 46, 50
17, 49440, Note_on_c, 9, 40, 119
17, 49680, Note_off_c, 9, 40, 64
17, 49680, Note_off_c, 9, 46, 64
17, 49680, Note_on_c, 9, 36, 85
17, 49920, Note_off_c, 9, 36, 64
17, 49920, Note_on_c, 9, 36, 85
17, 49920, Note_on_c, 9, 46, 54
17, 50400, Note_off_c, 9, 46, 64
17, 50400, Note_off_c, 9, 36, 64
17, 50400, Note_on_c, 9, 46, 52
17, 50400, Note_on_c, 9, 40, 120
17, 50640, Note_off_c, 9, 40, 64
17, 50640, Note_off_c, 9, 46, 64
17, 50640, Note_on_c, 9, 36, 80
17, 50880, Note_off_c, 9, 36, 64
17, 50880, Note_on_c, 9, 36, 81
17, 50880, Note_on_c, 9, 46, 49
17, 51360, Note_off_c, 9, 46, 64
17, 51360, Note_off_c, 9, 36, 64
17, 51360, Note_on_c, 9, 46, 51
17, 51360, Note_on_c, 9, 40, 124
17, 51840, Note_off_c, 9, 40, 64
17, 51840, Note_off_c, 9, 46, 64
17, 51840, Note_on_c, 9, 35, 89
17, 51840, Note_on_c, 9, 46, 49
17, 52320, Note_off_c, 9, 46, 64
17, 52320, Note_off_c, 9, 35, 64
17, 52320, Note_on_c, 9, 46, 53
17, 52320, Note_on_c, 9, 40, 124
17, 52560, Note_off_c, 9, 40, 64
17, 52560, Note_off_c, 9, 46, 64
17, 52560, Note_on_c, 9, 36, 83
17, 52800, Note_off_c, 9, 36, 64
17, 52800, Note_on_c, 9, 36, 88
17, 52800, Note_on_c, 9, 46, 50
17, 53280, Note_off_c, 9, 46, 64
17, 53280, Note_off_c, 9, 36, 64
17, 53280, Note_on_c, 9, 46, 50
17, 53280, Note_on_c, 9, 40, 125
17, 53520, Note_off_c, 9, 40, 64
17, 53520, Note_off_c, 9, 46, 64
17, 53520, Note_on_c, 9, 36, 83
17, 53760, Note_off_c, 9, 36, 64
17, 53760, Note_on_c, 9, 36, 83
17, 53760, Note_on_c, 9, 46, 50
17, 54240, Note_off_c, 9, 46, 64
17, 54240, Note_off_c, 9, 36, 64
17, 54240, Note_on_c, 9, 46, 53
17, 54240, Note_on_c, 9, 40, 127
17, 54480, Note_off_c, 9, 40, 64
17, 54480, Note_off_c, 9, 46, 64
17, 54480, Note_on_c, 9, 36, 86
17, 54720, Note_off_c, 9, 36, 64
17, 54720, Note_on_c, 9, 36, 85
17, 54720, Note_on_c, 9, 46, 49
17, 55200, Note_off_c, 9, 46, 64
17, 55200, Note_off_c, 9, 36, 64
17, 55200, Note_on_c, 9, 46, 53
17, 55200, Note_on_c, 9, 40, 127
17, 55440, Note_off_c, 9, 40, 64
17, 55440, Note_off_c, 9, 46, 64
17, 55440, Note_on_c, 9, 36, 85
17, 55680, Note_off_c, 9, 36, 64
17, 55680, Note_on_c, 9, 36, 80
17, 55680, Note_on_c, 9, 46, 53
17, 56160, Note_off_c, 9, 46, 64
17, 56160, Note_off_c, 9, 36, 64
17, 56160, Note_on_c, 9, 46, 55
17, 56160, Note_on_c, 9, 40, 127
17, 56400, Note_off_c, 9, 40, 64
17, 56400, Note_off_c, 9, 46, 64
17, 56400, Note_on_c, 9, 36, 89
17, 56640, Note_off_c, 9, 36, 64
17, 56640, Note_on_c, 9, 36, 86
17, 56640, Note_on_c, 9, 46, 49
17, 57120, Note_off_c, 9, 46, 64
17, 57120, Note_off_c, 9, 36, 64
17, 57120, Note_on_c, 9, 46, 51
17, 57120, Note_on_c, 9, 40, 125
17, 57360, Note_off_c, 9, 40, 64
17, 57360, Note_off_c, 9, 46, 64
17, 57360, Note_on_c, 9, 36, 82
17, 57600, Note_off_c, 9, 36, 64
17, 57600, Note_on_c, 9, 36, 80
17, 57600, Note_on_c, 9, 46, 52
17, 58080, Note_off_c, 9, 46, 64
17, 58080, Note_off_c, 9, 36, 64
17, 58080, Note_on_c, 9, 46, 54
17, 58080, Note_on_c, 9, 40, 125
17, 58320, Note_off_c, 9, 40, 64
17, 58320, Note_off_c, 9, 46, 64
17, 58320, Note_on_c, 9, 36, 86
17, 58560, Note_off_c, 9, 36, 64
17, 58560, Note_on_c, 9, 36, 88
17, 58560, Note_on_c, 9, 46, 53
17, 59040, Note_off_c, 9, 46, 64
17, 59040, Note_off_c, 9, 36, 64
17, 59040, Note_on_c, 9, 46, 53
17, 59040, Note_on_c, 9, 40, 119
17, 59520, Note_off_c, 9, 40, 64
17, 59520, Note_off_c, 9, 46, 64
17, 59520, Note_on_c, 9, 36, 80
17, 59520, Note_on_c, 9, 46, 56
17, 60000, Note_off_c, 9, 46, 64
17, 60000, Note_off_c, 9, 36, 64
17, 60000, Note_on_c, 9, 46, 56
17, 60000, Note_on_c, 9, 40, 127
17, 60240, Note_off_c, 9, 40, 64
17, 60240, Note_off_c, 9, 46, 64
17, 60240, Note_on_c, 9, 36, 85
17, 60480, Note_off_c, 9, 36, 64
17, 60480, Note_on_c, 9, 36, 84
17, 60480, Note_on_c, 9, 46, 54
17, 60960, Note_off_c, 9, 46, 64
17, 60960, Note_off_c, 9, 36, 64
17, 60960, Note_on_c, 9, 46, 53
17, 60960, Note_on_c, 9, 40, 122
17, 61200, Note_off_c, 9, 40, 64
17, 61200, Note_off_c, 9, 46, 64
17, 61200, Note_on_c, 9, 36, 83
17, 61440, Note_off_c, 9, 36, 64
17, 61440, Note_on_c, 9, 36, 81
17, 61440, Note_on_c, 9, 46, 56
17, 61680, Note_off_c, 9, 46, 64
17, 61680, Note_off_c, 9, 36, 64
17, 61680, Note_on_c, 9, 40, 122
17, 61800, Note_off_c, 9, 40, 64
17, 61920, Note_on_c, 9, 46, 54
17, 62040, Note_off_c, 9, 46, 64
17, 62040, Note_on_c, 9, 46, 53
17, 62160, Note_off_c, 9, 46, 64
17, 62160, Note_on_c, 9, 36, 88
17, 62400, Note_off_c, 9, 36, 64
17, 62400, Note_on_c, 9, 49, 58
17, 62400, Note_on_c, 9, 40, 127
17, 62640, Note_off_c, 9, 40, 64
17, 62640, Note_off_c, 9, 49, 64
17, 62640, Note_on_c, 9, 36, 86
17, 62880, Note_off_c, 9, 36, 64
17, 62880, Note_on_c, 9, 49, 59
17, 62880, Note_on_c, 9, 40, 121
17, 63360, Note_off_c, 9, 40, 64
17, 63360, Note_off_c, 9, 49, 64
17, 63360, Note_on_c, 9, 36, 84
17, 63360, Note_on_c, 9, 46, 53
17, 63840, Note_off_c, 9, 46, 64
17, 63840, Note_off_c, 9, 36, 64
17, 63840, Note_on_c, 9, 46, 53
17, 63840, Note_on_c, 9, 40, 119
17, 64080, Note_off_c, 9, 40, 64
17, 64080, Note_off_c, 9, 46, 64
17, 64080, Note_on_c, 9, 36, 83
17, 64320, Note_off_c, 9, 36, 64
17, 64320, Note_on_c, 9, 36, 80
17, 64320, Note_on_c, 9, 46, 54
17, 64800, Note_off_c, 9, 46, 64
17, 64800, Note_off_c, 9, 36, 64
17, 64800, Note_on_c, 9, 46, 52
17, 64800, Note_on_c, 9, 40, 123
17, 65040, Note_off_c, 9, 40, 64
17, 65040, Note_off_c, 9, 46, 64
17, 65040, Note_on_c, 9, 36, 85
17, 65280, Note_off_c, 9, 36, 64
17, 65280, Note_on_c, 9, 36, 81
17, 65280, Note_on_c, 9, 46, 54
17, 65760, Note_off_c, 9, 46, 64
17, 65760, Note_off_c, 9, 36, 64
17, 65760, Note_on_c, 9, 46, 50
17, 65760, Note_on_c, 9, 40, 122
17, 66000, Note_off_c, 9, 40, 64
17, 66000, Note_off_c, 9, 46, 64
17, 66000, Note_on_c, 9, 36, 80
17, 66240, Note_off_c, 9, 36, 64
17, 66240, Note_on_c, 9, 36, 85
17, 66240, Note_on_c, 9, 46, 54
17, 66720, Note_off_c, 9, 46, 64
17, 66720, Note_off_c, 9, 36, 64
17, 66720, Note_on_c, 9, 46, 50
17, 66720, Note_on_c, 9, 40, 120
17, 67200, Note_off_c, 9, 40, 64
17, 67200, Note_off_c, 9, 46, 64
17, 67200, Note_on_c, 9, 36, 89
17, 67200, Note_on_c, 9, 46, 53
17, 67680, Note_off_c, 9, 46, 64
17, 67680, Note_off_c, 9, 36, 64
17, 67680, Note_on_c, 9, 46, 52
17, 67680, Note_on_c, 9, 40, 127
17, 67920, Note_off_c, 9, 40, 64
17, 67920, Note_off_c, 9, 46, 64
17, 67920, Note_on_c, 9, 36, 84
17, 68160, Note_off_c, 9, 36, 64
17, 68160, Note_on_c, 9, 36, 89
17, 68160, Note_on_c, 9, 46, 54
17, 68640, Note_off_c, 9, 46, 64
17, 68640, Note_off_c, 9, 36, 64
17, 68640, Note_on_c, 9, 46, 54
17, 68640, Note_on_c, 9, 40, 119
17, 68880, Note_off_c, 9, 40, 64
17, 68880, Note_off_c, 9, 46, 64
17, 68880, Note_on_c, 9, 36, 85
17, 69120, Note_off_c, 9, 36, 64
17, 69120, Note_on_c, 9, 36, 89
17, 69120, Note_on_c, 9, 46, 49
17, 69600, Note_off_c, 9, 46, 64
17, 69600, Note_off_c, 9, 36, 64
17, 69600, Note_on_c, 9, 46, 55
17, 69600, Note_on_c, 9, 40, 121
17, 69840, Note_off_c, 9, 40, 64
17, 69840, Note_off_c, 9, 46, 64
17, 69840, Note_on_c, 9, 36, 80
17, 70080, Note_off_c, 9, 36, 64
17, 70080, Note_on_c, 9, 36, 88
17, 70080, Note_on_c, 9, 46, 55
17, 70320, Note_off_c, 9, 46, 64
17, 70320, Note_off_c, 9, 36, 64
17, 70320, Note_on_c, 9, 36, 82
17, 70560, Note_off_c, 9, 36, 64
17, 70560, Note_on_c, 9, 46, 55
17, 70560, Note_on_c, 9, 40, 121
17, 70800, Note_off_c, 9, 40, 64
17, 70800, Note_off_c, 9, 46, 64
17, 70800, Note_on_c, 9, 36, 87
17, 71040, Note_off_c, 9, 36, 64
17, 71040, Note_on_c, 9, 36, 85
17, 71040, Note_on_c, 9, 46, 50
17, 71520, Note_off_c, 9, 46, 64
17, 71520, Note_off_c, 9, 36, 64
17, 71520, Note_on_c, 9, 46, 49
17, 71520, Note_on_c, 9, 40, 123
17, 71760, Note_off_c, 9, 40, 64
17, 71760, Note_off_c, 9, 46, 64
17, 71760, Note_on_c, 9, 36, 81
17, 72000, Note_off_c, 9, 36, 64
17, 72000, Note_on_c, 9, 36, 81
17, 72000, Note_on_c, 9, 46, 49
17, 72480, Note_off_c, 9, 46, 64
17, 72480, Note_off_c, 9, 36, 64
17, 72480, Note_on_c, 9, 46, 54
17, 72480, Note_on_c, 9, 40, 124
17, 72720, Note_off_c, 9, 40, 64
17, 72720, Note_off_c, 9, 46, 64
17, 72720, Note_on_c, 9, 36, 89
17, 72960, Note_off_c, 9, 36, 64
17, 72960, Note_on_c, 9, 36, 85
17, 72960, Note_on_c, 9, 46, 55
17, 73440, Note_off_c, 9, 46, 64
17, 73440, Note_off_c, 9, 36, 64
17, 73440, Note_on_c, 9, 46, 56
17, 73440, Note_on_c, 9, 40, 125
17, 73680, Note_off_c, 9, 40, 64
17, 73680, Note_off_c, 9, 46, 64
17, 73680, Note_on_c, 9, 36, 81
17, 73920, Note_off_c, 9, 36, 64
17, 73920, Note_on_c, 9, 36, 84
17, 73920, Note_on_c, 9, 46, 56
17, 74400, Note_off_c, 9, 46, 64
17, 74400, Note_off_c, 9, 36, 64
17, 74400, Note_on_c, 9, 46, 50
17, 74400, Note_on_c, 9, 40, 123
17, 74880, Note_off_c, 9, 40, 64
17, 74880, Note_off_c, 9, 46, 64
17, 74880, Note_on_c, 9, 36, 80
17, 74880, Note_on_c, 9, 46, 53
17, 75360, Note_off_c, 9, 46, 64
17, 75360, Note_off_c, 9, 36, 64
17, 75360, Note_on_c, 9, 46, 52
17, 75360, Note_on_c, 9, 40, 125
17, 75600, Note_off_c, 9, 40, 64
17, 75600, Note_off_c, 9, 46, 64
17, 75600, Note_on_c, 9, 36, 88
17, 75840, Note_off_c, 9, 36, 64
17, 75840, Note_on_c, 9, 36, 83
17, 75840, Note_on_c, 9, 46, 55
17, 76320, Note_off_c, 9, 46, 64
17, 76320, Note_off_c, 9, 36, 64
17, 76320, Note_on_c, 9, 46, 56
17, 76320, Note_on_c, 9, 40, 119
17, 76800, Note_off_c, 9, 40, 64
17, 76800, Note_off_c, 9, 46, 64
17, 76800, Note_on_c, 9, 36, 81
17, 76800, Note_on_c, 9, 46, 53
17, 77040, Note_off_c, 9, 46, 64
17, 77040, Note_off_c, 9, 36, 64
17, 77040, Note_on_c, 9, 40, 127
17, 77160, Note_off_c, 9, 40, 64
17, 77160, Note_on_c, 9, 46, 39
17, 77280, Note_off_c, 9, 46, 64
17, 77280, Note_on_c, 9, 46, 54
17, 77400, Note_off_c, 9, 46, 64
17, 77400, Note_on_c, 9, 46, 50
17, 77520, Note_off_c, 9, 46, 64
17, 77520, Note_on_c, 9, 36, 89
17, 77520, Note_on_c, 9, 46, 50
17, 77760, Note_off_c, 9, 46, 64
17, 77760, Note_off_c, 9, 36, 64
17, 77760, Note_on_c, 9, 49, 70
17, 77760, Note_on_c, 9, 40, 127
17, 78000, Note_off_c, 9, 40, 64
17, 78000, Note_off_c, 9, 49, 64
17, 78000, Note_on_c, 9, 36, 84
17, 78240, Note_off_c, 9, 36, 64
17, 78240, Note_on_c, 9, 49, 68
17, 78240, Note_on_c, 9, 40, 127
17, 78720, Note_off_c, 9, 40, 64
17, 78720, Note_off_c, 9, 49, 64
17, 78720, Note_on_c, 9, 36, 83
17, 78720, Note_on_c, 9, 57, 64
17, 79200, Note_off_c, 9, 57, 64
17, 79200, Note_off_c, 9, 36, 64
17, 79200, Note_on_c, 9, 40, 125
17, 79440, Note_off_c, 9, 40, 64
17, 79440, Note_on_c, 9, 36, 85
17, 79440, Note_on_c, 9, 49, 58
17, 79920, Note_off_c, 9, 49, 64
17, 79920, Note_off_c, 9, 36, 64
17, 79920, Note_on_c, 9, 42, 69
17, 80160, Note_off_c, 9, 42, 64
17, 80160, Note_on_c, 9, 42, 62
17, 80160, Note_on_c, 9, 40, 95
17, 80400, Note_off_c, 9, 40, 64
17, 80400, Note_off_c, 9, 42, 64
17, 80400, Note_on_c, 9, 42, 64
17, 80640, Note_off_c, 9, 42, 64
17, 80640, Note_on_c, 9, 36, 85
17, 80640, Note_on_c, 9, 57, 54
17, 81120, Note_off_c, 9, 57, 64
17, 81120, Note_off_c, 9, 36, 64
17, 81120, Note_on_c, 9, 40, 127
17, 81360, Note_off_c, 9, 40, 64
17, 81360, Note_on_c, 9, 36, 83
17, 81360, Note_on_c, 9, 49, 65
17, 81840, Note_off_c, 9, 49, 64
17, 81840, Note_off_c, 9, 36, 64
17, 81840, Note_on_c, 9, 36, 87
17, 81840, Note_on_c, 9, 42, 71
17, 82080, Note_off_c, 9, 42, 64
17, 82080, Note_off_c, 9, 36, 64
17, 82080, Note_on_c, 9, 36, 81
17, 82080, Note_on_c, 9, 42, 65
17, 82080, Note_on_c, 9, 40, 97
17, 82320, Note_off_c, 9, 40, 64
17, 82320, Note_off_c, 9, 42, 64
17, 82320, Note_off_c, 9, 36, 64
17, 82320, Note_on_c, 9, 36, 86
17, 82320, Note_on_c, 9, 42, 76
17, 82560, Note_off_c, 9, 42, 64
17, 82560, Note_off_c, 9, 36, 64
17, 82560, Note_on_c, 9, 36, 89
17, 82560, Note_on_c, 9, 49, 60
17, 83040, Note_off_c, 9, 49, 64
17, 83040, Note_off_c, 9, 36, 64
17, 83040, Note_on_c, 9, 42, 69
17, 83040, Note_on_c, 9, 40, 120
17, 83280, Note_off_c, 9, 40, 64
17, 83280, Note_off_c, 9, 42, 64
17, 83280, Note_on_c, 9, 36, 83
17, 83280, Note_on_c, 9, 42, 72
17, 83520, Note_off_c, 9, 42, 64
17, 83520, Note_off_c, 9, 36, 64
17, 83520, Note_on_c, 9, 36, 87
17, 83520, Note_on_c, 9, 42, 73
17, 83760, Note_off_c, 9, 42, 64
17, 83760, Note_off_c, 9, 36, 64
17, 83760, Note_on_c, 9, 42, 74
17, 84000, Note_off_c, 9, 42, 64
17, 84000, Note_on_c, 9, 42, 66
17, 84000, Note_on_c, 9, 40, 121
17, 84240, Note_off_c, 9, 40, 64
17, 84240, Note_off_c, 9, 42, 64
17, 84240, Note_on_c, 9, 36, 82
17, 84240, Note_on_c, 9, 42, 73
17, 84480, Note_off_c, 9, 42, 64
17, 84480, Note_off_c, 9, 36, 64
17, 84480, Note_on_c, 9, 36, 87
17, 84480, Note_on_c, 9, 42, 73
17, 84720, Note_off_c, 9, 42, 64
17, 84720, Note_off_c, 9, 36, 64
17, 84720, Note_on_c, 9, 42, 68
17, 84960, Note_off_c, 9, 42, 64
17, 84960, Note_on_c, 9, 42, 72
17, 84960, Note_on_c, 9, 40, 127
17, 85200, Note_off_c, 9, 40, 64
17, 85200, Note_off_c, 9, 42, 64
17, 85200, Note_on_c, 9, 36, 89
17, 85200, Note_on_c, 9, 42, 69
17, 85440, Note_off_c, 9, 42, 64
17, 85440, Note_off_c, 9, 36, 64
17, 85440, Note_on_c, 9, 36, 81
17, 85440, Note_on_c, 9, 42, 65
17, 85680, Note_off_c, 9, 42, 64
17, 85680, Note_off_c, 9, 36, 64
17, 85680, Note_on_c, 9, 42, 71
17, 85920, Note_off_c, 9, 42, 64
17, 85920, Note_on_c, 9, 42, 69
17, 85920, Note_on_c, 9, 40, 125
17, 86160, Note_off_c, 9, 40, 64
17, 86160, Note_off_c, 9, 42, 64
17, 86160, Note_on_c, 9, 42, 72
17, 86400, Note_off_c, 9, 42, 64
17, 86400, Note_on_c, 9, 36, 84
17, 86400, Note_on_c, 9, 57, 64
17, 86880, Note_off_c, 9, 57, 64
17, 86880, Note_off_c, 9, 36, 64
17, 86880, Note_on_c, 9, 40, 124
17, 87120, Note_off_c, 9, 40, 64
17, 87120, Note_on_c, 9, 36, 82
17, 87120, Note_on_c, 9, 49, 68
17, 87600, Note_off_c, 9, 49, 64
17, 87600, Note_off_c, 9, 36, 64
17, 87600, Note_on_c, 9, 36, 89
17, 87600, Note_on_c, 9, 42, 74
17, 87840, Note_off_c, 9, 42, 64
17, 87840, Note_off_c, 9, 36, 64
17, 87840, Note_on_c, 9, 42, 74
17, 87840, Note_on_c, 9, 40, 98
17, 88080, Note_off_c, 9, 40, 64
17, 88080, Note_off_c, 9, 42, 64
17, 88080, Note_on_c, 9, 42, 71
17, 88320, Note_off_c, 9, 42, 64
17, 88320, Note_on_c, 9, 36, 85
17, 88320, Note_on_c, 9, 57, 54
17, 88800, Note_off_c, 9, 57, 64
17, 88800, Note_off_c, 9, 36, 64
17, 88800, Note_on_c, 9, 40, 125
17, 89040, Note_off_c, 9, 40, 64
17, 89040, Note_on_c, 9, 36, 86
17, 89040, Note_on_c, 9, 49, 67
17, 89520, Note_off_c, 9, 49, 64
17, 89520, Note_off_c, 9, 36, 64
17, 89520, Note_on_c, 9, 36, 83
17, 89520, Note_on_c, 9, 42, 70
17, 89760, Note_off_c, 9, 42, 64
17, 89760, Note_off_c, 9, 36, 64
17, 89760, Note_on_c, 9, 36, 88
17, 89760, Note_on_c, 9, 42, 68
17, 89760, Note_on_c, 9, 40, 101
17, 90000, Note_off_c, 9, 40, 64
17, 90000, Note_off_c, 9, 42, 64
17, 90000, Note_off_c, 9, 36, 64
17, 90000, Note_on_c, 9, 36, 80
17, 90000, Note_on_c, 9, 42, 66
17, 90240, Note_off_c, 9, 42, 64
17, 90240, Note_off_c, 9, 36, 64
17, 90240, Note_on_c, 9, 36, 84
17, 90240, Note_on_c, 9, 42, 75
17, 90480, Note_off_c, 9, 42, 64
17, 90480, Note_off_c, 9, 36, 64
17, 90480, Note_on_c, 9, 42, 69
17, 90720, Note_off_c, 9, 42, 64
17, 90720, Note_on_c, 9, 42, 72
17, 90720, Note_on_c, 9, 40, 119
17, 90960, Note_off_c, 9, 40, 64
17, 90960, Note_off_c, 9, 42, 64
17, 90960, Note_on_c, 9, 36, 88
17, 90960, Note_on_c, 9, 42, 74
17, 91200, Note_off_c, 9, 42, 64
17, 91200, Note_off_c, 9, 36, 64
17, 91200, Note_on_c, 9, 36, 89
17, 91200, Note_on_c, 9, 42, 70
17, 91440, Note_off_c, 9, 42, 64
17, 91440, Note_off_c, 9, 36, 64
17, 91440, Note_on_c, 9, 42, 72
17, 91680, Note_off_c, 9, 42, 64
17, 91680, Note_on_c, 9, 42, 68
17, 91680, Note_on_c, 9, 40, 127
17, 91920, Note_off_c, 9, 40, 64
17, 91920, Note_off_c, 9, 42, 64
17, 91920, Note_on_c, 9, 36, 86
17, 91920, Note_on_c, 9, 42, 70
17, 92160, Note_off_c, 9, 42, 64
17, 92160, Note_off_c, 9, 36, 64
17, 92160, Note_on_c, 9, 36, 85
17, 92160, Note_on_c, 9, 42, 67
17, 92400, Note_off_c, 9, 42, 64
17, 92400, Note_off_c, 9, 36, 64
17, 92400, Note_on_c, 9, 42, 73
17, 92640, Note_off_c, 9, 42, 64
17, 92640, Note_on_c, 9, 42, 69
17, 92640, Note_on_c, 9, 40, 125
17, 92880, Note_off_c, 9, 40, 64
17, 92880, Note_off_c, 9, 42, 64
17, 92880, Note_on_c, 9, 36, 80
17, 92880, Note_on_c, 9, 42, 65
17, 93120, Note_off_c, 9, 42, 64
17, 93120, Note_off_c, 9, 36, 64
17, 93120, Note_on_c, 9, 36, 84
17, 93120, Note_on_c, 9, 42, 67
17, 93360, Note_off_c, 9, 42, 64
17, 93360, Note_off_c, 9, 36, 64
17, 93360, Note_on_c, 9, 49, 65
17, 93360, Note_on_c, 9, 40, 122
17, 93600, Note_off_c, 9, 40, 64
17, 93600, Note_off_c, 9, 49, 64
17, 93600, Note_on_c, 9, 49, 71
17, 93600, Note_on_c, 9, 40, 127
17, 94080, Note_off_c, 9, 40, 64
17, 94080, Note_off_c, 9, 49, 64
17, 94080, Note_on_c, 9, 36, 81
17, 94080, Note_on_c, 9, 49, 64
17, 94560, Note_off_c, 9, 49, 64
17, 94560, Note_off_c, 9, 36, 64
17, 94560, Note_on_c, 9, 53, 72
17, 94560, Note_on_c, 9, 40, 119
17, 95040, Note_off_c, 9, 40, 64
17, 95040, Note_off_c, 9, 53, 64
17, 95040, Note_on_c, 9, 36, 86
17, 95040, Note_on_c, 9, 53, 74
17, 95520, Note_off_c, 9, 53, 64
17, 95520, Note_off_c, 9, 36, 64
17, 95520, Note_on_c, 9, 53, 67
17, 95520, Note_on_c, 9, 40, 119
17, 95760, Note_off_c, 9, 40, 64
17, 95760, Note_off_c, 9, 53, 64
17, 95760, Note_on_c, 9, 36, 86
17, 96000, Note_off_c, 9, 36, 64
17, 96000, Note_on_c, 9, 36, 88
17, 96000, Note_on_c, 9, 53, 68
17, 96480, Note_off_c, 9, 53, 64
17, 96480, Note_off_c, 9, 36, 64
17, 96480, Note_on_c, 9, 53, 76
17, 96480, Note_on_c, 9, 40, 119
17, 96960, Note_off_c, 9, 40, 64
17, 96960, Note_off_c, 9, 53, 64
17, 96960, Note_on_c, 9, 36, 84
17, 96960, Note_on_c, 9, 53, 76
17, 97440, Note_off_c, 9, 53, 64
17, 97440, Note_off_c, 9, 36, 64
17, 97440, Note_on_c, 9, 53, 69
17, 97440, Note_on_c, 9, 40, 122
17, 97680, Note_off_c, 9, 40, 64
17, 97680, Note_off_c, 9, 53, 64
17, 97680, Note_on_c, 9, 36, 82
17, 97920, Note_off_c, 9, 36, 64
17, 97920, Note_on_c, 9, 36, 86
17, 97920, Note_on_c, 9, 53, 74
17, 98400, Note_off_c, 9, 53, 64
17, 98400, Note_off_c, 9, 36, 64
17, 98400, Note_on_c, 9, 53, 70
17, 98400, Note_on_c, 9, 40, 121
17, 98880, Note_off_c, 9, 40, 64
17, 98880, Note_off_c, 9, 53, 64
17, 98880, Note_on_c, 9, 36, 82
17, 98880, Note_on_c, 9, 53, 70
17, 99360, Note_off_c, 9, 53, 64
17, 99360, Note_off_c, 9, 36, 64
17, 99360, Note_on_c, 9, 53, 68
17, 99360, Note_on_c, 9, 40, 127
17, 99600, Note_off_c, 9, 40, 64
17, 99600, Note_off_c, 9, 53, 64
17, 99600, Note_on_c, 9, 36, 81
17, 99840, Note_off_c, 9, 36, 64
17, 99840, Note_on_c, 9, 36, 86
17, 99840, Note_on_c, 9, 53, 74
17, 100320, Note_off_c, 9, 53, 64
17, 100320, Note_off_c, 9, 36, 64
17, 100320, Note_on_c, 9, 53, 71
17, 100320, Note_on_c, 9, 40, 121
17, 100560, Note_off_c, 9, 40, 64
17, 100560, Note_off_c, 9, 53, 64
17, 100560, Note_on_c, 9, 36, 87
17, 100800, Note_off_c, 9, 36, 64
17, 100800, Note_on_c, 9, 36, 82
17, 100800, Note_on_c, 9, 53, 71
17, 101280, Note_off_c, 9, 53, 64
17, 101280, Note_off_c, 9, 36, 64
17, 101280, Note_on_c, 9, 53, 72
17, 101280, Note_on_c, 9, 40, 119
17, 101760, Note_off_c, 9, 40, 64
17, 101760, Note_off_c, 9, 53, 64
17, 101760, Note_on_c, 9, 36, 85
17, 101760, Note_on_c, 9, 53, 76
17, 102240, Note_off_c, 9, 53, 64
17, 102240, Note_off_c, 9, 36, 64
17, 102240, Note_on_c, 9, 53, 68
17, 102240, Note_on_c, 9, 40, 127
17, 102480, Note_off_c, 9, 40, 64
17, 102480, Note_off_c, 9, 53, 64
17, 102480, Note_on_c, 9, 36, 88
17, 102720, Note_off_c, 9, 36, 64
17, 102720, Note_on_c, 9, 36, 87
17, 102720, Note_on_c, 9, 53, 75
17, 103200, Note_off_c, 9, 53, 64
17, 103200, Note_off_c, 9, 36, 64
17, 103200, Note_on_c, 9, 53, 75
17, 103200, Note_on_c, 9, 40, 127
17, 103680, Note_off_c, 9, 40, 64
17, 103680, Note_off_c, 9, 53, 64
17, 103680, Note_on_c, 9, 36, 81
17, 103680, Note_on_c, 9, 53, 68
17, 104160, Note_off_c, 9, 53, 64
17, 104160, Note_off_c, 9, 36, 64
17, 104160, Note_on_c, 9, 53, 74
17, 104160, Note_on_c, 9, 40, 125
17, 104400, Note_off_c, 9, 40, 64
17, 104400, Note_off_c, 9, 53, 64
17, 104400, Note_on_c, 9, 36, 81
17, 104640, Note_off_c, 9, 36, 64
17, 104640, Note_on_c, 9, 36, 87
17, 104640, Note_on_c, 9, 53, 76
17, 105120, Note_off_c, 9, 53, 64
17, 105120, Note_off_c, 9, 36, 64
17, 105120, Note_on_c, 9, 53, 76
17, 105120, Note_on_c, 9, 40, 120
17, 105360, Note_off_c, 9, 40, 64
17, 105360, Note_off_c, 9, 53, 64
17, 105360, Note_on_c, 9, 36, 80
17, 105600, Note_off_c, 9, 36, 64
17, 105600, Note_on_c, 9, 36, 89
17, 105600, Note_on_c, 9, 53, 68
17, 106080, Note_off_c, 9, 53, 64
17, 106080, Note_off_c, 9, 36, 64
17, 106080, Note_on_c, 9, 53, 70
17, 106080, Note_on_c, 9, 40, 119
17, 106320, Note_off_c, 9, 40, 64
17, 106320, Note_off_c, 9, 53, 64
17, 106320, Note_on_c, 9, 36, 80
17, 106560, Note_off_c, 9, 36, 64
17, 106560, Note_on_c, 9, 36, 88
17, 106560, Note_on_c, 9, 53, 69
17, 107040, Note_off_c, 9, 53, 64
17, 107040, Note_off_c, 9, 36, 64
17, 107040, Note_on_c, 9, 53, 75
17, 107040, Note_on_c, 9, 40, 122
17, 107520, Note_off_c, 9, 40, 64
17, 107520, Note_off_c, 9, 53, 64
17, 107520, Note_on_c, 9, 36, 84
17, 107520, Note_on_c, 9, 53, 74
17, 107760, Note_off_c, 9, 53, 64
17, 107760, Note_off_c, 9, 36, 64
17, 107760, Note_on_c, 9, 49, 70
17, 107760, Note_on_c, 9, 40, 124
17, 108240, Note_off_c, 9, 40, 64
17, 108240, Note_off_c, 9, 49, 64
17, 108240, Note_on_c, 9, 36, 85
17, 108480, Note_off_c, 9, 36, 64
17, 108480, Note_on_c, 9, 49, 65
17, 108480, Note_on_c, 9, 40, 126
17, 108720, Note_off_c, 9, 40, 64
17, 108720, Note_off_c, 9, 49, 64
17, 108720, Note_on_c, 9, 36, 88
17, 108960, Note_off_c, 9, 36, 64
17, 108960, Note_on_c, 9, 49, 61
17, 108960, Note_on_c, 9, 40, 123
17, 109440, Note_off_c, 9, 40, 64
17, 109440, Note_off_c, 9, 49, 64
17, 109440, Note_on_c, 9, 36, 82
17, 109440, Note_on_c, 9, 46, 51
17, 109920, Note_off_c, 9, 46, 64
17, 109920, Note_off_c, 9, 36, 64
17, 109920, Note_on_c, 9, 46, 56
17, 109920, Note_on_c, 9, 40, 124
17, 110160, Note_off_c, 9, 40, 64
17, 110160, Note_off_c, 9, 46, 64
17, 110160, Note_on_c, 9, 36, 82
17, 110400, Note_off_c, 9, 36, 64
17, 110400, Note_on_c, 9, 36, 83
17, 110400, Note_on_c, 9, 46, 56
17, 110880, Note_off_c, 9, 46, 64
17, 110880, Note_off_c, 9, 36, 64
17, 110880, Note_on_c, 9, 46, 51
17, 110880, Note_on_c, 9, 40, 119
17, 111120, Note_off_c, 9, 40, 64
17, 111120, Note_off_c, 9, 46, 64
17, 111120, Note_on_c, 9, 36, 87
17, 111360, Note_off_c, 9, 36, 64
17, 111360, Note_on_c, 9, 36, 87
17, 111360, Note_on_c, 9, 46, 49
17, 111840, Note_off_c, 9, 46, 64
17, 111840, Note_off_c, 9, 36, 64
17, 111840, Note_on_c, 9, 46, 50
17, 111840, Note_on_c, 9, 40, 121
17, 112080, Note_off_c, 9, 40, 64
17, 112080, Note_off_c, 9, 46, 64
17, 112080, Note_on_c, 9, 36, 89
17, 112320, Note_off_c, 9, 36, 64
17, 112320, Note_on_c, 9, 36, 85
17, 112320, Note_on_c, 9, 46, 53
17, 112800, Note_off_c, 9, 46, 64
17, 112800, Note_off_c, 9, 36, 64
17, 112800, Note_on_c, 9, 46, 55
17, 112800, Note_on_c, 9, 40, 123
17, 113280, Note_off_c, 9, 40, 64
17, 113280, Note_off_c, 9, 46, 64
17, 113280, Note_on_c, 9, 36, 84
17, 113280, Note_on_c, 9, 46, 52
17, 113760, Note_off_c, 9, 46, 64
17, 113760, Note_off_c, 9, 36, 64
17, 113760, Note_on_c, 9, 46, 53
17, 113760, Note_on_c, 9, 40, 120
17, 114000, Note_off_c, 9, 40, 64
17, 114000, Note_off_c, 9, 46, 64
17, 114000, Note_on_c, 9, 36, 88
17, 114240, Note_off_c, 9, 36, 64
17, 114240, Note_on_c, 9, 36, 84
17, 114240, Note_on_c, 9, 46, 51
17, 114720, Note_off_c, 9, 46, 64
17, 114720, Note_off_c, 9, 36, 64
17, 114720, Note_on_c, 9, 46, 52
17, 114720, Note_on_c, 9, 40, 124
17, 114960, Note_off_c, 9, 40, 64
17, 114960, Note_off_c, 9, 46, 64
17, 114960, Note_on_c, 9, 36, 89
17, 115200, Note_off_c, 9, 36, 64
17, 115200, Note_on_c, 9, 36, 87
17, 115200, Note_on_c, 9, 46, 56
17, 115680, Note_off_c, 9, 46, 64
17, 115680, Note_off_c, 9, 36, 64
17, 115680, Note_on_c, 9, 46, 51
17, 115680, Note_on_c, 9, 40, 124
17, 115920, Note_off_c, 9, 40, 64
17, 115920, Note_off_c, 9, 46, 64
17, 115920, Note_on_c, 9, 36, 89
17, 116160, Note_off_c, 9, 36, 64
17, 116160, Note_on_c, 9, 36, 86
17, 116160, Note_on_c, 9, 46, 51
17, 116640, Note_off_c, 9, 46, 64
17, 116640, Note_off_c, 9, 36, 64
17, 116640, Note_on_c, 9, 46, 54
17, 116640, Note_on_c, 9, 40, 119
17, 117120, Note_off_c, 9, 40, 64
17, 117120, Note_off_c, 9, 46, 64
17, 117120, Note_on_c, 9, 36, 84
17, 117120, Note_on_c, 9, 46, 55
17, 117600, Note_off_c, 9, 46, 64
17, 117600, Note_off_c, 9, 36, 64
17, 117600, Note_on_c, 9, 46, 55
17, 117600, Note_on_c, 9, 40, 125
17, 117840, Note_off_c, 9, 40, 64
17, 117840, Note_off_c, 9, 46, 64
17, 117840, Note_on_c, 9, 36, 88
17, 118080, Note_off_c, 9, 36, 64
17, 118080, Note_on_c, 9, 36, 87
17, 118080, Note_on_c, 9, 46, 49
17, 118560, Note_off_c, 9, 46, 64
17, 118560, Note_off_c, 9, 36, 64
17, 118560, Note_on_c, 9, 46, 53
17, 118560, Note_on_c, 9, 40, 119
17, 119040, Note_off_c, 9, 40, 64
17, 119040, Note_off_c, 9, 46, 64
17, 119040, Note_on_c, 9, 36, 80
17, 119040, Note_on_c, 9, 46, 52
17, 119520, Note_off_c, 9, 46, 64
17, 119520, Note_off_c, 9, 36, 64
17, 119520, Note_on_c, 9, 46, 50
17, 119520, Note_on_c, 9, 40, 119
17, 119760, Note_off_c, 9, 40, 64
17, 119760, Note_off_c, 9, 46, 64
17, 119760, Note_on_c, 9, 36, 83
17, 120000, Note_off_c, 9, 36, 64
17, 120000, Note_on_c, 9, 36, 87
17, 120000, Note_on_c, 9, 46, 50
17, 120480, Note_off_c, 9, 46, 64
17, 120480, Note_off_c, 9, 36, 64
17, 120480, Note_on_c, 9, 46, 54
17, 120480, Note_on_c, 9, 40, 126
17, 120960, Note_off_c, 9, 40, 64
17, 120960, Note_off_c, 9, 46, 64
17, 120960, Note_on_c, 9, 36, 80
17, 120960, Note_on_c, 9, 46, 53
17, 121440, Note_off_c, 9, 46, 64
17, 121440, Note_off_c, 9, 36, 64
17, 121440, Note_on_c, 9, 46, 56
17, 121440, Note_on_c, 9, 40, 127
17, 121680, Note_off_c, 9, 40, 64
17, 121680, Note_off_c, 9, 46, 64
17, 121680, Note_on_c, 9, 36, 88
17, 121920, Note_off_c, 9, 36, 64
17, 121920, Note_on_c, 9, 36, 82
17, 121920, Note_on_c, 9, 46, 54
17, 122400, Note_off_c, 9, 46, 64
17, 122400, Note_off_c, 9, 36, 64
17, 122400, Note_on_c, 9, 46, 53
17, 122400, Note_on_c, 9, 40, 124
17, 122640, Note_off_c, 9, 40, 64
17, 122640, Note_off_c, 9, 46, 64
17, 122640, Note_on_c, 9, 36, 81
17, 122880, Note_off_c, 9, 36, 64
17, 122880, Note_on_c, 9, 36, 80
17, 122880, Note_on_c, 9, 46, 52
17, 123120, Note_off_c, 9, 46, 64
17, 123120, Note_off_c, 9, 36, 64
17, 123120, Note_on_c, 9, 40, 124
17, 123360, Note_off_c, 9, 40, 64
17, 123360, Note_on_c, 9, 46, 51
17, 123480, Note_off_c, 9, 46, 64
17, 123480, Note_on_c, 9, 46, 53
17, 123600, Note_off_c, 9, 46, 64
17, 123600, Note_on_c, 9, 36, 88
17, 123840, Note_off_c, 9, 36, 64
17, 123840, Note_on_c, 9, 49, 70
17, 123840, Note_on_c, 9, 40, 121
17, 124080, Note_off_c, 9, 40, 64
17, 124080, Note_off_c, 9, 49, 64
17, 124080, Note_on_c, 9, 36, 84
17, 124320, Note_off_c, 9, 36, 64
17, 124320, Note_on_c, 9, 49, 66
17, 124320, Note_on_c, 9, 40, 124
17, 124440, Note_off_c, 9, 40, 64
17, 124440, Note_off_c, 9, 49, 64
17, 124560, Note_on_c, 9, 36, 84
17, 124800, Note_on_c, 9, 36, 88
17, 124800, Note_on_c, 9, 46, 51
17, 124920, Note_off_c, 9, 36, 64
17, 125280, Note_off_c, 9, 36, 64
17, 125280, Note_off_c, 9, 46, 64
17, 125280, Note_on_c, 9, 46, 55
17, 125280, Note_on_c, 9, 40, 119
17, 125520, Note_off_c, 9, 40, 64
17, 125520, Note_off_c, 9, 46, 64
17, 125520, Note_on_c, 9, 36, 89
17, 125760, Note_off_c, 9, 36, 64
17, 125760, Note_on_c, 9, 36, 80
17, 125760, Note_on_c, 9, 46, 55
17, 126240, Note_off_c, 9, 46, 64
17, 126240, Note_off_c, 9, 36, 64
17, 126240, Note_on_c, 9, 46, 52
17, 126240, Note_on_c, 9, 40, 127
17, 126480, Note_off_c, 9, 40, 64
17, 126480, Note_off_c, 9, 46, 64
17, 126480, Note_on_c, 9, 36, 86
17, 126720, Note_off_c, 9, 36, 64
17, 126720, Note_on_c, 9, 36, 80
17, 126720, Note_on_c, 9, 46, 54
17, 127200, Note_off_c, 9, 46, 64
17, 127200, Note_off_c, 9, 36, 64
17, 127200, Note_on_c, 9, 46, 49
17, 127200, Note_on_c, 9, 40, 127
17, 127440, Note_off_c, 9, 40, 64
17, 127440, Note_off_c, 9, 46, 64
17, 127440, Note_on_c, 9, 36, 88
17, 127680, Note_off_c, 9, 36, 64
17, 127680, Note_on_c, 9, 36, 89
17, 127680, Note_on_c, 9, 46, 56
17, 128160, Note_off_c, 9, 46, 64
17, 128160, Note_off_c, 9, 36, 64
17, 128160, Note_on_c, 9, 46, 50
17, 128160, Note_on_c, 9, 40, 121
17, 128640, Note_off_c, 9, 40, 64
17, 128640, Note_off_c, 9, 46, 64
17, 128640, Note_on_c, 9, 36, 85
17, 128640, Note_on_c, 9, 46, 52
17, 129120, Note_off_c, 9, 46, 64
17, 129120, Note_off_c, 9, 36, 64
17, 129120, Note_on_c, 9, 46, 55
17, 129120, Note_on_c, 9, 40, 125
17, 129600, Note_off_c, 9, 40, 64
17, 129600, Note_off_c, 9, 46, 64
17, 129600, Note_on_c, 9, 36, 88
17, 129600, Note_on_c, 9, 46, 55
17, 130080, Note_off_c, 9, 46, 64
17, 130080, Note_off_c, 9, 36, 64
17, 130080, Note_on_c, 9, 46, 51
17, 130080, Note_on_c, 9, 40, 120
17, 130320, Note_off_c, 9, 40, 64
17, 130320, Note_off_c, 9, 46, 64
17, 130320, Note_on_c, 9, 36, 83
17, 130560, Note_off_c, 9, 36, 64
17, 130560, Note_on_c, 9, 36, 82
17, 130560, Note_on_c, 9, 46, 56
17, 131040, Note_off_c, 9, 46, 64
17, 131040, Note_off_c, 9, 36, 64
17, 131040, Note_on_c, 9, 46, 53
17, 131040, Note_on_c, 9, 40, 120
17, 131280, Note_off_c, 9, 40, 64
17, 131280, Note_off_c, 9, 46, 64
17, 131280, Note_on_c, 9, 36, 84
17, 131520, Note_off_c, 9, 36, 64
17, 131520, Note_on_c, 9, 36, 80
17, 131520, Note_on_c, 9, 46, 52
17, 131760, Note_off_c, 9, 46, 64
17, 131760, Note_off_c, 9, 36, 64
17, 131760, Note_on_c, 9, 36, 84
17, 132000, Note_off_c, 9, 36, 64
17, 132000, Note_on_c, 9, 46, 55
17, 132000, Note_on_c, 9, 40, 123
17, 132240, Note_off_c, 9, 40, 64
17, 132240, Note_off_c, 9, 46, 64
17, 132240, Note_on_c, 9, 36, 87
17, 132480, Note_off_c, 9, 36, 64
17, 132480, Note_on_c, 9, 36, 81
17, 132480, Note_on_c, 9, 46, 50
17, 132960, Note_off_c, 9, 46, 64
17, 132960, Note_off_c, 9, 36, 64
17, 132960, Note_on_c, 9, 46, 56
17, 132960, Note_on_c, 9, 40, 125
17, 133200, Note_off_c, 9, 40, 64
17, 133200, Note_off_c, 9, 46, 64
17, 133200, Note_on_c, 9, 36, 89
17, 133440, Note_off_c, 9, 36, 64
17, 133440, Note_on_c, 9, 36, 85
17, 133440, Note_on_c, 9, 46, 52
17, 133920, Note_off_c, 9, 46, 64
17, 133920, Note_off_c, 9, 36, 64
17, 133920, Note_on_c, 9, 46, 52
17, 133920, Note_on_c, 9, 40, 119
17, 134400, Note_off_c, 9, 40, 64
17, 134400, Note_off_c, 9, 46, 64
17, 134400, Note_on_c, 9, 36, 80
17, 134400, Note_on_c, 9, 46, 52
17, 134880, Note_off_c, 9, 46, 64
17, 134880, Note_off_c, 9, 36, 64
17, 134880, Note_on_c, 9, 46, 53
17, 134880, Note_on_c, 9, 40, 124
17, 135120, Note_off_c, 9, 40, 64
17, 135120, Note_off_c, 9, 46, 64
17, 135120, Note_on_c, 9, 36, 89
17, 135360, Note_off_c, 9, 36, 64
17, 135360, Note_on_c, 9, 36, 87
17, 135360, Note_on_c, 9, 46, 51
17, 135840, Note_off_c, 9, 46, 64
17, 135840, Note_off_c, 9, 36, 64
17, 135840, Note_on_c, 9, 46, 50
17, 135840, Note_on_c, 9, 40, 123
17, 136320, Note_off_c, 9, 40, 64
17, 136320, Note_off_c, 9, 46, 64
17, 136320, Note_on_c, 9, 36, 87
17, 136320, Note_on_c, 9, 46, 50
17, 136800, Note_off_c, 9, 46, 64
17, 136800, Note_off_c, 9, 36, 64
17, 136800, Note_on_c, 9, 46, 51
17, 136800, Note_on_c, 9, 40, 119
17, 137040, Note_on_c, 9, 36, 83
17, 137280, Note_off_c, 9, 36, 64
17, 137280, Note_off_c, 9, 40, 64
17, 137280, Note_off_c, 9, 46, 64
17, 137280, Note_on_c, 9, 36, 84
17, 137280, Note_on_c, 9, 46, 54
17, 137520, Note_off_c, 9, 46, 64
17, 137520, Note_off_c, 9, 36, 64
17, 137760, Note_on_c, 9, 46, 49
17, 137760, Note_on_c, 9, 40, 120
17, 138240, Note_off_c, 9, 40, 64
17, 138240, Note_off_c, 9, 46, 64
17, 138240, Note_on_c, 9, 36, 86
17, 138240, Note_on_c, 9, 46, 56
17, 138360, Note_off_c, 9, 46, 64
17, 138480, Note_off_c, 9, 36, 64
17, 138480, Note_on_c, 9, 49, 45
17, 138480, Note_on_c, 9, 40, 122
17, 138960, Note_off_c, 9, 40, 64
17, 138960, Note_off_c, 9, 49, 64
17, 138960, Note_on_c, 9, 36, 83
17, 139200, Note_off_c, 9, 36, 64
17, 139200, Note_on_c, 9, 49, 57
17, 139200, Note_on_c, 9, 40, 127
17, 139440, Note_off_c, 9, 40, 64
17, 139440, Note_off_c, 9, 49, 64
17, 139440, Note_on_c, 9, 36, 82
17, 139680, Note_off_c, 9, 36, 64
17, 139680, Note_on_c, 9, 49, 70
17, 139680, Note_on_c, 9, 40, 127
17, 140160, Note_off_c, 9, 40, 64
17, 140160, Note_off_c, 9, 49, 64
17, 140160, Note_on_c, 9, 36, 87
17, 140160, Note_on_c, 9, 49, 52
17, 140640, Note_off_c, 9, 49, 64
17, 140640, Note_off_c, 9, 36, 64
17, 140640, Note_on_c, 9, 40, 121
17, 140880, Note_off_c, 9, 40, 64
17, 140880, Note_on_c, 9, 36, 88
17, 140880, Note_on_c, 9, 49, 61
17, 141360, Note_off_c, 9, 49, 64
17, 141360, Note_off_c, 9, 36, 64
17, 141360, Note_on_c, 9, 42, 67
17, 141600, Note_off_c, 9, 42, 64
17, 141600, Note_on_c, 9, 42, 75
17, 141600, Note_on_c, 9, 40, 105
17, 141840, Note_off_c, 9, 40, 64
17, 141840, Note_off_c, 9, 42, 64
17, 141840, Note_on_c, 9, 36, 85
17, 141840, Note_on_c, 9, 42, 66
17, 142080, Note_off_c, 9, 42, 64
17, 142080, Note_off_c, 9, 36, 64
17, 142080, Note_on_c, 9, 36, 89
17, 142080, Note_on_c, 9, 49, 60
17, 142560, Note_off_c, 9, 49, 64
17, 142560, Note_off_c, 9, 36, 64
17, 142560, Note_on_c, 9, 40, 122
17, 142800, Note_off_c, 9, 40, 64
17, 142800, Note_on_c, 9, 36, 84
17, 142800, Note_on_c, 9, 49, 67
17, 143280, Note_off_c, 9, 49, 64
17, 143280, Note_off_c, 9, 36, 64
17, 143280, Note_on_c, 9, 42, 76
17, 143520, Note_off_c, 9, 42, 64
17, 143520, Note_on_c, 9, 42, 67
17, 143520, Note_on_c, 9, 40, 95
17, 143760, Note_off_c, 9, 40, 64
17, 143760, Note_off_c, 9, 42, 64
17, 143760, Note_on_c, 9, 42, 70
17, 144000, Note_off_c, 9, 42, 64
17, 144000, Note_on_c, 9, 36, 81
17, 144000, Note_on_c, 9, 49, 71
17, 144480, Note_off_c, 9, 49, 64
17, 144480, Note_off_c, 9, 36, 64
17, 144480, Note_on_c, 9, 42, 70
17, 144480, Note_on_c, 9, 40, 121
17, 144720, Note_off_c, 9, 40, 64
17, 144720, Note_off_c, 9, 42, 64
17, 144720, Note_on_c, 9, 36, 82
17, 144720, Note_on_c, 9, 42, 69
17, 144960, Note_off_c, 9, 42, 64
17, 144960, Note_off_c, 9, 36, 64
17, 144960, Note_on_c, 9, 36, 84
17, 144960, Note_on_c, 9, 42, 65
17, 145200, Note_off_c, 9, 42, 64
17, 145200, Note_off_c, 9, 36, 64
17, 145200, Note_on_c, 9, 42, 67
17, 145440, Note_off_c, 9, 42, 64
17, 145440, Note_on_c, 9, 42, 70
17, 145440, Note_on_c, 9, 40, 124
17, 145680, Note_off_c, 9, 40, 64
17, 145680, Note_off_c, 9, 42, 64
17, 145680, Note_on_c, 9, 36, 80
17, 145680, Note_on_c, 9, 42, 71
17, 145920, Note_off_c, 9, 42, 64
17, 145920, Note_off_c, 9, 36, 64
17, 145920, Note_on_c, 9, 36, 83
17, 145920, Note_on_c, 9, 42, 75
17, 146160, Note_off_c, 9, 42, 64
17, 146160, Note_off_c, 9, 36, 64
17, 146160, Note_on_c, 9, 42, 68
17, 146400, Note_off_c, 9, 42, 64
17, 146400, Note_on_c, 9, 42, 69
17, 146400, Note_on_c, 9, 40, 121
17, 146640, Note_off_c, 9, 40, 64
17, 146640, Note_off_c, 9, 42, 64
17, 146640, Note_on_c, 9, 36, 84
17, 146640, Note_on_c, 9, 42, 66
17, 146880, Note_off_c, 9, 42, 64
17, 146880, Note_off_c, 9, 36, 64
17, 146880, Note_on_c, 9, 36, 88
17, 146880, Note_on_c, 9, 42, 74
17, 147120, Note_off_c, 9, 42, 64
17, 147120, Note_off_c, 9, 36, 64
17, 147120, Note_on_c, 9, 42, 75
17, 147360, Note_off_c, 9, 42, 64
17, 147360, Note_on_c, 9, 42, 71
17, 147360, Note_on_c, 9, 40, 119
17, 147600, Note_off_c, 9, 40, 64
17, 147600, Note_off_c, 9, 42, 64
17, 147600, Note_on_c, 9, 42, 68
17, 147720, Note_off_c, 9, 42, 64
17, 147840, Note_on_c, 9, 36, 81
17, 147840, Note_on_c, 9, 49, 60
17, 148320, Note_off_c, 9, 49, 64
17, 148320, Note_off_c, 9, 36, 64
17, 148320, Note_on_c, 9, 40, 119
17, 148560, Note_off_c, 9, 40, 64
17, 148560, Note_on_c, 9, 36, 87
17, 148560, Note_on_c, 9, 49, 63
17, 149040, Note_off_c, 9, 49, 64
17, 149040, Note_off_c, 9, 36, 64
17, 149040, Note_on_c, 9, 42, 71
17, 149280, Note_off_c, 9, 42, 64
17, 149280, Note_on_c, 9, 42, 65
17, 149280, Note_on_c, 9, 40, 127
17, 149520, Note_off_c, 9, 40, 64
17, 149520, Note_off_c, 9, 42, 64
17, 149520, Note_on_c, 9, 42, 72
17, 149760, Note_off_c, 9, 42, 64
17, 149760, Note_on_c, 9, 36, 84
17, 149760, Note_on_c, 9, 49, 55
17, 150240, Note_off_c, 9, 49, 64
17, 150240, Note_off_c, 9, 36, 64
17, 150240, Note_on_c, 9, 40, 119
17, 150480, Note_off_c, 9, 40, 64
17, 150480, Note_on_c, 9, 36, 85
17, 150480, Note_on_c, 9, 49, 69
17, 150960, Note_off_c, 9, 49, 64
17, 150960, Note_off_c, 9, 36, 64
17, 150960, Note_on_c, 9, 42, 72
17, 151200, Note_off_c, 9, 42, 64
17, 151200, Note_on_c, 9, 42, 74
17, 151200, Note_on_c, 9, 40, 100
17, 151440, Note_off_c, 9, 40, 64
17, 151440, Note_off_c, 9, 42, 64
17, 151440, Note_on_c, 9, 36, 88
17, 151440, Note_on_c, 9, 42, 72
17, 151680, Note_off_c, 9, 42, 64
17, 151680, Note_off_c, 9, 36, 64
17, 151680, Note_on_c, 9, 36, 82
17, 151680, Note_on_c, 9, 57, 50
17, 152160, Note_off_c, 9, 57, 64
17, 152160, Note_off_c, 9, 36, 64
17, 152160, Note_on_c, 9, 42, 75
17, 152160, Note_on_c, 9, 40, 122
17, 152400, Note_off_c, 9, 40, 64
17, 152400, Note_off_c, 9, 42, 64
17, 152400, Note_on_c, 9, 36, 85
17, 152400, Note_on_c, 9, 42, 74
17, 152640, Note_off_c, 9, 42, 64
17, 152640, Note_off_c, 9, 36, 64
17, 152640, Note_on_c, 9, 36, 81
17, 152640, Note_on_c, 9, 42, 72
17, 152880, Note_off_c, 9, 42, 64
17, 152880, Note_off_c, 9, 36, 64
17, 152880, Note_on_c, 9, 42, 69
17, 153120, Note_off_c, 9, 42, 64
17, 153120, Note_on_c, 9, 42, 66
17, 153120, Note_on_c, 9, 40, 120
17, 153360, Note_off_c, 9, 40, 64
17, 153360, Note_off_c, 9, 42, 64
17, 153360, Note_on_c, 9, 36, 81
17, 153360, Note_on_c, 9, 42, 69
17, 153600, Note_off_c, 9, 42, 64
17, 153600, Note_off_c, 9, 36, 64
17, 153600, Note_on_c, 9, 36, 87
17, 153600, Note_on_c, 9, 42, 66
17, 153840, Note_off_c, 9, 42, 64
17, 153840, Note_off_c, 9, 36, 64
17, 153840, Note_on_c, 9, 42, 76
17, 154080, Note_off_c, 9, 42, 64
17, 154080, Note_on_c, 9, 42, 73
17, 154080, Note_on_c, 9, 40, 122
17, 154320, Note_off_c, 9, 40, 64
17, 154320, Note_off_c, 9, 42, 64
17, 154320, Note_on_c, 9, 36, 84
17, 154320, Note_on_c, 9, 42, 73
17, 154560, Note_off_c, 9, 42, 64
17, 154560, Note_off_c, 9, 36, 64
17, 154560, Note_on_c, 9, 36, 86
17, 154560, Note_on_c, 9, 42, 75
17, 154800, Note_off_c, 9, 42, 64
17, 154800, Note_off_c, 9, 36, 64
17, 154800, Note_on_c, 9, 49, 70
17, 154800, Note_on_c, 9, 40, 120
17, 155040, Note_off_c, 9, 40, 64
17, 155040, Note_off_c, 9, 49, 64
17, 155040, Note_on_c, 9, 49, 62
17, 155040, Note_on_c, 9, 40, 127
17, 155520, Note_off_c, 9, 40, 64
17, 155520, Note_off_c, 9, 49, 64
17, 155520, Note_on_c, 9, 36, 86
17, 155520, Note_on_c, 9, 49, 61
17, 156000, Note_off_c, 9, 49, 64
17, 156000, Note_off_c, 9, 36, 64
17, 156000, Note_on_c, 9, 53, 73
17, 156000, Note_on_c, 9, 40, 126
17, 156480, Note_off_c, 9, 40, 64
17, 156480, Note_off_c, 9, 53, 64
17, 156480, Note_on_c, 9, 36, 84
17, 156480, Note_on_c, 9, 53, 75
17, 156960, Note_off_c, 9, 53, 64
17, 156960, Note_off_c, 9, 36, 64
17, 156960, Note_on_c, 9, 53, 70
17, 156960, Note_on_c, 9, 40, 126
17, 157440, Note_off_c, 9, 40, 64
17, 157440, Note_off_c, 9, 53, 64
17, 157440, Note_on_c, 9, 36, 87
17, 157440, Note_on_c, 9, 53, 71
17, 157920, Note_off_c, 9, 53, 64
17, 157920, Note_off_c, 9, 36, 64
17, 157920, Note_on_c, 9, 53, 71
17, 157920, Note_on_c, 9, 40, 121
17, 158400, Note_off_c, 9, 40, 64
17, 158400, Note_off_c, 9, 53, 64
17, 158400, Note_on_c, 9, 36, 85
17, 158400, Note_on_c, 9, 53, 73
17, 158880, Note_off_c, 9, 53, 64
17, 158880, Note_off_c, 9, 36, 64
17, 158880, Note_on_c, 9, 53, 75
17, 158880, Note_on_c, 9, 40, 119
17, 159120, Note_off_c, 9, 40, 64
17, 159120, Note_off_c, 9, 53, 64
17, 159120, Note_on_c, 9, 36, 84
17, 159360, Note_off_c, 9, 36, 64
17, 159360, Note_on_c, 9, 36, 89
17, 159360, Note_on_c, 9, 53, 68
17, 159840, Note_off_c, 9, 53, 64
17, 159840, Note_off_c, 9, 36, 64
17, 159840, Note_on_c, 9, 53, 75
17, 159840, Note_on_c, 9, 40, 124
17, 160320, Note_off_c, 9, 40, 64
17, 160320, Note_off_c, 9, 53, 64
17, 160320, Note_on_c, 9, 36, 82
17, 160320, Note_on_c, 9, 53, 69
17, 160800, Note_off_c, 9, 53, 64
17, 160800, Note_off_c, 9, 36, 64
17, 160800, Note_on_c, 9, 53, 71
17, 160800, Note_on_c, 9, 40, 127
17, 161040, Note_off_c, 9, 40, 64
17, 161040, Note_off_c, 9, 53, 64
17, 161040, Note_on_c, 9, 36, 86
17, 161280, Note_off_c, 9, 36, 64
17, 161280, Note_on_c, 9, 36, 89
17, 161280, Note_on_c, 9, 53, 74
17, 161760, Note_off_c, 9, 53, 64
17, 161760, Note_off_c, 9, 36, 64
17, 161760, Note_on_c, 9, 53, 70
17, 161760, Note_on_c, 9, 40, 124
17, 162240, Note_off_c, 9, 40, 64
17, 162240, Note_off_c, 9, 53, 64
17, 162240, Note_on_c, 9, 36, 89
17, 162240, Note_on_c, 9, 53, 75
17, 162720, Note_off_c, 9, 53, 64
17, 162720, Note_off_c, 9, 36, 64
17, 162720, Note_on_c, 9, 53, 67
17, 162720, Note_on_c, 9, 40, 126
17, 162960, Note_off_c, 9, 40, 64
17, 162960, Note_off_c, 9, 53, 64
17, 162960, Note_on_c, 9, 36, 87
17, 163200, Note_off_c, 9, 36, 64
17, 163200, Note_on_c, 9, 36, 84
17, 163200, Note_on_c, 9, 53, 72
17, 163680, Note_off_c, 9, 53, 64
17, 163680, Note_off_c, 9, 36, 64
17, 163680, Note_on_c, 9, 53, 75
17, 163680, Note_on_c, 9, 40, 125
17, 163920, Note_off_c, 9, 40, 64
17, 163920, Note_off_c, 9, 53, 64
17, 163920, Note_on_c, 9, 36, 89
17, 164160, Note_off_c, 9, 36, 64
17, 164160, Note_on_c, 9, 36, 86
17, 164160, Note_on_c, 9, 53, 74
17, 164640, Note_off_c, 9, 53, 64
17, 164640, Note_off_c, 9, 36, 64
17, 164640, Note_on_c, 9, 53, 71
17, 164640, Note_on_c, 9, 40, 123
17, 164880, Note_off_c, 9, 40, 64
17, 164880, Note_off_c, 9, 53, 64
17, 164880, Note_on_c, 9, 36, 81
17, 165120, Note_off_c, 9, 36, 64
17, 165120, Note_on_c, 9, 36, 84
17, 165120, Note_on_c, 9, 53, 74
17, 165600, Note_off_c, 9, 53, 64
17, 165600, Note_off_c, 9, 36, 64
17, 165600, Note_on_c, 9, 53, 72
17, 165600, Note_on_c, 9, 40, 122
17, 165840, Note_off_c, 9, 40, 64
17, 165840, Note_off_c, 9, 53, 64
17, 165840, Note_on_c, 9, 36, 86
17, 166080, Note_off_c, 9, 36, 64
17, 166080, Note_on_c, 9, 36, 86
17, 166080, Note_on_c, 9, 53, 76
17, 166560, Note_off_c, 9, 53, 64
17, 166560, Note_off_c, 9, 36, 64
17, 166560, Note_on_c, 9, 53, 71
17, 166560, Note_on_c, 9, 40, 127
17, 166800, Note_off_c, 9, 40, 64
17, 166800, Note_off_c, 9, 53, 64
17, 166800, Note_on_c, 9, 36, 84
17, 167040, Note_off_c, 9, 36, 64
17, 167040, Note_on_c, 9, 36, 89
17, 167040, Note_on_c, 9, 53, 71
17, 167520, Note_off_c, 9, 53, 64
17, 167520, Note_off_c, 9, 36, 64
17, 167520, Note_on_c, 9, 53, 76
17, 167520, Note_on_c, 9, 40, 125
17, 167760, Note_off_c, 9, 40, 64
17, 167760, Note_off_c, 9, 53, 64
17, 167760, Note_on_c, 9, 36, 83
17, 168000, Note_off_c, 9, 36, 64
17, 168000, Note_on_c, 9, 36, 86
17, 168000, Note_on_c, 9, 53, 76
17, 168480, Note_off_c, 9, 53, 64
17, 168480, Note_off_c, 9, 36, 64
17, 168480, Note_on_c, 9, 53, 76
17, 168480, Note_on_c, 9, 40, 127
17, 168720, Note_off_c, 9, 40, 64
17, 168720, Note_off_c, 9, 53, 64
17, 168720, Note_on_c, 9, 36, 87
17, 168960, Note_off_c, 9, 36, 64
17, 168960, Note_on_c, 9, 36, 80
17, 168960, Note_on_c, 9, 53, 67
17, 169200, Note_off_c, 9, 53, 64
17, 169200, Note_off_c, 9, 36, 64
17, 169200, Note_on_c, 9, 49, 63
17, 169200, Note_on_c, 9, 40, 127
17, 169680, Note_off_c, 9, 40, 64
17, 169680, Note_off_c, 9, 49, 64
17, 169680, Note_on_c, 9, 36, 85
17, 169920, Note_off_c, 9, 36, 64
17, 169920, Note_on_c, 9, 49, 68
17, 169920, Note_on_c, 9, 40, 119
17, 170160, Note_off_c, 9, 40, 64
17, 170160, Note_off_c, 9, 49, 64
17, 170160, Note_on_c, 9, 36, 87
17, 170400, Note_off_c, 9, 36, 64
17, 170400, Note_on_c, 9, 49, 70
17, 170400, Note_on_c, 9, 40, 121
17, 170640, Note_off_c, 9, 40, 64
17, 170640, Note_off_c, 9, 49, 64
17, 170640, Note_on_c, 9, 36, 84
17, 170880, Note_off_c, 9, 36, 64
17, 170880, Note_on_c, 9, 36, 84
17, 170880, Note_on_c, 9, 55, 40
17, 171360, Note_off_c, 9, 55, 64
17, 171360, Note_off_c, 9, 36, 64
17, 171360, Note_on_c, 9, 53, 67
17, 171360, Note_on_c, 9, 40, 122
17, 171600, Note_off_c, 9, 40, 64
17, 171600, Note_off_c, 9, 53, 64
17, 171600, Note_on_c, 9, 36, 80
17, 171840, Note_off_c, 9, 36, 64
17, 171840, Note_on_c, 9, 36, 86
17, 171840, Note_on_c, 9, 53, 71
17, 172320, Note_off_c, 9, 53, 64
17, 172320, Note_off_c, 9, 36, 64
17, 172320, Note_on_c, 9, 53, 73
17, 172320, Note_on_c, 9, 40, 122
17, 172560, Note_off_c, 9, 40, 64
17, 172560, Note_off_c, 9, 53, 64
17, 172560, Note_on_c, 9, 36, 82
17, 172800, Note_off_c, 9, 36, 64
17, 172800, Note_on_c, 9, 36, 87
17, 172800, Note_on_c, 9, 53, 68
17, 173280, Note_off_c, 9, 53, 64
17, 173280, Note_off_c, 9, 36, 64
17, 173280, Note_on_c, 9, 53, 68
17, 173280, Note_on_c, 9, 40, 127
17, 173520, Note_off_c, 9, 40, 64
17, 173520, Note_off_c, 9, 53, 64
17, 173520, Note_on_c, 9, 36, 81
17, 173760, Note_off_c, 9, 36, 64
17, 173760, Note_on_c, 9, 36, 82
17, 173760, Note_on_c, 9, 53, 70
17, 174240, Note_off_c, 9, 53, 64
17, 174240, Note_off_c, 9, 36, 64
17, 174240, Note_on_c, 9, 53, 74
17, 174240, Note_on_c, 9, 40, 120
17, 174720, Note_off_c, 9, 40, 64
17, 174720, Note_off_c, 9, 53, 64
17, 174720, Note_on_c, 9, 36, 88
17, 174720, Note_on_c, 9, 53, 68
17, 175200, Note_off_c, 9, 53, 64
17, 175200, Note_off_c, 9, 36, 64
17, 175200, Note_on_c, 9, 53, 74
17, 175200, Note_on_c, 9, 40, 127
17, 175440, Note_off_c, 9, 40, 64
17, 175440, Note_off_c, 9, 53, 64
17, 175440, Note_on_c, 9, 36, 88
17, 175680, Note_off_c, 9, 36, 64
17, 175680, Note_on_c, 9, 36, 88
17, 175680, Note_on_c, 9, 53, 74
17, 176160, Note_off_c, 9, 53, 64
17, 176160, Note_off_c, 9, 36, 64
17, 176160, Note_on_c, 9, 53, 70
17, 176160, Note_on_c, 9, 40, 127
17, 176640, Note_off_c, 9, 40, 64
17, 176640, Note_off_c, 9, 53, 64
17, 176640, Note_on_c, 9, 36, 89
17, 176640, Note_on_c, 9, 53, 67
17, 177120, Note_off_c, 9, 53, 64
17, 177120, Note_off_c, 9, 36, 64
17, 177120, Note_on_c, 9, 53, 70
17, 177120, Note_on_c, 9, 40, 126
17, 177360, Note_off_c, 9, 40, 64
17, 177360, Note_off_c, 9, 53, 64
17, 177360, Note_on_c, 9, 36, 87
17, 177600, Note_off_c, 9, 36, 64
17, 177600, Note_on_c, 9, 36, 85
17, 177600, Note_on_c, 9, 53, 69
17, 177840, Note_off_c, 9, 53, 64
17, 177840, Note_off_c, 9, 36, 64
17, 177840, Note_on_c, 9, 36, 80
17, 178080, Note_off_c, 9, 36, 64
17, 178080, Note_on_c, 9, 53, 73
17, 178080, Note_on_c, 9, 40, 119
17, 178560, Note_off_c, 9, 40, 64
17, 178560, Note_off_c, 9, 53, 64
17, 178560, Note_on_c, 9, 36, 86
17, 178560, Note_on_c, 9, 53, 73
17, 179040, Note_off_c, 9, 53, 64
17, 179040, Note_off_c, 9, 36, 64
17, 179040, Note_on_c, 9, 53, 67
17, 179040, Note_on_c, 9, 40, 121
17, 179520, Note_off_c, 9, 40, 64
17, 179520, Note_off_c, 9, 53, 64
17, 179520, Note_on_c, 9, 36, 87
17, 179520, Note_on_c, 9, 53, 71
17, 180000, Note_off_c, 9, 53, 64
17, 180000, Note_off_c, 9, 36, 64
17, 180000, Note_on_c, 9, 53, 69
17, 180000, Note_on_c, 9, 40, 127
17, 180480, Note_off_c, 9, 40, 64
17, 180480, Note_off_c, 9, 53, 64
17, 180480, Note_on_c, 9, 36, 89
17, 180480, Note_on_c, 9, 53, 75
17, 180960, Note_off_c, 9, 53, 64
17, 180960, Note_off_c, 9, 36, 64
17, 180960, Note_on_c, 9, 53, 72
17, 180960, Note_on_c, 9, 40, 120
17, 181200, Note_off_c, 9, 40, 64
17, 181200, Note_off_c, 9, 53, 64
17, 181200, Note_on_c, 9, 36, 85
17, 181440, Note_off_c, 9, 36, 64
17, 181440, Note_on_c, 9, 36, 89
17, 181440, Note_on_c, 9, 53, 75
17, 181920, Note_off_c, 9, 53, 64
17, 181920, Note_off_c, 9, 36, 64
17, 181920, Note_on_c, 9, 53, 75
17, 181920, Note_on_c, 9, 40, 120
17, 182400, Note_off_c, 9, 40, 64
17, 182400, Note_off_c, 9, 53, 64
17, 182400, Note_on_c, 9, 36, 87
17, 182400, Note_on_c, 9, 53, 73
17, 182880, Note_off_c, 9, 53, 64
17, 182880, Note_off_c, 9, 36, 64
17, 182880, Note_on_c, 9, 53, 71
17, 182880, Note_on_c, 9, 40, 122
17, 183120, Note_off_c, 9, 40, 64
17, 183120, Note_off_c, 9, 53, 64
17, 183120, Note_on_c, 9, 36, 89
17, 183360, Note_off_c, 9, 36, 64
17, 183360, Note_on_c, 9, 36, 86
17, 183360, Note_on_c, 9, 53, 76
17, 183840, Note_off_c, 9, 53, 64
17, 183840, Note_off_c, 9, 36, 64
17, 183840, Note_on_c, 9, 53, 73
17, 183840, Note_on_c, 9, 40, 127
17, 184080, Note_off_c, 9, 40, 64
17, 184080, Note_off_c, 9, 53, 64
17, 184080, Note_on_c, 9, 36, 80
17, 184320, Note_off_c, 9, 36, 64
17, 184320, Note_on_c, 9, 36, 80
17, 184320, Note_on_c, 9, 53, 75
17, 184560, Note_off_c, 9, 53, 64
17, 184560, Note_off_c, 9, 36, 64
17, 184560, Note_on_c, 9, 49, 60
17, 184560, Note_on_c, 9, 40, 127
17, 185040, Note_off_c, 9, 40, 64
17, 185040, Note_off_c, 9, 49, 64
17, 185040, Note_on_c, 9, 36, 87
17, 185280, Note_off_c, 9, 36, 64
17, 185280, Note_on_c, 9, 49, 66
17, 185280, Note_on_c, 9, 40, 125
17, 185520, Note_off_c, 9, 40, 64
17, 185520, Note_off_c, 9, 49, 64
17, 185520, Note_on_c, 9, 36, 82
17, 185760, Note_off_c, 9, 36, 64
17, 185760, Note_on_c, 9, 49, 70
17, 185760, Note_on_c, 9, 40, 124
17, 186000, Note_on_c, 9, 36, 87
17, 186120, Note_off_c, 9, 36, 64
17, 186120, Note_off_c, 9, 40, 64
17, 186120, Note_off_c, 9, 49, 64
17, 186240, Note_on_c, 9, 36, 83
17, 186240, Note_on_c, 9, 57, 55
17, 186720, Note_off_c, 9, 57, 64
17, 186720, Note_off_c, 9, 36, 64
17, 186720, Note_on_c, 9, 40, 125
17, 186960, Note_off_c, 9, 40, 64
17, 186960, Note_on_c, 9, 36, 85
17, 186960, Note_on_c, 9, 49, 60
17, 187440, Note_off_c, 9, 49, 64
17, 187440, Note_off_c, 9, 36, 64
17, 187440, Note_on_c, 9, 42, 72
17, 187680, Note_off_c, 9, 42, 64
17, 187680, Note_on_c, 9, 42, 65
17, 187680, Note_on_c, 9, 40, 119
17, 187920, Note_off_c, 9, 40, 64
17, 187920, Note_off_c, 9, 42, 64
17, 187920, Note_on_c, 9, 36, 85
17, 187920, Note_on_c, 9, 42, 65
17, 188160, Note_off_c, 9, 42, 64
17, 188160, Note_off_c, 9, 36, 64
17, 188160, Note_on_c, 9, 36, 80
17, 188160, Note_on_c, 9, 49, 55
17, 188640, Note_off_c, 9, 49, 64
17, 188640, Note_off_c, 9, 36, 64
17, 188640, Note_on_c, 9, 40, 127
17, 188880, Note_off_c, 9, 40, 64
17, 188880, Note_on_c, 9, 36, 85
17, 188880, Note_on_c, 9, 49, 71
17, 189360, Note_off_c, 9, 49, 64
17, 189360, Note_off_c, 9, 36, 64
17, 189360, Note_on_c, 9, 36, 89
17, 189360, Note_on_c, 9, 42, 73
17, 189600, Note_off_c, 9, 42, 64
17, 189600, Note_off_c, 9, 36, 64
17, 189600, Note_on_c, 9, 42, 71
17, 189600, Note_on_c, 9, 40, 125
17, 189840, Note_off_c, 9, 40, 64
17, 189840, Note_off_c, 9, 42, 64
17, 189840, Note_on_c, 9, 36, 86
17, 189840, Note_on_c, 9, 42, 75
17, 190080, Note_off_c, 9, 42, 64
17, 190080, Note_off_c, 9, 36, 64
17, 190080, Note_on_c, 9, 36, 84
17, 190080, Note_on_c, 9, 49, 71
17, 190560, Note_off_c, 9, 49, 64
17, 190560, Note_off_c, 9, 36, 64
17, 190560, Note_on_c, 9, 42, 69
17, 190560, Note_on_c, 9, 40, 120
17, 190800, Note_off_c, 9, 40, 64
17, 190800, Note_off_c, 9, 42, 64
17, 190800, Note_on_c, 9, 36, 80
17, 190800, Note_on_c, 9, 42, 72
17, 191040, Note_off_c, 9, 42, 64
17, 191040, Note_off_c, 9, 36, 64
17, 191040, Note_on_c, 9, 36, 88
17, 191040, Note_on_c, 9, 42, 68
17, 191280, Note_off_c, 9, 42, 64
17, 191280, Note_off_c, 9, 36, 64
17, 191280, Note_on_c, 9, 42, 75
17, 191520, Note_off_c, 9, 42, 64
17, 191520, Note_on_c, 9, 42, 69
17, 191520, Note_on_c, 9, 40, 127
17, 191760, Note_off_c, 9, 40, 64
17, 191760, Note_off_c, 9, 42, 64
17, 191760, Note_on_c, 9, 42, 68
17, 192000, Note_off_c, 9, 42, 64
17, 192000, Note_on_c, 9, 36, 84
17, 192000, Note_on_c, 9, 42, 70
17, 192240, Note_off_c, 9, 42, 64
17, 192240, Note_off_c, 9, 36, 64
17, 192240, Note_on_c, 9, 42, 69
17, 192480, Note_off_c, 9, 42, 64
17, 192480, Note_on_c, 9, 42, 73
17, 192480, Note_on_c, 9, 40, 126
17, 192720, Note_off_c, 9, 40, 64
17, 192720, Note_off_c, 9, 42, 64
17, 192720, Note_on_c, 9, 36, 86
17, 192720, Note_on_c, 9, 42, 72
17, 192960, Note_off_c, 9, 42, 64
17, 192960, Note_off_c, 9, 36, 64
17, 192960, Note_on_c, 9, 36, 83
17, 192960, Note_on_c, 9, 42, 70
17, 193200, Note_off_c, 9, 42, 64
17, 193200, Note_off_c, 9, 36, 64
17, 193200, Note_on_c, 9, 42, 68
17, 193440, Note_off_c, 9, 42, 64
17, 193440, Note_on_c, 9, 42, 70
17, 193440, Note_on_c, 9, 40, 123
17, 193680, Note_off_c, 9, 40, 64
17, 193680, Note_off_c, 9, 42, 64
17, 193680, Note_on_c, 9, 36, 88
17, 193680, Note_on_c, 9, 42, 76
17, 193920, Note_off_c, 9, 42, 64
17, 193920, Note_off_c, 9, 36, 64
17, 193920, Note_on_c, 9, 36, 83
17, 193920, Note_on_c, 9, 49, 66
17, 194160, Note_off_c, 9, 49, 64
17, 194400, Note_off_c, 9, 36, 64
17, 194400, Note_on_c, 9, 40, 127
17, 194640, Note_off_c, 9, 40, 64
17, 194640, Note_on_c, 9, 36, 81
17, 194640, Note_on_c, 9, 49, 65
17, 195120, Note_off_c, 9, 49, 64
17, 195120, Note_off_c, 9, 36, 64
17, 195120, Note_on_c, 9, 36, 85
17, 195120, Note_on_c, 9, 42, 67
17, 195360, Note_off_c, 9, 42, 64
17, 195360, Note_off_c, 9, 36, 64
17, 195360, Note_on_c, 9, 42, 75
17, 195360, Note_on_c, 9, 40, 127
17, 195600, Note_off_c, 9, 40, 64
17, 195600, Note_off_c, 9, 42, 64
17, 195600, Note_on_c, 9, 36, 82
17, 195600, Note_on_c, 9, 42, 67
17, 195840, Note_off_c, 9, 42, 64
17, 195840, Note_off_c, 9, 36, 64
17, 195840, Note_on_c, 9, 36, 85
17, 195840, Note_on_c, 9, 42, 70
17, 196080, Note_off_c, 9, 42, 64
17, 196080, Note_off_c, 9, 36, 64
17, 196080, Note_on_c, 9, 42, 73
17, 196320, Note_off_c, 9, 42, 64
17, 196320, Note_on_c, 9, 42, 69
17, 196320, Note_on_c, 9, 40, 121
17, 196560, Note_off_c, 9, 40, 64
17, 196560, Note_off_c, 9, 42, 64
17, 196560, Note_on_c, 9, 36, 82
17, 196560, Note_on_c, 9, 42, 71
17, 196800, Note_off_c, 9, 42, 64
17, 196800, Note_off_c, 9, 36, 64
17, 196800, Note_on_c, 9, 36, 84
17, 196800, Note_on_c, 9, 42, 74
17, 197040, Note_off_c, 9, 42, 64
17, 197040, Note_off_c, 9, 36, 64
17, 197040, Note_on_c, 9, 42, 74
17, 197280, Note_off_c, 9, 42, 64
17, 197280, Note_on_c, 9, 42, 65
17, 197280, Note_on_c, 9, 40, 122
17, 197520, Note_off_c, 9, 40, 64
17, 197520, Note_off_c, 9, 42, 64
17, 197520, Note_on_c, 9, 42, 72
17, 197760, Note_off_c, 9, 42, 64
17, 197760, Note_on_c, 9, 36, 88
17, 197760, Note_on_c, 9, 49, 66
17, 198240, Note_off_c, 9, 49, 64
17, 198240, Note_off_c, 9, 36, 64
17, 198240, Note_on_c, 9, 42, 66
17, 198240, Note_on_c, 9, 40, 119
17, 198480, Note_off_c, 9, 40, 64
17, 198480, Note_off_c, 9, 42, 64
17, 198480, Note_on_c, 9, 36, 82
17, 198480, Note_on_c, 9, 42, 67
17, 198720, Note_off_c, 9, 42, 64
17, 198720, Note_off_c, 9, 36, 64
17, 198720, Note_on_c, 9, 36, 88
17, 198720, Note_on_c, 9, 42, 74
17, 198960, Note_off_c, 9, 42, 64
17, 198960, Note_off_c, 9, 36, 64
17, 198960, Note_on_c, 9, 42, 75
17, 199200, Note_off_c, 9, 42, 64
17, 199200, Note_on_c, 9, 42, 70
17, 199200, Note_on_c, 9, 40, 121
17, 199440, Note_off_c, 9, 40, 64
17, 199440, Note_off_c, 9, 42, 64
17, 199440, Note_on_c, 9, 36, 86
17, 199440, Note_on_c, 9, 42, 75
17, 199680, Note_off_c, 9, 42, 64
17, 199680, Note_off_c, 9, 36, 64
17, 199680, Note_on_c, 9, 36, 84
17, 199680, Note_on_c, 9, 42, 72
17, 199920, Note_off_c, 9, 42, 64
17, 199920, Note_off_c, 9, 36, 64
17, 199920, Note_on_c, 9, 42, 66
17, 200160, Note_off_c, 9, 42, 64
17, 200160, Note_on_c, 9, 42, 66
17, 200160, Note_on_c, 9, 40, 125
17, 200400, Note_off_c, 9, 40, 64
17, 200400, Note_off_c, 9, 42, 64
17, 200400, Note_on_c, 9, 36, 81
17, 200400, Note_on_c, 9, 42, 65
17, 200640, Note_off_c, 9, 42, 64
17, 200640, Note_off_c, 9, 36, 64
17, 200640, Note_on_c, 9, 36, 85
17, 200640, Note_on_c, 9, 42, 68
17, 200880, Note_off_c, 9, 42, 64
17, 200880, Note_off_c, 9, 36, 64
17, 200880, Note_on_c, 9, 42, 69
17, 201120, Note_off_c, 9, 42, 64
17, 201120, Note_on_c, 9, 42, 73
17, 201120, Note_on_c, 9, 40, 122
17, 201360, Note_off_c, 9, 40, 64
17, 201360, Note_off_c, 9, 42, 64
17, 201360, Note_on_c, 9, 42, 66
17, 201600, Note_off_c, 9, 42, 64
17, 201600, Note_on_c, 9, 36, 88
17, 201600, Note_on_c, 9, 49, 61
17, 202080, Note_off_c, 9, 49, 64
17, 202080, Note_off_c, 9, 36, 64
17, 202080, Note_on_c, 9, 40, 120
17, 202320, Note_off_c, 9, 40, 64
17, 202320, Note_on_c, 9, 36, 85
17, 202320, Note_on_c, 9, 49, 59
17, 202800, Note_off_c, 9, 49, 64
17, 202800, Note_off_c, 9, 36, 64
17, 202800, Note_on_c, 9, 42, 68
17, 203040, Note_off_c, 9, 42, 64
17, 203040, Note_on_c, 9, 42, 69
17, 203040, Note_on_c, 9, 40, 120
17, 203280, Note_off_c, 9, 40, 64
17, 203280, Note_off_c, 9, 42, 64
17, 203280, Note_on_c, 9, 42, 74
17, 203520, Note_off_c, 9, 42, 64
17, 203520, Note_on_c, 9, 36, 85
17, 203520, Note_on_c, 9, 49, 70
17, 204000, Note_off_c, 9, 49, 64
17, 204000, Note_off_c, 9, 36, 64
17, 204000, Note_on_c, 9, 40, 127
17, 204240, Note_off_c, 9, 40, 64
17, 204240, Note_on_c, 9, 36, 84
17, 204240, Note_on_c, 9, 49, 71
17, 204720, Note_off_c, 9, 49, 64
17, 204720, Note_off_c, 9, 36, 64
17, 204720, Note_on_c, 9, 42, 68
17, 204960, Note_off_c, 9, 42, 64
17, 204960, Note_on_c, 9, 42, 67
17, 204960, Note_on_c, 9, 40, 126
17, 205200, Note_off_c, 9, 40, 64
17, 205200, Note_off_c, 9, 42, 64
17, 205200, Note_on_c, 9, 36, 83
17, 205200, Note_on_c, 9, 42, 67
17, 205440, Note_off_c, 9, 42, 64
17, 205440, Note_off_c, 9, 36, 64
17, 205440, Note_on_c, 9, 36, 85
17, 205440, Note_on_c, 9, 49, 50
17, 205920, Note_off_c, 9, 49, 64
17, 205920, Note_off_c, 9, 36, 64
17, 205920, Note_on_c, 9, 42, 76
17, 205920, Note_on_c, 9, 40, 121
17, 206160, Note_off_c, 9, 40, 64
17, 206160, Note_off_c, 9, 42, 64
17, 206160, Note_on_c, 9, 36, 83
17, 206160, Note_on_c, 9, 42, 66
17, 206400, Note_off_c, 9, 42, 64
17, 206400, Note_off_c, 9, 36, 64
17, 206400, Note_on_c, 9, 36, 81
17, 206400, Note_on_c, 9, 42, 70
17, 206640, Note_off_c, 9, 42, 64
17, 206640, Note_off_c, 9, 36, 64
17, 206640, Note_on_c, 9, 42, 70
17, 206880, Note_off_c, 9, 42, 64
17, 206880, Note_on_c, 9, 42, 75
17, 206880, Note_on_c, 9, 40, 124
17, 207120, Note_off_c, 9, 40, 64
17, 207120, Note_off_c, 9, 42, 64
17, 207120, Note_on_c, 9, 36, 87
17, 207120, Note_on_c, 9, 42, 72
17, 207360, Note_off_c, 9, 42, 64
17, 207360, Note_off_c, 9, 36, 64
17, 207360, Note_on_c, 9, 36, 84
17, 207360, Note_on_c, 9, 42, 69
17, 207600, Note_off_c, 9, 42, 64
17, 207600, Note_off_c, 9, 36, 64
17, 207600, Note_on_c, 9, 42, 67
17, 207840, Note_off_c, 9, 42, 64
17, 207840, Note_on_c, 9, 42, 75
17, 207840, Note_on_c, 9, 40, 127
17, 208080, Note_off_c, 9, 40, 64
17, 208080, Note_off_c, 9, 42, 64
17, 208080, Note_on_c, 9, 36, 82
17, 208080, Note_on_c, 9, 42, 70
17, 208320, Note_off_c, 9, 42, 64
17, 208320, Note_off_c, 9, 36, 64
17, 208320, Note_on_c, 9, 36, 85
17, 208320, Note_on_c, 9, 42, 73
17, 208560, Note_off_c, 9, 42, 64
17, 208560, Note_off_c, 9, 36, 64
17, 208560, Note_on_c, 9, 36, 83
17, 208560, Note_on_c, 9, 42, 71
17, 208800, Note_off_c, 9, 42, 64
17, 208800, Note_off_c, 9, 36, 64
17, 208800, Note_on_c, 9, 42, 68
17, 208800, Note_on_c, 9, 40, 127
17, 209040, Note_off_c, 9, 40, 64
17, 209040, Note_off_c, 9, 42, 64
17, 209040, Note_on_c, 9, 36, 83
17, 209040, Note_on_c, 9, 42, 70
17, 209280, Note_off_c, 9, 42, 64
17, 209280, Note_off_c, 9, 36, 64
17, 209280, Note_on_c, 9, 36, 80
17, 209280, Note_on_c, 9, 49, 66
17, 209760, Note_off_c, 9, 49, 64
17, 209760, Note_off_c, 9, 36, 64
17, 209760, Note_on_c, 9, 40, 119
17, 210000, Note_off_c, 9, 40, 64
17, 210000, Note_on_c, 9, 36, 87
17, 210000, Note_on_c, 9, 49, 61
17, 210480, Note_off_c, 9, 49, 64
17, 210480, Note_off_c, 9, 36, 64
17, 210480, Note_on_c, 9, 36, 85
17, 210480, Note_on_c, 9, 42, 70
17, 210720, Note_off_c, 9, 42, 64
17, 210720, Note_off_c, 9, 36, 64
17, 210720, Note_on_c, 9, 36, 80
17, 210720, Note_on_c, 9, 42, 71
17, 210720, Note_on_c, 9, 40, 127
17, 210960, Note_off_c, 9, 40, 64
17, 210960, Note_off_c, 9, 42, 64
17, 210960, Note_off_c, 9, 36, 64
17, 210960, Note_on_c, 9, 36, 83
17, 210960, Note_on_c, 9, 42, 72
17, 211200, Note_off_c, 9, 42, 64
17, 211200, Note_off_c, 9, 36, 64
17, 211200, Note_on_c, 9, 36, 85
17, 211200, Note_on_c, 9, 49, 70
17, 211440, Note_off_c, 9, 49, 64
17, 211440, Note_off_c, 9, 36, 64
17, 211440, Note_on_c, 9, 42, 68
17, 211680, Note_off_c, 9, 42, 64
17, 211680, Note_on_c, 9, 42, 68
17, 211680, Note_on_c, 9, 40, 120
17, 211920, Note_off_c, 9, 40, 64
17, 211920, Note_off_c, 9, 42, 64
17, 211920, Note_on_c, 9, 36, 85
17, 211920, Note_on_c, 9, 49, 65
17, 212160, Note_off_c, 9, 49, 64
17, 212160, Note_off_c, 9, 36, 64
17, 212160, Note_on_c, 9, 42, 68
17, 212400, Note_off_c, 9, 42, 64
17, 212400, Note_on_c, 9, 36, 86
17, 212400, Note_on_c, 9, 42, 74
17, 212640, Note_off_c, 9, 42, 64
17, 212640, Note_off_c, 9, 36, 64
17, 212640, Note_on_c, 9, 42, 69
17, 212640, Note_on_c, 9, 40, 120
17, 212880, Note_off_c, 9, 40, 64
17, 212880, Note_off_c, 9, 42, 64
17, 212880, Note_on_c, 9, 42, 75
17, 213120, Note_off_c, 9, 42, 64
17, 213120, Note_on_c, 9, 36, 41
17, 213120, Note_on_c, 9, 57, 70
17, 213120, Note_on_c, 9, 40, 34
17, 213360, Note_off_c, 9, 40, 64
17, 213360, Note_off_c, 9, 57, 64
17, 213360, Note_off_c, 9, 36, 64
17, 213360, Note_on_c, 9, 36, 44
17, 213360, Note_on_c, 9, 40, 33
17, 213600, Note_off_c, 9, 40, 64
17, 213600, Note_off_c, 9, 36, 64
17, 213600, Note_on_c, 9, 36, 46
17, 213600, Note_on_c, 9, 40, 31
17, 213840, Note_off_c, 9, 40, 64
17, 213840, Note_off_c, 9, 36, 64
17, 213840, Note_on_c, 9, 36, 47
17, 213840, Note_on_c, 9, 40, 29
17, 214080, Note_off_c, 9, 40, 64
17, 214080, Note_off_c, 9, 36, 64
17, 214080, Note_on_c, 9, 36, 53
17, 214080, Note_on_c, 9, 40, 38
17, 214320, Note_off_c, 9, 40, 64
17, 214320, Note_off_c, 9, 36, 64
17, 214320, Note_on_c, 9, 36, 52
17, 214320, Note_on_c, 9, 40, 37
17, 214560, Note_off_c, 9, 40, 64
17, 214560, Note_off_c, 9, 36, 64
17, 214560, Note_on_c, 9, 36, 61
17, 214560, Note_on_c, 9, 40, 57
17, 214800, Note_off_c, 9, 40, 64
17, 214800, Note_off_c, 9, 36, 64
17, 214800, Note_on_c, 9, 36, 61
17, 214800, Note_on_c, 9, 40, 59
17, 215040, Note_off_c, 9, 40, 64
17, 215040, Note_off_c, 9, 36, 64
17, 215040, Note_on_c, 9, 36, 78
17, 215040, Note_on_c, 9, 40, 67
17, 215160, Note_off_c, 9, 40, 64
17, 215280, Note_off_c, 9, 36, 64
17, 215280, Note_on_c, 9, 36, 80
17, 215280, Note_on_c, 9, 40, 76
17, 215400, Note_off_c, 9, 40, 64
17, 215520, Note_off_c, 9, 36, 64
17, 215520, Note_on_c, 9, 36, 92
17, 215520, Note_on_c, 9, 40, 89
17, 215640, Note_off_c, 9, 40, 64
17, 215760, Note_off_c, 9, 36, 64
17, 215760, Note_on_c, 9, 36, 92
17, 215760, Note_on_c, 9, 40, 109
17, 215880, Note_off_c, 9, 40, 64
17, 216000, Note_off_c, 9, 36, 64
17, 216000, Note_on_c, 9, 36, 95
17, 216000, Note_on_c, 9, 40, 101
17, 216240, Note_off_c, 9, 40, 64
17, 216240, Note_off_c, 9, 36, 64
17, 216240, Note_on_c, 9, 36, 98
17, 216480, Note_off_c, 9, 36, 64
17, 216480, Note_on_c, 9, 40, 119
17, 216720, Note_off_c, 9, 40, 64
17, 216960, Note_on_c, 9, 36, 88
17, 216960, Note_on_c, 9, 49, 67
17, 217440, Note_off_c, 9, 49, 64
17, 217440, Note_off_c, 9, 36, 64
17, 217440, Note_on_c, 9, 40, 119
17, 217680, Note_off_c, 9, 40, 64
17, 217680, Note_on_c, 9, 36, 88
17, 217680, Note_on_c, 9, 49, 66
17, 218160, Note_off_c, 9, 49, 64
17, 218160, Note_off_c, 9, 36, 64
17, 218160, Note_on_c, 9, 42, 72
17, 218400, Note_off_c, 9, 42, 64
17, 218400, Note_on_c, 9, 42, 75
17, 218400, Note_on_c, 9, 40, 119
17, 218640, Note_off_c, 9, 40, 64
17, 218640, Note_off_c, 9, 42, 64
17, 218640, Note_on_c, 9, 42, 70
17, 218880, Note_off_c, 9, 42, 64
17, 218880, Note_on_c, 9, 36, 85
17, 218880, Note_on_c, 9, 49, 65
17, 219360, Note_off_c, 9, 49, 64
17, 219360, Note_off_c, 9, 36, 64
17, 219360, Note_on_c, 9, 40, 123
17, 219600, Note_off_c, 9, 40, 64
17, 219600, Note_on_c, 9, 36, 81
17, 219600, Note_on_c, 9, 49, 70
17, 220080, Note_off_c, 9, 49, 64
17, 220080, Note_off_c, 9, 36, 64
17, 220080, Note_on_c, 9, 36, 85
17, 220080, Note_on_c, 9, 42, 66
17, 220320, Note_off_c, 9, 42, 64
17, 220320, Note_off_c, 9, 36, 64
17, 220320, Note_on_c, 9, 42, 67
17, 220320, Note_on_c, 9, 40, 125
17, 220560, Note_off_c, 9, 40, 64
17, 220560, Note_off_c, 9, 42, 64
17, 220560, Note_on_c, 9, 36, 86
17, 220560, Note_on_c, 9, 42, 65
17, 220800, Note_off_c, 9, 42, 64
17, 220800, Note_off_c, 9, 36, 64
17, 220800, Note_on_c, 9, 36, 86
17, 220800, Note_on_c, 9, 49, 59
17, 221280, Note_off_c, 9, 49, 64
17, 221280, Note_off_c, 9, 36, 64
17, 221280, Note_on_c, 9, 40, 119
17, 221520, Note_off_c, 9, 40, 64
17, 221520, Note_on_c, 9, 36, 87
17, 221520, Note_on_c, 9, 49, 58
17, 221760, Note_off_c, 9, 49, 64
17, 221760, Note_off_c, 9, 36, 64
17, 221760, Note_on_c, 9, 42, 65
17, 222000, Note_off_c, 9, 42, 64
17, 222000, Note_on_c, 9, 36, 80
17, 222000, Note_on_c, 9, 42, 75
17, 222240, Note_off_c, 9, 42, 64
17, 222240, Note_off_c, 9, 36, 64
17, 222240, Note_on_c, 9, 42, 71
17, 222240, Note_on_c, 9, 40, 125
17, 222480, Note_off_c, 9, 40, 64
17, 222480, Note_off_c, 9, 42, 64
17, 222480, Note_on_c, 9, 42, 70
17, 222720, Note_off_c, 9, 42, 64
17, 222720, Note_on_c, 9, 36, 88
17, 222720, Note_on_c, 9, 57, 55
17, 222960, Note_off_c, 9, 57, 64
17, 222960, Note_off_c, 9, 36, 64
17, 222960, Note_on_c, 9, 42, 73
17, 223200, Note_off_c, 9, 42, 64
17, 223200, Note_on_c, 9, 42, 76
17, 223200, Note_on_c, 9, 40, 124
17, 223440, Note_off_c, 9, 40, 64
17, 223440, Note_off_c, 9, 42, 64
17, 223440, Note_on_c, 9, 36, 85
17, 223440, Note_on_c, 9, 49, 69
17, 223680, Note_off_c, 9, 49, 64
17, 223680, Note_off_c, 9, 36, 64
17, 223680, Note_on_c, 9, 42, 65
17, 223920, Note_off_c, 9, 42, 64
17, 223920, Note_on_c, 9, 42, 73
17, 224160, Note_off_c, 9, 42, 64
17, 224160, Note_on_c, 9, 42, 66
17, 224160, Note_on_c, 9, 40, 124
17, 224400, Note_off_c, 9, 40, 64
17, 224400, Note_off_c, 9, 42, 64
17, 224400, Note_on_c, 9, 42, 72
17, 224640, Note_off_c, 9, 42, 64
17, 224640, Note_on_c, 9, 36, 85
17, 224640, Note_on_c, 9, 57, 55
17, 224880, Note_off_c, 9, 57, 64
17, 224880, Note_off_c, 9, 36, 64
17, 224880, Note_on_c, 9, 42, 76
17, 225120, Note_off_c, 9, 42, 64
17, 225120, Note_on_c, 9, 42, 74
17, 225120, Note_on_c, 9, 40, 121
17, 225360, Note_off_c, 9, 40, 64
17, 225360, Note_off_c, 9, 42, 64
17, 225360, Note_on_c, 9, 36, 89
17, 225360, Note_on_c, 9, 49, 61
17, 225600, Note_off_c, 9, 49, 64
17, 225600, Note_off_c, 9, 36, 64
17, 225600, Note_on_c, 9, 42, 70
17, 225840, Note_off_c, 9, 42, 64
17, 225840, Note_on_c, 9, 36, 85
17, 225840, Note_on_c, 9, 42, 65
17, 226080, Note_off_c, 9, 42, 64
17, 226080, Note_off_c, 9, 36, 64
17, 226080, Note_on_c, 9, 42, 65
17, 226080, Note_on_c, 9, 40, 120
17, 226320, Note_off_c, 9, 40, 64
17, 226320, Note_off_c, 9, 42, 64
17, 226320, Note_on_c, 9, 36, 85
17, 226320, Note_on_c, 9, 42, 73
17, 226560, Note_off_c, 9, 42, 64
17, 226560, Note_off_c, 9, 36, 64
17, 226560, Note_on_c, 9, 36, 88
17, 226560, Note_on_c, 9, 49, 62
17, 226800, Note_off_c, 9, 49, 64
17, 227040, Note_off_c, 9, 36, 64
17, 227040, Note_on_c, 9, 42, 71
17, 227040, Note_on_c, 9, 40, 120
17, 227280, Note_off_c, 9, 40, 64
17, 227280, Note_off_c, 9, 42, 64
17, 227280, Note_on_c, 9, 36, 84
17, 227280, Note_on_c, 9, 42, 70
17, 227520, Note_off_c, 9, 42, 64
17, 227520, Note_off_c, 9, 36, 64
17, 227520, Note_on_c, 9, 42, 67
17, 227760, Note_off_c, 9, 42, 64
17, 227760, Note_on_c, 9, 36, 81
17, 227760, Note_on_c, 9, 42, 69
17, 228000, Note_off_c, 9, 42, 64
17, 228000, Note_off_c, 9, 36, 64
17, 228000, Note_on_c, 9, 42, 70
17, 228000, Note_on_c, 9, 40, 127
17, 228240, Note_off_c, 9, 40, 64
17, 228240, Note_off_c, 9, 42, 64
17, 228240, Note_on_c, 9, 36, 83
17, 228240, Note_on_c, 9, 42, 72
17, 228480, Note_off_c, 9, 42, 64
17, 228480, Note_off_c, 9, 36, 64
17, 228480, Note_on_c, 9, 36, 81
17, 228480, Note_on_c, 9, 49, 71
17, 228720, Note_off_c, 9, 49, 64
17, 228720, Note_off_c, 9, 36, 64
17, 228720, Note_on_c, 9, 42, 74
17, 228960, Note_off_c, 9, 42, 64
17, 228960, Note_on_c, 9, 42, 71
17, 228960, Note_on_c, 9, 40, 121
17, 229200, Note_off_c, 9, 40, 64
17, 229200, Note_off_c, 9, 42, 64
17, 229200, Note_on_c, 9, 36, 84
17, 229200, Note_on_c, 9, 49, 58
17, 229440, Note_off_c, 9, 49, 64
17, 229440, Note_off_c, 9, 36, 64
17, 229440, Note_on_c, 9, 42, 76
17, 229680, Note_off_c, 9, 42, 64
17, 229680, Note_on_c, 9, 36, 86
17, 229680, Note_on_c, 9, 42, 67
17, 229920, Note_off_c, 9, 42, 64
17, 229920, Note_off_c, 9, 36, 64
17, 229920, Note_on_c, 9, 42, 67
17, 229920, Note_on_c, 9, 40, 124
17, 230160, Note_off_c, 9, 40, 64
17, 230160, Note_off_c, 9, 42, 64
17, 230160, Note_on_c, 9, 36, 86
17, 230160, Note_on_c, 9, 42, 73
17, 230400, Note_off_c, 9, 42, 64
17, 230400, Note_off_c, 9, 36, 64
17, 230400, Note_on_c, 9, 36, 86
17, 230400, Note_on_c, 9, 49, 69
17, 230640, Note_off_c, 9, 49, 64
17, 230640, Note_off_c, 9, 36, 64
17, 230640, Note_on_c, 9, 42, 69
17, 230880, Note_off_c, 9, 42, 64
17, 230880, Note_on_c, 9, 42, 71
17, 230880, Note_on_c, 9, 40, 126
17, 231120, Note_off_c, 9, 40, 64
17, 231120, Note_off_c, 9, 42, 64
17, 231120, Note_on_c, 9, 36, 86
17, 231120, Note_on_c, 9, 49, 58
17, 231360, Note_off_c, 9, 49, 64
17, 231360, Note_off_c, 9, 36, 64
17, 231360, Note_on_c, 9, 42, 66
17, 231600, Note_off_c, 9, 42, 64
17, 231600, Note_on_c, 9, 42, 67
17, 231840, Note_off_c, 9, 42, 64
17, 231840, Note_on_c, 9, 42, 67
17, 231840, Note_on_c, 9, 40, 127
17, 232080, Note_off_c, 9, 40, 64
17, 232080, Note_off_c, 9, 42, 64
17, 232080, Note_on_c, 9, 36, 86
17, 232080, Note_on_c, 9, 42, 66
17, 232320, Note_off_c, 9, 42, 64
17, 232320, Note_off_c, 9, 36, 64
17, 232320, Note_on_c, 9, 36, 83
17, 232320, Note_on_c, 9, 49, 64
17, 232560, Note_off_c, 9, 49, 64
17, 232560, Note_off_c, 9, 36, 64
17, 232560, Note_on_c, 9, 42, 74
17, 232800, Note_off_c, 9, 42, 64
17, 232800, Note_on_c, 9, 42, 71
17, 232800, Note_on_c, 9, 40, 122
17, 233040, Note_off_c, 9, 40, 64
17, 233040, Note_off_c, 9, 42, 64
17, 233040, Note_on_c, 9, 36, 82
17, 233040, Note_on_c, 9, 49, 55
17, 233280, Note_off_c, 9, 49, 64
17, 233520, Note_off_c, 9, 36, 64
17, 233520, Note_on_c, 9, 36, 84
17, 233520, Note_on_c, 9, 42, 73
17, 233760, Note_off_c, 9, 42, 64
17, 233760, Note_off_c, 9, 36, 64
17, 233760, Note_on_c, 9, 42, 69
17, 233760, Note_on_c, 9, 40, 124
17, 234000, Note_off_c, 9, 40, 64
17, 234000, Note_off_c, 9, 42, 64
17, 234000, Note_on_c, 9, 42, 73
17, 234240, Note_off_c, 9, 42, 64
17, 234240, Note_on_c, 9, 36, 88
17, 234240, Note_on_c, 9, 49, 58
17, 234480, Note_off_c, 9, 49, 64
17, 234480, Note_off_c, 9, 36, 64
17, 234480, Note_on_c, 9, 42, 68
17, 234720, Note_off_c, 9, 42, 64
17, 234720, Note_on_c, 9, 42, 74
17, 234720, Note_on_c, 9, 40, 124
17, 234960, Note_off_c, 9, 40, 64
17, 234960, Note_off_c, 9, 42, 64
17, 234960, Note_on_c, 9, 36, 82
17, 234960, Note_on_c, 9, 49, 55
17, 235200, Note_off_c, 9, 49, 64
17, 235200, Note_off_c, 9, 36, 64
17, 235200, Note_on_c, 9, 42, 65
17, 235440, Note_off_c, 9, 42, 64
17, 235440, Note_on_c, 9, 36, 88
17, 235440, Note_on_c, 9, 42, 68
17, 235680, Note_off_c, 9, 42, 64
17, 235680, Note_off_c, 9, 36, 64
17, 235680, Note_on_c, 9, 42, 69
17, 235680, Note_on_c, 9, 40, 124
17, 235920, Note_off_c, 9, 40, 64
17, 235920, Note_off_c, 9, 42, 64
17, 235920, Note_on_c, 9, 36, 86
17, 235920, Note_on_c, 9, 42, 74
17, 236160, Note_off_c, 9, 42, 64
17, 236160, Note_off_c, 9, 36, 64
17, 236160, Note_on_c, 9, 36, 88
17, 236160, Note_on_c, 9, 49, 65
17, 236400, Note_off_c, 9, 49, 64
17, 236400, Note_off_c, 9, 36, 64
17, 236400, Note_on_c, 9, 42, 72
17, 236640, Note_off_c, 9, 42, 64
17, 236640, Note_on_c, 9, 42, 73
17, 236640, Note_on_c, 9, 40, 124
17, 236880, Note_off_c, 9, 40, 64
17, 236880, Note_off_c, 9, 42, 64
17, 236880, Note_on_c, 9, 36, 81
17, 236880, Note_on_c, 9, 49, 63
17, 237120, Note_off_c, 9, 49, 64
17, 237120, Note_off_c, 9, 36, 64
17, 237120, Note_on_c, 9, 42, 67
17, 237360, Note_off_c, 9, 42, 64
17, 237360, Note_on_c, 9, 36, 88
17, 237360, Note_on_c, 9, 42, 65
17, 237600, Note_off_c, 9, 42, 64
17, 237600, Note_off_c, 9, 36, 64
17, 237600, Note_on_c, 9, 42, 74
17, 237600, Note_on_c, 9, 40, 127
17, 237840, Note_off_c, 9, 40, 64
17, 237840, Note_off_c, 9, 42, 64
17, 237840, Note_on_c, 9, 42, 74
17, 237960, Note_off_c, 9, 42, 64
17, 238080, Note_on_c, 9, 36, 82
17, 238080, Note_on_c, 9, 49, 69
17, 238320, Note_off_c, 9, 49, 64
17, 238320, Note_off_c, 9, 36, 64
17, 238320, Note_on_c, 9, 42, 69
17, 238560, Note_off_c, 9, 42, 64
17, 238560, Note_on_c, 9, 42, 66
17, 238560, Note_on_c, 9, 40, 127
17, 238800, Note_off_c, 9, 40, 64
17, 238800, Note_off_c, 9, 42, 64
17, 238800, Note_on_c, 9, 36, 86
17, 238800, Note_on_c, 9, 49, 64
17, 239040, Note_off_c, 9, 49, 64
17, 239040, Note_off_c, 9, 36, 64
17, 239040, Note_on_c, 9, 42, 65
17, 239280, Note_off_c, 9, 42, 64
17, 239280, Note_on_c, 9, 36, 83
17, 239280, Note_on_c, 9, 42, 71
17, 239520, Note_off_c, 9, 42, 64
17, 239520, Note_off_c, 9, 36, 64
17, 239520, Note_on_c, 9, 42, 70
17, 239520, Note_on_c, 9, 40, 123
17, 239760, Note_off_c, 9, 40, 64
17, 239760, Note_off_c, 9, 42, 64
17, 239760, Note_on_c, 9, 42, 74
17, 240000, Note_off_c, 9, 42, 64
17, 240000, Note_on_c, 9, 36, 87
17, 240000, Note_on_c, 9, 49, 59
17, 240240, Note_off_c, 9, 49, 64
17, 240240, Note_off_c, 9, 36, 64
17, 240240, Note_on_c, 9, 42, 75
17, 240480, Note_off_c, 9, 42, 64
17, 240480, Note_on_c, 9, 42, 73
17, 240480, Note_on_c, 9, 40, 122
17, 240720, Note_off_c, 9, 40, 64
17, 240720, Note_off_c, 9, 42, 64
17, 240720, Note_on_c, 9, 36, 84
17, 240720, Note_on_c, 9, 49, 68
17, 240960, Note_off_c, 9, 49, 64
17, 240960, Note_off_c, 9, 36, 64
17, 240960, Note_on_c, 9, 42, 67
17, 241200, Note_off_c, 9, 42, 64
17, 241200, Note_on_c, 9, 42, 69
17, 241440, Note_off_c, 9, 42, 64
17, 241440, Note_on_c, 9, 42, 67
17, 241440, Note_on_c, 9, 40, 124
17, 241680, Note_off_c, 9, 40, 64
17, 241680, Note_off_c, 9, 42, 64
17, 241680, Note_on_c, 9, 42, 72
17, 241920, Note_off_c, 9, 42, 64
17, 241920, Note_on_c, 9, 36, 86
17, 241920, Note_on_c, 9, 49, 65
17, 242160, Note_off_c, 9, 49, 64
17, 242160, Note_off_c, 9, 36, 64
17, 242160, Note_on_c, 9, 42, 76
17, 242400, Note_off_c, 9, 42, 64
17, 242400, Note_on_c, 9, 42, 72
17, 242400, Note_on_c, 9, 40, 126
17, 242640, Note_off_c, 9, 40, 64
17, 242640, Note_off_c, 9, 42, 64
17, 242640, Note_on_c, 9, 36, 89
17, 242640, Note_on_c, 9, 49, 62
17, 242880, Note_off_c, 9, 49, 64
17, 242880, Note_off_c, 9, 36, 64
17, 242880, Note_on_c, 9, 42, 72
17, 243120, Note_off_c, 9, 42, 64
17, 243120, Note_on_c, 9, 36, 88
17, 243120, Note_on_c, 9, 42, 73
17, 243360, Note_off_c, 9, 42, 64
17, 243360, Note_off_c, 9, 36, 64
17, 243360, Note_on_c, 9, 42, 76
17, 243360, Note_on_c, 9, 40, 124
17, 243600, Note_off_c, 9, 40, 64
17, 243600, Note_off_c, 9, 42, 64
17, 243600, Note_on_c, 9, 42, 67
17, 243840, Note_off_c, 9, 42, 64
17, 243840, Note_on_c, 9, 36, 89
17, 243840, Note_on_c, 9, 49, 63
17, 244080, Note_off_c, 9, 49, 64
17, 244080, Note_off_c, 9, 36, 64
17, 244080, Note_on_c, 9, 42, 76
17, 244320, Note_off_c, 9, 42, 64
17, 244320, Note_on_c, 9, 40, 124
17, 244560, Note_off_c, 9, 40, 64
17, 244560, Note_on_c, 9, 36, 89
17, 244560, Note_on_c, 9, 49, 64
17, 244800, Note_off_c, 9, 49, 64
17, 244800, Note_off_c, 9, 36, 64
17, 244800, Note_on_c, 9, 42, 67
17, 245040, Note_off_c, 9, 42, 64
17, 245040, Note_on_c, 9, 42, 65
17, 245280, Note_off_c, 9, 42, 64
17, 245280, Note_on_c, 9, 42, 74
17, 245280, Note_on_c, 9, 40, 123
17, 245520, Note_off_c, 9, 40, 64
17, 245520, Note_off_c, 9, 42, 64
17, 245520, Note_on_c, 9, 42, 72
17, 245760, Note_off_c, 9, 42, 64
17, 245760, Note_on_c, 9, 36, 40
17, 245760, Note_on_c, 9, 40, 89
17, 245760, Note_on_c, 9, 49, 54
17, 246000, Note_off_c, 9, 49, 64
17, 246000, Note_off_c, 9, 40, 64
17, 246000, Note_off_c, 9, 36, 64
17, 246000, Note_on_c, 9, 36, 42
17, 246000, Note_on_c, 9, 40, 35
17, 246240, Note_off_c, 9, 40, 64
17, 246240, Note_off_c, 9, 36, 64
17, 246240, Note_on_c, 9, 36, 50
17, 246240, Note_on_c, 9, 40, 36
17, 246480, Note_off_c, 9, 40, 64
17, 246480, Note_off_c, 9, 36, 64
17, 246480, Note_on_c, 9, 36, 47
17, 246480, Note_on_c, 9, 40, 35
17, 246720, Note_off_c, 9, 40, 64
17, 246720, Note_off_c, 9, 36, 64
17, 246720, Note_on_c, 9, 36, 56
17, 246720, Note_on_c, 9, 40, 36
17, 246960, Note_off_c, 9, 40, 64
17, 246960, Note_off_c, 9, 36, 64
17, 246960, Note_on_c, 9, 36, 49
17, 246960, Note_on_c, 9, 40, 37
17, 247200, Note_off_c, 9, 40, 64
17, 247200, Note_off_c, 9, 36, 64
17, 247200, Note_on_c, 9, 36, 60
17, 247200, Note_on_c, 9, 40, 40
17, 247440, Note_off_c, 9, 40, 64
17, 247440, Note_off_c, 9, 36, 64
17, 247440, Note_on_c, 9, 36, 56
17, 247440, Note_on_c, 9, 40, 47
17, 247680, Note_off_c, 9, 40, 64
17, 247680, Note_off_c, 9, 36, 64
17, 247680, Note_on_c, 9, 36, 71
17, 247680, Note_on_c, 9, 40, 54
17, 247800, Note_off_c, 9, 40, 64
17, 247920, Note_off_c, 9, 36, 64
17, 247920, Note_on_c, 9, 36, 74
17, 247920, Note_on_c, 9, 40, 81
17, 248040, Note_off_c, 9, 40, 64
17, 248160, Note_off_c, 9, 36, 64
17, 248160, Note_on_c, 9, 36, 97
17, 248160, Note_on_c, 9, 40, 85
17, 248280, Note_off_c, 9, 40, 64
17, 248400, Note_off_c, 9, 36, 64
17, 248400, Note_on_c, 9, 36, 94
17, 248400, Note_on_c, 9, 40, 102
17, 248520, Note_off_c, 9, 40, 64
17, 248640, Note_off_c, 9, 36, 64
17, 248640, Note_on_c, 9, 36, 99
17, 248640, Note_on_c, 9, 40, 106
17, 248880, Note_off_c, 9, 40, 64
17, 248880, Note_off_c, 9, 36, 64
17, 248880, Note_on_c, 9, 36, 95
17, 249120, Note_off_c, 9, 36, 64
17, 249120, Note_on_c, 9, 40, 127
17, 249360, Note_off_c, 9, 40, 64
17, 249600, Note_on_c, 9, 36, 89
17, 249600, Note_on_c, 9, 49, 64
17, 250080, Note_off_c, 9, 49, 64
17, 250080, Note_off_c, 9, 36, 64
17, 250080, Note_on_c, 9, 40, 120
17, 250320, Note_off_c, 9, 40, 64
17, 250320, Note_on_c, 9, 36, 83
17, 250320, Note_on_c, 9, 49, 68
17, 250800, Note_off_c, 9, 49, 64
17, 250800, Note_off_c, 9, 36, 64
17, 250800, Note_on_c, 9, 42, 74
17, 251040, Note_off_c, 9, 42, 64
17, 251040, Note_on_c, 9, 42, 70
17, 251040, Note_on_c, 9, 40, 119
17, 251280, Note_off_c, 9, 40, 64
17, 251280, Note_off_c, 9, 42, 64
17, 251280, Note_on_c, 9, 42, 72
17, 251520, Note_off_c, 9, 42, 64
17, 251520, Note_on_c, 9, 36, 85
17, 251520, Note_on_c, 9, 49, 65
17, 251760, Note_off_c, 9, 49, 64
17, 251760, Note_off_c, 9, 36, 64
17, 251760, Note_on_c, 9, 42, 72
17, 252000, Note_off_c, 9, 42, 64
17, 252000, Note_on_c, 9, 42, 72
17, 252000, Note_on_c, 9, 40, 122
17, 252240, Note_off_c, 9, 40, 64
17, 252240, Note_off_c, 9, 42, 64
17, 252240, Note_on_c, 9, 36, 84
17, 252240, Note_on_c, 9, 49, 55
17, 252480, Note_off_c, 9, 49, 64
17, 252480, Note_off_c, 9, 36, 64
17, 252480, Note_on_c, 9, 42, 73
17, 252720, Note_off_c, 9, 42, 64
17, 252720, Note_on_c, 9, 36, 85
17, 252720, Note_on_c, 9, 42, 70
17, 252960, Note_off_c, 9, 42, 64
17, 252960, Note_off_c, 9, 36, 64
17, 252960, Note_on_c, 9, 42, 68
17, 252960, Note_on_c, 9, 40, 120
17, 253200, Note_off_c, 9, 40, 64
17, 253200, Note_off_c, 9, 42, 64
17, 253200, Note_on_c, 9, 42, 70
17, 253440, Note_off_c, 9, 42, 64
17, 253440, Note_on_c, 9, 36, 82
17, 253440, Note_on_c, 9, 49, 58
17, 253680, Note_off_c, 9, 49, 64
17, 253680, Note_off_c, 9, 36, 64
17, 253680, Note_on_c, 9, 42, 74
17, 253920, Note_off_c, 9, 42, 64
17, 253920, Note_on_c, 9, 42, 75
17, 253920, Note_on_c, 9, 40, 124
17, 254160, Note_off_c, 9, 40, 64
17, 254160, Note_off_c, 9, 42, 64
17, 254160, Note_on_c, 9, 36, 84
17, 254160, Note_on_c, 9, 49, 49
17, 254400, Note_off_c, 9, 49, 64
17, 254400, Note_off_c, 9, 36, 64
17, 254400, Note_on_c, 9, 42, 69
17, 254640, Note_off_c, 9, 42, 64
17, 254640, Note_on_c, 9, 36, 89
17, 254640, Note_on_c, 9, 42, 75
17, 254880, Note_off_c, 9, 42, 64
17, 254880, Note_off_c, 9, 36, 64
17, 254880, Note_on_c, 9, 42, 65
17, 254880, Note_on_c, 9, 40, 127
17, 255120, Note_off_c, 9, 40, 64
17, 255120, Note_off_c, 9, 42, 64
17, 255120, Note_on_c, 9, 36, 87
17, 255120, Note_on_c, 9, 42, 73
17, 255360, Note_off_c, 9, 42, 64
17, 255360, Note_off_c, 9, 36, 64
17, 255360, Note_on_c, 9, 36, 86
17, 255360, Note_on_c, 9, 49, 64
17, 255600, Note_off_c, 9, 49, 64
17, 255600, Note_off_c, 9, 36, 64
17, 255600, Note_on_c, 9, 42, 75
17, 255840, Note_off_c, 9, 42, 64
17, 255840, Note_on_c, 9, 42, 66
17, 255840, Note_on_c, 9, 40, 119
17, 256080, Note_off_c, 9, 40, 64
17, 256080, Note_off_c, 9, 42, 64
17, 256080, Note_on_c, 9, 42, 70
17, 256320, Note_off_c, 9, 42, 64
17, 256320, Note_on_c, 9, 36, 88
17, 256320, Note_on_c, 9, 49, 66
17, 256800, Note_off_c, 9, 49, 64
17, 256800, Note_off_c, 9, 36, 64
17, 256800, Note_on_c, 9, 36, 85
17, 256800, Note_on_c, 9, 57, 55
17, 257280, Note_off_c, 9, 57, 64
17, 257280, Note_off_c, 9, 36, 64
17, 257280, Note_on_c, 9, 36, 82
17, 257280, Note_on_c, 9, 49, 68
17, 257520, Note_off_c, 9, 49, 64
17, 257520, Note_off_c, 9, 36, 64
17, 257520, Note_on_c, 9, 42, 65
17, 257760, Note_off_c, 9, 42, 64
17, 257760, Note_on_c, 9, 42, 72
17, 257760, Note_on_c, 9, 40, 123
17, 258000, Note_off_c, 9, 40, 64
17, 258000, Note_off_c, 9, 42, 64
17, 258000, Note_on_c, 9, 36, 89
17, 258000, Note_on_c, 9, 49, 60
17, 258240, Note_off_c, 9, 49, 64
17, 258240, Note_off_c, 9, 36, 64
17, 258240, Note_on_c, 9, 42, 76
17, 258480, Note_off_c, 9, 42, 64
17, 258480, Note_on_c, 9, 36, 83
17, 258480, Note_on_c, 9, 42, 74
17, 258720, Note_off_c, 9, 42, 64
17, 258720, Note_off_c, 9, 36, 64
17, 258720, Note_on_c, 9, 42, 67
17, 258720, Note_on_c, 9, 40, 124
17, 258960, Note_off_c, 9, 40, 64
17, 258960, Note_off_c, 9, 42, 64
17, 258960, Note_on_c, 9, 42, 75
17, 259200, Note_off_c, 9, 42, 64
17, 259200, Note_on_c, 9, 36, 84
17, 259200, Note_on_c, 9, 49, 56
17, 259440, Note_off_c, 9, 49, 64
17, 259440, Note_off_c, 9, 36, 64
17, 259440, Note_on_c, 9, 42, 72
17, 259680, Note_off_c, 9, 42, 64
17, 259680, Note_on_c, 9, 42, 75
17, 259680, Note_on_c, 9, 40, 122
17, 259920, Note_off_c, 9, 40, 64
17, 259920, Note_off_c, 9, 42, 64
17, 259920, Note_on_c, 9, 36, 84
17, 259920, Note_on_c, 9, 49, 64
17, 260160, Note_off_c, 9, 49, 64
17, 260160, Note_off_c, 9, 36, 64
17, 260160, Note_on_c, 9, 42, 75
17, 260400, Note_off_c, 9, 42, 64
17, 260400, Note_on_c, 9, 42, 71
17, 260640, Note_off_c, 9, 42, 64
17, 260640, Note_on_c, 9, 42, 75
17, 260640, Note_on_c, 9, 40, 121
17, 260880, Note_off_c, 9, 40, 64
17, 260880, Note_off_c, 9, 42, 64
17, 260880, Note_on_c, 9, 42, 65
17, 261120, Note_off_c, 9, 42, 64
17, 261120, Note_on_c, 9, 36, 89
17, 261120, Note_on_c, 9, 49, 51
17, 261360, Note_off_c, 9, 49, 64
17, 261360, Note_off_c, 9, 36, 64
17, 261360, Note_on_c, 9, 42, 65
17, 261600, Note_off_c, 9, 42, 64
17, 261600, Note_on_c, 9, 42, 73
17, 261600, Note_on_c, 9, 40, 122
17, 261840, Note_off_c, 9, 40, 64
17, 261840, Note_off_c, 9, 42, 64
17, 261840, Note_on_c, 9, 36, 89
17, 261840, Note_on_c, 9, 49, 58
17, 262080, Note_off_c, 9, 49, 64
17, 262080, Note_off_c, 9, 36, 64
17, 262080, Note_on_c, 9, 42, 66
17, 262320, Note_off_c, 9, 42, 64
17, 262320, Note_on_c, 9, 42, 74
17, 262560, Note_off_c, 9, 42, 64
17, 262560, Note_on_c, 9, 42, 72
17, 262560, Note_on_c, 9, 40, 121
17, 262800, Note_off_c, 9, 40, 64
17, 262800, Note_off_c, 9, 42, 64
17, 262800, Note_on_c, 9, 36, 88
17, 262800, Note_on_c, 9, 42, 71
17, 263040, Note_off_c, 9, 42, 64
17, 263040, Note_off_c, 9, 36, 64
17, 263040, Note_on_c, 9, 36, 82
17, 263040, Note_on_c, 9, 49, 68
17, 263280, Note_off_c, 9, 49, 64
17, 263280, Note_off_c, 9, 36, 64
17, 263280, Note_on_c, 9, 42, 74
17, 263520, Note_off_c, 9, 42, 64
17, 263520, Note_on_c, 9, 42, 76
17, 263520, Note_on_c, 9, 40, 124
17, 263760, Note_off_c, 9, 40, 64
17, 263760, Note_off_c, 9, 42, 64
17, 263760, Note_on_c, 9, 36, 88
17, 263760, Note_on_c, 9, 42, 71
17, 264000, Note_off_c, 9, 42, 64
17, 264000, Note_off_c, 9, 36, 64
17, 264000, Note_on_c, 9, 36, 86
17, 264000, Note_on_c, 9, 49, 62
17, 264480, Note_off_c, 9, 49, 64
17, 264480, Note_off_c, 9, 36, 64
17, 264480, Note_on_c, 9, 36, 83
17, 264480, Note_on_c, 9, 57, 50
17, 264960, Note_off_c, 9, 57, 64
17, 264960, Note_off_c, 9, 36, 64
17, 264960, Note_on_c, 9, 36, 85
17, 264960, Note_on_c, 9, 49, 70
17, 265200, Note_off_c, 9, 49, 64
17, 265200, Note_off_c, 9, 36, 64
17, 265200, Note_on_c, 9, 42, 69
17, 265440, Note_off_c, 9, 42, 64
17, 265440, Note_on_c, 9, 42, 76
17, 265440, Note_on_c, 9, 40, 126
17, 265680, Note_off_c, 9, 40, 64
17, 265680, Note_off_c, 9, 42, 64
17, 265680, Note_on_c, 9, 36, 82
17, 265680, Note_on_c, 9, 49, 56
17, 265920, Note_off_c, 9, 49, 64
17, 265920, Note_off_c, 9, 36, 64
17, 265920, Note_on_c, 9, 42, 72
17, 266160, Note_off_c, 9, 42, 64
17, 266160, Note_on_c, 9, 36, 88
17, 266160, Note_on_c, 9, 42, 67
17, 266400, Note_off_c, 9, 42, 64
17, 266400, Note_off_c, 9, 36, 64
17, 266400, Note_on_c, 9, 42, 74
17, 266400, Note_on_c, 9, 40, 124
17, 266640, Note_off_c, 9, 40, 64
17, 266640, Note_off_c, 9, 42, 64
17, 266640, Note_on_c, 9, 36, 80
17, 266640, Note_on_c, 9, 42, 70
17, 266880, Note_off_c, 9, 42, 64
17, 266880, Note_off_c, 9, 36, 64
17, 266880, Note_on_c, 9, 36, 84
17, 266880, Note_on_c, 9, 49, 58
17, 267120, Note_off_c, 9, 49, 64
17, 267120, Note_off_c, 9, 36, 64
17, 267120, Note_on_c, 9, 42, 66
17, 267360, Note_off_c, 9, 42, 64
17, 267360, Note_on_c, 9, 42, 67
17, 267360, Note_on_c, 9, 40, 125
17, 267600, Note_off_c, 9, 40, 64
17, 267600, Note_off_c, 9, 42, 64
17, 267600, Note_on_c, 9, 36, 89
17, 267600, Note_on_c, 9, 49, 45
17, 267840, Note_off_c, 9, 49, 64
17, 267840, Note_off_c, 9, 36, 64
17, 267840, Note_on_c, 9, 42, 67
17, 268080, Note_off_c, 9, 42, 64
17, 268080, Note_on_c, 9, 36, 88
17, 268080, Note_on_c, 9, 42, 68
17, 268320, Note_off_c, 9, 42, 64
17, 268320, Note_off_c, 9, 36, 64
17, 268320, Note_on_c, 9, 42, 71
17, 268320, Note_on_c, 9, 40, 127
17, 268560, Note_off_c, 9, 40, 64
17, 268560, Note_off_c, 9, 42, 64
17, 268560, Note_on_c, 9, 36, 84
17, 268560, Note_on_c, 9, 42, 71
17, 268800, Note_off_c, 9, 42, 64
17, 268800, Note_off_c, 9, 36, 64
17, 268800, Note_on_c, 9, 36, 88
17, 268800, Note_on_c, 9, 49, 66
17, 269040, Note_off_c, 9, 49, 64
17, 269040, Note_off_c, 9, 36, 64
17, 269040, Note_on_c, 9, 42, 69
17, 269280, Note_off_c, 9, 42, 64
17, 269280, Note_on_c, 9, 42, 69
17, 269280, Note_on_c, 9, 40, 126
17, 269520, Note_off_c, 9, 40, 64
17, 269520, Note_off_c, 9, 42, 64
17, 269520, Note_on_c, 9, 36, 89
17, 269520, Note_on_c, 9, 49, 47
17, 269760, Note_off_c, 9, 49, 64
17, 269760, Note_off_c, 9, 36, 64
17, 269760, Note_on_c, 9, 42, 66
17, 270000, Note_off_c, 9, 42, 64
17, 270000, Note_on_c, 9, 36, 84
17, 270000, Note_on_c, 9, 42, 65
17, 270240, Note_off_c, 9, 42, 64
17, 270240, Note_off_c, 9, 36, 64
17, 270240, Note_on_c, 9, 42, 74
17, 270240, Note_on_c, 9, 40, 124
17, 270480, Note_off_c, 9, 40, 64
17, 270480, Note_off_c, 9, 42, 64
17, 270480, Note_on_c, 9, 36, 87
17, 270480, Note_on_c, 9, 42, 67
17, 270720, Note_off_c, 9, 42, 64
17, 270720, Note_off_c, 9, 36, 64
17, 270720, Note_on_c, 9, 36, 82
17, 270720, Note_on_c, 9, 49, 64
17, 270960, Note_off_c, 9, 49, 64
17, 270960, Note_off_c, 9, 36, 64
17, 270960, Note_on_c, 9, 42, 67
17, 271200, Note_off_c, 9, 42, 64
17, 271200, Note_on_c, 9, 42, 70
17, 271200, Note_on_c, 9, 40, 122
17, 271440, Note_off_c, 9, 40, 64
17, 271440, Note_off_c, 9, 42, 64
17, 271440, Note_on_c, 9, 42, 66
17, 271680, Note_off_c, 9, 42, 64
17, 271680, Note_on_c, 9, 36, 83
17, 271680, Note_on_c, 9, 49, 62
17, 272160, Note_off_c, 9, 49, 64
17, 272160, Note_off_c, 9, 36, 64
17, 272160, Note_on_c, 9, 36, 86
17, 272160, Note_on_c, 9, 57, 50
17, 272640, Note_off_c, 9, 57, 64
17, 272640, Note_off_c, 9, 36, 64
17, 272640, Note_on_c, 9, 36, 87
17, 272640, Note_on_c, 9, 49, 64
17, 272880, Note_off_c, 9, 49, 64
17, 272880, Note_off_c, 9, 36, 64
17, 272880, Note_on_c, 9, 42, 66
17, 273120, Note_off_c, 9, 42, 64
17, 273120, Note_on_c, 9, 42, 69
17, 273120, Note_on_c, 9, 40, 127
17, 273360, Note_off_c, 9, 40, 64
17, 273360, Note_off_c, 9, 42, 64
17, 273360, Note_on_c, 9, 36, 86
17, 273360, Note_on_c, 9, 49, 65
17, 273600, Note_off_c, 9, 49, 64
17, 273600, Note_off_c, 9, 36, 64
17, 273600, Note_on_c, 9, 42, 65
17, 273840, Note_off_c, 9, 42, 64
17, 273840, Note_on_c, 9, 42, 71
17, 274080, Note_off_c, 9, 42, 64
17, 274080, Note_on_c, 9, 42, 74
17, 274080, Note_on_c, 9, 40, 121
17, 274320, Note_off_c, 9, 40, 64
17, 274320, Note_off_c, 9, 42, 64
17, 274320, Note_on_c, 9, 42, 70
17, 274560, Note_off_c, 9, 42, 64
17, 274560, Note_on_c, 9, 36, 82
17, 274560, Note_on_c, 9, 49, 71
17, 274800, Note_off_c, 9, 49, 64
17, 274800, Note_off_c, 9, 36, 64
17, 274800, Note_on_c, 9, 42, 65
17, 275040, Note_off_c, 9, 42, 64
17, 275040, Note_on_c, 9, 40, 127
17, 275280, Note_off_c, 9, 40, 64
17, 275280, Note_on_c, 9, 36, 88
17, 275280, Note_on_c, 9, 49, 64
17, 275520, Note_off_c, 9, 49, 64
17, 275520, Note_off_c, 9, 36, 64
17, 275520, Note_on_c, 9, 42, 70
17, 275760, Note_off_c, 9, 42, 64
17, 275760, Note_on_c, 9, 36, 80
17, 275760, Note_on_c, 9, 42, 76
17, 276000, Note_off_c, 9, 42, 64
17, 276000, Note_off_c, 9, 36, 64
17, 276000, Note_on_c, 9, 42, 69
17, 276000, Note_on_c, 9, 40, 125
17, 276240, Note_off_c, 9, 40, 64
17, 276240, Note_off_c, 9, 42, 64
17, 276240, Note_on_c, 9, 42, 66
17, 276480, Note_off_c, 9, 42, 64
17, 276480, Note_on_c, 9, 36, 85
17, 276480, Note_on_c, 9, 49, 61
17, 276720, Note_off_c, 9, 49, 64
17, 276720, Note_off_c, 9, 36, 64
17, 276720, Note_on_c, 9, 42, 68
17, 276960, Note_off_c, 9, 42, 64
17, 276960, Note_on_c, 9, 42, 74
17, 276960, Note_on_c, 9, 40, 120
17, 277200, Note_off_c, 9, 40, 64
17, 277200, Note_off_c, 9, 42, 64
17, 277200, Note_on_c, 9, 36, 80
17, 277200, Note_on_c, 9, 49, 46
17, 277440, Note_off_c, 9, 49, 64
17, 277440, Note_off_c, 9, 36, 64
17, 277440, Note_on_c, 9, 42, 65
17, 277680, Note_off_c, 9, 42, 64
17, 277680, Note_on_c, 9, 42, 70
17, 277920, Note_off_c, 9, 42, 64
17, 277920, Note_on_c, 9, 40, 127
17, 278160, Note_off_c, 9, 40, 64
17, 278160, Note_on_c, 9, 42, 65
17, 278400, Note_off_c, 9, 42, 64
17, 278400, Note_on_c, 9, 36, 83
17, 278400, Note_on_c, 9, 49, 66
17, 278640, Note_off_c, 9, 49, 64
17, 278640, Note_off_c, 9, 36, 64
17, 278640, Note_on_c, 9, 42, 66
17, 278880, Note_off_c, 9, 42, 64
17, 278880, Note_on_c, 9, 42, 74
17, 278880, Note_on_c, 9, 40, 121
17, 279120, Note_off_c, 9, 40, 64
17, 279120, Note_off_c, 9, 42, 64
17, 279120, Note_on_c, 9, 42, 69
17, 279360, Note_off_c, 9, 42, 64
17, 279360, Note_on_c, 9, 36, 87
17, 279360, Note_on_c, 9, 49, 65
17, 279840, Note_off_c, 9, 49, 64
17, 279840, Note_off_c, 9, 36, 64
17, 279840, Note_on_c, 9, 36, 82
17, 279840, Note_on_c, 9, 57, 50
17, 280320, Note_off_c, 9, 57, 64
17, 280320, Note_off_c, 9, 36, 64
17, 280320, Note_on_c, 9, 36, 85
17, 280320, Note_on_c, 9, 49, 66
17, 280800, Note_off_c, 9, 49, 64
17, 280800, Note_off_c, 9, 36, 64
17, 280800, Note_on_c, 9, 37, 55
17, 280800, Note_on_c, 9, 42, 51
17, 281040, Note_off_c, 9, 42, 64
17, 281040, Note_off_c, 9, 37, 64
17, 281040, Note_on_c, 9, 36, 83
17, 281040, Note_on_c, 9, 42, 49
17, 281160, Note_off_c, 9, 42, 64
17, 281280, Note_off_c, 9, 36, 64
17, 281280, Note_on_c, 9, 42, 56
17, 281520, Note_off_c, 9, 42, 64
17, 281520, Note_on_c, 9, 42, 53
17, 281760, Note_off_c, 9, 42, 64
17, 281760, Note_on_c, 9, 37, 55
17, 281760, Note_on_c, 9, 42, 49
17, 282000, Note_off_c, 9, 42, 64
17, 282000, Note_off_c, 9, 37, 64
17, 282000, Note_on_c, 9, 42, 55
17, 282240, Note_off_c, 9, 42, 64
17, 282240, Note_on_c, 9, 36, 86
17, 282240, Note_on_c, 9, 42, 50
17, 282480, Note_off_c, 9, 42, 64
17, 282480, Note_off_c, 9, 36, 64
17, 282480, Note_on_c, 9, 42, 51
17, 282720, Note_off_c, 9, 42, 64
17, 282720, Note_on_c, 9, 42, 51
17, 282720, Note_on_c, 9, 37, 55
17, 282960, Note_off_c, 9, 37, 64
17, 282960, Note_off_c, 9, 42, 64
17, 282960, Note_on_c, 9, 36, 89
17, 282960, Note_on_c, 9, 42, 57
17, 283200, Note_off_c, 9, 42, 64
17, 283200, Note_off_c, 9, 36, 64
17, 283200, Note_on_c, 9, 42, 53
17, 283440, Note_off_c, 9, 42, 64
17, 283440, Note_on_c, 9, 42, 53
17, 283680, Note_off_c, 9, 42, 64
17, 283680, Note_on_c, 9, 42, 55
17, 283680, Note_on_c, 9, 37, 55
17, 283920, Note_off_c, 9, 37, 64
17, 283920, Note_off_c, 9, 42, 64
17, 283920, Note_on_c, 9, 42, 55
17, 284160, Note_off_c, 9, 42, 64
17, 284160, Note_on_c, 9, 36, 81
17, 284160, Note_on_c, 9, 42, 55
17, 284400, Note_off_c, 9, 42, 64
17, 284400, Note_off_c, 9, 36, 64
17, 284400, Note_on_c, 9, 42, 49
17, 284640, Note_off_c, 9, 42, 64
17, 284640, Note_on_c, 9, 77, 40
17, 284640, Note_on_c, 9, 42, 58
17, 284640, Note_on_c, 9, 37, 55
17, 284880, Note_off_c, 9, 37, 64
17, 284880, Note_off_c, 9, 42, 64
17, 284880, Note_off_c, 9, 77, 64
17, 284880, Note_on_c, 9, 36, 84
17, 284880, Note_on_c, 9, 42, 54
17, 285120, Note_off_c, 9, 42, 64
17, 285120, Note_off_c, 9, 36, 64
17, 285120, Note_on_c, 9, 42, 51
17, 285360, Note_off_c, 9, 42, 64
17, 285360, Note_on_c, 9, 42, 51
17, 285600, Note_off_c, 9, 42, 64
17, 285600, Note_on_c, 9, 77, 50
17, 285600, Note_on_c, 9, 42, 56
17, 285600, Note_on_c, 9, 37, 55
17, 285840, Note_off_c, 9, 37, 64
17, 285840, Note_off_c, 9, 42, 64
17, 285840, Note_off_c, 9, 77, 64
17, 285840, Note_on_c, 9, 42, 54
17, 286080, Note_off_c, 9, 42, 64
17, 286080, Note_on_c, 9, 36, 80
17, 286080, Note_on_c, 9, 42, 51
17, 286320, Note_off_c, 9, 42, 64
17, 286320, Note_off_c, 9, 36, 64
17, 286320, Note_on_c, 9, 42, 51
17, 286560, Note_off_c, 9, 42, 64
17, 286560, Note_on_c, 9, 42, 57
17, 286560, Note_on_c, 9, 37, 55
17, 286800, Note_off_c, 9, 37, 64
17, 286800, Note_off_c, 9, 42, 64
17, 286800, Note_on_c, 9, 36, 81
17, 286800, Note_on_c, 9, 42, 54
17, 287040, Note_off_c, 9, 42, 64
17, 287040, Note_off_c, 9, 36, 64
17, 287040, Note_on_c, 9, 36, 81
17, 287040, Note_on_c, 9, 42, 51
17, 287280, Note_off_c, 9, 42, 64
17, 287280, Note_off_c, 9, 36, 64
17, 287280, Note_on_c, 9, 42, 57
17, 287520, Note_off_c, 9, 42, 64
17, 287520, Note_on_c, 9, 42, 51
17, 287520, Note_on_c, 9, 37, 55
17, 287760, Note_off_c, 9, 37, 64
17, 287760, Note_off_c, 9, 42, 64
17, 287760, Note_on_c, 9, 42, 58
17, 288000, Note_off_c, 9, 42, 64
17, 288000, Note_on_c, 9, 36, 88
17, 288000, Note_on_c, 9, 42, 55
17, 288240, Note_off_c, 9, 42, 64
17, 288240, Note_off_c, 9, 36, 64
17, 288240, Note_on_c, 9, 42, 57
17, 288480, Note_off_c, 9, 42, 64
17, 288480, Note_on_c, 9, 37, 55
17, 288480, Note_on_c, 9, 42, 52
17, 288720, Note_off_c, 9, 42, 64
17, 288720, Note_off_c, 9, 37, 64
17, 288720, Note_on_c, 9, 36, 87
17, 288720, Note_on_c, 9, 42, 51
17, 288960, Note_off_c, 9, 42, 64
17, 288960, Note_off_c, 9, 36, 64
17, 288960, Note_on_c, 9, 42, 53
17, 289200, Note_off_c, 9, 42, 64
17, 289200, Note_on_c, 9, 42, 55
17, 289440, Note_off_c, 9, 42, 64
17, 289440, Note_on_c, 9, 37, 55
17, 289440, Note_on_c, 9, 42, 58
17, 289680, Note_off_c, 9, 42, 64
17, 289680, Note_off_c, 9, 37, 64
17, 289680, Note_on_c, 9, 42, 53
17, 289920, Note_off_c, 9, 42, 64
17, 289920, Note_on_c, 9, 36, 82
17, 289920, Note_on_c, 9, 42, 55
17, 290160, Note_off_c, 9, 42, 64
17, 290160, Note_off_c, 9, 36, 64
17, 290160, Note_on_c, 9, 42, 49
17, 290400, Note_off_c, 9, 42, 64
17, 290400, Note_on_c, 9, 37, 55
17, 290400, Note_on_c, 9, 42, 57
17, 290640, Note_off_c, 9, 42, 64
17, 290640, Note_off_c, 9, 37, 64
17, 290640, Note_on_c, 9, 36, 85
17, 290640, Note_on_c, 9, 42, 52
17, 290880, Note_off_c, 9, 42, 64
17, 290880, Note_off_c, 9, 36, 64
17, 290880, Note_on_c, 9, 42, 54
17, 291120, Note_off_c, 9, 42, 64
17, 291120, Note_on_c, 9, 42, 52
17, 291360, Note_off_c, 9, 42, 64
17, 291360, Note_on_c, 9, 37, 55
17, 291360, Note_on_c, 9, 42, 49
17, 291600, Note_off_c, 9, 42, 64
17, 291600, Note_off_c, 9, 37, 64
17, 291600, Note_on_c, 9, 42, 55
17, 291840, Note_off_c, 9, 42, 64
17, 291840, Note_on_c, 9, 36, 87
17, 291840, Note_on_c, 9, 42, 57
17, 292080, Note_off_c, 9, 42, 64
17, 292080, Note_off_c, 9, 36, 64
17, 292080, Note_on_c, 9, 42, 55
17, 292320, Note_off_c, 9, 42, 64
17, 292320, Note_on_c, 9, 37, 55
17, 292320, Note_on_c, 9, 42, 56
17, 292560, Note_off_c, 9, 42, 64
17, 292560, Note_off_c, 9, 37, 64
17, 292560, Note_on_c, 9, 36, 89
17, 292560, Note_on_c, 9, 42, 58
17, 292800, Note_off_c, 9, 42, 64
17, 292800, Note_off_c, 9, 36, 64
17, 292800, Note_on_c, 9, 42, 54
17, 293040, Note_off_c, 9, 42, 64
17, 293040, Note_on_c, 9, 42, 49
17, 293280, Note_off_c, 9, 42, 64
17, 293280, Note_on_c, 9, 37, 55
17, 293280, Note_on_c, 9, 42, 54
17, 293520, Note_off_c, 9, 42, 64
17, 293520, Note_off_c, 9, 37, 64
17, 293520, Note_on_c, 9, 42, 57
17, 293760, Note_off_c, 9, 42, 64
17, 293760, Note_on_c, 9, 36, 84
17, 293760, Note_on_c, 9, 42, 56
17, 294000, Note_off_c, 9, 42, 64
17, 294000, Note_off_c, 9, 36, 64
17, 294000, Note_on_c, 9, 42, 58
17, 294240, Note_off_c, 9, 42, 64
17, 294240, Note_on_c, 9, 37, 55
17, 294240, Note_on_c, 9, 42, 56
17, 294480, Note_off_c, 9, 42, 64
17, 294480, Note_off_c, 9, 37, 64
17, 294480, Note_on_c, 9, 36, 84
17, 294480, Note_on_c, 9, 42, 55
17, 294720, Note_off_c, 9, 42, 64
17, 294720, Note_off_c, 9, 36, 64
17, 294720, Note_on_c, 9, 36, 82
17, 294720, Note_on_c, 9, 42, 54
17, 294960, Note_off_c, 9, 42, 64
17, 294960, Note_off_c, 9, 36, 64
17, 294960, Note_on_c, 9, 42, 54
17, 295200, Note_off_c, 9, 42, 64
17, 295200, Note_on_c, 9, 37, 55
17, 295200, Note_on_c, 9, 42, 57
17, 295440, Note_off_c, 9, 42, 64
17, 295440, Note_off_c, 9, 37, 64
17, 295440, Note_on_c, 9, 42, 52
17, 295680, Note_off_c, 9, 42, 64
17, 295680, Note_on_c, 9, 36, 80
17, 295680, Note_on_c, 9, 42, 51
17, 295920, Note_off_c, 9, 42, 64
17, 295920, Note_off_c, 9, 36, 64
17, 295920, Note_on_c, 9, 42, 50
17, 296160, Note_off_c, 9, 42, 64
17, 296160, Note_on_c, 9, 37, 55
17, 296160, Note_on_c, 9, 42, 53
17, 296400, Note_off_c, 9, 42, 64
17, 296400, Note_off_c, 9, 37, 64
17, 296400, Note_on_c, 9, 36, 82
17, 296400, Note_on_c, 9, 42, 56
17, 296640, Note_off_c, 9, 42, 64
17, 296640, Note_off_c, 9, 36, 64
17, 296640, Note_on_c, 9, 42, 58
17, 296880, Note_off_c, 9, 42, 64
17, 296880, Note_on_c, 9, 42, 53
17, 297120, Note_off_c, 9, 42, 64
17, 297120, Note_on_c, 9, 37, 55
17, 297120, Note_on_c, 9, 42, 54
17, 297360, Note_off_c, 9, 42, 64
17, 297360, Note_off_c, 9, 37, 64
17, 297360, Note_on_c, 9, 42, 50
17, 297600, Note_off_c, 9, 42, 64
17, 297600, Note_on_c, 9, 36, 86
17, 297600, Note_on_c, 9, 42, 55
17, 297840, Note_off_c, 9, 42, 64
17, 297840, Note_off_c, 9, 36, 64
17, 297840, Note_on_c, 9, 42, 49
17, 298080, Note_off_c, 9, 42, 64
17, 298080, Note_on_c, 9, 37, 55
17, 298080, Note_on_c, 9, 42, 55
17, 298320, Note_off_c, 9, 42, 64
17, 298320, Note_off_c, 9, 37, 64
17, 298320, Note_on_c, 9, 36, 87
17, 298320, Note_on_c, 9, 42, 50
17, 298560, Note_off_c, 9, 42, 64
17, 298560, Note_off_c, 9, 36, 64
17, 298560, Note_on_c, 9, 42, 50
17, 298800, Note_off_c, 9, 42, 64
17, 298800, Note_on_c, 9, 42, 53
17, 299040, Note_off_c, 9, 42, 64
17, 299040, Note_on_c, 9, 42, 58
17, 299040, Note_on_c, 9, 40, 125
17, 299280, Note_off_c, 9, 40, 64
17, 299280, Note_off_c, 9, 42, 64
17, 299280, Note_on_c, 9, 42, 51
17, 299520, Note_off_c, 9, 42, 64
17, 299520, Note_on_c, 9, 36, 87
17, 299520, Note_on_c, 9, 42, 49
17, 299760, Note_off_c, 9, 42, 64
17, 299760, Note_off_c, 9, 36, 64
17, 299760, Note_on_c, 9, 42, 55
17, 300000, Note_off_c, 9, 42, 64
17, 300000, Note_on_c, 9, 37, 61
17, 300000, Note_on_c, 9, 42, 58
17, 300240, Note_off_c, 9, 42, 64
17, 300240, Note_off_c, 9, 37, 64
17, 300240, Note_on_c, 9, 36, 88
17, 300240, Note_on_c, 9, 42, 56
17, 300480, Note_off_c, 9, 42, 64
17, 300480, Note_off_c, 9, 36, 64
17, 300480, Note_on_c, 9, 42, 51
17, 300720, Note_off_c, 9, 42, 64
17, 300720, Note_on_c, 9, 42, 56
17, 300960, Note_off_c, 9, 42, 64
17, 300960, Note_on_c, 9, 42, 49
17, 300960, Note_on_c, 9, 40, 127
17, 301200, Note_off_c, 9, 40, 64
17, 301200, Note_off_c, 9, 42, 64
17, 301200, Note_on_c, 9, 42, 58
17, 301440, Note_off_c, 9, 42, 64
17, 301440, Note_on_c, 9, 36, 89
17, 301440, Note_on_c, 9, 42, 58
17, 301680, Note_off_c, 9, 42, 64
17, 301680, Note_off_c, 9, 36, 64
17, 301680, Note_on_c, 9, 42, 55
17, 301920, Note_off_c, 9, 42, 64
17, 301920, Note_on_c, 9, 37, 61
17, 301920, Note_on_c, 9, 42, 52
17, 302160, Note_off_c, 9, 42, 64
17, 302160, Note_off_c, 9, 37, 64
17, 302160, Note_on_c, 9, 36, 80
17, 302160, Note_on_c, 9, 42, 49
17, 302400, Note_off_c, 9, 42, 64
17, 302400, Note_off_c, 9, 36, 64
17, 302400, Note_on_c, 9, 36, 81
17, 302400, Note_on_c, 9, 42, 51
17, 302640, Note_off_c, 9, 42, 64
17, 302640, Note_off_c, 9, 36, 64
17, 302640, Note_on_c, 9, 42, 55
17, 302880, Note_off_c, 9, 42, 64
17, 302880, Note_on_c, 9, 40, 119
17, 303120, Note_off_c, 9, 40, 64
17, 303120, Note_on_c, 9, 40, 120
17, 303360, Note_off_c, 9, 40, 64
17, 303360, Note_on_c, 9, 36, 87
17, 303360, Note_on_c, 9, 49, 60
17, 303840, Note_off_c, 9, 49, 64
17, 303840, Note_off_c, 9, 36, 64
17, 303840, Note_on_c, 9, 42, 72
17, 303840, Note_on_c, 9, 40, 119
17, 304080, Note_off_c, 9, 40, 64
17, 304080, Note_off_c, 9, 42, 64
17, 304080, Note_on_c, 9, 36, 82
17, 304080, Note_on_c, 9, 42, 46
17, 304320, Note_off_c, 9, 42, 64
17, 304320, Note_off_c, 9, 36, 64
17, 304320, Note_on_c, 9, 42, 70
17, 304560, Note_off_c, 9, 42, 64
17, 304560, Note_on_c, 9, 36, 86
17, 304560, Note_on_c, 9, 42, 47
17, 304800, Note_off_c, 9, 42, 64
17, 304800, Note_off_c, 9, 36, 64
17, 304800, Note_on_c, 9, 42, 73
17, 304800, Note_on_c, 9, 40, 120
17, 305040, Note_off_c, 9, 40, 64
17, 305040, Note_off_c, 9, 42, 64
17, 305040, Note_on_c, 9, 42, 53
17, 305280, Note_off_c, 9, 42, 64
17, 305280, Note_on_c, 9, 36, 81
17, 305280, Note_on_c, 9, 42, 78
17, 305520, Note_off_c, 9, 42, 64
17, 305520, Note_off_c, 9, 36, 64
17, 305520, Note_on_c, 9, 42, 51
17, 305760, Note_off_c, 9, 42, 64
17, 305760, Note_on_c, 9, 42, 72
17, 305760, Note_on_c, 9, 40, 124
17, 306000, Note_off_c, 9, 40, 64
17, 306000, Note_off_c, 9, 42, 64
17, 306000, Note_on_c, 9, 36, 82
17, 306000, Note_on_c, 9, 42, 54
17, 306240, Note_off_c, 9, 42, 64
17, 306240, Note_off_c, 9, 36, 64
17, 306240, Note_on_c, 9, 42, 77
17, 306480, Note_off_c, 9, 42, 64
17, 306480, Note_on_c, 9, 36, 87
17, 306480, Note_on_c, 9, 42, 54
17, 306720, Note_off_c, 9, 42, 64
17, 306720, Note_off_c, 9, 36, 64
17, 306720, Note_on_c, 9, 42, 76
17, 306720, Note_on_c, 9, 40, 120
17, 306960, Note_off_c, 9, 40, 64
17, 306960, Note_off_c, 9, 42, 64
17, 306960, Note_on_c, 9, 42, 55
17, 307200, Note_off_c, 9, 42, 64
17, 307200, Note_on_c, 9, 49, 61
17, 307200, Note_on_c, 9, 40, 124
17, 307440, Note_off_c, 9, 40, 64
17, 307440, Note_off_c, 9, 49, 64
17, 307440, Note_on_c, 9, 36, 49
17, 307680, Note_off_c, 9, 36, 64
17, 307680, Note_on_c, 9, 36, 55
17, 307920, Note_off_c, 9, 36, 64
17, 307920, Note_on_c, 9, 36, 50
17, 308160, Note_off_c, 9, 36, 64
17, 308160, Note_on_c, 9, 36, 51
17, 308400, Note_off_c, 9, 36, 64
17, 308400, Note_on_c, 9, 36, 63
17, 308640, Note_off_c, 9, 36, 64
17, 308640, Note_on_c, 9, 36, 76
17, 308880, Note_off_c, 9, 36, 64
17, 308880, Note_on_c, 9, 36, 81
17, 309120, Note_off_c, 9, 36, 64
17, 309120, Note_on_c, 9, 41, 85
17, 309140, Note_on_c, 9, 41, 80
17, 309600, Note_off_c, 9, 41, 64
17, 309600, Note_off_c, 9, 41, 64
17, 309600, Note_on_c, 9, 41, 85
17, 309620, Note_on_c, 9, 41, 80
17, 310060, Note_off_c, 9, 41, 64
17, 310060, Note_on_c, 9, 40, 90
17, 310080, Note_off_c, 9, 41, 64
17, 310080, Note_on_c, 9, 40, 126
17, 310540, Note_off_c, 9, 40, 64
17, 310540, Note_on_c, 9, 40, 90
17, 310560, Note_off_c, 9, 40, 64
17, 310560, Note_on_c, 9, 40, 121
17, 311020, Note_off_c, 9, 40, 64
17, 311040, Note_off_c, 9, 40, 64
17, 311040, Note_on_c, 9, 36, 82
17, 311040, Note_on_c, 9, 49, 62
17, 311520, Note_off_c, 9, 49, 64
17, 311520, Note_off_c, 9, 36, 64
17, 311520, Note_on_c, 9, 40, 124
17, 311760, Note_off_c, 9, 40, 64
17, 311760, Note_on_c, 9, 36, 88
17, 311760, Note_on_c, 9, 49, 68
17, 312240, Note_off_c, 9, 49, 64
17, 312240, Note_off_c, 9, 36, 64
17, 312240, Note_on_c, 9, 42, 68
17, 312480, Note_off_c, 9, 42, 64
17, 312480, Note_on_c, 9, 42, 65
17, 312480, Note_on_c, 9, 40, 127
17, 312720, Note_off_c, 9, 40, 64
17, 312720, Note_off_c, 9, 42, 64
17, 312720, Note_on_c, 9, 42, 70
17, 312960, Note_off_c, 9, 42, 64
17, 312960, Note_on_c, 9, 36, 88
17, 312960, Note_on_c, 9, 49, 71
17, 313440, Note_off_c, 9, 49, 64
17, 313440, Note_off_c, 9, 36, 64
17, 313440, Note_on_c, 9, 40, 122
17, 313680, Note_off_c, 9, 40, 64
17, 313680, Note_on_c, 9, 36, 88
17, 313680, Note_on_c, 9, 49, 52
17, 314160, Note_off_c, 9, 49, 64
17, 314160, Note_off_c, 9, 36, 64
17, 314160, Note_on_c, 9, 36, 86
17, 314160, Note_on_c, 9, 42, 76
17, 314400, Note_off_c, 9, 42, 64
17, 314400, Note_off_c, 9, 36, 64
17, 314400, Note_on_c, 9, 42, 75
17, 314400, Note_on_c, 9, 40, 121
17, 314640, Note_off_c, 9, 40, 64
17, 314640, Note_off_c, 9, 42, 64
17, 314640, Note_on_c, 9, 42, 73
17, 314880, Note_off_c, 9, 42, 64
17, 314880, Note_on_c, 9, 36, 84
17, 314880, Note_on_c, 9, 49, 67
17, 315120, Note_off_c, 9, 49, 64
17, 315120, Note_off_c, 9, 36, 64
17, 315120, Note_on_c, 9, 42, 75
17, 315360, Note_off_c, 9, 42, 64
17, 315360, Note_on_c, 9, 42, 71
17, 315360, Note_on_c, 9, 40, 120
17, 315600, Note_off_c, 9, 40, 64
17, 315600, Note_off_c, 9, 42, 64
17, 315600, Note_on_c, 9, 36, 81
17, 315600, Note_on_c, 9, 49, 53
17, 315840, Note_off_c, 9, 49, 64
17, 315840, Note_off_c, 9, 36, 64
17, 315840, Note_on_c, 9, 42, 75
17, 316080, Note_off_c, 9, 42, 64
17, 316080, Note_on_c, 9, 42, 65
17, 316320, Note_off_c, 9, 42, 64
17, 316320, Note_on_c, 9, 42, 66
17, 316320, Note_on_c, 9, 40, 124
17, 316560, Note_off_c, 9, 40, 64
17, 316560, Note_off_c, 9, 42, 64
17, 316560, Note_on_c, 9, 36, 80
17, 316560, Note_on_c, 9, 42, 71
17, 316800, Note_off_c, 9, 42, 64
17, 316800, Note_off_c, 9, 36, 64
17, 316800, Note_on_c, 9, 36, 83
17, 316800, Note_on_c, 9, 49, 60
17, 317040, Note_off_c, 9, 49, 64
17, 317040, Note_off_c, 9, 36, 64
17, 317040, Note_on_c, 9, 42, 72
17, 317280, Note_off_c, 9, 42, 64
17, 317280, Note_on_c, 9, 42, 74
17, 317280, Note_on_c, 9, 40, 127
17, 317520, Note_off_c, 9, 40, 64
17, 317520, Note_off_c, 9, 42, 64
17, 317520, Note_on_c, 9, 36, 88
17, 317520, Note_on_c, 9, 42, 70
17, 317760, Note_off_c, 9, 42, 64
17, 317760, Note_off_c, 9, 36, 64
17, 317760, Note_on_c, 9, 36, 84
17, 317760, Note_on_c, 9, 49, 60
17, 318240, Note_off_c, 9, 49, 64
17, 318240, Note_off_c, 9, 36, 64
17, 318240, Note_on_c, 9, 36, 80
17, 318240, Note_on_c, 9, 57, 50
17, 318720, Note_off_c, 9, 57, 64
17, 318720, Note_off_c, 9, 36, 64
17, 318720, Note_on_c, 9, 36, 84
17, 318720, Note_on_c, 9, 49, 61
17, 319200, Note_off_c, 9, 49, 64
17, 319200, Note_off_c, 9, 36, 64
17, 319200, Note_on_c, 9, 40, 121
17, 319440, Note_off_c, 9, 40, 64
17, 319440, Note_on_c, 9, 36, 86
17, 319440, Note_on_c, 9, 49, 62
17, 319920, Note_off_c, 9, 49, 64
17, 319920, Note_off_c, 9, 36, 64
17, 319920, Note_on_c, 9, 42, 76
17, 320160, Note_off_c, 9, 42, 64
17, 320160, Note_on_c, 9, 42, 65
17, 320160, Note_on_c, 9, 40, 125
17, 320400, Note_off_c, 9, 40, 64
17, 320400, Note_off_c, 9, 42, 64
17, 320400, Note_on_c, 9, 42, 76
17, 320640, Note_off_c, 9, 42, 64
17, 320640, Note_on_c, 9, 36, 89
17, 320640, Note_on_c, 9, 49, 70
17, 321120, Note_off_c, 9, 49, 64
17, 321120, Note_off_c, 9, 36, 64
17, 321120, Note_on_c, 9, 40, 122
17, 321360, Note_off_c, 9, 40, 64
17, 321360, Note_on_c, 9, 36, 83
17, 321360, Note_on_c, 9, 49, 66
17, 321840, Note_off_c, 9, 49, 64
17, 321840, Note_off_c, 9, 36, 64
17, 321840, Note_on_c, 9, 36, 85
17, 321840, Note_on_c, 9, 42, 73
17, 322080, Note_off_c, 9, 42, 64
17, 322080, Note_off_c, 9, 36, 64
17, 322080, Note_on_c, 9, 42, 74
17, 322080, Note_on_c, 9, 40, 119
17, 322320, Note_off_c, 9, 40, 64
17, 322320, Note_off_c, 9, 42, 64
17, 322320, Note_on_c, 9, 36, 89
17, 322320, Note_on_c, 9, 42, 68
17, 322560, Note_off_c, 9, 42, 64
17, 322560, Note_off_c, 9, 36, 64
17, 322560, Note_on_c, 9, 36, 81
17, 322560, Note_on_c, 9, 49, 63
17, 323040, Note_off_c, 9, 49, 64
17, 323040, Note_off_c, 9, 36, 64
17, 323040, Note_on_c, 9, 40, 121
17, 323280, Note_off_c, 9, 40, 64
17, 323280, Note_on_c, 9, 36, 87
17, 323280, Note_on_c, 9, 49, 48
17, 323520, Note_off_c, 9, 49, 64
17, 323520, Note_off_c, 9, 36, 64
17, 323520, Note_on_c, 9, 42, 71
17, 323760, Note_off_c, 9, 42, 64
17, 323760, Note_on_c, 9, 42, 65
17, 324000, Note_off_c, 9, 42, 64
17, 324000, Note_on_c, 9, 42, 75
17, 324000, Note_on_c, 9, 40, 122
17, 324240, Note_off_c, 9, 40, 64
17, 324240, Note_off_c, 9, 42, 64
17, 324240, Note_on_c, 9, 42, 68
17, 324480, Note_off_c, 9, 42, 64
17, 324480, Note_on_c, 9, 36, 87
17, 324480, Note_on_c, 9, 49, 65
17, 324720, Note_off_c, 9, 49, 64
17, 324720, Note_off_c, 9, 36, 64
17, 324720, Note_on_c, 9, 42, 65
17, 324960, Note_off_c, 9, 42, 64
17, 324960, Note_on_c, 9, 42, 68
17, 324960, Note_on_c, 9, 40, 126
17, 325200, Note_off_c, 9, 40, 64
17, 325200, Note_off_c, 9, 42, 64
17, 325200, Note_on_c, 9, 36, 83
17, 325200, Note_on_c, 9, 42, 70
17, 325440, Note_off_c, 9, 42, 64
17, 325440, Note_off_c, 9, 36, 64
17, 325440, Note_on_c, 9, 36, 87
17, 325440, Note_on_c, 9, 49, 59
17, 325680, Note_off_c, 9, 49, 64
17, 325680, Note_off_c, 9, 36, 64
17, 325920, Note_on_c, 9, 36, 87
17, 325920, Note_on_c, 9, 57, 50
17, 326400, Note_off_c, 9, 57, 64
17, 326400, Note_off_c, 9, 36, 64
17, 326400, Note_on_c, 9, 36, 81
17, 326400, Note_on_c, 9, 49, 60
17, 326880, Note_off_c, 9, 49, 64
17, 326880, Note_off_c, 9, 36, 64
17, 326880, Note_on_c, 9, 40, 127
17, 327120, Note_off_c, 9, 40, 64
17, 327120, Note_on_c, 9, 36, 84
17, 327120, Note_on_c, 9, 49, 44
17, 327600, Note_off_c, 9, 49, 64
17, 327600, Note_off_c, 9, 36, 64
17, 327600, Note_on_c, 9, 42, 66
17, 327840, Note_off_c, 9, 42, 64
17, 327840, Note_on_c, 9, 42, 67
17, 327840, Note_on_c, 9, 40, 124
17, 328080, Note_off_c, 9, 40, 64
17, 328080, Note_off_c, 9, 42, 64
17, 328080, Note_on_c, 9, 42, 66
17, 328320, Note_off_c, 9, 42, 64
17, 328320, Note_on_c, 9, 36, 89
17, 328320, Note_on_c, 9, 49, 59
17, 328800, Note_off_c, 9, 49, 64
17, 328800, Note_off_c, 9, 36, 64
17, 328800, Note_on_c, 9, 40, 123
17, 329040, Note_off_c, 9, 40, 64
17, 329040, Note_on_c, 9, 36, 81
17, 329040, Note_on_c, 9, 49, 60
17, 329520, Note_off_c, 9, 49, 64
17, 329520, Note_off_c, 9, 36, 64
17, 329520, Note_on_c, 9, 36, 80
17, 329520, Note_on_c, 9, 42, 67
17, 329760, Note_off_c, 9, 42, 64
17, 329760, Note_off_c, 9, 36, 64
17, 329760, Note_on_c, 9, 42, 75
17, 329760, Note_on_c, 9, 40, 122
17, 330000, Note_off_c, 9, 40, 64
17, 330000, Note_off_c, 9, 42, 64
17, 330000, Note_on_c, 9, 42, 66
17, 330240, Note_off_c, 9, 42, 64
17, 330240, Note_on_c, 9, 36, 88
17, 330240, Note_on_c, 9, 42, 65
17, 330480, Note_off_c, 9, 42, 64
17, 330480, Note_off_c, 9, 36, 64
17, 330480, Note_on_c, 9, 42, 72
17, 330720, Note_off_c, 9, 42, 64
17, 330720, Note_on_c, 9, 42, 66
17, 330720, Note_on_c, 9, 40, 120
17, 330960, Note_off_c, 9, 40, 64
17, 330960, Note_off_c, 9, 42, 64
17, 330960, Note_on_c, 9, 36, 88
17, 330960, Note_on_c, 9, 49, 59
17, 331440, Note_off_c, 9, 49, 64
17, 331440, Note_off_c, 9, 36, 64
17, 331440, Note_on_c, 9, 42, 73
17, 331680, Note_off_c, 9, 42, 64
17, 331680, Note_on_c, 9, 40, 123
17, 331720, Note_on_c, 9, 40, 108
17, 331920, Note_off_c, 9, 40, 64
17, 332160, Note_on_c, 9, 36, 79
17, 332160, Note_on_c, 9, 49, 63
17, 332200, Note_off_c, 9, 40, 64
17, 332400, Note_off_c, 9, 49, 64
17, 332480, Note_off_c, 9, 36, 64
17, 332480, Note_on_c, 9, 36, 74
17, 332480, Note_on_c, 9, 57, 45
17, 332800, Note_off_c, 9, 57, 64
17, 332800, Note_off_c, 9, 36, 64
17, 332800, Note_on_c, 9, 36, 79
17, 332800, Note_on_c, 9, 49, 45
17, 333120, Note_off_c, 9, 49, 64
17, 333120, Note_off_c, 9, 36, 64
17, 333120, Note_on_c, 9, 36, 77
17, 333120, Note_on_c, 9, 57, 45
17, 333440, Note_off_c, 9, 57, 64
17, 333440, Note_off_c, 9, 36, 64
17, 333440, Note_on_c, 9, 36, 78
17, 333440, Note_on_c, 9, 49, 45
17, 333760, Note_off_c, 9, 49, 64
17, 333760, Note_off_c, 9, 36, 64
17, 333760, Note_on_c, 9, 36, 77
17, 333760, Note_on_c, 9, 57, 45
17, 334080, Note_off_c, 9, 57, 64
17, 334080, Note_off_c, 9, 36, 64
17, 334080, Note_on_c, 9, 36, 81
17, 334080, Note_on_c, 9, 49, 60
17, 334560, Note_off_c, 9, 49, 64
17, 334560, Note_off_c, 9, 36, 64
17, 334560, Note_on_c, 9, 40, 123
17, 334800, Note_off_c, 9, 40, 64
17, 334800, Note_on_c, 9, 36, 87
17, 334800, Note_on_c, 9, 49, 63
17, 335280, Note_off_c, 9, 49, 64
17, 335280, Note_off_c, 9, 36, 64
17, 335280, Note_on_c, 9, 36, 80
17, 335280, Note_on_c, 9, 42, 71
17, 335520, Note_off_c, 9, 42, 64
17, 335520, Note_off_c, 9, 36, 64
17, 335520, Note_on_c, 9, 42, 75
17, 335520, Note_on_c, 9, 40, 123
17, 335760, Note_off_c, 9, 40, 64
17, 335760, Note_off_c, 9, 42, 64
17, 335760, Note_on_c, 9, 42, 65
17, 336000, Note_off_c, 9, 42, 64
17, 336000, Note_on_c, 9, 36, 88
17, 336000, Note_on_c, 9, 49, 65
17, 336480, Note_off_c, 9, 49, 64
17, 336480, Note_off_c, 9, 36, 64
17, 336480, Note_on_c, 9, 40, 119
17, 336640, Note_off_c, 9, 40, 64
17, 336720, Note_on_c, 9, 36, 83
17, 336720, Note_on_c, 9, 49, 52
17, 337200, Note_off_c, 9, 49, 64
17, 337200, Note_off_c, 9, 36, 64
17, 337200, Note_on_c, 9, 36, 84
17, 337440, Note_off_c, 9, 36, 64
17, 337440, Note_on_c, 9, 40, 125
17, 337480, Note_on_c, 9, 40, 110
17, 337680, Note_off_c, 9, 40, 64
17, 337680, Note_on_c, 9, 36, 89
17, 337720, Note_off_c, 9, 40, 64
17, 337920, Note_off_c, 9, 36, 64
17, 337920, Note_on_c, 9, 36, 82
17, 337920, Note_on_c, 9, 49, 69
17, 338400, Note_off_c, 9, 49, 64
17, 338400, Note_off_c, 9, 36, 64
17, 338400, Note_on_c, 9, 42, 72
17, 338880, Note_off_c, 9, 42, 64
17, 338880, Note_on_c, 9, 42, 73
17, 339360, Note_off_c, 9, 42, 64
17, 339360, Note_on_c, 9, 42, 79
17, 339840, Note_off_c, 9, 42, 64
17, 339840, Note_on_c, 9, 36, 86
17, 339840, Note_on_c, 9, 49, 72
17, 340320, Note_off_c, 9, 49, 64
17, 340320, Note_off_c, 9, 36, 64
17, 340320, Note_on_c, 9, 42, 79
17, 340800, Note_off_c, 9, 42, 64
17, 340800, Note_on_c, 9, 36, 85
17, 340800, Note_on_c, 9, 49, 69
17, 341280, Note_off_c, 9, 49, 64
17, 341280, Note_off_c, 9, 36, 64
17, 341280, Note_on_c, 9, 42, 73
17, 341760, Note_off_c, 9, 42, 64
17, 341760, Note_on_c, 9, 36, 85
17, 341760, Note_on_c, 9, 49, 70
17, 343680, Note_off_c, 9, 49, 64
17, 343680, Note_off_c, 9, 36, 64
17, 345120, Control_c, 9, 11, 30
17, 345120, Note_on_c, 9, 46, 40
17, 345160, Control_c, 9, 11, 32
17, 345196, Control_c, 9, 11, 34
17, 345236, Control_c, 9, 11, 36
17, 345240, Note_off_c, 9, 46, 64
17, 345240, Note_on_c, 9, 46, 40
17, 345272, Control_c, 9, 11, 38
17, 345312, Control_c, 9, 11, 40
17, 345352, Control_c, 9, 11, 42
17, 345360, Note_off_c, 9, 46, 64
17, 345360, Note_on_c, 9, 46, 40
17, 345388, Control_c, 9, 11, 44
17, 345428, Control_c, 9, 11, 46
17, 345464, Control_c, 9, 11, 48
17, 345480, Note_off_c, 9, 46, 64
17, 345480, Note_on_c, 9, 46, 40
17, 345504, Control_c, 9, 11, 50
17, 345544, Control_c, 9, 11, 52
17, 345580, Control_c, 9, 11, 54
17, 345600, Note_off_c, 9, 46, 64
17, 345600, Note_on_c, 9, 46, 40
17, 345640, Control_c, 9, 11, 57
17, 345676, Control_c, 9, 11, 59
17, 345716, Control_c, 9, 11, 61
17, 345720, Note_off_c, 9, 46, 64
17, 345720, Note_on_c, 9, 46, 40
17, 345752, Control_c, 9, 11, 63
17, 345792, Control_c, 9, 11, 65
17, 345832, Control_c, 9, 11, 67
17, 345840, Note_off_c, 9, 46, 64
17, 345840, Note_on_c, 9, 46, 40
17, 345868, Control_c, 9, 11, 69
17, 345908, Control_c, 9, 11, 71
17, 345944, Control_c, 9, 11, 73
17, 345960, Note_off_c, 9, 46, 64
17, 345960, Note_on_c, 9, 46, 40
17, 345984, Control_c, 9, 11, 75
17, 346024, Control_c, 9, 11, 77
17, 346080, Note_off_c, 9, 46, 64
17, 346080, Control_c, 9, 11, 80
17, 346080, Note_on_c, 9, 46, 40
17, 346200, Note_off_c, 9, 46, 64
17, 346200, Note_on_c, 9, 46, 40
17, 346320, Note_off_c, 9, 46, 64
17, 346320, Note_on_c, 9, 46, 40
17, 346440, Note_off_c, 9, 46, 64
17, 346440, Note_on_c, 9, 46, 40
17, 346560, Note_off_c, 9, 46, 64
17, 346560, Control_c, 9, 11, 30
17, 346560, Note_on_c, 9, 46, 70
17, 346680, Note_off_c, 9, 46, 64
17, 346680, Note_on_c, 9, 46, 40
17, 346696, Control_c, 9, 11, 45
17, 346728, Control_c, 9, 11, 49
17, 346764, Control_c, 9, 11, 53
17, 346800, Note_off_c, 9, 46, 64
17, 346800, Control_c, 9, 11, 57
17, 346800, Note_on_c, 9, 46, 40
17, 346836, Control_c, 9, 11, 61
17, 346872, Control_c, 9, 11, 65
17, 346908, Control_c, 9, 11, 69
17, 346920, Note_off_c, 9, 46, 64
17, 346920, Note_on_c, 9, 46, 40
17, 346952, Control_c, 9, 11, 74
17, 346988, Control_c, 9, 11, 78
17, 347024, Control_c, 9, 11, 82
17, 347040, Note_off_c, 9, 46, 64
17, 347040, Note_on_c, 9, 46, 40
17, 347068, Control_c, 9, 11, 87
17, 347104, Control_c, 9, 11, 91
17, 347140, Control_c, 9, 11, 85
17, 347160, Note_off_c, 9, 46, 64
17, 347160, Note_on_c, 9, 46, 40
17, 347196, Control_c, 9, 11, 91
17, 347232, Control_c, 9, 11, 95
17, 347264, Control_c, 9, 11, 99
17, 347280, Note_off_c, 9, 46, 64
17, 347280, Note_on_c, 9, 46, 40
17, 347312, Control_c, 9, 11, 104
17, 347348, Control_c, 9, 11, 108
17, 347380, Control_c, 9, 11, 112
17, 347400, Note_off_c, 9, 46, 64
17, 347400, Note_on_c, 9, 46, 40
17, 347436, Control_c, 9, 11, 118
17, 347472, Control_c, 9, 11, 122
17, 347508, Control_c, 9, 11, 127
17, 347520, Note_off_c, 9, 46, 64
17, 347520, Note_on_c, 9, 46, 40
17, 348240, Note_off_c, 9, 46, 64
17, 348240, Note_on_c, 9, 59, 25
17, 348300, Note_off_c, 9, 59, 64
17, 348320, Note_on_c, 9, 59, 25
17, 348400, Note_off_c, 9, 59, 64
17, 348440, Note_on_c, 9, 59, 25
17, 348520, Note_off_c, 9, 59, 64
17, 348520, Note_on_c, 9, 59, 25
17, 348600, Note_off_c, 9, 59, 64
17, 348600, Note_on_c, 9, 59, 25
17, 348760, Note_off_c, 9, 59, 64
17, 348800, Note_on_c, 9, 59, 35
17, 348880, Note_off_c, 9, 59, 64
17, 348960, Note_on_c, 9, 59, 35
17, 349040, Note_off_c, 9, 59, 64
17, 349080, Note_on_c, 9, 59, 30
17, 349200, Note_on_c, 9, 59, 35
17, 349240, Note_off_c, 9, 59, 64
17, 349280, Note_off_c, 9, 59, 64
17, 349320, Note_on_c, 9, 59, 40
17, 349440, Note_on_c, 9, 59, 40
17, 349480, Note_off_c, 9, 59, 64
17, 349600, Note_off_c, 9, 59, 64
17, 349600, Note_on_c, 9, 59, 40
17, 349800, Note_off_c, 9, 59, 64
17, 349800, Note_on_c, 9, 59, 40
17, 349920, Note_off_c, 9, 59, 64
17, 349920, Note_on_c, 9, 59, 50
17, 350160, Note_off_c, 9, 59, 64
17, 350160, Note_on_c, 9, 59, 50
17, 350400, Note_off_c, 9, 59, 64
17, 350400, Note_on_c, 9, 59, 50
17, 350640, Note_off_c, 9, 59, 64
17, 350640, Note_on_c, 9, 59, 35
17, 350720, Note_off_c, 9, 59, 64
17, 350720, Note_on_c, 9, 59, 35
17, 350800, Note_off_c, 9, 59, 64
17, 350800, Note_on_c, 9, 59, 40
17, 350960, Note_off_c, 9, 59, 64
17, 350960, Note_on_c, 9, 59, 30
17, 351120, Note_off_c, 9, 59, 64
17, 351120, Note_on_c, 9, 59, 30
17, 351360, Note_off_c, 9, 59, 64
17, 351360, Note_on_c, 9, 59, 40
17, 351600, Note_off_c, 9, 59, 64
17, 351600, Note_on_c, 9, 59, 50
17, 351840, Note_off_c, 9, 59, 64
17, 351960, Note_on_c, 9, 59, 50
17, 353160, Note_off_c, 9, 59, 64
17, 353160, Note_on_c, 9, 82, 15
17, 353220, Note_off_c, 9, 82, 64
17, 353220, Note_on_c, 9, 82, 20
17, 353280, Note_off_c, 9, 82, 64
17, 353280, Note_on_c, 9, 82, 25
17, 353340, Note_off_c, 9, 82, 64
17, 353340, Note_on_c, 9, 82, 25
17, 353400, Note_off_c, 9, 82, 64
17, 353400, Note_on_c, 9, 82, 40
17, 353460, Note_off_c, 9, 82, 64
17, 353460, Note_on_c, 9, 82, 25
17, 353520, Note_off_c, 9, 82, 64
17, 353520, Note_on_c, 9, 82, 25
17, 353580, Note_off_c, 9, 82, 64
17, 353580, Note_on_c, 9, 82, 10
17, 353640, Note_on_c, 9, 59, 40
17, 353820, Note_off_c, 9, 82, 64
17, 354920, Note_off_c, 9, 59, 64
17, 355200, Control_c, 9, 121, 0
17, 355200, End_track
18, 0, Start_track
18, 0, Title_t, """Sweet Child O' Mine"""
18, 0, MIDI_port, 0
18, 0, End_track
19, 0, Start_track
19, 0, Title_t, "by Guns N' Roses"
19, 0, MIDI_port, 0
19, 0, End_track
20, 0, Start_track
20, 0, Title_t, "Sequenced by Stan C"
20, 0, MIDI_port, 0
20, 0, End_track
21, 0, Start_track
21, 0, Title_t, "May 1998"
21, 0, MIDI_port, 0
21, 0, End_track
0, 0, End_of_file
