0, 0, Header, 1, 8, 96
1, 0, Start_track
1, 0, Text_t, "http://www.beepbox.co/#5sbk5l00e0wt9a7g0wjji4r1w12111331111111111111f00500000003000000000d11111101111111111111c02000220000000000000h00000000000000000000v10000000002200030000o3420b28p2CcoNz6ct2lIcoNz6coW4HopE0y6gFzEiFr6Kv2cz7gBiSds-4pj04gO5ct2lboRPTfwoW4GmNHDKv280004gx248gx248gy48kNz748gx3p2dZ4GC7gaMm0wgl0G1k221m2A4w0qwkwH1o2Q5wawlwG1k2E5EaMkwJ1k0qglwI1q2M5gaMl0G1k2Q5oagmwG1i0qMm0J1o2E5oawl0G1q2I58bgl0F1m0r0mwI1k2I5gawl0J1m2A5EawkwH1o0rgm0G1m2E5gawl0J1i2A5EawkwH1o0rggwawlwG1k2U5Eb0n0J180AgiM944w0QNQa1Rk1jf7PqkON0o70gNWUShI0O0Gsr1M4c3MwE70Q1UhEEOao4QR-cz4cyyxuF130x0g8awl0G1k271i2A4w2E58aMm000000OqrbWCvaoU8Qo4CzNG2r7NB7hNqq_JeYarrNM3IyCUua9f6K0wuUUWgF5j3zw7y85dFWOWhU4OkSzw6hgaqL6piCNZx5dfYeEOfy8fLrxMbkeoU1G7qFFPetTqF2hVAsEt0YwMzAk3HE3GerhiD6BiosWyeNapsrei393IQCMs37tE7rg7M0KEOao4kRK0paD6JO3Akk2CQY1VpU4kT30gcCCzNiCLQqpY1RzxkS73dcu1WMgCx6hNu4V22f0d555555555555550Qkkkkkkki55555550SQkkkkkki55555550Od55555541hhhhhhgdl555555555555550SQkkkkkki55555550SQkkkkkknQkkkkkk3phhhhhhhrhhhjhhgtgX1XKakkkkkk3vgeKwfaehhhhhhgdl5555555R5555550TkkkkkkkkkkkoJ0CCUpU00CJcg2-CAq8aGCGCGCGCGCGCGwkT30hOWWQM9j1B8iK8FOIGCHyu9UHyauaF7aGGOu9UHyasHaEFFGFFF6GCKCKCKCCCKCKCGAqV6SOGFcOYOTCaaWaabaaa92w000000000"
1, 0, Tempo, 340909
1, 0, Time_signature, 8, 2, 24, 8
1, 0, Key_signature, 6, "major"
1, 0, Marker_t, "Loop Start"
1, 25344, Marker_t, "Loop End"
1, 25344, End_track
2, 0, Start_track
2, 0, Title_t, "blue channel"
2, 0, Control_c, 0, 126, 1
2, 0, Control_c, 0, 68, 127
2, 0, Instrument_name_t, "wave: square, volume: loud, envelope: sudden, filter: sustain sharp, chorus: union, effect: none"
2, 0, Program_c, 0, 80
2, 0, Control_c, 0, 7, 102
2, 240, Pitch_bend_c, 0, 8192
2, 240, Control_c, 0, 11, 127
2, 240, Note_on_c, 0, 78, 64
2, 264, Note_off_c, 0, 78, 64
2, 288, Note_on_c, 0, 85, 64
2, 312, Note_off_c, 0, 85, 64
2, 336, Note_on_c, 0, 90, 64
2, 360, Note_off_c, 0, 90, 64
2, 384, Note_on_c, 0, 92, 64
2, 408, Note_off_c, 0, 92, 64
2, 432, Note_on_c, 0, 85, 64
2, 456, Note_off_c, 0, 85, 64
2, 480, Note_on_c, 0, 90, 64
2, 504, Note_off_c, 0, 90, 64
2, 528, Note_on_c, 0, 92, 64
2, 552, Note_off_c, 0, 92, 64
2, 576, Note_on_c, 0, 95, 64
2, 600, Note_off_c, 0, 95, 64
2, 624, Note_on_c, 0, 85, 64
2, 648, Note_off_c, 0, 85, 64
2, 672, Note_on_c, 0, 95, 64
2, 696, Note_off_c, 0, 95, 64
2, 720, Note_on_c, 0, 94, 64
2, 744, Note_off_c, 0, 94, 64
2, 768, Note_on_c, 0, 85, 64
2, 792, Note_off_c, 0, 85, 64
2, 816, Note_on_c, 0, 94, 64
2, 840, Note_off_c, 0, 94, 64
2, 864, Note_on_c, 0, 92, 64
2, 888, Note_off_c, 0, 92, 64
2, 912, Note_on_c, 0, 90, 64
2, 936, Note_off_c, 0, 90, 64
2, 960, Note_on_c, 0, 78, 64
2, 984, Note_off_c, 0, 78, 64
2, 1008, Note_on_c, 0, 85, 64
2, 1032, Note_off_c, 0, 85, 64
2, 1056, Note_on_c, 0, 90, 64
2, 1080, Note_off_c, 0, 90, 64
2, 1104, Note_on_c, 0, 92, 64
2, 1128, Note_off_c, 0, 92, 64
2, 1152, Note_on_c, 0, 85, 64
2, 1176, Note_off_c, 0, 85, 64
2, 1200, Note_on_c, 0, 90, 64
2, 1224, Note_off_c, 0, 90, 64
2, 1248, Note_on_c, 0, 92, 64
2, 1272, Note_off_c, 0, 92, 64
2, 1296, Note_on_c, 0, 95, 64
2, 1320, Note_off_c, 0, 95, 64
2, 1344, Note_on_c, 0, 85, 64
2, 1368, Note_off_c, 0, 85, 64
2, 1392, Note_on_c, 0, 95, 64
2, 1416, Note_off_c, 0, 95, 64
2, 1440, Note_on_c, 0, 94, 64
2, 1464, Note_off_c, 0, 94, 64
2, 1488, Note_on_c, 0, 85, 64
2, 1512, Note_off_c, 0, 85, 64
2, 1536, Note_on_c, 0, 94, 64
2, 1560, Note_off_c, 0, 94, 64
2, 1584, Note_on_c, 0, 92, 64
2, 1608, Note_off_c, 0, 92, 64
2, 1632, Note_on_c, 0, 90, 64
2, 1656, Note_off_c, 0, 90, 64
2, 1680, Note_on_c, 0, 78, 64
2, 1704, Note_off_c, 0, 78, 64
2, 1728, Note_on_c, 0, 85, 64
2, 1752, Note_off_c, 0, 85, 64
2, 1776, Note_on_c, 0, 90, 64
2, 1800, Note_off_c, 0, 90, 64
2, 1824, Note_on_c, 0, 92, 64
2, 1848, Note_off_c, 0, 92, 64
2, 1872, Note_on_c, 0, 85, 64
2, 1896, Note_off_c, 0, 85, 64
2, 1920, Note_on_c, 0, 90, 64
2, 1944, Note_off_c, 0, 90, 64
2, 1968, Note_on_c, 0, 92, 64
2, 1992, Note_off_c, 0, 92, 64
2, 2016, Note_on_c, 0, 95, 64
2, 2040, Note_off_c, 0, 95, 64
2, 2064, Note_on_c, 0, 85, 64
2, 2088, Note_off_c, 0, 85, 64
2, 2112, Note_on_c, 0, 95, 64
2, 2136, Note_off_c, 0, 95, 64
2, 2160, Note_on_c, 0, 94, 64
2, 2184, Note_off_c, 0, 94, 64
2, 2208, Note_on_c, 0, 85, 64
2, 2232, Note_off_c, 0, 85, 64
2, 2256, Note_on_c, 0, 94, 64
2, 2280, Note_off_c, 0, 94, 64
2, 2304, Note_on_c, 0, 92, 64
2, 2328, Note_off_c, 0, 92, 64
2, 2352, Note_on_c, 0, 90, 64
2, 2376, Note_off_c, 0, 90, 64
2, 2400, Note_on_c, 0, 78, 64
2, 2424, Note_off_c, 0, 78, 64
2, 2448, Note_on_c, 0, 85, 64
2, 2472, Note_off_c, 0, 85, 64
2, 2496, Note_on_c, 0, 90, 64
2, 2520, Note_off_c, 0, 90, 64
2, 2544, Note_on_c, 0, 92, 64
2, 2568, Note_off_c, 0, 92, 64
2, 2592, Note_on_c, 0, 85, 64
2, 2616, Note_off_c, 0, 85, 64
2, 2640, Note_on_c, 0, 90, 64
2, 2664, Note_off_c, 0, 90, 64
2, 2688, Note_on_c, 0, 92, 64
2, 2712, Note_off_c, 0, 92, 64
2, 2736, Note_on_c, 0, 95, 64
2, 2760, Note_off_c, 0, 95, 64
2, 2784, Note_on_c, 0, 85, 64
2, 2808, Note_off_c, 0, 85, 64
2, 2832, Note_on_c, 0, 95, 64
2, 2856, Note_off_c, 0, 95, 64
2, 2880, Note_on_c, 0, 94, 64
2, 2904, Note_off_c, 0, 94, 64
2, 2928, Note_on_c, 0, 85, 64
2, 2952, Note_off_c, 0, 85, 64
2, 2976, Note_on_c, 0, 94, 64
2, 3000, Note_off_c, 0, 94, 64
2, 3024, Note_on_c, 0, 92, 64
2, 3048, Note_off_c, 0, 92, 64
2, 3072, Note_on_c, 0, 90, 64
2, 3096, Note_off_c, 0, 90, 64
2, 3120, Note_on_c, 0, 78, 64
2, 3144, Note_off_c, 0, 78, 64
2, 3168, Note_on_c, 0, 85, 64
2, 3192, Note_off_c, 0, 85, 64
2, 3216, Note_on_c, 0, 90, 64
2, 3240, Note_off_c, 0, 90, 64
2, 3264, Note_on_c, 0, 92, 64
2, 3288, Note_off_c, 0, 92, 64
2, 3312, Note_on_c, 0, 85, 64
2, 3336, Note_off_c, 0, 85, 64
2, 3360, Note_on_c, 0, 90, 64
2, 3384, Note_off_c, 0, 90, 64
2, 3408, Note_on_c, 0, 92, 64
2, 3432, Note_off_c, 0, 92, 64
2, 3456, Note_on_c, 0, 95, 64
2, 3480, Note_off_c, 0, 95, 64
2, 3504, Note_on_c, 0, 85, 64
2, 3528, Note_off_c, 0, 85, 64
2, 3552, Note_on_c, 0, 95, 64
2, 3576, Note_off_c, 0, 95, 64
2, 3600, Note_on_c, 0, 94, 64
2, 3624, Note_off_c, 0, 94, 64
2, 3648, Note_on_c, 0, 85, 64
2, 3672, Note_off_c, 0, 85, 64
2, 3696, Note_on_c, 0, 94, 64
2, 3720, Note_off_c, 0, 94, 64
2, 3744, Note_on_c, 0, 92, 64
2, 3768, Note_off_c, 0, 92, 64
2, 3792, Note_on_c, 0, 90, 64
2, 3816, Note_off_c, 0, 90, 64
2, 3840, Note_on_c, 0, 78, 64
2, 3864, Note_off_c, 0, 78, 64
2, 3888, Note_on_c, 0, 85, 64
2, 3912, Note_off_c, 0, 85, 64
2, 3936, Note_on_c, 0, 90, 64
2, 3960, Note_off_c, 0, 90, 64
2, 3984, Note_on_c, 0, 92, 64
2, 4008, Note_off_c, 0, 92, 64
2, 4032, Note_on_c, 0, 85, 64
2, 4056, Note_off_c, 0, 85, 64
2, 4080, Note_on_c, 0, 90, 64
2, 4104, Note_off_c, 0, 90, 64
2, 4128, Note_on_c, 0, 92, 64
2, 4152, Note_off_c, 0, 92, 64
2, 4176, Note_on_c, 0, 85, 64
2, 4200, Note_off_c, 0, 85, 64
2, 4224, Note_on_c, 0, 95, 64
2, 4248, Note_off_c, 0, 95, 64
2, 4272, Note_on_c, 0, 85, 64
2, 4296, Note_off_c, 0, 85, 64
2, 4320, Note_on_c, 0, 95, 64
2, 4344, Note_off_c, 0, 95, 64
2, 4368, Note_on_c, 0, 94, 64
2, 4392, Note_off_c, 0, 94, 64
2, 4416, Note_on_c, 0, 85, 64
2, 4440, Note_off_c, 0, 85, 64
2, 4464, Note_on_c, 0, 94, 64
2, 4488, Note_off_c, 0, 94, 64
2, 4512, Note_on_c, 0, 92, 64
2, 4536, Note_off_c, 0, 92, 64
2, 4560, Note_on_c, 0, 90, 64
2, 4584, Note_off_c, 0, 90, 64
2, 4608, Note_on_c, 0, 78, 64
2, 4632, Note_off_c, 0, 78, 64
2, 4656, Note_on_c, 0, 85, 64
2, 4680, Note_off_c, 0, 85, 64
2, 4704, Note_on_c, 0, 90, 64
2, 4728, Note_off_c, 0, 90, 64
2, 4752, Note_on_c, 0, 92, 64
2, 4776, Note_off_c, 0, 92, 64
2, 4800, Note_on_c, 0, 85, 64
2, 4824, Note_off_c, 0, 85, 64
2, 4848, Note_on_c, 0, 90, 64
2, 4872, Note_off_c, 0, 90, 64
2, 4896, Note_on_c, 0, 92, 64
2, 4920, Note_off_c, 0, 92, 64
2, 4944, Note_on_c, 0, 85, 64
2, 4968, Note_off_c, 0, 85, 64
2, 4992, Note_on_c, 0, 95, 64
2, 5016, Note_off_c, 0, 95, 64
2, 5040, Note_on_c, 0, 85, 64
2, 5064, Note_off_c, 0, 85, 64
2, 5088, Note_on_c, 0, 95, 64
2, 5112, Note_off_c, 0, 95, 64
2, 5136, Note_on_c, 0, 94, 64
2, 5160, Note_off_c, 0, 94, 64
2, 5184, Note_on_c, 0, 85, 64
2, 5208, Note_off_c, 0, 85, 64
2, 5232, Note_on_c, 0, 94, 64
2, 5256, Note_off_c, 0, 94, 64
2, 5280, Note_on_c, 0, 92, 64
2, 5304, Note_off_c, 0, 92, 64
2, 5328, Note_on_c, 0, 90, 64
2, 5352, Note_off_c, 0, 90, 64
2, 5376, Note_on_c, 0, 78, 64
2, 5400, Note_off_c, 0, 78, 64
2, 5424, Note_on_c, 0, 85, 64
2, 5448, Note_off_c, 0, 85, 64
2, 5472, Note_on_c, 0, 90, 64
2, 5496, Note_off_c, 0, 90, 64
2, 5520, Note_on_c, 0, 92, 64
2, 5544, Note_off_c, 0, 92, 64
2, 5568, Note_on_c, 0, 85, 64
2, 5592, Note_off_c, 0, 85, 64
2, 5616, Note_on_c, 0, 90, 64
2, 5640, Note_off_c, 0, 90, 64
2, 5664, Note_on_c, 0, 92, 64
2, 5688, Note_off_c, 0, 92, 64
2, 5712, Note_on_c, 0, 85, 64
2, 5736, Note_off_c, 0, 85, 64
2, 5760, Note_on_c, 0, 95, 64
2, 5784, Note_off_c, 0, 95, 64
2, 5808, Note_on_c, 0, 85, 64
2, 5832, Note_off_c, 0, 85, 64
2, 5856, Note_on_c, 0, 95, 64
2, 5880, Note_off_c, 0, 95, 64
2, 5904, Note_on_c, 0, 94, 64
2, 5928, Note_off_c, 0, 94, 64
2, 5952, Note_on_c, 0, 85, 64
2, 5976, Note_off_c, 0, 85, 64
2, 6000, Note_on_c, 0, 94, 64
2, 6024, Note_off_c, 0, 94, 64
2, 6048, Note_on_c, 0, 92, 64
2, 6072, Note_off_c, 0, 92, 64
2, 6096, Note_on_c, 0, 90, 64
2, 6120, Note_off_c, 0, 90, 64
2, 6144, Note_on_c, 0, 78, 64
2, 6168, Note_off_c, 0, 78, 64
2, 6192, Note_on_c, 0, 85, 64
2, 6216, Note_off_c, 0, 85, 64
2, 6240, Note_on_c, 0, 90, 64
2, 6264, Note_off_c, 0, 90, 64
2, 6288, Note_on_c, 0, 92, 64
2, 6312, Note_off_c, 0, 92, 64
2, 6336, Note_on_c, 0, 85, 64
2, 6360, Note_off_c, 0, 85, 64
2, 6384, Note_on_c, 0, 90, 64
2, 6408, Note_off_c, 0, 90, 64
2, 6432, Note_on_c, 0, 92, 64
2, 6456, Note_off_c, 0, 92, 64
2, 6480, Note_on_c, 0, 85, 64
2, 6504, Note_off_c, 0, 85, 64
2, 6528, Note_on_c, 0, 95, 64
2, 6552, Note_off_c, 0, 95, 64
2, 6576, Note_on_c, 0, 85, 64
2, 6600, Note_off_c, 0, 85, 64
2, 6624, Note_on_c, 0, 95, 64
2, 6648, Note_off_c, 0, 95, 64
2, 6672, Note_on_c, 0, 94, 64
2, 6696, Note_off_c, 0, 94, 64
2, 6720, Note_on_c, 0, 85, 64
2, 6744, Note_off_c, 0, 85, 64
2, 6768, Note_on_c, 0, 94, 64
2, 6792, Note_off_c, 0, 94, 64
2, 6816, Note_on_c, 0, 92, 64
2, 6840, Note_off_c, 0, 92, 64
2, 6864, Note_on_c, 0, 90, 64
2, 6888, Note_off_c, 0, 90, 64
2, 6912, Note_on_c, 0, 78, 64
2, 6936, Note_off_c, 0, 78, 64
2, 6960, Note_on_c, 0, 85, 64
2, 6984, Note_off_c, 0, 85, 64
2, 7008, Note_on_c, 0, 90, 64
2, 7032, Note_off_c, 0, 90, 64
2, 7056, Note_on_c, 0, 92, 64
2, 7080, Note_off_c, 0, 92, 64
2, 7104, Note_on_c, 0, 85, 64
2, 7128, Note_off_c, 0, 85, 64
2, 7152, Note_on_c, 0, 90, 64
2, 7176, Note_off_c, 0, 90, 64
2, 7200, Note_on_c, 0, 92, 64
2, 7224, Note_off_c, 0, 92, 64
2, 7248, Note_on_c, 0, 85, 64
2, 7272, Note_off_c, 0, 85, 64
2, 7296, Note_on_c, 0, 95, 64
2, 7320, Note_off_c, 0, 95, 64
2, 7344, Note_on_c, 0, 85, 64
2, 7368, Note_off_c, 0, 85, 64
2, 7392, Note_on_c, 0, 95, 64
2, 7416, Note_off_c, 0, 95, 64
2, 7440, Note_on_c, 0, 94, 64
2, 7464, Note_off_c, 0, 94, 64
2, 7488, Note_on_c, 0, 85, 64
2, 7512, Note_off_c, 0, 85, 64
2, 7536, Note_on_c, 0, 94, 64
2, 7560, Note_off_c, 0, 94, 64
2, 7584, Note_on_c, 0, 92, 64
2, 7608, Note_off_c, 0, 92, 64
2, 7632, Note_on_c, 0, 90, 64
2, 7656, Note_off_c, 0, 90, 64
2, 7680, Note_on_c, 0, 78, 64
2, 7704, Note_off_c, 0, 78, 64
2, 7728, Note_on_c, 0, 85, 64
2, 7752, Note_off_c, 0, 85, 64
2, 7776, Note_on_c, 0, 90, 64
2, 7800, Note_off_c, 0, 90, 64
2, 7824, Note_on_c, 0, 92, 64
2, 7848, Note_off_c, 0, 92, 64
2, 7872, Note_on_c, 0, 85, 64
2, 7896, Note_off_c, 0, 85, 64
2, 7920, Note_on_c, 0, 90, 64
2, 7944, Note_off_c, 0, 90, 64
2, 7968, Note_on_c, 0, 92, 64
2, 7992, Note_off_c, 0, 92, 64
2, 8016, Note_on_c, 0, 85, 64
2, 8040, Note_off_c, 0, 85, 64
2, 8064, Note_on_c, 0, 95, 64
2, 8088, Note_off_c, 0, 95, 64
2, 8112, Note_on_c, 0, 85, 64
2, 8136, Note_off_c, 0, 85, 64
2, 8160, Note_on_c, 0, 95, 64
2, 8184, Note_off_c, 0, 95, 64
2, 8208, Note_on_c, 0, 94, 64
2, 8232, Note_off_c, 0, 94, 64
2, 8256, Note_on_c, 0, 85, 64
2, 8280, Note_off_c, 0, 85, 64
2, 8304, Note_on_c, 0, 94, 64
2, 8328, Note_off_c, 0, 94, 64
2, 8352, Note_on_c, 0, 92, 64
2, 8376, Note_off_c, 0, 92, 64
2, 8400, Note_on_c, 0, 90, 64
2, 8424, Note_off_c, 0, 90, 64
2, 8448, Note_on_c, 0, 78, 64
2, 8472, Note_off_c, 0, 78, 64
2, 8496, Note_on_c, 0, 85, 64
2, 8520, Note_off_c, 0, 85, 64
2, 8544, Note_on_c, 0, 90, 64
2, 8568, Note_off_c, 0, 90, 64
2, 8592, Note_on_c, 0, 92, 64
2, 8616, Note_off_c, 0, 92, 64
2, 8640, Note_on_c, 0, 85, 64
2, 8664, Note_off_c, 0, 85, 64
2, 8688, Note_on_c, 0, 90, 64
2, 8712, Note_off_c, 0, 90, 64
2, 8736, Note_on_c, 0, 92, 64
2, 8760, Note_off_c, 0, 92, 64
2, 8784, Note_on_c, 0, 85, 64
2, 8808, Note_off_c, 0, 85, 64
2, 8832, Note_on_c, 0, 95, 64
2, 8856, Note_off_c, 0, 95, 64
2, 8880, Note_on_c, 0, 85, 64
2, 8904, Note_off_c, 0, 85, 64
2, 8928, Note_on_c, 0, 95, 64
2, 8952, Note_off_c, 0, 95, 64
2, 8976, Note_on_c, 0, 94, 64
2, 9000, Note_off_c, 0, 94, 64
2, 9024, Note_on_c, 0, 85, 64
2, 9048, Note_off_c, 0, 85, 64
2, 9072, Note_on_c, 0, 94, 64
2, 9096, Note_off_c, 0, 94, 64
2, 9120, Note_on_c, 0, 92, 64
2, 9144, Note_off_c, 0, 92, 64
2, 9168, Note_on_c, 0, 90, 64
2, 9192, Note_off_c, 0, 90, 64
2, 9216, Note_on_c, 0, 78, 64
2, 9240, Note_off_c, 0, 78, 64
2, 9264, Note_on_c, 0, 85, 64
2, 9288, Note_off_c, 0, 85, 64
2, 9312, Note_on_c, 0, 90, 64
2, 9336, Note_off_c, 0, 90, 64
2, 9360, Note_on_c, 0, 92, 64
2, 9384, Note_off_c, 0, 92, 64
2, 9408, Note_on_c, 0, 85, 64
2, 9432, Note_off_c, 0, 85, 64
2, 9456, Note_on_c, 0, 90, 64
2, 9480, Note_off_c, 0, 90, 64
2, 9504, Note_on_c, 0, 92, 64
2, 9528, Note_off_c, 0, 92, 64
2, 9552, Note_on_c, 0, 85, 64
2, 9576, Note_off_c, 0, 85, 64
2, 9600, Note_on_c, 0, 95, 64
2, 9624, Note_off_c, 0, 95, 64
2, 9648, Note_on_c, 0, 85, 64
2, 9672, Note_off_c, 0, 85, 64
2, 9696, Note_on_c, 0, 95, 64
2, 9720, Note_off_c, 0, 95, 64
2, 9744, Note_on_c, 0, 94, 64
2, 9768, Note_off_c, 0, 94, 64
2, 9792, Note_on_c, 0, 85, 64
2, 9816, Note_off_c, 0, 85, 64
2, 9840, Note_on_c, 0, 94, 64
2, 9864, Note_off_c, 0, 94, 64
2, 9888, Note_on_c, 0, 92, 64
2, 9912, Note_off_c, 0, 92, 64
2, 9936, Note_on_c, 0, 90, 64
2, 9960, Note_off_c, 0, 90, 64
2, 9984, Note_on_c, 0, 78, 64
2, 10008, Note_off_c, 0, 78, 64
2, 10032, Note_on_c, 0, 83, 64
2, 10056, Note_off_c, 0, 83, 64
2, 10080, Note_on_c, 0, 90, 64
2, 10104, Note_off_c, 0, 90, 64
2, 10128, Note_on_c, 0, 92, 64
2, 10152, Note_off_c, 0, 92, 64
2, 10176, Note_on_c, 0, 83, 64
2, 10200, Note_off_c, 0, 83, 64
2, 10224, Note_on_c, 0, 90, 64
2, 10248, Note_off_c, 0, 90, 64
2, 10272, Note_on_c, 0, 95, 64
2, 10296, Note_off_c, 0, 95, 64
2, 10320, Note_on_c, 0, 94, 64
2, 10344, Note_off_c, 0, 94, 64
2, 10368, Note_on_c, 0, 92, 64
2, 10392, Note_off_c, 0, 92, 64
2, 10416, Note_on_c, 0, 85, 64
2, 10440, Note_off_c, 0, 85, 64
2, 10464, Note_on_c, 0, 83, 64
2, 10488, Note_off_c, 0, 83, 64
2, 10512, Note_on_c, 0, 82, 64
2, 10536, Note_off_c, 0, 82, 64
2, 10560, Note_on_c, 0, 80, 64
2, 10584, Note_off_c, 0, 80, 64
2, 10608, Note_on_c, 0, 73, 64
2, 10632, Note_off_c, 0, 73, 64
2, 10656, Note_on_c, 0, 71, 64
2, 10680, Note_off_c, 0, 71, 64
2, 10704, Note_on_c, 0, 70, 64
2, 10728, Note_off_c, 0, 70, 64
2, 10752, Instrument_name_t, "wave: pulse wide, volume: loudest, envelope: sudden, filter: sustain sharp, chorus: union, effect: vibrato delayed"
2, 10752, Program_c, 0, 70
2, 10752, Control_c, 0, 7, 127
2, 10752, Note_on_c, 0, 69, 64
2, 10800, Note_off_c, 0, 69, 64
2, 10800, Note_on_c, 0, 69, 64
2, 10848, Note_off_c, 0, 69, 64
2, 10944, Note_on_c, 0, 71, 64
2, 10992, Note_off_c, 0, 71, 64
2, 10992, Note_on_c, 0, 71, 64
2, 11040, Note_off_c, 0, 71, 64
2, 11088, Note_on_c, 0, 81, 64
2, 11160, Pitch_bend_c, 0, 9191
2, 11161, Pitch_bend_c, 0, 9064
2, 11162, Pitch_bend_c, 0, 8916
2, 11163, Pitch_bend_c, 0, 8749
2, 11164, Pitch_bend_c, 0, 8568
2, 11165, Pitch_bend_c, 0, 8378
2, 11166, Pitch_bend_c, 0, 8183
2, 11167, Pitch_bend_c, 0, 7988
2, 11168, Pitch_bend_c, 0, 7798
2, 11169, Pitch_bend_c, 0, 7618
2, 11170, Pitch_bend_c, 0, 7453
2, 11171, Pitch_bend_c, 0, 7307
2, 11172, Pitch_bend_c, 0, 7183
2, 11173, Pitch_bend_c, 0, 7084
2, 11174, Pitch_bend_c, 0, 7014
2, 11175, Pitch_bend_c, 0, 6973
2, 11176, Pitch_bend_c, 0, 6964
2, 11177, Pitch_bend_c, 0, 6985
2, 11178, Pitch_bend_c, 0, 7037
2, 11179, Pitch_bend_c, 0, 7119
2, 11180, Pitch_bend_c, 0, 7227
2, 11181, Pitch_bend_c, 0, 7360
2, 11182, Pitch_bend_c, 0, 7515
2, 11183, Pitch_bend_c, 0, 7686
2, 11184, Note_off_c, 0, 81, 64
2, 11184, Pitch_bend_c, 0, 8192
2, 11184, Note_on_c, 0, 80, 64
2, 11232, Note_off_c, 0, 80, 64
2, 11232, Note_on_c, 0, 81, 64
2, 11280, Note_off_c, 0, 81, 64
2, 11280, Note_on_c, 0, 88, 64
2, 11352, Note_off_c, 0, 88, 64
2, 11376, Note_on_c, 0, 92, 64
2, 11424, Note_off_c, 0, 92, 64
2, 11424, Note_on_c, 0, 93, 64
2, 11472, Note_off_c, 0, 93, 64
2, 11472, Note_on_c, 0, 100, 64
2, 11520, Note_off_c, 0, 100, 64
2, 11520, Note_on_c, 0, 62, 64
2, 11592, Pitch_bend_c, 0, 7102
2, 11593, Pitch_bend_c, 0, 7205
2, 11594, Pitch_bend_c, 0, 7334
2, 11595, Pitch_bend_c, 0, 7485
2, 11596, Pitch_bend_c, 0, 7653
2, 11597, Pitch_bend_c, 0, 7835
2, 11598, Pitch_bend_c, 0, 8026
2, 11599, Pitch_bend_c, 0, 8222
2, 11600, Pitch_bend_c, 0, 8416
2, 11601, Pitch_bend_c, 0, 8605
2, 11602, Pitch_bend_c, 0, 8784
2, 11603, Pitch_bend_c, 0, 8947
2, 11604, Pitch_bend_c, 0, 9091
2, 11605, Pitch_bend_c, 0, 9213
2, 11606, Pitch_bend_c, 0, 9308
2, 11607, Pitch_bend_c, 0, 9376
2, 11608, Pitch_bend_c, 0, 9413
2, 11609, Pitch_bend_c, 0, 9419
2, 11610, Pitch_bend_c, 0, 9395
2, 11611, Pitch_bend_c, 0, 9339
2, 11612, Pitch_bend_c, 0, 9255
2, 11613, Pitch_bend_c, 0, 9144
2, 11614, Pitch_bend_c, 0, 9008
2, 11615, Pitch_bend_c, 0, 8852
2, 11616, Note_off_c, 0, 62, 64
2, 11616, Pitch_bend_c, 0, 8192
2, 11616, Note_on_c, 0, 62, 64
2, 11664, Note_off_c, 0, 62, 64
2, 11664, Note_on_c, 0, 62, 64
2, 11736, Note_off_c, 0, 62, 64
2, 11760, Note_on_c, 0, 62, 64
2, 11808, Note_off_c, 0, 62, 64
2, 11856, Note_on_c, 0, 62, 64
2, 11857, Pitch_bend_c, 0, 8704
2, 11858, Pitch_bend_c, 0, 9216
2, 11859, Pitch_bend_c, 0, 9728
2, 11860, Pitch_bend_c, 0, 6144
2, 11860, Note_on_c, 0, 63, 64
2, 11860, Note_off_c, 0, 62, 64
2, 11861, Pitch_bend_c, 0, 6656
2, 11862, Pitch_bend_c, 0, 7168
2, 11863, Pitch_bend_c, 0, 7680
2, 11864, Pitch_bend_c, 0, 8192
2, 11865, Pitch_bend_c, 0, 8704
2, 11866, Pitch_bend_c, 0, 9216
2, 11867, Pitch_bend_c, 0, 9728
2, 11868, Pitch_bend_c, 0, 6144
2, 11868, Note_on_c, 0, 64, 64
2, 11868, Note_off_c, 0, 63, 64
2, 11869, Pitch_bend_c, 0, 6656
2, 11870, Pitch_bend_c, 0, 7168
2, 11871, Pitch_bend_c, 0, 7680
2, 11872, Pitch_bend_c, 0, 8192
2, 11873, Pitch_bend_c, 0, 8704
2, 11874, Pitch_bend_c, 0, 9216
2, 11875, Pitch_bend_c, 0, 9728
2, 11876, Pitch_bend_c, 0, 6144
2, 11876, Note_on_c, 0, 65, 64
2, 11876, Note_off_c, 0, 64, 64
2, 11877, Pitch_bend_c, 0, 6656
2, 11878, Pitch_bend_c, 0, 7168
2, 11879, Pitch_bend_c, 0, 7680
2, 11880, Pitch_bend_c, 0, 8192
2, 11928, Pitch_bend_c, 0, 9191
2, 11929, Pitch_bend_c, 0, 9064
2, 11930, Pitch_bend_c, 0, 8916
2, 11931, Pitch_bend_c, 0, 8749
2, 11932, Pitch_bend_c, 0, 8568
2, 11933, Pitch_bend_c, 0, 8378
2, 11934, Pitch_bend_c, 0, 8183
2, 11935, Pitch_bend_c, 0, 7988
2, 11936, Pitch_bend_c, 0, 7798
2, 11937, Pitch_bend_c, 0, 7618
2, 11938, Pitch_bend_c, 0, 7453
2, 11939, Pitch_bend_c, 0, 7307
2, 11940, Pitch_bend_c, 0, 7183
2, 11941, Pitch_bend_c, 0, 7084
2, 11942, Pitch_bend_c, 0, 7014
2, 11943, Pitch_bend_c, 0, 6973
2, 11944, Pitch_bend_c, 0, 6964
2, 11945, Pitch_bend_c, 0, 6985
2, 11946, Pitch_bend_c, 0, 7037
2, 11947, Pitch_bend_c, 0, 7119
2, 11948, Pitch_bend_c, 0, 7227
2, 11949, Pitch_bend_c, 0, 7360
2, 11950, Pitch_bend_c, 0, 7515
2, 11951, Pitch_bend_c, 0, 7686
2, 11952, Pitch_bend_c, 0, 7870
2, 11953, Pitch_bend_c, 0, 8062
2, 11954, Pitch_bend_c, 0, 8258
2, 11955, Pitch_bend_c, 0, 8452
2, 11956, Pitch_bend_c, 0, 8639
2, 11957, Pitch_bend_c, 0, 8815
2, 11958, Pitch_bend_c, 0, 8975
2, 11959, Pitch_bend_c, 0, 9116
2, 11960, Pitch_bend_c, 0, 9232
2, 11961, Pitch_bend_c, 0, 9323
2, 11962, Pitch_bend_c, 0, 9385
2, 11963, Pitch_bend_c, 0, 9417
2, 11965, Pitch_bend_c, 0, 9387
2, 11966, Pitch_bend_c, 0, 9326
2, 11967, Pitch_bend_c, 0, 9237
2, 11968, Pitch_bend_c, 0, 9121
2, 11969, Pitch_bend_c, 0, 8981
2, 11970, Pitch_bend_c, 0, 8822
2, 11971, Pitch_bend_c, 0, 8646
2, 11972, Pitch_bend_c, 0, 8459
2, 11973, Pitch_bend_c, 0, 8266
2, 11974, Pitch_bend_c, 0, 8070
2, 11975, Pitch_bend_c, 0, 7877
2, 11976, Pitch_bend_c, 0, 7693
2, 11977, Pitch_bend_c, 0, 7521
2, 11978, Pitch_bend_c, 0, 7366
2, 11979, Pitch_bend_c, 0, 7232
2, 11980, Pitch_bend_c, 0, 7123
2, 11981, Pitch_bend_c, 0, 7040
2, 11982, Pitch_bend_c, 0, 6987
2, 11983, Pitch_bend_c, 0, 6964
2, 11984, Pitch_bend_c, 0, 6972
2, 11985, Pitch_bend_c, 0, 7012
2, 11986, Pitch_bend_c, 0, 7081
2, 11987, Pitch_bend_c, 0, 7178
2, 11988, Pitch_bend_c, 0, 7301
2, 11989, Pitch_bend_c, 0, 7447
2, 11990, Pitch_bend_c, 0, 7611
2, 11991, Pitch_bend_c, 0, 7791
2, 11992, Pitch_bend_c, 0, 7980
2, 11993, Pitch_bend_c, 0, 8175
2, 11994, Pitch_bend_c, 0, 8370
2, 11995, Pitch_bend_c, 0, 8561
2, 11996, Pitch_bend_c, 0, 8742
2, 11997, Pitch_bend_c, 0, 8909
2, 11998, Pitch_bend_c, 0, 9059
2, 11999, Pitch_bend_c, 0, 9186
2, 12000, Pitch_bend_c, 0, 9288
2, 12001, Pitch_bend_c, 0, 9362
2, 12002, Pitch_bend_c, 0, 9407
2, 12003, Pitch_bend_c, 0, 9421
2, 12004, Pitch_bend_c, 0, 9403
2, 12005, Pitch_bend_c, 0, 9355
2, 12006, Pitch_bend_c, 0, 9278
2, 12007, Pitch_bend_c, 0, 9173
2, 12008, Pitch_bend_c, 0, 9043
2, 12009, Pitch_bend_c, 0, 8892
2, 12010, Pitch_bend_c, 0, 8722
2, 12011, Pitch_bend_c, 0, 8540
2, 12012, Pitch_bend_c, 0, 8348
2, 12013, Pitch_bend_c, 0, 8153
2, 12014, Pitch_bend_c, 0, 7958
2, 12015, Pitch_bend_c, 0, 7770
2, 12016, Pitch_bend_c, 0, 7592
2, 12017, Pitch_bend_c, 0, 7430
2, 12018, Pitch_bend_c, 0, 7286
2, 12019, Pitch_bend_c, 0, 7166
2, 12020, Pitch_bend_c, 0, 7072
2, 12021, Pitch_bend_c, 0, 7006
2, 12022, Pitch_bend_c, 0, 6970
2, 12023, Pitch_bend_c, 0, 6965
2, 12024, Pitch_bend_c, 0, 6991
2, 12025, Pitch_bend_c, 0, 7048
2, 12026, Pitch_bend_c, 0, 7134
2, 12027, Pitch_bend_c, 0, 7246
2, 12028, Pitch_bend_c, 0, 7383
2, 12029, Pitch_bend_c, 0, 7540
2, 12030, Pitch_bend_c, 0, 7713
2, 12031, Pitch_bend_c, 0, 7899
2, 12032, Pitch_bend_c, 0, 8092
2, 12033, Pitch_bend_c, 0, 8287
2, 12034, Pitch_bend_c, 0, 8481
2, 12035, Pitch_bend_c, 0, 8667
2, 12036, Pitch_bend_c, 0, 8840
2, 12037, Pitch_bend_c, 0, 8998
2, 12038, Pitch_bend_c, 0, 9135
2, 12039, Pitch_bend_c, 0, 9248
2, 12040, Pitch_bend_c, 0, 9334
2, 12041, Pitch_bend_c, 0, 9392
2, 12042, Pitch_bend_c, 0, 9419
2, 12043, Pitch_bend_c, 0, 9415
2, 12044, Pitch_bend_c, 0, 9379
2, 12045, Pitch_bend_c, 0, 9314
2, 12046, Pitch_bend_c, 0, 9221
2, 12047, Pitch_bend_c, 0, 9101
2, 12048, Pitch_bend_c, 0, 8958
2, 12049, Pitch_bend_c, 0, 8796
2, 12050, Pitch_bend_c, 0, 8618
2, 12051, Pitch_bend_c, 0, 8430
2, 12052, Pitch_bend_c, 0, 8236
2, 12053, Pitch_bend_c, 0, 8040
2, 12054, Pitch_bend_c, 0, 7849
2, 12055, Pitch_bend_c, 0, 7666
2, 12056, Pitch_bend_c, 0, 7496
2, 12057, Pitch_bend_c, 0, 7344
2, 12058, Pitch_bend_c, 0, 7214
2, 12059, Pitch_bend_c, 0, 7108
2, 12060, Pitch_bend_c, 0, 7030
2, 12061, Pitch_bend_c, 0, 6981
2, 12062, Pitch_bend_c, 0, 6963
2, 12063, Pitch_bend_c, 0, 6976
2, 12064, Pitch_bend_c, 0, 7020
2, 12065, Pitch_bend_c, 0, 7094
2, 12066, Pitch_bend_c, 0, 7195
2, 12067, Pitch_bend_c, 0, 7322
2, 12068, Pitch_bend_c, 0, 7471
2, 12069, Pitch_bend_c, 0, 7638
2, 12070, Pitch_bend_c, 0, 7819
2, 12071, Pitch_bend_c, 0, 8009
2, 12072, Pitch_bend_c, 0, 8205
2, 12073, Pitch_bend_c, 0, 8399
2, 12074, Pitch_bend_c, 0, 8589
2, 12075, Pitch_bend_c, 0, 8768
2, 12076, Pitch_bend_c, 0, 8933
2, 12077, Pitch_bend_c, 0, 9080
2, 12078, Pitch_bend_c, 0, 9203
2, 12079, Pitch_bend_c, 0, 9301
2, 12080, Pitch_bend_c, 0, 9371
2, 12081, Pitch_bend_c, 0, 9411
2, 12082, Pitch_bend_c, 0, 9420
2, 12083, Pitch_bend_c, 0, 9398
2, 12084, Pitch_bend_c, 0, 9345
2, 12085, Pitch_bend_c, 0, 9264
2, 12086, Pitch_bend_c, 0, 9155
2, 12087, Pitch_bend_c, 0, 9021
2, 12088, Pitch_bend_c, 0, 8867
2, 12089, Pitch_bend_c, 0, 8695
2, 12090, Pitch_bend_c, 0, 8511
2, 12091, Pitch_bend_c, 0, 8319
2, 12092, Pitch_bend_c, 0, 8123
2, 12093, Pitch_bend_c, 0, 7929
2, 12094, Pitch_bend_c, 0, 7742
2, 12095, Pitch_bend_c, 0, 7566
2, 12096, Pitch_bend_c, 0, 7406
2, 12097, Pitch_bend_c, 0, 7266
2, 12098, Pitch_bend_c, 0, 7150
2, 12099, Pitch_bend_c, 0, 7060
2, 12100, Pitch_bend_c, 0, 6998
2, 12101, Pitch_bend_c, 0, 6967
2, 12103, Pitch_bend_c, 0, 6998
2, 12104, Pitch_bend_c, 0, 7059
2, 12105, Pitch_bend_c, 0, 7149
2, 12106, Pitch_bend_c, 0, 7265
2, 12107, Pitch_bend_c, 0, 7405
2, 12108, Pitch_bend_c, 0, 7565
2, 12109, Pitch_bend_c, 0, 7741
2, 12110, Pitch_bend_c, 0, 7928
2, 12111, Pitch_bend_c, 0, 8122
2, 12112, Pitch_bend_c, 0, 8317
2, 12113, Pitch_bend_c, 0, 8510
2, 12114, Pitch_bend_c, 0, 8694
2, 12115, Pitch_bend_c, 0, 8866
2, 12116, Pitch_bend_c, 0, 9020
2, 12117, Pitch_bend_c, 0, 9154
2, 12118, Pitch_bend_c, 0, 9263
2, 12119, Pitch_bend_c, 0, 9345
2, 12120, Pitch_bend_c, 0, 9398
2, 12121, Pitch_bend_c, 0, 9420
2, 12122, Pitch_bend_c, 0, 9411
2, 12123, Pitch_bend_c, 0, 9371
2, 12124, Pitch_bend_c, 0, 9302
2, 12125, Pitch_bend_c, 0, 9204
2, 12126, Pitch_bend_c, 0, 9081
2, 12127, Pitch_bend_c, 0, 8935
2, 12128, Pitch_bend_c, 0, 8770
2, 12129, Pitch_bend_c, 0, 8590
2, 12130, Pitch_bend_c, 0, 8401
2, 12131, Pitch_bend_c, 0, 8206
2, 12132, Pitch_bend_c, 0, 8011
2, 12133, Pitch_bend_c, 0, 7820
2, 12134, Pitch_bend_c, 0, 7639
2, 12135, Pitch_bend_c, 0, 7472
2, 12136, Pitch_bend_c, 0, 7323
2, 12137, Pitch_bend_c, 0, 7196
2, 12138, Pitch_bend_c, 0, 7095
2, 12139, Pitch_bend_c, 0, 7021
2, 12140, Pitch_bend_c, 0, 6977
2, 12141, Pitch_bend_c, 0, 6963
2, 12142, Pitch_bend_c, 0, 6981
2, 12143, Pitch_bend_c, 0, 7030
2, 12144, Pitch_bend_c, 0, 7108
2, 12145, Pitch_bend_c, 0, 7213
2, 12146, Pitch_bend_c, 0, 7343
2, 12147, Pitch_bend_c, 0, 7495
2, 12148, Pitch_bend_c, 0, 7664
2, 12149, Pitch_bend_c, 0, 7847
2, 12150, Pitch_bend_c, 0, 8039
2, 12151, Pitch_bend_c, 0, 8234
2, 12152, Pitch_bend_c, 0, 8429
2, 12153, Pitch_bend_c, 0, 8617
2, 12154, Pitch_bend_c, 0, 8795
2, 12155, Pitch_bend_c, 0, 8957
2, 12156, Pitch_bend_c, 0, 9100
2, 12157, Pitch_bend_c, 0, 9220
2, 12158, Pitch_bend_c, 0, 9314
2, 12159, Pitch_bend_c, 0, 9379
2, 12160, Pitch_bend_c, 0, 9414
2, 12161, Pitch_bend_c, 0, 9419
2, 12162, Pitch_bend_c, 0, 9392
2, 12163, Pitch_bend_c, 0, 9335
2, 12164, Pitch_bend_c, 0, 9249
2, 12165, Pitch_bend_c, 0, 9136
2, 12166, Pitch_bend_c, 0, 8999
2, 12167, Pitch_bend_c, 0, 8842
2, 12168, Pitch_bend_c, 0, 8668
2, 12169, Pitch_bend_c, 0, 8482
2, 12170, Pitch_bend_c, 0, 8289
2, 12171, Pitch_bend_c, 0, 8093
2, 12172, Pitch_bend_c, 0, 7900
2, 12173, Pitch_bend_c, 0, 7715
2, 12174, Pitch_bend_c, 0, 7541
2, 12175, Pitch_bend_c, 0, 7384
2, 12176, Pitch_bend_c, 0, 7247
2, 12177, Pitch_bend_c, 0, 7134
2, 12178, Pitch_bend_c, 0, 7049
2, 12179, Pitch_bend_c, 0, 6992
2, 12180, Pitch_bend_c, 0, 6965
2, 12181, Pitch_bend_c, 0, 6970
2, 12182, Pitch_bend_c, 0, 7005
2, 12183, Pitch_bend_c, 0, 7071
2, 12184, Pitch_bend_c, 0, 7165
2, 12185, Pitch_bend_c, 0, 7285
2, 12186, Pitch_bend_c, 0, 7428
2, 12187, Pitch_bend_c, 0, 7591
2, 12188, Pitch_bend_c, 0, 7768
2, 12189, Pitch_bend_c, 0, 7957
2, 12190, Pitch_bend_c, 0, 8151
2, 12191, Pitch_bend_c, 0, 8347
2, 12192, Note_off_c, 0, 65, 64
2, 12288, Pitch_bend_c, 0, 8192
2, 12288, Note_on_c, 0, 74, 64
2, 12336, Note_off_c, 0, 74, 64
2, 12336, Note_on_c, 0, 74, 64
2, 12384, Note_off_c, 0, 74, 64
2, 12480, Note_on_c, 0, 76, 64
2, 12528, Note_off_c, 0, 76, 64
2, 12528, Note_on_c, 0, 76, 64
2, 12576, Note_off_c, 0, 76, 64
2, 12624, Note_on_c, 0, 73, 64
2, 12696, Pitch_bend_c, 0, 9191
2, 12697, Pitch_bend_c, 0, 9064
2, 12698, Pitch_bend_c, 0, 8916
2, 12699, Pitch_bend_c, 0, 8749
2, 12700, Pitch_bend_c, 0, 8568
2, 12701, Pitch_bend_c, 0, 8378
2, 12702, Pitch_bend_c, 0, 8183
2, 12703, Pitch_bend_c, 0, 7988
2, 12704, Pitch_bend_c, 0, 7798
2, 12705, Pitch_bend_c, 0, 7618
2, 12706, Pitch_bend_c, 0, 7453
2, 12707, Pitch_bend_c, 0, 7307
2, 12708, Pitch_bend_c, 0, 7183
2, 12709, Pitch_bend_c, 0, 7084
2, 12710, Pitch_bend_c, 0, 7014
2, 12711, Pitch_bend_c, 0, 6973
2, 12712, Pitch_bend_c, 0, 6964
2, 12713, Pitch_bend_c, 0, 6985
2, 12714, Pitch_bend_c, 0, 7037
2, 12715, Pitch_bend_c, 0, 7119
2, 12716, Pitch_bend_c, 0, 7227
2, 12717, Pitch_bend_c, 0, 7360
2, 12718, Pitch_bend_c, 0, 7515
2, 12719, Pitch_bend_c, 0, 7686
2, 12720, Note_off_c, 0, 73, 64
2, 12720, Pitch_bend_c, 0, 8192
2, 12720, Note_on_c, 0, 73, 64
2, 12792, Pitch_bend_c, 0, 6991
2, 12793, Pitch_bend_c, 0, 7048
2, 12794, Pitch_bend_c, 0, 7134
2, 12795, Pitch_bend_c, 0, 7246
2, 12796, Pitch_bend_c, 0, 7383
2, 12797, Pitch_bend_c, 0, 7540
2, 12798, Pitch_bend_c, 0, 7713
2, 12799, Pitch_bend_c, 0, 7899
2, 12800, Pitch_bend_c, 0, 8092
2, 12801, Pitch_bend_c, 0, 8287
2, 12802, Pitch_bend_c, 0, 8481
2, 12803, Pitch_bend_c, 0, 8667
2, 12804, Pitch_bend_c, 0, 8840
2, 12805, Pitch_bend_c, 0, 8998
2, 12806, Pitch_bend_c, 0, 9135
2, 12807, Pitch_bend_c, 0, 9248
2, 12808, Pitch_bend_c, 0, 9334
2, 12809, Pitch_bend_c, 0, 9392
2, 12810, Pitch_bend_c, 0, 9419
2, 12811, Pitch_bend_c, 0, 9415
2, 12812, Pitch_bend_c, 0, 9379
2, 12813, Pitch_bend_c, 0, 9314
2, 12814, Pitch_bend_c, 0, 9221
2, 12815, Pitch_bend_c, 0, 9101
2, 12816, Note_off_c, 0, 73, 64
2, 12816, Pitch_bend_c, 0, 8192
2, 12816, Note_on_c, 0, 73, 64
2, 12888, Pitch_bend_c, 0, 9398
2, 12889, Pitch_bend_c, 0, 9420
2, 12890, Pitch_bend_c, 0, 9411
2, 12891, Pitch_bend_c, 0, 9371
2, 12892, Pitch_bend_c, 0, 9302
2, 12893, Pitch_bend_c, 0, 9204
2, 12894, Pitch_bend_c, 0, 9081
2, 12895, Pitch_bend_c, 0, 8935
2, 12896, Pitch_bend_c, 0, 8770
2, 12897, Pitch_bend_c, 0, 8590
2, 12898, Pitch_bend_c, 0, 8401
2, 12899, Pitch_bend_c, 0, 8206
2, 12900, Pitch_bend_c, 0, 8011
2, 12901, Pitch_bend_c, 0, 7820
2, 12902, Pitch_bend_c, 0, 7639
2, 12903, Pitch_bend_c, 0, 7472
2, 12904, Pitch_bend_c, 0, 7323
2, 12905, Pitch_bend_c, 0, 7196
2, 12906, Pitch_bend_c, 0, 7095
2, 12907, Pitch_bend_c, 0, 7021
2, 12908, Pitch_bend_c, 0, 6977
2, 12909, Pitch_bend_c, 0, 6963
2, 12910, Pitch_bend_c, 0, 6981
2, 12911, Pitch_bend_c, 0, 7030
2, 12912, Note_off_c, 0, 73, 64
2, 12912, Pitch_bend_c, 0, 8192
2, 12912, Note_on_c, 0, 73, 64
2, 12960, Note_off_c, 0, 73, 64
2, 12960, Note_on_c, 0, 76, 64
2, 13008, Note_off_c, 0, 76, 64
2, 13008, Note_on_c, 0, 78, 64
2, 13056, Note_off_c, 0, 78, 64
2, 13056, Note_on_c, 0, 78, 64
2, 13128, Pitch_bend_c, 0, 7102
2, 13129, Pitch_bend_c, 0, 7205
2, 13130, Pitch_bend_c, 0, 7334
2, 13131, Pitch_bend_c, 0, 7485
2, 13132, Pitch_bend_c, 0, 7653
2, 13133, Pitch_bend_c, 0, 7835
2, 13134, Pitch_bend_c, 0, 8026
2, 13135, Pitch_bend_c, 0, 8222
2, 13136, Pitch_bend_c, 0, 8416
2, 13137, Pitch_bend_c, 0, 8605
2, 13138, Pitch_bend_c, 0, 8784
2, 13139, Pitch_bend_c, 0, 8947
2, 13140, Pitch_bend_c, 0, 9091
2, 13141, Pitch_bend_c, 0, 9213
2, 13142, Pitch_bend_c, 0, 9308
2, 13143, Pitch_bend_c, 0, 9376
2, 13144, Pitch_bend_c, 0, 9413
2, 13145, Pitch_bend_c, 0, 9419
2, 13146, Pitch_bend_c, 0, 9395
2, 13147, Pitch_bend_c, 0, 9339
2, 13148, Pitch_bend_c, 0, 9255
2, 13149, Pitch_bend_c, 0, 9144
2, 13150, Pitch_bend_c, 0, 9008
2, 13151, Pitch_bend_c, 0, 8852
2, 13152, Pitch_bend_c, 0, 8680
2, 13153, Pitch_bend_c, 0, 8494
2, 13154, Pitch_bend_c, 0, 8302
2, 13155, Pitch_bend_c, 0, 8106
2, 13156, Pitch_bend_c, 0, 7912
2, 13157, Pitch_bend_c, 0, 7726
2, 13158, Pitch_bend_c, 0, 7552
2, 13159, Pitch_bend_c, 0, 7393
2, 13160, Pitch_bend_c, 0, 7255
2, 13161, Pitch_bend_c, 0, 7141
2, 13162, Pitch_bend_c, 0, 7053
2, 13163, Pitch_bend_c, 0, 6994
2, 13164, Pitch_bend_c, 0, 6966
2, 13165, Pitch_bend_c, 0, 6969
2, 13166, Pitch_bend_c, 0, 7002
2, 13167, Pitch_bend_c, 0, 7066
2, 13168, Pitch_bend_c, 0, 7158
2, 13169, Pitch_bend_c, 0, 7277
2, 13170, Pitch_bend_c, 0, 7419
2, 13171, Pitch_bend_c, 0, 7580
2, 13172, Pitch_bend_c, 0, 7757
2, 13173, Pitch_bend_c, 0, 7945
2, 13174, Pitch_bend_c, 0, 8139
2, 13175, Pitch_bend_c, 0, 8334
2, 13176, Pitch_bend_c, 0, 8526
2, 13177, Pitch_bend_c, 0, 8710
2, 13178, Pitch_bend_c, 0, 8880
2, 13179, Pitch_bend_c, 0, 9033
2, 13180, Pitch_bend_c, 0, 9164
2, 13181, Pitch_bend_c, 0, 9271
2, 13182, Pitch_bend_c, 0, 9351
2, 13183, Pitch_bend_c, 0, 9401
2, 13184, Pitch_bend_c, 0, 9421
2, 13185, Pitch_bend_c, 0, 9409
2, 13186, Pitch_bend_c, 0, 9367
2, 13187, Pitch_bend_c, 0, 9294
2, 13188, Pitch_bend_c, 0, 9194
2, 13189, Pitch_bend_c, 0, 9069
2, 13190, Pitch_bend_c, 0, 8921
2, 13191, Pitch_bend_c, 0, 8755
2, 13192, Pitch_bend_c, 0, 8574
2, 13193, Pitch_bend_c, 0, 8384
2, 13194, Pitch_bend_c, 0, 8189
2, 13195, Pitch_bend_c, 0, 7994
2, 13196, Pitch_bend_c, 0, 7804
2, 13197, Pitch_bend_c, 0, 7624
2, 13198, Pitch_bend_c, 0, 7458
2, 13199, Pitch_bend_c, 0, 7311
2, 13200, Pitch_bend_c, 0, 7186
2, 13201, Pitch_bend_c, 0, 7087
2, 13202, Pitch_bend_c, 0, 7016
2, 13203, Pitch_bend_c, 0, 6974
2, 13204, Pitch_bend_c, 0, 6964
2, 13205, Pitch_bend_c, 0, 6984
2, 13206, Pitch_bend_c, 0, 7035
2, 13207, Pitch_bend_c, 0, 7116
2, 13208, Pitch_bend_c, 0, 7224
2, 13209, Pitch_bend_c, 0, 7356
2, 13210, Pitch_bend_c, 0, 7509
2, 13211, Pitch_bend_c, 0, 7680
2, 13212, Pitch_bend_c, 0, 7864
2, 13213, Pitch_bend_c, 0, 8056
2, 13214, Pitch_bend_c, 0, 8252
2, 13215, Pitch_bend_c, 0, 8446
2, 13216, Pitch_bend_c, 0, 8633
2, 13217, Pitch_bend_c, 0, 8810
2, 13218, Pitch_bend_c, 0, 8970
2, 13219, Pitch_bend_c, 0, 9111
2, 13220, Pitch_bend_c, 0, 9229
2, 13221, Pitch_bend_c, 0, 9321
2, 13222, Pitch_bend_c, 0, 9383
2, 13223, Pitch_bend_c, 0, 9416
2, 13224, Pitch_bend_c, 0, 9418
2, 13225, Pitch_bend_c, 0, 9388
2, 13226, Pitch_bend_c, 0, 9328
2, 13227, Pitch_bend_c, 0, 9240
2, 13228, Pitch_bend_c, 0, 9125
2, 13229, Pitch_bend_c, 0, 8986
2, 13230, Pitch_bend_c, 0, 8827
2, 13231, Pitch_bend_c, 0, 8652
2, 13232, Pitch_bend_c, 0, 8465
2, 13233, Pitch_bend_c, 0, 8272
2, 13234, Pitch_bend_c, 0, 8076
2, 13235, Pitch_bend_c, 0, 7884
2, 13236, Pitch_bend_c, 0, 7699
2, 13237, Pitch_bend_c, 0, 7526
2, 13238, Pitch_bend_c, 0, 7371
2, 13239, Pitch_bend_c, 0, 7236
2, 13240, Pitch_bend_c, 0, 7126
2, 13241, Pitch_bend_c, 0, 7042
2, 13242, Pitch_bend_c, 0, 6988
2, 13243, Pitch_bend_c, 0, 6964
2, 13244, Pitch_bend_c, 0, 6972
2, 13245, Pitch_bend_c, 0, 7010
2, 13246, Pitch_bend_c, 0, 7078
2, 13247, Pitch_bend_c, 0, 7175
2, 13248, Pitch_bend_c, 0, 7297
2, 13249, Pitch_bend_c, 0, 7442
2, 13250, Pitch_bend_c, 0, 7606
2, 13251, Pitch_bend_c, 0, 7785
2, 13252, Pitch_bend_c, 0, 7974
2, 13253, Pitch_bend_c, 0, 8169
2, 13254, Pitch_bend_c, 0, 8364
2, 13255, Pitch_bend_c, 0, 8555
2, 13256, Pitch_bend_c, 0, 8736
2, 13257, Pitch_bend_c, 0, 8904
2, 13258, Pitch_bend_c, 0, 9054
2, 13259, Pitch_bend_c, 0, 9182
2, 13260, Pitch_bend_c, 0, 9285
2, 13261, Pitch_bend_c, 0, 9360
2, 13262, Pitch_bend_c, 0, 9406
2, 13263, Pitch_bend_c, 0, 9421
2, 13264, Pitch_bend_c, 0, 9404
2, 13265, Pitch_bend_c, 0, 9357
2, 13266, Pitch_bend_c, 0, 9281
2, 13267, Pitch_bend_c, 0, 9177
2, 13268, Pitch_bend_c, 0, 9047
2, 13269, Pitch_bend_c, 0, 8897
2, 13270, Pitch_bend_c, 0, 8728
2, 13271, Pitch_bend_c, 0, 8546
2, 13272, Pitch_bend_c, 0, 8354
2, 13273, Pitch_bend_c, 0, 8159
2, 13274, Pitch_bend_c, 0, 7965
2, 13275, Pitch_bend_c, 0, 7776
2, 13276, Pitch_bend_c, 0, 7598
2, 13277, Pitch_bend_c, 0, 7434
2, 13278, Pitch_bend_c, 0, 7291
2, 13279, Pitch_bend_c, 0, 7169
2, 13280, Pitch_bend_c, 0, 7074
2, 13281, Pitch_bend_c, 0, 7007
2, 13282, Pitch_bend_c, 0, 6971
2, 13283, Pitch_bend_c, 0, 6965
2, 13284, Pitch_bend_c, 0, 6990
2, 13285, Pitch_bend_c, 0, 7046
2, 13286, Pitch_bend_c, 0, 7130
2, 13287, Pitch_bend_c, 0, 7242
2, 13288, Pitch_bend_c, 0, 7378
2, 13289, Pitch_bend_c, 0, 7534
2, 13290, Pitch_bend_c, 0, 7707
2, 13291, Pitch_bend_c, 0, 7893
2, 13292, Pitch_bend_c, 0, 8086
2, 13293, Pitch_bend_c, 0, 8281
2, 13294, Pitch_bend_c, 0, 8475
2, 13295, Pitch_bend_c, 0, 8661
2, 13296, Pitch_bend_c, 0, 8835
2, 13297, Pitch_bend_c, 0, 8993
2, 13298, Pitch_bend_c, 0, 9131
2, 13299, Pitch_bend_c, 0, 9245
2, 13300, Pitch_bend_c, 0, 9332
2, 13301, Pitch_bend_c, 0, 9390
2, 13302, Pitch_bend_c, 0, 9418
2, 13303, Pitch_bend_c, 0, 9415
2, 13304, Pitch_bend_c, 0, 9381
2, 13305, Pitch_bend_c, 0, 9317
2, 13306, Pitch_bend_c, 0, 9224
2, 13307, Pitch_bend_c, 0, 9105
2, 13308, Pitch_bend_c, 0, 8963
2, 13309, Pitch_bend_c, 0, 8801
2, 13310, Pitch_bend_c, 0, 8624
2, 13311, Pitch_bend_c, 0, 8436
2, 13312, Pitch_bend_c, 0, 8242
2, 13313, Pitch_bend_c, 0, 8047
2, 13314, Pitch_bend_c, 0, 7855
2, 13315, Pitch_bend_c, 0, 7672
2, 13316, Pitch_bend_c, 0, 7502
2, 13317, Pitch_bend_c, 0, 7349
2, 13318, Pitch_bend_c, 0, 7218
2, 13319, Pitch_bend_c, 0, 7111
2, 13320, Pitch_bend_c, 0, 7032
2, 13321, Pitch_bend_c, 0, 6982
2, 13322, Pitch_bend_c, 0, 6963
2, 13323, Pitch_bend_c, 0, 6975
2, 13324, Pitch_bend_c, 0, 7018
2, 13325, Pitch_bend_c, 0, 7091
2, 13326, Pitch_bend_c, 0, 7192
2, 13327, Pitch_bend_c, 0, 7318
2, 13328, Pitch_bend_c, 0, 7466
2, 13329, Pitch_bend_c, 0, 7632
2, 13330, Pitch_bend_c, 0, 7813
2, 13331, Pitch_bend_c, 0, 8003
2, 13332, Pitch_bend_c, 0, 8198
2, 13333, Pitch_bend_c, 0, 8393
2, 13334, Pitch_bend_c, 0, 8583
2, 13335, Pitch_bend_c, 0, 8763
2, 13336, Pitch_bend_c, 0, 8928
2, 13337, Pitch_bend_c, 0, 9075
2, 13338, Pitch_bend_c, 0, 9200
2, 13339, Pitch_bend_c, 0, 9298
2, 13340, Pitch_bend_c, 0, 9369
2, 13341, Pitch_bend_c, 0, 9410
2, 13342, Pitch_bend_c, 0, 9420
2, 13343, Pitch_bend_c, 0, 9399
2, 13344, Note_off_c, 0, 78, 64
2, 13344, Pitch_bend_c, 0, 8192
2, 13344, Note_on_c, 0, 78, 64
2, 13392, Note_off_c, 0, 78, 64
2, 13392, Note_on_c, 0, 77, 64
2, 13464, Pitch_bend_c, 0, 9191
2, 13465, Pitch_bend_c, 0, 9064
2, 13466, Pitch_bend_c, 0, 8916
2, 13467, Pitch_bend_c, 0, 8749
2, 13468, Pitch_bend_c, 0, 8568
2, 13469, Pitch_bend_c, 0, 8378
2, 13470, Pitch_bend_c, 0, 8183
2, 13471, Pitch_bend_c, 0, 7988
2, 13472, Pitch_bend_c, 0, 7798
2, 13473, Pitch_bend_c, 0, 7618
2, 13474, Pitch_bend_c, 0, 7453
2, 13475, Pitch_bend_c, 0, 7307
2, 13476, Pitch_bend_c, 0, 7183
2, 13477, Pitch_bend_c, 0, 7084
2, 13478, Pitch_bend_c, 0, 7014
2, 13479, Pitch_bend_c, 0, 6973
2, 13480, Pitch_bend_c, 0, 6964
2, 13481, Pitch_bend_c, 0, 6985
2, 13482, Pitch_bend_c, 0, 7037
2, 13483, Pitch_bend_c, 0, 7119
2, 13484, Pitch_bend_c, 0, 7227
2, 13485, Pitch_bend_c, 0, 7360
2, 13486, Pitch_bend_c, 0, 7515
2, 13487, Pitch_bend_c, 0, 7686
2, 13488, Pitch_bend_c, 0, 7870
2, 13489, Pitch_bend_c, 0, 8062
2, 13490, Pitch_bend_c, 0, 8258
2, 13491, Pitch_bend_c, 0, 8452
2, 13492, Pitch_bend_c, 0, 8639
2, 13493, Pitch_bend_c, 0, 8815
2, 13494, Pitch_bend_c, 0, 8975
2, 13495, Pitch_bend_c, 0, 9116
2, 13496, Pitch_bend_c, 0, 9232
2, 13497, Pitch_bend_c, 0, 9323
2, 13498, Pitch_bend_c, 0, 9385
2, 13499, Pitch_bend_c, 0, 9417
2, 13501, Pitch_bend_c, 0, 9387
2, 13502, Pitch_bend_c, 0, 9326
2, 13503, Pitch_bend_c, 0, 9237
2, 13504, Pitch_bend_c, 0, 9121
2, 13505, Pitch_bend_c, 0, 8981
2, 13506, Pitch_bend_c, 0, 8822
2, 13507, Pitch_bend_c, 0, 8646
2, 13508, Pitch_bend_c, 0, 8459
2, 13509, Pitch_bend_c, 0, 8266
2, 13510, Pitch_bend_c, 0, 8070
2, 13511, Pitch_bend_c, 0, 7877
2, 13512, Pitch_bend_c, 0, 7693
2, 13513, Pitch_bend_c, 0, 7521
2, 13514, Pitch_bend_c, 0, 7366
2, 13515, Pitch_bend_c, 0, 7232
2, 13516, Pitch_bend_c, 0, 7123
2, 13517, Pitch_bend_c, 0, 7040
2, 13518, Pitch_bend_c, 0, 6987
2, 13519, Pitch_bend_c, 0, 6964
2, 13520, Pitch_bend_c, 0, 6972
2, 13521, Pitch_bend_c, 0, 7012
2, 13522, Pitch_bend_c, 0, 7081
2, 13523, Pitch_bend_c, 0, 7178
2, 13524, Pitch_bend_c, 0, 7301
2, 13525, Pitch_bend_c, 0, 7447
2, 13526, Pitch_bend_c, 0, 7611
2, 13527, Pitch_bend_c, 0, 7791
2, 13528, Pitch_bend_c, 0, 7980
2, 13529, Pitch_bend_c, 0, 8175
2, 13530, Pitch_bend_c, 0, 8370
2, 13531, Pitch_bend_c, 0, 8561
2, 13532, Pitch_bend_c, 0, 8742
2, 13533, Pitch_bend_c, 0, 8909
2, 13534, Pitch_bend_c, 0, 9059
2, 13535, Pitch_bend_c, 0, 9186
2, 13536, Pitch_bend_c, 0, 9288
2, 13537, Pitch_bend_c, 0, 9362
2, 13538, Pitch_bend_c, 0, 9407
2, 13539, Pitch_bend_c, 0, 9421
2, 13540, Pitch_bend_c, 0, 9403
2, 13541, Pitch_bend_c, 0, 9355
2, 13542, Pitch_bend_c, 0, 9278
2, 13543, Pitch_bend_c, 0, 9173
2, 13544, Pitch_bend_c, 0, 9043
2, 13545, Pitch_bend_c, 0, 8892
2, 13546, Pitch_bend_c, 0, 8722
2, 13547, Pitch_bend_c, 0, 8540
2, 13548, Pitch_bend_c, 0, 8348
2, 13549, Pitch_bend_c, 0, 8153
2, 13550, Pitch_bend_c, 0, 7958
2, 13551, Pitch_bend_c, 0, 7770
2, 13552, Pitch_bend_c, 0, 7592
2, 13553, Pitch_bend_c, 0, 7430
2, 13554, Pitch_bend_c, 0, 7286
2, 13555, Pitch_bend_c, 0, 7166
2, 13556, Pitch_bend_c, 0, 7072
2, 13557, Pitch_bend_c, 0, 7006
2, 13558, Pitch_bend_c, 0, 6970
2, 13559, Pitch_bend_c, 0, 6965
2, 13560, Pitch_bend_c, 0, 6991
2, 13561, Pitch_bend_c, 0, 7048
2, 13562, Pitch_bend_c, 0, 7134
2, 13563, Pitch_bend_c, 0, 7246
2, 13564, Pitch_bend_c, 0, 7383
2, 13565, Pitch_bend_c, 0, 7540
2, 13566, Pitch_bend_c, 0, 7713
2, 13567, Pitch_bend_c, 0, 7899
2, 13568, Pitch_bend_c, 0, 8092
2, 13569, Pitch_bend_c, 0, 8287
2, 13570, Pitch_bend_c, 0, 8481
2, 13571, Pitch_bend_c, 0, 8667
2, 13572, Pitch_bend_c, 0, 8840
2, 13573, Pitch_bend_c, 0, 8998
2, 13574, Pitch_bend_c, 0, 9135
2, 13575, Pitch_bend_c, 0, 9248
2, 13576, Pitch_bend_c, 0, 9334
2, 13577, Pitch_bend_c, 0, 9392
2, 13578, Pitch_bend_c, 0, 9419
2, 13579, Pitch_bend_c, 0, 9415
2, 13580, Pitch_bend_c, 0, 9379
2, 13581, Pitch_bend_c, 0, 9314
2, 13582, Pitch_bend_c, 0, 9221
2, 13583, Pitch_bend_c, 0, 9101
2, 13584, Pitch_bend_c, 0, 8958
2, 13585, Pitch_bend_c, 0, 8796
2, 13586, Pitch_bend_c, 0, 8618
2, 13587, Pitch_bend_c, 0, 8430
2, 13588, Pitch_bend_c, 0, 8236
2, 13589, Pitch_bend_c, 0, 8040
2, 13590, Pitch_bend_c, 0, 7849
2, 13591, Pitch_bend_c, 0, 7666
2, 13592, Pitch_bend_c, 0, 7496
2, 13593, Pitch_bend_c, 0, 7344
2, 13594, Pitch_bend_c, 0, 7214
2, 13595, Pitch_bend_c, 0, 7108
2, 13596, Pitch_bend_c, 0, 7030
2, 13597, Pitch_bend_c, 0, 6981
2, 13598, Pitch_bend_c, 0, 6963
2, 13599, Pitch_bend_c, 0, 6976
2, 13600, Pitch_bend_c, 0, 7020
2, 13601, Pitch_bend_c, 0, 7094
2, 13602, Pitch_bend_c, 0, 7195
2, 13603, Pitch_bend_c, 0, 7322
2, 13604, Pitch_bend_c, 0, 7471
2, 13605, Pitch_bend_c, 0, 7638
2, 13606, Pitch_bend_c, 0, 7819
2, 13607, Pitch_bend_c, 0, 8009
2, 13608, Pitch_bend_c, 0, 8205
2, 13609, Pitch_bend_c, 0, 8399
2, 13610, Pitch_bend_c, 0, 8589
2, 13611, Pitch_bend_c, 0, 8768
2, 13612, Pitch_bend_c, 0, 8933
2, 13613, Pitch_bend_c, 0, 9080
2, 13614, Pitch_bend_c, 0, 9203
2, 13615, Pitch_bend_c, 0, 9301
2, 13616, Pitch_bend_c, 0, 9371
2, 13617, Pitch_bend_c, 0, 9411
2, 13618, Pitch_bend_c, 0, 9420
2, 13619, Pitch_bend_c, 0, 9398
2, 13620, Pitch_bend_c, 0, 9345
2, 13621, Pitch_bend_c, 0, 9264
2, 13622, Pitch_bend_c, 0, 9155
2, 13623, Pitch_bend_c, 0, 9021
2, 13624, Pitch_bend_c, 0, 8867
2, 13625, Pitch_bend_c, 0, 8695
2, 13626, Pitch_bend_c, 0, 8511
2, 13627, Pitch_bend_c, 0, 8319
2, 13628, Pitch_bend_c, 0, 8123
2, 13629, Pitch_bend_c, 0, 7929
2, 13630, Pitch_bend_c, 0, 7742
2, 13631, Pitch_bend_c, 0, 7566
2, 13632, Pitch_bend_c, 0, 7406
2, 13633, Pitch_bend_c, 0, 7266
2, 13634, Pitch_bend_c, 0, 7150
2, 13635, Pitch_bend_c, 0, 7060
2, 13636, Pitch_bend_c, 0, 6998
2, 13637, Pitch_bend_c, 0, 6967
2, 13639, Pitch_bend_c, 0, 6998
2, 13640, Pitch_bend_c, 0, 7059
2, 13641, Pitch_bend_c, 0, 7149
2, 13642, Pitch_bend_c, 0, 7265
2, 13643, Pitch_bend_c, 0, 7405
2, 13644, Pitch_bend_c, 0, 7565
2, 13645, Pitch_bend_c, 0, 7741
2, 13646, Pitch_bend_c, 0, 7928
2, 13647, Pitch_bend_c, 0, 8122
2, 13648, Pitch_bend_c, 0, 8317
2, 13649, Pitch_bend_c, 0, 8510
2, 13650, Pitch_bend_c, 0, 8694
2, 13651, Pitch_bend_c, 0, 8866
2, 13652, Pitch_bend_c, 0, 9020
2, 13653, Pitch_bend_c, 0, 9154
2, 13654, Pitch_bend_c, 0, 9263
2, 13655, Pitch_bend_c, 0, 9345
2, 13656, Pitch_bend_c, 0, 9398
2, 13657, Pitch_bend_c, 0, 9420
2, 13658, Pitch_bend_c, 0, 9411
2, 13659, Pitch_bend_c, 0, 9371
2, 13660, Pitch_bend_c, 0, 9302
2, 13661, Pitch_bend_c, 0, 9204
2, 13662, Pitch_bend_c, 0, 9081
2, 13663, Pitch_bend_c, 0, 8935
2, 13664, Pitch_bend_c, 0, 8770
2, 13665, Pitch_bend_c, 0, 8590
2, 13666, Pitch_bend_c, 0, 8401
2, 13667, Pitch_bend_c, 0, 8206
2, 13668, Pitch_bend_c, 0, 8011
2, 13669, Pitch_bend_c, 0, 7820
2, 13670, Pitch_bend_c, 0, 7639
2, 13671, Pitch_bend_c, 0, 7472
2, 13672, Pitch_bend_c, 0, 7323
2, 13673, Pitch_bend_c, 0, 7196
2, 13674, Pitch_bend_c, 0, 7095
2, 13675, Pitch_bend_c, 0, 7021
2, 13676, Pitch_bend_c, 0, 6977
2, 13677, Pitch_bend_c, 0, 6963
2, 13678, Pitch_bend_c, 0, 6981
2, 13679, Pitch_bend_c, 0, 7030
2, 13680, Note_off_c, 0, 77, 64
2, 13680, Pitch_bend_c, 0, 8192
2, 13680, Note_on_c, 0, 77, 64
2, 13728, Note_off_c, 0, 77, 64
2, 13728, Note_on_c, 0, 77, 64
2, 13776, Note_off_c, 0, 77, 64
2, 13776, Note_on_c, 0, 77, 64
2, 13824, Note_off_c, 0, 77, 64
2, 13824, Instrument_name_t, "wave: square, volume: loud, envelope: sudden, filter: sustain sharp, chorus: union, effect: none"
2, 13824, Program_c, 0, 80
2, 13824, Control_c, 0, 7, 102
2, 13824, Note_on_c, 0, 78, 64
2, 13848, Note_off_c, 0, 78, 64
2, 13872, Note_on_c, 0, 85, 64
2, 13896, Note_off_c, 0, 85, 64
2, 13920, Note_on_c, 0, 90, 64
2, 13944, Note_off_c, 0, 90, 64
2, 13968, Note_on_c, 0, 92, 64
2, 13992, Note_off_c, 0, 92, 64
2, 14016, Note_on_c, 0, 85, 64
2, 14040, Note_off_c, 0, 85, 64
2, 14064, Note_on_c, 0, 90, 64
2, 14088, Note_off_c, 0, 90, 64
2, 14112, Note_on_c, 0, 92, 64
2, 14136, Note_off_c, 0, 92, 64
2, 14160, Note_on_c, 0, 85, 64
2, 14184, Note_off_c, 0, 85, 64
2, 14208, Note_on_c, 0, 95, 64
2, 14232, Note_off_c, 0, 95, 64
2, 14256, Note_on_c, 0, 85, 64
2, 14280, Note_off_c, 0, 85, 64
2, 14304, Note_on_c, 0, 95, 64
2, 14328, Note_off_c, 0, 95, 64
2, 14352, Note_on_c, 0, 94, 64
2, 14376, Note_off_c, 0, 94, 64
2, 14400, Note_on_c, 0, 85, 64
2, 14424, Note_off_c, 0, 85, 64
2, 14448, Note_on_c, 0, 94, 64
2, 14472, Note_off_c, 0, 94, 64
2, 14496, Note_on_c, 0, 92, 64
2, 14520, Note_off_c, 0, 92, 64
2, 14544, Note_on_c, 0, 90, 64
2, 14568, Note_off_c, 0, 90, 64
2, 14592, Note_on_c, 0, 78, 64
2, 14616, Note_off_c, 0, 78, 64
2, 14640, Note_on_c, 0, 85, 64
2, 14664, Note_off_c, 0, 85, 64
2, 14688, Note_on_c, 0, 90, 64
2, 14712, Note_off_c, 0, 90, 64
2, 14736, Note_on_c, 0, 92, 64
2, 14760, Note_off_c, 0, 92, 64
2, 14784, Note_on_c, 0, 85, 64
2, 14808, Note_off_c, 0, 85, 64
2, 14832, Note_on_c, 0, 90, 64
2, 14856, Note_off_c, 0, 90, 64
2, 14880, Note_on_c, 0, 92, 64
2, 14904, Note_off_c, 0, 92, 64
2, 14928, Note_on_c, 0, 85, 64
2, 14952, Note_off_c, 0, 85, 64
2, 14976, Note_on_c, 0, 95, 64
2, 15000, Note_off_c, 0, 95, 64
2, 15024, Note_on_c, 0, 85, 64
2, 15048, Note_off_c, 0, 85, 64
2, 15072, Note_on_c, 0, 95, 64
2, 15096, Note_off_c, 0, 95, 64
2, 15120, Note_on_c, 0, 94, 64
2, 15144, Note_off_c, 0, 94, 64
2, 15168, Note_on_c, 0, 85, 64
2, 15192, Note_off_c, 0, 85, 64
2, 15216, Note_on_c, 0, 94, 64
2, 15240, Note_off_c, 0, 94, 64
2, 15264, Note_on_c, 0, 92, 64
2, 15288, Note_off_c, 0, 92, 64
2, 15312, Note_on_c, 0, 90, 64
2, 15336, Note_off_c, 0, 90, 64
2, 15360, Note_on_c, 0, 78, 64
2, 15384, Note_off_c, 0, 78, 64
2, 15408, Note_on_c, 0, 85, 64
2, 15432, Note_off_c, 0, 85, 64
2, 15456, Note_on_c, 0, 90, 64
2, 15480, Note_off_c, 0, 90, 64
2, 15504, Note_on_c, 0, 92, 64
2, 15528, Note_off_c, 0, 92, 64
2, 15552, Note_on_c, 0, 85, 64
2, 15576, Note_off_c, 0, 85, 64
2, 15600, Note_on_c, 0, 90, 64
2, 15624, Note_off_c, 0, 90, 64
2, 15648, Note_on_c, 0, 92, 64
2, 15672, Note_off_c, 0, 92, 64
2, 15696, Note_on_c, 0, 85, 64
2, 15720, Note_off_c, 0, 85, 64
2, 15744, Note_on_c, 0, 95, 64
2, 15768, Note_off_c, 0, 95, 64
2, 15792, Note_on_c, 0, 85, 64
2, 15816, Note_off_c, 0, 85, 64
2, 15840, Note_on_c, 0, 95, 64
2, 15864, Note_off_c, 0, 95, 64
2, 15888, Note_on_c, 0, 94, 64
2, 15912, Note_off_c, 0, 94, 64
2, 15936, Note_on_c, 0, 85, 64
2, 15960, Note_off_c, 0, 85, 64
2, 15984, Note_on_c, 0, 94, 64
2, 16008, Note_off_c, 0, 94, 64
2, 16032, Note_on_c, 0, 92, 64
2, 16056, Note_off_c, 0, 92, 64
2, 16080, Note_on_c, 0, 90, 64
2, 16104, Note_off_c, 0, 90, 64
2, 16128, Note_on_c, 0, 78, 64
2, 16152, Note_off_c, 0, 78, 64
2, 16176, Note_on_c, 0, 85, 64
2, 16200, Note_off_c, 0, 85, 64
2, 16224, Note_on_c, 0, 90, 64
2, 16248, Note_off_c, 0, 90, 64
2, 16272, Note_on_c, 0, 92, 64
2, 16296, Note_off_c, 0, 92, 64
2, 16320, Note_on_c, 0, 85, 64
2, 16344, Note_off_c, 0, 85, 64
2, 16368, Note_on_c, 0, 90, 64
2, 16392, Note_off_c, 0, 90, 64
2, 16416, Note_on_c, 0, 92, 64
2, 16440, Note_off_c, 0, 92, 64
2, 16464, Note_on_c, 0, 85, 64
2, 16488, Note_off_c, 0, 85, 64
2, 16512, Note_on_c, 0, 95, 64
2, 16536, Note_off_c, 0, 95, 64
2, 16560, Note_on_c, 0, 85, 64
2, 16584, Note_off_c, 0, 85, 64
2, 16608, Note_on_c, 0, 95, 64
2, 16632, Note_off_c, 0, 95, 64
2, 16656, Note_on_c, 0, 94, 64
2, 16680, Note_off_c, 0, 94, 64
2, 16704, Note_on_c, 0, 85, 64
2, 16728, Note_off_c, 0, 85, 64
2, 16752, Note_on_c, 0, 94, 64
2, 16776, Note_off_c, 0, 94, 64
2, 16800, Note_on_c, 0, 92, 64
2, 16824, Note_off_c, 0, 92, 64
2, 16848, Note_on_c, 0, 90, 64
2, 16872, Note_off_c, 0, 90, 64
2, 16896, Note_on_c, 0, 78, 64
2, 16920, Note_off_c, 0, 78, 64
2, 16944, Note_on_c, 0, 85, 64
2, 16968, Note_off_c, 0, 85, 64
2, 16992, Note_on_c, 0, 90, 64
2, 17016, Note_off_c, 0, 90, 64
2, 17040, Note_on_c, 0, 92, 64
2, 17064, Note_off_c, 0, 92, 64
2, 17088, Note_on_c, 0, 85, 64
2, 17112, Note_off_c, 0, 85, 64
2, 17136, Note_on_c, 0, 90, 64
2, 17160, Note_off_c, 0, 90, 64
2, 17184, Note_on_c, 0, 92, 64
2, 17208, Note_off_c, 0, 92, 64
2, 17232, Note_on_c, 0, 85, 64
2, 17256, Note_off_c, 0, 85, 64
2, 17280, Note_on_c, 0, 95, 64
2, 17304, Note_off_c, 0, 95, 64
2, 17328, Note_on_c, 0, 85, 64
2, 17352, Note_off_c, 0, 85, 64
2, 17376, Note_on_c, 0, 95, 64
2, 17400, Note_off_c, 0, 95, 64
2, 17424, Note_on_c, 0, 94, 64
2, 17448, Note_off_c, 0, 94, 64
2, 17472, Note_on_c, 0, 85, 64
2, 17496, Note_off_c, 0, 85, 64
2, 17520, Note_on_c, 0, 94, 64
2, 17544, Note_off_c, 0, 94, 64
2, 17568, Note_on_c, 0, 92, 64
2, 17592, Note_off_c, 0, 92, 64
2, 17616, Note_on_c, 0, 90, 64
2, 17640, Note_off_c, 0, 90, 64
2, 17664, Note_on_c, 0, 78, 64
2, 17688, Note_off_c, 0, 78, 64
2, 17712, Note_on_c, 0, 85, 64
2, 17736, Note_off_c, 0, 85, 64
2, 17760, Note_on_c, 0, 90, 64
2, 17784, Note_off_c, 0, 90, 64
2, 17808, Note_on_c, 0, 92, 64
2, 17832, Note_off_c, 0, 92, 64
2, 17856, Note_on_c, 0, 85, 64
2, 17880, Note_off_c, 0, 85, 64
2, 17904, Note_on_c, 0, 90, 64
2, 17928, Note_off_c, 0, 90, 64
2, 17952, Note_on_c, 0, 92, 64
2, 17976, Note_off_c, 0, 92, 64
2, 18000, Note_on_c, 0, 85, 64
2, 18024, Note_off_c, 0, 85, 64
2, 18048, Note_on_c, 0, 95, 64
2, 18072, Note_off_c, 0, 95, 64
2, 18096, Note_on_c, 0, 85, 64
2, 18120, Note_off_c, 0, 85, 64
2, 18144, Note_on_c, 0, 95, 64
2, 18168, Note_off_c, 0, 95, 64
2, 18192, Note_on_c, 0, 94, 64
2, 18216, Note_off_c, 0, 94, 64
2, 18240, Note_on_c, 0, 85, 64
2, 18264, Note_off_c, 0, 85, 64
2, 18288, Note_on_c, 0, 94, 64
2, 18312, Note_off_c, 0, 94, 64
2, 18336, Note_on_c, 0, 92, 64
2, 18360, Note_off_c, 0, 92, 64
2, 18384, Note_on_c, 0, 90, 64
2, 18408, Note_off_c, 0, 90, 64
2, 18432, Note_on_c, 0, 78, 64
2, 18456, Note_off_c, 0, 78, 64
2, 18480, Note_on_c, 0, 85, 64
2, 18504, Note_off_c, 0, 85, 64
2, 18528, Note_on_c, 0, 90, 64
2, 18552, Note_off_c, 0, 90, 64
2, 18576, Note_on_c, 0, 92, 64
2, 18600, Note_off_c, 0, 92, 64
2, 18624, Note_on_c, 0, 85, 64
2, 18648, Note_off_c, 0, 85, 64
2, 18672, Note_on_c, 0, 90, 64
2, 18696, Note_off_c, 0, 90, 64
2, 18720, Note_on_c, 0, 92, 64
2, 18744, Note_off_c, 0, 92, 64
2, 18768, Note_on_c, 0, 85, 64
2, 18792, Note_off_c, 0, 85, 64
2, 18816, Note_on_c, 0, 95, 64
2, 18840, Note_off_c, 0, 95, 64
2, 18864, Note_on_c, 0, 85, 64
2, 18888, Note_off_c, 0, 85, 64
2, 18912, Note_on_c, 0, 95, 64
2, 18936, Note_off_c, 0, 95, 64
2, 18960, Note_on_c, 0, 94, 64
2, 18984, Note_off_c, 0, 94, 64
2, 19008, Note_on_c, 0, 85, 64
2, 19032, Note_off_c, 0, 85, 64
2, 19056, Note_on_c, 0, 94, 64
2, 19080, Note_off_c, 0, 94, 64
2, 19104, Note_on_c, 0, 92, 64
2, 19128, Note_off_c, 0, 92, 64
2, 19152, Note_on_c, 0, 90, 64
2, 19176, Note_off_c, 0, 90, 64
2, 19200, Note_on_c, 0, 78, 64
2, 19224, Note_off_c, 0, 78, 64
2, 19248, Note_on_c, 0, 85, 64
2, 19272, Note_off_c, 0, 85, 64
2, 19296, Note_on_c, 0, 90, 64
2, 19320, Note_off_c, 0, 90, 64
2, 19344, Note_on_c, 0, 92, 64
2, 19368, Note_off_c, 0, 92, 64
2, 19392, Note_on_c, 0, 85, 64
2, 19416, Note_off_c, 0, 85, 64
2, 19440, Note_on_c, 0, 90, 64
2, 19464, Note_off_c, 0, 90, 64
2, 19488, Note_on_c, 0, 92, 64
2, 19512, Note_off_c, 0, 92, 64
2, 19536, Note_on_c, 0, 85, 64
2, 19560, Note_off_c, 0, 85, 64
2, 19584, Note_on_c, 0, 95, 64
2, 19608, Note_off_c, 0, 95, 64
2, 19632, Note_on_c, 0, 85, 64
2, 19656, Note_off_c, 0, 85, 64
2, 19680, Note_on_c, 0, 95, 64
2, 19704, Note_off_c, 0, 95, 64
2, 19728, Note_on_c, 0, 94, 64
2, 19752, Note_off_c, 0, 94, 64
2, 19776, Note_on_c, 0, 85, 64
2, 19800, Note_off_c, 0, 85, 64
2, 19824, Note_on_c, 0, 94, 64
2, 19848, Note_off_c, 0, 94, 64
2, 19872, Note_on_c, 0, 92, 64
2, 19896, Note_off_c, 0, 92, 64
2, 19920, Note_on_c, 0, 90, 64
2, 19944, Note_off_c, 0, 90, 64
2, 19968, Note_on_c, 0, 78, 64
2, 19992, Note_off_c, 0, 78, 64
2, 20016, Note_on_c, 0, 83, 64
2, 20040, Note_off_c, 0, 83, 64
2, 20064, Note_on_c, 0, 90, 64
2, 20088, Note_off_c, 0, 90, 64
2, 20112, Note_on_c, 0, 92, 64
2, 20136, Note_off_c, 0, 92, 64
2, 20160, Note_on_c, 0, 83, 64
2, 20184, Note_off_c, 0, 83, 64
2, 20208, Note_on_c, 0, 90, 64
2, 20232, Note_off_c, 0, 90, 64
2, 20256, Note_on_c, 0, 95, 64
2, 20280, Note_off_c, 0, 95, 64
2, 20304, Note_on_c, 0, 94, 64
2, 20328, Note_off_c, 0, 94, 64
2, 20352, Note_on_c, 0, 92, 64
2, 20376, Note_off_c, 0, 92, 64
2, 20400, Note_on_c, 0, 85, 64
2, 20424, Note_off_c, 0, 85, 64
2, 20448, Note_on_c, 0, 83, 64
2, 20472, Note_off_c, 0, 83, 64
2, 20496, Note_on_c, 0, 82, 64
2, 20520, Note_off_c, 0, 82, 64
2, 20544, Note_on_c, 0, 80, 64
2, 20568, Note_off_c, 0, 80, 64
2, 20592, Note_on_c, 0, 73, 64
2, 20616, Note_off_c, 0, 73, 64
2, 20640, Note_on_c, 0, 71, 64
2, 20664, Note_off_c, 0, 71, 64
2, 20688, Note_on_c, 0, 70, 64
2, 20712, Note_off_c, 0, 70, 64
2, 20736, Instrument_name_t, "wave: pulse wide, volume: loudest, envelope: sudden, filter: sustain sharp, chorus: union, effect: vibrato delayed"
2, 20736, Program_c, 0, 70
2, 20736, Control_c, 0, 7, 127
2, 20736, Note_on_c, 0, 69, 64
2, 20784, Note_off_c, 0, 69, 64
2, 20784, Note_on_c, 0, 69, 64
2, 20832, Note_off_c, 0, 69, 64
2, 20928, Note_on_c, 0, 71, 64
2, 20976, Note_off_c, 0, 71, 64
2, 20976, Note_on_c, 0, 71, 64
2, 21024, Note_off_c, 0, 71, 64
2, 21072, Note_on_c, 0, 81, 64
2, 21144, Pitch_bend_c, 0, 9191
2, 21145, Pitch_bend_c, 0, 9064
2, 21146, Pitch_bend_c, 0, 8916
2, 21147, Pitch_bend_c, 0, 8749
2, 21148, Pitch_bend_c, 0, 8568
2, 21149, Pitch_bend_c, 0, 8378
2, 21150, Pitch_bend_c, 0, 8183
2, 21151, Pitch_bend_c, 0, 7988
2, 21152, Pitch_bend_c, 0, 7798
2, 21153, Pitch_bend_c, 0, 7618
2, 21154, Pitch_bend_c, 0, 7453
2, 21155, Pitch_bend_c, 0, 7307
2, 21156, Pitch_bend_c, 0, 7183
2, 21157, Pitch_bend_c, 0, 7084
2, 21158, Pitch_bend_c, 0, 7014
2, 21159, Pitch_bend_c, 0, 6973
2, 21160, Pitch_bend_c, 0, 6964
2, 21161, Pitch_bend_c, 0, 6985
2, 21162, Pitch_bend_c, 0, 7037
2, 21163, Pitch_bend_c, 0, 7119
2, 21164, Pitch_bend_c, 0, 7227
2, 21165, Pitch_bend_c, 0, 7360
2, 21166, Pitch_bend_c, 0, 7515
2, 21167, Pitch_bend_c, 0, 7686
2, 21168, Note_off_c, 0, 81, 64
2, 21168, Pitch_bend_c, 0, 8192
2, 21168, Note_on_c, 0, 80, 64
2, 21216, Note_off_c, 0, 80, 64
2, 21216, Note_on_c, 0, 81, 64
2, 21264, Note_off_c, 0, 81, 64
2, 21264, Note_on_c, 0, 88, 64
2, 21336, Note_off_c, 0, 88, 64
2, 21360, Note_on_c, 0, 92, 64
2, 21408, Note_off_c, 0, 92, 64
2, 21408, Note_on_c, 0, 93, 64
2, 21456, Note_off_c, 0, 93, 64
2, 21456, Note_on_c, 0, 100, 64
2, 21504, Note_off_c, 0, 100, 64
2, 21504, Note_on_c, 0, 62, 64
2, 21576, Pitch_bend_c, 0, 7102
2, 21577, Pitch_bend_c, 0, 7205
2, 21578, Pitch_bend_c, 0, 7334
2, 21579, Pitch_bend_c, 0, 7485
2, 21580, Pitch_bend_c, 0, 7653
2, 21581, Pitch_bend_c, 0, 7835
2, 21582, Pitch_bend_c, 0, 8026
2, 21583, Pitch_bend_c, 0, 8222
2, 21584, Pitch_bend_c, 0, 8416
2, 21585, Pitch_bend_c, 0, 8605
2, 21586, Pitch_bend_c, 0, 8784
2, 21587, Pitch_bend_c, 0, 8947
2, 21588, Pitch_bend_c, 0, 9091
2, 21589, Pitch_bend_c, 0, 9213
2, 21590, Pitch_bend_c, 0, 9308
2, 21591, Pitch_bend_c, 0, 9376
2, 21592, Pitch_bend_c, 0, 9413
2, 21593, Pitch_bend_c, 0, 9419
2, 21594, Pitch_bend_c, 0, 9395
2, 21595, Pitch_bend_c, 0, 9339
2, 21596, Pitch_bend_c, 0, 9255
2, 21597, Pitch_bend_c, 0, 9144
2, 21598, Pitch_bend_c, 0, 9008
2, 21599, Pitch_bend_c, 0, 8852
2, 21600, Note_off_c, 0, 62, 64
2, 21600, Pitch_bend_c, 0, 8192
2, 21600, Note_on_c, 0, 62, 64
2, 21648, Note_off_c, 0, 62, 64
2, 21648, Note_on_c, 0, 62, 64
2, 21720, Note_off_c, 0, 62, 64
2, 21744, Note_on_c, 0, 62, 64
2, 21792, Note_off_c, 0, 62, 64
2, 21840, Note_on_c, 0, 62, 64
2, 21841, Pitch_bend_c, 0, 8704
2, 21842, Pitch_bend_c, 0, 9216
2, 21843, Pitch_bend_c, 0, 9728
2, 21844, Pitch_bend_c, 0, 6144
2, 21844, Note_on_c, 0, 63, 64
2, 21844, Note_off_c, 0, 62, 64
2, 21845, Pitch_bend_c, 0, 6656
2, 21846, Pitch_bend_c, 0, 7168
2, 21847, Pitch_bend_c, 0, 7680
2, 21848, Pitch_bend_c, 0, 8192
2, 21849, Pitch_bend_c, 0, 8704
2, 21850, Pitch_bend_c, 0, 9216
2, 21851, Pitch_bend_c, 0, 9728
2, 21852, Pitch_bend_c, 0, 6144
2, 21852, Note_on_c, 0, 64, 64
2, 21852, Note_off_c, 0, 63, 64
2, 21853, Pitch_bend_c, 0, 6656
2, 21854, Pitch_bend_c, 0, 7168
2, 21855, Pitch_bend_c, 0, 7680
2, 21856, Pitch_bend_c, 0, 8192
2, 21857, Pitch_bend_c, 0, 8704
2, 21858, Pitch_bend_c, 0, 9216
2, 21859, Pitch_bend_c, 0, 9728
2, 21860, Pitch_bend_c, 0, 6144
2, 21860, Note_on_c, 0, 65, 64
2, 21860, Note_off_c, 0, 64, 64
2, 21861, Pitch_bend_c, 0, 6656
2, 21862, Pitch_bend_c, 0, 7168
2, 21863, Pitch_bend_c, 0, 7680
2, 21864, Pitch_bend_c, 0, 8192
2, 21912, Pitch_bend_c, 0, 9191
2, 21913, Pitch_bend_c, 0, 9064
2, 21914, Pitch_bend_c, 0, 8916
2, 21915, Pitch_bend_c, 0, 8749
2, 21916, Pitch_bend_c, 0, 8568
2, 21917, Pitch_bend_c, 0, 8378
2, 21918, Pitch_bend_c, 0, 8183
2, 21919, Pitch_bend_c, 0, 7988
2, 21920, Pitch_bend_c, 0, 7798
2, 21921, Pitch_bend_c, 0, 7618
2, 21922, Pitch_bend_c, 0, 7453
2, 21923, Pitch_bend_c, 0, 7307
2, 21924, Pitch_bend_c, 0, 7183
2, 21925, Pitch_bend_c, 0, 7084
2, 21926, Pitch_bend_c, 0, 7014
2, 21927, Pitch_bend_c, 0, 6973
2, 21928, Pitch_bend_c, 0, 6964
2, 21929, Pitch_bend_c, 0, 6985
2, 21930, Pitch_bend_c, 0, 7037
2, 21931, Pitch_bend_c, 0, 7119
2, 21932, Pitch_bend_c, 0, 7227
2, 21933, Pitch_bend_c, 0, 7360
2, 21934, Pitch_bend_c, 0, 7515
2, 21935, Pitch_bend_c, 0, 7686
2, 21936, Pitch_bend_c, 0, 7870
2, 21937, Pitch_bend_c, 0, 8062
2, 21938, Pitch_bend_c, 0, 8258
2, 21939, Pitch_bend_c, 0, 8452
2, 21940, Pitch_bend_c, 0, 8639
2, 21941, Pitch_bend_c, 0, 8815
2, 21942, Pitch_bend_c, 0, 8975
2, 21943, Pitch_bend_c, 0, 9116
2, 21944, Pitch_bend_c, 0, 9232
2, 21945, Pitch_bend_c, 0, 9323
2, 21946, Pitch_bend_c, 0, 9385
2, 21947, Pitch_bend_c, 0, 9417
2, 21949, Pitch_bend_c, 0, 9387
2, 21950, Pitch_bend_c, 0, 9326
2, 21951, Pitch_bend_c, 0, 9237
2, 21952, Pitch_bend_c, 0, 9121
2, 21953, Pitch_bend_c, 0, 8981
2, 21954, Pitch_bend_c, 0, 8822
2, 21955, Pitch_bend_c, 0, 8646
2, 21956, Pitch_bend_c, 0, 8459
2, 21957, Pitch_bend_c, 0, 8266
2, 21958, Pitch_bend_c, 0, 8070
2, 21959, Pitch_bend_c, 0, 7877
2, 21960, Pitch_bend_c, 0, 7693
2, 21961, Pitch_bend_c, 0, 7521
2, 21962, Pitch_bend_c, 0, 7366
2, 21963, Pitch_bend_c, 0, 7232
2, 21964, Pitch_bend_c, 0, 7123
2, 21965, Pitch_bend_c, 0, 7040
2, 21966, Pitch_bend_c, 0, 6987
2, 21967, Pitch_bend_c, 0, 6964
2, 21968, Pitch_bend_c, 0, 6972
2, 21969, Pitch_bend_c, 0, 7012
2, 21970, Pitch_bend_c, 0, 7081
2, 21971, Pitch_bend_c, 0, 7178
2, 21972, Pitch_bend_c, 0, 7301
2, 21973, Pitch_bend_c, 0, 7447
2, 21974, Pitch_bend_c, 0, 7611
2, 21975, Pitch_bend_c, 0, 7791
2, 21976, Pitch_bend_c, 0, 7980
2, 21977, Pitch_bend_c, 0, 8175
2, 21978, Pitch_bend_c, 0, 8370
2, 21979, Pitch_bend_c, 0, 8561
2, 21980, Pitch_bend_c, 0, 8742
2, 21981, Pitch_bend_c, 0, 8909
2, 21982, Pitch_bend_c, 0, 9059
2, 21983, Pitch_bend_c, 0, 9186
2, 21984, Pitch_bend_c, 0, 9288
2, 21985, Pitch_bend_c, 0, 9362
2, 21986, Pitch_bend_c, 0, 9407
2, 21987, Pitch_bend_c, 0, 9421
2, 21988, Pitch_bend_c, 0, 9403
2, 21989, Pitch_bend_c, 0, 9355
2, 21990, Pitch_bend_c, 0, 9278
2, 21991, Pitch_bend_c, 0, 9173
2, 21992, Pitch_bend_c, 0, 9043
2, 21993, Pitch_bend_c, 0, 8892
2, 21994, Pitch_bend_c, 0, 8722
2, 21995, Pitch_bend_c, 0, 8540
2, 21996, Pitch_bend_c, 0, 8348
2, 21997, Pitch_bend_c, 0, 8153
2, 21998, Pitch_bend_c, 0, 7958
2, 21999, Pitch_bend_c, 0, 7770
2, 22000, Pitch_bend_c, 0, 7592
2, 22001, Pitch_bend_c, 0, 7430
2, 22002, Pitch_bend_c, 0, 7286
2, 22003, Pitch_bend_c, 0, 7166
2, 22004, Pitch_bend_c, 0, 7072
2, 22005, Pitch_bend_c, 0, 7006
2, 22006, Pitch_bend_c, 0, 6970
2, 22007, Pitch_bend_c, 0, 6965
2, 22008, Pitch_bend_c, 0, 6991
2, 22009, Pitch_bend_c, 0, 7048
2, 22010, Pitch_bend_c, 0, 7134
2, 22011, Pitch_bend_c, 0, 7246
2, 22012, Pitch_bend_c, 0, 7383
2, 22013, Pitch_bend_c, 0, 7540
2, 22014, Pitch_bend_c, 0, 7713
2, 22015, Pitch_bend_c, 0, 7899
2, 22016, Pitch_bend_c, 0, 8092
2, 22017, Pitch_bend_c, 0, 8287
2, 22018, Pitch_bend_c, 0, 8481
2, 22019, Pitch_bend_c, 0, 8667
2, 22020, Pitch_bend_c, 0, 8840
2, 22021, Pitch_bend_c, 0, 8998
2, 22022, Pitch_bend_c, 0, 9135
2, 22023, Pitch_bend_c, 0, 9248
2, 22024, Pitch_bend_c, 0, 9334
2, 22025, Pitch_bend_c, 0, 9392
2, 22026, Pitch_bend_c, 0, 9419
2, 22027, Pitch_bend_c, 0, 9415
2, 22028, Pitch_bend_c, 0, 9379
2, 22029, Pitch_bend_c, 0, 9314
2, 22030, Pitch_bend_c, 0, 9221
2, 22031, Pitch_bend_c, 0, 9101
2, 22032, Pitch_bend_c, 0, 8958
2, 22033, Pitch_bend_c, 0, 8796
2, 22034, Pitch_bend_c, 0, 8618
2, 22035, Pitch_bend_c, 0, 8430
2, 22036, Pitch_bend_c, 0, 8236
2, 22037, Pitch_bend_c, 0, 8040
2, 22038, Pitch_bend_c, 0, 7849
2, 22039, Pitch_bend_c, 0, 7666
2, 22040, Pitch_bend_c, 0, 7496
2, 22041, Pitch_bend_c, 0, 7344
2, 22042, Pitch_bend_c, 0, 7214
2, 22043, Pitch_bend_c, 0, 7108
2, 22044, Pitch_bend_c, 0, 7030
2, 22045, Pitch_bend_c, 0, 6981
2, 22046, Pitch_bend_c, 0, 6963
2, 22047, Pitch_bend_c, 0, 6976
2, 22048, Pitch_bend_c, 0, 7020
2, 22049, Pitch_bend_c, 0, 7094
2, 22050, Pitch_bend_c, 0, 7195
2, 22051, Pitch_bend_c, 0, 7322
2, 22052, Pitch_bend_c, 0, 7471
2, 22053, Pitch_bend_c, 0, 7638
2, 22054, Pitch_bend_c, 0, 7819
2, 22055, Pitch_bend_c, 0, 8009
2, 22056, Pitch_bend_c, 0, 8205
2, 22057, Pitch_bend_c, 0, 8399
2, 22058, Pitch_bend_c, 0, 8589
2, 22059, Pitch_bend_c, 0, 8768
2, 22060, Pitch_bend_c, 0, 8933
2, 22061, Pitch_bend_c, 0, 9080
2, 22062, Pitch_bend_c, 0, 9203
2, 22063, Pitch_bend_c, 0, 9301
2, 22064, Pitch_bend_c, 0, 9371
2, 22065, Pitch_bend_c, 0, 9411
2, 22066, Pitch_bend_c, 0, 9420
2, 22067, Pitch_bend_c, 0, 9398
2, 22068, Pitch_bend_c, 0, 9345
2, 22069, Pitch_bend_c, 0, 9264
2, 22070, Pitch_bend_c, 0, 9155
2, 22071, Pitch_bend_c, 0, 9021
2, 22072, Pitch_bend_c, 0, 8867
2, 22073, Pitch_bend_c, 0, 8695
2, 22074, Pitch_bend_c, 0, 8511
2, 22075, Pitch_bend_c, 0, 8319
2, 22076, Pitch_bend_c, 0, 8123
2, 22077, Pitch_bend_c, 0, 7929
2, 22078, Pitch_bend_c, 0, 7742
2, 22079, Pitch_bend_c, 0, 7566
2, 22080, Pitch_bend_c, 0, 7406
2, 22081, Pitch_bend_c, 0, 7266
2, 22082, Pitch_bend_c, 0, 7150
2, 22083, Pitch_bend_c, 0, 7060
2, 22084, Pitch_bend_c, 0, 6998
2, 22085, Pitch_bend_c, 0, 6967
2, 22087, Pitch_bend_c, 0, 6998
2, 22088, Pitch_bend_c, 0, 7059
2, 22089, Pitch_bend_c, 0, 7149
2, 22090, Pitch_bend_c, 0, 7265
2, 22091, Pitch_bend_c, 0, 7405
2, 22092, Pitch_bend_c, 0, 7565
2, 22093, Pitch_bend_c, 0, 7741
2, 22094, Pitch_bend_c, 0, 7928
2, 22095, Pitch_bend_c, 0, 8122
2, 22096, Pitch_bend_c, 0, 8317
2, 22097, Pitch_bend_c, 0, 8510
2, 22098, Pitch_bend_c, 0, 8694
2, 22099, Pitch_bend_c, 0, 8866
2, 22100, Pitch_bend_c, 0, 9020
2, 22101, Pitch_bend_c, 0, 9154
2, 22102, Pitch_bend_c, 0, 9263
2, 22103, Pitch_bend_c, 0, 9345
2, 22104, Pitch_bend_c, 0, 9398
2, 22105, Pitch_bend_c, 0, 9420
2, 22106, Pitch_bend_c, 0, 9411
2, 22107, Pitch_bend_c, 0, 9371
2, 22108, Pitch_bend_c, 0, 9302
2, 22109, Pitch_bend_c, 0, 9204
2, 22110, Pitch_bend_c, 0, 9081
2, 22111, Pitch_bend_c, 0, 8935
2, 22112, Pitch_bend_c, 0, 8770
2, 22113, Pitch_bend_c, 0, 8590
2, 22114, Pitch_bend_c, 0, 8401
2, 22115, Pitch_bend_c, 0, 8206
2, 22116, Pitch_bend_c, 0, 8011
2, 22117, Pitch_bend_c, 0, 7820
2, 22118, Pitch_bend_c, 0, 7639
2, 22119, Pitch_bend_c, 0, 7472
2, 22120, Pitch_bend_c, 0, 7323
2, 22121, Pitch_bend_c, 0, 7196
2, 22122, Pitch_bend_c, 0, 7095
2, 22123, Pitch_bend_c, 0, 7021
2, 22124, Pitch_bend_c, 0, 6977
2, 22125, Pitch_bend_c, 0, 6963
2, 22126, Pitch_bend_c, 0, 6981
2, 22127, Pitch_bend_c, 0, 7030
2, 22128, Pitch_bend_c, 0, 7108
2, 22129, Pitch_bend_c, 0, 7213
2, 22130, Pitch_bend_c, 0, 7343
2, 22131, Pitch_bend_c, 0, 7495
2, 22132, Pitch_bend_c, 0, 7664
2, 22133, Pitch_bend_c, 0, 7847
2, 22134, Pitch_bend_c, 0, 8039
2, 22135, Pitch_bend_c, 0, 8234
2, 22136, Pitch_bend_c, 0, 8429
2, 22137, Pitch_bend_c, 0, 8617
2, 22138, Pitch_bend_c, 0, 8795
2, 22139, Pitch_bend_c, 0, 8957
2, 22140, Pitch_bend_c, 0, 9100
2, 22141, Pitch_bend_c, 0, 9220
2, 22142, Pitch_bend_c, 0, 9314
2, 22143, Pitch_bend_c, 0, 9379
2, 22144, Pitch_bend_c, 0, 9414
2, 22145, Pitch_bend_c, 0, 9419
2, 22146, Pitch_bend_c, 0, 9392
2, 22147, Pitch_bend_c, 0, 9335
2, 22148, Pitch_bend_c, 0, 9249
2, 22149, Pitch_bend_c, 0, 9136
2, 22150, Pitch_bend_c, 0, 8999
2, 22151, Pitch_bend_c, 0, 8842
2, 22152, Pitch_bend_c, 0, 8668
2, 22153, Pitch_bend_c, 0, 8482
2, 22154, Pitch_bend_c, 0, 8289
2, 22155, Pitch_bend_c, 0, 8093
2, 22156, Pitch_bend_c, 0, 7900
2, 22157, Pitch_bend_c, 0, 7715
2, 22158, Pitch_bend_c, 0, 7541
2, 22159, Pitch_bend_c, 0, 7384
2, 22160, Pitch_bend_c, 0, 7247
2, 22161, Pitch_bend_c, 0, 7134
2, 22162, Pitch_bend_c, 0, 7049
2, 22163, Pitch_bend_c, 0, 6992
2, 22164, Pitch_bend_c, 0, 6965
2, 22165, Pitch_bend_c, 0, 6970
2, 22166, Pitch_bend_c, 0, 7005
2, 22167, Pitch_bend_c, 0, 7071
2, 22168, Pitch_bend_c, 0, 7165
2, 22169, Pitch_bend_c, 0, 7285
2, 22170, Pitch_bend_c, 0, 7428
2, 22171, Pitch_bend_c, 0, 7591
2, 22172, Pitch_bend_c, 0, 7768
2, 22173, Pitch_bend_c, 0, 7957
2, 22174, Pitch_bend_c, 0, 8151
2, 22175, Pitch_bend_c, 0, 8347
2, 22176, Note_off_c, 0, 65, 64
2, 22272, Pitch_bend_c, 0, 8192
2, 22272, Note_on_c, 0, 74, 64
2, 22320, Note_off_c, 0, 74, 64
2, 22320, Note_on_c, 0, 74, 64
2, 22368, Note_off_c, 0, 74, 64
2, 22464, Note_on_c, 0, 76, 64
2, 22512, Note_off_c, 0, 76, 64
2, 22512, Note_on_c, 0, 76, 64
2, 22560, Note_off_c, 0, 76, 64
2, 22608, Note_on_c, 0, 73, 64
2, 22680, Pitch_bend_c, 0, 9191
2, 22681, Pitch_bend_c, 0, 9064
2, 22682, Pitch_bend_c, 0, 8916
2, 22683, Pitch_bend_c, 0, 8749
2, 22684, Pitch_bend_c, 0, 8568
2, 22685, Pitch_bend_c, 0, 8378
2, 22686, Pitch_bend_c, 0, 8183
2, 22687, Pitch_bend_c, 0, 7988
2, 22688, Pitch_bend_c, 0, 7798
2, 22689, Pitch_bend_c, 0, 7618
2, 22690, Pitch_bend_c, 0, 7453
2, 22691, Pitch_bend_c, 0, 7307
2, 22692, Pitch_bend_c, 0, 7183
2, 22693, Pitch_bend_c, 0, 7084
2, 22694, Pitch_bend_c, 0, 7014
2, 22695, Pitch_bend_c, 0, 6973
2, 22696, Pitch_bend_c, 0, 6964
2, 22697, Pitch_bend_c, 0, 6985
2, 22698, Pitch_bend_c, 0, 7037
2, 22699, Pitch_bend_c, 0, 7119
2, 22700, Pitch_bend_c, 0, 7227
2, 22701, Pitch_bend_c, 0, 7360
2, 22702, Pitch_bend_c, 0, 7515
2, 22703, Pitch_bend_c, 0, 7686
2, 22704, Note_off_c, 0, 73, 64
2, 22704, Pitch_bend_c, 0, 8192
2, 22704, Note_on_c, 0, 73, 64
2, 22776, Pitch_bend_c, 0, 6991
2, 22777, Pitch_bend_c, 0, 7048
2, 22778, Pitch_bend_c, 0, 7134
2, 22779, Pitch_bend_c, 0, 7246
2, 22780, Pitch_bend_c, 0, 7383
2, 22781, Pitch_bend_c, 0, 7540
2, 22782, Pitch_bend_c, 0, 7713
2, 22783, Pitch_bend_c, 0, 7899
2, 22784, Pitch_bend_c, 0, 8092
2, 22785, Pitch_bend_c, 0, 8287
2, 22786, Pitch_bend_c, 0, 8481
2, 22787, Pitch_bend_c, 0, 8667
2, 22788, Pitch_bend_c, 0, 8840
2, 22789, Pitch_bend_c, 0, 8998
2, 22790, Pitch_bend_c, 0, 9135
2, 22791, Pitch_bend_c, 0, 9248
2, 22792, Pitch_bend_c, 0, 9334
2, 22793, Pitch_bend_c, 0, 9392
2, 22794, Pitch_bend_c, 0, 9419
2, 22795, Pitch_bend_c, 0, 9415
2, 22796, Pitch_bend_c, 0, 9379
2, 22797, Pitch_bend_c, 0, 9314
2, 22798, Pitch_bend_c, 0, 9221
2, 22799, Pitch_bend_c, 0, 9101
2, 22800, Note_off_c, 0, 73, 64
2, 22800, Pitch_bend_c, 0, 8192
2, 22800, Note_on_c, 0, 73, 64
2, 22872, Pitch_bend_c, 0, 9398
2, 22873, Pitch_bend_c, 0, 9420
2, 22874, Pitch_bend_c, 0, 9411
2, 22875, Pitch_bend_c, 0, 9371
2, 22876, Pitch_bend_c, 0, 9302
2, 22877, Pitch_bend_c, 0, 9204
2, 22878, Pitch_bend_c, 0, 9081
2, 22879, Pitch_bend_c, 0, 8935
2, 22880, Pitch_bend_c, 0, 8770
2, 22881, Pitch_bend_c, 0, 8590
2, 22882, Pitch_bend_c, 0, 8401
2, 22883, Pitch_bend_c, 0, 8206
2, 22884, Pitch_bend_c, 0, 8011
2, 22885, Pitch_bend_c, 0, 7820
2, 22886, Pitch_bend_c, 0, 7639
2, 22887, Pitch_bend_c, 0, 7472
2, 22888, Pitch_bend_c, 0, 7323
2, 22889, Pitch_bend_c, 0, 7196
2, 22890, Pitch_bend_c, 0, 7095
2, 22891, Pitch_bend_c, 0, 7021
2, 22892, Pitch_bend_c, 0, 6977
2, 22893, Pitch_bend_c, 0, 6963
2, 22894, Pitch_bend_c, 0, 6981
2, 22895, Pitch_bend_c, 0, 7030
2, 22896, Note_off_c, 0, 73, 64
2, 22896, Pitch_bend_c, 0, 8192
2, 22896, Note_on_c, 0, 73, 64
2, 22944, Note_off_c, 0, 73, 64
2, 22944, Note_on_c, 0, 76, 64
2, 22992, Note_off_c, 0, 76, 64
2, 22992, Note_on_c, 0, 78, 64
2, 23040, Note_off_c, 0, 78, 64
2, 23040, Note_on_c, 0, 78, 64
2, 23112, Pitch_bend_c, 0, 7102
2, 23113, Pitch_bend_c, 0, 7205
2, 23114, Pitch_bend_c, 0, 7334
2, 23115, Pitch_bend_c, 0, 7485
2, 23116, Pitch_bend_c, 0, 7653
2, 23117, Pitch_bend_c, 0, 7835
2, 23118, Pitch_bend_c, 0, 8026
2, 23119, Pitch_bend_c, 0, 8222
2, 23120, Pitch_bend_c, 0, 8416
2, 23121, Pitch_bend_c, 0, 8605
2, 23122, Pitch_bend_c, 0, 8784
2, 23123, Pitch_bend_c, 0, 8947
2, 23124, Pitch_bend_c, 0, 9091
2, 23125, Pitch_bend_c, 0, 9213
2, 23126, Pitch_bend_c, 0, 9308
2, 23127, Pitch_bend_c, 0, 9376
2, 23128, Pitch_bend_c, 0, 9413
2, 23129, Pitch_bend_c, 0, 9419
2, 23130, Pitch_bend_c, 0, 9395
2, 23131, Pitch_bend_c, 0, 9339
2, 23132, Pitch_bend_c, 0, 9255
2, 23133, Pitch_bend_c, 0, 9144
2, 23134, Pitch_bend_c, 0, 9008
2, 23135, Pitch_bend_c, 0, 8852
2, 23136, Pitch_bend_c, 0, 8680
2, 23137, Pitch_bend_c, 0, 8494
2, 23138, Pitch_bend_c, 0, 8302
2, 23139, Pitch_bend_c, 0, 8106
2, 23140, Pitch_bend_c, 0, 7912
2, 23141, Pitch_bend_c, 0, 7726
2, 23142, Pitch_bend_c, 0, 7552
2, 23143, Pitch_bend_c, 0, 7393
2, 23144, Pitch_bend_c, 0, 7255
2, 23145, Pitch_bend_c, 0, 7141
2, 23146, Pitch_bend_c, 0, 7053
2, 23147, Pitch_bend_c, 0, 6994
2, 23148, Pitch_bend_c, 0, 6966
2, 23149, Pitch_bend_c, 0, 6969
2, 23150, Pitch_bend_c, 0, 7002
2, 23151, Pitch_bend_c, 0, 7066
2, 23152, Pitch_bend_c, 0, 7158
2, 23153, Pitch_bend_c, 0, 7277
2, 23154, Pitch_bend_c, 0, 7419
2, 23155, Pitch_bend_c, 0, 7580
2, 23156, Pitch_bend_c, 0, 7757
2, 23157, Pitch_bend_c, 0, 7945
2, 23158, Pitch_bend_c, 0, 8139
2, 23159, Pitch_bend_c, 0, 8334
2, 23160, Pitch_bend_c, 0, 8526
2, 23161, Pitch_bend_c, 0, 8710
2, 23162, Pitch_bend_c, 0, 8880
2, 23163, Pitch_bend_c, 0, 9033
2, 23164, Pitch_bend_c, 0, 9164
2, 23165, Pitch_bend_c, 0, 9271
2, 23166, Pitch_bend_c, 0, 9351
2, 23167, Pitch_bend_c, 0, 9401
2, 23168, Pitch_bend_c, 0, 9421
2, 23169, Pitch_bend_c, 0, 9409
2, 23170, Pitch_bend_c, 0, 9367
2, 23171, Pitch_bend_c, 0, 9294
2, 23172, Pitch_bend_c, 0, 9194
2, 23173, Pitch_bend_c, 0, 9069
2, 23174, Pitch_bend_c, 0, 8921
2, 23175, Pitch_bend_c, 0, 8755
2, 23176, Pitch_bend_c, 0, 8574
2, 23177, Pitch_bend_c, 0, 8384
2, 23178, Pitch_bend_c, 0, 8189
2, 23179, Pitch_bend_c, 0, 7994
2, 23180, Pitch_bend_c, 0, 7804
2, 23181, Pitch_bend_c, 0, 7624
2, 23182, Pitch_bend_c, 0, 7458
2, 23183, Pitch_bend_c, 0, 7311
2, 23184, Pitch_bend_c, 0, 7186
2, 23185, Pitch_bend_c, 0, 7087
2, 23186, Pitch_bend_c, 0, 7016
2, 23187, Pitch_bend_c, 0, 6974
2, 23188, Pitch_bend_c, 0, 6964
2, 23189, Pitch_bend_c, 0, 6984
2, 23190, Pitch_bend_c, 0, 7035
2, 23191, Pitch_bend_c, 0, 7116
2, 23192, Pitch_bend_c, 0, 7224
2, 23193, Pitch_bend_c, 0, 7356
2, 23194, Pitch_bend_c, 0, 7509
2, 23195, Pitch_bend_c, 0, 7680
2, 23196, Pitch_bend_c, 0, 7864
2, 23197, Pitch_bend_c, 0, 8056
2, 23198, Pitch_bend_c, 0, 8252
2, 23199, Pitch_bend_c, 0, 8446
2, 23200, Pitch_bend_c, 0, 8633
2, 23201, Pitch_bend_c, 0, 8810
2, 23202, Pitch_bend_c, 0, 8970
2, 23203, Pitch_bend_c, 0, 9111
2, 23204, Pitch_bend_c, 0, 9229
2, 23205, Pitch_bend_c, 0, 9321
2, 23206, Pitch_bend_c, 0, 9383
2, 23207, Pitch_bend_c, 0, 9416
2, 23208, Pitch_bend_c, 0, 9418
2, 23209, Pitch_bend_c, 0, 9388
2, 23210, Pitch_bend_c, 0, 9328
2, 23211, Pitch_bend_c, 0, 9240
2, 23212, Pitch_bend_c, 0, 9125
2, 23213, Pitch_bend_c, 0, 8986
2, 23214, Pitch_bend_c, 0, 8827
2, 23215, Pitch_bend_c, 0, 8652
2, 23216, Pitch_bend_c, 0, 8465
2, 23217, Pitch_bend_c, 0, 8272
2, 23218, Pitch_bend_c, 0, 8076
2, 23219, Pitch_bend_c, 0, 7884
2, 23220, Pitch_bend_c, 0, 7699
2, 23221, Pitch_bend_c, 0, 7526
2, 23222, Pitch_bend_c, 0, 7371
2, 23223, Pitch_bend_c, 0, 7236
2, 23224, Pitch_bend_c, 0, 7126
2, 23225, Pitch_bend_c, 0, 7042
2, 23226, Pitch_bend_c, 0, 6988
2, 23227, Pitch_bend_c, 0, 6964
2, 23228, Pitch_bend_c, 0, 6972
2, 23229, Pitch_bend_c, 0, 7010
2, 23230, Pitch_bend_c, 0, 7078
2, 23231, Pitch_bend_c, 0, 7175
2, 23232, Pitch_bend_c, 0, 7297
2, 23233, Pitch_bend_c, 0, 7442
2, 23234, Pitch_bend_c, 0, 7606
2, 23235, Pitch_bend_c, 0, 7785
2, 23236, Pitch_bend_c, 0, 7974
2, 23237, Pitch_bend_c, 0, 8169
2, 23238, Pitch_bend_c, 0, 8364
2, 23239, Pitch_bend_c, 0, 8555
2, 23240, Pitch_bend_c, 0, 8736
2, 23241, Pitch_bend_c, 0, 8904
2, 23242, Pitch_bend_c, 0, 9054
2, 23243, Pitch_bend_c, 0, 9182
2, 23244, Pitch_bend_c, 0, 9285
2, 23245, Pitch_bend_c, 0, 9360
2, 23246, Pitch_bend_c, 0, 9406
2, 23247, Pitch_bend_c, 0, 9421
2, 23248, Pitch_bend_c, 0, 9404
2, 23249, Pitch_bend_c, 0, 9357
2, 23250, Pitch_bend_c, 0, 9281
2, 23251, Pitch_bend_c, 0, 9177
2, 23252, Pitch_bend_c, 0, 9047
2, 23253, Pitch_bend_c, 0, 8897
2, 23254, Pitch_bend_c, 0, 8728
2, 23255, Pitch_bend_c, 0, 8546
2, 23256, Pitch_bend_c, 0, 8354
2, 23257, Pitch_bend_c, 0, 8159
2, 23258, Pitch_bend_c, 0, 7965
2, 23259, Pitch_bend_c, 0, 7776
2, 23260, Pitch_bend_c, 0, 7598
2, 23261, Pitch_bend_c, 0, 7434
2, 23262, Pitch_bend_c, 0, 7291
2, 23263, Pitch_bend_c, 0, 7169
2, 23264, Pitch_bend_c, 0, 7074
2, 23265, Pitch_bend_c, 0, 7007
2, 23266, Pitch_bend_c, 0, 6971
2, 23267, Pitch_bend_c, 0, 6965
2, 23268, Pitch_bend_c, 0, 6990
2, 23269, Pitch_bend_c, 0, 7046
2, 23270, Pitch_bend_c, 0, 7130
2, 23271, Pitch_bend_c, 0, 7242
2, 23272, Pitch_bend_c, 0, 7378
2, 23273, Pitch_bend_c, 0, 7534
2, 23274, Pitch_bend_c, 0, 7707
2, 23275, Pitch_bend_c, 0, 7893
2, 23276, Pitch_bend_c, 0, 8086
2, 23277, Pitch_bend_c, 0, 8281
2, 23278, Pitch_bend_c, 0, 8475
2, 23279, Pitch_bend_c, 0, 8661
2, 23280, Pitch_bend_c, 0, 8835
2, 23281, Pitch_bend_c, 0, 8993
2, 23282, Pitch_bend_c, 0, 9131
2, 23283, Pitch_bend_c, 0, 9245
2, 23284, Pitch_bend_c, 0, 9332
2, 23285, Pitch_bend_c, 0, 9390
2, 23286, Pitch_bend_c, 0, 9418
2, 23287, Pitch_bend_c, 0, 9415
2, 23288, Pitch_bend_c, 0, 9381
2, 23289, Pitch_bend_c, 0, 9317
2, 23290, Pitch_bend_c, 0, 9224
2, 23291, Pitch_bend_c, 0, 9105
2, 23292, Pitch_bend_c, 0, 8963
2, 23293, Pitch_bend_c, 0, 8801
2, 23294, Pitch_bend_c, 0, 8624
2, 23295, Pitch_bend_c, 0, 8436
2, 23296, Pitch_bend_c, 0, 8242
2, 23297, Pitch_bend_c, 0, 8047
2, 23298, Pitch_bend_c, 0, 7855
2, 23299, Pitch_bend_c, 0, 7672
2, 23300, Pitch_bend_c, 0, 7502
2, 23301, Pitch_bend_c, 0, 7349
2, 23302, Pitch_bend_c, 0, 7218
2, 23303, Pitch_bend_c, 0, 7111
2, 23304, Pitch_bend_c, 0, 7032
2, 23305, Pitch_bend_c, 0, 6982
2, 23306, Pitch_bend_c, 0, 6963
2, 23307, Pitch_bend_c, 0, 6975
2, 23308, Pitch_bend_c, 0, 7018
2, 23309, Pitch_bend_c, 0, 7091
2, 23310, Pitch_bend_c, 0, 7192
2, 23311, Pitch_bend_c, 0, 7318
2, 23312, Pitch_bend_c, 0, 7466
2, 23313, Pitch_bend_c, 0, 7632
2, 23314, Pitch_bend_c, 0, 7813
2, 23315, Pitch_bend_c, 0, 8003
2, 23316, Pitch_bend_c, 0, 8198
2, 23317, Pitch_bend_c, 0, 8393
2, 23318, Pitch_bend_c, 0, 8583
2, 23319, Pitch_bend_c, 0, 8763
2, 23320, Pitch_bend_c, 0, 8928
2, 23321, Pitch_bend_c, 0, 9075
2, 23322, Pitch_bend_c, 0, 9200
2, 23323, Pitch_bend_c, 0, 9298
2, 23324, Pitch_bend_c, 0, 9369
2, 23325, Pitch_bend_c, 0, 9410
2, 23326, Pitch_bend_c, 0, 9420
2, 23327, Pitch_bend_c, 0, 9399
2, 23328, Note_off_c, 0, 78, 64
2, 23328, Pitch_bend_c, 0, 8192
2, 23328, Note_on_c, 0, 78, 64
2, 23376, Note_off_c, 0, 78, 64
2, 23376, Note_on_c, 0, 77, 64
2, 23448, Pitch_bend_c, 0, 9191
2, 23449, Pitch_bend_c, 0, 9064
2, 23450, Pitch_bend_c, 0, 8916
2, 23451, Pitch_bend_c, 0, 8749
2, 23452, Pitch_bend_c, 0, 8568
2, 23453, Pitch_bend_c, 0, 8378
2, 23454, Pitch_bend_c, 0, 8183
2, 23455, Pitch_bend_c, 0, 7988
2, 23456, Pitch_bend_c, 0, 7798
2, 23457, Pitch_bend_c, 0, 7618
2, 23458, Pitch_bend_c, 0, 7453
2, 23459, Pitch_bend_c, 0, 7307
2, 23460, Pitch_bend_c, 0, 7183
2, 23461, Pitch_bend_c, 0, 7084
2, 23462, Pitch_bend_c, 0, 7014
2, 23463, Pitch_bend_c, 0, 6973
2, 23464, Pitch_bend_c, 0, 6964
2, 23465, Pitch_bend_c, 0, 6985
2, 23466, Pitch_bend_c, 0, 7037
2, 23467, Pitch_bend_c, 0, 7119
2, 23468, Pitch_bend_c, 0, 7227
2, 23469, Pitch_bend_c, 0, 7360
2, 23470, Pitch_bend_c, 0, 7515
2, 23471, Pitch_bend_c, 0, 7686
2, 23472, Pitch_bend_c, 0, 7870
2, 23473, Pitch_bend_c, 0, 8062
2, 23474, Pitch_bend_c, 0, 8258
2, 23475, Pitch_bend_c, 0, 8452
2, 23476, Pitch_bend_c, 0, 8639
2, 23477, Pitch_bend_c, 0, 8815
2, 23478, Pitch_bend_c, 0, 8975
2, 23479, Pitch_bend_c, 0, 9116
2, 23480, Pitch_bend_c, 0, 9232
2, 23481, Pitch_bend_c, 0, 9323
2, 23482, Pitch_bend_c, 0, 9385
2, 23483, Pitch_bend_c, 0, 9417
2, 23485, Pitch_bend_c, 0, 9387
2, 23486, Pitch_bend_c, 0, 9326
2, 23487, Pitch_bend_c, 0, 9237
2, 23488, Pitch_bend_c, 0, 9121
2, 23489, Pitch_bend_c, 0, 8981
2, 23490, Pitch_bend_c, 0, 8822
2, 23491, Pitch_bend_c, 0, 8646
2, 23492, Pitch_bend_c, 0, 8459
2, 23493, Pitch_bend_c, 0, 8266
2, 23494, Pitch_bend_c, 0, 8070
2, 23495, Pitch_bend_c, 0, 7877
2, 23496, Pitch_bend_c, 0, 7693
2, 23497, Pitch_bend_c, 0, 7521
2, 23498, Pitch_bend_c, 0, 7366
2, 23499, Pitch_bend_c, 0, 7232
2, 23500, Pitch_bend_c, 0, 7123
2, 23501, Pitch_bend_c, 0, 7040
2, 23502, Pitch_bend_c, 0, 6987
2, 23503, Pitch_bend_c, 0, 6964
2, 23504, Pitch_bend_c, 0, 6972
2, 23505, Pitch_bend_c, 0, 7012
2, 23506, Pitch_bend_c, 0, 7081
2, 23507, Pitch_bend_c, 0, 7178
2, 23508, Pitch_bend_c, 0, 7301
2, 23509, Pitch_bend_c, 0, 7447
2, 23510, Pitch_bend_c, 0, 7611
2, 23511, Pitch_bend_c, 0, 7791
2, 23512, Pitch_bend_c, 0, 7980
2, 23513, Pitch_bend_c, 0, 8175
2, 23514, Pitch_bend_c, 0, 8370
2, 23515, Pitch_bend_c, 0, 8561
2, 23516, Pitch_bend_c, 0, 8742
2, 23517, Pitch_bend_c, 0, 8909
2, 23518, Pitch_bend_c, 0, 9059
2, 23519, Pitch_bend_c, 0, 9186
2, 23520, Pitch_bend_c, 0, 9288
2, 23521, Pitch_bend_c, 0, 9362
2, 23522, Pitch_bend_c, 0, 9407
2, 23523, Pitch_bend_c, 0, 9421
2, 23524, Pitch_bend_c, 0, 9403
2, 23525, Pitch_bend_c, 0, 9355
2, 23526, Pitch_bend_c, 0, 9278
2, 23527, Pitch_bend_c, 0, 9173
2, 23528, Pitch_bend_c, 0, 9043
2, 23529, Pitch_bend_c, 0, 8892
2, 23530, Pitch_bend_c, 0, 8722
2, 23531, Pitch_bend_c, 0, 8540
2, 23532, Pitch_bend_c, 0, 8348
2, 23533, Pitch_bend_c, 0, 8153
2, 23534, Pitch_bend_c, 0, 7958
2, 23535, Pitch_bend_c, 0, 7770
2, 23536, Pitch_bend_c, 0, 7592
2, 23537, Pitch_bend_c, 0, 7430
2, 23538, Pitch_bend_c, 0, 7286
2, 23539, Pitch_bend_c, 0, 7166
2, 23540, Pitch_bend_c, 0, 7072
2, 23541, Pitch_bend_c, 0, 7006
2, 23542, Pitch_bend_c, 0, 6970
2, 23543, Pitch_bend_c, 0, 6965
2, 23544, Pitch_bend_c, 0, 6991
2, 23545, Pitch_bend_c, 0, 7048
2, 23546, Pitch_bend_c, 0, 7134
2, 23547, Pitch_bend_c, 0, 7246
2, 23548, Pitch_bend_c, 0, 7383
2, 23549, Pitch_bend_c, 0, 7540
2, 23550, Pitch_bend_c, 0, 7713
2, 23551, Pitch_bend_c, 0, 7899
2, 23552, Pitch_bend_c, 0, 8092
2, 23553, Pitch_bend_c, 0, 8287
2, 23554, Pitch_bend_c, 0, 8481
2, 23555, Pitch_bend_c, 0, 8667
2, 23556, Pitch_bend_c, 0, 8840
2, 23557, Pitch_bend_c, 0, 8998
2, 23558, Pitch_bend_c, 0, 9135
2, 23559, Pitch_bend_c, 0, 9248
2, 23560, Pitch_bend_c, 0, 9334
2, 23561, Pitch_bend_c, 0, 9392
2, 23562, Pitch_bend_c, 0, 9419
2, 23563, Pitch_bend_c, 0, 9415
2, 23564, Pitch_bend_c, 0, 9379
2, 23565, Pitch_bend_c, 0, 9314
2, 23566, Pitch_bend_c, 0, 9221
2, 23567, Pitch_bend_c, 0, 9101
2, 23568, Pitch_bend_c, 0, 8958
2, 23569, Pitch_bend_c, 0, 8796
2, 23570, Pitch_bend_c, 0, 8618
2, 23571, Pitch_bend_c, 0, 8430
2, 23572, Pitch_bend_c, 0, 8236
2, 23573, Pitch_bend_c, 0, 8040
2, 23574, Pitch_bend_c, 0, 7849
2, 23575, Pitch_bend_c, 0, 7666
2, 23576, Pitch_bend_c, 0, 7496
2, 23577, Pitch_bend_c, 0, 7344
2, 23578, Pitch_bend_c, 0, 7214
2, 23579, Pitch_bend_c, 0, 7108
2, 23580, Pitch_bend_c, 0, 7030
2, 23581, Pitch_bend_c, 0, 6981
2, 23582, Pitch_bend_c, 0, 6963
2, 23583, Pitch_bend_c, 0, 6976
2, 23584, Pitch_bend_c, 0, 7020
2, 23585, Pitch_bend_c, 0, 7094
2, 23586, Pitch_bend_c, 0, 7195
2, 23587, Pitch_bend_c, 0, 7322
2, 23588, Pitch_bend_c, 0, 7471
2, 23589, Pitch_bend_c, 0, 7638
2, 23590, Pitch_bend_c, 0, 7819
2, 23591, Pitch_bend_c, 0, 8009
2, 23592, Pitch_bend_c, 0, 8205
2, 23593, Pitch_bend_c, 0, 8399
2, 23594, Pitch_bend_c, 0, 8589
2, 23595, Pitch_bend_c, 0, 8768
2, 23596, Pitch_bend_c, 0, 8933
2, 23597, Pitch_bend_c, 0, 9080
2, 23598, Pitch_bend_c, 0, 9203
2, 23599, Pitch_bend_c, 0, 9301
2, 23600, Pitch_bend_c, 0, 9371
2, 23601, Pitch_bend_c, 0, 9411
2, 23602, Pitch_bend_c, 0, 9420
2, 23603, Pitch_bend_c, 0, 9398
2, 23604, Pitch_bend_c, 0, 9345
2, 23605, Pitch_bend_c, 0, 9264
2, 23606, Pitch_bend_c, 0, 9155
2, 23607, Pitch_bend_c, 0, 9021
2, 23608, Pitch_bend_c, 0, 8867
2, 23609, Pitch_bend_c, 0, 8695
2, 23610, Pitch_bend_c, 0, 8511
2, 23611, Pitch_bend_c, 0, 8319
2, 23612, Pitch_bend_c, 0, 8123
2, 23613, Pitch_bend_c, 0, 7929
2, 23614, Pitch_bend_c, 0, 7742
2, 23615, Pitch_bend_c, 0, 7566
2, 23616, Pitch_bend_c, 0, 7406
2, 23617, Pitch_bend_c, 0, 7266
2, 23618, Pitch_bend_c, 0, 7150
2, 23619, Pitch_bend_c, 0, 7060
2, 23620, Pitch_bend_c, 0, 6998
2, 23621, Pitch_bend_c, 0, 6967
2, 23623, Pitch_bend_c, 0, 6998
2, 23624, Pitch_bend_c, 0, 7059
2, 23625, Pitch_bend_c, 0, 7149
2, 23626, Pitch_bend_c, 0, 7265
2, 23627, Pitch_bend_c, 0, 7405
2, 23628, Pitch_bend_c, 0, 7565
2, 23629, Pitch_bend_c, 0, 7741
2, 23630, Pitch_bend_c, 0, 7928
2, 23631, Pitch_bend_c, 0, 8122
2, 23632, Pitch_bend_c, 0, 8317
2, 23633, Pitch_bend_c, 0, 8510
2, 23634, Pitch_bend_c, 0, 8694
2, 23635, Pitch_bend_c, 0, 8866
2, 23636, Pitch_bend_c, 0, 9020
2, 23637, Pitch_bend_c, 0, 9154
2, 23638, Pitch_bend_c, 0, 9263
2, 23639, Pitch_bend_c, 0, 9345
2, 23640, Pitch_bend_c, 0, 9398
2, 23641, Pitch_bend_c, 0, 9420
2, 23642, Pitch_bend_c, 0, 9411
2, 23643, Pitch_bend_c, 0, 9371
2, 23644, Pitch_bend_c, 0, 9302
2, 23645, Pitch_bend_c, 0, 9204
2, 23646, Pitch_bend_c, 0, 9081
2, 23647, Pitch_bend_c, 0, 8935
2, 23648, Pitch_bend_c, 0, 8770
2, 23649, Pitch_bend_c, 0, 8590
2, 23650, Pitch_bend_c, 0, 8401
2, 23651, Pitch_bend_c, 0, 8206
2, 23652, Pitch_bend_c, 0, 8011
2, 23653, Pitch_bend_c, 0, 7820
2, 23654, Pitch_bend_c, 0, 7639
2, 23655, Pitch_bend_c, 0, 7472
2, 23656, Pitch_bend_c, 0, 7323
2, 23657, Pitch_bend_c, 0, 7196
2, 23658, Pitch_bend_c, 0, 7095
2, 23659, Pitch_bend_c, 0, 7021
2, 23660, Pitch_bend_c, 0, 6977
2, 23661, Pitch_bend_c, 0, 6963
2, 23662, Pitch_bend_c, 0, 6981
2, 23663, Pitch_bend_c, 0, 7030
2, 23664, Note_off_c, 0, 77, 64
2, 23664, Pitch_bend_c, 0, 8192
2, 23664, Note_on_c, 0, 77, 64
2, 23712, Note_off_c, 0, 77, 64
2, 23712, Note_on_c, 0, 77, 64
2, 23760, Note_off_c, 0, 77, 64
2, 23760, Note_on_c, 0, 77, 64
2, 23808, Note_off_c, 0, 77, 64
2, 23808, Instrument_name_t, "wave: square, volume: loud, envelope: sudden, filter: sustain sharp, chorus: union, effect: none"
2, 23808, Program_c, 0, 80
2, 23808, Control_c, 0, 7, 102
2, 23808, Note_on_c, 0, 78, 64
2, 23832, Note_off_c, 0, 78, 64
2, 23856, Note_on_c, 0, 85, 64
2, 23880, Note_off_c, 0, 85, 64
2, 23904, Note_on_c, 0, 90, 64
2, 23928, Note_off_c, 0, 90, 64
2, 23952, Note_on_c, 0, 92, 64
2, 23976, Note_off_c, 0, 92, 64
2, 24000, Note_on_c, 0, 85, 64
2, 24024, Note_off_c, 0, 85, 64
2, 24048, Note_on_c, 0, 90, 64
2, 24072, Note_off_c, 0, 90, 64
2, 24096, Note_on_c, 0, 92, 64
2, 24120, Note_off_c, 0, 92, 64
2, 24144, Note_on_c, 0, 85, 64
2, 24168, Note_off_c, 0, 85, 64
2, 24192, Note_on_c, 0, 95, 64
2, 24216, Note_off_c, 0, 95, 64
2, 24240, Note_on_c, 0, 85, 64
2, 24264, Note_off_c, 0, 85, 64
2, 24288, Note_on_c, 0, 95, 64
2, 24312, Note_off_c, 0, 95, 64
2, 24336, Note_on_c, 0, 94, 64
2, 24360, Note_off_c, 0, 94, 64
2, 24384, Note_on_c, 0, 85, 64
2, 24408, Note_off_c, 0, 85, 64
2, 24432, Note_on_c, 0, 94, 64
2, 24456, Note_off_c, 0, 94, 64
2, 24480, Note_on_c, 0, 92, 64
2, 24504, Note_off_c, 0, 92, 64
2, 24528, Note_on_c, 0, 90, 64
2, 24552, Note_off_c, 0, 90, 64
2, 24576, Instrument_name_t, "wave: square, volume: loudest, envelope: sudden, filter: decay soft, chorus: union, effect: none"
2, 24576, Program_c, 0, 46
2, 24576, Control_c, 0, 7, 127
2, 24576, Note_on_c, 0, 78, 64
2, 24600, Note_off_c, 0, 78, 64
2, 24624, Note_on_c, 0, 85, 64
2, 24648, Note_off_c, 0, 85, 64
2, 24672, Note_on_c, 0, 90, 64
2, 24696, Note_off_c, 0, 90, 64
2, 24720, Note_on_c, 0, 92, 64
2, 24744, Note_off_c, 0, 92, 64
2, 24768, Note_on_c, 0, 85, 64
2, 24792, Note_off_c, 0, 85, 64
2, 24816, Note_on_c, 0, 90, 64
2, 24840, Note_off_c, 0, 90, 64
2, 24864, Note_on_c, 0, 92, 64
2, 24888, Note_off_c, 0, 92, 64
2, 24912, Note_on_c, 0, 85, 64
2, 24936, Note_off_c, 0, 85, 64
2, 24960, Note_on_c, 0, 95, 64
2, 24984, Note_off_c, 0, 95, 64
2, 25008, Note_on_c, 0, 85, 64
2, 25032, Note_off_c, 0, 85, 64
2, 25056, Note_on_c, 0, 95, 64
2, 25080, Note_off_c, 0, 95, 64
2, 25104, Note_on_c, 0, 94, 64
2, 25128, Note_off_c, 0, 94, 64
2, 25152, Note_on_c, 0, 85, 64
2, 25176, Note_off_c, 0, 85, 64
2, 25200, Note_on_c, 0, 94, 64
2, 25224, Note_off_c, 0, 94, 64
2, 25248, Note_on_c, 0, 92, 64
2, 25272, Note_off_c, 0, 92, 64
2, 25296, Note_on_c, 0, 90, 64
2, 25320, Note_off_c, 0, 90, 64
2, 25344, End_track
3, 0, Start_track
3, 0, Title_t, "blue channel chorus"
3, 0, Control_c, 1, 126, 1
3, 0, Control_c, 1, 68, 127
3, 25344, End_track
4, 0, Start_track
4, 0, Title_t, "yellow channel"
4, 0, Control_c, 2, 126, 1
4, 0, Control_c, 2, 68, 127
4, 768, Instrument_name_t, "wave: pulse narrow, volume: loudest, envelope: binary, filter: sustain sharp, chorus: union, effect: vibrato delayed"
4, 768, Program_c, 2, 68
4, 768, Control_c, 2, 7, 127
4, 960, Pitch_bend_c, 2, 8192
4, 960, Control_c, 2, 11, 127
4, 960, Note_on_c, 2, 73, 64
4, 1032, Pitch_bend_c, 2, 7032
4, 1033, Pitch_bend_c, 2, 6982
4, 1034, Pitch_bend_c, 2, 6963
4, 1035, Pitch_bend_c, 2, 6975
4, 1036, Pitch_bend_c, 2, 7018
4, 1037, Pitch_bend_c, 2, 7091
4, 1038, Pitch_bend_c, 2, 7192
4, 1039, Pitch_bend_c, 2, 7318
4, 1040, Pitch_bend_c, 2, 7466
4, 1041, Pitch_bend_c, 2, 7632
4, 1042, Pitch_bend_c, 2, 7813
4, 1043, Pitch_bend_c, 2, 8003
4, 1044, Pitch_bend_c, 2, 8198
4, 1045, Pitch_bend_c, 2, 8393
4, 1046, Pitch_bend_c, 2, 8583
4, 1047, Pitch_bend_c, 2, 8763
4, 1048, Pitch_bend_c, 2, 8928
4, 1049, Pitch_bend_c, 2, 9075
4, 1050, Pitch_bend_c, 2, 9200
4, 1051, Pitch_bend_c, 2, 9298
4, 1052, Pitch_bend_c, 2, 9369
4, 1053, Pitch_bend_c, 2, 9410
4, 1054, Pitch_bend_c, 2, 9420
4, 1055, Pitch_bend_c, 2, 9399
4, 1056, Pitch_bend_c, 2, 9348
4, 1057, Pitch_bend_c, 2, 9267
4, 1058, Pitch_bend_c, 2, 9159
4, 1059, Pitch_bend_c, 2, 9026
4, 1060, Pitch_bend_c, 2, 8872
4, 1061, Pitch_bend_c, 2, 8701
4, 1062, Pitch_bend_c, 2, 8517
4, 1063, Pitch_bend_c, 2, 8325
4, 1064, Pitch_bend_c, 2, 8129
4, 1065, Pitch_bend_c, 2, 7935
4, 1066, Pitch_bend_c, 2, 7748
4, 1067, Pitch_bend_c, 2, 7572
4, 1068, Pitch_bend_c, 2, 7411
4, 1069, Pitch_bend_c, 2, 7271
4, 1070, Pitch_bend_c, 2, 7153
4, 1071, Pitch_bend_c, 2, 7062
4, 1072, Pitch_bend_c, 2, 7000
4, 1073, Pitch_bend_c, 2, 6968
4, 1074, Pitch_bend_c, 2, 6967
4, 1075, Pitch_bend_c, 2, 6996
4, 1076, Pitch_bend_c, 2, 7057
4, 1077, Pitch_bend_c, 2, 7146
4, 1078, Pitch_bend_c, 2, 7261
4, 1079, Pitch_bend_c, 2, 7400
4, 1080, Pitch_bend_c, 2, 7560
4, 1081, Pitch_bend_c, 2, 7735
4, 1082, Pitch_bend_c, 2, 7922
4, 1083, Pitch_bend_c, 2, 8115
4, 1084, Pitch_bend_c, 2, 8311
4, 1085, Pitch_bend_c, 2, 8503
4, 1086, Pitch_bend_c, 2, 8688
4, 1087, Pitch_bend_c, 2, 8860
4, 1088, Pitch_bend_c, 2, 9015
4, 1089, Pitch_bend_c, 2, 9150
4, 1090, Pitch_bend_c, 2, 9260
4, 1091, Pitch_bend_c, 2, 9343
4, 1092, Pitch_bend_c, 2, 9397
4, 1093, Pitch_bend_c, 2, 9420
4, 1094, Pitch_bend_c, 2, 9412
4, 1095, Pitch_bend_c, 2, 9373
4, 1096, Pitch_bend_c, 2, 9304
4, 1097, Pitch_bend_c, 2, 9208
4, 1098, Pitch_bend_c, 2, 9085
4, 1099, Pitch_bend_c, 2, 8940
4, 1100, Pitch_bend_c, 2, 8775
4, 1101, Pitch_bend_c, 2, 8596
4, 1102, Pitch_bend_c, 2, 8407
4, 1103, Pitch_bend_c, 2, 8212
4, 1104, Pitch_bend_c, 2, 8017
4, 1105, Pitch_bend_c, 2, 7826
4, 1106, Pitch_bend_c, 2, 7645
4, 1107, Pitch_bend_c, 2, 7477
4, 1108, Pitch_bend_c, 2, 7328
4, 1109, Pitch_bend_c, 2, 7200
4, 1110, Pitch_bend_c, 2, 7097
4, 1111, Pitch_bend_c, 2, 7023
4, 1112, Pitch_bend_c, 2, 6978
4, 1113, Pitch_bend_c, 2, 6963
4, 1114, Pitch_bend_c, 2, 6980
4, 1115, Pitch_bend_c, 2, 7028
4, 1116, Pitch_bend_c, 2, 7105
4, 1117, Pitch_bend_c, 2, 7209
4, 1118, Pitch_bend_c, 2, 7339
4, 1119, Pitch_bend_c, 2, 7490
4, 1120, Pitch_bend_c, 2, 7659
4, 1121, Pitch_bend_c, 2, 7841
4, 1122, Pitch_bend_c, 2, 8033
4, 1123, Pitch_bend_c, 2, 8228
4, 1124, Pitch_bend_c, 2, 8423
4, 1125, Pitch_bend_c, 2, 8611
4, 1126, Pitch_bend_c, 2, 8789
4, 1127, Pitch_bend_c, 2, 8952
4, 1128, Pitch_bend_c, 2, 9096
4, 1129, Pitch_bend_c, 2, 9216
4, 1130, Pitch_bend_c, 2, 9311
4, 1131, Pitch_bend_c, 2, 9377
4, 1132, Pitch_bend_c, 2, 9414
4, 1133, Pitch_bend_c, 2, 9419
4, 1134, Pitch_bend_c, 2, 9393
4, 1135, Pitch_bend_c, 2, 9337
4, 1136, Pitch_bend_c, 2, 9252
4, 1137, Pitch_bend_c, 2, 9140
4, 1138, Pitch_bend_c, 2, 9004
4, 1139, Pitch_bend_c, 2, 8847
4, 1140, Pitch_bend_c, 2, 8674
4, 1141, Pitch_bend_c, 2, 8488
4, 1142, Pitch_bend_c, 2, 8295
4, 1143, Pitch_bend_c, 2, 8100
4, 1144, Pitch_bend_c, 2, 7906
4, 1145, Pitch_bend_c, 2, 7720
4, 1146, Pitch_bend_c, 2, 7546
4, 1147, Pitch_bend_c, 2, 7388
4, 1148, Pitch_bend_c, 2, 7251
4, 1149, Pitch_bend_c, 2, 7138
4, 1150, Pitch_bend_c, 2, 7051
4, 1151, Pitch_bend_c, 2, 6993
4, 1152, Pitch_bend_c, 2, 6966
4, 1153, Pitch_bend_c, 2, 6969
4, 1154, Pitch_bend_c, 2, 7004
4, 1155, Pitch_bend_c, 2, 7068
4, 1156, Pitch_bend_c, 2, 7162
4, 1157, Pitch_bend_c, 2, 7281
4, 1158, Pitch_bend_c, 2, 7423
4, 1159, Pitch_bend_c, 2, 7585
4, 1160, Pitch_bend_c, 2, 7763
4, 1161, Pitch_bend_c, 2, 7951
4, 1162, Pitch_bend_c, 2, 8145
4, 1163, Pitch_bend_c, 2, 8340
4, 1164, Pitch_bend_c, 2, 8532
4, 1165, Pitch_bend_c, 2, 8715
4, 1166, Pitch_bend_c, 2, 8885
4, 1167, Pitch_bend_c, 2, 9037
4, 1168, Pitch_bend_c, 2, 9168
4, 1169, Pitch_bend_c, 2, 9274
4, 1170, Pitch_bend_c, 2, 9353
4, 1171, Pitch_bend_c, 2, 9402
4, 1172, Pitch_bend_c, 2, 9421
4, 1173, Pitch_bend_c, 2, 9408
4, 1174, Pitch_bend_c, 2, 9365
4, 1175, Pitch_bend_c, 2, 9292
4, 1176, Pitch_bend_c, 2, 9191
4, 1177, Pitch_bend_c, 2, 9064
4, 1178, Pitch_bend_c, 2, 8916
4, 1179, Pitch_bend_c, 2, 8749
4, 1180, Pitch_bend_c, 2, 8568
4, 1181, Pitch_bend_c, 2, 8378
4, 1182, Pitch_bend_c, 2, 8183
4, 1183, Pitch_bend_c, 2, 7988
4, 1184, Pitch_bend_c, 2, 7798
4, 1185, Pitch_bend_c, 2, 7618
4, 1186, Pitch_bend_c, 2, 7453
4, 1187, Pitch_bend_c, 2, 7307
4, 1188, Pitch_bend_c, 2, 7183
4, 1189, Pitch_bend_c, 2, 7084
4, 1190, Pitch_bend_c, 2, 7014
4, 1191, Pitch_bend_c, 2, 6973
4, 1192, Pitch_bend_c, 2, 6964
4, 1193, Pitch_bend_c, 2, 6985
4, 1194, Pitch_bend_c, 2, 7037
4, 1195, Pitch_bend_c, 2, 7119
4, 1196, Pitch_bend_c, 2, 7227
4, 1197, Pitch_bend_c, 2, 7360
4, 1198, Pitch_bend_c, 2, 7515
4, 1199, Pitch_bend_c, 2, 7686
4, 1200, Pitch_bend_c, 2, 7870
4, 1201, Pitch_bend_c, 2, 8062
4, 1202, Pitch_bend_c, 2, 8258
4, 1203, Pitch_bend_c, 2, 8452
4, 1204, Pitch_bend_c, 2, 8639
4, 1205, Pitch_bend_c, 2, 8815
4, 1206, Pitch_bend_c, 2, 8975
4, 1207, Pitch_bend_c, 2, 9116
4, 1208, Pitch_bend_c, 2, 9232
4, 1209, Pitch_bend_c, 2, 9323
4, 1210, Pitch_bend_c, 2, 9385
4, 1211, Pitch_bend_c, 2, 9417
4, 1213, Pitch_bend_c, 2, 9387
4, 1214, Pitch_bend_c, 2, 9326
4, 1215, Pitch_bend_c, 2, 9237
4, 1216, Pitch_bend_c, 2, 9121
4, 1217, Pitch_bend_c, 2, 8981
4, 1218, Pitch_bend_c, 2, 8822
4, 1219, Pitch_bend_c, 2, 8646
4, 1220, Pitch_bend_c, 2, 8459
4, 1221, Pitch_bend_c, 2, 8266
4, 1222, Pitch_bend_c, 2, 8070
4, 1223, Pitch_bend_c, 2, 7877
4, 1224, Pitch_bend_c, 2, 7693
4, 1225, Pitch_bend_c, 2, 7521
4, 1226, Pitch_bend_c, 2, 7366
4, 1227, Pitch_bend_c, 2, 7232
4, 1228, Pitch_bend_c, 2, 7123
4, 1229, Pitch_bend_c, 2, 7040
4, 1230, Pitch_bend_c, 2, 6987
4, 1231, Pitch_bend_c, 2, 6964
4, 1232, Pitch_bend_c, 2, 6972
4, 1233, Pitch_bend_c, 2, 7012
4, 1234, Pitch_bend_c, 2, 7081
4, 1235, Pitch_bend_c, 2, 7178
4, 1236, Pitch_bend_c, 2, 7301
4, 1237, Pitch_bend_c, 2, 7447
4, 1238, Pitch_bend_c, 2, 7611
4, 1239, Pitch_bend_c, 2, 7791
4, 1240, Pitch_bend_c, 2, 7980
4, 1241, Pitch_bend_c, 2, 8175
4, 1242, Pitch_bend_c, 2, 8370
4, 1243, Pitch_bend_c, 2, 8561
4, 1244, Pitch_bend_c, 2, 8742
4, 1245, Pitch_bend_c, 2, 8909
4, 1246, Pitch_bend_c, 2, 9059
4, 1247, Pitch_bend_c, 2, 9186
4, 1248, Pitch_bend_c, 2, 9288
4, 1249, Pitch_bend_c, 2, 9362
4, 1250, Pitch_bend_c, 2, 9407
4, 1251, Pitch_bend_c, 2, 9421
4, 1252, Pitch_bend_c, 2, 9403
4, 1253, Pitch_bend_c, 2, 9355
4, 1254, Pitch_bend_c, 2, 9278
4, 1255, Pitch_bend_c, 2, 9173
4, 1256, Pitch_bend_c, 2, 9043
4, 1257, Pitch_bend_c, 2, 8892
4, 1258, Pitch_bend_c, 2, 8722
4, 1259, Pitch_bend_c, 2, 8540
4, 1260, Pitch_bend_c, 2, 8348
4, 1261, Pitch_bend_c, 2, 8153
4, 1262, Pitch_bend_c, 2, 7958
4, 1263, Pitch_bend_c, 2, 7770
4, 1264, Pitch_bend_c, 2, 7592
4, 1265, Pitch_bend_c, 2, 7430
4, 1266, Pitch_bend_c, 2, 7286
4, 1267, Pitch_bend_c, 2, 7166
4, 1268, Pitch_bend_c, 2, 7072
4, 1269, Pitch_bend_c, 2, 7006
4, 1270, Pitch_bend_c, 2, 6970
4, 1271, Pitch_bend_c, 2, 6965
4, 1272, Pitch_bend_c, 2, 6991
4, 1273, Pitch_bend_c, 2, 7048
4, 1274, Pitch_bend_c, 2, 7134
4, 1275, Pitch_bend_c, 2, 7246
4, 1276, Pitch_bend_c, 2, 7383
4, 1277, Pitch_bend_c, 2, 7540
4, 1278, Pitch_bend_c, 2, 7713
4, 1279, Pitch_bend_c, 2, 7899
4, 1280, Pitch_bend_c, 2, 8092
4, 1281, Pitch_bend_c, 2, 8287
4, 1282, Pitch_bend_c, 2, 8481
4, 1283, Pitch_bend_c, 2, 8667
4, 1284, Pitch_bend_c, 2, 8840
4, 1285, Pitch_bend_c, 2, 8998
4, 1286, Pitch_bend_c, 2, 9135
4, 1287, Pitch_bend_c, 2, 9248
4, 1288, Pitch_bend_c, 2, 9334
4, 1289, Pitch_bend_c, 2, 9392
4, 1290, Pitch_bend_c, 2, 9419
4, 1291, Pitch_bend_c, 2, 9415
4, 1292, Pitch_bend_c, 2, 9379
4, 1293, Pitch_bend_c, 2, 9314
4, 1294, Pitch_bend_c, 2, 9221
4, 1295, Pitch_bend_c, 2, 9101
4, 1296, Pitch_bend_c, 2, 8958
4, 1297, Pitch_bend_c, 2, 8796
4, 1298, Pitch_bend_c, 2, 8618
4, 1299, Pitch_bend_c, 2, 8430
4, 1300, Pitch_bend_c, 2, 8236
4, 1301, Pitch_bend_c, 2, 8040
4, 1302, Pitch_bend_c, 2, 7849
4, 1303, Pitch_bend_c, 2, 7666
4, 1304, Pitch_bend_c, 2, 7496
4, 1305, Pitch_bend_c, 2, 7344
4, 1306, Pitch_bend_c, 2, 7214
4, 1307, Pitch_bend_c, 2, 7108
4, 1308, Pitch_bend_c, 2, 7030
4, 1309, Pitch_bend_c, 2, 6981
4, 1310, Pitch_bend_c, 2, 6963
4, 1311, Pitch_bend_c, 2, 6976
4, 1312, Pitch_bend_c, 2, 7020
4, 1313, Pitch_bend_c, 2, 7094
4, 1314, Pitch_bend_c, 2, 7195
4, 1315, Pitch_bend_c, 2, 7322
4, 1316, Pitch_bend_c, 2, 7471
4, 1317, Pitch_bend_c, 2, 7638
4, 1318, Pitch_bend_c, 2, 7819
4, 1319, Pitch_bend_c, 2, 8009
4, 1320, Pitch_bend_c, 2, 8205
4, 1321, Pitch_bend_c, 2, 8399
4, 1322, Pitch_bend_c, 2, 8589
4, 1323, Pitch_bend_c, 2, 8768
4, 1324, Pitch_bend_c, 2, 8933
4, 1325, Pitch_bend_c, 2, 9080
4, 1326, Pitch_bend_c, 2, 9203
4, 1327, Pitch_bend_c, 2, 9301
4, 1328, Pitch_bend_c, 2, 9371
4, 1329, Pitch_bend_c, 2, 9411
4, 1330, Pitch_bend_c, 2, 9420
4, 1331, Pitch_bend_c, 2, 9398
4, 1332, Pitch_bend_c, 2, 9345
4, 1333, Pitch_bend_c, 2, 9264
4, 1334, Pitch_bend_c, 2, 9155
4, 1335, Pitch_bend_c, 2, 9021
4, 1336, Pitch_bend_c, 2, 8867
4, 1337, Pitch_bend_c, 2, 8695
4, 1338, Pitch_bend_c, 2, 8511
4, 1339, Pitch_bend_c, 2, 8319
4, 1340, Pitch_bend_c, 2, 8123
4, 1341, Pitch_bend_c, 2, 7929
4, 1342, Pitch_bend_c, 2, 7742
4, 1343, Pitch_bend_c, 2, 7566
4, 1344, Pitch_bend_c, 2, 7406
4, 1345, Pitch_bend_c, 2, 7266
4, 1346, Pitch_bend_c, 2, 7150
4, 1347, Pitch_bend_c, 2, 7060
4, 1348, Pitch_bend_c, 2, 6998
4, 1349, Pitch_bend_c, 2, 6967
4, 1351, Pitch_bend_c, 2, 6998
4, 1352, Pitch_bend_c, 2, 7059
4, 1353, Pitch_bend_c, 2, 7149
4, 1354, Pitch_bend_c, 2, 7265
4, 1355, Pitch_bend_c, 2, 7405
4, 1356, Pitch_bend_c, 2, 7565
4, 1357, Pitch_bend_c, 2, 7741
4, 1358, Pitch_bend_c, 2, 7928
4, 1359, Pitch_bend_c, 2, 8122
4, 1360, Pitch_bend_c, 2, 8317
4, 1361, Pitch_bend_c, 2, 8510
4, 1362, Pitch_bend_c, 2, 8694
4, 1363, Pitch_bend_c, 2, 8866
4, 1364, Pitch_bend_c, 2, 9020
4, 1365, Pitch_bend_c, 2, 9154
4, 1366, Pitch_bend_c, 2, 9263
4, 1367, Pitch_bend_c, 2, 9345
4, 1368, Pitch_bend_c, 2, 9398
4, 1369, Pitch_bend_c, 2, 9420
4, 1370, Pitch_bend_c, 2, 9411
4, 1371, Pitch_bend_c, 2, 9371
4, 1372, Pitch_bend_c, 2, 9302
4, 1373, Pitch_bend_c, 2, 9204
4, 1374, Pitch_bend_c, 2, 9081
4, 1375, Pitch_bend_c, 2, 8935
4, 1376, Pitch_bend_c, 2, 8770
4, 1377, Pitch_bend_c, 2, 8590
4, 1378, Pitch_bend_c, 2, 8401
4, 1379, Pitch_bend_c, 2, 8206
4, 1380, Pitch_bend_c, 2, 8011
4, 1381, Pitch_bend_c, 2, 7820
4, 1382, Pitch_bend_c, 2, 7639
4, 1383, Pitch_bend_c, 2, 7472
4, 1384, Pitch_bend_c, 2, 7323
4, 1385, Pitch_bend_c, 2, 7196
4, 1386, Pitch_bend_c, 2, 7095
4, 1387, Pitch_bend_c, 2, 7021
4, 1388, Pitch_bend_c, 2, 6977
4, 1389, Pitch_bend_c, 2, 6963
4, 1390, Pitch_bend_c, 2, 6981
4, 1391, Pitch_bend_c, 2, 7030
4, 1392, Note_off_c, 2, 73, 64
4, 1392, Pitch_bend_c, 2, 8192
4, 1392, Note_on_c, 2, 78, 64
4, 1464, Pitch_bend_c, 2, 7179
4, 1465, Pitch_bend_c, 2, 7082
4, 1466, Pitch_bend_c, 2, 7012
4, 1467, Pitch_bend_c, 2, 6973
4, 1468, Pitch_bend_c, 2, 6964
4, 1469, Pitch_bend_c, 2, 6987
4, 1470, Pitch_bend_c, 2, 7040
4, 1471, Pitch_bend_c, 2, 7122
4, 1472, Pitch_bend_c, 2, 7231
4, 1473, Pitch_bend_c, 2, 7365
4, 1474, Pitch_bend_c, 2, 7520
4, 1475, Pitch_bend_c, 2, 7692
4, 1476, Pitch_bend_c, 2, 7876
4, 1477, Pitch_bend_c, 2, 8068
4, 1478, Pitch_bend_c, 2, 8264
4, 1479, Pitch_bend_c, 2, 8458
4, 1480, Pitch_bend_c, 2, 8645
4, 1481, Pitch_bend_c, 2, 8820
4, 1482, Pitch_bend_c, 2, 8980
4, 1483, Pitch_bend_c, 2, 9120
4, 1484, Pitch_bend_c, 2, 9236
4, 1485, Pitch_bend_c, 2, 9325
4, 1486, Pitch_bend_c, 2, 9386
4, 1487, Pitch_bend_c, 2, 9417
4, 1488, Note_off_c, 2, 78, 64
4, 1488, Pitch_bend_c, 2, 8192
4, 1488, Note_on_c, 2, 80, 64
4, 1536, Note_off_c, 2, 80, 64
4, 1536, Instrument_name_t, "wave: pulse narrow, volume: loudest, envelope: sudden, filter: sustain sharp, chorus: union, effect: vibrato delayed"
4, 1536, Program_c, 2, 68
4, 1536, Control_c, 2, 7, 127
4, 1536, Note_on_c, 2, 80, 64
4, 1584, Note_off_c, 2, 80, 64
4, 1584, Note_on_c, 2, 83, 64
4, 1656, Pitch_bend_c, 2, 8526
4, 1657, Pitch_bend_c, 2, 8710
4, 1658, Pitch_bend_c, 2, 8880
4, 1659, Pitch_bend_c, 2, 9033
4, 1660, Pitch_bend_c, 2, 9164
4, 1661, Pitch_bend_c, 2, 9271
4, 1662, Pitch_bend_c, 2, 9351
4, 1663, Pitch_bend_c, 2, 9401
4, 1664, Pitch_bend_c, 2, 9421
4, 1665, Pitch_bend_c, 2, 9409
4, 1666, Pitch_bend_c, 2, 9367
4, 1667, Pitch_bend_c, 2, 9294
4, 1668, Pitch_bend_c, 2, 9194
4, 1669, Pitch_bend_c, 2, 9069
4, 1670, Pitch_bend_c, 2, 8921
4, 1671, Pitch_bend_c, 2, 8755
4, 1672, Pitch_bend_c, 2, 8574
4, 1673, Pitch_bend_c, 2, 8384
4, 1674, Pitch_bend_c, 2, 8189
4, 1675, Pitch_bend_c, 2, 7994
4, 1676, Pitch_bend_c, 2, 7804
4, 1677, Pitch_bend_c, 2, 7624
4, 1678, Pitch_bend_c, 2, 7458
4, 1679, Pitch_bend_c, 2, 7311
4, 1680, Note_off_c, 2, 83, 64
4, 1680, Pitch_bend_c, 2, 8192
4, 1680, Note_on_c, 2, 83, 64
4, 1752, Pitch_bend_c, 2, 8354
4, 1753, Pitch_bend_c, 2, 8159
4, 1754, Pitch_bend_c, 2, 7965
4, 1755, Pitch_bend_c, 2, 7776
4, 1756, Pitch_bend_c, 2, 7598
4, 1757, Pitch_bend_c, 2, 7434
4, 1758, Pitch_bend_c, 2, 7291
4, 1759, Pitch_bend_c, 2, 7169
4, 1760, Pitch_bend_c, 2, 7074
4, 1761, Pitch_bend_c, 2, 7007
4, 1762, Pitch_bend_c, 2, 6971
4, 1763, Pitch_bend_c, 2, 6965
4, 1764, Pitch_bend_c, 2, 6990
4, 1765, Pitch_bend_c, 2, 7046
4, 1766, Pitch_bend_c, 2, 7130
4, 1767, Pitch_bend_c, 2, 7242
4, 1768, Pitch_bend_c, 2, 7378
4, 1769, Pitch_bend_c, 2, 7534
4, 1770, Pitch_bend_c, 2, 7707
4, 1771, Pitch_bend_c, 2, 7893
4, 1772, Pitch_bend_c, 2, 8086
4, 1773, Pitch_bend_c, 2, 8281
4, 1774, Pitch_bend_c, 2, 8475
4, 1775, Pitch_bend_c, 2, 8661
4, 1776, Pitch_bend_c, 2, 8835
4, 1777, Pitch_bend_c, 2, 8993
4, 1778, Pitch_bend_c, 2, 9131
4, 1779, Pitch_bend_c, 2, 9245
4, 1780, Pitch_bend_c, 2, 9332
4, 1781, Pitch_bend_c, 2, 9390
4, 1782, Pitch_bend_c, 2, 9418
4, 1783, Pitch_bend_c, 2, 9415
4, 1784, Pitch_bend_c, 2, 9381
4, 1785, Pitch_bend_c, 2, 9317
4, 1786, Pitch_bend_c, 2, 9224
4, 1787, Pitch_bend_c, 2, 9105
4, 1788, Pitch_bend_c, 2, 8963
4, 1789, Pitch_bend_c, 2, 8801
4, 1790, Pitch_bend_c, 2, 8624
4, 1791, Pitch_bend_c, 2, 8436
4, 1792, Pitch_bend_c, 2, 8242
4, 1793, Pitch_bend_c, 2, 8047
4, 1794, Pitch_bend_c, 2, 7855
4, 1795, Pitch_bend_c, 2, 7672
4, 1796, Pitch_bend_c, 2, 7502
4, 1797, Pitch_bend_c, 2, 7349
4, 1798, Pitch_bend_c, 2, 7218
4, 1799, Pitch_bend_c, 2, 7111
4, 1800, Pitch_bend_c, 2, 7032
4, 1801, Pitch_bend_c, 2, 6982
4, 1802, Pitch_bend_c, 2, 6963
4, 1803, Pitch_bend_c, 2, 6975
4, 1804, Pitch_bend_c, 2, 7018
4, 1805, Pitch_bend_c, 2, 7091
4, 1806, Pitch_bend_c, 2, 7192
4, 1807, Pitch_bend_c, 2, 7318
4, 1808, Pitch_bend_c, 2, 7466
4, 1809, Pitch_bend_c, 2, 7632
4, 1810, Pitch_bend_c, 2, 7813
4, 1811, Pitch_bend_c, 2, 8003
4, 1812, Pitch_bend_c, 2, 8198
4, 1813, Pitch_bend_c, 2, 8393
4, 1814, Pitch_bend_c, 2, 8583
4, 1815, Pitch_bend_c, 2, 8763
4, 1816, Pitch_bend_c, 2, 8928
4, 1817, Pitch_bend_c, 2, 9075
4, 1818, Pitch_bend_c, 2, 9200
4, 1819, Pitch_bend_c, 2, 9298
4, 1820, Pitch_bend_c, 2, 9369
4, 1821, Pitch_bend_c, 2, 9410
4, 1822, Pitch_bend_c, 2, 9420
4, 1823, Pitch_bend_c, 2, 9399
4, 1824, Note_off_c, 2, 83, 64
4, 1824, Pitch_bend_c, 2, 8192
4, 1824, Note_on_c, 2, 82, 64
4, 1872, Note_off_c, 2, 82, 64
4, 1872, Note_on_c, 2, 82, 64
4, 1944, Pitch_bend_c, 2, 9191
4, 1945, Pitch_bend_c, 2, 9064
4, 1946, Pitch_bend_c, 2, 8916
4, 1947, Pitch_bend_c, 2, 8749
4, 1948, Pitch_bend_c, 2, 8568
4, 1949, Pitch_bend_c, 2, 8378
4, 1950, Pitch_bend_c, 2, 8183
4, 1951, Pitch_bend_c, 2, 7988
4, 1952, Pitch_bend_c, 2, 7798
4, 1953, Pitch_bend_c, 2, 7618
4, 1954, Pitch_bend_c, 2, 7453
4, 1955, Pitch_bend_c, 2, 7307
4, 1956, Pitch_bend_c, 2, 7183
4, 1957, Pitch_bend_c, 2, 7084
4, 1958, Pitch_bend_c, 2, 7014
4, 1959, Pitch_bend_c, 2, 6973
4, 1960, Pitch_bend_c, 2, 6964
4, 1961, Pitch_bend_c, 2, 6985
4, 1962, Pitch_bend_c, 2, 7037
4, 1963, Pitch_bend_c, 2, 7119
4, 1964, Pitch_bend_c, 2, 7227
4, 1965, Pitch_bend_c, 2, 7360
4, 1966, Pitch_bend_c, 2, 7515
4, 1967, Pitch_bend_c, 2, 7686
4, 1968, Pitch_bend_c, 2, 7870
4, 1969, Pitch_bend_c, 2, 8062
4, 1970, Pitch_bend_c, 2, 8258
4, 1971, Pitch_bend_c, 2, 8452
4, 1972, Pitch_bend_c, 2, 8639
4, 1973, Pitch_bend_c, 2, 8815
4, 1974, Pitch_bend_c, 2, 8975
4, 1975, Pitch_bend_c, 2, 9116
4, 1976, Pitch_bend_c, 2, 9232
4, 1977, Pitch_bend_c, 2, 9323
4, 1978, Pitch_bend_c, 2, 9385
4, 1979, Pitch_bend_c, 2, 9417
4, 1981, Pitch_bend_c, 2, 9387
4, 1982, Pitch_bend_c, 2, 9326
4, 1983, Pitch_bend_c, 2, 9237
4, 1984, Pitch_bend_c, 2, 9121
4, 1985, Pitch_bend_c, 2, 8981
4, 1986, Pitch_bend_c, 2, 8822
4, 1987, Pitch_bend_c, 2, 8646
4, 1988, Pitch_bend_c, 2, 8459
4, 1989, Pitch_bend_c, 2, 8266
4, 1990, Pitch_bend_c, 2, 8070
4, 1991, Pitch_bend_c, 2, 7877
4, 1992, Pitch_bend_c, 2, 7693
4, 1993, Pitch_bend_c, 2, 7521
4, 1994, Pitch_bend_c, 2, 7366
4, 1995, Pitch_bend_c, 2, 7232
4, 1996, Pitch_bend_c, 2, 7123
4, 1997, Pitch_bend_c, 2, 7040
4, 1998, Pitch_bend_c, 2, 6987
4, 1999, Pitch_bend_c, 2, 6964
4, 2000, Pitch_bend_c, 2, 6972
4, 2001, Pitch_bend_c, 2, 7012
4, 2002, Pitch_bend_c, 2, 7081
4, 2003, Pitch_bend_c, 2, 7178
4, 2004, Pitch_bend_c, 2, 7301
4, 2005, Pitch_bend_c, 2, 7447
4, 2006, Pitch_bend_c, 2, 7611
4, 2007, Pitch_bend_c, 2, 7791
4, 2008, Pitch_bend_c, 2, 7980
4, 2009, Pitch_bend_c, 2, 8175
4, 2010, Pitch_bend_c, 2, 8370
4, 2011, Pitch_bend_c, 2, 8561
4, 2012, Pitch_bend_c, 2, 8742
4, 2013, Pitch_bend_c, 2, 8909
4, 2014, Pitch_bend_c, 2, 9059
4, 2015, Pitch_bend_c, 2, 9186
4, 2016, Pitch_bend_c, 2, 9288
4, 2017, Pitch_bend_c, 2, 9362
4, 2018, Pitch_bend_c, 2, 9407
4, 2019, Pitch_bend_c, 2, 9421
4, 2020, Pitch_bend_c, 2, 9403
4, 2021, Pitch_bend_c, 2, 9355
4, 2022, Pitch_bend_c, 2, 9278
4, 2023, Pitch_bend_c, 2, 9173
4, 2024, Pitch_bend_c, 2, 9043
4, 2025, Pitch_bend_c, 2, 8892
4, 2026, Pitch_bend_c, 2, 8722
4, 2027, Pitch_bend_c, 2, 8540
4, 2028, Pitch_bend_c, 2, 8348
4, 2029, Pitch_bend_c, 2, 8153
4, 2030, Pitch_bend_c, 2, 7958
4, 2031, Pitch_bend_c, 2, 7770
4, 2032, Pitch_bend_c, 2, 7592
4, 2033, Pitch_bend_c, 2, 7430
4, 2034, Pitch_bend_c, 2, 7286
4, 2035, Pitch_bend_c, 2, 7166
4, 2036, Pitch_bend_c, 2, 7072
4, 2037, Pitch_bend_c, 2, 7006
4, 2038, Pitch_bend_c, 2, 6970
4, 2039, Pitch_bend_c, 2, 6965
4, 2040, Pitch_bend_c, 2, 6991
4, 2041, Pitch_bend_c, 2, 7048
4, 2042, Pitch_bend_c, 2, 7134
4, 2043, Pitch_bend_c, 2, 7246
4, 2044, Pitch_bend_c, 2, 7383
4, 2045, Pitch_bend_c, 2, 7540
4, 2046, Pitch_bend_c, 2, 7713
4, 2047, Pitch_bend_c, 2, 7899
4, 2048, Pitch_bend_c, 2, 8092
4, 2049, Pitch_bend_c, 2, 8287
4, 2050, Pitch_bend_c, 2, 8481
4, 2051, Pitch_bend_c, 2, 8667
4, 2052, Pitch_bend_c, 2, 8840
4, 2053, Pitch_bend_c, 2, 8998
4, 2054, Pitch_bend_c, 2, 9135
4, 2055, Pitch_bend_c, 2, 9248
4, 2056, Pitch_bend_c, 2, 9334
4, 2057, Pitch_bend_c, 2, 9392
4, 2058, Pitch_bend_c, 2, 9419
4, 2059, Pitch_bend_c, 2, 9415
4, 2060, Pitch_bend_c, 2, 9379
4, 2061, Pitch_bend_c, 2, 9314
4, 2062, Pitch_bend_c, 2, 9221
4, 2063, Pitch_bend_c, 2, 9101
4, 2064, Pitch_bend_c, 2, 8958
4, 2065, Pitch_bend_c, 2, 8796
4, 2066, Pitch_bend_c, 2, 8618
4, 2067, Pitch_bend_c, 2, 8430
4, 2068, Pitch_bend_c, 2, 8236
4, 2069, Pitch_bend_c, 2, 8040
4, 2070, Pitch_bend_c, 2, 7849
4, 2071, Pitch_bend_c, 2, 7666
4, 2072, Pitch_bend_c, 2, 7496
4, 2073, Pitch_bend_c, 2, 7344
4, 2074, Pitch_bend_c, 2, 7214
4, 2075, Pitch_bend_c, 2, 7108
4, 2076, Pitch_bend_c, 2, 7030
4, 2077, Pitch_bend_c, 2, 6981
4, 2078, Pitch_bend_c, 2, 6963
4, 2079, Pitch_bend_c, 2, 6976
4, 2080, Pitch_bend_c, 2, 7020
4, 2081, Pitch_bend_c, 2, 7094
4, 2082, Pitch_bend_c, 2, 7195
4, 2083, Pitch_bend_c, 2, 7322
4, 2084, Pitch_bend_c, 2, 7471
4, 2085, Pitch_bend_c, 2, 7638
4, 2086, Pitch_bend_c, 2, 7819
4, 2087, Pitch_bend_c, 2, 8009
4, 2088, Pitch_bend_c, 2, 8205
4, 2089, Pitch_bend_c, 2, 8399
4, 2090, Pitch_bend_c, 2, 8589
4, 2091, Pitch_bend_c, 2, 8768
4, 2092, Pitch_bend_c, 2, 8933
4, 2093, Pitch_bend_c, 2, 9080
4, 2094, Pitch_bend_c, 2, 9203
4, 2095, Pitch_bend_c, 2, 9301
4, 2096, Pitch_bend_c, 2, 9371
4, 2097, Pitch_bend_c, 2, 9411
4, 2098, Pitch_bend_c, 2, 9420
4, 2099, Pitch_bend_c, 2, 9398
4, 2100, Pitch_bend_c, 2, 9345
4, 2101, Pitch_bend_c, 2, 9264
4, 2102, Pitch_bend_c, 2, 9155
4, 2103, Pitch_bend_c, 2, 9021
4, 2104, Pitch_bend_c, 2, 8867
4, 2105, Pitch_bend_c, 2, 8695
4, 2106, Pitch_bend_c, 2, 8511
4, 2107, Pitch_bend_c, 2, 8319
4, 2108, Pitch_bend_c, 2, 8123
4, 2109, Pitch_bend_c, 2, 7929
4, 2110, Pitch_bend_c, 2, 7742
4, 2111, Pitch_bend_c, 2, 7566
4, 2112, Pitch_bend_c, 2, 7406
4, 2113, Pitch_bend_c, 2, 7266
4, 2114, Pitch_bend_c, 2, 7150
4, 2115, Pitch_bend_c, 2, 7060
4, 2116, Pitch_bend_c, 2, 6998
4, 2117, Pitch_bend_c, 2, 6967
4, 2119, Pitch_bend_c, 2, 6998
4, 2120, Pitch_bend_c, 2, 7059
4, 2121, Pitch_bend_c, 2, 7149
4, 2122, Pitch_bend_c, 2, 7265
4, 2123, Pitch_bend_c, 2, 7405
4, 2124, Pitch_bend_c, 2, 7565
4, 2125, Pitch_bend_c, 2, 7741
4, 2126, Pitch_bend_c, 2, 7928
4, 2127, Pitch_bend_c, 2, 8122
4, 2128, Pitch_bend_c, 2, 8317
4, 2129, Pitch_bend_c, 2, 8510
4, 2130, Pitch_bend_c, 2, 8694
4, 2131, Pitch_bend_c, 2, 8866
4, 2132, Pitch_bend_c, 2, 9020
4, 2133, Pitch_bend_c, 2, 9154
4, 2134, Pitch_bend_c, 2, 9263
4, 2135, Pitch_bend_c, 2, 9345
4, 2136, Pitch_bend_c, 2, 9398
4, 2137, Pitch_bend_c, 2, 9420
4, 2138, Pitch_bend_c, 2, 9411
4, 2139, Pitch_bend_c, 2, 9371
4, 2140, Pitch_bend_c, 2, 9302
4, 2141, Pitch_bend_c, 2, 9204
4, 2142, Pitch_bend_c, 2, 9081
4, 2143, Pitch_bend_c, 2, 8935
4, 2144, Pitch_bend_c, 2, 8770
4, 2145, Pitch_bend_c, 2, 8590
4, 2146, Pitch_bend_c, 2, 8401
4, 2147, Pitch_bend_c, 2, 8206
4, 2148, Pitch_bend_c, 2, 8011
4, 2149, Pitch_bend_c, 2, 7820
4, 2150, Pitch_bend_c, 2, 7639
4, 2151, Pitch_bend_c, 2, 7472
4, 2152, Pitch_bend_c, 2, 7323
4, 2153, Pitch_bend_c, 2, 7196
4, 2154, Pitch_bend_c, 2, 7095
4, 2155, Pitch_bend_c, 2, 7021
4, 2156, Pitch_bend_c, 2, 6977
4, 2157, Pitch_bend_c, 2, 6963
4, 2158, Pitch_bend_c, 2, 6981
4, 2159, Pitch_bend_c, 2, 7030
4, 2160, Pitch_bend_c, 2, 7108
4, 2161, Pitch_bend_c, 2, 7213
4, 2162, Pitch_bend_c, 2, 7343
4, 2163, Pitch_bend_c, 2, 7495
4, 2164, Pitch_bend_c, 2, 7664
4, 2165, Pitch_bend_c, 2, 7847
4, 2166, Pitch_bend_c, 2, 8039
4, 2167, Pitch_bend_c, 2, 8234
4, 2168, Pitch_bend_c, 2, 8429
4, 2169, Pitch_bend_c, 2, 8617
4, 2170, Pitch_bend_c, 2, 8795
4, 2171, Pitch_bend_c, 2, 8957
4, 2172, Pitch_bend_c, 2, 9100
4, 2173, Pitch_bend_c, 2, 9220
4, 2174, Pitch_bend_c, 2, 9314
4, 2175, Pitch_bend_c, 2, 9379
4, 2176, Pitch_bend_c, 2, 9414
4, 2177, Pitch_bend_c, 2, 9419
4, 2178, Pitch_bend_c, 2, 9392
4, 2179, Pitch_bend_c, 2, 9335
4, 2180, Pitch_bend_c, 2, 9249
4, 2181, Pitch_bend_c, 2, 9136
4, 2182, Pitch_bend_c, 2, 8999
4, 2183, Pitch_bend_c, 2, 8842
4, 2184, Pitch_bend_c, 2, 8668
4, 2185, Pitch_bend_c, 2, 8482
4, 2186, Pitch_bend_c, 2, 8289
4, 2187, Pitch_bend_c, 2, 8093
4, 2188, Pitch_bend_c, 2, 7900
4, 2189, Pitch_bend_c, 2, 7715
4, 2190, Pitch_bend_c, 2, 7541
4, 2191, Pitch_bend_c, 2, 7384
4, 2192, Pitch_bend_c, 2, 7247
4, 2193, Pitch_bend_c, 2, 7134
4, 2194, Pitch_bend_c, 2, 7049
4, 2195, Pitch_bend_c, 2, 6992
4, 2196, Pitch_bend_c, 2, 6965
4, 2197, Pitch_bend_c, 2, 6970
4, 2198, Pitch_bend_c, 2, 7005
4, 2199, Pitch_bend_c, 2, 7071
4, 2200, Pitch_bend_c, 2, 7165
4, 2201, Pitch_bend_c, 2, 7285
4, 2202, Pitch_bend_c, 2, 7428
4, 2203, Pitch_bend_c, 2, 7591
4, 2204, Pitch_bend_c, 2, 7768
4, 2205, Pitch_bend_c, 2, 7957
4, 2206, Pitch_bend_c, 2, 8151
4, 2207, Pitch_bend_c, 2, 8347
4, 2208, Pitch_bend_c, 2, 8538
4, 2209, Pitch_bend_c, 2, 8721
4, 2210, Pitch_bend_c, 2, 8890
4, 2211, Pitch_bend_c, 2, 9042
4, 2212, Pitch_bend_c, 2, 9172
4, 2213, Pitch_bend_c, 2, 9277
4, 2214, Pitch_bend_c, 2, 9355
4, 2215, Pitch_bend_c, 2, 9403
4, 2216, Pitch_bend_c, 2, 9421
4, 2217, Pitch_bend_c, 2, 9407
4, 2218, Pitch_bend_c, 2, 9363
4, 2219, Pitch_bend_c, 2, 9289
4, 2220, Pitch_bend_c, 2, 9187
4, 2221, Pitch_bend_c, 2, 9060
4, 2222, Pitch_bend_c, 2, 8911
4, 2223, Pitch_bend_c, 2, 8743
4, 2224, Pitch_bend_c, 2, 8562
4, 2225, Pitch_bend_c, 2, 8372
4, 2226, Pitch_bend_c, 2, 8176
4, 2227, Pitch_bend_c, 2, 7982
4, 2228, Pitch_bend_c, 2, 7792
4, 2229, Pitch_bend_c, 2, 7613
4, 2230, Pitch_bend_c, 2, 7448
4, 2231, Pitch_bend_c, 2, 7302
4, 2232, Pitch_bend_c, 2, 7179
4, 2233, Pitch_bend_c, 2, 7082
4, 2234, Pitch_bend_c, 2, 7012
4, 2235, Pitch_bend_c, 2, 6973
4, 2236, Pitch_bend_c, 2, 6964
4, 2237, Pitch_bend_c, 2, 6987
4, 2238, Pitch_bend_c, 2, 7040
4, 2239, Pitch_bend_c, 2, 7122
4, 2240, Pitch_bend_c, 2, 7231
4, 2241, Pitch_bend_c, 2, 7365
4, 2242, Pitch_bend_c, 2, 7520
4, 2243, Pitch_bend_c, 2, 7692
4, 2244, Pitch_bend_c, 2, 7876
4, 2245, Pitch_bend_c, 2, 8068
4, 2246, Pitch_bend_c, 2, 8264
4, 2247, Pitch_bend_c, 2, 8458
4, 2248, Pitch_bend_c, 2, 8645
4, 2249, Pitch_bend_c, 2, 8820
4, 2250, Pitch_bend_c, 2, 8980
4, 2251, Pitch_bend_c, 2, 9120
4, 2252, Pitch_bend_c, 2, 9236
4, 2253, Pitch_bend_c, 2, 9325
4, 2254, Pitch_bend_c, 2, 9386
4, 2255, Pitch_bend_c, 2, 9417
4, 2256, Note_off_c, 2, 82, 64
4, 2256, Pitch_bend_c, 2, 8192
4, 2256, Note_on_c, 2, 80, 64
4, 2304, Note_off_c, 2, 80, 64
4, 2304, Instrument_name_t, "wave: pulse narrow, volume: loudest, envelope: binary, filter: sustain sharp, chorus: union, effect: vibrato delayed"
4, 2304, Program_c, 2, 68
4, 2304, Control_c, 2, 7, 127
4, 2304, Note_on_c, 2, 80, 64
4, 2352, Note_off_c, 2, 80, 64
4, 2352, Note_on_c, 2, 78, 64
4, 2424, Pitch_bend_c, 2, 8526
4, 2425, Pitch_bend_c, 2, 8710
4, 2426, Pitch_bend_c, 2, 8880
4, 2427, Pitch_bend_c, 2, 9033
4, 2428, Pitch_bend_c, 2, 9164
4, 2429, Pitch_bend_c, 2, 9271
4, 2430, Pitch_bend_c, 2, 9351
4, 2431, Pitch_bend_c, 2, 9401
4, 2432, Pitch_bend_c, 2, 9421
4, 2433, Pitch_bend_c, 2, 9409
4, 2434, Pitch_bend_c, 2, 9367
4, 2435, Pitch_bend_c, 2, 9294
4, 2436, Pitch_bend_c, 2, 9194
4, 2437, Pitch_bend_c, 2, 9069
4, 2438, Pitch_bend_c, 2, 8921
4, 2439, Pitch_bend_c, 2, 8755
4, 2440, Pitch_bend_c, 2, 8574
4, 2441, Pitch_bend_c, 2, 8384
4, 2442, Pitch_bend_c, 2, 8189
4, 2443, Pitch_bend_c, 2, 7994
4, 2444, Pitch_bend_c, 2, 7804
4, 2445, Pitch_bend_c, 2, 7624
4, 2446, Pitch_bend_c, 2, 7458
4, 2447, Pitch_bend_c, 2, 7311
4, 2448, Note_off_c, 2, 78, 64
4, 2448, Pitch_bend_c, 2, 8192
4, 2448, Note_on_c, 2, 85, 64
4, 2520, Pitch_bend_c, 2, 8354
4, 2521, Pitch_bend_c, 2, 8159
4, 2522, Pitch_bend_c, 2, 7965
4, 2523, Pitch_bend_c, 2, 7776
4, 2524, Pitch_bend_c, 2, 7598
4, 2525, Pitch_bend_c, 2, 7434
4, 2526, Pitch_bend_c, 2, 7291
4, 2527, Pitch_bend_c, 2, 7169
4, 2528, Pitch_bend_c, 2, 7074
4, 2529, Pitch_bend_c, 2, 7007
4, 2530, Pitch_bend_c, 2, 6971
4, 2531, Pitch_bend_c, 2, 6965
4, 2532, Pitch_bend_c, 2, 6990
4, 2533, Pitch_bend_c, 2, 7046
4, 2534, Pitch_bend_c, 2, 7130
4, 2535, Pitch_bend_c, 2, 7242
4, 2536, Pitch_bend_c, 2, 7378
4, 2537, Pitch_bend_c, 2, 7534
4, 2538, Pitch_bend_c, 2, 7707
4, 2539, Pitch_bend_c, 2, 7893
4, 2540, Pitch_bend_c, 2, 8086
4, 2541, Pitch_bend_c, 2, 8281
4, 2542, Pitch_bend_c, 2, 8475
4, 2543, Pitch_bend_c, 2, 8661
4, 2544, Pitch_bend_c, 2, 8835
4, 2545, Pitch_bend_c, 2, 8993
4, 2546, Pitch_bend_c, 2, 9131
4, 2547, Pitch_bend_c, 2, 9245
4, 2548, Pitch_bend_c, 2, 9332
4, 2549, Pitch_bend_c, 2, 9390
4, 2550, Pitch_bend_c, 2, 9418
4, 2551, Pitch_bend_c, 2, 9415
4, 2552, Pitch_bend_c, 2, 9381
4, 2553, Pitch_bend_c, 2, 9317
4, 2554, Pitch_bend_c, 2, 9224
4, 2555, Pitch_bend_c, 2, 9105
4, 2556, Pitch_bend_c, 2, 8963
4, 2557, Pitch_bend_c, 2, 8801
4, 2558, Pitch_bend_c, 2, 8624
4, 2559, Pitch_bend_c, 2, 8436
4, 2560, Pitch_bend_c, 2, 8242
4, 2561, Pitch_bend_c, 2, 8047
4, 2562, Pitch_bend_c, 2, 7855
4, 2563, Pitch_bend_c, 2, 7672
4, 2564, Pitch_bend_c, 2, 7502
4, 2565, Pitch_bend_c, 2, 7349
4, 2566, Pitch_bend_c, 2, 7218
4, 2567, Pitch_bend_c, 2, 7111
4, 2568, Pitch_bend_c, 2, 7032
4, 2569, Pitch_bend_c, 2, 6982
4, 2570, Pitch_bend_c, 2, 6963
4, 2571, Pitch_bend_c, 2, 6975
4, 2572, Pitch_bend_c, 2, 7018
4, 2573, Pitch_bend_c, 2, 7091
4, 2574, Pitch_bend_c, 2, 7192
4, 2575, Pitch_bend_c, 2, 7318
4, 2576, Pitch_bend_c, 2, 7466
4, 2577, Pitch_bend_c, 2, 7632
4, 2578, Pitch_bend_c, 2, 7813
4, 2579, Pitch_bend_c, 2, 8003
4, 2580, Pitch_bend_c, 2, 8198
4, 2581, Pitch_bend_c, 2, 8393
4, 2582, Pitch_bend_c, 2, 8583
4, 2583, Pitch_bend_c, 2, 8763
4, 2584, Pitch_bend_c, 2, 8928
4, 2585, Pitch_bend_c, 2, 9075
4, 2586, Pitch_bend_c, 2, 9200
4, 2587, Pitch_bend_c, 2, 9298
4, 2588, Pitch_bend_c, 2, 9369
4, 2589, Pitch_bend_c, 2, 9410
4, 2590, Pitch_bend_c, 2, 9420
4, 2591, Pitch_bend_c, 2, 9399
4, 2592, Pitch_bend_c, 2, 9348
4, 2593, Pitch_bend_c, 2, 9267
4, 2594, Pitch_bend_c, 2, 9159
4, 2595, Pitch_bend_c, 2, 9026
4, 2596, Pitch_bend_c, 2, 8872
4, 2597, Pitch_bend_c, 2, 8701
4, 2598, Pitch_bend_c, 2, 8517
4, 2599, Pitch_bend_c, 2, 8325
4, 2600, Pitch_bend_c, 2, 8129
4, 2601, Pitch_bend_c, 2, 7935
4, 2602, Pitch_bend_c, 2, 7748
4, 2603, Pitch_bend_c, 2, 7572
4, 2604, Pitch_bend_c, 2, 7411
4, 2605, Pitch_bend_c, 2, 7271
4, 2606, Pitch_bend_c, 2, 7153
4, 2607, Pitch_bend_c, 2, 7062
4, 2608, Pitch_bend_c, 2, 7000
4, 2609, Pitch_bend_c, 2, 6968
4, 2610, Pitch_bend_c, 2, 6967
4, 2611, Pitch_bend_c, 2, 6996
4, 2612, Pitch_bend_c, 2, 7057
4, 2613, Pitch_bend_c, 2, 7146
4, 2614, Pitch_bend_c, 2, 7261
4, 2615, Pitch_bend_c, 2, 7400
4, 2616, Pitch_bend_c, 2, 7560
4, 2617, Pitch_bend_c, 2, 7735
4, 2618, Pitch_bend_c, 2, 7922
4, 2619, Pitch_bend_c, 2, 8115
4, 2620, Pitch_bend_c, 2, 8311
4, 2621, Pitch_bend_c, 2, 8503
4, 2622, Pitch_bend_c, 2, 8688
4, 2623, Pitch_bend_c, 2, 8860
4, 2624, Pitch_bend_c, 2, 9015
4, 2625, Pitch_bend_c, 2, 9150
4, 2626, Pitch_bend_c, 2, 9260
4, 2627, Pitch_bend_c, 2, 9343
4, 2628, Pitch_bend_c, 2, 9397
4, 2629, Pitch_bend_c, 2, 9420
4, 2630, Pitch_bend_c, 2, 9412
4, 2631, Pitch_bend_c, 2, 9373
4, 2632, Pitch_bend_c, 2, 9304
4, 2633, Pitch_bend_c, 2, 9208
4, 2634, Pitch_bend_c, 2, 9085
4, 2635, Pitch_bend_c, 2, 8940
4, 2636, Pitch_bend_c, 2, 8775
4, 2637, Pitch_bend_c, 2, 8596
4, 2638, Pitch_bend_c, 2, 8407
4, 2639, Pitch_bend_c, 2, 8212
4, 2640, Pitch_bend_c, 2, 8017
4, 2641, Pitch_bend_c, 2, 7826
4, 2642, Pitch_bend_c, 2, 7645
4, 2643, Pitch_bend_c, 2, 7477
4, 2644, Pitch_bend_c, 2, 7328
4, 2645, Pitch_bend_c, 2, 7200
4, 2646, Pitch_bend_c, 2, 7097
4, 2647, Pitch_bend_c, 2, 7023
4, 2648, Pitch_bend_c, 2, 6978
4, 2649, Pitch_bend_c, 2, 6963
4, 2650, Pitch_bend_c, 2, 6980
4, 2651, Pitch_bend_c, 2, 7028
4, 2652, Pitch_bend_c, 2, 7105
4, 2653, Pitch_bend_c, 2, 7209
4, 2654, Pitch_bend_c, 2, 7339
4, 2655, Pitch_bend_c, 2, 7490
4, 2656, Pitch_bend_c, 2, 7659
4, 2657, Pitch_bend_c, 2, 7841
4, 2658, Pitch_bend_c, 2, 8033
4, 2659, Pitch_bend_c, 2, 8228
4, 2660, Pitch_bend_c, 2, 8423
4, 2661, Pitch_bend_c, 2, 8611
4, 2662, Pitch_bend_c, 2, 8789
4, 2663, Pitch_bend_c, 2, 8952
4, 2664, Pitch_bend_c, 2, 9096
4, 2665, Pitch_bend_c, 2, 9216
4, 2666, Pitch_bend_c, 2, 9311
4, 2667, Pitch_bend_c, 2, 9377
4, 2668, Pitch_bend_c, 2, 9414
4, 2669, Pitch_bend_c, 2, 9419
4, 2670, Pitch_bend_c, 2, 9393
4, 2671, Pitch_bend_c, 2, 9337
4, 2672, Pitch_bend_c, 2, 9252
4, 2673, Pitch_bend_c, 2, 9140
4, 2674, Pitch_bend_c, 2, 9004
4, 2675, Pitch_bend_c, 2, 8847
4, 2676, Pitch_bend_c, 2, 8674
4, 2677, Pitch_bend_c, 2, 8488
4, 2678, Pitch_bend_c, 2, 8295
4, 2679, Pitch_bend_c, 2, 8100
4, 2680, Pitch_bend_c, 2, 7906
4, 2681, Pitch_bend_c, 2, 7720
4, 2682, Pitch_bend_c, 2, 7546
4, 2683, Pitch_bend_c, 2, 7388
4, 2684, Pitch_bend_c, 2, 7251
4, 2685, Pitch_bend_c, 2, 7138
4, 2686, Pitch_bend_c, 2, 7051
4, 2687, Pitch_bend_c, 2, 6993
4, 2688, Pitch_bend_c, 2, 6966
4, 2689, Pitch_bend_c, 2, 6969
4, 2690, Pitch_bend_c, 2, 7004
4, 2691, Pitch_bend_c, 2, 7068
4, 2692, Pitch_bend_c, 2, 7162
4, 2693, Pitch_bend_c, 2, 7281
4, 2694, Pitch_bend_c, 2, 7423
4, 2695, Pitch_bend_c, 2, 7585
4, 2696, Pitch_bend_c, 2, 7763
4, 2697, Pitch_bend_c, 2, 7951
4, 2698, Pitch_bend_c, 2, 8145
4, 2699, Pitch_bend_c, 2, 8340
4, 2700, Pitch_bend_c, 2, 8532
4, 2701, Pitch_bend_c, 2, 8715
4, 2702, Pitch_bend_c, 2, 8885
4, 2703, Pitch_bend_c, 2, 9037
4, 2704, Pitch_bend_c, 2, 9168
4, 2705, Pitch_bend_c, 2, 9274
4, 2706, Pitch_bend_c, 2, 9353
4, 2707, Pitch_bend_c, 2, 9402
4, 2708, Pitch_bend_c, 2, 9421
4, 2709, Pitch_bend_c, 2, 9408
4, 2710, Pitch_bend_c, 2, 9365
4, 2711, Pitch_bend_c, 2, 9292
4, 2712, Pitch_bend_c, 2, 9191
4, 2713, Pitch_bend_c, 2, 9064
4, 2714, Pitch_bend_c, 2, 8916
4, 2715, Pitch_bend_c, 2, 8749
4, 2716, Pitch_bend_c, 2, 8568
4, 2717, Pitch_bend_c, 2, 8378
4, 2718, Pitch_bend_c, 2, 8183
4, 2719, Pitch_bend_c, 2, 7988
4, 2720, Pitch_bend_c, 2, 7798
4, 2721, Pitch_bend_c, 2, 7618
4, 2722, Pitch_bend_c, 2, 7453
4, 2723, Pitch_bend_c, 2, 7307
4, 2724, Pitch_bend_c, 2, 7183
4, 2725, Pitch_bend_c, 2, 7084
4, 2726, Pitch_bend_c, 2, 7014
4, 2727, Pitch_bend_c, 2, 6973
4, 2728, Pitch_bend_c, 2, 6964
4, 2729, Pitch_bend_c, 2, 6985
4, 2730, Pitch_bend_c, 2, 7037
4, 2731, Pitch_bend_c, 2, 7119
4, 2732, Pitch_bend_c, 2, 7227
4, 2733, Pitch_bend_c, 2, 7360
4, 2734, Pitch_bend_c, 2, 7515
4, 2735, Pitch_bend_c, 2, 7686
4, 2736, Note_off_c, 2, 85, 64
4, 2736, Pitch_bend_c, 2, 8192
4, 2736, Note_on_c, 2, 78, 64
4, 2808, Pitch_bend_c, 2, 6991
4, 2809, Pitch_bend_c, 2, 7048
4, 2810, Pitch_bend_c, 2, 7134
4, 2811, Pitch_bend_c, 2, 7246
4, 2812, Pitch_bend_c, 2, 7383
4, 2813, Pitch_bend_c, 2, 7540
4, 2814, Pitch_bend_c, 2, 7713
4, 2815, Pitch_bend_c, 2, 7899
4, 2816, Pitch_bend_c, 2, 8092
4, 2817, Pitch_bend_c, 2, 8287
4, 2818, Pitch_bend_c, 2, 8481
4, 2819, Pitch_bend_c, 2, 8667
4, 2820, Pitch_bend_c, 2, 8840
4, 2821, Pitch_bend_c, 2, 8998
4, 2822, Pitch_bend_c, 2, 9135
4, 2823, Pitch_bend_c, 2, 9248
4, 2824, Pitch_bend_c, 2, 9334
4, 2825, Pitch_bend_c, 2, 9392
4, 2826, Pitch_bend_c, 2, 9419
4, 2827, Pitch_bend_c, 2, 9415
4, 2828, Pitch_bend_c, 2, 9379
4, 2829, Pitch_bend_c, 2, 9314
4, 2830, Pitch_bend_c, 2, 9221
4, 2831, Pitch_bend_c, 2, 9101
4, 2832, Pitch_bend_c, 2, 8958
4, 2833, Pitch_bend_c, 2, 8796
4, 2834, Pitch_bend_c, 2, 8618
4, 2835, Pitch_bend_c, 2, 8430
4, 2836, Pitch_bend_c, 2, 8236
4, 2837, Pitch_bend_c, 2, 8040
4, 2838, Pitch_bend_c, 2, 7849
4, 2839, Pitch_bend_c, 2, 7666
4, 2840, Pitch_bend_c, 2, 7496
4, 2841, Pitch_bend_c, 2, 7344
4, 2842, Pitch_bend_c, 2, 7214
4, 2843, Pitch_bend_c, 2, 7108
4, 2844, Pitch_bend_c, 2, 7030
4, 2845, Pitch_bend_c, 2, 6981
4, 2846, Pitch_bend_c, 2, 6963
4, 2847, Pitch_bend_c, 2, 6976
4, 2848, Pitch_bend_c, 2, 7020
4, 2849, Pitch_bend_c, 2, 7094
4, 2850, Pitch_bend_c, 2, 7195
4, 2851, Pitch_bend_c, 2, 7322
4, 2852, Pitch_bend_c, 2, 7471
4, 2853, Pitch_bend_c, 2, 7638
4, 2854, Pitch_bend_c, 2, 7819
4, 2855, Pitch_bend_c, 2, 8009
4, 2856, Pitch_bend_c, 2, 8205
4, 2857, Pitch_bend_c, 2, 8399
4, 2858, Pitch_bend_c, 2, 8589
4, 2859, Pitch_bend_c, 2, 8768
4, 2860, Pitch_bend_c, 2, 8933
4, 2861, Pitch_bend_c, 2, 9080
4, 2862, Pitch_bend_c, 2, 9203
4, 2863, Pitch_bend_c, 2, 9301
4, 2864, Pitch_bend_c, 2, 9371
4, 2865, Pitch_bend_c, 2, 9411
4, 2866, Pitch_bend_c, 2, 9420
4, 2867, Pitch_bend_c, 2, 9398
4, 2868, Pitch_bend_c, 2, 9345
4, 2869, Pitch_bend_c, 2, 9264
4, 2870, Pitch_bend_c, 2, 9155
4, 2871, Pitch_bend_c, 2, 9021
4, 2872, Pitch_bend_c, 2, 8867
4, 2873, Pitch_bend_c, 2, 8695
4, 2874, Pitch_bend_c, 2, 8511
4, 2875, Pitch_bend_c, 2, 8319
4, 2876, Pitch_bend_c, 2, 8123
4, 2877, Pitch_bend_c, 2, 7929
4, 2878, Pitch_bend_c, 2, 7742
4, 2879, Pitch_bend_c, 2, 7566
4, 2880, Pitch_bend_c, 2, 7406
4, 2881, Pitch_bend_c, 2, 7266
4, 2882, Pitch_bend_c, 2, 7150
4, 2883, Pitch_bend_c, 2, 7060
4, 2884, Pitch_bend_c, 2, 6998
4, 2885, Pitch_bend_c, 2, 6967
4, 2887, Pitch_bend_c, 2, 6998
4, 2888, Pitch_bend_c, 2, 7059
4, 2889, Pitch_bend_c, 2, 7149
4, 2890, Pitch_bend_c, 2, 7265
4, 2891, Pitch_bend_c, 2, 7405
4, 2892, Pitch_bend_c, 2, 7565
4, 2893, Pitch_bend_c, 2, 7741
4, 2894, Pitch_bend_c, 2, 7928
4, 2895, Pitch_bend_c, 2, 8122
4, 2896, Pitch_bend_c, 2, 8317
4, 2897, Pitch_bend_c, 2, 8510
4, 2898, Pitch_bend_c, 2, 8694
4, 2899, Pitch_bend_c, 2, 8866
4, 2900, Pitch_bend_c, 2, 9020
4, 2901, Pitch_bend_c, 2, 9154
4, 2902, Pitch_bend_c, 2, 9263
4, 2903, Pitch_bend_c, 2, 9345
4, 2904, Pitch_bend_c, 2, 9398
4, 2905, Pitch_bend_c, 2, 9420
4, 2906, Pitch_bend_c, 2, 9411
4, 2907, Pitch_bend_c, 2, 9371
4, 2908, Pitch_bend_c, 2, 9302
4, 2909, Pitch_bend_c, 2, 9204
4, 2910, Pitch_bend_c, 2, 9081
4, 2911, Pitch_bend_c, 2, 8935
4, 2912, Pitch_bend_c, 2, 8770
4, 2913, Pitch_bend_c, 2, 8590
4, 2914, Pitch_bend_c, 2, 8401
4, 2915, Pitch_bend_c, 2, 8206
4, 2916, Pitch_bend_c, 2, 8011
4, 2917, Pitch_bend_c, 2, 7820
4, 2918, Pitch_bend_c, 2, 7639
4, 2919, Pitch_bend_c, 2, 7472
4, 2920, Pitch_bend_c, 2, 7323
4, 2921, Pitch_bend_c, 2, 7196
4, 2922, Pitch_bend_c, 2, 7095
4, 2923, Pitch_bend_c, 2, 7021
4, 2924, Pitch_bend_c, 2, 6977
4, 2925, Pitch_bend_c, 2, 6963
4, 2926, Pitch_bend_c, 2, 6981
4, 2927, Pitch_bend_c, 2, 7030
4, 2928, Pitch_bend_c, 2, 7108
4, 2929, Pitch_bend_c, 2, 7213
4, 2930, Pitch_bend_c, 2, 7343
4, 2931, Pitch_bend_c, 2, 7495
4, 2932, Pitch_bend_c, 2, 7664
4, 2933, Pitch_bend_c, 2, 7847
4, 2934, Pitch_bend_c, 2, 8039
4, 2935, Pitch_bend_c, 2, 8234
4, 2936, Pitch_bend_c, 2, 8429
4, 2937, Pitch_bend_c, 2, 8617
4, 2938, Pitch_bend_c, 2, 8795
4, 2939, Pitch_bend_c, 2, 8957
4, 2940, Pitch_bend_c, 2, 9100
4, 2941, Pitch_bend_c, 2, 9220
4, 2942, Pitch_bend_c, 2, 9314
4, 2943, Pitch_bend_c, 2, 9379
4, 2944, Pitch_bend_c, 2, 9414
4, 2945, Pitch_bend_c, 2, 9419
4, 2946, Pitch_bend_c, 2, 9392
4, 2947, Pitch_bend_c, 2, 9335
4, 2948, Pitch_bend_c, 2, 9249
4, 2949, Pitch_bend_c, 2, 9136
4, 2950, Pitch_bend_c, 2, 8999
4, 2951, Pitch_bend_c, 2, 8842
4, 2952, Pitch_bend_c, 2, 8668
4, 2953, Pitch_bend_c, 2, 8482
4, 2954, Pitch_bend_c, 2, 8289
4, 2955, Pitch_bend_c, 2, 8093
4, 2956, Pitch_bend_c, 2, 7900
4, 2957, Pitch_bend_c, 2, 7715
4, 2958, Pitch_bend_c, 2, 7541
4, 2959, Pitch_bend_c, 2, 7384
4, 2960, Pitch_bend_c, 2, 7247
4, 2961, Pitch_bend_c, 2, 7134
4, 2962, Pitch_bend_c, 2, 7049
4, 2963, Pitch_bend_c, 2, 6992
4, 2964, Pitch_bend_c, 2, 6965
4, 2965, Pitch_bend_c, 2, 6970
4, 2966, Pitch_bend_c, 2, 7005
4, 2967, Pitch_bend_c, 2, 7071
4, 2968, Pitch_bend_c, 2, 7165
4, 2969, Pitch_bend_c, 2, 7285
4, 2970, Pitch_bend_c, 2, 7428
4, 2971, Pitch_bend_c, 2, 7591
4, 2972, Pitch_bend_c, 2, 7768
4, 2973, Pitch_bend_c, 2, 7957
4, 2974, Pitch_bend_c, 2, 8151
4, 2975, Pitch_bend_c, 2, 8347
4, 2976, Pitch_bend_c, 2, 8538
4, 2977, Pitch_bend_c, 2, 8721
4, 2978, Pitch_bend_c, 2, 8890
4, 2979, Pitch_bend_c, 2, 9042
4, 2980, Pitch_bend_c, 2, 9172
4, 2981, Pitch_bend_c, 2, 9277
4, 2982, Pitch_bend_c, 2, 9355
4, 2983, Pitch_bend_c, 2, 9403
4, 2984, Pitch_bend_c, 2, 9421
4, 2985, Pitch_bend_c, 2, 9407
4, 2986, Pitch_bend_c, 2, 9363
4, 2987, Pitch_bend_c, 2, 9289
4, 2988, Pitch_bend_c, 2, 9187
4, 2989, Pitch_bend_c, 2, 9060
4, 2990, Pitch_bend_c, 2, 8911
4, 2991, Pitch_bend_c, 2, 8743
4, 2992, Pitch_bend_c, 2, 8562
4, 2993, Pitch_bend_c, 2, 8372
4, 2994, Pitch_bend_c, 2, 8176
4, 2995, Pitch_bend_c, 2, 7982
4, 2996, Pitch_bend_c, 2, 7792
4, 2997, Pitch_bend_c, 2, 7613
4, 2998, Pitch_bend_c, 2, 7448
4, 2999, Pitch_bend_c, 2, 7302
4, 3000, Pitch_bend_c, 2, 7179
4, 3001, Pitch_bend_c, 2, 7082
4, 3002, Pitch_bend_c, 2, 7012
4, 3003, Pitch_bend_c, 2, 6973
4, 3004, Pitch_bend_c, 2, 6964
4, 3005, Pitch_bend_c, 2, 6987
4, 3006, Pitch_bend_c, 2, 7040
4, 3007, Pitch_bend_c, 2, 7122
4, 3008, Pitch_bend_c, 2, 7231
4, 3009, Pitch_bend_c, 2, 7365
4, 3010, Pitch_bend_c, 2, 7520
4, 3011, Pitch_bend_c, 2, 7692
4, 3012, Pitch_bend_c, 2, 7876
4, 3013, Pitch_bend_c, 2, 8068
4, 3014, Pitch_bend_c, 2, 8264
4, 3015, Pitch_bend_c, 2, 8458
4, 3016, Pitch_bend_c, 2, 8645
4, 3017, Pitch_bend_c, 2, 8820
4, 3018, Pitch_bend_c, 2, 8980
4, 3019, Pitch_bend_c, 2, 9120
4, 3020, Pitch_bend_c, 2, 9236
4, 3021, Pitch_bend_c, 2, 9325
4, 3022, Pitch_bend_c, 2, 9386
4, 3023, Pitch_bend_c, 2, 9417
4, 3024, Note_off_c, 2, 78, 64
4, 3024, Pitch_bend_c, 2, 8192
4, 3024, Note_on_c, 2, 90, 64
4, 3072, Note_off_c, 2, 90, 64
4, 3072, Instrument_name_t, "wave: pulse narrow, volume: loudest, envelope: sudden, filter: sustain sharp, chorus: union, effect: vibrato delayed"
4, 3072, Program_c, 2, 68
4, 3072, Control_c, 2, 7, 127
4, 3072, Note_on_c, 2, 90, 64
4, 3144, Pitch_bend_c, 2, 7102
4, 3145, Pitch_bend_c, 2, 7205
4, 3146, Pitch_bend_c, 2, 7334
4, 3147, Pitch_bend_c, 2, 7485
4, 3148, Pitch_bend_c, 2, 7653
4, 3149, Pitch_bend_c, 2, 7835
4, 3150, Pitch_bend_c, 2, 8026
4, 3151, Pitch_bend_c, 2, 8222
4, 3152, Pitch_bend_c, 2, 8416
4, 3153, Pitch_bend_c, 2, 8605
4, 3154, Pitch_bend_c, 2, 8784
4, 3155, Pitch_bend_c, 2, 8947
4, 3156, Pitch_bend_c, 2, 9091
4, 3157, Pitch_bend_c, 2, 9213
4, 3158, Pitch_bend_c, 2, 9308
4, 3159, Pitch_bend_c, 2, 9376
4, 3160, Pitch_bend_c, 2, 9413
4, 3161, Pitch_bend_c, 2, 9419
4, 3162, Pitch_bend_c, 2, 9395
4, 3163, Pitch_bend_c, 2, 9339
4, 3164, Pitch_bend_c, 2, 9255
4, 3165, Pitch_bend_c, 2, 9144
4, 3166, Pitch_bend_c, 2, 9008
4, 3167, Pitch_bend_c, 2, 8852
4, 3168, Pitch_bend_c, 2, 8680
4, 3169, Pitch_bend_c, 2, 8494
4, 3170, Pitch_bend_c, 2, 8302
4, 3171, Pitch_bend_c, 2, 8106
4, 3172, Pitch_bend_c, 2, 7912
4, 3173, Pitch_bend_c, 2, 7726
4, 3174, Pitch_bend_c, 2, 7552
4, 3175, Pitch_bend_c, 2, 7393
4, 3176, Pitch_bend_c, 2, 7255
4, 3177, Pitch_bend_c, 2, 7141
4, 3178, Pitch_bend_c, 2, 7053
4, 3179, Pitch_bend_c, 2, 6994
4, 3180, Pitch_bend_c, 2, 6966
4, 3181, Pitch_bend_c, 2, 6969
4, 3182, Pitch_bend_c, 2, 7002
4, 3183, Pitch_bend_c, 2, 7066
4, 3184, Pitch_bend_c, 2, 7158
4, 3185, Pitch_bend_c, 2, 7277
4, 3186, Pitch_bend_c, 2, 7419
4, 3187, Pitch_bend_c, 2, 7580
4, 3188, Pitch_bend_c, 2, 7757
4, 3189, Pitch_bend_c, 2, 7945
4, 3190, Pitch_bend_c, 2, 8139
4, 3191, Pitch_bend_c, 2, 8334
4, 3192, Pitch_bend_c, 2, 8526
4, 3193, Pitch_bend_c, 2, 8710
4, 3194, Pitch_bend_c, 2, 8880
4, 3195, Pitch_bend_c, 2, 9033
4, 3196, Pitch_bend_c, 2, 9164
4, 3197, Pitch_bend_c, 2, 9271
4, 3198, Pitch_bend_c, 2, 9351
4, 3199, Pitch_bend_c, 2, 9401
4, 3200, Pitch_bend_c, 2, 9421
4, 3201, Pitch_bend_c, 2, 9409
4, 3202, Pitch_bend_c, 2, 9367
4, 3203, Pitch_bend_c, 2, 9294
4, 3204, Pitch_bend_c, 2, 9194
4, 3205, Pitch_bend_c, 2, 9069
4, 3206, Pitch_bend_c, 2, 8921
4, 3207, Pitch_bend_c, 2, 8755
4, 3208, Pitch_bend_c, 2, 8574
4, 3209, Pitch_bend_c, 2, 8384
4, 3210, Pitch_bend_c, 2, 8189
4, 3211, Pitch_bend_c, 2, 7994
4, 3212, Pitch_bend_c, 2, 7804
4, 3213, Pitch_bend_c, 2, 7624
4, 3214, Pitch_bend_c, 2, 7458
4, 3215, Pitch_bend_c, 2, 7311
4, 3216, Pitch_bend_c, 2, 7186
4, 3217, Pitch_bend_c, 2, 7087
4, 3218, Pitch_bend_c, 2, 7016
4, 3219, Pitch_bend_c, 2, 6974
4, 3220, Pitch_bend_c, 2, 6964
4, 3221, Pitch_bend_c, 2, 6984
4, 3222, Pitch_bend_c, 2, 7035
4, 3223, Pitch_bend_c, 2, 7116
4, 3224, Pitch_bend_c, 2, 7224
4, 3225, Pitch_bend_c, 2, 7356
4, 3226, Pitch_bend_c, 2, 7509
4, 3227, Pitch_bend_c, 2, 7680
4, 3228, Pitch_bend_c, 2, 7864
4, 3229, Pitch_bend_c, 2, 8056
4, 3230, Pitch_bend_c, 2, 8252
4, 3231, Pitch_bend_c, 2, 8446
4, 3232, Pitch_bend_c, 2, 8633
4, 3233, Pitch_bend_c, 2, 8810
4, 3234, Pitch_bend_c, 2, 8970
4, 3235, Pitch_bend_c, 2, 9111
4, 3236, Pitch_bend_c, 2, 9229
4, 3237, Pitch_bend_c, 2, 9321
4, 3238, Pitch_bend_c, 2, 9383
4, 3239, Pitch_bend_c, 2, 9416
4, 3240, Pitch_bend_c, 2, 9418
4, 3241, Pitch_bend_c, 2, 9388
4, 3242, Pitch_bend_c, 2, 9328
4, 3243, Pitch_bend_c, 2, 9240
4, 3244, Pitch_bend_c, 2, 9125
4, 3245, Pitch_bend_c, 2, 8986
4, 3246, Pitch_bend_c, 2, 8827
4, 3247, Pitch_bend_c, 2, 8652
4, 3248, Pitch_bend_c, 2, 8465
4, 3249, Pitch_bend_c, 2, 8272
4, 3250, Pitch_bend_c, 2, 8076
4, 3251, Pitch_bend_c, 2, 7884
4, 3252, Pitch_bend_c, 2, 7699
4, 3253, Pitch_bend_c, 2, 7526
4, 3254, Pitch_bend_c, 2, 7371
4, 3255, Pitch_bend_c, 2, 7236
4, 3256, Pitch_bend_c, 2, 7126
4, 3257, Pitch_bend_c, 2, 7042
4, 3258, Pitch_bend_c, 2, 6988
4, 3259, Pitch_bend_c, 2, 6964
4, 3260, Pitch_bend_c, 2, 6972
4, 3261, Pitch_bend_c, 2, 7010
4, 3262, Pitch_bend_c, 2, 7078
4, 3263, Pitch_bend_c, 2, 7175
4, 3264, Pitch_bend_c, 2, 7297
4, 3265, Pitch_bend_c, 2, 7442
4, 3266, Pitch_bend_c, 2, 7606
4, 3267, Pitch_bend_c, 2, 7785
4, 3268, Pitch_bend_c, 2, 7974
4, 3269, Pitch_bend_c, 2, 8169
4, 3270, Pitch_bend_c, 2, 8364
4, 3271, Pitch_bend_c, 2, 8555
4, 3272, Pitch_bend_c, 2, 8736
4, 3273, Pitch_bend_c, 2, 8904
4, 3274, Pitch_bend_c, 2, 9054
4, 3275, Pitch_bend_c, 2, 9182
4, 3276, Pitch_bend_c, 2, 9285
4, 3277, Pitch_bend_c, 2, 9360
4, 3278, Pitch_bend_c, 2, 9406
4, 3279, Pitch_bend_c, 2, 9421
4, 3280, Pitch_bend_c, 2, 9404
4, 3281, Pitch_bend_c, 2, 9357
4, 3282, Pitch_bend_c, 2, 9281
4, 3283, Pitch_bend_c, 2, 9177
4, 3284, Pitch_bend_c, 2, 9047
4, 3285, Pitch_bend_c, 2, 8897
4, 3286, Pitch_bend_c, 2, 8728
4, 3287, Pitch_bend_c, 2, 8546
4, 3288, Pitch_bend_c, 2, 8354
4, 3289, Pitch_bend_c, 2, 8159
4, 3290, Pitch_bend_c, 2, 7965
4, 3291, Pitch_bend_c, 2, 7776
4, 3292, Pitch_bend_c, 2, 7598
4, 3293, Pitch_bend_c, 2, 7434
4, 3294, Pitch_bend_c, 2, 7291
4, 3295, Pitch_bend_c, 2, 7169
4, 3296, Pitch_bend_c, 2, 7074
4, 3297, Pitch_bend_c, 2, 7007
4, 3298, Pitch_bend_c, 2, 6971
4, 3299, Pitch_bend_c, 2, 6965
4, 3300, Pitch_bend_c, 2, 6990
4, 3301, Pitch_bend_c, 2, 7046
4, 3302, Pitch_bend_c, 2, 7130
4, 3303, Pitch_bend_c, 2, 7242
4, 3304, Pitch_bend_c, 2, 7378
4, 3305, Pitch_bend_c, 2, 7534
4, 3306, Pitch_bend_c, 2, 7707
4, 3307, Pitch_bend_c, 2, 7893
4, 3308, Pitch_bend_c, 2, 8086
4, 3309, Pitch_bend_c, 2, 8281
4, 3310, Pitch_bend_c, 2, 8475
4, 3311, Pitch_bend_c, 2, 8661
4, 3312, Pitch_bend_c, 2, 8835
4, 3313, Pitch_bend_c, 2, 8993
4, 3314, Pitch_bend_c, 2, 9131
4, 3315, Pitch_bend_c, 2, 9245
4, 3316, Pitch_bend_c, 2, 9332
4, 3317, Pitch_bend_c, 2, 9390
4, 3318, Pitch_bend_c, 2, 9418
4, 3319, Pitch_bend_c, 2, 9415
4, 3320, Pitch_bend_c, 2, 9381
4, 3321, Pitch_bend_c, 2, 9317
4, 3322, Pitch_bend_c, 2, 9224
4, 3323, Pitch_bend_c, 2, 9105
4, 3324, Pitch_bend_c, 2, 8963
4, 3325, Pitch_bend_c, 2, 8801
4, 3326, Pitch_bend_c, 2, 8624
4, 3327, Pitch_bend_c, 2, 8436
4, 3328, Pitch_bend_c, 2, 8242
4, 3329, Pitch_bend_c, 2, 8047
4, 3330, Pitch_bend_c, 2, 7855
4, 3331, Pitch_bend_c, 2, 7672
4, 3332, Pitch_bend_c, 2, 7502
4, 3333, Pitch_bend_c, 2, 7349
4, 3334, Pitch_bend_c, 2, 7218
4, 3335, Pitch_bend_c, 2, 7111
4, 3336, Pitch_bend_c, 2, 7032
4, 3337, Pitch_bend_c, 2, 6982
4, 3338, Pitch_bend_c, 2, 6963
4, 3339, Pitch_bend_c, 2, 6975
4, 3340, Pitch_bend_c, 2, 7018
4, 3341, Pitch_bend_c, 2, 7091
4, 3342, Pitch_bend_c, 2, 7192
4, 3343, Pitch_bend_c, 2, 7318
4, 3344, Pitch_bend_c, 2, 7466
4, 3345, Pitch_bend_c, 2, 7632
4, 3346, Pitch_bend_c, 2, 7813
4, 3347, Pitch_bend_c, 2, 8003
4, 3348, Pitch_bend_c, 2, 8198
4, 3349, Pitch_bend_c, 2, 8393
4, 3350, Pitch_bend_c, 2, 8583
4, 3351, Pitch_bend_c, 2, 8763
4, 3352, Pitch_bend_c, 2, 8928
4, 3353, Pitch_bend_c, 2, 9075
4, 3354, Pitch_bend_c, 2, 9200
4, 3355, Pitch_bend_c, 2, 9298
4, 3356, Pitch_bend_c, 2, 9369
4, 3357, Pitch_bend_c, 2, 9410
4, 3358, Pitch_bend_c, 2, 9420
4, 3359, Pitch_bend_c, 2, 9399
4, 3360, Pitch_bend_c, 2, 9348
4, 3361, Pitch_bend_c, 2, 9267
4, 3362, Pitch_bend_c, 2, 9159
4, 3363, Pitch_bend_c, 2, 9026
4, 3364, Pitch_bend_c, 2, 8872
4, 3365, Pitch_bend_c, 2, 8701
4, 3366, Pitch_bend_c, 2, 8517
4, 3367, Pitch_bend_c, 2, 8325
4, 3368, Pitch_bend_c, 2, 8129
4, 3369, Pitch_bend_c, 2, 7935
4, 3370, Pitch_bend_c, 2, 7748
4, 3371, Pitch_bend_c, 2, 7572
4, 3372, Pitch_bend_c, 2, 7411
4, 3373, Pitch_bend_c, 2, 7271
4, 3374, Pitch_bend_c, 2, 7153
4, 3375, Pitch_bend_c, 2, 7062
4, 3376, Pitch_bend_c, 2, 7000
4, 3377, Pitch_bend_c, 2, 6968
4, 3378, Pitch_bend_c, 2, 6967
4, 3379, Pitch_bend_c, 2, 6996
4, 3380, Pitch_bend_c, 2, 7057
4, 3381, Pitch_bend_c, 2, 7146
4, 3382, Pitch_bend_c, 2, 7261
4, 3383, Pitch_bend_c, 2, 7400
4, 3384, Pitch_bend_c, 2, 7560
4, 3385, Pitch_bend_c, 2, 7735
4, 3386, Pitch_bend_c, 2, 7922
4, 3387, Pitch_bend_c, 2, 8115
4, 3388, Pitch_bend_c, 2, 8311
4, 3389, Pitch_bend_c, 2, 8503
4, 3390, Pitch_bend_c, 2, 8688
4, 3391, Pitch_bend_c, 2, 8860
4, 3392, Pitch_bend_c, 2, 9015
4, 3393, Pitch_bend_c, 2, 9150
4, 3394, Pitch_bend_c, 2, 9260
4, 3395, Pitch_bend_c, 2, 9343
4, 3396, Pitch_bend_c, 2, 9397
4, 3397, Pitch_bend_c, 2, 9420
4, 3398, Pitch_bend_c, 2, 9412
4, 3399, Pitch_bend_c, 2, 9373
4, 3400, Pitch_bend_c, 2, 9304
4, 3401, Pitch_bend_c, 2, 9208
4, 3402, Pitch_bend_c, 2, 9085
4, 3403, Pitch_bend_c, 2, 8940
4, 3404, Pitch_bend_c, 2, 8775
4, 3405, Pitch_bend_c, 2, 8596
4, 3406, Pitch_bend_c, 2, 8407
4, 3407, Pitch_bend_c, 2, 8212
4, 3408, Pitch_bend_c, 2, 8017
4, 3409, Pitch_bend_c, 2, 7826
4, 3410, Pitch_bend_c, 2, 7645
4, 3411, Pitch_bend_c, 2, 7477
4, 3412, Pitch_bend_c, 2, 7328
4, 3413, Pitch_bend_c, 2, 7200
4, 3414, Pitch_bend_c, 2, 7097
4, 3415, Pitch_bend_c, 2, 7023
4, 3416, Pitch_bend_c, 2, 6978
4, 3417, Pitch_bend_c, 2, 6963
4, 3418, Pitch_bend_c, 2, 6980
4, 3419, Pitch_bend_c, 2, 7028
4, 3420, Pitch_bend_c, 2, 7105
4, 3421, Pitch_bend_c, 2, 7209
4, 3422, Pitch_bend_c, 2, 7339
4, 3423, Pitch_bend_c, 2, 7490
4, 3424, Pitch_bend_c, 2, 7659
4, 3425, Pitch_bend_c, 2, 7841
4, 3426, Pitch_bend_c, 2, 8033
4, 3427, Pitch_bend_c, 2, 8228
4, 3428, Pitch_bend_c, 2, 8423
4, 3429, Pitch_bend_c, 2, 8611
4, 3430, Pitch_bend_c, 2, 8789
4, 3431, Pitch_bend_c, 2, 8952
4, 3432, Pitch_bend_c, 2, 9096
4, 3433, Pitch_bend_c, 2, 9216
4, 3434, Pitch_bend_c, 2, 9311
4, 3435, Pitch_bend_c, 2, 9377
4, 3436, Pitch_bend_c, 2, 9414
4, 3437, Pitch_bend_c, 2, 9419
4, 3438, Pitch_bend_c, 2, 9393
4, 3439, Pitch_bend_c, 2, 9337
4, 3440, Pitch_bend_c, 2, 9252
4, 3441, Pitch_bend_c, 2, 9140
4, 3442, Pitch_bend_c, 2, 9004
4, 3443, Pitch_bend_c, 2, 8847
4, 3444, Pitch_bend_c, 2, 8674
4, 3445, Pitch_bend_c, 2, 8488
4, 3446, Pitch_bend_c, 2, 8295
4, 3447, Pitch_bend_c, 2, 8100
4, 3448, Pitch_bend_c, 2, 7906
4, 3449, Pitch_bend_c, 2, 7720
4, 3450, Pitch_bend_c, 2, 7546
4, 3451, Pitch_bend_c, 2, 7388
4, 3452, Pitch_bend_c, 2, 7251
4, 3453, Pitch_bend_c, 2, 7138
4, 3454, Pitch_bend_c, 2, 7051
4, 3455, Pitch_bend_c, 2, 6993
4, 3456, Pitch_bend_c, 2, 6966
4, 3457, Pitch_bend_c, 2, 6969
4, 3458, Pitch_bend_c, 2, 7004
4, 3459, Pitch_bend_c, 2, 7068
4, 3460, Pitch_bend_c, 2, 7162
4, 3461, Pitch_bend_c, 2, 7281
4, 3462, Pitch_bend_c, 2, 7423
4, 3463, Pitch_bend_c, 2, 7585
4, 3464, Pitch_bend_c, 2, 7763
4, 3465, Pitch_bend_c, 2, 7951
4, 3466, Pitch_bend_c, 2, 8145
4, 3467, Pitch_bend_c, 2, 8340
4, 3468, Pitch_bend_c, 2, 8532
4, 3469, Pitch_bend_c, 2, 8715
4, 3470, Pitch_bend_c, 2, 8885
4, 3471, Pitch_bend_c, 2, 9037
4, 3472, Pitch_bend_c, 2, 9168
4, 3473, Pitch_bend_c, 2, 9274
4, 3474, Pitch_bend_c, 2, 9353
4, 3475, Pitch_bend_c, 2, 9402
4, 3476, Pitch_bend_c, 2, 9421
4, 3477, Pitch_bend_c, 2, 9408
4, 3478, Pitch_bend_c, 2, 9365
4, 3479, Pitch_bend_c, 2, 9292
4, 3480, Pitch_bend_c, 2, 9191
4, 3481, Pitch_bend_c, 2, 9064
4, 3482, Pitch_bend_c, 2, 8916
4, 3483, Pitch_bend_c, 2, 8749
4, 3484, Pitch_bend_c, 2, 8568
4, 3485, Pitch_bend_c, 2, 8378
4, 3486, Pitch_bend_c, 2, 8183
4, 3487, Pitch_bend_c, 2, 7988
4, 3488, Pitch_bend_c, 2, 7798
4, 3489, Pitch_bend_c, 2, 7618
4, 3490, Pitch_bend_c, 2, 7453
4, 3491, Pitch_bend_c, 2, 7307
4, 3492, Pitch_bend_c, 2, 7183
4, 3493, Pitch_bend_c, 2, 7084
4, 3494, Pitch_bend_c, 2, 7014
4, 3495, Pitch_bend_c, 2, 6973
4, 3496, Pitch_bend_c, 2, 6964
4, 3497, Pitch_bend_c, 2, 6985
4, 3498, Pitch_bend_c, 2, 7037
4, 3499, Pitch_bend_c, 2, 7119
4, 3500, Pitch_bend_c, 2, 7227
4, 3501, Pitch_bend_c, 2, 7360
4, 3502, Pitch_bend_c, 2, 7515
4, 3503, Pitch_bend_c, 2, 7686
4, 3504, Pitch_bend_c, 2, 7870
4, 3505, Pitch_bend_c, 2, 8062
4, 3506, Pitch_bend_c, 2, 8258
4, 3507, Pitch_bend_c, 2, 8452
4, 3508, Pitch_bend_c, 2, 8639
4, 3509, Pitch_bend_c, 2, 8815
4, 3510, Pitch_bend_c, 2, 8975
4, 3511, Pitch_bend_c, 2, 9116
4, 3512, Pitch_bend_c, 2, 9232
4, 3513, Pitch_bend_c, 2, 9323
4, 3514, Pitch_bend_c, 2, 9385
4, 3515, Pitch_bend_c, 2, 9417
4, 3517, Pitch_bend_c, 2, 9387
4, 3518, Pitch_bend_c, 2, 9326
4, 3519, Pitch_bend_c, 2, 9237
4, 3520, Pitch_bend_c, 2, 9121
4, 3521, Pitch_bend_c, 2, 8981
4, 3522, Pitch_bend_c, 2, 8822
4, 3523, Pitch_bend_c, 2, 8646
4, 3524, Pitch_bend_c, 2, 8459
4, 3525, Pitch_bend_c, 2, 8266
4, 3526, Pitch_bend_c, 2, 8070
4, 3527, Pitch_bend_c, 2, 7877
4, 3528, Pitch_bend_c, 2, 7693
4, 3529, Pitch_bend_c, 2, 7521
4, 3530, Pitch_bend_c, 2, 7366
4, 3531, Pitch_bend_c, 2, 7232
4, 3532, Pitch_bend_c, 2, 7123
4, 3533, Pitch_bend_c, 2, 7040
4, 3534, Pitch_bend_c, 2, 6987
4, 3535, Pitch_bend_c, 2, 6964
4, 3536, Pitch_bend_c, 2, 6972
4, 3537, Pitch_bend_c, 2, 7012
4, 3538, Pitch_bend_c, 2, 7081
4, 3539, Pitch_bend_c, 2, 7178
4, 3540, Pitch_bend_c, 2, 7301
4, 3541, Pitch_bend_c, 2, 7447
4, 3542, Pitch_bend_c, 2, 7611
4, 3543, Pitch_bend_c, 2, 7791
4, 3544, Pitch_bend_c, 2, 7980
4, 3545, Pitch_bend_c, 2, 8175
4, 3546, Pitch_bend_c, 2, 8370
4, 3547, Pitch_bend_c, 2, 8561
4, 3548, Pitch_bend_c, 2, 8742
4, 3549, Pitch_bend_c, 2, 8909
4, 3550, Pitch_bend_c, 2, 9059
4, 3551, Pitch_bend_c, 2, 9186
4, 3552, Pitch_bend_c, 2, 9288
4, 3553, Pitch_bend_c, 2, 9362
4, 3554, Pitch_bend_c, 2, 9407
4, 3555, Pitch_bend_c, 2, 9421
4, 3556, Pitch_bend_c, 2, 9403
4, 3557, Pitch_bend_c, 2, 9355
4, 3558, Pitch_bend_c, 2, 9278
4, 3559, Pitch_bend_c, 2, 9173
4, 3560, Pitch_bend_c, 2, 9043
4, 3561, Pitch_bend_c, 2, 8892
4, 3562, Pitch_bend_c, 2, 8722
4, 3563, Pitch_bend_c, 2, 8540
4, 3564, Pitch_bend_c, 2, 8348
4, 3565, Pitch_bend_c, 2, 8153
4, 3566, Pitch_bend_c, 2, 7958
4, 3567, Pitch_bend_c, 2, 7770
4, 3568, Pitch_bend_c, 2, 7592
4, 3569, Pitch_bend_c, 2, 7430
4, 3570, Pitch_bend_c, 2, 7286
4, 3571, Pitch_bend_c, 2, 7166
4, 3572, Pitch_bend_c, 2, 7072
4, 3573, Pitch_bend_c, 2, 7006
4, 3574, Pitch_bend_c, 2, 6970
4, 3575, Pitch_bend_c, 2, 6965
4, 3576, Pitch_bend_c, 2, 6991
4, 3577, Pitch_bend_c, 2, 7048
4, 3578, Pitch_bend_c, 2, 7134
4, 3579, Pitch_bend_c, 2, 7246
4, 3580, Pitch_bend_c, 2, 7383
4, 3581, Pitch_bend_c, 2, 7540
4, 3582, Pitch_bend_c, 2, 7713
4, 3583, Pitch_bend_c, 2, 7899
4, 3584, Pitch_bend_c, 2, 8092
4, 3585, Pitch_bend_c, 2, 8287
4, 3586, Pitch_bend_c, 2, 8481
4, 3587, Pitch_bend_c, 2, 8667
4, 3588, Pitch_bend_c, 2, 8840
4, 3589, Pitch_bend_c, 2, 8998
4, 3590, Pitch_bend_c, 2, 9135
4, 3591, Pitch_bend_c, 2, 9248
4, 3592, Pitch_bend_c, 2, 9334
4, 3593, Pitch_bend_c, 2, 9392
4, 3594, Pitch_bend_c, 2, 9419
4, 3595, Pitch_bend_c, 2, 9415
4, 3596, Pitch_bend_c, 2, 9379
4, 3597, Pitch_bend_c, 2, 9314
4, 3598, Pitch_bend_c, 2, 9221
4, 3599, Pitch_bend_c, 2, 9101
4, 3600, Pitch_bend_c, 2, 8958
4, 3601, Pitch_bend_c, 2, 8796
4, 3602, Pitch_bend_c, 2, 8618
4, 3603, Pitch_bend_c, 2, 8430
4, 3604, Pitch_bend_c, 2, 8236
4, 3605, Pitch_bend_c, 2, 8040
4, 3606, Pitch_bend_c, 2, 7849
4, 3607, Pitch_bend_c, 2, 7666
4, 3608, Pitch_bend_c, 2, 7496
4, 3609, Pitch_bend_c, 2, 7344
4, 3610, Pitch_bend_c, 2, 7214
4, 3611, Pitch_bend_c, 2, 7108
4, 3612, Pitch_bend_c, 2, 7030
4, 3613, Pitch_bend_c, 2, 6981
4, 3614, Pitch_bend_c, 2, 6963
4, 3615, Pitch_bend_c, 2, 6976
4, 3616, Pitch_bend_c, 2, 7020
4, 3617, Pitch_bend_c, 2, 7094
4, 3618, Pitch_bend_c, 2, 7195
4, 3619, Pitch_bend_c, 2, 7322
4, 3620, Pitch_bend_c, 2, 7471
4, 3621, Pitch_bend_c, 2, 7638
4, 3622, Pitch_bend_c, 2, 7819
4, 3623, Pitch_bend_c, 2, 8009
4, 3624, Pitch_bend_c, 2, 8205
4, 3625, Pitch_bend_c, 2, 8399
4, 3626, Pitch_bend_c, 2, 8589
4, 3627, Pitch_bend_c, 2, 8768
4, 3628, Pitch_bend_c, 2, 8933
4, 3629, Pitch_bend_c, 2, 9080
4, 3630, Pitch_bend_c, 2, 9203
4, 3631, Pitch_bend_c, 2, 9301
4, 3632, Pitch_bend_c, 2, 9371
4, 3633, Pitch_bend_c, 2, 9411
4, 3634, Pitch_bend_c, 2, 9420
4, 3635, Pitch_bend_c, 2, 9398
4, 3636, Pitch_bend_c, 2, 9345
4, 3637, Pitch_bend_c, 2, 9264
4, 3638, Pitch_bend_c, 2, 9155
4, 3639, Pitch_bend_c, 2, 9021
4, 3640, Pitch_bend_c, 2, 8867
4, 3641, Pitch_bend_c, 2, 8695
4, 3642, Pitch_bend_c, 2, 8511
4, 3643, Pitch_bend_c, 2, 8319
4, 3644, Pitch_bend_c, 2, 8123
4, 3645, Pitch_bend_c, 2, 7929
4, 3646, Pitch_bend_c, 2, 7742
4, 3647, Pitch_bend_c, 2, 7566
4, 3648, Pitch_bend_c, 2, 7406
4, 3649, Pitch_bend_c, 2, 7266
4, 3650, Pitch_bend_c, 2, 7150
4, 3651, Pitch_bend_c, 2, 7060
4, 3652, Pitch_bend_c, 2, 6998
4, 3653, Pitch_bend_c, 2, 6967
4, 3655, Pitch_bend_c, 2, 6998
4, 3656, Pitch_bend_c, 2, 7059
4, 3657, Pitch_bend_c, 2, 7149
4, 3658, Pitch_bend_c, 2, 7265
4, 3659, Pitch_bend_c, 2, 7405
4, 3660, Pitch_bend_c, 2, 7565
4, 3661, Pitch_bend_c, 2, 7741
4, 3662, Pitch_bend_c, 2, 7928
4, 3663, Pitch_bend_c, 2, 8122
4, 3664, Pitch_bend_c, 2, 8317
4, 3665, Pitch_bend_c, 2, 8510
4, 3666, Pitch_bend_c, 2, 8694
4, 3667, Pitch_bend_c, 2, 8866
4, 3668, Pitch_bend_c, 2, 9020
4, 3669, Pitch_bend_c, 2, 9154
4, 3670, Pitch_bend_c, 2, 9263
4, 3671, Pitch_bend_c, 2, 9345
4, 3672, Pitch_bend_c, 2, 9398
4, 3673, Pitch_bend_c, 2, 9420
4, 3674, Pitch_bend_c, 2, 9411
4, 3675, Pitch_bend_c, 2, 9371
4, 3676, Pitch_bend_c, 2, 9302
4, 3677, Pitch_bend_c, 2, 9204
4, 3678, Pitch_bend_c, 2, 9081
4, 3679, Pitch_bend_c, 2, 8935
4, 3680, Pitch_bend_c, 2, 8770
4, 3681, Pitch_bend_c, 2, 8590
4, 3682, Pitch_bend_c, 2, 8401
4, 3683, Pitch_bend_c, 2, 8206
4, 3684, Pitch_bend_c, 2, 8011
4, 3685, Pitch_bend_c, 2, 7820
4, 3686, Pitch_bend_c, 2, 7639
4, 3687, Pitch_bend_c, 2, 7472
4, 3688, Pitch_bend_c, 2, 7323
4, 3689, Pitch_bend_c, 2, 7196
4, 3690, Pitch_bend_c, 2, 7095
4, 3691, Pitch_bend_c, 2, 7021
4, 3692, Pitch_bend_c, 2, 6977
4, 3693, Pitch_bend_c, 2, 6963
4, 3694, Pitch_bend_c, 2, 6981
4, 3695, Pitch_bend_c, 2, 7030
4, 3696, Note_off_c, 2, 90, 64
4, 3696, Pitch_bend_c, 2, 8192
4, 3696, Note_on_c, 2, 92, 64
4, 3768, Pitch_bend_c, 2, 7179
4, 3769, Pitch_bend_c, 2, 7082
4, 3770, Pitch_bend_c, 2, 7012
4, 3771, Pitch_bend_c, 2, 6973
4, 3772, Pitch_bend_c, 2, 6964
4, 3773, Pitch_bend_c, 2, 6987
4, 3774, Pitch_bend_c, 2, 7040
4, 3775, Pitch_bend_c, 2, 7122
4, 3776, Pitch_bend_c, 2, 7231
4, 3777, Pitch_bend_c, 2, 7365
4, 3778, Pitch_bend_c, 2, 7520
4, 3779, Pitch_bend_c, 2, 7692
4, 3780, Pitch_bend_c, 2, 7876
4, 3781, Pitch_bend_c, 2, 8068
4, 3782, Pitch_bend_c, 2, 8264
4, 3783, Pitch_bend_c, 2, 8458
4, 3784, Pitch_bend_c, 2, 8645
4, 3785, Pitch_bend_c, 2, 8820
4, 3786, Pitch_bend_c, 2, 8980
4, 3787, Pitch_bend_c, 2, 9120
4, 3788, Pitch_bend_c, 2, 9236
4, 3789, Pitch_bend_c, 2, 9325
4, 3790, Pitch_bend_c, 2, 9386
4, 3791, Pitch_bend_c, 2, 9417
4, 3792, Note_off_c, 2, 92, 64
4, 3792, Pitch_bend_c, 2, 8192
4, 3792, Note_on_c, 2, 90, 64
4, 3840, Note_off_c, 2, 90, 64
4, 3840, Note_on_c, 2, 97, 64
4, 3912, Pitch_bend_c, 2, 7102
4, 3913, Pitch_bend_c, 2, 7205
4, 3914, Pitch_bend_c, 2, 7334
4, 3915, Pitch_bend_c, 2, 7485
4, 3916, Pitch_bend_c, 2, 7653
4, 3917, Pitch_bend_c, 2, 7835
4, 3918, Pitch_bend_c, 2, 8026
4, 3919, Pitch_bend_c, 2, 8222
4, 3920, Pitch_bend_c, 2, 8416
4, 3921, Pitch_bend_c, 2, 8605
4, 3922, Pitch_bend_c, 2, 8784
4, 3923, Pitch_bend_c, 2, 8947
4, 3924, Pitch_bend_c, 2, 9091
4, 3925, Pitch_bend_c, 2, 9213
4, 3926, Pitch_bend_c, 2, 9308
4, 3927, Pitch_bend_c, 2, 9376
4, 3928, Pitch_bend_c, 2, 9413
4, 3929, Pitch_bend_c, 2, 9419
4, 3930, Pitch_bend_c, 2, 9395
4, 3931, Pitch_bend_c, 2, 9339
4, 3932, Pitch_bend_c, 2, 9255
4, 3933, Pitch_bend_c, 2, 9144
4, 3934, Pitch_bend_c, 2, 9008
4, 3935, Pitch_bend_c, 2, 8852
4, 3936, Pitch_bend_c, 2, 8680
4, 3937, Pitch_bend_c, 2, 8494
4, 3938, Pitch_bend_c, 2, 8302
4, 3939, Pitch_bend_c, 2, 8106
4, 3940, Pitch_bend_c, 2, 7912
4, 3941, Pitch_bend_c, 2, 7726
4, 3942, Pitch_bend_c, 2, 7552
4, 3943, Pitch_bend_c, 2, 7393
4, 3944, Pitch_bend_c, 2, 7255
4, 3945, Pitch_bend_c, 2, 7141
4, 3946, Pitch_bend_c, 2, 7053
4, 3947, Pitch_bend_c, 2, 6994
4, 3948, Pitch_bend_c, 2, 6966
4, 3949, Pitch_bend_c, 2, 6969
4, 3950, Pitch_bend_c, 2, 7002
4, 3951, Pitch_bend_c, 2, 7066
4, 3952, Pitch_bend_c, 2, 7158
4, 3953, Pitch_bend_c, 2, 7277
4, 3954, Pitch_bend_c, 2, 7419
4, 3955, Pitch_bend_c, 2, 7580
4, 3956, Pitch_bend_c, 2, 7757
4, 3957, Pitch_bend_c, 2, 7945
4, 3958, Pitch_bend_c, 2, 8139
4, 3959, Pitch_bend_c, 2, 8334
4, 3960, Pitch_bend_c, 2, 8526
4, 3961, Pitch_bend_c, 2, 8710
4, 3962, Pitch_bend_c, 2, 8880
4, 3963, Pitch_bend_c, 2, 9033
4, 3964, Pitch_bend_c, 2, 9164
4, 3965, Pitch_bend_c, 2, 9271
4, 3966, Pitch_bend_c, 2, 9351
4, 3967, Pitch_bend_c, 2, 9401
4, 3968, Pitch_bend_c, 2, 9421
4, 3969, Pitch_bend_c, 2, 9409
4, 3970, Pitch_bend_c, 2, 9367
4, 3971, Pitch_bend_c, 2, 9294
4, 3972, Pitch_bend_c, 2, 9194
4, 3973, Pitch_bend_c, 2, 9069
4, 3974, Pitch_bend_c, 2, 8921
4, 3975, Pitch_bend_c, 2, 8755
4, 3976, Pitch_bend_c, 2, 8574
4, 3977, Pitch_bend_c, 2, 8384
4, 3978, Pitch_bend_c, 2, 8189
4, 3979, Pitch_bend_c, 2, 7994
4, 3980, Pitch_bend_c, 2, 7804
4, 3981, Pitch_bend_c, 2, 7624
4, 3982, Pitch_bend_c, 2, 7458
4, 3983, Pitch_bend_c, 2, 7311
4, 3984, Pitch_bend_c, 2, 7186
4, 3985, Pitch_bend_c, 2, 7087
4, 3986, Pitch_bend_c, 2, 7016
4, 3987, Pitch_bend_c, 2, 6974
4, 3988, Pitch_bend_c, 2, 6964
4, 3989, Pitch_bend_c, 2, 6984
4, 3990, Pitch_bend_c, 2, 7035
4, 3991, Pitch_bend_c, 2, 7116
4, 3992, Pitch_bend_c, 2, 7224
4, 3993, Pitch_bend_c, 2, 7356
4, 3994, Pitch_bend_c, 2, 7509
4, 3995, Pitch_bend_c, 2, 7680
4, 3996, Pitch_bend_c, 2, 7864
4, 3997, Pitch_bend_c, 2, 8056
4, 3998, Pitch_bend_c, 2, 8252
4, 3999, Pitch_bend_c, 2, 8446
4, 4000, Pitch_bend_c, 2, 8633
4, 4001, Pitch_bend_c, 2, 8810
4, 4002, Pitch_bend_c, 2, 8970
4, 4003, Pitch_bend_c, 2, 9111
4, 4004, Pitch_bend_c, 2, 9229
4, 4005, Pitch_bend_c, 2, 9321
4, 4006, Pitch_bend_c, 2, 9383
4, 4007, Pitch_bend_c, 2, 9416
4, 4008, Pitch_bend_c, 2, 9418
4, 4009, Pitch_bend_c, 2, 9388
4, 4010, Pitch_bend_c, 2, 9328
4, 4011, Pitch_bend_c, 2, 9240
4, 4012, Pitch_bend_c, 2, 9125
4, 4013, Pitch_bend_c, 2, 8986
4, 4014, Pitch_bend_c, 2, 8827
4, 4015, Pitch_bend_c, 2, 8652
4, 4016, Pitch_bend_c, 2, 8465
4, 4017, Pitch_bend_c, 2, 8272
4, 4018, Pitch_bend_c, 2, 8076
4, 4019, Pitch_bend_c, 2, 7884
4, 4020, Pitch_bend_c, 2, 7699
4, 4021, Pitch_bend_c, 2, 7526
4, 4022, Pitch_bend_c, 2, 7371
4, 4023, Pitch_bend_c, 2, 7236
4, 4024, Pitch_bend_c, 2, 7126
4, 4025, Pitch_bend_c, 2, 7042
4, 4026, Pitch_bend_c, 2, 6988
4, 4027, Pitch_bend_c, 2, 6964
4, 4028, Pitch_bend_c, 2, 6972
4, 4029, Pitch_bend_c, 2, 7010
4, 4030, Pitch_bend_c, 2, 7078
4, 4031, Pitch_bend_c, 2, 7175
4, 4032, Pitch_bend_c, 2, 7297
4, 4033, Pitch_bend_c, 2, 7442
4, 4034, Pitch_bend_c, 2, 7606
4, 4035, Pitch_bend_c, 2, 7785
4, 4036, Pitch_bend_c, 2, 7974
4, 4037, Pitch_bend_c, 2, 8169
4, 4038, Pitch_bend_c, 2, 8364
4, 4039, Pitch_bend_c, 2, 8555
4, 4040, Pitch_bend_c, 2, 8736
4, 4041, Pitch_bend_c, 2, 8904
4, 4042, Pitch_bend_c, 2, 9054
4, 4043, Pitch_bend_c, 2, 9182
4, 4044, Pitch_bend_c, 2, 9285
4, 4045, Pitch_bend_c, 2, 9360
4, 4046, Pitch_bend_c, 2, 9406
4, 4047, Pitch_bend_c, 2, 9421
4, 4048, Pitch_bend_c, 2, 9404
4, 4049, Pitch_bend_c, 2, 9357
4, 4050, Pitch_bend_c, 2, 9281
4, 4051, Pitch_bend_c, 2, 9177
4, 4052, Pitch_bend_c, 2, 9047
4, 4053, Pitch_bend_c, 2, 8897
4, 4054, Pitch_bend_c, 2, 8728
4, 4055, Pitch_bend_c, 2, 8546
4, 4056, Pitch_bend_c, 2, 8354
4, 4057, Pitch_bend_c, 2, 8159
4, 4058, Pitch_bend_c, 2, 7965
4, 4059, Pitch_bend_c, 2, 7776
4, 4060, Pitch_bend_c, 2, 7598
4, 4061, Pitch_bend_c, 2, 7434
4, 4062, Pitch_bend_c, 2, 7291
4, 4063, Pitch_bend_c, 2, 7169
4, 4064, Pitch_bend_c, 2, 7074
4, 4065, Pitch_bend_c, 2, 7007
4, 4066, Pitch_bend_c, 2, 6971
4, 4067, Pitch_bend_c, 2, 6965
4, 4068, Pitch_bend_c, 2, 6990
4, 4069, Pitch_bend_c, 2, 7046
4, 4070, Pitch_bend_c, 2, 7130
4, 4071, Pitch_bend_c, 2, 7242
4, 4072, Pitch_bend_c, 2, 7378
4, 4073, Pitch_bend_c, 2, 7534
4, 4074, Pitch_bend_c, 2, 7707
4, 4075, Pitch_bend_c, 2, 7893
4, 4076, Pitch_bend_c, 2, 8086
4, 4077, Pitch_bend_c, 2, 8281
4, 4078, Pitch_bend_c, 2, 8475
4, 4079, Pitch_bend_c, 2, 8661
4, 4080, Pitch_bend_c, 2, 8835
4, 4081, Pitch_bend_c, 2, 8993
4, 4082, Pitch_bend_c, 2, 9131
4, 4083, Pitch_bend_c, 2, 9245
4, 4084, Pitch_bend_c, 2, 9332
4, 4085, Pitch_bend_c, 2, 9390
4, 4086, Pitch_bend_c, 2, 9418
4, 4087, Pitch_bend_c, 2, 9415
4, 4088, Pitch_bend_c, 2, 9381
4, 4089, Pitch_bend_c, 2, 9317
4, 4090, Pitch_bend_c, 2, 9224
4, 4091, Pitch_bend_c, 2, 9105
4, 4092, Pitch_bend_c, 2, 8963
4, 4093, Pitch_bend_c, 2, 8801
4, 4094, Pitch_bend_c, 2, 8624
4, 4095, Pitch_bend_c, 2, 8436
4, 4096, Pitch_bend_c, 2, 8242
4, 4097, Pitch_bend_c, 2, 8047
4, 4098, Pitch_bend_c, 2, 7855
4, 4099, Pitch_bend_c, 2, 7672
4, 4100, Pitch_bend_c, 2, 7502
4, 4101, Pitch_bend_c, 2, 7349
4, 4102, Pitch_bend_c, 2, 7218
4, 4103, Pitch_bend_c, 2, 7111
4, 4104, Pitch_bend_c, 2, 7032
4, 4105, Pitch_bend_c, 2, 6982
4, 4106, Pitch_bend_c, 2, 6963
4, 4107, Pitch_bend_c, 2, 6975
4, 4108, Pitch_bend_c, 2, 7018
4, 4109, Pitch_bend_c, 2, 7091
4, 4110, Pitch_bend_c, 2, 7192
4, 4111, Pitch_bend_c, 2, 7318
4, 4112, Pitch_bend_c, 2, 7466
4, 4113, Pitch_bend_c, 2, 7632
4, 4114, Pitch_bend_c, 2, 7813
4, 4115, Pitch_bend_c, 2, 8003
4, 4116, Pitch_bend_c, 2, 8198
4, 4117, Pitch_bend_c, 2, 8393
4, 4118, Pitch_bend_c, 2, 8583
4, 4119, Pitch_bend_c, 2, 8763
4, 4120, Pitch_bend_c, 2, 8928
4, 4121, Pitch_bend_c, 2, 9075
4, 4122, Pitch_bend_c, 2, 9200
4, 4123, Pitch_bend_c, 2, 9298
4, 4124, Pitch_bend_c, 2, 9369
4, 4125, Pitch_bend_c, 2, 9410
4, 4126, Pitch_bend_c, 2, 9420
4, 4127, Pitch_bend_c, 2, 9399
4, 4128, Pitch_bend_c, 2, 9348
4, 4129, Pitch_bend_c, 2, 9267
4, 4130, Pitch_bend_c, 2, 9159
4, 4131, Pitch_bend_c, 2, 9026
4, 4132, Pitch_bend_c, 2, 8872
4, 4133, Pitch_bend_c, 2, 8701
4, 4134, Pitch_bend_c, 2, 8517
4, 4135, Pitch_bend_c, 2, 8325
4, 4136, Pitch_bend_c, 2, 8129
4, 4137, Pitch_bend_c, 2, 7935
4, 4138, Pitch_bend_c, 2, 7748
4, 4139, Pitch_bend_c, 2, 7572
4, 4140, Pitch_bend_c, 2, 7411
4, 4141, Pitch_bend_c, 2, 7271
4, 4142, Pitch_bend_c, 2, 7153
4, 4143, Pitch_bend_c, 2, 7062
4, 4144, Pitch_bend_c, 2, 7000
4, 4145, Pitch_bend_c, 2, 6968
4, 4146, Pitch_bend_c, 2, 6967
4, 4147, Pitch_bend_c, 2, 6996
4, 4148, Pitch_bend_c, 2, 7057
4, 4149, Pitch_bend_c, 2, 7146
4, 4150, Pitch_bend_c, 2, 7261
4, 4151, Pitch_bend_c, 2, 7400
4, 4152, Pitch_bend_c, 2, 7560
4, 4153, Pitch_bend_c, 2, 7735
4, 4154, Pitch_bend_c, 2, 7922
4, 4155, Pitch_bend_c, 2, 8115
4, 4156, Pitch_bend_c, 2, 8311
4, 4157, Pitch_bend_c, 2, 8503
4, 4158, Pitch_bend_c, 2, 8688
4, 4159, Pitch_bend_c, 2, 8860
4, 4160, Pitch_bend_c, 2, 9015
4, 4161, Pitch_bend_c, 2, 9150
4, 4162, Pitch_bend_c, 2, 9260
4, 4163, Pitch_bend_c, 2, 9343
4, 4164, Pitch_bend_c, 2, 9397
4, 4165, Pitch_bend_c, 2, 9420
4, 4166, Pitch_bend_c, 2, 9412
4, 4167, Pitch_bend_c, 2, 9373
4, 4168, Pitch_bend_c, 2, 9304
4, 4169, Pitch_bend_c, 2, 9208
4, 4170, Pitch_bend_c, 2, 9085
4, 4171, Pitch_bend_c, 2, 8940
4, 4172, Pitch_bend_c, 2, 8775
4, 4173, Pitch_bend_c, 2, 8596
4, 4174, Pitch_bend_c, 2, 8407
4, 4175, Pitch_bend_c, 2, 8212
4, 4176, Pitch_bend_c, 2, 8017
4, 4177, Pitch_bend_c, 2, 7826
4, 4178, Pitch_bend_c, 2, 7645
4, 4179, Pitch_bend_c, 2, 7477
4, 4180, Pitch_bend_c, 2, 7328
4, 4181, Pitch_bend_c, 2, 7200
4, 4182, Pitch_bend_c, 2, 7097
4, 4183, Pitch_bend_c, 2, 7023
4, 4184, Pitch_bend_c, 2, 6978
4, 4185, Pitch_bend_c, 2, 6963
4, 4186, Pitch_bend_c, 2, 6980
4, 4187, Pitch_bend_c, 2, 7028
4, 4188, Pitch_bend_c, 2, 7105
4, 4189, Pitch_bend_c, 2, 7209
4, 4190, Pitch_bend_c, 2, 7339
4, 4191, Pitch_bend_c, 2, 7490
4, 4192, Pitch_bend_c, 2, 7659
4, 4193, Pitch_bend_c, 2, 7841
4, 4194, Pitch_bend_c, 2, 8033
4, 4195, Pitch_bend_c, 2, 8228
4, 4196, Pitch_bend_c, 2, 8423
4, 4197, Pitch_bend_c, 2, 8611
4, 4198, Pitch_bend_c, 2, 8789
4, 4199, Pitch_bend_c, 2, 8952
4, 4200, Pitch_bend_c, 2, 9096
4, 4201, Pitch_bend_c, 2, 9216
4, 4202, Pitch_bend_c, 2, 9311
4, 4203, Pitch_bend_c, 2, 9377
4, 4204, Pitch_bend_c, 2, 9414
4, 4205, Pitch_bend_c, 2, 9419
4, 4206, Pitch_bend_c, 2, 9393
4, 4207, Pitch_bend_c, 2, 9337
4, 4208, Pitch_bend_c, 2, 9252
4, 4209, Pitch_bend_c, 2, 9140
4, 4210, Pitch_bend_c, 2, 9004
4, 4211, Pitch_bend_c, 2, 8847
4, 4212, Pitch_bend_c, 2, 8674
4, 4213, Pitch_bend_c, 2, 8488
4, 4214, Pitch_bend_c, 2, 8295
4, 4215, Pitch_bend_c, 2, 8100
4, 4216, Pitch_bend_c, 2, 7906
4, 4217, Pitch_bend_c, 2, 7720
4, 4218, Pitch_bend_c, 2, 7546
4, 4219, Pitch_bend_c, 2, 7388
4, 4220, Pitch_bend_c, 2, 7251
4, 4221, Pitch_bend_c, 2, 7138
4, 4222, Pitch_bend_c, 2, 7051
4, 4223, Pitch_bend_c, 2, 6993
4, 4224, Pitch_bend_c, 2, 6966
4, 4225, Pitch_bend_c, 2, 6969
4, 4226, Pitch_bend_c, 2, 7004
4, 4227, Pitch_bend_c, 2, 7068
4, 4228, Pitch_bend_c, 2, 7162
4, 4229, Pitch_bend_c, 2, 7281
4, 4230, Pitch_bend_c, 2, 7423
4, 4231, Pitch_bend_c, 2, 7585
4, 4232, Pitch_bend_c, 2, 7763
4, 4233, Pitch_bend_c, 2, 7951
4, 4234, Pitch_bend_c, 2, 8145
4, 4235, Pitch_bend_c, 2, 8340
4, 4236, Pitch_bend_c, 2, 8532
4, 4237, Pitch_bend_c, 2, 8715
4, 4238, Pitch_bend_c, 2, 8885
4, 4239, Pitch_bend_c, 2, 9037
4, 4240, Pitch_bend_c, 2, 9168
4, 4241, Pitch_bend_c, 2, 9274
4, 4242, Pitch_bend_c, 2, 9353
4, 4243, Pitch_bend_c, 2, 9402
4, 4244, Pitch_bend_c, 2, 9421
4, 4245, Pitch_bend_c, 2, 9408
4, 4246, Pitch_bend_c, 2, 9365
4, 4247, Pitch_bend_c, 2, 9292
4, 4248, Pitch_bend_c, 2, 9191
4, 4249, Pitch_bend_c, 2, 9064
4, 4250, Pitch_bend_c, 2, 8916
4, 4251, Pitch_bend_c, 2, 8749
4, 4252, Pitch_bend_c, 2, 8568
4, 4253, Pitch_bend_c, 2, 8378
4, 4254, Pitch_bend_c, 2, 8183
4, 4255, Pitch_bend_c, 2, 7988
4, 4256, Pitch_bend_c, 2, 7798
4, 4257, Pitch_bend_c, 2, 7618
4, 4258, Pitch_bend_c, 2, 7453
4, 4259, Pitch_bend_c, 2, 7307
4, 4260, Pitch_bend_c, 2, 7183
4, 4261, Pitch_bend_c, 2, 7084
4, 4262, Pitch_bend_c, 2, 7014
4, 4263, Pitch_bend_c, 2, 6973
4, 4264, Pitch_bend_c, 2, 6964
4, 4265, Pitch_bend_c, 2, 6985
4, 4266, Pitch_bend_c, 2, 7037
4, 4267, Pitch_bend_c, 2, 7119
4, 4268, Pitch_bend_c, 2, 7227
4, 4269, Pitch_bend_c, 2, 7360
4, 4270, Pitch_bend_c, 2, 7515
4, 4271, Pitch_bend_c, 2, 7686
4, 4272, Pitch_bend_c, 2, 7870
4, 4273, Pitch_bend_c, 2, 8062
4, 4274, Pitch_bend_c, 2, 8258
4, 4275, Pitch_bend_c, 2, 8452
4, 4276, Pitch_bend_c, 2, 8639
4, 4277, Pitch_bend_c, 2, 8815
4, 4278, Pitch_bend_c, 2, 8975
4, 4279, Pitch_bend_c, 2, 9116
4, 4280, Pitch_bend_c, 2, 9232
4, 4281, Pitch_bend_c, 2, 9323
4, 4282, Pitch_bend_c, 2, 9385
4, 4283, Pitch_bend_c, 2, 9417
4, 4285, Pitch_bend_c, 2, 9387
4, 4286, Pitch_bend_c, 2, 9326
4, 4287, Pitch_bend_c, 2, 9237
4, 4288, Pitch_bend_c, 2, 9121
4, 4289, Pitch_bend_c, 2, 8981
4, 4290, Pitch_bend_c, 2, 8822
4, 4291, Pitch_bend_c, 2, 8646
4, 4292, Pitch_bend_c, 2, 8459
4, 4293, Pitch_bend_c, 2, 8266
4, 4294, Pitch_bend_c, 2, 8070
4, 4295, Pitch_bend_c, 2, 7877
4, 4296, Pitch_bend_c, 2, 7693
4, 4297, Pitch_bend_c, 2, 7521
4, 4298, Pitch_bend_c, 2, 7366
4, 4299, Pitch_bend_c, 2, 7232
4, 4300, Pitch_bend_c, 2, 7123
4, 4301, Pitch_bend_c, 2, 7040
4, 4302, Pitch_bend_c, 2, 6987
4, 4303, Pitch_bend_c, 2, 6964
4, 4304, Pitch_bend_c, 2, 6972
4, 4305, Pitch_bend_c, 2, 7012
4, 4306, Pitch_bend_c, 2, 7081
4, 4307, Pitch_bend_c, 2, 7178
4, 4308, Pitch_bend_c, 2, 7301
4, 4309, Pitch_bend_c, 2, 7447
4, 4310, Pitch_bend_c, 2, 7611
4, 4311, Pitch_bend_c, 2, 7791
4, 4312, Pitch_bend_c, 2, 7980
4, 4313, Pitch_bend_c, 2, 8175
4, 4314, Pitch_bend_c, 2, 8370
4, 4315, Pitch_bend_c, 2, 8561
4, 4316, Pitch_bend_c, 2, 8742
4, 4317, Pitch_bend_c, 2, 8909
4, 4318, Pitch_bend_c, 2, 9059
4, 4319, Pitch_bend_c, 2, 9186
4, 4320, Pitch_bend_c, 2, 9288
4, 4321, Pitch_bend_c, 2, 9362
4, 4322, Pitch_bend_c, 2, 9407
4, 4323, Pitch_bend_c, 2, 9421
4, 4324, Pitch_bend_c, 2, 9403
4, 4325, Pitch_bend_c, 2, 9355
4, 4326, Pitch_bend_c, 2, 9278
4, 4327, Pitch_bend_c, 2, 9173
4, 4328, Pitch_bend_c, 2, 9043
4, 4329, Pitch_bend_c, 2, 8892
4, 4330, Pitch_bend_c, 2, 8722
4, 4331, Pitch_bend_c, 2, 8540
4, 4332, Pitch_bend_c, 2, 8348
4, 4333, Pitch_bend_c, 2, 8153
4, 4334, Pitch_bend_c, 2, 7958
4, 4335, Pitch_bend_c, 2, 7770
4, 4336, Pitch_bend_c, 2, 7592
4, 4337, Pitch_bend_c, 2, 7430
4, 4338, Pitch_bend_c, 2, 7286
4, 4339, Pitch_bend_c, 2, 7166
4, 4340, Pitch_bend_c, 2, 7072
4, 4341, Pitch_bend_c, 2, 7006
4, 4342, Pitch_bend_c, 2, 6970
4, 4343, Pitch_bend_c, 2, 6965
4, 4344, Pitch_bend_c, 2, 6991
4, 4345, Pitch_bend_c, 2, 7048
4, 4346, Pitch_bend_c, 2, 7134
4, 4347, Pitch_bend_c, 2, 7246
4, 4348, Pitch_bend_c, 2, 7383
4, 4349, Pitch_bend_c, 2, 7540
4, 4350, Pitch_bend_c, 2, 7713
4, 4351, Pitch_bend_c, 2, 7899
4, 4352, Pitch_bend_c, 2, 8092
4, 4353, Pitch_bend_c, 2, 8287
4, 4354, Pitch_bend_c, 2, 8481
4, 4355, Pitch_bend_c, 2, 8667
4, 4356, Pitch_bend_c, 2, 8840
4, 4357, Pitch_bend_c, 2, 8998
4, 4358, Pitch_bend_c, 2, 9135
4, 4359, Pitch_bend_c, 2, 9248
4, 4360, Pitch_bend_c, 2, 9334
4, 4361, Pitch_bend_c, 2, 9392
4, 4362, Pitch_bend_c, 2, 9419
4, 4363, Pitch_bend_c, 2, 9415
4, 4364, Pitch_bend_c, 2, 9379
4, 4365, Pitch_bend_c, 2, 9314
4, 4366, Pitch_bend_c, 2, 9221
4, 4367, Pitch_bend_c, 2, 9101
4, 4368, Pitch_bend_c, 2, 8958
4, 4369, Pitch_bend_c, 2, 8796
4, 4370, Pitch_bend_c, 2, 8618
4, 4371, Pitch_bend_c, 2, 8430
4, 4372, Pitch_bend_c, 2, 8236
4, 4373, Pitch_bend_c, 2, 8040
4, 4374, Pitch_bend_c, 2, 7849
4, 4375, Pitch_bend_c, 2, 7666
4, 4376, Pitch_bend_c, 2, 7496
4, 4377, Pitch_bend_c, 2, 7344
4, 4378, Pitch_bend_c, 2, 7214
4, 4379, Pitch_bend_c, 2, 7108
4, 4380, Pitch_bend_c, 2, 7030
4, 4381, Pitch_bend_c, 2, 6981
4, 4382, Pitch_bend_c, 2, 6963
4, 4383, Pitch_bend_c, 2, 6976
4, 4384, Pitch_bend_c, 2, 7020
4, 4385, Pitch_bend_c, 2, 7094
4, 4386, Pitch_bend_c, 2, 7195
4, 4387, Pitch_bend_c, 2, 7322
4, 4388, Pitch_bend_c, 2, 7471
4, 4389, Pitch_bend_c, 2, 7638
4, 4390, Pitch_bend_c, 2, 7819
4, 4391, Pitch_bend_c, 2, 8009
4, 4392, Pitch_bend_c, 2, 8205
4, 4393, Pitch_bend_c, 2, 8399
4, 4394, Pitch_bend_c, 2, 8589
4, 4395, Pitch_bend_c, 2, 8768
4, 4396, Pitch_bend_c, 2, 8933
4, 4397, Pitch_bend_c, 2, 9080
4, 4398, Pitch_bend_c, 2, 9203
4, 4399, Pitch_bend_c, 2, 9301
4, 4400, Pitch_bend_c, 2, 9371
4, 4401, Pitch_bend_c, 2, 9411
4, 4402, Pitch_bend_c, 2, 9420
4, 4403, Pitch_bend_c, 2, 9398
4, 4404, Pitch_bend_c, 2, 9345
4, 4405, Pitch_bend_c, 2, 9264
4, 4406, Pitch_bend_c, 2, 9155
4, 4407, Pitch_bend_c, 2, 9021
4, 4408, Pitch_bend_c, 2, 8867
4, 4409, Pitch_bend_c, 2, 8695
4, 4410, Pitch_bend_c, 2, 8511
4, 4411, Pitch_bend_c, 2, 8319
4, 4412, Pitch_bend_c, 2, 8123
4, 4413, Pitch_bend_c, 2, 7929
4, 4414, Pitch_bend_c, 2, 7742
4, 4415, Pitch_bend_c, 2, 7566
4, 4416, Pitch_bend_c, 2, 7406
4, 4417, Pitch_bend_c, 2, 7266
4, 4418, Pitch_bend_c, 2, 7150
4, 4419, Pitch_bend_c, 2, 7060
4, 4420, Pitch_bend_c, 2, 6998
4, 4421, Pitch_bend_c, 2, 6967
4, 4423, Pitch_bend_c, 2, 6998
4, 4424, Pitch_bend_c, 2, 7059
4, 4425, Pitch_bend_c, 2, 7149
4, 4426, Pitch_bend_c, 2, 7265
4, 4427, Pitch_bend_c, 2, 7405
4, 4428, Pitch_bend_c, 2, 7565
4, 4429, Pitch_bend_c, 2, 7741
4, 4430, Pitch_bend_c, 2, 7928
4, 4431, Pitch_bend_c, 2, 8122
4, 4432, Pitch_bend_c, 2, 8317
4, 4433, Pitch_bend_c, 2, 8510
4, 4434, Pitch_bend_c, 2, 8694
4, 4435, Pitch_bend_c, 2, 8866
4, 4436, Pitch_bend_c, 2, 9020
4, 4437, Pitch_bend_c, 2, 9154
4, 4438, Pitch_bend_c, 2, 9263
4, 4439, Pitch_bend_c, 2, 9345
4, 4440, Pitch_bend_c, 2, 9398
4, 4441, Pitch_bend_c, 2, 9420
4, 4442, Pitch_bend_c, 2, 9411
4, 4443, Pitch_bend_c, 2, 9371
4, 4444, Pitch_bend_c, 2, 9302
4, 4445, Pitch_bend_c, 2, 9204
4, 4446, Pitch_bend_c, 2, 9081
4, 4447, Pitch_bend_c, 2, 8935
4, 4448, Pitch_bend_c, 2, 8770
4, 4449, Pitch_bend_c, 2, 8590
4, 4450, Pitch_bend_c, 2, 8401
4, 4451, Pitch_bend_c, 2, 8206
4, 4452, Pitch_bend_c, 2, 8011
4, 4453, Pitch_bend_c, 2, 7820
4, 4454, Pitch_bend_c, 2, 7639
4, 4455, Pitch_bend_c, 2, 7472
4, 4456, Pitch_bend_c, 2, 7323
4, 4457, Pitch_bend_c, 2, 7196
4, 4458, Pitch_bend_c, 2, 7095
4, 4459, Pitch_bend_c, 2, 7021
4, 4460, Pitch_bend_c, 2, 6977
4, 4461, Pitch_bend_c, 2, 6963
4, 4462, Pitch_bend_c, 2, 6981
4, 4463, Pitch_bend_c, 2, 7030
4, 4464, Pitch_bend_c, 2, 7108
4, 4465, Pitch_bend_c, 2, 7213
4, 4466, Pitch_bend_c, 2, 7343
4, 4467, Pitch_bend_c, 2, 7495
4, 4468, Pitch_bend_c, 2, 7664
4, 4469, Pitch_bend_c, 2, 7847
4, 4470, Pitch_bend_c, 2, 8039
4, 4471, Pitch_bend_c, 2, 8234
4, 4472, Pitch_bend_c, 2, 8429
4, 4473, Pitch_bend_c, 2, 8617
4, 4474, Pitch_bend_c, 2, 8795
4, 4475, Pitch_bend_c, 2, 8957
4, 4476, Pitch_bend_c, 2, 9100
4, 4477, Pitch_bend_c, 2, 9220
4, 4478, Pitch_bend_c, 2, 9314
4, 4479, Pitch_bend_c, 2, 9379
4, 4480, Pitch_bend_c, 2, 9414
4, 4481, Pitch_bend_c, 2, 9419
4, 4482, Pitch_bend_c, 2, 9392
4, 4483, Pitch_bend_c, 2, 9335
4, 4484, Pitch_bend_c, 2, 9249
4, 4485, Pitch_bend_c, 2, 9136
4, 4486, Pitch_bend_c, 2, 8999
4, 4487, Pitch_bend_c, 2, 8842
4, 4488, Pitch_bend_c, 2, 8668
4, 4489, Pitch_bend_c, 2, 8482
4, 4490, Pitch_bend_c, 2, 8289
4, 4491, Pitch_bend_c, 2, 8093
4, 4492, Pitch_bend_c, 2, 7900
4, 4493, Pitch_bend_c, 2, 7715
4, 4494, Pitch_bend_c, 2, 7541
4, 4495, Pitch_bend_c, 2, 7384
4, 4496, Pitch_bend_c, 2, 7247
4, 4497, Pitch_bend_c, 2, 7134
4, 4498, Pitch_bend_c, 2, 7049
4, 4499, Pitch_bend_c, 2, 6992
4, 4500, Pitch_bend_c, 2, 6965
4, 4501, Pitch_bend_c, 2, 6970
4, 4502, Pitch_bend_c, 2, 7005
4, 4503, Pitch_bend_c, 2, 7071
4, 4504, Pitch_bend_c, 2, 7165
4, 4505, Pitch_bend_c, 2, 7285
4, 4506, Pitch_bend_c, 2, 7428
4, 4507, Pitch_bend_c, 2, 7591
4, 4508, Pitch_bend_c, 2, 7768
4, 4509, Pitch_bend_c, 2, 7957
4, 4510, Pitch_bend_c, 2, 8151
4, 4511, Pitch_bend_c, 2, 8347
4, 4512, Pitch_bend_c, 2, 8538
4, 4513, Pitch_bend_c, 2, 8721
4, 4514, Pitch_bend_c, 2, 8890
4, 4515, Pitch_bend_c, 2, 9042
4, 4516, Pitch_bend_c, 2, 9172
4, 4517, Pitch_bend_c, 2, 9277
4, 4518, Pitch_bend_c, 2, 9355
4, 4519, Pitch_bend_c, 2, 9403
4, 4520, Pitch_bend_c, 2, 9421
4, 4521, Pitch_bend_c, 2, 9407
4, 4522, Pitch_bend_c, 2, 9363
4, 4523, Pitch_bend_c, 2, 9289
4, 4524, Pitch_bend_c, 2, 9187
4, 4525, Pitch_bend_c, 2, 9060
4, 4526, Pitch_bend_c, 2, 8911
4, 4527, Pitch_bend_c, 2, 8743
4, 4528, Pitch_bend_c, 2, 8562
4, 4529, Pitch_bend_c, 2, 8372
4, 4530, Pitch_bend_c, 2, 8176
4, 4531, Pitch_bend_c, 2, 7982
4, 4532, Pitch_bend_c, 2, 7792
4, 4533, Pitch_bend_c, 2, 7613
4, 4534, Pitch_bend_c, 2, 7448
4, 4535, Pitch_bend_c, 2, 7302
4, 4536, Pitch_bend_c, 2, 7179
4, 4537, Pitch_bend_c, 2, 7082
4, 4538, Pitch_bend_c, 2, 7012
4, 4539, Pitch_bend_c, 2, 6973
4, 4540, Pitch_bend_c, 2, 6964
4, 4541, Pitch_bend_c, 2, 6987
4, 4542, Pitch_bend_c, 2, 7040
4, 4543, Pitch_bend_c, 2, 7122
4, 4544, Pitch_bend_c, 2, 7231
4, 4545, Pitch_bend_c, 2, 7365
4, 4546, Pitch_bend_c, 2, 7520
4, 4547, Pitch_bend_c, 2, 7692
4, 4548, Pitch_bend_c, 2, 7876
4, 4549, Pitch_bend_c, 2, 8068
4, 4550, Pitch_bend_c, 2, 8264
4, 4551, Pitch_bend_c, 2, 8458
4, 4552, Pitch_bend_c, 2, 8645
4, 4553, Pitch_bend_c, 2, 8820
4, 4554, Pitch_bend_c, 2, 8980
4, 4555, Pitch_bend_c, 2, 9120
4, 4556, Pitch_bend_c, 2, 9236
4, 4557, Pitch_bend_c, 2, 9325
4, 4558, Pitch_bend_c, 2, 9386
4, 4559, Pitch_bend_c, 2, 9417
4, 4561, Pitch_bend_c, 2, 9385
4, 4562, Pitch_bend_c, 2, 9324
4, 4563, Pitch_bend_c, 2, 9233
4, 4564, Pitch_bend_c, 2, 9117
4, 4565, Pitch_bend_c, 2, 8976
4, 4566, Pitch_bend_c, 2, 8816
4, 4567, Pitch_bend_c, 2, 8640
4, 4568, Pitch_bend_c, 2, 8453
4, 4569, Pitch_bend_c, 2, 8259
4, 4570, Pitch_bend_c, 2, 8064
4, 4571, Pitch_bend_c, 2, 7871
4, 4572, Pitch_bend_c, 2, 7687
4, 4573, Pitch_bend_c, 2, 7516
4, 4574, Pitch_bend_c, 2, 7362
4, 4575, Pitch_bend_c, 2, 7228
4, 4576, Pitch_bend_c, 2, 7120
4, 4577, Pitch_bend_c, 2, 7038
4, 4578, Pitch_bend_c, 2, 6986
4, 4579, Pitch_bend_c, 2, 6964
4, 4580, Pitch_bend_c, 2, 6973
4, 4581, Pitch_bend_c, 2, 7013
4, 4582, Pitch_bend_c, 2, 7084
4, 4583, Pitch_bend_c, 2, 7182
4, 4584, Pitch_bend_c, 2, 7306
4, 4585, Pitch_bend_c, 2, 7452
4, 4586, Pitch_bend_c, 2, 7617
4, 4587, Pitch_bend_c, 2, 7797
4, 4588, Pitch_bend_c, 2, 7986
4, 4589, Pitch_bend_c, 2, 8181
4, 4590, Pitch_bend_c, 2, 8376
4, 4591, Pitch_bend_c, 2, 8567
4, 4592, Pitch_bend_c, 2, 8748
4, 4593, Pitch_bend_c, 2, 8915
4, 4594, Pitch_bend_c, 2, 9063
4, 4595, Pitch_bend_c, 2, 9190
4, 4596, Pitch_bend_c, 2, 9291
4, 4597, Pitch_bend_c, 2, 9364
4, 4598, Pitch_bend_c, 2, 9408
4, 4599, Pitch_bend_c, 2, 9421
4, 4600, Pitch_bend_c, 2, 9402
4, 4601, Pitch_bend_c, 2, 9353
4, 4602, Pitch_bend_c, 2, 9275
4, 4603, Pitch_bend_c, 2, 9169
4, 4604, Pitch_bend_c, 2, 9038
4, 4605, Pitch_bend_c, 2, 8886
4, 4606, Pitch_bend_c, 2, 8717
4, 4607, Pitch_bend_c, 2, 8534
4, 4608, Note_off_c, 2, 97, 64
4, 4800, Pitch_bend_c, 2, 8192
4, 4800, Note_on_c, 2, 70, 64
4, 4848, Note_off_c, 2, 70, 64
4, 4848, Note_on_c, 2, 71, 64
4, 4896, Note_off_c, 2, 71, 64
4, 4896, Note_on_c, 2, 73, 64
4, 4944, Note_off_c, 2, 73, 64
4, 4944, Note_on_c, 2, 73, 64
4, 5016, Pitch_bend_c, 2, 9191
4, 5017, Pitch_bend_c, 2, 9064
4, 5018, Pitch_bend_c, 2, 8916
4, 5019, Pitch_bend_c, 2, 8749
4, 5020, Pitch_bend_c, 2, 8568
4, 5021, Pitch_bend_c, 2, 8378
4, 5022, Pitch_bend_c, 2, 8183
4, 5023, Pitch_bend_c, 2, 7988
4, 5024, Pitch_bend_c, 2, 7798
4, 5025, Pitch_bend_c, 2, 7618
4, 5026, Pitch_bend_c, 2, 7453
4, 5027, Pitch_bend_c, 2, 7307
4, 5028, Pitch_bend_c, 2, 7183
4, 5029, Pitch_bend_c, 2, 7084
4, 5030, Pitch_bend_c, 2, 7014
4, 5031, Pitch_bend_c, 2, 6973
4, 5032, Pitch_bend_c, 2, 6964
4, 5033, Pitch_bend_c, 2, 6985
4, 5034, Pitch_bend_c, 2, 7037
4, 5035, Pitch_bend_c, 2, 7119
4, 5036, Pitch_bend_c, 2, 7227
4, 5037, Pitch_bend_c, 2, 7360
4, 5038, Pitch_bend_c, 2, 7515
4, 5039, Pitch_bend_c, 2, 7686
4, 5040, Pitch_bend_c, 2, 7870
4, 5041, Pitch_bend_c, 2, 8062
4, 5042, Pitch_bend_c, 2, 8258
4, 5043, Pitch_bend_c, 2, 8452
4, 5044, Pitch_bend_c, 2, 8639
4, 5045, Pitch_bend_c, 2, 8815
4, 5046, Pitch_bend_c, 2, 8975
4, 5047, Pitch_bend_c, 2, 9116
4, 5048, Pitch_bend_c, 2, 9232
4, 5049, Pitch_bend_c, 2, 9323
4, 5050, Pitch_bend_c, 2, 9385
4, 5051, Pitch_bend_c, 2, 9417
4, 5053, Pitch_bend_c, 2, 9387
4, 5054, Pitch_bend_c, 2, 9326
4, 5055, Pitch_bend_c, 2, 9237
4, 5056, Pitch_bend_c, 2, 9121
4, 5057, Pitch_bend_c, 2, 8981
4, 5058, Pitch_bend_c, 2, 8822
4, 5059, Pitch_bend_c, 2, 8646
4, 5060, Pitch_bend_c, 2, 8459
4, 5061, Pitch_bend_c, 2, 8266
4, 5062, Pitch_bend_c, 2, 8070
4, 5063, Pitch_bend_c, 2, 7877
4, 5064, Pitch_bend_c, 2, 7693
4, 5065, Pitch_bend_c, 2, 7521
4, 5066, Pitch_bend_c, 2, 7366
4, 5067, Pitch_bend_c, 2, 7232
4, 5068, Pitch_bend_c, 2, 7123
4, 5069, Pitch_bend_c, 2, 7040
4, 5070, Pitch_bend_c, 2, 6987
4, 5071, Pitch_bend_c, 2, 6964
4, 5072, Pitch_bend_c, 2, 6972
4, 5073, Pitch_bend_c, 2, 7012
4, 5074, Pitch_bend_c, 2, 7081
4, 5075, Pitch_bend_c, 2, 7178
4, 5076, Pitch_bend_c, 2, 7301
4, 5077, Pitch_bend_c, 2, 7447
4, 5078, Pitch_bend_c, 2, 7611
4, 5079, Pitch_bend_c, 2, 7791
4, 5080, Pitch_bend_c, 2, 7980
4, 5081, Pitch_bend_c, 2, 8175
4, 5082, Pitch_bend_c, 2, 8370
4, 5083, Pitch_bend_c, 2, 8561
4, 5084, Pitch_bend_c, 2, 8742
4, 5085, Pitch_bend_c, 2, 8909
4, 5086, Pitch_bend_c, 2, 9059
4, 5087, Pitch_bend_c, 2, 9186
4, 5088, Note_off_c, 2, 73, 64
4, 5088, Pitch_bend_c, 2, 8192
4, 5088, Note_on_c, 2, 78, 64
4, 5160, Pitch_bend_c, 2, 8205
4, 5161, Pitch_bend_c, 2, 8399
4, 5162, Pitch_bend_c, 2, 8589
4, 5163, Pitch_bend_c, 2, 8768
4, 5164, Pitch_bend_c, 2, 8933
4, 5165, Pitch_bend_c, 2, 9080
4, 5166, Pitch_bend_c, 2, 9203
4, 5167, Pitch_bend_c, 2, 9301
4, 5168, Pitch_bend_c, 2, 9371
4, 5169, Pitch_bend_c, 2, 9411
4, 5170, Pitch_bend_c, 2, 9420
4, 5171, Pitch_bend_c, 2, 9398
4, 5172, Pitch_bend_c, 2, 9345
4, 5173, Pitch_bend_c, 2, 9264
4, 5174, Pitch_bend_c, 2, 9155
4, 5175, Pitch_bend_c, 2, 9021
4, 5176, Pitch_bend_c, 2, 8867
4, 5177, Pitch_bend_c, 2, 8695
4, 5178, Pitch_bend_c, 2, 8511
4, 5179, Pitch_bend_c, 2, 8319
4, 5180, Pitch_bend_c, 2, 8123
4, 5181, Pitch_bend_c, 2, 7929
4, 5182, Pitch_bend_c, 2, 7742
4, 5183, Pitch_bend_c, 2, 7566
4, 5184, Note_off_c, 2, 78, 64
4, 5184, Pitch_bend_c, 2, 8192
4, 5184, Note_on_c, 2, 77, 64
4, 5256, Pitch_bend_c, 2, 8668
4, 5257, Pitch_bend_c, 2, 8482
4, 5258, Pitch_bend_c, 2, 8289
4, 5259, Pitch_bend_c, 2, 8093
4, 5260, Pitch_bend_c, 2, 7900
4, 5261, Pitch_bend_c, 2, 7715
4, 5262, Pitch_bend_c, 2, 7541
4, 5263, Pitch_bend_c, 2, 7384
4, 5264, Pitch_bend_c, 2, 7247
4, 5265, Pitch_bend_c, 2, 7134
4, 5266, Pitch_bend_c, 2, 7049
4, 5267, Pitch_bend_c, 2, 6992
4, 5268, Pitch_bend_c, 2, 6965
4, 5269, Pitch_bend_c, 2, 6970
4, 5270, Pitch_bend_c, 2, 7005
4, 5271, Pitch_bend_c, 2, 7071
4, 5272, Pitch_bend_c, 2, 7165
4, 5273, Pitch_bend_c, 2, 7285
4, 5274, Pitch_bend_c, 2, 7428
4, 5275, Pitch_bend_c, 2, 7591
4, 5276, Pitch_bend_c, 2, 7768
4, 5277, Pitch_bend_c, 2, 7957
4, 5278, Pitch_bend_c, 2, 8151
4, 5279, Pitch_bend_c, 2, 8347
4, 5280, Note_off_c, 2, 77, 64
4, 5280, Pitch_bend_c, 2, 8192
4, 5280, Note_on_c, 2, 78, 64
4, 5352, Pitch_bend_c, 2, 7306
4, 5353, Pitch_bend_c, 2, 7452
4, 5354, Pitch_bend_c, 2, 7617
4, 5355, Pitch_bend_c, 2, 7797
4, 5356, Pitch_bend_c, 2, 7986
4, 5357, Pitch_bend_c, 2, 8181
4, 5358, Pitch_bend_c, 2, 8376
4, 5359, Pitch_bend_c, 2, 8567
4, 5360, Pitch_bend_c, 2, 8748
4, 5361, Pitch_bend_c, 2, 8915
4, 5362, Pitch_bend_c, 2, 9063
4, 5363, Pitch_bend_c, 2, 9190
4, 5364, Pitch_bend_c, 2, 9291
4, 5365, Pitch_bend_c, 2, 9364
4, 5366, Pitch_bend_c, 2, 9408
4, 5367, Pitch_bend_c, 2, 9421
4, 5368, Pitch_bend_c, 2, 9402
4, 5369, Pitch_bend_c, 2, 9353
4, 5370, Pitch_bend_c, 2, 9275
4, 5371, Pitch_bend_c, 2, 9169
4, 5372, Pitch_bend_c, 2, 9038
4, 5373, Pitch_bend_c, 2, 8886
4, 5374, Pitch_bend_c, 2, 8717
4, 5375, Pitch_bend_c, 2, 8534
4, 5376, Note_off_c, 2, 78, 64
4, 5376, Pitch_bend_c, 2, 8192
4, 5376, Note_on_c, 2, 78, 64
4, 5401, Pitch_bend_c, 2, 8533
4, 5402, Pitch_bend_c, 2, 8875
4, 5403, Pitch_bend_c, 2, 9216
4, 5404, Pitch_bend_c, 2, 9557
4, 5405, Pitch_bend_c, 2, 9899
4, 5406, Pitch_bend_c, 2, 6144
4, 5406, Note_on_c, 2, 79, 64
4, 5406, Note_off_c, 2, 78, 64
4, 5407, Pitch_bend_c, 2, 6485
4, 5408, Pitch_bend_c, 2, 6827
4, 5409, Pitch_bend_c, 2, 7168
4, 5410, Pitch_bend_c, 2, 7509
4, 5411, Pitch_bend_c, 2, 7851
4, 5412, Pitch_bend_c, 2, 8192
4, 5413, Pitch_bend_c, 2, 8533
4, 5414, Pitch_bend_c, 2, 8875
4, 5415, Pitch_bend_c, 2, 9216
4, 5416, Pitch_bend_c, 2, 9557
4, 5417, Pitch_bend_c, 2, 9899
4, 5418, Pitch_bend_c, 2, 6144
4, 5418, Note_on_c, 2, 80, 64
4, 5418, Note_off_c, 2, 79, 64
4, 5419, Pitch_bend_c, 2, 6485
4, 5420, Pitch_bend_c, 2, 6827
4, 5421, Pitch_bend_c, 2, 7168
4, 5422, Pitch_bend_c, 2, 7509
4, 5423, Pitch_bend_c, 2, 7851
4, 5424, Note_off_c, 2, 80, 64
4, 5424, Pitch_bend_c, 2, 8192
4, 5424, Note_on_c, 2, 80, 64
4, 5472, Note_off_c, 2, 80, 64
4, 5472, Note_on_c, 2, 82, 64
4, 5520, Note_off_c, 2, 82, 64
4, 5520, Note_on_c, 2, 78, 64
4, 5592, Pitch_bend_c, 2, 8354
4, 5593, Pitch_bend_c, 2, 8159
4, 5594, Pitch_bend_c, 2, 7965
4, 5595, Pitch_bend_c, 2, 7776
4, 5596, Pitch_bend_c, 2, 7598
4, 5597, Pitch_bend_c, 2, 7434
4, 5598, Pitch_bend_c, 2, 7291
4, 5599, Pitch_bend_c, 2, 7169
4, 5600, Pitch_bend_c, 2, 7074
4, 5601, Pitch_bend_c, 2, 7007
4, 5602, Pitch_bend_c, 2, 6971
4, 5603, Pitch_bend_c, 2, 6965
4, 5604, Pitch_bend_c, 2, 6990
4, 5605, Pitch_bend_c, 2, 7046
4, 5606, Pitch_bend_c, 2, 7130
4, 5607, Pitch_bend_c, 2, 7242
4, 5608, Pitch_bend_c, 2, 7378
4, 5609, Pitch_bend_c, 2, 7534
4, 5610, Pitch_bend_c, 2, 7707
4, 5611, Pitch_bend_c, 2, 7893
4, 5612, Pitch_bend_c, 2, 8086
4, 5613, Pitch_bend_c, 2, 8281
4, 5614, Pitch_bend_c, 2, 8475
4, 5615, Pitch_bend_c, 2, 8661
4, 5616, Pitch_bend_c, 2, 8835
4, 5617, Pitch_bend_c, 2, 8993
4, 5618, Pitch_bend_c, 2, 9131
4, 5619, Pitch_bend_c, 2, 9245
4, 5620, Pitch_bend_c, 2, 9332
4, 5621, Pitch_bend_c, 2, 9390
4, 5622, Pitch_bend_c, 2, 9418
4, 5623, Pitch_bend_c, 2, 9415
4, 5624, Pitch_bend_c, 2, 9381
4, 5625, Pitch_bend_c, 2, 9317
4, 5626, Pitch_bend_c, 2, 9224
4, 5627, Pitch_bend_c, 2, 9105
4, 5628, Pitch_bend_c, 2, 8963
4, 5629, Pitch_bend_c, 2, 8801
4, 5630, Pitch_bend_c, 2, 8624
4, 5631, Pitch_bend_c, 2, 8436
4, 5632, Pitch_bend_c, 2, 8242
4, 5633, Pitch_bend_c, 2, 8047
4, 5634, Pitch_bend_c, 2, 7855
4, 5635, Pitch_bend_c, 2, 7672
4, 5636, Pitch_bend_c, 2, 7502
4, 5637, Pitch_bend_c, 2, 7349
4, 5638, Pitch_bend_c, 2, 7218
4, 5639, Pitch_bend_c, 2, 7111
4, 5640, Pitch_bend_c, 2, 7032
4, 5641, Pitch_bend_c, 2, 6982
4, 5642, Pitch_bend_c, 2, 6963
4, 5643, Pitch_bend_c, 2, 6975
4, 5644, Pitch_bend_c, 2, 7018
4, 5645, Pitch_bend_c, 2, 7091
4, 5646, Pitch_bend_c, 2, 7192
4, 5647, Pitch_bend_c, 2, 7318
4, 5648, Pitch_bend_c, 2, 7466
4, 5649, Pitch_bend_c, 2, 7632
4, 5650, Pitch_bend_c, 2, 7813
4, 5651, Pitch_bend_c, 2, 8003
4, 5652, Pitch_bend_c, 2, 8198
4, 5653, Pitch_bend_c, 2, 8393
4, 5654, Pitch_bend_c, 2, 8583
4, 5655, Pitch_bend_c, 2, 8763
4, 5656, Pitch_bend_c, 2, 8928
4, 5657, Pitch_bend_c, 2, 9075
4, 5658, Pitch_bend_c, 2, 9200
4, 5659, Pitch_bend_c, 2, 9298
4, 5660, Pitch_bend_c, 2, 9369
4, 5661, Pitch_bend_c, 2, 9410
4, 5662, Pitch_bend_c, 2, 9420
4, 5663, Pitch_bend_c, 2, 9399
4, 5664, Pitch_bend_c, 2, 9348
4, 5665, Pitch_bend_c, 2, 9267
4, 5666, Pitch_bend_c, 2, 9159
4, 5667, Pitch_bend_c, 2, 9026
4, 5668, Pitch_bend_c, 2, 8872
4, 5669, Pitch_bend_c, 2, 8701
4, 5670, Pitch_bend_c, 2, 8517
4, 5671, Pitch_bend_c, 2, 8325
4, 5672, Pitch_bend_c, 2, 8129
4, 5673, Pitch_bend_c, 2, 7935
4, 5674, Pitch_bend_c, 2, 7748
4, 5675, Pitch_bend_c, 2, 7572
4, 5676, Pitch_bend_c, 2, 7411
4, 5677, Pitch_bend_c, 2, 7271
4, 5678, Pitch_bend_c, 2, 7153
4, 5679, Pitch_bend_c, 2, 7062
4, 5680, Pitch_bend_c, 2, 7000
4, 5681, Pitch_bend_c, 2, 6968
4, 5682, Pitch_bend_c, 2, 6967
4, 5683, Pitch_bend_c, 2, 6996
4, 5684, Pitch_bend_c, 2, 7057
4, 5685, Pitch_bend_c, 2, 7146
4, 5686, Pitch_bend_c, 2, 7261
4, 5687, Pitch_bend_c, 2, 7400
4, 5688, Pitch_bend_c, 2, 7560
4, 5689, Pitch_bend_c, 2, 7735
4, 5690, Pitch_bend_c, 2, 7922
4, 5691, Pitch_bend_c, 2, 8115
4, 5692, Pitch_bend_c, 2, 8311
4, 5693, Pitch_bend_c, 2, 8503
4, 5694, Pitch_bend_c, 2, 8688
4, 5695, Pitch_bend_c, 2, 8860
4, 5696, Pitch_bend_c, 2, 9015
4, 5697, Pitch_bend_c, 2, 9150
4, 5698, Pitch_bend_c, 2, 9260
4, 5699, Pitch_bend_c, 2, 9343
4, 5700, Pitch_bend_c, 2, 9397
4, 5701, Pitch_bend_c, 2, 9420
4, 5702, Pitch_bend_c, 2, 9412
4, 5703, Pitch_bend_c, 2, 9373
4, 5704, Pitch_bend_c, 2, 9304
4, 5705, Pitch_bend_c, 2, 9208
4, 5706, Pitch_bend_c, 2, 9085
4, 5707, Pitch_bend_c, 2, 8940
4, 5708, Pitch_bend_c, 2, 8775
4, 5709, Pitch_bend_c, 2, 8596
4, 5710, Pitch_bend_c, 2, 8407
4, 5711, Pitch_bend_c, 2, 8212
4, 5712, Pitch_bend_c, 2, 8017
4, 5713, Pitch_bend_c, 2, 7826
4, 5714, Pitch_bend_c, 2, 7645
4, 5715, Pitch_bend_c, 2, 7477
4, 5716, Pitch_bend_c, 2, 7328
4, 5717, Pitch_bend_c, 2, 7200
4, 5718, Pitch_bend_c, 2, 7097
4, 5719, Pitch_bend_c, 2, 7023
4, 5720, Pitch_bend_c, 2, 6978
4, 5721, Pitch_bend_c, 2, 6963
4, 5722, Pitch_bend_c, 2, 6980
4, 5723, Pitch_bend_c, 2, 7028
4, 5724, Pitch_bend_c, 2, 7105
4, 5725, Pitch_bend_c, 2, 7209
4, 5726, Pitch_bend_c, 2, 7339
4, 5727, Pitch_bend_c, 2, 7490
4, 5728, Pitch_bend_c, 2, 7659
4, 5729, Pitch_bend_c, 2, 7841
4, 5730, Pitch_bend_c, 2, 8033
4, 5731, Pitch_bend_c, 2, 8228
4, 5732, Pitch_bend_c, 2, 8423
4, 5733, Pitch_bend_c, 2, 8611
4, 5734, Pitch_bend_c, 2, 8789
4, 5735, Pitch_bend_c, 2, 8952
4, 5736, Pitch_bend_c, 2, 9096
4, 5737, Pitch_bend_c, 2, 9216
4, 5738, Pitch_bend_c, 2, 9311
4, 5739, Pitch_bend_c, 2, 9377
4, 5740, Pitch_bend_c, 2, 9414
4, 5741, Pitch_bend_c, 2, 9419
4, 5742, Pitch_bend_c, 2, 9393
4, 5743, Pitch_bend_c, 2, 9337
4, 5744, Pitch_bend_c, 2, 9252
4, 5745, Pitch_bend_c, 2, 9140
4, 5746, Pitch_bend_c, 2, 9004
4, 5747, Pitch_bend_c, 2, 8847
4, 5748, Pitch_bend_c, 2, 8674
4, 5749, Pitch_bend_c, 2, 8488
4, 5750, Pitch_bend_c, 2, 8295
4, 5751, Pitch_bend_c, 2, 8100
4, 5752, Pitch_bend_c, 2, 7906
4, 5753, Pitch_bend_c, 2, 7720
4, 5754, Pitch_bend_c, 2, 7546
4, 5755, Pitch_bend_c, 2, 7388
4, 5756, Pitch_bend_c, 2, 7251
4, 5757, Pitch_bend_c, 2, 7138
4, 5758, Pitch_bend_c, 2, 7051
4, 5759, Pitch_bend_c, 2, 6993
4, 5760, Pitch_bend_c, 2, 6966
4, 5761, Pitch_bend_c, 2, 6969
4, 5762, Pitch_bend_c, 2, 7004
4, 5763, Pitch_bend_c, 2, 7068
4, 5764, Pitch_bend_c, 2, 7162
4, 5765, Pitch_bend_c, 2, 7281
4, 5766, Pitch_bend_c, 2, 7423
4, 5767, Pitch_bend_c, 2, 7585
4, 5768, Pitch_bend_c, 2, 7763
4, 5769, Pitch_bend_c, 2, 7951
4, 5770, Pitch_bend_c, 2, 8145
4, 5771, Pitch_bend_c, 2, 8340
4, 5772, Pitch_bend_c, 2, 8532
4, 5773, Pitch_bend_c, 2, 8715
4, 5774, Pitch_bend_c, 2, 8885
4, 5775, Pitch_bend_c, 2, 9037
4, 5776, Pitch_bend_c, 2, 9168
4, 5777, Pitch_bend_c, 2, 9274
4, 5778, Pitch_bend_c, 2, 9353
4, 5779, Pitch_bend_c, 2, 9402
4, 5780, Pitch_bend_c, 2, 9421
4, 5781, Pitch_bend_c, 2, 9408
4, 5782, Pitch_bend_c, 2, 9365
4, 5783, Pitch_bend_c, 2, 9292
4, 5784, Pitch_bend_c, 2, 9191
4, 5785, Pitch_bend_c, 2, 9064
4, 5786, Pitch_bend_c, 2, 8916
4, 5787, Pitch_bend_c, 2, 8749
4, 5788, Pitch_bend_c, 2, 8568
4, 5789, Pitch_bend_c, 2, 8378
4, 5790, Pitch_bend_c, 2, 8183
4, 5791, Pitch_bend_c, 2, 7988
4, 5792, Pitch_bend_c, 2, 7798
4, 5793, Pitch_bend_c, 2, 7618
4, 5794, Pitch_bend_c, 2, 7453
4, 5795, Pitch_bend_c, 2, 7307
4, 5796, Pitch_bend_c, 2, 7183
4, 5797, Pitch_bend_c, 2, 7084
4, 5798, Pitch_bend_c, 2, 7014
4, 5799, Pitch_bend_c, 2, 6973
4, 5800, Pitch_bend_c, 2, 6964
4, 5801, Pitch_bend_c, 2, 6985
4, 5802, Pitch_bend_c, 2, 7037
4, 5803, Pitch_bend_c, 2, 7119
4, 5804, Pitch_bend_c, 2, 7227
4, 5805, Pitch_bend_c, 2, 7360
4, 5806, Pitch_bend_c, 2, 7515
4, 5807, Pitch_bend_c, 2, 7686
4, 5808, Pitch_bend_c, 2, 7870
4, 5809, Pitch_bend_c, 2, 8062
4, 5810, Pitch_bend_c, 2, 8258
4, 5811, Pitch_bend_c, 2, 8452
4, 5812, Pitch_bend_c, 2, 8639
4, 5813, Pitch_bend_c, 2, 8815
4, 5814, Pitch_bend_c, 2, 8975
4, 5815, Pitch_bend_c, 2, 9116
4, 5816, Pitch_bend_c, 2, 9232
4, 5817, Pitch_bend_c, 2, 9323
4, 5818, Pitch_bend_c, 2, 9385
4, 5819, Pitch_bend_c, 2, 9417
4, 5821, Pitch_bend_c, 2, 9387
4, 5822, Pitch_bend_c, 2, 9326
4, 5823, Pitch_bend_c, 2, 9237
4, 5824, Pitch_bend_c, 2, 9121
4, 5825, Pitch_bend_c, 2, 8981
4, 5826, Pitch_bend_c, 2, 8822
4, 5827, Pitch_bend_c, 2, 8646
4, 5828, Pitch_bend_c, 2, 8459
4, 5829, Pitch_bend_c, 2, 8266
4, 5830, Pitch_bend_c, 2, 8070
4, 5831, Pitch_bend_c, 2, 7877
4, 5832, Pitch_bend_c, 2, 7693
4, 5833, Pitch_bend_c, 2, 7521
4, 5834, Pitch_bend_c, 2, 7366
4, 5835, Pitch_bend_c, 2, 7232
4, 5836, Pitch_bend_c, 2, 7123
4, 5837, Pitch_bend_c, 2, 7040
4, 5838, Pitch_bend_c, 2, 6987
4, 5839, Pitch_bend_c, 2, 6964
4, 5840, Pitch_bend_c, 2, 6972
4, 5841, Pitch_bend_c, 2, 7012
4, 5842, Pitch_bend_c, 2, 7081
4, 5843, Pitch_bend_c, 2, 7178
4, 5844, Pitch_bend_c, 2, 7301
4, 5845, Pitch_bend_c, 2, 7447
4, 5846, Pitch_bend_c, 2, 7611
4, 5847, Pitch_bend_c, 2, 7791
4, 5848, Pitch_bend_c, 2, 7980
4, 5849, Pitch_bend_c, 2, 8175
4, 5850, Pitch_bend_c, 2, 8370
4, 5851, Pitch_bend_c, 2, 8561
4, 5852, Pitch_bend_c, 2, 8742
4, 5853, Pitch_bend_c, 2, 8909
4, 5854, Pitch_bend_c, 2, 9059
4, 5855, Pitch_bend_c, 2, 9186
4, 5856, Pitch_bend_c, 2, 9288
4, 5857, Pitch_bend_c, 2, 9362
4, 5858, Pitch_bend_c, 2, 9407
4, 5859, Pitch_bend_c, 2, 9421
4, 5860, Pitch_bend_c, 2, 9403
4, 5861, Pitch_bend_c, 2, 9355
4, 5862, Pitch_bend_c, 2, 9278
4, 5863, Pitch_bend_c, 2, 9173
4, 5864, Pitch_bend_c, 2, 9043
4, 5865, Pitch_bend_c, 2, 8892
4, 5866, Pitch_bend_c, 2, 8722
4, 5867, Pitch_bend_c, 2, 8540
4, 5868, Pitch_bend_c, 2, 8348
4, 5869, Pitch_bend_c, 2, 8153
4, 5870, Pitch_bend_c, 2, 7958
4, 5871, Pitch_bend_c, 2, 7770
4, 5872, Pitch_bend_c, 2, 7592
4, 5873, Pitch_bend_c, 2, 7430
4, 5874, Pitch_bend_c, 2, 7286
4, 5875, Pitch_bend_c, 2, 7166
4, 5876, Pitch_bend_c, 2, 7072
4, 5877, Pitch_bend_c, 2, 7006
4, 5878, Pitch_bend_c, 2, 6970
4, 5879, Pitch_bend_c, 2, 6965
4, 5880, Pitch_bend_c, 2, 6991
4, 5881, Pitch_bend_c, 2, 7048
4, 5882, Pitch_bend_c, 2, 7134
4, 5883, Pitch_bend_c, 2, 7246
4, 5884, Pitch_bend_c, 2, 7383
4, 5885, Pitch_bend_c, 2, 7540
4, 5886, Pitch_bend_c, 2, 7713
4, 5887, Pitch_bend_c, 2, 7899
4, 5888, Pitch_bend_c, 2, 8092
4, 5889, Pitch_bend_c, 2, 8287
4, 5890, Pitch_bend_c, 2, 8481
4, 5891, Pitch_bend_c, 2, 8667
4, 5892, Pitch_bend_c, 2, 8840
4, 5893, Pitch_bend_c, 2, 8998
4, 5894, Pitch_bend_c, 2, 9135
4, 5895, Pitch_bend_c, 2, 9248
4, 5896, Pitch_bend_c, 2, 9334
4, 5897, Pitch_bend_c, 2, 9392
4, 5898, Pitch_bend_c, 2, 9419
4, 5899, Pitch_bend_c, 2, 9415
4, 5900, Pitch_bend_c, 2, 9379
4, 5901, Pitch_bend_c, 2, 9314
4, 5902, Pitch_bend_c, 2, 9221
4, 5903, Pitch_bend_c, 2, 9101
4, 5904, Pitch_bend_c, 2, 8958
4, 5905, Pitch_bend_c, 2, 8796
4, 5906, Pitch_bend_c, 2, 8618
4, 5907, Pitch_bend_c, 2, 8430
4, 5908, Pitch_bend_c, 2, 8236
4, 5909, Pitch_bend_c, 2, 8040
4, 5910, Pitch_bend_c, 2, 7849
4, 5911, Pitch_bend_c, 2, 7666
4, 5912, Pitch_bend_c, 2, 7496
4, 5913, Pitch_bend_c, 2, 7344
4, 5914, Pitch_bend_c, 2, 7214
4, 5915, Pitch_bend_c, 2, 7108
4, 5916, Pitch_bend_c, 2, 7030
4, 5917, Pitch_bend_c, 2, 6981
4, 5918, Pitch_bend_c, 2, 6963
4, 5919, Pitch_bend_c, 2, 6976
4, 5920, Pitch_bend_c, 2, 7020
4, 5921, Pitch_bend_c, 2, 7094
4, 5922, Pitch_bend_c, 2, 7195
4, 5923, Pitch_bend_c, 2, 7322
4, 5924, Pitch_bend_c, 2, 7471
4, 5925, Pitch_bend_c, 2, 7638
4, 5926, Pitch_bend_c, 2, 7819
4, 5927, Pitch_bend_c, 2, 8009
4, 5928, Pitch_bend_c, 2, 8205
4, 5929, Pitch_bend_c, 2, 8399
4, 5930, Pitch_bend_c, 2, 8589
4, 5931, Pitch_bend_c, 2, 8768
4, 5932, Pitch_bend_c, 2, 8933
4, 5933, Pitch_bend_c, 2, 9080
4, 5934, Pitch_bend_c, 2, 9203
4, 5935, Pitch_bend_c, 2, 9301
4, 5936, Pitch_bend_c, 2, 9371
4, 5937, Pitch_bend_c, 2, 9411
4, 5938, Pitch_bend_c, 2, 9420
4, 5939, Pitch_bend_c, 2, 9398
4, 5940, Pitch_bend_c, 2, 9345
4, 5941, Pitch_bend_c, 2, 9264
4, 5942, Pitch_bend_c, 2, 9155
4, 5943, Pitch_bend_c, 2, 9021
4, 5944, Pitch_bend_c, 2, 8867
4, 5945, Pitch_bend_c, 2, 8695
4, 5946, Pitch_bend_c, 2, 8511
4, 5947, Pitch_bend_c, 2, 8319
4, 5948, Pitch_bend_c, 2, 8123
4, 5949, Pitch_bend_c, 2, 7929
4, 5950, Pitch_bend_c, 2, 7742
4, 5951, Pitch_bend_c, 2, 7566
4, 5952, Pitch_bend_c, 2, 7406
4, 5953, Pitch_bend_c, 2, 7266
4, 5954, Pitch_bend_c, 2, 7150
4, 5955, Pitch_bend_c, 2, 7060
4, 5956, Pitch_bend_c, 2, 6998
4, 5957, Pitch_bend_c, 2, 6967
4, 5959, Pitch_bend_c, 2, 6998
4, 5960, Pitch_bend_c, 2, 7059
4, 5961, Pitch_bend_c, 2, 7149
4, 5962, Pitch_bend_c, 2, 7265
4, 5963, Pitch_bend_c, 2, 7405
4, 5964, Pitch_bend_c, 2, 7565
4, 5965, Pitch_bend_c, 2, 7741
4, 5966, Pitch_bend_c, 2, 7928
4, 5967, Pitch_bend_c, 2, 8122
4, 5968, Pitch_bend_c, 2, 8317
4, 5969, Pitch_bend_c, 2, 8510
4, 5970, Pitch_bend_c, 2, 8694
4, 5971, Pitch_bend_c, 2, 8866
4, 5972, Pitch_bend_c, 2, 9020
4, 5973, Pitch_bend_c, 2, 9154
4, 5974, Pitch_bend_c, 2, 9263
4, 5975, Pitch_bend_c, 2, 9345
4, 5976, Pitch_bend_c, 2, 9398
4, 5977, Pitch_bend_c, 2, 9420
4, 5978, Pitch_bend_c, 2, 9411
4, 5979, Pitch_bend_c, 2, 9371
4, 5980, Pitch_bend_c, 2, 9302
4, 5981, Pitch_bend_c, 2, 9204
4, 5982, Pitch_bend_c, 2, 9081
4, 5983, Pitch_bend_c, 2, 8935
4, 5984, Pitch_bend_c, 2, 8770
4, 5985, Pitch_bend_c, 2, 8590
4, 5986, Pitch_bend_c, 2, 8401
4, 5987, Pitch_bend_c, 2, 8206
4, 5988, Pitch_bend_c, 2, 8011
4, 5989, Pitch_bend_c, 2, 7820
4, 5990, Pitch_bend_c, 2, 7639
4, 5991, Pitch_bend_c, 2, 7472
4, 5992, Pitch_bend_c, 2, 7323
4, 5993, Pitch_bend_c, 2, 7196
4, 5994, Pitch_bend_c, 2, 7095
4, 5995, Pitch_bend_c, 2, 7021
4, 5996, Pitch_bend_c, 2, 6977
4, 5997, Pitch_bend_c, 2, 6963
4, 5998, Pitch_bend_c, 2, 6981
4, 5999, Pitch_bend_c, 2, 7030
4, 6000, Pitch_bend_c, 2, 7108
4, 6001, Pitch_bend_c, 2, 7213
4, 6002, Pitch_bend_c, 2, 7343
4, 6003, Pitch_bend_c, 2, 7495
4, 6004, Pitch_bend_c, 2, 7664
4, 6005, Pitch_bend_c, 2, 7847
4, 6006, Pitch_bend_c, 2, 8039
4, 6007, Pitch_bend_c, 2, 8234
4, 6008, Pitch_bend_c, 2, 8429
4, 6009, Pitch_bend_c, 2, 8617
4, 6010, Pitch_bend_c, 2, 8795
4, 6011, Pitch_bend_c, 2, 8957
4, 6012, Pitch_bend_c, 2, 9100
4, 6013, Pitch_bend_c, 2, 9220
4, 6014, Pitch_bend_c, 2, 9314
4, 6015, Pitch_bend_c, 2, 9379
4, 6016, Pitch_bend_c, 2, 9414
4, 6017, Pitch_bend_c, 2, 9419
4, 6018, Pitch_bend_c, 2, 9392
4, 6019, Pitch_bend_c, 2, 9335
4, 6020, Pitch_bend_c, 2, 9249
4, 6021, Pitch_bend_c, 2, 9136
4, 6022, Pitch_bend_c, 2, 8999
4, 6023, Pitch_bend_c, 2, 8842
4, 6024, Pitch_bend_c, 2, 8668
4, 6025, Pitch_bend_c, 2, 8482
4, 6026, Pitch_bend_c, 2, 8289
4, 6027, Pitch_bend_c, 2, 8093
4, 6028, Pitch_bend_c, 2, 7900
4, 6029, Pitch_bend_c, 2, 7715
4, 6030, Pitch_bend_c, 2, 7541
4, 6031, Pitch_bend_c, 2, 7384
4, 6032, Pitch_bend_c, 2, 7247
4, 6033, Pitch_bend_c, 2, 7134
4, 6034, Pitch_bend_c, 2, 7049
4, 6035, Pitch_bend_c, 2, 6992
4, 6036, Pitch_bend_c, 2, 6965
4, 6037, Pitch_bend_c, 2, 6970
4, 6038, Pitch_bend_c, 2, 7005
4, 6039, Pitch_bend_c, 2, 7071
4, 6040, Pitch_bend_c, 2, 7165
4, 6041, Pitch_bend_c, 2, 7285
4, 6042, Pitch_bend_c, 2, 7428
4, 6043, Pitch_bend_c, 2, 7591
4, 6044, Pitch_bend_c, 2, 7768
4, 6045, Pitch_bend_c, 2, 7957
4, 6046, Pitch_bend_c, 2, 8151
4, 6047, Pitch_bend_c, 2, 8347
4, 6048, Note_off_c, 2, 78, 64
4, 6048, Pitch_bend_c, 2, 8192
4, 6048, Note_on_c, 2, 77, 64
4, 6096, Note_off_c, 2, 77, 64
4, 6096, Note_on_c, 2, 78, 64
4, 6144, Note_off_c, 2, 78, 64
4, 6144, Note_on_c, 2, 85, 64
4, 6216, Pitch_bend_c, 2, 7102
4, 6217, Pitch_bend_c, 2, 7205
4, 6218, Pitch_bend_c, 2, 7334
4, 6219, Pitch_bend_c, 2, 7485
4, 6220, Pitch_bend_c, 2, 7653
4, 6221, Pitch_bend_c, 2, 7835
4, 6222, Pitch_bend_c, 2, 8026
4, 6223, Pitch_bend_c, 2, 8222
4, 6224, Pitch_bend_c, 2, 8416
4, 6225, Pitch_bend_c, 2, 8605
4, 6226, Pitch_bend_c, 2, 8784
4, 6227, Pitch_bend_c, 2, 8947
4, 6228, Pitch_bend_c, 2, 9091
4, 6229, Pitch_bend_c, 2, 9213
4, 6230, Pitch_bend_c, 2, 9308
4, 6231, Pitch_bend_c, 2, 9376
4, 6232, Pitch_bend_c, 2, 9413
4, 6233, Pitch_bend_c, 2, 9419
4, 6234, Pitch_bend_c, 2, 9395
4, 6235, Pitch_bend_c, 2, 9339
4, 6236, Pitch_bend_c, 2, 9255
4, 6237, Pitch_bend_c, 2, 9144
4, 6238, Pitch_bend_c, 2, 9008
4, 6239, Pitch_bend_c, 2, 8852
4, 6240, Note_off_c, 2, 85, 64
4, 6240, Pitch_bend_c, 2, 8192
4, 6240, Note_on_c, 2, 78, 64
4, 6288, Note_off_c, 2, 78, 64
4, 6288, Note_on_c, 2, 78, 64
4, 6360, Pitch_bend_c, 2, 8354
4, 6361, Pitch_bend_c, 2, 8159
4, 6362, Pitch_bend_c, 2, 7965
4, 6363, Pitch_bend_c, 2, 7776
4, 6364, Pitch_bend_c, 2, 7598
4, 6365, Pitch_bend_c, 2, 7434
4, 6366, Pitch_bend_c, 2, 7291
4, 6367, Pitch_bend_c, 2, 7169
4, 6368, Pitch_bend_c, 2, 7074
4, 6369, Pitch_bend_c, 2, 7007
4, 6370, Pitch_bend_c, 2, 6971
4, 6371, Pitch_bend_c, 2, 6965
4, 6372, Pitch_bend_c, 2, 6990
4, 6373, Pitch_bend_c, 2, 7046
4, 6374, Pitch_bend_c, 2, 7130
4, 6375, Pitch_bend_c, 2, 7242
4, 6376, Pitch_bend_c, 2, 7378
4, 6377, Pitch_bend_c, 2, 7534
4, 6378, Pitch_bend_c, 2, 7707
4, 6379, Pitch_bend_c, 2, 7893
4, 6380, Pitch_bend_c, 2, 8086
4, 6381, Pitch_bend_c, 2, 8281
4, 6382, Pitch_bend_c, 2, 8475
4, 6383, Pitch_bend_c, 2, 8661
4, 6384, Pitch_bend_c, 2, 8835
4, 6385, Pitch_bend_c, 2, 8993
4, 6386, Pitch_bend_c, 2, 9131
4, 6387, Pitch_bend_c, 2, 9245
4, 6388, Pitch_bend_c, 2, 9332
4, 6389, Pitch_bend_c, 2, 9390
4, 6390, Pitch_bend_c, 2, 9418
4, 6391, Pitch_bend_c, 2, 9415
4, 6392, Pitch_bend_c, 2, 9381
4, 6393, Pitch_bend_c, 2, 9317
4, 6394, Pitch_bend_c, 2, 9224
4, 6395, Pitch_bend_c, 2, 9105
4, 6396, Pitch_bend_c, 2, 8963
4, 6397, Pitch_bend_c, 2, 8801
4, 6398, Pitch_bend_c, 2, 8624
4, 6399, Pitch_bend_c, 2, 8436
4, 6400, Pitch_bend_c, 2, 8242
4, 6401, Pitch_bend_c, 2, 8047
4, 6402, Pitch_bend_c, 2, 7855
4, 6403, Pitch_bend_c, 2, 7672
4, 6404, Pitch_bend_c, 2, 7502
4, 6405, Pitch_bend_c, 2, 7349
4, 6406, Pitch_bend_c, 2, 7218
4, 6407, Pitch_bend_c, 2, 7111
4, 6408, Pitch_bend_c, 2, 7032
4, 6409, Pitch_bend_c, 2, 6982
4, 6410, Pitch_bend_c, 2, 6963
4, 6411, Pitch_bend_c, 2, 6975
4, 6412, Pitch_bend_c, 2, 7018
4, 6413, Pitch_bend_c, 2, 7091
4, 6414, Pitch_bend_c, 2, 7192
4, 6415, Pitch_bend_c, 2, 7318
4, 6416, Pitch_bend_c, 2, 7466
4, 6417, Pitch_bend_c, 2, 7632
4, 6418, Pitch_bend_c, 2, 7813
4, 6419, Pitch_bend_c, 2, 8003
4, 6420, Pitch_bend_c, 2, 8198
4, 6421, Pitch_bend_c, 2, 8393
4, 6422, Pitch_bend_c, 2, 8583
4, 6423, Pitch_bend_c, 2, 8763
4, 6424, Pitch_bend_c, 2, 8928
4, 6425, Pitch_bend_c, 2, 9075
4, 6426, Pitch_bend_c, 2, 9200
4, 6427, Pitch_bend_c, 2, 9298
4, 6428, Pitch_bend_c, 2, 9369
4, 6429, Pitch_bend_c, 2, 9410
4, 6430, Pitch_bend_c, 2, 9420
4, 6431, Pitch_bend_c, 2, 9399
4, 6432, Pitch_bend_c, 2, 9348
4, 6433, Pitch_bend_c, 2, 9267
4, 6434, Pitch_bend_c, 2, 9159
4, 6435, Pitch_bend_c, 2, 9026
4, 6436, Pitch_bend_c, 2, 8872
4, 6437, Pitch_bend_c, 2, 8701
4, 6438, Pitch_bend_c, 2, 8517
4, 6439, Pitch_bend_c, 2, 8325
4, 6440, Pitch_bend_c, 2, 8129
4, 6441, Pitch_bend_c, 2, 7935
4, 6442, Pitch_bend_c, 2, 7748
4, 6443, Pitch_bend_c, 2, 7572
4, 6444, Pitch_bend_c, 2, 7411
4, 6445, Pitch_bend_c, 2, 7271
4, 6446, Pitch_bend_c, 2, 7153
4, 6447, Pitch_bend_c, 2, 7062
4, 6448, Pitch_bend_c, 2, 7000
4, 6449, Pitch_bend_c, 2, 6968
4, 6450, Pitch_bend_c, 2, 6967
4, 6451, Pitch_bend_c, 2, 6996
4, 6452, Pitch_bend_c, 2, 7057
4, 6453, Pitch_bend_c, 2, 7146
4, 6454, Pitch_bend_c, 2, 7261
4, 6455, Pitch_bend_c, 2, 7400
4, 6456, Pitch_bend_c, 2, 7560
4, 6457, Pitch_bend_c, 2, 7735
4, 6458, Pitch_bend_c, 2, 7922
4, 6459, Pitch_bend_c, 2, 8115
4, 6460, Pitch_bend_c, 2, 8311
4, 6461, Pitch_bend_c, 2, 8503
4, 6462, Pitch_bend_c, 2, 8688
4, 6463, Pitch_bend_c, 2, 8860
4, 6464, Pitch_bend_c, 2, 9015
4, 6465, Pitch_bend_c, 2, 9150
4, 6466, Pitch_bend_c, 2, 9260
4, 6467, Pitch_bend_c, 2, 9343
4, 6468, Pitch_bend_c, 2, 9397
4, 6469, Pitch_bend_c, 2, 9420
4, 6470, Pitch_bend_c, 2, 9412
4, 6471, Pitch_bend_c, 2, 9373
4, 6472, Pitch_bend_c, 2, 9304
4, 6473, Pitch_bend_c, 2, 9208
4, 6474, Pitch_bend_c, 2, 9085
4, 6475, Pitch_bend_c, 2, 8940
4, 6476, Pitch_bend_c, 2, 8775
4, 6477, Pitch_bend_c, 2, 8596
4, 6478, Pitch_bend_c, 2, 8407
4, 6479, Pitch_bend_c, 2, 8212
4, 6480, Pitch_bend_c, 2, 8017
4, 6481, Pitch_bend_c, 2, 7826
4, 6482, Pitch_bend_c, 2, 7645
4, 6483, Pitch_bend_c, 2, 7477
4, 6484, Pitch_bend_c, 2, 7328
4, 6485, Pitch_bend_c, 2, 7200
4, 6486, Pitch_bend_c, 2, 7097
4, 6487, Pitch_bend_c, 2, 7023
4, 6488, Pitch_bend_c, 2, 6978
4, 6489, Pitch_bend_c, 2, 6963
4, 6490, Pitch_bend_c, 2, 6980
4, 6491, Pitch_bend_c, 2, 7028
4, 6492, Pitch_bend_c, 2, 7105
4, 6493, Pitch_bend_c, 2, 7209
4, 6494, Pitch_bend_c, 2, 7339
4, 6495, Pitch_bend_c, 2, 7490
4, 6496, Pitch_bend_c, 2, 7659
4, 6497, Pitch_bend_c, 2, 7841
4, 6498, Pitch_bend_c, 2, 8033
4, 6499, Pitch_bend_c, 2, 8228
4, 6500, Pitch_bend_c, 2, 8423
4, 6501, Pitch_bend_c, 2, 8611
4, 6502, Pitch_bend_c, 2, 8789
4, 6503, Pitch_bend_c, 2, 8952
4, 6504, Pitch_bend_c, 2, 9096
4, 6505, Pitch_bend_c, 2, 9216
4, 6506, Pitch_bend_c, 2, 9311
4, 6507, Pitch_bend_c, 2, 9377
4, 6508, Pitch_bend_c, 2, 9414
4, 6509, Pitch_bend_c, 2, 9419
4, 6510, Pitch_bend_c, 2, 9393
4, 6511, Pitch_bend_c, 2, 9337
4, 6512, Pitch_bend_c, 2, 9252
4, 6513, Pitch_bend_c, 2, 9140
4, 6514, Pitch_bend_c, 2, 9004
4, 6515, Pitch_bend_c, 2, 8847
4, 6516, Pitch_bend_c, 2, 8674
4, 6517, Pitch_bend_c, 2, 8488
4, 6518, Pitch_bend_c, 2, 8295
4, 6519, Pitch_bend_c, 2, 8100
4, 6520, Pitch_bend_c, 2, 7906
4, 6521, Pitch_bend_c, 2, 7720
4, 6522, Pitch_bend_c, 2, 7546
4, 6523, Pitch_bend_c, 2, 7388
4, 6524, Pitch_bend_c, 2, 7251
4, 6525, Pitch_bend_c, 2, 7138
4, 6526, Pitch_bend_c, 2, 7051
4, 6527, Pitch_bend_c, 2, 6993
4, 6528, Pitch_bend_c, 2, 6966
4, 6529, Pitch_bend_c, 2, 6969
4, 6530, Pitch_bend_c, 2, 7004
4, 6531, Pitch_bend_c, 2, 7068
4, 6532, Pitch_bend_c, 2, 7162
4, 6533, Pitch_bend_c, 2, 7281
4, 6534, Pitch_bend_c, 2, 7423
4, 6535, Pitch_bend_c, 2, 7585
4, 6536, Pitch_bend_c, 2, 7763
4, 6537, Pitch_bend_c, 2, 7951
4, 6538, Pitch_bend_c, 2, 8145
4, 6539, Pitch_bend_c, 2, 8340
4, 6540, Pitch_bend_c, 2, 8532
4, 6541, Pitch_bend_c, 2, 8715
4, 6542, Pitch_bend_c, 2, 8885
4, 6543, Pitch_bend_c, 2, 9037
4, 6544, Pitch_bend_c, 2, 9168
4, 6545, Pitch_bend_c, 2, 9274
4, 6546, Pitch_bend_c, 2, 9353
4, 6547, Pitch_bend_c, 2, 9402
4, 6548, Pitch_bend_c, 2, 9421
4, 6549, Pitch_bend_c, 2, 9408
4, 6550, Pitch_bend_c, 2, 9365
4, 6551, Pitch_bend_c, 2, 9292
4, 6552, Pitch_bend_c, 2, 9191
4, 6553, Pitch_bend_c, 2, 9064
4, 6554, Pitch_bend_c, 2, 8916
4, 6555, Pitch_bend_c, 2, 8749
4, 6556, Pitch_bend_c, 2, 8568
4, 6557, Pitch_bend_c, 2, 8378
4, 6558, Pitch_bend_c, 2, 8183
4, 6559, Pitch_bend_c, 2, 7988
4, 6560, Pitch_bend_c, 2, 7798
4, 6561, Pitch_bend_c, 2, 7618
4, 6562, Pitch_bend_c, 2, 7453
4, 6563, Pitch_bend_c, 2, 7307
4, 6564, Pitch_bend_c, 2, 7183
4, 6565, Pitch_bend_c, 2, 7084
4, 6566, Pitch_bend_c, 2, 7014
4, 6567, Pitch_bend_c, 2, 6973
4, 6568, Pitch_bend_c, 2, 6964
4, 6569, Pitch_bend_c, 2, 6985
4, 6570, Pitch_bend_c, 2, 7037
4, 6571, Pitch_bend_c, 2, 7119
4, 6572, Pitch_bend_c, 2, 7227
4, 6573, Pitch_bend_c, 2, 7360
4, 6574, Pitch_bend_c, 2, 7515
4, 6575, Pitch_bend_c, 2, 7686
4, 6576, Pitch_bend_c, 2, 7870
4, 6577, Pitch_bend_c, 2, 8062
4, 6578, Pitch_bend_c, 2, 8258
4, 6579, Pitch_bend_c, 2, 8452
4, 6580, Pitch_bend_c, 2, 8639
4, 6581, Pitch_bend_c, 2, 8815
4, 6582, Pitch_bend_c, 2, 8975
4, 6583, Pitch_bend_c, 2, 9116
4, 6584, Pitch_bend_c, 2, 9232
4, 6585, Pitch_bend_c, 2, 9323
4, 6586, Pitch_bend_c, 2, 9385
4, 6587, Pitch_bend_c, 2, 9417
4, 6589, Pitch_bend_c, 2, 9387
4, 6590, Pitch_bend_c, 2, 9326
4, 6591, Pitch_bend_c, 2, 9237
4, 6592, Pitch_bend_c, 2, 9121
4, 6593, Pitch_bend_c, 2, 8981
4, 6594, Pitch_bend_c, 2, 8822
4, 6595, Pitch_bend_c, 2, 8646
4, 6596, Pitch_bend_c, 2, 8459
4, 6597, Pitch_bend_c, 2, 8266
4, 6598, Pitch_bend_c, 2, 8070
4, 6599, Pitch_bend_c, 2, 7877
4, 6600, Pitch_bend_c, 2, 7693
4, 6601, Pitch_bend_c, 2, 7521
4, 6602, Pitch_bend_c, 2, 7366
4, 6603, Pitch_bend_c, 2, 7232
4, 6604, Pitch_bend_c, 2, 7123
4, 6605, Pitch_bend_c, 2, 7040
4, 6606, Pitch_bend_c, 2, 6987
4, 6607, Pitch_bend_c, 2, 6964
4, 6608, Pitch_bend_c, 2, 6972
4, 6609, Pitch_bend_c, 2, 7012
4, 6610, Pitch_bend_c, 2, 7081
4, 6611, Pitch_bend_c, 2, 7178
4, 6612, Pitch_bend_c, 2, 7301
4, 6613, Pitch_bend_c, 2, 7447
4, 6614, Pitch_bend_c, 2, 7611
4, 6615, Pitch_bend_c, 2, 7791
4, 6616, Pitch_bend_c, 2, 7980
4, 6617, Pitch_bend_c, 2, 8175
4, 6618, Pitch_bend_c, 2, 8370
4, 6619, Pitch_bend_c, 2, 8561
4, 6620, Pitch_bend_c, 2, 8742
4, 6621, Pitch_bend_c, 2, 8909
4, 6622, Pitch_bend_c, 2, 9059
4, 6623, Pitch_bend_c, 2, 9186
4, 6624, Pitch_bend_c, 2, 9288
4, 6625, Pitch_bend_c, 2, 9362
4, 6626, Pitch_bend_c, 2, 9407
4, 6627, Pitch_bend_c, 2, 9421
4, 6628, Pitch_bend_c, 2, 9403
4, 6629, Pitch_bend_c, 2, 9355
4, 6630, Pitch_bend_c, 2, 9278
4, 6631, Pitch_bend_c, 2, 9173
4, 6632, Pitch_bend_c, 2, 9043
4, 6633, Pitch_bend_c, 2, 8892
4, 6634, Pitch_bend_c, 2, 8722
4, 6635, Pitch_bend_c, 2, 8540
4, 6636, Pitch_bend_c, 2, 8348
4, 6637, Pitch_bend_c, 2, 8153
4, 6638, Pitch_bend_c, 2, 7958
4, 6639, Pitch_bend_c, 2, 7770
4, 6640, Pitch_bend_c, 2, 7592
4, 6641, Pitch_bend_c, 2, 7430
4, 6642, Pitch_bend_c, 2, 7286
4, 6643, Pitch_bend_c, 2, 7166
4, 6644, Pitch_bend_c, 2, 7072
4, 6645, Pitch_bend_c, 2, 7006
4, 6646, Pitch_bend_c, 2, 6970
4, 6647, Pitch_bend_c, 2, 6965
4, 6648, Pitch_bend_c, 2, 6991
4, 6649, Pitch_bend_c, 2, 7048
4, 6650, Pitch_bend_c, 2, 7134
4, 6651, Pitch_bend_c, 2, 7246
4, 6652, Pitch_bend_c, 2, 7383
4, 6653, Pitch_bend_c, 2, 7540
4, 6654, Pitch_bend_c, 2, 7713
4, 6655, Pitch_bend_c, 2, 7899
4, 6656, Pitch_bend_c, 2, 8092
4, 6657, Pitch_bend_c, 2, 8287
4, 6658, Pitch_bend_c, 2, 8481
4, 6659, Pitch_bend_c, 2, 8667
4, 6660, Pitch_bend_c, 2, 8840
4, 6661, Pitch_bend_c, 2, 8998
4, 6662, Pitch_bend_c, 2, 9135
4, 6663, Pitch_bend_c, 2, 9248
4, 6664, Pitch_bend_c, 2, 9334
4, 6665, Pitch_bend_c, 2, 9392
4, 6666, Pitch_bend_c, 2, 9419
4, 6667, Pitch_bend_c, 2, 9415
4, 6668, Pitch_bend_c, 2, 9379
4, 6669, Pitch_bend_c, 2, 9314
4, 6670, Pitch_bend_c, 2, 9221
4, 6671, Pitch_bend_c, 2, 9101
4, 6672, Pitch_bend_c, 2, 8958
4, 6673, Pitch_bend_c, 2, 8796
4, 6674, Pitch_bend_c, 2, 8618
4, 6675, Pitch_bend_c, 2, 8430
4, 6676, Pitch_bend_c, 2, 8236
4, 6677, Pitch_bend_c, 2, 8040
4, 6678, Pitch_bend_c, 2, 7849
4, 6679, Pitch_bend_c, 2, 7666
4, 6680, Pitch_bend_c, 2, 7496
4, 6681, Pitch_bend_c, 2, 7344
4, 6682, Pitch_bend_c, 2, 7214
4, 6683, Pitch_bend_c, 2, 7108
4, 6684, Pitch_bend_c, 2, 7030
4, 6685, Pitch_bend_c, 2, 6981
4, 6686, Pitch_bend_c, 2, 6963
4, 6687, Pitch_bend_c, 2, 6976
4, 6688, Pitch_bend_c, 2, 7020
4, 6689, Pitch_bend_c, 2, 7094
4, 6690, Pitch_bend_c, 2, 7195
4, 6691, Pitch_bend_c, 2, 7322
4, 6692, Pitch_bend_c, 2, 7471
4, 6693, Pitch_bend_c, 2, 7638
4, 6694, Pitch_bend_c, 2, 7819
4, 6695, Pitch_bend_c, 2, 8009
4, 6696, Pitch_bend_c, 2, 8205
4, 6697, Pitch_bend_c, 2, 8399
4, 6698, Pitch_bend_c, 2, 8589
4, 6699, Pitch_bend_c, 2, 8768
4, 6700, Pitch_bend_c, 2, 8933
4, 6701, Pitch_bend_c, 2, 9080
4, 6702, Pitch_bend_c, 2, 9203
4, 6703, Pitch_bend_c, 2, 9301
4, 6704, Pitch_bend_c, 2, 9371
4, 6705, Pitch_bend_c, 2, 9411
4, 6706, Pitch_bend_c, 2, 9420
4, 6707, Pitch_bend_c, 2, 9398
4, 6708, Pitch_bend_c, 2, 9345
4, 6709, Pitch_bend_c, 2, 9264
4, 6710, Pitch_bend_c, 2, 9155
4, 6711, Pitch_bend_c, 2, 9021
4, 6712, Pitch_bend_c, 2, 8867
4, 6713, Pitch_bend_c, 2, 8695
4, 6714, Pitch_bend_c, 2, 8511
4, 6715, Pitch_bend_c, 2, 8319
4, 6716, Pitch_bend_c, 2, 8123
4, 6717, Pitch_bend_c, 2, 7929
4, 6718, Pitch_bend_c, 2, 7742
4, 6719, Pitch_bend_c, 2, 7566
4, 6720, Pitch_bend_c, 2, 7406
4, 6721, Pitch_bend_c, 2, 7266
4, 6722, Pitch_bend_c, 2, 7150
4, 6723, Pitch_bend_c, 2, 7060
4, 6724, Pitch_bend_c, 2, 6998
4, 6725, Pitch_bend_c, 2, 6967
4, 6727, Pitch_bend_c, 2, 6998
4, 6728, Pitch_bend_c, 2, 7059
4, 6729, Pitch_bend_c, 2, 7149
4, 6730, Pitch_bend_c, 2, 7265
4, 6731, Pitch_bend_c, 2, 7405
4, 6732, Pitch_bend_c, 2, 7565
4, 6733, Pitch_bend_c, 2, 7741
4, 6734, Pitch_bend_c, 2, 7928
4, 6735, Pitch_bend_c, 2, 8122
4, 6736, Pitch_bend_c, 2, 8317
4, 6737, Pitch_bend_c, 2, 8510
4, 6738, Pitch_bend_c, 2, 8694
4, 6739, Pitch_bend_c, 2, 8866
4, 6740, Pitch_bend_c, 2, 9020
4, 6741, Pitch_bend_c, 2, 9154
4, 6742, Pitch_bend_c, 2, 9263
4, 6743, Pitch_bend_c, 2, 9345
4, 6744, Pitch_bend_c, 2, 9398
4, 6745, Pitch_bend_c, 2, 9420
4, 6746, Pitch_bend_c, 2, 9411
4, 6747, Pitch_bend_c, 2, 9371
4, 6748, Pitch_bend_c, 2, 9302
4, 6749, Pitch_bend_c, 2, 9204
4, 6750, Pitch_bend_c, 2, 9081
4, 6751, Pitch_bend_c, 2, 8935
4, 6752, Pitch_bend_c, 2, 8770
4, 6753, Pitch_bend_c, 2, 8590
4, 6754, Pitch_bend_c, 2, 8401
4, 6755, Pitch_bend_c, 2, 8206
4, 6756, Pitch_bend_c, 2, 8011
4, 6757, Pitch_bend_c, 2, 7820
4, 6758, Pitch_bend_c, 2, 7639
4, 6759, Pitch_bend_c, 2, 7472
4, 6760, Pitch_bend_c, 2, 7323
4, 6761, Pitch_bend_c, 2, 7196
4, 6762, Pitch_bend_c, 2, 7095
4, 6763, Pitch_bend_c, 2, 7021
4, 6764, Pitch_bend_c, 2, 6977
4, 6765, Pitch_bend_c, 2, 6963
4, 6766, Pitch_bend_c, 2, 6981
4, 6767, Pitch_bend_c, 2, 7030
4, 6768, Pitch_bend_c, 2, 7108
4, 6769, Pitch_bend_c, 2, 7213
4, 6770, Pitch_bend_c, 2, 7343
4, 6771, Pitch_bend_c, 2, 7495
4, 6772, Pitch_bend_c, 2, 7664
4, 6773, Pitch_bend_c, 2, 7847
4, 6774, Pitch_bend_c, 2, 8039
4, 6775, Pitch_bend_c, 2, 8234
4, 6776, Pitch_bend_c, 2, 8429
4, 6777, Pitch_bend_c, 2, 8617
4, 6778, Pitch_bend_c, 2, 8795
4, 6779, Pitch_bend_c, 2, 8957
4, 6780, Pitch_bend_c, 2, 9100
4, 6781, Pitch_bend_c, 2, 9220
4, 6782, Pitch_bend_c, 2, 9314
4, 6783, Pitch_bend_c, 2, 9379
4, 6784, Pitch_bend_c, 2, 9414
4, 6785, Pitch_bend_c, 2, 9419
4, 6786, Pitch_bend_c, 2, 9392
4, 6787, Pitch_bend_c, 2, 9335
4, 6788, Pitch_bend_c, 2, 9249
4, 6789, Pitch_bend_c, 2, 9136
4, 6790, Pitch_bend_c, 2, 8999
4, 6791, Pitch_bend_c, 2, 8842
4, 6792, Note_off_c, 2, 78, 64
4, 6816, Pitch_bend_c, 2, 8192
4, 6816, Note_on_c, 2, 78, 64
4, 6864, Note_off_c, 2, 78, 64
4, 6864, Note_on_c, 2, 78, 64
4, 6912, Note_off_c, 2, 78, 64
4, 6912, Note_on_c, 2, 78, 64
4, 6984, Pitch_bend_c, 2, 7102
4, 6985, Pitch_bend_c, 2, 7205
4, 6986, Pitch_bend_c, 2, 7334
4, 6987, Pitch_bend_c, 2, 7485
4, 6988, Pitch_bend_c, 2, 7653
4, 6989, Pitch_bend_c, 2, 7835
4, 6990, Pitch_bend_c, 2, 8026
4, 6991, Pitch_bend_c, 2, 8222
4, 6992, Pitch_bend_c, 2, 8416
4, 6993, Pitch_bend_c, 2, 8605
4, 6994, Pitch_bend_c, 2, 8784
4, 6995, Pitch_bend_c, 2, 8947
4, 6996, Pitch_bend_c, 2, 9091
4, 6997, Pitch_bend_c, 2, 9213
4, 6998, Pitch_bend_c, 2, 9308
4, 6999, Pitch_bend_c, 2, 9376
4, 7000, Pitch_bend_c, 2, 9413
4, 7001, Pitch_bend_c, 2, 9419
4, 7002, Pitch_bend_c, 2, 9395
4, 7003, Pitch_bend_c, 2, 9339
4, 7004, Pitch_bend_c, 2, 9255
4, 7005, Pitch_bend_c, 2, 9144
4, 7006, Pitch_bend_c, 2, 9008
4, 7007, Pitch_bend_c, 2, 8852
4, 7008, Pitch_bend_c, 2, 8680
4, 7009, Pitch_bend_c, 2, 8494
4, 7010, Pitch_bend_c, 2, 8302
4, 7011, Pitch_bend_c, 2, 8106
4, 7012, Pitch_bend_c, 2, 7912
4, 7013, Pitch_bend_c, 2, 7726
4, 7014, Pitch_bend_c, 2, 7552
4, 7015, Pitch_bend_c, 2, 7393
4, 7016, Pitch_bend_c, 2, 7255
4, 7017, Pitch_bend_c, 2, 7141
4, 7018, Pitch_bend_c, 2, 7053
4, 7019, Pitch_bend_c, 2, 6994
4, 7020, Pitch_bend_c, 2, 6966
4, 7021, Pitch_bend_c, 2, 6969
4, 7022, Pitch_bend_c, 2, 7002
4, 7023, Pitch_bend_c, 2, 7066
4, 7024, Pitch_bend_c, 2, 7158
4, 7025, Pitch_bend_c, 2, 7277
4, 7026, Pitch_bend_c, 2, 7419
4, 7027, Pitch_bend_c, 2, 7580
4, 7028, Pitch_bend_c, 2, 7757
4, 7029, Pitch_bend_c, 2, 7945
4, 7030, Pitch_bend_c, 2, 8139
4, 7031, Pitch_bend_c, 2, 8334
4, 7032, Pitch_bend_c, 2, 8526
4, 7033, Pitch_bend_c, 2, 8710
4, 7034, Pitch_bend_c, 2, 8880
4, 7035, Pitch_bend_c, 2, 9033
4, 7036, Pitch_bend_c, 2, 9164
4, 7037, Pitch_bend_c, 2, 9271
4, 7038, Pitch_bend_c, 2, 9351
4, 7039, Pitch_bend_c, 2, 9401
4, 7040, Pitch_bend_c, 2, 9421
4, 7041, Pitch_bend_c, 2, 9409
4, 7042, Pitch_bend_c, 2, 9367
4, 7043, Pitch_bend_c, 2, 9294
4, 7044, Pitch_bend_c, 2, 9194
4, 7045, Pitch_bend_c, 2, 9069
4, 7046, Pitch_bend_c, 2, 8921
4, 7047, Pitch_bend_c, 2, 8755
4, 7048, Pitch_bend_c, 2, 8574
4, 7049, Pitch_bend_c, 2, 8384
4, 7050, Pitch_bend_c, 2, 8189
4, 7051, Pitch_bend_c, 2, 7994
4, 7052, Pitch_bend_c, 2, 7804
4, 7053, Pitch_bend_c, 2, 7624
4, 7054, Pitch_bend_c, 2, 7458
4, 7055, Pitch_bend_c, 2, 7311
4, 7056, Pitch_bend_c, 2, 7186
4, 7057, Pitch_bend_c, 2, 7087
4, 7058, Pitch_bend_c, 2, 7016
4, 7059, Pitch_bend_c, 2, 6974
4, 7060, Pitch_bend_c, 2, 6964
4, 7061, Pitch_bend_c, 2, 6984
4, 7062, Pitch_bend_c, 2, 7035
4, 7063, Pitch_bend_c, 2, 7116
4, 7064, Pitch_bend_c, 2, 7224
4, 7065, Pitch_bend_c, 2, 7356
4, 7066, Pitch_bend_c, 2, 7509
4, 7067, Pitch_bend_c, 2, 7680
4, 7068, Pitch_bend_c, 2, 7864
4, 7069, Pitch_bend_c, 2, 8056
4, 7070, Pitch_bend_c, 2, 8252
4, 7071, Pitch_bend_c, 2, 8446
4, 7072, Pitch_bend_c, 2, 8633
4, 7073, Pitch_bend_c, 2, 8810
4, 7074, Pitch_bend_c, 2, 8970
4, 7075, Pitch_bend_c, 2, 9111
4, 7076, Pitch_bend_c, 2, 9229
4, 7077, Pitch_bend_c, 2, 9321
4, 7078, Pitch_bend_c, 2, 9383
4, 7079, Pitch_bend_c, 2, 9416
4, 7080, Pitch_bend_c, 2, 9418
4, 7081, Pitch_bend_c, 2, 9388
4, 7082, Pitch_bend_c, 2, 9328
4, 7083, Pitch_bend_c, 2, 9240
4, 7084, Pitch_bend_c, 2, 9125
4, 7085, Pitch_bend_c, 2, 8986
4, 7086, Pitch_bend_c, 2, 8827
4, 7087, Pitch_bend_c, 2, 8652
4, 7088, Pitch_bend_c, 2, 8465
4, 7089, Pitch_bend_c, 2, 8272
4, 7090, Pitch_bend_c, 2, 8076
4, 7091, Pitch_bend_c, 2, 7884
4, 7092, Pitch_bend_c, 2, 7699
4, 7093, Pitch_bend_c, 2, 7526
4, 7094, Pitch_bend_c, 2, 7371
4, 7095, Pitch_bend_c, 2, 7236
4, 7096, Pitch_bend_c, 2, 7126
4, 7097, Pitch_bend_c, 2, 7042
4, 7098, Pitch_bend_c, 2, 6988
4, 7099, Pitch_bend_c, 2, 6964
4, 7100, Pitch_bend_c, 2, 6972
4, 7101, Pitch_bend_c, 2, 7010
4, 7102, Pitch_bend_c, 2, 7078
4, 7103, Pitch_bend_c, 2, 7175
4, 7104, Pitch_bend_c, 2, 7297
4, 7105, Pitch_bend_c, 2, 7442
4, 7106, Pitch_bend_c, 2, 7606
4, 7107, Pitch_bend_c, 2, 7785
4, 7108, Pitch_bend_c, 2, 7974
4, 7109, Pitch_bend_c, 2, 8169
4, 7110, Pitch_bend_c, 2, 8364
4, 7111, Pitch_bend_c, 2, 8555
4, 7112, Pitch_bend_c, 2, 8736
4, 7113, Pitch_bend_c, 2, 8904
4, 7114, Pitch_bend_c, 2, 9054
4, 7115, Pitch_bend_c, 2, 9182
4, 7116, Pitch_bend_c, 2, 9285
4, 7117, Pitch_bend_c, 2, 9360
4, 7118, Pitch_bend_c, 2, 9406
4, 7119, Pitch_bend_c, 2, 9421
4, 7120, Pitch_bend_c, 2, 9404
4, 7121, Pitch_bend_c, 2, 9357
4, 7122, Pitch_bend_c, 2, 9281
4, 7123, Pitch_bend_c, 2, 9177
4, 7124, Pitch_bend_c, 2, 9047
4, 7125, Pitch_bend_c, 2, 8897
4, 7126, Pitch_bend_c, 2, 8728
4, 7127, Pitch_bend_c, 2, 8546
4, 7128, Pitch_bend_c, 2, 8354
4, 7129, Pitch_bend_c, 2, 8159
4, 7130, Pitch_bend_c, 2, 7965
4, 7131, Pitch_bend_c, 2, 7776
4, 7132, Pitch_bend_c, 2, 7598
4, 7133, Pitch_bend_c, 2, 7434
4, 7134, Pitch_bend_c, 2, 7291
4, 7135, Pitch_bend_c, 2, 7169
4, 7136, Pitch_bend_c, 2, 7074
4, 7137, Pitch_bend_c, 2, 7007
4, 7138, Pitch_bend_c, 2, 6971
4, 7139, Pitch_bend_c, 2, 6965
4, 7140, Pitch_bend_c, 2, 6990
4, 7141, Pitch_bend_c, 2, 7046
4, 7142, Pitch_bend_c, 2, 7130
4, 7143, Pitch_bend_c, 2, 7242
4, 7144, Pitch_bend_c, 2, 7378
4, 7145, Pitch_bend_c, 2, 7534
4, 7146, Pitch_bend_c, 2, 7707
4, 7147, Pitch_bend_c, 2, 7893
4, 7148, Pitch_bend_c, 2, 8086
4, 7149, Pitch_bend_c, 2, 8281
4, 7150, Pitch_bend_c, 2, 8475
4, 7151, Pitch_bend_c, 2, 8661
4, 7152, Note_off_c, 2, 78, 64
4, 7152, Pitch_bend_c, 2, 8192
4, 7152, Note_on_c, 2, 80, 64
4, 7200, Note_off_c, 2, 80, 64
4, 7200, Note_on_c, 2, 78, 64
4, 7248, Note_off_c, 2, 78, 64
4, 7248, Note_on_c, 2, 77, 64
4, 7320, Pitch_bend_c, 2, 9191
4, 7321, Pitch_bend_c, 2, 9064
4, 7322, Pitch_bend_c, 2, 8916
4, 7323, Pitch_bend_c, 2, 8749
4, 7324, Pitch_bend_c, 2, 8568
4, 7325, Pitch_bend_c, 2, 8378
4, 7326, Pitch_bend_c, 2, 8183
4, 7327, Pitch_bend_c, 2, 7988
4, 7328, Pitch_bend_c, 2, 7798
4, 7329, Pitch_bend_c, 2, 7618
4, 7330, Pitch_bend_c, 2, 7453
4, 7331, Pitch_bend_c, 2, 7307
4, 7332, Pitch_bend_c, 2, 7183
4, 7333, Pitch_bend_c, 2, 7084
4, 7334, Pitch_bend_c, 2, 7014
4, 7335, Pitch_bend_c, 2, 6973
4, 7336, Pitch_bend_c, 2, 6964
4, 7337, Pitch_bend_c, 2, 6985
4, 7338, Pitch_bend_c, 2, 7037
4, 7339, Pitch_bend_c, 2, 7119
4, 7340, Pitch_bend_c, 2, 7227
4, 7341, Pitch_bend_c, 2, 7360
4, 7342, Pitch_bend_c, 2, 7515
4, 7343, Pitch_bend_c, 2, 7686
4, 7344, Pitch_bend_c, 2, 7870
4, 7345, Pitch_bend_c, 2, 8062
4, 7346, Pitch_bend_c, 2, 8258
4, 7347, Pitch_bend_c, 2, 8452
4, 7348, Pitch_bend_c, 2, 8639
4, 7349, Pitch_bend_c, 2, 8815
4, 7350, Pitch_bend_c, 2, 8975
4, 7351, Pitch_bend_c, 2, 9116
4, 7352, Pitch_bend_c, 2, 9232
4, 7353, Pitch_bend_c, 2, 9323
4, 7354, Pitch_bend_c, 2, 9385
4, 7355, Pitch_bend_c, 2, 9417
4, 7357, Pitch_bend_c, 2, 9387
4, 7358, Pitch_bend_c, 2, 9326
4, 7359, Pitch_bend_c, 2, 9237
4, 7360, Pitch_bend_c, 2, 9121
4, 7361, Pitch_bend_c, 2, 8981
4, 7362, Pitch_bend_c, 2, 8822
4, 7363, Pitch_bend_c, 2, 8646
4, 7364, Pitch_bend_c, 2, 8459
4, 7365, Pitch_bend_c, 2, 8266
4, 7366, Pitch_bend_c, 2, 8070
4, 7367, Pitch_bend_c, 2, 7877
4, 7368, Pitch_bend_c, 2, 7693
4, 7369, Pitch_bend_c, 2, 7521
4, 7370, Pitch_bend_c, 2, 7366
4, 7371, Pitch_bend_c, 2, 7232
4, 7372, Pitch_bend_c, 2, 7123
4, 7373, Pitch_bend_c, 2, 7040
4, 7374, Pitch_bend_c, 2, 6987
4, 7375, Pitch_bend_c, 2, 6964
4, 7376, Pitch_bend_c, 2, 6972
4, 7377, Pitch_bend_c, 2, 7012
4, 7378, Pitch_bend_c, 2, 7081
4, 7379, Pitch_bend_c, 2, 7178
4, 7380, Pitch_bend_c, 2, 7301
4, 7381, Pitch_bend_c, 2, 7447
4, 7382, Pitch_bend_c, 2, 7611
4, 7383, Pitch_bend_c, 2, 7791
4, 7384, Pitch_bend_c, 2, 7980
4, 7385, Pitch_bend_c, 2, 8175
4, 7386, Pitch_bend_c, 2, 8370
4, 7387, Pitch_bend_c, 2, 8561
4, 7388, Pitch_bend_c, 2, 8742
4, 7389, Pitch_bend_c, 2, 8909
4, 7390, Pitch_bend_c, 2, 9059
4, 7391, Pitch_bend_c, 2, 9186
4, 7392, Pitch_bend_c, 2, 9288
4, 7393, Pitch_bend_c, 2, 9362
4, 7394, Pitch_bend_c, 2, 9407
4, 7395, Pitch_bend_c, 2, 9421
4, 7396, Pitch_bend_c, 2, 9403
4, 7397, Pitch_bend_c, 2, 9355
4, 7398, Pitch_bend_c, 2, 9278
4, 7399, Pitch_bend_c, 2, 9173
4, 7400, Pitch_bend_c, 2, 9043
4, 7401, Pitch_bend_c, 2, 8892
4, 7402, Pitch_bend_c, 2, 8722
4, 7403, Pitch_bend_c, 2, 8540
4, 7404, Pitch_bend_c, 2, 8348
4, 7405, Pitch_bend_c, 2, 8153
4, 7406, Pitch_bend_c, 2, 7958
4, 7407, Pitch_bend_c, 2, 7770
4, 7408, Pitch_bend_c, 2, 7592
4, 7409, Pitch_bend_c, 2, 7430
4, 7410, Pitch_bend_c, 2, 7286
4, 7411, Pitch_bend_c, 2, 7166
4, 7412, Pitch_bend_c, 2, 7072
4, 7413, Pitch_bend_c, 2, 7006
4, 7414, Pitch_bend_c, 2, 6970
4, 7415, Pitch_bend_c, 2, 6965
4, 7416, Pitch_bend_c, 2, 6991
4, 7417, Pitch_bend_c, 2, 7048
4, 7418, Pitch_bend_c, 2, 7134
4, 7419, Pitch_bend_c, 2, 7246
4, 7420, Pitch_bend_c, 2, 7383
4, 7421, Pitch_bend_c, 2, 7540
4, 7422, Pitch_bend_c, 2, 7713
4, 7423, Pitch_bend_c, 2, 7899
4, 7424, Pitch_bend_c, 2, 8092
4, 7425, Pitch_bend_c, 2, 8287
4, 7426, Pitch_bend_c, 2, 8481
4, 7427, Pitch_bend_c, 2, 8667
4, 7428, Pitch_bend_c, 2, 8840
4, 7429, Pitch_bend_c, 2, 8998
4, 7430, Pitch_bend_c, 2, 9135
4, 7431, Pitch_bend_c, 2, 9248
4, 7432, Pitch_bend_c, 2, 9334
4, 7433, Pitch_bend_c, 2, 9392
4, 7434, Pitch_bend_c, 2, 9419
4, 7435, Pitch_bend_c, 2, 9415
4, 7436, Pitch_bend_c, 2, 9379
4, 7437, Pitch_bend_c, 2, 9314
4, 7438, Pitch_bend_c, 2, 9221
4, 7439, Pitch_bend_c, 2, 9101
4, 7440, Pitch_bend_c, 2, 8958
4, 7441, Pitch_bend_c, 2, 8796
4, 7442, Pitch_bend_c, 2, 8618
4, 7443, Pitch_bend_c, 2, 8430
4, 7444, Pitch_bend_c, 2, 8236
4, 7445, Pitch_bend_c, 2, 8040
4, 7446, Pitch_bend_c, 2, 7849
4, 7447, Pitch_bend_c, 2, 7666
4, 7448, Pitch_bend_c, 2, 7496
4, 7449, Pitch_bend_c, 2, 7344
4, 7450, Pitch_bend_c, 2, 7214
4, 7451, Pitch_bend_c, 2, 7108
4, 7452, Pitch_bend_c, 2, 7030
4, 7453, Pitch_bend_c, 2, 6981
4, 7454, Pitch_bend_c, 2, 6963
4, 7455, Pitch_bend_c, 2, 6976
4, 7456, Pitch_bend_c, 2, 7020
4, 7457, Pitch_bend_c, 2, 7094
4, 7458, Pitch_bend_c, 2, 7195
4, 7459, Pitch_bend_c, 2, 7322
4, 7460, Pitch_bend_c, 2, 7471
4, 7461, Pitch_bend_c, 2, 7638
4, 7462, Pitch_bend_c, 2, 7819
4, 7463, Pitch_bend_c, 2, 8009
4, 7464, Pitch_bend_c, 2, 8205
4, 7465, Pitch_bend_c, 2, 8399
4, 7466, Pitch_bend_c, 2, 8589
4, 7467, Pitch_bend_c, 2, 8768
4, 7468, Pitch_bend_c, 2, 8933
4, 7469, Pitch_bend_c, 2, 9080
4, 7470, Pitch_bend_c, 2, 9203
4, 7471, Pitch_bend_c, 2, 9301
4, 7472, Pitch_bend_c, 2, 9371
4, 7473, Pitch_bend_c, 2, 9411
4, 7474, Pitch_bend_c, 2, 9420
4, 7475, Pitch_bend_c, 2, 9398
4, 7476, Pitch_bend_c, 2, 9345
4, 7477, Pitch_bend_c, 2, 9264
4, 7478, Pitch_bend_c, 2, 9155
4, 7479, Pitch_bend_c, 2, 9021
4, 7480, Pitch_bend_c, 2, 8867
4, 7481, Pitch_bend_c, 2, 8695
4, 7482, Pitch_bend_c, 2, 8511
4, 7483, Pitch_bend_c, 2, 8319
4, 7484, Pitch_bend_c, 2, 8123
4, 7485, Pitch_bend_c, 2, 7929
4, 7486, Pitch_bend_c, 2, 7742
4, 7487, Pitch_bend_c, 2, 7566
4, 7488, Pitch_bend_c, 2, 7406
4, 7489, Pitch_bend_c, 2, 7266
4, 7490, Pitch_bend_c, 2, 7150
4, 7491, Pitch_bend_c, 2, 7060
4, 7492, Pitch_bend_c, 2, 6998
4, 7493, Pitch_bend_c, 2, 6967
4, 7495, Pitch_bend_c, 2, 6998
4, 7496, Pitch_bend_c, 2, 7059
4, 7497, Pitch_bend_c, 2, 7149
4, 7498, Pitch_bend_c, 2, 7265
4, 7499, Pitch_bend_c, 2, 7405
4, 7500, Pitch_bend_c, 2, 7565
4, 7501, Pitch_bend_c, 2, 7741
4, 7502, Pitch_bend_c, 2, 7928
4, 7503, Pitch_bend_c, 2, 8122
4, 7504, Pitch_bend_c, 2, 8317
4, 7505, Pitch_bend_c, 2, 8510
4, 7506, Pitch_bend_c, 2, 8694
4, 7507, Pitch_bend_c, 2, 8866
4, 7508, Pitch_bend_c, 2, 9020
4, 7509, Pitch_bend_c, 2, 9154
4, 7510, Pitch_bend_c, 2, 9263
4, 7511, Pitch_bend_c, 2, 9345
4, 7512, Pitch_bend_c, 2, 9398
4, 7513, Pitch_bend_c, 2, 9420
4, 7514, Pitch_bend_c, 2, 9411
4, 7515, Pitch_bend_c, 2, 9371
4, 7516, Pitch_bend_c, 2, 9302
4, 7517, Pitch_bend_c, 2, 9204
4, 7518, Pitch_bend_c, 2, 9081
4, 7519, Pitch_bend_c, 2, 8935
4, 7520, Pitch_bend_c, 2, 8770
4, 7521, Pitch_bend_c, 2, 8590
4, 7522, Pitch_bend_c, 2, 8401
4, 7523, Pitch_bend_c, 2, 8206
4, 7524, Pitch_bend_c, 2, 8011
4, 7525, Pitch_bend_c, 2, 7820
4, 7526, Pitch_bend_c, 2, 7639
4, 7527, Pitch_bend_c, 2, 7472
4, 7528, Pitch_bend_c, 2, 7323
4, 7529, Pitch_bend_c, 2, 7196
4, 7530, Pitch_bend_c, 2, 7095
4, 7531, Pitch_bend_c, 2, 7021
4, 7532, Pitch_bend_c, 2, 6977
4, 7533, Pitch_bend_c, 2, 6963
4, 7534, Pitch_bend_c, 2, 6981
4, 7535, Pitch_bend_c, 2, 7030
4, 7536, Pitch_bend_c, 2, 7108
4, 7537, Pitch_bend_c, 2, 7213
4, 7538, Pitch_bend_c, 2, 7343
4, 7539, Pitch_bend_c, 2, 7495
4, 7540, Pitch_bend_c, 2, 7664
4, 7541, Pitch_bend_c, 2, 7847
4, 7542, Pitch_bend_c, 2, 8039
4, 7543, Pitch_bend_c, 2, 8234
4, 7544, Pitch_bend_c, 2, 8429
4, 7545, Pitch_bend_c, 2, 8617
4, 7546, Pitch_bend_c, 2, 8795
4, 7547, Pitch_bend_c, 2, 8957
4, 7548, Pitch_bend_c, 2, 9100
4, 7549, Pitch_bend_c, 2, 9220
4, 7550, Pitch_bend_c, 2, 9314
4, 7551, Pitch_bend_c, 2, 9379
4, 7552, Pitch_bend_c, 2, 9414
4, 7553, Pitch_bend_c, 2, 9419
4, 7554, Pitch_bend_c, 2, 9392
4, 7555, Pitch_bend_c, 2, 9335
4, 7556, Pitch_bend_c, 2, 9249
4, 7557, Pitch_bend_c, 2, 9136
4, 7558, Pitch_bend_c, 2, 8999
4, 7559, Pitch_bend_c, 2, 8842
4, 7560, Pitch_bend_c, 2, 8668
4, 7561, Pitch_bend_c, 2, 8482
4, 7562, Pitch_bend_c, 2, 8289
4, 7563, Pitch_bend_c, 2, 8093
4, 7564, Pitch_bend_c, 2, 7900
4, 7565, Pitch_bend_c, 2, 7715
4, 7566, Pitch_bend_c, 2, 7541
4, 7567, Pitch_bend_c, 2, 7384
4, 7568, Pitch_bend_c, 2, 7247
4, 7569, Pitch_bend_c, 2, 7134
4, 7570, Pitch_bend_c, 2, 7049
4, 7571, Pitch_bend_c, 2, 6992
4, 7572, Pitch_bend_c, 2, 6965
4, 7573, Pitch_bend_c, 2, 6970
4, 7574, Pitch_bend_c, 2, 7005
4, 7575, Pitch_bend_c, 2, 7071
4, 7576, Pitch_bend_c, 2, 7165
4, 7577, Pitch_bend_c, 2, 7285
4, 7578, Pitch_bend_c, 2, 7428
4, 7579, Pitch_bend_c, 2, 7591
4, 7580, Pitch_bend_c, 2, 7768
4, 7581, Pitch_bend_c, 2, 7957
4, 7582, Pitch_bend_c, 2, 8151
4, 7583, Pitch_bend_c, 2, 8347
4, 7584, Pitch_bend_c, 2, 8538
4, 7585, Pitch_bend_c, 2, 8721
4, 7586, Pitch_bend_c, 2, 8890
4, 7587, Pitch_bend_c, 2, 9042
4, 7588, Pitch_bend_c, 2, 9172
4, 7589, Pitch_bend_c, 2, 9277
4, 7590, Pitch_bend_c, 2, 9355
4, 7591, Pitch_bend_c, 2, 9403
4, 7592, Pitch_bend_c, 2, 9421
4, 7593, Pitch_bend_c, 2, 9407
4, 7594, Pitch_bend_c, 2, 9363
4, 7595, Pitch_bend_c, 2, 9289
4, 7596, Pitch_bend_c, 2, 9187
4, 7597, Pitch_bend_c, 2, 9060
4, 7598, Pitch_bend_c, 2, 8911
4, 7599, Pitch_bend_c, 2, 8743
4, 7600, Pitch_bend_c, 2, 8562
4, 7601, Pitch_bend_c, 2, 8372
4, 7602, Pitch_bend_c, 2, 8176
4, 7603, Pitch_bend_c, 2, 7982
4, 7604, Pitch_bend_c, 2, 7792
4, 7605, Pitch_bend_c, 2, 7613
4, 7606, Pitch_bend_c, 2, 7448
4, 7607, Pitch_bend_c, 2, 7302
4, 7608, Pitch_bend_c, 2, 7179
4, 7609, Pitch_bend_c, 2, 7082
4, 7610, Pitch_bend_c, 2, 7012
4, 7611, Pitch_bend_c, 2, 6973
4, 7612, Pitch_bend_c, 2, 6964
4, 7613, Pitch_bend_c, 2, 6987
4, 7614, Pitch_bend_c, 2, 7040
4, 7615, Pitch_bend_c, 2, 7122
4, 7616, Pitch_bend_c, 2, 7231
4, 7617, Pitch_bend_c, 2, 7365
4, 7618, Pitch_bend_c, 2, 7520
4, 7619, Pitch_bend_c, 2, 7692
4, 7620, Pitch_bend_c, 2, 7876
4, 7621, Pitch_bend_c, 2, 8068
4, 7622, Pitch_bend_c, 2, 8264
4, 7623, Pitch_bend_c, 2, 8458
4, 7624, Pitch_bend_c, 2, 8645
4, 7625, Pitch_bend_c, 2, 8820
4, 7626, Pitch_bend_c, 2, 8980
4, 7627, Pitch_bend_c, 2, 9120
4, 7628, Pitch_bend_c, 2, 9236
4, 7629, Pitch_bend_c, 2, 9325
4, 7630, Pitch_bend_c, 2, 9386
4, 7631, Pitch_bend_c, 2, 9417
4, 7632, Note_off_c, 2, 77, 64
4, 7680, Pitch_bend_c, 2, 8192
4, 7680, Note_on_c, 2, 70, 64
4, 7752, Pitch_bend_c, 2, 7102
4, 7753, Pitch_bend_c, 2, 7205
4, 7754, Pitch_bend_c, 2, 7334
4, 7755, Pitch_bend_c, 2, 7485
4, 7756, Pitch_bend_c, 2, 7653
4, 7757, Pitch_bend_c, 2, 7835
4, 7758, Pitch_bend_c, 2, 8026
4, 7759, Pitch_bend_c, 2, 8222
4, 7760, Pitch_bend_c, 2, 8416
4, 7761, Pitch_bend_c, 2, 8605
4, 7762, Pitch_bend_c, 2, 8784
4, 7763, Pitch_bend_c, 2, 8947
4, 7764, Pitch_bend_c, 2, 9091
4, 7765, Pitch_bend_c, 2, 9213
4, 7766, Pitch_bend_c, 2, 9308
4, 7767, Pitch_bend_c, 2, 9376
4, 7768, Pitch_bend_c, 2, 9413
4, 7769, Pitch_bend_c, 2, 9419
4, 7770, Pitch_bend_c, 2, 9395
4, 7771, Pitch_bend_c, 2, 9339
4, 7772, Pitch_bend_c, 2, 9255
4, 7773, Pitch_bend_c, 2, 9144
4, 7774, Pitch_bend_c, 2, 9008
4, 7775, Pitch_bend_c, 2, 8852
4, 7776, Pitch_bend_c, 2, 8680
4, 7777, Pitch_bend_c, 2, 8494
4, 7778, Pitch_bend_c, 2, 8302
4, 7779, Pitch_bend_c, 2, 8106
4, 7780, Pitch_bend_c, 2, 7912
4, 7781, Pitch_bend_c, 2, 7726
4, 7782, Pitch_bend_c, 2, 7552
4, 7783, Pitch_bend_c, 2, 7393
4, 7784, Pitch_bend_c, 2, 7255
4, 7785, Pitch_bend_c, 2, 7141
4, 7786, Pitch_bend_c, 2, 7053
4, 7787, Pitch_bend_c, 2, 6994
4, 7788, Pitch_bend_c, 2, 6966
4, 7789, Pitch_bend_c, 2, 6969
4, 7790, Pitch_bend_c, 2, 7002
4, 7791, Pitch_bend_c, 2, 7066
4, 7792, Pitch_bend_c, 2, 7158
4, 7793, Pitch_bend_c, 2, 7277
4, 7794, Pitch_bend_c, 2, 7419
4, 7795, Pitch_bend_c, 2, 7580
4, 7796, Pitch_bend_c, 2, 7757
4, 7797, Pitch_bend_c, 2, 7945
4, 7798, Pitch_bend_c, 2, 8139
4, 7799, Pitch_bend_c, 2, 8334
4, 7800, Pitch_bend_c, 2, 8526
4, 7801, Pitch_bend_c, 2, 8710
4, 7802, Pitch_bend_c, 2, 8880
4, 7803, Pitch_bend_c, 2, 9033
4, 7804, Pitch_bend_c, 2, 9164
4, 7805, Pitch_bend_c, 2, 9271
4, 7806, Pitch_bend_c, 2, 9351
4, 7807, Pitch_bend_c, 2, 9401
4, 7808, Pitch_bend_c, 2, 9421
4, 7809, Pitch_bend_c, 2, 9409
4, 7810, Pitch_bend_c, 2, 9367
4, 7811, Pitch_bend_c, 2, 9294
4, 7812, Pitch_bend_c, 2, 9194
4, 7813, Pitch_bend_c, 2, 9069
4, 7814, Pitch_bend_c, 2, 8921
4, 7815, Pitch_bend_c, 2, 8755
4, 7816, Pitch_bend_c, 2, 8574
4, 7817, Pitch_bend_c, 2, 8384
4, 7818, Pitch_bend_c, 2, 8189
4, 7819, Pitch_bend_c, 2, 7994
4, 7820, Pitch_bend_c, 2, 7804
4, 7821, Pitch_bend_c, 2, 7624
4, 7822, Pitch_bend_c, 2, 7458
4, 7823, Pitch_bend_c, 2, 7311
4, 7824, Pitch_bend_c, 2, 7186
4, 7825, Pitch_bend_c, 2, 7087
4, 7826, Pitch_bend_c, 2, 7016
4, 7827, Pitch_bend_c, 2, 6974
4, 7828, Pitch_bend_c, 2, 6964
4, 7829, Pitch_bend_c, 2, 6984
4, 7830, Pitch_bend_c, 2, 7035
4, 7831, Pitch_bend_c, 2, 7116
4, 7832, Pitch_bend_c, 2, 7224
4, 7833, Pitch_bend_c, 2, 7356
4, 7834, Pitch_bend_c, 2, 7509
4, 7835, Pitch_bend_c, 2, 7680
4, 7836, Pitch_bend_c, 2, 7864
4, 7837, Pitch_bend_c, 2, 8056
4, 7838, Pitch_bend_c, 2, 8252
4, 7839, Pitch_bend_c, 2, 8446
4, 7840, Pitch_bend_c, 2, 8633
4, 7841, Pitch_bend_c, 2, 8810
4, 7842, Pitch_bend_c, 2, 8970
4, 7843, Pitch_bend_c, 2, 9111
4, 7844, Pitch_bend_c, 2, 9229
4, 7845, Pitch_bend_c, 2, 9321
4, 7846, Pitch_bend_c, 2, 9383
4, 7847, Pitch_bend_c, 2, 9416
4, 7848, Pitch_bend_c, 2, 9418
4, 7849, Pitch_bend_c, 2, 9388
4, 7850, Pitch_bend_c, 2, 9328
4, 7851, Pitch_bend_c, 2, 9240
4, 7852, Pitch_bend_c, 2, 9125
4, 7853, Pitch_bend_c, 2, 8986
4, 7854, Pitch_bend_c, 2, 8827
4, 7855, Pitch_bend_c, 2, 8652
4, 7856, Pitch_bend_c, 2, 8465
4, 7857, Pitch_bend_c, 2, 8272
4, 7858, Pitch_bend_c, 2, 8076
4, 7859, Pitch_bend_c, 2, 7884
4, 7860, Pitch_bend_c, 2, 7699
4, 7861, Pitch_bend_c, 2, 7526
4, 7862, Pitch_bend_c, 2, 7371
4, 7863, Pitch_bend_c, 2, 7236
4, 7864, Pitch_bend_c, 2, 7126
4, 7865, Pitch_bend_c, 2, 7042
4, 7866, Pitch_bend_c, 2, 6988
4, 7867, Pitch_bend_c, 2, 6964
4, 7868, Pitch_bend_c, 2, 6972
4, 7869, Pitch_bend_c, 2, 7010
4, 7870, Pitch_bend_c, 2, 7078
4, 7871, Pitch_bend_c, 2, 7175
4, 7872, Note_off_c, 2, 70, 64
4, 7920, Pitch_bend_c, 2, 8192
4, 7920, Note_on_c, 2, 68, 64
4, 7968, Note_off_c, 2, 68, 64
4, 7968, Note_on_c, 2, 66, 64
4, 8016, Note_off_c, 2, 66, 64
4, 8016, Note_on_c, 2, 73, 64
4, 8088, Pitch_bend_c, 2, 9191
4, 8089, Pitch_bend_c, 2, 9064
4, 8090, Pitch_bend_c, 2, 8916
4, 8091, Pitch_bend_c, 2, 8749
4, 8092, Pitch_bend_c, 2, 8568
4, 8093, Pitch_bend_c, 2, 8378
4, 8094, Pitch_bend_c, 2, 8183
4, 8095, Pitch_bend_c, 2, 7988
4, 8096, Pitch_bend_c, 2, 7798
4, 8097, Pitch_bend_c, 2, 7618
4, 8098, Pitch_bend_c, 2, 7453
4, 8099, Pitch_bend_c, 2, 7307
4, 8100, Pitch_bend_c, 2, 7183
4, 8101, Pitch_bend_c, 2, 7084
4, 8102, Pitch_bend_c, 2, 7014
4, 8103, Pitch_bend_c, 2, 6973
4, 8104, Pitch_bend_c, 2, 6964
4, 8105, Pitch_bend_c, 2, 6985
4, 8106, Pitch_bend_c, 2, 7037
4, 8107, Pitch_bend_c, 2, 7119
4, 8108, Pitch_bend_c, 2, 7227
4, 8109, Pitch_bend_c, 2, 7360
4, 8110, Pitch_bend_c, 2, 7515
4, 8111, Pitch_bend_c, 2, 7686
4, 8112, Pitch_bend_c, 2, 7870
4, 8113, Pitch_bend_c, 2, 8062
4, 8114, Pitch_bend_c, 2, 8258
4, 8115, Pitch_bend_c, 2, 8452
4, 8116, Pitch_bend_c, 2, 8639
4, 8117, Pitch_bend_c, 2, 8815
4, 8118, Pitch_bend_c, 2, 8975
4, 8119, Pitch_bend_c, 2, 9116
4, 8120, Pitch_bend_c, 2, 9232
4, 8121, Pitch_bend_c, 2, 9323
4, 8122, Pitch_bend_c, 2, 9385
4, 8123, Pitch_bend_c, 2, 9417
4, 8125, Pitch_bend_c, 2, 9387
4, 8126, Pitch_bend_c, 2, 9326
4, 8127, Pitch_bend_c, 2, 9237
4, 8128, Pitch_bend_c, 2, 9121
4, 8129, Pitch_bend_c, 2, 8981
4, 8130, Pitch_bend_c, 2, 8822
4, 8131, Pitch_bend_c, 2, 8646
4, 8132, Pitch_bend_c, 2, 8459
4, 8133, Pitch_bend_c, 2, 8266
4, 8134, Pitch_bend_c, 2, 8070
4, 8135, Pitch_bend_c, 2, 7877
4, 8136, Pitch_bend_c, 2, 7693
4, 8137, Pitch_bend_c, 2, 7521
4, 8138, Pitch_bend_c, 2, 7366
4, 8139, Pitch_bend_c, 2, 7232
4, 8140, Pitch_bend_c, 2, 7123
4, 8141, Pitch_bend_c, 2, 7040
4, 8142, Pitch_bend_c, 2, 6987
4, 8143, Pitch_bend_c, 2, 6964
4, 8144, Pitch_bend_c, 2, 6972
4, 8145, Pitch_bend_c, 2, 7012
4, 8146, Pitch_bend_c, 2, 7081
4, 8147, Pitch_bend_c, 2, 7178
4, 8148, Pitch_bend_c, 2, 7301
4, 8149, Pitch_bend_c, 2, 7447
4, 8150, Pitch_bend_c, 2, 7611
4, 8151, Pitch_bend_c, 2, 7791
4, 8152, Pitch_bend_c, 2, 7980
4, 8153, Pitch_bend_c, 2, 8175
4, 8154, Pitch_bend_c, 2, 8370
4, 8155, Pitch_bend_c, 2, 8561
4, 8156, Pitch_bend_c, 2, 8742
4, 8157, Pitch_bend_c, 2, 8909
4, 8158, Pitch_bend_c, 2, 9059
4, 8159, Pitch_bend_c, 2, 9186
4, 8160, Note_off_c, 2, 73, 64
4, 8256, Pitch_bend_c, 2, 8192
4, 8256, Note_on_c, 2, 78, 64
4, 8328, Pitch_bend_c, 2, 8668
4, 8329, Pitch_bend_c, 2, 8482
4, 8330, Pitch_bend_c, 2, 8289
4, 8331, Pitch_bend_c, 2, 8093
4, 8332, Pitch_bend_c, 2, 7900
4, 8333, Pitch_bend_c, 2, 7715
4, 8334, Pitch_bend_c, 2, 7541
4, 8335, Pitch_bend_c, 2, 7384
4, 8336, Pitch_bend_c, 2, 7247
4, 8337, Pitch_bend_c, 2, 7134
4, 8338, Pitch_bend_c, 2, 7049
4, 8339, Pitch_bend_c, 2, 6992
4, 8340, Pitch_bend_c, 2, 6965
4, 8341, Pitch_bend_c, 2, 6970
4, 8342, Pitch_bend_c, 2, 7005
4, 8343, Pitch_bend_c, 2, 7071
4, 8344, Pitch_bend_c, 2, 7165
4, 8345, Pitch_bend_c, 2, 7285
4, 8346, Pitch_bend_c, 2, 7428
4, 8347, Pitch_bend_c, 2, 7591
4, 8348, Pitch_bend_c, 2, 7768
4, 8349, Pitch_bend_c, 2, 7957
4, 8350, Pitch_bend_c, 2, 8151
4, 8351, Pitch_bend_c, 2, 8347
4, 8352, Note_off_c, 2, 78, 64
4, 8352, Pitch_bend_c, 2, 8192
4, 8352, Note_on_c, 2, 80, 64
4, 8424, Pitch_bend_c, 2, 7306
4, 8425, Pitch_bend_c, 2, 7452
4, 8426, Pitch_bend_c, 2, 7617
4, 8427, Pitch_bend_c, 2, 7797
4, 8428, Pitch_bend_c, 2, 7986
4, 8429, Pitch_bend_c, 2, 8181
4, 8430, Pitch_bend_c, 2, 8376
4, 8431, Pitch_bend_c, 2, 8567
4, 8432, Pitch_bend_c, 2, 8748
4, 8433, Pitch_bend_c, 2, 8915
4, 8434, Pitch_bend_c, 2, 9063
4, 8435, Pitch_bend_c, 2, 9190
4, 8436, Pitch_bend_c, 2, 9291
4, 8437, Pitch_bend_c, 2, 9364
4, 8438, Pitch_bend_c, 2, 9408
4, 8439, Pitch_bend_c, 2, 9421
4, 8440, Pitch_bend_c, 2, 9402
4, 8441, Pitch_bend_c, 2, 9353
4, 8442, Pitch_bend_c, 2, 9275
4, 8443, Pitch_bend_c, 2, 9169
4, 8444, Pitch_bend_c, 2, 9038
4, 8445, Pitch_bend_c, 2, 8886
4, 8446, Pitch_bend_c, 2, 8717
4, 8447, Pitch_bend_c, 2, 8534
4, 8448, Note_off_c, 2, 80, 64
4, 8448, Pitch_bend_c, 2, 8192
4, 8448, Note_on_c, 2, 83, 64
4, 8520, Pitch_bend_c, 2, 7102
4, 8521, Pitch_bend_c, 2, 7205
4, 8522, Pitch_bend_c, 2, 7334
4, 8523, Pitch_bend_c, 2, 7485
4, 8524, Pitch_bend_c, 2, 7653
4, 8525, Pitch_bend_c, 2, 7835
4, 8526, Pitch_bend_c, 2, 8026
4, 8527, Pitch_bend_c, 2, 8222
4, 8528, Pitch_bend_c, 2, 8416
4, 8529, Pitch_bend_c, 2, 8605
4, 8530, Pitch_bend_c, 2, 8784
4, 8531, Pitch_bend_c, 2, 8947
4, 8532, Pitch_bend_c, 2, 9091
4, 8533, Pitch_bend_c, 2, 9213
4, 8534, Pitch_bend_c, 2, 9308
4, 8535, Pitch_bend_c, 2, 9376
4, 8536, Pitch_bend_c, 2, 9413
4, 8537, Pitch_bend_c, 2, 9419
4, 8538, Pitch_bend_c, 2, 9395
4, 8539, Pitch_bend_c, 2, 9339
4, 8540, Pitch_bend_c, 2, 9255
4, 8541, Pitch_bend_c, 2, 9144
4, 8542, Pitch_bend_c, 2, 9008
4, 8543, Pitch_bend_c, 2, 8852
4, 8544, Pitch_bend_c, 2, 8680
4, 8545, Pitch_bend_c, 2, 8494
4, 8546, Pitch_bend_c, 2, 8302
4, 8547, Pitch_bend_c, 2, 8106
4, 8548, Pitch_bend_c, 2, 7912
4, 8549, Pitch_bend_c, 2, 7726
4, 8550, Pitch_bend_c, 2, 7552
4, 8551, Pitch_bend_c, 2, 7393
4, 8552, Pitch_bend_c, 2, 7255
4, 8553, Pitch_bend_c, 2, 7141
4, 8554, Pitch_bend_c, 2, 7053
4, 8555, Pitch_bend_c, 2, 6994
4, 8556, Pitch_bend_c, 2, 6966
4, 8557, Pitch_bend_c, 2, 6969
4, 8558, Pitch_bend_c, 2, 7002
4, 8559, Pitch_bend_c, 2, 7066
4, 8560, Pitch_bend_c, 2, 7158
4, 8561, Pitch_bend_c, 2, 7277
4, 8562, Pitch_bend_c, 2, 7419
4, 8563, Pitch_bend_c, 2, 7580
4, 8564, Pitch_bend_c, 2, 7757
4, 8565, Pitch_bend_c, 2, 7945
4, 8566, Pitch_bend_c, 2, 8139
4, 8567, Pitch_bend_c, 2, 8334
4, 8568, Pitch_bend_c, 2, 8526
4, 8569, Pitch_bend_c, 2, 8710
4, 8570, Pitch_bend_c, 2, 8880
4, 8571, Pitch_bend_c, 2, 9033
4, 8572, Pitch_bend_c, 2, 9164
4, 8573, Pitch_bend_c, 2, 9271
4, 8574, Pitch_bend_c, 2, 9351
4, 8575, Pitch_bend_c, 2, 9401
4, 8576, Pitch_bend_c, 2, 9421
4, 8577, Pitch_bend_c, 2, 9409
4, 8578, Pitch_bend_c, 2, 9367
4, 8579, Pitch_bend_c, 2, 9294
4, 8580, Pitch_bend_c, 2, 9194
4, 8581, Pitch_bend_c, 2, 9069
4, 8582, Pitch_bend_c, 2, 8921
4, 8583, Pitch_bend_c, 2, 8755
4, 8584, Pitch_bend_c, 2, 8574
4, 8585, Pitch_bend_c, 2, 8384
4, 8586, Pitch_bend_c, 2, 8189
4, 8587, Pitch_bend_c, 2, 7994
4, 8588, Pitch_bend_c, 2, 7804
4, 8589, Pitch_bend_c, 2, 7624
4, 8590, Pitch_bend_c, 2, 7458
4, 8591, Pitch_bend_c, 2, 7311
4, 8592, Note_off_c, 2, 83, 64
4, 8592, Pitch_bend_c, 2, 8192
4, 8592, Note_on_c, 2, 82, 64
4, 8640, Note_off_c, 2, 82, 64
4, 8640, Note_on_c, 2, 82, 64
4, 8712, Pitch_bend_c, 2, 7032
4, 8713, Pitch_bend_c, 2, 6982
4, 8714, Pitch_bend_c, 2, 6963
4, 8715, Pitch_bend_c, 2, 6975
4, 8716, Pitch_bend_c, 2, 7018
4, 8717, Pitch_bend_c, 2, 7091
4, 8718, Pitch_bend_c, 2, 7192
4, 8719, Pitch_bend_c, 2, 7318
4, 8720, Pitch_bend_c, 2, 7466
4, 8721, Pitch_bend_c, 2, 7632
4, 8722, Pitch_bend_c, 2, 7813
4, 8723, Pitch_bend_c, 2, 8003
4, 8724, Pitch_bend_c, 2, 8198
4, 8725, Pitch_bend_c, 2, 8393
4, 8726, Pitch_bend_c, 2, 8583
4, 8727, Pitch_bend_c, 2, 8763
4, 8728, Pitch_bend_c, 2, 8928
4, 8729, Pitch_bend_c, 2, 9075
4, 8730, Pitch_bend_c, 2, 9200
4, 8731, Pitch_bend_c, 2, 9298
4, 8732, Pitch_bend_c, 2, 9369
4, 8733, Pitch_bend_c, 2, 9410
4, 8734, Pitch_bend_c, 2, 9420
4, 8735, Pitch_bend_c, 2, 9399
4, 8736, Pitch_bend_c, 2, 9348
4, 8737, Pitch_bend_c, 2, 9267
4, 8738, Pitch_bend_c, 2, 9159
4, 8739, Pitch_bend_c, 2, 9026
4, 8740, Pitch_bend_c, 2, 8872
4, 8741, Pitch_bend_c, 2, 8701
4, 8742, Pitch_bend_c, 2, 8517
4, 8743, Pitch_bend_c, 2, 8325
4, 8744, Pitch_bend_c, 2, 8129
4, 8745, Pitch_bend_c, 2, 7935
4, 8746, Pitch_bend_c, 2, 7748
4, 8747, Pitch_bend_c, 2, 7572
4, 8748, Pitch_bend_c, 2, 7411
4, 8749, Pitch_bend_c, 2, 7271
4, 8750, Pitch_bend_c, 2, 7153
4, 8751, Pitch_bend_c, 2, 7062
4, 8752, Pitch_bend_c, 2, 7000
4, 8753, Pitch_bend_c, 2, 6968
4, 8754, Pitch_bend_c, 2, 6967
4, 8755, Pitch_bend_c, 2, 6996
4, 8756, Pitch_bend_c, 2, 7057
4, 8757, Pitch_bend_c, 2, 7146
4, 8758, Pitch_bend_c, 2, 7261
4, 8759, Pitch_bend_c, 2, 7400
4, 8760, Pitch_bend_c, 2, 7560
4, 8761, Pitch_bend_c, 2, 7735
4, 8762, Pitch_bend_c, 2, 7922
4, 8763, Pitch_bend_c, 2, 8115
4, 8764, Pitch_bend_c, 2, 8311
4, 8765, Pitch_bend_c, 2, 8503
4, 8766, Pitch_bend_c, 2, 8688
4, 8767, Pitch_bend_c, 2, 8860
4, 8768, Pitch_bend_c, 2, 9015
4, 8769, Pitch_bend_c, 2, 9150
4, 8770, Pitch_bend_c, 2, 9260
4, 8771, Pitch_bend_c, 2, 9343
4, 8772, Pitch_bend_c, 2, 9397
4, 8773, Pitch_bend_c, 2, 9420
4, 8774, Pitch_bend_c, 2, 9412
4, 8775, Pitch_bend_c, 2, 9373
4, 8776, Pitch_bend_c, 2, 9304
4, 8777, Pitch_bend_c, 2, 9208
4, 8778, Pitch_bend_c, 2, 9085
4, 8779, Pitch_bend_c, 2, 8940
4, 8780, Pitch_bend_c, 2, 8775
4, 8781, Pitch_bend_c, 2, 8596
4, 8782, Pitch_bend_c, 2, 8407
4, 8783, Pitch_bend_c, 2, 8212
4, 8784, Pitch_bend_c, 2, 8017
4, 8785, Pitch_bend_c, 2, 7826
4, 8786, Pitch_bend_c, 2, 7645
4, 8787, Pitch_bend_c, 2, 7477
4, 8788, Pitch_bend_c, 2, 7328
4, 8789, Pitch_bend_c, 2, 7200
4, 8790, Pitch_bend_c, 2, 7097
4, 8791, Pitch_bend_c, 2, 7023
4, 8792, Pitch_bend_c, 2, 6978
4, 8793, Pitch_bend_c, 2, 6963
4, 8794, Pitch_bend_c, 2, 6980
4, 8795, Pitch_bend_c, 2, 7028
4, 8796, Pitch_bend_c, 2, 7105
4, 8797, Pitch_bend_c, 2, 7209
4, 8798, Pitch_bend_c, 2, 7339
4, 8799, Pitch_bend_c, 2, 7490
4, 8800, Pitch_bend_c, 2, 7659
4, 8801, Pitch_bend_c, 2, 7841
4, 8802, Pitch_bend_c, 2, 8033
4, 8803, Pitch_bend_c, 2, 8228
4, 8804, Pitch_bend_c, 2, 8423
4, 8805, Pitch_bend_c, 2, 8611
4, 8806, Pitch_bend_c, 2, 8789
4, 8807, Pitch_bend_c, 2, 8952
4, 8808, Pitch_bend_c, 2, 9096
4, 8809, Pitch_bend_c, 2, 9216
4, 8810, Pitch_bend_c, 2, 9311
4, 8811, Pitch_bend_c, 2, 9377
4, 8812, Pitch_bend_c, 2, 9414
4, 8813, Pitch_bend_c, 2, 9419
4, 8814, Pitch_bend_c, 2, 9393
4, 8815, Pitch_bend_c, 2, 9337
4, 8816, Pitch_bend_c, 2, 9252
4, 8817, Pitch_bend_c, 2, 9140
4, 8818, Pitch_bend_c, 2, 9004
4, 8819, Pitch_bend_c, 2, 8847
4, 8820, Pitch_bend_c, 2, 8674
4, 8821, Pitch_bend_c, 2, 8488
4, 8822, Pitch_bend_c, 2, 8295
4, 8823, Pitch_bend_c, 2, 8100
4, 8824, Pitch_bend_c, 2, 7906
4, 8825, Pitch_bend_c, 2, 7720
4, 8826, Pitch_bend_c, 2, 7546
4, 8827, Pitch_bend_c, 2, 7388
4, 8828, Pitch_bend_c, 2, 7251
4, 8829, Pitch_bend_c, 2, 7138
4, 8830, Pitch_bend_c, 2, 7051
4, 8831, Pitch_bend_c, 2, 6993
4, 8832, Pitch_bend_c, 2, 6966
4, 8833, Pitch_bend_c, 2, 6969
4, 8834, Pitch_bend_c, 2, 7004
4, 8835, Pitch_bend_c, 2, 7068
4, 8836, Pitch_bend_c, 2, 7162
4, 8837, Pitch_bend_c, 2, 7281
4, 8838, Pitch_bend_c, 2, 7423
4, 8839, Pitch_bend_c, 2, 7585
4, 8840, Pitch_bend_c, 2, 7763
4, 8841, Pitch_bend_c, 2, 7951
4, 8842, Pitch_bend_c, 2, 8145
4, 8843, Pitch_bend_c, 2, 8340
4, 8844, Pitch_bend_c, 2, 8532
4, 8845, Pitch_bend_c, 2, 8715
4, 8846, Pitch_bend_c, 2, 8885
4, 8847, Pitch_bend_c, 2, 9037
4, 8848, Pitch_bend_c, 2, 9168
4, 8849, Pitch_bend_c, 2, 9274
4, 8850, Pitch_bend_c, 2, 9353
4, 8851, Pitch_bend_c, 2, 9402
4, 8852, Pitch_bend_c, 2, 9421
4, 8853, Pitch_bend_c, 2, 9408
4, 8854, Pitch_bend_c, 2, 9365
4, 8855, Pitch_bend_c, 2, 9292
4, 8856, Pitch_bend_c, 2, 9191
4, 8857, Pitch_bend_c, 2, 9064
4, 8858, Pitch_bend_c, 2, 8916
4, 8859, Pitch_bend_c, 2, 8749
4, 8860, Pitch_bend_c, 2, 8568
4, 8861, Pitch_bend_c, 2, 8378
4, 8862, Pitch_bend_c, 2, 8183
4, 8863, Pitch_bend_c, 2, 7988
4, 8864, Pitch_bend_c, 2, 7798
4, 8865, Pitch_bend_c, 2, 7618
4, 8866, Pitch_bend_c, 2, 7453
4, 8867, Pitch_bend_c, 2, 7307
4, 8868, Pitch_bend_c, 2, 7183
4, 8869, Pitch_bend_c, 2, 7084
4, 8870, Pitch_bend_c, 2, 7014
4, 8871, Pitch_bend_c, 2, 6973
4, 8872, Pitch_bend_c, 2, 6964
4, 8873, Pitch_bend_c, 2, 6985
4, 8874, Pitch_bend_c, 2, 7037
4, 8875, Pitch_bend_c, 2, 7119
4, 8876, Pitch_bend_c, 2, 7227
4, 8877, Pitch_bend_c, 2, 7360
4, 8878, Pitch_bend_c, 2, 7515
4, 8879, Pitch_bend_c, 2, 7686
4, 8880, Pitch_bend_c, 2, 7870
4, 8881, Pitch_bend_c, 2, 8062
4, 8882, Pitch_bend_c, 2, 8258
4, 8883, Pitch_bend_c, 2, 8452
4, 8884, Pitch_bend_c, 2, 8639
4, 8885, Pitch_bend_c, 2, 8815
4, 8886, Pitch_bend_c, 2, 8975
4, 8887, Pitch_bend_c, 2, 9116
4, 8888, Pitch_bend_c, 2, 9232
4, 8889, Pitch_bend_c, 2, 9323
4, 8890, Pitch_bend_c, 2, 9385
4, 8891, Pitch_bend_c, 2, 9417
4, 8893, Pitch_bend_c, 2, 9387
4, 8894, Pitch_bend_c, 2, 9326
4, 8895, Pitch_bend_c, 2, 9237
4, 8896, Pitch_bend_c, 2, 9121
4, 8897, Pitch_bend_c, 2, 8981
4, 8898, Pitch_bend_c, 2, 8822
4, 8899, Pitch_bend_c, 2, 8646
4, 8900, Pitch_bend_c, 2, 8459
4, 8901, Pitch_bend_c, 2, 8266
4, 8902, Pitch_bend_c, 2, 8070
4, 8903, Pitch_bend_c, 2, 7877
4, 8904, Pitch_bend_c, 2, 7693
4, 8905, Pitch_bend_c, 2, 7521
4, 8906, Pitch_bend_c, 2, 7366
4, 8907, Pitch_bend_c, 2, 7232
4, 8908, Pitch_bend_c, 2, 7123
4, 8909, Pitch_bend_c, 2, 7040
4, 8910, Pitch_bend_c, 2, 6987
4, 8911, Pitch_bend_c, 2, 6964
4, 8912, Pitch_bend_c, 2, 6972
4, 8913, Pitch_bend_c, 2, 7012
4, 8914, Pitch_bend_c, 2, 7081
4, 8915, Pitch_bend_c, 2, 7178
4, 8916, Pitch_bend_c, 2, 7301
4, 8917, Pitch_bend_c, 2, 7447
4, 8918, Pitch_bend_c, 2, 7611
4, 8919, Pitch_bend_c, 2, 7791
4, 8920, Pitch_bend_c, 2, 7980
4, 8921, Pitch_bend_c, 2, 8175
4, 8922, Pitch_bend_c, 2, 8370
4, 8923, Pitch_bend_c, 2, 8561
4, 8924, Pitch_bend_c, 2, 8742
4, 8925, Pitch_bend_c, 2, 8909
4, 8926, Pitch_bend_c, 2, 9059
4, 8927, Pitch_bend_c, 2, 9186
4, 8928, Pitch_bend_c, 2, 9288
4, 8929, Pitch_bend_c, 2, 9362
4, 8930, Pitch_bend_c, 2, 9407
4, 8931, Pitch_bend_c, 2, 9421
4, 8932, Pitch_bend_c, 2, 9403
4, 8933, Pitch_bend_c, 2, 9355
4, 8934, Pitch_bend_c, 2, 9278
4, 8935, Pitch_bend_c, 2, 9173
4, 8936, Pitch_bend_c, 2, 9043
4, 8937, Pitch_bend_c, 2, 8892
4, 8938, Pitch_bend_c, 2, 8722
4, 8939, Pitch_bend_c, 2, 8540
4, 8940, Pitch_bend_c, 2, 8348
4, 8941, Pitch_bend_c, 2, 8153
4, 8942, Pitch_bend_c, 2, 7958
4, 8943, Pitch_bend_c, 2, 7770
4, 8944, Pitch_bend_c, 2, 7592
4, 8945, Pitch_bend_c, 2, 7430
4, 8946, Pitch_bend_c, 2, 7286
4, 8947, Pitch_bend_c, 2, 7166
4, 8948, Pitch_bend_c, 2, 7072
4, 8949, Pitch_bend_c, 2, 7006
4, 8950, Pitch_bend_c, 2, 6970
4, 8951, Pitch_bend_c, 2, 6965
4, 8952, Pitch_bend_c, 2, 6991
4, 8953, Pitch_bend_c, 2, 7048
4, 8954, Pitch_bend_c, 2, 7134
4, 8955, Pitch_bend_c, 2, 7246
4, 8956, Pitch_bend_c, 2, 7383
4, 8957, Pitch_bend_c, 2, 7540
4, 8958, Pitch_bend_c, 2, 7713
4, 8959, Pitch_bend_c, 2, 7899
4, 8960, Pitch_bend_c, 2, 8092
4, 8961, Pitch_bend_c, 2, 8287
4, 8962, Pitch_bend_c, 2, 8481
4, 8963, Pitch_bend_c, 2, 8667
4, 8964, Pitch_bend_c, 2, 8840
4, 8965, Pitch_bend_c, 2, 8998
4, 8966, Pitch_bend_c, 2, 9135
4, 8967, Pitch_bend_c, 2, 9248
4, 8968, Pitch_bend_c, 2, 9334
4, 8969, Pitch_bend_c, 2, 9392
4, 8970, Pitch_bend_c, 2, 9419
4, 8971, Pitch_bend_c, 2, 9415
4, 8972, Pitch_bend_c, 2, 9379
4, 8973, Pitch_bend_c, 2, 9314
4, 8974, Pitch_bend_c, 2, 9221
4, 8975, Pitch_bend_c, 2, 9101
4, 8976, Pitch_bend_c, 2, 8958
4, 8977, Pitch_bend_c, 2, 8796
4, 8978, Pitch_bend_c, 2, 8618
4, 8979, Pitch_bend_c, 2, 8430
4, 8980, Pitch_bend_c, 2, 8236
4, 8981, Pitch_bend_c, 2, 8040
4, 8982, Pitch_bend_c, 2, 7849
4, 8983, Pitch_bend_c, 2, 7666
4, 8984, Pitch_bend_c, 2, 7496
4, 8985, Pitch_bend_c, 2, 7344
4, 8986, Pitch_bend_c, 2, 7214
4, 8987, Pitch_bend_c, 2, 7108
4, 8988, Pitch_bend_c, 2, 7030
4, 8989, Pitch_bend_c, 2, 6981
4, 8990, Pitch_bend_c, 2, 6963
4, 8991, Pitch_bend_c, 2, 6976
4, 8992, Pitch_bend_c, 2, 7020
4, 8993, Pitch_bend_c, 2, 7094
4, 8994, Pitch_bend_c, 2, 7195
4, 8995, Pitch_bend_c, 2, 7322
4, 8996, Pitch_bend_c, 2, 7471
4, 8997, Pitch_bend_c, 2, 7638
4, 8998, Pitch_bend_c, 2, 7819
4, 8999, Pitch_bend_c, 2, 8009
4, 9000, Pitch_bend_c, 2, 8205
4, 9001, Pitch_bend_c, 2, 8399
4, 9002, Pitch_bend_c, 2, 8589
4, 9003, Pitch_bend_c, 2, 8768
4, 9004, Pitch_bend_c, 2, 8933
4, 9005, Pitch_bend_c, 2, 9080
4, 9006, Pitch_bend_c, 2, 9203
4, 9007, Pitch_bend_c, 2, 9301
4, 9008, Pitch_bend_c, 2, 9371
4, 9009, Pitch_bend_c, 2, 9411
4, 9010, Pitch_bend_c, 2, 9420
4, 9011, Pitch_bend_c, 2, 9398
4, 9012, Pitch_bend_c, 2, 9345
4, 9013, Pitch_bend_c, 2, 9264
4, 9014, Pitch_bend_c, 2, 9155
4, 9015, Pitch_bend_c, 2, 9021
4, 9016, Pitch_bend_c, 2, 8867
4, 9017, Pitch_bend_c, 2, 8695
4, 9018, Pitch_bend_c, 2, 8511
4, 9019, Pitch_bend_c, 2, 8319
4, 9020, Pitch_bend_c, 2, 8123
4, 9021, Pitch_bend_c, 2, 7929
4, 9022, Pitch_bend_c, 2, 7742
4, 9023, Pitch_bend_c, 2, 7566
4, 9024, Note_off_c, 2, 82, 64
4, 9024, Pitch_bend_c, 2, 8192
4, 9024, Note_on_c, 2, 85, 64
4, 9096, Pitch_bend_c, 2, 8668
4, 9097, Pitch_bend_c, 2, 8482
4, 9098, Pitch_bend_c, 2, 8289
4, 9099, Pitch_bend_c, 2, 8093
4, 9100, Pitch_bend_c, 2, 7900
4, 9101, Pitch_bend_c, 2, 7715
4, 9102, Pitch_bend_c, 2, 7541
4, 9103, Pitch_bend_c, 2, 7384
4, 9104, Pitch_bend_c, 2, 7247
4, 9105, Pitch_bend_c, 2, 7134
4, 9106, Pitch_bend_c, 2, 7049
4, 9107, Pitch_bend_c, 2, 6992
4, 9108, Pitch_bend_c, 2, 6965
4, 9109, Pitch_bend_c, 2, 6970
4, 9110, Pitch_bend_c, 2, 7005
4, 9111, Pitch_bend_c, 2, 7071
4, 9112, Pitch_bend_c, 2, 7165
4, 9113, Pitch_bend_c, 2, 7285
4, 9114, Pitch_bend_c, 2, 7428
4, 9115, Pitch_bend_c, 2, 7591
4, 9116, Pitch_bend_c, 2, 7768
4, 9117, Pitch_bend_c, 2, 7957
4, 9118, Pitch_bend_c, 2, 8151
4, 9119, Pitch_bend_c, 2, 8347
4, 9120, Note_off_c, 2, 85, 64
4, 9120, Pitch_bend_c, 2, 8192
4, 9120, Note_on_c, 2, 83, 64
4, 9192, Pitch_bend_c, 2, 7306
4, 9193, Pitch_bend_c, 2, 7452
4, 9194, Pitch_bend_c, 2, 7617
4, 9195, Pitch_bend_c, 2, 7797
4, 9196, Pitch_bend_c, 2, 7986
4, 9197, Pitch_bend_c, 2, 8181
4, 9198, Pitch_bend_c, 2, 8376
4, 9199, Pitch_bend_c, 2, 8567
4, 9200, Pitch_bend_c, 2, 8748
4, 9201, Pitch_bend_c, 2, 8915
4, 9202, Pitch_bend_c, 2, 9063
4, 9203, Pitch_bend_c, 2, 9190
4, 9204, Pitch_bend_c, 2, 9291
4, 9205, Pitch_bend_c, 2, 9364
4, 9206, Pitch_bend_c, 2, 9408
4, 9207, Pitch_bend_c, 2, 9421
4, 9208, Pitch_bend_c, 2, 9402
4, 9209, Pitch_bend_c, 2, 9353
4, 9210, Pitch_bend_c, 2, 9275
4, 9211, Pitch_bend_c, 2, 9169
4, 9212, Pitch_bend_c, 2, 9038
4, 9213, Pitch_bend_c, 2, 8886
4, 9214, Pitch_bend_c, 2, 8717
4, 9215, Pitch_bend_c, 2, 8534
4, 9216, Note_off_c, 2, 83, 64
4, 9216, Pitch_bend_c, 2, 8192
4, 9216, Note_on_c, 2, 82, 64
4, 9264, Note_off_c, 2, 82, 64
4, 9264, Note_on_c, 2, 83, 64
4, 9312, Note_off_c, 2, 83, 64
4, 9312, Note_on_c, 2, 82, 64
4, 9360, Note_off_c, 2, 82, 64
4, 9360, Note_on_c, 2, 78, 64
4, 9432, Pitch_bend_c, 2, 8354
4, 9433, Pitch_bend_c, 2, 8159
4, 9434, Pitch_bend_c, 2, 7965
4, 9435, Pitch_bend_c, 2, 7776
4, 9436, Pitch_bend_c, 2, 7598
4, 9437, Pitch_bend_c, 2, 7434
4, 9438, Pitch_bend_c, 2, 7291
4, 9439, Pitch_bend_c, 2, 7169
4, 9440, Pitch_bend_c, 2, 7074
4, 9441, Pitch_bend_c, 2, 7007
4, 9442, Pitch_bend_c, 2, 6971
4, 9443, Pitch_bend_c, 2, 6965
4, 9444, Pitch_bend_c, 2, 6990
4, 9445, Pitch_bend_c, 2, 7046
4, 9446, Pitch_bend_c, 2, 7130
4, 9447, Pitch_bend_c, 2, 7242
4, 9448, Pitch_bend_c, 2, 7378
4, 9449, Pitch_bend_c, 2, 7534
4, 9450, Pitch_bend_c, 2, 7707
4, 9451, Pitch_bend_c, 2, 7893
4, 9452, Pitch_bend_c, 2, 8086
4, 9453, Pitch_bend_c, 2, 8281
4, 9454, Pitch_bend_c, 2, 8475
4, 9455, Pitch_bend_c, 2, 8661
4, 9456, Note_off_c, 2, 78, 64
4, 9456, Pitch_bend_c, 2, 8192
4, 9456, Note_on_c, 2, 73, 64
4, 9528, Pitch_bend_c, 2, 7560
4, 9529, Pitch_bend_c, 2, 7735
4, 9530, Pitch_bend_c, 2, 7922
4, 9531, Pitch_bend_c, 2, 8115
4, 9532, Pitch_bend_c, 2, 8311
4, 9533, Pitch_bend_c, 2, 8503
4, 9534, Pitch_bend_c, 2, 8688
4, 9535, Pitch_bend_c, 2, 8860
4, 9536, Pitch_bend_c, 2, 9015
4, 9537, Pitch_bend_c, 2, 9150
4, 9538, Pitch_bend_c, 2, 9260
4, 9539, Pitch_bend_c, 2, 9343
4, 9540, Pitch_bend_c, 2, 9397
4, 9541, Pitch_bend_c, 2, 9420
4, 9542, Pitch_bend_c, 2, 9412
4, 9543, Pitch_bend_c, 2, 9373
4, 9544, Pitch_bend_c, 2, 9304
4, 9545, Pitch_bend_c, 2, 9208
4, 9546, Pitch_bend_c, 2, 9085
4, 9547, Pitch_bend_c, 2, 8940
4, 9548, Pitch_bend_c, 2, 8775
4, 9549, Pitch_bend_c, 2, 8596
4, 9550, Pitch_bend_c, 2, 8407
4, 9551, Pitch_bend_c, 2, 8212
4, 9552, Pitch_bend_c, 2, 8017
4, 9553, Pitch_bend_c, 2, 7826
4, 9554, Pitch_bend_c, 2, 7645
4, 9555, Pitch_bend_c, 2, 7477
4, 9556, Pitch_bend_c, 2, 7328
4, 9557, Pitch_bend_c, 2, 7200
4, 9558, Pitch_bend_c, 2, 7097
4, 9559, Pitch_bend_c, 2, 7023
4, 9560, Pitch_bend_c, 2, 6978
4, 9561, Pitch_bend_c, 2, 6963
4, 9562, Pitch_bend_c, 2, 6980
4, 9563, Pitch_bend_c, 2, 7028
4, 9564, Pitch_bend_c, 2, 7105
4, 9565, Pitch_bend_c, 2, 7209
4, 9566, Pitch_bend_c, 2, 7339
4, 9567, Pitch_bend_c, 2, 7490
4, 9568, Pitch_bend_c, 2, 7659
4, 9569, Pitch_bend_c, 2, 7841
4, 9570, Pitch_bend_c, 2, 8033
4, 9571, Pitch_bend_c, 2, 8228
4, 9572, Pitch_bend_c, 2, 8423
4, 9573, Pitch_bend_c, 2, 8611
4, 9574, Pitch_bend_c, 2, 8789
4, 9575, Pitch_bend_c, 2, 8952
4, 9576, Pitch_bend_c, 2, 9096
4, 9577, Pitch_bend_c, 2, 9216
4, 9578, Pitch_bend_c, 2, 9311
4, 9579, Pitch_bend_c, 2, 9377
4, 9580, Pitch_bend_c, 2, 9414
4, 9581, Pitch_bend_c, 2, 9419
4, 9582, Pitch_bend_c, 2, 9393
4, 9583, Pitch_bend_c, 2, 9337
4, 9584, Pitch_bend_c, 2, 9252
4, 9585, Pitch_bend_c, 2, 9140
4, 9586, Pitch_bend_c, 2, 9004
4, 9587, Pitch_bend_c, 2, 8847
4, 9588, Pitch_bend_c, 2, 8674
4, 9589, Pitch_bend_c, 2, 8488
4, 9590, Pitch_bend_c, 2, 8295
4, 9591, Pitch_bend_c, 2, 8100
4, 9592, Pitch_bend_c, 2, 7906
4, 9593, Pitch_bend_c, 2, 7720
4, 9594, Pitch_bend_c, 2, 7546
4, 9595, Pitch_bend_c, 2, 7388
4, 9596, Pitch_bend_c, 2, 7251
4, 9597, Pitch_bend_c, 2, 7138
4, 9598, Pitch_bend_c, 2, 7051
4, 9599, Pitch_bend_c, 2, 6993
4, 9600, Pitch_bend_c, 2, 6966
4, 9601, Pitch_bend_c, 2, 6969
4, 9602, Pitch_bend_c, 2, 7004
4, 9603, Pitch_bend_c, 2, 7068
4, 9604, Pitch_bend_c, 2, 7162
4, 9605, Pitch_bend_c, 2, 7281
4, 9606, Pitch_bend_c, 2, 7423
4, 9607, Pitch_bend_c, 2, 7585
4, 9608, Pitch_bend_c, 2, 7763
4, 9609, Pitch_bend_c, 2, 7951
4, 9610, Pitch_bend_c, 2, 8145
4, 9611, Pitch_bend_c, 2, 8340
4, 9612, Pitch_bend_c, 2, 8532
4, 9613, Pitch_bend_c, 2, 8715
4, 9614, Pitch_bend_c, 2, 8885
4, 9615, Pitch_bend_c, 2, 9037
4, 9616, Pitch_bend_c, 2, 9168
4, 9617, Pitch_bend_c, 2, 9274
4, 9618, Pitch_bend_c, 2, 9353
4, 9619, Pitch_bend_c, 2, 9402
4, 9620, Pitch_bend_c, 2, 9421
4, 9621, Pitch_bend_c, 2, 9408
4, 9622, Pitch_bend_c, 2, 9365
4, 9623, Pitch_bend_c, 2, 9292
4, 9624, Pitch_bend_c, 2, 9191
4, 9625, Pitch_bend_c, 2, 9064
4, 9626, Pitch_bend_c, 2, 8916
4, 9627, Pitch_bend_c, 2, 8749
4, 9628, Pitch_bend_c, 2, 8568
4, 9629, Pitch_bend_c, 2, 8378
4, 9630, Pitch_bend_c, 2, 8183
4, 9631, Pitch_bend_c, 2, 7988
4, 9632, Pitch_bend_c, 2, 7798
4, 9633, Pitch_bend_c, 2, 7618
4, 9634, Pitch_bend_c, 2, 7453
4, 9635, Pitch_bend_c, 2, 7307
4, 9636, Pitch_bend_c, 2, 7183
4, 9637, Pitch_bend_c, 2, 7084
4, 9638, Pitch_bend_c, 2, 7014
4, 9639, Pitch_bend_c, 2, 6973
4, 9640, Pitch_bend_c, 2, 6964
4, 9641, Pitch_bend_c, 2, 6985
4, 9642, Pitch_bend_c, 2, 7037
4, 9643, Pitch_bend_c, 2, 7119
4, 9644, Pitch_bend_c, 2, 7227
4, 9645, Pitch_bend_c, 2, 7360
4, 9646, Pitch_bend_c, 2, 7515
4, 9647, Pitch_bend_c, 2, 7686
4, 9648, Note_off_c, 2, 73, 64
4, 9648, Pitch_bend_c, 2, 8192
4, 9648, Note_on_c, 2, 80, 64
4, 9696, Note_off_c, 2, 80, 64
4, 9696, Note_on_c, 2, 78, 64
4, 9744, Note_off_c, 2, 78, 64
4, 9744, Note_on_c, 2, 77, 64
4, 9792, Note_off_c, 2, 77, 64
4, 9792, Note_on_c, 2, 75, 64
4, 9840, Note_off_c, 2, 75, 64
4, 9840, Note_on_c, 2, 77, 64
4, 9912, Pitch_bend_c, 2, 7179
4, 9913, Pitch_bend_c, 2, 7082
4, 9914, Pitch_bend_c, 2, 7012
4, 9915, Pitch_bend_c, 2, 6973
4, 9916, Pitch_bend_c, 2, 6964
4, 9917, Pitch_bend_c, 2, 6987
4, 9918, Pitch_bend_c, 2, 7040
4, 9919, Pitch_bend_c, 2, 7122
4, 9920, Pitch_bend_c, 2, 7231
4, 9921, Pitch_bend_c, 2, 7365
4, 9922, Pitch_bend_c, 2, 7520
4, 9923, Pitch_bend_c, 2, 7692
4, 9924, Pitch_bend_c, 2, 7876
4, 9925, Pitch_bend_c, 2, 8068
4, 9926, Pitch_bend_c, 2, 8264
4, 9927, Pitch_bend_c, 2, 8458
4, 9928, Pitch_bend_c, 2, 8645
4, 9929, Pitch_bend_c, 2, 8820
4, 9930, Pitch_bend_c, 2, 8980
4, 9931, Pitch_bend_c, 2, 9120
4, 9932, Pitch_bend_c, 2, 9236
4, 9933, Pitch_bend_c, 2, 9325
4, 9934, Pitch_bend_c, 2, 9386
4, 9935, Pitch_bend_c, 2, 9417
4, 9937, Pitch_bend_c, 2, 9385
4, 9938, Pitch_bend_c, 2, 9324
4, 9939, Pitch_bend_c, 2, 9233
4, 9940, Pitch_bend_c, 2, 9117
4, 9941, Pitch_bend_c, 2, 8976
4, 9942, Pitch_bend_c, 2, 8816
4, 9943, Pitch_bend_c, 2, 8640
4, 9944, Pitch_bend_c, 2, 8453
4, 9945, Pitch_bend_c, 2, 8259
4, 9946, Pitch_bend_c, 2, 8064
4, 9947, Pitch_bend_c, 2, 7871
4, 9948, Pitch_bend_c, 2, 7687
4, 9949, Pitch_bend_c, 2, 7516
4, 9950, Pitch_bend_c, 2, 7362
4, 9951, Pitch_bend_c, 2, 7228
4, 9952, Pitch_bend_c, 2, 7120
4, 9953, Pitch_bend_c, 2, 7038
4, 9954, Pitch_bend_c, 2, 6986
4, 9955, Pitch_bend_c, 2, 6964
4, 9956, Pitch_bend_c, 2, 6973
4, 9957, Pitch_bend_c, 2, 7013
4, 9958, Pitch_bend_c, 2, 7084
4, 9959, Pitch_bend_c, 2, 7182
4, 9960, Pitch_bend_c, 2, 7306
4, 9961, Pitch_bend_c, 2, 7452
4, 9962, Pitch_bend_c, 2, 7617
4, 9963, Pitch_bend_c, 2, 7797
4, 9964, Pitch_bend_c, 2, 7986
4, 9965, Pitch_bend_c, 2, 8181
4, 9966, Pitch_bend_c, 2, 8376
4, 9967, Pitch_bend_c, 2, 8567
4, 9968, Pitch_bend_c, 2, 8748
4, 9969, Pitch_bend_c, 2, 8915
4, 9970, Pitch_bend_c, 2, 9063
4, 9971, Pitch_bend_c, 2, 9190
4, 9972, Pitch_bend_c, 2, 9291
4, 9973, Pitch_bend_c, 2, 9364
4, 9974, Pitch_bend_c, 2, 9408
4, 9975, Pitch_bend_c, 2, 9421
4, 9976, Pitch_bend_c, 2, 9402
4, 9977, Pitch_bend_c, 2, 9353
4, 9978, Pitch_bend_c, 2, 9275
4, 9979, Pitch_bend_c, 2, 9169
4, 9980, Pitch_bend_c, 2, 9038
4, 9981, Pitch_bend_c, 2, 8886
4, 9982, Pitch_bend_c, 2, 8717
4, 9983, Pitch_bend_c, 2, 8534
4, 9984, Note_off_c, 2, 77, 64
4, 9984, Pitch_bend_c, 2, 8192
4, 9984, Note_on_c, 2, 78, 64
4, 10032, Note_off_c, 2, 78, 64
4, 10128, Note_on_c, 2, 78, 64
4, 10176, Note_off_c, 2, 78, 64
4, 10272, Note_on_c, 2, 78, 64
4, 10344, Pitch_bend_c, 2, 9096
4, 10345, Pitch_bend_c, 2, 9216
4, 10346, Pitch_bend_c, 2, 9311
4, 10347, Pitch_bend_c, 2, 9377
4, 10348, Pitch_bend_c, 2, 9414
4, 10349, Pitch_bend_c, 2, 9419
4, 10350, Pitch_bend_c, 2, 9393
4, 10351, Pitch_bend_c, 2, 9337
4, 10352, Pitch_bend_c, 2, 9252
4, 10353, Pitch_bend_c, 2, 9140
4, 10354, Pitch_bend_c, 2, 9004
4, 10355, Pitch_bend_c, 2, 8847
4, 10356, Pitch_bend_c, 2, 8674
4, 10357, Pitch_bend_c, 2, 8488
4, 10358, Pitch_bend_c, 2, 8295
4, 10359, Pitch_bend_c, 2, 8100
4, 10360, Pitch_bend_c, 2, 7906
4, 10361, Pitch_bend_c, 2, 7720
4, 10362, Pitch_bend_c, 2, 7546
4, 10363, Pitch_bend_c, 2, 7388
4, 10364, Pitch_bend_c, 2, 7251
4, 10365, Pitch_bend_c, 2, 7138
4, 10366, Pitch_bend_c, 2, 7051
4, 10367, Pitch_bend_c, 2, 6993
4, 10368, Pitch_bend_c, 2, 6966
4, 10369, Pitch_bend_c, 2, 6969
4, 10370, Pitch_bend_c, 2, 7004
4, 10371, Pitch_bend_c, 2, 7068
4, 10372, Pitch_bend_c, 2, 7162
4, 10373, Pitch_bend_c, 2, 7281
4, 10374, Pitch_bend_c, 2, 7423
4, 10375, Pitch_bend_c, 2, 7585
4, 10376, Pitch_bend_c, 2, 7763
4, 10377, Pitch_bend_c, 2, 7951
4, 10378, Pitch_bend_c, 2, 8145
4, 10379, Pitch_bend_c, 2, 8340
4, 10380, Pitch_bend_c, 2, 8532
4, 10381, Pitch_bend_c, 2, 8715
4, 10382, Pitch_bend_c, 2, 8885
4, 10383, Pitch_bend_c, 2, 9037
4, 10384, Pitch_bend_c, 2, 9168
4, 10385, Pitch_bend_c, 2, 9274
4, 10386, Pitch_bend_c, 2, 9353
4, 10387, Pitch_bend_c, 2, 9402
4, 10388, Pitch_bend_c, 2, 9421
4, 10389, Pitch_bend_c, 2, 9408
4, 10390, Pitch_bend_c, 2, 9365
4, 10391, Pitch_bend_c, 2, 9292
4, 10392, Pitch_bend_c, 2, 9191
4, 10393, Pitch_bend_c, 2, 9064
4, 10394, Pitch_bend_c, 2, 8916
4, 10395, Pitch_bend_c, 2, 8749
4, 10396, Pitch_bend_c, 2, 8568
4, 10397, Pitch_bend_c, 2, 8378
4, 10398, Pitch_bend_c, 2, 8183
4, 10399, Pitch_bend_c, 2, 7988
4, 10400, Pitch_bend_c, 2, 7798
4, 10401, Pitch_bend_c, 2, 7618
4, 10402, Pitch_bend_c, 2, 7453
4, 10403, Pitch_bend_c, 2, 7307
4, 10404, Pitch_bend_c, 2, 7183
4, 10405, Pitch_bend_c, 2, 7084
4, 10406, Pitch_bend_c, 2, 7014
4, 10407, Pitch_bend_c, 2, 6973
4, 10408, Pitch_bend_c, 2, 6964
4, 10409, Pitch_bend_c, 2, 6985
4, 10410, Pitch_bend_c, 2, 7037
4, 10411, Pitch_bend_c, 2, 7119
4, 10412, Pitch_bend_c, 2, 7227
4, 10413, Pitch_bend_c, 2, 7360
4, 10414, Pitch_bend_c, 2, 7515
4, 10415, Pitch_bend_c, 2, 7686
4, 10416, Note_off_c, 2, 78, 64
4, 10752, Pitch_bend_c, 2, 8192
4, 10752, Note_on_c, 2, 78, 64
4, 10800, Note_off_c, 2, 78, 64
4, 10800, Note_on_c, 2, 78, 64
4, 10848, Note_off_c, 2, 78, 64
4, 10944, Note_on_c, 2, 80, 64
4, 10992, Note_off_c, 2, 80, 64
4, 10992, Note_on_c, 2, 80, 64
4, 11040, Note_off_c, 2, 80, 64
4, 11088, Note_on_c, 2, 76, 64
4, 11160, Pitch_bend_c, 2, 9191
4, 11161, Pitch_bend_c, 2, 9064
4, 11162, Pitch_bend_c, 2, 8916
4, 11163, Pitch_bend_c, 2, 8749
4, 11164, Pitch_bend_c, 2, 8568
4, 11165, Pitch_bend_c, 2, 8378
4, 11166, Pitch_bend_c, 2, 8183
4, 11167, Pitch_bend_c, 2, 7988
4, 11168, Pitch_bend_c, 2, 7798
4, 11169, Pitch_bend_c, 2, 7618
4, 11170, Pitch_bend_c, 2, 7453
4, 11171, Pitch_bend_c, 2, 7307
4, 11172, Pitch_bend_c, 2, 7183
4, 11173, Pitch_bend_c, 2, 7084
4, 11174, Pitch_bend_c, 2, 7014
4, 11175, Pitch_bend_c, 2, 6973
4, 11176, Pitch_bend_c, 2, 6964
4, 11177, Pitch_bend_c, 2, 6985
4, 11178, Pitch_bend_c, 2, 7037
4, 11179, Pitch_bend_c, 2, 7119
4, 11180, Pitch_bend_c, 2, 7227
4, 11181, Pitch_bend_c, 2, 7360
4, 11182, Pitch_bend_c, 2, 7515
4, 11183, Pitch_bend_c, 2, 7686
4, 11184, Pitch_bend_c, 2, 7870
4, 11185, Pitch_bend_c, 2, 8062
4, 11186, Pitch_bend_c, 2, 8258
4, 11187, Pitch_bend_c, 2, 8452
4, 11188, Pitch_bend_c, 2, 8639
4, 11189, Pitch_bend_c, 2, 8815
4, 11190, Pitch_bend_c, 2, 8975
4, 11191, Pitch_bend_c, 2, 9116
4, 11192, Pitch_bend_c, 2, 9232
4, 11193, Pitch_bend_c, 2, 9323
4, 11194, Pitch_bend_c, 2, 9385
4, 11195, Pitch_bend_c, 2, 9417
4, 11197, Pitch_bend_c, 2, 9387
4, 11198, Pitch_bend_c, 2, 9326
4, 11199, Pitch_bend_c, 2, 9237
4, 11200, Pitch_bend_c, 2, 9121
4, 11201, Pitch_bend_c, 2, 8981
4, 11202, Pitch_bend_c, 2, 8822
4, 11203, Pitch_bend_c, 2, 8646
4, 11204, Pitch_bend_c, 2, 8459
4, 11205, Pitch_bend_c, 2, 8266
4, 11206, Pitch_bend_c, 2, 8070
4, 11207, Pitch_bend_c, 2, 7877
4, 11208, Pitch_bend_c, 2, 7693
4, 11209, Pitch_bend_c, 2, 7521
4, 11210, Pitch_bend_c, 2, 7366
4, 11211, Pitch_bend_c, 2, 7232
4, 11212, Pitch_bend_c, 2, 7123
4, 11213, Pitch_bend_c, 2, 7040
4, 11214, Pitch_bend_c, 2, 6987
4, 11215, Pitch_bend_c, 2, 6964
4, 11216, Pitch_bend_c, 2, 6972
4, 11217, Pitch_bend_c, 2, 7012
4, 11218, Pitch_bend_c, 2, 7081
4, 11219, Pitch_bend_c, 2, 7178
4, 11220, Pitch_bend_c, 2, 7301
4, 11221, Pitch_bend_c, 2, 7447
4, 11222, Pitch_bend_c, 2, 7611
4, 11223, Pitch_bend_c, 2, 7791
4, 11224, Pitch_bend_c, 2, 7980
4, 11225, Pitch_bend_c, 2, 8175
4, 11226, Pitch_bend_c, 2, 8370
4, 11227, Pitch_bend_c, 2, 8561
4, 11228, Pitch_bend_c, 2, 8742
4, 11229, Pitch_bend_c, 2, 8909
4, 11230, Pitch_bend_c, 2, 9059
4, 11231, Pitch_bend_c, 2, 9186
4, 11232, Pitch_bend_c, 2, 9288
4, 11233, Pitch_bend_c, 2, 9362
4, 11234, Pitch_bend_c, 2, 9407
4, 11235, Pitch_bend_c, 2, 9421
4, 11236, Pitch_bend_c, 2, 9403
4, 11237, Pitch_bend_c, 2, 9355
4, 11238, Pitch_bend_c, 2, 9278
4, 11239, Pitch_bend_c, 2, 9173
4, 11240, Pitch_bend_c, 2, 9043
4, 11241, Pitch_bend_c, 2, 8892
4, 11242, Pitch_bend_c, 2, 8722
4, 11243, Pitch_bend_c, 2, 8540
4, 11244, Pitch_bend_c, 2, 8348
4, 11245, Pitch_bend_c, 2, 8153
4, 11246, Pitch_bend_c, 2, 7958
4, 11247, Pitch_bend_c, 2, 7770
4, 11248, Pitch_bend_c, 2, 7592
4, 11249, Pitch_bend_c, 2, 7430
4, 11250, Pitch_bend_c, 2, 7286
4, 11251, Pitch_bend_c, 2, 7166
4, 11252, Pitch_bend_c, 2, 7072
4, 11253, Pitch_bend_c, 2, 7006
4, 11254, Pitch_bend_c, 2, 6970
4, 11255, Pitch_bend_c, 2, 6965
4, 11256, Pitch_bend_c, 2, 6991
4, 11257, Pitch_bend_c, 2, 7048
4, 11258, Pitch_bend_c, 2, 7134
4, 11259, Pitch_bend_c, 2, 7246
4, 11260, Pitch_bend_c, 2, 7383
4, 11261, Pitch_bend_c, 2, 7540
4, 11262, Pitch_bend_c, 2, 7713
4, 11263, Pitch_bend_c, 2, 7899
4, 11264, Pitch_bend_c, 2, 8092
4, 11265, Pitch_bend_c, 2, 8287
4, 11266, Pitch_bend_c, 2, 8481
4, 11267, Pitch_bend_c, 2, 8667
4, 11268, Pitch_bend_c, 2, 8840
4, 11269, Pitch_bend_c, 2, 8998
4, 11270, Pitch_bend_c, 2, 9135
4, 11271, Pitch_bend_c, 2, 9248
4, 11272, Pitch_bend_c, 2, 9334
4, 11273, Pitch_bend_c, 2, 9392
4, 11274, Pitch_bend_c, 2, 9419
4, 11275, Pitch_bend_c, 2, 9415
4, 11276, Pitch_bend_c, 2, 9379
4, 11277, Pitch_bend_c, 2, 9314
4, 11278, Pitch_bend_c, 2, 9221
4, 11279, Pitch_bend_c, 2, 9101
4, 11280, Note_off_c, 2, 76, 64
4, 11280, Pitch_bend_c, 2, 8192
4, 11280, Note_on_c, 2, 73, 64
4, 11328, Note_off_c, 2, 73, 64
4, 11328, Note_on_c, 2, 73, 64
4, 11376, Note_off_c, 2, 73, 64
4, 11376, Note_on_c, 2, 76, 64
4, 11424, Note_off_c, 2, 76, 64
4, 11424, Note_on_c, 2, 71, 64
4, 11425, Pitch_bend_c, 2, 8533
4, 11426, Pitch_bend_c, 2, 8875
4, 11427, Pitch_bend_c, 2, 9216
4, 11428, Pitch_bend_c, 2, 9557
4, 11429, Pitch_bend_c, 2, 9899
4, 11430, Pitch_bend_c, 2, 6144
4, 11430, Note_on_c, 2, 72, 64
4, 11430, Note_off_c, 2, 71, 64
4, 11431, Pitch_bend_c, 2, 6485
4, 11432, Pitch_bend_c, 2, 6827
4, 11433, Pitch_bend_c, 2, 7168
4, 11434, Pitch_bend_c, 2, 7509
4, 11435, Pitch_bend_c, 2, 7851
4, 11436, Pitch_bend_c, 2, 8192
4, 11437, Pitch_bend_c, 2, 8533
4, 11438, Pitch_bend_c, 2, 8875
4, 11439, Pitch_bend_c, 2, 9216
4, 11440, Pitch_bend_c, 2, 9557
4, 11441, Pitch_bend_c, 2, 9899
4, 11442, Pitch_bend_c, 2, 6144
4, 11442, Note_on_c, 2, 73, 64
4, 11442, Note_off_c, 2, 72, 64
4, 11443, Pitch_bend_c, 2, 6485
4, 11444, Pitch_bend_c, 2, 6827
4, 11445, Pitch_bend_c, 2, 7168
4, 11446, Pitch_bend_c, 2, 7509
4, 11447, Pitch_bend_c, 2, 7851
4, 11448, Note_off_c, 2, 73, 64
4, 11448, Pitch_bend_c, 2, 8192
4, 11448, Note_on_c, 2, 71, 64
4, 11472, Note_off_c, 2, 71, 64
4, 11472, Note_on_c, 2, 69, 64
4, 11520, Note_off_c, 2, 69, 64
4, 11520, Note_on_c, 2, 69, 64
4, 11521, Pitch_bend_c, 2, 8533
4, 11522, Pitch_bend_c, 2, 8875
4, 11523, Pitch_bend_c, 2, 9216
4, 11524, Pitch_bend_c, 2, 9557
4, 11525, Pitch_bend_c, 2, 9899
4, 11526, Pitch_bend_c, 2, 6144
4, 11526, Note_on_c, 2, 70, 64
4, 11526, Note_off_c, 2, 69, 64
4, 11527, Pitch_bend_c, 2, 6485
4, 11528, Pitch_bend_c, 2, 6827
4, 11529, Pitch_bend_c, 2, 7168
4, 11530, Pitch_bend_c, 2, 7509
4, 11531, Pitch_bend_c, 2, 7851
4, 11532, Pitch_bend_c, 2, 8192
4, 11533, Pitch_bend_c, 2, 8533
4, 11534, Pitch_bend_c, 2, 8875
4, 11535, Pitch_bend_c, 2, 9216
4, 11536, Pitch_bend_c, 2, 9557
4, 11537, Pitch_bend_c, 2, 9899
4, 11538, Pitch_bend_c, 2, 6144
4, 11538, Note_on_c, 2, 71, 64
4, 11538, Note_off_c, 2, 70, 64
4, 11539, Pitch_bend_c, 2, 6485
4, 11540, Pitch_bend_c, 2, 6827
4, 11541, Pitch_bend_c, 2, 7168
4, 11542, Pitch_bend_c, 2, 7509
4, 11543, Pitch_bend_c, 2, 7851
4, 11544, Note_off_c, 2, 71, 64
4, 11544, Pitch_bend_c, 2, 8192
4, 11544, Note_on_c, 2, 71, 64
4, 11616, Note_off_c, 2, 71, 64
4, 11616, Note_on_c, 2, 69, 64
4, 11664, Note_off_c, 2, 69, 64
4, 11664, Note_on_c, 2, 71, 64
4, 11736, Note_off_c, 2, 71, 64
4, 11760, Note_on_c, 2, 69, 64
4, 11808, Note_off_c, 2, 69, 64
4, 11856, Note_on_c, 2, 71, 64
4, 11857, Pitch_bend_c, 2, 8533
4, 11858, Pitch_bend_c, 2, 8875
4, 11859, Pitch_bend_c, 2, 9216
4, 11860, Pitch_bend_c, 2, 9557
4, 11861, Pitch_bend_c, 2, 9899
4, 11862, Pitch_bend_c, 2, 6144
4, 11862, Note_on_c, 2, 72, 64
4, 11862, Note_off_c, 2, 71, 64
4, 11863, Pitch_bend_c, 2, 6485
4, 11864, Pitch_bend_c, 2, 6827
4, 11865, Pitch_bend_c, 2, 7168
4, 11866, Pitch_bend_c, 2, 7509
4, 11867, Pitch_bend_c, 2, 7851
4, 11868, Pitch_bend_c, 2, 8192
4, 11869, Pitch_bend_c, 2, 8533
4, 11870, Pitch_bend_c, 2, 8875
4, 11871, Pitch_bend_c, 2, 9216
4, 11872, Pitch_bend_c, 2, 9557
4, 11873, Pitch_bend_c, 2, 9899
4, 11874, Pitch_bend_c, 2, 6144
4, 11874, Note_on_c, 2, 73, 64
4, 11874, Note_off_c, 2, 72, 64
4, 11875, Pitch_bend_c, 2, 6485
4, 11876, Pitch_bend_c, 2, 6827
4, 11877, Pitch_bend_c, 2, 7168
4, 11878, Pitch_bend_c, 2, 7509
4, 11879, Pitch_bend_c, 2, 7851
4, 11880, Note_off_c, 2, 73, 64
4, 11880, Pitch_bend_c, 2, 8192
4, 11880, Note_on_c, 2, 73, 64
4, 11952, Pitch_bend_c, 2, 7870
4, 11953, Pitch_bend_c, 2, 8062
4, 11954, Pitch_bend_c, 2, 8258
4, 11955, Pitch_bend_c, 2, 8452
4, 11956, Pitch_bend_c, 2, 8639
4, 11957, Pitch_bend_c, 2, 8815
4, 11958, Pitch_bend_c, 2, 8975
4, 11959, Pitch_bend_c, 2, 9116
4, 11960, Pitch_bend_c, 2, 9232
4, 11961, Pitch_bend_c, 2, 9323
4, 11962, Pitch_bend_c, 2, 9385
4, 11963, Pitch_bend_c, 2, 9417
4, 11965, Pitch_bend_c, 2, 9387
4, 11966, Pitch_bend_c, 2, 9326
4, 11967, Pitch_bend_c, 2, 9237
4, 11968, Pitch_bend_c, 2, 9121
4, 11969, Pitch_bend_c, 2, 8981
4, 11970, Pitch_bend_c, 2, 8822
4, 11971, Pitch_bend_c, 2, 8646
4, 11972, Pitch_bend_c, 2, 8459
4, 11973, Pitch_bend_c, 2, 8266
4, 11974, Pitch_bend_c, 2, 8070
4, 11975, Pitch_bend_c, 2, 7877
4, 11976, Pitch_bend_c, 2, 7693
4, 11977, Pitch_bend_c, 2, 7521
4, 11978, Pitch_bend_c, 2, 7366
4, 11979, Pitch_bend_c, 2, 7232
4, 11980, Pitch_bend_c, 2, 7123
4, 11981, Pitch_bend_c, 2, 7040
4, 11982, Pitch_bend_c, 2, 6987
4, 11983, Pitch_bend_c, 2, 6964
4, 11984, Pitch_bend_c, 2, 6972
4, 11985, Pitch_bend_c, 2, 7012
4, 11986, Pitch_bend_c, 2, 7081
4, 11987, Pitch_bend_c, 2, 7178
4, 11988, Pitch_bend_c, 2, 7301
4, 11989, Pitch_bend_c, 2, 7447
4, 11990, Pitch_bend_c, 2, 7611
4, 11991, Pitch_bend_c, 2, 7791
4, 11992, Pitch_bend_c, 2, 7980
4, 11993, Pitch_bend_c, 2, 8175
4, 11994, Pitch_bend_c, 2, 8370
4, 11995, Pitch_bend_c, 2, 8561
4, 11996, Pitch_bend_c, 2, 8742
4, 11997, Pitch_bend_c, 2, 8909
4, 11998, Pitch_bend_c, 2, 9059
4, 11999, Pitch_bend_c, 2, 9186
4, 12000, Pitch_bend_c, 2, 9288
4, 12001, Pitch_bend_c, 2, 9362
4, 12002, Pitch_bend_c, 2, 9407
4, 12003, Pitch_bend_c, 2, 9421
4, 12004, Pitch_bend_c, 2, 9403
4, 12005, Pitch_bend_c, 2, 9355
4, 12006, Pitch_bend_c, 2, 9278
4, 12007, Pitch_bend_c, 2, 9173
4, 12008, Pitch_bend_c, 2, 9043
4, 12009, Pitch_bend_c, 2, 8892
4, 12010, Pitch_bend_c, 2, 8722
4, 12011, Pitch_bend_c, 2, 8540
4, 12012, Pitch_bend_c, 2, 8348
4, 12013, Pitch_bend_c, 2, 8153
4, 12014, Pitch_bend_c, 2, 7958
4, 12015, Pitch_bend_c, 2, 7770
4, 12016, Pitch_bend_c, 2, 7592
4, 12017, Pitch_bend_c, 2, 7430
4, 12018, Pitch_bend_c, 2, 7286
4, 12019, Pitch_bend_c, 2, 7166
4, 12020, Pitch_bend_c, 2, 7072
4, 12021, Pitch_bend_c, 2, 7006
4, 12022, Pitch_bend_c, 2, 6970
4, 12023, Pitch_bend_c, 2, 6965
4, 12024, Pitch_bend_c, 2, 6991
4, 12025, Pitch_bend_c, 2, 7048
4, 12026, Pitch_bend_c, 2, 7134
4, 12027, Pitch_bend_c, 2, 7246
4, 12028, Pitch_bend_c, 2, 7383
4, 12029, Pitch_bend_c, 2, 7540
4, 12030, Pitch_bend_c, 2, 7713
4, 12031, Pitch_bend_c, 2, 7899
4, 12032, Pitch_bend_c, 2, 8092
4, 12033, Pitch_bend_c, 2, 8287
4, 12034, Pitch_bend_c, 2, 8481
4, 12035, Pitch_bend_c, 2, 8667
4, 12036, Pitch_bend_c, 2, 8840
4, 12037, Pitch_bend_c, 2, 8998
4, 12038, Pitch_bend_c, 2, 9135
4, 12039, Pitch_bend_c, 2, 9248
4, 12040, Pitch_bend_c, 2, 9334
4, 12041, Pitch_bend_c, 2, 9392
4, 12042, Pitch_bend_c, 2, 9419
4, 12043, Pitch_bend_c, 2, 9415
4, 12044, Pitch_bend_c, 2, 9379
4, 12045, Pitch_bend_c, 2, 9314
4, 12046, Pitch_bend_c, 2, 9221
4, 12047, Pitch_bend_c, 2, 9101
4, 12048, Pitch_bend_c, 2, 8958
4, 12049, Pitch_bend_c, 2, 8796
4, 12050, Pitch_bend_c, 2, 8618
4, 12051, Pitch_bend_c, 2, 8430
4, 12052, Pitch_bend_c, 2, 8236
4, 12053, Pitch_bend_c, 2, 8040
4, 12054, Pitch_bend_c, 2, 7849
4, 12055, Pitch_bend_c, 2, 7666
4, 12056, Pitch_bend_c, 2, 7496
4, 12057, Pitch_bend_c, 2, 7344
4, 12058, Pitch_bend_c, 2, 7214
4, 12059, Pitch_bend_c, 2, 7108
4, 12060, Pitch_bend_c, 2, 7030
4, 12061, Pitch_bend_c, 2, 6981
4, 12062, Pitch_bend_c, 2, 6963
4, 12063, Pitch_bend_c, 2, 6976
4, 12064, Pitch_bend_c, 2, 7020
4, 12065, Pitch_bend_c, 2, 7094
4, 12066, Pitch_bend_c, 2, 7195
4, 12067, Pitch_bend_c, 2, 7322
4, 12068, Pitch_bend_c, 2, 7471
4, 12069, Pitch_bend_c, 2, 7638
4, 12070, Pitch_bend_c, 2, 7819
4, 12071, Pitch_bend_c, 2, 8009
4, 12072, Pitch_bend_c, 2, 8205
4, 12073, Pitch_bend_c, 2, 8399
4, 12074, Pitch_bend_c, 2, 8589
4, 12075, Pitch_bend_c, 2, 8768
4, 12076, Pitch_bend_c, 2, 8933
4, 12077, Pitch_bend_c, 2, 9080
4, 12078, Pitch_bend_c, 2, 9203
4, 12079, Pitch_bend_c, 2, 9301
4, 12080, Pitch_bend_c, 2, 9371
4, 12081, Pitch_bend_c, 2, 9411
4, 12082, Pitch_bend_c, 2, 9420
4, 12083, Pitch_bend_c, 2, 9398
4, 12084, Pitch_bend_c, 2, 9345
4, 12085, Pitch_bend_c, 2, 9264
4, 12086, Pitch_bend_c, 2, 9155
4, 12087, Pitch_bend_c, 2, 9021
4, 12088, Pitch_bend_c, 2, 8867
4, 12089, Pitch_bend_c, 2, 8695
4, 12090, Pitch_bend_c, 2, 8511
4, 12091, Pitch_bend_c, 2, 8319
4, 12092, Pitch_bend_c, 2, 8123
4, 12093, Pitch_bend_c, 2, 7929
4, 12094, Pitch_bend_c, 2, 7742
4, 12095, Pitch_bend_c, 2, 7566
4, 12096, Pitch_bend_c, 2, 7406
4, 12097, Pitch_bend_c, 2, 7266
4, 12098, Pitch_bend_c, 2, 7150
4, 12099, Pitch_bend_c, 2, 7060
4, 12100, Pitch_bend_c, 2, 6998
4, 12101, Pitch_bend_c, 2, 6967
4, 12103, Pitch_bend_c, 2, 6998
4, 12104, Pitch_bend_c, 2, 7059
4, 12105, Pitch_bend_c, 2, 7149
4, 12106, Pitch_bend_c, 2, 7265
4, 12107, Pitch_bend_c, 2, 7405
4, 12108, Pitch_bend_c, 2, 7565
4, 12109, Pitch_bend_c, 2, 7741
4, 12110, Pitch_bend_c, 2, 7928
4, 12111, Pitch_bend_c, 2, 8122
4, 12112, Pitch_bend_c, 2, 8317
4, 12113, Pitch_bend_c, 2, 8510
4, 12114, Pitch_bend_c, 2, 8694
4, 12115, Pitch_bend_c, 2, 8866
4, 12116, Pitch_bend_c, 2, 9020
4, 12117, Pitch_bend_c, 2, 9154
4, 12118, Pitch_bend_c, 2, 9263
4, 12119, Pitch_bend_c, 2, 9345
4, 12120, Pitch_bend_c, 2, 9398
4, 12121, Pitch_bend_c, 2, 9420
4, 12122, Pitch_bend_c, 2, 9411
4, 12123, Pitch_bend_c, 2, 9371
4, 12124, Pitch_bend_c, 2, 9302
4, 12125, Pitch_bend_c, 2, 9204
4, 12126, Pitch_bend_c, 2, 9081
4, 12127, Pitch_bend_c, 2, 8935
4, 12128, Pitch_bend_c, 2, 8770
4, 12129, Pitch_bend_c, 2, 8590
4, 12130, Pitch_bend_c, 2, 8401
4, 12131, Pitch_bend_c, 2, 8206
4, 12132, Pitch_bend_c, 2, 8011
4, 12133, Pitch_bend_c, 2, 7820
4, 12134, Pitch_bend_c, 2, 7639
4, 12135, Pitch_bend_c, 2, 7472
4, 12136, Pitch_bend_c, 2, 7323
4, 12137, Pitch_bend_c, 2, 7196
4, 12138, Pitch_bend_c, 2, 7095
4, 12139, Pitch_bend_c, 2, 7021
4, 12140, Pitch_bend_c, 2, 6977
4, 12141, Pitch_bend_c, 2, 6963
4, 12142, Pitch_bend_c, 2, 6981
4, 12143, Pitch_bend_c, 2, 7030
4, 12144, Pitch_bend_c, 2, 7108
4, 12145, Pitch_bend_c, 2, 7213
4, 12146, Pitch_bend_c, 2, 7343
4, 12147, Pitch_bend_c, 2, 7495
4, 12148, Pitch_bend_c, 2, 7664
4, 12149, Pitch_bend_c, 2, 7847
4, 12150, Pitch_bend_c, 2, 8039
4, 12151, Pitch_bend_c, 2, 8234
4, 12152, Pitch_bend_c, 2, 8429
4, 12153, Pitch_bend_c, 2, 8617
4, 12154, Pitch_bend_c, 2, 8795
4, 12155, Pitch_bend_c, 2, 8957
4, 12156, Pitch_bend_c, 2, 9100
4, 12157, Pitch_bend_c, 2, 9220
4, 12158, Pitch_bend_c, 2, 9314
4, 12159, Pitch_bend_c, 2, 9379
4, 12160, Pitch_bend_c, 2, 9414
4, 12161, Pitch_bend_c, 2, 9419
4, 12162, Pitch_bend_c, 2, 9392
4, 12163, Pitch_bend_c, 2, 9335
4, 12164, Pitch_bend_c, 2, 9249
4, 12165, Pitch_bend_c, 2, 9136
4, 12166, Pitch_bend_c, 2, 8999
4, 12167, Pitch_bend_c, 2, 8842
4, 12168, Pitch_bend_c, 2, 8668
4, 12169, Pitch_bend_c, 2, 8482
4, 12170, Pitch_bend_c, 2, 8289
4, 12171, Pitch_bend_c, 2, 8093
4, 12172, Pitch_bend_c, 2, 7900
4, 12173, Pitch_bend_c, 2, 7715
4, 12174, Pitch_bend_c, 2, 7541
4, 12175, Pitch_bend_c, 2, 7384
4, 12176, Pitch_bend_c, 2, 7247
4, 12177, Pitch_bend_c, 2, 7134
4, 12178, Pitch_bend_c, 2, 7049
4, 12179, Pitch_bend_c, 2, 6992
4, 12180, Pitch_bend_c, 2, 6965
4, 12181, Pitch_bend_c, 2, 6970
4, 12182, Pitch_bend_c, 2, 7005
4, 12183, Pitch_bend_c, 2, 7071
4, 12184, Pitch_bend_c, 2, 7165
4, 12185, Pitch_bend_c, 2, 7285
4, 12186, Pitch_bend_c, 2, 7428
4, 12187, Pitch_bend_c, 2, 7591
4, 12188, Pitch_bend_c, 2, 7768
4, 12189, Pitch_bend_c, 2, 7957
4, 12190, Pitch_bend_c, 2, 8151
4, 12191, Pitch_bend_c, 2, 8347
4, 12192, Note_off_c, 2, 73, 64
4, 12288, Pitch_bend_c, 2, 8192
4, 12288, Note_on_c, 2, 78, 64
4, 12336, Note_off_c, 2, 78, 64
4, 12336, Note_on_c, 2, 78, 64
4, 12384, Note_off_c, 2, 78, 64
4, 12480, Note_on_c, 2, 80, 64
4, 12528, Note_off_c, 2, 80, 64
4, 12528, Note_on_c, 2, 80, 64
4, 12576, Note_off_c, 2, 80, 64
4, 12624, Note_on_c, 2, 81, 64
4, 12696, Pitch_bend_c, 2, 9191
4, 12697, Pitch_bend_c, 2, 9064
4, 12698, Pitch_bend_c, 2, 8916
4, 12699, Pitch_bend_c, 2, 8749
4, 12700, Pitch_bend_c, 2, 8568
4, 12701, Pitch_bend_c, 2, 8378
4, 12702, Pitch_bend_c, 2, 8183
4, 12703, Pitch_bend_c, 2, 7988
4, 12704, Pitch_bend_c, 2, 7798
4, 12705, Pitch_bend_c, 2, 7618
4, 12706, Pitch_bend_c, 2, 7453
4, 12707, Pitch_bend_c, 2, 7307
4, 12708, Pitch_bend_c, 2, 7183
4, 12709, Pitch_bend_c, 2, 7084
4, 12710, Pitch_bend_c, 2, 7014
4, 12711, Pitch_bend_c, 2, 6973
4, 12712, Pitch_bend_c, 2, 6964
4, 12713, Pitch_bend_c, 2, 6985
4, 12714, Pitch_bend_c, 2, 7037
4, 12715, Pitch_bend_c, 2, 7119
4, 12716, Pitch_bend_c, 2, 7227
4, 12717, Pitch_bend_c, 2, 7360
4, 12718, Pitch_bend_c, 2, 7515
4, 12719, Pitch_bend_c, 2, 7686
4, 12720, Note_off_c, 2, 81, 64
4, 12720, Pitch_bend_c, 2, 8192
4, 12720, Note_on_c, 2, 76, 64
4, 12792, Pitch_bend_c, 2, 6991
4, 12793, Pitch_bend_c, 2, 7048
4, 12794, Pitch_bend_c, 2, 7134
4, 12795, Pitch_bend_c, 2, 7246
4, 12796, Pitch_bend_c, 2, 7383
4, 12797, Pitch_bend_c, 2, 7540
4, 12798, Pitch_bend_c, 2, 7713
4, 12799, Pitch_bend_c, 2, 7899
4, 12800, Pitch_bend_c, 2, 8092
4, 12801, Pitch_bend_c, 2, 8287
4, 12802, Pitch_bend_c, 2, 8481
4, 12803, Pitch_bend_c, 2, 8667
4, 12804, Pitch_bend_c, 2, 8840
4, 12805, Pitch_bend_c, 2, 8998
4, 12806, Pitch_bend_c, 2, 9135
4, 12807, Pitch_bend_c, 2, 9248
4, 12808, Pitch_bend_c, 2, 9334
4, 12809, Pitch_bend_c, 2, 9392
4, 12810, Pitch_bend_c, 2, 9419
4, 12811, Pitch_bend_c, 2, 9415
4, 12812, Pitch_bend_c, 2, 9379
4, 12813, Pitch_bend_c, 2, 9314
4, 12814, Pitch_bend_c, 2, 9221
4, 12815, Pitch_bend_c, 2, 9101
4, 12816, Note_off_c, 2, 76, 64
4, 12816, Pitch_bend_c, 2, 8192
4, 12816, Note_on_c, 2, 76, 64
4, 12888, Pitch_bend_c, 2, 9398
4, 12889, Pitch_bend_c, 2, 9420
4, 12890, Pitch_bend_c, 2, 9411
4, 12891, Pitch_bend_c, 2, 9371
4, 12892, Pitch_bend_c, 2, 9302
4, 12893, Pitch_bend_c, 2, 9204
4, 12894, Pitch_bend_c, 2, 9081
4, 12895, Pitch_bend_c, 2, 8935
4, 12896, Pitch_bend_c, 2, 8770
4, 12897, Pitch_bend_c, 2, 8590
4, 12898, Pitch_bend_c, 2, 8401
4, 12899, Pitch_bend_c, 2, 8206
4, 12900, Pitch_bend_c, 2, 8011
4, 12901, Pitch_bend_c, 2, 7820
4, 12902, Pitch_bend_c, 2, 7639
4, 12903, Pitch_bend_c, 2, 7472
4, 12904, Pitch_bend_c, 2, 7323
4, 12905, Pitch_bend_c, 2, 7196
4, 12906, Pitch_bend_c, 2, 7095
4, 12907, Pitch_bend_c, 2, 7021
4, 12908, Pitch_bend_c, 2, 6977
4, 12909, Pitch_bend_c, 2, 6963
4, 12910, Pitch_bend_c, 2, 6981
4, 12911, Pitch_bend_c, 2, 7030
4, 12912, Note_off_c, 2, 76, 64
4, 12912, Pitch_bend_c, 2, 8192
4, 12912, Note_on_c, 2, 76, 64
4, 12960, Note_off_c, 2, 76, 64
4, 12960, Note_on_c, 2, 81, 64
4, 13008, Note_off_c, 2, 81, 64
4, 13008, Note_on_c, 2, 83, 64
4, 13056, Note_off_c, 2, 83, 64
4, 13056, Note_on_c, 2, 83, 64
4, 13128, Pitch_bend_c, 2, 7102
4, 13129, Pitch_bend_c, 2, 7205
4, 13130, Pitch_bend_c, 2, 7334
4, 13131, Pitch_bend_c, 2, 7485
4, 13132, Pitch_bend_c, 2, 7653
4, 13133, Pitch_bend_c, 2, 7835
4, 13134, Pitch_bend_c, 2, 8026
4, 13135, Pitch_bend_c, 2, 8222
4, 13136, Pitch_bend_c, 2, 8416
4, 13137, Pitch_bend_c, 2, 8605
4, 13138, Pitch_bend_c, 2, 8784
4, 13139, Pitch_bend_c, 2, 8947
4, 13140, Pitch_bend_c, 2, 9091
4, 13141, Pitch_bend_c, 2, 9213
4, 13142, Pitch_bend_c, 2, 9308
4, 13143, Pitch_bend_c, 2, 9376
4, 13144, Pitch_bend_c, 2, 9413
4, 13145, Pitch_bend_c, 2, 9419
4, 13146, Pitch_bend_c, 2, 9395
4, 13147, Pitch_bend_c, 2, 9339
4, 13148, Pitch_bend_c, 2, 9255
4, 13149, Pitch_bend_c, 2, 9144
4, 13150, Pitch_bend_c, 2, 9008
4, 13151, Pitch_bend_c, 2, 8852
4, 13152, Pitch_bend_c, 2, 8680
4, 13153, Pitch_bend_c, 2, 8494
4, 13154, Pitch_bend_c, 2, 8302
4, 13155, Pitch_bend_c, 2, 8106
4, 13156, Pitch_bend_c, 2, 7912
4, 13157, Pitch_bend_c, 2, 7726
4, 13158, Pitch_bend_c, 2, 7552
4, 13159, Pitch_bend_c, 2, 7393
4, 13160, Pitch_bend_c, 2, 7255
4, 13161, Pitch_bend_c, 2, 7141
4, 13162, Pitch_bend_c, 2, 7053
4, 13163, Pitch_bend_c, 2, 6994
4, 13164, Pitch_bend_c, 2, 6966
4, 13165, Pitch_bend_c, 2, 6969
4, 13166, Pitch_bend_c, 2, 7002
4, 13167, Pitch_bend_c, 2, 7066
4, 13168, Pitch_bend_c, 2, 7158
4, 13169, Pitch_bend_c, 2, 7277
4, 13170, Pitch_bend_c, 2, 7419
4, 13171, Pitch_bend_c, 2, 7580
4, 13172, Pitch_bend_c, 2, 7757
4, 13173, Pitch_bend_c, 2, 7945
4, 13174, Pitch_bend_c, 2, 8139
4, 13175, Pitch_bend_c, 2, 8334
4, 13176, Pitch_bend_c, 2, 8526
4, 13177, Pitch_bend_c, 2, 8710
4, 13178, Pitch_bend_c, 2, 8880
4, 13179, Pitch_bend_c, 2, 9033
4, 13180, Pitch_bend_c, 2, 9164
4, 13181, Pitch_bend_c, 2, 9271
4, 13182, Pitch_bend_c, 2, 9351
4, 13183, Pitch_bend_c, 2, 9401
4, 13184, Pitch_bend_c, 2, 9421
4, 13185, Pitch_bend_c, 2, 9409
4, 13186, Pitch_bend_c, 2, 9367
4, 13187, Pitch_bend_c, 2, 9294
4, 13188, Pitch_bend_c, 2, 9194
4, 13189, Pitch_bend_c, 2, 9069
4, 13190, Pitch_bend_c, 2, 8921
4, 13191, Pitch_bend_c, 2, 8755
4, 13192, Pitch_bend_c, 2, 8574
4, 13193, Pitch_bend_c, 2, 8384
4, 13194, Pitch_bend_c, 2, 8189
4, 13195, Pitch_bend_c, 2, 7994
4, 13196, Pitch_bend_c, 2, 7804
4, 13197, Pitch_bend_c, 2, 7624
4, 13198, Pitch_bend_c, 2, 7458
4, 13199, Pitch_bend_c, 2, 7311
4, 13200, Pitch_bend_c, 2, 7186
4, 13201, Pitch_bend_c, 2, 7087
4, 13202, Pitch_bend_c, 2, 7016
4, 13203, Pitch_bend_c, 2, 6974
4, 13204, Pitch_bend_c, 2, 6964
4, 13205, Pitch_bend_c, 2, 6984
4, 13206, Pitch_bend_c, 2, 7035
4, 13207, Pitch_bend_c, 2, 7116
4, 13208, Pitch_bend_c, 2, 7224
4, 13209, Pitch_bend_c, 2, 7356
4, 13210, Pitch_bend_c, 2, 7509
4, 13211, Pitch_bend_c, 2, 7680
4, 13212, Pitch_bend_c, 2, 7864
4, 13213, Pitch_bend_c, 2, 8056
4, 13214, Pitch_bend_c, 2, 8252
4, 13215, Pitch_bend_c, 2, 8446
4, 13216, Pitch_bend_c, 2, 8633
4, 13217, Pitch_bend_c, 2, 8810
4, 13218, Pitch_bend_c, 2, 8970
4, 13219, Pitch_bend_c, 2, 9111
4, 13220, Pitch_bend_c, 2, 9229
4, 13221, Pitch_bend_c, 2, 9321
4, 13222, Pitch_bend_c, 2, 9383
4, 13223, Pitch_bend_c, 2, 9416
4, 13224, Pitch_bend_c, 2, 9418
4, 13225, Pitch_bend_c, 2, 9388
4, 13226, Pitch_bend_c, 2, 9328
4, 13227, Pitch_bend_c, 2, 9240
4, 13228, Pitch_bend_c, 2, 9125
4, 13229, Pitch_bend_c, 2, 8986
4, 13230, Pitch_bend_c, 2, 8827
4, 13231, Pitch_bend_c, 2, 8652
4, 13232, Pitch_bend_c, 2, 8465
4, 13233, Pitch_bend_c, 2, 8272
4, 13234, Pitch_bend_c, 2, 8076
4, 13235, Pitch_bend_c, 2, 7884
4, 13236, Pitch_bend_c, 2, 7699
4, 13237, Pitch_bend_c, 2, 7526
4, 13238, Pitch_bend_c, 2, 7371
4, 13239, Pitch_bend_c, 2, 7236
4, 13240, Pitch_bend_c, 2, 7126
4, 13241, Pitch_bend_c, 2, 7042
4, 13242, Pitch_bend_c, 2, 6988
4, 13243, Pitch_bend_c, 2, 6964
4, 13244, Pitch_bend_c, 2, 6972
4, 13245, Pitch_bend_c, 2, 7010
4, 13246, Pitch_bend_c, 2, 7078
4, 13247, Pitch_bend_c, 2, 7175
4, 13248, Pitch_bend_c, 2, 7297
4, 13249, Pitch_bend_c, 2, 7442
4, 13250, Pitch_bend_c, 2, 7606
4, 13251, Pitch_bend_c, 2, 7785
4, 13252, Pitch_bend_c, 2, 7974
4, 13253, Pitch_bend_c, 2, 8169
4, 13254, Pitch_bend_c, 2, 8364
4, 13255, Pitch_bend_c, 2, 8555
4, 13256, Pitch_bend_c, 2, 8736
4, 13257, Pitch_bend_c, 2, 8904
4, 13258, Pitch_bend_c, 2, 9054
4, 13259, Pitch_bend_c, 2, 9182
4, 13260, Pitch_bend_c, 2, 9285
4, 13261, Pitch_bend_c, 2, 9360
4, 13262, Pitch_bend_c, 2, 9406
4, 13263, Pitch_bend_c, 2, 9421
4, 13264, Pitch_bend_c, 2, 9404
4, 13265, Pitch_bend_c, 2, 9357
4, 13266, Pitch_bend_c, 2, 9281
4, 13267, Pitch_bend_c, 2, 9177
4, 13268, Pitch_bend_c, 2, 9047
4, 13269, Pitch_bend_c, 2, 8897
4, 13270, Pitch_bend_c, 2, 8728
4, 13271, Pitch_bend_c, 2, 8546
4, 13272, Pitch_bend_c, 2, 8354
4, 13273, Pitch_bend_c, 2, 8159
4, 13274, Pitch_bend_c, 2, 7965
4, 13275, Pitch_bend_c, 2, 7776
4, 13276, Pitch_bend_c, 2, 7598
4, 13277, Pitch_bend_c, 2, 7434
4, 13278, Pitch_bend_c, 2, 7291
4, 13279, Pitch_bend_c, 2, 7169
4, 13280, Pitch_bend_c, 2, 7074
4, 13281, Pitch_bend_c, 2, 7007
4, 13282, Pitch_bend_c, 2, 6971
4, 13283, Pitch_bend_c, 2, 6965
4, 13284, Pitch_bend_c, 2, 6990
4, 13285, Pitch_bend_c, 2, 7046
4, 13286, Pitch_bend_c, 2, 7130
4, 13287, Pitch_bend_c, 2, 7242
4, 13288, Pitch_bend_c, 2, 7378
4, 13289, Pitch_bend_c, 2, 7534
4, 13290, Pitch_bend_c, 2, 7707
4, 13291, Pitch_bend_c, 2, 7893
4, 13292, Pitch_bend_c, 2, 8086
4, 13293, Pitch_bend_c, 2, 8281
4, 13294, Pitch_bend_c, 2, 8475
4, 13295, Pitch_bend_c, 2, 8661
4, 13296, Pitch_bend_c, 2, 8835
4, 13297, Pitch_bend_c, 2, 8993
4, 13298, Pitch_bend_c, 2, 9131
4, 13299, Pitch_bend_c, 2, 9245
4, 13300, Pitch_bend_c, 2, 9332
4, 13301, Pitch_bend_c, 2, 9390
4, 13302, Pitch_bend_c, 2, 9418
4, 13303, Pitch_bend_c, 2, 9415
4, 13304, Pitch_bend_c, 2, 9381
4, 13305, Pitch_bend_c, 2, 9317
4, 13306, Pitch_bend_c, 2, 9224
4, 13307, Pitch_bend_c, 2, 9105
4, 13308, Pitch_bend_c, 2, 8963
4, 13309, Pitch_bend_c, 2, 8801
4, 13310, Pitch_bend_c, 2, 8624
4, 13311, Pitch_bend_c, 2, 8436
4, 13312, Pitch_bend_c, 2, 8242
4, 13313, Pitch_bend_c, 2, 8047
4, 13314, Pitch_bend_c, 2, 7855
4, 13315, Pitch_bend_c, 2, 7672
4, 13316, Pitch_bend_c, 2, 7502
4, 13317, Pitch_bend_c, 2, 7349
4, 13318, Pitch_bend_c, 2, 7218
4, 13319, Pitch_bend_c, 2, 7111
4, 13320, Note_off_c, 2, 83, 64
4, 13344, Pitch_bend_c, 2, 8192
4, 13344, Note_on_c, 2, 81, 64
4, 13392, Note_off_c, 2, 81, 64
4, 13392, Note_on_c, 2, 83, 64
4, 13393, Pitch_bend_c, 2, 8533
4, 13394, Pitch_bend_c, 2, 8875
4, 13395, Pitch_bend_c, 2, 9216
4, 13396, Pitch_bend_c, 2, 9557
4, 13397, Pitch_bend_c, 2, 9899
4, 13398, Pitch_bend_c, 2, 6144
4, 13398, Note_on_c, 2, 84, 64
4, 13398, Note_off_c, 2, 83, 64
4, 13399, Pitch_bend_c, 2, 6485
4, 13400, Pitch_bend_c, 2, 6827
4, 13401, Pitch_bend_c, 2, 7168
4, 13402, Pitch_bend_c, 2, 7509
4, 13403, Pitch_bend_c, 2, 7851
4, 13404, Pitch_bend_c, 2, 8192
4, 13405, Pitch_bend_c, 2, 8533
4, 13406, Pitch_bend_c, 2, 8875
4, 13407, Pitch_bend_c, 2, 9216
4, 13408, Pitch_bend_c, 2, 9557
4, 13409, Pitch_bend_c, 2, 9899
4, 13410, Pitch_bend_c, 2, 6144
4, 13410, Note_on_c, 2, 85, 64
4, 13410, Note_off_c, 2, 84, 64
4, 13411, Pitch_bend_c, 2, 6485
4, 13412, Pitch_bend_c, 2, 6827
4, 13413, Pitch_bend_c, 2, 7168
4, 13414, Pitch_bend_c, 2, 7509
4, 13415, Pitch_bend_c, 2, 7851
4, 13416, Pitch_bend_c, 2, 8192
4, 13464, Pitch_bend_c, 2, 9191
4, 13465, Pitch_bend_c, 2, 9064
4, 13466, Pitch_bend_c, 2, 8916
4, 13467, Pitch_bend_c, 2, 8749
4, 13468, Pitch_bend_c, 2, 8568
4, 13469, Pitch_bend_c, 2, 8378
4, 13470, Pitch_bend_c, 2, 8183
4, 13471, Pitch_bend_c, 2, 7988
4, 13472, Pitch_bend_c, 2, 7798
4, 13473, Pitch_bend_c, 2, 7618
4, 13474, Pitch_bend_c, 2, 7453
4, 13475, Pitch_bend_c, 2, 7307
4, 13476, Pitch_bend_c, 2, 7183
4, 13477, Pitch_bend_c, 2, 7084
4, 13478, Pitch_bend_c, 2, 7014
4, 13479, Pitch_bend_c, 2, 6973
4, 13480, Pitch_bend_c, 2, 6964
4, 13481, Pitch_bend_c, 2, 6985
4, 13482, Pitch_bend_c, 2, 7037
4, 13483, Pitch_bend_c, 2, 7119
4, 13484, Pitch_bend_c, 2, 7227
4, 13485, Pitch_bend_c, 2, 7360
4, 13486, Pitch_bend_c, 2, 7515
4, 13487, Pitch_bend_c, 2, 7686
4, 13488, Pitch_bend_c, 2, 7870
4, 13489, Pitch_bend_c, 2, 8062
4, 13490, Pitch_bend_c, 2, 8258
4, 13491, Pitch_bend_c, 2, 8452
4, 13492, Pitch_bend_c, 2, 8639
4, 13493, Pitch_bend_c, 2, 8815
4, 13494, Pitch_bend_c, 2, 8975
4, 13495, Pitch_bend_c, 2, 9116
4, 13496, Pitch_bend_c, 2, 9232
4, 13497, Pitch_bend_c, 2, 9323
4, 13498, Pitch_bend_c, 2, 9385
4, 13499, Pitch_bend_c, 2, 9417
4, 13501, Pitch_bend_c, 2, 9387
4, 13502, Pitch_bend_c, 2, 9326
4, 13503, Pitch_bend_c, 2, 9237
4, 13504, Pitch_bend_c, 2, 9121
4, 13505, Pitch_bend_c, 2, 8981
4, 13506, Pitch_bend_c, 2, 8822
4, 13507, Pitch_bend_c, 2, 8646
4, 13508, Pitch_bend_c, 2, 8459
4, 13509, Pitch_bend_c, 2, 8266
4, 13510, Pitch_bend_c, 2, 8070
4, 13511, Pitch_bend_c, 2, 7877
4, 13512, Pitch_bend_c, 2, 7693
4, 13513, Pitch_bend_c, 2, 7521
4, 13514, Pitch_bend_c, 2, 7366
4, 13515, Pitch_bend_c, 2, 7232
4, 13516, Pitch_bend_c, 2, 7123
4, 13517, Pitch_bend_c, 2, 7040
4, 13518, Pitch_bend_c, 2, 6987
4, 13519, Pitch_bend_c, 2, 6964
4, 13520, Pitch_bend_c, 2, 6972
4, 13521, Pitch_bend_c, 2, 7012
4, 13522, Pitch_bend_c, 2, 7081
4, 13523, Pitch_bend_c, 2, 7178
4, 13524, Pitch_bend_c, 2, 7301
4, 13525, Pitch_bend_c, 2, 7447
4, 13526, Pitch_bend_c, 2, 7611
4, 13527, Pitch_bend_c, 2, 7791
4, 13528, Pitch_bend_c, 2, 7980
4, 13529, Pitch_bend_c, 2, 8175
4, 13530, Pitch_bend_c, 2, 8370
4, 13531, Pitch_bend_c, 2, 8561
4, 13532, Pitch_bend_c, 2, 8742
4, 13533, Pitch_bend_c, 2, 8909
4, 13534, Pitch_bend_c, 2, 9059
4, 13535, Pitch_bend_c, 2, 9186
4, 13536, Pitch_bend_c, 2, 9288
4, 13537, Pitch_bend_c, 2, 9362
4, 13538, Pitch_bend_c, 2, 9407
4, 13539, Pitch_bend_c, 2, 9421
4, 13540, Pitch_bend_c, 2, 9403
4, 13541, Pitch_bend_c, 2, 9355
4, 13542, Pitch_bend_c, 2, 9278
4, 13543, Pitch_bend_c, 2, 9173
4, 13544, Pitch_bend_c, 2, 9043
4, 13545, Pitch_bend_c, 2, 8892
4, 13546, Pitch_bend_c, 2, 8722
4, 13547, Pitch_bend_c, 2, 8540
4, 13548, Pitch_bend_c, 2, 8348
4, 13549, Pitch_bend_c, 2, 8153
4, 13550, Pitch_bend_c, 2, 7958
4, 13551, Pitch_bend_c, 2, 7770
4, 13552, Pitch_bend_c, 2, 7592
4, 13553, Pitch_bend_c, 2, 7430
4, 13554, Pitch_bend_c, 2, 7286
4, 13555, Pitch_bend_c, 2, 7166
4, 13556, Pitch_bend_c, 2, 7072
4, 13557, Pitch_bend_c, 2, 7006
4, 13558, Pitch_bend_c, 2, 6970
4, 13559, Pitch_bend_c, 2, 6965
4, 13560, Pitch_bend_c, 2, 6991
4, 13561, Pitch_bend_c, 2, 7048
4, 13562, Pitch_bend_c, 2, 7134
4, 13563, Pitch_bend_c, 2, 7246
4, 13564, Pitch_bend_c, 2, 7383
4, 13565, Pitch_bend_c, 2, 7540
4, 13566, Pitch_bend_c, 2, 7713
4, 13567, Pitch_bend_c, 2, 7899
4, 13568, Pitch_bend_c, 2, 8092
4, 13569, Pitch_bend_c, 2, 8287
4, 13570, Pitch_bend_c, 2, 8481
4, 13571, Pitch_bend_c, 2, 8667
4, 13572, Pitch_bend_c, 2, 8840
4, 13573, Pitch_bend_c, 2, 8998
4, 13574, Pitch_bend_c, 2, 9135
4, 13575, Pitch_bend_c, 2, 9248
4, 13576, Pitch_bend_c, 2, 9334
4, 13577, Pitch_bend_c, 2, 9392
4, 13578, Pitch_bend_c, 2, 9419
4, 13579, Pitch_bend_c, 2, 9415
4, 13580, Pitch_bend_c, 2, 9379
4, 13581, Pitch_bend_c, 2, 9314
4, 13582, Pitch_bend_c, 2, 9221
4, 13583, Pitch_bend_c, 2, 9101
4, 13584, Pitch_bend_c, 2, 8958
4, 13585, Pitch_bend_c, 2, 8796
4, 13586, Pitch_bend_c, 2, 8618
4, 13587, Pitch_bend_c, 2, 8430
4, 13588, Pitch_bend_c, 2, 8236
4, 13589, Pitch_bend_c, 2, 8040
4, 13590, Pitch_bend_c, 2, 7849
4, 13591, Pitch_bend_c, 2, 7666
4, 13592, Pitch_bend_c, 2, 7496
4, 13593, Pitch_bend_c, 2, 7344
4, 13594, Pitch_bend_c, 2, 7214
4, 13595, Pitch_bend_c, 2, 7108
4, 13596, Pitch_bend_c, 2, 7030
4, 13597, Pitch_bend_c, 2, 6981
4, 13598, Pitch_bend_c, 2, 6963
4, 13599, Pitch_bend_c, 2, 6976
4, 13600, Pitch_bend_c, 2, 7020
4, 13601, Pitch_bend_c, 2, 7094
4, 13602, Pitch_bend_c, 2, 7195
4, 13603, Pitch_bend_c, 2, 7322
4, 13604, Pitch_bend_c, 2, 7471
4, 13605, Pitch_bend_c, 2, 7638
4, 13606, Pitch_bend_c, 2, 7819
4, 13607, Pitch_bend_c, 2, 8009
4, 13608, Pitch_bend_c, 2, 8205
4, 13609, Pitch_bend_c, 2, 8399
4, 13610, Pitch_bend_c, 2, 8589
4, 13611, Pitch_bend_c, 2, 8768
4, 13612, Pitch_bend_c, 2, 8933
4, 13613, Pitch_bend_c, 2, 9080
4, 13614, Pitch_bend_c, 2, 9203
4, 13615, Pitch_bend_c, 2, 9301
4, 13616, Pitch_bend_c, 2, 9371
4, 13617, Pitch_bend_c, 2, 9411
4, 13618, Pitch_bend_c, 2, 9420
4, 13619, Pitch_bend_c, 2, 9398
4, 13620, Pitch_bend_c, 2, 9345
4, 13621, Pitch_bend_c, 2, 9264
4, 13622, Pitch_bend_c, 2, 9155
4, 13623, Pitch_bend_c, 2, 9021
4, 13624, Pitch_bend_c, 2, 8867
4, 13625, Pitch_bend_c, 2, 8695
4, 13626, Pitch_bend_c, 2, 8511
4, 13627, Pitch_bend_c, 2, 8319
4, 13628, Pitch_bend_c, 2, 8123
4, 13629, Pitch_bend_c, 2, 7929
4, 13630, Pitch_bend_c, 2, 7742
4, 13631, Pitch_bend_c, 2, 7566
4, 13632, Pitch_bend_c, 2, 7406
4, 13633, Pitch_bend_c, 2, 7266
4, 13634, Pitch_bend_c, 2, 7150
4, 13635, Pitch_bend_c, 2, 7060
4, 13636, Pitch_bend_c, 2, 6998
4, 13637, Pitch_bend_c, 2, 6967
4, 13639, Pitch_bend_c, 2, 6998
4, 13640, Pitch_bend_c, 2, 7059
4, 13641, Pitch_bend_c, 2, 7149
4, 13642, Pitch_bend_c, 2, 7265
4, 13643, Pitch_bend_c, 2, 7405
4, 13644, Pitch_bend_c, 2, 7565
4, 13645, Pitch_bend_c, 2, 7741
4, 13646, Pitch_bend_c, 2, 7928
4, 13647, Pitch_bend_c, 2, 8122
4, 13648, Pitch_bend_c, 2, 8317
4, 13649, Pitch_bend_c, 2, 8510
4, 13650, Pitch_bend_c, 2, 8694
4, 13651, Pitch_bend_c, 2, 8866
4, 13652, Pitch_bend_c, 2, 9020
4, 13653, Pitch_bend_c, 2, 9154
4, 13654, Pitch_bend_c, 2, 9263
4, 13655, Pitch_bend_c, 2, 9345
4, 13656, Pitch_bend_c, 2, 9398
4, 13657, Pitch_bend_c, 2, 9420
4, 13658, Pitch_bend_c, 2, 9411
4, 13659, Pitch_bend_c, 2, 9371
4, 13660, Pitch_bend_c, 2, 9302
4, 13661, Pitch_bend_c, 2, 9204
4, 13662, Pitch_bend_c, 2, 9081
4, 13663, Pitch_bend_c, 2, 8935
4, 13664, Pitch_bend_c, 2, 8770
4, 13665, Pitch_bend_c, 2, 8590
4, 13666, Pitch_bend_c, 2, 8401
4, 13667, Pitch_bend_c, 2, 8206
4, 13668, Pitch_bend_c, 2, 8011
4, 13669, Pitch_bend_c, 2, 7820
4, 13670, Pitch_bend_c, 2, 7639
4, 13671, Pitch_bend_c, 2, 7472
4, 13672, Pitch_bend_c, 2, 7323
4, 13673, Pitch_bend_c, 2, 7196
4, 13674, Pitch_bend_c, 2, 7095
4, 13675, Pitch_bend_c, 2, 7021
4, 13676, Pitch_bend_c, 2, 6977
4, 13677, Pitch_bend_c, 2, 6963
4, 13678, Pitch_bend_c, 2, 6981
4, 13679, Pitch_bend_c, 2, 7030
4, 13680, Note_off_c, 2, 85, 64
4, 13680, Pitch_bend_c, 2, 8192
4, 13680, Note_on_c, 2, 85, 64
4, 13728, Note_off_c, 2, 85, 64
4, 13728, Note_on_c, 2, 85, 64
4, 13776, Note_off_c, 2, 85, 64
4, 13776, Note_on_c, 2, 85, 64
4, 13824, Note_off_c, 2, 85, 64
4, 13824, Note_on_c, 2, 85, 64
4, 13896, Pitch_bend_c, 2, 7102
4, 13897, Pitch_bend_c, 2, 7205
4, 13898, Pitch_bend_c, 2, 7334
4, 13899, Pitch_bend_c, 2, 7485
4, 13900, Pitch_bend_c, 2, 7653
4, 13901, Pitch_bend_c, 2, 7835
4, 13902, Pitch_bend_c, 2, 8026
4, 13903, Pitch_bend_c, 2, 8222
4, 13904, Pitch_bend_c, 2, 8416
4, 13905, Pitch_bend_c, 2, 8605
4, 13906, Pitch_bend_c, 2, 8784
4, 13907, Pitch_bend_c, 2, 8947
4, 13908, Pitch_bend_c, 2, 9091
4, 13909, Pitch_bend_c, 2, 9213
4, 13910, Pitch_bend_c, 2, 9308
4, 13911, Pitch_bend_c, 2, 9376
4, 13912, Pitch_bend_c, 2, 9413
4, 13913, Pitch_bend_c, 2, 9419
4, 13914, Pitch_bend_c, 2, 9395
4, 13915, Pitch_bend_c, 2, 9339
4, 13916, Pitch_bend_c, 2, 9255
4, 13917, Pitch_bend_c, 2, 9144
4, 13918, Pitch_bend_c, 2, 9008
4, 13919, Pitch_bend_c, 2, 8852
4, 13920, Pitch_bend_c, 2, 8680
4, 13921, Pitch_bend_c, 2, 8494
4, 13922, Pitch_bend_c, 2, 8302
4, 13923, Pitch_bend_c, 2, 8106
4, 13924, Pitch_bend_c, 2, 7912
4, 13925, Pitch_bend_c, 2, 7726
4, 13926, Pitch_bend_c, 2, 7552
4, 13927, Pitch_bend_c, 2, 7393
4, 13928, Pitch_bend_c, 2, 7255
4, 13929, Pitch_bend_c, 2, 7141
4, 13930, Pitch_bend_c, 2, 7053
4, 13931, Pitch_bend_c, 2, 6994
4, 13932, Pitch_bend_c, 2, 6966
4, 13933, Pitch_bend_c, 2, 6969
4, 13934, Pitch_bend_c, 2, 7002
4, 13935, Pitch_bend_c, 2, 7066
4, 13936, Pitch_bend_c, 2, 7158
4, 13937, Pitch_bend_c, 2, 7277
4, 13938, Pitch_bend_c, 2, 7419
4, 13939, Pitch_bend_c, 2, 7580
4, 13940, Pitch_bend_c, 2, 7757
4, 13941, Pitch_bend_c, 2, 7945
4, 13942, Pitch_bend_c, 2, 8139
4, 13943, Pitch_bend_c, 2, 8334
4, 13944, Pitch_bend_c, 2, 8526
4, 13945, Pitch_bend_c, 2, 8710
4, 13946, Pitch_bend_c, 2, 8880
4, 13947, Pitch_bend_c, 2, 9033
4, 13948, Pitch_bend_c, 2, 9164
4, 13949, Pitch_bend_c, 2, 9271
4, 13950, Pitch_bend_c, 2, 9351
4, 13951, Pitch_bend_c, 2, 9401
4, 13952, Pitch_bend_c, 2, 9421
4, 13953, Pitch_bend_c, 2, 9409
4, 13954, Pitch_bend_c, 2, 9367
4, 13955, Pitch_bend_c, 2, 9294
4, 13956, Pitch_bend_c, 2, 9194
4, 13957, Pitch_bend_c, 2, 9069
4, 13958, Pitch_bend_c, 2, 8921
4, 13959, Pitch_bend_c, 2, 8755
4, 13960, Pitch_bend_c, 2, 8574
4, 13961, Pitch_bend_c, 2, 8384
4, 13962, Pitch_bend_c, 2, 8189
4, 13963, Pitch_bend_c, 2, 7994
4, 13964, Pitch_bend_c, 2, 7804
4, 13965, Pitch_bend_c, 2, 7624
4, 13966, Pitch_bend_c, 2, 7458
4, 13967, Pitch_bend_c, 2, 7311
4, 13968, Pitch_bend_c, 2, 7186
4, 13969, Pitch_bend_c, 2, 7087
4, 13970, Pitch_bend_c, 2, 7016
4, 13971, Pitch_bend_c, 2, 6974
4, 13972, Pitch_bend_c, 2, 6964
4, 13973, Pitch_bend_c, 2, 6984
4, 13974, Pitch_bend_c, 2, 7035
4, 13975, Pitch_bend_c, 2, 7116
4, 13976, Pitch_bend_c, 2, 7224
4, 13977, Pitch_bend_c, 2, 7356
4, 13978, Pitch_bend_c, 2, 7509
4, 13979, Pitch_bend_c, 2, 7680
4, 13980, Pitch_bend_c, 2, 7864
4, 13981, Pitch_bend_c, 2, 8056
4, 13982, Pitch_bend_c, 2, 8252
4, 13983, Pitch_bend_c, 2, 8446
4, 13984, Pitch_bend_c, 2, 8633
4, 13985, Pitch_bend_c, 2, 8810
4, 13986, Pitch_bend_c, 2, 8970
4, 13987, Pitch_bend_c, 2, 9111
4, 13988, Pitch_bend_c, 2, 9229
4, 13989, Pitch_bend_c, 2, 9321
4, 13990, Pitch_bend_c, 2, 9383
4, 13991, Pitch_bend_c, 2, 9416
4, 13992, Pitch_bend_c, 2, 9418
4, 13993, Pitch_bend_c, 2, 9388
4, 13994, Pitch_bend_c, 2, 9328
4, 13995, Pitch_bend_c, 2, 9240
4, 13996, Pitch_bend_c, 2, 9125
4, 13997, Pitch_bend_c, 2, 8986
4, 13998, Pitch_bend_c, 2, 8827
4, 13999, Pitch_bend_c, 2, 8652
4, 14000, Pitch_bend_c, 2, 8465
4, 14001, Pitch_bend_c, 2, 8272
4, 14002, Pitch_bend_c, 2, 8076
4, 14003, Pitch_bend_c, 2, 7884
4, 14004, Pitch_bend_c, 2, 7699
4, 14005, Pitch_bend_c, 2, 7526
4, 14006, Pitch_bend_c, 2, 7371
4, 14007, Pitch_bend_c, 2, 7236
4, 14008, Pitch_bend_c, 2, 7126
4, 14009, Pitch_bend_c, 2, 7042
4, 14010, Pitch_bend_c, 2, 6988
4, 14011, Pitch_bend_c, 2, 6964
4, 14012, Pitch_bend_c, 2, 6972
4, 14013, Pitch_bend_c, 2, 7010
4, 14014, Pitch_bend_c, 2, 7078
4, 14015, Pitch_bend_c, 2, 7175
4, 14016, Pitch_bend_c, 2, 7297
4, 14017, Pitch_bend_c, 2, 7442
4, 14018, Pitch_bend_c, 2, 7606
4, 14019, Pitch_bend_c, 2, 7785
4, 14020, Pitch_bend_c, 2, 7974
4, 14021, Pitch_bend_c, 2, 8169
4, 14022, Pitch_bend_c, 2, 8364
4, 14023, Pitch_bend_c, 2, 8555
4, 14024, Pitch_bend_c, 2, 8736
4, 14025, Pitch_bend_c, 2, 8904
4, 14026, Pitch_bend_c, 2, 9054
4, 14027, Pitch_bend_c, 2, 9182
4, 14028, Pitch_bend_c, 2, 9285
4, 14029, Pitch_bend_c, 2, 9360
4, 14030, Pitch_bend_c, 2, 9406
4, 14031, Pitch_bend_c, 2, 9421
4, 14032, Pitch_bend_c, 2, 9404
4, 14033, Pitch_bend_c, 2, 9357
4, 14034, Pitch_bend_c, 2, 9281
4, 14035, Pitch_bend_c, 2, 9177
4, 14036, Pitch_bend_c, 2, 9047
4, 14037, Pitch_bend_c, 2, 8897
4, 14038, Pitch_bend_c, 2, 8728
4, 14039, Pitch_bend_c, 2, 8546
4, 14040, Pitch_bend_c, 2, 8354
4, 14041, Pitch_bend_c, 2, 8159
4, 14042, Pitch_bend_c, 2, 7965
4, 14043, Pitch_bend_c, 2, 7776
4, 14044, Pitch_bend_c, 2, 7598
4, 14045, Pitch_bend_c, 2, 7434
4, 14046, Pitch_bend_c, 2, 7291
4, 14047, Pitch_bend_c, 2, 7169
4, 14048, Pitch_bend_c, 2, 7074
4, 14049, Pitch_bend_c, 2, 7007
4, 14050, Pitch_bend_c, 2, 6971
4, 14051, Pitch_bend_c, 2, 6965
4, 14052, Pitch_bend_c, 2, 6990
4, 14053, Pitch_bend_c, 2, 7046
4, 14054, Pitch_bend_c, 2, 7130
4, 14055, Pitch_bend_c, 2, 7242
4, 14056, Pitch_bend_c, 2, 7378
4, 14057, Pitch_bend_c, 2, 7534
4, 14058, Pitch_bend_c, 2, 7707
4, 14059, Pitch_bend_c, 2, 7893
4, 14060, Pitch_bend_c, 2, 8086
4, 14061, Pitch_bend_c, 2, 8281
4, 14062, Pitch_bend_c, 2, 8475
4, 14063, Pitch_bend_c, 2, 8661
4, 14064, Pitch_bend_c, 2, 8835
4, 14065, Pitch_bend_c, 2, 8993
4, 14066, Pitch_bend_c, 2, 9131
4, 14067, Pitch_bend_c, 2, 9245
4, 14068, Pitch_bend_c, 2, 9332
4, 14069, Pitch_bend_c, 2, 9390
4, 14070, Pitch_bend_c, 2, 9418
4, 14071, Pitch_bend_c, 2, 9415
4, 14072, Pitch_bend_c, 2, 9381
4, 14073, Pitch_bend_c, 2, 9317
4, 14074, Pitch_bend_c, 2, 9224
4, 14075, Pitch_bend_c, 2, 9105
4, 14076, Pitch_bend_c, 2, 8963
4, 14077, Pitch_bend_c, 2, 8801
4, 14078, Pitch_bend_c, 2, 8624
4, 14079, Pitch_bend_c, 2, 8436
4, 14080, Pitch_bend_c, 2, 8242
4, 14081, Pitch_bend_c, 2, 8047
4, 14082, Pitch_bend_c, 2, 7855
4, 14083, Pitch_bend_c, 2, 7672
4, 14084, Pitch_bend_c, 2, 7502
4, 14085, Pitch_bend_c, 2, 7349
4, 14086, Pitch_bend_c, 2, 7218
4, 14087, Pitch_bend_c, 2, 7111
4, 14088, Pitch_bend_c, 2, 7032
4, 14089, Pitch_bend_c, 2, 6982
4, 14090, Pitch_bend_c, 2, 6963
4, 14091, Pitch_bend_c, 2, 6975
4, 14092, Pitch_bend_c, 2, 7018
4, 14093, Pitch_bend_c, 2, 7091
4, 14094, Pitch_bend_c, 2, 7192
4, 14095, Pitch_bend_c, 2, 7318
4, 14096, Pitch_bend_c, 2, 7466
4, 14097, Pitch_bend_c, 2, 7632
4, 14098, Pitch_bend_c, 2, 7813
4, 14099, Pitch_bend_c, 2, 8003
4, 14100, Pitch_bend_c, 2, 8198
4, 14101, Pitch_bend_c, 2, 8393
4, 14102, Pitch_bend_c, 2, 8583
4, 14103, Pitch_bend_c, 2, 8763
4, 14104, Pitch_bend_c, 2, 8928
4, 14105, Pitch_bend_c, 2, 9075
4, 14106, Pitch_bend_c, 2, 9200
4, 14107, Pitch_bend_c, 2, 9298
4, 14108, Pitch_bend_c, 2, 9369
4, 14109, Pitch_bend_c, 2, 9410
4, 14110, Pitch_bend_c, 2, 9420
4, 14111, Pitch_bend_c, 2, 9399
4, 14112, Pitch_bend_c, 2, 9348
4, 14113, Pitch_bend_c, 2, 9267
4, 14114, Pitch_bend_c, 2, 9159
4, 14115, Pitch_bend_c, 2, 9026
4, 14116, Pitch_bend_c, 2, 8872
4, 14117, Pitch_bend_c, 2, 8701
4, 14118, Pitch_bend_c, 2, 8517
4, 14119, Pitch_bend_c, 2, 8325
4, 14120, Pitch_bend_c, 2, 8129
4, 14121, Pitch_bend_c, 2, 7935
4, 14122, Pitch_bend_c, 2, 7748
4, 14123, Pitch_bend_c, 2, 7572
4, 14124, Pitch_bend_c, 2, 7411
4, 14125, Pitch_bend_c, 2, 7271
4, 14126, Pitch_bend_c, 2, 7153
4, 14127, Pitch_bend_c, 2, 7062
4, 14128, Pitch_bend_c, 2, 7000
4, 14129, Pitch_bend_c, 2, 6968
4, 14130, Pitch_bend_c, 2, 6967
4, 14131, Pitch_bend_c, 2, 6996
4, 14132, Pitch_bend_c, 2, 7057
4, 14133, Pitch_bend_c, 2, 7146
4, 14134, Pitch_bend_c, 2, 7261
4, 14135, Pitch_bend_c, 2, 7400
4, 14136, Pitch_bend_c, 2, 7560
4, 14137, Pitch_bend_c, 2, 7735
4, 14138, Pitch_bend_c, 2, 7922
4, 14139, Pitch_bend_c, 2, 8115
4, 14140, Pitch_bend_c, 2, 8311
4, 14141, Pitch_bend_c, 2, 8503
4, 14142, Pitch_bend_c, 2, 8688
4, 14143, Pitch_bend_c, 2, 8860
4, 14144, Pitch_bend_c, 2, 9015
4, 14145, Pitch_bend_c, 2, 9150
4, 14146, Pitch_bend_c, 2, 9260
4, 14147, Pitch_bend_c, 2, 9343
4, 14148, Pitch_bend_c, 2, 9397
4, 14149, Pitch_bend_c, 2, 9420
4, 14150, Pitch_bend_c, 2, 9412
4, 14151, Pitch_bend_c, 2, 9373
4, 14152, Pitch_bend_c, 2, 9304
4, 14153, Pitch_bend_c, 2, 9208
4, 14154, Pitch_bend_c, 2, 9085
4, 14155, Pitch_bend_c, 2, 8940
4, 14156, Pitch_bend_c, 2, 8775
4, 14157, Pitch_bend_c, 2, 8596
4, 14158, Pitch_bend_c, 2, 8407
4, 14159, Pitch_bend_c, 2, 8212
4, 14160, Pitch_bend_c, 2, 8017
4, 14161, Pitch_bend_c, 2, 7826
4, 14162, Pitch_bend_c, 2, 7645
4, 14163, Pitch_bend_c, 2, 7477
4, 14164, Pitch_bend_c, 2, 7328
4, 14165, Pitch_bend_c, 2, 7200
4, 14166, Pitch_bend_c, 2, 7097
4, 14167, Pitch_bend_c, 2, 7023
4, 14168, Pitch_bend_c, 2, 6978
4, 14169, Pitch_bend_c, 2, 6963
4, 14170, Pitch_bend_c, 2, 6980
4, 14171, Pitch_bend_c, 2, 7028
4, 14172, Pitch_bend_c, 2, 7105
4, 14173, Pitch_bend_c, 2, 7209
4, 14174, Pitch_bend_c, 2, 7339
4, 14175, Pitch_bend_c, 2, 7490
4, 14176, Pitch_bend_c, 2, 7659
4, 14177, Pitch_bend_c, 2, 7841
4, 14178, Pitch_bend_c, 2, 8033
4, 14179, Pitch_bend_c, 2, 8228
4, 14180, Pitch_bend_c, 2, 8423
4, 14181, Pitch_bend_c, 2, 8611
4, 14182, Pitch_bend_c, 2, 8789
4, 14183, Pitch_bend_c, 2, 8952
4, 14184, Pitch_bend_c, 2, 9096
4, 14185, Pitch_bend_c, 2, 9216
4, 14186, Pitch_bend_c, 2, 9311
4, 14187, Pitch_bend_c, 2, 9377
4, 14188, Pitch_bend_c, 2, 9414
4, 14189, Pitch_bend_c, 2, 9419
4, 14190, Pitch_bend_c, 2, 9393
4, 14191, Pitch_bend_c, 2, 9337
4, 14192, Pitch_bend_c, 2, 9252
4, 14193, Pitch_bend_c, 2, 9140
4, 14194, Pitch_bend_c, 2, 9004
4, 14195, Pitch_bend_c, 2, 8847
4, 14196, Pitch_bend_c, 2, 8674
4, 14197, Pitch_bend_c, 2, 8488
4, 14198, Pitch_bend_c, 2, 8295
4, 14199, Pitch_bend_c, 2, 8100
4, 14200, Pitch_bend_c, 2, 7906
4, 14201, Pitch_bend_c, 2, 7720
4, 14202, Pitch_bend_c, 2, 7546
4, 14203, Pitch_bend_c, 2, 7388
4, 14204, Pitch_bend_c, 2, 7251
4, 14205, Pitch_bend_c, 2, 7138
4, 14206, Pitch_bend_c, 2, 7051
4, 14207, Pitch_bend_c, 2, 6993
4, 14208, Pitch_bend_c, 2, 6966
4, 14209, Pitch_bend_c, 2, 6969
4, 14210, Pitch_bend_c, 2, 7004
4, 14211, Pitch_bend_c, 2, 7068
4, 14212, Pitch_bend_c, 2, 7162
4, 14213, Pitch_bend_c, 2, 7281
4, 14214, Pitch_bend_c, 2, 7423
4, 14215, Pitch_bend_c, 2, 7585
4, 14216, Pitch_bend_c, 2, 7763
4, 14217, Pitch_bend_c, 2, 7951
4, 14218, Pitch_bend_c, 2, 8145
4, 14219, Pitch_bend_c, 2, 8340
4, 14220, Pitch_bend_c, 2, 8532
4, 14221, Pitch_bend_c, 2, 8715
4, 14222, Pitch_bend_c, 2, 8885
4, 14223, Pitch_bend_c, 2, 9037
4, 14224, Pitch_bend_c, 2, 9168
4, 14225, Pitch_bend_c, 2, 9274
4, 14226, Pitch_bend_c, 2, 9353
4, 14227, Pitch_bend_c, 2, 9402
4, 14228, Pitch_bend_c, 2, 9421
4, 14229, Pitch_bend_c, 2, 9408
4, 14230, Pitch_bend_c, 2, 9365
4, 14231, Pitch_bend_c, 2, 9292
4, 14232, Pitch_bend_c, 2, 9191
4, 14233, Pitch_bend_c, 2, 9064
4, 14234, Pitch_bend_c, 2, 8916
4, 14235, Pitch_bend_c, 2, 8749
4, 14236, Pitch_bend_c, 2, 8568
4, 14237, Pitch_bend_c, 2, 8378
4, 14238, Pitch_bend_c, 2, 8183
4, 14239, Pitch_bend_c, 2, 7988
4, 14240, Pitch_bend_c, 2, 7798
4, 14241, Pitch_bend_c, 2, 7618
4, 14242, Pitch_bend_c, 2, 7453
4, 14243, Pitch_bend_c, 2, 7307
4, 14244, Pitch_bend_c, 2, 7183
4, 14245, Pitch_bend_c, 2, 7084
4, 14246, Pitch_bend_c, 2, 7014
4, 14247, Pitch_bend_c, 2, 6973
4, 14248, Pitch_bend_c, 2, 6964
4, 14249, Pitch_bend_c, 2, 6985
4, 14250, Pitch_bend_c, 2, 7037
4, 14251, Pitch_bend_c, 2, 7119
4, 14252, Pitch_bend_c, 2, 7227
4, 14253, Pitch_bend_c, 2, 7360
4, 14254, Pitch_bend_c, 2, 7515
4, 14255, Pitch_bend_c, 2, 7686
4, 14256, Pitch_bend_c, 2, 7870
4, 14257, Pitch_bend_c, 2, 8062
4, 14258, Pitch_bend_c, 2, 8258
4, 14259, Pitch_bend_c, 2, 8452
4, 14260, Pitch_bend_c, 2, 8639
4, 14261, Pitch_bend_c, 2, 8815
4, 14262, Pitch_bend_c, 2, 8975
4, 14263, Pitch_bend_c, 2, 9116
4, 14264, Pitch_bend_c, 2, 9232
4, 14265, Pitch_bend_c, 2, 9323
4, 14266, Pitch_bend_c, 2, 9385
4, 14267, Pitch_bend_c, 2, 9417
4, 14269, Pitch_bend_c, 2, 9387
4, 14270, Pitch_bend_c, 2, 9326
4, 14271, Pitch_bend_c, 2, 9237
4, 14272, Pitch_bend_c, 2, 9121
4, 14273, Pitch_bend_c, 2, 8981
4, 14274, Pitch_bend_c, 2, 8822
4, 14275, Pitch_bend_c, 2, 8646
4, 14276, Pitch_bend_c, 2, 8459
4, 14277, Pitch_bend_c, 2, 8266
4, 14278, Pitch_bend_c, 2, 8070
4, 14279, Pitch_bend_c, 2, 7877
4, 14280, Pitch_bend_c, 2, 7693
4, 14281, Pitch_bend_c, 2, 7521
4, 14282, Pitch_bend_c, 2, 7366
4, 14283, Pitch_bend_c, 2, 7232
4, 14284, Pitch_bend_c, 2, 7123
4, 14285, Pitch_bend_c, 2, 7040
4, 14286, Pitch_bend_c, 2, 6987
4, 14287, Pitch_bend_c, 2, 6964
4, 14288, Pitch_bend_c, 2, 6972
4, 14289, Pitch_bend_c, 2, 7012
4, 14290, Pitch_bend_c, 2, 7081
4, 14291, Pitch_bend_c, 2, 7178
4, 14292, Pitch_bend_c, 2, 7301
4, 14293, Pitch_bend_c, 2, 7447
4, 14294, Pitch_bend_c, 2, 7611
4, 14295, Pitch_bend_c, 2, 7791
4, 14296, Pitch_bend_c, 2, 7980
4, 14297, Pitch_bend_c, 2, 8175
4, 14298, Pitch_bend_c, 2, 8370
4, 14299, Pitch_bend_c, 2, 8561
4, 14300, Pitch_bend_c, 2, 8742
4, 14301, Pitch_bend_c, 2, 8909
4, 14302, Pitch_bend_c, 2, 9059
4, 14303, Pitch_bend_c, 2, 9186
4, 14304, Pitch_bend_c, 2, 9288
4, 14305, Pitch_bend_c, 2, 9362
4, 14306, Pitch_bend_c, 2, 9407
4, 14307, Pitch_bend_c, 2, 9421
4, 14308, Pitch_bend_c, 2, 9403
4, 14309, Pitch_bend_c, 2, 9355
4, 14310, Pitch_bend_c, 2, 9278
4, 14311, Pitch_bend_c, 2, 9173
4, 14312, Pitch_bend_c, 2, 9043
4, 14313, Pitch_bend_c, 2, 8892
4, 14314, Pitch_bend_c, 2, 8722
4, 14315, Pitch_bend_c, 2, 8540
4, 14316, Pitch_bend_c, 2, 8348
4, 14317, Pitch_bend_c, 2, 8153
4, 14318, Pitch_bend_c, 2, 7958
4, 14319, Pitch_bend_c, 2, 7770
4, 14320, Pitch_bend_c, 2, 7592
4, 14321, Pitch_bend_c, 2, 7430
4, 14322, Pitch_bend_c, 2, 7286
4, 14323, Pitch_bend_c, 2, 7166
4, 14324, Pitch_bend_c, 2, 7072
4, 14325, Pitch_bend_c, 2, 7006
4, 14326, Pitch_bend_c, 2, 6970
4, 14327, Pitch_bend_c, 2, 6965
4, 14328, Pitch_bend_c, 2, 6991
4, 14329, Pitch_bend_c, 2, 7048
4, 14330, Pitch_bend_c, 2, 7134
4, 14331, Pitch_bend_c, 2, 7246
4, 14332, Pitch_bend_c, 2, 7383
4, 14333, Pitch_bend_c, 2, 7540
4, 14334, Pitch_bend_c, 2, 7713
4, 14335, Pitch_bend_c, 2, 7899
4, 14336, Pitch_bend_c, 2, 8092
4, 14337, Pitch_bend_c, 2, 8287
4, 14338, Pitch_bend_c, 2, 8481
4, 14339, Pitch_bend_c, 2, 8667
4, 14340, Pitch_bend_c, 2, 8840
4, 14341, Pitch_bend_c, 2, 8998
4, 14342, Pitch_bend_c, 2, 9135
4, 14343, Pitch_bend_c, 2, 9248
4, 14344, Pitch_bend_c, 2, 9334
4, 14345, Pitch_bend_c, 2, 9392
4, 14346, Pitch_bend_c, 2, 9419
4, 14347, Pitch_bend_c, 2, 9415
4, 14348, Pitch_bend_c, 2, 9379
4, 14349, Pitch_bend_c, 2, 9314
4, 14350, Pitch_bend_c, 2, 9221
4, 14351, Pitch_bend_c, 2, 9101
4, 14352, Note_off_c, 2, 85, 64
4, 14400, Pitch_bend_c, 2, 8192
4, 14400, Note_on_c, 2, 62, 64
4, 14472, Pitch_bend_c, 2, 8668
4, 14473, Pitch_bend_c, 2, 8482
4, 14474, Pitch_bend_c, 2, 8289
4, 14475, Pitch_bend_c, 2, 8093
4, 14476, Pitch_bend_c, 2, 7900
4, 14477, Pitch_bend_c, 2, 7715
4, 14478, Pitch_bend_c, 2, 7541
4, 14479, Pitch_bend_c, 2, 7384
4, 14480, Pitch_bend_c, 2, 7247
4, 14481, Pitch_bend_c, 2, 7134
4, 14482, Pitch_bend_c, 2, 7049
4, 14483, Pitch_bend_c, 2, 6992
4, 14484, Pitch_bend_c, 2, 6965
4, 14485, Pitch_bend_c, 2, 6970
4, 14486, Pitch_bend_c, 2, 7005
4, 14487, Pitch_bend_c, 2, 7071
4, 14488, Pitch_bend_c, 2, 7165
4, 14489, Pitch_bend_c, 2, 7285
4, 14490, Pitch_bend_c, 2, 7428
4, 14491, Pitch_bend_c, 2, 7591
4, 14492, Pitch_bend_c, 2, 7768
4, 14493, Pitch_bend_c, 2, 7957
4, 14494, Pitch_bend_c, 2, 8151
4, 14495, Pitch_bend_c, 2, 8347
4, 14496, Note_off_c, 2, 62, 64
4, 14496, Pitch_bend_c, 2, 8192
4, 14496, Note_on_c, 2, 64, 64
4, 14568, Pitch_bend_c, 2, 7306
4, 14569, Pitch_bend_c, 2, 7452
4, 14570, Pitch_bend_c, 2, 7617
4, 14571, Pitch_bend_c, 2, 7797
4, 14572, Pitch_bend_c, 2, 7986
4, 14573, Pitch_bend_c, 2, 8181
4, 14574, Pitch_bend_c, 2, 8376
4, 14575, Pitch_bend_c, 2, 8567
4, 14576, Pitch_bend_c, 2, 8748
4, 14577, Pitch_bend_c, 2, 8915
4, 14578, Pitch_bend_c, 2, 9063
4, 14579, Pitch_bend_c, 2, 9190
4, 14580, Pitch_bend_c, 2, 9291
4, 14581, Pitch_bend_c, 2, 9364
4, 14582, Pitch_bend_c, 2, 9408
4, 14583, Pitch_bend_c, 2, 9421
4, 14584, Pitch_bend_c, 2, 9402
4, 14585, Pitch_bend_c, 2, 9353
4, 14586, Pitch_bend_c, 2, 9275
4, 14587, Pitch_bend_c, 2, 9169
4, 14588, Pitch_bend_c, 2, 9038
4, 14589, Pitch_bend_c, 2, 8886
4, 14590, Pitch_bend_c, 2, 8717
4, 14591, Pitch_bend_c, 2, 8534
4, 14592, Note_off_c, 2, 64, 64
4, 14784, Pitch_bend_c, 2, 8192
4, 14784, Note_on_c, 2, 70, 64
4, 14832, Note_off_c, 2, 70, 64
4, 14832, Note_on_c, 2, 71, 64
4, 14880, Note_off_c, 2, 71, 64
4, 14880, Note_on_c, 2, 73, 64
4, 14928, Note_off_c, 2, 73, 64
4, 14928, Note_on_c, 2, 73, 64
4, 15000, Pitch_bend_c, 2, 9191
4, 15001, Pitch_bend_c, 2, 9064
4, 15002, Pitch_bend_c, 2, 8916
4, 15003, Pitch_bend_c, 2, 8749
4, 15004, Pitch_bend_c, 2, 8568
4, 15005, Pitch_bend_c, 2, 8378
4, 15006, Pitch_bend_c, 2, 8183
4, 15007, Pitch_bend_c, 2, 7988
4, 15008, Pitch_bend_c, 2, 7798
4, 15009, Pitch_bend_c, 2, 7618
4, 15010, Pitch_bend_c, 2, 7453
4, 15011, Pitch_bend_c, 2, 7307
4, 15012, Pitch_bend_c, 2, 7183
4, 15013, Pitch_bend_c, 2, 7084
4, 15014, Pitch_bend_c, 2, 7014
4, 15015, Pitch_bend_c, 2, 6973
4, 15016, Pitch_bend_c, 2, 6964
4, 15017, Pitch_bend_c, 2, 6985
4, 15018, Pitch_bend_c, 2, 7037
4, 15019, Pitch_bend_c, 2, 7119
4, 15020, Pitch_bend_c, 2, 7227
4, 15021, Pitch_bend_c, 2, 7360
4, 15022, Pitch_bend_c, 2, 7515
4, 15023, Pitch_bend_c, 2, 7686
4, 15024, Pitch_bend_c, 2, 7870
4, 15025, Pitch_bend_c, 2, 8062
4, 15026, Pitch_bend_c, 2, 8258
4, 15027, Pitch_bend_c, 2, 8452
4, 15028, Pitch_bend_c, 2, 8639
4, 15029, Pitch_bend_c, 2, 8815
4, 15030, Pitch_bend_c, 2, 8975
4, 15031, Pitch_bend_c, 2, 9116
4, 15032, Pitch_bend_c, 2, 9232
4, 15033, Pitch_bend_c, 2, 9323
4, 15034, Pitch_bend_c, 2, 9385
4, 15035, Pitch_bend_c, 2, 9417
4, 15037, Pitch_bend_c, 2, 9387
4, 15038, Pitch_bend_c, 2, 9326
4, 15039, Pitch_bend_c, 2, 9237
4, 15040, Pitch_bend_c, 2, 9121
4, 15041, Pitch_bend_c, 2, 8981
4, 15042, Pitch_bend_c, 2, 8822
4, 15043, Pitch_bend_c, 2, 8646
4, 15044, Pitch_bend_c, 2, 8459
4, 15045, Pitch_bend_c, 2, 8266
4, 15046, Pitch_bend_c, 2, 8070
4, 15047, Pitch_bend_c, 2, 7877
4, 15048, Pitch_bend_c, 2, 7693
4, 15049, Pitch_bend_c, 2, 7521
4, 15050, Pitch_bend_c, 2, 7366
4, 15051, Pitch_bend_c, 2, 7232
4, 15052, Pitch_bend_c, 2, 7123
4, 15053, Pitch_bend_c, 2, 7040
4, 15054, Pitch_bend_c, 2, 6987
4, 15055, Pitch_bend_c, 2, 6964
4, 15056, Pitch_bend_c, 2, 6972
4, 15057, Pitch_bend_c, 2, 7012
4, 15058, Pitch_bend_c, 2, 7081
4, 15059, Pitch_bend_c, 2, 7178
4, 15060, Pitch_bend_c, 2, 7301
4, 15061, Pitch_bend_c, 2, 7447
4, 15062, Pitch_bend_c, 2, 7611
4, 15063, Pitch_bend_c, 2, 7791
4, 15064, Pitch_bend_c, 2, 7980
4, 15065, Pitch_bend_c, 2, 8175
4, 15066, Pitch_bend_c, 2, 8370
4, 15067, Pitch_bend_c, 2, 8561
4, 15068, Pitch_bend_c, 2, 8742
4, 15069, Pitch_bend_c, 2, 8909
4, 15070, Pitch_bend_c, 2, 9059
4, 15071, Pitch_bend_c, 2, 9186
4, 15072, Note_off_c, 2, 73, 64
4, 15072, Pitch_bend_c, 2, 8192
4, 15072, Note_on_c, 2, 78, 64
4, 15144, Pitch_bend_c, 2, 8205
4, 15145, Pitch_bend_c, 2, 8399
4, 15146, Pitch_bend_c, 2, 8589
4, 15147, Pitch_bend_c, 2, 8768
4, 15148, Pitch_bend_c, 2, 8933
4, 15149, Pitch_bend_c, 2, 9080
4, 15150, Pitch_bend_c, 2, 9203
4, 15151, Pitch_bend_c, 2, 9301
4, 15152, Pitch_bend_c, 2, 9371
4, 15153, Pitch_bend_c, 2, 9411
4, 15154, Pitch_bend_c, 2, 9420
4, 15155, Pitch_bend_c, 2, 9398
4, 15156, Pitch_bend_c, 2, 9345
4, 15157, Pitch_bend_c, 2, 9264
4, 15158, Pitch_bend_c, 2, 9155
4, 15159, Pitch_bend_c, 2, 9021
4, 15160, Pitch_bend_c, 2, 8867
4, 15161, Pitch_bend_c, 2, 8695
4, 15162, Pitch_bend_c, 2, 8511
4, 15163, Pitch_bend_c, 2, 8319
4, 15164, Pitch_bend_c, 2, 8123
4, 15165, Pitch_bend_c, 2, 7929
4, 15166, Pitch_bend_c, 2, 7742
4, 15167, Pitch_bend_c, 2, 7566
4, 15168, Note_off_c, 2, 78, 64
4, 15168, Pitch_bend_c, 2, 8192
4, 15168, Note_on_c, 2, 77, 64
4, 15240, Pitch_bend_c, 2, 8668
4, 15241, Pitch_bend_c, 2, 8482
4, 15242, Pitch_bend_c, 2, 8289
4, 15243, Pitch_bend_c, 2, 8093
4, 15244, Pitch_bend_c, 2, 7900
4, 15245, Pitch_bend_c, 2, 7715
4, 15246, Pitch_bend_c, 2, 7541
4, 15247, Pitch_bend_c, 2, 7384
4, 15248, Pitch_bend_c, 2, 7247
4, 15249, Pitch_bend_c, 2, 7134
4, 15250, Pitch_bend_c, 2, 7049
4, 15251, Pitch_bend_c, 2, 6992
4, 15252, Pitch_bend_c, 2, 6965
4, 15253, Pitch_bend_c, 2, 6970
4, 15254, Pitch_bend_c, 2, 7005
4, 15255, Pitch_bend_c, 2, 7071
4, 15256, Pitch_bend_c, 2, 7165
4, 15257, Pitch_bend_c, 2, 7285
4, 15258, Pitch_bend_c, 2, 7428
4, 15259, Pitch_bend_c, 2, 7591
4, 15260, Pitch_bend_c, 2, 7768
4, 15261, Pitch_bend_c, 2, 7957
4, 15262, Pitch_bend_c, 2, 8151
4, 15263, Pitch_bend_c, 2, 8347
4, 15264, Note_off_c, 2, 77, 64
4, 15264, Pitch_bend_c, 2, 8192
4, 15264, Note_on_c, 2, 78, 64
4, 15336, Pitch_bend_c, 2, 7306
4, 15337, Pitch_bend_c, 2, 7452
4, 15338, Pitch_bend_c, 2, 7617
4, 15339, Pitch_bend_c, 2, 7797
4, 15340, Pitch_bend_c, 2, 7986
4, 15341, Pitch_bend_c, 2, 8181
4, 15342, Pitch_bend_c, 2, 8376
4, 15343, Pitch_bend_c, 2, 8567
4, 15344, Pitch_bend_c, 2, 8748
4, 15345, Pitch_bend_c, 2, 8915
4, 15346, Pitch_bend_c, 2, 9063
4, 15347, Pitch_bend_c, 2, 9190
4, 15348, Pitch_bend_c, 2, 9291
4, 15349, Pitch_bend_c, 2, 9364
4, 15350, Pitch_bend_c, 2, 9408
4, 15351, Pitch_bend_c, 2, 9421
4, 15352, Pitch_bend_c, 2, 9402
4, 15353, Pitch_bend_c, 2, 9353
4, 15354, Pitch_bend_c, 2, 9275
4, 15355, Pitch_bend_c, 2, 9169
4, 15356, Pitch_bend_c, 2, 9038
4, 15357, Pitch_bend_c, 2, 8886
4, 15358, Pitch_bend_c, 2, 8717
4, 15359, Pitch_bend_c, 2, 8534
4, 15360, Note_off_c, 2, 78, 64
4, 15360, Pitch_bend_c, 2, 8192
4, 15360, Note_on_c, 2, 78, 64
4, 15385, Pitch_bend_c, 2, 8533
4, 15386, Pitch_bend_c, 2, 8875
4, 15387, Pitch_bend_c, 2, 9216
4, 15388, Pitch_bend_c, 2, 9557
4, 15389, Pitch_bend_c, 2, 9899
4, 15390, Pitch_bend_c, 2, 6144
4, 15390, Note_on_c, 2, 79, 64
4, 15390, Note_off_c, 2, 78, 64
4, 15391, Pitch_bend_c, 2, 6485
4, 15392, Pitch_bend_c, 2, 6827
4, 15393, Pitch_bend_c, 2, 7168
4, 15394, Pitch_bend_c, 2, 7509
4, 15395, Pitch_bend_c, 2, 7851
4, 15396, Pitch_bend_c, 2, 8192
4, 15397, Pitch_bend_c, 2, 8533
4, 15398, Pitch_bend_c, 2, 8875
4, 15399, Pitch_bend_c, 2, 9216
4, 15400, Pitch_bend_c, 2, 9557
4, 15401, Pitch_bend_c, 2, 9899
4, 15402, Pitch_bend_c, 2, 6144
4, 15402, Note_on_c, 2, 80, 64
4, 15402, Note_off_c, 2, 79, 64
4, 15403, Pitch_bend_c, 2, 6485
4, 15404, Pitch_bend_c, 2, 6827
4, 15405, Pitch_bend_c, 2, 7168
4, 15406, Pitch_bend_c, 2, 7509
4, 15407, Pitch_bend_c, 2, 7851
4, 15408, Note_off_c, 2, 80, 64
4, 15408, Pitch_bend_c, 2, 8192
4, 15408, Note_on_c, 2, 80, 64
4, 15456, Note_off_c, 2, 80, 64
4, 15456, Note_on_c, 2, 82, 64
4, 15504, Note_off_c, 2, 82, 64
4, 15504, Note_on_c, 2, 78, 64
4, 15576, Pitch_bend_c, 2, 8354
4, 15577, Pitch_bend_c, 2, 8159
4, 15578, Pitch_bend_c, 2, 7965
4, 15579, Pitch_bend_c, 2, 7776
4, 15580, Pitch_bend_c, 2, 7598
4, 15581, Pitch_bend_c, 2, 7434
4, 15582, Pitch_bend_c, 2, 7291
4, 15583, Pitch_bend_c, 2, 7169
4, 15584, Pitch_bend_c, 2, 7074
4, 15585, Pitch_bend_c, 2, 7007
4, 15586, Pitch_bend_c, 2, 6971
4, 15587, Pitch_bend_c, 2, 6965
4, 15588, Pitch_bend_c, 2, 6990
4, 15589, Pitch_bend_c, 2, 7046
4, 15590, Pitch_bend_c, 2, 7130
4, 15591, Pitch_bend_c, 2, 7242
4, 15592, Pitch_bend_c, 2, 7378
4, 15593, Pitch_bend_c, 2, 7534
4, 15594, Pitch_bend_c, 2, 7707
4, 15595, Pitch_bend_c, 2, 7893
4, 15596, Pitch_bend_c, 2, 8086
4, 15597, Pitch_bend_c, 2, 8281
4, 15598, Pitch_bend_c, 2, 8475
4, 15599, Pitch_bend_c, 2, 8661
4, 15600, Pitch_bend_c, 2, 8835
4, 15601, Pitch_bend_c, 2, 8993
4, 15602, Pitch_bend_c, 2, 9131
4, 15603, Pitch_bend_c, 2, 9245
4, 15604, Pitch_bend_c, 2, 9332
4, 15605, Pitch_bend_c, 2, 9390
4, 15606, Pitch_bend_c, 2, 9418
4, 15607, Pitch_bend_c, 2, 9415
4, 15608, Pitch_bend_c, 2, 9381
4, 15609, Pitch_bend_c, 2, 9317
4, 15610, Pitch_bend_c, 2, 9224
4, 15611, Pitch_bend_c, 2, 9105
4, 15612, Pitch_bend_c, 2, 8963
4, 15613, Pitch_bend_c, 2, 8801
4, 15614, Pitch_bend_c, 2, 8624
4, 15615, Pitch_bend_c, 2, 8436
4, 15616, Pitch_bend_c, 2, 8242
4, 15617, Pitch_bend_c, 2, 8047
4, 15618, Pitch_bend_c, 2, 7855
4, 15619, Pitch_bend_c, 2, 7672
4, 15620, Pitch_bend_c, 2, 7502
4, 15621, Pitch_bend_c, 2, 7349
4, 15622, Pitch_bend_c, 2, 7218
4, 15623, Pitch_bend_c, 2, 7111
4, 15624, Pitch_bend_c, 2, 7032
4, 15625, Pitch_bend_c, 2, 6982
4, 15626, Pitch_bend_c, 2, 6963
4, 15627, Pitch_bend_c, 2, 6975
4, 15628, Pitch_bend_c, 2, 7018
4, 15629, Pitch_bend_c, 2, 7091
4, 15630, Pitch_bend_c, 2, 7192
4, 15631, Pitch_bend_c, 2, 7318
4, 15632, Pitch_bend_c, 2, 7466
4, 15633, Pitch_bend_c, 2, 7632
4, 15634, Pitch_bend_c, 2, 7813
4, 15635, Pitch_bend_c, 2, 8003
4, 15636, Pitch_bend_c, 2, 8198
4, 15637, Pitch_bend_c, 2, 8393
4, 15638, Pitch_bend_c, 2, 8583
4, 15639, Pitch_bend_c, 2, 8763
4, 15640, Pitch_bend_c, 2, 8928
4, 15641, Pitch_bend_c, 2, 9075
4, 15642, Pitch_bend_c, 2, 9200
4, 15643, Pitch_bend_c, 2, 9298
4, 15644, Pitch_bend_c, 2, 9369
4, 15645, Pitch_bend_c, 2, 9410
4, 15646, Pitch_bend_c, 2, 9420
4, 15647, Pitch_bend_c, 2, 9399
4, 15648, Pitch_bend_c, 2, 9348
4, 15649, Pitch_bend_c, 2, 9267
4, 15650, Pitch_bend_c, 2, 9159
4, 15651, Pitch_bend_c, 2, 9026
4, 15652, Pitch_bend_c, 2, 8872
4, 15653, Pitch_bend_c, 2, 8701
4, 15654, Pitch_bend_c, 2, 8517
4, 15655, Pitch_bend_c, 2, 8325
4, 15656, Pitch_bend_c, 2, 8129
4, 15657, Pitch_bend_c, 2, 7935
4, 15658, Pitch_bend_c, 2, 7748
4, 15659, Pitch_bend_c, 2, 7572
4, 15660, Pitch_bend_c, 2, 7411
4, 15661, Pitch_bend_c, 2, 7271
4, 15662, Pitch_bend_c, 2, 7153
4, 15663, Pitch_bend_c, 2, 7062
4, 15664, Pitch_bend_c, 2, 7000
4, 15665, Pitch_bend_c, 2, 6968
4, 15666, Pitch_bend_c, 2, 6967
4, 15667, Pitch_bend_c, 2, 6996
4, 15668, Pitch_bend_c, 2, 7057
4, 15669, Pitch_bend_c, 2, 7146
4, 15670, Pitch_bend_c, 2, 7261
4, 15671, Pitch_bend_c, 2, 7400
4, 15672, Pitch_bend_c, 2, 7560
4, 15673, Pitch_bend_c, 2, 7735
4, 15674, Pitch_bend_c, 2, 7922
4, 15675, Pitch_bend_c, 2, 8115
4, 15676, Pitch_bend_c, 2, 8311
4, 15677, Pitch_bend_c, 2, 8503
4, 15678, Pitch_bend_c, 2, 8688
4, 15679, Pitch_bend_c, 2, 8860
4, 15680, Pitch_bend_c, 2, 9015
4, 15681, Pitch_bend_c, 2, 9150
4, 15682, Pitch_bend_c, 2, 9260
4, 15683, Pitch_bend_c, 2, 9343
4, 15684, Pitch_bend_c, 2, 9397
4, 15685, Pitch_bend_c, 2, 9420
4, 15686, Pitch_bend_c, 2, 9412
4, 15687, Pitch_bend_c, 2, 9373
4, 15688, Pitch_bend_c, 2, 9304
4, 15689, Pitch_bend_c, 2, 9208
4, 15690, Pitch_bend_c, 2, 9085
4, 15691, Pitch_bend_c, 2, 8940
4, 15692, Pitch_bend_c, 2, 8775
4, 15693, Pitch_bend_c, 2, 8596
4, 15694, Pitch_bend_c, 2, 8407
4, 15695, Pitch_bend_c, 2, 8212
4, 15696, Pitch_bend_c, 2, 8017
4, 15697, Pitch_bend_c, 2, 7826
4, 15698, Pitch_bend_c, 2, 7645
4, 15699, Pitch_bend_c, 2, 7477
4, 15700, Pitch_bend_c, 2, 7328
4, 15701, Pitch_bend_c, 2, 7200
4, 15702, Pitch_bend_c, 2, 7097
4, 15703, Pitch_bend_c, 2, 7023
4, 15704, Pitch_bend_c, 2, 6978
4, 15705, Pitch_bend_c, 2, 6963
4, 15706, Pitch_bend_c, 2, 6980
4, 15707, Pitch_bend_c, 2, 7028
4, 15708, Pitch_bend_c, 2, 7105
4, 15709, Pitch_bend_c, 2, 7209
4, 15710, Pitch_bend_c, 2, 7339
4, 15711, Pitch_bend_c, 2, 7490
4, 15712, Pitch_bend_c, 2, 7659
4, 15713, Pitch_bend_c, 2, 7841
4, 15714, Pitch_bend_c, 2, 8033
4, 15715, Pitch_bend_c, 2, 8228
4, 15716, Pitch_bend_c, 2, 8423
4, 15717, Pitch_bend_c, 2, 8611
4, 15718, Pitch_bend_c, 2, 8789
4, 15719, Pitch_bend_c, 2, 8952
4, 15720, Pitch_bend_c, 2, 9096
4, 15721, Pitch_bend_c, 2, 9216
4, 15722, Pitch_bend_c, 2, 9311
4, 15723, Pitch_bend_c, 2, 9377
4, 15724, Pitch_bend_c, 2, 9414
4, 15725, Pitch_bend_c, 2, 9419
4, 15726, Pitch_bend_c, 2, 9393
4, 15727, Pitch_bend_c, 2, 9337
4, 15728, Pitch_bend_c, 2, 9252
4, 15729, Pitch_bend_c, 2, 9140
4, 15730, Pitch_bend_c, 2, 9004
4, 15731, Pitch_bend_c, 2, 8847
4, 15732, Pitch_bend_c, 2, 8674
4, 15733, Pitch_bend_c, 2, 8488
4, 15734, Pitch_bend_c, 2, 8295
4, 15735, Pitch_bend_c, 2, 8100
4, 15736, Pitch_bend_c, 2, 7906
4, 15737, Pitch_bend_c, 2, 7720
4, 15738, Pitch_bend_c, 2, 7546
4, 15739, Pitch_bend_c, 2, 7388
4, 15740, Pitch_bend_c, 2, 7251
4, 15741, Pitch_bend_c, 2, 7138
4, 15742, Pitch_bend_c, 2, 7051
4, 15743, Pitch_bend_c, 2, 6993
4, 15744, Pitch_bend_c, 2, 6966
4, 15745, Pitch_bend_c, 2, 6969
4, 15746, Pitch_bend_c, 2, 7004
4, 15747, Pitch_bend_c, 2, 7068
4, 15748, Pitch_bend_c, 2, 7162
4, 15749, Pitch_bend_c, 2, 7281
4, 15750, Pitch_bend_c, 2, 7423
4, 15751, Pitch_bend_c, 2, 7585
4, 15752, Pitch_bend_c, 2, 7763
4, 15753, Pitch_bend_c, 2, 7951
4, 15754, Pitch_bend_c, 2, 8145
4, 15755, Pitch_bend_c, 2, 8340
4, 15756, Pitch_bend_c, 2, 8532
4, 15757, Pitch_bend_c, 2, 8715
4, 15758, Pitch_bend_c, 2, 8885
4, 15759, Pitch_bend_c, 2, 9037
4, 15760, Pitch_bend_c, 2, 9168
4, 15761, Pitch_bend_c, 2, 9274
4, 15762, Pitch_bend_c, 2, 9353
4, 15763, Pitch_bend_c, 2, 9402
4, 15764, Pitch_bend_c, 2, 9421
4, 15765, Pitch_bend_c, 2, 9408
4, 15766, Pitch_bend_c, 2, 9365
4, 15767, Pitch_bend_c, 2, 9292
4, 15768, Pitch_bend_c, 2, 9191
4, 15769, Pitch_bend_c, 2, 9064
4, 15770, Pitch_bend_c, 2, 8916
4, 15771, Pitch_bend_c, 2, 8749
4, 15772, Pitch_bend_c, 2, 8568
4, 15773, Pitch_bend_c, 2, 8378
4, 15774, Pitch_bend_c, 2, 8183
4, 15775, Pitch_bend_c, 2, 7988
4, 15776, Pitch_bend_c, 2, 7798
4, 15777, Pitch_bend_c, 2, 7618
4, 15778, Pitch_bend_c, 2, 7453
4, 15779, Pitch_bend_c, 2, 7307
4, 15780, Pitch_bend_c, 2, 7183
4, 15781, Pitch_bend_c, 2, 7084
4, 15782, Pitch_bend_c, 2, 7014
4, 15783, Pitch_bend_c, 2, 6973
4, 15784, Pitch_bend_c, 2, 6964
4, 15785, Pitch_bend_c, 2, 6985
4, 15786, Pitch_bend_c, 2, 7037
4, 15787, Pitch_bend_c, 2, 7119
4, 15788, Pitch_bend_c, 2, 7227
4, 15789, Pitch_bend_c, 2, 7360
4, 15790, Pitch_bend_c, 2, 7515
4, 15791, Pitch_bend_c, 2, 7686
4, 15792, Pitch_bend_c, 2, 7870
4, 15793, Pitch_bend_c, 2, 8062
4, 15794, Pitch_bend_c, 2, 8258
4, 15795, Pitch_bend_c, 2, 8452
4, 15796, Pitch_bend_c, 2, 8639
4, 15797, Pitch_bend_c, 2, 8815
4, 15798, Pitch_bend_c, 2, 8975
4, 15799, Pitch_bend_c, 2, 9116
4, 15800, Pitch_bend_c, 2, 9232
4, 15801, Pitch_bend_c, 2, 9323
4, 15802, Pitch_bend_c, 2, 9385
4, 15803, Pitch_bend_c, 2, 9417
4, 15805, Pitch_bend_c, 2, 9387
4, 15806, Pitch_bend_c, 2, 9326
4, 15807, Pitch_bend_c, 2, 9237
4, 15808, Pitch_bend_c, 2, 9121
4, 15809, Pitch_bend_c, 2, 8981
4, 15810, Pitch_bend_c, 2, 8822
4, 15811, Pitch_bend_c, 2, 8646
4, 15812, Pitch_bend_c, 2, 8459
4, 15813, Pitch_bend_c, 2, 8266
4, 15814, Pitch_bend_c, 2, 8070
4, 15815, Pitch_bend_c, 2, 7877
4, 15816, Pitch_bend_c, 2, 7693
4, 15817, Pitch_bend_c, 2, 7521
4, 15818, Pitch_bend_c, 2, 7366
4, 15819, Pitch_bend_c, 2, 7232
4, 15820, Pitch_bend_c, 2, 7123
4, 15821, Pitch_bend_c, 2, 7040
4, 15822, Pitch_bend_c, 2, 6987
4, 15823, Pitch_bend_c, 2, 6964
4, 15824, Pitch_bend_c, 2, 6972
4, 15825, Pitch_bend_c, 2, 7012
4, 15826, Pitch_bend_c, 2, 7081
4, 15827, Pitch_bend_c, 2, 7178
4, 15828, Pitch_bend_c, 2, 7301
4, 15829, Pitch_bend_c, 2, 7447
4, 15830, Pitch_bend_c, 2, 7611
4, 15831, Pitch_bend_c, 2, 7791
4, 15832, Pitch_bend_c, 2, 7980
4, 15833, Pitch_bend_c, 2, 8175
4, 15834, Pitch_bend_c, 2, 8370
4, 15835, Pitch_bend_c, 2, 8561
4, 15836, Pitch_bend_c, 2, 8742
4, 15837, Pitch_bend_c, 2, 8909
4, 15838, Pitch_bend_c, 2, 9059
4, 15839, Pitch_bend_c, 2, 9186
4, 15840, Pitch_bend_c, 2, 9288
4, 15841, Pitch_bend_c, 2, 9362
4, 15842, Pitch_bend_c, 2, 9407
4, 15843, Pitch_bend_c, 2, 9421
4, 15844, Pitch_bend_c, 2, 9403
4, 15845, Pitch_bend_c, 2, 9355
4, 15846, Pitch_bend_c, 2, 9278
4, 15847, Pitch_bend_c, 2, 9173
4, 15848, Pitch_bend_c, 2, 9043
4, 15849, Pitch_bend_c, 2, 8892
4, 15850, Pitch_bend_c, 2, 8722
4, 15851, Pitch_bend_c, 2, 8540
4, 15852, Pitch_bend_c, 2, 8348
4, 15853, Pitch_bend_c, 2, 8153
4, 15854, Pitch_bend_c, 2, 7958
4, 15855, Pitch_bend_c, 2, 7770
4, 15856, Pitch_bend_c, 2, 7592
4, 15857, Pitch_bend_c, 2, 7430
4, 15858, Pitch_bend_c, 2, 7286
4, 15859, Pitch_bend_c, 2, 7166
4, 15860, Pitch_bend_c, 2, 7072
4, 15861, Pitch_bend_c, 2, 7006
4, 15862, Pitch_bend_c, 2, 6970
4, 15863, Pitch_bend_c, 2, 6965
4, 15864, Pitch_bend_c, 2, 6991
4, 15865, Pitch_bend_c, 2, 7048
4, 15866, Pitch_bend_c, 2, 7134
4, 15867, Pitch_bend_c, 2, 7246
4, 15868, Pitch_bend_c, 2, 7383
4, 15869, Pitch_bend_c, 2, 7540
4, 15870, Pitch_bend_c, 2, 7713
4, 15871, Pitch_bend_c, 2, 7899
4, 15872, Pitch_bend_c, 2, 8092
4, 15873, Pitch_bend_c, 2, 8287
4, 15874, Pitch_bend_c, 2, 8481
4, 15875, Pitch_bend_c, 2, 8667
4, 15876, Pitch_bend_c, 2, 8840
4, 15877, Pitch_bend_c, 2, 8998
4, 15878, Pitch_bend_c, 2, 9135
4, 15879, Pitch_bend_c, 2, 9248
4, 15880, Pitch_bend_c, 2, 9334
4, 15881, Pitch_bend_c, 2, 9392
4, 15882, Pitch_bend_c, 2, 9419
4, 15883, Pitch_bend_c, 2, 9415
4, 15884, Pitch_bend_c, 2, 9379
4, 15885, Pitch_bend_c, 2, 9314
4, 15886, Pitch_bend_c, 2, 9221
4, 15887, Pitch_bend_c, 2, 9101
4, 15888, Pitch_bend_c, 2, 8958
4, 15889, Pitch_bend_c, 2, 8796
4, 15890, Pitch_bend_c, 2, 8618
4, 15891, Pitch_bend_c, 2, 8430
4, 15892, Pitch_bend_c, 2, 8236
4, 15893, Pitch_bend_c, 2, 8040
4, 15894, Pitch_bend_c, 2, 7849
4, 15895, Pitch_bend_c, 2, 7666
4, 15896, Pitch_bend_c, 2, 7496
4, 15897, Pitch_bend_c, 2, 7344
4, 15898, Pitch_bend_c, 2, 7214
4, 15899, Pitch_bend_c, 2, 7108
4, 15900, Pitch_bend_c, 2, 7030
4, 15901, Pitch_bend_c, 2, 6981
4, 15902, Pitch_bend_c, 2, 6963
4, 15903, Pitch_bend_c, 2, 6976
4, 15904, Pitch_bend_c, 2, 7020
4, 15905, Pitch_bend_c, 2, 7094
4, 15906, Pitch_bend_c, 2, 7195
4, 15907, Pitch_bend_c, 2, 7322
4, 15908, Pitch_bend_c, 2, 7471
4, 15909, Pitch_bend_c, 2, 7638
4, 15910, Pitch_bend_c, 2, 7819
4, 15911, Pitch_bend_c, 2, 8009
4, 15912, Pitch_bend_c, 2, 8205
4, 15913, Pitch_bend_c, 2, 8399
4, 15914, Pitch_bend_c, 2, 8589
4, 15915, Pitch_bend_c, 2, 8768
4, 15916, Pitch_bend_c, 2, 8933
4, 15917, Pitch_bend_c, 2, 9080
4, 15918, Pitch_bend_c, 2, 9203
4, 15919, Pitch_bend_c, 2, 9301
4, 15920, Pitch_bend_c, 2, 9371
4, 15921, Pitch_bend_c, 2, 9411
4, 15922, Pitch_bend_c, 2, 9420
4, 15923, Pitch_bend_c, 2, 9398
4, 15924, Pitch_bend_c, 2, 9345
4, 15925, Pitch_bend_c, 2, 9264
4, 15926, Pitch_bend_c, 2, 9155
4, 15927, Pitch_bend_c, 2, 9021
4, 15928, Pitch_bend_c, 2, 8867
4, 15929, Pitch_bend_c, 2, 8695
4, 15930, Pitch_bend_c, 2, 8511
4, 15931, Pitch_bend_c, 2, 8319
4, 15932, Pitch_bend_c, 2, 8123
4, 15933, Pitch_bend_c, 2, 7929
4, 15934, Pitch_bend_c, 2, 7742
4, 15935, Pitch_bend_c, 2, 7566
4, 15936, Pitch_bend_c, 2, 7406
4, 15937, Pitch_bend_c, 2, 7266
4, 15938, Pitch_bend_c, 2, 7150
4, 15939, Pitch_bend_c, 2, 7060
4, 15940, Pitch_bend_c, 2, 6998
4, 15941, Pitch_bend_c, 2, 6967
4, 15943, Pitch_bend_c, 2, 6998
4, 15944, Pitch_bend_c, 2, 7059
4, 15945, Pitch_bend_c, 2, 7149
4, 15946, Pitch_bend_c, 2, 7265
4, 15947, Pitch_bend_c, 2, 7405
4, 15948, Pitch_bend_c, 2, 7565
4, 15949, Pitch_bend_c, 2, 7741
4, 15950, Pitch_bend_c, 2, 7928
4, 15951, Pitch_bend_c, 2, 8122
4, 15952, Pitch_bend_c, 2, 8317
4, 15953, Pitch_bend_c, 2, 8510
4, 15954, Pitch_bend_c, 2, 8694
4, 15955, Pitch_bend_c, 2, 8866
4, 15956, Pitch_bend_c, 2, 9020
4, 15957, Pitch_bend_c, 2, 9154
4, 15958, Pitch_bend_c, 2, 9263
4, 15959, Pitch_bend_c, 2, 9345
4, 15960, Pitch_bend_c, 2, 9398
4, 15961, Pitch_bend_c, 2, 9420
4, 15962, Pitch_bend_c, 2, 9411
4, 15963, Pitch_bend_c, 2, 9371
4, 15964, Pitch_bend_c, 2, 9302
4, 15965, Pitch_bend_c, 2, 9204
4, 15966, Pitch_bend_c, 2, 9081
4, 15967, Pitch_bend_c, 2, 8935
4, 15968, Pitch_bend_c, 2, 8770
4, 15969, Pitch_bend_c, 2, 8590
4, 15970, Pitch_bend_c, 2, 8401
4, 15971, Pitch_bend_c, 2, 8206
4, 15972, Pitch_bend_c, 2, 8011
4, 15973, Pitch_bend_c, 2, 7820
4, 15974, Pitch_bend_c, 2, 7639
4, 15975, Pitch_bend_c, 2, 7472
4, 15976, Pitch_bend_c, 2, 7323
4, 15977, Pitch_bend_c, 2, 7196
4, 15978, Pitch_bend_c, 2, 7095
4, 15979, Pitch_bend_c, 2, 7021
4, 15980, Pitch_bend_c, 2, 6977
4, 15981, Pitch_bend_c, 2, 6963
4, 15982, Pitch_bend_c, 2, 6981
4, 15983, Pitch_bend_c, 2, 7030
4, 15984, Pitch_bend_c, 2, 7108
4, 15985, Pitch_bend_c, 2, 7213
4, 15986, Pitch_bend_c, 2, 7343
4, 15987, Pitch_bend_c, 2, 7495
4, 15988, Pitch_bend_c, 2, 7664
4, 15989, Pitch_bend_c, 2, 7847
4, 15990, Pitch_bend_c, 2, 8039
4, 15991, Pitch_bend_c, 2, 8234
4, 15992, Pitch_bend_c, 2, 8429
4, 15993, Pitch_bend_c, 2, 8617
4, 15994, Pitch_bend_c, 2, 8795
4, 15995, Pitch_bend_c, 2, 8957
4, 15996, Pitch_bend_c, 2, 9100
4, 15997, Pitch_bend_c, 2, 9220
4, 15998, Pitch_bend_c, 2, 9314
4, 15999, Pitch_bend_c, 2, 9379
4, 16000, Pitch_bend_c, 2, 9414
4, 16001, Pitch_bend_c, 2, 9419
4, 16002, Pitch_bend_c, 2, 9392
4, 16003, Pitch_bend_c, 2, 9335
4, 16004, Pitch_bend_c, 2, 9249
4, 16005, Pitch_bend_c, 2, 9136
4, 16006, Pitch_bend_c, 2, 8999
4, 16007, Pitch_bend_c, 2, 8842
4, 16008, Pitch_bend_c, 2, 8668
4, 16009, Pitch_bend_c, 2, 8482
4, 16010, Pitch_bend_c, 2, 8289
4, 16011, Pitch_bend_c, 2, 8093
4, 16012, Pitch_bend_c, 2, 7900
4, 16013, Pitch_bend_c, 2, 7715
4, 16014, Pitch_bend_c, 2, 7541
4, 16015, Pitch_bend_c, 2, 7384
4, 16016, Pitch_bend_c, 2, 7247
4, 16017, Pitch_bend_c, 2, 7134
4, 16018, Pitch_bend_c, 2, 7049
4, 16019, Pitch_bend_c, 2, 6992
4, 16020, Pitch_bend_c, 2, 6965
4, 16021, Pitch_bend_c, 2, 6970
4, 16022, Pitch_bend_c, 2, 7005
4, 16023, Pitch_bend_c, 2, 7071
4, 16024, Pitch_bend_c, 2, 7165
4, 16025, Pitch_bend_c, 2, 7285
4, 16026, Pitch_bend_c, 2, 7428
4, 16027, Pitch_bend_c, 2, 7591
4, 16028, Pitch_bend_c, 2, 7768
4, 16029, Pitch_bend_c, 2, 7957
4, 16030, Pitch_bend_c, 2, 8151
4, 16031, Pitch_bend_c, 2, 8347
4, 16032, Note_off_c, 2, 78, 64
4, 16032, Pitch_bend_c, 2, 8192
4, 16032, Note_on_c, 2, 77, 64
4, 16080, Note_off_c, 2, 77, 64
4, 16080, Note_on_c, 2, 78, 64
4, 16128, Note_off_c, 2, 78, 64
4, 16128, Note_on_c, 2, 85, 64
4, 16200, Pitch_bend_c, 2, 7102
4, 16201, Pitch_bend_c, 2, 7205
4, 16202, Pitch_bend_c, 2, 7334
4, 16203, Pitch_bend_c, 2, 7485
4, 16204, Pitch_bend_c, 2, 7653
4, 16205, Pitch_bend_c, 2, 7835
4, 16206, Pitch_bend_c, 2, 8026
4, 16207, Pitch_bend_c, 2, 8222
4, 16208, Pitch_bend_c, 2, 8416
4, 16209, Pitch_bend_c, 2, 8605
4, 16210, Pitch_bend_c, 2, 8784
4, 16211, Pitch_bend_c, 2, 8947
4, 16212, Pitch_bend_c, 2, 9091
4, 16213, Pitch_bend_c, 2, 9213
4, 16214, Pitch_bend_c, 2, 9308
4, 16215, Pitch_bend_c, 2, 9376
4, 16216, Pitch_bend_c, 2, 9413
4, 16217, Pitch_bend_c, 2, 9419
4, 16218, Pitch_bend_c, 2, 9395
4, 16219, Pitch_bend_c, 2, 9339
4, 16220, Pitch_bend_c, 2, 9255
4, 16221, Pitch_bend_c, 2, 9144
4, 16222, Pitch_bend_c, 2, 9008
4, 16223, Pitch_bend_c, 2, 8852
4, 16224, Note_off_c, 2, 85, 64
4, 16224, Pitch_bend_c, 2, 8192
4, 16224, Note_on_c, 2, 78, 64
4, 16272, Note_off_c, 2, 78, 64
4, 16272, Note_on_c, 2, 78, 64
4, 16344, Pitch_bend_c, 2, 8354
4, 16345, Pitch_bend_c, 2, 8159
4, 16346, Pitch_bend_c, 2, 7965
4, 16347, Pitch_bend_c, 2, 7776
4, 16348, Pitch_bend_c, 2, 7598
4, 16349, Pitch_bend_c, 2, 7434
4, 16350, Pitch_bend_c, 2, 7291
4, 16351, Pitch_bend_c, 2, 7169
4, 16352, Pitch_bend_c, 2, 7074
4, 16353, Pitch_bend_c, 2, 7007
4, 16354, Pitch_bend_c, 2, 6971
4, 16355, Pitch_bend_c, 2, 6965
4, 16356, Pitch_bend_c, 2, 6990
4, 16357, Pitch_bend_c, 2, 7046
4, 16358, Pitch_bend_c, 2, 7130
4, 16359, Pitch_bend_c, 2, 7242
4, 16360, Pitch_bend_c, 2, 7378
4, 16361, Pitch_bend_c, 2, 7534
4, 16362, Pitch_bend_c, 2, 7707
4, 16363, Pitch_bend_c, 2, 7893
4, 16364, Pitch_bend_c, 2, 8086
4, 16365, Pitch_bend_c, 2, 8281
4, 16366, Pitch_bend_c, 2, 8475
4, 16367, Pitch_bend_c, 2, 8661
4, 16368, Pitch_bend_c, 2, 8835
4, 16369, Pitch_bend_c, 2, 8993
4, 16370, Pitch_bend_c, 2, 9131
4, 16371, Pitch_bend_c, 2, 9245
4, 16372, Pitch_bend_c, 2, 9332
4, 16373, Pitch_bend_c, 2, 9390
4, 16374, Pitch_bend_c, 2, 9418
4, 16375, Pitch_bend_c, 2, 9415
4, 16376, Pitch_bend_c, 2, 9381
4, 16377, Pitch_bend_c, 2, 9317
4, 16378, Pitch_bend_c, 2, 9224
4, 16379, Pitch_bend_c, 2, 9105
4, 16380, Pitch_bend_c, 2, 8963
4, 16381, Pitch_bend_c, 2, 8801
4, 16382, Pitch_bend_c, 2, 8624
4, 16383, Pitch_bend_c, 2, 8436
4, 16384, Pitch_bend_c, 2, 8242
4, 16385, Pitch_bend_c, 2, 8047
4, 16386, Pitch_bend_c, 2, 7855
4, 16387, Pitch_bend_c, 2, 7672
4, 16388, Pitch_bend_c, 2, 7502
4, 16389, Pitch_bend_c, 2, 7349
4, 16390, Pitch_bend_c, 2, 7218
4, 16391, Pitch_bend_c, 2, 7111
4, 16392, Pitch_bend_c, 2, 7032
4, 16393, Pitch_bend_c, 2, 6982
4, 16394, Pitch_bend_c, 2, 6963
4, 16395, Pitch_bend_c, 2, 6975
4, 16396, Pitch_bend_c, 2, 7018
4, 16397, Pitch_bend_c, 2, 7091
4, 16398, Pitch_bend_c, 2, 7192
4, 16399, Pitch_bend_c, 2, 7318
4, 16400, Pitch_bend_c, 2, 7466
4, 16401, Pitch_bend_c, 2, 7632
4, 16402, Pitch_bend_c, 2, 7813
4, 16403, Pitch_bend_c, 2, 8003
4, 16404, Pitch_bend_c, 2, 8198
4, 16405, Pitch_bend_c, 2, 8393
4, 16406, Pitch_bend_c, 2, 8583
4, 16407, Pitch_bend_c, 2, 8763
4, 16408, Pitch_bend_c, 2, 8928
4, 16409, Pitch_bend_c, 2, 9075
4, 16410, Pitch_bend_c, 2, 9200
4, 16411, Pitch_bend_c, 2, 9298
4, 16412, Pitch_bend_c, 2, 9369
4, 16413, Pitch_bend_c, 2, 9410
4, 16414, Pitch_bend_c, 2, 9420
4, 16415, Pitch_bend_c, 2, 9399
4, 16416, Pitch_bend_c, 2, 9348
4, 16417, Pitch_bend_c, 2, 9267
4, 16418, Pitch_bend_c, 2, 9159
4, 16419, Pitch_bend_c, 2, 9026
4, 16420, Pitch_bend_c, 2, 8872
4, 16421, Pitch_bend_c, 2, 8701
4, 16422, Pitch_bend_c, 2, 8517
4, 16423, Pitch_bend_c, 2, 8325
4, 16424, Pitch_bend_c, 2, 8129
4, 16425, Pitch_bend_c, 2, 7935
4, 16426, Pitch_bend_c, 2, 7748
4, 16427, Pitch_bend_c, 2, 7572
4, 16428, Pitch_bend_c, 2, 7411
4, 16429, Pitch_bend_c, 2, 7271
4, 16430, Pitch_bend_c, 2, 7153
4, 16431, Pitch_bend_c, 2, 7062
4, 16432, Pitch_bend_c, 2, 7000
4, 16433, Pitch_bend_c, 2, 6968
4, 16434, Pitch_bend_c, 2, 6967
4, 16435, Pitch_bend_c, 2, 6996
4, 16436, Pitch_bend_c, 2, 7057
4, 16437, Pitch_bend_c, 2, 7146
4, 16438, Pitch_bend_c, 2, 7261
4, 16439, Pitch_bend_c, 2, 7400
4, 16440, Pitch_bend_c, 2, 7560
4, 16441, Pitch_bend_c, 2, 7735
4, 16442, Pitch_bend_c, 2, 7922
4, 16443, Pitch_bend_c, 2, 8115
4, 16444, Pitch_bend_c, 2, 8311
4, 16445, Pitch_bend_c, 2, 8503
4, 16446, Pitch_bend_c, 2, 8688
4, 16447, Pitch_bend_c, 2, 8860
4, 16448, Pitch_bend_c, 2, 9015
4, 16449, Pitch_bend_c, 2, 9150
4, 16450, Pitch_bend_c, 2, 9260
4, 16451, Pitch_bend_c, 2, 9343
4, 16452, Pitch_bend_c, 2, 9397
4, 16453, Pitch_bend_c, 2, 9420
4, 16454, Pitch_bend_c, 2, 9412
4, 16455, Pitch_bend_c, 2, 9373
4, 16456, Pitch_bend_c, 2, 9304
4, 16457, Pitch_bend_c, 2, 9208
4, 16458, Pitch_bend_c, 2, 9085
4, 16459, Pitch_bend_c, 2, 8940
4, 16460, Pitch_bend_c, 2, 8775
4, 16461, Pitch_bend_c, 2, 8596
4, 16462, Pitch_bend_c, 2, 8407
4, 16463, Pitch_bend_c, 2, 8212
4, 16464, Pitch_bend_c, 2, 8017
4, 16465, Pitch_bend_c, 2, 7826
4, 16466, Pitch_bend_c, 2, 7645
4, 16467, Pitch_bend_c, 2, 7477
4, 16468, Pitch_bend_c, 2, 7328
4, 16469, Pitch_bend_c, 2, 7200
4, 16470, Pitch_bend_c, 2, 7097
4, 16471, Pitch_bend_c, 2, 7023
4, 16472, Pitch_bend_c, 2, 6978
4, 16473, Pitch_bend_c, 2, 6963
4, 16474, Pitch_bend_c, 2, 6980
4, 16475, Pitch_bend_c, 2, 7028
4, 16476, Pitch_bend_c, 2, 7105
4, 16477, Pitch_bend_c, 2, 7209
4, 16478, Pitch_bend_c, 2, 7339
4, 16479, Pitch_bend_c, 2, 7490
4, 16480, Pitch_bend_c, 2, 7659
4, 16481, Pitch_bend_c, 2, 7841
4, 16482, Pitch_bend_c, 2, 8033
4, 16483, Pitch_bend_c, 2, 8228
4, 16484, Pitch_bend_c, 2, 8423
4, 16485, Pitch_bend_c, 2, 8611
4, 16486, Pitch_bend_c, 2, 8789
4, 16487, Pitch_bend_c, 2, 8952
4, 16488, Pitch_bend_c, 2, 9096
4, 16489, Pitch_bend_c, 2, 9216
4, 16490, Pitch_bend_c, 2, 9311
4, 16491, Pitch_bend_c, 2, 9377
4, 16492, Pitch_bend_c, 2, 9414
4, 16493, Pitch_bend_c, 2, 9419
4, 16494, Pitch_bend_c, 2, 9393
4, 16495, Pitch_bend_c, 2, 9337
4, 16496, Pitch_bend_c, 2, 9252
4, 16497, Pitch_bend_c, 2, 9140
4, 16498, Pitch_bend_c, 2, 9004
4, 16499, Pitch_bend_c, 2, 8847
4, 16500, Pitch_bend_c, 2, 8674
4, 16501, Pitch_bend_c, 2, 8488
4, 16502, Pitch_bend_c, 2, 8295
4, 16503, Pitch_bend_c, 2, 8100
4, 16504, Pitch_bend_c, 2, 7906
4, 16505, Pitch_bend_c, 2, 7720
4, 16506, Pitch_bend_c, 2, 7546
4, 16507, Pitch_bend_c, 2, 7388
4, 16508, Pitch_bend_c, 2, 7251
4, 16509, Pitch_bend_c, 2, 7138
4, 16510, Pitch_bend_c, 2, 7051
4, 16511, Pitch_bend_c, 2, 6993
4, 16512, Pitch_bend_c, 2, 6966
4, 16513, Pitch_bend_c, 2, 6969
4, 16514, Pitch_bend_c, 2, 7004
4, 16515, Pitch_bend_c, 2, 7068
4, 16516, Pitch_bend_c, 2, 7162
4, 16517, Pitch_bend_c, 2, 7281
4, 16518, Pitch_bend_c, 2, 7423
4, 16519, Pitch_bend_c, 2, 7585
4, 16520, Pitch_bend_c, 2, 7763
4, 16521, Pitch_bend_c, 2, 7951
4, 16522, Pitch_bend_c, 2, 8145
4, 16523, Pitch_bend_c, 2, 8340
4, 16524, Pitch_bend_c, 2, 8532
4, 16525, Pitch_bend_c, 2, 8715
4, 16526, Pitch_bend_c, 2, 8885
4, 16527, Pitch_bend_c, 2, 9037
4, 16528, Pitch_bend_c, 2, 9168
4, 16529, Pitch_bend_c, 2, 9274
4, 16530, Pitch_bend_c, 2, 9353
4, 16531, Pitch_bend_c, 2, 9402
4, 16532, Pitch_bend_c, 2, 9421
4, 16533, Pitch_bend_c, 2, 9408
4, 16534, Pitch_bend_c, 2, 9365
4, 16535, Pitch_bend_c, 2, 9292
4, 16536, Pitch_bend_c, 2, 9191
4, 16537, Pitch_bend_c, 2, 9064
4, 16538, Pitch_bend_c, 2, 8916
4, 16539, Pitch_bend_c, 2, 8749
4, 16540, Pitch_bend_c, 2, 8568
4, 16541, Pitch_bend_c, 2, 8378
4, 16542, Pitch_bend_c, 2, 8183
4, 16543, Pitch_bend_c, 2, 7988
4, 16544, Pitch_bend_c, 2, 7798
4, 16545, Pitch_bend_c, 2, 7618
4, 16546, Pitch_bend_c, 2, 7453
4, 16547, Pitch_bend_c, 2, 7307
4, 16548, Pitch_bend_c, 2, 7183
4, 16549, Pitch_bend_c, 2, 7084
4, 16550, Pitch_bend_c, 2, 7014
4, 16551, Pitch_bend_c, 2, 6973
4, 16552, Pitch_bend_c, 2, 6964
4, 16553, Pitch_bend_c, 2, 6985
4, 16554, Pitch_bend_c, 2, 7037
4, 16555, Pitch_bend_c, 2, 7119
4, 16556, Pitch_bend_c, 2, 7227
4, 16557, Pitch_bend_c, 2, 7360
4, 16558, Pitch_bend_c, 2, 7515
4, 16559, Pitch_bend_c, 2, 7686
4, 16560, Pitch_bend_c, 2, 7870
4, 16561, Pitch_bend_c, 2, 8062
4, 16562, Pitch_bend_c, 2, 8258
4, 16563, Pitch_bend_c, 2, 8452
4, 16564, Pitch_bend_c, 2, 8639
4, 16565, Pitch_bend_c, 2, 8815
4, 16566, Pitch_bend_c, 2, 8975
4, 16567, Pitch_bend_c, 2, 9116
4, 16568, Pitch_bend_c, 2, 9232
4, 16569, Pitch_bend_c, 2, 9323
4, 16570, Pitch_bend_c, 2, 9385
4, 16571, Pitch_bend_c, 2, 9417
4, 16573, Pitch_bend_c, 2, 9387
4, 16574, Pitch_bend_c, 2, 9326
4, 16575, Pitch_bend_c, 2, 9237
4, 16576, Pitch_bend_c, 2, 9121
4, 16577, Pitch_bend_c, 2, 8981
4, 16578, Pitch_bend_c, 2, 8822
4, 16579, Pitch_bend_c, 2, 8646
4, 16580, Pitch_bend_c, 2, 8459
4, 16581, Pitch_bend_c, 2, 8266
4, 16582, Pitch_bend_c, 2, 8070
4, 16583, Pitch_bend_c, 2, 7877
4, 16584, Pitch_bend_c, 2, 7693
4, 16585, Pitch_bend_c, 2, 7521
4, 16586, Pitch_bend_c, 2, 7366
4, 16587, Pitch_bend_c, 2, 7232
4, 16588, Pitch_bend_c, 2, 7123
4, 16589, Pitch_bend_c, 2, 7040
4, 16590, Pitch_bend_c, 2, 6987
4, 16591, Pitch_bend_c, 2, 6964
4, 16592, Pitch_bend_c, 2, 6972
4, 16593, Pitch_bend_c, 2, 7012
4, 16594, Pitch_bend_c, 2, 7081
4, 16595, Pitch_bend_c, 2, 7178
4, 16596, Pitch_bend_c, 2, 7301
4, 16597, Pitch_bend_c, 2, 7447
4, 16598, Pitch_bend_c, 2, 7611
4, 16599, Pitch_bend_c, 2, 7791
4, 16600, Pitch_bend_c, 2, 7980
4, 16601, Pitch_bend_c, 2, 8175
4, 16602, Pitch_bend_c, 2, 8370
4, 16603, Pitch_bend_c, 2, 8561
4, 16604, Pitch_bend_c, 2, 8742
4, 16605, Pitch_bend_c, 2, 8909
4, 16606, Pitch_bend_c, 2, 9059
4, 16607, Pitch_bend_c, 2, 9186
4, 16608, Pitch_bend_c, 2, 9288
4, 16609, Pitch_bend_c, 2, 9362
4, 16610, Pitch_bend_c, 2, 9407
4, 16611, Pitch_bend_c, 2, 9421
4, 16612, Pitch_bend_c, 2, 9403
4, 16613, Pitch_bend_c, 2, 9355
4, 16614, Pitch_bend_c, 2, 9278
4, 16615, Pitch_bend_c, 2, 9173
4, 16616, Pitch_bend_c, 2, 9043
4, 16617, Pitch_bend_c, 2, 8892
4, 16618, Pitch_bend_c, 2, 8722
4, 16619, Pitch_bend_c, 2, 8540
4, 16620, Pitch_bend_c, 2, 8348
4, 16621, Pitch_bend_c, 2, 8153
4, 16622, Pitch_bend_c, 2, 7958
4, 16623, Pitch_bend_c, 2, 7770
4, 16624, Pitch_bend_c, 2, 7592
4, 16625, Pitch_bend_c, 2, 7430
4, 16626, Pitch_bend_c, 2, 7286
4, 16627, Pitch_bend_c, 2, 7166
4, 16628, Pitch_bend_c, 2, 7072
4, 16629, Pitch_bend_c, 2, 7006
4, 16630, Pitch_bend_c, 2, 6970
4, 16631, Pitch_bend_c, 2, 6965
4, 16632, Pitch_bend_c, 2, 6991
4, 16633, Pitch_bend_c, 2, 7048
4, 16634, Pitch_bend_c, 2, 7134
4, 16635, Pitch_bend_c, 2, 7246
4, 16636, Pitch_bend_c, 2, 7383
4, 16637, Pitch_bend_c, 2, 7540
4, 16638, Pitch_bend_c, 2, 7713
4, 16639, Pitch_bend_c, 2, 7899
4, 16640, Pitch_bend_c, 2, 8092
4, 16641, Pitch_bend_c, 2, 8287
4, 16642, Pitch_bend_c, 2, 8481
4, 16643, Pitch_bend_c, 2, 8667
4, 16644, Pitch_bend_c, 2, 8840
4, 16645, Pitch_bend_c, 2, 8998
4, 16646, Pitch_bend_c, 2, 9135
4, 16647, Pitch_bend_c, 2, 9248
4, 16648, Pitch_bend_c, 2, 9334
4, 16649, Pitch_bend_c, 2, 9392
4, 16650, Pitch_bend_c, 2, 9419
4, 16651, Pitch_bend_c, 2, 9415
4, 16652, Pitch_bend_c, 2, 9379
4, 16653, Pitch_bend_c, 2, 9314
4, 16654, Pitch_bend_c, 2, 9221
4, 16655, Pitch_bend_c, 2, 9101
4, 16656, Pitch_bend_c, 2, 8958
4, 16657, Pitch_bend_c, 2, 8796
4, 16658, Pitch_bend_c, 2, 8618
4, 16659, Pitch_bend_c, 2, 8430
4, 16660, Pitch_bend_c, 2, 8236
4, 16661, Pitch_bend_c, 2, 8040
4, 16662, Pitch_bend_c, 2, 7849
4, 16663, Pitch_bend_c, 2, 7666
4, 16664, Pitch_bend_c, 2, 7496
4, 16665, Pitch_bend_c, 2, 7344
4, 16666, Pitch_bend_c, 2, 7214
4, 16667, Pitch_bend_c, 2, 7108
4, 16668, Pitch_bend_c, 2, 7030
4, 16669, Pitch_bend_c, 2, 6981
4, 16670, Pitch_bend_c, 2, 6963
4, 16671, Pitch_bend_c, 2, 6976
4, 16672, Pitch_bend_c, 2, 7020
4, 16673, Pitch_bend_c, 2, 7094
4, 16674, Pitch_bend_c, 2, 7195
4, 16675, Pitch_bend_c, 2, 7322
4, 16676, Pitch_bend_c, 2, 7471
4, 16677, Pitch_bend_c, 2, 7638
4, 16678, Pitch_bend_c, 2, 7819
4, 16679, Pitch_bend_c, 2, 8009
4, 16680, Pitch_bend_c, 2, 8205
4, 16681, Pitch_bend_c, 2, 8399
4, 16682, Pitch_bend_c, 2, 8589
4, 16683, Pitch_bend_c, 2, 8768
4, 16684, Pitch_bend_c, 2, 8933
4, 16685, Pitch_bend_c, 2, 9080
4, 16686, Pitch_bend_c, 2, 9203
4, 16687, Pitch_bend_c, 2, 9301
4, 16688, Pitch_bend_c, 2, 9371
4, 16689, Pitch_bend_c, 2, 9411
4, 16690, Pitch_bend_c, 2, 9420
4, 16691, Pitch_bend_c, 2, 9398
4, 16692, Pitch_bend_c, 2, 9345
4, 16693, Pitch_bend_c, 2, 9264
4, 16694, Pitch_bend_c, 2, 9155
4, 16695, Pitch_bend_c, 2, 9021
4, 16696, Pitch_bend_c, 2, 8867
4, 16697, Pitch_bend_c, 2, 8695
4, 16698, Pitch_bend_c, 2, 8511
4, 16699, Pitch_bend_c, 2, 8319
4, 16700, Pitch_bend_c, 2, 8123
4, 16701, Pitch_bend_c, 2, 7929
4, 16702, Pitch_bend_c, 2, 7742
4, 16703, Pitch_bend_c, 2, 7566
4, 16704, Pitch_bend_c, 2, 7406
4, 16705, Pitch_bend_c, 2, 7266
4, 16706, Pitch_bend_c, 2, 7150
4, 16707, Pitch_bend_c, 2, 7060
4, 16708, Pitch_bend_c, 2, 6998
4, 16709, Pitch_bend_c, 2, 6967
4, 16711, Pitch_bend_c, 2, 6998
4, 16712, Pitch_bend_c, 2, 7059
4, 16713, Pitch_bend_c, 2, 7149
4, 16714, Pitch_bend_c, 2, 7265
4, 16715, Pitch_bend_c, 2, 7405
4, 16716, Pitch_bend_c, 2, 7565
4, 16717, Pitch_bend_c, 2, 7741
4, 16718, Pitch_bend_c, 2, 7928
4, 16719, Pitch_bend_c, 2, 8122
4, 16720, Pitch_bend_c, 2, 8317
4, 16721, Pitch_bend_c, 2, 8510
4, 16722, Pitch_bend_c, 2, 8694
4, 16723, Pitch_bend_c, 2, 8866
4, 16724, Pitch_bend_c, 2, 9020
4, 16725, Pitch_bend_c, 2, 9154
4, 16726, Pitch_bend_c, 2, 9263
4, 16727, Pitch_bend_c, 2, 9345
4, 16728, Pitch_bend_c, 2, 9398
4, 16729, Pitch_bend_c, 2, 9420
4, 16730, Pitch_bend_c, 2, 9411
4, 16731, Pitch_bend_c, 2, 9371
4, 16732, Pitch_bend_c, 2, 9302
4, 16733, Pitch_bend_c, 2, 9204
4, 16734, Pitch_bend_c, 2, 9081
4, 16735, Pitch_bend_c, 2, 8935
4, 16736, Pitch_bend_c, 2, 8770
4, 16737, Pitch_bend_c, 2, 8590
4, 16738, Pitch_bend_c, 2, 8401
4, 16739, Pitch_bend_c, 2, 8206
4, 16740, Pitch_bend_c, 2, 8011
4, 16741, Pitch_bend_c, 2, 7820
4, 16742, Pitch_bend_c, 2, 7639
4, 16743, Pitch_bend_c, 2, 7472
4, 16744, Pitch_bend_c, 2, 7323
4, 16745, Pitch_bend_c, 2, 7196
4, 16746, Pitch_bend_c, 2, 7095
4, 16747, Pitch_bend_c, 2, 7021
4, 16748, Pitch_bend_c, 2, 6977
4, 16749, Pitch_bend_c, 2, 6963
4, 16750, Pitch_bend_c, 2, 6981
4, 16751, Pitch_bend_c, 2, 7030
4, 16752, Pitch_bend_c, 2, 7108
4, 16753, Pitch_bend_c, 2, 7213
4, 16754, Pitch_bend_c, 2, 7343
4, 16755, Pitch_bend_c, 2, 7495
4, 16756, Pitch_bend_c, 2, 7664
4, 16757, Pitch_bend_c, 2, 7847
4, 16758, Pitch_bend_c, 2, 8039
4, 16759, Pitch_bend_c, 2, 8234
4, 16760, Pitch_bend_c, 2, 8429
4, 16761, Pitch_bend_c, 2, 8617
4, 16762, Pitch_bend_c, 2, 8795
4, 16763, Pitch_bend_c, 2, 8957
4, 16764, Pitch_bend_c, 2, 9100
4, 16765, Pitch_bend_c, 2, 9220
4, 16766, Pitch_bend_c, 2, 9314
4, 16767, Pitch_bend_c, 2, 9379
4, 16768, Pitch_bend_c, 2, 9414
4, 16769, Pitch_bend_c, 2, 9419
4, 16770, Pitch_bend_c, 2, 9392
4, 16771, Pitch_bend_c, 2, 9335
4, 16772, Pitch_bend_c, 2, 9249
4, 16773, Pitch_bend_c, 2, 9136
4, 16774, Pitch_bend_c, 2, 8999
4, 16775, Pitch_bend_c, 2, 8842
4, 16776, Note_off_c, 2, 78, 64
4, 16800, Pitch_bend_c, 2, 8192
4, 16800, Note_on_c, 2, 78, 64
4, 16848, Note_off_c, 2, 78, 64
4, 16848, Note_on_c, 2, 78, 64
4, 16896, Note_off_c, 2, 78, 64
4, 16896, Note_on_c, 2, 78, 64
4, 16968, Pitch_bend_c, 2, 7102
4, 16969, Pitch_bend_c, 2, 7205
4, 16970, Pitch_bend_c, 2, 7334
4, 16971, Pitch_bend_c, 2, 7485
4, 16972, Pitch_bend_c, 2, 7653
4, 16973, Pitch_bend_c, 2, 7835
4, 16974, Pitch_bend_c, 2, 8026
4, 16975, Pitch_bend_c, 2, 8222
4, 16976, Pitch_bend_c, 2, 8416
4, 16977, Pitch_bend_c, 2, 8605
4, 16978, Pitch_bend_c, 2, 8784
4, 16979, Pitch_bend_c, 2, 8947
4, 16980, Pitch_bend_c, 2, 9091
4, 16981, Pitch_bend_c, 2, 9213
4, 16982, Pitch_bend_c, 2, 9308
4, 16983, Pitch_bend_c, 2, 9376
4, 16984, Pitch_bend_c, 2, 9413
4, 16985, Pitch_bend_c, 2, 9419
4, 16986, Pitch_bend_c, 2, 9395
4, 16987, Pitch_bend_c, 2, 9339
4, 16988, Pitch_bend_c, 2, 9255
4, 16989, Pitch_bend_c, 2, 9144
4, 16990, Pitch_bend_c, 2, 9008
4, 16991, Pitch_bend_c, 2, 8852
4, 16992, Pitch_bend_c, 2, 8680
4, 16993, Pitch_bend_c, 2, 8494
4, 16994, Pitch_bend_c, 2, 8302
4, 16995, Pitch_bend_c, 2, 8106
4, 16996, Pitch_bend_c, 2, 7912
4, 16997, Pitch_bend_c, 2, 7726
4, 16998, Pitch_bend_c, 2, 7552
4, 16999, Pitch_bend_c, 2, 7393
4, 17000, Pitch_bend_c, 2, 7255
4, 17001, Pitch_bend_c, 2, 7141
4, 17002, Pitch_bend_c, 2, 7053
4, 17003, Pitch_bend_c, 2, 6994
4, 17004, Pitch_bend_c, 2, 6966
4, 17005, Pitch_bend_c, 2, 6969
4, 17006, Pitch_bend_c, 2, 7002
4, 17007, Pitch_bend_c, 2, 7066
4, 17008, Pitch_bend_c, 2, 7158
4, 17009, Pitch_bend_c, 2, 7277
4, 17010, Pitch_bend_c, 2, 7419
4, 17011, Pitch_bend_c, 2, 7580
4, 17012, Pitch_bend_c, 2, 7757
4, 17013, Pitch_bend_c, 2, 7945
4, 17014, Pitch_bend_c, 2, 8139
4, 17015, Pitch_bend_c, 2, 8334
4, 17016, Pitch_bend_c, 2, 8526
4, 17017, Pitch_bend_c, 2, 8710
4, 17018, Pitch_bend_c, 2, 8880
4, 17019, Pitch_bend_c, 2, 9033
4, 17020, Pitch_bend_c, 2, 9164
4, 17021, Pitch_bend_c, 2, 9271
4, 17022, Pitch_bend_c, 2, 9351
4, 17023, Pitch_bend_c, 2, 9401
4, 17024, Pitch_bend_c, 2, 9421
4, 17025, Pitch_bend_c, 2, 9409
4, 17026, Pitch_bend_c, 2, 9367
4, 17027, Pitch_bend_c, 2, 9294
4, 17028, Pitch_bend_c, 2, 9194
4, 17029, Pitch_bend_c, 2, 9069
4, 17030, Pitch_bend_c, 2, 8921
4, 17031, Pitch_bend_c, 2, 8755
4, 17032, Pitch_bend_c, 2, 8574
4, 17033, Pitch_bend_c, 2, 8384
4, 17034, Pitch_bend_c, 2, 8189
4, 17035, Pitch_bend_c, 2, 7994
4, 17036, Pitch_bend_c, 2, 7804
4, 17037, Pitch_bend_c, 2, 7624
4, 17038, Pitch_bend_c, 2, 7458
4, 17039, Pitch_bend_c, 2, 7311
4, 17040, Pitch_bend_c, 2, 7186
4, 17041, Pitch_bend_c, 2, 7087
4, 17042, Pitch_bend_c, 2, 7016
4, 17043, Pitch_bend_c, 2, 6974
4, 17044, Pitch_bend_c, 2, 6964
4, 17045, Pitch_bend_c, 2, 6984
4, 17046, Pitch_bend_c, 2, 7035
4, 17047, Pitch_bend_c, 2, 7116
4, 17048, Pitch_bend_c, 2, 7224
4, 17049, Pitch_bend_c, 2, 7356
4, 17050, Pitch_bend_c, 2, 7509
4, 17051, Pitch_bend_c, 2, 7680
4, 17052, Pitch_bend_c, 2, 7864
4, 17053, Pitch_bend_c, 2, 8056
4, 17054, Pitch_bend_c, 2, 8252
4, 17055, Pitch_bend_c, 2, 8446
4, 17056, Pitch_bend_c, 2, 8633
4, 17057, Pitch_bend_c, 2, 8810
4, 17058, Pitch_bend_c, 2, 8970
4, 17059, Pitch_bend_c, 2, 9111
4, 17060, Pitch_bend_c, 2, 9229
4, 17061, Pitch_bend_c, 2, 9321
4, 17062, Pitch_bend_c, 2, 9383
4, 17063, Pitch_bend_c, 2, 9416
4, 17064, Pitch_bend_c, 2, 9418
4, 17065, Pitch_bend_c, 2, 9388
4, 17066, Pitch_bend_c, 2, 9328
4, 17067, Pitch_bend_c, 2, 9240
4, 17068, Pitch_bend_c, 2, 9125
4, 17069, Pitch_bend_c, 2, 8986
4, 17070, Pitch_bend_c, 2, 8827
4, 17071, Pitch_bend_c, 2, 8652
4, 17072, Pitch_bend_c, 2, 8465
4, 17073, Pitch_bend_c, 2, 8272
4, 17074, Pitch_bend_c, 2, 8076
4, 17075, Pitch_bend_c, 2, 7884
4, 17076, Pitch_bend_c, 2, 7699
4, 17077, Pitch_bend_c, 2, 7526
4, 17078, Pitch_bend_c, 2, 7371
4, 17079, Pitch_bend_c, 2, 7236
4, 17080, Pitch_bend_c, 2, 7126
4, 17081, Pitch_bend_c, 2, 7042
4, 17082, Pitch_bend_c, 2, 6988
4, 17083, Pitch_bend_c, 2, 6964
4, 17084, Pitch_bend_c, 2, 6972
4, 17085, Pitch_bend_c, 2, 7010
4, 17086, Pitch_bend_c, 2, 7078
4, 17087, Pitch_bend_c, 2, 7175
4, 17088, Pitch_bend_c, 2, 7297
4, 17089, Pitch_bend_c, 2, 7442
4, 17090, Pitch_bend_c, 2, 7606
4, 17091, Pitch_bend_c, 2, 7785
4, 17092, Pitch_bend_c, 2, 7974
4, 17093, Pitch_bend_c, 2, 8169
4, 17094, Pitch_bend_c, 2, 8364
4, 17095, Pitch_bend_c, 2, 8555
4, 17096, Pitch_bend_c, 2, 8736
4, 17097, Pitch_bend_c, 2, 8904
4, 17098, Pitch_bend_c, 2, 9054
4, 17099, Pitch_bend_c, 2, 9182
4, 17100, Pitch_bend_c, 2, 9285
4, 17101, Pitch_bend_c, 2, 9360
4, 17102, Pitch_bend_c, 2, 9406
4, 17103, Pitch_bend_c, 2, 9421
4, 17104, Pitch_bend_c, 2, 9404
4, 17105, Pitch_bend_c, 2, 9357
4, 17106, Pitch_bend_c, 2, 9281
4, 17107, Pitch_bend_c, 2, 9177
4, 17108, Pitch_bend_c, 2, 9047
4, 17109, Pitch_bend_c, 2, 8897
4, 17110, Pitch_bend_c, 2, 8728
4, 17111, Pitch_bend_c, 2, 8546
4, 17112, Pitch_bend_c, 2, 8354
4, 17113, Pitch_bend_c, 2, 8159
4, 17114, Pitch_bend_c, 2, 7965
4, 17115, Pitch_bend_c, 2, 7776
4, 17116, Pitch_bend_c, 2, 7598
4, 17117, Pitch_bend_c, 2, 7434
4, 17118, Pitch_bend_c, 2, 7291
4, 17119, Pitch_bend_c, 2, 7169
4, 17120, Pitch_bend_c, 2, 7074
4, 17121, Pitch_bend_c, 2, 7007
4, 17122, Pitch_bend_c, 2, 6971
4, 17123, Pitch_bend_c, 2, 6965
4, 17124, Pitch_bend_c, 2, 6990
4, 17125, Pitch_bend_c, 2, 7046
4, 17126, Pitch_bend_c, 2, 7130
4, 17127, Pitch_bend_c, 2, 7242
4, 17128, Pitch_bend_c, 2, 7378
4, 17129, Pitch_bend_c, 2, 7534
4, 17130, Pitch_bend_c, 2, 7707
4, 17131, Pitch_bend_c, 2, 7893
4, 17132, Pitch_bend_c, 2, 8086
4, 17133, Pitch_bend_c, 2, 8281
4, 17134, Pitch_bend_c, 2, 8475
4, 17135, Pitch_bend_c, 2, 8661
4, 17136, Note_off_c, 2, 78, 64
4, 17136, Pitch_bend_c, 2, 8192
4, 17136, Note_on_c, 2, 80, 64
4, 17184, Note_off_c, 2, 80, 64
4, 17184, Note_on_c, 2, 78, 64
4, 17232, Note_off_c, 2, 78, 64
4, 17232, Note_on_c, 2, 77, 64
4, 17304, Pitch_bend_c, 2, 9191
4, 17305, Pitch_bend_c, 2, 9064
4, 17306, Pitch_bend_c, 2, 8916
4, 17307, Pitch_bend_c, 2, 8749
4, 17308, Pitch_bend_c, 2, 8568
4, 17309, Pitch_bend_c, 2, 8378
4, 17310, Pitch_bend_c, 2, 8183
4, 17311, Pitch_bend_c, 2, 7988
4, 17312, Pitch_bend_c, 2, 7798
4, 17313, Pitch_bend_c, 2, 7618
4, 17314, Pitch_bend_c, 2, 7453
4, 17315, Pitch_bend_c, 2, 7307
4, 17316, Pitch_bend_c, 2, 7183
4, 17317, Pitch_bend_c, 2, 7084
4, 17318, Pitch_bend_c, 2, 7014
4, 17319, Pitch_bend_c, 2, 6973
4, 17320, Pitch_bend_c, 2, 6964
4, 17321, Pitch_bend_c, 2, 6985
4, 17322, Pitch_bend_c, 2, 7037
4, 17323, Pitch_bend_c, 2, 7119
4, 17324, Pitch_bend_c, 2, 7227
4, 17325, Pitch_bend_c, 2, 7360
4, 17326, Pitch_bend_c, 2, 7515
4, 17327, Pitch_bend_c, 2, 7686
4, 17328, Pitch_bend_c, 2, 7870
4, 17329, Pitch_bend_c, 2, 8062
4, 17330, Pitch_bend_c, 2, 8258
4, 17331, Pitch_bend_c, 2, 8452
4, 17332, Pitch_bend_c, 2, 8639
4, 17333, Pitch_bend_c, 2, 8815
4, 17334, Pitch_bend_c, 2, 8975
4, 17335, Pitch_bend_c, 2, 9116
4, 17336, Pitch_bend_c, 2, 9232
4, 17337, Pitch_bend_c, 2, 9323
4, 17338, Pitch_bend_c, 2, 9385
4, 17339, Pitch_bend_c, 2, 9417
4, 17341, Pitch_bend_c, 2, 9387
4, 17342, Pitch_bend_c, 2, 9326
4, 17343, Pitch_bend_c, 2, 9237
4, 17344, Pitch_bend_c, 2, 9121
4, 17345, Pitch_bend_c, 2, 8981
4, 17346, Pitch_bend_c, 2, 8822
4, 17347, Pitch_bend_c, 2, 8646
4, 17348, Pitch_bend_c, 2, 8459
4, 17349, Pitch_bend_c, 2, 8266
4, 17350, Pitch_bend_c, 2, 8070
4, 17351, Pitch_bend_c, 2, 7877
4, 17352, Pitch_bend_c, 2, 7693
4, 17353, Pitch_bend_c, 2, 7521
4, 17354, Pitch_bend_c, 2, 7366
4, 17355, Pitch_bend_c, 2, 7232
4, 17356, Pitch_bend_c, 2, 7123
4, 17357, Pitch_bend_c, 2, 7040
4, 17358, Pitch_bend_c, 2, 6987
4, 17359, Pitch_bend_c, 2, 6964
4, 17360, Pitch_bend_c, 2, 6972
4, 17361, Pitch_bend_c, 2, 7012
4, 17362, Pitch_bend_c, 2, 7081
4, 17363, Pitch_bend_c, 2, 7178
4, 17364, Pitch_bend_c, 2, 7301
4, 17365, Pitch_bend_c, 2, 7447
4, 17366, Pitch_bend_c, 2, 7611
4, 17367, Pitch_bend_c, 2, 7791
4, 17368, Pitch_bend_c, 2, 7980
4, 17369, Pitch_bend_c, 2, 8175
4, 17370, Pitch_bend_c, 2, 8370
4, 17371, Pitch_bend_c, 2, 8561
4, 17372, Pitch_bend_c, 2, 8742
4, 17373, Pitch_bend_c, 2, 8909
4, 17374, Pitch_bend_c, 2, 9059
4, 17375, Pitch_bend_c, 2, 9186
4, 17376, Pitch_bend_c, 2, 9288
4, 17377, Pitch_bend_c, 2, 9362
4, 17378, Pitch_bend_c, 2, 9407
4, 17379, Pitch_bend_c, 2, 9421
4, 17380, Pitch_bend_c, 2, 9403
4, 17381, Pitch_bend_c, 2, 9355
4, 17382, Pitch_bend_c, 2, 9278
4, 17383, Pitch_bend_c, 2, 9173
4, 17384, Pitch_bend_c, 2, 9043
4, 17385, Pitch_bend_c, 2, 8892
4, 17386, Pitch_bend_c, 2, 8722
4, 17387, Pitch_bend_c, 2, 8540
4, 17388, Pitch_bend_c, 2, 8348
4, 17389, Pitch_bend_c, 2, 8153
4, 17390, Pitch_bend_c, 2, 7958
4, 17391, Pitch_bend_c, 2, 7770
4, 17392, Pitch_bend_c, 2, 7592
4, 17393, Pitch_bend_c, 2, 7430
4, 17394, Pitch_bend_c, 2, 7286
4, 17395, Pitch_bend_c, 2, 7166
4, 17396, Pitch_bend_c, 2, 7072
4, 17397, Pitch_bend_c, 2, 7006
4, 17398, Pitch_bend_c, 2, 6970
4, 17399, Pitch_bend_c, 2, 6965
4, 17400, Pitch_bend_c, 2, 6991
4, 17401, Pitch_bend_c, 2, 7048
4, 17402, Pitch_bend_c, 2, 7134
4, 17403, Pitch_bend_c, 2, 7246
4, 17404, Pitch_bend_c, 2, 7383
4, 17405, Pitch_bend_c, 2, 7540
4, 17406, Pitch_bend_c, 2, 7713
4, 17407, Pitch_bend_c, 2, 7899
4, 17408, Pitch_bend_c, 2, 8092
4, 17409, Pitch_bend_c, 2, 8287
4, 17410, Pitch_bend_c, 2, 8481
4, 17411, Pitch_bend_c, 2, 8667
4, 17412, Pitch_bend_c, 2, 8840
4, 17413, Pitch_bend_c, 2, 8998
4, 17414, Pitch_bend_c, 2, 9135
4, 17415, Pitch_bend_c, 2, 9248
4, 17416, Pitch_bend_c, 2, 9334
4, 17417, Pitch_bend_c, 2, 9392
4, 17418, Pitch_bend_c, 2, 9419
4, 17419, Pitch_bend_c, 2, 9415
4, 17420, Pitch_bend_c, 2, 9379
4, 17421, Pitch_bend_c, 2, 9314
4, 17422, Pitch_bend_c, 2, 9221
4, 17423, Pitch_bend_c, 2, 9101
4, 17424, Pitch_bend_c, 2, 8958
4, 17425, Pitch_bend_c, 2, 8796
4, 17426, Pitch_bend_c, 2, 8618
4, 17427, Pitch_bend_c, 2, 8430
4, 17428, Pitch_bend_c, 2, 8236
4, 17429, Pitch_bend_c, 2, 8040
4, 17430, Pitch_bend_c, 2, 7849
4, 17431, Pitch_bend_c, 2, 7666
4, 17432, Pitch_bend_c, 2, 7496
4, 17433, Pitch_bend_c, 2, 7344
4, 17434, Pitch_bend_c, 2, 7214
4, 17435, Pitch_bend_c, 2, 7108
4, 17436, Pitch_bend_c, 2, 7030
4, 17437, Pitch_bend_c, 2, 6981
4, 17438, Pitch_bend_c, 2, 6963
4, 17439, Pitch_bend_c, 2, 6976
4, 17440, Pitch_bend_c, 2, 7020
4, 17441, Pitch_bend_c, 2, 7094
4, 17442, Pitch_bend_c, 2, 7195
4, 17443, Pitch_bend_c, 2, 7322
4, 17444, Pitch_bend_c, 2, 7471
4, 17445, Pitch_bend_c, 2, 7638
4, 17446, Pitch_bend_c, 2, 7819
4, 17447, Pitch_bend_c, 2, 8009
4, 17448, Pitch_bend_c, 2, 8205
4, 17449, Pitch_bend_c, 2, 8399
4, 17450, Pitch_bend_c, 2, 8589
4, 17451, Pitch_bend_c, 2, 8768
4, 17452, Pitch_bend_c, 2, 8933
4, 17453, Pitch_bend_c, 2, 9080
4, 17454, Pitch_bend_c, 2, 9203
4, 17455, Pitch_bend_c, 2, 9301
4, 17456, Pitch_bend_c, 2, 9371
4, 17457, Pitch_bend_c, 2, 9411
4, 17458, Pitch_bend_c, 2, 9420
4, 17459, Pitch_bend_c, 2, 9398
4, 17460, Pitch_bend_c, 2, 9345
4, 17461, Pitch_bend_c, 2, 9264
4, 17462, Pitch_bend_c, 2, 9155
4, 17463, Pitch_bend_c, 2, 9021
4, 17464, Pitch_bend_c, 2, 8867
4, 17465, Pitch_bend_c, 2, 8695
4, 17466, Pitch_bend_c, 2, 8511
4, 17467, Pitch_bend_c, 2, 8319
4, 17468, Pitch_bend_c, 2, 8123
4, 17469, Pitch_bend_c, 2, 7929
4, 17470, Pitch_bend_c, 2, 7742
4, 17471, Pitch_bend_c, 2, 7566
4, 17472, Pitch_bend_c, 2, 7406
4, 17473, Pitch_bend_c, 2, 7266
4, 17474, Pitch_bend_c, 2, 7150
4, 17475, Pitch_bend_c, 2, 7060
4, 17476, Pitch_bend_c, 2, 6998
4, 17477, Pitch_bend_c, 2, 6967
4, 17479, Pitch_bend_c, 2, 6998
4, 17480, Pitch_bend_c, 2, 7059
4, 17481, Pitch_bend_c, 2, 7149
4, 17482, Pitch_bend_c, 2, 7265
4, 17483, Pitch_bend_c, 2, 7405
4, 17484, Pitch_bend_c, 2, 7565
4, 17485, Pitch_bend_c, 2, 7741
4, 17486, Pitch_bend_c, 2, 7928
4, 17487, Pitch_bend_c, 2, 8122
4, 17488, Pitch_bend_c, 2, 8317
4, 17489, Pitch_bend_c, 2, 8510
4, 17490, Pitch_bend_c, 2, 8694
4, 17491, Pitch_bend_c, 2, 8866
4, 17492, Pitch_bend_c, 2, 9020
4, 17493, Pitch_bend_c, 2, 9154
4, 17494, Pitch_bend_c, 2, 9263
4, 17495, Pitch_bend_c, 2, 9345
4, 17496, Pitch_bend_c, 2, 9398
4, 17497, Pitch_bend_c, 2, 9420
4, 17498, Pitch_bend_c, 2, 9411
4, 17499, Pitch_bend_c, 2, 9371
4, 17500, Pitch_bend_c, 2, 9302
4, 17501, Pitch_bend_c, 2, 9204
4, 17502, Pitch_bend_c, 2, 9081
4, 17503, Pitch_bend_c, 2, 8935
4, 17504, Pitch_bend_c, 2, 8770
4, 17505, Pitch_bend_c, 2, 8590
4, 17506, Pitch_bend_c, 2, 8401
4, 17507, Pitch_bend_c, 2, 8206
4, 17508, Pitch_bend_c, 2, 8011
4, 17509, Pitch_bend_c, 2, 7820
4, 17510, Pitch_bend_c, 2, 7639
4, 17511, Pitch_bend_c, 2, 7472
4, 17512, Pitch_bend_c, 2, 7323
4, 17513, Pitch_bend_c, 2, 7196
4, 17514, Pitch_bend_c, 2, 7095
4, 17515, Pitch_bend_c, 2, 7021
4, 17516, Pitch_bend_c, 2, 6977
4, 17517, Pitch_bend_c, 2, 6963
4, 17518, Pitch_bend_c, 2, 6981
4, 17519, Pitch_bend_c, 2, 7030
4, 17520, Pitch_bend_c, 2, 7108
4, 17521, Pitch_bend_c, 2, 7213
4, 17522, Pitch_bend_c, 2, 7343
4, 17523, Pitch_bend_c, 2, 7495
4, 17524, Pitch_bend_c, 2, 7664
4, 17525, Pitch_bend_c, 2, 7847
4, 17526, Pitch_bend_c, 2, 8039
4, 17527, Pitch_bend_c, 2, 8234
4, 17528, Pitch_bend_c, 2, 8429
4, 17529, Pitch_bend_c, 2, 8617
4, 17530, Pitch_bend_c, 2, 8795
4, 17531, Pitch_bend_c, 2, 8957
4, 17532, Pitch_bend_c, 2, 9100
4, 17533, Pitch_bend_c, 2, 9220
4, 17534, Pitch_bend_c, 2, 9314
4, 17535, Pitch_bend_c, 2, 9379
4, 17536, Pitch_bend_c, 2, 9414
4, 17537, Pitch_bend_c, 2, 9419
4, 17538, Pitch_bend_c, 2, 9392
4, 17539, Pitch_bend_c, 2, 9335
4, 17540, Pitch_bend_c, 2, 9249
4, 17541, Pitch_bend_c, 2, 9136
4, 17542, Pitch_bend_c, 2, 8999
4, 17543, Pitch_bend_c, 2, 8842
4, 17544, Pitch_bend_c, 2, 8668
4, 17545, Pitch_bend_c, 2, 8482
4, 17546, Pitch_bend_c, 2, 8289
4, 17547, Pitch_bend_c, 2, 8093
4, 17548, Pitch_bend_c, 2, 7900
4, 17549, Pitch_bend_c, 2, 7715
4, 17550, Pitch_bend_c, 2, 7541
4, 17551, Pitch_bend_c, 2, 7384
4, 17552, Pitch_bend_c, 2, 7247
4, 17553, Pitch_bend_c, 2, 7134
4, 17554, Pitch_bend_c, 2, 7049
4, 17555, Pitch_bend_c, 2, 6992
4, 17556, Pitch_bend_c, 2, 6965
4, 17557, Pitch_bend_c, 2, 6970
4, 17558, Pitch_bend_c, 2, 7005
4, 17559, Pitch_bend_c, 2, 7071
4, 17560, Pitch_bend_c, 2, 7165
4, 17561, Pitch_bend_c, 2, 7285
4, 17562, Pitch_bend_c, 2, 7428
4, 17563, Pitch_bend_c, 2, 7591
4, 17564, Pitch_bend_c, 2, 7768
4, 17565, Pitch_bend_c, 2, 7957
4, 17566, Pitch_bend_c, 2, 8151
4, 17567, Pitch_bend_c, 2, 8347
4, 17568, Pitch_bend_c, 2, 8538
4, 17569, Pitch_bend_c, 2, 8721
4, 17570, Pitch_bend_c, 2, 8890
4, 17571, Pitch_bend_c, 2, 9042
4, 17572, Pitch_bend_c, 2, 9172
4, 17573, Pitch_bend_c, 2, 9277
4, 17574, Pitch_bend_c, 2, 9355
4, 17575, Pitch_bend_c, 2, 9403
4, 17576, Pitch_bend_c, 2, 9421
4, 17577, Pitch_bend_c, 2, 9407
4, 17578, Pitch_bend_c, 2, 9363
4, 17579, Pitch_bend_c, 2, 9289
4, 17580, Pitch_bend_c, 2, 9187
4, 17581, Pitch_bend_c, 2, 9060
4, 17582, Pitch_bend_c, 2, 8911
4, 17583, Pitch_bend_c, 2, 8743
4, 17584, Pitch_bend_c, 2, 8562
4, 17585, Pitch_bend_c, 2, 8372
4, 17586, Pitch_bend_c, 2, 8176
4, 17587, Pitch_bend_c, 2, 7982
4, 17588, Pitch_bend_c, 2, 7792
4, 17589, Pitch_bend_c, 2, 7613
4, 17590, Pitch_bend_c, 2, 7448
4, 17591, Pitch_bend_c, 2, 7302
4, 17592, Pitch_bend_c, 2, 7179
4, 17593, Pitch_bend_c, 2, 7082
4, 17594, Pitch_bend_c, 2, 7012
4, 17595, Pitch_bend_c, 2, 6973
4, 17596, Pitch_bend_c, 2, 6964
4, 17597, Pitch_bend_c, 2, 6987
4, 17598, Pitch_bend_c, 2, 7040
4, 17599, Pitch_bend_c, 2, 7122
4, 17600, Pitch_bend_c, 2, 7231
4, 17601, Pitch_bend_c, 2, 7365
4, 17602, Pitch_bend_c, 2, 7520
4, 17603, Pitch_bend_c, 2, 7692
4, 17604, Pitch_bend_c, 2, 7876
4, 17605, Pitch_bend_c, 2, 8068
4, 17606, Pitch_bend_c, 2, 8264
4, 17607, Pitch_bend_c, 2, 8458
4, 17608, Pitch_bend_c, 2, 8645
4, 17609, Pitch_bend_c, 2, 8820
4, 17610, Pitch_bend_c, 2, 8980
4, 17611, Pitch_bend_c, 2, 9120
4, 17612, Pitch_bend_c, 2, 9236
4, 17613, Pitch_bend_c, 2, 9325
4, 17614, Pitch_bend_c, 2, 9386
4, 17615, Pitch_bend_c, 2, 9417
4, 17616, Note_off_c, 2, 77, 64
4, 17664, Pitch_bend_c, 2, 8192
4, 17664, Note_on_c, 2, 70, 64
4, 17736, Pitch_bend_c, 2, 7102
4, 17737, Pitch_bend_c, 2, 7205
4, 17738, Pitch_bend_c, 2, 7334
4, 17739, Pitch_bend_c, 2, 7485
4, 17740, Pitch_bend_c, 2, 7653
4, 17741, Pitch_bend_c, 2, 7835
4, 17742, Pitch_bend_c, 2, 8026
4, 17743, Pitch_bend_c, 2, 8222
4, 17744, Pitch_bend_c, 2, 8416
4, 17745, Pitch_bend_c, 2, 8605
4, 17746, Pitch_bend_c, 2, 8784
4, 17747, Pitch_bend_c, 2, 8947
4, 17748, Pitch_bend_c, 2, 9091
4, 17749, Pitch_bend_c, 2, 9213
4, 17750, Pitch_bend_c, 2, 9308
4, 17751, Pitch_bend_c, 2, 9376
4, 17752, Pitch_bend_c, 2, 9413
4, 17753, Pitch_bend_c, 2, 9419
4, 17754, Pitch_bend_c, 2, 9395
4, 17755, Pitch_bend_c, 2, 9339
4, 17756, Pitch_bend_c, 2, 9255
4, 17757, Pitch_bend_c, 2, 9144
4, 17758, Pitch_bend_c, 2, 9008
4, 17759, Pitch_bend_c, 2, 8852
4, 17760, Pitch_bend_c, 2, 8680
4, 17761, Pitch_bend_c, 2, 8494
4, 17762, Pitch_bend_c, 2, 8302
4, 17763, Pitch_bend_c, 2, 8106
4, 17764, Pitch_bend_c, 2, 7912
4, 17765, Pitch_bend_c, 2, 7726
4, 17766, Pitch_bend_c, 2, 7552
4, 17767, Pitch_bend_c, 2, 7393
4, 17768, Pitch_bend_c, 2, 7255
4, 17769, Pitch_bend_c, 2, 7141
4, 17770, Pitch_bend_c, 2, 7053
4, 17771, Pitch_bend_c, 2, 6994
4, 17772, Pitch_bend_c, 2, 6966
4, 17773, Pitch_bend_c, 2, 6969
4, 17774, Pitch_bend_c, 2, 7002
4, 17775, Pitch_bend_c, 2, 7066
4, 17776, Pitch_bend_c, 2, 7158
4, 17777, Pitch_bend_c, 2, 7277
4, 17778, Pitch_bend_c, 2, 7419
4, 17779, Pitch_bend_c, 2, 7580
4, 17780, Pitch_bend_c, 2, 7757
4, 17781, Pitch_bend_c, 2, 7945
4, 17782, Pitch_bend_c, 2, 8139
4, 17783, Pitch_bend_c, 2, 8334
4, 17784, Pitch_bend_c, 2, 8526
4, 17785, Pitch_bend_c, 2, 8710
4, 17786, Pitch_bend_c, 2, 8880
4, 17787, Pitch_bend_c, 2, 9033
4, 17788, Pitch_bend_c, 2, 9164
4, 17789, Pitch_bend_c, 2, 9271
4, 17790, Pitch_bend_c, 2, 9351
4, 17791, Pitch_bend_c, 2, 9401
4, 17792, Pitch_bend_c, 2, 9421
4, 17793, Pitch_bend_c, 2, 9409
4, 17794, Pitch_bend_c, 2, 9367
4, 17795, Pitch_bend_c, 2, 9294
4, 17796, Pitch_bend_c, 2, 9194
4, 17797, Pitch_bend_c, 2, 9069
4, 17798, Pitch_bend_c, 2, 8921
4, 17799, Pitch_bend_c, 2, 8755
4, 17800, Pitch_bend_c, 2, 8574
4, 17801, Pitch_bend_c, 2, 8384
4, 17802, Pitch_bend_c, 2, 8189
4, 17803, Pitch_bend_c, 2, 7994
4, 17804, Pitch_bend_c, 2, 7804
4, 17805, Pitch_bend_c, 2, 7624
4, 17806, Pitch_bend_c, 2, 7458
4, 17807, Pitch_bend_c, 2, 7311
4, 17808, Pitch_bend_c, 2, 7186
4, 17809, Pitch_bend_c, 2, 7087
4, 17810, Pitch_bend_c, 2, 7016
4, 17811, Pitch_bend_c, 2, 6974
4, 17812, Pitch_bend_c, 2, 6964
4, 17813, Pitch_bend_c, 2, 6984
4, 17814, Pitch_bend_c, 2, 7035
4, 17815, Pitch_bend_c, 2, 7116
4, 17816, Pitch_bend_c, 2, 7224
4, 17817, Pitch_bend_c, 2, 7356
4, 17818, Pitch_bend_c, 2, 7509
4, 17819, Pitch_bend_c, 2, 7680
4, 17820, Pitch_bend_c, 2, 7864
4, 17821, Pitch_bend_c, 2, 8056
4, 17822, Pitch_bend_c, 2, 8252
4, 17823, Pitch_bend_c, 2, 8446
4, 17824, Pitch_bend_c, 2, 8633
4, 17825, Pitch_bend_c, 2, 8810
4, 17826, Pitch_bend_c, 2, 8970
4, 17827, Pitch_bend_c, 2, 9111
4, 17828, Pitch_bend_c, 2, 9229
4, 17829, Pitch_bend_c, 2, 9321
4, 17830, Pitch_bend_c, 2, 9383
4, 17831, Pitch_bend_c, 2, 9416
4, 17832, Pitch_bend_c, 2, 9418
4, 17833, Pitch_bend_c, 2, 9388
4, 17834, Pitch_bend_c, 2, 9328
4, 17835, Pitch_bend_c, 2, 9240
4, 17836, Pitch_bend_c, 2, 9125
4, 17837, Pitch_bend_c, 2, 8986
4, 17838, Pitch_bend_c, 2, 8827
4, 17839, Pitch_bend_c, 2, 8652
4, 17840, Pitch_bend_c, 2, 8465
4, 17841, Pitch_bend_c, 2, 8272
4, 17842, Pitch_bend_c, 2, 8076
4, 17843, Pitch_bend_c, 2, 7884
4, 17844, Pitch_bend_c, 2, 7699
4, 17845, Pitch_bend_c, 2, 7526
4, 17846, Pitch_bend_c, 2, 7371
4, 17847, Pitch_bend_c, 2, 7236
4, 17848, Pitch_bend_c, 2, 7126
4, 17849, Pitch_bend_c, 2, 7042
4, 17850, Pitch_bend_c, 2, 6988
4, 17851, Pitch_bend_c, 2, 6964
4, 17852, Pitch_bend_c, 2, 6972
4, 17853, Pitch_bend_c, 2, 7010
4, 17854, Pitch_bend_c, 2, 7078
4, 17855, Pitch_bend_c, 2, 7175
4, 17856, Note_off_c, 2, 70, 64
4, 17904, Pitch_bend_c, 2, 8192
4, 17904, Note_on_c, 2, 68, 64
4, 17952, Note_off_c, 2, 68, 64
4, 17952, Note_on_c, 2, 66, 64
4, 18000, Note_off_c, 2, 66, 64
4, 18000, Note_on_c, 2, 73, 64
4, 18072, Pitch_bend_c, 2, 9191
4, 18073, Pitch_bend_c, 2, 9064
4, 18074, Pitch_bend_c, 2, 8916
4, 18075, Pitch_bend_c, 2, 8749
4, 18076, Pitch_bend_c, 2, 8568
4, 18077, Pitch_bend_c, 2, 8378
4, 18078, Pitch_bend_c, 2, 8183
4, 18079, Pitch_bend_c, 2, 7988
4, 18080, Pitch_bend_c, 2, 7798
4, 18081, Pitch_bend_c, 2, 7618
4, 18082, Pitch_bend_c, 2, 7453
4, 18083, Pitch_bend_c, 2, 7307
4, 18084, Pitch_bend_c, 2, 7183
4, 18085, Pitch_bend_c, 2, 7084
4, 18086, Pitch_bend_c, 2, 7014
4, 18087, Pitch_bend_c, 2, 6973
4, 18088, Pitch_bend_c, 2, 6964
4, 18089, Pitch_bend_c, 2, 6985
4, 18090, Pitch_bend_c, 2, 7037
4, 18091, Pitch_bend_c, 2, 7119
4, 18092, Pitch_bend_c, 2, 7227
4, 18093, Pitch_bend_c, 2, 7360
4, 18094, Pitch_bend_c, 2, 7515
4, 18095, Pitch_bend_c, 2, 7686
4, 18096, Pitch_bend_c, 2, 7870
4, 18097, Pitch_bend_c, 2, 8062
4, 18098, Pitch_bend_c, 2, 8258
4, 18099, Pitch_bend_c, 2, 8452
4, 18100, Pitch_bend_c, 2, 8639
4, 18101, Pitch_bend_c, 2, 8815
4, 18102, Pitch_bend_c, 2, 8975
4, 18103, Pitch_bend_c, 2, 9116
4, 18104, Pitch_bend_c, 2, 9232
4, 18105, Pitch_bend_c, 2, 9323
4, 18106, Pitch_bend_c, 2, 9385
4, 18107, Pitch_bend_c, 2, 9417
4, 18109, Pitch_bend_c, 2, 9387
4, 18110, Pitch_bend_c, 2, 9326
4, 18111, Pitch_bend_c, 2, 9237
4, 18112, Pitch_bend_c, 2, 9121
4, 18113, Pitch_bend_c, 2, 8981
4, 18114, Pitch_bend_c, 2, 8822
4, 18115, Pitch_bend_c, 2, 8646
4, 18116, Pitch_bend_c, 2, 8459
4, 18117, Pitch_bend_c, 2, 8266
4, 18118, Pitch_bend_c, 2, 8070
4, 18119, Pitch_bend_c, 2, 7877
4, 18120, Pitch_bend_c, 2, 7693
4, 18121, Pitch_bend_c, 2, 7521
4, 18122, Pitch_bend_c, 2, 7366
4, 18123, Pitch_bend_c, 2, 7232
4, 18124, Pitch_bend_c, 2, 7123
4, 18125, Pitch_bend_c, 2, 7040
4, 18126, Pitch_bend_c, 2, 6987
4, 18127, Pitch_bend_c, 2, 6964
4, 18128, Pitch_bend_c, 2, 6972
4, 18129, Pitch_bend_c, 2, 7012
4, 18130, Pitch_bend_c, 2, 7081
4, 18131, Pitch_bend_c, 2, 7178
4, 18132, Pitch_bend_c, 2, 7301
4, 18133, Pitch_bend_c, 2, 7447
4, 18134, Pitch_bend_c, 2, 7611
4, 18135, Pitch_bend_c, 2, 7791
4, 18136, Pitch_bend_c, 2, 7980
4, 18137, Pitch_bend_c, 2, 8175
4, 18138, Pitch_bend_c, 2, 8370
4, 18139, Pitch_bend_c, 2, 8561
4, 18140, Pitch_bend_c, 2, 8742
4, 18141, Pitch_bend_c, 2, 8909
4, 18142, Pitch_bend_c, 2, 9059
4, 18143, Pitch_bend_c, 2, 9186
4, 18144, Note_off_c, 2, 73, 64
4, 18240, Pitch_bend_c, 2, 8192
4, 18240, Note_on_c, 2, 78, 64
4, 18312, Pitch_bend_c, 2, 8668
4, 18313, Pitch_bend_c, 2, 8482
4, 18314, Pitch_bend_c, 2, 8289
4, 18315, Pitch_bend_c, 2, 8093
4, 18316, Pitch_bend_c, 2, 7900
4, 18317, Pitch_bend_c, 2, 7715
4, 18318, Pitch_bend_c, 2, 7541
4, 18319, Pitch_bend_c, 2, 7384
4, 18320, Pitch_bend_c, 2, 7247
4, 18321, Pitch_bend_c, 2, 7134
4, 18322, Pitch_bend_c, 2, 7049
4, 18323, Pitch_bend_c, 2, 6992
4, 18324, Pitch_bend_c, 2, 6965
4, 18325, Pitch_bend_c, 2, 6970
4, 18326, Pitch_bend_c, 2, 7005
4, 18327, Pitch_bend_c, 2, 7071
4, 18328, Pitch_bend_c, 2, 7165
4, 18329, Pitch_bend_c, 2, 7285
4, 18330, Pitch_bend_c, 2, 7428
4, 18331, Pitch_bend_c, 2, 7591
4, 18332, Pitch_bend_c, 2, 7768
4, 18333, Pitch_bend_c, 2, 7957
4, 18334, Pitch_bend_c, 2, 8151
4, 18335, Pitch_bend_c, 2, 8347
4, 18336, Note_off_c, 2, 78, 64
4, 18336, Pitch_bend_c, 2, 8192
4, 18336, Note_on_c, 2, 80, 64
4, 18408, Pitch_bend_c, 2, 7306
4, 18409, Pitch_bend_c, 2, 7452
4, 18410, Pitch_bend_c, 2, 7617
4, 18411, Pitch_bend_c, 2, 7797
4, 18412, Pitch_bend_c, 2, 7986
4, 18413, Pitch_bend_c, 2, 8181
4, 18414, Pitch_bend_c, 2, 8376
4, 18415, Pitch_bend_c, 2, 8567
4, 18416, Pitch_bend_c, 2, 8748
4, 18417, Pitch_bend_c, 2, 8915
4, 18418, Pitch_bend_c, 2, 9063
4, 18419, Pitch_bend_c, 2, 9190
4, 18420, Pitch_bend_c, 2, 9291
4, 18421, Pitch_bend_c, 2, 9364
4, 18422, Pitch_bend_c, 2, 9408
4, 18423, Pitch_bend_c, 2, 9421
4, 18424, Pitch_bend_c, 2, 9402
4, 18425, Pitch_bend_c, 2, 9353
4, 18426, Pitch_bend_c, 2, 9275
4, 18427, Pitch_bend_c, 2, 9169
4, 18428, Pitch_bend_c, 2, 9038
4, 18429, Pitch_bend_c, 2, 8886
4, 18430, Pitch_bend_c, 2, 8717
4, 18431, Pitch_bend_c, 2, 8534
4, 18432, Note_off_c, 2, 80, 64
4, 18432, Pitch_bend_c, 2, 8192
4, 18432, Note_on_c, 2, 83, 64
4, 18504, Pitch_bend_c, 2, 7102
4, 18505, Pitch_bend_c, 2, 7205
4, 18506, Pitch_bend_c, 2, 7334
4, 18507, Pitch_bend_c, 2, 7485
4, 18508, Pitch_bend_c, 2, 7653
4, 18509, Pitch_bend_c, 2, 7835
4, 18510, Pitch_bend_c, 2, 8026
4, 18511, Pitch_bend_c, 2, 8222
4, 18512, Pitch_bend_c, 2, 8416
4, 18513, Pitch_bend_c, 2, 8605
4, 18514, Pitch_bend_c, 2, 8784
4, 18515, Pitch_bend_c, 2, 8947
4, 18516, Pitch_bend_c, 2, 9091
4, 18517, Pitch_bend_c, 2, 9213
4, 18518, Pitch_bend_c, 2, 9308
4, 18519, Pitch_bend_c, 2, 9376
4, 18520, Pitch_bend_c, 2, 9413
4, 18521, Pitch_bend_c, 2, 9419
4, 18522, Pitch_bend_c, 2, 9395
4, 18523, Pitch_bend_c, 2, 9339
4, 18524, Pitch_bend_c, 2, 9255
4, 18525, Pitch_bend_c, 2, 9144
4, 18526, Pitch_bend_c, 2, 9008
4, 18527, Pitch_bend_c, 2, 8852
4, 18528, Pitch_bend_c, 2, 8680
4, 18529, Pitch_bend_c, 2, 8494
4, 18530, Pitch_bend_c, 2, 8302
4, 18531, Pitch_bend_c, 2, 8106
4, 18532, Pitch_bend_c, 2, 7912
4, 18533, Pitch_bend_c, 2, 7726
4, 18534, Pitch_bend_c, 2, 7552
4, 18535, Pitch_bend_c, 2, 7393
4, 18536, Pitch_bend_c, 2, 7255
4, 18537, Pitch_bend_c, 2, 7141
4, 18538, Pitch_bend_c, 2, 7053
4, 18539, Pitch_bend_c, 2, 6994
4, 18540, Pitch_bend_c, 2, 6966
4, 18541, Pitch_bend_c, 2, 6969
4, 18542, Pitch_bend_c, 2, 7002
4, 18543, Pitch_bend_c, 2, 7066
4, 18544, Pitch_bend_c, 2, 7158
4, 18545, Pitch_bend_c, 2, 7277
4, 18546, Pitch_bend_c, 2, 7419
4, 18547, Pitch_bend_c, 2, 7580
4, 18548, Pitch_bend_c, 2, 7757
4, 18549, Pitch_bend_c, 2, 7945
4, 18550, Pitch_bend_c, 2, 8139
4, 18551, Pitch_bend_c, 2, 8334
4, 18552, Pitch_bend_c, 2, 8526
4, 18553, Pitch_bend_c, 2, 8710
4, 18554, Pitch_bend_c, 2, 8880
4, 18555, Pitch_bend_c, 2, 9033
4, 18556, Pitch_bend_c, 2, 9164
4, 18557, Pitch_bend_c, 2, 9271
4, 18558, Pitch_bend_c, 2, 9351
4, 18559, Pitch_bend_c, 2, 9401
4, 18560, Pitch_bend_c, 2, 9421
4, 18561, Pitch_bend_c, 2, 9409
4, 18562, Pitch_bend_c, 2, 9367
4, 18563, Pitch_bend_c, 2, 9294
4, 18564, Pitch_bend_c, 2, 9194
4, 18565, Pitch_bend_c, 2, 9069
4, 18566, Pitch_bend_c, 2, 8921
4, 18567, Pitch_bend_c, 2, 8755
4, 18568, Pitch_bend_c, 2, 8574
4, 18569, Pitch_bend_c, 2, 8384
4, 18570, Pitch_bend_c, 2, 8189
4, 18571, Pitch_bend_c, 2, 7994
4, 18572, Pitch_bend_c, 2, 7804
4, 18573, Pitch_bend_c, 2, 7624
4, 18574, Pitch_bend_c, 2, 7458
4, 18575, Pitch_bend_c, 2, 7311
4, 18576, Note_off_c, 2, 83, 64
4, 18576, Pitch_bend_c, 2, 8192
4, 18576, Note_on_c, 2, 82, 64
4, 18624, Note_off_c, 2, 82, 64
4, 18624, Note_on_c, 2, 82, 64
4, 18696, Pitch_bend_c, 2, 7032
4, 18697, Pitch_bend_c, 2, 6982
4, 18698, Pitch_bend_c, 2, 6963
4, 18699, Pitch_bend_c, 2, 6975
4, 18700, Pitch_bend_c, 2, 7018
4, 18701, Pitch_bend_c, 2, 7091
4, 18702, Pitch_bend_c, 2, 7192
4, 18703, Pitch_bend_c, 2, 7318
4, 18704, Pitch_bend_c, 2, 7466
4, 18705, Pitch_bend_c, 2, 7632
4, 18706, Pitch_bend_c, 2, 7813
4, 18707, Pitch_bend_c, 2, 8003
4, 18708, Pitch_bend_c, 2, 8198
4, 18709, Pitch_bend_c, 2, 8393
4, 18710, Pitch_bend_c, 2, 8583
4, 18711, Pitch_bend_c, 2, 8763
4, 18712, Pitch_bend_c, 2, 8928
4, 18713, Pitch_bend_c, 2, 9075
4, 18714, Pitch_bend_c, 2, 9200
4, 18715, Pitch_bend_c, 2, 9298
4, 18716, Pitch_bend_c, 2, 9369
4, 18717, Pitch_bend_c, 2, 9410
4, 18718, Pitch_bend_c, 2, 9420
4, 18719, Pitch_bend_c, 2, 9399
4, 18720, Pitch_bend_c, 2, 9348
4, 18721, Pitch_bend_c, 2, 9267
4, 18722, Pitch_bend_c, 2, 9159
4, 18723, Pitch_bend_c, 2, 9026
4, 18724, Pitch_bend_c, 2, 8872
4, 18725, Pitch_bend_c, 2, 8701
4, 18726, Pitch_bend_c, 2, 8517
4, 18727, Pitch_bend_c, 2, 8325
4, 18728, Pitch_bend_c, 2, 8129
4, 18729, Pitch_bend_c, 2, 7935
4, 18730, Pitch_bend_c, 2, 7748
4, 18731, Pitch_bend_c, 2, 7572
4, 18732, Pitch_bend_c, 2, 7411
4, 18733, Pitch_bend_c, 2, 7271
4, 18734, Pitch_bend_c, 2, 7153
4, 18735, Pitch_bend_c, 2, 7062
4, 18736, Pitch_bend_c, 2, 7000
4, 18737, Pitch_bend_c, 2, 6968
4, 18738, Pitch_bend_c, 2, 6967
4, 18739, Pitch_bend_c, 2, 6996
4, 18740, Pitch_bend_c, 2, 7057
4, 18741, Pitch_bend_c, 2, 7146
4, 18742, Pitch_bend_c, 2, 7261
4, 18743, Pitch_bend_c, 2, 7400
4, 18744, Pitch_bend_c, 2, 7560
4, 18745, Pitch_bend_c, 2, 7735
4, 18746, Pitch_bend_c, 2, 7922
4, 18747, Pitch_bend_c, 2, 8115
4, 18748, Pitch_bend_c, 2, 8311
4, 18749, Pitch_bend_c, 2, 8503
4, 18750, Pitch_bend_c, 2, 8688
4, 18751, Pitch_bend_c, 2, 8860
4, 18752, Pitch_bend_c, 2, 9015
4, 18753, Pitch_bend_c, 2, 9150
4, 18754, Pitch_bend_c, 2, 9260
4, 18755, Pitch_bend_c, 2, 9343
4, 18756, Pitch_bend_c, 2, 9397
4, 18757, Pitch_bend_c, 2, 9420
4, 18758, Pitch_bend_c, 2, 9412
4, 18759, Pitch_bend_c, 2, 9373
4, 18760, Pitch_bend_c, 2, 9304
4, 18761, Pitch_bend_c, 2, 9208
4, 18762, Pitch_bend_c, 2, 9085
4, 18763, Pitch_bend_c, 2, 8940
4, 18764, Pitch_bend_c, 2, 8775
4, 18765, Pitch_bend_c, 2, 8596
4, 18766, Pitch_bend_c, 2, 8407
4, 18767, Pitch_bend_c, 2, 8212
4, 18768, Pitch_bend_c, 2, 8017
4, 18769, Pitch_bend_c, 2, 7826
4, 18770, Pitch_bend_c, 2, 7645
4, 18771, Pitch_bend_c, 2, 7477
4, 18772, Pitch_bend_c, 2, 7328
4, 18773, Pitch_bend_c, 2, 7200
4, 18774, Pitch_bend_c, 2, 7097
4, 18775, Pitch_bend_c, 2, 7023
4, 18776, Pitch_bend_c, 2, 6978
4, 18777, Pitch_bend_c, 2, 6963
4, 18778, Pitch_bend_c, 2, 6980
4, 18779, Pitch_bend_c, 2, 7028
4, 18780, Pitch_bend_c, 2, 7105
4, 18781, Pitch_bend_c, 2, 7209
4, 18782, Pitch_bend_c, 2, 7339
4, 18783, Pitch_bend_c, 2, 7490
4, 18784, Pitch_bend_c, 2, 7659
4, 18785, Pitch_bend_c, 2, 7841
4, 18786, Pitch_bend_c, 2, 8033
4, 18787, Pitch_bend_c, 2, 8228
4, 18788, Pitch_bend_c, 2, 8423
4, 18789, Pitch_bend_c, 2, 8611
4, 18790, Pitch_bend_c, 2, 8789
4, 18791, Pitch_bend_c, 2, 8952
4, 18792, Pitch_bend_c, 2, 9096
4, 18793, Pitch_bend_c, 2, 9216
4, 18794, Pitch_bend_c, 2, 9311
4, 18795, Pitch_bend_c, 2, 9377
4, 18796, Pitch_bend_c, 2, 9414
4, 18797, Pitch_bend_c, 2, 9419
4, 18798, Pitch_bend_c, 2, 9393
4, 18799, Pitch_bend_c, 2, 9337
4, 18800, Pitch_bend_c, 2, 9252
4, 18801, Pitch_bend_c, 2, 9140
4, 18802, Pitch_bend_c, 2, 9004
4, 18803, Pitch_bend_c, 2, 8847
4, 18804, Pitch_bend_c, 2, 8674
4, 18805, Pitch_bend_c, 2, 8488
4, 18806, Pitch_bend_c, 2, 8295
4, 18807, Pitch_bend_c, 2, 8100
4, 18808, Pitch_bend_c, 2, 7906
4, 18809, Pitch_bend_c, 2, 7720
4, 18810, Pitch_bend_c, 2, 7546
4, 18811, Pitch_bend_c, 2, 7388
4, 18812, Pitch_bend_c, 2, 7251
4, 18813, Pitch_bend_c, 2, 7138
4, 18814, Pitch_bend_c, 2, 7051
4, 18815, Pitch_bend_c, 2, 6993
4, 18816, Pitch_bend_c, 2, 6966
4, 18817, Pitch_bend_c, 2, 6969
4, 18818, Pitch_bend_c, 2, 7004
4, 18819, Pitch_bend_c, 2, 7068
4, 18820, Pitch_bend_c, 2, 7162
4, 18821, Pitch_bend_c, 2, 7281
4, 18822, Pitch_bend_c, 2, 7423
4, 18823, Pitch_bend_c, 2, 7585
4, 18824, Pitch_bend_c, 2, 7763
4, 18825, Pitch_bend_c, 2, 7951
4, 18826, Pitch_bend_c, 2, 8145
4, 18827, Pitch_bend_c, 2, 8340
4, 18828, Pitch_bend_c, 2, 8532
4, 18829, Pitch_bend_c, 2, 8715
4, 18830, Pitch_bend_c, 2, 8885
4, 18831, Pitch_bend_c, 2, 9037
4, 18832, Pitch_bend_c, 2, 9168
4, 18833, Pitch_bend_c, 2, 9274
4, 18834, Pitch_bend_c, 2, 9353
4, 18835, Pitch_bend_c, 2, 9402
4, 18836, Pitch_bend_c, 2, 9421
4, 18837, Pitch_bend_c, 2, 9408
4, 18838, Pitch_bend_c, 2, 9365
4, 18839, Pitch_bend_c, 2, 9292
4, 18840, Pitch_bend_c, 2, 9191
4, 18841, Pitch_bend_c, 2, 9064
4, 18842, Pitch_bend_c, 2, 8916
4, 18843, Pitch_bend_c, 2, 8749
4, 18844, Pitch_bend_c, 2, 8568
4, 18845, Pitch_bend_c, 2, 8378
4, 18846, Pitch_bend_c, 2, 8183
4, 18847, Pitch_bend_c, 2, 7988
4, 18848, Pitch_bend_c, 2, 7798
4, 18849, Pitch_bend_c, 2, 7618
4, 18850, Pitch_bend_c, 2, 7453
4, 18851, Pitch_bend_c, 2, 7307
4, 18852, Pitch_bend_c, 2, 7183
4, 18853, Pitch_bend_c, 2, 7084
4, 18854, Pitch_bend_c, 2, 7014
4, 18855, Pitch_bend_c, 2, 6973
4, 18856, Pitch_bend_c, 2, 6964
4, 18857, Pitch_bend_c, 2, 6985
4, 18858, Pitch_bend_c, 2, 7037
4, 18859, Pitch_bend_c, 2, 7119
4, 18860, Pitch_bend_c, 2, 7227
4, 18861, Pitch_bend_c, 2, 7360
4, 18862, Pitch_bend_c, 2, 7515
4, 18863, Pitch_bend_c, 2, 7686
4, 18864, Pitch_bend_c, 2, 7870
4, 18865, Pitch_bend_c, 2, 8062
4, 18866, Pitch_bend_c, 2, 8258
4, 18867, Pitch_bend_c, 2, 8452
4, 18868, Pitch_bend_c, 2, 8639
4, 18869, Pitch_bend_c, 2, 8815
4, 18870, Pitch_bend_c, 2, 8975
4, 18871, Pitch_bend_c, 2, 9116
4, 18872, Pitch_bend_c, 2, 9232
4, 18873, Pitch_bend_c, 2, 9323
4, 18874, Pitch_bend_c, 2, 9385
4, 18875, Pitch_bend_c, 2, 9417
4, 18877, Pitch_bend_c, 2, 9387
4, 18878, Pitch_bend_c, 2, 9326
4, 18879, Pitch_bend_c, 2, 9237
4, 18880, Pitch_bend_c, 2, 9121
4, 18881, Pitch_bend_c, 2, 8981
4, 18882, Pitch_bend_c, 2, 8822
4, 18883, Pitch_bend_c, 2, 8646
4, 18884, Pitch_bend_c, 2, 8459
4, 18885, Pitch_bend_c, 2, 8266
4, 18886, Pitch_bend_c, 2, 8070
4, 18887, Pitch_bend_c, 2, 7877
4, 18888, Pitch_bend_c, 2, 7693
4, 18889, Pitch_bend_c, 2, 7521
4, 18890, Pitch_bend_c, 2, 7366
4, 18891, Pitch_bend_c, 2, 7232
4, 18892, Pitch_bend_c, 2, 7123
4, 18893, Pitch_bend_c, 2, 7040
4, 18894, Pitch_bend_c, 2, 6987
4, 18895, Pitch_bend_c, 2, 6964
4, 18896, Pitch_bend_c, 2, 6972
4, 18897, Pitch_bend_c, 2, 7012
4, 18898, Pitch_bend_c, 2, 7081
4, 18899, Pitch_bend_c, 2, 7178
4, 18900, Pitch_bend_c, 2, 7301
4, 18901, Pitch_bend_c, 2, 7447
4, 18902, Pitch_bend_c, 2, 7611
4, 18903, Pitch_bend_c, 2, 7791
4, 18904, Pitch_bend_c, 2, 7980
4, 18905, Pitch_bend_c, 2, 8175
4, 18906, Pitch_bend_c, 2, 8370
4, 18907, Pitch_bend_c, 2, 8561
4, 18908, Pitch_bend_c, 2, 8742
4, 18909, Pitch_bend_c, 2, 8909
4, 18910, Pitch_bend_c, 2, 9059
4, 18911, Pitch_bend_c, 2, 9186
4, 18912, Pitch_bend_c, 2, 9288
4, 18913, Pitch_bend_c, 2, 9362
4, 18914, Pitch_bend_c, 2, 9407
4, 18915, Pitch_bend_c, 2, 9421
4, 18916, Pitch_bend_c, 2, 9403
4, 18917, Pitch_bend_c, 2, 9355
4, 18918, Pitch_bend_c, 2, 9278
4, 18919, Pitch_bend_c, 2, 9173
4, 18920, Pitch_bend_c, 2, 9043
4, 18921, Pitch_bend_c, 2, 8892
4, 18922, Pitch_bend_c, 2, 8722
4, 18923, Pitch_bend_c, 2, 8540
4, 18924, Pitch_bend_c, 2, 8348
4, 18925, Pitch_bend_c, 2, 8153
4, 18926, Pitch_bend_c, 2, 7958
4, 18927, Pitch_bend_c, 2, 7770
4, 18928, Pitch_bend_c, 2, 7592
4, 18929, Pitch_bend_c, 2, 7430
4, 18930, Pitch_bend_c, 2, 7286
4, 18931, Pitch_bend_c, 2, 7166
4, 18932, Pitch_bend_c, 2, 7072
4, 18933, Pitch_bend_c, 2, 7006
4, 18934, Pitch_bend_c, 2, 6970
4, 18935, Pitch_bend_c, 2, 6965
4, 18936, Pitch_bend_c, 2, 6991
4, 18937, Pitch_bend_c, 2, 7048
4, 18938, Pitch_bend_c, 2, 7134
4, 18939, Pitch_bend_c, 2, 7246
4, 18940, Pitch_bend_c, 2, 7383
4, 18941, Pitch_bend_c, 2, 7540
4, 18942, Pitch_bend_c, 2, 7713
4, 18943, Pitch_bend_c, 2, 7899
4, 18944, Pitch_bend_c, 2, 8092
4, 18945, Pitch_bend_c, 2, 8287
4, 18946, Pitch_bend_c, 2, 8481
4, 18947, Pitch_bend_c, 2, 8667
4, 18948, Pitch_bend_c, 2, 8840
4, 18949, Pitch_bend_c, 2, 8998
4, 18950, Pitch_bend_c, 2, 9135
4, 18951, Pitch_bend_c, 2, 9248
4, 18952, Pitch_bend_c, 2, 9334
4, 18953, Pitch_bend_c, 2, 9392
4, 18954, Pitch_bend_c, 2, 9419
4, 18955, Pitch_bend_c, 2, 9415
4, 18956, Pitch_bend_c, 2, 9379
4, 18957, Pitch_bend_c, 2, 9314
4, 18958, Pitch_bend_c, 2, 9221
4, 18959, Pitch_bend_c, 2, 9101
4, 18960, Pitch_bend_c, 2, 8958
4, 18961, Pitch_bend_c, 2, 8796
4, 18962, Pitch_bend_c, 2, 8618
4, 18963, Pitch_bend_c, 2, 8430
4, 18964, Pitch_bend_c, 2, 8236
4, 18965, Pitch_bend_c, 2, 8040
4, 18966, Pitch_bend_c, 2, 7849
4, 18967, Pitch_bend_c, 2, 7666
4, 18968, Pitch_bend_c, 2, 7496
4, 18969, Pitch_bend_c, 2, 7344
4, 18970, Pitch_bend_c, 2, 7214
4, 18971, Pitch_bend_c, 2, 7108
4, 18972, Pitch_bend_c, 2, 7030
4, 18973, Pitch_bend_c, 2, 6981
4, 18974, Pitch_bend_c, 2, 6963
4, 18975, Pitch_bend_c, 2, 6976
4, 18976, Pitch_bend_c, 2, 7020
4, 18977, Pitch_bend_c, 2, 7094
4, 18978, Pitch_bend_c, 2, 7195
4, 18979, Pitch_bend_c, 2, 7322
4, 18980, Pitch_bend_c, 2, 7471
4, 18981, Pitch_bend_c, 2, 7638
4, 18982, Pitch_bend_c, 2, 7819
4, 18983, Pitch_bend_c, 2, 8009
4, 18984, Pitch_bend_c, 2, 8205
4, 18985, Pitch_bend_c, 2, 8399
4, 18986, Pitch_bend_c, 2, 8589
4, 18987, Pitch_bend_c, 2, 8768
4, 18988, Pitch_bend_c, 2, 8933
4, 18989, Pitch_bend_c, 2, 9080
4, 18990, Pitch_bend_c, 2, 9203
4, 18991, Pitch_bend_c, 2, 9301
4, 18992, Pitch_bend_c, 2, 9371
4, 18993, Pitch_bend_c, 2, 9411
4, 18994, Pitch_bend_c, 2, 9420
4, 18995, Pitch_bend_c, 2, 9398
4, 18996, Pitch_bend_c, 2, 9345
4, 18997, Pitch_bend_c, 2, 9264
4, 18998, Pitch_bend_c, 2, 9155
4, 18999, Pitch_bend_c, 2, 9021
4, 19000, Pitch_bend_c, 2, 8867
4, 19001, Pitch_bend_c, 2, 8695
4, 19002, Pitch_bend_c, 2, 8511
4, 19003, Pitch_bend_c, 2, 8319
4, 19004, Pitch_bend_c, 2, 8123
4, 19005, Pitch_bend_c, 2, 7929
4, 19006, Pitch_bend_c, 2, 7742
4, 19007, Pitch_bend_c, 2, 7566
4, 19008, Note_off_c, 2, 82, 64
4, 19008, Pitch_bend_c, 2, 8192
4, 19008, Note_on_c, 2, 85, 64
4, 19080, Pitch_bend_c, 2, 8668
4, 19081, Pitch_bend_c, 2, 8482
4, 19082, Pitch_bend_c, 2, 8289
4, 19083, Pitch_bend_c, 2, 8093
4, 19084, Pitch_bend_c, 2, 7900
4, 19085, Pitch_bend_c, 2, 7715
4, 19086, Pitch_bend_c, 2, 7541
4, 19087, Pitch_bend_c, 2, 7384
4, 19088, Pitch_bend_c, 2, 7247
4, 19089, Pitch_bend_c, 2, 7134
4, 19090, Pitch_bend_c, 2, 7049
4, 19091, Pitch_bend_c, 2, 6992
4, 19092, Pitch_bend_c, 2, 6965
4, 19093, Pitch_bend_c, 2, 6970
4, 19094, Pitch_bend_c, 2, 7005
4, 19095, Pitch_bend_c, 2, 7071
4, 19096, Pitch_bend_c, 2, 7165
4, 19097, Pitch_bend_c, 2, 7285
4, 19098, Pitch_bend_c, 2, 7428
4, 19099, Pitch_bend_c, 2, 7591
4, 19100, Pitch_bend_c, 2, 7768
4, 19101, Pitch_bend_c, 2, 7957
4, 19102, Pitch_bend_c, 2, 8151
4, 19103, Pitch_bend_c, 2, 8347
4, 19104, Note_off_c, 2, 85, 64
4, 19104, Pitch_bend_c, 2, 8192
4, 19104, Note_on_c, 2, 83, 64
4, 19176, Pitch_bend_c, 2, 7306
4, 19177, Pitch_bend_c, 2, 7452
4, 19178, Pitch_bend_c, 2, 7617
4, 19179, Pitch_bend_c, 2, 7797
4, 19180, Pitch_bend_c, 2, 7986
4, 19181, Pitch_bend_c, 2, 8181
4, 19182, Pitch_bend_c, 2, 8376
4, 19183, Pitch_bend_c, 2, 8567
4, 19184, Pitch_bend_c, 2, 8748
4, 19185, Pitch_bend_c, 2, 8915
4, 19186, Pitch_bend_c, 2, 9063
4, 19187, Pitch_bend_c, 2, 9190
4, 19188, Pitch_bend_c, 2, 9291
4, 19189, Pitch_bend_c, 2, 9364
4, 19190, Pitch_bend_c, 2, 9408
4, 19191, Pitch_bend_c, 2, 9421
4, 19192, Pitch_bend_c, 2, 9402
4, 19193, Pitch_bend_c, 2, 9353
4, 19194, Pitch_bend_c, 2, 9275
4, 19195, Pitch_bend_c, 2, 9169
4, 19196, Pitch_bend_c, 2, 9038
4, 19197, Pitch_bend_c, 2, 8886
4, 19198, Pitch_bend_c, 2, 8717
4, 19199, Pitch_bend_c, 2, 8534
4, 19200, Note_off_c, 2, 83, 64
4, 19200, Pitch_bend_c, 2, 8192
4, 19200, Note_on_c, 2, 82, 64
4, 19248, Note_off_c, 2, 82, 64
4, 19248, Note_on_c, 2, 83, 64
4, 19296, Note_off_c, 2, 83, 64
4, 19296, Note_on_c, 2, 82, 64
4, 19344, Note_off_c, 2, 82, 64
4, 19344, Note_on_c, 2, 78, 64
4, 19416, Pitch_bend_c, 2, 8354
4, 19417, Pitch_bend_c, 2, 8159
4, 19418, Pitch_bend_c, 2, 7965
4, 19419, Pitch_bend_c, 2, 7776
4, 19420, Pitch_bend_c, 2, 7598
4, 19421, Pitch_bend_c, 2, 7434
4, 19422, Pitch_bend_c, 2, 7291
4, 19423, Pitch_bend_c, 2, 7169
4, 19424, Pitch_bend_c, 2, 7074
4, 19425, Pitch_bend_c, 2, 7007
4, 19426, Pitch_bend_c, 2, 6971
4, 19427, Pitch_bend_c, 2, 6965
4, 19428, Pitch_bend_c, 2, 6990
4, 19429, Pitch_bend_c, 2, 7046
4, 19430, Pitch_bend_c, 2, 7130
4, 19431, Pitch_bend_c, 2, 7242
4, 19432, Pitch_bend_c, 2, 7378
4, 19433, Pitch_bend_c, 2, 7534
4, 19434, Pitch_bend_c, 2, 7707
4, 19435, Pitch_bend_c, 2, 7893
4, 19436, Pitch_bend_c, 2, 8086
4, 19437, Pitch_bend_c, 2, 8281
4, 19438, Pitch_bend_c, 2, 8475
4, 19439, Pitch_bend_c, 2, 8661
4, 19440, Note_off_c, 2, 78, 64
4, 19440, Pitch_bend_c, 2, 8192
4, 19440, Note_on_c, 2, 73, 64
4, 19512, Pitch_bend_c, 2, 7560
4, 19513, Pitch_bend_c, 2, 7735
4, 19514, Pitch_bend_c, 2, 7922
4, 19515, Pitch_bend_c, 2, 8115
4, 19516, Pitch_bend_c, 2, 8311
4, 19517, Pitch_bend_c, 2, 8503
4, 19518, Pitch_bend_c, 2, 8688
4, 19519, Pitch_bend_c, 2, 8860
4, 19520, Pitch_bend_c, 2, 9015
4, 19521, Pitch_bend_c, 2, 9150
4, 19522, Pitch_bend_c, 2, 9260
4, 19523, Pitch_bend_c, 2, 9343
4, 19524, Pitch_bend_c, 2, 9397
4, 19525, Pitch_bend_c, 2, 9420
4, 19526, Pitch_bend_c, 2, 9412
4, 19527, Pitch_bend_c, 2, 9373
4, 19528, Pitch_bend_c, 2, 9304
4, 19529, Pitch_bend_c, 2, 9208
4, 19530, Pitch_bend_c, 2, 9085
4, 19531, Pitch_bend_c, 2, 8940
4, 19532, Pitch_bend_c, 2, 8775
4, 19533, Pitch_bend_c, 2, 8596
4, 19534, Pitch_bend_c, 2, 8407
4, 19535, Pitch_bend_c, 2, 8212
4, 19536, Pitch_bend_c, 2, 8017
4, 19537, Pitch_bend_c, 2, 7826
4, 19538, Pitch_bend_c, 2, 7645
4, 19539, Pitch_bend_c, 2, 7477
4, 19540, Pitch_bend_c, 2, 7328
4, 19541, Pitch_bend_c, 2, 7200
4, 19542, Pitch_bend_c, 2, 7097
4, 19543, Pitch_bend_c, 2, 7023
4, 19544, Pitch_bend_c, 2, 6978
4, 19545, Pitch_bend_c, 2, 6963
4, 19546, Pitch_bend_c, 2, 6980
4, 19547, Pitch_bend_c, 2, 7028
4, 19548, Pitch_bend_c, 2, 7105
4, 19549, Pitch_bend_c, 2, 7209
4, 19550, Pitch_bend_c, 2, 7339
4, 19551, Pitch_bend_c, 2, 7490
4, 19552, Pitch_bend_c, 2, 7659
4, 19553, Pitch_bend_c, 2, 7841
4, 19554, Pitch_bend_c, 2, 8033
4, 19555, Pitch_bend_c, 2, 8228
4, 19556, Pitch_bend_c, 2, 8423
4, 19557, Pitch_bend_c, 2, 8611
4, 19558, Pitch_bend_c, 2, 8789
4, 19559, Pitch_bend_c, 2, 8952
4, 19560, Pitch_bend_c, 2, 9096
4, 19561, Pitch_bend_c, 2, 9216
4, 19562, Pitch_bend_c, 2, 9311
4, 19563, Pitch_bend_c, 2, 9377
4, 19564, Pitch_bend_c, 2, 9414
4, 19565, Pitch_bend_c, 2, 9419
4, 19566, Pitch_bend_c, 2, 9393
4, 19567, Pitch_bend_c, 2, 9337
4, 19568, Pitch_bend_c, 2, 9252
4, 19569, Pitch_bend_c, 2, 9140
4, 19570, Pitch_bend_c, 2, 9004
4, 19571, Pitch_bend_c, 2, 8847
4, 19572, Pitch_bend_c, 2, 8674
4, 19573, Pitch_bend_c, 2, 8488
4, 19574, Pitch_bend_c, 2, 8295
4, 19575, Pitch_bend_c, 2, 8100
4, 19576, Pitch_bend_c, 2, 7906
4, 19577, Pitch_bend_c, 2, 7720
4, 19578, Pitch_bend_c, 2, 7546
4, 19579, Pitch_bend_c, 2, 7388
4, 19580, Pitch_bend_c, 2, 7251
4, 19581, Pitch_bend_c, 2, 7138
4, 19582, Pitch_bend_c, 2, 7051
4, 19583, Pitch_bend_c, 2, 6993
4, 19584, Pitch_bend_c, 2, 6966
4, 19585, Pitch_bend_c, 2, 6969
4, 19586, Pitch_bend_c, 2, 7004
4, 19587, Pitch_bend_c, 2, 7068
4, 19588, Pitch_bend_c, 2, 7162
4, 19589, Pitch_bend_c, 2, 7281
4, 19590, Pitch_bend_c, 2, 7423
4, 19591, Pitch_bend_c, 2, 7585
4, 19592, Pitch_bend_c, 2, 7763
4, 19593, Pitch_bend_c, 2, 7951
4, 19594, Pitch_bend_c, 2, 8145
4, 19595, Pitch_bend_c, 2, 8340
4, 19596, Pitch_bend_c, 2, 8532
4, 19597, Pitch_bend_c, 2, 8715
4, 19598, Pitch_bend_c, 2, 8885
4, 19599, Pitch_bend_c, 2, 9037
4, 19600, Pitch_bend_c, 2, 9168
4, 19601, Pitch_bend_c, 2, 9274
4, 19602, Pitch_bend_c, 2, 9353
4, 19603, Pitch_bend_c, 2, 9402
4, 19604, Pitch_bend_c, 2, 9421
4, 19605, Pitch_bend_c, 2, 9408
4, 19606, Pitch_bend_c, 2, 9365
4, 19607, Pitch_bend_c, 2, 9292
4, 19608, Pitch_bend_c, 2, 9191
4, 19609, Pitch_bend_c, 2, 9064
4, 19610, Pitch_bend_c, 2, 8916
4, 19611, Pitch_bend_c, 2, 8749
4, 19612, Pitch_bend_c, 2, 8568
4, 19613, Pitch_bend_c, 2, 8378
4, 19614, Pitch_bend_c, 2, 8183
4, 19615, Pitch_bend_c, 2, 7988
4, 19616, Pitch_bend_c, 2, 7798
4, 19617, Pitch_bend_c, 2, 7618
4, 19618, Pitch_bend_c, 2, 7453
4, 19619, Pitch_bend_c, 2, 7307
4, 19620, Pitch_bend_c, 2, 7183
4, 19621, Pitch_bend_c, 2, 7084
4, 19622, Pitch_bend_c, 2, 7014
4, 19623, Pitch_bend_c, 2, 6973
4, 19624, Pitch_bend_c, 2, 6964
4, 19625, Pitch_bend_c, 2, 6985
4, 19626, Pitch_bend_c, 2, 7037
4, 19627, Pitch_bend_c, 2, 7119
4, 19628, Pitch_bend_c, 2, 7227
4, 19629, Pitch_bend_c, 2, 7360
4, 19630, Pitch_bend_c, 2, 7515
4, 19631, Pitch_bend_c, 2, 7686
4, 19632, Note_off_c, 2, 73, 64
4, 19632, Pitch_bend_c, 2, 8192
4, 19632, Note_on_c, 2, 80, 64
4, 19680, Note_off_c, 2, 80, 64
4, 19680, Note_on_c, 2, 78, 64
4, 19728, Note_off_c, 2, 78, 64
4, 19728, Note_on_c, 2, 77, 64
4, 19776, Note_off_c, 2, 77, 64
4, 19776, Note_on_c, 2, 75, 64
4, 19824, Note_off_c, 2, 75, 64
4, 19824, Note_on_c, 2, 77, 64
4, 19896, Pitch_bend_c, 2, 7179
4, 19897, Pitch_bend_c, 2, 7082
4, 19898, Pitch_bend_c, 2, 7012
4, 19899, Pitch_bend_c, 2, 6973
4, 19900, Pitch_bend_c, 2, 6964
4, 19901, Pitch_bend_c, 2, 6987
4, 19902, Pitch_bend_c, 2, 7040
4, 19903, Pitch_bend_c, 2, 7122
4, 19904, Pitch_bend_c, 2, 7231
4, 19905, Pitch_bend_c, 2, 7365
4, 19906, Pitch_bend_c, 2, 7520
4, 19907, Pitch_bend_c, 2, 7692
4, 19908, Pitch_bend_c, 2, 7876
4, 19909, Pitch_bend_c, 2, 8068
4, 19910, Pitch_bend_c, 2, 8264
4, 19911, Pitch_bend_c, 2, 8458
4, 19912, Pitch_bend_c, 2, 8645
4, 19913, Pitch_bend_c, 2, 8820
4, 19914, Pitch_bend_c, 2, 8980
4, 19915, Pitch_bend_c, 2, 9120
4, 19916, Pitch_bend_c, 2, 9236
4, 19917, Pitch_bend_c, 2, 9325
4, 19918, Pitch_bend_c, 2, 9386
4, 19919, Pitch_bend_c, 2, 9417
4, 19921, Pitch_bend_c, 2, 9385
4, 19922, Pitch_bend_c, 2, 9324
4, 19923, Pitch_bend_c, 2, 9233
4, 19924, Pitch_bend_c, 2, 9117
4, 19925, Pitch_bend_c, 2, 8976
4, 19926, Pitch_bend_c, 2, 8816
4, 19927, Pitch_bend_c, 2, 8640
4, 19928, Pitch_bend_c, 2, 8453
4, 19929, Pitch_bend_c, 2, 8259
4, 19930, Pitch_bend_c, 2, 8064
4, 19931, Pitch_bend_c, 2, 7871
4, 19932, Pitch_bend_c, 2, 7687
4, 19933, Pitch_bend_c, 2, 7516
4, 19934, Pitch_bend_c, 2, 7362
4, 19935, Pitch_bend_c, 2, 7228
4, 19936, Pitch_bend_c, 2, 7120
4, 19937, Pitch_bend_c, 2, 7038
4, 19938, Pitch_bend_c, 2, 6986
4, 19939, Pitch_bend_c, 2, 6964
4, 19940, Pitch_bend_c, 2, 6973
4, 19941, Pitch_bend_c, 2, 7013
4, 19942, Pitch_bend_c, 2, 7084
4, 19943, Pitch_bend_c, 2, 7182
4, 19944, Pitch_bend_c, 2, 7306
4, 19945, Pitch_bend_c, 2, 7452
4, 19946, Pitch_bend_c, 2, 7617
4, 19947, Pitch_bend_c, 2, 7797
4, 19948, Pitch_bend_c, 2, 7986
4, 19949, Pitch_bend_c, 2, 8181
4, 19950, Pitch_bend_c, 2, 8376
4, 19951, Pitch_bend_c, 2, 8567
4, 19952, Pitch_bend_c, 2, 8748
4, 19953, Pitch_bend_c, 2, 8915
4, 19954, Pitch_bend_c, 2, 9063
4, 19955, Pitch_bend_c, 2, 9190
4, 19956, Pitch_bend_c, 2, 9291
4, 19957, Pitch_bend_c, 2, 9364
4, 19958, Pitch_bend_c, 2, 9408
4, 19959, Pitch_bend_c, 2, 9421
4, 19960, Pitch_bend_c, 2, 9402
4, 19961, Pitch_bend_c, 2, 9353
4, 19962, Pitch_bend_c, 2, 9275
4, 19963, Pitch_bend_c, 2, 9169
4, 19964, Pitch_bend_c, 2, 9038
4, 19965, Pitch_bend_c, 2, 8886
4, 19966, Pitch_bend_c, 2, 8717
4, 19967, Pitch_bend_c, 2, 8534
4, 19968, Note_off_c, 2, 77, 64
4, 19968, Pitch_bend_c, 2, 8192
4, 19968, Note_on_c, 2, 78, 64
4, 20016, Note_off_c, 2, 78, 64
4, 20112, Note_on_c, 2, 78, 64
4, 20160, Note_off_c, 2, 78, 64
4, 20256, Note_on_c, 2, 78, 64
4, 20328, Pitch_bend_c, 2, 9096
4, 20329, Pitch_bend_c, 2, 9216
4, 20330, Pitch_bend_c, 2, 9311
4, 20331, Pitch_bend_c, 2, 9377
4, 20332, Pitch_bend_c, 2, 9414
4, 20333, Pitch_bend_c, 2, 9419
4, 20334, Pitch_bend_c, 2, 9393
4, 20335, Pitch_bend_c, 2, 9337
4, 20336, Pitch_bend_c, 2, 9252
4, 20337, Pitch_bend_c, 2, 9140
4, 20338, Pitch_bend_c, 2, 9004
4, 20339, Pitch_bend_c, 2, 8847
4, 20340, Pitch_bend_c, 2, 8674
4, 20341, Pitch_bend_c, 2, 8488
4, 20342, Pitch_bend_c, 2, 8295
4, 20343, Pitch_bend_c, 2, 8100
4, 20344, Pitch_bend_c, 2, 7906
4, 20345, Pitch_bend_c, 2, 7720
4, 20346, Pitch_bend_c, 2, 7546
4, 20347, Pitch_bend_c, 2, 7388
4, 20348, Pitch_bend_c, 2, 7251
4, 20349, Pitch_bend_c, 2, 7138
4, 20350, Pitch_bend_c, 2, 7051
4, 20351, Pitch_bend_c, 2, 6993
4, 20352, Pitch_bend_c, 2, 6966
4, 20353, Pitch_bend_c, 2, 6969
4, 20354, Pitch_bend_c, 2, 7004
4, 20355, Pitch_bend_c, 2, 7068
4, 20356, Pitch_bend_c, 2, 7162
4, 20357, Pitch_bend_c, 2, 7281
4, 20358, Pitch_bend_c, 2, 7423
4, 20359, Pitch_bend_c, 2, 7585
4, 20360, Pitch_bend_c, 2, 7763
4, 20361, Pitch_bend_c, 2, 7951
4, 20362, Pitch_bend_c, 2, 8145
4, 20363, Pitch_bend_c, 2, 8340
4, 20364, Pitch_bend_c, 2, 8532
4, 20365, Pitch_bend_c, 2, 8715
4, 20366, Pitch_bend_c, 2, 8885
4, 20367, Pitch_bend_c, 2, 9037
4, 20368, Pitch_bend_c, 2, 9168
4, 20369, Pitch_bend_c, 2, 9274
4, 20370, Pitch_bend_c, 2, 9353
4, 20371, Pitch_bend_c, 2, 9402
4, 20372, Pitch_bend_c, 2, 9421
4, 20373, Pitch_bend_c, 2, 9408
4, 20374, Pitch_bend_c, 2, 9365
4, 20375, Pitch_bend_c, 2, 9292
4, 20376, Pitch_bend_c, 2, 9191
4, 20377, Pitch_bend_c, 2, 9064
4, 20378, Pitch_bend_c, 2, 8916
4, 20379, Pitch_bend_c, 2, 8749
4, 20380, Pitch_bend_c, 2, 8568
4, 20381, Pitch_bend_c, 2, 8378
4, 20382, Pitch_bend_c, 2, 8183
4, 20383, Pitch_bend_c, 2, 7988
4, 20384, Pitch_bend_c, 2, 7798
4, 20385, Pitch_bend_c, 2, 7618
4, 20386, Pitch_bend_c, 2, 7453
4, 20387, Pitch_bend_c, 2, 7307
4, 20388, Pitch_bend_c, 2, 7183
4, 20389, Pitch_bend_c, 2, 7084
4, 20390, Pitch_bend_c, 2, 7014
4, 20391, Pitch_bend_c, 2, 6973
4, 20392, Pitch_bend_c, 2, 6964
4, 20393, Pitch_bend_c, 2, 6985
4, 20394, Pitch_bend_c, 2, 7037
4, 20395, Pitch_bend_c, 2, 7119
4, 20396, Pitch_bend_c, 2, 7227
4, 20397, Pitch_bend_c, 2, 7360
4, 20398, Pitch_bend_c, 2, 7515
4, 20399, Pitch_bend_c, 2, 7686
4, 20400, Note_off_c, 2, 78, 64
4, 20736, Pitch_bend_c, 2, 8192
4, 20736, Note_on_c, 2, 78, 64
4, 20784, Note_off_c, 2, 78, 64
4, 20784, Note_on_c, 2, 78, 64
4, 20832, Note_off_c, 2, 78, 64
4, 20928, Note_on_c, 2, 80, 64
4, 20976, Note_off_c, 2, 80, 64
4, 20976, Note_on_c, 2, 80, 64
4, 21024, Note_off_c, 2, 80, 64
4, 21072, Note_on_c, 2, 76, 64
4, 21144, Pitch_bend_c, 2, 9191
4, 21145, Pitch_bend_c, 2, 9064
4, 21146, Pitch_bend_c, 2, 8916
4, 21147, Pitch_bend_c, 2, 8749
4, 21148, Pitch_bend_c, 2, 8568
4, 21149, Pitch_bend_c, 2, 8378
4, 21150, Pitch_bend_c, 2, 8183
4, 21151, Pitch_bend_c, 2, 7988
4, 21152, Pitch_bend_c, 2, 7798
4, 21153, Pitch_bend_c, 2, 7618
4, 21154, Pitch_bend_c, 2, 7453
4, 21155, Pitch_bend_c, 2, 7307
4, 21156, Pitch_bend_c, 2, 7183
4, 21157, Pitch_bend_c, 2, 7084
4, 21158, Pitch_bend_c, 2, 7014
4, 21159, Pitch_bend_c, 2, 6973
4, 21160, Pitch_bend_c, 2, 6964
4, 21161, Pitch_bend_c, 2, 6985
4, 21162, Pitch_bend_c, 2, 7037
4, 21163, Pitch_bend_c, 2, 7119
4, 21164, Pitch_bend_c, 2, 7227
4, 21165, Pitch_bend_c, 2, 7360
4, 21166, Pitch_bend_c, 2, 7515
4, 21167, Pitch_bend_c, 2, 7686
4, 21168, Pitch_bend_c, 2, 7870
4, 21169, Pitch_bend_c, 2, 8062
4, 21170, Pitch_bend_c, 2, 8258
4, 21171, Pitch_bend_c, 2, 8452
4, 21172, Pitch_bend_c, 2, 8639
4, 21173, Pitch_bend_c, 2, 8815
4, 21174, Pitch_bend_c, 2, 8975
4, 21175, Pitch_bend_c, 2, 9116
4, 21176, Pitch_bend_c, 2, 9232
4, 21177, Pitch_bend_c, 2, 9323
4, 21178, Pitch_bend_c, 2, 9385
4, 21179, Pitch_bend_c, 2, 9417
4, 21181, Pitch_bend_c, 2, 9387
4, 21182, Pitch_bend_c, 2, 9326
4, 21183, Pitch_bend_c, 2, 9237
4, 21184, Pitch_bend_c, 2, 9121
4, 21185, Pitch_bend_c, 2, 8981
4, 21186, Pitch_bend_c, 2, 8822
4, 21187, Pitch_bend_c, 2, 8646
4, 21188, Pitch_bend_c, 2, 8459
4, 21189, Pitch_bend_c, 2, 8266
4, 21190, Pitch_bend_c, 2, 8070
4, 21191, Pitch_bend_c, 2, 7877
4, 21192, Pitch_bend_c, 2, 7693
4, 21193, Pitch_bend_c, 2, 7521
4, 21194, Pitch_bend_c, 2, 7366
4, 21195, Pitch_bend_c, 2, 7232
4, 21196, Pitch_bend_c, 2, 7123
4, 21197, Pitch_bend_c, 2, 7040
4, 21198, Pitch_bend_c, 2, 6987
4, 21199, Pitch_bend_c, 2, 6964
4, 21200, Pitch_bend_c, 2, 6972
4, 21201, Pitch_bend_c, 2, 7012
4, 21202, Pitch_bend_c, 2, 7081
4, 21203, Pitch_bend_c, 2, 7178
4, 21204, Pitch_bend_c, 2, 7301
4, 21205, Pitch_bend_c, 2, 7447
4, 21206, Pitch_bend_c, 2, 7611
4, 21207, Pitch_bend_c, 2, 7791
4, 21208, Pitch_bend_c, 2, 7980
4, 21209, Pitch_bend_c, 2, 8175
4, 21210, Pitch_bend_c, 2, 8370
4, 21211, Pitch_bend_c, 2, 8561
4, 21212, Pitch_bend_c, 2, 8742
4, 21213, Pitch_bend_c, 2, 8909
4, 21214, Pitch_bend_c, 2, 9059
4, 21215, Pitch_bend_c, 2, 9186
4, 21216, Pitch_bend_c, 2, 9288
4, 21217, Pitch_bend_c, 2, 9362
4, 21218, Pitch_bend_c, 2, 9407
4, 21219, Pitch_bend_c, 2, 9421
4, 21220, Pitch_bend_c, 2, 9403
4, 21221, Pitch_bend_c, 2, 9355
4, 21222, Pitch_bend_c, 2, 9278
4, 21223, Pitch_bend_c, 2, 9173
4, 21224, Pitch_bend_c, 2, 9043
4, 21225, Pitch_bend_c, 2, 8892
4, 21226, Pitch_bend_c, 2, 8722
4, 21227, Pitch_bend_c, 2, 8540
4, 21228, Pitch_bend_c, 2, 8348
4, 21229, Pitch_bend_c, 2, 8153
4, 21230, Pitch_bend_c, 2, 7958
4, 21231, Pitch_bend_c, 2, 7770
4, 21232, Pitch_bend_c, 2, 7592
4, 21233, Pitch_bend_c, 2, 7430
4, 21234, Pitch_bend_c, 2, 7286
4, 21235, Pitch_bend_c, 2, 7166
4, 21236, Pitch_bend_c, 2, 7072
4, 21237, Pitch_bend_c, 2, 7006
4, 21238, Pitch_bend_c, 2, 6970
4, 21239, Pitch_bend_c, 2, 6965
4, 21240, Pitch_bend_c, 2, 6991
4, 21241, Pitch_bend_c, 2, 7048
4, 21242, Pitch_bend_c, 2, 7134
4, 21243, Pitch_bend_c, 2, 7246
4, 21244, Pitch_bend_c, 2, 7383
4, 21245, Pitch_bend_c, 2, 7540
4, 21246, Pitch_bend_c, 2, 7713
4, 21247, Pitch_bend_c, 2, 7899
4, 21248, Pitch_bend_c, 2, 8092
4, 21249, Pitch_bend_c, 2, 8287
4, 21250, Pitch_bend_c, 2, 8481
4, 21251, Pitch_bend_c, 2, 8667
4, 21252, Pitch_bend_c, 2, 8840
4, 21253, Pitch_bend_c, 2, 8998
4, 21254, Pitch_bend_c, 2, 9135
4, 21255, Pitch_bend_c, 2, 9248
4, 21256, Pitch_bend_c, 2, 9334
4, 21257, Pitch_bend_c, 2, 9392
4, 21258, Pitch_bend_c, 2, 9419
4, 21259, Pitch_bend_c, 2, 9415
4, 21260, Pitch_bend_c, 2, 9379
4, 21261, Pitch_bend_c, 2, 9314
4, 21262, Pitch_bend_c, 2, 9221
4, 21263, Pitch_bend_c, 2, 9101
4, 21264, Note_off_c, 2, 76, 64
4, 21264, Pitch_bend_c, 2, 8192
4, 21264, Note_on_c, 2, 73, 64
4, 21312, Note_off_c, 2, 73, 64
4, 21312, Note_on_c, 2, 73, 64
4, 21360, Note_off_c, 2, 73, 64
4, 21360, Note_on_c, 2, 76, 64
4, 21408, Note_off_c, 2, 76, 64
4, 21408, Note_on_c, 2, 71, 64
4, 21409, Pitch_bend_c, 2, 8533
4, 21410, Pitch_bend_c, 2, 8875
4, 21411, Pitch_bend_c, 2, 9216
4, 21412, Pitch_bend_c, 2, 9557
4, 21413, Pitch_bend_c, 2, 9899
4, 21414, Pitch_bend_c, 2, 6144
4, 21414, Note_on_c, 2, 72, 64
4, 21414, Note_off_c, 2, 71, 64
4, 21415, Pitch_bend_c, 2, 6485
4, 21416, Pitch_bend_c, 2, 6827
4, 21417, Pitch_bend_c, 2, 7168
4, 21418, Pitch_bend_c, 2, 7509
4, 21419, Pitch_bend_c, 2, 7851
4, 21420, Pitch_bend_c, 2, 8192
4, 21421, Pitch_bend_c, 2, 8533
4, 21422, Pitch_bend_c, 2, 8875
4, 21423, Pitch_bend_c, 2, 9216
4, 21424, Pitch_bend_c, 2, 9557
4, 21425, Pitch_bend_c, 2, 9899
4, 21426, Pitch_bend_c, 2, 6144
4, 21426, Note_on_c, 2, 73, 64
4, 21426, Note_off_c, 2, 72, 64
4, 21427, Pitch_bend_c, 2, 6485
4, 21428, Pitch_bend_c, 2, 6827
4, 21429, Pitch_bend_c, 2, 7168
4, 21430, Pitch_bend_c, 2, 7509
4, 21431, Pitch_bend_c, 2, 7851
4, 21432, Note_off_c, 2, 73, 64
4, 21432, Pitch_bend_c, 2, 8192
4, 21432, Note_on_c, 2, 71, 64
4, 21456, Note_off_c, 2, 71, 64
4, 21456, Note_on_c, 2, 69, 64
4, 21504, Note_off_c, 2, 69, 64
4, 21504, Note_on_c, 2, 69, 64
4, 21505, Pitch_bend_c, 2, 8533
4, 21506, Pitch_bend_c, 2, 8875
4, 21507, Pitch_bend_c, 2, 9216
4, 21508, Pitch_bend_c, 2, 9557
4, 21509, Pitch_bend_c, 2, 9899
4, 21510, Pitch_bend_c, 2, 6144
4, 21510, Note_on_c, 2, 70, 64
4, 21510, Note_off_c, 2, 69, 64
4, 21511, Pitch_bend_c, 2, 6485
4, 21512, Pitch_bend_c, 2, 6827
4, 21513, Pitch_bend_c, 2, 7168
4, 21514, Pitch_bend_c, 2, 7509
4, 21515, Pitch_bend_c, 2, 7851
4, 21516, Pitch_bend_c, 2, 8192
4, 21517, Pitch_bend_c, 2, 8533
4, 21518, Pitch_bend_c, 2, 8875
4, 21519, Pitch_bend_c, 2, 9216
4, 21520, Pitch_bend_c, 2, 9557
4, 21521, Pitch_bend_c, 2, 9899
4, 21522, Pitch_bend_c, 2, 6144
4, 21522, Note_on_c, 2, 71, 64
4, 21522, Note_off_c, 2, 70, 64
4, 21523, Pitch_bend_c, 2, 6485
4, 21524, Pitch_bend_c, 2, 6827
4, 21525, Pitch_bend_c, 2, 7168
4, 21526, Pitch_bend_c, 2, 7509
4, 21527, Pitch_bend_c, 2, 7851
4, 21528, Note_off_c, 2, 71, 64
4, 21528, Pitch_bend_c, 2, 8192
4, 21528, Note_on_c, 2, 71, 64
4, 21600, Note_off_c, 2, 71, 64
4, 21600, Note_on_c, 2, 69, 64
4, 21648, Note_off_c, 2, 69, 64
4, 21648, Note_on_c, 2, 71, 64
4, 21720, Note_off_c, 2, 71, 64
4, 21744, Note_on_c, 2, 69, 64
4, 21792, Note_off_c, 2, 69, 64
4, 21840, Note_on_c, 2, 71, 64
4, 21841, Pitch_bend_c, 2, 8533
4, 21842, Pitch_bend_c, 2, 8875
4, 21843, Pitch_bend_c, 2, 9216
4, 21844, Pitch_bend_c, 2, 9557
4, 21845, Pitch_bend_c, 2, 9899
4, 21846, Pitch_bend_c, 2, 6144
4, 21846, Note_on_c, 2, 72, 64
4, 21846, Note_off_c, 2, 71, 64
4, 21847, Pitch_bend_c, 2, 6485
4, 21848, Pitch_bend_c, 2, 6827
4, 21849, Pitch_bend_c, 2, 7168
4, 21850, Pitch_bend_c, 2, 7509
4, 21851, Pitch_bend_c, 2, 7851
4, 21852, Pitch_bend_c, 2, 8192
4, 21853, Pitch_bend_c, 2, 8533
4, 21854, Pitch_bend_c, 2, 8875
4, 21855, Pitch_bend_c, 2, 9216
4, 21856, Pitch_bend_c, 2, 9557
4, 21857, Pitch_bend_c, 2, 9899
4, 21858, Pitch_bend_c, 2, 6144
4, 21858, Note_on_c, 2, 73, 64
4, 21858, Note_off_c, 2, 72, 64
4, 21859, Pitch_bend_c, 2, 6485
4, 21860, Pitch_bend_c, 2, 6827
4, 21861, Pitch_bend_c, 2, 7168
4, 21862, Pitch_bend_c, 2, 7509
4, 21863, Pitch_bend_c, 2, 7851
4, 21864, Note_off_c, 2, 73, 64
4, 21864, Pitch_bend_c, 2, 8192
4, 21864, Note_on_c, 2, 73, 64
4, 21936, Pitch_bend_c, 2, 7870
4, 21937, Pitch_bend_c, 2, 8062
4, 21938, Pitch_bend_c, 2, 8258
4, 21939, Pitch_bend_c, 2, 8452
4, 21940, Pitch_bend_c, 2, 8639
4, 21941, Pitch_bend_c, 2, 8815
4, 21942, Pitch_bend_c, 2, 8975
4, 21943, Pitch_bend_c, 2, 9116
4, 21944, Pitch_bend_c, 2, 9232
4, 21945, Pitch_bend_c, 2, 9323
4, 21946, Pitch_bend_c, 2, 9385
4, 21947, Pitch_bend_c, 2, 9417
4, 21949, Pitch_bend_c, 2, 9387
4, 21950, Pitch_bend_c, 2, 9326
4, 21951, Pitch_bend_c, 2, 9237
4, 21952, Pitch_bend_c, 2, 9121
4, 21953, Pitch_bend_c, 2, 8981
4, 21954, Pitch_bend_c, 2, 8822
4, 21955, Pitch_bend_c, 2, 8646
4, 21956, Pitch_bend_c, 2, 8459
4, 21957, Pitch_bend_c, 2, 8266
4, 21958, Pitch_bend_c, 2, 8070
4, 21959, Pitch_bend_c, 2, 7877
4, 21960, Pitch_bend_c, 2, 7693
4, 21961, Pitch_bend_c, 2, 7521
4, 21962, Pitch_bend_c, 2, 7366
4, 21963, Pitch_bend_c, 2, 7232
4, 21964, Pitch_bend_c, 2, 7123
4, 21965, Pitch_bend_c, 2, 7040
4, 21966, Pitch_bend_c, 2, 6987
4, 21967, Pitch_bend_c, 2, 6964
4, 21968, Pitch_bend_c, 2, 6972
4, 21969, Pitch_bend_c, 2, 7012
4, 21970, Pitch_bend_c, 2, 7081
4, 21971, Pitch_bend_c, 2, 7178
4, 21972, Pitch_bend_c, 2, 7301
4, 21973, Pitch_bend_c, 2, 7447
4, 21974, Pitch_bend_c, 2, 7611
4, 21975, Pitch_bend_c, 2, 7791
4, 21976, Pitch_bend_c, 2, 7980
4, 21977, Pitch_bend_c, 2, 8175
4, 21978, Pitch_bend_c, 2, 8370
4, 21979, Pitch_bend_c, 2, 8561
4, 21980, Pitch_bend_c, 2, 8742
4, 21981, Pitch_bend_c, 2, 8909
4, 21982, Pitch_bend_c, 2, 9059
4, 21983, Pitch_bend_c, 2, 9186
4, 21984, Pitch_bend_c, 2, 9288
4, 21985, Pitch_bend_c, 2, 9362
4, 21986, Pitch_bend_c, 2, 9407
4, 21987, Pitch_bend_c, 2, 9421
4, 21988, Pitch_bend_c, 2, 9403
4, 21989, Pitch_bend_c, 2, 9355
4, 21990, Pitch_bend_c, 2, 9278
4, 21991, Pitch_bend_c, 2, 9173
4, 21992, Pitch_bend_c, 2, 9043
4, 21993, Pitch_bend_c, 2, 8892
4, 21994, Pitch_bend_c, 2, 8722
4, 21995, Pitch_bend_c, 2, 8540
4, 21996, Pitch_bend_c, 2, 8348
4, 21997, Pitch_bend_c, 2, 8153
4, 21998, Pitch_bend_c, 2, 7958
4, 21999, Pitch_bend_c, 2, 7770
4, 22000, Pitch_bend_c, 2, 7592
4, 22001, Pitch_bend_c, 2, 7430
4, 22002, Pitch_bend_c, 2, 7286
4, 22003, Pitch_bend_c, 2, 7166
4, 22004, Pitch_bend_c, 2, 7072
4, 22005, Pitch_bend_c, 2, 7006
4, 22006, Pitch_bend_c, 2, 6970
4, 22007, Pitch_bend_c, 2, 6965
4, 22008, Pitch_bend_c, 2, 6991
4, 22009, Pitch_bend_c, 2, 7048
4, 22010, Pitch_bend_c, 2, 7134
4, 22011, Pitch_bend_c, 2, 7246
4, 22012, Pitch_bend_c, 2, 7383
4, 22013, Pitch_bend_c, 2, 7540
4, 22014, Pitch_bend_c, 2, 7713
4, 22015, Pitch_bend_c, 2, 7899
4, 22016, Pitch_bend_c, 2, 8092
4, 22017, Pitch_bend_c, 2, 8287
4, 22018, Pitch_bend_c, 2, 8481
4, 22019, Pitch_bend_c, 2, 8667
4, 22020, Pitch_bend_c, 2, 8840
4, 22021, Pitch_bend_c, 2, 8998
4, 22022, Pitch_bend_c, 2, 9135
4, 22023, Pitch_bend_c, 2, 9248
4, 22024, Pitch_bend_c, 2, 9334
4, 22025, Pitch_bend_c, 2, 9392
4, 22026, Pitch_bend_c, 2, 9419
4, 22027, Pitch_bend_c, 2, 9415
4, 22028, Pitch_bend_c, 2, 9379
4, 22029, Pitch_bend_c, 2, 9314
4, 22030, Pitch_bend_c, 2, 9221
4, 22031, Pitch_bend_c, 2, 9101
4, 22032, Pitch_bend_c, 2, 8958
4, 22033, Pitch_bend_c, 2, 8796
4, 22034, Pitch_bend_c, 2, 8618
4, 22035, Pitch_bend_c, 2, 8430
4, 22036, Pitch_bend_c, 2, 8236
4, 22037, Pitch_bend_c, 2, 8040
4, 22038, Pitch_bend_c, 2, 7849
4, 22039, Pitch_bend_c, 2, 7666
4, 22040, Pitch_bend_c, 2, 7496
4, 22041, Pitch_bend_c, 2, 7344
4, 22042, Pitch_bend_c, 2, 7214
4, 22043, Pitch_bend_c, 2, 7108
4, 22044, Pitch_bend_c, 2, 7030
4, 22045, Pitch_bend_c, 2, 6981
4, 22046, Pitch_bend_c, 2, 6963
4, 22047, Pitch_bend_c, 2, 6976
4, 22048, Pitch_bend_c, 2, 7020
4, 22049, Pitch_bend_c, 2, 7094
4, 22050, Pitch_bend_c, 2, 7195
4, 22051, Pitch_bend_c, 2, 7322
4, 22052, Pitch_bend_c, 2, 7471
4, 22053, Pitch_bend_c, 2, 7638
4, 22054, Pitch_bend_c, 2, 7819
4, 22055, Pitch_bend_c, 2, 8009
4, 22056, Pitch_bend_c, 2, 8205
4, 22057, Pitch_bend_c, 2, 8399
4, 22058, Pitch_bend_c, 2, 8589
4, 22059, Pitch_bend_c, 2, 8768
4, 22060, Pitch_bend_c, 2, 8933
4, 22061, Pitch_bend_c, 2, 9080
4, 22062, Pitch_bend_c, 2, 9203
4, 22063, Pitch_bend_c, 2, 9301
4, 22064, Pitch_bend_c, 2, 9371
4, 22065, Pitch_bend_c, 2, 9411
4, 22066, Pitch_bend_c, 2, 9420
4, 22067, Pitch_bend_c, 2, 9398
4, 22068, Pitch_bend_c, 2, 9345
4, 22069, Pitch_bend_c, 2, 9264
4, 22070, Pitch_bend_c, 2, 9155
4, 22071, Pitch_bend_c, 2, 9021
4, 22072, Pitch_bend_c, 2, 8867
4, 22073, Pitch_bend_c, 2, 8695
4, 22074, Pitch_bend_c, 2, 8511
4, 22075, Pitch_bend_c, 2, 8319
4, 22076, Pitch_bend_c, 2, 8123
4, 22077, Pitch_bend_c, 2, 7929
4, 22078, Pitch_bend_c, 2, 7742
4, 22079, Pitch_bend_c, 2, 7566
4, 22080, Pitch_bend_c, 2, 7406
4, 22081, Pitch_bend_c, 2, 7266
4, 22082, Pitch_bend_c, 2, 7150
4, 22083, Pitch_bend_c, 2, 7060
4, 22084, Pitch_bend_c, 2, 6998
4, 22085, Pitch_bend_c, 2, 6967
4, 22087, Pitch_bend_c, 2, 6998
4, 22088, Pitch_bend_c, 2, 7059
4, 22089, Pitch_bend_c, 2, 7149
4, 22090, Pitch_bend_c, 2, 7265
4, 22091, Pitch_bend_c, 2, 7405
4, 22092, Pitch_bend_c, 2, 7565
4, 22093, Pitch_bend_c, 2, 7741
4, 22094, Pitch_bend_c, 2, 7928
4, 22095, Pitch_bend_c, 2, 8122
4, 22096, Pitch_bend_c, 2, 8317
4, 22097, Pitch_bend_c, 2, 8510
4, 22098, Pitch_bend_c, 2, 8694
4, 22099, Pitch_bend_c, 2, 8866
4, 22100, Pitch_bend_c, 2, 9020
4, 22101, Pitch_bend_c, 2, 9154
4, 22102, Pitch_bend_c, 2, 9263
4, 22103, Pitch_bend_c, 2, 9345
4, 22104, Pitch_bend_c, 2, 9398
4, 22105, Pitch_bend_c, 2, 9420
4, 22106, Pitch_bend_c, 2, 9411
4, 22107, Pitch_bend_c, 2, 9371
4, 22108, Pitch_bend_c, 2, 9302
4, 22109, Pitch_bend_c, 2, 9204
4, 22110, Pitch_bend_c, 2, 9081
4, 22111, Pitch_bend_c, 2, 8935
4, 22112, Pitch_bend_c, 2, 8770
4, 22113, Pitch_bend_c, 2, 8590
4, 22114, Pitch_bend_c, 2, 8401
4, 22115, Pitch_bend_c, 2, 8206
4, 22116, Pitch_bend_c, 2, 8011
4, 22117, Pitch_bend_c, 2, 7820
4, 22118, Pitch_bend_c, 2, 7639
4, 22119, Pitch_bend_c, 2, 7472
4, 22120, Pitch_bend_c, 2, 7323
4, 22121, Pitch_bend_c, 2, 7196
4, 22122, Pitch_bend_c, 2, 7095
4, 22123, Pitch_bend_c, 2, 7021
4, 22124, Pitch_bend_c, 2, 6977
4, 22125, Pitch_bend_c, 2, 6963
4, 22126, Pitch_bend_c, 2, 6981
4, 22127, Pitch_bend_c, 2, 7030
4, 22128, Pitch_bend_c, 2, 7108
4, 22129, Pitch_bend_c, 2, 7213
4, 22130, Pitch_bend_c, 2, 7343
4, 22131, Pitch_bend_c, 2, 7495
4, 22132, Pitch_bend_c, 2, 7664
4, 22133, Pitch_bend_c, 2, 7847
4, 22134, Pitch_bend_c, 2, 8039
4, 22135, Pitch_bend_c, 2, 8234
4, 22136, Pitch_bend_c, 2, 8429
4, 22137, Pitch_bend_c, 2, 8617
4, 22138, Pitch_bend_c, 2, 8795
4, 22139, Pitch_bend_c, 2, 8957
4, 22140, Pitch_bend_c, 2, 9100
4, 22141, Pitch_bend_c, 2, 9220
4, 22142, Pitch_bend_c, 2, 9314
4, 22143, Pitch_bend_c, 2, 9379
4, 22144, Pitch_bend_c, 2, 9414
4, 22145, Pitch_bend_c, 2, 9419
4, 22146, Pitch_bend_c, 2, 9392
4, 22147, Pitch_bend_c, 2, 9335
4, 22148, Pitch_bend_c, 2, 9249
4, 22149, Pitch_bend_c, 2, 9136
4, 22150, Pitch_bend_c, 2, 8999
4, 22151, Pitch_bend_c, 2, 8842
4, 22152, Pitch_bend_c, 2, 8668
4, 22153, Pitch_bend_c, 2, 8482
4, 22154, Pitch_bend_c, 2, 8289
4, 22155, Pitch_bend_c, 2, 8093
4, 22156, Pitch_bend_c, 2, 7900
4, 22157, Pitch_bend_c, 2, 7715
4, 22158, Pitch_bend_c, 2, 7541
4, 22159, Pitch_bend_c, 2, 7384
4, 22160, Pitch_bend_c, 2, 7247
4, 22161, Pitch_bend_c, 2, 7134
4, 22162, Pitch_bend_c, 2, 7049
4, 22163, Pitch_bend_c, 2, 6992
4, 22164, Pitch_bend_c, 2, 6965
4, 22165, Pitch_bend_c, 2, 6970
4, 22166, Pitch_bend_c, 2, 7005
4, 22167, Pitch_bend_c, 2, 7071
4, 22168, Pitch_bend_c, 2, 7165
4, 22169, Pitch_bend_c, 2, 7285
4, 22170, Pitch_bend_c, 2, 7428
4, 22171, Pitch_bend_c, 2, 7591
4, 22172, Pitch_bend_c, 2, 7768
4, 22173, Pitch_bend_c, 2, 7957
4, 22174, Pitch_bend_c, 2, 8151
4, 22175, Pitch_bend_c, 2, 8347
4, 22176, Note_off_c, 2, 73, 64
4, 22272, Pitch_bend_c, 2, 8192
4, 22272, Note_on_c, 2, 78, 64
4, 22320, Note_off_c, 2, 78, 64
4, 22320, Note_on_c, 2, 78, 64
4, 22368, Note_off_c, 2, 78, 64
4, 22464, Note_on_c, 2, 80, 64
4, 22512, Note_off_c, 2, 80, 64
4, 22512, Note_on_c, 2, 80, 64
4, 22560, Note_off_c, 2, 80, 64
4, 22608, Note_on_c, 2, 81, 64
4, 22680, Pitch_bend_c, 2, 9191
4, 22681, Pitch_bend_c, 2, 9064
4, 22682, Pitch_bend_c, 2, 8916
4, 22683, Pitch_bend_c, 2, 8749
4, 22684, Pitch_bend_c, 2, 8568
4, 22685, Pitch_bend_c, 2, 8378
4, 22686, Pitch_bend_c, 2, 8183
4, 22687, Pitch_bend_c, 2, 7988
4, 22688, Pitch_bend_c, 2, 7798
4, 22689, Pitch_bend_c, 2, 7618
4, 22690, Pitch_bend_c, 2, 7453
4, 22691, Pitch_bend_c, 2, 7307
4, 22692, Pitch_bend_c, 2, 7183
4, 22693, Pitch_bend_c, 2, 7084
4, 22694, Pitch_bend_c, 2, 7014
4, 22695, Pitch_bend_c, 2, 6973
4, 22696, Pitch_bend_c, 2, 6964
4, 22697, Pitch_bend_c, 2, 6985
4, 22698, Pitch_bend_c, 2, 7037
4, 22699, Pitch_bend_c, 2, 7119
4, 22700, Pitch_bend_c, 2, 7227
4, 22701, Pitch_bend_c, 2, 7360
4, 22702, Pitch_bend_c, 2, 7515
4, 22703, Pitch_bend_c, 2, 7686
4, 22704, Note_off_c, 2, 81, 64
4, 22704, Pitch_bend_c, 2, 8192
4, 22704, Note_on_c, 2, 76, 64
4, 22776, Pitch_bend_c, 2, 6991
4, 22777, Pitch_bend_c, 2, 7048
4, 22778, Pitch_bend_c, 2, 7134
4, 22779, Pitch_bend_c, 2, 7246
4, 22780, Pitch_bend_c, 2, 7383
4, 22781, Pitch_bend_c, 2, 7540
4, 22782, Pitch_bend_c, 2, 7713
4, 22783, Pitch_bend_c, 2, 7899
4, 22784, Pitch_bend_c, 2, 8092
4, 22785, Pitch_bend_c, 2, 8287
4, 22786, Pitch_bend_c, 2, 8481
4, 22787, Pitch_bend_c, 2, 8667
4, 22788, Pitch_bend_c, 2, 8840
4, 22789, Pitch_bend_c, 2, 8998
4, 22790, Pitch_bend_c, 2, 9135
4, 22791, Pitch_bend_c, 2, 9248
4, 22792, Pitch_bend_c, 2, 9334
4, 22793, Pitch_bend_c, 2, 9392
4, 22794, Pitch_bend_c, 2, 9419
4, 22795, Pitch_bend_c, 2, 9415
4, 22796, Pitch_bend_c, 2, 9379
4, 22797, Pitch_bend_c, 2, 9314
4, 22798, Pitch_bend_c, 2, 9221
4, 22799, Pitch_bend_c, 2, 9101
4, 22800, Note_off_c, 2, 76, 64
4, 22800, Pitch_bend_c, 2, 8192
4, 22800, Note_on_c, 2, 76, 64
4, 22872, Pitch_bend_c, 2, 9398
4, 22873, Pitch_bend_c, 2, 9420
4, 22874, Pitch_bend_c, 2, 9411
4, 22875, Pitch_bend_c, 2, 9371
4, 22876, Pitch_bend_c, 2, 9302
4, 22877, Pitch_bend_c, 2, 9204
4, 22878, Pitch_bend_c, 2, 9081
4, 22879, Pitch_bend_c, 2, 8935
4, 22880, Pitch_bend_c, 2, 8770
4, 22881, Pitch_bend_c, 2, 8590
4, 22882, Pitch_bend_c, 2, 8401
4, 22883, Pitch_bend_c, 2, 8206
4, 22884, Pitch_bend_c, 2, 8011
4, 22885, Pitch_bend_c, 2, 7820
4, 22886, Pitch_bend_c, 2, 7639
4, 22887, Pitch_bend_c, 2, 7472
4, 22888, Pitch_bend_c, 2, 7323
4, 22889, Pitch_bend_c, 2, 7196
4, 22890, Pitch_bend_c, 2, 7095
4, 22891, Pitch_bend_c, 2, 7021
4, 22892, Pitch_bend_c, 2, 6977
4, 22893, Pitch_bend_c, 2, 6963
4, 22894, Pitch_bend_c, 2, 6981
4, 22895, Pitch_bend_c, 2, 7030
4, 22896, Note_off_c, 2, 76, 64
4, 22896, Pitch_bend_c, 2, 8192
4, 22896, Note_on_c, 2, 76, 64
4, 22944, Note_off_c, 2, 76, 64
4, 22944, Note_on_c, 2, 81, 64
4, 22992, Note_off_c, 2, 81, 64
4, 22992, Note_on_c, 2, 83, 64
4, 23040, Note_off_c, 2, 83, 64
4, 23040, Note_on_c, 2, 83, 64
4, 23112, Pitch_bend_c, 2, 7102
4, 23113, Pitch_bend_c, 2, 7205
4, 23114, Pitch_bend_c, 2, 7334
4, 23115, Pitch_bend_c, 2, 7485
4, 23116, Pitch_bend_c, 2, 7653
4, 23117, Pitch_bend_c, 2, 7835
4, 23118, Pitch_bend_c, 2, 8026
4, 23119, Pitch_bend_c, 2, 8222
4, 23120, Pitch_bend_c, 2, 8416
4, 23121, Pitch_bend_c, 2, 8605
4, 23122, Pitch_bend_c, 2, 8784
4, 23123, Pitch_bend_c, 2, 8947
4, 23124, Pitch_bend_c, 2, 9091
4, 23125, Pitch_bend_c, 2, 9213
4, 23126, Pitch_bend_c, 2, 9308
4, 23127, Pitch_bend_c, 2, 9376
4, 23128, Pitch_bend_c, 2, 9413
4, 23129, Pitch_bend_c, 2, 9419
4, 23130, Pitch_bend_c, 2, 9395
4, 23131, Pitch_bend_c, 2, 9339
4, 23132, Pitch_bend_c, 2, 9255
4, 23133, Pitch_bend_c, 2, 9144
4, 23134, Pitch_bend_c, 2, 9008
4, 23135, Pitch_bend_c, 2, 8852
4, 23136, Pitch_bend_c, 2, 8680
4, 23137, Pitch_bend_c, 2, 8494
4, 23138, Pitch_bend_c, 2, 8302
4, 23139, Pitch_bend_c, 2, 8106
4, 23140, Pitch_bend_c, 2, 7912
4, 23141, Pitch_bend_c, 2, 7726
4, 23142, Pitch_bend_c, 2, 7552
4, 23143, Pitch_bend_c, 2, 7393
4, 23144, Pitch_bend_c, 2, 7255
4, 23145, Pitch_bend_c, 2, 7141
4, 23146, Pitch_bend_c, 2, 7053
4, 23147, Pitch_bend_c, 2, 6994
4, 23148, Pitch_bend_c, 2, 6966
4, 23149, Pitch_bend_c, 2, 6969
4, 23150, Pitch_bend_c, 2, 7002
4, 23151, Pitch_bend_c, 2, 7066
4, 23152, Pitch_bend_c, 2, 7158
4, 23153, Pitch_bend_c, 2, 7277
4, 23154, Pitch_bend_c, 2, 7419
4, 23155, Pitch_bend_c, 2, 7580
4, 23156, Pitch_bend_c, 2, 7757
4, 23157, Pitch_bend_c, 2, 7945
4, 23158, Pitch_bend_c, 2, 8139
4, 23159, Pitch_bend_c, 2, 8334
4, 23160, Pitch_bend_c, 2, 8526
4, 23161, Pitch_bend_c, 2, 8710
4, 23162, Pitch_bend_c, 2, 8880
4, 23163, Pitch_bend_c, 2, 9033
4, 23164, Pitch_bend_c, 2, 9164
4, 23165, Pitch_bend_c, 2, 9271
4, 23166, Pitch_bend_c, 2, 9351
4, 23167, Pitch_bend_c, 2, 9401
4, 23168, Pitch_bend_c, 2, 9421
4, 23169, Pitch_bend_c, 2, 9409
4, 23170, Pitch_bend_c, 2, 9367
4, 23171, Pitch_bend_c, 2, 9294
4, 23172, Pitch_bend_c, 2, 9194
4, 23173, Pitch_bend_c, 2, 9069
4, 23174, Pitch_bend_c, 2, 8921
4, 23175, Pitch_bend_c, 2, 8755
4, 23176, Pitch_bend_c, 2, 8574
4, 23177, Pitch_bend_c, 2, 8384
4, 23178, Pitch_bend_c, 2, 8189
4, 23179, Pitch_bend_c, 2, 7994
4, 23180, Pitch_bend_c, 2, 7804
4, 23181, Pitch_bend_c, 2, 7624
4, 23182, Pitch_bend_c, 2, 7458
4, 23183, Pitch_bend_c, 2, 7311
4, 23184, Pitch_bend_c, 2, 7186
4, 23185, Pitch_bend_c, 2, 7087
4, 23186, Pitch_bend_c, 2, 7016
4, 23187, Pitch_bend_c, 2, 6974
4, 23188, Pitch_bend_c, 2, 6964
4, 23189, Pitch_bend_c, 2, 6984
4, 23190, Pitch_bend_c, 2, 7035
4, 23191, Pitch_bend_c, 2, 7116
4, 23192, Pitch_bend_c, 2, 7224
4, 23193, Pitch_bend_c, 2, 7356
4, 23194, Pitch_bend_c, 2, 7509
4, 23195, Pitch_bend_c, 2, 7680
4, 23196, Pitch_bend_c, 2, 7864
4, 23197, Pitch_bend_c, 2, 8056
4, 23198, Pitch_bend_c, 2, 8252
4, 23199, Pitch_bend_c, 2, 8446
4, 23200, Pitch_bend_c, 2, 8633
4, 23201, Pitch_bend_c, 2, 8810
4, 23202, Pitch_bend_c, 2, 8970
4, 23203, Pitch_bend_c, 2, 9111
4, 23204, Pitch_bend_c, 2, 9229
4, 23205, Pitch_bend_c, 2, 9321
4, 23206, Pitch_bend_c, 2, 9383
4, 23207, Pitch_bend_c, 2, 9416
4, 23208, Pitch_bend_c, 2, 9418
4, 23209, Pitch_bend_c, 2, 9388
4, 23210, Pitch_bend_c, 2, 9328
4, 23211, Pitch_bend_c, 2, 9240
4, 23212, Pitch_bend_c, 2, 9125
4, 23213, Pitch_bend_c, 2, 8986
4, 23214, Pitch_bend_c, 2, 8827
4, 23215, Pitch_bend_c, 2, 8652
4, 23216, Pitch_bend_c, 2, 8465
4, 23217, Pitch_bend_c, 2, 8272
4, 23218, Pitch_bend_c, 2, 8076
4, 23219, Pitch_bend_c, 2, 7884
4, 23220, Pitch_bend_c, 2, 7699
4, 23221, Pitch_bend_c, 2, 7526
4, 23222, Pitch_bend_c, 2, 7371
4, 23223, Pitch_bend_c, 2, 7236
4, 23224, Pitch_bend_c, 2, 7126
4, 23225, Pitch_bend_c, 2, 7042
4, 23226, Pitch_bend_c, 2, 6988
4, 23227, Pitch_bend_c, 2, 6964
4, 23228, Pitch_bend_c, 2, 6972
4, 23229, Pitch_bend_c, 2, 7010
4, 23230, Pitch_bend_c, 2, 7078
4, 23231, Pitch_bend_c, 2, 7175
4, 23232, Pitch_bend_c, 2, 7297
4, 23233, Pitch_bend_c, 2, 7442
4, 23234, Pitch_bend_c, 2, 7606
4, 23235, Pitch_bend_c, 2, 7785
4, 23236, Pitch_bend_c, 2, 7974
4, 23237, Pitch_bend_c, 2, 8169
4, 23238, Pitch_bend_c, 2, 8364
4, 23239, Pitch_bend_c, 2, 8555
4, 23240, Pitch_bend_c, 2, 8736
4, 23241, Pitch_bend_c, 2, 8904
4, 23242, Pitch_bend_c, 2, 9054
4, 23243, Pitch_bend_c, 2, 9182
4, 23244, Pitch_bend_c, 2, 9285
4, 23245, Pitch_bend_c, 2, 9360
4, 23246, Pitch_bend_c, 2, 9406
4, 23247, Pitch_bend_c, 2, 9421
4, 23248, Pitch_bend_c, 2, 9404
4, 23249, Pitch_bend_c, 2, 9357
4, 23250, Pitch_bend_c, 2, 9281
4, 23251, Pitch_bend_c, 2, 9177
4, 23252, Pitch_bend_c, 2, 9047
4, 23253, Pitch_bend_c, 2, 8897
4, 23254, Pitch_bend_c, 2, 8728
4, 23255, Pitch_bend_c, 2, 8546
4, 23256, Pitch_bend_c, 2, 8354
4, 23257, Pitch_bend_c, 2, 8159
4, 23258, Pitch_bend_c, 2, 7965
4, 23259, Pitch_bend_c, 2, 7776
4, 23260, Pitch_bend_c, 2, 7598
4, 23261, Pitch_bend_c, 2, 7434
4, 23262, Pitch_bend_c, 2, 7291
4, 23263, Pitch_bend_c, 2, 7169
4, 23264, Pitch_bend_c, 2, 7074
4, 23265, Pitch_bend_c, 2, 7007
4, 23266, Pitch_bend_c, 2, 6971
4, 23267, Pitch_bend_c, 2, 6965
4, 23268, Pitch_bend_c, 2, 6990
4, 23269, Pitch_bend_c, 2, 7046
4, 23270, Pitch_bend_c, 2, 7130
4, 23271, Pitch_bend_c, 2, 7242
4, 23272, Pitch_bend_c, 2, 7378
4, 23273, Pitch_bend_c, 2, 7534
4, 23274, Pitch_bend_c, 2, 7707
4, 23275, Pitch_bend_c, 2, 7893
4, 23276, Pitch_bend_c, 2, 8086
4, 23277, Pitch_bend_c, 2, 8281
4, 23278, Pitch_bend_c, 2, 8475
4, 23279, Pitch_bend_c, 2, 8661
4, 23280, Pitch_bend_c, 2, 8835
4, 23281, Pitch_bend_c, 2, 8993
4, 23282, Pitch_bend_c, 2, 9131
4, 23283, Pitch_bend_c, 2, 9245
4, 23284, Pitch_bend_c, 2, 9332
4, 23285, Pitch_bend_c, 2, 9390
4, 23286, Pitch_bend_c, 2, 9418
4, 23287, Pitch_bend_c, 2, 9415
4, 23288, Pitch_bend_c, 2, 9381
4, 23289, Pitch_bend_c, 2, 9317
4, 23290, Pitch_bend_c, 2, 9224
4, 23291, Pitch_bend_c, 2, 9105
4, 23292, Pitch_bend_c, 2, 8963
4, 23293, Pitch_bend_c, 2, 8801
4, 23294, Pitch_bend_c, 2, 8624
4, 23295, Pitch_bend_c, 2, 8436
4, 23296, Pitch_bend_c, 2, 8242
4, 23297, Pitch_bend_c, 2, 8047
4, 23298, Pitch_bend_c, 2, 7855
4, 23299, Pitch_bend_c, 2, 7672
4, 23300, Pitch_bend_c, 2, 7502
4, 23301, Pitch_bend_c, 2, 7349
4, 23302, Pitch_bend_c, 2, 7218
4, 23303, Pitch_bend_c, 2, 7111
4, 23304, Note_off_c, 2, 83, 64
4, 23328, Pitch_bend_c, 2, 8192
4, 23328, Note_on_c, 2, 81, 64
4, 23376, Note_off_c, 2, 81, 64
4, 23376, Note_on_c, 2, 83, 64
4, 23377, Pitch_bend_c, 2, 8533
4, 23378, Pitch_bend_c, 2, 8875
4, 23379, Pitch_bend_c, 2, 9216
4, 23380, Pitch_bend_c, 2, 9557
4, 23381, Pitch_bend_c, 2, 9899
4, 23382, Pitch_bend_c, 2, 6144
4, 23382, Note_on_c, 2, 84, 64
4, 23382, Note_off_c, 2, 83, 64
4, 23383, Pitch_bend_c, 2, 6485
4, 23384, Pitch_bend_c, 2, 6827
4, 23385, Pitch_bend_c, 2, 7168
4, 23386, Pitch_bend_c, 2, 7509
4, 23387, Pitch_bend_c, 2, 7851
4, 23388, Pitch_bend_c, 2, 8192
4, 23389, Pitch_bend_c, 2, 8533
4, 23390, Pitch_bend_c, 2, 8875
4, 23391, Pitch_bend_c, 2, 9216
4, 23392, Pitch_bend_c, 2, 9557
4, 23393, Pitch_bend_c, 2, 9899
4, 23394, Pitch_bend_c, 2, 6144
4, 23394, Note_on_c, 2, 85, 64
4, 23394, Note_off_c, 2, 84, 64
4, 23395, Pitch_bend_c, 2, 6485
4, 23396, Pitch_bend_c, 2, 6827
4, 23397, Pitch_bend_c, 2, 7168
4, 23398, Pitch_bend_c, 2, 7509
4, 23399, Pitch_bend_c, 2, 7851
4, 23400, Pitch_bend_c, 2, 8192
4, 23448, Pitch_bend_c, 2, 9191
4, 23449, Pitch_bend_c, 2, 9064
4, 23450, Pitch_bend_c, 2, 8916
4, 23451, Pitch_bend_c, 2, 8749
4, 23452, Pitch_bend_c, 2, 8568
4, 23453, Pitch_bend_c, 2, 8378
4, 23454, Pitch_bend_c, 2, 8183
4, 23455, Pitch_bend_c, 2, 7988
4, 23456, Pitch_bend_c, 2, 7798
4, 23457, Pitch_bend_c, 2, 7618
4, 23458, Pitch_bend_c, 2, 7453
4, 23459, Pitch_bend_c, 2, 7307
4, 23460, Pitch_bend_c, 2, 7183
4, 23461, Pitch_bend_c, 2, 7084
4, 23462, Pitch_bend_c, 2, 7014
4, 23463, Pitch_bend_c, 2, 6973
4, 23464, Pitch_bend_c, 2, 6964
4, 23465, Pitch_bend_c, 2, 6985
4, 23466, Pitch_bend_c, 2, 7037
4, 23467, Pitch_bend_c, 2, 7119
4, 23468, Pitch_bend_c, 2, 7227
4, 23469, Pitch_bend_c, 2, 7360
4, 23470, Pitch_bend_c, 2, 7515
4, 23471, Pitch_bend_c, 2, 7686
4, 23472, Pitch_bend_c, 2, 7870
4, 23473, Pitch_bend_c, 2, 8062
4, 23474, Pitch_bend_c, 2, 8258
4, 23475, Pitch_bend_c, 2, 8452
4, 23476, Pitch_bend_c, 2, 8639
4, 23477, Pitch_bend_c, 2, 8815
4, 23478, Pitch_bend_c, 2, 8975
4, 23479, Pitch_bend_c, 2, 9116
4, 23480, Pitch_bend_c, 2, 9232
4, 23481, Pitch_bend_c, 2, 9323
4, 23482, Pitch_bend_c, 2, 9385
4, 23483, Pitch_bend_c, 2, 9417
4, 23485, Pitch_bend_c, 2, 9387
4, 23486, Pitch_bend_c, 2, 9326
4, 23487, Pitch_bend_c, 2, 9237
4, 23488, Pitch_bend_c, 2, 9121
4, 23489, Pitch_bend_c, 2, 8981
4, 23490, Pitch_bend_c, 2, 8822
4, 23491, Pitch_bend_c, 2, 8646
4, 23492, Pitch_bend_c, 2, 8459
4, 23493, Pitch_bend_c, 2, 8266
4, 23494, Pitch_bend_c, 2, 8070
4, 23495, Pitch_bend_c, 2, 7877
4, 23496, Pitch_bend_c, 2, 7693
4, 23497, Pitch_bend_c, 2, 7521
4, 23498, Pitch_bend_c, 2, 7366
4, 23499, Pitch_bend_c, 2, 7232
4, 23500, Pitch_bend_c, 2, 7123
4, 23501, Pitch_bend_c, 2, 7040
4, 23502, Pitch_bend_c, 2, 6987
4, 23503, Pitch_bend_c, 2, 6964
4, 23504, Pitch_bend_c, 2, 6972
4, 23505, Pitch_bend_c, 2, 7012
4, 23506, Pitch_bend_c, 2, 7081
4, 23507, Pitch_bend_c, 2, 7178
4, 23508, Pitch_bend_c, 2, 7301
4, 23509, Pitch_bend_c, 2, 7447
4, 23510, Pitch_bend_c, 2, 7611
4, 23511, Pitch_bend_c, 2, 7791
4, 23512, Pitch_bend_c, 2, 7980
4, 23513, Pitch_bend_c, 2, 8175
4, 23514, Pitch_bend_c, 2, 8370
4, 23515, Pitch_bend_c, 2, 8561
4, 23516, Pitch_bend_c, 2, 8742
4, 23517, Pitch_bend_c, 2, 8909
4, 23518, Pitch_bend_c, 2, 9059
4, 23519, Pitch_bend_c, 2, 9186
4, 23520, Pitch_bend_c, 2, 9288
4, 23521, Pitch_bend_c, 2, 9362
4, 23522, Pitch_bend_c, 2, 9407
4, 23523, Pitch_bend_c, 2, 9421
4, 23524, Pitch_bend_c, 2, 9403
4, 23525, Pitch_bend_c, 2, 9355
4, 23526, Pitch_bend_c, 2, 9278
4, 23527, Pitch_bend_c, 2, 9173
4, 23528, Pitch_bend_c, 2, 9043
4, 23529, Pitch_bend_c, 2, 8892
4, 23530, Pitch_bend_c, 2, 8722
4, 23531, Pitch_bend_c, 2, 8540
4, 23532, Pitch_bend_c, 2, 8348
4, 23533, Pitch_bend_c, 2, 8153
4, 23534, Pitch_bend_c, 2, 7958
4, 23535, Pitch_bend_c, 2, 7770
4, 23536, Pitch_bend_c, 2, 7592
4, 23537, Pitch_bend_c, 2, 7430
4, 23538, Pitch_bend_c, 2, 7286
4, 23539, Pitch_bend_c, 2, 7166
4, 23540, Pitch_bend_c, 2, 7072
4, 23541, Pitch_bend_c, 2, 7006
4, 23542, Pitch_bend_c, 2, 6970
4, 23543, Pitch_bend_c, 2, 6965
4, 23544, Pitch_bend_c, 2, 6991
4, 23545, Pitch_bend_c, 2, 7048
4, 23546, Pitch_bend_c, 2, 7134
4, 23547, Pitch_bend_c, 2, 7246
4, 23548, Pitch_bend_c, 2, 7383
4, 23549, Pitch_bend_c, 2, 7540
4, 23550, Pitch_bend_c, 2, 7713
4, 23551, Pitch_bend_c, 2, 7899
4, 23552, Pitch_bend_c, 2, 8092
4, 23553, Pitch_bend_c, 2, 8287
4, 23554, Pitch_bend_c, 2, 8481
4, 23555, Pitch_bend_c, 2, 8667
4, 23556, Pitch_bend_c, 2, 8840
4, 23557, Pitch_bend_c, 2, 8998
4, 23558, Pitch_bend_c, 2, 9135
4, 23559, Pitch_bend_c, 2, 9248
4, 23560, Pitch_bend_c, 2, 9334
4, 23561, Pitch_bend_c, 2, 9392
4, 23562, Pitch_bend_c, 2, 9419
4, 23563, Pitch_bend_c, 2, 9415
4, 23564, Pitch_bend_c, 2, 9379
4, 23565, Pitch_bend_c, 2, 9314
4, 23566, Pitch_bend_c, 2, 9221
4, 23567, Pitch_bend_c, 2, 9101
4, 23568, Pitch_bend_c, 2, 8958
4, 23569, Pitch_bend_c, 2, 8796
4, 23570, Pitch_bend_c, 2, 8618
4, 23571, Pitch_bend_c, 2, 8430
4, 23572, Pitch_bend_c, 2, 8236
4, 23573, Pitch_bend_c, 2, 8040
4, 23574, Pitch_bend_c, 2, 7849
4, 23575, Pitch_bend_c, 2, 7666
4, 23576, Pitch_bend_c, 2, 7496
4, 23577, Pitch_bend_c, 2, 7344
4, 23578, Pitch_bend_c, 2, 7214
4, 23579, Pitch_bend_c, 2, 7108
4, 23580, Pitch_bend_c, 2, 7030
4, 23581, Pitch_bend_c, 2, 6981
4, 23582, Pitch_bend_c, 2, 6963
4, 23583, Pitch_bend_c, 2, 6976
4, 23584, Pitch_bend_c, 2, 7020
4, 23585, Pitch_bend_c, 2, 7094
4, 23586, Pitch_bend_c, 2, 7195
4, 23587, Pitch_bend_c, 2, 7322
4, 23588, Pitch_bend_c, 2, 7471
4, 23589, Pitch_bend_c, 2, 7638
4, 23590, Pitch_bend_c, 2, 7819
4, 23591, Pitch_bend_c, 2, 8009
4, 23592, Pitch_bend_c, 2, 8205
4, 23593, Pitch_bend_c, 2, 8399
4, 23594, Pitch_bend_c, 2, 8589
4, 23595, Pitch_bend_c, 2, 8768
4, 23596, Pitch_bend_c, 2, 8933
4, 23597, Pitch_bend_c, 2, 9080
4, 23598, Pitch_bend_c, 2, 9203
4, 23599, Pitch_bend_c, 2, 9301
4, 23600, Pitch_bend_c, 2, 9371
4, 23601, Pitch_bend_c, 2, 9411
4, 23602, Pitch_bend_c, 2, 9420
4, 23603, Pitch_bend_c, 2, 9398
4, 23604, Pitch_bend_c, 2, 9345
4, 23605, Pitch_bend_c, 2, 9264
4, 23606, Pitch_bend_c, 2, 9155
4, 23607, Pitch_bend_c, 2, 9021
4, 23608, Pitch_bend_c, 2, 8867
4, 23609, Pitch_bend_c, 2, 8695
4, 23610, Pitch_bend_c, 2, 8511
4, 23611, Pitch_bend_c, 2, 8319
4, 23612, Pitch_bend_c, 2, 8123
4, 23613, Pitch_bend_c, 2, 7929
4, 23614, Pitch_bend_c, 2, 7742
4, 23615, Pitch_bend_c, 2, 7566
4, 23616, Pitch_bend_c, 2, 7406
4, 23617, Pitch_bend_c, 2, 7266
4, 23618, Pitch_bend_c, 2, 7150
4, 23619, Pitch_bend_c, 2, 7060
4, 23620, Pitch_bend_c, 2, 6998
4, 23621, Pitch_bend_c, 2, 6967
4, 23623, Pitch_bend_c, 2, 6998
4, 23624, Pitch_bend_c, 2, 7059
4, 23625, Pitch_bend_c, 2, 7149
4, 23626, Pitch_bend_c, 2, 7265
4, 23627, Pitch_bend_c, 2, 7405
4, 23628, Pitch_bend_c, 2, 7565
4, 23629, Pitch_bend_c, 2, 7741
4, 23630, Pitch_bend_c, 2, 7928
4, 23631, Pitch_bend_c, 2, 8122
4, 23632, Pitch_bend_c, 2, 8317
4, 23633, Pitch_bend_c, 2, 8510
4, 23634, Pitch_bend_c, 2, 8694
4, 23635, Pitch_bend_c, 2, 8866
4, 23636, Pitch_bend_c, 2, 9020
4, 23637, Pitch_bend_c, 2, 9154
4, 23638, Pitch_bend_c, 2, 9263
4, 23639, Pitch_bend_c, 2, 9345
4, 23640, Pitch_bend_c, 2, 9398
4, 23641, Pitch_bend_c, 2, 9420
4, 23642, Pitch_bend_c, 2, 9411
4, 23643, Pitch_bend_c, 2, 9371
4, 23644, Pitch_bend_c, 2, 9302
4, 23645, Pitch_bend_c, 2, 9204
4, 23646, Pitch_bend_c, 2, 9081
4, 23647, Pitch_bend_c, 2, 8935
4, 23648, Pitch_bend_c, 2, 8770
4, 23649, Pitch_bend_c, 2, 8590
4, 23650, Pitch_bend_c, 2, 8401
4, 23651, Pitch_bend_c, 2, 8206
4, 23652, Pitch_bend_c, 2, 8011
4, 23653, Pitch_bend_c, 2, 7820
4, 23654, Pitch_bend_c, 2, 7639
4, 23655, Pitch_bend_c, 2, 7472
4, 23656, Pitch_bend_c, 2, 7323
4, 23657, Pitch_bend_c, 2, 7196
4, 23658, Pitch_bend_c, 2, 7095
4, 23659, Pitch_bend_c, 2, 7021
4, 23660, Pitch_bend_c, 2, 6977
4, 23661, Pitch_bend_c, 2, 6963
4, 23662, Pitch_bend_c, 2, 6981
4, 23663, Pitch_bend_c, 2, 7030
4, 23664, Note_off_c, 2, 85, 64
4, 23664, Pitch_bend_c, 2, 8192
4, 23664, Note_on_c, 2, 85, 64
4, 23712, Note_off_c, 2, 85, 64
4, 23712, Note_on_c, 2, 85, 64
4, 23760, Note_off_c, 2, 85, 64
4, 23760, Note_on_c, 2, 85, 64
4, 23808, Note_off_c, 2, 85, 64
4, 23808, Note_on_c, 2, 85, 64
4, 23880, Pitch_bend_c, 2, 7102
4, 23881, Pitch_bend_c, 2, 7205
4, 23882, Pitch_bend_c, 2, 7334
4, 23883, Pitch_bend_c, 2, 7485
4, 23884, Pitch_bend_c, 2, 7653
4, 23885, Pitch_bend_c, 2, 7835
4, 23886, Pitch_bend_c, 2, 8026
4, 23887, Pitch_bend_c, 2, 8222
4, 23888, Pitch_bend_c, 2, 8416
4, 23889, Pitch_bend_c, 2, 8605
4, 23890, Pitch_bend_c, 2, 8784
4, 23891, Pitch_bend_c, 2, 8947
4, 23892, Pitch_bend_c, 2, 9091
4, 23893, Pitch_bend_c, 2, 9213
4, 23894, Pitch_bend_c, 2, 9308
4, 23895, Pitch_bend_c, 2, 9376
4, 23896, Pitch_bend_c, 2, 9413
4, 23897, Pitch_bend_c, 2, 9419
4, 23898, Pitch_bend_c, 2, 9395
4, 23899, Pitch_bend_c, 2, 9339
4, 23900, Pitch_bend_c, 2, 9255
4, 23901, Pitch_bend_c, 2, 9144
4, 23902, Pitch_bend_c, 2, 9008
4, 23903, Pitch_bend_c, 2, 8852
4, 23904, Pitch_bend_c, 2, 8680
4, 23905, Pitch_bend_c, 2, 8494
4, 23906, Pitch_bend_c, 2, 8302
4, 23907, Pitch_bend_c, 2, 8106
4, 23908, Pitch_bend_c, 2, 7912
4, 23909, Pitch_bend_c, 2, 7726
4, 23910, Pitch_bend_c, 2, 7552
4, 23911, Pitch_bend_c, 2, 7393
4, 23912, Pitch_bend_c, 2, 7255
4, 23913, Pitch_bend_c, 2, 7141
4, 23914, Pitch_bend_c, 2, 7053
4, 23915, Pitch_bend_c, 2, 6994
4, 23916, Pitch_bend_c, 2, 6966
4, 23917, Pitch_bend_c, 2, 6969
4, 23918, Pitch_bend_c, 2, 7002
4, 23919, Pitch_bend_c, 2, 7066
4, 23920, Pitch_bend_c, 2, 7158
4, 23921, Pitch_bend_c, 2, 7277
4, 23922, Pitch_bend_c, 2, 7419
4, 23923, Pitch_bend_c, 2, 7580
4, 23924, Pitch_bend_c, 2, 7757
4, 23925, Pitch_bend_c, 2, 7945
4, 23926, Pitch_bend_c, 2, 8139
4, 23927, Pitch_bend_c, 2, 8334
4, 23928, Pitch_bend_c, 2, 8526
4, 23929, Pitch_bend_c, 2, 8710
4, 23930, Pitch_bend_c, 2, 8880
4, 23931, Pitch_bend_c, 2, 9033
4, 23932, Pitch_bend_c, 2, 9164
4, 23933, Pitch_bend_c, 2, 9271
4, 23934, Pitch_bend_c, 2, 9351
4, 23935, Pitch_bend_c, 2, 9401
4, 23936, Pitch_bend_c, 2, 9421
4, 23937, Pitch_bend_c, 2, 9409
4, 23938, Pitch_bend_c, 2, 9367
4, 23939, Pitch_bend_c, 2, 9294
4, 23940, Pitch_bend_c, 2, 9194
4, 23941, Pitch_bend_c, 2, 9069
4, 23942, Pitch_bend_c, 2, 8921
4, 23943, Pitch_bend_c, 2, 8755
4, 23944, Pitch_bend_c, 2, 8574
4, 23945, Pitch_bend_c, 2, 8384
4, 23946, Pitch_bend_c, 2, 8189
4, 23947, Pitch_bend_c, 2, 7994
4, 23948, Pitch_bend_c, 2, 7804
4, 23949, Pitch_bend_c, 2, 7624
4, 23950, Pitch_bend_c, 2, 7458
4, 23951, Pitch_bend_c, 2, 7311
4, 23952, Pitch_bend_c, 2, 7186
4, 23953, Pitch_bend_c, 2, 7087
4, 23954, Pitch_bend_c, 2, 7016
4, 23955, Pitch_bend_c, 2, 6974
4, 23956, Pitch_bend_c, 2, 6964
4, 23957, Pitch_bend_c, 2, 6984
4, 23958, Pitch_bend_c, 2, 7035
4, 23959, Pitch_bend_c, 2, 7116
4, 23960, Pitch_bend_c, 2, 7224
4, 23961, Pitch_bend_c, 2, 7356
4, 23962, Pitch_bend_c, 2, 7509
4, 23963, Pitch_bend_c, 2, 7680
4, 23964, Pitch_bend_c, 2, 7864
4, 23965, Pitch_bend_c, 2, 8056
4, 23966, Pitch_bend_c, 2, 8252
4, 23967, Pitch_bend_c, 2, 8446
4, 23968, Pitch_bend_c, 2, 8633
4, 23969, Pitch_bend_c, 2, 8810
4, 23970, Pitch_bend_c, 2, 8970
4, 23971, Pitch_bend_c, 2, 9111
4, 23972, Pitch_bend_c, 2, 9229
4, 23973, Pitch_bend_c, 2, 9321
4, 23974, Pitch_bend_c, 2, 9383
4, 23975, Pitch_bend_c, 2, 9416
4, 23976, Pitch_bend_c, 2, 9418
4, 23977, Pitch_bend_c, 2, 9388
4, 23978, Pitch_bend_c, 2, 9328
4, 23979, Pitch_bend_c, 2, 9240
4, 23980, Pitch_bend_c, 2, 9125
4, 23981, Pitch_bend_c, 2, 8986
4, 23982, Pitch_bend_c, 2, 8827
4, 23983, Pitch_bend_c, 2, 8652
4, 23984, Pitch_bend_c, 2, 8465
4, 23985, Pitch_bend_c, 2, 8272
4, 23986, Pitch_bend_c, 2, 8076
4, 23987, Pitch_bend_c, 2, 7884
4, 23988, Pitch_bend_c, 2, 7699
4, 23989, Pitch_bend_c, 2, 7526
4, 23990, Pitch_bend_c, 2, 7371
4, 23991, Pitch_bend_c, 2, 7236
4, 23992, Pitch_bend_c, 2, 7126
4, 23993, Pitch_bend_c, 2, 7042
4, 23994, Pitch_bend_c, 2, 6988
4, 23995, Pitch_bend_c, 2, 6964
4, 23996, Pitch_bend_c, 2, 6972
4, 23997, Pitch_bend_c, 2, 7010
4, 23998, Pitch_bend_c, 2, 7078
4, 23999, Pitch_bend_c, 2, 7175
4, 24000, Pitch_bend_c, 2, 7297
4, 24001, Pitch_bend_c, 2, 7442
4, 24002, Pitch_bend_c, 2, 7606
4, 24003, Pitch_bend_c, 2, 7785
4, 24004, Pitch_bend_c, 2, 7974
4, 24005, Pitch_bend_c, 2, 8169
4, 24006, Pitch_bend_c, 2, 8364
4, 24007, Pitch_bend_c, 2, 8555
4, 24008, Pitch_bend_c, 2, 8736
4, 24009, Pitch_bend_c, 2, 8904
4, 24010, Pitch_bend_c, 2, 9054
4, 24011, Pitch_bend_c, 2, 9182
4, 24012, Pitch_bend_c, 2, 9285
4, 24013, Pitch_bend_c, 2, 9360
4, 24014, Pitch_bend_c, 2, 9406
4, 24015, Pitch_bend_c, 2, 9421
4, 24016, Pitch_bend_c, 2, 9404
4, 24017, Pitch_bend_c, 2, 9357
4, 24018, Pitch_bend_c, 2, 9281
4, 24019, Pitch_bend_c, 2, 9177
4, 24020, Pitch_bend_c, 2, 9047
4, 24021, Pitch_bend_c, 2, 8897
4, 24022, Pitch_bend_c, 2, 8728
4, 24023, Pitch_bend_c, 2, 8546
4, 24024, Pitch_bend_c, 2, 8354
4, 24025, Pitch_bend_c, 2, 8159
4, 24026, Pitch_bend_c, 2, 7965
4, 24027, Pitch_bend_c, 2, 7776
4, 24028, Pitch_bend_c, 2, 7598
4, 24029, Pitch_bend_c, 2, 7434
4, 24030, Pitch_bend_c, 2, 7291
4, 24031, Pitch_bend_c, 2, 7169
4, 24032, Pitch_bend_c, 2, 7074
4, 24033, Pitch_bend_c, 2, 7007
4, 24034, Pitch_bend_c, 2, 6971
4, 24035, Pitch_bend_c, 2, 6965
4, 24036, Pitch_bend_c, 2, 6990
4, 24037, Pitch_bend_c, 2, 7046
4, 24038, Pitch_bend_c, 2, 7130
4, 24039, Pitch_bend_c, 2, 7242
4, 24040, Pitch_bend_c, 2, 7378
4, 24041, Pitch_bend_c, 2, 7534
4, 24042, Pitch_bend_c, 2, 7707
4, 24043, Pitch_bend_c, 2, 7893
4, 24044, Pitch_bend_c, 2, 8086
4, 24045, Pitch_bend_c, 2, 8281
4, 24046, Pitch_bend_c, 2, 8475
4, 24047, Pitch_bend_c, 2, 8661
4, 24048, Pitch_bend_c, 2, 8835
4, 24049, Pitch_bend_c, 2, 8993
4, 24050, Pitch_bend_c, 2, 9131
4, 24051, Pitch_bend_c, 2, 9245
4, 24052, Pitch_bend_c, 2, 9332
4, 24053, Pitch_bend_c, 2, 9390
4, 24054, Pitch_bend_c, 2, 9418
4, 24055, Pitch_bend_c, 2, 9415
4, 24056, Pitch_bend_c, 2, 9381
4, 24057, Pitch_bend_c, 2, 9317
4, 24058, Pitch_bend_c, 2, 9224
4, 24059, Pitch_bend_c, 2, 9105
4, 24060, Pitch_bend_c, 2, 8963
4, 24061, Pitch_bend_c, 2, 8801
4, 24062, Pitch_bend_c, 2, 8624
4, 24063, Pitch_bend_c, 2, 8436
4, 24064, Pitch_bend_c, 2, 8242
4, 24065, Pitch_bend_c, 2, 8047
4, 24066, Pitch_bend_c, 2, 7855
4, 24067, Pitch_bend_c, 2, 7672
4, 24068, Pitch_bend_c, 2, 7502
4, 24069, Pitch_bend_c, 2, 7349
4, 24070, Pitch_bend_c, 2, 7218
4, 24071, Pitch_bend_c, 2, 7111
4, 24072, Pitch_bend_c, 2, 7032
4, 24073, Pitch_bend_c, 2, 6982
4, 24074, Pitch_bend_c, 2, 6963
4, 24075, Pitch_bend_c, 2, 6975
4, 24076, Pitch_bend_c, 2, 7018
4, 24077, Pitch_bend_c, 2, 7091
4, 24078, Pitch_bend_c, 2, 7192
4, 24079, Pitch_bend_c, 2, 7318
4, 24080, Pitch_bend_c, 2, 7466
4, 24081, Pitch_bend_c, 2, 7632
4, 24082, Pitch_bend_c, 2, 7813
4, 24083, Pitch_bend_c, 2, 8003
4, 24084, Pitch_bend_c, 2, 8198
4, 24085, Pitch_bend_c, 2, 8393
4, 24086, Pitch_bend_c, 2, 8583
4, 24087, Pitch_bend_c, 2, 8763
4, 24088, Pitch_bend_c, 2, 8928
4, 24089, Pitch_bend_c, 2, 9075
4, 24090, Pitch_bend_c, 2, 9200
4, 24091, Pitch_bend_c, 2, 9298
4, 24092, Pitch_bend_c, 2, 9369
4, 24093, Pitch_bend_c, 2, 9410
4, 24094, Pitch_bend_c, 2, 9420
4, 24095, Pitch_bend_c, 2, 9399
4, 24096, Pitch_bend_c, 2, 9348
4, 24097, Pitch_bend_c, 2, 9267
4, 24098, Pitch_bend_c, 2, 9159
4, 24099, Pitch_bend_c, 2, 9026
4, 24100, Pitch_bend_c, 2, 8872
4, 24101, Pitch_bend_c, 2, 8701
4, 24102, Pitch_bend_c, 2, 8517
4, 24103, Pitch_bend_c, 2, 8325
4, 24104, Pitch_bend_c, 2, 8129
4, 24105, Pitch_bend_c, 2, 7935
4, 24106, Pitch_bend_c, 2, 7748
4, 24107, Pitch_bend_c, 2, 7572
4, 24108, Pitch_bend_c, 2, 7411
4, 24109, Pitch_bend_c, 2, 7271
4, 24110, Pitch_bend_c, 2, 7153
4, 24111, Pitch_bend_c, 2, 7062
4, 24112, Pitch_bend_c, 2, 7000
4, 24113, Pitch_bend_c, 2, 6968
4, 24114, Pitch_bend_c, 2, 6967
4, 24115, Pitch_bend_c, 2, 6996
4, 24116, Pitch_bend_c, 2, 7057
4, 24117, Pitch_bend_c, 2, 7146
4, 24118, Pitch_bend_c, 2, 7261
4, 24119, Pitch_bend_c, 2, 7400
4, 24120, Pitch_bend_c, 2, 7560
4, 24121, Pitch_bend_c, 2, 7735
4, 24122, Pitch_bend_c, 2, 7922
4, 24123, Pitch_bend_c, 2, 8115
4, 24124, Pitch_bend_c, 2, 8311
4, 24125, Pitch_bend_c, 2, 8503
4, 24126, Pitch_bend_c, 2, 8688
4, 24127, Pitch_bend_c, 2, 8860
4, 24128, Pitch_bend_c, 2, 9015
4, 24129, Pitch_bend_c, 2, 9150
4, 24130, Pitch_bend_c, 2, 9260
4, 24131, Pitch_bend_c, 2, 9343
4, 24132, Pitch_bend_c, 2, 9397
4, 24133, Pitch_bend_c, 2, 9420
4, 24134, Pitch_bend_c, 2, 9412
4, 24135, Pitch_bend_c, 2, 9373
4, 24136, Pitch_bend_c, 2, 9304
4, 24137, Pitch_bend_c, 2, 9208
4, 24138, Pitch_bend_c, 2, 9085
4, 24139, Pitch_bend_c, 2, 8940
4, 24140, Pitch_bend_c, 2, 8775
4, 24141, Pitch_bend_c, 2, 8596
4, 24142, Pitch_bend_c, 2, 8407
4, 24143, Pitch_bend_c, 2, 8212
4, 24144, Pitch_bend_c, 2, 8017
4, 24145, Pitch_bend_c, 2, 7826
4, 24146, Pitch_bend_c, 2, 7645
4, 24147, Pitch_bend_c, 2, 7477
4, 24148, Pitch_bend_c, 2, 7328
4, 24149, Pitch_bend_c, 2, 7200
4, 24150, Pitch_bend_c, 2, 7097
4, 24151, Pitch_bend_c, 2, 7023
4, 24152, Pitch_bend_c, 2, 6978
4, 24153, Pitch_bend_c, 2, 6963
4, 24154, Pitch_bend_c, 2, 6980
4, 24155, Pitch_bend_c, 2, 7028
4, 24156, Pitch_bend_c, 2, 7105
4, 24157, Pitch_bend_c, 2, 7209
4, 24158, Pitch_bend_c, 2, 7339
4, 24159, Pitch_bend_c, 2, 7490
4, 24160, Pitch_bend_c, 2, 7659
4, 24161, Pitch_bend_c, 2, 7841
4, 24162, Pitch_bend_c, 2, 8033
4, 24163, Pitch_bend_c, 2, 8228
4, 24164, Pitch_bend_c, 2, 8423
4, 24165, Pitch_bend_c, 2, 8611
4, 24166, Pitch_bend_c, 2, 8789
4, 24167, Pitch_bend_c, 2, 8952
4, 24168, Pitch_bend_c, 2, 9096
4, 24169, Pitch_bend_c, 2, 9216
4, 24170, Pitch_bend_c, 2, 9311
4, 24171, Pitch_bend_c, 2, 9377
4, 24172, Pitch_bend_c, 2, 9414
4, 24173, Pitch_bend_c, 2, 9419
4, 24174, Pitch_bend_c, 2, 9393
4, 24175, Pitch_bend_c, 2, 9337
4, 24176, Pitch_bend_c, 2, 9252
4, 24177, Pitch_bend_c, 2, 9140
4, 24178, Pitch_bend_c, 2, 9004
4, 24179, Pitch_bend_c, 2, 8847
4, 24180, Pitch_bend_c, 2, 8674
4, 24181, Pitch_bend_c, 2, 8488
4, 24182, Pitch_bend_c, 2, 8295
4, 24183, Pitch_bend_c, 2, 8100
4, 24184, Pitch_bend_c, 2, 7906
4, 24185, Pitch_bend_c, 2, 7720
4, 24186, Pitch_bend_c, 2, 7546
4, 24187, Pitch_bend_c, 2, 7388
4, 24188, Pitch_bend_c, 2, 7251
4, 24189, Pitch_bend_c, 2, 7138
4, 24190, Pitch_bend_c, 2, 7051
4, 24191, Pitch_bend_c, 2, 6993
4, 24192, Pitch_bend_c, 2, 6966
4, 24193, Pitch_bend_c, 2, 6969
4, 24194, Pitch_bend_c, 2, 7004
4, 24195, Pitch_bend_c, 2, 7068
4, 24196, Pitch_bend_c, 2, 7162
4, 24197, Pitch_bend_c, 2, 7281
4, 24198, Pitch_bend_c, 2, 7423
4, 24199, Pitch_bend_c, 2, 7585
4, 24200, Pitch_bend_c, 2, 7763
4, 24201, Pitch_bend_c, 2, 7951
4, 24202, Pitch_bend_c, 2, 8145
4, 24203, Pitch_bend_c, 2, 8340
4, 24204, Pitch_bend_c, 2, 8532
4, 24205, Pitch_bend_c, 2, 8715
4, 24206, Pitch_bend_c, 2, 8885
4, 24207, Pitch_bend_c, 2, 9037
4, 24208, Pitch_bend_c, 2, 9168
4, 24209, Pitch_bend_c, 2, 9274
4, 24210, Pitch_bend_c, 2, 9353
4, 24211, Pitch_bend_c, 2, 9402
4, 24212, Pitch_bend_c, 2, 9421
4, 24213, Pitch_bend_c, 2, 9408
4, 24214, Pitch_bend_c, 2, 9365
4, 24215, Pitch_bend_c, 2, 9292
4, 24216, Pitch_bend_c, 2, 9191
4, 24217, Pitch_bend_c, 2, 9064
4, 24218, Pitch_bend_c, 2, 8916
4, 24219, Pitch_bend_c, 2, 8749
4, 24220, Pitch_bend_c, 2, 8568
4, 24221, Pitch_bend_c, 2, 8378
4, 24222, Pitch_bend_c, 2, 8183
4, 24223, Pitch_bend_c, 2, 7988
4, 24224, Pitch_bend_c, 2, 7798
4, 24225, Pitch_bend_c, 2, 7618
4, 24226, Pitch_bend_c, 2, 7453
4, 24227, Pitch_bend_c, 2, 7307
4, 24228, Pitch_bend_c, 2, 7183
4, 24229, Pitch_bend_c, 2, 7084
4, 24230, Pitch_bend_c, 2, 7014
4, 24231, Pitch_bend_c, 2, 6973
4, 24232, Pitch_bend_c, 2, 6964
4, 24233, Pitch_bend_c, 2, 6985
4, 24234, Pitch_bend_c, 2, 7037
4, 24235, Pitch_bend_c, 2, 7119
4, 24236, Pitch_bend_c, 2, 7227
4, 24237, Pitch_bend_c, 2, 7360
4, 24238, Pitch_bend_c, 2, 7515
4, 24239, Pitch_bend_c, 2, 7686
4, 24240, Pitch_bend_c, 2, 7870
4, 24241, Pitch_bend_c, 2, 8062
4, 24242, Pitch_bend_c, 2, 8258
4, 24243, Pitch_bend_c, 2, 8452
4, 24244, Pitch_bend_c, 2, 8639
4, 24245, Pitch_bend_c, 2, 8815
4, 24246, Pitch_bend_c, 2, 8975
4, 24247, Pitch_bend_c, 2, 9116
4, 24248, Pitch_bend_c, 2, 9232
4, 24249, Pitch_bend_c, 2, 9323
4, 24250, Pitch_bend_c, 2, 9385
4, 24251, Pitch_bend_c, 2, 9417
4, 24253, Pitch_bend_c, 2, 9387
4, 24254, Pitch_bend_c, 2, 9326
4, 24255, Pitch_bend_c, 2, 9237
4, 24256, Pitch_bend_c, 2, 9121
4, 24257, Pitch_bend_c, 2, 8981
4, 24258, Pitch_bend_c, 2, 8822
4, 24259, Pitch_bend_c, 2, 8646
4, 24260, Pitch_bend_c, 2, 8459
4, 24261, Pitch_bend_c, 2, 8266
4, 24262, Pitch_bend_c, 2, 8070
4, 24263, Pitch_bend_c, 2, 7877
4, 24264, Pitch_bend_c, 2, 7693
4, 24265, Pitch_bend_c, 2, 7521
4, 24266, Pitch_bend_c, 2, 7366
4, 24267, Pitch_bend_c, 2, 7232
4, 24268, Pitch_bend_c, 2, 7123
4, 24269, Pitch_bend_c, 2, 7040
4, 24270, Pitch_bend_c, 2, 6987
4, 24271, Pitch_bend_c, 2, 6964
4, 24272, Pitch_bend_c, 2, 6972
4, 24273, Pitch_bend_c, 2, 7012
4, 24274, Pitch_bend_c, 2, 7081
4, 24275, Pitch_bend_c, 2, 7178
4, 24276, Pitch_bend_c, 2, 7301
4, 24277, Pitch_bend_c, 2, 7447
4, 24278, Pitch_bend_c, 2, 7611
4, 24279, Pitch_bend_c, 2, 7791
4, 24280, Pitch_bend_c, 2, 7980
4, 24281, Pitch_bend_c, 2, 8175
4, 24282, Pitch_bend_c, 2, 8370
4, 24283, Pitch_bend_c, 2, 8561
4, 24284, Pitch_bend_c, 2, 8742
4, 24285, Pitch_bend_c, 2, 8909
4, 24286, Pitch_bend_c, 2, 9059
4, 24287, Pitch_bend_c, 2, 9186
4, 24288, Pitch_bend_c, 2, 9288
4, 24289, Pitch_bend_c, 2, 9362
4, 24290, Pitch_bend_c, 2, 9407
4, 24291, Pitch_bend_c, 2, 9421
4, 24292, Pitch_bend_c, 2, 9403
4, 24293, Pitch_bend_c, 2, 9355
4, 24294, Pitch_bend_c, 2, 9278
4, 24295, Pitch_bend_c, 2, 9173
4, 24296, Pitch_bend_c, 2, 9043
4, 24297, Pitch_bend_c, 2, 8892
4, 24298, Pitch_bend_c, 2, 8722
4, 24299, Pitch_bend_c, 2, 8540
4, 24300, Pitch_bend_c, 2, 8348
4, 24301, Pitch_bend_c, 2, 8153
4, 24302, Pitch_bend_c, 2, 7958
4, 24303, Pitch_bend_c, 2, 7770
4, 24304, Pitch_bend_c, 2, 7592
4, 24305, Pitch_bend_c, 2, 7430
4, 24306, Pitch_bend_c, 2, 7286
4, 24307, Pitch_bend_c, 2, 7166
4, 24308, Pitch_bend_c, 2, 7072
4, 24309, Pitch_bend_c, 2, 7006
4, 24310, Pitch_bend_c, 2, 6970
4, 24311, Pitch_bend_c, 2, 6965
4, 24312, Pitch_bend_c, 2, 6991
4, 24313, Pitch_bend_c, 2, 7048
4, 24314, Pitch_bend_c, 2, 7134
4, 24315, Pitch_bend_c, 2, 7246
4, 24316, Pitch_bend_c, 2, 7383
4, 24317, Pitch_bend_c, 2, 7540
4, 24318, Pitch_bend_c, 2, 7713
4, 24319, Pitch_bend_c, 2, 7899
4, 24320, Pitch_bend_c, 2, 8092
4, 24321, Pitch_bend_c, 2, 8287
4, 24322, Pitch_bend_c, 2, 8481
4, 24323, Pitch_bend_c, 2, 8667
4, 24324, Pitch_bend_c, 2, 8840
4, 24325, Pitch_bend_c, 2, 8998
4, 24326, Pitch_bend_c, 2, 9135
4, 24327, Pitch_bend_c, 2, 9248
4, 24328, Pitch_bend_c, 2, 9334
4, 24329, Pitch_bend_c, 2, 9392
4, 24330, Pitch_bend_c, 2, 9419
4, 24331, Pitch_bend_c, 2, 9415
4, 24332, Pitch_bend_c, 2, 9379
4, 24333, Pitch_bend_c, 2, 9314
4, 24334, Pitch_bend_c, 2, 9221
4, 24335, Pitch_bend_c, 2, 9101
4, 24336, Note_off_c, 2, 85, 64
4, 24384, Pitch_bend_c, 2, 8192
4, 24384, Note_on_c, 2, 62, 64
4, 24456, Pitch_bend_c, 2, 8668
4, 24457, Pitch_bend_c, 2, 8482
4, 24458, Pitch_bend_c, 2, 8289
4, 24459, Pitch_bend_c, 2, 8093
4, 24460, Pitch_bend_c, 2, 7900
4, 24461, Pitch_bend_c, 2, 7715
4, 24462, Pitch_bend_c, 2, 7541
4, 24463, Pitch_bend_c, 2, 7384
4, 24464, Pitch_bend_c, 2, 7247
4, 24465, Pitch_bend_c, 2, 7134
4, 24466, Pitch_bend_c, 2, 7049
4, 24467, Pitch_bend_c, 2, 6992
4, 24468, Pitch_bend_c, 2, 6965
4, 24469, Pitch_bend_c, 2, 6970
4, 24470, Pitch_bend_c, 2, 7005
4, 24471, Pitch_bend_c, 2, 7071
4, 24472, Pitch_bend_c, 2, 7165
4, 24473, Pitch_bend_c, 2, 7285
4, 24474, Pitch_bend_c, 2, 7428
4, 24475, Pitch_bend_c, 2, 7591
4, 24476, Pitch_bend_c, 2, 7768
4, 24477, Pitch_bend_c, 2, 7957
4, 24478, Pitch_bend_c, 2, 8151
4, 24479, Pitch_bend_c, 2, 8347
4, 24480, Note_off_c, 2, 62, 64
4, 24480, Pitch_bend_c, 2, 8192
4, 24480, Note_on_c, 2, 64, 64
4, 24552, Pitch_bend_c, 2, 7306
4, 24553, Pitch_bend_c, 2, 7452
4, 24554, Pitch_bend_c, 2, 7617
4, 24555, Pitch_bend_c, 2, 7797
4, 24556, Pitch_bend_c, 2, 7986
4, 24557, Pitch_bend_c, 2, 8181
4, 24558, Pitch_bend_c, 2, 8376
4, 24559, Pitch_bend_c, 2, 8567
4, 24560, Pitch_bend_c, 2, 8748
4, 24561, Pitch_bend_c, 2, 8915
4, 24562, Pitch_bend_c, 2, 9063
4, 24563, Pitch_bend_c, 2, 9190
4, 24564, Pitch_bend_c, 2, 9291
4, 24565, Pitch_bend_c, 2, 9364
4, 24566, Pitch_bend_c, 2, 9408
4, 24567, Pitch_bend_c, 2, 9421
4, 24568, Pitch_bend_c, 2, 9402
4, 24569, Pitch_bend_c, 2, 9353
4, 24570, Pitch_bend_c, 2, 9275
4, 24571, Pitch_bend_c, 2, 9169
4, 24572, Pitch_bend_c, 2, 9038
4, 24573, Pitch_bend_c, 2, 8886
4, 24574, Pitch_bend_c, 2, 8717
4, 24575, Pitch_bend_c, 2, 8534
4, 24576, Note_off_c, 2, 64, 64
4, 24576, Pitch_bend_c, 2, 8192
4, 24576, Note_on_c, 2, 66, 64
4, 24580, Control_c, 2, 11, 126
4, 24586, Control_c, 2, 11, 125
4, 24592, Control_c, 2, 11, 124
4, 24598, Control_c, 2, 11, 123
4, 24604, Control_c, 2, 11, 122
4, 24610, Control_c, 2, 11, 121
4, 24616, Control_c, 2, 11, 120
4, 24622, Control_c, 2, 11, 119
4, 24628, Control_c, 2, 11, 118
4, 24634, Control_c, 2, 11, 117
4, 24640, Control_c, 2, 11, 116
4, 24646, Control_c, 2, 11, 115
4, 24648, Pitch_bend_c, 2, 7102
4, 24649, Pitch_bend_c, 2, 7205
4, 24650, Pitch_bend_c, 2, 7334
4, 24651, Pitch_bend_c, 2, 7485
4, 24652, Pitch_bend_c, 2, 7653
4, 24652, Control_c, 2, 11, 114
4, 24653, Pitch_bend_c, 2, 7835
4, 24654, Pitch_bend_c, 2, 8026
4, 24655, Pitch_bend_c, 2, 8222
4, 24656, Pitch_bend_c, 2, 8416
4, 24657, Pitch_bend_c, 2, 8605
4, 24658, Pitch_bend_c, 2, 8784
4, 24658, Control_c, 2, 11, 113
4, 24659, Pitch_bend_c, 2, 8947
4, 24660, Pitch_bend_c, 2, 9091
4, 24661, Pitch_bend_c, 2, 9213
4, 24662, Pitch_bend_c, 2, 9308
4, 24663, Pitch_bend_c, 2, 9376
4, 24664, Pitch_bend_c, 2, 9413
4, 24664, Control_c, 2, 11, 112
4, 24665, Pitch_bend_c, 2, 9419
4, 24666, Pitch_bend_c, 2, 9395
4, 24667, Pitch_bend_c, 2, 9339
4, 24668, Pitch_bend_c, 2, 9255
4, 24669, Pitch_bend_c, 2, 9144
4, 24670, Pitch_bend_c, 2, 9008
4, 24670, Control_c, 2, 11, 111
4, 24671, Pitch_bend_c, 2, 8852
4, 24672, Pitch_bend_c, 2, 8680
4, 24673, Pitch_bend_c, 2, 8494
4, 24674, Pitch_bend_c, 2, 8302
4, 24675, Pitch_bend_c, 2, 8106
4, 24676, Pitch_bend_c, 2, 7912
4, 24676, Control_c, 2, 11, 110
4, 24677, Pitch_bend_c, 2, 7726
4, 24678, Pitch_bend_c, 2, 7552
4, 24679, Pitch_bend_c, 2, 7393
4, 24680, Pitch_bend_c, 2, 7255
4, 24681, Pitch_bend_c, 2, 7141
4, 24682, Pitch_bend_c, 2, 7053
4, 24682, Control_c, 2, 11, 109
4, 24683, Pitch_bend_c, 2, 6994
4, 24684, Pitch_bend_c, 2, 6966
4, 24685, Pitch_bend_c, 2, 6969
4, 24686, Pitch_bend_c, 2, 7002
4, 24687, Pitch_bend_c, 2, 7066
4, 24688, Pitch_bend_c, 2, 7158
4, 24688, Control_c, 2, 11, 108
4, 24689, Pitch_bend_c, 2, 7277
4, 24690, Pitch_bend_c, 2, 7419
4, 24691, Pitch_bend_c, 2, 7580
4, 24692, Pitch_bend_c, 2, 7757
4, 24693, Pitch_bend_c, 2, 7945
4, 24694, Pitch_bend_c, 2, 8139
4, 24694, Control_c, 2, 11, 107
4, 24695, Pitch_bend_c, 2, 8334
4, 24696, Pitch_bend_c, 2, 8526
4, 24697, Pitch_bend_c, 2, 8710
4, 24698, Pitch_bend_c, 2, 8880
4, 24699, Pitch_bend_c, 2, 9033
4, 24700, Pitch_bend_c, 2, 9164
4, 24700, Control_c, 2, 11, 106
4, 24701, Pitch_bend_c, 2, 9271
4, 24702, Pitch_bend_c, 2, 9351
4, 24703, Pitch_bend_c, 2, 9401
4, 24704, Pitch_bend_c, 2, 9421
4, 24705, Pitch_bend_c, 2, 9409
4, 24706, Pitch_bend_c, 2, 9367
4, 24707, Pitch_bend_c, 2, 9294
4, 24707, Control_c, 2, 11, 105
4, 24708, Pitch_bend_c, 2, 9194
4, 24709, Pitch_bend_c, 2, 9069
4, 24710, Pitch_bend_c, 2, 8921
4, 24711, Pitch_bend_c, 2, 8755
4, 24712, Pitch_bend_c, 2, 8574
4, 24713, Pitch_bend_c, 2, 8384
4, 24713, Control_c, 2, 11, 104
4, 24714, Pitch_bend_c, 2, 8189
4, 24715, Pitch_bend_c, 2, 7994
4, 24716, Pitch_bend_c, 2, 7804
4, 24717, Pitch_bend_c, 2, 7624
4, 24718, Pitch_bend_c, 2, 7458
4, 24719, Pitch_bend_c, 2, 7311
4, 24719, Control_c, 2, 11, 103
4, 24720, Pitch_bend_c, 2, 7186
4, 24721, Pitch_bend_c, 2, 7087
4, 24722, Pitch_bend_c, 2, 7016
4, 24723, Pitch_bend_c, 2, 6974
4, 24724, Pitch_bend_c, 2, 6964
4, 24725, Pitch_bend_c, 2, 6984
4, 24725, Control_c, 2, 11, 102
4, 24726, Pitch_bend_c, 2, 7035
4, 24727, Pitch_bend_c, 2, 7116
4, 24728, Pitch_bend_c, 2, 7224
4, 24729, Pitch_bend_c, 2, 7356
4, 24730, Pitch_bend_c, 2, 7509
4, 24731, Pitch_bend_c, 2, 7680
4, 24731, Control_c, 2, 11, 101
4, 24732, Pitch_bend_c, 2, 7864
4, 24733, Pitch_bend_c, 2, 8056
4, 24734, Pitch_bend_c, 2, 8252
4, 24735, Pitch_bend_c, 2, 8446
4, 24736, Pitch_bend_c, 2, 8633
4, 24737, Pitch_bend_c, 2, 8810
4, 24737, Control_c, 2, 11, 100
4, 24738, Pitch_bend_c, 2, 8970
4, 24739, Pitch_bend_c, 2, 9111
4, 24740, Pitch_bend_c, 2, 9229
4, 24741, Pitch_bend_c, 2, 9321
4, 24742, Pitch_bend_c, 2, 9383
4, 24743, Pitch_bend_c, 2, 9416
4, 24743, Control_c, 2, 11, 99
4, 24744, Pitch_bend_c, 2, 9418
4, 24745, Pitch_bend_c, 2, 9388
4, 24746, Pitch_bend_c, 2, 9328
4, 24747, Pitch_bend_c, 2, 9240
4, 24748, Pitch_bend_c, 2, 9125
4, 24749, Pitch_bend_c, 2, 8986
4, 24749, Control_c, 2, 11, 98
4, 24750, Pitch_bend_c, 2, 8827
4, 24751, Pitch_bend_c, 2, 8652
4, 24752, Pitch_bend_c, 2, 8465
4, 24753, Pitch_bend_c, 2, 8272
4, 24754, Pitch_bend_c, 2, 8076
4, 24755, Pitch_bend_c, 2, 7884
4, 24755, Control_c, 2, 11, 97
4, 24756, Pitch_bend_c, 2, 7699
4, 24757, Pitch_bend_c, 2, 7526
4, 24758, Pitch_bend_c, 2, 7371
4, 24759, Pitch_bend_c, 2, 7236
4, 24760, Pitch_bend_c, 2, 7126
4, 24761, Pitch_bend_c, 2, 7042
4, 24761, Control_c, 2, 11, 96
4, 24762, Pitch_bend_c, 2, 6988
4, 24763, Pitch_bend_c, 2, 6964
4, 24764, Pitch_bend_c, 2, 6972
4, 24765, Pitch_bend_c, 2, 7010
4, 24766, Pitch_bend_c, 2, 7078
4, 24767, Pitch_bend_c, 2, 7175
4, 24767, Control_c, 2, 11, 95
4, 24768, Pitch_bend_c, 2, 7297
4, 24769, Pitch_bend_c, 2, 7442
4, 24770, Pitch_bend_c, 2, 7606
4, 24771, Pitch_bend_c, 2, 7785
4, 24772, Pitch_bend_c, 2, 7974
4, 24773, Pitch_bend_c, 2, 8169
4, 24773, Control_c, 2, 11, 94
4, 24774, Pitch_bend_c, 2, 8364
4, 24775, Pitch_bend_c, 2, 8555
4, 24776, Pitch_bend_c, 2, 8736
4, 24777, Pitch_bend_c, 2, 8904
4, 24778, Pitch_bend_c, 2, 9054
4, 24779, Pitch_bend_c, 2, 9182
4, 24779, Control_c, 2, 11, 93
4, 24780, Pitch_bend_c, 2, 9285
4, 24781, Pitch_bend_c, 2, 9360
4, 24782, Pitch_bend_c, 2, 9406
4, 24783, Pitch_bend_c, 2, 9421
4, 24784, Pitch_bend_c, 2, 9404
4, 24785, Pitch_bend_c, 2, 9357
4, 24785, Control_c, 2, 11, 92
4, 24786, Pitch_bend_c, 2, 9281
4, 24787, Pitch_bend_c, 2, 9177
4, 24788, Pitch_bend_c, 2, 9047
4, 24789, Pitch_bend_c, 2, 8897
4, 24790, Pitch_bend_c, 2, 8728
4, 24791, Pitch_bend_c, 2, 8546
4, 24791, Control_c, 2, 11, 91
4, 24792, Pitch_bend_c, 2, 8354
4, 24793, Pitch_bend_c, 2, 8159
4, 24794, Pitch_bend_c, 2, 7965
4, 24795, Pitch_bend_c, 2, 7776
4, 24796, Pitch_bend_c, 2, 7598
4, 24797, Pitch_bend_c, 2, 7434
4, 24797, Control_c, 2, 11, 90
4, 24798, Pitch_bend_c, 2, 7291
4, 24799, Pitch_bend_c, 2, 7169
4, 24800, Pitch_bend_c, 2, 7074
4, 24801, Pitch_bend_c, 2, 7007
4, 24802, Pitch_bend_c, 2, 6971
4, 24803, Pitch_bend_c, 2, 6965
4, 24803, Control_c, 2, 11, 89
4, 24804, Pitch_bend_c, 2, 6990
4, 24805, Pitch_bend_c, 2, 7046
4, 24806, Pitch_bend_c, 2, 7130
4, 24807, Pitch_bend_c, 2, 7242
4, 24808, Pitch_bend_c, 2, 7378
4, 24809, Pitch_bend_c, 2, 7534
4, 24809, Control_c, 2, 11, 88
4, 24810, Pitch_bend_c, 2, 7707
4, 24811, Pitch_bend_c, 2, 7893
4, 24812, Pitch_bend_c, 2, 8086
4, 24813, Pitch_bend_c, 2, 8281
4, 24814, Pitch_bend_c, 2, 8475
4, 24815, Pitch_bend_c, 2, 8661
4, 24815, Control_c, 2, 11, 87
4, 24816, Pitch_bend_c, 2, 8835
4, 24817, Pitch_bend_c, 2, 8993
4, 24818, Pitch_bend_c, 2, 9131
4, 24819, Pitch_bend_c, 2, 9245
4, 24820, Pitch_bend_c, 2, 9332
4, 24821, Pitch_bend_c, 2, 9390
4, 24821, Control_c, 2, 11, 86
4, 24822, Pitch_bend_c, 2, 9418
4, 24823, Pitch_bend_c, 2, 9415
4, 24824, Pitch_bend_c, 2, 9381
4, 24825, Pitch_bend_c, 2, 9317
4, 24826, Pitch_bend_c, 2, 9224
4, 24827, Pitch_bend_c, 2, 9105
4, 24827, Control_c, 2, 11, 85
4, 24828, Pitch_bend_c, 2, 8963
4, 24829, Pitch_bend_c, 2, 8801
4, 24830, Pitch_bend_c, 2, 8624
4, 24831, Pitch_bend_c, 2, 8436
4, 24832, Pitch_bend_c, 2, 8242
4, 24833, Pitch_bend_c, 2, 8047
4, 24834, Pitch_bend_c, 2, 7855
4, 24834, Control_c, 2, 11, 84
4, 24835, Pitch_bend_c, 2, 7672
4, 24836, Pitch_bend_c, 2, 7502
4, 24837, Pitch_bend_c, 2, 7349
4, 24838, Pitch_bend_c, 2, 7218
4, 24839, Pitch_bend_c, 2, 7111
4, 24840, Pitch_bend_c, 2, 7032
4, 24840, Control_c, 2, 11, 83
4, 24841, Pitch_bend_c, 2, 6982
4, 24842, Pitch_bend_c, 2, 6963
4, 24843, Pitch_bend_c, 2, 6975
4, 24844, Pitch_bend_c, 2, 7018
4, 24845, Pitch_bend_c, 2, 7091
4, 24846, Pitch_bend_c, 2, 7192
4, 24846, Control_c, 2, 11, 82
4, 24847, Pitch_bend_c, 2, 7318
4, 24848, Pitch_bend_c, 2, 7466
4, 24849, Pitch_bend_c, 2, 7632
4, 24850, Pitch_bend_c, 2, 7813
4, 24851, Pitch_bend_c, 2, 8003
4, 24852, Pitch_bend_c, 2, 8198
4, 24852, Control_c, 2, 11, 81
4, 24853, Pitch_bend_c, 2, 8393
4, 24854, Pitch_bend_c, 2, 8583
4, 24855, Pitch_bend_c, 2, 8763
4, 24856, Pitch_bend_c, 2, 8928
4, 24857, Pitch_bend_c, 2, 9075
4, 24858, Pitch_bend_c, 2, 9200
4, 24858, Control_c, 2, 11, 80
4, 24859, Pitch_bend_c, 2, 9298
4, 24860, Pitch_bend_c, 2, 9369
4, 24861, Pitch_bend_c, 2, 9410
4, 24862, Pitch_bend_c, 2, 9420
4, 24863, Pitch_bend_c, 2, 9399
4, 24864, Pitch_bend_c, 2, 9348
4, 24864, Control_c, 2, 11, 79
4, 24865, Pitch_bend_c, 2, 9267
4, 24866, Pitch_bend_c, 2, 9159
4, 24867, Pitch_bend_c, 2, 9026
4, 24868, Pitch_bend_c, 2, 8872
4, 24869, Pitch_bend_c, 2, 8701
4, 24870, Pitch_bend_c, 2, 8517
4, 24870, Control_c, 2, 11, 78
4, 24871, Pitch_bend_c, 2, 8325
4, 24872, Pitch_bend_c, 2, 8129
4, 24873, Pitch_bend_c, 2, 7935
4, 24874, Pitch_bend_c, 2, 7748
4, 24875, Pitch_bend_c, 2, 7572
4, 24876, Pitch_bend_c, 2, 7411
4, 24876, Control_c, 2, 11, 77
4, 24877, Pitch_bend_c, 2, 7271
4, 24878, Pitch_bend_c, 2, 7153
4, 24879, Pitch_bend_c, 2, 7062
4, 24880, Pitch_bend_c, 2, 7000
4, 24881, Pitch_bend_c, 2, 6968
4, 24882, Pitch_bend_c, 2, 6967
4, 24882, Control_c, 2, 11, 76
4, 24883, Pitch_bend_c, 2, 6996
4, 24884, Pitch_bend_c, 2, 7057
4, 24885, Pitch_bend_c, 2, 7146
4, 24886, Pitch_bend_c, 2, 7261
4, 24887, Pitch_bend_c, 2, 7400
4, 24888, Pitch_bend_c, 2, 7560
4, 24888, Control_c, 2, 11, 75
4, 24889, Pitch_bend_c, 2, 7735
4, 24890, Pitch_bend_c, 2, 7922
4, 24891, Pitch_bend_c, 2, 8115
4, 24892, Pitch_bend_c, 2, 8311
4, 24893, Pitch_bend_c, 2, 8503
4, 24894, Pitch_bend_c, 2, 8688
4, 24894, Control_c, 2, 11, 74
4, 24895, Pitch_bend_c, 2, 8860
4, 24896, Pitch_bend_c, 2, 9015
4, 24897, Pitch_bend_c, 2, 9150
4, 24898, Pitch_bend_c, 2, 9260
4, 24899, Pitch_bend_c, 2, 9343
4, 24900, Pitch_bend_c, 2, 9397
4, 24900, Control_c, 2, 11, 73
4, 24901, Pitch_bend_c, 2, 9420
4, 24902, Pitch_bend_c, 2, 9412
4, 24903, Pitch_bend_c, 2, 9373
4, 24904, Pitch_bend_c, 2, 9304
4, 24905, Pitch_bend_c, 2, 9208
4, 24906, Pitch_bend_c, 2, 9085
4, 24906, Control_c, 2, 11, 72
4, 24907, Pitch_bend_c, 2, 8940
4, 24908, Pitch_bend_c, 2, 8775
4, 24909, Pitch_bend_c, 2, 8596
4, 24910, Pitch_bend_c, 2, 8407
4, 24911, Pitch_bend_c, 2, 8212
4, 24912, Pitch_bend_c, 2, 8017
4, 24912, Control_c, 2, 11, 71
4, 24913, Pitch_bend_c, 2, 7826
4, 24914, Pitch_bend_c, 2, 7645
4, 24915, Pitch_bend_c, 2, 7477
4, 24916, Pitch_bend_c, 2, 7328
4, 24917, Pitch_bend_c, 2, 7200
4, 24918, Pitch_bend_c, 2, 7097
4, 24918, Control_c, 2, 11, 70
4, 24919, Pitch_bend_c, 2, 7023
4, 24920, Pitch_bend_c, 2, 6978
4, 24921, Pitch_bend_c, 2, 6963
4, 24922, Pitch_bend_c, 2, 6980
4, 24923, Pitch_bend_c, 2, 7028
4, 24924, Pitch_bend_c, 2, 7105
4, 24924, Control_c, 2, 11, 69
4, 24925, Pitch_bend_c, 2, 7209
4, 24926, Pitch_bend_c, 2, 7339
4, 24927, Pitch_bend_c, 2, 7490
4, 24928, Pitch_bend_c, 2, 7659
4, 24929, Pitch_bend_c, 2, 7841
4, 24930, Pitch_bend_c, 2, 8033
4, 24930, Control_c, 2, 11, 68
4, 24931, Pitch_bend_c, 2, 8228
4, 24932, Pitch_bend_c, 2, 8423
4, 24933, Pitch_bend_c, 2, 8611
4, 24934, Pitch_bend_c, 2, 8789
4, 24935, Pitch_bend_c, 2, 8952
4, 24936, Pitch_bend_c, 2, 9096
4, 24936, Control_c, 2, 11, 67
4, 24937, Pitch_bend_c, 2, 9216
4, 24938, Pitch_bend_c, 2, 9311
4, 24939, Pitch_bend_c, 2, 9377
4, 24940, Pitch_bend_c, 2, 9414
4, 24941, Pitch_bend_c, 2, 9419
4, 24942, Pitch_bend_c, 2, 9393
4, 24942, Control_c, 2, 11, 66
4, 24943, Pitch_bend_c, 2, 9337
4, 24944, Pitch_bend_c, 2, 9252
4, 24945, Pitch_bend_c, 2, 9140
4, 24946, Pitch_bend_c, 2, 9004
4, 24947, Pitch_bend_c, 2, 8847
4, 24948, Pitch_bend_c, 2, 8674
4, 24948, Control_c, 2, 11, 65
4, 24949, Pitch_bend_c, 2, 8488
4, 24950, Pitch_bend_c, 2, 8295
4, 24951, Pitch_bend_c, 2, 8100
4, 24952, Pitch_bend_c, 2, 7906
4, 24953, Pitch_bend_c, 2, 7720
4, 24954, Pitch_bend_c, 2, 7546
4, 24954, Control_c, 2, 11, 64
4, 24955, Pitch_bend_c, 2, 7388
4, 24956, Pitch_bend_c, 2, 7251
4, 24957, Pitch_bend_c, 2, 7138
4, 24958, Pitch_bend_c, 2, 7051
4, 24959, Pitch_bend_c, 2, 6993
4, 24960, Pitch_bend_c, 2, 6966
4, 24961, Pitch_bend_c, 2, 6969
4, 24961, Control_c, 2, 11, 63
4, 24962, Pitch_bend_c, 2, 7004
4, 24963, Pitch_bend_c, 2, 7068
4, 24964, Pitch_bend_c, 2, 7162
4, 24965, Pitch_bend_c, 2, 7281
4, 24966, Pitch_bend_c, 2, 7423
4, 24967, Pitch_bend_c, 2, 7585
4, 24967, Control_c, 2, 11, 62
4, 24968, Pitch_bend_c, 2, 7763
4, 24969, Pitch_bend_c, 2, 7951
4, 24970, Pitch_bend_c, 2, 8145
4, 24971, Pitch_bend_c, 2, 8340
4, 24972, Pitch_bend_c, 2, 8532
4, 24973, Pitch_bend_c, 2, 8715
4, 24973, Control_c, 2, 11, 61
4, 24974, Pitch_bend_c, 2, 8885
4, 24975, Pitch_bend_c, 2, 9037
4, 24976, Pitch_bend_c, 2, 9168
4, 24977, Pitch_bend_c, 2, 9274
4, 24978, Pitch_bend_c, 2, 9353
4, 24979, Pitch_bend_c, 2, 9402
4, 24979, Control_c, 2, 11, 60
4, 24980, Pitch_bend_c, 2, 9421
4, 24981, Pitch_bend_c, 2, 9408
4, 24982, Pitch_bend_c, 2, 9365
4, 24983, Pitch_bend_c, 2, 9292
4, 24984, Pitch_bend_c, 2, 9191
4, 24985, Pitch_bend_c, 2, 9064
4, 24985, Control_c, 2, 11, 59
4, 24986, Pitch_bend_c, 2, 8916
4, 24987, Pitch_bend_c, 2, 8749
4, 24988, Pitch_bend_c, 2, 8568
4, 24989, Pitch_bend_c, 2, 8378
4, 24990, Pitch_bend_c, 2, 8183
4, 24991, Pitch_bend_c, 2, 7988
4, 24991, Control_c, 2, 11, 58
4, 24992, Pitch_bend_c, 2, 7798
4, 24993, Pitch_bend_c, 2, 7618
4, 24994, Pitch_bend_c, 2, 7453
4, 24995, Pitch_bend_c, 2, 7307
4, 24996, Pitch_bend_c, 2, 7183
4, 24997, Pitch_bend_c, 2, 7084
4, 24997, Control_c, 2, 11, 57
4, 24998, Pitch_bend_c, 2, 7014
4, 24999, Pitch_bend_c, 2, 6973
4, 25000, Pitch_bend_c, 2, 6964
4, 25001, Pitch_bend_c, 2, 6985
4, 25002, Pitch_bend_c, 2, 7037
4, 25003, Pitch_bend_c, 2, 7119
4, 25003, Control_c, 2, 11, 56
4, 25004, Pitch_bend_c, 2, 7227
4, 25005, Pitch_bend_c, 2, 7360
4, 25006, Pitch_bend_c, 2, 7515
4, 25007, Pitch_bend_c, 2, 7686
4, 25008, Pitch_bend_c, 2, 7870
4, 25009, Pitch_bend_c, 2, 8062
4, 25009, Control_c, 2, 11, 55
4, 25010, Pitch_bend_c, 2, 8258
4, 25011, Pitch_bend_c, 2, 8452
4, 25012, Pitch_bend_c, 2, 8639
4, 25013, Pitch_bend_c, 2, 8815
4, 25014, Pitch_bend_c, 2, 8975
4, 25015, Pitch_bend_c, 2, 9116
4, 25015, Control_c, 2, 11, 54
4, 25016, Pitch_bend_c, 2, 9232
4, 25017, Pitch_bend_c, 2, 9323
4, 25018, Pitch_bend_c, 2, 9385
4, 25019, Pitch_bend_c, 2, 9417
4, 25021, Pitch_bend_c, 2, 9387
4, 25021, Control_c, 2, 11, 53
4, 25022, Pitch_bend_c, 2, 9326
4, 25023, Pitch_bend_c, 2, 9237
4, 25024, Pitch_bend_c, 2, 9121
4, 25025, Pitch_bend_c, 2, 8981
4, 25026, Pitch_bend_c, 2, 8822
4, 25027, Pitch_bend_c, 2, 8646
4, 25027, Control_c, 2, 11, 52
4, 25028, Pitch_bend_c, 2, 8459
4, 25029, Pitch_bend_c, 2, 8266
4, 25030, Pitch_bend_c, 2, 8070
4, 25031, Pitch_bend_c, 2, 7877
4, 25032, Pitch_bend_c, 2, 7693
4, 25033, Pitch_bend_c, 2, 7521
4, 25033, Control_c, 2, 11, 51
4, 25034, Pitch_bend_c, 2, 7366
4, 25035, Pitch_bend_c, 2, 7232
4, 25036, Pitch_bend_c, 2, 7123
4, 25037, Pitch_bend_c, 2, 7040
4, 25038, Pitch_bend_c, 2, 6987
4, 25039, Pitch_bend_c, 2, 6964
4, 25039, Control_c, 2, 11, 50
4, 25040, Pitch_bend_c, 2, 6972
4, 25041, Pitch_bend_c, 2, 7012
4, 25042, Pitch_bend_c, 2, 7081
4, 25043, Pitch_bend_c, 2, 7178
4, 25044, Pitch_bend_c, 2, 7301
4, 25045, Pitch_bend_c, 2, 7447
4, 25045, Control_c, 2, 11, 49
4, 25046, Pitch_bend_c, 2, 7611
4, 25047, Pitch_bend_c, 2, 7791
4, 25048, Pitch_bend_c, 2, 7980
4, 25049, Pitch_bend_c, 2, 8175
4, 25050, Pitch_bend_c, 2, 8370
4, 25051, Pitch_bend_c, 2, 8561
4, 25051, Control_c, 2, 11, 48
4, 25052, Pitch_bend_c, 2, 8742
4, 25053, Pitch_bend_c, 2, 8909
4, 25054, Pitch_bend_c, 2, 9059
4, 25055, Pitch_bend_c, 2, 9186
4, 25056, Pitch_bend_c, 2, 9288
4, 25057, Pitch_bend_c, 2, 9362
4, 25057, Control_c, 2, 11, 47
4, 25058, Pitch_bend_c, 2, 9407
4, 25059, Pitch_bend_c, 2, 9421
4, 25060, Pitch_bend_c, 2, 9403
4, 25061, Pitch_bend_c, 2, 9355
4, 25062, Pitch_bend_c, 2, 9278
4, 25063, Pitch_bend_c, 2, 9173
4, 25063, Control_c, 2, 11, 46
4, 25064, Pitch_bend_c, 2, 9043
4, 25065, Pitch_bend_c, 2, 8892
4, 25066, Pitch_bend_c, 2, 8722
4, 25067, Pitch_bend_c, 2, 8540
4, 25068, Pitch_bend_c, 2, 8348
4, 25069, Pitch_bend_c, 2, 8153
4, 25069, Control_c, 2, 11, 45
4, 25070, Pitch_bend_c, 2, 7958
4, 25071, Pitch_bend_c, 2, 7770
4, 25072, Pitch_bend_c, 2, 7592
4, 25073, Pitch_bend_c, 2, 7430
4, 25074, Pitch_bend_c, 2, 7286
4, 25075, Pitch_bend_c, 2, 7166
4, 25075, Control_c, 2, 11, 44
4, 25076, Pitch_bend_c, 2, 7072
4, 25077, Pitch_bend_c, 2, 7006
4, 25078, Pitch_bend_c, 2, 6970
4, 25079, Pitch_bend_c, 2, 6965
4, 25080, Pitch_bend_c, 2, 6991
4, 25081, Pitch_bend_c, 2, 7048
4, 25081, Control_c, 2, 11, 43
4, 25082, Pitch_bend_c, 2, 7134
4, 25083, Pitch_bend_c, 2, 7246
4, 25084, Pitch_bend_c, 2, 7383
4, 25085, Pitch_bend_c, 2, 7540
4, 25086, Pitch_bend_c, 2, 7713
4, 25087, Pitch_bend_c, 2, 7899
4, 25087, Control_c, 2, 11, 42
4, 25088, Pitch_bend_c, 2, 8092
4, 25089, Pitch_bend_c, 2, 8287
4, 25090, Pitch_bend_c, 2, 8481
4, 25091, Pitch_bend_c, 2, 8667
4, 25092, Pitch_bend_c, 2, 8840
4, 25093, Pitch_bend_c, 2, 8998
4, 25094, Pitch_bend_c, 2, 9135
4, 25094, Control_c, 2, 11, 41
4, 25095, Pitch_bend_c, 2, 9248
4, 25096, Pitch_bend_c, 2, 9334
4, 25097, Pitch_bend_c, 2, 9392
4, 25098, Pitch_bend_c, 2, 9419
4, 25099, Pitch_bend_c, 2, 9415
4, 25100, Pitch_bend_c, 2, 9379
4, 25100, Control_c, 2, 11, 40
4, 25101, Pitch_bend_c, 2, 9314
4, 25102, Pitch_bend_c, 2, 9221
4, 25103, Pitch_bend_c, 2, 9101
4, 25104, Pitch_bend_c, 2, 8958
4, 25105, Pitch_bend_c, 2, 8796
4, 25106, Pitch_bend_c, 2, 8618
4, 25106, Control_c, 2, 11, 39
4, 25107, Pitch_bend_c, 2, 8430
4, 25108, Pitch_bend_c, 2, 8236
4, 25109, Pitch_bend_c, 2, 8040
4, 25110, Pitch_bend_c, 2, 7849
4, 25111, Pitch_bend_c, 2, 7666
4, 25112, Pitch_bend_c, 2, 7496
4, 25112, Control_c, 2, 11, 38
4, 25113, Pitch_bend_c, 2, 7344
4, 25114, Pitch_bend_c, 2, 7214
4, 25115, Pitch_bend_c, 2, 7108
4, 25116, Pitch_bend_c, 2, 7030
4, 25117, Pitch_bend_c, 2, 6981
4, 25118, Pitch_bend_c, 2, 6963
4, 25118, Control_c, 2, 11, 37
4, 25119, Pitch_bend_c, 2, 6976
4, 25120, Pitch_bend_c, 2, 7020
4, 25121, Pitch_bend_c, 2, 7094
4, 25122, Pitch_bend_c, 2, 7195
4, 25123, Pitch_bend_c, 2, 7322
4, 25124, Pitch_bend_c, 2, 7471
4, 25124, Control_c, 2, 11, 36
4, 25125, Pitch_bend_c, 2, 7638
4, 25126, Pitch_bend_c, 2, 7819
4, 25127, Pitch_bend_c, 2, 8009
4, 25128, Pitch_bend_c, 2, 8205
4, 25129, Pitch_bend_c, 2, 8399
4, 25130, Pitch_bend_c, 2, 8589
4, 25130, Control_c, 2, 11, 35
4, 25131, Pitch_bend_c, 2, 8768
4, 25132, Pitch_bend_c, 2, 8933
4, 25133, Pitch_bend_c, 2, 9080
4, 25134, Pitch_bend_c, 2, 9203
4, 25135, Pitch_bend_c, 2, 9301
4, 25136, Pitch_bend_c, 2, 9371
4, 25136, Control_c, 2, 11, 34
4, 25137, Pitch_bend_c, 2, 9411
4, 25138, Pitch_bend_c, 2, 9420
4, 25139, Pitch_bend_c, 2, 9398
4, 25140, Pitch_bend_c, 2, 9345
4, 25141, Pitch_bend_c, 2, 9264
4, 25142, Pitch_bend_c, 2, 9155
4, 25142, Control_c, 2, 11, 33
4, 25143, Pitch_bend_c, 2, 9021
4, 25144, Pitch_bend_c, 2, 8867
4, 25145, Pitch_bend_c, 2, 8695
4, 25146, Pitch_bend_c, 2, 8511
4, 25147, Pitch_bend_c, 2, 8319
4, 25148, Pitch_bend_c, 2, 8123
4, 25148, Control_c, 2, 11, 32
4, 25149, Pitch_bend_c, 2, 7929
4, 25150, Pitch_bend_c, 2, 7742
4, 25151, Pitch_bend_c, 2, 7566
4, 25152, Pitch_bend_c, 2, 7406
4, 25153, Pitch_bend_c, 2, 7266
4, 25154, Pitch_bend_c, 2, 7150
4, 25154, Control_c, 2, 11, 31
4, 25155, Pitch_bend_c, 2, 7060
4, 25156, Pitch_bend_c, 2, 6998
4, 25157, Pitch_bend_c, 2, 6967
4, 25159, Pitch_bend_c, 2, 6998
4, 25160, Pitch_bend_c, 2, 7059
4, 25160, Control_c, 2, 11, 30
4, 25161, Pitch_bend_c, 2, 7149
4, 25162, Pitch_bend_c, 2, 7265
4, 25163, Pitch_bend_c, 2, 7405
4, 25164, Pitch_bend_c, 2, 7565
4, 25165, Pitch_bend_c, 2, 7741
4, 25166, Pitch_bend_c, 2, 7928
4, 25166, Control_c, 2, 11, 29
4, 25167, Pitch_bend_c, 2, 8122
4, 25168, Pitch_bend_c, 2, 8317
4, 25169, Pitch_bend_c, 2, 8510
4, 25170, Pitch_bend_c, 2, 8694
4, 25171, Pitch_bend_c, 2, 8866
4, 25172, Pitch_bend_c, 2, 9020
4, 25172, Control_c, 2, 11, 28
4, 25173, Pitch_bend_c, 2, 9154
4, 25174, Pitch_bend_c, 2, 9263
4, 25175, Pitch_bend_c, 2, 9345
4, 25176, Pitch_bend_c, 2, 9398
4, 25177, Pitch_bend_c, 2, 9420
4, 25178, Pitch_bend_c, 2, 9411
4, 25178, Control_c, 2, 11, 27
4, 25179, Pitch_bend_c, 2, 9371
4, 25180, Pitch_bend_c, 2, 9302
4, 25181, Pitch_bend_c, 2, 9204
4, 25182, Pitch_bend_c, 2, 9081
4, 25183, Pitch_bend_c, 2, 8935
4, 25184, Pitch_bend_c, 2, 8770
4, 25184, Control_c, 2, 11, 26
4, 25185, Pitch_bend_c, 2, 8590
4, 25186, Pitch_bend_c, 2, 8401
4, 25187, Pitch_bend_c, 2, 8206
4, 25188, Pitch_bend_c, 2, 8011
4, 25189, Pitch_bend_c, 2, 7820
4, 25190, Pitch_bend_c, 2, 7639
4, 25190, Control_c, 2, 11, 25
4, 25191, Pitch_bend_c, 2, 7472
4, 25192, Pitch_bend_c, 2, 7323
4, 25193, Pitch_bend_c, 2, 7196
4, 25194, Pitch_bend_c, 2, 7095
4, 25195, Pitch_bend_c, 2, 7021
4, 25196, Pitch_bend_c, 2, 6977
4, 25196, Control_c, 2, 11, 24
4, 25197, Pitch_bend_c, 2, 6963
4, 25198, Pitch_bend_c, 2, 6981
4, 25199, Pitch_bend_c, 2, 7030
4, 25200, Pitch_bend_c, 2, 7108
4, 25201, Pitch_bend_c, 2, 7213
4, 25202, Pitch_bend_c, 2, 7343
4, 25202, Control_c, 2, 11, 23
4, 25203, Pitch_bend_c, 2, 7495
4, 25204, Pitch_bend_c, 2, 7664
4, 25205, Pitch_bend_c, 2, 7847
4, 25206, Pitch_bend_c, 2, 8039
4, 25207, Pitch_bend_c, 2, 8234
4, 25208, Pitch_bend_c, 2, 8429
4, 25208, Control_c, 2, 11, 22
4, 25209, Pitch_bend_c, 2, 8617
4, 25210, Pitch_bend_c, 2, 8795
4, 25211, Pitch_bend_c, 2, 8957
4, 25212, Pitch_bend_c, 2, 9100
4, 25213, Pitch_bend_c, 2, 9220
4, 25214, Pitch_bend_c, 2, 9314
4, 25214, Control_c, 2, 11, 21
4, 25215, Pitch_bend_c, 2, 9379
4, 25216, Pitch_bend_c, 2, 9414
4, 25217, Pitch_bend_c, 2, 9419
4, 25218, Pitch_bend_c, 2, 9392
4, 25219, Pitch_bend_c, 2, 9335
4, 25220, Pitch_bend_c, 2, 9249
4, 25221, Pitch_bend_c, 2, 9136
4, 25221, Control_c, 2, 11, 20
4, 25222, Pitch_bend_c, 2, 8999
4, 25223, Pitch_bend_c, 2, 8842
4, 25224, Pitch_bend_c, 2, 8668
4, 25225, Pitch_bend_c, 2, 8482
4, 25226, Pitch_bend_c, 2, 8289
4, 25227, Pitch_bend_c, 2, 8093
4, 25227, Control_c, 2, 11, 19
4, 25228, Pitch_bend_c, 2, 7900
4, 25229, Pitch_bend_c, 2, 7715
4, 25230, Pitch_bend_c, 2, 7541
4, 25231, Pitch_bend_c, 2, 7384
4, 25232, Pitch_bend_c, 2, 7247
4, 25233, Pitch_bend_c, 2, 7134
4, 25233, Control_c, 2, 11, 18
4, 25234, Pitch_bend_c, 2, 7049
4, 25235, Pitch_bend_c, 2, 6992
4, 25236, Pitch_bend_c, 2, 6965
4, 25237, Pitch_bend_c, 2, 6970
4, 25238, Pitch_bend_c, 2, 7005
4, 25239, Pitch_bend_c, 2, 7071
4, 25239, Control_c, 2, 11, 17
4, 25240, Pitch_bend_c, 2, 7165
4, 25241, Pitch_bend_c, 2, 7285
4, 25242, Pitch_bend_c, 2, 7428
4, 25243, Pitch_bend_c, 2, 7591
4, 25244, Pitch_bend_c, 2, 7768
4, 25245, Pitch_bend_c, 2, 7957
4, 25245, Control_c, 2, 11, 16
4, 25246, Pitch_bend_c, 2, 8151
4, 25247, Pitch_bend_c, 2, 8347
4, 25248, Pitch_bend_c, 2, 8538
4, 25249, Pitch_bend_c, 2, 8721
4, 25250, Pitch_bend_c, 2, 8890
4, 25251, Pitch_bend_c, 2, 9042
4, 25251, Control_c, 2, 11, 15
4, 25252, Pitch_bend_c, 2, 9172
4, 25253, Pitch_bend_c, 2, 9277
4, 25254, Pitch_bend_c, 2, 9355
4, 25255, Pitch_bend_c, 2, 9403
4, 25256, Pitch_bend_c, 2, 9421
4, 25257, Pitch_bend_c, 2, 9407
4, 25257, Control_c, 2, 11, 14
4, 25258, Pitch_bend_c, 2, 9363
4, 25259, Pitch_bend_c, 2, 9289
4, 25260, Pitch_bend_c, 2, 9187
4, 25261, Pitch_bend_c, 2, 9060
4, 25262, Pitch_bend_c, 2, 8911
4, 25263, Pitch_bend_c, 2, 8743
4, 25263, Control_c, 2, 11, 13
4, 25264, Pitch_bend_c, 2, 8562
4, 25265, Pitch_bend_c, 2, 8372
4, 25266, Pitch_bend_c, 2, 8176
4, 25267, Pitch_bend_c, 2, 7982
4, 25268, Pitch_bend_c, 2, 7792
4, 25269, Pitch_bend_c, 2, 7613
4, 25269, Control_c, 2, 11, 12
4, 25270, Pitch_bend_c, 2, 7448
4, 25271, Pitch_bend_c, 2, 7302
4, 25272, Pitch_bend_c, 2, 7179
4, 25273, Pitch_bend_c, 2, 7082
4, 25274, Pitch_bend_c, 2, 7012
4, 25275, Pitch_bend_c, 2, 6973
4, 25275, Control_c, 2, 11, 11
4, 25276, Pitch_bend_c, 2, 6964
4, 25277, Pitch_bend_c, 2, 6987
4, 25278, Pitch_bend_c, 2, 7040
4, 25279, Pitch_bend_c, 2, 7122
4, 25280, Pitch_bend_c, 2, 7231
4, 25281, Pitch_bend_c, 2, 7365
4, 25281, Control_c, 2, 11, 10
4, 25282, Pitch_bend_c, 2, 7520
4, 25283, Pitch_bend_c, 2, 7692
4, 25284, Pitch_bend_c, 2, 7876
4, 25285, Pitch_bend_c, 2, 8068
4, 25286, Pitch_bend_c, 2, 8264
4, 25287, Pitch_bend_c, 2, 8458
4, 25287, Control_c, 2, 11, 9
4, 25288, Pitch_bend_c, 2, 8645
4, 25289, Pitch_bend_c, 2, 8820
4, 25290, Pitch_bend_c, 2, 8980
4, 25291, Pitch_bend_c, 2, 9120
4, 25292, Pitch_bend_c, 2, 9236
4, 25293, Pitch_bend_c, 2, 9325
4, 25293, Control_c, 2, 11, 8
4, 25294, Pitch_bend_c, 2, 9386
4, 25295, Pitch_bend_c, 2, 9417
4, 25297, Pitch_bend_c, 2, 9385
4, 25298, Pitch_bend_c, 2, 9324
4, 25299, Pitch_bend_c, 2, 9233
4, 25299, Control_c, 2, 11, 7
4, 25300, Pitch_bend_c, 2, 9117
4, 25301, Pitch_bend_c, 2, 8976
4, 25302, Pitch_bend_c, 2, 8816
4, 25303, Pitch_bend_c, 2, 8640
4, 25304, Pitch_bend_c, 2, 8453
4, 25305, Pitch_bend_c, 2, 8259
4, 25305, Control_c, 2, 11, 6
4, 25306, Pitch_bend_c, 2, 8064
4, 25307, Pitch_bend_c, 2, 7871
4, 25308, Pitch_bend_c, 2, 7687
4, 25309, Pitch_bend_c, 2, 7516
4, 25310, Pitch_bend_c, 2, 7362
4, 25311, Pitch_bend_c, 2, 7228
4, 25311, Control_c, 2, 11, 5
4, 25312, Pitch_bend_c, 2, 7120
4, 25313, Pitch_bend_c, 2, 7038
4, 25314, Pitch_bend_c, 2, 6986
4, 25315, Pitch_bend_c, 2, 6964
4, 25316, Pitch_bend_c, 2, 6973
4, 25317, Pitch_bend_c, 2, 7013
4, 25317, Control_c, 2, 11, 4
4, 25318, Pitch_bend_c, 2, 7084
4, 25319, Pitch_bend_c, 2, 7182
4, 25320, Pitch_bend_c, 2, 7306
4, 25321, Pitch_bend_c, 2, 7452
4, 25322, Pitch_bend_c, 2, 7617
4, 25323, Pitch_bend_c, 2, 7797
4, 25323, Control_c, 2, 11, 3
4, 25324, Pitch_bend_c, 2, 7986
4, 25325, Pitch_bend_c, 2, 8181
4, 25326, Pitch_bend_c, 2, 8376
4, 25327, Pitch_bend_c, 2, 8567
4, 25328, Pitch_bend_c, 2, 8748
4, 25329, Pitch_bend_c, 2, 8915
4, 25329, Control_c, 2, 11, 2
4, 25330, Pitch_bend_c, 2, 9063
4, 25331, Pitch_bend_c, 2, 9190
4, 25332, Pitch_bend_c, 2, 9291
4, 25333, Pitch_bend_c, 2, 9364
4, 25334, Pitch_bend_c, 2, 9408
4, 25335, Pitch_bend_c, 2, 9421
4, 25335, Control_c, 2, 11, 1
4, 25336, Pitch_bend_c, 2, 9402
4, 25337, Pitch_bend_c, 2, 9353
4, 25338, Pitch_bend_c, 2, 9275
4, 25339, Pitch_bend_c, 2, 9169
4, 25340, Pitch_bend_c, 2, 9038
4, 25341, Pitch_bend_c, 2, 8886
4, 25341, Control_c, 2, 11, 0
4, 25342, Pitch_bend_c, 2, 8717
4, 25343, Pitch_bend_c, 2, 8534
4, 25344, Note_off_c, 2, 66, 64
4, 25344, End_track
5, 0, Start_track
5, 0, Title_t, "yellow channel chorus"
5, 0, Control_c, 3, 126, 1
5, 0, Control_c, 3, 68, 127
5, 25344, End_track
6, 0, Start_track
6, 0, Title_t, "orange channel"
6, 0, Control_c, 4, 126, 1
6, 0, Control_c, 4, 68, 127
6, 768, Instrument_name_t, "wave: square, volume: medium, envelope: sudden, filter: sustain sharp, chorus: union, effect: none"
6, 768, Program_c, 4, 80
6, 768, Control_c, 4, 7, 76
6, 960, Pitch_bend_c, 4, 8192
6, 960, Control_c, 4, 11, 127
6, 960, Note_on_c, 4, 54, 64
6, 1104, Note_off_c, 4, 54, 64
6, 1104, Note_on_c, 4, 61, 64
6, 1248, Note_off_c, 4, 61, 64
6, 1248, Note_on_c, 4, 66, 64
6, 1536, Note_off_c, 4, 66, 64
6, 1536, Note_on_c, 4, 66, 64
6, 1632, Note_off_c, 4, 66, 64
6, 1680, Note_on_c, 4, 52, 64
6, 1824, Note_off_c, 4, 52, 64
6, 1824, Note_on_c, 4, 59, 64
6, 1968, Note_off_c, 4, 59, 64
6, 1968, Note_on_c, 4, 64, 64
6, 2304, Note_off_c, 4, 64, 64
6, 2304, Note_on_c, 4, 64, 64
6, 2352, Note_off_c, 4, 64, 64
6, 2448, Note_on_c, 4, 51, 64
6, 2592, Note_off_c, 4, 51, 64
6, 2592, Note_on_c, 4, 58, 64
6, 2736, Note_off_c, 4, 58, 64
6, 2736, Note_on_c, 4, 63, 64
6, 3072, Note_off_c, 4, 63, 64
6, 3216, Note_on_c, 4, 50, 64
6, 3360, Note_off_c, 4, 50, 64
6, 3360, Note_on_c, 4, 57, 64
6, 3504, Note_off_c, 4, 57, 64
6, 3504, Note_on_c, 4, 62, 64
6, 3792, Note_off_c, 4, 62, 64
6, 3840, Instrument_name_t, "wave: square, volume: medium, envelope: sudden, filter: decay sharp, chorus: union, effect: none"
6, 3840, Program_c, 4, 46
6, 3840, Control_c, 4, 7, 76
6, 3840, Note_on_c, 4, 66, 64
6, 3888, Note_off_c, 4, 66, 64
6, 3888, Note_on_c, 4, 66, 64
6, 3936, Note_off_c, 4, 66, 64
6, 3936, Note_on_c, 4, 66, 64
6, 3984, Note_off_c, 4, 66, 64
6, 3984, Note_on_c, 4, 66, 64
6, 4032, Note_off_c, 4, 66, 64
6, 4032, Note_on_c, 4, 66, 64
6, 4080, Note_off_c, 4, 66, 64
6, 4080, Note_on_c, 4, 66, 64
6, 4128, Note_off_c, 4, 66, 64
6, 4128, Note_on_c, 4, 66, 64
6, 4176, Note_off_c, 4, 66, 64
6, 4176, Note_on_c, 4, 66, 64
6, 4224, Note_off_c, 4, 66, 64
6, 4224, Note_on_c, 4, 66, 64
6, 4272, Note_off_c, 4, 66, 64
6, 4272, Note_on_c, 4, 66, 64
6, 4320, Note_off_c, 4, 66, 64
6, 4320, Note_on_c, 4, 66, 64
6, 4368, Note_off_c, 4, 66, 64
6, 4368, Note_on_c, 4, 66, 64
6, 4416, Note_off_c, 4, 66, 64
6, 4416, Note_on_c, 4, 66, 64
6, 4464, Note_off_c, 4, 66, 64
6, 4464, Note_on_c, 4, 66, 64
6, 4512, Note_off_c, 4, 66, 64
6, 4512, Note_on_c, 4, 66, 64
6, 4560, Note_off_c, 4, 66, 64
6, 4560, Note_on_c, 4, 66, 64
6, 4608, Note_off_c, 4, 66, 64
6, 4608, Note_on_c, 4, 66, 64
6, 4656, Note_off_c, 4, 66, 64
6, 4656, Note_on_c, 4, 66, 64
6, 4704, Note_off_c, 4, 66, 64
6, 4704, Note_on_c, 4, 66, 64
6, 4752, Note_off_c, 4, 66, 64
6, 4752, Note_on_c, 4, 66, 64
6, 4800, Note_off_c, 4, 66, 64
6, 4800, Note_on_c, 4, 66, 64
6, 4848, Note_off_c, 4, 66, 64
6, 4848, Note_on_c, 4, 66, 64
6, 4896, Note_off_c, 4, 66, 64
6, 4896, Note_on_c, 4, 66, 64
6, 4944, Note_off_c, 4, 66, 64
6, 4944, Note_on_c, 4, 66, 64
6, 4992, Note_off_c, 4, 66, 64
6, 4992, Note_on_c, 4, 65, 64
6, 5040, Note_off_c, 4, 65, 64
6, 5040, Note_on_c, 4, 65, 64
6, 5088, Note_off_c, 4, 65, 64
6, 5088, Note_on_c, 4, 65, 64
6, 5136, Note_off_c, 4, 65, 64
6, 5136, Note_on_c, 4, 65, 64
6, 5184, Note_off_c, 4, 65, 64
6, 5184, Note_on_c, 4, 65, 64
6, 5232, Note_off_c, 4, 65, 64
6, 5232, Note_on_c, 4, 65, 64
6, 5280, Note_off_c, 4, 65, 64
6, 5280, Note_on_c, 4, 65, 64
6, 5328, Note_off_c, 4, 65, 64
6, 5328, Note_on_c, 4, 65, 64
6, 5376, Note_off_c, 4, 65, 64
6, 5376, Note_on_c, 4, 63, 64
6, 5424, Note_off_c, 4, 63, 64
6, 5424, Note_on_c, 4, 63, 64
6, 5472, Note_off_c, 4, 63, 64
6, 5472, Note_on_c, 4, 63, 64
6, 5520, Note_off_c, 4, 63, 64
6, 5520, Note_on_c, 4, 63, 64
6, 5568, Note_off_c, 4, 63, 64
6, 5568, Note_on_c, 4, 63, 64
6, 5616, Note_off_c, 4, 63, 64
6, 5616, Note_on_c, 4, 63, 64
6, 5664, Note_off_c, 4, 63, 64
6, 5664, Note_on_c, 4, 63, 64
6, 5712, Note_off_c, 4, 63, 64
6, 5712, Note_on_c, 4, 63, 64
6, 5760, Note_off_c, 4, 63, 64
6, 5760, Note_on_c, 4, 61, 64
6, 5808, Note_off_c, 4, 61, 64
6, 5808, Note_on_c, 4, 61, 64
6, 5856, Note_off_c, 4, 61, 64
6, 5856, Note_on_c, 4, 61, 64
6, 5904, Note_off_c, 4, 61, 64
6, 5904, Note_on_c, 4, 61, 64
6, 5952, Note_off_c, 4, 61, 64
6, 5952, Note_on_c, 4, 61, 64
6, 6000, Note_off_c, 4, 61, 64
6, 6000, Note_on_c, 4, 61, 64
6, 6048, Note_off_c, 4, 61, 64
6, 6048, Note_on_c, 4, 61, 64
6, 6096, Note_off_c, 4, 61, 64
6, 6096, Note_on_c, 4, 61, 64
6, 6144, Note_off_c, 4, 61, 64
6, 6144, Note_on_c, 4, 59, 64
6, 6192, Note_off_c, 4, 59, 64
6, 6192, Note_on_c, 4, 59, 64
6, 6240, Note_off_c, 4, 59, 64
6, 6240, Note_on_c, 4, 59, 64
6, 6288, Note_off_c, 4, 59, 64
6, 6288, Note_on_c, 4, 59, 64
6, 6336, Note_off_c, 4, 59, 64
6, 6336, Note_on_c, 4, 59, 64
6, 6384, Note_off_c, 4, 59, 64
6, 6384, Note_on_c, 4, 59, 64
6, 6432, Note_off_c, 4, 59, 64
6, 6432, Note_on_c, 4, 59, 64
6, 6480, Note_off_c, 4, 59, 64
6, 6480, Note_on_c, 4, 59, 64
6, 6528, Note_off_c, 4, 59, 64
6, 6528, Note_on_c, 4, 60, 64
6, 6576, Note_off_c, 4, 60, 64
6, 6576, Note_on_c, 4, 60, 64
6, 6624, Note_off_c, 4, 60, 64
6, 6624, Note_on_c, 4, 60, 64
6, 6672, Note_off_c, 4, 60, 64
6, 6672, Note_on_c, 4, 60, 64
6, 6720, Note_off_c, 4, 60, 64
6, 6720, Note_on_c, 4, 60, 64
6, 6768, Note_off_c, 4, 60, 64
6, 6768, Note_on_c, 4, 60, 64
6, 6816, Note_off_c, 4, 60, 64
6, 6816, Note_on_c, 4, 60, 64
6, 6864, Note_off_c, 4, 60, 64
6, 6864, Note_on_c, 4, 60, 64
6, 6912, Note_off_c, 4, 60, 64
6, 6912, Note_on_c, 4, 61, 64
6, 6960, Note_off_c, 4, 61, 64
6, 6960, Note_on_c, 4, 61, 64
6, 7008, Note_off_c, 4, 61, 64
6, 7008, Note_on_c, 4, 61, 64
6, 7056, Note_off_c, 4, 61, 64
6, 7056, Note_on_c, 4, 61, 64
6, 7104, Note_off_c, 4, 61, 64
6, 7104, Note_on_c, 4, 61, 64
6, 7152, Note_off_c, 4, 61, 64
6, 7152, Note_on_c, 4, 61, 64
6, 7200, Note_off_c, 4, 61, 64
6, 7200, Note_on_c, 4, 61, 64
6, 7248, Note_off_c, 4, 61, 64
6, 7248, Note_on_c, 4, 61, 64
6, 7296, Note_off_c, 4, 61, 64
6, 7296, Note_on_c, 4, 61, 64
6, 7344, Note_off_c, 4, 61, 64
6, 7344, Note_on_c, 4, 61, 64
6, 7392, Note_off_c, 4, 61, 64
6, 7392, Note_on_c, 4, 61, 64
6, 7440, Note_off_c, 4, 61, 64
6, 7440, Note_on_c, 4, 61, 64
6, 7488, Note_off_c, 4, 61, 64
6, 7488, Note_on_c, 4, 61, 64
6, 7536, Note_off_c, 4, 61, 64
6, 7536, Note_on_c, 4, 61, 64
6, 7584, Note_off_c, 4, 61, 64
6, 7584, Note_on_c, 4, 61, 64
6, 7632, Note_off_c, 4, 61, 64
6, 7632, Note_on_c, 4, 61, 64
6, 7680, Note_off_c, 4, 61, 64
6, 7680, Note_on_c, 4, 66, 64
6, 7728, Note_off_c, 4, 66, 64
6, 7728, Note_on_c, 4, 66, 64
6, 7776, Note_off_c, 4, 66, 64
6, 7776, Note_on_c, 4, 66, 64
6, 7824, Note_off_c, 4, 66, 64
6, 7824, Note_on_c, 4, 66, 64
6, 7872, Note_off_c, 4, 66, 64
6, 7872, Note_on_c, 4, 66, 64
6, 7920, Note_off_c, 4, 66, 64
6, 7920, Note_on_c, 4, 66, 64
6, 7968, Note_off_c, 4, 66, 64
6, 7968, Note_on_c, 4, 66, 64
6, 8016, Note_off_c, 4, 66, 64
6, 8016, Note_on_c, 4, 66, 64
6, 8064, Note_off_c, 4, 66, 64
6, 8064, Note_on_c, 4, 64, 64
6, 8112, Note_off_c, 4, 64, 64
6, 8112, Note_on_c, 4, 64, 64
6, 8160, Note_off_c, 4, 64, 64
6, 8160, Note_on_c, 4, 64, 64
6, 8208, Note_off_c, 4, 64, 64
6, 8208, Note_on_c, 4, 64, 64
6, 8256, Note_off_c, 4, 64, 64
6, 8256, Note_on_c, 4, 64, 64
6, 8304, Note_off_c, 4, 64, 64
6, 8304, Note_on_c, 4, 64, 64
6, 8352, Note_off_c, 4, 64, 64
6, 8352, Note_on_c, 4, 64, 64
6, 8400, Note_off_c, 4, 64, 64
6, 8400, Note_on_c, 4, 64, 64
6, 8448, Note_off_c, 4, 64, 64
6, 8448, Note_on_c, 4, 63, 64
6, 8496, Note_off_c, 4, 63, 64
6, 8496, Note_on_c, 4, 63, 64
6, 8544, Note_off_c, 4, 63, 64
6, 8544, Note_on_c, 4, 63, 64
6, 8592, Note_off_c, 4, 63, 64
6, 8592, Note_on_c, 4, 63, 64
6, 8640, Note_off_c, 4, 63, 64
6, 8640, Note_on_c, 4, 63, 64
6, 8688, Note_off_c, 4, 63, 64
6, 8688, Note_on_c, 4, 63, 64
6, 8736, Note_off_c, 4, 63, 64
6, 8736, Note_on_c, 4, 63, 64
6, 8784, Note_off_c, 4, 63, 64
6, 8784, Note_on_c, 4, 63, 64
6, 8832, Note_off_c, 4, 63, 64
6, 8832, Note_on_c, 4, 62, 64
6, 8880, Note_off_c, 4, 62, 64
6, 8880, Note_on_c, 4, 62, 64
6, 8928, Note_off_c, 4, 62, 64
6, 8928, Note_on_c, 4, 62, 64
6, 8976, Note_off_c, 4, 62, 64
6, 8976, Note_on_c, 4, 62, 64
6, 9024, Note_off_c, 4, 62, 64
6, 9024, Note_on_c, 4, 62, 64
6, 9072, Note_off_c, 4, 62, 64
6, 9072, Note_on_c, 4, 62, 64
6, 9120, Note_off_c, 4, 62, 64
6, 9120, Note_on_c, 4, 62, 64
6, 9168, Note_off_c, 4, 62, 64
6, 9168, Note_on_c, 4, 62, 64
6, 9216, Note_off_c, 4, 62, 64
6, 9216, Note_on_c, 4, 61, 64
6, 9264, Note_off_c, 4, 61, 64
6, 9264, Note_on_c, 4, 61, 64
6, 9312, Note_off_c, 4, 61, 64
6, 9312, Note_on_c, 4, 61, 64
6, 9360, Note_off_c, 4, 61, 64
6, 9360, Note_on_c, 4, 61, 64
6, 9408, Note_off_c, 4, 61, 64
6, 9408, Note_on_c, 4, 61, 64
6, 9456, Note_off_c, 4, 61, 64
6, 9456, Note_on_c, 4, 61, 64
6, 9504, Note_off_c, 4, 61, 64
6, 9504, Note_on_c, 4, 61, 64
6, 9552, Note_off_c, 4, 61, 64
6, 9552, Note_on_c, 4, 61, 64
6, 9600, Note_off_c, 4, 61, 64
6, 9600, Note_on_c, 4, 60, 64
6, 9648, Note_off_c, 4, 60, 64
6, 9648, Note_on_c, 4, 60, 64
6, 9696, Note_off_c, 4, 60, 64
6, 9696, Note_on_c, 4, 60, 64
6, 9744, Note_off_c, 4, 60, 64
6, 9744, Note_on_c, 4, 60, 64
6, 9792, Note_off_c, 4, 60, 64
6, 9792, Note_on_c, 4, 61, 64
6, 9840, Note_off_c, 4, 61, 64
6, 9840, Note_on_c, 4, 61, 64
6, 9888, Note_off_c, 4, 61, 64
6, 9888, Note_on_c, 4, 61, 64
6, 9936, Note_off_c, 4, 61, 64
6, 9936, Note_on_c, 4, 61, 64
6, 9984, Note_off_c, 4, 61, 64
6, 9984, Instrument_name_t, "wave: square, volume: medium, envelope: sudden, filter: sustain sharp, chorus: union, effect: none"
6, 9984, Program_c, 4, 80
6, 9984, Control_c, 4, 7, 76
6, 9984, Note_on_c, 4, 62, 64
6, 10032, Note_off_c, 4, 62, 64
6, 10128, Note_on_c, 4, 64, 64
6, 10176, Note_off_c, 4, 64, 64
6, 10272, Note_on_c, 4, 66, 64
6, 10416, Note_off_c, 4, 66, 64
6, 10416, Note_on_c, 4, 54, 64
6, 10464, Note_off_c, 4, 54, 64
6, 10464, Note_on_c, 4, 54, 64
6, 10512, Note_off_c, 4, 54, 64
6, 10512, Note_on_c, 4, 54, 64
6, 10560, Note_off_c, 4, 54, 64
6, 10560, Note_on_c, 4, 54, 64
6, 10608, Note_off_c, 4, 54, 64
6, 10608, Note_on_c, 4, 54, 64
6, 10656, Note_off_c, 4, 54, 64
6, 10656, Note_on_c, 4, 54, 64
6, 10704, Note_off_c, 4, 54, 64
6, 10704, Note_on_c, 4, 54, 64
6, 10752, Note_off_c, 4, 54, 64
6, 10752, Instrument_name_t, "wave: square, volume: medium, envelope: sudden, filter: decay sharp, chorus: union, effect: none"
6, 10752, Program_c, 4, 46
6, 10752, Control_c, 4, 7, 76
6, 10752, Note_on_c, 4, 59, 64
6, 10800, Note_off_c, 4, 59, 64
6, 10800, Note_on_c, 4, 59, 64
6, 10848, Note_off_c, 4, 59, 64
6, 10944, Note_on_c, 4, 64, 64
6, 10992, Note_off_c, 4, 64, 64
6, 10992, Note_on_c, 4, 64, 64
6, 11040, Note_off_c, 4, 64, 64
6, 11088, Note_on_c, 4, 57, 64
6, 11184, Note_off_c, 4, 57, 64
6, 11184, Note_on_c, 4, 57, 64
6, 11232, Note_off_c, 4, 57, 64
6, 11232, Note_on_c, 4, 57, 64
6, 11280, Note_off_c, 4, 57, 64
6, 11280, Note_on_c, 4, 57, 64
6, 11328, Note_off_c, 4, 57, 64
6, 11328, Note_on_c, 4, 57, 64
6, 11376, Note_off_c, 4, 57, 64
6, 11376, Note_on_c, 4, 57, 64
6, 11424, Note_off_c, 4, 57, 64
6, 11424, Note_on_c, 4, 57, 64
6, 11472, Note_off_c, 4, 57, 64
6, 11472, Note_on_c, 4, 57, 64
6, 11520, Note_off_c, 4, 57, 64
6, 11520, Note_on_c, 4, 59, 64
6, 11568, Note_off_c, 4, 59, 64
6, 11568, Note_on_c, 4, 59, 64
6, 11616, Note_off_c, 4, 59, 64
6, 11616, Note_on_c, 4, 59, 64
6, 11664, Note_off_c, 4, 59, 64
6, 11664, Note_on_c, 4, 59, 64
6, 11712, Note_off_c, 4, 59, 64
6, 11712, Note_on_c, 4, 59, 64
6, 11760, Note_off_c, 4, 59, 64
6, 11760, Note_on_c, 4, 59, 64
6, 11808, Note_off_c, 4, 59, 64
6, 11808, Note_on_c, 4, 59, 64
6, 11856, Note_off_c, 4, 59, 64
6, 11856, Note_on_c, 4, 59, 64
6, 11904, Note_off_c, 4, 59, 64
6, 11904, Note_on_c, 4, 61, 64
6, 11952, Note_off_c, 4, 61, 64
6, 11952, Note_on_c, 4, 61, 64
6, 12000, Note_off_c, 4, 61, 64
6, 12000, Note_on_c, 4, 61, 64
6, 12048, Note_off_c, 4, 61, 64
6, 12048, Note_on_c, 4, 61, 64
6, 12096, Note_off_c, 4, 61, 64
6, 12096, Note_on_c, 4, 61, 64
6, 12144, Note_off_c, 4, 61, 64
6, 12144, Note_on_c, 4, 61, 64
6, 12192, Note_off_c, 4, 61, 64
6, 12192, Note_on_c, 4, 61, 64
6, 12240, Note_off_c, 4, 61, 64
6, 12240, Note_on_c, 4, 61, 64
6, 12288, Note_off_c, 4, 61, 64
6, 12288, Note_on_c, 4, 59, 64
6, 12336, Note_off_c, 4, 59, 64
6, 12336, Note_on_c, 4, 59, 64
6, 12384, Note_off_c, 4, 59, 64
6, 12480, Note_on_c, 4, 64, 64
6, 12528, Note_off_c, 4, 64, 64
6, 12528, Note_on_c, 4, 64, 64
6, 12576, Note_off_c, 4, 64, 64
6, 12624, Note_on_c, 4, 57, 64
6, 12720, Note_off_c, 4, 57, 64
6, 12720, Note_on_c, 4, 57, 64
6, 12768, Note_off_c, 4, 57, 64
6, 12768, Note_on_c, 4, 57, 64
6, 12816, Note_off_c, 4, 57, 64
6, 12816, Note_on_c, 4, 57, 64
6, 12864, Note_off_c, 4, 57, 64
6, 12864, Note_on_c, 4, 57, 64
6, 12912, Note_off_c, 4, 57, 64
6, 12912, Note_on_c, 4, 57, 64
6, 12960, Note_off_c, 4, 57, 64
6, 12960, Note_on_c, 4, 57, 64
6, 13008, Note_off_c, 4, 57, 64
6, 13008, Note_on_c, 4, 57, 64
6, 13056, Note_off_c, 4, 57, 64
6, 13056, Note_on_c, 4, 59, 64
6, 13104, Note_off_c, 4, 59, 64
6, 13104, Note_on_c, 4, 59, 64
6, 13152, Note_off_c, 4, 59, 64
6, 13152, Note_on_c, 4, 59, 64
6, 13200, Note_off_c, 4, 59, 64
6, 13200, Note_on_c, 4, 59, 64
6, 13248, Note_off_c, 4, 59, 64
6, 13248, Note_on_c, 4, 59, 64
6, 13296, Note_off_c, 4, 59, 64
6, 13296, Note_on_c, 4, 59, 64
6, 13344, Note_off_c, 4, 59, 64
6, 13344, Note_on_c, 4, 59, 64
6, 13392, Note_off_c, 4, 59, 64
6, 13392, Note_on_c, 4, 59, 64
6, 13440, Note_off_c, 4, 59, 64
6, 13440, Note_on_c, 4, 61, 64
6, 13488, Note_off_c, 4, 61, 64
6, 13488, Note_on_c, 4, 61, 64
6, 13536, Note_off_c, 4, 61, 64
6, 13536, Note_on_c, 4, 61, 64
6, 13584, Note_off_c, 4, 61, 64
6, 13584, Note_on_c, 4, 61, 64
6, 13632, Note_off_c, 4, 61, 64
6, 13632, Note_on_c, 4, 61, 64
6, 13680, Note_off_c, 4, 61, 64
6, 13680, Note_on_c, 4, 61, 64
6, 13728, Note_off_c, 4, 61, 64
6, 13728, Note_on_c, 4, 61, 64
6, 13776, Note_off_c, 4, 61, 64
6, 13776, Note_on_c, 4, 61, 64
6, 13824, Note_off_c, 4, 61, 64
6, 13824, Note_on_c, 4, 62, 64
6, 13872, Note_off_c, 4, 62, 64
6, 13872, Note_on_c, 4, 62, 64
6, 13920, Note_off_c, 4, 62, 64
6, 13920, Note_on_c, 4, 62, 64
6, 13968, Note_off_c, 4, 62, 64
6, 13968, Note_on_c, 4, 62, 64
6, 14016, Note_off_c, 4, 62, 64
6, 14016, Note_on_c, 4, 62, 64
6, 14064, Note_off_c, 4, 62, 64
6, 14064, Note_on_c, 4, 62, 64
6, 14112, Note_off_c, 4, 62, 64
6, 14112, Note_on_c, 4, 62, 64
6, 14160, Note_off_c, 4, 62, 64
6, 14160, Note_on_c, 4, 62, 64
6, 14208, Note_off_c, 4, 62, 64
6, 14208, Note_on_c, 4, 62, 64
6, 14256, Note_off_c, 4, 62, 64
6, 14256, Note_on_c, 4, 62, 64
6, 14304, Note_off_c, 4, 62, 64
6, 14304, Note_on_c, 4, 62, 64
6, 14352, Note_off_c, 4, 62, 64
6, 14352, Note_on_c, 4, 62, 64
6, 14400, Note_off_c, 4, 62, 64
6, 14400, Note_on_c, 4, 50, 64
6, 14496, Note_off_c, 4, 50, 64
6, 14496, Note_on_c, 4, 52, 64
6, 14592, Note_off_c, 4, 52, 64
6, 14592, Note_on_c, 4, 66, 64
6, 14640, Note_off_c, 4, 66, 64
6, 14640, Note_on_c, 4, 66, 64
6, 14688, Note_off_c, 4, 66, 64
6, 14688, Note_on_c, 4, 66, 64
6, 14736, Note_off_c, 4, 66, 64
6, 14736, Note_on_c, 4, 66, 64
6, 14784, Note_off_c, 4, 66, 64
6, 14784, Note_on_c, 4, 66, 64
6, 14832, Note_off_c, 4, 66, 64
6, 14832, Note_on_c, 4, 66, 64
6, 14880, Note_off_c, 4, 66, 64
6, 14880, Note_on_c, 4, 66, 64
6, 14928, Note_off_c, 4, 66, 64
6, 14928, Note_on_c, 4, 66, 64
6, 14976, Note_off_c, 4, 66, 64
6, 14976, Note_on_c, 4, 65, 64
6, 15024, Note_off_c, 4, 65, 64
6, 15024, Note_on_c, 4, 65, 64
6, 15072, Note_off_c, 4, 65, 64
6, 15072, Note_on_c, 4, 65, 64
6, 15120, Note_off_c, 4, 65, 64
6, 15120, Note_on_c, 4, 65, 64
6, 15168, Note_off_c, 4, 65, 64
6, 15168, Note_on_c, 4, 65, 64
6, 15216, Note_off_c, 4, 65, 64
6, 15216, Note_on_c, 4, 65, 64
6, 15264, Note_off_c, 4, 65, 64
6, 15264, Note_on_c, 4, 65, 64
6, 15312, Note_off_c, 4, 65, 64
6, 15312, Note_on_c, 4, 65, 64
6, 15360, Note_off_c, 4, 65, 64
6, 15360, Note_on_c, 4, 63, 64
6, 15408, Note_off_c, 4, 63, 64
6, 15408, Note_on_c, 4, 63, 64
6, 15456, Note_off_c, 4, 63, 64
6, 15456, Note_on_c, 4, 63, 64
6, 15504, Note_off_c, 4, 63, 64
6, 15504, Note_on_c, 4, 63, 64
6, 15552, Note_off_c, 4, 63, 64
6, 15552, Note_on_c, 4, 63, 64
6, 15600, Note_off_c, 4, 63, 64
6, 15600, Note_on_c, 4, 63, 64
6, 15648, Note_off_c, 4, 63, 64
6, 15648, Note_on_c, 4, 63, 64
6, 15696, Note_off_c, 4, 63, 64
6, 15696, Note_on_c, 4, 63, 64
6, 15744, Note_off_c, 4, 63, 64
6, 15744, Note_on_c, 4, 61, 64
6, 15792, Note_off_c, 4, 61, 64
6, 15792, Note_on_c, 4, 61, 64
6, 15840, Note_off_c, 4, 61, 64
6, 15840, Note_on_c, 4, 61, 64
6, 15888, Note_off_c, 4, 61, 64
6, 15888, Note_on_c, 4, 61, 64
6, 15936, Note_off_c, 4, 61, 64
6, 15936, Note_on_c, 4, 61, 64
6, 15984, Note_off_c, 4, 61, 64
6, 15984, Note_on_c, 4, 61, 64
6, 16032, Note_off_c, 4, 61, 64
6, 16032, Note_on_c, 4, 61, 64
6, 16080, Note_off_c, 4, 61, 64
6, 16080, Note_on_c, 4, 61, 64
6, 16128, Note_off_c, 4, 61, 64
6, 16128, Note_on_c, 4, 59, 64
6, 16176, Note_off_c, 4, 59, 64
6, 16176, Note_on_c, 4, 59, 64
6, 16224, Note_off_c, 4, 59, 64
6, 16224, Note_on_c, 4, 59, 64
6, 16272, Note_off_c, 4, 59, 64
6, 16272, Note_on_c, 4, 59, 64
6, 16320, Note_off_c, 4, 59, 64
6, 16320, Note_on_c, 4, 59, 64
6, 16368, Note_off_c, 4, 59, 64
6, 16368, Note_on_c, 4, 59, 64
6, 16416, Note_off_c, 4, 59, 64
6, 16416, Note_on_c, 4, 59, 64
6, 16464, Note_off_c, 4, 59, 64
6, 16464, Note_on_c, 4, 59, 64
6, 16512, Note_off_c, 4, 59, 64
6, 16512, Note_on_c, 4, 60, 64
6, 16560, Note_off_c, 4, 60, 64
6, 16560, Note_on_c, 4, 60, 64
6, 16608, Note_off_c, 4, 60, 64
6, 16608, Note_on_c, 4, 60, 64
6, 16656, Note_off_c, 4, 60, 64
6, 16656, Note_on_c, 4, 60, 64
6, 16704, Note_off_c, 4, 60, 64
6, 16704, Note_on_c, 4, 60, 64
6, 16752, Note_off_c, 4, 60, 64
6, 16752, Note_on_c, 4, 60, 64
6, 16800, Note_off_c, 4, 60, 64
6, 16800, Note_on_c, 4, 60, 64
6, 16848, Note_off_c, 4, 60, 64
6, 16848, Note_on_c, 4, 60, 64
6, 16896, Note_off_c, 4, 60, 64
6, 16896, Note_on_c, 4, 61, 64
6, 16944, Note_off_c, 4, 61, 64
6, 16944, Note_on_c, 4, 61, 64
6, 16992, Note_off_c, 4, 61, 64
6, 16992, Note_on_c, 4, 61, 64
6, 17040, Note_off_c, 4, 61, 64
6, 17040, Note_on_c, 4, 61, 64
6, 17088, Note_off_c, 4, 61, 64
6, 17088, Note_on_c, 4, 61, 64
6, 17136, Note_off_c, 4, 61, 64
6, 17136, Note_on_c, 4, 61, 64
6, 17184, Note_off_c, 4, 61, 64
6, 17184, Note_on_c, 4, 61, 64
6, 17232, Note_off_c, 4, 61, 64
6, 17232, Note_on_c, 4, 61, 64
6, 17280, Note_off_c, 4, 61, 64
6, 17280, Note_on_c, 4, 61, 64
6, 17328, Note_off_c, 4, 61, 64
6, 17328, Note_on_c, 4, 61, 64
6, 17376, Note_off_c, 4, 61, 64
6, 17376, Note_on_c, 4, 61, 64
6, 17424, Note_off_c, 4, 61, 64
6, 17424, Note_on_c, 4, 61, 64
6, 17472, Note_off_c, 4, 61, 64
6, 17472, Note_on_c, 4, 61, 64
6, 17520, Note_off_c, 4, 61, 64
6, 17520, Note_on_c, 4, 61, 64
6, 17568, Note_off_c, 4, 61, 64
6, 17568, Note_on_c, 4, 61, 64
6, 17616, Note_off_c, 4, 61, 64
6, 17616, Note_on_c, 4, 61, 64
6, 17664, Note_off_c, 4, 61, 64
6, 17664, Note_on_c, 4, 66, 64
6, 17712, Note_off_c, 4, 66, 64
6, 17712, Note_on_c, 4, 66, 64
6, 17760, Note_off_c, 4, 66, 64
6, 17760, Note_on_c, 4, 66, 64
6, 17808, Note_off_c, 4, 66, 64
6, 17808, Note_on_c, 4, 66, 64
6, 17856, Note_off_c, 4, 66, 64
6, 17856, Note_on_c, 4, 66, 64
6, 17904, Note_off_c, 4, 66, 64
6, 17904, Note_on_c, 4, 66, 64
6, 17952, Note_off_c, 4, 66, 64
6, 17952, Note_on_c, 4, 66, 64
6, 18000, Note_off_c, 4, 66, 64
6, 18000, Note_on_c, 4, 66, 64
6, 18048, Note_off_c, 4, 66, 64
6, 18048, Note_on_c, 4, 64, 64
6, 18096, Note_off_c, 4, 64, 64
6, 18096, Note_on_c, 4, 64, 64
6, 18144, Note_off_c, 4, 64, 64
6, 18144, Note_on_c, 4, 64, 64
6, 18192, Note_off_c, 4, 64, 64
6, 18192, Note_on_c, 4, 64, 64
6, 18240, Note_off_c, 4, 64, 64
6, 18240, Note_on_c, 4, 64, 64
6, 18288, Note_off_c, 4, 64, 64
6, 18288, Note_on_c, 4, 64, 64
6, 18336, Note_off_c, 4, 64, 64
6, 18336, Note_on_c, 4, 64, 64
6, 18384, Note_off_c, 4, 64, 64
6, 18384, Note_on_c, 4, 64, 64
6, 18432, Note_off_c, 4, 64, 64
6, 18432, Note_on_c, 4, 63, 64
6, 18480, Note_off_c, 4, 63, 64
6, 18480, Note_on_c, 4, 63, 64
6, 18528, Note_off_c, 4, 63, 64
6, 18528, Note_on_c, 4, 63, 64
6, 18576, Note_off_c, 4, 63, 64
6, 18576, Note_on_c, 4, 63, 64
6, 18624, Note_off_c, 4, 63, 64
6, 18624, Note_on_c, 4, 63, 64
6, 18672, Note_off_c, 4, 63, 64
6, 18672, Note_on_c, 4, 63, 64
6, 18720, Note_off_c, 4, 63, 64
6, 18720, Note_on_c, 4, 63, 64
6, 18768, Note_off_c, 4, 63, 64
6, 18768, Note_on_c, 4, 63, 64
6, 18816, Note_off_c, 4, 63, 64
6, 18816, Note_on_c, 4, 62, 64
6, 18864, Note_off_c, 4, 62, 64
6, 18864, Note_on_c, 4, 62, 64
6, 18912, Note_off_c, 4, 62, 64
6, 18912, Note_on_c, 4, 62, 64
6, 18960, Note_off_c, 4, 62, 64
6, 18960, Note_on_c, 4, 62, 64
6, 19008, Note_off_c, 4, 62, 64
6, 19008, Note_on_c, 4, 62, 64
6, 19056, Note_off_c, 4, 62, 64
6, 19056, Note_on_c, 4, 62, 64
6, 19104, Note_off_c, 4, 62, 64
6, 19104, Note_on_c, 4, 62, 64
6, 19152, Note_off_c, 4, 62, 64
6, 19152, Note_on_c, 4, 62, 64
6, 19200, Note_off_c, 4, 62, 64
6, 19200, Note_on_c, 4, 61, 64
6, 19248, Note_off_c, 4, 61, 64
6, 19248, Note_on_c, 4, 61, 64
6, 19296, Note_off_c, 4, 61, 64
6, 19296, Note_on_c, 4, 61, 64
6, 19344, Note_off_c, 4, 61, 64
6, 19344, Note_on_c, 4, 61, 64
6, 19392, Note_off_c, 4, 61, 64
6, 19392, Note_on_c, 4, 61, 64
6, 19440, Note_off_c, 4, 61, 64
6, 19440, Note_on_c, 4, 61, 64
6, 19488, Note_off_c, 4, 61, 64
6, 19488, Note_on_c, 4, 61, 64
6, 19536, Note_off_c, 4, 61, 64
6, 19536, Note_on_c, 4, 61, 64
6, 19584, Note_off_c, 4, 61, 64
6, 19584, Note_on_c, 4, 60, 64
6, 19632, Note_off_c, 4, 60, 64
6, 19632, Note_on_c, 4, 60, 64
6, 19680, Note_off_c, 4, 60, 64
6, 19680, Note_on_c, 4, 60, 64
6, 19728, Note_off_c, 4, 60, 64
6, 19728, Note_on_c, 4, 60, 64
6, 19776, Note_off_c, 4, 60, 64
6, 19776, Note_on_c, 4, 61, 64
6, 19824, Note_off_c, 4, 61, 64
6, 19824, Note_on_c, 4, 61, 64
6, 19872, Note_off_c, 4, 61, 64
6, 19872, Note_on_c, 4, 61, 64
6, 19920, Note_off_c, 4, 61, 64
6, 19920, Note_on_c, 4, 61, 64
6, 19968, Note_off_c, 4, 61, 64
6, 19968, Instrument_name_t, "wave: square, volume: medium, envelope: sudden, filter: sustain sharp, chorus: union, effect: none"
6, 19968, Program_c, 4, 80
6, 19968, Control_c, 4, 7, 76
6, 19968, Note_on_c, 4, 62, 64
6, 20016, Note_off_c, 4, 62, 64
6, 20112, Note_on_c, 4, 64, 64
6, 20160, Note_off_c, 4, 64, 64
6, 20256, Note_on_c, 4, 66, 64
6, 20400, Note_off_c, 4, 66, 64
6, 20400, Note_on_c, 4, 54, 64
6, 20448, Note_off_c, 4, 54, 64
6, 20448, Note_on_c, 4, 54, 64
6, 20496, Note_off_c, 4, 54, 64
6, 20496, Note_on_c, 4, 54, 64
6, 20544, Note_off_c, 4, 54, 64
6, 20544, Note_on_c, 4, 54, 64
6, 20592, Note_off_c, 4, 54, 64
6, 20592, Note_on_c, 4, 54, 64
6, 20640, Note_off_c, 4, 54, 64
6, 20640, Note_on_c, 4, 54, 64
6, 20688, Note_off_c, 4, 54, 64
6, 20688, Note_on_c, 4, 54, 64
6, 20736, Note_off_c, 4, 54, 64
6, 20736, Instrument_name_t, "wave: square, volume: medium, envelope: sudden, filter: decay sharp, chorus: union, effect: none"
6, 20736, Program_c, 4, 46
6, 20736, Control_c, 4, 7, 76
6, 20736, Note_on_c, 4, 59, 64
6, 20784, Note_off_c, 4, 59, 64
6, 20784, Note_on_c, 4, 59, 64
6, 20832, Note_off_c, 4, 59, 64
6, 20928, Note_on_c, 4, 64, 64
6, 20976, Note_off_c, 4, 64, 64
6, 20976, Note_on_c, 4, 64, 64
6, 21024, Note_off_c, 4, 64, 64
6, 21072, Note_on_c, 4, 57, 64
6, 21168, Note_off_c, 4, 57, 64
6, 21168, Note_on_c, 4, 57, 64
6, 21216, Note_off_c, 4, 57, 64
6, 21216, Note_on_c, 4, 57, 64
6, 21264, Note_off_c, 4, 57, 64
6, 21264, Note_on_c, 4, 57, 64
6, 21312, Note_off_c, 4, 57, 64
6, 21312, Note_on_c, 4, 57, 64
6, 21360, Note_off_c, 4, 57, 64
6, 21360, Note_on_c, 4, 57, 64
6, 21408, Note_off_c, 4, 57, 64
6, 21408, Note_on_c, 4, 57, 64
6, 21456, Note_off_c, 4, 57, 64
6, 21456, Note_on_c, 4, 57, 64
6, 21504, Note_off_c, 4, 57, 64
6, 21504, Note_on_c, 4, 59, 64
6, 21552, Note_off_c, 4, 59, 64
6, 21552, Note_on_c, 4, 59, 64
6, 21600, Note_off_c, 4, 59, 64
6, 21600, Note_on_c, 4, 59, 64
6, 21648, Note_off_c, 4, 59, 64
6, 21648, Note_on_c, 4, 59, 64
6, 21696, Note_off_c, 4, 59, 64
6, 21696, Note_on_c, 4, 59, 64
6, 21744, Note_off_c, 4, 59, 64
6, 21744, Note_on_c, 4, 59, 64
6, 21792, Note_off_c, 4, 59, 64
6, 21792, Note_on_c, 4, 59, 64
6, 21840, Note_off_c, 4, 59, 64
6, 21840, Note_on_c, 4, 59, 64
6, 21888, Note_off_c, 4, 59, 64
6, 21888, Note_on_c, 4, 61, 64
6, 21936, Note_off_c, 4, 61, 64
6, 21936, Note_on_c, 4, 61, 64
6, 21984, Note_off_c, 4, 61, 64
6, 21984, Note_on_c, 4, 61, 64
6, 22032, Note_off_c, 4, 61, 64
6, 22032, Note_on_c, 4, 61, 64
6, 22080, Note_off_c, 4, 61, 64
6, 22080, Note_on_c, 4, 61, 64
6, 22128, Note_off_c, 4, 61, 64
6, 22128, Note_on_c, 4, 61, 64
6, 22176, Note_off_c, 4, 61, 64
6, 22176, Note_on_c, 4, 61, 64
6, 22224, Note_off_c, 4, 61, 64
6, 22224, Note_on_c, 4, 61, 64
6, 22272, Note_off_c, 4, 61, 64
6, 22272, Note_on_c, 4, 59, 64
6, 22320, Note_off_c, 4, 59, 64
6, 22320, Note_on_c, 4, 59, 64
6, 22368, Note_off_c, 4, 59, 64
6, 22464, Note_on_c, 4, 64, 64
6, 22512, Note_off_c, 4, 64, 64
6, 22512, Note_on_c, 4, 64, 64
6, 22560, Note_off_c, 4, 64, 64
6, 22608, Note_on_c, 4, 57, 64
6, 22704, Note_off_c, 4, 57, 64
6, 22704, Note_on_c, 4, 57, 64
6, 22752, Note_off_c, 4, 57, 64
6, 22752, Note_on_c, 4, 57, 64
6, 22800, Note_off_c, 4, 57, 64
6, 22800, Note_on_c, 4, 57, 64
6, 22848, Note_off_c, 4, 57, 64
6, 22848, Note_on_c, 4, 57, 64
6, 22896, Note_off_c, 4, 57, 64
6, 22896, Note_on_c, 4, 57, 64
6, 22944, Note_off_c, 4, 57, 64
6, 22944, Note_on_c, 4, 57, 64
6, 22992, Note_off_c, 4, 57, 64
6, 22992, Note_on_c, 4, 57, 64
6, 23040, Note_off_c, 4, 57, 64
6, 23040, Note_on_c, 4, 59, 64
6, 23088, Note_off_c, 4, 59, 64
6, 23088, Note_on_c, 4, 59, 64
6, 23136, Note_off_c, 4, 59, 64
6, 23136, Note_on_c, 4, 59, 64
6, 23184, Note_off_c, 4, 59, 64
6, 23184, Note_on_c, 4, 59, 64
6, 23232, Note_off_c, 4, 59, 64
6, 23232, Note_on_c, 4, 59, 64
6, 23280, Note_off_c, 4, 59, 64
6, 23280, Note_on_c, 4, 59, 64
6, 23328, Note_off_c, 4, 59, 64
6, 23328, Note_on_c, 4, 59, 64
6, 23376, Note_off_c, 4, 59, 64
6, 23376, Note_on_c, 4, 59, 64
6, 23424, Note_off_c, 4, 59, 64
6, 23424, Note_on_c, 4, 61, 64
6, 23472, Note_off_c, 4, 61, 64
6, 23472, Note_on_c, 4, 61, 64
6, 23520, Note_off_c, 4, 61, 64
6, 23520, Note_on_c, 4, 61, 64
6, 23568, Note_off_c, 4, 61, 64
6, 23568, Note_on_c, 4, 61, 64
6, 23616, Note_off_c, 4, 61, 64
6, 23616, Note_on_c, 4, 61, 64
6, 23664, Note_off_c, 4, 61, 64
6, 23664, Note_on_c, 4, 61, 64
6, 23712, Note_off_c, 4, 61, 64
6, 23712, Note_on_c, 4, 61, 64
6, 23760, Note_off_c, 4, 61, 64
6, 23760, Note_on_c, 4, 61, 64
6, 23808, Note_off_c, 4, 61, 64
6, 23808, Note_on_c, 4, 62, 64
6, 23856, Note_off_c, 4, 62, 64
6, 23856, Note_on_c, 4, 62, 64
6, 23904, Note_off_c, 4, 62, 64
6, 23904, Note_on_c, 4, 62, 64
6, 23952, Note_off_c, 4, 62, 64
6, 23952, Note_on_c, 4, 62, 64
6, 24000, Note_off_c, 4, 62, 64
6, 24000, Note_on_c, 4, 62, 64
6, 24048, Note_off_c, 4, 62, 64
6, 24048, Note_on_c, 4, 62, 64
6, 24096, Note_off_c, 4, 62, 64
6, 24096, Note_on_c, 4, 62, 64
6, 24144, Note_off_c, 4, 62, 64
6, 24144, Note_on_c, 4, 62, 64
6, 24192, Note_off_c, 4, 62, 64
6, 24192, Note_on_c, 4, 62, 64
6, 24240, Note_off_c, 4, 62, 64
6, 24240, Note_on_c, 4, 62, 64
6, 24288, Note_off_c, 4, 62, 64
6, 24288, Note_on_c, 4, 62, 64
6, 24336, Note_off_c, 4, 62, 64
6, 24336, Note_on_c, 4, 62, 64
6, 24384, Note_off_c, 4, 62, 64
6, 24384, Note_on_c, 4, 50, 64
6, 24480, Note_off_c, 4, 50, 64
6, 24480, Note_on_c, 4, 52, 64
6, 24576, Note_off_c, 4, 52, 64
6, 24576, Instrument_name_t, "wave: square, volume: medium, envelope: sudden, filter: sustain sharp, chorus: union, effect: none"
6, 24576, Program_c, 4, 80
6, 24576, Control_c, 4, 7, 76
6, 24576, Note_on_c, 4, 54, 64
6, 24580, Control_c, 4, 11, 126
6, 24586, Control_c, 4, 11, 125
6, 24592, Control_c, 4, 11, 124
6, 24598, Control_c, 4, 11, 123
6, 24604, Control_c, 4, 11, 122
6, 24610, Control_c, 4, 11, 121
6, 24616, Control_c, 4, 11, 120
6, 24622, Control_c, 4, 11, 119
6, 24628, Control_c, 4, 11, 118
6, 24634, Control_c, 4, 11, 117
6, 24640, Control_c, 4, 11, 116
6, 24646, Control_c, 4, 11, 115
6, 24652, Control_c, 4, 11, 114
6, 24658, Control_c, 4, 11, 113
6, 24664, Control_c, 4, 11, 112
6, 24670, Control_c, 4, 11, 111
6, 24676, Control_c, 4, 11, 110
6, 24682, Control_c, 4, 11, 109
6, 24688, Control_c, 4, 11, 108
6, 24694, Control_c, 4, 11, 107
6, 24700, Control_c, 4, 11, 106
6, 24707, Control_c, 4, 11, 105
6, 24713, Control_c, 4, 11, 104
6, 24719, Control_c, 4, 11, 103
6, 24725, Control_c, 4, 11, 102
6, 24731, Control_c, 4, 11, 101
6, 24737, Control_c, 4, 11, 100
6, 24743, Control_c, 4, 11, 99
6, 24749, Control_c, 4, 11, 98
6, 24755, Control_c, 4, 11, 97
6, 24761, Control_c, 4, 11, 96
6, 24767, Control_c, 4, 11, 95
6, 24773, Control_c, 4, 11, 94
6, 24779, Control_c, 4, 11, 93
6, 24785, Control_c, 4, 11, 92
6, 24791, Control_c, 4, 11, 91
6, 24797, Control_c, 4, 11, 90
6, 24803, Control_c, 4, 11, 89
6, 24809, Control_c, 4, 11, 88
6, 24815, Control_c, 4, 11, 87
6, 24821, Control_c, 4, 11, 86
6, 24827, Control_c, 4, 11, 85
6, 24834, Control_c, 4, 11, 84
6, 24840, Control_c, 4, 11, 83
6, 24846, Control_c, 4, 11, 82
6, 24852, Control_c, 4, 11, 81
6, 24858, Control_c, 4, 11, 80
6, 24864, Control_c, 4, 11, 79
6, 24870, Control_c, 4, 11, 78
6, 24876, Control_c, 4, 11, 77
6, 24882, Control_c, 4, 11, 76
6, 24888, Control_c, 4, 11, 75
6, 24894, Control_c, 4, 11, 74
6, 24900, Control_c, 4, 11, 73
6, 24906, Control_c, 4, 11, 72
6, 24912, Control_c, 4, 11, 71
6, 24918, Control_c, 4, 11, 70
6, 24924, Control_c, 4, 11, 69
6, 24930, Control_c, 4, 11, 68
6, 24936, Control_c, 4, 11, 67
6, 24942, Control_c, 4, 11, 66
6, 24948, Control_c, 4, 11, 65
6, 24954, Control_c, 4, 11, 64
6, 24961, Control_c, 4, 11, 63
6, 24967, Control_c, 4, 11, 62
6, 24973, Control_c, 4, 11, 61
6, 24979, Control_c, 4, 11, 60
6, 24985, Control_c, 4, 11, 59
6, 24991, Control_c, 4, 11, 58
6, 24997, Control_c, 4, 11, 57
6, 25003, Control_c, 4, 11, 56
6, 25009, Control_c, 4, 11, 55
6, 25015, Control_c, 4, 11, 54
6, 25021, Control_c, 4, 11, 53
6, 25027, Control_c, 4, 11, 52
6, 25033, Control_c, 4, 11, 51
6, 25039, Control_c, 4, 11, 50
6, 25045, Control_c, 4, 11, 49
6, 25051, Control_c, 4, 11, 48
6, 25057, Control_c, 4, 11, 47
6, 25063, Control_c, 4, 11, 46
6, 25069, Control_c, 4, 11, 45
6, 25075, Control_c, 4, 11, 44
6, 25081, Control_c, 4, 11, 43
6, 25087, Control_c, 4, 11, 42
6, 25094, Control_c, 4, 11, 41
6, 25100, Control_c, 4, 11, 40
6, 25106, Control_c, 4, 11, 39
6, 25112, Control_c, 4, 11, 38
6, 25118, Control_c, 4, 11, 37
6, 25124, Control_c, 4, 11, 36
6, 25130, Control_c, 4, 11, 35
6, 25136, Control_c, 4, 11, 34
6, 25142, Control_c, 4, 11, 33
6, 25148, Control_c, 4, 11, 32
6, 25154, Control_c, 4, 11, 31
6, 25160, Control_c, 4, 11, 30
6, 25166, Control_c, 4, 11, 29
6, 25172, Control_c, 4, 11, 28
6, 25178, Control_c, 4, 11, 27
6, 25184, Control_c, 4, 11, 26
6, 25190, Control_c, 4, 11, 25
6, 25196, Control_c, 4, 11, 24
6, 25202, Control_c, 4, 11, 23
6, 25208, Control_c, 4, 11, 22
6, 25214, Control_c, 4, 11, 21
6, 25221, Control_c, 4, 11, 20
6, 25227, Control_c, 4, 11, 19
6, 25233, Control_c, 4, 11, 18
6, 25239, Control_c, 4, 11, 17
6, 25245, Control_c, 4, 11, 16
6, 25251, Control_c, 4, 11, 15
6, 25257, Control_c, 4, 11, 14
6, 25263, Control_c, 4, 11, 13
6, 25269, Control_c, 4, 11, 12
6, 25275, Control_c, 4, 11, 11
6, 25281, Control_c, 4, 11, 10
6, 25287, Control_c, 4, 11, 9
6, 25293, Control_c, 4, 11, 8
6, 25299, Control_c, 4, 11, 7
6, 25305, Control_c, 4, 11, 6
6, 25311, Control_c, 4, 11, 5
6, 25317, Control_c, 4, 11, 4
6, 25323, Control_c, 4, 11, 3
6, 25329, Control_c, 4, 11, 2
6, 25335, Control_c, 4, 11, 1
6, 25341, Control_c, 4, 11, 0
6, 25344, Note_off_c, 4, 54, 64
6, 25344, End_track
7, 0, Start_track
7, 0, Title_t, "orange channel chorus"
7, 0, Control_c, 5, 126, 1
7, 0, Control_c, 5, 68, 127
7, 25344, End_track
8, 0, Start_track
8, 0, Title_t, "gray channel"
8, 0, Control_c, 6, 126, 1
8, 0, Control_c, 6, 68, 127
8, 3072, Instrument_name_t, "noise: white, volume: quiet, envelope: sudden"
8, 3072, Program_c, 6, 126
8, 3072, Control_c, 6, 7, 51
8, 3648, Pitch_bend_c, 6, 8192
8, 3648, Control_c, 6, 11, 127
8, 3648, Note_on_c, 6, 63, 64
8, 3649, Control_c, 6, 11, 124
8, 3650, Control_c, 6, 11, 122
8, 3651, Control_c, 6, 11, 119
8, 3652, Control_c, 6, 11, 116
8, 3653, Control_c, 6, 11, 114
8, 3654, Control_c, 6, 11, 111
8, 3655, Control_c, 6, 11, 108
8, 3656, Control_c, 6, 11, 106
8, 3657, Control_c, 6, 11, 103
8, 3658, Control_c, 6, 11, 101
8, 3659, Control_c, 6, 11, 98
8, 3660, Control_c, 6, 11, 95
8, 3661, Control_c, 6, 11, 93
8, 3662, Control_c, 6, 11, 90
8, 3663, Control_c, 6, 11, 87
8, 3664, Control_c, 6, 11, 85
8, 3665, Control_c, 6, 11, 82
8, 3666, Control_c, 6, 11, 79
8, 3667, Control_c, 6, 11, 77
8, 3668, Control_c, 6, 11, 74
8, 3669, Control_c, 6, 11, 71
8, 3670, Control_c, 6, 11, 69
8, 3671, Control_c, 6, 11, 66
8, 3672, Control_c, 6, 11, 64
8, 3673, Control_c, 6, 11, 61
8, 3674, Control_c, 6, 11, 58
8, 3675, Control_c, 6, 11, 56
8, 3676, Control_c, 6, 11, 53
8, 3677, Control_c, 6, 11, 50
8, 3678, Control_c, 6, 11, 48
8, 3679, Control_c, 6, 11, 45
8, 3680, Control_c, 6, 11, 42
8, 3681, Control_c, 6, 11, 40
8, 3682, Control_c, 6, 11, 37
8, 3683, Control_c, 6, 11, 34
8, 3684, Control_c, 6, 11, 32
8, 3685, Control_c, 6, 11, 29
8, 3686, Control_c, 6, 11, 26
8, 3687, Control_c, 6, 11, 24
8, 3688, Control_c, 6, 11, 21
8, 3689, Control_c, 6, 11, 19
8, 3690, Control_c, 6, 11, 16
8, 3691, Control_c, 6, 11, 13
8, 3692, Control_c, 6, 11, 11
8, 3693, Control_c, 6, 11, 8
8, 3694, Control_c, 6, 11, 5
8, 3695, Control_c, 6, 11, 3
8, 3696, Note_off_c, 6, 63, 64
8, 3696, Control_c, 6, 11, 127
8, 3696, Note_on_c, 6, 33, 64
8, 3697, Control_c, 6, 11, 124
8, 3698, Control_c, 6, 11, 122
8, 3699, Control_c, 6, 11, 119
8, 3700, Control_c, 6, 11, 116
8, 3701, Control_c, 6, 11, 114
8, 3702, Control_c, 6, 11, 111
8, 3703, Control_c, 6, 11, 108
8, 3704, Control_c, 6, 11, 106
8, 3705, Control_c, 6, 11, 103
8, 3706, Control_c, 6, 11, 101
8, 3707, Control_c, 6, 11, 98
8, 3708, Control_c, 6, 11, 95
8, 3709, Control_c, 6, 11, 93
8, 3710, Control_c, 6, 11, 90
8, 3711, Control_c, 6, 11, 87
8, 3712, Control_c, 6, 11, 85
8, 3713, Control_c, 6, 11, 82
8, 3714, Control_c, 6, 11, 79
8, 3715, Control_c, 6, 11, 77
8, 3716, Control_c, 6, 11, 74
8, 3717, Control_c, 6, 11, 71
8, 3718, Control_c, 6, 11, 69
8, 3719, Control_c, 6, 11, 66
8, 3720, Control_c, 6, 11, 64
8, 3721, Control_c, 6, 11, 61
8, 3722, Control_c, 6, 11, 58
8, 3723, Control_c, 6, 11, 56
8, 3724, Control_c, 6, 11, 53
8, 3725, Control_c, 6, 11, 50
8, 3726, Control_c, 6, 11, 48
8, 3727, Control_c, 6, 11, 45
8, 3728, Control_c, 6, 11, 42
8, 3729, Control_c, 6, 11, 40
8, 3730, Control_c, 6, 11, 37
8, 3731, Control_c, 6, 11, 34
8, 3732, Control_c, 6, 11, 32
8, 3733, Control_c, 6, 11, 29
8, 3734, Control_c, 6, 11, 26
8, 3735, Control_c, 6, 11, 24
8, 3736, Control_c, 6, 11, 21
8, 3737, Control_c, 6, 11, 19
8, 3738, Control_c, 6, 11, 16
8, 3739, Control_c, 6, 11, 13
8, 3740, Control_c, 6, 11, 11
8, 3741, Control_c, 6, 11, 8
8, 3742, Control_c, 6, 11, 5
8, 3743, Control_c, 6, 11, 3
8, 3744, Note_off_c, 6, 33, 64
8, 3744, Control_c, 6, 11, 127
8, 3744, Note_on_c, 6, 63, 64
8, 3745, Control_c, 6, 11, 124
8, 3746, Control_c, 6, 11, 122
8, 3747, Control_c, 6, 11, 119
8, 3748, Control_c, 6, 11, 116
8, 3749, Control_c, 6, 11, 114
8, 3750, Control_c, 6, 11, 111
8, 3751, Control_c, 6, 11, 108
8, 3752, Control_c, 6, 11, 106
8, 3753, Control_c, 6, 11, 103
8, 3754, Control_c, 6, 11, 101
8, 3755, Control_c, 6, 11, 98
8, 3756, Control_c, 6, 11, 95
8, 3757, Control_c, 6, 11, 93
8, 3758, Control_c, 6, 11, 90
8, 3759, Control_c, 6, 11, 87
8, 3760, Control_c, 6, 11, 85
8, 3761, Control_c, 6, 11, 82
8, 3762, Control_c, 6, 11, 79
8, 3763, Control_c, 6, 11, 77
8, 3764, Control_c, 6, 11, 74
8, 3765, Control_c, 6, 11, 71
8, 3766, Control_c, 6, 11, 69
8, 3767, Control_c, 6, 11, 66
8, 3768, Control_c, 6, 11, 64
8, 3769, Control_c, 6, 11, 61
8, 3770, Control_c, 6, 11, 58
8, 3771, Control_c, 6, 11, 56
8, 3772, Control_c, 6, 11, 53
8, 3773, Control_c, 6, 11, 50
8, 3774, Control_c, 6, 11, 48
8, 3775, Control_c, 6, 11, 45
8, 3776, Control_c, 6, 11, 42
8, 3777, Control_c, 6, 11, 40
8, 3778, Control_c, 6, 11, 37
8, 3779, Control_c, 6, 11, 34
8, 3780, Control_c, 6, 11, 32
8, 3781, Control_c, 6, 11, 29
8, 3782, Control_c, 6, 11, 26
8, 3783, Control_c, 6, 11, 24
8, 3784, Control_c, 6, 11, 21
8, 3785, Control_c, 6, 11, 19
8, 3786, Control_c, 6, 11, 16
8, 3787, Control_c, 6, 11, 13
8, 3788, Control_c, 6, 11, 11
8, 3789, Control_c, 6, 11, 8
8, 3790, Control_c, 6, 11, 5
8, 3791, Control_c, 6, 11, 3
8, 3792, Note_off_c, 6, 63, 64
8, 3792, Control_c, 6, 11, 127
8, 3792, Note_on_c, 6, 33, 64
8, 3793, Control_c, 6, 11, 124
8, 3794, Control_c, 6, 11, 122
8, 3795, Control_c, 6, 11, 119
8, 3796, Control_c, 6, 11, 116
8, 3797, Control_c, 6, 11, 114
8, 3798, Control_c, 6, 11, 111
8, 3799, Control_c, 6, 11, 108
8, 3800, Control_c, 6, 11, 106
8, 3801, Control_c, 6, 11, 103
8, 3802, Control_c, 6, 11, 101
8, 3803, Control_c, 6, 11, 98
8, 3804, Control_c, 6, 11, 95
8, 3805, Control_c, 6, 11, 93
8, 3806, Control_c, 6, 11, 90
8, 3807, Control_c, 6, 11, 87
8, 3808, Control_c, 6, 11, 85
8, 3809, Control_c, 6, 11, 82
8, 3810, Control_c, 6, 11, 79
8, 3811, Control_c, 6, 11, 77
8, 3812, Control_c, 6, 11, 74
8, 3813, Control_c, 6, 11, 71
8, 3814, Control_c, 6, 11, 69
8, 3815, Control_c, 6, 11, 66
8, 3816, Control_c, 6, 11, 64
8, 3817, Control_c, 6, 11, 61
8, 3818, Control_c, 6, 11, 58
8, 3819, Control_c, 6, 11, 56
8, 3820, Control_c, 6, 11, 53
8, 3821, Control_c, 6, 11, 50
8, 3822, Control_c, 6, 11, 48
8, 3823, Control_c, 6, 11, 45
8, 3824, Control_c, 6, 11, 42
8, 3825, Control_c, 6, 11, 40
8, 3826, Control_c, 6, 11, 37
8, 3827, Control_c, 6, 11, 34
8, 3828, Control_c, 6, 11, 32
8, 3829, Control_c, 6, 11, 29
8, 3830, Control_c, 6, 11, 26
8, 3831, Control_c, 6, 11, 24
8, 3832, Control_c, 6, 11, 21
8, 3833, Control_c, 6, 11, 19
8, 3834, Control_c, 6, 11, 16
8, 3835, Control_c, 6, 11, 13
8, 3836, Control_c, 6, 11, 11
8, 3837, Control_c, 6, 11, 8
8, 3838, Control_c, 6, 11, 5
8, 3839, Control_c, 6, 11, 3
8, 3840, Note_off_c, 6, 33, 64
8, 3840, Control_c, 6, 11, 127
8, 3840, Note_on_c, 6, 33, 64
8, 3841, Control_c, 6, 11, 124
8, 3842, Control_c, 6, 11, 122
8, 3843, Control_c, 6, 11, 119
8, 3844, Control_c, 6, 11, 116
8, 3845, Control_c, 6, 11, 114
8, 3846, Control_c, 6, 11, 111
8, 3847, Control_c, 6, 11, 108
8, 3848, Control_c, 6, 11, 106
8, 3849, Control_c, 6, 11, 103
8, 3850, Control_c, 6, 11, 101
8, 3851, Control_c, 6, 11, 98
8, 3852, Control_c, 6, 11, 95
8, 3853, Control_c, 6, 11, 93
8, 3854, Control_c, 6, 11, 90
8, 3855, Control_c, 6, 11, 87
8, 3856, Control_c, 6, 11, 85
8, 3857, Control_c, 6, 11, 82
8, 3858, Control_c, 6, 11, 79
8, 3859, Control_c, 6, 11, 77
8, 3860, Control_c, 6, 11, 74
8, 3861, Control_c, 6, 11, 71
8, 3862, Control_c, 6, 11, 69
8, 3863, Control_c, 6, 11, 66
8, 3864, Control_c, 6, 11, 64
8, 3865, Control_c, 6, 11, 61
8, 3866, Control_c, 6, 11, 58
8, 3867, Control_c, 6, 11, 56
8, 3868, Control_c, 6, 11, 53
8, 3869, Control_c, 6, 11, 50
8, 3870, Control_c, 6, 11, 48
8, 3871, Control_c, 6, 11, 45
8, 3872, Control_c, 6, 11, 42
8, 3873, Control_c, 6, 11, 40
8, 3874, Control_c, 6, 11, 37
8, 3875, Control_c, 6, 11, 34
8, 3876, Control_c, 6, 11, 32
8, 3877, Control_c, 6, 11, 29
8, 3878, Control_c, 6, 11, 26
8, 3879, Control_c, 6, 11, 24
8, 3880, Control_c, 6, 11, 21
8, 3881, Control_c, 6, 11, 19
8, 3882, Control_c, 6, 11, 16
8, 3883, Control_c, 6, 11, 13
8, 3884, Control_c, 6, 11, 11
8, 3885, Control_c, 6, 11, 8
8, 3886, Control_c, 6, 11, 5
8, 3887, Control_c, 6, 11, 3
8, 3888, Note_off_c, 6, 33, 64
8, 3888, Control_c, 6, 11, 127
8, 3888, Note_on_c, 6, 93, 64
8, 3889, Control_c, 6, 11, 124
8, 3890, Control_c, 6, 11, 122
8, 3891, Control_c, 6, 11, 119
8, 3892, Control_c, 6, 11, 116
8, 3893, Control_c, 6, 11, 114
8, 3894, Control_c, 6, 11, 111
8, 3895, Control_c, 6, 11, 108
8, 3896, Control_c, 6, 11, 106
8, 3897, Control_c, 6, 11, 103
8, 3898, Control_c, 6, 11, 101
8, 3899, Control_c, 6, 11, 98
8, 3900, Control_c, 6, 11, 95
8, 3901, Control_c, 6, 11, 93
8, 3902, Control_c, 6, 11, 90
8, 3903, Control_c, 6, 11, 87
8, 3904, Control_c, 6, 11, 85
8, 3905, Control_c, 6, 11, 82
8, 3906, Control_c, 6, 11, 79
8, 3907, Control_c, 6, 11, 77
8, 3908, Control_c, 6, 11, 74
8, 3909, Control_c, 6, 11, 71
8, 3910, Control_c, 6, 11, 69
8, 3911, Control_c, 6, 11, 66
8, 3912, Control_c, 6, 11, 64
8, 3913, Control_c, 6, 11, 61
8, 3914, Control_c, 6, 11, 58
8, 3915, Control_c, 6, 11, 56
8, 3916, Control_c, 6, 11, 53
8, 3917, Control_c, 6, 11, 50
8, 3918, Control_c, 6, 11, 48
8, 3919, Control_c, 6, 11, 45
8, 3920, Control_c, 6, 11, 42
8, 3921, Control_c, 6, 11, 40
8, 3922, Control_c, 6, 11, 37
8, 3923, Control_c, 6, 11, 34
8, 3924, Control_c, 6, 11, 32
8, 3925, Control_c, 6, 11, 29
8, 3926, Control_c, 6, 11, 26
8, 3927, Control_c, 6, 11, 24
8, 3928, Control_c, 6, 11, 21
8, 3929, Control_c, 6, 11, 19
8, 3930, Control_c, 6, 11, 16
8, 3931, Control_c, 6, 11, 13
8, 3932, Control_c, 6, 11, 11
8, 3933, Control_c, 6, 11, 8
8, 3934, Control_c, 6, 11, 5
8, 3935, Control_c, 6, 11, 3
8, 3936, Note_off_c, 6, 93, 64
8, 3936, Control_c, 6, 11, 127
8, 3936, Note_on_c, 6, 63, 64
8, 3937, Control_c, 6, 11, 124
8, 3938, Control_c, 6, 11, 122
8, 3939, Control_c, 6, 11, 119
8, 3940, Control_c, 6, 11, 116
8, 3941, Control_c, 6, 11, 114
8, 3942, Control_c, 6, 11, 111
8, 3943, Control_c, 6, 11, 108
8, 3944, Control_c, 6, 11, 106
8, 3945, Control_c, 6, 11, 103
8, 3946, Control_c, 6, 11, 101
8, 3947, Control_c, 6, 11, 98
8, 3948, Control_c, 6, 11, 95
8, 3949, Control_c, 6, 11, 93
8, 3950, Control_c, 6, 11, 90
8, 3951, Control_c, 6, 11, 87
8, 3952, Control_c, 6, 11, 85
8, 3953, Control_c, 6, 11, 82
8, 3954, Control_c, 6, 11, 79
8, 3955, Control_c, 6, 11, 77
8, 3956, Control_c, 6, 11, 74
8, 3957, Control_c, 6, 11, 71
8, 3958, Control_c, 6, 11, 69
8, 3959, Control_c, 6, 11, 66
8, 3960, Control_c, 6, 11, 64
8, 3961, Control_c, 6, 11, 61
8, 3962, Control_c, 6, 11, 58
8, 3963, Control_c, 6, 11, 56
8, 3964, Control_c, 6, 11, 53
8, 3965, Control_c, 6, 11, 50
8, 3966, Control_c, 6, 11, 48
8, 3967, Control_c, 6, 11, 45
8, 3968, Control_c, 6, 11, 42
8, 3969, Control_c, 6, 11, 40
8, 3970, Control_c, 6, 11, 37
8, 3971, Control_c, 6, 11, 34
8, 3972, Control_c, 6, 11, 32
8, 3973, Control_c, 6, 11, 29
8, 3974, Control_c, 6, 11, 26
8, 3975, Control_c, 6, 11, 24
8, 3976, Control_c, 6, 11, 21
8, 3977, Control_c, 6, 11, 19
8, 3978, Control_c, 6, 11, 16
8, 3979, Control_c, 6, 11, 13
8, 3980, Control_c, 6, 11, 11
8, 3981, Control_c, 6, 11, 8
8, 3982, Control_c, 6, 11, 5
8, 3983, Control_c, 6, 11, 3
8, 3984, Note_off_c, 6, 63, 64
8, 3984, Control_c, 6, 11, 127
8, 3984, Note_on_c, 6, 93, 64
8, 3985, Control_c, 6, 11, 124
8, 3986, Control_c, 6, 11, 122
8, 3987, Control_c, 6, 11, 119
8, 3988, Control_c, 6, 11, 116
8, 3989, Control_c, 6, 11, 114
8, 3990, Control_c, 6, 11, 111
8, 3991, Control_c, 6, 11, 108
8, 3992, Control_c, 6, 11, 106
8, 3993, Control_c, 6, 11, 103
8, 3994, Control_c, 6, 11, 101
8, 3995, Control_c, 6, 11, 98
8, 3996, Control_c, 6, 11, 95
8, 3997, Control_c, 6, 11, 93
8, 3998, Control_c, 6, 11, 90
8, 3999, Control_c, 6, 11, 87
8, 4000, Control_c, 6, 11, 85
8, 4001, Control_c, 6, 11, 82
8, 4002, Control_c, 6, 11, 79
8, 4003, Control_c, 6, 11, 77
8, 4004, Control_c, 6, 11, 74
8, 4005, Control_c, 6, 11, 71
8, 4006, Control_c, 6, 11, 69
8, 4007, Control_c, 6, 11, 66
8, 4008, Control_c, 6, 11, 64
8, 4009, Control_c, 6, 11, 61
8, 4010, Control_c, 6, 11, 58
8, 4011, Control_c, 6, 11, 56
8, 4012, Control_c, 6, 11, 53
8, 4013, Control_c, 6, 11, 50
8, 4014, Control_c, 6, 11, 48
8, 4015, Control_c, 6, 11, 45
8, 4016, Control_c, 6, 11, 42
8, 4017, Control_c, 6, 11, 40
8, 4018, Control_c, 6, 11, 37
8, 4019, Control_c, 6, 11, 34
8, 4020, Control_c, 6, 11, 32
8, 4021, Control_c, 6, 11, 29
8, 4022, Control_c, 6, 11, 26
8, 4023, Control_c, 6, 11, 24
8, 4024, Control_c, 6, 11, 21
8, 4025, Control_c, 6, 11, 19
8, 4026, Control_c, 6, 11, 16
8, 4027, Control_c, 6, 11, 13
8, 4028, Control_c, 6, 11, 11
8, 4029, Control_c, 6, 11, 8
8, 4030, Control_c, 6, 11, 5
8, 4031, Control_c, 6, 11, 3
8, 4032, Note_off_c, 6, 93, 64
8, 4032, Control_c, 6, 11, 127
8, 4032, Note_on_c, 6, 33, 64
8, 4033, Control_c, 6, 11, 124
8, 4034, Control_c, 6, 11, 122
8, 4035, Control_c, 6, 11, 119
8, 4036, Control_c, 6, 11, 116
8, 4037, Control_c, 6, 11, 114
8, 4038, Control_c, 6, 11, 111
8, 4039, Control_c, 6, 11, 108
8, 4040, Control_c, 6, 11, 106
8, 4041, Control_c, 6, 11, 103
8, 4042, Control_c, 6, 11, 101
8, 4043, Control_c, 6, 11, 98
8, 4044, Control_c, 6, 11, 95
8, 4045, Control_c, 6, 11, 93
8, 4046, Control_c, 6, 11, 90
8, 4047, Control_c, 6, 11, 87
8, 4048, Control_c, 6, 11, 85
8, 4049, Control_c, 6, 11, 82
8, 4050, Control_c, 6, 11, 79
8, 4051, Control_c, 6, 11, 77
8, 4052, Control_c, 6, 11, 74
8, 4053, Control_c, 6, 11, 71
8, 4054, Control_c, 6, 11, 69
8, 4055, Control_c, 6, 11, 66
8, 4056, Control_c, 6, 11, 64
8, 4057, Control_c, 6, 11, 61
8, 4058, Control_c, 6, 11, 58
8, 4059, Control_c, 6, 11, 56
8, 4060, Control_c, 6, 11, 53
8, 4061, Control_c, 6, 11, 50
8, 4062, Control_c, 6, 11, 48
8, 4063, Control_c, 6, 11, 45
8, 4064, Control_c, 6, 11, 42
8, 4065, Control_c, 6, 11, 40
8, 4066, Control_c, 6, 11, 37
8, 4067, Control_c, 6, 11, 34
8, 4068, Control_c, 6, 11, 32
8, 4069, Control_c, 6, 11, 29
8, 4070, Control_c, 6, 11, 26
8, 4071, Control_c, 6, 11, 24
8, 4072, Control_c, 6, 11, 21
8, 4073, Control_c, 6, 11, 19
8, 4074, Control_c, 6, 11, 16
8, 4075, Control_c, 6, 11, 13
8, 4076, Control_c, 6, 11, 11
8, 4077, Control_c, 6, 11, 8
8, 4078, Control_c, 6, 11, 5
8, 4079, Control_c, 6, 11, 3
8, 4080, Note_off_c, 6, 33, 64
8, 4080, Control_c, 6, 11, 127
8, 4080, Note_on_c, 6, 93, 64
8, 4081, Control_c, 6, 11, 124
8, 4082, Control_c, 6, 11, 122
8, 4083, Control_c, 6, 11, 119
8, 4084, Control_c, 6, 11, 116
8, 4085, Control_c, 6, 11, 114
8, 4086, Control_c, 6, 11, 111
8, 4087, Control_c, 6, 11, 108
8, 4088, Control_c, 6, 11, 106
8, 4089, Control_c, 6, 11, 103
8, 4090, Control_c, 6, 11, 101
8, 4091, Control_c, 6, 11, 98
8, 4092, Control_c, 6, 11, 95
8, 4093, Control_c, 6, 11, 93
8, 4094, Control_c, 6, 11, 90
8, 4095, Control_c, 6, 11, 87
8, 4096, Control_c, 6, 11, 85
8, 4097, Control_c, 6, 11, 82
8, 4098, Control_c, 6, 11, 79
8, 4099, Control_c, 6, 11, 77
8, 4100, Control_c, 6, 11, 74
8, 4101, Control_c, 6, 11, 71
8, 4102, Control_c, 6, 11, 69
8, 4103, Control_c, 6, 11, 66
8, 4104, Control_c, 6, 11, 64
8, 4105, Control_c, 6, 11, 61
8, 4106, Control_c, 6, 11, 58
8, 4107, Control_c, 6, 11, 56
8, 4108, Control_c, 6, 11, 53
8, 4109, Control_c, 6, 11, 50
8, 4110, Control_c, 6, 11, 48
8, 4111, Control_c, 6, 11, 45
8, 4112, Control_c, 6, 11, 42
8, 4113, Control_c, 6, 11, 40
8, 4114, Control_c, 6, 11, 37
8, 4115, Control_c, 6, 11, 34
8, 4116, Control_c, 6, 11, 32
8, 4117, Control_c, 6, 11, 29
8, 4118, Control_c, 6, 11, 26
8, 4119, Control_c, 6, 11, 24
8, 4120, Control_c, 6, 11, 21
8, 4121, Control_c, 6, 11, 19
8, 4122, Control_c, 6, 11, 16
8, 4123, Control_c, 6, 11, 13
8, 4124, Control_c, 6, 11, 11
8, 4125, Control_c, 6, 11, 8
8, 4126, Control_c, 6, 11, 5
8, 4127, Control_c, 6, 11, 3
8, 4128, Note_off_c, 6, 93, 64
8, 4128, Control_c, 6, 11, 127
8, 4128, Note_on_c, 6, 63, 64
8, 4129, Control_c, 6, 11, 124
8, 4130, Control_c, 6, 11, 122
8, 4131, Control_c, 6, 11, 119
8, 4132, Control_c, 6, 11, 116
8, 4133, Control_c, 6, 11, 114
8, 4134, Control_c, 6, 11, 111
8, 4135, Control_c, 6, 11, 108
8, 4136, Control_c, 6, 11, 106
8, 4137, Control_c, 6, 11, 103
8, 4138, Control_c, 6, 11, 101
8, 4139, Control_c, 6, 11, 98
8, 4140, Control_c, 6, 11, 95
8, 4141, Control_c, 6, 11, 93
8, 4142, Control_c, 6, 11, 90
8, 4143, Control_c, 6, 11, 87
8, 4144, Control_c, 6, 11, 85
8, 4145, Control_c, 6, 11, 82
8, 4146, Control_c, 6, 11, 79
8, 4147, Control_c, 6, 11, 77
8, 4148, Control_c, 6, 11, 74
8, 4149, Control_c, 6, 11, 71
8, 4150, Control_c, 6, 11, 69
8, 4151, Control_c, 6, 11, 66
8, 4152, Control_c, 6, 11, 64
8, 4153, Control_c, 6, 11, 61
8, 4154, Control_c, 6, 11, 58
8, 4155, Control_c, 6, 11, 56
8, 4156, Control_c, 6, 11, 53
8, 4157, Control_c, 6, 11, 50
8, 4158, Control_c, 6, 11, 48
8, 4159, Control_c, 6, 11, 45
8, 4160, Control_c, 6, 11, 42
8, 4161, Control_c, 6, 11, 40
8, 4162, Control_c, 6, 11, 37
8, 4163, Control_c, 6, 11, 34
8, 4164, Control_c, 6, 11, 32
8, 4165, Control_c, 6, 11, 29
8, 4166, Control_c, 6, 11, 26
8, 4167, Control_c, 6, 11, 24
8, 4168, Control_c, 6, 11, 21
8, 4169, Control_c, 6, 11, 19
8, 4170, Control_c, 6, 11, 16
8, 4171, Control_c, 6, 11, 13
8, 4172, Control_c, 6, 11, 11
8, 4173, Control_c, 6, 11, 8
8, 4174, Control_c, 6, 11, 5
8, 4175, Control_c, 6, 11, 3
8, 4176, Note_off_c, 6, 63, 64
8, 4176, Control_c, 6, 11, 127
8, 4176, Note_on_c, 6, 93, 64
8, 4177, Control_c, 6, 11, 124
8, 4178, Control_c, 6, 11, 122
8, 4179, Control_c, 6, 11, 119
8, 4180, Control_c, 6, 11, 116
8, 4181, Control_c, 6, 11, 114
8, 4182, Control_c, 6, 11, 111
8, 4183, Control_c, 6, 11, 108
8, 4184, Control_c, 6, 11, 106
8, 4185, Control_c, 6, 11, 103
8, 4186, Control_c, 6, 11, 101
8, 4187, Control_c, 6, 11, 98
8, 4188, Control_c, 6, 11, 95
8, 4189, Control_c, 6, 11, 93
8, 4190, Control_c, 6, 11, 90
8, 4191, Control_c, 6, 11, 87
8, 4192, Control_c, 6, 11, 85
8, 4193, Control_c, 6, 11, 82
8, 4194, Control_c, 6, 11, 79
8, 4195, Control_c, 6, 11, 77
8, 4196, Control_c, 6, 11, 74
8, 4197, Control_c, 6, 11, 71
8, 4198, Control_c, 6, 11, 69
8, 4199, Control_c, 6, 11, 66
8, 4200, Control_c, 6, 11, 64
8, 4201, Control_c, 6, 11, 61
8, 4202, Control_c, 6, 11, 58
8, 4203, Control_c, 6, 11, 56
8, 4204, Control_c, 6, 11, 53
8, 4205, Control_c, 6, 11, 50
8, 4206, Control_c, 6, 11, 48
8, 4207, Control_c, 6, 11, 45
8, 4208, Control_c, 6, 11, 42
8, 4209, Control_c, 6, 11, 40
8, 4210, Control_c, 6, 11, 37
8, 4211, Control_c, 6, 11, 34
8, 4212, Control_c, 6, 11, 32
8, 4213, Control_c, 6, 11, 29
8, 4214, Control_c, 6, 11, 26
8, 4215, Control_c, 6, 11, 24
8, 4216, Control_c, 6, 11, 21
8, 4217, Control_c, 6, 11, 19
8, 4218, Control_c, 6, 11, 16
8, 4219, Control_c, 6, 11, 13
8, 4220, Control_c, 6, 11, 11
8, 4221, Control_c, 6, 11, 8
8, 4222, Control_c, 6, 11, 5
8, 4223, Control_c, 6, 11, 3
8, 4224, Note_off_c, 6, 93, 64
8, 4224, Control_c, 6, 11, 127
8, 4224, Note_on_c, 6, 33, 64
8, 4225, Control_c, 6, 11, 124
8, 4226, Control_c, 6, 11, 122
8, 4227, Control_c, 6, 11, 119
8, 4228, Control_c, 6, 11, 116
8, 4229, Control_c, 6, 11, 114
8, 4230, Control_c, 6, 11, 111
8, 4231, Control_c, 6, 11, 108
8, 4232, Control_c, 6, 11, 106
8, 4233, Control_c, 6, 11, 103
8, 4234, Control_c, 6, 11, 101
8, 4235, Control_c, 6, 11, 98
8, 4236, Control_c, 6, 11, 95
8, 4237, Control_c, 6, 11, 93
8, 4238, Control_c, 6, 11, 90
8, 4239, Control_c, 6, 11, 87
8, 4240, Control_c, 6, 11, 85
8, 4241, Control_c, 6, 11, 82
8, 4242, Control_c, 6, 11, 79
8, 4243, Control_c, 6, 11, 77
8, 4244, Control_c, 6, 11, 74
8, 4245, Control_c, 6, 11, 71
8, 4246, Control_c, 6, 11, 69
8, 4247, Control_c, 6, 11, 66
8, 4248, Control_c, 6, 11, 64
8, 4249, Control_c, 6, 11, 61
8, 4250, Control_c, 6, 11, 58
8, 4251, Control_c, 6, 11, 56
8, 4252, Control_c, 6, 11, 53
8, 4253, Control_c, 6, 11, 50
8, 4254, Control_c, 6, 11, 48
8, 4255, Control_c, 6, 11, 45
8, 4256, Control_c, 6, 11, 42
8, 4257, Control_c, 6, 11, 40
8, 4258, Control_c, 6, 11, 37
8, 4259, Control_c, 6, 11, 34
8, 4260, Control_c, 6, 11, 32
8, 4261, Control_c, 6, 11, 29
8, 4262, Control_c, 6, 11, 26
8, 4263, Control_c, 6, 11, 24
8, 4264, Control_c, 6, 11, 21
8, 4265, Control_c, 6, 11, 19
8, 4266, Control_c, 6, 11, 16
8, 4267, Control_c, 6, 11, 13
8, 4268, Control_c, 6, 11, 11
8, 4269, Control_c, 6, 11, 8
8, 4270, Control_c, 6, 11, 5
8, 4271, Control_c, 6, 11, 3
8, 4272, Note_off_c, 6, 33, 64
8, 4272, Control_c, 6, 11, 127
8, 4272, Note_on_c, 6, 93, 64
8, 4273, Control_c, 6, 11, 124
8, 4274, Control_c, 6, 11, 122
8, 4275, Control_c, 6, 11, 119
8, 4276, Control_c, 6, 11, 116
8, 4277, Control_c, 6, 11, 114
8, 4278, Control_c, 6, 11, 111
8, 4279, Control_c, 6, 11, 108
8, 4280, Control_c, 6, 11, 106
8, 4281, Control_c, 6, 11, 103
8, 4282, Control_c, 6, 11, 101
8, 4283, Control_c, 6, 11, 98
8, 4284, Control_c, 6, 11, 95
8, 4285, Control_c, 6, 11, 93
8, 4286, Control_c, 6, 11, 90
8, 4287, Control_c, 6, 11, 87
8, 4288, Control_c, 6, 11, 85
8, 4289, Control_c, 6, 11, 82
8, 4290, Control_c, 6, 11, 79
8, 4291, Control_c, 6, 11, 77
8, 4292, Control_c, 6, 11, 74
8, 4293, Control_c, 6, 11, 71
8, 4294, Control_c, 6, 11, 69
8, 4295, Control_c, 6, 11, 66
8, 4296, Control_c, 6, 11, 64
8, 4297, Control_c, 6, 11, 61
8, 4298, Control_c, 6, 11, 58
8, 4299, Control_c, 6, 11, 56
8, 4300, Control_c, 6, 11, 53
8, 4301, Control_c, 6, 11, 50
8, 4302, Control_c, 6, 11, 48
8, 4303, Control_c, 6, 11, 45
8, 4304, Control_c, 6, 11, 42
8, 4305, Control_c, 6, 11, 40
8, 4306, Control_c, 6, 11, 37
8, 4307, Control_c, 6, 11, 34
8, 4308, Control_c, 6, 11, 32
8, 4309, Control_c, 6, 11, 29
8, 4310, Control_c, 6, 11, 26
8, 4311, Control_c, 6, 11, 24
8, 4312, Control_c, 6, 11, 21
8, 4313, Control_c, 6, 11, 19
8, 4314, Control_c, 6, 11, 16
8, 4315, Control_c, 6, 11, 13
8, 4316, Control_c, 6, 11, 11
8, 4317, Control_c, 6, 11, 8
8, 4318, Control_c, 6, 11, 5
8, 4319, Control_c, 6, 11, 3
8, 4320, Note_off_c, 6, 93, 64
8, 4320, Control_c, 6, 11, 127
8, 4320, Note_on_c, 6, 63, 64
8, 4321, Control_c, 6, 11, 124
8, 4322, Control_c, 6, 11, 122
8, 4323, Control_c, 6, 11, 119
8, 4324, Control_c, 6, 11, 116
8, 4325, Control_c, 6, 11, 114
8, 4326, Control_c, 6, 11, 111
8, 4327, Control_c, 6, 11, 108
8, 4328, Control_c, 6, 11, 106
8, 4329, Control_c, 6, 11, 103
8, 4330, Control_c, 6, 11, 101
8, 4331, Control_c, 6, 11, 98
8, 4332, Control_c, 6, 11, 95
8, 4333, Control_c, 6, 11, 93
8, 4334, Control_c, 6, 11, 90
8, 4335, Control_c, 6, 11, 87
8, 4336, Control_c, 6, 11, 85
8, 4337, Control_c, 6, 11, 82
8, 4338, Control_c, 6, 11, 79
8, 4339, Control_c, 6, 11, 77
8, 4340, Control_c, 6, 11, 74
8, 4341, Control_c, 6, 11, 71
8, 4342, Control_c, 6, 11, 69
8, 4343, Control_c, 6, 11, 66
8, 4344, Control_c, 6, 11, 64
8, 4345, Control_c, 6, 11, 61
8, 4346, Control_c, 6, 11, 58
8, 4347, Control_c, 6, 11, 56
8, 4348, Control_c, 6, 11, 53
8, 4349, Control_c, 6, 11, 50
8, 4350, Control_c, 6, 11, 48
8, 4351, Control_c, 6, 11, 45
8, 4352, Control_c, 6, 11, 42
8, 4353, Control_c, 6, 11, 40
8, 4354, Control_c, 6, 11, 37
8, 4355, Control_c, 6, 11, 34
8, 4356, Control_c, 6, 11, 32
8, 4357, Control_c, 6, 11, 29
8, 4358, Control_c, 6, 11, 26
8, 4359, Control_c, 6, 11, 24
8, 4360, Control_c, 6, 11, 21
8, 4361, Control_c, 6, 11, 19
8, 4362, Control_c, 6, 11, 16
8, 4363, Control_c, 6, 11, 13
8, 4364, Control_c, 6, 11, 11
8, 4365, Control_c, 6, 11, 8
8, 4366, Control_c, 6, 11, 5
8, 4367, Control_c, 6, 11, 3
8, 4368, Note_off_c, 6, 63, 64
8, 4368, Control_c, 6, 11, 127
8, 4368, Note_on_c, 6, 93, 64
8, 4369, Control_c, 6, 11, 124
8, 4370, Control_c, 6, 11, 122
8, 4371, Control_c, 6, 11, 119
8, 4372, Control_c, 6, 11, 116
8, 4373, Control_c, 6, 11, 114
8, 4374, Control_c, 6, 11, 111
8, 4375, Control_c, 6, 11, 108
8, 4376, Control_c, 6, 11, 106
8, 4377, Control_c, 6, 11, 103
8, 4378, Control_c, 6, 11, 101
8, 4379, Control_c, 6, 11, 98
8, 4380, Control_c, 6, 11, 95
8, 4381, Control_c, 6, 11, 93
8, 4382, Control_c, 6, 11, 90
8, 4383, Control_c, 6, 11, 87
8, 4384, Control_c, 6, 11, 85
8, 4385, Control_c, 6, 11, 82
8, 4386, Control_c, 6, 11, 79
8, 4387, Control_c, 6, 11, 77
8, 4388, Control_c, 6, 11, 74
8, 4389, Control_c, 6, 11, 71
8, 4390, Control_c, 6, 11, 69
8, 4391, Control_c, 6, 11, 66
8, 4392, Control_c, 6, 11, 64
8, 4393, Control_c, 6, 11, 61
8, 4394, Control_c, 6, 11, 58
8, 4395, Control_c, 6, 11, 56
8, 4396, Control_c, 6, 11, 53
8, 4397, Control_c, 6, 11, 50
8, 4398, Control_c, 6, 11, 48
8, 4399, Control_c, 6, 11, 45
8, 4400, Control_c, 6, 11, 42
8, 4401, Control_c, 6, 11, 40
8, 4402, Control_c, 6, 11, 37
8, 4403, Control_c, 6, 11, 34
8, 4404, Control_c, 6, 11, 32
8, 4405, Control_c, 6, 11, 29
8, 4406, Control_c, 6, 11, 26
8, 4407, Control_c, 6, 11, 24
8, 4408, Control_c, 6, 11, 21
8, 4409, Control_c, 6, 11, 19
8, 4410, Control_c, 6, 11, 16
8, 4411, Control_c, 6, 11, 13
8, 4412, Control_c, 6, 11, 11
8, 4413, Control_c, 6, 11, 8
8, 4414, Control_c, 6, 11, 5
8, 4415, Control_c, 6, 11, 3
8, 4416, Note_off_c, 6, 93, 64
8, 4416, Control_c, 6, 11, 127
8, 4416, Note_on_c, 6, 33, 64
8, 4417, Control_c, 6, 11, 124
8, 4418, Control_c, 6, 11, 122
8, 4419, Control_c, 6, 11, 119
8, 4420, Control_c, 6, 11, 116
8, 4421, Control_c, 6, 11, 114
8, 4422, Control_c, 6, 11, 111
8, 4423, Control_c, 6, 11, 108
8, 4424, Control_c, 6, 11, 106
8, 4425, Control_c, 6, 11, 103
8, 4426, Control_c, 6, 11, 101
8, 4427, Control_c, 6, 11, 98
8, 4428, Control_c, 6, 11, 95
8, 4429, Control_c, 6, 11, 93
8, 4430, Control_c, 6, 11, 90
8, 4431, Control_c, 6, 11, 87
8, 4432, Control_c, 6, 11, 85
8, 4433, Control_c, 6, 11, 82
8, 4434, Control_c, 6, 11, 79
8, 4435, Control_c, 6, 11, 77
8, 4436, Control_c, 6, 11, 74
8, 4437, Control_c, 6, 11, 71
8, 4438, Control_c, 6, 11, 69
8, 4439, Control_c, 6, 11, 66
8, 4440, Control_c, 6, 11, 64
8, 4441, Control_c, 6, 11, 61
8, 4442, Control_c, 6, 11, 58
8, 4443, Control_c, 6, 11, 56
8, 4444, Control_c, 6, 11, 53
8, 4445, Control_c, 6, 11, 50
8, 4446, Control_c, 6, 11, 48
8, 4447, Control_c, 6, 11, 45
8, 4448, Control_c, 6, 11, 42
8, 4449, Control_c, 6, 11, 40
8, 4450, Control_c, 6, 11, 37
8, 4451, Control_c, 6, 11, 34
8, 4452, Control_c, 6, 11, 32
8, 4453, Control_c, 6, 11, 29
8, 4454, Control_c, 6, 11, 26
8, 4455, Control_c, 6, 11, 24
8, 4456, Control_c, 6, 11, 21
8, 4457, Control_c, 6, 11, 19
8, 4458, Control_c, 6, 11, 16
8, 4459, Control_c, 6, 11, 13
8, 4460, Control_c, 6, 11, 11
8, 4461, Control_c, 6, 11, 8
8, 4462, Control_c, 6, 11, 5
8, 4463, Control_c, 6, 11, 3
8, 4464, Note_off_c, 6, 33, 64
8, 4464, Control_c, 6, 11, 127
8, 4464, Note_on_c, 6, 93, 64
8, 4465, Control_c, 6, 11, 124
8, 4466, Control_c, 6, 11, 122
8, 4467, Control_c, 6, 11, 119
8, 4468, Control_c, 6, 11, 116
8, 4469, Control_c, 6, 11, 114
8, 4470, Control_c, 6, 11, 111
8, 4471, Control_c, 6, 11, 108
8, 4472, Control_c, 6, 11, 106
8, 4473, Control_c, 6, 11, 103
8, 4474, Control_c, 6, 11, 101
8, 4475, Control_c, 6, 11, 98
8, 4476, Control_c, 6, 11, 95
8, 4477, Control_c, 6, 11, 93
8, 4478, Control_c, 6, 11, 90
8, 4479, Control_c, 6, 11, 87
8, 4480, Control_c, 6, 11, 85
8, 4481, Control_c, 6, 11, 82
8, 4482, Control_c, 6, 11, 79
8, 4483, Control_c, 6, 11, 77
8, 4484, Control_c, 6, 11, 74
8, 4485, Control_c, 6, 11, 71
8, 4486, Control_c, 6, 11, 69
8, 4487, Control_c, 6, 11, 66
8, 4488, Control_c, 6, 11, 64
8, 4489, Control_c, 6, 11, 61
8, 4490, Control_c, 6, 11, 58
8, 4491, Control_c, 6, 11, 56
8, 4492, Control_c, 6, 11, 53
8, 4493, Control_c, 6, 11, 50
8, 4494, Control_c, 6, 11, 48
8, 4495, Control_c, 6, 11, 45
8, 4496, Control_c, 6, 11, 42
8, 4497, Control_c, 6, 11, 40
8, 4498, Control_c, 6, 11, 37
8, 4499, Control_c, 6, 11, 34
8, 4500, Control_c, 6, 11, 32
8, 4501, Control_c, 6, 11, 29
8, 4502, Control_c, 6, 11, 26
8, 4503, Control_c, 6, 11, 24
8, 4504, Control_c, 6, 11, 21
8, 4505, Control_c, 6, 11, 19
8, 4506, Control_c, 6, 11, 16
8, 4507, Control_c, 6, 11, 13
8, 4508, Control_c, 6, 11, 11
8, 4509, Control_c, 6, 11, 8
8, 4510, Control_c, 6, 11, 5
8, 4511, Control_c, 6, 11, 3
8, 4512, Note_off_c, 6, 93, 64
8, 4512, Control_c, 6, 11, 127
8, 4512, Note_on_c, 6, 63, 64
8, 4513, Control_c, 6, 11, 124
8, 4514, Control_c, 6, 11, 122
8, 4515, Control_c, 6, 11, 119
8, 4516, Control_c, 6, 11, 116
8, 4517, Control_c, 6, 11, 114
8, 4518, Control_c, 6, 11, 111
8, 4519, Control_c, 6, 11, 108
8, 4520, Control_c, 6, 11, 106
8, 4521, Control_c, 6, 11, 103
8, 4522, Control_c, 6, 11, 101
8, 4523, Control_c, 6, 11, 98
8, 4524, Control_c, 6, 11, 95
8, 4525, Control_c, 6, 11, 93
8, 4526, Control_c, 6, 11, 90
8, 4527, Control_c, 6, 11, 87
8, 4528, Control_c, 6, 11, 85
8, 4529, Control_c, 6, 11, 82
8, 4530, Control_c, 6, 11, 79
8, 4531, Control_c, 6, 11, 77
8, 4532, Control_c, 6, 11, 74
8, 4533, Control_c, 6, 11, 71
8, 4534, Control_c, 6, 11, 69
8, 4535, Control_c, 6, 11, 66
8, 4536, Control_c, 6, 11, 64
8, 4537, Control_c, 6, 11, 61
8, 4538, Control_c, 6, 11, 58
8, 4539, Control_c, 6, 11, 56
8, 4540, Control_c, 6, 11, 53
8, 4541, Control_c, 6, 11, 50
8, 4542, Control_c, 6, 11, 48
8, 4543, Control_c, 6, 11, 45
8, 4544, Control_c, 6, 11, 42
8, 4545, Control_c, 6, 11, 40
8, 4546, Control_c, 6, 11, 37
8, 4547, Control_c, 6, 11, 34
8, 4548, Control_c, 6, 11, 32
8, 4549, Control_c, 6, 11, 29
8, 4550, Control_c, 6, 11, 26
8, 4551, Control_c, 6, 11, 24
8, 4552, Control_c, 6, 11, 21
8, 4553, Control_c, 6, 11, 19
8, 4554, Control_c, 6, 11, 16
8, 4555, Control_c, 6, 11, 13
8, 4556, Control_c, 6, 11, 11
8, 4557, Control_c, 6, 11, 8
8, 4558, Control_c, 6, 11, 5
8, 4559, Control_c, 6, 11, 3
8, 4560, Note_off_c, 6, 63, 64
8, 4560, Control_c, 6, 11, 127
8, 4560, Note_on_c, 6, 63, 64
8, 4561, Control_c, 6, 11, 124
8, 4562, Control_c, 6, 11, 122
8, 4563, Control_c, 6, 11, 119
8, 4564, Control_c, 6, 11, 116
8, 4565, Control_c, 6, 11, 114
8, 4566, Control_c, 6, 11, 111
8, 4567, Control_c, 6, 11, 108
8, 4568, Control_c, 6, 11, 106
8, 4569, Control_c, 6, 11, 103
8, 4570, Control_c, 6, 11, 101
8, 4571, Control_c, 6, 11, 98
8, 4572, Control_c, 6, 11, 95
8, 4573, Control_c, 6, 11, 93
8, 4574, Control_c, 6, 11, 90
8, 4575, Control_c, 6, 11, 87
8, 4576, Control_c, 6, 11, 85
8, 4577, Control_c, 6, 11, 82
8, 4578, Control_c, 6, 11, 79
8, 4579, Control_c, 6, 11, 77
8, 4580, Control_c, 6, 11, 74
8, 4581, Control_c, 6, 11, 71
8, 4582, Control_c, 6, 11, 69
8, 4583, Control_c, 6, 11, 66
8, 4584, Control_c, 6, 11, 64
8, 4585, Control_c, 6, 11, 61
8, 4586, Control_c, 6, 11, 58
8, 4587, Control_c, 6, 11, 56
8, 4588, Control_c, 6, 11, 53
8, 4589, Control_c, 6, 11, 50
8, 4590, Control_c, 6, 11, 48
8, 4591, Control_c, 6, 11, 45
8, 4592, Control_c, 6, 11, 42
8, 4593, Control_c, 6, 11, 40
8, 4594, Control_c, 6, 11, 37
8, 4595, Control_c, 6, 11, 34
8, 4596, Control_c, 6, 11, 32
8, 4597, Control_c, 6, 11, 29
8, 4598, Control_c, 6, 11, 26
8, 4599, Control_c, 6, 11, 24
8, 4600, Control_c, 6, 11, 21
8, 4601, Control_c, 6, 11, 19
8, 4602, Control_c, 6, 11, 16
8, 4603, Control_c, 6, 11, 13
8, 4604, Control_c, 6, 11, 11
8, 4605, Control_c, 6, 11, 8
8, 4606, Control_c, 6, 11, 5
8, 4607, Control_c, 6, 11, 3
8, 4608, Note_off_c, 6, 63, 64
8, 4608, Control_c, 6, 11, 127
8, 4608, Note_on_c, 6, 33, 64
8, 4609, Control_c, 6, 11, 124
8, 4610, Control_c, 6, 11, 122
8, 4611, Control_c, 6, 11, 119
8, 4612, Control_c, 6, 11, 116
8, 4613, Control_c, 6, 11, 114
8, 4614, Control_c, 6, 11, 111
8, 4615, Control_c, 6, 11, 108
8, 4616, Control_c, 6, 11, 106
8, 4617, Control_c, 6, 11, 103
8, 4618, Control_c, 6, 11, 101
8, 4619, Control_c, 6, 11, 98
8, 4620, Control_c, 6, 11, 95
8, 4621, Control_c, 6, 11, 93
8, 4622, Control_c, 6, 11, 90
8, 4623, Control_c, 6, 11, 87
8, 4624, Control_c, 6, 11, 85
8, 4625, Control_c, 6, 11, 82
8, 4626, Control_c, 6, 11, 79
8, 4627, Control_c, 6, 11, 77
8, 4628, Control_c, 6, 11, 74
8, 4629, Control_c, 6, 11, 71
8, 4630, Control_c, 6, 11, 69
8, 4631, Control_c, 6, 11, 66
8, 4632, Control_c, 6, 11, 64
8, 4633, Control_c, 6, 11, 61
8, 4634, Control_c, 6, 11, 58
8, 4635, Control_c, 6, 11, 56
8, 4636, Control_c, 6, 11, 53
8, 4637, Control_c, 6, 11, 50
8, 4638, Control_c, 6, 11, 48
8, 4639, Control_c, 6, 11, 45
8, 4640, Control_c, 6, 11, 42
8, 4641, Control_c, 6, 11, 40
8, 4642, Control_c, 6, 11, 37
8, 4643, Control_c, 6, 11, 34
8, 4644, Control_c, 6, 11, 32
8, 4645, Control_c, 6, 11, 29
8, 4646, Control_c, 6, 11, 26
8, 4647, Control_c, 6, 11, 24
8, 4648, Control_c, 6, 11, 21
8, 4649, Control_c, 6, 11, 19
8, 4650, Control_c, 6, 11, 16
8, 4651, Control_c, 6, 11, 13
8, 4652, Control_c, 6, 11, 11
8, 4653, Control_c, 6, 11, 8
8, 4654, Control_c, 6, 11, 5
8, 4655, Control_c, 6, 11, 3
8, 4656, Note_off_c, 6, 33, 64
8, 4656, Control_c, 6, 11, 127
8, 4656, Note_on_c, 6, 93, 64
8, 4657, Control_c, 6, 11, 124
8, 4658, Control_c, 6, 11, 122
8, 4659, Control_c, 6, 11, 119
8, 4660, Control_c, 6, 11, 116
8, 4661, Control_c, 6, 11, 114
8, 4662, Control_c, 6, 11, 111
8, 4663, Control_c, 6, 11, 108
8, 4664, Control_c, 6, 11, 106
8, 4665, Control_c, 6, 11, 103
8, 4666, Control_c, 6, 11, 101
8, 4667, Control_c, 6, 11, 98
8, 4668, Control_c, 6, 11, 95
8, 4669, Control_c, 6, 11, 93
8, 4670, Control_c, 6, 11, 90
8, 4671, Control_c, 6, 11, 87
8, 4672, Control_c, 6, 11, 85
8, 4673, Control_c, 6, 11, 82
8, 4674, Control_c, 6, 11, 79
8, 4675, Control_c, 6, 11, 77
8, 4676, Control_c, 6, 11, 74
8, 4677, Control_c, 6, 11, 71
8, 4678, Control_c, 6, 11, 69
8, 4679, Control_c, 6, 11, 66
8, 4680, Control_c, 6, 11, 64
8, 4681, Control_c, 6, 11, 61
8, 4682, Control_c, 6, 11, 58
8, 4683, Control_c, 6, 11, 56
8, 4684, Control_c, 6, 11, 53
8, 4685, Control_c, 6, 11, 50
8, 4686, Control_c, 6, 11, 48
8, 4687, Control_c, 6, 11, 45
8, 4688, Control_c, 6, 11, 42
8, 4689, Control_c, 6, 11, 40
8, 4690, Control_c, 6, 11, 37
8, 4691, Control_c, 6, 11, 34
8, 4692, Control_c, 6, 11, 32
8, 4693, Control_c, 6, 11, 29
8, 4694, Control_c, 6, 11, 26
8, 4695, Control_c, 6, 11, 24
8, 4696, Control_c, 6, 11, 21
8, 4697, Control_c, 6, 11, 19
8, 4698, Control_c, 6, 11, 16
8, 4699, Control_c, 6, 11, 13
8, 4700, Control_c, 6, 11, 11
8, 4701, Control_c, 6, 11, 8
8, 4702, Control_c, 6, 11, 5
8, 4703, Control_c, 6, 11, 3
8, 4704, Note_off_c, 6, 93, 64
8, 4704, Control_c, 6, 11, 127
8, 4704, Note_on_c, 6, 63, 64
8, 4705, Control_c, 6, 11, 124
8, 4706, Control_c, 6, 11, 122
8, 4707, Control_c, 6, 11, 119
8, 4708, Control_c, 6, 11, 116
8, 4709, Control_c, 6, 11, 114
8, 4710, Control_c, 6, 11, 111
8, 4711, Control_c, 6, 11, 108
8, 4712, Control_c, 6, 11, 106
8, 4713, Control_c, 6, 11, 103
8, 4714, Control_c, 6, 11, 101
8, 4715, Control_c, 6, 11, 98
8, 4716, Control_c, 6, 11, 95
8, 4717, Control_c, 6, 11, 93
8, 4718, Control_c, 6, 11, 90
8, 4719, Control_c, 6, 11, 87
8, 4720, Control_c, 6, 11, 85
8, 4721, Control_c, 6, 11, 82
8, 4722, Control_c, 6, 11, 79
8, 4723, Control_c, 6, 11, 77
8, 4724, Control_c, 6, 11, 74
8, 4725, Control_c, 6, 11, 71
8, 4726, Control_c, 6, 11, 69
8, 4727, Control_c, 6, 11, 66
8, 4728, Control_c, 6, 11, 64
8, 4729, Control_c, 6, 11, 61
8, 4730, Control_c, 6, 11, 58
8, 4731, Control_c, 6, 11, 56
8, 4732, Control_c, 6, 11, 53
8, 4733, Control_c, 6, 11, 50
8, 4734, Control_c, 6, 11, 48
8, 4735, Control_c, 6, 11, 45
8, 4736, Control_c, 6, 11, 42
8, 4737, Control_c, 6, 11, 40
8, 4738, Control_c, 6, 11, 37
8, 4739, Control_c, 6, 11, 34
8, 4740, Control_c, 6, 11, 32
8, 4741, Control_c, 6, 11, 29
8, 4742, Control_c, 6, 11, 26
8, 4743, Control_c, 6, 11, 24
8, 4744, Control_c, 6, 11, 21
8, 4745, Control_c, 6, 11, 19
8, 4746, Control_c, 6, 11, 16
8, 4747, Control_c, 6, 11, 13
8, 4748, Control_c, 6, 11, 11
8, 4749, Control_c, 6, 11, 8
8, 4750, Control_c, 6, 11, 5
8, 4751, Control_c, 6, 11, 3
8, 4752, Note_off_c, 6, 63, 64
8, 4752, Control_c, 6, 11, 127
8, 4752, Note_on_c, 6, 93, 64
8, 4753, Control_c, 6, 11, 124
8, 4754, Control_c, 6, 11, 122
8, 4755, Control_c, 6, 11, 119
8, 4756, Control_c, 6, 11, 116
8, 4757, Control_c, 6, 11, 114
8, 4758, Control_c, 6, 11, 111
8, 4759, Control_c, 6, 11, 108
8, 4760, Control_c, 6, 11, 106
8, 4761, Control_c, 6, 11, 103
8, 4762, Control_c, 6, 11, 101
8, 4763, Control_c, 6, 11, 98
8, 4764, Control_c, 6, 11, 95
8, 4765, Control_c, 6, 11, 93
8, 4766, Control_c, 6, 11, 90
8, 4767, Control_c, 6, 11, 87
8, 4768, Control_c, 6, 11, 85
8, 4769, Control_c, 6, 11, 82
8, 4770, Control_c, 6, 11, 79
8, 4771, Control_c, 6, 11, 77
8, 4772, Control_c, 6, 11, 74
8, 4773, Control_c, 6, 11, 71
8, 4774, Control_c, 6, 11, 69
8, 4775, Control_c, 6, 11, 66
8, 4776, Control_c, 6, 11, 64
8, 4777, Control_c, 6, 11, 61
8, 4778, Control_c, 6, 11, 58
8, 4779, Control_c, 6, 11, 56
8, 4780, Control_c, 6, 11, 53
8, 4781, Control_c, 6, 11, 50
8, 4782, Control_c, 6, 11, 48
8, 4783, Control_c, 6, 11, 45
8, 4784, Control_c, 6, 11, 42
8, 4785, Control_c, 6, 11, 40
8, 4786, Control_c, 6, 11, 37
8, 4787, Control_c, 6, 11, 34
8, 4788, Control_c, 6, 11, 32
8, 4789, Control_c, 6, 11, 29
8, 4790, Control_c, 6, 11, 26
8, 4791, Control_c, 6, 11, 24
8, 4792, Control_c, 6, 11, 21
8, 4793, Control_c, 6, 11, 19
8, 4794, Control_c, 6, 11, 16
8, 4795, Control_c, 6, 11, 13
8, 4796, Control_c, 6, 11, 11
8, 4797, Control_c, 6, 11, 8
8, 4798, Control_c, 6, 11, 5
8, 4799, Control_c, 6, 11, 3
8, 4800, Note_off_c, 6, 93, 64
8, 4800, Control_c, 6, 11, 127
8, 4800, Note_on_c, 6, 33, 64
8, 4801, Control_c, 6, 11, 124
8, 4802, Control_c, 6, 11, 122
8, 4803, Control_c, 6, 11, 119
8, 4804, Control_c, 6, 11, 116
8, 4805, Control_c, 6, 11, 114
8, 4806, Control_c, 6, 11, 111
8, 4807, Control_c, 6, 11, 108
8, 4808, Control_c, 6, 11, 106
8, 4809, Control_c, 6, 11, 103
8, 4810, Control_c, 6, 11, 101
8, 4811, Control_c, 6, 11, 98
8, 4812, Control_c, 6, 11, 95
8, 4813, Control_c, 6, 11, 93
8, 4814, Control_c, 6, 11, 90
8, 4815, Control_c, 6, 11, 87
8, 4816, Control_c, 6, 11, 85
8, 4817, Control_c, 6, 11, 82
8, 4818, Control_c, 6, 11, 79
8, 4819, Control_c, 6, 11, 77
8, 4820, Control_c, 6, 11, 74
8, 4821, Control_c, 6, 11, 71
8, 4822, Control_c, 6, 11, 69
8, 4823, Control_c, 6, 11, 66
8, 4824, Control_c, 6, 11, 64
8, 4825, Control_c, 6, 11, 61
8, 4826, Control_c, 6, 11, 58
8, 4827, Control_c, 6, 11, 56
8, 4828, Control_c, 6, 11, 53
8, 4829, Control_c, 6, 11, 50
8, 4830, Control_c, 6, 11, 48
8, 4831, Control_c, 6, 11, 45
8, 4832, Control_c, 6, 11, 42
8, 4833, Control_c, 6, 11, 40
8, 4834, Control_c, 6, 11, 37
8, 4835, Control_c, 6, 11, 34
8, 4836, Control_c, 6, 11, 32
8, 4837, Control_c, 6, 11, 29
8, 4838, Control_c, 6, 11, 26
8, 4839, Control_c, 6, 11, 24
8, 4840, Control_c, 6, 11, 21
8, 4841, Control_c, 6, 11, 19
8, 4842, Control_c, 6, 11, 16
8, 4843, Control_c, 6, 11, 13
8, 4844, Control_c, 6, 11, 11
8, 4845, Control_c, 6, 11, 8
8, 4846, Control_c, 6, 11, 5
8, 4847, Control_c, 6, 11, 3
8, 4848, Note_off_c, 6, 33, 64
8, 4848, Control_c, 6, 11, 127
8, 4848, Note_on_c, 6, 93, 64
8, 4849, Control_c, 6, 11, 124
8, 4850, Control_c, 6, 11, 122
8, 4851, Control_c, 6, 11, 119
8, 4852, Control_c, 6, 11, 116
8, 4853, Control_c, 6, 11, 114
8, 4854, Control_c, 6, 11, 111
8, 4855, Control_c, 6, 11, 108
8, 4856, Control_c, 6, 11, 106
8, 4857, Control_c, 6, 11, 103
8, 4858, Control_c, 6, 11, 101
8, 4859, Control_c, 6, 11, 98
8, 4860, Control_c, 6, 11, 95
8, 4861, Control_c, 6, 11, 93
8, 4862, Control_c, 6, 11, 90
8, 4863, Control_c, 6, 11, 87
8, 4864, Control_c, 6, 11, 85
8, 4865, Control_c, 6, 11, 82
8, 4866, Control_c, 6, 11, 79
8, 4867, Control_c, 6, 11, 77
8, 4868, Control_c, 6, 11, 74
8, 4869, Control_c, 6, 11, 71
8, 4870, Control_c, 6, 11, 69
8, 4871, Control_c, 6, 11, 66
8, 4872, Control_c, 6, 11, 64
8, 4873, Control_c, 6, 11, 61
8, 4874, Control_c, 6, 11, 58
8, 4875, Control_c, 6, 11, 56
8, 4876, Control_c, 6, 11, 53
8, 4877, Control_c, 6, 11, 50
8, 4878, Control_c, 6, 11, 48
8, 4879, Control_c, 6, 11, 45
8, 4880, Control_c, 6, 11, 42
8, 4881, Control_c, 6, 11, 40
8, 4882, Control_c, 6, 11, 37
8, 4883, Control_c, 6, 11, 34
8, 4884, Control_c, 6, 11, 32
8, 4885, Control_c, 6, 11, 29
8, 4886, Control_c, 6, 11, 26
8, 4887, Control_c, 6, 11, 24
8, 4888, Control_c, 6, 11, 21
8, 4889, Control_c, 6, 11, 19
8, 4890, Control_c, 6, 11, 16
8, 4891, Control_c, 6, 11, 13
8, 4892, Control_c, 6, 11, 11
8, 4893, Control_c, 6, 11, 8
8, 4894, Control_c, 6, 11, 5
8, 4895, Control_c, 6, 11, 3
8, 4896, Note_off_c, 6, 93, 64
8, 4896, Control_c, 6, 11, 127
8, 4896, Note_on_c, 6, 63, 64
8, 4897, Control_c, 6, 11, 124
8, 4898, Control_c, 6, 11, 122
8, 4899, Control_c, 6, 11, 119
8, 4900, Control_c, 6, 11, 116
8, 4901, Control_c, 6, 11, 114
8, 4902, Control_c, 6, 11, 111
8, 4903, Control_c, 6, 11, 108
8, 4904, Control_c, 6, 11, 106
8, 4905, Control_c, 6, 11, 103
8, 4906, Control_c, 6, 11, 101
8, 4907, Control_c, 6, 11, 98
8, 4908, Control_c, 6, 11, 95
8, 4909, Control_c, 6, 11, 93
8, 4910, Control_c, 6, 11, 90
8, 4911, Control_c, 6, 11, 87
8, 4912, Control_c, 6, 11, 85
8, 4913, Control_c, 6, 11, 82
8, 4914, Control_c, 6, 11, 79
8, 4915, Control_c, 6, 11, 77
8, 4916, Control_c, 6, 11, 74
8, 4917, Control_c, 6, 11, 71
8, 4918, Control_c, 6, 11, 69
8, 4919, Control_c, 6, 11, 66
8, 4920, Control_c, 6, 11, 64
8, 4921, Control_c, 6, 11, 61
8, 4922, Control_c, 6, 11, 58
8, 4923, Control_c, 6, 11, 56
8, 4924, Control_c, 6, 11, 53
8, 4925, Control_c, 6, 11, 50
8, 4926, Control_c, 6, 11, 48
8, 4927, Control_c, 6, 11, 45
8, 4928, Control_c, 6, 11, 42
8, 4929, Control_c, 6, 11, 40
8, 4930, Control_c, 6, 11, 37
8, 4931, Control_c, 6, 11, 34
8, 4932, Control_c, 6, 11, 32
8, 4933, Control_c, 6, 11, 29
8, 4934, Control_c, 6, 11, 26
8, 4935, Control_c, 6, 11, 24
8, 4936, Control_c, 6, 11, 21
8, 4937, Control_c, 6, 11, 19
8, 4938, Control_c, 6, 11, 16
8, 4939, Control_c, 6, 11, 13
8, 4940, Control_c, 6, 11, 11
8, 4941, Control_c, 6, 11, 8
8, 4942, Control_c, 6, 11, 5
8, 4943, Control_c, 6, 11, 3
8, 4944, Note_off_c, 6, 63, 64
8, 4944, Control_c, 6, 11, 127
8, 4944, Note_on_c, 6, 93, 64
8, 4945, Control_c, 6, 11, 124
8, 4946, Control_c, 6, 11, 122
8, 4947, Control_c, 6, 11, 119
8, 4948, Control_c, 6, 11, 116
8, 4949, Control_c, 6, 11, 114
8, 4950, Control_c, 6, 11, 111
8, 4951, Control_c, 6, 11, 108
8, 4952, Control_c, 6, 11, 106
8, 4953, Control_c, 6, 11, 103
8, 4954, Control_c, 6, 11, 101
8, 4955, Control_c, 6, 11, 98
8, 4956, Control_c, 6, 11, 95
8, 4957, Control_c, 6, 11, 93
8, 4958, Control_c, 6, 11, 90
8, 4959, Control_c, 6, 11, 87
8, 4960, Control_c, 6, 11, 85
8, 4961, Control_c, 6, 11, 82
8, 4962, Control_c, 6, 11, 79
8, 4963, Control_c, 6, 11, 77
8, 4964, Control_c, 6, 11, 74
8, 4965, Control_c, 6, 11, 71
8, 4966, Control_c, 6, 11, 69
8, 4967, Control_c, 6, 11, 66
8, 4968, Control_c, 6, 11, 64
8, 4969, Control_c, 6, 11, 61
8, 4970, Control_c, 6, 11, 58
8, 4971, Control_c, 6, 11, 56
8, 4972, Control_c, 6, 11, 53
8, 4973, Control_c, 6, 11, 50
8, 4974, Control_c, 6, 11, 48
8, 4975, Control_c, 6, 11, 45
8, 4976, Control_c, 6, 11, 42
8, 4977, Control_c, 6, 11, 40
8, 4978, Control_c, 6, 11, 37
8, 4979, Control_c, 6, 11, 34
8, 4980, Control_c, 6, 11, 32
8, 4981, Control_c, 6, 11, 29
8, 4982, Control_c, 6, 11, 26
8, 4983, Control_c, 6, 11, 24
8, 4984, Control_c, 6, 11, 21
8, 4985, Control_c, 6, 11, 19
8, 4986, Control_c, 6, 11, 16
8, 4987, Control_c, 6, 11, 13
8, 4988, Control_c, 6, 11, 11
8, 4989, Control_c, 6, 11, 8
8, 4990, Control_c, 6, 11, 5
8, 4991, Control_c, 6, 11, 3
8, 4992, Note_off_c, 6, 93, 64
8, 4992, Control_c, 6, 11, 127
8, 4992, Note_on_c, 6, 33, 64
8, 4993, Control_c, 6, 11, 124
8, 4994, Control_c, 6, 11, 122
8, 4995, Control_c, 6, 11, 119
8, 4996, Control_c, 6, 11, 116
8, 4997, Control_c, 6, 11, 114
8, 4998, Control_c, 6, 11, 111
8, 4999, Control_c, 6, 11, 108
8, 5000, Control_c, 6, 11, 106
8, 5001, Control_c, 6, 11, 103
8, 5002, Control_c, 6, 11, 101
8, 5003, Control_c, 6, 11, 98
8, 5004, Control_c, 6, 11, 95
8, 5005, Control_c, 6, 11, 93
8, 5006, Control_c, 6, 11, 90
8, 5007, Control_c, 6, 11, 87
8, 5008, Control_c, 6, 11, 85
8, 5009, Control_c, 6, 11, 82
8, 5010, Control_c, 6, 11, 79
8, 5011, Control_c, 6, 11, 77
8, 5012, Control_c, 6, 11, 74
8, 5013, Control_c, 6, 11, 71
8, 5014, Control_c, 6, 11, 69
8, 5015, Control_c, 6, 11, 66
8, 5016, Control_c, 6, 11, 64
8, 5017, Control_c, 6, 11, 61
8, 5018, Control_c, 6, 11, 58
8, 5019, Control_c, 6, 11, 56
8, 5020, Control_c, 6, 11, 53
8, 5021, Control_c, 6, 11, 50
8, 5022, Control_c, 6, 11, 48
8, 5023, Control_c, 6, 11, 45
8, 5024, Control_c, 6, 11, 42
8, 5025, Control_c, 6, 11, 40
8, 5026, Control_c, 6, 11, 37
8, 5027, Control_c, 6, 11, 34
8, 5028, Control_c, 6, 11, 32
8, 5029, Control_c, 6, 11, 29
8, 5030, Control_c, 6, 11, 26
8, 5031, Control_c, 6, 11, 24
8, 5032, Control_c, 6, 11, 21
8, 5033, Control_c, 6, 11, 19
8, 5034, Control_c, 6, 11, 16
8, 5035, Control_c, 6, 11, 13
8, 5036, Control_c, 6, 11, 11
8, 5037, Control_c, 6, 11, 8
8, 5038, Control_c, 6, 11, 5
8, 5039, Control_c, 6, 11, 3
8, 5040, Note_off_c, 6, 33, 64
8, 5040, Control_c, 6, 11, 127
8, 5040, Note_on_c, 6, 93, 64
8, 5041, Control_c, 6, 11, 124
8, 5042, Control_c, 6, 11, 122
8, 5043, Control_c, 6, 11, 119
8, 5044, Control_c, 6, 11, 116
8, 5045, Control_c, 6, 11, 114
8, 5046, Control_c, 6, 11, 111
8, 5047, Control_c, 6, 11, 108
8, 5048, Control_c, 6, 11, 106
8, 5049, Control_c, 6, 11, 103
8, 5050, Control_c, 6, 11, 101
8, 5051, Control_c, 6, 11, 98
8, 5052, Control_c, 6, 11, 95
8, 5053, Control_c, 6, 11, 93
8, 5054, Control_c, 6, 11, 90
8, 5055, Control_c, 6, 11, 87
8, 5056, Control_c, 6, 11, 85
8, 5057, Control_c, 6, 11, 82
8, 5058, Control_c, 6, 11, 79
8, 5059, Control_c, 6, 11, 77
8, 5060, Control_c, 6, 11, 74
8, 5061, Control_c, 6, 11, 71
8, 5062, Control_c, 6, 11, 69
8, 5063, Control_c, 6, 11, 66
8, 5064, Control_c, 6, 11, 64
8, 5065, Control_c, 6, 11, 61
8, 5066, Control_c, 6, 11, 58
8, 5067, Control_c, 6, 11, 56
8, 5068, Control_c, 6, 11, 53
8, 5069, Control_c, 6, 11, 50
8, 5070, Control_c, 6, 11, 48
8, 5071, Control_c, 6, 11, 45
8, 5072, Control_c, 6, 11, 42
8, 5073, Control_c, 6, 11, 40
8, 5074, Control_c, 6, 11, 37
8, 5075, Control_c, 6, 11, 34
8, 5076, Control_c, 6, 11, 32
8, 5077, Control_c, 6, 11, 29
8, 5078, Control_c, 6, 11, 26
8, 5079, Control_c, 6, 11, 24
8, 5080, Control_c, 6, 11, 21
8, 5081, Control_c, 6, 11, 19
8, 5082, Control_c, 6, 11, 16
8, 5083, Control_c, 6, 11, 13
8, 5084, Control_c, 6, 11, 11
8, 5085, Control_c, 6, 11, 8
8, 5086, Control_c, 6, 11, 5
8, 5087, Control_c, 6, 11, 3
8, 5088, Note_off_c, 6, 93, 64
8, 5088, Control_c, 6, 11, 127
8, 5088, Note_on_c, 6, 63, 64
8, 5089, Control_c, 6, 11, 124
8, 5090, Control_c, 6, 11, 122
8, 5091, Control_c, 6, 11, 119
8, 5092, Control_c, 6, 11, 116
8, 5093, Control_c, 6, 11, 114
8, 5094, Control_c, 6, 11, 111
8, 5095, Control_c, 6, 11, 108
8, 5096, Control_c, 6, 11, 106
8, 5097, Control_c, 6, 11, 103
8, 5098, Control_c, 6, 11, 101
8, 5099, Control_c, 6, 11, 98
8, 5100, Control_c, 6, 11, 95
8, 5101, Control_c, 6, 11, 93
8, 5102, Control_c, 6, 11, 90
8, 5103, Control_c, 6, 11, 87
8, 5104, Control_c, 6, 11, 85
8, 5105, Control_c, 6, 11, 82
8, 5106, Control_c, 6, 11, 79
8, 5107, Control_c, 6, 11, 77
8, 5108, Control_c, 6, 11, 74
8, 5109, Control_c, 6, 11, 71
8, 5110, Control_c, 6, 11, 69
8, 5111, Control_c, 6, 11, 66
8, 5112, Control_c, 6, 11, 64
8, 5113, Control_c, 6, 11, 61
8, 5114, Control_c, 6, 11, 58
8, 5115, Control_c, 6, 11, 56
8, 5116, Control_c, 6, 11, 53
8, 5117, Control_c, 6, 11, 50
8, 5118, Control_c, 6, 11, 48
8, 5119, Control_c, 6, 11, 45
8, 5120, Control_c, 6, 11, 42
8, 5121, Control_c, 6, 11, 40
8, 5122, Control_c, 6, 11, 37
8, 5123, Control_c, 6, 11, 34
8, 5124, Control_c, 6, 11, 32
8, 5125, Control_c, 6, 11, 29
8, 5126, Control_c, 6, 11, 26
8, 5127, Control_c, 6, 11, 24
8, 5128, Control_c, 6, 11, 21
8, 5129, Control_c, 6, 11, 19
8, 5130, Control_c, 6, 11, 16
8, 5131, Control_c, 6, 11, 13
8, 5132, Control_c, 6, 11, 11
8, 5133, Control_c, 6, 11, 8
8, 5134, Control_c, 6, 11, 5
8, 5135, Control_c, 6, 11, 3
8, 5136, Note_off_c, 6, 63, 64
8, 5136, Control_c, 6, 11, 127
8, 5136, Note_on_c, 6, 93, 64
8, 5137, Control_c, 6, 11, 124
8, 5138, Control_c, 6, 11, 122
8, 5139, Control_c, 6, 11, 119
8, 5140, Control_c, 6, 11, 116
8, 5141, Control_c, 6, 11, 114
8, 5142, Control_c, 6, 11, 111
8, 5143, Control_c, 6, 11, 108
8, 5144, Control_c, 6, 11, 106
8, 5145, Control_c, 6, 11, 103
8, 5146, Control_c, 6, 11, 101
8, 5147, Control_c, 6, 11, 98
8, 5148, Control_c, 6, 11, 95
8, 5149, Control_c, 6, 11, 93
8, 5150, Control_c, 6, 11, 90
8, 5151, Control_c, 6, 11, 87
8, 5152, Control_c, 6, 11, 85
8, 5153, Control_c, 6, 11, 82
8, 5154, Control_c, 6, 11, 79
8, 5155, Control_c, 6, 11, 77
8, 5156, Control_c, 6, 11, 74
8, 5157, Control_c, 6, 11, 71
8, 5158, Control_c, 6, 11, 69
8, 5159, Control_c, 6, 11, 66
8, 5160, Control_c, 6, 11, 64
8, 5161, Control_c, 6, 11, 61
8, 5162, Control_c, 6, 11, 58
8, 5163, Control_c, 6, 11, 56
8, 5164, Control_c, 6, 11, 53
8, 5165, Control_c, 6, 11, 50
8, 5166, Control_c, 6, 11, 48
8, 5167, Control_c, 6, 11, 45
8, 5168, Control_c, 6, 11, 42
8, 5169, Control_c, 6, 11, 40
8, 5170, Control_c, 6, 11, 37
8, 5171, Control_c, 6, 11, 34
8, 5172, Control_c, 6, 11, 32
8, 5173, Control_c, 6, 11, 29
8, 5174, Control_c, 6, 11, 26
8, 5175, Control_c, 6, 11, 24
8, 5176, Control_c, 6, 11, 21
8, 5177, Control_c, 6, 11, 19
8, 5178, Control_c, 6, 11, 16
8, 5179, Control_c, 6, 11, 13
8, 5180, Control_c, 6, 11, 11
8, 5181, Control_c, 6, 11, 8
8, 5182, Control_c, 6, 11, 5
8, 5183, Control_c, 6, 11, 3
8, 5184, Note_off_c, 6, 93, 64
8, 5184, Control_c, 6, 11, 127
8, 5184, Note_on_c, 6, 33, 64
8, 5185, Control_c, 6, 11, 124
8, 5186, Control_c, 6, 11, 122
8, 5187, Control_c, 6, 11, 119
8, 5188, Control_c, 6, 11, 116
8, 5189, Control_c, 6, 11, 114
8, 5190, Control_c, 6, 11, 111
8, 5191, Control_c, 6, 11, 108
8, 5192, Control_c, 6, 11, 106
8, 5193, Control_c, 6, 11, 103
8, 5194, Control_c, 6, 11, 101
8, 5195, Control_c, 6, 11, 98
8, 5196, Control_c, 6, 11, 95
8, 5197, Control_c, 6, 11, 93
8, 5198, Control_c, 6, 11, 90
8, 5199, Control_c, 6, 11, 87
8, 5200, Control_c, 6, 11, 85
8, 5201, Control_c, 6, 11, 82
8, 5202, Control_c, 6, 11, 79
8, 5203, Control_c, 6, 11, 77
8, 5204, Control_c, 6, 11, 74
8, 5205, Control_c, 6, 11, 71
8, 5206, Control_c, 6, 11, 69
8, 5207, Control_c, 6, 11, 66
8, 5208, Control_c, 6, 11, 64
8, 5209, Control_c, 6, 11, 61
8, 5210, Control_c, 6, 11, 58
8, 5211, Control_c, 6, 11, 56
8, 5212, Control_c, 6, 11, 53
8, 5213, Control_c, 6, 11, 50
8, 5214, Control_c, 6, 11, 48
8, 5215, Control_c, 6, 11, 45
8, 5216, Control_c, 6, 11, 42
8, 5217, Control_c, 6, 11, 40
8, 5218, Control_c, 6, 11, 37
8, 5219, Control_c, 6, 11, 34
8, 5220, Control_c, 6, 11, 32
8, 5221, Control_c, 6, 11, 29
8, 5222, Control_c, 6, 11, 26
8, 5223, Control_c, 6, 11, 24
8, 5224, Control_c, 6, 11, 21
8, 5225, Control_c, 6, 11, 19
8, 5226, Control_c, 6, 11, 16
8, 5227, Control_c, 6, 11, 13
8, 5228, Control_c, 6, 11, 11
8, 5229, Control_c, 6, 11, 8
8, 5230, Control_c, 6, 11, 5
8, 5231, Control_c, 6, 11, 3
8, 5232, Note_off_c, 6, 33, 64
8, 5232, Control_c, 6, 11, 127
8, 5232, Note_on_c, 6, 93, 64
8, 5233, Control_c, 6, 11, 124
8, 5234, Control_c, 6, 11, 122
8, 5235, Control_c, 6, 11, 119
8, 5236, Control_c, 6, 11, 116
8, 5237, Control_c, 6, 11, 114
8, 5238, Control_c, 6, 11, 111
8, 5239, Control_c, 6, 11, 108
8, 5240, Control_c, 6, 11, 106
8, 5241, Control_c, 6, 11, 103
8, 5242, Control_c, 6, 11, 101
8, 5243, Control_c, 6, 11, 98
8, 5244, Control_c, 6, 11, 95
8, 5245, Control_c, 6, 11, 93
8, 5246, Control_c, 6, 11, 90
8, 5247, Control_c, 6, 11, 87
8, 5248, Control_c, 6, 11, 85
8, 5249, Control_c, 6, 11, 82
8, 5250, Control_c, 6, 11, 79
8, 5251, Control_c, 6, 11, 77
8, 5252, Control_c, 6, 11, 74
8, 5253, Control_c, 6, 11, 71
8, 5254, Control_c, 6, 11, 69
8, 5255, Control_c, 6, 11, 66
8, 5256, Control_c, 6, 11, 64
8, 5257, Control_c, 6, 11, 61
8, 5258, Control_c, 6, 11, 58
8, 5259, Control_c, 6, 11, 56
8, 5260, Control_c, 6, 11, 53
8, 5261, Control_c, 6, 11, 50
8, 5262, Control_c, 6, 11, 48
8, 5263, Control_c, 6, 11, 45
8, 5264, Control_c, 6, 11, 42
8, 5265, Control_c, 6, 11, 40
8, 5266, Control_c, 6, 11, 37
8, 5267, Control_c, 6, 11, 34
8, 5268, Control_c, 6, 11, 32
8, 5269, Control_c, 6, 11, 29
8, 5270, Control_c, 6, 11, 26
8, 5271, Control_c, 6, 11, 24
8, 5272, Control_c, 6, 11, 21
8, 5273, Control_c, 6, 11, 19
8, 5274, Control_c, 6, 11, 16
8, 5275, Control_c, 6, 11, 13
8, 5276, Control_c, 6, 11, 11
8, 5277, Control_c, 6, 11, 8
8, 5278, Control_c, 6, 11, 5
8, 5279, Control_c, 6, 11, 3
8, 5280, Note_off_c, 6, 93, 64
8, 5280, Control_c, 6, 11, 127
8, 5280, Note_on_c, 6, 63, 64
8, 5281, Control_c, 6, 11, 124
8, 5282, Control_c, 6, 11, 122
8, 5283, Control_c, 6, 11, 119
8, 5284, Control_c, 6, 11, 116
8, 5285, Control_c, 6, 11, 114
8, 5286, Control_c, 6, 11, 111
8, 5287, Control_c, 6, 11, 108
8, 5288, Control_c, 6, 11, 106
8, 5289, Control_c, 6, 11, 103
8, 5290, Control_c, 6, 11, 101
8, 5291, Control_c, 6, 11, 98
8, 5292, Control_c, 6, 11, 95
8, 5293, Control_c, 6, 11, 93
8, 5294, Control_c, 6, 11, 90
8, 5295, Control_c, 6, 11, 87
8, 5296, Control_c, 6, 11, 85
8, 5297, Control_c, 6, 11, 82
8, 5298, Control_c, 6, 11, 79
8, 5299, Control_c, 6, 11, 77
8, 5300, Control_c, 6, 11, 74
8, 5301, Control_c, 6, 11, 71
8, 5302, Control_c, 6, 11, 69
8, 5303, Control_c, 6, 11, 66
8, 5304, Control_c, 6, 11, 64
8, 5305, Control_c, 6, 11, 61
8, 5306, Control_c, 6, 11, 58
8, 5307, Control_c, 6, 11, 56
8, 5308, Control_c, 6, 11, 53
8, 5309, Control_c, 6, 11, 50
8, 5310, Control_c, 6, 11, 48
8, 5311, Control_c, 6, 11, 45
8, 5312, Control_c, 6, 11, 42
8, 5313, Control_c, 6, 11, 40
8, 5314, Control_c, 6, 11, 37
8, 5315, Control_c, 6, 11, 34
8, 5316, Control_c, 6, 11, 32
8, 5317, Control_c, 6, 11, 29
8, 5318, Control_c, 6, 11, 26
8, 5319, Control_c, 6, 11, 24
8, 5320, Control_c, 6, 11, 21
8, 5321, Control_c, 6, 11, 19
8, 5322, Control_c, 6, 11, 16
8, 5323, Control_c, 6, 11, 13
8, 5324, Control_c, 6, 11, 11
8, 5325, Control_c, 6, 11, 8
8, 5326, Control_c, 6, 11, 5
8, 5327, Control_c, 6, 11, 3
8, 5328, Note_off_c, 6, 63, 64
8, 5328, Control_c, 6, 11, 127
8, 5328, Note_on_c, 6, 63, 64
8, 5329, Control_c, 6, 11, 124
8, 5330, Control_c, 6, 11, 122
8, 5331, Control_c, 6, 11, 119
8, 5332, Control_c, 6, 11, 116
8, 5333, Control_c, 6, 11, 114
8, 5334, Control_c, 6, 11, 111
8, 5335, Control_c, 6, 11, 108
8, 5336, Control_c, 6, 11, 106
8, 5337, Control_c, 6, 11, 103
8, 5338, Control_c, 6, 11, 101
8, 5339, Control_c, 6, 11, 98
8, 5340, Control_c, 6, 11, 95
8, 5341, Control_c, 6, 11, 93
8, 5342, Control_c, 6, 11, 90
8, 5343, Control_c, 6, 11, 87
8, 5344, Control_c, 6, 11, 85
8, 5345, Control_c, 6, 11, 82
8, 5346, Control_c, 6, 11, 79
8, 5347, Control_c, 6, 11, 77
8, 5348, Control_c, 6, 11, 74
8, 5349, Control_c, 6, 11, 71
8, 5350, Control_c, 6, 11, 69
8, 5351, Control_c, 6, 11, 66
8, 5352, Control_c, 6, 11, 64
8, 5353, Control_c, 6, 11, 61
8, 5354, Control_c, 6, 11, 58
8, 5355, Control_c, 6, 11, 56
8, 5356, Control_c, 6, 11, 53
8, 5357, Control_c, 6, 11, 50
8, 5358, Control_c, 6, 11, 48
8, 5359, Control_c, 6, 11, 45
8, 5360, Control_c, 6, 11, 42
8, 5361, Control_c, 6, 11, 40
8, 5362, Control_c, 6, 11, 37
8, 5363, Control_c, 6, 11, 34
8, 5364, Control_c, 6, 11, 32
8, 5365, Control_c, 6, 11, 29
8, 5366, Control_c, 6, 11, 26
8, 5367, Control_c, 6, 11, 24
8, 5368, Control_c, 6, 11, 21
8, 5369, Control_c, 6, 11, 19
8, 5370, Control_c, 6, 11, 16
8, 5371, Control_c, 6, 11, 13
8, 5372, Control_c, 6, 11, 11
8, 5373, Control_c, 6, 11, 8
8, 5374, Control_c, 6, 11, 5
8, 5375, Control_c, 6, 11, 3
8, 5376, Note_off_c, 6, 63, 64
8, 5376, Control_c, 6, 11, 127
8, 5376, Note_on_c, 6, 33, 64
8, 5377, Control_c, 6, 11, 124
8, 5378, Control_c, 6, 11, 122
8, 5379, Control_c, 6, 11, 119
8, 5380, Control_c, 6, 11, 116
8, 5381, Control_c, 6, 11, 114
8, 5382, Control_c, 6, 11, 111
8, 5383, Control_c, 6, 11, 108
8, 5384, Control_c, 6, 11, 106
8, 5385, Control_c, 6, 11, 103
8, 5386, Control_c, 6, 11, 101
8, 5387, Control_c, 6, 11, 98
8, 5388, Control_c, 6, 11, 95
8, 5389, Control_c, 6, 11, 93
8, 5390, Control_c, 6, 11, 90
8, 5391, Control_c, 6, 11, 87
8, 5392, Control_c, 6, 11, 85
8, 5393, Control_c, 6, 11, 82
8, 5394, Control_c, 6, 11, 79
8, 5395, Control_c, 6, 11, 77
8, 5396, Control_c, 6, 11, 74
8, 5397, Control_c, 6, 11, 71
8, 5398, Control_c, 6, 11, 69
8, 5399, Control_c, 6, 11, 66
8, 5400, Control_c, 6, 11, 64
8, 5401, Control_c, 6, 11, 61
8, 5402, Control_c, 6, 11, 58
8, 5403, Control_c, 6, 11, 56
8, 5404, Control_c, 6, 11, 53
8, 5405, Control_c, 6, 11, 50
8, 5406, Control_c, 6, 11, 48
8, 5407, Control_c, 6, 11, 45
8, 5408, Control_c, 6, 11, 42
8, 5409, Control_c, 6, 11, 40
8, 5410, Control_c, 6, 11, 37
8, 5411, Control_c, 6, 11, 34
8, 5412, Control_c, 6, 11, 32
8, 5413, Control_c, 6, 11, 29
8, 5414, Control_c, 6, 11, 26
8, 5415, Control_c, 6, 11, 24
8, 5416, Control_c, 6, 11, 21
8, 5417, Control_c, 6, 11, 19
8, 5418, Control_c, 6, 11, 16
8, 5419, Control_c, 6, 11, 13
8, 5420, Control_c, 6, 11, 11
8, 5421, Control_c, 6, 11, 8
8, 5422, Control_c, 6, 11, 5
8, 5423, Control_c, 6, 11, 3
8, 5424, Note_off_c, 6, 33, 64
8, 5424, Control_c, 6, 11, 127
8, 5424, Note_on_c, 6, 93, 64
8, 5425, Control_c, 6, 11, 124
8, 5426, Control_c, 6, 11, 122
8, 5427, Control_c, 6, 11, 119
8, 5428, Control_c, 6, 11, 116
8, 5429, Control_c, 6, 11, 114
8, 5430, Control_c, 6, 11, 111
8, 5431, Control_c, 6, 11, 108
8, 5432, Control_c, 6, 11, 106
8, 5433, Control_c, 6, 11, 103
8, 5434, Control_c, 6, 11, 101
8, 5435, Control_c, 6, 11, 98
8, 5436, Control_c, 6, 11, 95
8, 5437, Control_c, 6, 11, 93
8, 5438, Control_c, 6, 11, 90
8, 5439, Control_c, 6, 11, 87
8, 5440, Control_c, 6, 11, 85
8, 5441, Control_c, 6, 11, 82
8, 5442, Control_c, 6, 11, 79
8, 5443, Control_c, 6, 11, 77
8, 5444, Control_c, 6, 11, 74
8, 5445, Control_c, 6, 11, 71
8, 5446, Control_c, 6, 11, 69
8, 5447, Control_c, 6, 11, 66
8, 5448, Control_c, 6, 11, 64
8, 5449, Control_c, 6, 11, 61
8, 5450, Control_c, 6, 11, 58
8, 5451, Control_c, 6, 11, 56
8, 5452, Control_c, 6, 11, 53
8, 5453, Control_c, 6, 11, 50
8, 5454, Control_c, 6, 11, 48
8, 5455, Control_c, 6, 11, 45
8, 5456, Control_c, 6, 11, 42
8, 5457, Control_c, 6, 11, 40
8, 5458, Control_c, 6, 11, 37
8, 5459, Control_c, 6, 11, 34
8, 5460, Control_c, 6, 11, 32
8, 5461, Control_c, 6, 11, 29
8, 5462, Control_c, 6, 11, 26
8, 5463, Control_c, 6, 11, 24
8, 5464, Control_c, 6, 11, 21
8, 5465, Control_c, 6, 11, 19
8, 5466, Control_c, 6, 11, 16
8, 5467, Control_c, 6, 11, 13
8, 5468, Control_c, 6, 11, 11
8, 5469, Control_c, 6, 11, 8
8, 5470, Control_c, 6, 11, 5
8, 5471, Control_c, 6, 11, 3
8, 5472, Note_off_c, 6, 93, 64
8, 5472, Control_c, 6, 11, 127
8, 5472, Note_on_c, 6, 63, 64
8, 5473, Control_c, 6, 11, 124
8, 5474, Control_c, 6, 11, 122
8, 5475, Control_c, 6, 11, 119
8, 5476, Control_c, 6, 11, 116
8, 5477, Control_c, 6, 11, 114
8, 5478, Control_c, 6, 11, 111
8, 5479, Control_c, 6, 11, 108
8, 5480, Control_c, 6, 11, 106
8, 5481, Control_c, 6, 11, 103
8, 5482, Control_c, 6, 11, 101
8, 5483, Control_c, 6, 11, 98
8, 5484, Control_c, 6, 11, 95
8, 5485, Control_c, 6, 11, 93
8, 5486, Control_c, 6, 11, 90
8, 5487, Control_c, 6, 11, 87
8, 5488, Control_c, 6, 11, 85
8, 5489, Control_c, 6, 11, 82
8, 5490, Control_c, 6, 11, 79
8, 5491, Control_c, 6, 11, 77
8, 5492, Control_c, 6, 11, 74
8, 5493, Control_c, 6, 11, 71
8, 5494, Control_c, 6, 11, 69
8, 5495, Control_c, 6, 11, 66
8, 5496, Control_c, 6, 11, 64
8, 5497, Control_c, 6, 11, 61
8, 5498, Control_c, 6, 11, 58
8, 5499, Control_c, 6, 11, 56
8, 5500, Control_c, 6, 11, 53
8, 5501, Control_c, 6, 11, 50
8, 5502, Control_c, 6, 11, 48
8, 5503, Control_c, 6, 11, 45
8, 5504, Control_c, 6, 11, 42
8, 5505, Control_c, 6, 11, 40
8, 5506, Control_c, 6, 11, 37
8, 5507, Control_c, 6, 11, 34
8, 5508, Control_c, 6, 11, 32
8, 5509, Control_c, 6, 11, 29
8, 5510, Control_c, 6, 11, 26
8, 5511, Control_c, 6, 11, 24
8, 5512, Control_c, 6, 11, 21
8, 5513, Control_c, 6, 11, 19
8, 5514, Control_c, 6, 11, 16
8, 5515, Control_c, 6, 11, 13
8, 5516, Control_c, 6, 11, 11
8, 5517, Control_c, 6, 11, 8
8, 5518, Control_c, 6, 11, 5
8, 5519, Control_c, 6, 11, 3
8, 5520, Note_off_c, 6, 63, 64
8, 5520, Control_c, 6, 11, 127
8, 5520, Note_on_c, 6, 93, 64
8, 5521, Control_c, 6, 11, 124
8, 5522, Control_c, 6, 11, 122
8, 5523, Control_c, 6, 11, 119
8, 5524, Control_c, 6, 11, 116
8, 5525, Control_c, 6, 11, 114
8, 5526, Control_c, 6, 11, 111
8, 5527, Control_c, 6, 11, 108
8, 5528, Control_c, 6, 11, 106
8, 5529, Control_c, 6, 11, 103
8, 5530, Control_c, 6, 11, 101
8, 5531, Control_c, 6, 11, 98
8, 5532, Control_c, 6, 11, 95
8, 5533, Control_c, 6, 11, 93
8, 5534, Control_c, 6, 11, 90
8, 5535, Control_c, 6, 11, 87
8, 5536, Control_c, 6, 11, 85
8, 5537, Control_c, 6, 11, 82
8, 5538, Control_c, 6, 11, 79
8, 5539, Control_c, 6, 11, 77
8, 5540, Control_c, 6, 11, 74
8, 5541, Control_c, 6, 11, 71
8, 5542, Control_c, 6, 11, 69
8, 5543, Control_c, 6, 11, 66
8, 5544, Control_c, 6, 11, 64
8, 5545, Control_c, 6, 11, 61
8, 5546, Control_c, 6, 11, 58
8, 5547, Control_c, 6, 11, 56
8, 5548, Control_c, 6, 11, 53
8, 5549, Control_c, 6, 11, 50
8, 5550, Control_c, 6, 11, 48
8, 5551, Control_c, 6, 11, 45
8, 5552, Control_c, 6, 11, 42
8, 5553, Control_c, 6, 11, 40
8, 5554, Control_c, 6, 11, 37
8, 5555, Control_c, 6, 11, 34
8, 5556, Control_c, 6, 11, 32
8, 5557, Control_c, 6, 11, 29
8, 5558, Control_c, 6, 11, 26
8, 5559, Control_c, 6, 11, 24
8, 5560, Control_c, 6, 11, 21
8, 5561, Control_c, 6, 11, 19
8, 5562, Control_c, 6, 11, 16
8, 5563, Control_c, 6, 11, 13
8, 5564, Control_c, 6, 11, 11
8, 5565, Control_c, 6, 11, 8
8, 5566, Control_c, 6, 11, 5
8, 5567, Control_c, 6, 11, 3
8, 5568, Note_off_c, 6, 93, 64
8, 5568, Control_c, 6, 11, 127
8, 5568, Note_on_c, 6, 33, 64
8, 5569, Control_c, 6, 11, 124
8, 5570, Control_c, 6, 11, 122
8, 5571, Control_c, 6, 11, 119
8, 5572, Control_c, 6, 11, 116
8, 5573, Control_c, 6, 11, 114
8, 5574, Control_c, 6, 11, 111
8, 5575, Control_c, 6, 11, 108
8, 5576, Control_c, 6, 11, 106
8, 5577, Control_c, 6, 11, 103
8, 5578, Control_c, 6, 11, 101
8, 5579, Control_c, 6, 11, 98
8, 5580, Control_c, 6, 11, 95
8, 5581, Control_c, 6, 11, 93
8, 5582, Control_c, 6, 11, 90
8, 5583, Control_c, 6, 11, 87
8, 5584, Control_c, 6, 11, 85
8, 5585, Control_c, 6, 11, 82
8, 5586, Control_c, 6, 11, 79
8, 5587, Control_c, 6, 11, 77
8, 5588, Control_c, 6, 11, 74
8, 5589, Control_c, 6, 11, 71
8, 5590, Control_c, 6, 11, 69
8, 5591, Control_c, 6, 11, 66
8, 5592, Control_c, 6, 11, 64
8, 5593, Control_c, 6, 11, 61
8, 5594, Control_c, 6, 11, 58
8, 5595, Control_c, 6, 11, 56
8, 5596, Control_c, 6, 11, 53
8, 5597, Control_c, 6, 11, 50
8, 5598, Control_c, 6, 11, 48
8, 5599, Control_c, 6, 11, 45
8, 5600, Control_c, 6, 11, 42
8, 5601, Control_c, 6, 11, 40
8, 5602, Control_c, 6, 11, 37
8, 5603, Control_c, 6, 11, 34
8, 5604, Control_c, 6, 11, 32
8, 5605, Control_c, 6, 11, 29
8, 5606, Control_c, 6, 11, 26
8, 5607, Control_c, 6, 11, 24
8, 5608, Control_c, 6, 11, 21
8, 5609, Control_c, 6, 11, 19
8, 5610, Control_c, 6, 11, 16
8, 5611, Control_c, 6, 11, 13
8, 5612, Control_c, 6, 11, 11
8, 5613, Control_c, 6, 11, 8
8, 5614, Control_c, 6, 11, 5
8, 5615, Control_c, 6, 11, 3
8, 5616, Note_off_c, 6, 33, 64
8, 5616, Control_c, 6, 11, 127
8, 5616, Note_on_c, 6, 93, 64
8, 5617, Control_c, 6, 11, 124
8, 5618, Control_c, 6, 11, 122
8, 5619, Control_c, 6, 11, 119
8, 5620, Control_c, 6, 11, 116
8, 5621, Control_c, 6, 11, 114
8, 5622, Control_c, 6, 11, 111
8, 5623, Control_c, 6, 11, 108
8, 5624, Control_c, 6, 11, 106
8, 5625, Control_c, 6, 11, 103
8, 5626, Control_c, 6, 11, 101
8, 5627, Control_c, 6, 11, 98
8, 5628, Control_c, 6, 11, 95
8, 5629, Control_c, 6, 11, 93
8, 5630, Control_c, 6, 11, 90
8, 5631, Control_c, 6, 11, 87
8, 5632, Control_c, 6, 11, 85
8, 5633, Control_c, 6, 11, 82
8, 5634, Control_c, 6, 11, 79
8, 5635, Control_c, 6, 11, 77
8, 5636, Control_c, 6, 11, 74
8, 5637, Control_c, 6, 11, 71
8, 5638, Control_c, 6, 11, 69
8, 5639, Control_c, 6, 11, 66
8, 5640, Control_c, 6, 11, 64
8, 5641, Control_c, 6, 11, 61
8, 5642, Control_c, 6, 11, 58
8, 5643, Control_c, 6, 11, 56
8, 5644, Control_c, 6, 11, 53
8, 5645, Control_c, 6, 11, 50
8, 5646, Control_c, 6, 11, 48
8, 5647, Control_c, 6, 11, 45
8, 5648, Control_c, 6, 11, 42
8, 5649, Control_c, 6, 11, 40
8, 5650, Control_c, 6, 11, 37
8, 5651, Control_c, 6, 11, 34
8, 5652, Control_c, 6, 11, 32
8, 5653, Control_c, 6, 11, 29
8, 5654, Control_c, 6, 11, 26
8, 5655, Control_c, 6, 11, 24
8, 5656, Control_c, 6, 11, 21
8, 5657, Control_c, 6, 11, 19
8, 5658, Control_c, 6, 11, 16
8, 5659, Control_c, 6, 11, 13
8, 5660, Control_c, 6, 11, 11
8, 5661, Control_c, 6, 11, 8
8, 5662, Control_c, 6, 11, 5
8, 5663, Control_c, 6, 11, 3
8, 5664, Note_off_c, 6, 93, 64
8, 5664, Control_c, 6, 11, 127
8, 5664, Note_on_c, 6, 63, 64
8, 5665, Control_c, 6, 11, 124
8, 5666, Control_c, 6, 11, 122
8, 5667, Control_c, 6, 11, 119
8, 5668, Control_c, 6, 11, 116
8, 5669, Control_c, 6, 11, 114
8, 5670, Control_c, 6, 11, 111
8, 5671, Control_c, 6, 11, 108
8, 5672, Control_c, 6, 11, 106
8, 5673, Control_c, 6, 11, 103
8, 5674, Control_c, 6, 11, 101
8, 5675, Control_c, 6, 11, 98
8, 5676, Control_c, 6, 11, 95
8, 5677, Control_c, 6, 11, 93
8, 5678, Control_c, 6, 11, 90
8, 5679, Control_c, 6, 11, 87
8, 5680, Control_c, 6, 11, 85
8, 5681, Control_c, 6, 11, 82
8, 5682, Control_c, 6, 11, 79
8, 5683, Control_c, 6, 11, 77
8, 5684, Control_c, 6, 11, 74
8, 5685, Control_c, 6, 11, 71
8, 5686, Control_c, 6, 11, 69
8, 5687, Control_c, 6, 11, 66
8, 5688, Control_c, 6, 11, 64
8, 5689, Control_c, 6, 11, 61
8, 5690, Control_c, 6, 11, 58
8, 5691, Control_c, 6, 11, 56
8, 5692, Control_c, 6, 11, 53
8, 5693, Control_c, 6, 11, 50
8, 5694, Control_c, 6, 11, 48
8, 5695, Control_c, 6, 11, 45
8, 5696, Control_c, 6, 11, 42
8, 5697, Control_c, 6, 11, 40
8, 5698, Control_c, 6, 11, 37
8, 5699, Control_c, 6, 11, 34
8, 5700, Control_c, 6, 11, 32
8, 5701, Control_c, 6, 11, 29
8, 5702, Control_c, 6, 11, 26
8, 5703, Control_c, 6, 11, 24
8, 5704, Control_c, 6, 11, 21
8, 5705, Control_c, 6, 11, 19
8, 5706, Control_c, 6, 11, 16
8, 5707, Control_c, 6, 11, 13
8, 5708, Control_c, 6, 11, 11
8, 5709, Control_c, 6, 11, 8
8, 5710, Control_c, 6, 11, 5
8, 5711, Control_c, 6, 11, 3
8, 5712, Note_off_c, 6, 63, 64
8, 5712, Control_c, 6, 11, 127
8, 5712, Note_on_c, 6, 93, 64
8, 5713, Control_c, 6, 11, 124
8, 5714, Control_c, 6, 11, 122
8, 5715, Control_c, 6, 11, 119
8, 5716, Control_c, 6, 11, 116
8, 5717, Control_c, 6, 11, 114
8, 5718, Control_c, 6, 11, 111
8, 5719, Control_c, 6, 11, 108
8, 5720, Control_c, 6, 11, 106
8, 5721, Control_c, 6, 11, 103
8, 5722, Control_c, 6, 11, 101
8, 5723, Control_c, 6, 11, 98
8, 5724, Control_c, 6, 11, 95
8, 5725, Control_c, 6, 11, 93
8, 5726, Control_c, 6, 11, 90
8, 5727, Control_c, 6, 11, 87
8, 5728, Control_c, 6, 11, 85
8, 5729, Control_c, 6, 11, 82
8, 5730, Control_c, 6, 11, 79
8, 5731, Control_c, 6, 11, 77
8, 5732, Control_c, 6, 11, 74
8, 5733, Control_c, 6, 11, 71
8, 5734, Control_c, 6, 11, 69
8, 5735, Control_c, 6, 11, 66
8, 5736, Control_c, 6, 11, 64
8, 5737, Control_c, 6, 11, 61
8, 5738, Control_c, 6, 11, 58
8, 5739, Control_c, 6, 11, 56
8, 5740, Control_c, 6, 11, 53
8, 5741, Control_c, 6, 11, 50
8, 5742, Control_c, 6, 11, 48
8, 5743, Control_c, 6, 11, 45
8, 5744, Control_c, 6, 11, 42
8, 5745, Control_c, 6, 11, 40
8, 5746, Control_c, 6, 11, 37
8, 5747, Control_c, 6, 11, 34
8, 5748, Control_c, 6, 11, 32
8, 5749, Control_c, 6, 11, 29
8, 5750, Control_c, 6, 11, 26
8, 5751, Control_c, 6, 11, 24
8, 5752, Control_c, 6, 11, 21
8, 5753, Control_c, 6, 11, 19
8, 5754, Control_c, 6, 11, 16
8, 5755, Control_c, 6, 11, 13
8, 5756, Control_c, 6, 11, 11
8, 5757, Control_c, 6, 11, 8
8, 5758, Control_c, 6, 11, 5
8, 5759, Control_c, 6, 11, 3
8, 5760, Note_off_c, 6, 93, 64
8, 5760, Control_c, 6, 11, 127
8, 5760, Note_on_c, 6, 33, 64
8, 5761, Control_c, 6, 11, 124
8, 5762, Control_c, 6, 11, 122
8, 5763, Control_c, 6, 11, 119
8, 5764, Control_c, 6, 11, 116
8, 5765, Control_c, 6, 11, 114
8, 5766, Control_c, 6, 11, 111
8, 5767, Control_c, 6, 11, 108
8, 5768, Control_c, 6, 11, 106
8, 5769, Control_c, 6, 11, 103
8, 5770, Control_c, 6, 11, 101
8, 5771, Control_c, 6, 11, 98
8, 5772, Control_c, 6, 11, 95
8, 5773, Control_c, 6, 11, 93
8, 5774, Control_c, 6, 11, 90
8, 5775, Control_c, 6, 11, 87
8, 5776, Control_c, 6, 11, 85
8, 5777, Control_c, 6, 11, 82
8, 5778, Control_c, 6, 11, 79
8, 5779, Control_c, 6, 11, 77
8, 5780, Control_c, 6, 11, 74
8, 5781, Control_c, 6, 11, 71
8, 5782, Control_c, 6, 11, 69
8, 5783, Control_c, 6, 11, 66
8, 5784, Control_c, 6, 11, 64
8, 5785, Control_c, 6, 11, 61
8, 5786, Control_c, 6, 11, 58
8, 5787, Control_c, 6, 11, 56
8, 5788, Control_c, 6, 11, 53
8, 5789, Control_c, 6, 11, 50
8, 5790, Control_c, 6, 11, 48
8, 5791, Control_c, 6, 11, 45
8, 5792, Control_c, 6, 11, 42
8, 5793, Control_c, 6, 11, 40
8, 5794, Control_c, 6, 11, 37
8, 5795, Control_c, 6, 11, 34
8, 5796, Control_c, 6, 11, 32
8, 5797, Control_c, 6, 11, 29
8, 5798, Control_c, 6, 11, 26
8, 5799, Control_c, 6, 11, 24
8, 5800, Control_c, 6, 11, 21
8, 5801, Control_c, 6, 11, 19
8, 5802, Control_c, 6, 11, 16
8, 5803, Control_c, 6, 11, 13
8, 5804, Control_c, 6, 11, 11
8, 5805, Control_c, 6, 11, 8
8, 5806, Control_c, 6, 11, 5
8, 5807, Control_c, 6, 11, 3
8, 5808, Note_off_c, 6, 33, 64
8, 5808, Control_c, 6, 11, 127
8, 5808, Note_on_c, 6, 93, 64
8, 5809, Control_c, 6, 11, 124
8, 5810, Control_c, 6, 11, 122
8, 5811, Control_c, 6, 11, 119
8, 5812, Control_c, 6, 11, 116
8, 5813, Control_c, 6, 11, 114
8, 5814, Control_c, 6, 11, 111
8, 5815, Control_c, 6, 11, 108
8, 5816, Control_c, 6, 11, 106
8, 5817, Control_c, 6, 11, 103
8, 5818, Control_c, 6, 11, 101
8, 5819, Control_c, 6, 11, 98
8, 5820, Control_c, 6, 11, 95
8, 5821, Control_c, 6, 11, 93
8, 5822, Control_c, 6, 11, 90
8, 5823, Control_c, 6, 11, 87
8, 5824, Control_c, 6, 11, 85
8, 5825, Control_c, 6, 11, 82
8, 5826, Control_c, 6, 11, 79
8, 5827, Control_c, 6, 11, 77
8, 5828, Control_c, 6, 11, 74
8, 5829, Control_c, 6, 11, 71
8, 5830, Control_c, 6, 11, 69
8, 5831, Control_c, 6, 11, 66
8, 5832, Control_c, 6, 11, 64
8, 5833, Control_c, 6, 11, 61
8, 5834, Control_c, 6, 11, 58
8, 5835, Control_c, 6, 11, 56
8, 5836, Control_c, 6, 11, 53
8, 5837, Control_c, 6, 11, 50
8, 5838, Control_c, 6, 11, 48
8, 5839, Control_c, 6, 11, 45
8, 5840, Control_c, 6, 11, 42
8, 5841, Control_c, 6, 11, 40
8, 5842, Control_c, 6, 11, 37
8, 5843, Control_c, 6, 11, 34
8, 5844, Control_c, 6, 11, 32
8, 5845, Control_c, 6, 11, 29
8, 5846, Control_c, 6, 11, 26
8, 5847, Control_c, 6, 11, 24
8, 5848, Control_c, 6, 11, 21
8, 5849, Control_c, 6, 11, 19
8, 5850, Control_c, 6, 11, 16
8, 5851, Control_c, 6, 11, 13
8, 5852, Control_c, 6, 11, 11
8, 5853, Control_c, 6, 11, 8
8, 5854, Control_c, 6, 11, 5
8, 5855, Control_c, 6, 11, 3
8, 5856, Note_off_c, 6, 93, 64
8, 5856, Control_c, 6, 11, 127
8, 5856, Note_on_c, 6, 63, 64
8, 5857, Control_c, 6, 11, 124
8, 5858, Control_c, 6, 11, 122
8, 5859, Control_c, 6, 11, 119
8, 5860, Control_c, 6, 11, 116
8, 5861, Control_c, 6, 11, 114
8, 5862, Control_c, 6, 11, 111
8, 5863, Control_c, 6, 11, 108
8, 5864, Control_c, 6, 11, 106
8, 5865, Control_c, 6, 11, 103
8, 5866, Control_c, 6, 11, 101
8, 5867, Control_c, 6, 11, 98
8, 5868, Control_c, 6, 11, 95
8, 5869, Control_c, 6, 11, 93
8, 5870, Control_c, 6, 11, 90
8, 5871, Control_c, 6, 11, 87
8, 5872, Control_c, 6, 11, 85
8, 5873, Control_c, 6, 11, 82
8, 5874, Control_c, 6, 11, 79
8, 5875, Control_c, 6, 11, 77
8, 5876, Control_c, 6, 11, 74
8, 5877, Control_c, 6, 11, 71
8, 5878, Control_c, 6, 11, 69
8, 5879, Control_c, 6, 11, 66
8, 5880, Control_c, 6, 11, 64
8, 5881, Control_c, 6, 11, 61
8, 5882, Control_c, 6, 11, 58
8, 5883, Control_c, 6, 11, 56
8, 5884, Control_c, 6, 11, 53
8, 5885, Control_c, 6, 11, 50
8, 5886, Control_c, 6, 11, 48
8, 5887, Control_c, 6, 11, 45
8, 5888, Control_c, 6, 11, 42
8, 5889, Control_c, 6, 11, 40
8, 5890, Control_c, 6, 11, 37
8, 5891, Control_c, 6, 11, 34
8, 5892, Control_c, 6, 11, 32
8, 5893, Control_c, 6, 11, 29
8, 5894, Control_c, 6, 11, 26
8, 5895, Control_c, 6, 11, 24
8, 5896, Control_c, 6, 11, 21
8, 5897, Control_c, 6, 11, 19
8, 5898, Control_c, 6, 11, 16
8, 5899, Control_c, 6, 11, 13
8, 5900, Control_c, 6, 11, 11
8, 5901, Control_c, 6, 11, 8
8, 5902, Control_c, 6, 11, 5
8, 5903, Control_c, 6, 11, 3
8, 5904, Note_off_c, 6, 63, 64
8, 5904, Control_c, 6, 11, 127
8, 5904, Note_on_c, 6, 93, 64
8, 5905, Control_c, 6, 11, 124
8, 5906, Control_c, 6, 11, 122
8, 5907, Control_c, 6, 11, 119
8, 5908, Control_c, 6, 11, 116
8, 5909, Control_c, 6, 11, 114
8, 5910, Control_c, 6, 11, 111
8, 5911, Control_c, 6, 11, 108
8, 5912, Control_c, 6, 11, 106
8, 5913, Control_c, 6, 11, 103
8, 5914, Control_c, 6, 11, 101
8, 5915, Control_c, 6, 11, 98
8, 5916, Control_c, 6, 11, 95
8, 5917, Control_c, 6, 11, 93
8, 5918, Control_c, 6, 11, 90
8, 5919, Control_c, 6, 11, 87
8, 5920, Control_c, 6, 11, 85
8, 5921, Control_c, 6, 11, 82
8, 5922, Control_c, 6, 11, 79
8, 5923, Control_c, 6, 11, 77
8, 5924, Control_c, 6, 11, 74
8, 5925, Control_c, 6, 11, 71
8, 5926, Control_c, 6, 11, 69
8, 5927, Control_c, 6, 11, 66
8, 5928, Control_c, 6, 11, 64
8, 5929, Control_c, 6, 11, 61
8, 5930, Control_c, 6, 11, 58
8, 5931, Control_c, 6, 11, 56
8, 5932, Control_c, 6, 11, 53
8, 5933, Control_c, 6, 11, 50
8, 5934, Control_c, 6, 11, 48
8, 5935, Control_c, 6, 11, 45
8, 5936, Control_c, 6, 11, 42
8, 5937, Control_c, 6, 11, 40
8, 5938, Control_c, 6, 11, 37
8, 5939, Control_c, 6, 11, 34
8, 5940, Control_c, 6, 11, 32
8, 5941, Control_c, 6, 11, 29
8, 5942, Control_c, 6, 11, 26
8, 5943, Control_c, 6, 11, 24
8, 5944, Control_c, 6, 11, 21
8, 5945, Control_c, 6, 11, 19
8, 5946, Control_c, 6, 11, 16
8, 5947, Control_c, 6, 11, 13
8, 5948, Control_c, 6, 11, 11
8, 5949, Control_c, 6, 11, 8
8, 5950, Control_c, 6, 11, 5
8, 5951, Control_c, 6, 11, 3
8, 5952, Note_off_c, 6, 93, 64
8, 5952, Control_c, 6, 11, 127
8, 5952, Note_on_c, 6, 33, 64
8, 5953, Control_c, 6, 11, 124
8, 5954, Control_c, 6, 11, 122
8, 5955, Control_c, 6, 11, 119
8, 5956, Control_c, 6, 11, 116
8, 5957, Control_c, 6, 11, 114
8, 5958, Control_c, 6, 11, 111
8, 5959, Control_c, 6, 11, 108
8, 5960, Control_c, 6, 11, 106
8, 5961, Control_c, 6, 11, 103
8, 5962, Control_c, 6, 11, 101
8, 5963, Control_c, 6, 11, 98
8, 5964, Control_c, 6, 11, 95
8, 5965, Control_c, 6, 11, 93
8, 5966, Control_c, 6, 11, 90
8, 5967, Control_c, 6, 11, 87
8, 5968, Control_c, 6, 11, 85
8, 5969, Control_c, 6, 11, 82
8, 5970, Control_c, 6, 11, 79
8, 5971, Control_c, 6, 11, 77
8, 5972, Control_c, 6, 11, 74
8, 5973, Control_c, 6, 11, 71
8, 5974, Control_c, 6, 11, 69
8, 5975, Control_c, 6, 11, 66
8, 5976, Control_c, 6, 11, 64
8, 5977, Control_c, 6, 11, 61
8, 5978, Control_c, 6, 11, 58
8, 5979, Control_c, 6, 11, 56
8, 5980, Control_c, 6, 11, 53
8, 5981, Control_c, 6, 11, 50
8, 5982, Control_c, 6, 11, 48
8, 5983, Control_c, 6, 11, 45
8, 5984, Control_c, 6, 11, 42
8, 5985, Control_c, 6, 11, 40
8, 5986, Control_c, 6, 11, 37
8, 5987, Control_c, 6, 11, 34
8, 5988, Control_c, 6, 11, 32
8, 5989, Control_c, 6, 11, 29
8, 5990, Control_c, 6, 11, 26
8, 5991, Control_c, 6, 11, 24
8, 5992, Control_c, 6, 11, 21
8, 5993, Control_c, 6, 11, 19
8, 5994, Control_c, 6, 11, 16
8, 5995, Control_c, 6, 11, 13
8, 5996, Control_c, 6, 11, 11
8, 5997, Control_c, 6, 11, 8
8, 5998, Control_c, 6, 11, 5
8, 5999, Control_c, 6, 11, 3
8, 6000, Note_off_c, 6, 33, 64
8, 6000, Control_c, 6, 11, 127
8, 6000, Note_on_c, 6, 93, 64
8, 6001, Control_c, 6, 11, 124
8, 6002, Control_c, 6, 11, 122
8, 6003, Control_c, 6, 11, 119
8, 6004, Control_c, 6, 11, 116
8, 6005, Control_c, 6, 11, 114
8, 6006, Control_c, 6, 11, 111
8, 6007, Control_c, 6, 11, 108
8, 6008, Control_c, 6, 11, 106
8, 6009, Control_c, 6, 11, 103
8, 6010, Control_c, 6, 11, 101
8, 6011, Control_c, 6, 11, 98
8, 6012, Control_c, 6, 11, 95
8, 6013, Control_c, 6, 11, 93
8, 6014, Control_c, 6, 11, 90
8, 6015, Control_c, 6, 11, 87
8, 6016, Control_c, 6, 11, 85
8, 6017, Control_c, 6, 11, 82
8, 6018, Control_c, 6, 11, 79
8, 6019, Control_c, 6, 11, 77
8, 6020, Control_c, 6, 11, 74
8, 6021, Control_c, 6, 11, 71
8, 6022, Control_c, 6, 11, 69
8, 6023, Control_c, 6, 11, 66
8, 6024, Control_c, 6, 11, 64
8, 6025, Control_c, 6, 11, 61
8, 6026, Control_c, 6, 11, 58
8, 6027, Control_c, 6, 11, 56
8, 6028, Control_c, 6, 11, 53
8, 6029, Control_c, 6, 11, 50
8, 6030, Control_c, 6, 11, 48
8, 6031, Control_c, 6, 11, 45
8, 6032, Control_c, 6, 11, 42
8, 6033, Control_c, 6, 11, 40
8, 6034, Control_c, 6, 11, 37
8, 6035, Control_c, 6, 11, 34
8, 6036, Control_c, 6, 11, 32
8, 6037, Control_c, 6, 11, 29
8, 6038, Control_c, 6, 11, 26
8, 6039, Control_c, 6, 11, 24
8, 6040, Control_c, 6, 11, 21
8, 6041, Control_c, 6, 11, 19
8, 6042, Control_c, 6, 11, 16
8, 6043, Control_c, 6, 11, 13
8, 6044, Control_c, 6, 11, 11
8, 6045, Control_c, 6, 11, 8
8, 6046, Control_c, 6, 11, 5
8, 6047, Control_c, 6, 11, 3
8, 6048, Note_off_c, 6, 93, 64
8, 6048, Control_c, 6, 11, 127
8, 6048, Note_on_c, 6, 63, 64
8, 6049, Control_c, 6, 11, 124
8, 6050, Control_c, 6, 11, 122
8, 6051, Control_c, 6, 11, 119
8, 6052, Control_c, 6, 11, 116
8, 6053, Control_c, 6, 11, 114
8, 6054, Control_c, 6, 11, 111
8, 6055, Control_c, 6, 11, 108
8, 6056, Control_c, 6, 11, 106
8, 6057, Control_c, 6, 11, 103
8, 6058, Control_c, 6, 11, 101
8, 6059, Control_c, 6, 11, 98
8, 6060, Control_c, 6, 11, 95
8, 6061, Control_c, 6, 11, 93
8, 6062, Control_c, 6, 11, 90
8, 6063, Control_c, 6, 11, 87
8, 6064, Control_c, 6, 11, 85
8, 6065, Control_c, 6, 11, 82
8, 6066, Control_c, 6, 11, 79
8, 6067, Control_c, 6, 11, 77
8, 6068, Control_c, 6, 11, 74
8, 6069, Control_c, 6, 11, 71
8, 6070, Control_c, 6, 11, 69
8, 6071, Control_c, 6, 11, 66
8, 6072, Control_c, 6, 11, 64
8, 6073, Control_c, 6, 11, 61
8, 6074, Control_c, 6, 11, 58
8, 6075, Control_c, 6, 11, 56
8, 6076, Control_c, 6, 11, 53
8, 6077, Control_c, 6, 11, 50
8, 6078, Control_c, 6, 11, 48
8, 6079, Control_c, 6, 11, 45
8, 6080, Control_c, 6, 11, 42
8, 6081, Control_c, 6, 11, 40
8, 6082, Control_c, 6, 11, 37
8, 6083, Control_c, 6, 11, 34
8, 6084, Control_c, 6, 11, 32
8, 6085, Control_c, 6, 11, 29
8, 6086, Control_c, 6, 11, 26
8, 6087, Control_c, 6, 11, 24
8, 6088, Control_c, 6, 11, 21
8, 6089, Control_c, 6, 11, 19
8, 6090, Control_c, 6, 11, 16
8, 6091, Control_c, 6, 11, 13
8, 6092, Control_c, 6, 11, 11
8, 6093, Control_c, 6, 11, 8
8, 6094, Control_c, 6, 11, 5
8, 6095, Control_c, 6, 11, 3
8, 6096, Note_off_c, 6, 63, 64
8, 6096, Control_c, 6, 11, 127
8, 6096, Note_on_c, 6, 63, 64
8, 6097, Control_c, 6, 11, 124
8, 6098, Control_c, 6, 11, 122
8, 6099, Control_c, 6, 11, 119
8, 6100, Control_c, 6, 11, 116
8, 6101, Control_c, 6, 11, 114
8, 6102, Control_c, 6, 11, 111
8, 6103, Control_c, 6, 11, 108
8, 6104, Control_c, 6, 11, 106
8, 6105, Control_c, 6, 11, 103
8, 6106, Control_c, 6, 11, 101
8, 6107, Control_c, 6, 11, 98
8, 6108, Control_c, 6, 11, 95
8, 6109, Control_c, 6, 11, 93
8, 6110, Control_c, 6, 11, 90
8, 6111, Control_c, 6, 11, 87
8, 6112, Control_c, 6, 11, 85
8, 6113, Control_c, 6, 11, 82
8, 6114, Control_c, 6, 11, 79
8, 6115, Control_c, 6, 11, 77
8, 6116, Control_c, 6, 11, 74
8, 6117, Control_c, 6, 11, 71
8, 6118, Control_c, 6, 11, 69
8, 6119, Control_c, 6, 11, 66
8, 6120, Control_c, 6, 11, 64
8, 6121, Control_c, 6, 11, 61
8, 6122, Control_c, 6, 11, 58
8, 6123, Control_c, 6, 11, 56
8, 6124, Control_c, 6, 11, 53
8, 6125, Control_c, 6, 11, 50
8, 6126, Control_c, 6, 11, 48
8, 6127, Control_c, 6, 11, 45
8, 6128, Control_c, 6, 11, 42
8, 6129, Control_c, 6, 11, 40
8, 6130, Control_c, 6, 11, 37
8, 6131, Control_c, 6, 11, 34
8, 6132, Control_c, 6, 11, 32
8, 6133, Control_c, 6, 11, 29
8, 6134, Control_c, 6, 11, 26
8, 6135, Control_c, 6, 11, 24
8, 6136, Control_c, 6, 11, 21
8, 6137, Control_c, 6, 11, 19
8, 6138, Control_c, 6, 11, 16
8, 6139, Control_c, 6, 11, 13
8, 6140, Control_c, 6, 11, 11
8, 6141, Control_c, 6, 11, 8
8, 6142, Control_c, 6, 11, 5
8, 6143, Control_c, 6, 11, 3
8, 6144, Note_off_c, 6, 63, 64
8, 6144, Control_c, 6, 11, 127
8, 6144, Note_on_c, 6, 33, 64
8, 6145, Control_c, 6, 11, 124
8, 6146, Control_c, 6, 11, 122
8, 6147, Control_c, 6, 11, 119
8, 6148, Control_c, 6, 11, 116
8, 6149, Control_c, 6, 11, 114
8, 6150, Control_c, 6, 11, 111
8, 6151, Control_c, 6, 11, 108
8, 6152, Control_c, 6, 11, 106
8, 6153, Control_c, 6, 11, 103
8, 6154, Control_c, 6, 11, 101
8, 6155, Control_c, 6, 11, 98
8, 6156, Control_c, 6, 11, 95
8, 6157, Control_c, 6, 11, 93
8, 6158, Control_c, 6, 11, 90
8, 6159, Control_c, 6, 11, 87
8, 6160, Control_c, 6, 11, 85
8, 6161, Control_c, 6, 11, 82
8, 6162, Control_c, 6, 11, 79
8, 6163, Control_c, 6, 11, 77
8, 6164, Control_c, 6, 11, 74
8, 6165, Control_c, 6, 11, 71
8, 6166, Control_c, 6, 11, 69
8, 6167, Control_c, 6, 11, 66
8, 6168, Control_c, 6, 11, 64
8, 6169, Control_c, 6, 11, 61
8, 6170, Control_c, 6, 11, 58
8, 6171, Control_c, 6, 11, 56
8, 6172, Control_c, 6, 11, 53
8, 6173, Control_c, 6, 11, 50
8, 6174, Control_c, 6, 11, 48
8, 6175, Control_c, 6, 11, 45
8, 6176, Control_c, 6, 11, 42
8, 6177, Control_c, 6, 11, 40
8, 6178, Control_c, 6, 11, 37
8, 6179, Control_c, 6, 11, 34
8, 6180, Control_c, 6, 11, 32
8, 6181, Control_c, 6, 11, 29
8, 6182, Control_c, 6, 11, 26
8, 6183, Control_c, 6, 11, 24
8, 6184, Control_c, 6, 11, 21
8, 6185, Control_c, 6, 11, 19
8, 6186, Control_c, 6, 11, 16
8, 6187, Control_c, 6, 11, 13
8, 6188, Control_c, 6, 11, 11
8, 6189, Control_c, 6, 11, 8
8, 6190, Control_c, 6, 11, 5
8, 6191, Control_c, 6, 11, 3
8, 6192, Note_off_c, 6, 33, 64
8, 6192, Control_c, 6, 11, 127
8, 6192, Note_on_c, 6, 93, 64
8, 6193, Control_c, 6, 11, 124
8, 6194, Control_c, 6, 11, 122
8, 6195, Control_c, 6, 11, 119
8, 6196, Control_c, 6, 11, 116
8, 6197, Control_c, 6, 11, 114
8, 6198, Control_c, 6, 11, 111
8, 6199, Control_c, 6, 11, 108
8, 6200, Control_c, 6, 11, 106
8, 6201, Control_c, 6, 11, 103
8, 6202, Control_c, 6, 11, 101
8, 6203, Control_c, 6, 11, 98
8, 6204, Control_c, 6, 11, 95
8, 6205, Control_c, 6, 11, 93
8, 6206, Control_c, 6, 11, 90
8, 6207, Control_c, 6, 11, 87
8, 6208, Control_c, 6, 11, 85
8, 6209, Control_c, 6, 11, 82
8, 6210, Control_c, 6, 11, 79
8, 6211, Control_c, 6, 11, 77
8, 6212, Control_c, 6, 11, 74
8, 6213, Control_c, 6, 11, 71
8, 6214, Control_c, 6, 11, 69
8, 6215, Control_c, 6, 11, 66
8, 6216, Control_c, 6, 11, 64
8, 6217, Control_c, 6, 11, 61
8, 6218, Control_c, 6, 11, 58
8, 6219, Control_c, 6, 11, 56
8, 6220, Control_c, 6, 11, 53
8, 6221, Control_c, 6, 11, 50
8, 6222, Control_c, 6, 11, 48
8, 6223, Control_c, 6, 11, 45
8, 6224, Control_c, 6, 11, 42
8, 6225, Control_c, 6, 11, 40
8, 6226, Control_c, 6, 11, 37
8, 6227, Control_c, 6, 11, 34
8, 6228, Control_c, 6, 11, 32
8, 6229, Control_c, 6, 11, 29
8, 6230, Control_c, 6, 11, 26
8, 6231, Control_c, 6, 11, 24
8, 6232, Control_c, 6, 11, 21
8, 6233, Control_c, 6, 11, 19
8, 6234, Control_c, 6, 11, 16
8, 6235, Control_c, 6, 11, 13
8, 6236, Control_c, 6, 11, 11
8, 6237, Control_c, 6, 11, 8
8, 6238, Control_c, 6, 11, 5
8, 6239, Control_c, 6, 11, 3
8, 6240, Note_off_c, 6, 93, 64
8, 6240, Control_c, 6, 11, 127
8, 6240, Note_on_c, 6, 63, 64
8, 6241, Control_c, 6, 11, 124
8, 6242, Control_c, 6, 11, 122
8, 6243, Control_c, 6, 11, 119
8, 6244, Control_c, 6, 11, 116
8, 6245, Control_c, 6, 11, 114
8, 6246, Control_c, 6, 11, 111
8, 6247, Control_c, 6, 11, 108
8, 6248, Control_c, 6, 11, 106
8, 6249, Control_c, 6, 11, 103
8, 6250, Control_c, 6, 11, 101
8, 6251, Control_c, 6, 11, 98
8, 6252, Control_c, 6, 11, 95
8, 6253, Control_c, 6, 11, 93
8, 6254, Control_c, 6, 11, 90
8, 6255, Control_c, 6, 11, 87
8, 6256, Control_c, 6, 11, 85
8, 6257, Control_c, 6, 11, 82
8, 6258, Control_c, 6, 11, 79
8, 6259, Control_c, 6, 11, 77
8, 6260, Control_c, 6, 11, 74
8, 6261, Control_c, 6, 11, 71
8, 6262, Control_c, 6, 11, 69
8, 6263, Control_c, 6, 11, 66
8, 6264, Control_c, 6, 11, 64
8, 6265, Control_c, 6, 11, 61
8, 6266, Control_c, 6, 11, 58
8, 6267, Control_c, 6, 11, 56
8, 6268, Control_c, 6, 11, 53
8, 6269, Control_c, 6, 11, 50
8, 6270, Control_c, 6, 11, 48
8, 6271, Control_c, 6, 11, 45
8, 6272, Control_c, 6, 11, 42
8, 6273, Control_c, 6, 11, 40
8, 6274, Control_c, 6, 11, 37
8, 6275, Control_c, 6, 11, 34
8, 6276, Control_c, 6, 11, 32
8, 6277, Control_c, 6, 11, 29
8, 6278, Control_c, 6, 11, 26
8, 6279, Control_c, 6, 11, 24
8, 6280, Control_c, 6, 11, 21
8, 6281, Control_c, 6, 11, 19
8, 6282, Control_c, 6, 11, 16
8, 6283, Control_c, 6, 11, 13
8, 6284, Control_c, 6, 11, 11
8, 6285, Control_c, 6, 11, 8
8, 6286, Control_c, 6, 11, 5
8, 6287, Control_c, 6, 11, 3
8, 6288, Note_off_c, 6, 63, 64
8, 6288, Control_c, 6, 11, 127
8, 6288, Note_on_c, 6, 93, 64
8, 6289, Control_c, 6, 11, 124
8, 6290, Control_c, 6, 11, 122
8, 6291, Control_c, 6, 11, 119
8, 6292, Control_c, 6, 11, 116
8, 6293, Control_c, 6, 11, 114
8, 6294, Control_c, 6, 11, 111
8, 6295, Control_c, 6, 11, 108
8, 6296, Control_c, 6, 11, 106
8, 6297, Control_c, 6, 11, 103
8, 6298, Control_c, 6, 11, 101
8, 6299, Control_c, 6, 11, 98
8, 6300, Control_c, 6, 11, 95
8, 6301, Control_c, 6, 11, 93
8, 6302, Control_c, 6, 11, 90
8, 6303, Control_c, 6, 11, 87
8, 6304, Control_c, 6, 11, 85
8, 6305, Control_c, 6, 11, 82
8, 6306, Control_c, 6, 11, 79
8, 6307, Control_c, 6, 11, 77
8, 6308, Control_c, 6, 11, 74
8, 6309, Control_c, 6, 11, 71
8, 6310, Control_c, 6, 11, 69
8, 6311, Control_c, 6, 11, 66
8, 6312, Control_c, 6, 11, 64
8, 6313, Control_c, 6, 11, 61
8, 6314, Control_c, 6, 11, 58
8, 6315, Control_c, 6, 11, 56
8, 6316, Control_c, 6, 11, 53
8, 6317, Control_c, 6, 11, 50
8, 6318, Control_c, 6, 11, 48
8, 6319, Control_c, 6, 11, 45
8, 6320, Control_c, 6, 11, 42
8, 6321, Control_c, 6, 11, 40
8, 6322, Control_c, 6, 11, 37
8, 6323, Control_c, 6, 11, 34
8, 6324, Control_c, 6, 11, 32
8, 6325, Control_c, 6, 11, 29
8, 6326, Control_c, 6, 11, 26
8, 6327, Control_c, 6, 11, 24
8, 6328, Control_c, 6, 11, 21
8, 6329, Control_c, 6, 11, 19
8, 6330, Control_c, 6, 11, 16
8, 6331, Control_c, 6, 11, 13
8, 6332, Control_c, 6, 11, 11
8, 6333, Control_c, 6, 11, 8
8, 6334, Control_c, 6, 11, 5
8, 6335, Control_c, 6, 11, 3
8, 6336, Note_off_c, 6, 93, 64
8, 6336, Control_c, 6, 11, 127
8, 6336, Note_on_c, 6, 33, 64
8, 6337, Control_c, 6, 11, 124
8, 6338, Control_c, 6, 11, 122
8, 6339, Control_c, 6, 11, 119
8, 6340, Control_c, 6, 11, 116
8, 6341, Control_c, 6, 11, 114
8, 6342, Control_c, 6, 11, 111
8, 6343, Control_c, 6, 11, 108
8, 6344, Control_c, 6, 11, 106
8, 6345, Control_c, 6, 11, 103
8, 6346, Control_c, 6, 11, 101
8, 6347, Control_c, 6, 11, 98
8, 6348, Control_c, 6, 11, 95
8, 6349, Control_c, 6, 11, 93
8, 6350, Control_c, 6, 11, 90
8, 6351, Control_c, 6, 11, 87
8, 6352, Control_c, 6, 11, 85
8, 6353, Control_c, 6, 11, 82
8, 6354, Control_c, 6, 11, 79
8, 6355, Control_c, 6, 11, 77
8, 6356, Control_c, 6, 11, 74
8, 6357, Control_c, 6, 11, 71
8, 6358, Control_c, 6, 11, 69
8, 6359, Control_c, 6, 11, 66
8, 6360, Control_c, 6, 11, 64
8, 6361, Control_c, 6, 11, 61
8, 6362, Control_c, 6, 11, 58
8, 6363, Control_c, 6, 11, 56
8, 6364, Control_c, 6, 11, 53
8, 6365, Control_c, 6, 11, 50
8, 6366, Control_c, 6, 11, 48
8, 6367, Control_c, 6, 11, 45
8, 6368, Control_c, 6, 11, 42
8, 6369, Control_c, 6, 11, 40
8, 6370, Control_c, 6, 11, 37
8, 6371, Control_c, 6, 11, 34
8, 6372, Control_c, 6, 11, 32
8, 6373, Control_c, 6, 11, 29
8, 6374, Control_c, 6, 11, 26
8, 6375, Control_c, 6, 11, 24
8, 6376, Control_c, 6, 11, 21
8, 6377, Control_c, 6, 11, 19
8, 6378, Control_c, 6, 11, 16
8, 6379, Control_c, 6, 11, 13
8, 6380, Control_c, 6, 11, 11
8, 6381, Control_c, 6, 11, 8
8, 6382, Control_c, 6, 11, 5
8, 6383, Control_c, 6, 11, 3
8, 6384, Note_off_c, 6, 33, 64
8, 6384, Control_c, 6, 11, 127
8, 6384, Note_on_c, 6, 93, 64
8, 6385, Control_c, 6, 11, 124
8, 6386, Control_c, 6, 11, 122
8, 6387, Control_c, 6, 11, 119
8, 6388, Control_c, 6, 11, 116
8, 6389, Control_c, 6, 11, 114
8, 6390, Control_c, 6, 11, 111
8, 6391, Control_c, 6, 11, 108
8, 6392, Control_c, 6, 11, 106
8, 6393, Control_c, 6, 11, 103
8, 6394, Control_c, 6, 11, 101
8, 6395, Control_c, 6, 11, 98
8, 6396, Control_c, 6, 11, 95
8, 6397, Control_c, 6, 11, 93
8, 6398, Control_c, 6, 11, 90
8, 6399, Control_c, 6, 11, 87
8, 6400, Control_c, 6, 11, 85
8, 6401, Control_c, 6, 11, 82
8, 6402, Control_c, 6, 11, 79
8, 6403, Control_c, 6, 11, 77
8, 6404, Control_c, 6, 11, 74
8, 6405, Control_c, 6, 11, 71
8, 6406, Control_c, 6, 11, 69
8, 6407, Control_c, 6, 11, 66
8, 6408, Control_c, 6, 11, 64
8, 6409, Control_c, 6, 11, 61
8, 6410, Control_c, 6, 11, 58
8, 6411, Control_c, 6, 11, 56
8, 6412, Control_c, 6, 11, 53
8, 6413, Control_c, 6, 11, 50
8, 6414, Control_c, 6, 11, 48
8, 6415, Control_c, 6, 11, 45
8, 6416, Control_c, 6, 11, 42
8, 6417, Control_c, 6, 11, 40
8, 6418, Control_c, 6, 11, 37
8, 6419, Control_c, 6, 11, 34
8, 6420, Control_c, 6, 11, 32
8, 6421, Control_c, 6, 11, 29
8, 6422, Control_c, 6, 11, 26
8, 6423, Control_c, 6, 11, 24
8, 6424, Control_c, 6, 11, 21
8, 6425, Control_c, 6, 11, 19
8, 6426, Control_c, 6, 11, 16
8, 6427, Control_c, 6, 11, 13
8, 6428, Control_c, 6, 11, 11
8, 6429, Control_c, 6, 11, 8
8, 6430, Control_c, 6, 11, 5
8, 6431, Control_c, 6, 11, 3
8, 6432, Note_off_c, 6, 93, 64
8, 6432, Control_c, 6, 11, 127
8, 6432, Note_on_c, 6, 63, 64
8, 6433, Control_c, 6, 11, 124
8, 6434, Control_c, 6, 11, 122
8, 6435, Control_c, 6, 11, 119
8, 6436, Control_c, 6, 11, 116
8, 6437, Control_c, 6, 11, 114
8, 6438, Control_c, 6, 11, 111
8, 6439, Control_c, 6, 11, 108
8, 6440, Control_c, 6, 11, 106
8, 6441, Control_c, 6, 11, 103
8, 6442, Control_c, 6, 11, 101
8, 6443, Control_c, 6, 11, 98
8, 6444, Control_c, 6, 11, 95
8, 6445, Control_c, 6, 11, 93
8, 6446, Control_c, 6, 11, 90
8, 6447, Control_c, 6, 11, 87
8, 6448, Control_c, 6, 11, 85
8, 6449, Control_c, 6, 11, 82
8, 6450, Control_c, 6, 11, 79
8, 6451, Control_c, 6, 11, 77
8, 6452, Control_c, 6, 11, 74
8, 6453, Control_c, 6, 11, 71
8, 6454, Control_c, 6, 11, 69
8, 6455, Control_c, 6, 11, 66
8, 6456, Control_c, 6, 11, 64
8, 6457, Control_c, 6, 11, 61
8, 6458, Control_c, 6, 11, 58
8, 6459, Control_c, 6, 11, 56
8, 6460, Control_c, 6, 11, 53
8, 6461, Control_c, 6, 11, 50
8, 6462, Control_c, 6, 11, 48
8, 6463, Control_c, 6, 11, 45
8, 6464, Control_c, 6, 11, 42
8, 6465, Control_c, 6, 11, 40
8, 6466, Control_c, 6, 11, 37
8, 6467, Control_c, 6, 11, 34
8, 6468, Control_c, 6, 11, 32
8, 6469, Control_c, 6, 11, 29
8, 6470, Control_c, 6, 11, 26
8, 6471, Control_c, 6, 11, 24
8, 6472, Control_c, 6, 11, 21
8, 6473, Control_c, 6, 11, 19
8, 6474, Control_c, 6, 11, 16
8, 6475, Control_c, 6, 11, 13
8, 6476, Control_c, 6, 11, 11
8, 6477, Control_c, 6, 11, 8
8, 6478, Control_c, 6, 11, 5
8, 6479, Control_c, 6, 11, 3
8, 6480, Note_off_c, 6, 63, 64
8, 6480, Control_c, 6, 11, 127
8, 6480, Note_on_c, 6, 93, 64
8, 6481, Control_c, 6, 11, 124
8, 6482, Control_c, 6, 11, 122
8, 6483, Control_c, 6, 11, 119
8, 6484, Control_c, 6, 11, 116
8, 6485, Control_c, 6, 11, 114
8, 6486, Control_c, 6, 11, 111
8, 6487, Control_c, 6, 11, 108
8, 6488, Control_c, 6, 11, 106
8, 6489, Control_c, 6, 11, 103
8, 6490, Control_c, 6, 11, 101
8, 6491, Control_c, 6, 11, 98
8, 6492, Control_c, 6, 11, 95
8, 6493, Control_c, 6, 11, 93
8, 6494, Control_c, 6, 11, 90
8, 6495, Control_c, 6, 11, 87
8, 6496, Control_c, 6, 11, 85
8, 6497, Control_c, 6, 11, 82
8, 6498, Control_c, 6, 11, 79
8, 6499, Control_c, 6, 11, 77
8, 6500, Control_c, 6, 11, 74
8, 6501, Control_c, 6, 11, 71
8, 6502, Control_c, 6, 11, 69
8, 6503, Control_c, 6, 11, 66
8, 6504, Control_c, 6, 11, 64
8, 6505, Control_c, 6, 11, 61
8, 6506, Control_c, 6, 11, 58
8, 6507, Control_c, 6, 11, 56
8, 6508, Control_c, 6, 11, 53
8, 6509, Control_c, 6, 11, 50
8, 6510, Control_c, 6, 11, 48
8, 6511, Control_c, 6, 11, 45
8, 6512, Control_c, 6, 11, 42
8, 6513, Control_c, 6, 11, 40
8, 6514, Control_c, 6, 11, 37
8, 6515, Control_c, 6, 11, 34
8, 6516, Control_c, 6, 11, 32
8, 6517, Control_c, 6, 11, 29
8, 6518, Control_c, 6, 11, 26
8, 6519, Control_c, 6, 11, 24
8, 6520, Control_c, 6, 11, 21
8, 6521, Control_c, 6, 11, 19
8, 6522, Control_c, 6, 11, 16
8, 6523, Control_c, 6, 11, 13
8, 6524, Control_c, 6, 11, 11
8, 6525, Control_c, 6, 11, 8
8, 6526, Control_c, 6, 11, 5
8, 6527, Control_c, 6, 11, 3
8, 6528, Note_off_c, 6, 93, 64
8, 6528, Control_c, 6, 11, 127
8, 6528, Note_on_c, 6, 33, 64
8, 6529, Control_c, 6, 11, 124
8, 6530, Control_c, 6, 11, 122
8, 6531, Control_c, 6, 11, 119
8, 6532, Control_c, 6, 11, 116
8, 6533, Control_c, 6, 11, 114
8, 6534, Control_c, 6, 11, 111
8, 6535, Control_c, 6, 11, 108
8, 6536, Control_c, 6, 11, 106
8, 6537, Control_c, 6, 11, 103
8, 6538, Control_c, 6, 11, 101
8, 6539, Control_c, 6, 11, 98
8, 6540, Control_c, 6, 11, 95
8, 6541, Control_c, 6, 11, 93
8, 6542, Control_c, 6, 11, 90
8, 6543, Control_c, 6, 11, 87
8, 6544, Control_c, 6, 11, 85
8, 6545, Control_c, 6, 11, 82
8, 6546, Control_c, 6, 11, 79
8, 6547, Control_c, 6, 11, 77
8, 6548, Control_c, 6, 11, 74
8, 6549, Control_c, 6, 11, 71
8, 6550, Control_c, 6, 11, 69
8, 6551, Control_c, 6, 11, 66
8, 6552, Control_c, 6, 11, 64
8, 6553, Control_c, 6, 11, 61
8, 6554, Control_c, 6, 11, 58
8, 6555, Control_c, 6, 11, 56
8, 6556, Control_c, 6, 11, 53
8, 6557, Control_c, 6, 11, 50
8, 6558, Control_c, 6, 11, 48
8, 6559, Control_c, 6, 11, 45
8, 6560, Control_c, 6, 11, 42
8, 6561, Control_c, 6, 11, 40
8, 6562, Control_c, 6, 11, 37
8, 6563, Control_c, 6, 11, 34
8, 6564, Control_c, 6, 11, 32
8, 6565, Control_c, 6, 11, 29
8, 6566, Control_c, 6, 11, 26
8, 6567, Control_c, 6, 11, 24
8, 6568, Control_c, 6, 11, 21
8, 6569, Control_c, 6, 11, 19
8, 6570, Control_c, 6, 11, 16
8, 6571, Control_c, 6, 11, 13
8, 6572, Control_c, 6, 11, 11
8, 6573, Control_c, 6, 11, 8
8, 6574, Control_c, 6, 11, 5
8, 6575, Control_c, 6, 11, 3
8, 6576, Note_off_c, 6, 33, 64
8, 6576, Control_c, 6, 11, 127
8, 6576, Note_on_c, 6, 93, 64
8, 6577, Control_c, 6, 11, 124
8, 6578, Control_c, 6, 11, 122
8, 6579, Control_c, 6, 11, 119
8, 6580, Control_c, 6, 11, 116
8, 6581, Control_c, 6, 11, 114
8, 6582, Control_c, 6, 11, 111
8, 6583, Control_c, 6, 11, 108
8, 6584, Control_c, 6, 11, 106
8, 6585, Control_c, 6, 11, 103
8, 6586, Control_c, 6, 11, 101
8, 6587, Control_c, 6, 11, 98
8, 6588, Control_c, 6, 11, 95
8, 6589, Control_c, 6, 11, 93
8, 6590, Control_c, 6, 11, 90
8, 6591, Control_c, 6, 11, 87
8, 6592, Control_c, 6, 11, 85
8, 6593, Control_c, 6, 11, 82
8, 6594, Control_c, 6, 11, 79
8, 6595, Control_c, 6, 11, 77
8, 6596, Control_c, 6, 11, 74
8, 6597, Control_c, 6, 11, 71
8, 6598, Control_c, 6, 11, 69
8, 6599, Control_c, 6, 11, 66
8, 6600, Control_c, 6, 11, 64
8, 6601, Control_c, 6, 11, 61
8, 6602, Control_c, 6, 11, 58
8, 6603, Control_c, 6, 11, 56
8, 6604, Control_c, 6, 11, 53
8, 6605, Control_c, 6, 11, 50
8, 6606, Control_c, 6, 11, 48
8, 6607, Control_c, 6, 11, 45
8, 6608, Control_c, 6, 11, 42
8, 6609, Control_c, 6, 11, 40
8, 6610, Control_c, 6, 11, 37
8, 6611, Control_c, 6, 11, 34
8, 6612, Control_c, 6, 11, 32
8, 6613, Control_c, 6, 11, 29
8, 6614, Control_c, 6, 11, 26
8, 6615, Control_c, 6, 11, 24
8, 6616, Control_c, 6, 11, 21
8, 6617, Control_c, 6, 11, 19
8, 6618, Control_c, 6, 11, 16
8, 6619, Control_c, 6, 11, 13
8, 6620, Control_c, 6, 11, 11
8, 6621, Control_c, 6, 11, 8
8, 6622, Control_c, 6, 11, 5
8, 6623, Control_c, 6, 11, 3
8, 6624, Note_off_c, 6, 93, 64
8, 6624, Control_c, 6, 11, 127
8, 6624, Note_on_c, 6, 63, 64
8, 6625, Control_c, 6, 11, 124
8, 6626, Control_c, 6, 11, 122
8, 6627, Control_c, 6, 11, 119
8, 6628, Control_c, 6, 11, 116
8, 6629, Control_c, 6, 11, 114
8, 6630, Control_c, 6, 11, 111
8, 6631, Control_c, 6, 11, 108
8, 6632, Control_c, 6, 11, 106
8, 6633, Control_c, 6, 11, 103
8, 6634, Control_c, 6, 11, 101
8, 6635, Control_c, 6, 11, 98
8, 6636, Control_c, 6, 11, 95
8, 6637, Control_c, 6, 11, 93
8, 6638, Control_c, 6, 11, 90
8, 6639, Control_c, 6, 11, 87
8, 6640, Control_c, 6, 11, 85
8, 6641, Control_c, 6, 11, 82
8, 6642, Control_c, 6, 11, 79
8, 6643, Control_c, 6, 11, 77
8, 6644, Control_c, 6, 11, 74
8, 6645, Control_c, 6, 11, 71
8, 6646, Control_c, 6, 11, 69
8, 6647, Control_c, 6, 11, 66
8, 6648, Control_c, 6, 11, 64
8, 6649, Control_c, 6, 11, 61
8, 6650, Control_c, 6, 11, 58
8, 6651, Control_c, 6, 11, 56
8, 6652, Control_c, 6, 11, 53
8, 6653, Control_c, 6, 11, 50
8, 6654, Control_c, 6, 11, 48
8, 6655, Control_c, 6, 11, 45
8, 6656, Control_c, 6, 11, 42
8, 6657, Control_c, 6, 11, 40
8, 6658, Control_c, 6, 11, 37
8, 6659, Control_c, 6, 11, 34
8, 6660, Control_c, 6, 11, 32
8, 6661, Control_c, 6, 11, 29
8, 6662, Control_c, 6, 11, 26
8, 6663, Control_c, 6, 11, 24
8, 6664, Control_c, 6, 11, 21
8, 6665, Control_c, 6, 11, 19
8, 6666, Control_c, 6, 11, 16
8, 6667, Control_c, 6, 11, 13
8, 6668, Control_c, 6, 11, 11
8, 6669, Control_c, 6, 11, 8
8, 6670, Control_c, 6, 11, 5
8, 6671, Control_c, 6, 11, 3
8, 6672, Note_off_c, 6, 63, 64
8, 6672, Control_c, 6, 11, 127
8, 6672, Note_on_c, 6, 93, 64
8, 6673, Control_c, 6, 11, 124
8, 6674, Control_c, 6, 11, 122
8, 6675, Control_c, 6, 11, 119
8, 6676, Control_c, 6, 11, 116
8, 6677, Control_c, 6, 11, 114
8, 6678, Control_c, 6, 11, 111
8, 6679, Control_c, 6, 11, 108
8, 6680, Control_c, 6, 11, 106
8, 6681, Control_c, 6, 11, 103
8, 6682, Control_c, 6, 11, 101
8, 6683, Control_c, 6, 11, 98
8, 6684, Control_c, 6, 11, 95
8, 6685, Control_c, 6, 11, 93
8, 6686, Control_c, 6, 11, 90
8, 6687, Control_c, 6, 11, 87
8, 6688, Control_c, 6, 11, 85
8, 6689, Control_c, 6, 11, 82
8, 6690, Control_c, 6, 11, 79
8, 6691, Control_c, 6, 11, 77
8, 6692, Control_c, 6, 11, 74
8, 6693, Control_c, 6, 11, 71
8, 6694, Control_c, 6, 11, 69
8, 6695, Control_c, 6, 11, 66
8, 6696, Control_c, 6, 11, 64
8, 6697, Control_c, 6, 11, 61
8, 6698, Control_c, 6, 11, 58
8, 6699, Control_c, 6, 11, 56
8, 6700, Control_c, 6, 11, 53
8, 6701, Control_c, 6, 11, 50
8, 6702, Control_c, 6, 11, 48
8, 6703, Control_c, 6, 11, 45
8, 6704, Control_c, 6, 11, 42
8, 6705, Control_c, 6, 11, 40
8, 6706, Control_c, 6, 11, 37
8, 6707, Control_c, 6, 11, 34
8, 6708, Control_c, 6, 11, 32
8, 6709, Control_c, 6, 11, 29
8, 6710, Control_c, 6, 11, 26
8, 6711, Control_c, 6, 11, 24
8, 6712, Control_c, 6, 11, 21
8, 6713, Control_c, 6, 11, 19
8, 6714, Control_c, 6, 11, 16
8, 6715, Control_c, 6, 11, 13
8, 6716, Control_c, 6, 11, 11
8, 6717, Control_c, 6, 11, 8
8, 6718, Control_c, 6, 11, 5
8, 6719, Control_c, 6, 11, 3
8, 6720, Note_off_c, 6, 93, 64
8, 6720, Control_c, 6, 11, 127
8, 6720, Note_on_c, 6, 33, 64
8, 6721, Control_c, 6, 11, 124
8, 6722, Control_c, 6, 11, 122
8, 6723, Control_c, 6, 11, 119
8, 6724, Control_c, 6, 11, 116
8, 6725, Control_c, 6, 11, 114
8, 6726, Control_c, 6, 11, 111
8, 6727, Control_c, 6, 11, 108
8, 6728, Control_c, 6, 11, 106
8, 6729, Control_c, 6, 11, 103
8, 6730, Control_c, 6, 11, 101
8, 6731, Control_c, 6, 11, 98
8, 6732, Control_c, 6, 11, 95
8, 6733, Control_c, 6, 11, 93
8, 6734, Control_c, 6, 11, 90
8, 6735, Control_c, 6, 11, 87
8, 6736, Control_c, 6, 11, 85
8, 6737, Control_c, 6, 11, 82
8, 6738, Control_c, 6, 11, 79
8, 6739, Control_c, 6, 11, 77
8, 6740, Control_c, 6, 11, 74
8, 6741, Control_c, 6, 11, 71
8, 6742, Control_c, 6, 11, 69
8, 6743, Control_c, 6, 11, 66
8, 6744, Control_c, 6, 11, 64
8, 6745, Control_c, 6, 11, 61
8, 6746, Control_c, 6, 11, 58
8, 6747, Control_c, 6, 11, 56
8, 6748, Control_c, 6, 11, 53
8, 6749, Control_c, 6, 11, 50
8, 6750, Control_c, 6, 11, 48
8, 6751, Control_c, 6, 11, 45
8, 6752, Control_c, 6, 11, 42
8, 6753, Control_c, 6, 11, 40
8, 6754, Control_c, 6, 11, 37
8, 6755, Control_c, 6, 11, 34
8, 6756, Control_c, 6, 11, 32
8, 6757, Control_c, 6, 11, 29
8, 6758, Control_c, 6, 11, 26
8, 6759, Control_c, 6, 11, 24
8, 6760, Control_c, 6, 11, 21
8, 6761, Control_c, 6, 11, 19
8, 6762, Control_c, 6, 11, 16
8, 6763, Control_c, 6, 11, 13
8, 6764, Control_c, 6, 11, 11
8, 6765, Control_c, 6, 11, 8
8, 6766, Control_c, 6, 11, 5
8, 6767, Control_c, 6, 11, 3
8, 6768, Note_off_c, 6, 33, 64
8, 6768, Control_c, 6, 11, 127
8, 6768, Note_on_c, 6, 93, 64
8, 6769, Control_c, 6, 11, 124
8, 6770, Control_c, 6, 11, 122
8, 6771, Control_c, 6, 11, 119
8, 6772, Control_c, 6, 11, 116
8, 6773, Control_c, 6, 11, 114
8, 6774, Control_c, 6, 11, 111
8, 6775, Control_c, 6, 11, 108
8, 6776, Control_c, 6, 11, 106
8, 6777, Control_c, 6, 11, 103
8, 6778, Control_c, 6, 11, 101
8, 6779, Control_c, 6, 11, 98
8, 6780, Control_c, 6, 11, 95
8, 6781, Control_c, 6, 11, 93
8, 6782, Control_c, 6, 11, 90
8, 6783, Control_c, 6, 11, 87
8, 6784, Control_c, 6, 11, 85
8, 6785, Control_c, 6, 11, 82
8, 6786, Control_c, 6, 11, 79
8, 6787, Control_c, 6, 11, 77
8, 6788, Control_c, 6, 11, 74
8, 6789, Control_c, 6, 11, 71
8, 6790, Control_c, 6, 11, 69
8, 6791, Control_c, 6, 11, 66
8, 6792, Control_c, 6, 11, 64
8, 6793, Control_c, 6, 11, 61
8, 6794, Control_c, 6, 11, 58
8, 6795, Control_c, 6, 11, 56
8, 6796, Control_c, 6, 11, 53
8, 6797, Control_c, 6, 11, 50
8, 6798, Control_c, 6, 11, 48
8, 6799, Control_c, 6, 11, 45
8, 6800, Control_c, 6, 11, 42
8, 6801, Control_c, 6, 11, 40
8, 6802, Control_c, 6, 11, 37
8, 6803, Control_c, 6, 11, 34
8, 6804, Control_c, 6, 11, 32
8, 6805, Control_c, 6, 11, 29
8, 6806, Control_c, 6, 11, 26
8, 6807, Control_c, 6, 11, 24
8, 6808, Control_c, 6, 11, 21
8, 6809, Control_c, 6, 11, 19
8, 6810, Control_c, 6, 11, 16
8, 6811, Control_c, 6, 11, 13
8, 6812, Control_c, 6, 11, 11
8, 6813, Control_c, 6, 11, 8
8, 6814, Control_c, 6, 11, 5
8, 6815, Control_c, 6, 11, 3
8, 6816, Note_off_c, 6, 93, 64
8, 6816, Control_c, 6, 11, 127
8, 6816, Note_on_c, 6, 63, 64
8, 6817, Control_c, 6, 11, 124
8, 6818, Control_c, 6, 11, 122
8, 6819, Control_c, 6, 11, 119
8, 6820, Control_c, 6, 11, 116
8, 6821, Control_c, 6, 11, 114
8, 6822, Control_c, 6, 11, 111
8, 6823, Control_c, 6, 11, 108
8, 6824, Control_c, 6, 11, 106
8, 6825, Control_c, 6, 11, 103
8, 6826, Control_c, 6, 11, 101
8, 6827, Control_c, 6, 11, 98
8, 6828, Control_c, 6, 11, 95
8, 6829, Control_c, 6, 11, 93
8, 6830, Control_c, 6, 11, 90
8, 6831, Control_c, 6, 11, 87
8, 6832, Control_c, 6, 11, 85
8, 6833, Control_c, 6, 11, 82
8, 6834, Control_c, 6, 11, 79
8, 6835, Control_c, 6, 11, 77
8, 6836, Control_c, 6, 11, 74
8, 6837, Control_c, 6, 11, 71
8, 6838, Control_c, 6, 11, 69
8, 6839, Control_c, 6, 11, 66
8, 6840, Control_c, 6, 11, 64
8, 6841, Control_c, 6, 11, 61
8, 6842, Control_c, 6, 11, 58
8, 6843, Control_c, 6, 11, 56
8, 6844, Control_c, 6, 11, 53
8, 6845, Control_c, 6, 11, 50
8, 6846, Control_c, 6, 11, 48
8, 6847, Control_c, 6, 11, 45
8, 6848, Control_c, 6, 11, 42
8, 6849, Control_c, 6, 11, 40
8, 6850, Control_c, 6, 11, 37
8, 6851, Control_c, 6, 11, 34
8, 6852, Control_c, 6, 11, 32
8, 6853, Control_c, 6, 11, 29
8, 6854, Control_c, 6, 11, 26
8, 6855, Control_c, 6, 11, 24
8, 6856, Control_c, 6, 11, 21
8, 6857, Control_c, 6, 11, 19
8, 6858, Control_c, 6, 11, 16
8, 6859, Control_c, 6, 11, 13
8, 6860, Control_c, 6, 11, 11
8, 6861, Control_c, 6, 11, 8
8, 6862, Control_c, 6, 11, 5
8, 6863, Control_c, 6, 11, 3
8, 6864, Note_off_c, 6, 63, 64
8, 6864, Control_c, 6, 11, 127
8, 6864, Note_on_c, 6, 63, 64
8, 6865, Control_c, 6, 11, 124
8, 6866, Control_c, 6, 11, 122
8, 6867, Control_c, 6, 11, 119
8, 6868, Control_c, 6, 11, 116
8, 6869, Control_c, 6, 11, 114
8, 6870, Control_c, 6, 11, 111
8, 6871, Control_c, 6, 11, 108
8, 6872, Control_c, 6, 11, 106
8, 6873, Control_c, 6, 11, 103
8, 6874, Control_c, 6, 11, 101
8, 6875, Control_c, 6, 11, 98
8, 6876, Control_c, 6, 11, 95
8, 6877, Control_c, 6, 11, 93
8, 6878, Control_c, 6, 11, 90
8, 6879, Control_c, 6, 11, 87
8, 6880, Control_c, 6, 11, 85
8, 6881, Control_c, 6, 11, 82
8, 6882, Control_c, 6, 11, 79
8, 6883, Control_c, 6, 11, 77
8, 6884, Control_c, 6, 11, 74
8, 6885, Control_c, 6, 11, 71
8, 6886, Control_c, 6, 11, 69
8, 6887, Control_c, 6, 11, 66
8, 6888, Control_c, 6, 11, 64
8, 6889, Control_c, 6, 11, 61
8, 6890, Control_c, 6, 11, 58
8, 6891, Control_c, 6, 11, 56
8, 6892, Control_c, 6, 11, 53
8, 6893, Control_c, 6, 11, 50
8, 6894, Control_c, 6, 11, 48
8, 6895, Control_c, 6, 11, 45
8, 6896, Control_c, 6, 11, 42
8, 6897, Control_c, 6, 11, 40
8, 6898, Control_c, 6, 11, 37
8, 6899, Control_c, 6, 11, 34
8, 6900, Control_c, 6, 11, 32
8, 6901, Control_c, 6, 11, 29
8, 6902, Control_c, 6, 11, 26
8, 6903, Control_c, 6, 11, 24
8, 6904, Control_c, 6, 11, 21
8, 6905, Control_c, 6, 11, 19
8, 6906, Control_c, 6, 11, 16
8, 6907, Control_c, 6, 11, 13
8, 6908, Control_c, 6, 11, 11
8, 6909, Control_c, 6, 11, 8
8, 6910, Control_c, 6, 11, 5
8, 6911, Control_c, 6, 11, 3
8, 6912, Note_off_c, 6, 63, 64
8, 6912, Control_c, 6, 11, 127
8, 6912, Note_on_c, 6, 33, 64
8, 6913, Control_c, 6, 11, 124
8, 6914, Control_c, 6, 11, 122
8, 6915, Control_c, 6, 11, 119
8, 6916, Control_c, 6, 11, 116
8, 6917, Control_c, 6, 11, 114
8, 6918, Control_c, 6, 11, 111
8, 6919, Control_c, 6, 11, 108
8, 6920, Control_c, 6, 11, 106
8, 6921, Control_c, 6, 11, 103
8, 6922, Control_c, 6, 11, 101
8, 6923, Control_c, 6, 11, 98
8, 6924, Control_c, 6, 11, 95
8, 6925, Control_c, 6, 11, 93
8, 6926, Control_c, 6, 11, 90
8, 6927, Control_c, 6, 11, 87
8, 6928, Control_c, 6, 11, 85
8, 6929, Control_c, 6, 11, 82
8, 6930, Control_c, 6, 11, 79
8, 6931, Control_c, 6, 11, 77
8, 6932, Control_c, 6, 11, 74
8, 6933, Control_c, 6, 11, 71
8, 6934, Control_c, 6, 11, 69
8, 6935, Control_c, 6, 11, 66
8, 6936, Control_c, 6, 11, 64
8, 6937, Control_c, 6, 11, 61
8, 6938, Control_c, 6, 11, 58
8, 6939, Control_c, 6, 11, 56
8, 6940, Control_c, 6, 11, 53
8, 6941, Control_c, 6, 11, 50
8, 6942, Control_c, 6, 11, 48
8, 6943, Control_c, 6, 11, 45
8, 6944, Control_c, 6, 11, 42
8, 6945, Control_c, 6, 11, 40
8, 6946, Control_c, 6, 11, 37
8, 6947, Control_c, 6, 11, 34
8, 6948, Control_c, 6, 11, 32
8, 6949, Control_c, 6, 11, 29
8, 6950, Control_c, 6, 11, 26
8, 6951, Control_c, 6, 11, 24
8, 6952, Control_c, 6, 11, 21
8, 6953, Control_c, 6, 11, 19
8, 6954, Control_c, 6, 11, 16
8, 6955, Control_c, 6, 11, 13
8, 6956, Control_c, 6, 11, 11
8, 6957, Control_c, 6, 11, 8
8, 6958, Control_c, 6, 11, 5
8, 6959, Control_c, 6, 11, 3
8, 6960, Note_off_c, 6, 33, 64
8, 6960, Control_c, 6, 11, 127
8, 6960, Note_on_c, 6, 93, 64
8, 6961, Control_c, 6, 11, 124
8, 6962, Control_c, 6, 11, 122
8, 6963, Control_c, 6, 11, 119
8, 6964, Control_c, 6, 11, 116
8, 6965, Control_c, 6, 11, 114
8, 6966, Control_c, 6, 11, 111
8, 6967, Control_c, 6, 11, 108
8, 6968, Control_c, 6, 11, 106
8, 6969, Control_c, 6, 11, 103
8, 6970, Control_c, 6, 11, 101
8, 6971, Control_c, 6, 11, 98
8, 6972, Control_c, 6, 11, 95
8, 6973, Control_c, 6, 11, 93
8, 6974, Control_c, 6, 11, 90
8, 6975, Control_c, 6, 11, 87
8, 6976, Control_c, 6, 11, 85
8, 6977, Control_c, 6, 11, 82
8, 6978, Control_c, 6, 11, 79
8, 6979, Control_c, 6, 11, 77
8, 6980, Control_c, 6, 11, 74
8, 6981, Control_c, 6, 11, 71
8, 6982, Control_c, 6, 11, 69
8, 6983, Control_c, 6, 11, 66
8, 6984, Control_c, 6, 11, 64
8, 6985, Control_c, 6, 11, 61
8, 6986, Control_c, 6, 11, 58
8, 6987, Control_c, 6, 11, 56
8, 6988, Control_c, 6, 11, 53
8, 6989, Control_c, 6, 11, 50
8, 6990, Control_c, 6, 11, 48
8, 6991, Control_c, 6, 11, 45
8, 6992, Control_c, 6, 11, 42
8, 6993, Control_c, 6, 11, 40
8, 6994, Control_c, 6, 11, 37
8, 6995, Control_c, 6, 11, 34
8, 6996, Control_c, 6, 11, 32
8, 6997, Control_c, 6, 11, 29
8, 6998, Control_c, 6, 11, 26
8, 6999, Control_c, 6, 11, 24
8, 7000, Control_c, 6, 11, 21
8, 7001, Control_c, 6, 11, 19
8, 7002, Control_c, 6, 11, 16
8, 7003, Control_c, 6, 11, 13
8, 7004, Control_c, 6, 11, 11
8, 7005, Control_c, 6, 11, 8
8, 7006, Control_c, 6, 11, 5
8, 7007, Control_c, 6, 11, 3
8, 7008, Note_off_c, 6, 93, 64
8, 7008, Control_c, 6, 11, 127
8, 7008, Note_on_c, 6, 63, 64
8, 7009, Control_c, 6, 11, 124
8, 7010, Control_c, 6, 11, 122
8, 7011, Control_c, 6, 11, 119
8, 7012, Control_c, 6, 11, 116
8, 7013, Control_c, 6, 11, 114
8, 7014, Control_c, 6, 11, 111
8, 7015, Control_c, 6, 11, 108
8, 7016, Control_c, 6, 11, 106
8, 7017, Control_c, 6, 11, 103
8, 7018, Control_c, 6, 11, 101
8, 7019, Control_c, 6, 11, 98
8, 7020, Control_c, 6, 11, 95
8, 7021, Control_c, 6, 11, 93
8, 7022, Control_c, 6, 11, 90
8, 7023, Control_c, 6, 11, 87
8, 7024, Control_c, 6, 11, 85
8, 7025, Control_c, 6, 11, 82
8, 7026, Control_c, 6, 11, 79
8, 7027, Control_c, 6, 11, 77
8, 7028, Control_c, 6, 11, 74
8, 7029, Control_c, 6, 11, 71
8, 7030, Control_c, 6, 11, 69
8, 7031, Control_c, 6, 11, 66
8, 7032, Control_c, 6, 11, 64
8, 7033, Control_c, 6, 11, 61
8, 7034, Control_c, 6, 11, 58
8, 7035, Control_c, 6, 11, 56
8, 7036, Control_c, 6, 11, 53
8, 7037, Control_c, 6, 11, 50
8, 7038, Control_c, 6, 11, 48
8, 7039, Control_c, 6, 11, 45
8, 7040, Control_c, 6, 11, 42
8, 7041, Control_c, 6, 11, 40
8, 7042, Control_c, 6, 11, 37
8, 7043, Control_c, 6, 11, 34
8, 7044, Control_c, 6, 11, 32
8, 7045, Control_c, 6, 11, 29
8, 7046, Control_c, 6, 11, 26
8, 7047, Control_c, 6, 11, 24
8, 7048, Control_c, 6, 11, 21
8, 7049, Control_c, 6, 11, 19
8, 7050, Control_c, 6, 11, 16
8, 7051, Control_c, 6, 11, 13
8, 7052, Control_c, 6, 11, 11
8, 7053, Control_c, 6, 11, 8
8, 7054, Control_c, 6, 11, 5
8, 7055, Control_c, 6, 11, 3
8, 7056, Note_off_c, 6, 63, 64
8, 7056, Control_c, 6, 11, 127
8, 7056, Note_on_c, 6, 93, 64
8, 7057, Control_c, 6, 11, 124
8, 7058, Control_c, 6, 11, 122
8, 7059, Control_c, 6, 11, 119
8, 7060, Control_c, 6, 11, 116
8, 7061, Control_c, 6, 11, 114
8, 7062, Control_c, 6, 11, 111
8, 7063, Control_c, 6, 11, 108
8, 7064, Control_c, 6, 11, 106
8, 7065, Control_c, 6, 11, 103
8, 7066, Control_c, 6, 11, 101
8, 7067, Control_c, 6, 11, 98
8, 7068, Control_c, 6, 11, 95
8, 7069, Control_c, 6, 11, 93
8, 7070, Control_c, 6, 11, 90
8, 7071, Control_c, 6, 11, 87
8, 7072, Control_c, 6, 11, 85
8, 7073, Control_c, 6, 11, 82
8, 7074, Control_c, 6, 11, 79
8, 7075, Control_c, 6, 11, 77
8, 7076, Control_c, 6, 11, 74
8, 7077, Control_c, 6, 11, 71
8, 7078, Control_c, 6, 11, 69
8, 7079, Control_c, 6, 11, 66
8, 7080, Control_c, 6, 11, 64
8, 7081, Control_c, 6, 11, 61
8, 7082, Control_c, 6, 11, 58
8, 7083, Control_c, 6, 11, 56
8, 7084, Control_c, 6, 11, 53
8, 7085, Control_c, 6, 11, 50
8, 7086, Control_c, 6, 11, 48
8, 7087, Control_c, 6, 11, 45
8, 7088, Control_c, 6, 11, 42
8, 7089, Control_c, 6, 11, 40
8, 7090, Control_c, 6, 11, 37
8, 7091, Control_c, 6, 11, 34
8, 7092, Control_c, 6, 11, 32
8, 7093, Control_c, 6, 11, 29
8, 7094, Control_c, 6, 11, 26
8, 7095, Control_c, 6, 11, 24
8, 7096, Control_c, 6, 11, 21
8, 7097, Control_c, 6, 11, 19
8, 7098, Control_c, 6, 11, 16
8, 7099, Control_c, 6, 11, 13
8, 7100, Control_c, 6, 11, 11
8, 7101, Control_c, 6, 11, 8
8, 7102, Control_c, 6, 11, 5
8, 7103, Control_c, 6, 11, 3
8, 7104, Note_off_c, 6, 93, 64
8, 7104, Control_c, 6, 11, 127
8, 7104, Note_on_c, 6, 33, 64
8, 7105, Control_c, 6, 11, 124
8, 7106, Control_c, 6, 11, 122
8, 7107, Control_c, 6, 11, 119
8, 7108, Control_c, 6, 11, 116
8, 7109, Control_c, 6, 11, 114
8, 7110, Control_c, 6, 11, 111
8, 7111, Control_c, 6, 11, 108
8, 7112, Control_c, 6, 11, 106
8, 7113, Control_c, 6, 11, 103
8, 7114, Control_c, 6, 11, 101
8, 7115, Control_c, 6, 11, 98
8, 7116, Control_c, 6, 11, 95
8, 7117, Control_c, 6, 11, 93
8, 7118, Control_c, 6, 11, 90
8, 7119, Control_c, 6, 11, 87
8, 7120, Control_c, 6, 11, 85
8, 7121, Control_c, 6, 11, 82
8, 7122, Control_c, 6, 11, 79
8, 7123, Control_c, 6, 11, 77
8, 7124, Control_c, 6, 11, 74
8, 7125, Control_c, 6, 11, 71
8, 7126, Control_c, 6, 11, 69
8, 7127, Control_c, 6, 11, 66
8, 7128, Control_c, 6, 11, 64
8, 7129, Control_c, 6, 11, 61
8, 7130, Control_c, 6, 11, 58
8, 7131, Control_c, 6, 11, 56
8, 7132, Control_c, 6, 11, 53
8, 7133, Control_c, 6, 11, 50
8, 7134, Control_c, 6, 11, 48
8, 7135, Control_c, 6, 11, 45
8, 7136, Control_c, 6, 11, 42
8, 7137, Control_c, 6, 11, 40
8, 7138, Control_c, 6, 11, 37
8, 7139, Control_c, 6, 11, 34
8, 7140, Control_c, 6, 11, 32
8, 7141, Control_c, 6, 11, 29
8, 7142, Control_c, 6, 11, 26
8, 7143, Control_c, 6, 11, 24
8, 7144, Control_c, 6, 11, 21
8, 7145, Control_c, 6, 11, 19
8, 7146, Control_c, 6, 11, 16
8, 7147, Control_c, 6, 11, 13
8, 7148, Control_c, 6, 11, 11
8, 7149, Control_c, 6, 11, 8
8, 7150, Control_c, 6, 11, 5
8, 7151, Control_c, 6, 11, 3
8, 7152, Note_off_c, 6, 33, 64
8, 7152, Control_c, 6, 11, 127
8, 7152, Note_on_c, 6, 93, 64
8, 7153, Control_c, 6, 11, 124
8, 7154, Control_c, 6, 11, 122
8, 7155, Control_c, 6, 11, 119
8, 7156, Control_c, 6, 11, 116
8, 7157, Control_c, 6, 11, 114
8, 7158, Control_c, 6, 11, 111
8, 7159, Control_c, 6, 11, 108
8, 7160, Control_c, 6, 11, 106
8, 7161, Control_c, 6, 11, 103
8, 7162, Control_c, 6, 11, 101
8, 7163, Control_c, 6, 11, 98
8, 7164, Control_c, 6, 11, 95
8, 7165, Control_c, 6, 11, 93
8, 7166, Control_c, 6, 11, 90
8, 7167, Control_c, 6, 11, 87
8, 7168, Control_c, 6, 11, 85
8, 7169, Control_c, 6, 11, 82
8, 7170, Control_c, 6, 11, 79
8, 7171, Control_c, 6, 11, 77
8, 7172, Control_c, 6, 11, 74
8, 7173, Control_c, 6, 11, 71
8, 7174, Control_c, 6, 11, 69
8, 7175, Control_c, 6, 11, 66
8, 7176, Control_c, 6, 11, 64
8, 7177, Control_c, 6, 11, 61
8, 7178, Control_c, 6, 11, 58
8, 7179, Control_c, 6, 11, 56
8, 7180, Control_c, 6, 11, 53
8, 7181, Control_c, 6, 11, 50
8, 7182, Control_c, 6, 11, 48
8, 7183, Control_c, 6, 11, 45
8, 7184, Control_c, 6, 11, 42
8, 7185, Control_c, 6, 11, 40
8, 7186, Control_c, 6, 11, 37
8, 7187, Control_c, 6, 11, 34
8, 7188, Control_c, 6, 11, 32
8, 7189, Control_c, 6, 11, 29
8, 7190, Control_c, 6, 11, 26
8, 7191, Control_c, 6, 11, 24
8, 7192, Control_c, 6, 11, 21
8, 7193, Control_c, 6, 11, 19
8, 7194, Control_c, 6, 11, 16
8, 7195, Control_c, 6, 11, 13
8, 7196, Control_c, 6, 11, 11
8, 7197, Control_c, 6, 11, 8
8, 7198, Control_c, 6, 11, 5
8, 7199, Control_c, 6, 11, 3
8, 7200, Note_off_c, 6, 93, 64
8, 7200, Control_c, 6, 11, 127
8, 7200, Note_on_c, 6, 63, 64
8, 7201, Control_c, 6, 11, 124
8, 7202, Control_c, 6, 11, 122
8, 7203, Control_c, 6, 11, 119
8, 7204, Control_c, 6, 11, 116
8, 7205, Control_c, 6, 11, 114
8, 7206, Control_c, 6, 11, 111
8, 7207, Control_c, 6, 11, 108
8, 7208, Control_c, 6, 11, 106
8, 7209, Control_c, 6, 11, 103
8, 7210, Control_c, 6, 11, 101
8, 7211, Control_c, 6, 11, 98
8, 7212, Control_c, 6, 11, 95
8, 7213, Control_c, 6, 11, 93
8, 7214, Control_c, 6, 11, 90
8, 7215, Control_c, 6, 11, 87
8, 7216, Control_c, 6, 11, 85
8, 7217, Control_c, 6, 11, 82
8, 7218, Control_c, 6, 11, 79
8, 7219, Control_c, 6, 11, 77
8, 7220, Control_c, 6, 11, 74
8, 7221, Control_c, 6, 11, 71
8, 7222, Control_c, 6, 11, 69
8, 7223, Control_c, 6, 11, 66
8, 7224, Control_c, 6, 11, 64
8, 7225, Control_c, 6, 11, 61
8, 7226, Control_c, 6, 11, 58
8, 7227, Control_c, 6, 11, 56
8, 7228, Control_c, 6, 11, 53
8, 7229, Control_c, 6, 11, 50
8, 7230, Control_c, 6, 11, 48
8, 7231, Control_c, 6, 11, 45
8, 7232, Control_c, 6, 11, 42
8, 7233, Control_c, 6, 11, 40
8, 7234, Control_c, 6, 11, 37
8, 7235, Control_c, 6, 11, 34
8, 7236, Control_c, 6, 11, 32
8, 7237, Control_c, 6, 11, 29
8, 7238, Control_c, 6, 11, 26
8, 7239, Control_c, 6, 11, 24
8, 7240, Control_c, 6, 11, 21
8, 7241, Control_c, 6, 11, 19
8, 7242, Control_c, 6, 11, 16
8, 7243, Control_c, 6, 11, 13
8, 7244, Control_c, 6, 11, 11
8, 7245, Control_c, 6, 11, 8
8, 7246, Control_c, 6, 11, 5
8, 7247, Control_c, 6, 11, 3
8, 7248, Note_off_c, 6, 63, 64
8, 7248, Control_c, 6, 11, 127
8, 7248, Note_on_c, 6, 93, 64
8, 7249, Control_c, 6, 11, 124
8, 7250, Control_c, 6, 11, 122
8, 7251, Control_c, 6, 11, 119
8, 7252, Control_c, 6, 11, 116
8, 7253, Control_c, 6, 11, 114
8, 7254, Control_c, 6, 11, 111
8, 7255, Control_c, 6, 11, 108
8, 7256, Control_c, 6, 11, 106
8, 7257, Control_c, 6, 11, 103
8, 7258, Control_c, 6, 11, 101
8, 7259, Control_c, 6, 11, 98
8, 7260, Control_c, 6, 11, 95
8, 7261, Control_c, 6, 11, 93
8, 7262, Control_c, 6, 11, 90
8, 7263, Control_c, 6, 11, 87
8, 7264, Control_c, 6, 11, 85
8, 7265, Control_c, 6, 11, 82
8, 7266, Control_c, 6, 11, 79
8, 7267, Control_c, 6, 11, 77
8, 7268, Control_c, 6, 11, 74
8, 7269, Control_c, 6, 11, 71
8, 7270, Control_c, 6, 11, 69
8, 7271, Control_c, 6, 11, 66
8, 7272, Control_c, 6, 11, 64
8, 7273, Control_c, 6, 11, 61
8, 7274, Control_c, 6, 11, 58
8, 7275, Control_c, 6, 11, 56
8, 7276, Control_c, 6, 11, 53
8, 7277, Control_c, 6, 11, 50
8, 7278, Control_c, 6, 11, 48
8, 7279, Control_c, 6, 11, 45
8, 7280, Control_c, 6, 11, 42
8, 7281, Control_c, 6, 11, 40
8, 7282, Control_c, 6, 11, 37
8, 7283, Control_c, 6, 11, 34
8, 7284, Control_c, 6, 11, 32
8, 7285, Control_c, 6, 11, 29
8, 7286, Control_c, 6, 11, 26
8, 7287, Control_c, 6, 11, 24
8, 7288, Control_c, 6, 11, 21
8, 7289, Control_c, 6, 11, 19
8, 7290, Control_c, 6, 11, 16
8, 7291, Control_c, 6, 11, 13
8, 7292, Control_c, 6, 11, 11
8, 7293, Control_c, 6, 11, 8
8, 7294, Control_c, 6, 11, 5
8, 7295, Control_c, 6, 11, 3
8, 7296, Note_off_c, 6, 93, 64
8, 7296, Control_c, 6, 11, 127
8, 7296, Note_on_c, 6, 33, 64
8, 7297, Control_c, 6, 11, 124
8, 7298, Control_c, 6, 11, 122
8, 7299, Control_c, 6, 11, 119
8, 7300, Control_c, 6, 11, 116
8, 7301, Control_c, 6, 11, 114
8, 7302, Control_c, 6, 11, 111
8, 7303, Control_c, 6, 11, 108
8, 7304, Control_c, 6, 11, 106
8, 7305, Control_c, 6, 11, 103
8, 7306, Control_c, 6, 11, 101
8, 7307, Control_c, 6, 11, 98
8, 7308, Control_c, 6, 11, 95
8, 7309, Control_c, 6, 11, 93
8, 7310, Control_c, 6, 11, 90
8, 7311, Control_c, 6, 11, 87
8, 7312, Control_c, 6, 11, 85
8, 7313, Control_c, 6, 11, 82
8, 7314, Control_c, 6, 11, 79
8, 7315, Control_c, 6, 11, 77
8, 7316, Control_c, 6, 11, 74
8, 7317, Control_c, 6, 11, 71
8, 7318, Control_c, 6, 11, 69
8, 7319, Control_c, 6, 11, 66
8, 7320, Control_c, 6, 11, 64
8, 7321, Control_c, 6, 11, 61
8, 7322, Control_c, 6, 11, 58
8, 7323, Control_c, 6, 11, 56
8, 7324, Control_c, 6, 11, 53
8, 7325, Control_c, 6, 11, 50
8, 7326, Control_c, 6, 11, 48
8, 7327, Control_c, 6, 11, 45
8, 7328, Control_c, 6, 11, 42
8, 7329, Control_c, 6, 11, 40
8, 7330, Control_c, 6, 11, 37
8, 7331, Control_c, 6, 11, 34
8, 7332, Control_c, 6, 11, 32
8, 7333, Control_c, 6, 11, 29
8, 7334, Control_c, 6, 11, 26
8, 7335, Control_c, 6, 11, 24
8, 7336, Control_c, 6, 11, 21
8, 7337, Control_c, 6, 11, 19
8, 7338, Control_c, 6, 11, 16
8, 7339, Control_c, 6, 11, 13
8, 7340, Control_c, 6, 11, 11
8, 7341, Control_c, 6, 11, 8
8, 7342, Control_c, 6, 11, 5
8, 7343, Control_c, 6, 11, 3
8, 7344, Note_off_c, 6, 33, 64
8, 7344, Control_c, 6, 11, 127
8, 7344, Note_on_c, 6, 93, 64
8, 7345, Control_c, 6, 11, 124
8, 7346, Control_c, 6, 11, 122
8, 7347, Control_c, 6, 11, 119
8, 7348, Control_c, 6, 11, 116
8, 7349, Control_c, 6, 11, 114
8, 7350, Control_c, 6, 11, 111
8, 7351, Control_c, 6, 11, 108
8, 7352, Control_c, 6, 11, 106
8, 7353, Control_c, 6, 11, 103
8, 7354, Control_c, 6, 11, 101
8, 7355, Control_c, 6, 11, 98
8, 7356, Control_c, 6, 11, 95
8, 7357, Control_c, 6, 11, 93
8, 7358, Control_c, 6, 11, 90
8, 7359, Control_c, 6, 11, 87
8, 7360, Control_c, 6, 11, 85
8, 7361, Control_c, 6, 11, 82
8, 7362, Control_c, 6, 11, 79
8, 7363, Control_c, 6, 11, 77
8, 7364, Control_c, 6, 11, 74
8, 7365, Control_c, 6, 11, 71
8, 7366, Control_c, 6, 11, 69
8, 7367, Control_c, 6, 11, 66
8, 7368, Control_c, 6, 11, 64
8, 7369, Control_c, 6, 11, 61
8, 7370, Control_c, 6, 11, 58
8, 7371, Control_c, 6, 11, 56
8, 7372, Control_c, 6, 11, 53
8, 7373, Control_c, 6, 11, 50
8, 7374, Control_c, 6, 11, 48
8, 7375, Control_c, 6, 11, 45
8, 7376, Control_c, 6, 11, 42
8, 7377, Control_c, 6, 11, 40
8, 7378, Control_c, 6, 11, 37
8, 7379, Control_c, 6, 11, 34
8, 7380, Control_c, 6, 11, 32
8, 7381, Control_c, 6, 11, 29
8, 7382, Control_c, 6, 11, 26
8, 7383, Control_c, 6, 11, 24
8, 7384, Control_c, 6, 11, 21
8, 7385, Control_c, 6, 11, 19
8, 7386, Control_c, 6, 11, 16
8, 7387, Control_c, 6, 11, 13
8, 7388, Control_c, 6, 11, 11
8, 7389, Control_c, 6, 11, 8
8, 7390, Control_c, 6, 11, 5
8, 7391, Control_c, 6, 11, 3
8, 7392, Note_off_c, 6, 93, 64
8, 7392, Control_c, 6, 11, 127
8, 7392, Note_on_c, 6, 63, 64
8, 7393, Control_c, 6, 11, 124
8, 7394, Control_c, 6, 11, 122
8, 7395, Control_c, 6, 11, 119
8, 7396, Control_c, 6, 11, 116
8, 7397, Control_c, 6, 11, 114
8, 7398, Control_c, 6, 11, 111
8, 7399, Control_c, 6, 11, 108
8, 7400, Control_c, 6, 11, 106
8, 7401, Control_c, 6, 11, 103
8, 7402, Control_c, 6, 11, 101
8, 7403, Control_c, 6, 11, 98
8, 7404, Control_c, 6, 11, 95
8, 7405, Control_c, 6, 11, 93
8, 7406, Control_c, 6, 11, 90
8, 7407, Control_c, 6, 11, 87
8, 7408, Control_c, 6, 11, 85
8, 7409, Control_c, 6, 11, 82
8, 7410, Control_c, 6, 11, 79
8, 7411, Control_c, 6, 11, 77
8, 7412, Control_c, 6, 11, 74
8, 7413, Control_c, 6, 11, 71
8, 7414, Control_c, 6, 11, 69
8, 7415, Control_c, 6, 11, 66
8, 7416, Control_c, 6, 11, 64
8, 7417, Control_c, 6, 11, 61
8, 7418, Control_c, 6, 11, 58
8, 7419, Control_c, 6, 11, 56
8, 7420, Control_c, 6, 11, 53
8, 7421, Control_c, 6, 11, 50
8, 7422, Control_c, 6, 11, 48
8, 7423, Control_c, 6, 11, 45
8, 7424, Control_c, 6, 11, 42
8, 7425, Control_c, 6, 11, 40
8, 7426, Control_c, 6, 11, 37
8, 7427, Control_c, 6, 11, 34
8, 7428, Control_c, 6, 11, 32
8, 7429, Control_c, 6, 11, 29
8, 7430, Control_c, 6, 11, 26
8, 7431, Control_c, 6, 11, 24
8, 7432, Control_c, 6, 11, 21
8, 7433, Control_c, 6, 11, 19
8, 7434, Control_c, 6, 11, 16
8, 7435, Control_c, 6, 11, 13
8, 7436, Control_c, 6, 11, 11
8, 7437, Control_c, 6, 11, 8
8, 7438, Control_c, 6, 11, 5
8, 7439, Control_c, 6, 11, 3
8, 7440, Note_off_c, 6, 63, 64
8, 7440, Control_c, 6, 11, 127
8, 7440, Note_on_c, 6, 93, 64
8, 7441, Control_c, 6, 11, 124
8, 7442, Control_c, 6, 11, 122
8, 7443, Control_c, 6, 11, 119
8, 7444, Control_c, 6, 11, 116
8, 7445, Control_c, 6, 11, 114
8, 7446, Control_c, 6, 11, 111
8, 7447, Control_c, 6, 11, 108
8, 7448, Control_c, 6, 11, 106
8, 7449, Control_c, 6, 11, 103
8, 7450, Control_c, 6, 11, 101
8, 7451, Control_c, 6, 11, 98
8, 7452, Control_c, 6, 11, 95
8, 7453, Control_c, 6, 11, 93
8, 7454, Control_c, 6, 11, 90
8, 7455, Control_c, 6, 11, 87
8, 7456, Control_c, 6, 11, 85
8, 7457, Control_c, 6, 11, 82
8, 7458, Control_c, 6, 11, 79
8, 7459, Control_c, 6, 11, 77
8, 7460, Control_c, 6, 11, 74
8, 7461, Control_c, 6, 11, 71
8, 7462, Control_c, 6, 11, 69
8, 7463, Control_c, 6, 11, 66
8, 7464, Control_c, 6, 11, 64
8, 7465, Control_c, 6, 11, 61
8, 7466, Control_c, 6, 11, 58
8, 7467, Control_c, 6, 11, 56
8, 7468, Control_c, 6, 11, 53
8, 7469, Control_c, 6, 11, 50
8, 7470, Control_c, 6, 11, 48
8, 7471, Control_c, 6, 11, 45
8, 7472, Control_c, 6, 11, 42
8, 7473, Control_c, 6, 11, 40
8, 7474, Control_c, 6, 11, 37
8, 7475, Control_c, 6, 11, 34
8, 7476, Control_c, 6, 11, 32
8, 7477, Control_c, 6, 11, 29
8, 7478, Control_c, 6, 11, 26
8, 7479, Control_c, 6, 11, 24
8, 7480, Control_c, 6, 11, 21
8, 7481, Control_c, 6, 11, 19
8, 7482, Control_c, 6, 11, 16
8, 7483, Control_c, 6, 11, 13
8, 7484, Control_c, 6, 11, 11
8, 7485, Control_c, 6, 11, 8
8, 7486, Control_c, 6, 11, 5
8, 7487, Control_c, 6, 11, 3
8, 7488, Note_off_c, 6, 93, 64
8, 7488, Control_c, 6, 11, 127
8, 7488, Note_on_c, 6, 33, 64
8, 7489, Control_c, 6, 11, 124
8, 7490, Control_c, 6, 11, 122
8, 7491, Control_c, 6, 11, 119
8, 7492, Control_c, 6, 11, 116
8, 7493, Control_c, 6, 11, 114
8, 7494, Control_c, 6, 11, 111
8, 7495, Control_c, 6, 11, 108
8, 7496, Control_c, 6, 11, 106
8, 7497, Control_c, 6, 11, 103
8, 7498, Control_c, 6, 11, 101
8, 7499, Control_c, 6, 11, 98
8, 7500, Control_c, 6, 11, 95
8, 7501, Control_c, 6, 11, 93
8, 7502, Control_c, 6, 11, 90
8, 7503, Control_c, 6, 11, 87
8, 7504, Control_c, 6, 11, 85
8, 7505, Control_c, 6, 11, 82
8, 7506, Control_c, 6, 11, 79
8, 7507, Control_c, 6, 11, 77
8, 7508, Control_c, 6, 11, 74
8, 7509, Control_c, 6, 11, 71
8, 7510, Control_c, 6, 11, 69
8, 7511, Control_c, 6, 11, 66
8, 7512, Control_c, 6, 11, 64
8, 7513, Control_c, 6, 11, 61
8, 7514, Control_c, 6, 11, 58
8, 7515, Control_c, 6, 11, 56
8, 7516, Control_c, 6, 11, 53
8, 7517, Control_c, 6, 11, 50
8, 7518, Control_c, 6, 11, 48
8, 7519, Control_c, 6, 11, 45
8, 7520, Control_c, 6, 11, 42
8, 7521, Control_c, 6, 11, 40
8, 7522, Control_c, 6, 11, 37
8, 7523, Control_c, 6, 11, 34
8, 7524, Control_c, 6, 11, 32
8, 7525, Control_c, 6, 11, 29
8, 7526, Control_c, 6, 11, 26
8, 7527, Control_c, 6, 11, 24
8, 7528, Control_c, 6, 11, 21
8, 7529, Control_c, 6, 11, 19
8, 7530, Control_c, 6, 11, 16
8, 7531, Control_c, 6, 11, 13
8, 7532, Control_c, 6, 11, 11
8, 7533, Control_c, 6, 11, 8
8, 7534, Control_c, 6, 11, 5
8, 7535, Control_c, 6, 11, 3
8, 7536, Note_off_c, 6, 33, 64
8, 7536, Control_c, 6, 11, 127
8, 7536, Note_on_c, 6, 93, 64
8, 7537, Control_c, 6, 11, 124
8, 7538, Control_c, 6, 11, 122
8, 7539, Control_c, 6, 11, 119
8, 7540, Control_c, 6, 11, 116
8, 7541, Control_c, 6, 11, 114
8, 7542, Control_c, 6, 11, 111
8, 7543, Control_c, 6, 11, 108
8, 7544, Control_c, 6, 11, 106
8, 7545, Control_c, 6, 11, 103
8, 7546, Control_c, 6, 11, 101
8, 7547, Control_c, 6, 11, 98
8, 7548, Control_c, 6, 11, 95
8, 7549, Control_c, 6, 11, 93
8, 7550, Control_c, 6, 11, 90
8, 7551, Control_c, 6, 11, 87
8, 7552, Control_c, 6, 11, 85
8, 7553, Control_c, 6, 11, 82
8, 7554, Control_c, 6, 11, 79
8, 7555, Control_c, 6, 11, 77
8, 7556, Control_c, 6, 11, 74
8, 7557, Control_c, 6, 11, 71
8, 7558, Control_c, 6, 11, 69
8, 7559, Control_c, 6, 11, 66
8, 7560, Control_c, 6, 11, 64
8, 7561, Control_c, 6, 11, 61
8, 7562, Control_c, 6, 11, 58
8, 7563, Control_c, 6, 11, 56
8, 7564, Control_c, 6, 11, 53
8, 7565, Control_c, 6, 11, 50
8, 7566, Control_c, 6, 11, 48
8, 7567, Control_c, 6, 11, 45
8, 7568, Control_c, 6, 11, 42
8, 7569, Control_c, 6, 11, 40
8, 7570, Control_c, 6, 11, 37
8, 7571, Control_c, 6, 11, 34
8, 7572, Control_c, 6, 11, 32
8, 7573, Control_c, 6, 11, 29
8, 7574, Control_c, 6, 11, 26
8, 7575, Control_c, 6, 11, 24
8, 7576, Control_c, 6, 11, 21
8, 7577, Control_c, 6, 11, 19
8, 7578, Control_c, 6, 11, 16
8, 7579, Control_c, 6, 11, 13
8, 7580, Control_c, 6, 11, 11
8, 7581, Control_c, 6, 11, 8
8, 7582, Control_c, 6, 11, 5
8, 7583, Control_c, 6, 11, 3
8, 7584, Note_off_c, 6, 93, 64
8, 7584, Control_c, 6, 11, 127
8, 7584, Note_on_c, 6, 63, 64
8, 7585, Control_c, 6, 11, 124
8, 7586, Control_c, 6, 11, 122
8, 7587, Control_c, 6, 11, 119
8, 7588, Control_c, 6, 11, 116
8, 7589, Control_c, 6, 11, 114
8, 7590, Control_c, 6, 11, 111
8, 7591, Control_c, 6, 11, 108
8, 7592, Control_c, 6, 11, 106
8, 7593, Control_c, 6, 11, 103
8, 7594, Control_c, 6, 11, 101
8, 7595, Control_c, 6, 11, 98
8, 7596, Control_c, 6, 11, 95
8, 7597, Control_c, 6, 11, 93
8, 7598, Control_c, 6, 11, 90
8, 7599, Control_c, 6, 11, 87
8, 7600, Control_c, 6, 11, 85
8, 7601, Control_c, 6, 11, 82
8, 7602, Control_c, 6, 11, 79
8, 7603, Control_c, 6, 11, 77
8, 7604, Control_c, 6, 11, 74
8, 7605, Control_c, 6, 11, 71
8, 7606, Control_c, 6, 11, 69
8, 7607, Control_c, 6, 11, 66
8, 7608, Control_c, 6, 11, 64
8, 7609, Control_c, 6, 11, 61
8, 7610, Control_c, 6, 11, 58
8, 7611, Control_c, 6, 11, 56
8, 7612, Control_c, 6, 11, 53
8, 7613, Control_c, 6, 11, 50
8, 7614, Control_c, 6, 11, 48
8, 7615, Control_c, 6, 11, 45
8, 7616, Control_c, 6, 11, 42
8, 7617, Control_c, 6, 11, 40
8, 7618, Control_c, 6, 11, 37
8, 7619, Control_c, 6, 11, 34
8, 7620, Control_c, 6, 11, 32
8, 7621, Control_c, 6, 11, 29
8, 7622, Control_c, 6, 11, 26
8, 7623, Control_c, 6, 11, 24
8, 7624, Control_c, 6, 11, 21
8, 7625, Control_c, 6, 11, 19
8, 7626, Control_c, 6, 11, 16
8, 7627, Control_c, 6, 11, 13
8, 7628, Control_c, 6, 11, 11
8, 7629, Control_c, 6, 11, 8
8, 7630, Control_c, 6, 11, 5
8, 7631, Control_c, 6, 11, 3
8, 7632, Note_off_c, 6, 63, 64
8, 7632, Control_c, 6, 11, 127
8, 7632, Note_on_c, 6, 63, 64
8, 7633, Control_c, 6, 11, 124
8, 7634, Control_c, 6, 11, 122
8, 7635, Control_c, 6, 11, 119
8, 7636, Control_c, 6, 11, 116
8, 7637, Control_c, 6, 11, 114
8, 7638, Control_c, 6, 11, 111
8, 7639, Control_c, 6, 11, 108
8, 7640, Control_c, 6, 11, 106
8, 7641, Control_c, 6, 11, 103
8, 7642, Control_c, 6, 11, 101
8, 7643, Control_c, 6, 11, 98
8, 7644, Control_c, 6, 11, 95
8, 7645, Control_c, 6, 11, 93
8, 7646, Control_c, 6, 11, 90
8, 7647, Control_c, 6, 11, 87
8, 7648, Control_c, 6, 11, 85
8, 7649, Control_c, 6, 11, 82
8, 7650, Control_c, 6, 11, 79
8, 7651, Control_c, 6, 11, 77
8, 7652, Control_c, 6, 11, 74
8, 7653, Control_c, 6, 11, 71
8, 7654, Control_c, 6, 11, 69
8, 7655, Control_c, 6, 11, 66
8, 7656, Control_c, 6, 11, 64
8, 7657, Control_c, 6, 11, 61
8, 7658, Control_c, 6, 11, 58
8, 7659, Control_c, 6, 11, 56
8, 7660, Control_c, 6, 11, 53
8, 7661, Control_c, 6, 11, 50
8, 7662, Control_c, 6, 11, 48
8, 7663, Control_c, 6, 11, 45
8, 7664, Control_c, 6, 11, 42
8, 7665, Control_c, 6, 11, 40
8, 7666, Control_c, 6, 11, 37
8, 7667, Control_c, 6, 11, 34
8, 7668, Control_c, 6, 11, 32
8, 7669, Control_c, 6, 11, 29
8, 7670, Control_c, 6, 11, 26
8, 7671, Control_c, 6, 11, 24
8, 7672, Control_c, 6, 11, 21
8, 7673, Control_c, 6, 11, 19
8, 7674, Control_c, 6, 11, 16
8, 7675, Control_c, 6, 11, 13
8, 7676, Control_c, 6, 11, 11
8, 7677, Control_c, 6, 11, 8
8, 7678, Control_c, 6, 11, 5
8, 7679, Control_c, 6, 11, 3
8, 7680, Note_off_c, 6, 63, 64
8, 7680, Control_c, 6, 11, 127
8, 7680, Note_on_c, 6, 33, 64
8, 7681, Control_c, 6, 11, 124
8, 7682, Control_c, 6, 11, 122
8, 7683, Control_c, 6, 11, 119
8, 7684, Control_c, 6, 11, 116
8, 7685, Control_c, 6, 11, 114
8, 7686, Control_c, 6, 11, 111
8, 7687, Control_c, 6, 11, 108
8, 7688, Control_c, 6, 11, 106
8, 7689, Control_c, 6, 11, 103
8, 7690, Control_c, 6, 11, 101
8, 7691, Control_c, 6, 11, 98
8, 7692, Control_c, 6, 11, 95
8, 7693, Control_c, 6, 11, 93
8, 7694, Control_c, 6, 11, 90
8, 7695, Control_c, 6, 11, 87
8, 7696, Control_c, 6, 11, 85
8, 7697, Control_c, 6, 11, 82
8, 7698, Control_c, 6, 11, 79
8, 7699, Control_c, 6, 11, 77
8, 7700, Control_c, 6, 11, 74
8, 7701, Control_c, 6, 11, 71
8, 7702, Control_c, 6, 11, 69
8, 7703, Control_c, 6, 11, 66
8, 7704, Control_c, 6, 11, 64
8, 7705, Control_c, 6, 11, 61
8, 7706, Control_c, 6, 11, 58
8, 7707, Control_c, 6, 11, 56
8, 7708, Control_c, 6, 11, 53
8, 7709, Control_c, 6, 11, 50
8, 7710, Control_c, 6, 11, 48
8, 7711, Control_c, 6, 11, 45
8, 7712, Control_c, 6, 11, 42
8, 7713, Control_c, 6, 11, 40
8, 7714, Control_c, 6, 11, 37
8, 7715, Control_c, 6, 11, 34
8, 7716, Control_c, 6, 11, 32
8, 7717, Control_c, 6, 11, 29
8, 7718, Control_c, 6, 11, 26
8, 7719, Control_c, 6, 11, 24
8, 7720, Control_c, 6, 11, 21
8, 7721, Control_c, 6, 11, 19
8, 7722, Control_c, 6, 11, 16
8, 7723, Control_c, 6, 11, 13
8, 7724, Control_c, 6, 11, 11
8, 7725, Control_c, 6, 11, 8
8, 7726, Control_c, 6, 11, 5
8, 7727, Control_c, 6, 11, 3
8, 7728, Note_off_c, 6, 33, 64
8, 7728, Control_c, 6, 11, 127
8, 7728, Note_on_c, 6, 93, 64
8, 7729, Control_c, 6, 11, 124
8, 7730, Control_c, 6, 11, 122
8, 7731, Control_c, 6, 11, 119
8, 7732, Control_c, 6, 11, 116
8, 7733, Control_c, 6, 11, 114
8, 7734, Control_c, 6, 11, 111
8, 7735, Control_c, 6, 11, 108
8, 7736, Control_c, 6, 11, 106
8, 7737, Control_c, 6, 11, 103
8, 7738, Control_c, 6, 11, 101
8, 7739, Control_c, 6, 11, 98
8, 7740, Control_c, 6, 11, 95
8, 7741, Control_c, 6, 11, 93
8, 7742, Control_c, 6, 11, 90
8, 7743, Control_c, 6, 11, 87
8, 7744, Control_c, 6, 11, 85
8, 7745, Control_c, 6, 11, 82
8, 7746, Control_c, 6, 11, 79
8, 7747, Control_c, 6, 11, 77
8, 7748, Control_c, 6, 11, 74
8, 7749, Control_c, 6, 11, 71
8, 7750, Control_c, 6, 11, 69
8, 7751, Control_c, 6, 11, 66
8, 7752, Control_c, 6, 11, 64
8, 7753, Control_c, 6, 11, 61
8, 7754, Control_c, 6, 11, 58
8, 7755, Control_c, 6, 11, 56
8, 7756, Control_c, 6, 11, 53
8, 7757, Control_c, 6, 11, 50
8, 7758, Control_c, 6, 11, 48
8, 7759, Control_c, 6, 11, 45
8, 7760, Control_c, 6, 11, 42
8, 7761, Control_c, 6, 11, 40
8, 7762, Control_c, 6, 11, 37
8, 7763, Control_c, 6, 11, 34
8, 7764, Control_c, 6, 11, 32
8, 7765, Control_c, 6, 11, 29
8, 7766, Control_c, 6, 11, 26
8, 7767, Control_c, 6, 11, 24
8, 7768, Control_c, 6, 11, 21
8, 7769, Control_c, 6, 11, 19
8, 7770, Control_c, 6, 11, 16
8, 7771, Control_c, 6, 11, 13
8, 7772, Control_c, 6, 11, 11
8, 7773, Control_c, 6, 11, 8
8, 7774, Control_c, 6, 11, 5
8, 7775, Control_c, 6, 11, 3
8, 7776, Note_off_c, 6, 93, 64
8, 7776, Control_c, 6, 11, 127
8, 7776, Note_on_c, 6, 63, 64
8, 7777, Control_c, 6, 11, 124
8, 7778, Control_c, 6, 11, 122
8, 7779, Control_c, 6, 11, 119
8, 7780, Control_c, 6, 11, 116
8, 7781, Control_c, 6, 11, 114
8, 7782, Control_c, 6, 11, 111
8, 7783, Control_c, 6, 11, 108
8, 7784, Control_c, 6, 11, 106
8, 7785, Control_c, 6, 11, 103
8, 7786, Control_c, 6, 11, 101
8, 7787, Control_c, 6, 11, 98
8, 7788, Control_c, 6, 11, 95
8, 7789, Control_c, 6, 11, 93
8, 7790, Control_c, 6, 11, 90
8, 7791, Control_c, 6, 11, 87
8, 7792, Control_c, 6, 11, 85
8, 7793, Control_c, 6, 11, 82
8, 7794, Control_c, 6, 11, 79
8, 7795, Control_c, 6, 11, 77
8, 7796, Control_c, 6, 11, 74
8, 7797, Control_c, 6, 11, 71
8, 7798, Control_c, 6, 11, 69
8, 7799, Control_c, 6, 11, 66
8, 7800, Control_c, 6, 11, 64
8, 7801, Control_c, 6, 11, 61
8, 7802, Control_c, 6, 11, 58
8, 7803, Control_c, 6, 11, 56
8, 7804, Control_c, 6, 11, 53
8, 7805, Control_c, 6, 11, 50
8, 7806, Control_c, 6, 11, 48
8, 7807, Control_c, 6, 11, 45
8, 7808, Control_c, 6, 11, 42
8, 7809, Control_c, 6, 11, 40
8, 7810, Control_c, 6, 11, 37
8, 7811, Control_c, 6, 11, 34
8, 7812, Control_c, 6, 11, 32
8, 7813, Control_c, 6, 11, 29
8, 7814, Control_c, 6, 11, 26
8, 7815, Control_c, 6, 11, 24
8, 7816, Control_c, 6, 11, 21
8, 7817, Control_c, 6, 11, 19
8, 7818, Control_c, 6, 11, 16
8, 7819, Control_c, 6, 11, 13
8, 7820, Control_c, 6, 11, 11
8, 7821, Control_c, 6, 11, 8
8, 7822, Control_c, 6, 11, 5
8, 7823, Control_c, 6, 11, 3
8, 7824, Note_off_c, 6, 63, 64
8, 7824, Control_c, 6, 11, 127
8, 7824, Note_on_c, 6, 93, 64
8, 7825, Control_c, 6, 11, 124
8, 7826, Control_c, 6, 11, 122
8, 7827, Control_c, 6, 11, 119
8, 7828, Control_c, 6, 11, 116
8, 7829, Control_c, 6, 11, 114
8, 7830, Control_c, 6, 11, 111
8, 7831, Control_c, 6, 11, 108
8, 7832, Control_c, 6, 11, 106
8, 7833, Control_c, 6, 11, 103
8, 7834, Control_c, 6, 11, 101
8, 7835, Control_c, 6, 11, 98
8, 7836, Control_c, 6, 11, 95
8, 7837, Control_c, 6, 11, 93
8, 7838, Control_c, 6, 11, 90
8, 7839, Control_c, 6, 11, 87
8, 7840, Control_c, 6, 11, 85
8, 7841, Control_c, 6, 11, 82
8, 7842, Control_c, 6, 11, 79
8, 7843, Control_c, 6, 11, 77
8, 7844, Control_c, 6, 11, 74
8, 7845, Control_c, 6, 11, 71
8, 7846, Control_c, 6, 11, 69
8, 7847, Control_c, 6, 11, 66
8, 7848, Control_c, 6, 11, 64
8, 7849, Control_c, 6, 11, 61
8, 7850, Control_c, 6, 11, 58
8, 7851, Control_c, 6, 11, 56
8, 7852, Control_c, 6, 11, 53
8, 7853, Control_c, 6, 11, 50
8, 7854, Control_c, 6, 11, 48
8, 7855, Control_c, 6, 11, 45
8, 7856, Control_c, 6, 11, 42
8, 7857, Control_c, 6, 11, 40
8, 7858, Control_c, 6, 11, 37
8, 7859, Control_c, 6, 11, 34
8, 7860, Control_c, 6, 11, 32
8, 7861, Control_c, 6, 11, 29
8, 7862, Control_c, 6, 11, 26
8, 7863, Control_c, 6, 11, 24
8, 7864, Control_c, 6, 11, 21
8, 7865, Control_c, 6, 11, 19
8, 7866, Control_c, 6, 11, 16
8, 7867, Control_c, 6, 11, 13
8, 7868, Control_c, 6, 11, 11
8, 7869, Control_c, 6, 11, 8
8, 7870, Control_c, 6, 11, 5
8, 7871, Control_c, 6, 11, 3
8, 7872, Note_off_c, 6, 93, 64
8, 7872, Control_c, 6, 11, 127
8, 7872, Note_on_c, 6, 33, 64
8, 7873, Control_c, 6, 11, 124
8, 7874, Control_c, 6, 11, 122
8, 7875, Control_c, 6, 11, 119
8, 7876, Control_c, 6, 11, 116
8, 7877, Control_c, 6, 11, 114
8, 7878, Control_c, 6, 11, 111
8, 7879, Control_c, 6, 11, 108
8, 7880, Control_c, 6, 11, 106
8, 7881, Control_c, 6, 11, 103
8, 7882, Control_c, 6, 11, 101
8, 7883, Control_c, 6, 11, 98
8, 7884, Control_c, 6, 11, 95
8, 7885, Control_c, 6, 11, 93
8, 7886, Control_c, 6, 11, 90
8, 7887, Control_c, 6, 11, 87
8, 7888, Control_c, 6, 11, 85
8, 7889, Control_c, 6, 11, 82
8, 7890, Control_c, 6, 11, 79
8, 7891, Control_c, 6, 11, 77
8, 7892, Control_c, 6, 11, 74
8, 7893, Control_c, 6, 11, 71
8, 7894, Control_c, 6, 11, 69
8, 7895, Control_c, 6, 11, 66
8, 7896, Control_c, 6, 11, 64
8, 7897, Control_c, 6, 11, 61
8, 7898, Control_c, 6, 11, 58
8, 7899, Control_c, 6, 11, 56
8, 7900, Control_c, 6, 11, 53
8, 7901, Control_c, 6, 11, 50
8, 7902, Control_c, 6, 11, 48
8, 7903, Control_c, 6, 11, 45
8, 7904, Control_c, 6, 11, 42
8, 7905, Control_c, 6, 11, 40
8, 7906, Control_c, 6, 11, 37
8, 7907, Control_c, 6, 11, 34
8, 7908, Control_c, 6, 11, 32
8, 7909, Control_c, 6, 11, 29
8, 7910, Control_c, 6, 11, 26
8, 7911, Control_c, 6, 11, 24
8, 7912, Control_c, 6, 11, 21
8, 7913, Control_c, 6, 11, 19
8, 7914, Control_c, 6, 11, 16
8, 7915, Control_c, 6, 11, 13
8, 7916, Control_c, 6, 11, 11
8, 7917, Control_c, 6, 11, 8
8, 7918, Control_c, 6, 11, 5
8, 7919, Control_c, 6, 11, 3
8, 7920, Note_off_c, 6, 33, 64
8, 7920, Control_c, 6, 11, 127
8, 7920, Note_on_c, 6, 93, 64
8, 7921, Control_c, 6, 11, 124
8, 7922, Control_c, 6, 11, 122
8, 7923, Control_c, 6, 11, 119
8, 7924, Control_c, 6, 11, 116
8, 7925, Control_c, 6, 11, 114
8, 7926, Control_c, 6, 11, 111
8, 7927, Control_c, 6, 11, 108
8, 7928, Control_c, 6, 11, 106
8, 7929, Control_c, 6, 11, 103
8, 7930, Control_c, 6, 11, 101
8, 7931, Control_c, 6, 11, 98
8, 7932, Control_c, 6, 11, 95
8, 7933, Control_c, 6, 11, 93
8, 7934, Control_c, 6, 11, 90
8, 7935, Control_c, 6, 11, 87
8, 7936, Control_c, 6, 11, 85
8, 7937, Control_c, 6, 11, 82
8, 7938, Control_c, 6, 11, 79
8, 7939, Control_c, 6, 11, 77
8, 7940, Control_c, 6, 11, 74
8, 7941, Control_c, 6, 11, 71
8, 7942, Control_c, 6, 11, 69
8, 7943, Control_c, 6, 11, 66
8, 7944, Control_c, 6, 11, 64
8, 7945, Control_c, 6, 11, 61
8, 7946, Control_c, 6, 11, 58
8, 7947, Control_c, 6, 11, 56
8, 7948, Control_c, 6, 11, 53
8, 7949, Control_c, 6, 11, 50
8, 7950, Control_c, 6, 11, 48
8, 7951, Control_c, 6, 11, 45
8, 7952, Control_c, 6, 11, 42
8, 7953, Control_c, 6, 11, 40
8, 7954, Control_c, 6, 11, 37
8, 7955, Control_c, 6, 11, 34
8, 7956, Control_c, 6, 11, 32
8, 7957, Control_c, 6, 11, 29
8, 7958, Control_c, 6, 11, 26
8, 7959, Control_c, 6, 11, 24
8, 7960, Control_c, 6, 11, 21
8, 7961, Control_c, 6, 11, 19
8, 7962, Control_c, 6, 11, 16
8, 7963, Control_c, 6, 11, 13
8, 7964, Control_c, 6, 11, 11
8, 7965, Control_c, 6, 11, 8
8, 7966, Control_c, 6, 11, 5
8, 7967, Control_c, 6, 11, 3
8, 7968, Note_off_c, 6, 93, 64
8, 7968, Control_c, 6, 11, 127
8, 7968, Note_on_c, 6, 63, 64
8, 7969, Control_c, 6, 11, 124
8, 7970, Control_c, 6, 11, 122
8, 7971, Control_c, 6, 11, 119
8, 7972, Control_c, 6, 11, 116
8, 7973, Control_c, 6, 11, 114
8, 7974, Control_c, 6, 11, 111
8, 7975, Control_c, 6, 11, 108
8, 7976, Control_c, 6, 11, 106
8, 7977, Control_c, 6, 11, 103
8, 7978, Control_c, 6, 11, 101
8, 7979, Control_c, 6, 11, 98
8, 7980, Control_c, 6, 11, 95
8, 7981, Control_c, 6, 11, 93
8, 7982, Control_c, 6, 11, 90
8, 7983, Control_c, 6, 11, 87
8, 7984, Control_c, 6, 11, 85
8, 7985, Control_c, 6, 11, 82
8, 7986, Control_c, 6, 11, 79
8, 7987, Control_c, 6, 11, 77
8, 7988, Control_c, 6, 11, 74
8, 7989, Control_c, 6, 11, 71
8, 7990, Control_c, 6, 11, 69
8, 7991, Control_c, 6, 11, 66
8, 7992, Control_c, 6, 11, 64
8, 7993, Control_c, 6, 11, 61
8, 7994, Control_c, 6, 11, 58
8, 7995, Control_c, 6, 11, 56
8, 7996, Control_c, 6, 11, 53
8, 7997, Control_c, 6, 11, 50
8, 7998, Control_c, 6, 11, 48
8, 7999, Control_c, 6, 11, 45
8, 8000, Control_c, 6, 11, 42
8, 8001, Control_c, 6, 11, 40
8, 8002, Control_c, 6, 11, 37
8, 8003, Control_c, 6, 11, 34
8, 8004, Control_c, 6, 11, 32
8, 8005, Control_c, 6, 11, 29
8, 8006, Control_c, 6, 11, 26
8, 8007, Control_c, 6, 11, 24
8, 8008, Control_c, 6, 11, 21
8, 8009, Control_c, 6, 11, 19
8, 8010, Control_c, 6, 11, 16
8, 8011, Control_c, 6, 11, 13
8, 8012, Control_c, 6, 11, 11
8, 8013, Control_c, 6, 11, 8
8, 8014, Control_c, 6, 11, 5
8, 8015, Control_c, 6, 11, 3
8, 8016, Note_off_c, 6, 63, 64
8, 8016, Control_c, 6, 11, 127
8, 8016, Note_on_c, 6, 93, 64
8, 8017, Control_c, 6, 11, 124
8, 8018, Control_c, 6, 11, 122
8, 8019, Control_c, 6, 11, 119
8, 8020, Control_c, 6, 11, 116
8, 8021, Control_c, 6, 11, 114
8, 8022, Control_c, 6, 11, 111
8, 8023, Control_c, 6, 11, 108
8, 8024, Control_c, 6, 11, 106
8, 8025, Control_c, 6, 11, 103
8, 8026, Control_c, 6, 11, 101
8, 8027, Control_c, 6, 11, 98
8, 8028, Control_c, 6, 11, 95
8, 8029, Control_c, 6, 11, 93
8, 8030, Control_c, 6, 11, 90
8, 8031, Control_c, 6, 11, 87
8, 8032, Control_c, 6, 11, 85
8, 8033, Control_c, 6, 11, 82
8, 8034, Control_c, 6, 11, 79
8, 8035, Control_c, 6, 11, 77
8, 8036, Control_c, 6, 11, 74
8, 8037, Control_c, 6, 11, 71
8, 8038, Control_c, 6, 11, 69
8, 8039, Control_c, 6, 11, 66
8, 8040, Control_c, 6, 11, 64
8, 8041, Control_c, 6, 11, 61
8, 8042, Control_c, 6, 11, 58
8, 8043, Control_c, 6, 11, 56
8, 8044, Control_c, 6, 11, 53
8, 8045, Control_c, 6, 11, 50
8, 8046, Control_c, 6, 11, 48
8, 8047, Control_c, 6, 11, 45
8, 8048, Control_c, 6, 11, 42
8, 8049, Control_c, 6, 11, 40
8, 8050, Control_c, 6, 11, 37
8, 8051, Control_c, 6, 11, 34
8, 8052, Control_c, 6, 11, 32
8, 8053, Control_c, 6, 11, 29
8, 8054, Control_c, 6, 11, 26
8, 8055, Control_c, 6, 11, 24
8, 8056, Control_c, 6, 11, 21
8, 8057, Control_c, 6, 11, 19
8, 8058, Control_c, 6, 11, 16
8, 8059, Control_c, 6, 11, 13
8, 8060, Control_c, 6, 11, 11
8, 8061, Control_c, 6, 11, 8
8, 8062, Control_c, 6, 11, 5
8, 8063, Control_c, 6, 11, 3
8, 8064, Note_off_c, 6, 93, 64
8, 8064, Control_c, 6, 11, 127
8, 8064, Note_on_c, 6, 33, 64
8, 8065, Control_c, 6, 11, 124
8, 8066, Control_c, 6, 11, 122
8, 8067, Control_c, 6, 11, 119
8, 8068, Control_c, 6, 11, 116
8, 8069, Control_c, 6, 11, 114
8, 8070, Control_c, 6, 11, 111
8, 8071, Control_c, 6, 11, 108
8, 8072, Control_c, 6, 11, 106
8, 8073, Control_c, 6, 11, 103
8, 8074, Control_c, 6, 11, 101
8, 8075, Control_c, 6, 11, 98
8, 8076, Control_c, 6, 11, 95
8, 8077, Control_c, 6, 11, 93
8, 8078, Control_c, 6, 11, 90
8, 8079, Control_c, 6, 11, 87
8, 8080, Control_c, 6, 11, 85
8, 8081, Control_c, 6, 11, 82
8, 8082, Control_c, 6, 11, 79
8, 8083, Control_c, 6, 11, 77
8, 8084, Control_c, 6, 11, 74
8, 8085, Control_c, 6, 11, 71
8, 8086, Control_c, 6, 11, 69
8, 8087, Control_c, 6, 11, 66
8, 8088, Control_c, 6, 11, 64
8, 8089, Control_c, 6, 11, 61
8, 8090, Control_c, 6, 11, 58
8, 8091, Control_c, 6, 11, 56
8, 8092, Control_c, 6, 11, 53
8, 8093, Control_c, 6, 11, 50
8, 8094, Control_c, 6, 11, 48
8, 8095, Control_c, 6, 11, 45
8, 8096, Control_c, 6, 11, 42
8, 8097, Control_c, 6, 11, 40
8, 8098, Control_c, 6, 11, 37
8, 8099, Control_c, 6, 11, 34
8, 8100, Control_c, 6, 11, 32
8, 8101, Control_c, 6, 11, 29
8, 8102, Control_c, 6, 11, 26
8, 8103, Control_c, 6, 11, 24
8, 8104, Control_c, 6, 11, 21
8, 8105, Control_c, 6, 11, 19
8, 8106, Control_c, 6, 11, 16
8, 8107, Control_c, 6, 11, 13
8, 8108, Control_c, 6, 11, 11
8, 8109, Control_c, 6, 11, 8
8, 8110, Control_c, 6, 11, 5
8, 8111, Control_c, 6, 11, 3
8, 8112, Note_off_c, 6, 33, 64
8, 8112, Control_c, 6, 11, 127
8, 8112, Note_on_c, 6, 93, 64
8, 8113, Control_c, 6, 11, 124
8, 8114, Control_c, 6, 11, 122
8, 8115, Control_c, 6, 11, 119
8, 8116, Control_c, 6, 11, 116
8, 8117, Control_c, 6, 11, 114
8, 8118, Control_c, 6, 11, 111
8, 8119, Control_c, 6, 11, 108
8, 8120, Control_c, 6, 11, 106
8, 8121, Control_c, 6, 11, 103
8, 8122, Control_c, 6, 11, 101
8, 8123, Control_c, 6, 11, 98
8, 8124, Control_c, 6, 11, 95
8, 8125, Control_c, 6, 11, 93
8, 8126, Control_c, 6, 11, 90
8, 8127, Control_c, 6, 11, 87
8, 8128, Control_c, 6, 11, 85
8, 8129, Control_c, 6, 11, 82
8, 8130, Control_c, 6, 11, 79
8, 8131, Control_c, 6, 11, 77
8, 8132, Control_c, 6, 11, 74
8, 8133, Control_c, 6, 11, 71
8, 8134, Control_c, 6, 11, 69
8, 8135, Control_c, 6, 11, 66
8, 8136, Control_c, 6, 11, 64
8, 8137, Control_c, 6, 11, 61
8, 8138, Control_c, 6, 11, 58
8, 8139, Control_c, 6, 11, 56
8, 8140, Control_c, 6, 11, 53
8, 8141, Control_c, 6, 11, 50
8, 8142, Control_c, 6, 11, 48
8, 8143, Control_c, 6, 11, 45
8, 8144, Control_c, 6, 11, 42
8, 8145, Control_c, 6, 11, 40
8, 8146, Control_c, 6, 11, 37
8, 8147, Control_c, 6, 11, 34
8, 8148, Control_c, 6, 11, 32
8, 8149, Control_c, 6, 11, 29
8, 8150, Control_c, 6, 11, 26
8, 8151, Control_c, 6, 11, 24
8, 8152, Control_c, 6, 11, 21
8, 8153, Control_c, 6, 11, 19
8, 8154, Control_c, 6, 11, 16
8, 8155, Control_c, 6, 11, 13
8, 8156, Control_c, 6, 11, 11
8, 8157, Control_c, 6, 11, 8
8, 8158, Control_c, 6, 11, 5
8, 8159, Control_c, 6, 11, 3
8, 8160, Note_off_c, 6, 93, 64
8, 8160, Control_c, 6, 11, 127
8, 8160, Note_on_c, 6, 63, 64
8, 8161, Control_c, 6, 11, 124
8, 8162, Control_c, 6, 11, 122
8, 8163, Control_c, 6, 11, 119
8, 8164, Control_c, 6, 11, 116
8, 8165, Control_c, 6, 11, 114
8, 8166, Control_c, 6, 11, 111
8, 8167, Control_c, 6, 11, 108
8, 8168, Control_c, 6, 11, 106
8, 8169, Control_c, 6, 11, 103
8, 8170, Control_c, 6, 11, 101
8, 8171, Control_c, 6, 11, 98
8, 8172, Control_c, 6, 11, 95
8, 8173, Control_c, 6, 11, 93
8, 8174, Control_c, 6, 11, 90
8, 8175, Control_c, 6, 11, 87
8, 8176, Control_c, 6, 11, 85
8, 8177, Control_c, 6, 11, 82
8, 8178, Control_c, 6, 11, 79
8, 8179, Control_c, 6, 11, 77
8, 8180, Control_c, 6, 11, 74
8, 8181, Control_c, 6, 11, 71
8, 8182, Control_c, 6, 11, 69
8, 8183, Control_c, 6, 11, 66
8, 8184, Control_c, 6, 11, 64
8, 8185, Control_c, 6, 11, 61
8, 8186, Control_c, 6, 11, 58
8, 8187, Control_c, 6, 11, 56
8, 8188, Control_c, 6, 11, 53
8, 8189, Control_c, 6, 11, 50
8, 8190, Control_c, 6, 11, 48
8, 8191, Control_c, 6, 11, 45
8, 8192, Control_c, 6, 11, 42
8, 8193, Control_c, 6, 11, 40
8, 8194, Control_c, 6, 11, 37
8, 8195, Control_c, 6, 11, 34
8, 8196, Control_c, 6, 11, 32
8, 8197, Control_c, 6, 11, 29
8, 8198, Control_c, 6, 11, 26
8, 8199, Control_c, 6, 11, 24
8, 8200, Control_c, 6, 11, 21
8, 8201, Control_c, 6, 11, 19
8, 8202, Control_c, 6, 11, 16
8, 8203, Control_c, 6, 11, 13
8, 8204, Control_c, 6, 11, 11
8, 8205, Control_c, 6, 11, 8
8, 8206, Control_c, 6, 11, 5
8, 8207, Control_c, 6, 11, 3
8, 8208, Note_off_c, 6, 63, 64
8, 8208, Control_c, 6, 11, 127
8, 8208, Note_on_c, 6, 93, 64
8, 8209, Control_c, 6, 11, 124
8, 8210, Control_c, 6, 11, 122
8, 8211, Control_c, 6, 11, 119
8, 8212, Control_c, 6, 11, 116
8, 8213, Control_c, 6, 11, 114
8, 8214, Control_c, 6, 11, 111
8, 8215, Control_c, 6, 11, 108
8, 8216, Control_c, 6, 11, 106
8, 8217, Control_c, 6, 11, 103
8, 8218, Control_c, 6, 11, 101
8, 8219, Control_c, 6, 11, 98
8, 8220, Control_c, 6, 11, 95
8, 8221, Control_c, 6, 11, 93
8, 8222, Control_c, 6, 11, 90
8, 8223, Control_c, 6, 11, 87
8, 8224, Control_c, 6, 11, 85
8, 8225, Control_c, 6, 11, 82
8, 8226, Control_c, 6, 11, 79
8, 8227, Control_c, 6, 11, 77
8, 8228, Control_c, 6, 11, 74
8, 8229, Control_c, 6, 11, 71
8, 8230, Control_c, 6, 11, 69
8, 8231, Control_c, 6, 11, 66
8, 8232, Control_c, 6, 11, 64
8, 8233, Control_c, 6, 11, 61
8, 8234, Control_c, 6, 11, 58
8, 8235, Control_c, 6, 11, 56
8, 8236, Control_c, 6, 11, 53
8, 8237, Control_c, 6, 11, 50
8, 8238, Control_c, 6, 11, 48
8, 8239, Control_c, 6, 11, 45
8, 8240, Control_c, 6, 11, 42
8, 8241, Control_c, 6, 11, 40
8, 8242, Control_c, 6, 11, 37
8, 8243, Control_c, 6, 11, 34
8, 8244, Control_c, 6, 11, 32
8, 8245, Control_c, 6, 11, 29
8, 8246, Control_c, 6, 11, 26
8, 8247, Control_c, 6, 11, 24
8, 8248, Control_c, 6, 11, 21
8, 8249, Control_c, 6, 11, 19
8, 8250, Control_c, 6, 11, 16
8, 8251, Control_c, 6, 11, 13
8, 8252, Control_c, 6, 11, 11
8, 8253, Control_c, 6, 11, 8
8, 8254, Control_c, 6, 11, 5
8, 8255, Control_c, 6, 11, 3
8, 8256, Note_off_c, 6, 93, 64
8, 8256, Control_c, 6, 11, 127
8, 8256, Note_on_c, 6, 33, 64
8, 8257, Control_c, 6, 11, 124
8, 8258, Control_c, 6, 11, 122
8, 8259, Control_c, 6, 11, 119
8, 8260, Control_c, 6, 11, 116
8, 8261, Control_c, 6, 11, 114
8, 8262, Control_c, 6, 11, 111
8, 8263, Control_c, 6, 11, 108
8, 8264, Control_c, 6, 11, 106
8, 8265, Control_c, 6, 11, 103
8, 8266, Control_c, 6, 11, 101
8, 8267, Control_c, 6, 11, 98
8, 8268, Control_c, 6, 11, 95
8, 8269, Control_c, 6, 11, 93
8, 8270, Control_c, 6, 11, 90
8, 8271, Control_c, 6, 11, 87
8, 8272, Control_c, 6, 11, 85
8, 8273, Control_c, 6, 11, 82
8, 8274, Control_c, 6, 11, 79
8, 8275, Control_c, 6, 11, 77
8, 8276, Control_c, 6, 11, 74
8, 8277, Control_c, 6, 11, 71
8, 8278, Control_c, 6, 11, 69
8, 8279, Control_c, 6, 11, 66
8, 8280, Control_c, 6, 11, 64
8, 8281, Control_c, 6, 11, 61
8, 8282, Control_c, 6, 11, 58
8, 8283, Control_c, 6, 11, 56
8, 8284, Control_c, 6, 11, 53
8, 8285, Control_c, 6, 11, 50
8, 8286, Control_c, 6, 11, 48
8, 8287, Control_c, 6, 11, 45
8, 8288, Control_c, 6, 11, 42
8, 8289, Control_c, 6, 11, 40
8, 8290, Control_c, 6, 11, 37
8, 8291, Control_c, 6, 11, 34
8, 8292, Control_c, 6, 11, 32
8, 8293, Control_c, 6, 11, 29
8, 8294, Control_c, 6, 11, 26
8, 8295, Control_c, 6, 11, 24
8, 8296, Control_c, 6, 11, 21
8, 8297, Control_c, 6, 11, 19
8, 8298, Control_c, 6, 11, 16
8, 8299, Control_c, 6, 11, 13
8, 8300, Control_c, 6, 11, 11
8, 8301, Control_c, 6, 11, 8
8, 8302, Control_c, 6, 11, 5
8, 8303, Control_c, 6, 11, 3
8, 8304, Note_off_c, 6, 33, 64
8, 8304, Control_c, 6, 11, 127
8, 8304, Note_on_c, 6, 93, 64
8, 8305, Control_c, 6, 11, 124
8, 8306, Control_c, 6, 11, 122
8, 8307, Control_c, 6, 11, 119
8, 8308, Control_c, 6, 11, 116
8, 8309, Control_c, 6, 11, 114
8, 8310, Control_c, 6, 11, 111
8, 8311, Control_c, 6, 11, 108
8, 8312, Control_c, 6, 11, 106
8, 8313, Control_c, 6, 11, 103
8, 8314, Control_c, 6, 11, 101
8, 8315, Control_c, 6, 11, 98
8, 8316, Control_c, 6, 11, 95
8, 8317, Control_c, 6, 11, 93
8, 8318, Control_c, 6, 11, 90
8, 8319, Control_c, 6, 11, 87
8, 8320, Control_c, 6, 11, 85
8, 8321, Control_c, 6, 11, 82
8, 8322, Control_c, 6, 11, 79
8, 8323, Control_c, 6, 11, 77
8, 8324, Control_c, 6, 11, 74
8, 8325, Control_c, 6, 11, 71
8, 8326, Control_c, 6, 11, 69
8, 8327, Control_c, 6, 11, 66
8, 8328, Control_c, 6, 11, 64
8, 8329, Control_c, 6, 11, 61
8, 8330, Control_c, 6, 11, 58
8, 8331, Control_c, 6, 11, 56
8, 8332, Control_c, 6, 11, 53
8, 8333, Control_c, 6, 11, 50
8, 8334, Control_c, 6, 11, 48
8, 8335, Control_c, 6, 11, 45
8, 8336, Control_c, 6, 11, 42
8, 8337, Control_c, 6, 11, 40
8, 8338, Control_c, 6, 11, 37
8, 8339, Control_c, 6, 11, 34
8, 8340, Control_c, 6, 11, 32
8, 8341, Control_c, 6, 11, 29
8, 8342, Control_c, 6, 11, 26
8, 8343, Control_c, 6, 11, 24
8, 8344, Control_c, 6, 11, 21
8, 8345, Control_c, 6, 11, 19
8, 8346, Control_c, 6, 11, 16
8, 8347, Control_c, 6, 11, 13
8, 8348, Control_c, 6, 11, 11
8, 8349, Control_c, 6, 11, 8
8, 8350, Control_c, 6, 11, 5
8, 8351, Control_c, 6, 11, 3
8, 8352, Note_off_c, 6, 93, 64
8, 8352, Control_c, 6, 11, 127
8, 8352, Note_on_c, 6, 63, 64
8, 8353, Control_c, 6, 11, 124
8, 8354, Control_c, 6, 11, 122
8, 8355, Control_c, 6, 11, 119
8, 8356, Control_c, 6, 11, 116
8, 8357, Control_c, 6, 11, 114
8, 8358, Control_c, 6, 11, 111
8, 8359, Control_c, 6, 11, 108
8, 8360, Control_c, 6, 11, 106
8, 8361, Control_c, 6, 11, 103
8, 8362, Control_c, 6, 11, 101
8, 8363, Control_c, 6, 11, 98
8, 8364, Control_c, 6, 11, 95
8, 8365, Control_c, 6, 11, 93
8, 8366, Control_c, 6, 11, 90
8, 8367, Control_c, 6, 11, 87
8, 8368, Control_c, 6, 11, 85
8, 8369, Control_c, 6, 11, 82
8, 8370, Control_c, 6, 11, 79
8, 8371, Control_c, 6, 11, 77
8, 8372, Control_c, 6, 11, 74
8, 8373, Control_c, 6, 11, 71
8, 8374, Control_c, 6, 11, 69
8, 8375, Control_c, 6, 11, 66
8, 8376, Control_c, 6, 11, 64
8, 8377, Control_c, 6, 11, 61
8, 8378, Control_c, 6, 11, 58
8, 8379, Control_c, 6, 11, 56
8, 8380, Control_c, 6, 11, 53
8, 8381, Control_c, 6, 11, 50
8, 8382, Control_c, 6, 11, 48
8, 8383, Control_c, 6, 11, 45
8, 8384, Control_c, 6, 11, 42
8, 8385, Control_c, 6, 11, 40
8, 8386, Control_c, 6, 11, 37
8, 8387, Control_c, 6, 11, 34
8, 8388, Control_c, 6, 11, 32
8, 8389, Control_c, 6, 11, 29
8, 8390, Control_c, 6, 11, 26
8, 8391, Control_c, 6, 11, 24
8, 8392, Control_c, 6, 11, 21
8, 8393, Control_c, 6, 11, 19
8, 8394, Control_c, 6, 11, 16
8, 8395, Control_c, 6, 11, 13
8, 8396, Control_c, 6, 11, 11
8, 8397, Control_c, 6, 11, 8
8, 8398, Control_c, 6, 11, 5
8, 8399, Control_c, 6, 11, 3
8, 8400, Note_off_c, 6, 63, 64
8, 8400, Control_c, 6, 11, 127
8, 8400, Note_on_c, 6, 63, 64
8, 8401, Control_c, 6, 11, 124
8, 8402, Control_c, 6, 11, 122
8, 8403, Control_c, 6, 11, 119
8, 8404, Control_c, 6, 11, 116
8, 8405, Control_c, 6, 11, 114
8, 8406, Control_c, 6, 11, 111
8, 8407, Control_c, 6, 11, 108
8, 8408, Control_c, 6, 11, 106
8, 8409, Control_c, 6, 11, 103
8, 8410, Control_c, 6, 11, 101
8, 8411, Control_c, 6, 11, 98
8, 8412, Control_c, 6, 11, 95
8, 8413, Control_c, 6, 11, 93
8, 8414, Control_c, 6, 11, 90
8, 8415, Control_c, 6, 11, 87
8, 8416, Control_c, 6, 11, 85
8, 8417, Control_c, 6, 11, 82
8, 8418, Control_c, 6, 11, 79
8, 8419, Control_c, 6, 11, 77
8, 8420, Control_c, 6, 11, 74
8, 8421, Control_c, 6, 11, 71
8, 8422, Control_c, 6, 11, 69
8, 8423, Control_c, 6, 11, 66
8, 8424, Control_c, 6, 11, 64
8, 8425, Control_c, 6, 11, 61
8, 8426, Control_c, 6, 11, 58
8, 8427, Control_c, 6, 11, 56
8, 8428, Control_c, 6, 11, 53
8, 8429, Control_c, 6, 11, 50
8, 8430, Control_c, 6, 11, 48
8, 8431, Control_c, 6, 11, 45
8, 8432, Control_c, 6, 11, 42
8, 8433, Control_c, 6, 11, 40
8, 8434, Control_c, 6, 11, 37
8, 8435, Control_c, 6, 11, 34
8, 8436, Control_c, 6, 11, 32
8, 8437, Control_c, 6, 11, 29
8, 8438, Control_c, 6, 11, 26
8, 8439, Control_c, 6, 11, 24
8, 8440, Control_c, 6, 11, 21
8, 8441, Control_c, 6, 11, 19
8, 8442, Control_c, 6, 11, 16
8, 8443, Control_c, 6, 11, 13
8, 8444, Control_c, 6, 11, 11
8, 8445, Control_c, 6, 11, 8
8, 8446, Control_c, 6, 11, 5
8, 8447, Control_c, 6, 11, 3
8, 8448, Note_off_c, 6, 63, 64
8, 8448, Control_c, 6, 11, 127
8, 8448, Note_on_c, 6, 33, 64
8, 8449, Control_c, 6, 11, 124
8, 8450, Control_c, 6, 11, 122
8, 8451, Control_c, 6, 11, 119
8, 8452, Control_c, 6, 11, 116
8, 8453, Control_c, 6, 11, 114
8, 8454, Control_c, 6, 11, 111
8, 8455, Control_c, 6, 11, 108
8, 8456, Control_c, 6, 11, 106
8, 8457, Control_c, 6, 11, 103
8, 8458, Control_c, 6, 11, 101
8, 8459, Control_c, 6, 11, 98
8, 8460, Control_c, 6, 11, 95
8, 8461, Control_c, 6, 11, 93
8, 8462, Control_c, 6, 11, 90
8, 8463, Control_c, 6, 11, 87
8, 8464, Control_c, 6, 11, 85
8, 8465, Control_c, 6, 11, 82
8, 8466, Control_c, 6, 11, 79
8, 8467, Control_c, 6, 11, 77
8, 8468, Control_c, 6, 11, 74
8, 8469, Control_c, 6, 11, 71
8, 8470, Control_c, 6, 11, 69
8, 8471, Control_c, 6, 11, 66
8, 8472, Control_c, 6, 11, 64
8, 8473, Control_c, 6, 11, 61
8, 8474, Control_c, 6, 11, 58
8, 8475, Control_c, 6, 11, 56
8, 8476, Control_c, 6, 11, 53
8, 8477, Control_c, 6, 11, 50
8, 8478, Control_c, 6, 11, 48
8, 8479, Control_c, 6, 11, 45
8, 8480, Control_c, 6, 11, 42
8, 8481, Control_c, 6, 11, 40
8, 8482, Control_c, 6, 11, 37
8, 8483, Control_c, 6, 11, 34
8, 8484, Control_c, 6, 11, 32
8, 8485, Control_c, 6, 11, 29
8, 8486, Control_c, 6, 11, 26
8, 8487, Control_c, 6, 11, 24
8, 8488, Control_c, 6, 11, 21
8, 8489, Control_c, 6, 11, 19
8, 8490, Control_c, 6, 11, 16
8, 8491, Control_c, 6, 11, 13
8, 8492, Control_c, 6, 11, 11
8, 8493, Control_c, 6, 11, 8
8, 8494, Control_c, 6, 11, 5
8, 8495, Control_c, 6, 11, 3
8, 8496, Note_off_c, 6, 33, 64
8, 8496, Control_c, 6, 11, 127
8, 8496, Note_on_c, 6, 93, 64
8, 8497, Control_c, 6, 11, 124
8, 8498, Control_c, 6, 11, 122
8, 8499, Control_c, 6, 11, 119
8, 8500, Control_c, 6, 11, 116
8, 8501, Control_c, 6, 11, 114
8, 8502, Control_c, 6, 11, 111
8, 8503, Control_c, 6, 11, 108
8, 8504, Control_c, 6, 11, 106
8, 8505, Control_c, 6, 11, 103
8, 8506, Control_c, 6, 11, 101
8, 8507, Control_c, 6, 11, 98
8, 8508, Control_c, 6, 11, 95
8, 8509, Control_c, 6, 11, 93
8, 8510, Control_c, 6, 11, 90
8, 8511, Control_c, 6, 11, 87
8, 8512, Control_c, 6, 11, 85
8, 8513, Control_c, 6, 11, 82
8, 8514, Control_c, 6, 11, 79
8, 8515, Control_c, 6, 11, 77
8, 8516, Control_c, 6, 11, 74
8, 8517, Control_c, 6, 11, 71
8, 8518, Control_c, 6, 11, 69
8, 8519, Control_c, 6, 11, 66
8, 8520, Control_c, 6, 11, 64
8, 8521, Control_c, 6, 11, 61
8, 8522, Control_c, 6, 11, 58
8, 8523, Control_c, 6, 11, 56
8, 8524, Control_c, 6, 11, 53
8, 8525, Control_c, 6, 11, 50
8, 8526, Control_c, 6, 11, 48
8, 8527, Control_c, 6, 11, 45
8, 8528, Control_c, 6, 11, 42
8, 8529, Control_c, 6, 11, 40
8, 8530, Control_c, 6, 11, 37
8, 8531, Control_c, 6, 11, 34
8, 8532, Control_c, 6, 11, 32
8, 8533, Control_c, 6, 11, 29
8, 8534, Control_c, 6, 11, 26
8, 8535, Control_c, 6, 11, 24
8, 8536, Control_c, 6, 11, 21
8, 8537, Control_c, 6, 11, 19
8, 8538, Control_c, 6, 11, 16
8, 8539, Control_c, 6, 11, 13
8, 8540, Control_c, 6, 11, 11
8, 8541, Control_c, 6, 11, 8
8, 8542, Control_c, 6, 11, 5
8, 8543, Control_c, 6, 11, 3
8, 8544, Note_off_c, 6, 93, 64
8, 8544, Control_c, 6, 11, 127
8, 8544, Note_on_c, 6, 63, 64
8, 8545, Control_c, 6, 11, 124
8, 8546, Control_c, 6, 11, 122
8, 8547, Control_c, 6, 11, 119
8, 8548, Control_c, 6, 11, 116
8, 8549, Control_c, 6, 11, 114
8, 8550, Control_c, 6, 11, 111
8, 8551, Control_c, 6, 11, 108
8, 8552, Control_c, 6, 11, 106
8, 8553, Control_c, 6, 11, 103
8, 8554, Control_c, 6, 11, 101
8, 8555, Control_c, 6, 11, 98
8, 8556, Control_c, 6, 11, 95
8, 8557, Control_c, 6, 11, 93
8, 8558, Control_c, 6, 11, 90
8, 8559, Control_c, 6, 11, 87
8, 8560, Control_c, 6, 11, 85
8, 8561, Control_c, 6, 11, 82
8, 8562, Control_c, 6, 11, 79
8, 8563, Control_c, 6, 11, 77
8, 8564, Control_c, 6, 11, 74
8, 8565, Control_c, 6, 11, 71
8, 8566, Control_c, 6, 11, 69
8, 8567, Control_c, 6, 11, 66
8, 8568, Control_c, 6, 11, 64
8, 8569, Control_c, 6, 11, 61
8, 8570, Control_c, 6, 11, 58
8, 8571, Control_c, 6, 11, 56
8, 8572, Control_c, 6, 11, 53
8, 8573, Control_c, 6, 11, 50
8, 8574, Control_c, 6, 11, 48
8, 8575, Control_c, 6, 11, 45
8, 8576, Control_c, 6, 11, 42
8, 8577, Control_c, 6, 11, 40
8, 8578, Control_c, 6, 11, 37
8, 8579, Control_c, 6, 11, 34
8, 8580, Control_c, 6, 11, 32
8, 8581, Control_c, 6, 11, 29
8, 8582, Control_c, 6, 11, 26
8, 8583, Control_c, 6, 11, 24
8, 8584, Control_c, 6, 11, 21
8, 8585, Control_c, 6, 11, 19
8, 8586, Control_c, 6, 11, 16
8, 8587, Control_c, 6, 11, 13
8, 8588, Control_c, 6, 11, 11
8, 8589, Control_c, 6, 11, 8
8, 8590, Control_c, 6, 11, 5
8, 8591, Control_c, 6, 11, 3
8, 8592, Note_off_c, 6, 63, 64
8, 8592, Control_c, 6, 11, 127
8, 8592, Note_on_c, 6, 93, 64
8, 8593, Control_c, 6, 11, 124
8, 8594, Control_c, 6, 11, 122
8, 8595, Control_c, 6, 11, 119
8, 8596, Control_c, 6, 11, 116
8, 8597, Control_c, 6, 11, 114
8, 8598, Control_c, 6, 11, 111
8, 8599, Control_c, 6, 11, 108
8, 8600, Control_c, 6, 11, 106
8, 8601, Control_c, 6, 11, 103
8, 8602, Control_c, 6, 11, 101
8, 8603, Control_c, 6, 11, 98
8, 8604, Control_c, 6, 11, 95
8, 8605, Control_c, 6, 11, 93
8, 8606, Control_c, 6, 11, 90
8, 8607, Control_c, 6, 11, 87
8, 8608, Control_c, 6, 11, 85
8, 8609, Control_c, 6, 11, 82
8, 8610, Control_c, 6, 11, 79
8, 8611, Control_c, 6, 11, 77
8, 8612, Control_c, 6, 11, 74
8, 8613, Control_c, 6, 11, 71
8, 8614, Control_c, 6, 11, 69
8, 8615, Control_c, 6, 11, 66
8, 8616, Control_c, 6, 11, 64
8, 8617, Control_c, 6, 11, 61
8, 8618, Control_c, 6, 11, 58
8, 8619, Control_c, 6, 11, 56
8, 8620, Control_c, 6, 11, 53
8, 8621, Control_c, 6, 11, 50
8, 8622, Control_c, 6, 11, 48
8, 8623, Control_c, 6, 11, 45
8, 8624, Control_c, 6, 11, 42
8, 8625, Control_c, 6, 11, 40
8, 8626, Control_c, 6, 11, 37
8, 8627, Control_c, 6, 11, 34
8, 8628, Control_c, 6, 11, 32
8, 8629, Control_c, 6, 11, 29
8, 8630, Control_c, 6, 11, 26
8, 8631, Control_c, 6, 11, 24
8, 8632, Control_c, 6, 11, 21
8, 8633, Control_c, 6, 11, 19
8, 8634, Control_c, 6, 11, 16
8, 8635, Control_c, 6, 11, 13
8, 8636, Control_c, 6, 11, 11
8, 8637, Control_c, 6, 11, 8
8, 8638, Control_c, 6, 11, 5
8, 8639, Control_c, 6, 11, 3
8, 8640, Note_off_c, 6, 93, 64
8, 8640, Control_c, 6, 11, 127
8, 8640, Note_on_c, 6, 33, 64
8, 8641, Control_c, 6, 11, 124
8, 8642, Control_c, 6, 11, 122
8, 8643, Control_c, 6, 11, 119
8, 8644, Control_c, 6, 11, 116
8, 8645, Control_c, 6, 11, 114
8, 8646, Control_c, 6, 11, 111
8, 8647, Control_c, 6, 11, 108
8, 8648, Control_c, 6, 11, 106
8, 8649, Control_c, 6, 11, 103
8, 8650, Control_c, 6, 11, 101
8, 8651, Control_c, 6, 11, 98
8, 8652, Control_c, 6, 11, 95
8, 8653, Control_c, 6, 11, 93
8, 8654, Control_c, 6, 11, 90
8, 8655, Control_c, 6, 11, 87
8, 8656, Control_c, 6, 11, 85
8, 8657, Control_c, 6, 11, 82
8, 8658, Control_c, 6, 11, 79
8, 8659, Control_c, 6, 11, 77
8, 8660, Control_c, 6, 11, 74
8, 8661, Control_c, 6, 11, 71
8, 8662, Control_c, 6, 11, 69
8, 8663, Control_c, 6, 11, 66
8, 8664, Control_c, 6, 11, 64
8, 8665, Control_c, 6, 11, 61
8, 8666, Control_c, 6, 11, 58
8, 8667, Control_c, 6, 11, 56
8, 8668, Control_c, 6, 11, 53
8, 8669, Control_c, 6, 11, 50
8, 8670, Control_c, 6, 11, 48
8, 8671, Control_c, 6, 11, 45
8, 8672, Control_c, 6, 11, 42
8, 8673, Control_c, 6, 11, 40
8, 8674, Control_c, 6, 11, 37
8, 8675, Control_c, 6, 11, 34
8, 8676, Control_c, 6, 11, 32
8, 8677, Control_c, 6, 11, 29
8, 8678, Control_c, 6, 11, 26
8, 8679, Control_c, 6, 11, 24
8, 8680, Control_c, 6, 11, 21
8, 8681, Control_c, 6, 11, 19
8, 8682, Control_c, 6, 11, 16
8, 8683, Control_c, 6, 11, 13
8, 8684, Control_c, 6, 11, 11
8, 8685, Control_c, 6, 11, 8
8, 8686, Control_c, 6, 11, 5
8, 8687, Control_c, 6, 11, 3
8, 8688, Note_off_c, 6, 33, 64
8, 8688, Control_c, 6, 11, 127
8, 8688, Note_on_c, 6, 93, 64
8, 8689, Control_c, 6, 11, 124
8, 8690, Control_c, 6, 11, 122
8, 8691, Control_c, 6, 11, 119
8, 8692, Control_c, 6, 11, 116
8, 8693, Control_c, 6, 11, 114
8, 8694, Control_c, 6, 11, 111
8, 8695, Control_c, 6, 11, 108
8, 8696, Control_c, 6, 11, 106
8, 8697, Control_c, 6, 11, 103
8, 8698, Control_c, 6, 11, 101
8, 8699, Control_c, 6, 11, 98
8, 8700, Control_c, 6, 11, 95
8, 8701, Control_c, 6, 11, 93
8, 8702, Control_c, 6, 11, 90
8, 8703, Control_c, 6, 11, 87
8, 8704, Control_c, 6, 11, 85
8, 8705, Control_c, 6, 11, 82
8, 8706, Control_c, 6, 11, 79
8, 8707, Control_c, 6, 11, 77
8, 8708, Control_c, 6, 11, 74
8, 8709, Control_c, 6, 11, 71
8, 8710, Control_c, 6, 11, 69
8, 8711, Control_c, 6, 11, 66
8, 8712, Control_c, 6, 11, 64
8, 8713, Control_c, 6, 11, 61
8, 8714, Control_c, 6, 11, 58
8, 8715, Control_c, 6, 11, 56
8, 8716, Control_c, 6, 11, 53
8, 8717, Control_c, 6, 11, 50
8, 8718, Control_c, 6, 11, 48
8, 8719, Control_c, 6, 11, 45
8, 8720, Control_c, 6, 11, 42
8, 8721, Control_c, 6, 11, 40
8, 8722, Control_c, 6, 11, 37
8, 8723, Control_c, 6, 11, 34
8, 8724, Control_c, 6, 11, 32
8, 8725, Control_c, 6, 11, 29
8, 8726, Control_c, 6, 11, 26
8, 8727, Control_c, 6, 11, 24
8, 8728, Control_c, 6, 11, 21
8, 8729, Control_c, 6, 11, 19
8, 8730, Control_c, 6, 11, 16
8, 8731, Control_c, 6, 11, 13
8, 8732, Control_c, 6, 11, 11
8, 8733, Control_c, 6, 11, 8
8, 8734, Control_c, 6, 11, 5
8, 8735, Control_c, 6, 11, 3
8, 8736, Note_off_c, 6, 93, 64
8, 8736, Control_c, 6, 11, 127
8, 8736, Note_on_c, 6, 63, 64
8, 8737, Control_c, 6, 11, 124
8, 8738, Control_c, 6, 11, 122
8, 8739, Control_c, 6, 11, 119
8, 8740, Control_c, 6, 11, 116
8, 8741, Control_c, 6, 11, 114
8, 8742, Control_c, 6, 11, 111
8, 8743, Control_c, 6, 11, 108
8, 8744, Control_c, 6, 11, 106
8, 8745, Control_c, 6, 11, 103
8, 8746, Control_c, 6, 11, 101
8, 8747, Control_c, 6, 11, 98
8, 8748, Control_c, 6, 11, 95
8, 8749, Control_c, 6, 11, 93
8, 8750, Control_c, 6, 11, 90
8, 8751, Control_c, 6, 11, 87
8, 8752, Control_c, 6, 11, 85
8, 8753, Control_c, 6, 11, 82
8, 8754, Control_c, 6, 11, 79
8, 8755, Control_c, 6, 11, 77
8, 8756, Control_c, 6, 11, 74
8, 8757, Control_c, 6, 11, 71
8, 8758, Control_c, 6, 11, 69
8, 8759, Control_c, 6, 11, 66
8, 8760, Control_c, 6, 11, 64
8, 8761, Control_c, 6, 11, 61
8, 8762, Control_c, 6, 11, 58
8, 8763, Control_c, 6, 11, 56
8, 8764, Control_c, 6, 11, 53
8, 8765, Control_c, 6, 11, 50
8, 8766, Control_c, 6, 11, 48
8, 8767, Control_c, 6, 11, 45
8, 8768, Control_c, 6, 11, 42
8, 8769, Control_c, 6, 11, 40
8, 8770, Control_c, 6, 11, 37
8, 8771, Control_c, 6, 11, 34
8, 8772, Control_c, 6, 11, 32
8, 8773, Control_c, 6, 11, 29
8, 8774, Control_c, 6, 11, 26
8, 8775, Control_c, 6, 11, 24
8, 8776, Control_c, 6, 11, 21
8, 8777, Control_c, 6, 11, 19
8, 8778, Control_c, 6, 11, 16
8, 8779, Control_c, 6, 11, 13
8, 8780, Control_c, 6, 11, 11
8, 8781, Control_c, 6, 11, 8
8, 8782, Control_c, 6, 11, 5
8, 8783, Control_c, 6, 11, 3
8, 8784, Note_off_c, 6, 63, 64
8, 8784, Control_c, 6, 11, 127
8, 8784, Note_on_c, 6, 93, 64
8, 8785, Control_c, 6, 11, 124
8, 8786, Control_c, 6, 11, 122
8, 8787, Control_c, 6, 11, 119
8, 8788, Control_c, 6, 11, 116
8, 8789, Control_c, 6, 11, 114
8, 8790, Control_c, 6, 11, 111
8, 8791, Control_c, 6, 11, 108
8, 8792, Control_c, 6, 11, 106
8, 8793, Control_c, 6, 11, 103
8, 8794, Control_c, 6, 11, 101
8, 8795, Control_c, 6, 11, 98
8, 8796, Control_c, 6, 11, 95
8, 8797, Control_c, 6, 11, 93
8, 8798, Control_c, 6, 11, 90
8, 8799, Control_c, 6, 11, 87
8, 8800, Control_c, 6, 11, 85
8, 8801, Control_c, 6, 11, 82
8, 8802, Control_c, 6, 11, 79
8, 8803, Control_c, 6, 11, 77
8, 8804, Control_c, 6, 11, 74
8, 8805, Control_c, 6, 11, 71
8, 8806, Control_c, 6, 11, 69
8, 8807, Control_c, 6, 11, 66
8, 8808, Control_c, 6, 11, 64
8, 8809, Control_c, 6, 11, 61
8, 8810, Control_c, 6, 11, 58
8, 8811, Control_c, 6, 11, 56
8, 8812, Control_c, 6, 11, 53
8, 8813, Control_c, 6, 11, 50
8, 8814, Control_c, 6, 11, 48
8, 8815, Control_c, 6, 11, 45
8, 8816, Control_c, 6, 11, 42
8, 8817, Control_c, 6, 11, 40
8, 8818, Control_c, 6, 11, 37
8, 8819, Control_c, 6, 11, 34
8, 8820, Control_c, 6, 11, 32
8, 8821, Control_c, 6, 11, 29
8, 8822, Control_c, 6, 11, 26
8, 8823, Control_c, 6, 11, 24
8, 8824, Control_c, 6, 11, 21
8, 8825, Control_c, 6, 11, 19
8, 8826, Control_c, 6, 11, 16
8, 8827, Control_c, 6, 11, 13
8, 8828, Control_c, 6, 11, 11
8, 8829, Control_c, 6, 11, 8
8, 8830, Control_c, 6, 11, 5
8, 8831, Control_c, 6, 11, 3
8, 8832, Note_off_c, 6, 93, 64
8, 8832, Control_c, 6, 11, 127
8, 8832, Note_on_c, 6, 33, 64
8, 8833, Control_c, 6, 11, 124
8, 8834, Control_c, 6, 11, 122
8, 8835, Control_c, 6, 11, 119
8, 8836, Control_c, 6, 11, 116
8, 8837, Control_c, 6, 11, 114
8, 8838, Control_c, 6, 11, 111
8, 8839, Control_c, 6, 11, 108
8, 8840, Control_c, 6, 11, 106
8, 8841, Control_c, 6, 11, 103
8, 8842, Control_c, 6, 11, 101
8, 8843, Control_c, 6, 11, 98
8, 8844, Control_c, 6, 11, 95
8, 8845, Control_c, 6, 11, 93
8, 8846, Control_c, 6, 11, 90
8, 8847, Control_c, 6, 11, 87
8, 8848, Control_c, 6, 11, 85
8, 8849, Control_c, 6, 11, 82
8, 8850, Control_c, 6, 11, 79
8, 8851, Control_c, 6, 11, 77
8, 8852, Control_c, 6, 11, 74
8, 8853, Control_c, 6, 11, 71
8, 8854, Control_c, 6, 11, 69
8, 8855, Control_c, 6, 11, 66
8, 8856, Control_c, 6, 11, 64
8, 8857, Control_c, 6, 11, 61
8, 8858, Control_c, 6, 11, 58
8, 8859, Control_c, 6, 11, 56
8, 8860, Control_c, 6, 11, 53
8, 8861, Control_c, 6, 11, 50
8, 8862, Control_c, 6, 11, 48
8, 8863, Control_c, 6, 11, 45
8, 8864, Control_c, 6, 11, 42
8, 8865, Control_c, 6, 11, 40
8, 8866, Control_c, 6, 11, 37
8, 8867, Control_c, 6, 11, 34
8, 8868, Control_c, 6, 11, 32
8, 8869, Control_c, 6, 11, 29
8, 8870, Control_c, 6, 11, 26
8, 8871, Control_c, 6, 11, 24
8, 8872, Control_c, 6, 11, 21
8, 8873, Control_c, 6, 11, 19
8, 8874, Control_c, 6, 11, 16
8, 8875, Control_c, 6, 11, 13
8, 8876, Control_c, 6, 11, 11
8, 8877, Control_c, 6, 11, 8
8, 8878, Control_c, 6, 11, 5
8, 8879, Control_c, 6, 11, 3
8, 8880, Note_off_c, 6, 33, 64
8, 8880, Control_c, 6, 11, 127
8, 8880, Note_on_c, 6, 93, 64
8, 8881, Control_c, 6, 11, 124
8, 8882, Control_c, 6, 11, 122
8, 8883, Control_c, 6, 11, 119
8, 8884, Control_c, 6, 11, 116
8, 8885, Control_c, 6, 11, 114
8, 8886, Control_c, 6, 11, 111
8, 8887, Control_c, 6, 11, 108
8, 8888, Control_c, 6, 11, 106
8, 8889, Control_c, 6, 11, 103
8, 8890, Control_c, 6, 11, 101
8, 8891, Control_c, 6, 11, 98
8, 8892, Control_c, 6, 11, 95
8, 8893, Control_c, 6, 11, 93
8, 8894, Control_c, 6, 11, 90
8, 8895, Control_c, 6, 11, 87
8, 8896, Control_c, 6, 11, 85
8, 8897, Control_c, 6, 11, 82
8, 8898, Control_c, 6, 11, 79
8, 8899, Control_c, 6, 11, 77
8, 8900, Control_c, 6, 11, 74
8, 8901, Control_c, 6, 11, 71
8, 8902, Control_c, 6, 11, 69
8, 8903, Control_c, 6, 11, 66
8, 8904, Control_c, 6, 11, 64
8, 8905, Control_c, 6, 11, 61
8, 8906, Control_c, 6, 11, 58
8, 8907, Control_c, 6, 11, 56
8, 8908, Control_c, 6, 11, 53
8, 8909, Control_c, 6, 11, 50
8, 8910, Control_c, 6, 11, 48
8, 8911, Control_c, 6, 11, 45
8, 8912, Control_c, 6, 11, 42
8, 8913, Control_c, 6, 11, 40
8, 8914, Control_c, 6, 11, 37
8, 8915, Control_c, 6, 11, 34
8, 8916, Control_c, 6, 11, 32
8, 8917, Control_c, 6, 11, 29
8, 8918, Control_c, 6, 11, 26
8, 8919, Control_c, 6, 11, 24
8, 8920, Control_c, 6, 11, 21
8, 8921, Control_c, 6, 11, 19
8, 8922, Control_c, 6, 11, 16
8, 8923, Control_c, 6, 11, 13
8, 8924, Control_c, 6, 11, 11
8, 8925, Control_c, 6, 11, 8
8, 8926, Control_c, 6, 11, 5
8, 8927, Control_c, 6, 11, 3
8, 8928, Note_off_c, 6, 93, 64
8, 8928, Control_c, 6, 11, 127
8, 8928, Note_on_c, 6, 63, 64
8, 8929, Control_c, 6, 11, 124
8, 8930, Control_c, 6, 11, 122
8, 8931, Control_c, 6, 11, 119
8, 8932, Control_c, 6, 11, 116
8, 8933, Control_c, 6, 11, 114
8, 8934, Control_c, 6, 11, 111
8, 8935, Control_c, 6, 11, 108
8, 8936, Control_c, 6, 11, 106
8, 8937, Control_c, 6, 11, 103
8, 8938, Control_c, 6, 11, 101
8, 8939, Control_c, 6, 11, 98
8, 8940, Control_c, 6, 11, 95
8, 8941, Control_c, 6, 11, 93
8, 8942, Control_c, 6, 11, 90
8, 8943, Control_c, 6, 11, 87
8, 8944, Control_c, 6, 11, 85
8, 8945, Control_c, 6, 11, 82
8, 8946, Control_c, 6, 11, 79
8, 8947, Control_c, 6, 11, 77
8, 8948, Control_c, 6, 11, 74
8, 8949, Control_c, 6, 11, 71
8, 8950, Control_c, 6, 11, 69
8, 8951, Control_c, 6, 11, 66
8, 8952, Control_c, 6, 11, 64
8, 8953, Control_c, 6, 11, 61
8, 8954, Control_c, 6, 11, 58
8, 8955, Control_c, 6, 11, 56
8, 8956, Control_c, 6, 11, 53
8, 8957, Control_c, 6, 11, 50
8, 8958, Control_c, 6, 11, 48
8, 8959, Control_c, 6, 11, 45
8, 8960, Control_c, 6, 11, 42
8, 8961, Control_c, 6, 11, 40
8, 8962, Control_c, 6, 11, 37
8, 8963, Control_c, 6, 11, 34
8, 8964, Control_c, 6, 11, 32
8, 8965, Control_c, 6, 11, 29
8, 8966, Control_c, 6, 11, 26
8, 8967, Control_c, 6, 11, 24
8, 8968, Control_c, 6, 11, 21
8, 8969, Control_c, 6, 11, 19
8, 8970, Control_c, 6, 11, 16
8, 8971, Control_c, 6, 11, 13
8, 8972, Control_c, 6, 11, 11
8, 8973, Control_c, 6, 11, 8
8, 8974, Control_c, 6, 11, 5
8, 8975, Control_c, 6, 11, 3
8, 8976, Note_off_c, 6, 63, 64
8, 8976, Control_c, 6, 11, 127
8, 8976, Note_on_c, 6, 93, 64
8, 8977, Control_c, 6, 11, 124
8, 8978, Control_c, 6, 11, 122
8, 8979, Control_c, 6, 11, 119
8, 8980, Control_c, 6, 11, 116
8, 8981, Control_c, 6, 11, 114
8, 8982, Control_c, 6, 11, 111
8, 8983, Control_c, 6, 11, 108
8, 8984, Control_c, 6, 11, 106
8, 8985, Control_c, 6, 11, 103
8, 8986, Control_c, 6, 11, 101
8, 8987, Control_c, 6, 11, 98
8, 8988, Control_c, 6, 11, 95
8, 8989, Control_c, 6, 11, 93
8, 8990, Control_c, 6, 11, 90
8, 8991, Control_c, 6, 11, 87
8, 8992, Control_c, 6, 11, 85
8, 8993, Control_c, 6, 11, 82
8, 8994, Control_c, 6, 11, 79
8, 8995, Control_c, 6, 11, 77
8, 8996, Control_c, 6, 11, 74
8, 8997, Control_c, 6, 11, 71
8, 8998, Control_c, 6, 11, 69
8, 8999, Control_c, 6, 11, 66
8, 9000, Control_c, 6, 11, 64
8, 9001, Control_c, 6, 11, 61
8, 9002, Control_c, 6, 11, 58
8, 9003, Control_c, 6, 11, 56
8, 9004, Control_c, 6, 11, 53
8, 9005, Control_c, 6, 11, 50
8, 9006, Control_c, 6, 11, 48
8, 9007, Control_c, 6, 11, 45
8, 9008, Control_c, 6, 11, 42
8, 9009, Control_c, 6, 11, 40
8, 9010, Control_c, 6, 11, 37
8, 9011, Control_c, 6, 11, 34
8, 9012, Control_c, 6, 11, 32
8, 9013, Control_c, 6, 11, 29
8, 9014, Control_c, 6, 11, 26
8, 9015, Control_c, 6, 11, 24
8, 9016, Control_c, 6, 11, 21
8, 9017, Control_c, 6, 11, 19
8, 9018, Control_c, 6, 11, 16
8, 9019, Control_c, 6, 11, 13
8, 9020, Control_c, 6, 11, 11
8, 9021, Control_c, 6, 11, 8
8, 9022, Control_c, 6, 11, 5
8, 9023, Control_c, 6, 11, 3
8, 9024, Note_off_c, 6, 93, 64
8, 9024, Control_c, 6, 11, 127
8, 9024, Note_on_c, 6, 33, 64
8, 9025, Control_c, 6, 11, 124
8, 9026, Control_c, 6, 11, 122
8, 9027, Control_c, 6, 11, 119
8, 9028, Control_c, 6, 11, 116
8, 9029, Control_c, 6, 11, 114
8, 9030, Control_c, 6, 11, 111
8, 9031, Control_c, 6, 11, 108
8, 9032, Control_c, 6, 11, 106
8, 9033, Control_c, 6, 11, 103
8, 9034, Control_c, 6, 11, 101
8, 9035, Control_c, 6, 11, 98
8, 9036, Control_c, 6, 11, 95
8, 9037, Control_c, 6, 11, 93
8, 9038, Control_c, 6, 11, 90
8, 9039, Control_c, 6, 11, 87
8, 9040, Control_c, 6, 11, 85
8, 9041, Control_c, 6, 11, 82
8, 9042, Control_c, 6, 11, 79
8, 9043, Control_c, 6, 11, 77
8, 9044, Control_c, 6, 11, 74
8, 9045, Control_c, 6, 11, 71
8, 9046, Control_c, 6, 11, 69
8, 9047, Control_c, 6, 11, 66
8, 9048, Control_c, 6, 11, 64
8, 9049, Control_c, 6, 11, 61
8, 9050, Control_c, 6, 11, 58
8, 9051, Control_c, 6, 11, 56
8, 9052, Control_c, 6, 11, 53
8, 9053, Control_c, 6, 11, 50
8, 9054, Control_c, 6, 11, 48
8, 9055, Control_c, 6, 11, 45
8, 9056, Control_c, 6, 11, 42
8, 9057, Control_c, 6, 11, 40
8, 9058, Control_c, 6, 11, 37
8, 9059, Control_c, 6, 11, 34
8, 9060, Control_c, 6, 11, 32
8, 9061, Control_c, 6, 11, 29
8, 9062, Control_c, 6, 11, 26
8, 9063, Control_c, 6, 11, 24
8, 9064, Control_c, 6, 11, 21
8, 9065, Control_c, 6, 11, 19
8, 9066, Control_c, 6, 11, 16
8, 9067, Control_c, 6, 11, 13
8, 9068, Control_c, 6, 11, 11
8, 9069, Control_c, 6, 11, 8
8, 9070, Control_c, 6, 11, 5
8, 9071, Control_c, 6, 11, 3
8, 9072, Note_off_c, 6, 33, 64
8, 9072, Control_c, 6, 11, 127
8, 9072, Note_on_c, 6, 93, 64
8, 9073, Control_c, 6, 11, 124
8, 9074, Control_c, 6, 11, 122
8, 9075, Control_c, 6, 11, 119
8, 9076, Control_c, 6, 11, 116
8, 9077, Control_c, 6, 11, 114
8, 9078, Control_c, 6, 11, 111
8, 9079, Control_c, 6, 11, 108
8, 9080, Control_c, 6, 11, 106
8, 9081, Control_c, 6, 11, 103
8, 9082, Control_c, 6, 11, 101
8, 9083, Control_c, 6, 11, 98
8, 9084, Control_c, 6, 11, 95
8, 9085, Control_c, 6, 11, 93
8, 9086, Control_c, 6, 11, 90
8, 9087, Control_c, 6, 11, 87
8, 9088, Control_c, 6, 11, 85
8, 9089, Control_c, 6, 11, 82
8, 9090, Control_c, 6, 11, 79
8, 9091, Control_c, 6, 11, 77
8, 9092, Control_c, 6, 11, 74
8, 9093, Control_c, 6, 11, 71
8, 9094, Control_c, 6, 11, 69
8, 9095, Control_c, 6, 11, 66
8, 9096, Control_c, 6, 11, 64
8, 9097, Control_c, 6, 11, 61
8, 9098, Control_c, 6, 11, 58
8, 9099, Control_c, 6, 11, 56
8, 9100, Control_c, 6, 11, 53
8, 9101, Control_c, 6, 11, 50
8, 9102, Control_c, 6, 11, 48
8, 9103, Control_c, 6, 11, 45
8, 9104, Control_c, 6, 11, 42
8, 9105, Control_c, 6, 11, 40
8, 9106, Control_c, 6, 11, 37
8, 9107, Control_c, 6, 11, 34
8, 9108, Control_c, 6, 11, 32
8, 9109, Control_c, 6, 11, 29
8, 9110, Control_c, 6, 11, 26
8, 9111, Control_c, 6, 11, 24
8, 9112, Control_c, 6, 11, 21
8, 9113, Control_c, 6, 11, 19
8, 9114, Control_c, 6, 11, 16
8, 9115, Control_c, 6, 11, 13
8, 9116, Control_c, 6, 11, 11
8, 9117, Control_c, 6, 11, 8
8, 9118, Control_c, 6, 11, 5
8, 9119, Control_c, 6, 11, 3
8, 9120, Note_off_c, 6, 93, 64
8, 9120, Control_c, 6, 11, 127
8, 9120, Note_on_c, 6, 63, 64
8, 9121, Control_c, 6, 11, 124
8, 9122, Control_c, 6, 11, 122
8, 9123, Control_c, 6, 11, 119
8, 9124, Control_c, 6, 11, 116
8, 9125, Control_c, 6, 11, 114
8, 9126, Control_c, 6, 11, 111
8, 9127, Control_c, 6, 11, 108
8, 9128, Control_c, 6, 11, 106
8, 9129, Control_c, 6, 11, 103
8, 9130, Control_c, 6, 11, 101
8, 9131, Control_c, 6, 11, 98
8, 9132, Control_c, 6, 11, 95
8, 9133, Control_c, 6, 11, 93
8, 9134, Control_c, 6, 11, 90
8, 9135, Control_c, 6, 11, 87
8, 9136, Control_c, 6, 11, 85
8, 9137, Control_c, 6, 11, 82
8, 9138, Control_c, 6, 11, 79
8, 9139, Control_c, 6, 11, 77
8, 9140, Control_c, 6, 11, 74
8, 9141, Control_c, 6, 11, 71
8, 9142, Control_c, 6, 11, 69
8, 9143, Control_c, 6, 11, 66
8, 9144, Control_c, 6, 11, 64
8, 9145, Control_c, 6, 11, 61
8, 9146, Control_c, 6, 11, 58
8, 9147, Control_c, 6, 11, 56
8, 9148, Control_c, 6, 11, 53
8, 9149, Control_c, 6, 11, 50
8, 9150, Control_c, 6, 11, 48
8, 9151, Control_c, 6, 11, 45
8, 9152, Control_c, 6, 11, 42
8, 9153, Control_c, 6, 11, 40
8, 9154, Control_c, 6, 11, 37
8, 9155, Control_c, 6, 11, 34
8, 9156, Control_c, 6, 11, 32
8, 9157, Control_c, 6, 11, 29
8, 9158, Control_c, 6, 11, 26
8, 9159, Control_c, 6, 11, 24
8, 9160, Control_c, 6, 11, 21
8, 9161, Control_c, 6, 11, 19
8, 9162, Control_c, 6, 11, 16
8, 9163, Control_c, 6, 11, 13
8, 9164, Control_c, 6, 11, 11
8, 9165, Control_c, 6, 11, 8
8, 9166, Control_c, 6, 11, 5
8, 9167, Control_c, 6, 11, 3
8, 9168, Note_off_c, 6, 63, 64
8, 9168, Control_c, 6, 11, 127
8, 9168, Note_on_c, 6, 63, 64
8, 9169, Control_c, 6, 11, 124
8, 9170, Control_c, 6, 11, 122
8, 9171, Control_c, 6, 11, 119
8, 9172, Control_c, 6, 11, 116
8, 9173, Control_c, 6, 11, 114
8, 9174, Control_c, 6, 11, 111
8, 9175, Control_c, 6, 11, 108
8, 9176, Control_c, 6, 11, 106
8, 9177, Control_c, 6, 11, 103
8, 9178, Control_c, 6, 11, 101
8, 9179, Control_c, 6, 11, 98
8, 9180, Control_c, 6, 11, 95
8, 9181, Control_c, 6, 11, 93
8, 9182, Control_c, 6, 11, 90
8, 9183, Control_c, 6, 11, 87
8, 9184, Control_c, 6, 11, 85
8, 9185, Control_c, 6, 11, 82
8, 9186, Control_c, 6, 11, 79
8, 9187, Control_c, 6, 11, 77
8, 9188, Control_c, 6, 11, 74
8, 9189, Control_c, 6, 11, 71
8, 9190, Control_c, 6, 11, 69
8, 9191, Control_c, 6, 11, 66
8, 9192, Control_c, 6, 11, 64
8, 9193, Control_c, 6, 11, 61
8, 9194, Control_c, 6, 11, 58
8, 9195, Control_c, 6, 11, 56
8, 9196, Control_c, 6, 11, 53
8, 9197, Control_c, 6, 11, 50
8, 9198, Control_c, 6, 11, 48
8, 9199, Control_c, 6, 11, 45
8, 9200, Control_c, 6, 11, 42
8, 9201, Control_c, 6, 11, 40
8, 9202, Control_c, 6, 11, 37
8, 9203, Control_c, 6, 11, 34
8, 9204, Control_c, 6, 11, 32
8, 9205, Control_c, 6, 11, 29
8, 9206, Control_c, 6, 11, 26
8, 9207, Control_c, 6, 11, 24
8, 9208, Control_c, 6, 11, 21
8, 9209, Control_c, 6, 11, 19
8, 9210, Control_c, 6, 11, 16
8, 9211, Control_c, 6, 11, 13
8, 9212, Control_c, 6, 11, 11
8, 9213, Control_c, 6, 11, 8
8, 9214, Control_c, 6, 11, 5
8, 9215, Control_c, 6, 11, 3
8, 9216, Note_off_c, 6, 63, 64
8, 9216, Control_c, 6, 11, 127
8, 9216, Note_on_c, 6, 33, 64
8, 9217, Control_c, 6, 11, 124
8, 9218, Control_c, 6, 11, 122
8, 9219, Control_c, 6, 11, 119
8, 9220, Control_c, 6, 11, 116
8, 9221, Control_c, 6, 11, 114
8, 9222, Control_c, 6, 11, 111
8, 9223, Control_c, 6, 11, 108
8, 9224, Control_c, 6, 11, 106
8, 9225, Control_c, 6, 11, 103
8, 9226, Control_c, 6, 11, 101
8, 9227, Control_c, 6, 11, 98
8, 9228, Control_c, 6, 11, 95
8, 9229, Control_c, 6, 11, 93
8, 9230, Control_c, 6, 11, 90
8, 9231, Control_c, 6, 11, 87
8, 9232, Control_c, 6, 11, 85
8, 9233, Control_c, 6, 11, 82
8, 9234, Control_c, 6, 11, 79
8, 9235, Control_c, 6, 11, 77
8, 9236, Control_c, 6, 11, 74
8, 9237, Control_c, 6, 11, 71
8, 9238, Control_c, 6, 11, 69
8, 9239, Control_c, 6, 11, 66
8, 9240, Control_c, 6, 11, 64
8, 9241, Control_c, 6, 11, 61
8, 9242, Control_c, 6, 11, 58
8, 9243, Control_c, 6, 11, 56
8, 9244, Control_c, 6, 11, 53
8, 9245, Control_c, 6, 11, 50
8, 9246, Control_c, 6, 11, 48
8, 9247, Control_c, 6, 11, 45
8, 9248, Control_c, 6, 11, 42
8, 9249, Control_c, 6, 11, 40
8, 9250, Control_c, 6, 11, 37
8, 9251, Control_c, 6, 11, 34
8, 9252, Control_c, 6, 11, 32
8, 9253, Control_c, 6, 11, 29
8, 9254, Control_c, 6, 11, 26
8, 9255, Control_c, 6, 11, 24
8, 9256, Control_c, 6, 11, 21
8, 9257, Control_c, 6, 11, 19
8, 9258, Control_c, 6, 11, 16
8, 9259, Control_c, 6, 11, 13
8, 9260, Control_c, 6, 11, 11
8, 9261, Control_c, 6, 11, 8
8, 9262, Control_c, 6, 11, 5
8, 9263, Control_c, 6, 11, 3
8, 9264, Note_off_c, 6, 33, 64
8, 9264, Control_c, 6, 11, 127
8, 9264, Note_on_c, 6, 93, 64
8, 9265, Control_c, 6, 11, 124
8, 9266, Control_c, 6, 11, 122
8, 9267, Control_c, 6, 11, 119
8, 9268, Control_c, 6, 11, 116
8, 9269, Control_c, 6, 11, 114
8, 9270, Control_c, 6, 11, 111
8, 9271, Control_c, 6, 11, 108
8, 9272, Control_c, 6, 11, 106
8, 9273, Control_c, 6, 11, 103
8, 9274, Control_c, 6, 11, 101
8, 9275, Control_c, 6, 11, 98
8, 9276, Control_c, 6, 11, 95
8, 9277, Control_c, 6, 11, 93
8, 9278, Control_c, 6, 11, 90
8, 9279, Control_c, 6, 11, 87
8, 9280, Control_c, 6, 11, 85
8, 9281, Control_c, 6, 11, 82
8, 9282, Control_c, 6, 11, 79
8, 9283, Control_c, 6, 11, 77
8, 9284, Control_c, 6, 11, 74
8, 9285, Control_c, 6, 11, 71
8, 9286, Control_c, 6, 11, 69
8, 9287, Control_c, 6, 11, 66
8, 9288, Control_c, 6, 11, 64
8, 9289, Control_c, 6, 11, 61
8, 9290, Control_c, 6, 11, 58
8, 9291, Control_c, 6, 11, 56
8, 9292, Control_c, 6, 11, 53
8, 9293, Control_c, 6, 11, 50
8, 9294, Control_c, 6, 11, 48
8, 9295, Control_c, 6, 11, 45
8, 9296, Control_c, 6, 11, 42
8, 9297, Control_c, 6, 11, 40
8, 9298, Control_c, 6, 11, 37
8, 9299, Control_c, 6, 11, 34
8, 9300, Control_c, 6, 11, 32
8, 9301, Control_c, 6, 11, 29
8, 9302, Control_c, 6, 11, 26
8, 9303, Control_c, 6, 11, 24
8, 9304, Control_c, 6, 11, 21
8, 9305, Control_c, 6, 11, 19
8, 9306, Control_c, 6, 11, 16
8, 9307, Control_c, 6, 11, 13
8, 9308, Control_c, 6, 11, 11
8, 9309, Control_c, 6, 11, 8
8, 9310, Control_c, 6, 11, 5
8, 9311, Control_c, 6, 11, 3
8, 9312, Note_off_c, 6, 93, 64
8, 9312, Control_c, 6, 11, 127
8, 9312, Note_on_c, 6, 63, 64
8, 9313, Control_c, 6, 11, 124
8, 9314, Control_c, 6, 11, 122
8, 9315, Control_c, 6, 11, 119
8, 9316, Control_c, 6, 11, 116
8, 9317, Control_c, 6, 11, 114
8, 9318, Control_c, 6, 11, 111
8, 9319, Control_c, 6, 11, 108
8, 9320, Control_c, 6, 11, 106
8, 9321, Control_c, 6, 11, 103
8, 9322, Control_c, 6, 11, 101
8, 9323, Control_c, 6, 11, 98
8, 9324, Control_c, 6, 11, 95
8, 9325, Control_c, 6, 11, 93
8, 9326, Control_c, 6, 11, 90
8, 9327, Control_c, 6, 11, 87
8, 9328, Control_c, 6, 11, 85
8, 9329, Control_c, 6, 11, 82
8, 9330, Control_c, 6, 11, 79
8, 9331, Control_c, 6, 11, 77
8, 9332, Control_c, 6, 11, 74
8, 9333, Control_c, 6, 11, 71
8, 9334, Control_c, 6, 11, 69
8, 9335, Control_c, 6, 11, 66
8, 9336, Control_c, 6, 11, 64
8, 9337, Control_c, 6, 11, 61
8, 9338, Control_c, 6, 11, 58
8, 9339, Control_c, 6, 11, 56
8, 9340, Control_c, 6, 11, 53
8, 9341, Control_c, 6, 11, 50
8, 9342, Control_c, 6, 11, 48
8, 9343, Control_c, 6, 11, 45
8, 9344, Control_c, 6, 11, 42
8, 9345, Control_c, 6, 11, 40
8, 9346, Control_c, 6, 11, 37
8, 9347, Control_c, 6, 11, 34
8, 9348, Control_c, 6, 11, 32
8, 9349, Control_c, 6, 11, 29
8, 9350, Control_c, 6, 11, 26
8, 9351, Control_c, 6, 11, 24
8, 9352, Control_c, 6, 11, 21
8, 9353, Control_c, 6, 11, 19
8, 9354, Control_c, 6, 11, 16
8, 9355, Control_c, 6, 11, 13
8, 9356, Control_c, 6, 11, 11
8, 9357, Control_c, 6, 11, 8
8, 9358, Control_c, 6, 11, 5
8, 9359, Control_c, 6, 11, 3
8, 9360, Note_off_c, 6, 63, 64
8, 9360, Control_c, 6, 11, 127
8, 9360, Note_on_c, 6, 93, 64
8, 9361, Control_c, 6, 11, 124
8, 9362, Control_c, 6, 11, 122
8, 9363, Control_c, 6, 11, 119
8, 9364, Control_c, 6, 11, 116
8, 9365, Control_c, 6, 11, 114
8, 9366, Control_c, 6, 11, 111
8, 9367, Control_c, 6, 11, 108
8, 9368, Control_c, 6, 11, 106
8, 9369, Control_c, 6, 11, 103
8, 9370, Control_c, 6, 11, 101
8, 9371, Control_c, 6, 11, 98
8, 9372, Control_c, 6, 11, 95
8, 9373, Control_c, 6, 11, 93
8, 9374, Control_c, 6, 11, 90
8, 9375, Control_c, 6, 11, 87
8, 9376, Control_c, 6, 11, 85
8, 9377, Control_c, 6, 11, 82
8, 9378, Control_c, 6, 11, 79
8, 9379, Control_c, 6, 11, 77
8, 9380, Control_c, 6, 11, 74
8, 9381, Control_c, 6, 11, 71
8, 9382, Control_c, 6, 11, 69
8, 9383, Control_c, 6, 11, 66
8, 9384, Control_c, 6, 11, 64
8, 9385, Control_c, 6, 11, 61
8, 9386, Control_c, 6, 11, 58
8, 9387, Control_c, 6, 11, 56
8, 9388, Control_c, 6, 11, 53
8, 9389, Control_c, 6, 11, 50
8, 9390, Control_c, 6, 11, 48
8, 9391, Control_c, 6, 11, 45
8, 9392, Control_c, 6, 11, 42
8, 9393, Control_c, 6, 11, 40
8, 9394, Control_c, 6, 11, 37
8, 9395, Control_c, 6, 11, 34
8, 9396, Control_c, 6, 11, 32
8, 9397, Control_c, 6, 11, 29
8, 9398, Control_c, 6, 11, 26
8, 9399, Control_c, 6, 11, 24
8, 9400, Control_c, 6, 11, 21
8, 9401, Control_c, 6, 11, 19
8, 9402, Control_c, 6, 11, 16
8, 9403, Control_c, 6, 11, 13
8, 9404, Control_c, 6, 11, 11
8, 9405, Control_c, 6, 11, 8
8, 9406, Control_c, 6, 11, 5
8, 9407, Control_c, 6, 11, 3
8, 9408, Note_off_c, 6, 93, 64
8, 9408, Control_c, 6, 11, 127
8, 9408, Note_on_c, 6, 33, 64
8, 9409, Control_c, 6, 11, 124
8, 9410, Control_c, 6, 11, 122
8, 9411, Control_c, 6, 11, 119
8, 9412, Control_c, 6, 11, 116
8, 9413, Control_c, 6, 11, 114
8, 9414, Control_c, 6, 11, 111
8, 9415, Control_c, 6, 11, 108
8, 9416, Control_c, 6, 11, 106
8, 9417, Control_c, 6, 11, 103
8, 9418, Control_c, 6, 11, 101
8, 9419, Control_c, 6, 11, 98
8, 9420, Control_c, 6, 11, 95
8, 9421, Control_c, 6, 11, 93
8, 9422, Control_c, 6, 11, 90
8, 9423, Control_c, 6, 11, 87
8, 9424, Control_c, 6, 11, 85
8, 9425, Control_c, 6, 11, 82
8, 9426, Control_c, 6, 11, 79
8, 9427, Control_c, 6, 11, 77
8, 9428, Control_c, 6, 11, 74
8, 9429, Control_c, 6, 11, 71
8, 9430, Control_c, 6, 11, 69
8, 9431, Control_c, 6, 11, 66
8, 9432, Control_c, 6, 11, 64
8, 9433, Control_c, 6, 11, 61
8, 9434, Control_c, 6, 11, 58
8, 9435, Control_c, 6, 11, 56
8, 9436, Control_c, 6, 11, 53
8, 9437, Control_c, 6, 11, 50
8, 9438, Control_c, 6, 11, 48
8, 9439, Control_c, 6, 11, 45
8, 9440, Control_c, 6, 11, 42
8, 9441, Control_c, 6, 11, 40
8, 9442, Control_c, 6, 11, 37
8, 9443, Control_c, 6, 11, 34
8, 9444, Control_c, 6, 11, 32
8, 9445, Control_c, 6, 11, 29
8, 9446, Control_c, 6, 11, 26
8, 9447, Control_c, 6, 11, 24
8, 9448, Control_c, 6, 11, 21
8, 9449, Control_c, 6, 11, 19
8, 9450, Control_c, 6, 11, 16
8, 9451, Control_c, 6, 11, 13
8, 9452, Control_c, 6, 11, 11
8, 9453, Control_c, 6, 11, 8
8, 9454, Control_c, 6, 11, 5
8, 9455, Control_c, 6, 11, 3
8, 9456, Note_off_c, 6, 33, 64
8, 9456, Control_c, 6, 11, 127
8, 9456, Note_on_c, 6, 93, 64
8, 9457, Control_c, 6, 11, 124
8, 9458, Control_c, 6, 11, 122
8, 9459, Control_c, 6, 11, 119
8, 9460, Control_c, 6, 11, 116
8, 9461, Control_c, 6, 11, 114
8, 9462, Control_c, 6, 11, 111
8, 9463, Control_c, 6, 11, 108
8, 9464, Control_c, 6, 11, 106
8, 9465, Control_c, 6, 11, 103
8, 9466, Control_c, 6, 11, 101
8, 9467, Control_c, 6, 11, 98
8, 9468, Control_c, 6, 11, 95
8, 9469, Control_c, 6, 11, 93
8, 9470, Control_c, 6, 11, 90
8, 9471, Control_c, 6, 11, 87
8, 9472, Control_c, 6, 11, 85
8, 9473, Control_c, 6, 11, 82
8, 9474, Control_c, 6, 11, 79
8, 9475, Control_c, 6, 11, 77
8, 9476, Control_c, 6, 11, 74
8, 9477, Control_c, 6, 11, 71
8, 9478, Control_c, 6, 11, 69
8, 9479, Control_c, 6, 11, 66
8, 9480, Control_c, 6, 11, 64
8, 9481, Control_c, 6, 11, 61
8, 9482, Control_c, 6, 11, 58
8, 9483, Control_c, 6, 11, 56
8, 9484, Control_c, 6, 11, 53
8, 9485, Control_c, 6, 11, 50
8, 9486, Control_c, 6, 11, 48
8, 9487, Control_c, 6, 11, 45
8, 9488, Control_c, 6, 11, 42
8, 9489, Control_c, 6, 11, 40
8, 9490, Control_c, 6, 11, 37
8, 9491, Control_c, 6, 11, 34
8, 9492, Control_c, 6, 11, 32
8, 9493, Control_c, 6, 11, 29
8, 9494, Control_c, 6, 11, 26
8, 9495, Control_c, 6, 11, 24
8, 9496, Control_c, 6, 11, 21
8, 9497, Control_c, 6, 11, 19
8, 9498, Control_c, 6, 11, 16
8, 9499, Control_c, 6, 11, 13
8, 9500, Control_c, 6, 11, 11
8, 9501, Control_c, 6, 11, 8
8, 9502, Control_c, 6, 11, 5
8, 9503, Control_c, 6, 11, 3
8, 9504, Note_off_c, 6, 93, 64
8, 9504, Control_c, 6, 11, 127
8, 9504, Note_on_c, 6, 63, 64
8, 9505, Control_c, 6, 11, 124
8, 9506, Control_c, 6, 11, 122
8, 9507, Control_c, 6, 11, 119
8, 9508, Control_c, 6, 11, 116
8, 9509, Control_c, 6, 11, 114
8, 9510, Control_c, 6, 11, 111
8, 9511, Control_c, 6, 11, 108
8, 9512, Control_c, 6, 11, 106
8, 9513, Control_c, 6, 11, 103
8, 9514, Control_c, 6, 11, 101
8, 9515, Control_c, 6, 11, 98
8, 9516, Control_c, 6, 11, 95
8, 9517, Control_c, 6, 11, 93
8, 9518, Control_c, 6, 11, 90
8, 9519, Control_c, 6, 11, 87
8, 9520, Control_c, 6, 11, 85
8, 9521, Control_c, 6, 11, 82
8, 9522, Control_c, 6, 11, 79
8, 9523, Control_c, 6, 11, 77
8, 9524, Control_c, 6, 11, 74
8, 9525, Control_c, 6, 11, 71
8, 9526, Control_c, 6, 11, 69
8, 9527, Control_c, 6, 11, 66
8, 9528, Control_c, 6, 11, 64
8, 9529, Control_c, 6, 11, 61
8, 9530, Control_c, 6, 11, 58
8, 9531, Control_c, 6, 11, 56
8, 9532, Control_c, 6, 11, 53
8, 9533, Control_c, 6, 11, 50
8, 9534, Control_c, 6, 11, 48
8, 9535, Control_c, 6, 11, 45
8, 9536, Control_c, 6, 11, 42
8, 9537, Control_c, 6, 11, 40
8, 9538, Control_c, 6, 11, 37
8, 9539, Control_c, 6, 11, 34
8, 9540, Control_c, 6, 11, 32
8, 9541, Control_c, 6, 11, 29
8, 9542, Control_c, 6, 11, 26
8, 9543, Control_c, 6, 11, 24
8, 9544, Control_c, 6, 11, 21
8, 9545, Control_c, 6, 11, 19
8, 9546, Control_c, 6, 11, 16
8, 9547, Control_c, 6, 11, 13
8, 9548, Control_c, 6, 11, 11
8, 9549, Control_c, 6, 11, 8
8, 9550, Control_c, 6, 11, 5
8, 9551, Control_c, 6, 11, 3
8, 9552, Note_off_c, 6, 63, 64
8, 9552, Control_c, 6, 11, 127
8, 9552, Note_on_c, 6, 93, 64
8, 9553, Control_c, 6, 11, 124
8, 9554, Control_c, 6, 11, 122
8, 9555, Control_c, 6, 11, 119
8, 9556, Control_c, 6, 11, 116
8, 9557, Control_c, 6, 11, 114
8, 9558, Control_c, 6, 11, 111
8, 9559, Control_c, 6, 11, 108
8, 9560, Control_c, 6, 11, 106
8, 9561, Control_c, 6, 11, 103
8, 9562, Control_c, 6, 11, 101
8, 9563, Control_c, 6, 11, 98
8, 9564, Control_c, 6, 11, 95
8, 9565, Control_c, 6, 11, 93
8, 9566, Control_c, 6, 11, 90
8, 9567, Control_c, 6, 11, 87
8, 9568, Control_c, 6, 11, 85
8, 9569, Control_c, 6, 11, 82
8, 9570, Control_c, 6, 11, 79
8, 9571, Control_c, 6, 11, 77
8, 9572, Control_c, 6, 11, 74
8, 9573, Control_c, 6, 11, 71
8, 9574, Control_c, 6, 11, 69
8, 9575, Control_c, 6, 11, 66
8, 9576, Control_c, 6, 11, 64
8, 9577, Control_c, 6, 11, 61
8, 9578, Control_c, 6, 11, 58
8, 9579, Control_c, 6, 11, 56
8, 9580, Control_c, 6, 11, 53
8, 9581, Control_c, 6, 11, 50
8, 9582, Control_c, 6, 11, 48
8, 9583, Control_c, 6, 11, 45
8, 9584, Control_c, 6, 11, 42
8, 9585, Control_c, 6, 11, 40
8, 9586, Control_c, 6, 11, 37
8, 9587, Control_c, 6, 11, 34
8, 9588, Control_c, 6, 11, 32
8, 9589, Control_c, 6, 11, 29
8, 9590, Control_c, 6, 11, 26
8, 9591, Control_c, 6, 11, 24
8, 9592, Control_c, 6, 11, 21
8, 9593, Control_c, 6, 11, 19
8, 9594, Control_c, 6, 11, 16
8, 9595, Control_c, 6, 11, 13
8, 9596, Control_c, 6, 11, 11
8, 9597, Control_c, 6, 11, 8
8, 9598, Control_c, 6, 11, 5
8, 9599, Control_c, 6, 11, 3
8, 9600, Note_off_c, 6, 93, 64
8, 9600, Control_c, 6, 11, 127
8, 9600, Note_on_c, 6, 33, 64
8, 9601, Control_c, 6, 11, 124
8, 9602, Control_c, 6, 11, 122
8, 9603, Control_c, 6, 11, 119
8, 9604, Control_c, 6, 11, 116
8, 9605, Control_c, 6, 11, 114
8, 9606, Control_c, 6, 11, 111
8, 9607, Control_c, 6, 11, 108
8, 9608, Control_c, 6, 11, 106
8, 9609, Control_c, 6, 11, 103
8, 9610, Control_c, 6, 11, 101
8, 9611, Control_c, 6, 11, 98
8, 9612, Control_c, 6, 11, 95
8, 9613, Control_c, 6, 11, 93
8, 9614, Control_c, 6, 11, 90
8, 9615, Control_c, 6, 11, 87
8, 9616, Control_c, 6, 11, 85
8, 9617, Control_c, 6, 11, 82
8, 9618, Control_c, 6, 11, 79
8, 9619, Control_c, 6, 11, 77
8, 9620, Control_c, 6, 11, 74
8, 9621, Control_c, 6, 11, 71
8, 9622, Control_c, 6, 11, 69
8, 9623, Control_c, 6, 11, 66
8, 9624, Control_c, 6, 11, 64
8, 9625, Control_c, 6, 11, 61
8, 9626, Control_c, 6, 11, 58
8, 9627, Control_c, 6, 11, 56
8, 9628, Control_c, 6, 11, 53
8, 9629, Control_c, 6, 11, 50
8, 9630, Control_c, 6, 11, 48
8, 9631, Control_c, 6, 11, 45
8, 9632, Control_c, 6, 11, 42
8, 9633, Control_c, 6, 11, 40
8, 9634, Control_c, 6, 11, 37
8, 9635, Control_c, 6, 11, 34
8, 9636, Control_c, 6, 11, 32
8, 9637, Control_c, 6, 11, 29
8, 9638, Control_c, 6, 11, 26
8, 9639, Control_c, 6, 11, 24
8, 9640, Control_c, 6, 11, 21
8, 9641, Control_c, 6, 11, 19
8, 9642, Control_c, 6, 11, 16
8, 9643, Control_c, 6, 11, 13
8, 9644, Control_c, 6, 11, 11
8, 9645, Control_c, 6, 11, 8
8, 9646, Control_c, 6, 11, 5
8, 9647, Control_c, 6, 11, 3
8, 9648, Note_off_c, 6, 33, 64
8, 9648, Control_c, 6, 11, 127
8, 9648, Note_on_c, 6, 93, 64
8, 9649, Control_c, 6, 11, 124
8, 9650, Control_c, 6, 11, 122
8, 9651, Control_c, 6, 11, 119
8, 9652, Control_c, 6, 11, 116
8, 9653, Control_c, 6, 11, 114
8, 9654, Control_c, 6, 11, 111
8, 9655, Control_c, 6, 11, 108
8, 9656, Control_c, 6, 11, 106
8, 9657, Control_c, 6, 11, 103
8, 9658, Control_c, 6, 11, 101
8, 9659, Control_c, 6, 11, 98
8, 9660, Control_c, 6, 11, 95
8, 9661, Control_c, 6, 11, 93
8, 9662, Control_c, 6, 11, 90
8, 9663, Control_c, 6, 11, 87
8, 9664, Control_c, 6, 11, 85
8, 9665, Control_c, 6, 11, 82
8, 9666, Control_c, 6, 11, 79
8, 9667, Control_c, 6, 11, 77
8, 9668, Control_c, 6, 11, 74
8, 9669, Control_c, 6, 11, 71
8, 9670, Control_c, 6, 11, 69
8, 9671, Control_c, 6, 11, 66
8, 9672, Control_c, 6, 11, 64
8, 9673, Control_c, 6, 11, 61
8, 9674, Control_c, 6, 11, 58
8, 9675, Control_c, 6, 11, 56
8, 9676, Control_c, 6, 11, 53
8, 9677, Control_c, 6, 11, 50
8, 9678, Control_c, 6, 11, 48
8, 9679, Control_c, 6, 11, 45
8, 9680, Control_c, 6, 11, 42
8, 9681, Control_c, 6, 11, 40
8, 9682, Control_c, 6, 11, 37
8, 9683, Control_c, 6, 11, 34
8, 9684, Control_c, 6, 11, 32
8, 9685, Control_c, 6, 11, 29
8, 9686, Control_c, 6, 11, 26
8, 9687, Control_c, 6, 11, 24
8, 9688, Control_c, 6, 11, 21
8, 9689, Control_c, 6, 11, 19
8, 9690, Control_c, 6, 11, 16
8, 9691, Control_c, 6, 11, 13
8, 9692, Control_c, 6, 11, 11
8, 9693, Control_c, 6, 11, 8
8, 9694, Control_c, 6, 11, 5
8, 9695, Control_c, 6, 11, 3
8, 9696, Note_off_c, 6, 93, 64
8, 9696, Control_c, 6, 11, 127
8, 9696, Note_on_c, 6, 63, 64
8, 9697, Control_c, 6, 11, 124
8, 9698, Control_c, 6, 11, 122
8, 9699, Control_c, 6, 11, 119
8, 9700, Control_c, 6, 11, 116
8, 9701, Control_c, 6, 11, 114
8, 9702, Control_c, 6, 11, 111
8, 9703, Control_c, 6, 11, 108
8, 9704, Control_c, 6, 11, 106
8, 9705, Control_c, 6, 11, 103
8, 9706, Control_c, 6, 11, 101
8, 9707, Control_c, 6, 11, 98
8, 9708, Control_c, 6, 11, 95
8, 9709, Control_c, 6, 11, 93
8, 9710, Control_c, 6, 11, 90
8, 9711, Control_c, 6, 11, 87
8, 9712, Control_c, 6, 11, 85
8, 9713, Control_c, 6, 11, 82
8, 9714, Control_c, 6, 11, 79
8, 9715, Control_c, 6, 11, 77
8, 9716, Control_c, 6, 11, 74
8, 9717, Control_c, 6, 11, 71
8, 9718, Control_c, 6, 11, 69
8, 9719, Control_c, 6, 11, 66
8, 9720, Control_c, 6, 11, 64
8, 9721, Control_c, 6, 11, 61
8, 9722, Control_c, 6, 11, 58
8, 9723, Control_c, 6, 11, 56
8, 9724, Control_c, 6, 11, 53
8, 9725, Control_c, 6, 11, 50
8, 9726, Control_c, 6, 11, 48
8, 9727, Control_c, 6, 11, 45
8, 9728, Control_c, 6, 11, 42
8, 9729, Control_c, 6, 11, 40
8, 9730, Control_c, 6, 11, 37
8, 9731, Control_c, 6, 11, 34
8, 9732, Control_c, 6, 11, 32
8, 9733, Control_c, 6, 11, 29
8, 9734, Control_c, 6, 11, 26
8, 9735, Control_c, 6, 11, 24
8, 9736, Control_c, 6, 11, 21
8, 9737, Control_c, 6, 11, 19
8, 9738, Control_c, 6, 11, 16
8, 9739, Control_c, 6, 11, 13
8, 9740, Control_c, 6, 11, 11
8, 9741, Control_c, 6, 11, 8
8, 9742, Control_c, 6, 11, 5
8, 9743, Control_c, 6, 11, 3
8, 9744, Note_off_c, 6, 63, 64
8, 9744, Control_c, 6, 11, 127
8, 9744, Note_on_c, 6, 93, 64
8, 9745, Control_c, 6, 11, 124
8, 9746, Control_c, 6, 11, 122
8, 9747, Control_c, 6, 11, 119
8, 9748, Control_c, 6, 11, 116
8, 9749, Control_c, 6, 11, 114
8, 9750, Control_c, 6, 11, 111
8, 9751, Control_c, 6, 11, 108
8, 9752, Control_c, 6, 11, 106
8, 9753, Control_c, 6, 11, 103
8, 9754, Control_c, 6, 11, 101
8, 9755, Control_c, 6, 11, 98
8, 9756, Control_c, 6, 11, 95
8, 9757, Control_c, 6, 11, 93
8, 9758, Control_c, 6, 11, 90
8, 9759, Control_c, 6, 11, 87
8, 9760, Control_c, 6, 11, 85
8, 9761, Control_c, 6, 11, 82
8, 9762, Control_c, 6, 11, 79
8, 9763, Control_c, 6, 11, 77
8, 9764, Control_c, 6, 11, 74
8, 9765, Control_c, 6, 11, 71
8, 9766, Control_c, 6, 11, 69
8, 9767, Control_c, 6, 11, 66
8, 9768, Control_c, 6, 11, 64
8, 9769, Control_c, 6, 11, 61
8, 9770, Control_c, 6, 11, 58
8, 9771, Control_c, 6, 11, 56
8, 9772, Control_c, 6, 11, 53
8, 9773, Control_c, 6, 11, 50
8, 9774, Control_c, 6, 11, 48
8, 9775, Control_c, 6, 11, 45
8, 9776, Control_c, 6, 11, 42
8, 9777, Control_c, 6, 11, 40
8, 9778, Control_c, 6, 11, 37
8, 9779, Control_c, 6, 11, 34
8, 9780, Control_c, 6, 11, 32
8, 9781, Control_c, 6, 11, 29
8, 9782, Control_c, 6, 11, 26
8, 9783, Control_c, 6, 11, 24
8, 9784, Control_c, 6, 11, 21
8, 9785, Control_c, 6, 11, 19
8, 9786, Control_c, 6, 11, 16
8, 9787, Control_c, 6, 11, 13
8, 9788, Control_c, 6, 11, 11
8, 9789, Control_c, 6, 11, 8
8, 9790, Control_c, 6, 11, 5
8, 9791, Control_c, 6, 11, 3
8, 9792, Note_off_c, 6, 93, 64
8, 9792, Control_c, 6, 11, 127
8, 9792, Note_on_c, 6, 33, 64
8, 9793, Control_c, 6, 11, 124
8, 9794, Control_c, 6, 11, 122
8, 9795, Control_c, 6, 11, 119
8, 9796, Control_c, 6, 11, 116
8, 9797, Control_c, 6, 11, 114
8, 9798, Control_c, 6, 11, 111
8, 9799, Control_c, 6, 11, 108
8, 9800, Control_c, 6, 11, 106
8, 9801, Control_c, 6, 11, 103
8, 9802, Control_c, 6, 11, 101
8, 9803, Control_c, 6, 11, 98
8, 9804, Control_c, 6, 11, 95
8, 9805, Control_c, 6, 11, 93
8, 9806, Control_c, 6, 11, 90
8, 9807, Control_c, 6, 11, 87
8, 9808, Control_c, 6, 11, 85
8, 9809, Control_c, 6, 11, 82
8, 9810, Control_c, 6, 11, 79
8, 9811, Control_c, 6, 11, 77
8, 9812, Control_c, 6, 11, 74
8, 9813, Control_c, 6, 11, 71
8, 9814, Control_c, 6, 11, 69
8, 9815, Control_c, 6, 11, 66
8, 9816, Control_c, 6, 11, 64
8, 9817, Control_c, 6, 11, 61
8, 9818, Control_c, 6, 11, 58
8, 9819, Control_c, 6, 11, 56
8, 9820, Control_c, 6, 11, 53
8, 9821, Control_c, 6, 11, 50
8, 9822, Control_c, 6, 11, 48
8, 9823, Control_c, 6, 11, 45
8, 9824, Control_c, 6, 11, 42
8, 9825, Control_c, 6, 11, 40
8, 9826, Control_c, 6, 11, 37
8, 9827, Control_c, 6, 11, 34
8, 9828, Control_c, 6, 11, 32
8, 9829, Control_c, 6, 11, 29
8, 9830, Control_c, 6, 11, 26
8, 9831, Control_c, 6, 11, 24
8, 9832, Control_c, 6, 11, 21
8, 9833, Control_c, 6, 11, 19
8, 9834, Control_c, 6, 11, 16
8, 9835, Control_c, 6, 11, 13
8, 9836, Control_c, 6, 11, 11
8, 9837, Control_c, 6, 11, 8
8, 9838, Control_c, 6, 11, 5
8, 9839, Control_c, 6, 11, 3
8, 9840, Note_off_c, 6, 33, 64
8, 9840, Control_c, 6, 11, 127
8, 9840, Note_on_c, 6, 93, 64
8, 9841, Control_c, 6, 11, 124
8, 9842, Control_c, 6, 11, 122
8, 9843, Control_c, 6, 11, 119
8, 9844, Control_c, 6, 11, 116
8, 9845, Control_c, 6, 11, 114
8, 9846, Control_c, 6, 11, 111
8, 9847, Control_c, 6, 11, 108
8, 9848, Control_c, 6, 11, 106
8, 9849, Control_c, 6, 11, 103
8, 9850, Control_c, 6, 11, 101
8, 9851, Control_c, 6, 11, 98
8, 9852, Control_c, 6, 11, 95
8, 9853, Control_c, 6, 11, 93
8, 9854, Control_c, 6, 11, 90
8, 9855, Control_c, 6, 11, 87
8, 9856, Control_c, 6, 11, 85
8, 9857, Control_c, 6, 11, 82
8, 9858, Control_c, 6, 11, 79
8, 9859, Control_c, 6, 11, 77
8, 9860, Control_c, 6, 11, 74
8, 9861, Control_c, 6, 11, 71
8, 9862, Control_c, 6, 11, 69
8, 9863, Control_c, 6, 11, 66
8, 9864, Control_c, 6, 11, 64
8, 9865, Control_c, 6, 11, 61
8, 9866, Control_c, 6, 11, 58
8, 9867, Control_c, 6, 11, 56
8, 9868, Control_c, 6, 11, 53
8, 9869, Control_c, 6, 11, 50
8, 9870, Control_c, 6, 11, 48
8, 9871, Control_c, 6, 11, 45
8, 9872, Control_c, 6, 11, 42
8, 9873, Control_c, 6, 11, 40
8, 9874, Control_c, 6, 11, 37
8, 9875, Control_c, 6, 11, 34
8, 9876, Control_c, 6, 11, 32
8, 9877, Control_c, 6, 11, 29
8, 9878, Control_c, 6, 11, 26
8, 9879, Control_c, 6, 11, 24
8, 9880, Control_c, 6, 11, 21
8, 9881, Control_c, 6, 11, 19
8, 9882, Control_c, 6, 11, 16
8, 9883, Control_c, 6, 11, 13
8, 9884, Control_c, 6, 11, 11
8, 9885, Control_c, 6, 11, 8
8, 9886, Control_c, 6, 11, 5
8, 9887, Control_c, 6, 11, 3
8, 9888, Note_off_c, 6, 93, 64
8, 9888, Control_c, 6, 11, 127
8, 9888, Note_on_c, 6, 63, 64
8, 9889, Control_c, 6, 11, 124
8, 9890, Control_c, 6, 11, 122
8, 9891, Control_c, 6, 11, 119
8, 9892, Control_c, 6, 11, 116
8, 9893, Control_c, 6, 11, 114
8, 9894, Control_c, 6, 11, 111
8, 9895, Control_c, 6, 11, 108
8, 9896, Control_c, 6, 11, 106
8, 9897, Control_c, 6, 11, 103
8, 9898, Control_c, 6, 11, 101
8, 9899, Control_c, 6, 11, 98
8, 9900, Control_c, 6, 11, 95
8, 9901, Control_c, 6, 11, 93
8, 9902, Control_c, 6, 11, 90
8, 9903, Control_c, 6, 11, 87
8, 9904, Control_c, 6, 11, 85
8, 9905, Control_c, 6, 11, 82
8, 9906, Control_c, 6, 11, 79
8, 9907, Control_c, 6, 11, 77
8, 9908, Control_c, 6, 11, 74
8, 9909, Control_c, 6, 11, 71
8, 9910, Control_c, 6, 11, 69
8, 9911, Control_c, 6, 11, 66
8, 9912, Control_c, 6, 11, 64
8, 9913, Control_c, 6, 11, 61
8, 9914, Control_c, 6, 11, 58
8, 9915, Control_c, 6, 11, 56
8, 9916, Control_c, 6, 11, 53
8, 9917, Control_c, 6, 11, 50
8, 9918, Control_c, 6, 11, 48
8, 9919, Control_c, 6, 11, 45
8, 9920, Control_c, 6, 11, 42
8, 9921, Control_c, 6, 11, 40
8, 9922, Control_c, 6, 11, 37
8, 9923, Control_c, 6, 11, 34
8, 9924, Control_c, 6, 11, 32
8, 9925, Control_c, 6, 11, 29
8, 9926, Control_c, 6, 11, 26
8, 9927, Control_c, 6, 11, 24
8, 9928, Control_c, 6, 11, 21
8, 9929, Control_c, 6, 11, 19
8, 9930, Control_c, 6, 11, 16
8, 9931, Control_c, 6, 11, 13
8, 9932, Control_c, 6, 11, 11
8, 9933, Control_c, 6, 11, 8
8, 9934, Control_c, 6, 11, 5
8, 9935, Control_c, 6, 11, 3
8, 9936, Note_off_c, 6, 63, 64
8, 9936, Control_c, 6, 11, 127
8, 9936, Note_on_c, 6, 63, 64
8, 9937, Control_c, 6, 11, 124
8, 9938, Control_c, 6, 11, 122
8, 9939, Control_c, 6, 11, 119
8, 9940, Control_c, 6, 11, 116
8, 9941, Control_c, 6, 11, 114
8, 9942, Control_c, 6, 11, 111
8, 9943, Control_c, 6, 11, 108
8, 9944, Control_c, 6, 11, 106
8, 9945, Control_c, 6, 11, 103
8, 9946, Control_c, 6, 11, 101
8, 9947, Control_c, 6, 11, 98
8, 9948, Control_c, 6, 11, 95
8, 9949, Control_c, 6, 11, 93
8, 9950, Control_c, 6, 11, 90
8, 9951, Control_c, 6, 11, 87
8, 9952, Control_c, 6, 11, 85
8, 9953, Control_c, 6, 11, 82
8, 9954, Control_c, 6, 11, 79
8, 9955, Control_c, 6, 11, 77
8, 9956, Control_c, 6, 11, 74
8, 9957, Control_c, 6, 11, 71
8, 9958, Control_c, 6, 11, 69
8, 9959, Control_c, 6, 11, 66
8, 9960, Control_c, 6, 11, 64
8, 9961, Control_c, 6, 11, 61
8, 9962, Control_c, 6, 11, 58
8, 9963, Control_c, 6, 11, 56
8, 9964, Control_c, 6, 11, 53
8, 9965, Control_c, 6, 11, 50
8, 9966, Control_c, 6, 11, 48
8, 9967, Control_c, 6, 11, 45
8, 9968, Control_c, 6, 11, 42
8, 9969, Control_c, 6, 11, 40
8, 9970, Control_c, 6, 11, 37
8, 9971, Control_c, 6, 11, 34
8, 9972, Control_c, 6, 11, 32
8, 9973, Control_c, 6, 11, 29
8, 9974, Control_c, 6, 11, 26
8, 9975, Control_c, 6, 11, 24
8, 9976, Control_c, 6, 11, 21
8, 9977, Control_c, 6, 11, 19
8, 9978, Control_c, 6, 11, 16
8, 9979, Control_c, 6, 11, 13
8, 9980, Control_c, 6, 11, 11
8, 9981, Control_c, 6, 11, 8
8, 9982, Control_c, 6, 11, 5
8, 9983, Control_c, 6, 11, 3
8, 9984, Note_off_c, 6, 63, 64
8, 9984, Control_c, 6, 11, 127
8, 9984, Note_on_c, 6, 33, 64
8, 9985, Control_c, 6, 11, 124
8, 9986, Control_c, 6, 11, 122
8, 9987, Control_c, 6, 11, 119
8, 9988, Control_c, 6, 11, 116
8, 9989, Control_c, 6, 11, 114
8, 9990, Control_c, 6, 11, 111
8, 9991, Control_c, 6, 11, 108
8, 9992, Control_c, 6, 11, 106
8, 9993, Control_c, 6, 11, 103
8, 9994, Control_c, 6, 11, 101
8, 9995, Control_c, 6, 11, 98
8, 9996, Control_c, 6, 11, 95
8, 9997, Control_c, 6, 11, 93
8, 9998, Control_c, 6, 11, 90
8, 9999, Control_c, 6, 11, 87
8, 10000, Control_c, 6, 11, 85
8, 10001, Control_c, 6, 11, 82
8, 10002, Control_c, 6, 11, 79
8, 10003, Control_c, 6, 11, 77
8, 10004, Control_c, 6, 11, 74
8, 10005, Control_c, 6, 11, 71
8, 10006, Control_c, 6, 11, 69
8, 10007, Control_c, 6, 11, 66
8, 10008, Control_c, 6, 11, 64
8, 10009, Control_c, 6, 11, 61
8, 10010, Control_c, 6, 11, 58
8, 10011, Control_c, 6, 11, 56
8, 10012, Control_c, 6, 11, 53
8, 10013, Control_c, 6, 11, 50
8, 10014, Control_c, 6, 11, 48
8, 10015, Control_c, 6, 11, 45
8, 10016, Control_c, 6, 11, 42
8, 10017, Control_c, 6, 11, 40
8, 10018, Control_c, 6, 11, 37
8, 10019, Control_c, 6, 11, 34
8, 10020, Control_c, 6, 11, 32
8, 10021, Control_c, 6, 11, 29
8, 10022, Control_c, 6, 11, 26
8, 10023, Control_c, 6, 11, 24
8, 10024, Control_c, 6, 11, 21
8, 10025, Control_c, 6, 11, 19
8, 10026, Control_c, 6, 11, 16
8, 10027, Control_c, 6, 11, 13
8, 10028, Control_c, 6, 11, 11
8, 10029, Control_c, 6, 11, 8
8, 10030, Control_c, 6, 11, 5
8, 10031, Control_c, 6, 11, 3
8, 10032, Note_off_c, 6, 33, 64
8, 10032, Control_c, 6, 11, 127
8, 10032, Note_on_c, 6, 93, 64
8, 10033, Control_c, 6, 11, 124
8, 10034, Control_c, 6, 11, 122
8, 10035, Control_c, 6, 11, 119
8, 10036, Control_c, 6, 11, 116
8, 10037, Control_c, 6, 11, 114
8, 10038, Control_c, 6, 11, 111
8, 10039, Control_c, 6, 11, 108
8, 10040, Control_c, 6, 11, 106
8, 10041, Control_c, 6, 11, 103
8, 10042, Control_c, 6, 11, 101
8, 10043, Control_c, 6, 11, 98
8, 10044, Control_c, 6, 11, 95
8, 10045, Control_c, 6, 11, 93
8, 10046, Control_c, 6, 11, 90
8, 10047, Control_c, 6, 11, 87
8, 10048, Control_c, 6, 11, 85
8, 10049, Control_c, 6, 11, 82
8, 10050, Control_c, 6, 11, 79
8, 10051, Control_c, 6, 11, 77
8, 10052, Control_c, 6, 11, 74
8, 10053, Control_c, 6, 11, 71
8, 10054, Control_c, 6, 11, 69
8, 10055, Control_c, 6, 11, 66
8, 10056, Control_c, 6, 11, 64
8, 10057, Control_c, 6, 11, 61
8, 10058, Control_c, 6, 11, 58
8, 10059, Control_c, 6, 11, 56
8, 10060, Control_c, 6, 11, 53
8, 10061, Control_c, 6, 11, 50
8, 10062, Control_c, 6, 11, 48
8, 10063, Control_c, 6, 11, 45
8, 10064, Control_c, 6, 11, 42
8, 10065, Control_c, 6, 11, 40
8, 10066, Control_c, 6, 11, 37
8, 10067, Control_c, 6, 11, 34
8, 10068, Control_c, 6, 11, 32
8, 10069, Control_c, 6, 11, 29
8, 10070, Control_c, 6, 11, 26
8, 10071, Control_c, 6, 11, 24
8, 10072, Control_c, 6, 11, 21
8, 10073, Control_c, 6, 11, 19
8, 10074, Control_c, 6, 11, 16
8, 10075, Control_c, 6, 11, 13
8, 10076, Control_c, 6, 11, 11
8, 10077, Control_c, 6, 11, 8
8, 10078, Control_c, 6, 11, 5
8, 10079, Control_c, 6, 11, 3
8, 10080, Note_off_c, 6, 93, 64
8, 10080, Control_c, 6, 11, 127
8, 10080, Note_on_c, 6, 63, 64
8, 10081, Control_c, 6, 11, 124
8, 10082, Control_c, 6, 11, 122
8, 10083, Control_c, 6, 11, 119
8, 10084, Control_c, 6, 11, 116
8, 10085, Control_c, 6, 11, 114
8, 10086, Control_c, 6, 11, 111
8, 10087, Control_c, 6, 11, 108
8, 10088, Control_c, 6, 11, 106
8, 10089, Control_c, 6, 11, 103
8, 10090, Control_c, 6, 11, 101
8, 10091, Control_c, 6, 11, 98
8, 10092, Control_c, 6, 11, 95
8, 10093, Control_c, 6, 11, 93
8, 10094, Control_c, 6, 11, 90
8, 10095, Control_c, 6, 11, 87
8, 10096, Control_c, 6, 11, 85
8, 10097, Control_c, 6, 11, 82
8, 10098, Control_c, 6, 11, 79
8, 10099, Control_c, 6, 11, 77
8, 10100, Control_c, 6, 11, 74
8, 10101, Control_c, 6, 11, 71
8, 10102, Control_c, 6, 11, 69
8, 10103, Control_c, 6, 11, 66
8, 10104, Control_c, 6, 11, 64
8, 10105, Control_c, 6, 11, 61
8, 10106, Control_c, 6, 11, 58
8, 10107, Control_c, 6, 11, 56
8, 10108, Control_c, 6, 11, 53
8, 10109, Control_c, 6, 11, 50
8, 10110, Control_c, 6, 11, 48
8, 10111, Control_c, 6, 11, 45
8, 10112, Control_c, 6, 11, 42
8, 10113, Control_c, 6, 11, 40
8, 10114, Control_c, 6, 11, 37
8, 10115, Control_c, 6, 11, 34
8, 10116, Control_c, 6, 11, 32
8, 10117, Control_c, 6, 11, 29
8, 10118, Control_c, 6, 11, 26
8, 10119, Control_c, 6, 11, 24
8, 10120, Control_c, 6, 11, 21
8, 10121, Control_c, 6, 11, 19
8, 10122, Control_c, 6, 11, 16
8, 10123, Control_c, 6, 11, 13
8, 10124, Control_c, 6, 11, 11
8, 10125, Control_c, 6, 11, 8
8, 10126, Control_c, 6, 11, 5
8, 10127, Control_c, 6, 11, 3
8, 10128, Note_off_c, 6, 63, 64
8, 10128, Control_c, 6, 11, 127
8, 10128, Note_on_c, 6, 93, 64
8, 10129, Control_c, 6, 11, 124
8, 10130, Control_c, 6, 11, 122
8, 10131, Control_c, 6, 11, 119
8, 10132, Control_c, 6, 11, 116
8, 10133, Control_c, 6, 11, 114
8, 10134, Control_c, 6, 11, 111
8, 10135, Control_c, 6, 11, 108
8, 10136, Control_c, 6, 11, 106
8, 10137, Control_c, 6, 11, 103
8, 10138, Control_c, 6, 11, 101
8, 10139, Control_c, 6, 11, 98
8, 10140, Control_c, 6, 11, 95
8, 10141, Control_c, 6, 11, 93
8, 10142, Control_c, 6, 11, 90
8, 10143, Control_c, 6, 11, 87
8, 10144, Control_c, 6, 11, 85
8, 10145, Control_c, 6, 11, 82
8, 10146, Control_c, 6, 11, 79
8, 10147, Control_c, 6, 11, 77
8, 10148, Control_c, 6, 11, 74
8, 10149, Control_c, 6, 11, 71
8, 10150, Control_c, 6, 11, 69
8, 10151, Control_c, 6, 11, 66
8, 10152, Control_c, 6, 11, 64
8, 10153, Control_c, 6, 11, 61
8, 10154, Control_c, 6, 11, 58
8, 10155, Control_c, 6, 11, 56
8, 10156, Control_c, 6, 11, 53
8, 10157, Control_c, 6, 11, 50
8, 10158, Control_c, 6, 11, 48
8, 10159, Control_c, 6, 11, 45
8, 10160, Control_c, 6, 11, 42
8, 10161, Control_c, 6, 11, 40
8, 10162, Control_c, 6, 11, 37
8, 10163, Control_c, 6, 11, 34
8, 10164, Control_c, 6, 11, 32
8, 10165, Control_c, 6, 11, 29
8, 10166, Control_c, 6, 11, 26
8, 10167, Control_c, 6, 11, 24
8, 10168, Control_c, 6, 11, 21
8, 10169, Control_c, 6, 11, 19
8, 10170, Control_c, 6, 11, 16
8, 10171, Control_c, 6, 11, 13
8, 10172, Control_c, 6, 11, 11
8, 10173, Control_c, 6, 11, 8
8, 10174, Control_c, 6, 11, 5
8, 10175, Control_c, 6, 11, 3
8, 10176, Note_off_c, 6, 93, 64
8, 10176, Control_c, 6, 11, 127
8, 10176, Note_on_c, 6, 33, 64
8, 10177, Control_c, 6, 11, 124
8, 10178, Control_c, 6, 11, 122
8, 10179, Control_c, 6, 11, 119
8, 10180, Control_c, 6, 11, 116
8, 10181, Control_c, 6, 11, 114
8, 10182, Control_c, 6, 11, 111
8, 10183, Control_c, 6, 11, 108
8, 10184, Control_c, 6, 11, 106
8, 10185, Control_c, 6, 11, 103
8, 10186, Control_c, 6, 11, 101
8, 10187, Control_c, 6, 11, 98
8, 10188, Control_c, 6, 11, 95
8, 10189, Control_c, 6, 11, 93
8, 10190, Control_c, 6, 11, 90
8, 10191, Control_c, 6, 11, 87
8, 10192, Control_c, 6, 11, 85
8, 10193, Control_c, 6, 11, 82
8, 10194, Control_c, 6, 11, 79
8, 10195, Control_c, 6, 11, 77
8, 10196, Control_c, 6, 11, 74
8, 10197, Control_c, 6, 11, 71
8, 10198, Control_c, 6, 11, 69
8, 10199, Control_c, 6, 11, 66
8, 10200, Control_c, 6, 11, 64
8, 10201, Control_c, 6, 11, 61
8, 10202, Control_c, 6, 11, 58
8, 10203, Control_c, 6, 11, 56
8, 10204, Control_c, 6, 11, 53
8, 10205, Control_c, 6, 11, 50
8, 10206, Control_c, 6, 11, 48
8, 10207, Control_c, 6, 11, 45
8, 10208, Control_c, 6, 11, 42
8, 10209, Control_c, 6, 11, 40
8, 10210, Control_c, 6, 11, 37
8, 10211, Control_c, 6, 11, 34
8, 10212, Control_c, 6, 11, 32
8, 10213, Control_c, 6, 11, 29
8, 10214, Control_c, 6, 11, 26
8, 10215, Control_c, 6, 11, 24
8, 10216, Control_c, 6, 11, 21
8, 10217, Control_c, 6, 11, 19
8, 10218, Control_c, 6, 11, 16
8, 10219, Control_c, 6, 11, 13
8, 10220, Control_c, 6, 11, 11
8, 10221, Control_c, 6, 11, 8
8, 10222, Control_c, 6, 11, 5
8, 10223, Control_c, 6, 11, 3
8, 10224, Note_off_c, 6, 33, 64
8, 10224, Control_c, 6, 11, 127
8, 10224, Note_on_c, 6, 93, 64
8, 10225, Control_c, 6, 11, 124
8, 10226, Control_c, 6, 11, 122
8, 10227, Control_c, 6, 11, 119
8, 10228, Control_c, 6, 11, 116
8, 10229, Control_c, 6, 11, 114
8, 10230, Control_c, 6, 11, 111
8, 10231, Control_c, 6, 11, 108
8, 10232, Control_c, 6, 11, 106
8, 10233, Control_c, 6, 11, 103
8, 10234, Control_c, 6, 11, 101
8, 10235, Control_c, 6, 11, 98
8, 10236, Control_c, 6, 11, 95
8, 10237, Control_c, 6, 11, 93
8, 10238, Control_c, 6, 11, 90
8, 10239, Control_c, 6, 11, 87
8, 10240, Control_c, 6, 11, 85
8, 10241, Control_c, 6, 11, 82
8, 10242, Control_c, 6, 11, 79
8, 10243, Control_c, 6, 11, 77
8, 10244, Control_c, 6, 11, 74
8, 10245, Control_c, 6, 11, 71
8, 10246, Control_c, 6, 11, 69
8, 10247, Control_c, 6, 11, 66
8, 10248, Control_c, 6, 11, 64
8, 10249, Control_c, 6, 11, 61
8, 10250, Control_c, 6, 11, 58
8, 10251, Control_c, 6, 11, 56
8, 10252, Control_c, 6, 11, 53
8, 10253, Control_c, 6, 11, 50
8, 10254, Control_c, 6, 11, 48
8, 10255, Control_c, 6, 11, 45
8, 10256, Control_c, 6, 11, 42
8, 10257, Control_c, 6, 11, 40
8, 10258, Control_c, 6, 11, 37
8, 10259, Control_c, 6, 11, 34
8, 10260, Control_c, 6, 11, 32
8, 10261, Control_c, 6, 11, 29
8, 10262, Control_c, 6, 11, 26
8, 10263, Control_c, 6, 11, 24
8, 10264, Control_c, 6, 11, 21
8, 10265, Control_c, 6, 11, 19
8, 10266, Control_c, 6, 11, 16
8, 10267, Control_c, 6, 11, 13
8, 10268, Control_c, 6, 11, 11
8, 10269, Control_c, 6, 11, 8
8, 10270, Control_c, 6, 11, 5
8, 10271, Control_c, 6, 11, 3
8, 10272, Note_off_c, 6, 93, 64
8, 10272, Control_c, 6, 11, 127
8, 10272, Note_on_c, 6, 63, 64
8, 10273, Control_c, 6, 11, 124
8, 10274, Control_c, 6, 11, 122
8, 10275, Control_c, 6, 11, 119
8, 10276, Control_c, 6, 11, 116
8, 10277, Control_c, 6, 11, 114
8, 10278, Control_c, 6, 11, 111
8, 10279, Control_c, 6, 11, 108
8, 10280, Control_c, 6, 11, 106
8, 10281, Control_c, 6, 11, 103
8, 10282, Control_c, 6, 11, 101
8, 10283, Control_c, 6, 11, 98
8, 10284, Control_c, 6, 11, 95
8, 10285, Control_c, 6, 11, 93
8, 10286, Control_c, 6, 11, 90
8, 10287, Control_c, 6, 11, 87
8, 10288, Control_c, 6, 11, 85
8, 10289, Control_c, 6, 11, 82
8, 10290, Control_c, 6, 11, 79
8, 10291, Control_c, 6, 11, 77
8, 10292, Control_c, 6, 11, 74
8, 10293, Control_c, 6, 11, 71
8, 10294, Control_c, 6, 11, 69
8, 10295, Control_c, 6, 11, 66
8, 10296, Control_c, 6, 11, 64
8, 10297, Control_c, 6, 11, 61
8, 10298, Control_c, 6, 11, 58
8, 10299, Control_c, 6, 11, 56
8, 10300, Control_c, 6, 11, 53
8, 10301, Control_c, 6, 11, 50
8, 10302, Control_c, 6, 11, 48
8, 10303, Control_c, 6, 11, 45
8, 10304, Control_c, 6, 11, 42
8, 10305, Control_c, 6, 11, 40
8, 10306, Control_c, 6, 11, 37
8, 10307, Control_c, 6, 11, 34
8, 10308, Control_c, 6, 11, 32
8, 10309, Control_c, 6, 11, 29
8, 10310, Control_c, 6, 11, 26
8, 10311, Control_c, 6, 11, 24
8, 10312, Control_c, 6, 11, 21
8, 10313, Control_c, 6, 11, 19
8, 10314, Control_c, 6, 11, 16
8, 10315, Control_c, 6, 11, 13
8, 10316, Control_c, 6, 11, 11
8, 10317, Control_c, 6, 11, 8
8, 10318, Control_c, 6, 11, 5
8, 10319, Control_c, 6, 11, 3
8, 10320, Note_off_c, 6, 63, 64
8, 10320, Control_c, 6, 11, 127
8, 10320, Note_on_c, 6, 93, 64
8, 10321, Control_c, 6, 11, 124
8, 10322, Control_c, 6, 11, 122
8, 10323, Control_c, 6, 11, 119
8, 10324, Control_c, 6, 11, 116
8, 10325, Control_c, 6, 11, 114
8, 10326, Control_c, 6, 11, 111
8, 10327, Control_c, 6, 11, 108
8, 10328, Control_c, 6, 11, 106
8, 10329, Control_c, 6, 11, 103
8, 10330, Control_c, 6, 11, 101
8, 10331, Control_c, 6, 11, 98
8, 10332, Control_c, 6, 11, 95
8, 10333, Control_c, 6, 11, 93
8, 10334, Control_c, 6, 11, 90
8, 10335, Control_c, 6, 11, 87
8, 10336, Control_c, 6, 11, 85
8, 10337, Control_c, 6, 11, 82
8, 10338, Control_c, 6, 11, 79
8, 10339, Control_c, 6, 11, 77
8, 10340, Control_c, 6, 11, 74
8, 10341, Control_c, 6, 11, 71
8, 10342, Control_c, 6, 11, 69
8, 10343, Control_c, 6, 11, 66
8, 10344, Control_c, 6, 11, 64
8, 10345, Control_c, 6, 11, 61
8, 10346, Control_c, 6, 11, 58
8, 10347, Control_c, 6, 11, 56
8, 10348, Control_c, 6, 11, 53
8, 10349, Control_c, 6, 11, 50
8, 10350, Control_c, 6, 11, 48
8, 10351, Control_c, 6, 11, 45
8, 10352, Control_c, 6, 11, 42
8, 10353, Control_c, 6, 11, 40
8, 10354, Control_c, 6, 11, 37
8, 10355, Control_c, 6, 11, 34
8, 10356, Control_c, 6, 11, 32
8, 10357, Control_c, 6, 11, 29
8, 10358, Control_c, 6, 11, 26
8, 10359, Control_c, 6, 11, 24
8, 10360, Control_c, 6, 11, 21
8, 10361, Control_c, 6, 11, 19
8, 10362, Control_c, 6, 11, 16
8, 10363, Control_c, 6, 11, 13
8, 10364, Control_c, 6, 11, 11
8, 10365, Control_c, 6, 11, 8
8, 10366, Control_c, 6, 11, 5
8, 10367, Control_c, 6, 11, 3
8, 10368, Note_off_c, 6, 93, 64
8, 10368, Control_c, 6, 11, 127
8, 10368, Note_on_c, 6, 33, 64
8, 10369, Control_c, 6, 11, 124
8, 10370, Control_c, 6, 11, 122
8, 10371, Control_c, 6, 11, 119
8, 10372, Control_c, 6, 11, 116
8, 10373, Control_c, 6, 11, 114
8, 10374, Control_c, 6, 11, 111
8, 10375, Control_c, 6, 11, 108
8, 10376, Control_c, 6, 11, 106
8, 10377, Control_c, 6, 11, 103
8, 10378, Control_c, 6, 11, 101
8, 10379, Control_c, 6, 11, 98
8, 10380, Control_c, 6, 11, 95
8, 10381, Control_c, 6, 11, 93
8, 10382, Control_c, 6, 11, 90
8, 10383, Control_c, 6, 11, 87
8, 10384, Control_c, 6, 11, 85
8, 10385, Control_c, 6, 11, 82
8, 10386, Control_c, 6, 11, 79
8, 10387, Control_c, 6, 11, 77
8, 10388, Control_c, 6, 11, 74
8, 10389, Control_c, 6, 11, 71
8, 10390, Control_c, 6, 11, 69
8, 10391, Control_c, 6, 11, 66
8, 10392, Control_c, 6, 11, 64
8, 10393, Control_c, 6, 11, 61
8, 10394, Control_c, 6, 11, 58
8, 10395, Control_c, 6, 11, 56
8, 10396, Control_c, 6, 11, 53
8, 10397, Control_c, 6, 11, 50
8, 10398, Control_c, 6, 11, 48
8, 10399, Control_c, 6, 11, 45
8, 10400, Control_c, 6, 11, 42
8, 10401, Control_c, 6, 11, 40
8, 10402, Control_c, 6, 11, 37
8, 10403, Control_c, 6, 11, 34
8, 10404, Control_c, 6, 11, 32
8, 10405, Control_c, 6, 11, 29
8, 10406, Control_c, 6, 11, 26
8, 10407, Control_c, 6, 11, 24
8, 10408, Control_c, 6, 11, 21
8, 10409, Control_c, 6, 11, 19
8, 10410, Control_c, 6, 11, 16
8, 10411, Control_c, 6, 11, 13
8, 10412, Control_c, 6, 11, 11
8, 10413, Control_c, 6, 11, 8
8, 10414, Control_c, 6, 11, 5
8, 10415, Control_c, 6, 11, 3
8, 10416, Note_off_c, 6, 33, 64
8, 10416, Control_c, 6, 11, 127
8, 10416, Note_on_c, 6, 93, 64
8, 10417, Control_c, 6, 11, 124
8, 10418, Control_c, 6, 11, 122
8, 10419, Control_c, 6, 11, 119
8, 10420, Control_c, 6, 11, 116
8, 10421, Control_c, 6, 11, 114
8, 10422, Control_c, 6, 11, 111
8, 10423, Control_c, 6, 11, 108
8, 10424, Control_c, 6, 11, 106
8, 10425, Control_c, 6, 11, 103
8, 10426, Control_c, 6, 11, 101
8, 10427, Control_c, 6, 11, 98
8, 10428, Control_c, 6, 11, 95
8, 10429, Control_c, 6, 11, 93
8, 10430, Control_c, 6, 11, 90
8, 10431, Control_c, 6, 11, 87
8, 10432, Control_c, 6, 11, 85
8, 10433, Control_c, 6, 11, 82
8, 10434, Control_c, 6, 11, 79
8, 10435, Control_c, 6, 11, 77
8, 10436, Control_c, 6, 11, 74
8, 10437, Control_c, 6, 11, 71
8, 10438, Control_c, 6, 11, 69
8, 10439, Control_c, 6, 11, 66
8, 10440, Control_c, 6, 11, 64
8, 10441, Control_c, 6, 11, 61
8, 10442, Control_c, 6, 11, 58
8, 10443, Control_c, 6, 11, 56
8, 10444, Control_c, 6, 11, 53
8, 10445, Control_c, 6, 11, 50
8, 10446, Control_c, 6, 11, 48
8, 10447, Control_c, 6, 11, 45
8, 10448, Control_c, 6, 11, 42
8, 10449, Control_c, 6, 11, 40
8, 10450, Control_c, 6, 11, 37
8, 10451, Control_c, 6, 11, 34
8, 10452, Control_c, 6, 11, 32
8, 10453, Control_c, 6, 11, 29
8, 10454, Control_c, 6, 11, 26
8, 10455, Control_c, 6, 11, 24
8, 10456, Control_c, 6, 11, 21
8, 10457, Control_c, 6, 11, 19
8, 10458, Control_c, 6, 11, 16
8, 10459, Control_c, 6, 11, 13
8, 10460, Control_c, 6, 11, 11
8, 10461, Control_c, 6, 11, 8
8, 10462, Control_c, 6, 11, 5
8, 10463, Control_c, 6, 11, 3
8, 10464, Note_off_c, 6, 93, 64
8, 10464, Control_c, 6, 11, 127
8, 10464, Note_on_c, 6, 63, 64
8, 10465, Control_c, 6, 11, 124
8, 10466, Control_c, 6, 11, 122
8, 10467, Control_c, 6, 11, 119
8, 10468, Control_c, 6, 11, 116
8, 10469, Control_c, 6, 11, 114
8, 10470, Control_c, 6, 11, 111
8, 10471, Control_c, 6, 11, 108
8, 10472, Control_c, 6, 11, 106
8, 10473, Control_c, 6, 11, 103
8, 10474, Control_c, 6, 11, 101
8, 10475, Control_c, 6, 11, 98
8, 10476, Control_c, 6, 11, 95
8, 10477, Control_c, 6, 11, 93
8, 10478, Control_c, 6, 11, 90
8, 10479, Control_c, 6, 11, 87
8, 10480, Control_c, 6, 11, 85
8, 10481, Control_c, 6, 11, 82
8, 10482, Control_c, 6, 11, 79
8, 10483, Control_c, 6, 11, 77
8, 10484, Control_c, 6, 11, 74
8, 10485, Control_c, 6, 11, 71
8, 10486, Control_c, 6, 11, 69
8, 10487, Control_c, 6, 11, 66
8, 10488, Control_c, 6, 11, 64
8, 10489, Control_c, 6, 11, 61
8, 10490, Control_c, 6, 11, 58
8, 10491, Control_c, 6, 11, 56
8, 10492, Control_c, 6, 11, 53
8, 10493, Control_c, 6, 11, 50
8, 10494, Control_c, 6, 11, 48
8, 10495, Control_c, 6, 11, 45
8, 10496, Control_c, 6, 11, 42
8, 10497, Control_c, 6, 11, 40
8, 10498, Control_c, 6, 11, 37
8, 10499, Control_c, 6, 11, 34
8, 10500, Control_c, 6, 11, 32
8, 10501, Control_c, 6, 11, 29
8, 10502, Control_c, 6, 11, 26
8, 10503, Control_c, 6, 11, 24
8, 10504, Control_c, 6, 11, 21
8, 10505, Control_c, 6, 11, 19
8, 10506, Control_c, 6, 11, 16
8, 10507, Control_c, 6, 11, 13
8, 10508, Control_c, 6, 11, 11
8, 10509, Control_c, 6, 11, 8
8, 10510, Control_c, 6, 11, 5
8, 10511, Control_c, 6, 11, 3
8, 10512, Note_off_c, 6, 63, 64
8, 10512, Control_c, 6, 11, 127
8, 10512, Note_on_c, 6, 93, 64
8, 10513, Control_c, 6, 11, 124
8, 10514, Control_c, 6, 11, 122
8, 10515, Control_c, 6, 11, 119
8, 10516, Control_c, 6, 11, 116
8, 10517, Control_c, 6, 11, 114
8, 10518, Control_c, 6, 11, 111
8, 10519, Control_c, 6, 11, 108
8, 10520, Control_c, 6, 11, 106
8, 10521, Control_c, 6, 11, 103
8, 10522, Control_c, 6, 11, 101
8, 10523, Control_c, 6, 11, 98
8, 10524, Control_c, 6, 11, 95
8, 10525, Control_c, 6, 11, 93
8, 10526, Control_c, 6, 11, 90
8, 10527, Control_c, 6, 11, 87
8, 10528, Control_c, 6, 11, 85
8, 10529, Control_c, 6, 11, 82
8, 10530, Control_c, 6, 11, 79
8, 10531, Control_c, 6, 11, 77
8, 10532, Control_c, 6, 11, 74
8, 10533, Control_c, 6, 11, 71
8, 10534, Control_c, 6, 11, 69
8, 10535, Control_c, 6, 11, 66
8, 10536, Control_c, 6, 11, 64
8, 10537, Control_c, 6, 11, 61
8, 10538, Control_c, 6, 11, 58
8, 10539, Control_c, 6, 11, 56
8, 10540, Control_c, 6, 11, 53
8, 10541, Control_c, 6, 11, 50
8, 10542, Control_c, 6, 11, 48
8, 10543, Control_c, 6, 11, 45
8, 10544, Control_c, 6, 11, 42
8, 10545, Control_c, 6, 11, 40
8, 10546, Control_c, 6, 11, 37
8, 10547, Control_c, 6, 11, 34
8, 10548, Control_c, 6, 11, 32
8, 10549, Control_c, 6, 11, 29
8, 10550, Control_c, 6, 11, 26
8, 10551, Control_c, 6, 11, 24
8, 10552, Control_c, 6, 11, 21
8, 10553, Control_c, 6, 11, 19
8, 10554, Control_c, 6, 11, 16
8, 10555, Control_c, 6, 11, 13
8, 10556, Control_c, 6, 11, 11
8, 10557, Control_c, 6, 11, 8
8, 10558, Control_c, 6, 11, 5
8, 10559, Control_c, 6, 11, 3
8, 10560, Note_off_c, 6, 93, 64
8, 10560, Control_c, 6, 11, 127
8, 10560, Note_on_c, 6, 33, 64
8, 10561, Control_c, 6, 11, 124
8, 10562, Control_c, 6, 11, 122
8, 10563, Control_c, 6, 11, 119
8, 10564, Control_c, 6, 11, 116
8, 10565, Control_c, 6, 11, 114
8, 10566, Control_c, 6, 11, 111
8, 10567, Control_c, 6, 11, 108
8, 10568, Control_c, 6, 11, 106
8, 10569, Control_c, 6, 11, 103
8, 10570, Control_c, 6, 11, 101
8, 10571, Control_c, 6, 11, 98
8, 10572, Control_c, 6, 11, 95
8, 10573, Control_c, 6, 11, 93
8, 10574, Control_c, 6, 11, 90
8, 10575, Control_c, 6, 11, 87
8, 10576, Control_c, 6, 11, 85
8, 10577, Control_c, 6, 11, 82
8, 10578, Control_c, 6, 11, 79
8, 10579, Control_c, 6, 11, 77
8, 10580, Control_c, 6, 11, 74
8, 10581, Control_c, 6, 11, 71
8, 10582, Control_c, 6, 11, 69
8, 10583, Control_c, 6, 11, 66
8, 10584, Control_c, 6, 11, 64
8, 10585, Control_c, 6, 11, 61
8, 10586, Control_c, 6, 11, 58
8, 10587, Control_c, 6, 11, 56
8, 10588, Control_c, 6, 11, 53
8, 10589, Control_c, 6, 11, 50
8, 10590, Control_c, 6, 11, 48
8, 10591, Control_c, 6, 11, 45
8, 10592, Control_c, 6, 11, 42
8, 10593, Control_c, 6, 11, 40
8, 10594, Control_c, 6, 11, 37
8, 10595, Control_c, 6, 11, 34
8, 10596, Control_c, 6, 11, 32
8, 10597, Control_c, 6, 11, 29
8, 10598, Control_c, 6, 11, 26
8, 10599, Control_c, 6, 11, 24
8, 10600, Control_c, 6, 11, 21
8, 10601, Control_c, 6, 11, 19
8, 10602, Control_c, 6, 11, 16
8, 10603, Control_c, 6, 11, 13
8, 10604, Control_c, 6, 11, 11
8, 10605, Control_c, 6, 11, 8
8, 10606, Control_c, 6, 11, 5
8, 10607, Control_c, 6, 11, 3
8, 10608, Note_off_c, 6, 33, 64
8, 10608, Control_c, 6, 11, 127
8, 10608, Note_on_c, 6, 93, 64
8, 10609, Control_c, 6, 11, 124
8, 10610, Control_c, 6, 11, 122
8, 10611, Control_c, 6, 11, 119
8, 10612, Control_c, 6, 11, 116
8, 10613, Control_c, 6, 11, 114
8, 10614, Control_c, 6, 11, 111
8, 10615, Control_c, 6, 11, 108
8, 10616, Control_c, 6, 11, 106
8, 10617, Control_c, 6, 11, 103
8, 10618, Control_c, 6, 11, 101
8, 10619, Control_c, 6, 11, 98
8, 10620, Control_c, 6, 11, 95
8, 10621, Control_c, 6, 11, 93
8, 10622, Control_c, 6, 11, 90
8, 10623, Control_c, 6, 11, 87
8, 10624, Control_c, 6, 11, 85
8, 10625, Control_c, 6, 11, 82
8, 10626, Control_c, 6, 11, 79
8, 10627, Control_c, 6, 11, 77
8, 10628, Control_c, 6, 11, 74
8, 10629, Control_c, 6, 11, 71
8, 10630, Control_c, 6, 11, 69
8, 10631, Control_c, 6, 11, 66
8, 10632, Control_c, 6, 11, 64
8, 10633, Control_c, 6, 11, 61
8, 10634, Control_c, 6, 11, 58
8, 10635, Control_c, 6, 11, 56
8, 10636, Control_c, 6, 11, 53
8, 10637, Control_c, 6, 11, 50
8, 10638, Control_c, 6, 11, 48
8, 10639, Control_c, 6, 11, 45
8, 10640, Control_c, 6, 11, 42
8, 10641, Control_c, 6, 11, 40
8, 10642, Control_c, 6, 11, 37
8, 10643, Control_c, 6, 11, 34
8, 10644, Control_c, 6, 11, 32
8, 10645, Control_c, 6, 11, 29
8, 10646, Control_c, 6, 11, 26
8, 10647, Control_c, 6, 11, 24
8, 10648, Control_c, 6, 11, 21
8, 10649, Control_c, 6, 11, 19
8, 10650, Control_c, 6, 11, 16
8, 10651, Control_c, 6, 11, 13
8, 10652, Control_c, 6, 11, 11
8, 10653, Control_c, 6, 11, 8
8, 10654, Control_c, 6, 11, 5
8, 10655, Control_c, 6, 11, 3
8, 10656, Note_off_c, 6, 93, 64
8, 10656, Control_c, 6, 11, 127
8, 10656, Note_on_c, 6, 63, 64
8, 10657, Control_c, 6, 11, 124
8, 10658, Control_c, 6, 11, 122
8, 10659, Control_c, 6, 11, 119
8, 10660, Control_c, 6, 11, 116
8, 10661, Control_c, 6, 11, 114
8, 10662, Control_c, 6, 11, 111
8, 10663, Control_c, 6, 11, 108
8, 10664, Control_c, 6, 11, 106
8, 10665, Control_c, 6, 11, 103
8, 10666, Control_c, 6, 11, 101
8, 10667, Control_c, 6, 11, 98
8, 10668, Control_c, 6, 11, 95
8, 10669, Control_c, 6, 11, 93
8, 10670, Control_c, 6, 11, 90
8, 10671, Control_c, 6, 11, 87
8, 10672, Control_c, 6, 11, 85
8, 10673, Control_c, 6, 11, 82
8, 10674, Control_c, 6, 11, 79
8, 10675, Control_c, 6, 11, 77
8, 10676, Control_c, 6, 11, 74
8, 10677, Control_c, 6, 11, 71
8, 10678, Control_c, 6, 11, 69
8, 10679, Control_c, 6, 11, 66
8, 10680, Control_c, 6, 11, 64
8, 10681, Control_c, 6, 11, 61
8, 10682, Control_c, 6, 11, 58
8, 10683, Control_c, 6, 11, 56
8, 10684, Control_c, 6, 11, 53
8, 10685, Control_c, 6, 11, 50
8, 10686, Control_c, 6, 11, 48
8, 10687, Control_c, 6, 11, 45
8, 10688, Control_c, 6, 11, 42
8, 10689, Control_c, 6, 11, 40
8, 10690, Control_c, 6, 11, 37
8, 10691, Control_c, 6, 11, 34
8, 10692, Control_c, 6, 11, 32
8, 10693, Control_c, 6, 11, 29
8, 10694, Control_c, 6, 11, 26
8, 10695, Control_c, 6, 11, 24
8, 10696, Control_c, 6, 11, 21
8, 10697, Control_c, 6, 11, 19
8, 10698, Control_c, 6, 11, 16
8, 10699, Control_c, 6, 11, 13
8, 10700, Control_c, 6, 11, 11
8, 10701, Control_c, 6, 11, 8
8, 10702, Control_c, 6, 11, 5
8, 10703, Control_c, 6, 11, 3
8, 10704, Note_off_c, 6, 63, 64
8, 10704, Control_c, 6, 11, 127
8, 10704, Note_on_c, 6, 63, 64
8, 10705, Control_c, 6, 11, 124
8, 10706, Control_c, 6, 11, 122
8, 10707, Control_c, 6, 11, 119
8, 10708, Control_c, 6, 11, 116
8, 10709, Control_c, 6, 11, 114
8, 10710, Control_c, 6, 11, 111
8, 10711, Control_c, 6, 11, 108
8, 10712, Control_c, 6, 11, 106
8, 10713, Control_c, 6, 11, 103
8, 10714, Control_c, 6, 11, 101
8, 10715, Control_c, 6, 11, 98
8, 10716, Control_c, 6, 11, 95
8, 10717, Control_c, 6, 11, 93
8, 10718, Control_c, 6, 11, 90
8, 10719, Control_c, 6, 11, 87
8, 10720, Control_c, 6, 11, 85
8, 10721, Control_c, 6, 11, 82
8, 10722, Control_c, 6, 11, 79
8, 10723, Control_c, 6, 11, 77
8, 10724, Control_c, 6, 11, 74
8, 10725, Control_c, 6, 11, 71
8, 10726, Control_c, 6, 11, 69
8, 10727, Control_c, 6, 11, 66
8, 10728, Control_c, 6, 11, 64
8, 10729, Control_c, 6, 11, 61
8, 10730, Control_c, 6, 11, 58
8, 10731, Control_c, 6, 11, 56
8, 10732, Control_c, 6, 11, 53
8, 10733, Control_c, 6, 11, 50
8, 10734, Control_c, 6, 11, 48
8, 10735, Control_c, 6, 11, 45
8, 10736, Control_c, 6, 11, 42
8, 10737, Control_c, 6, 11, 40
8, 10738, Control_c, 6, 11, 37
8, 10739, Control_c, 6, 11, 34
8, 10740, Control_c, 6, 11, 32
8, 10741, Control_c, 6, 11, 29
8, 10742, Control_c, 6, 11, 26
8, 10743, Control_c, 6, 11, 24
8, 10744, Control_c, 6, 11, 21
8, 10745, Control_c, 6, 11, 19
8, 10746, Control_c, 6, 11, 16
8, 10747, Control_c, 6, 11, 13
8, 10748, Control_c, 6, 11, 11
8, 10749, Control_c, 6, 11, 8
8, 10750, Control_c, 6, 11, 5
8, 10751, Control_c, 6, 11, 3
8, 10752, Note_off_c, 6, 63, 64
8, 10752, Control_c, 6, 11, 127
8, 10752, Note_on_c, 6, 33, 64
8, 10753, Control_c, 6, 11, 124
8, 10754, Control_c, 6, 11, 122
8, 10755, Control_c, 6, 11, 119
8, 10756, Control_c, 6, 11, 116
8, 10757, Control_c, 6, 11, 114
8, 10758, Control_c, 6, 11, 111
8, 10759, Control_c, 6, 11, 108
8, 10760, Control_c, 6, 11, 106
8, 10761, Control_c, 6, 11, 103
8, 10762, Control_c, 6, 11, 101
8, 10763, Control_c, 6, 11, 98
8, 10764, Control_c, 6, 11, 95
8, 10765, Control_c, 6, 11, 93
8, 10766, Control_c, 6, 11, 90
8, 10767, Control_c, 6, 11, 87
8, 10768, Control_c, 6, 11, 85
8, 10769, Control_c, 6, 11, 82
8, 10770, Control_c, 6, 11, 79
8, 10771, Control_c, 6, 11, 77
8, 10772, Control_c, 6, 11, 74
8, 10773, Control_c, 6, 11, 71
8, 10774, Control_c, 6, 11, 69
8, 10775, Control_c, 6, 11, 66
8, 10776, Control_c, 6, 11, 64
8, 10777, Control_c, 6, 11, 61
8, 10778, Control_c, 6, 11, 58
8, 10779, Control_c, 6, 11, 56
8, 10780, Control_c, 6, 11, 53
8, 10781, Control_c, 6, 11, 50
8, 10782, Control_c, 6, 11, 48
8, 10783, Control_c, 6, 11, 45
8, 10784, Control_c, 6, 11, 42
8, 10785, Control_c, 6, 11, 40
8, 10786, Control_c, 6, 11, 37
8, 10787, Control_c, 6, 11, 34
8, 10788, Control_c, 6, 11, 32
8, 10789, Control_c, 6, 11, 29
8, 10790, Control_c, 6, 11, 26
8, 10791, Control_c, 6, 11, 24
8, 10792, Control_c, 6, 11, 21
8, 10793, Control_c, 6, 11, 19
8, 10794, Control_c, 6, 11, 16
8, 10795, Control_c, 6, 11, 13
8, 10796, Control_c, 6, 11, 11
8, 10797, Control_c, 6, 11, 8
8, 10798, Control_c, 6, 11, 5
8, 10799, Control_c, 6, 11, 3
8, 10800, Note_off_c, 6, 33, 64
8, 10800, Control_c, 6, 11, 127
8, 10800, Note_on_c, 6, 93, 64
8, 10801, Control_c, 6, 11, 124
8, 10802, Control_c, 6, 11, 122
8, 10803, Control_c, 6, 11, 119
8, 10804, Control_c, 6, 11, 116
8, 10805, Control_c, 6, 11, 114
8, 10806, Control_c, 6, 11, 111
8, 10807, Control_c, 6, 11, 108
8, 10808, Control_c, 6, 11, 106
8, 10809, Control_c, 6, 11, 103
8, 10810, Control_c, 6, 11, 101
8, 10811, Control_c, 6, 11, 98
8, 10812, Control_c, 6, 11, 95
8, 10813, Control_c, 6, 11, 93
8, 10814, Control_c, 6, 11, 90
8, 10815, Control_c, 6, 11, 87
8, 10816, Control_c, 6, 11, 85
8, 10817, Control_c, 6, 11, 82
8, 10818, Control_c, 6, 11, 79
8, 10819, Control_c, 6, 11, 77
8, 10820, Control_c, 6, 11, 74
8, 10821, Control_c, 6, 11, 71
8, 10822, Control_c, 6, 11, 69
8, 10823, Control_c, 6, 11, 66
8, 10824, Control_c, 6, 11, 64
8, 10825, Control_c, 6, 11, 61
8, 10826, Control_c, 6, 11, 58
8, 10827, Control_c, 6, 11, 56
8, 10828, Control_c, 6, 11, 53
8, 10829, Control_c, 6, 11, 50
8, 10830, Control_c, 6, 11, 48
8, 10831, Control_c, 6, 11, 45
8, 10832, Control_c, 6, 11, 42
8, 10833, Control_c, 6, 11, 40
8, 10834, Control_c, 6, 11, 37
8, 10835, Control_c, 6, 11, 34
8, 10836, Control_c, 6, 11, 32
8, 10837, Control_c, 6, 11, 29
8, 10838, Control_c, 6, 11, 26
8, 10839, Control_c, 6, 11, 24
8, 10840, Control_c, 6, 11, 21
8, 10841, Control_c, 6, 11, 19
8, 10842, Control_c, 6, 11, 16
8, 10843, Control_c, 6, 11, 13
8, 10844, Control_c, 6, 11, 11
8, 10845, Control_c, 6, 11, 8
8, 10846, Control_c, 6, 11, 5
8, 10847, Control_c, 6, 11, 3
8, 10848, Note_off_c, 6, 93, 64
8, 10848, Control_c, 6, 11, 127
8, 10848, Note_on_c, 6, 63, 64
8, 10849, Control_c, 6, 11, 124
8, 10850, Control_c, 6, 11, 122
8, 10851, Control_c, 6, 11, 119
8, 10852, Control_c, 6, 11, 116
8, 10853, Control_c, 6, 11, 114
8, 10854, Control_c, 6, 11, 111
8, 10855, Control_c, 6, 11, 108
8, 10856, Control_c, 6, 11, 106
8, 10857, Control_c, 6, 11, 103
8, 10858, Control_c, 6, 11, 101
8, 10859, Control_c, 6, 11, 98
8, 10860, Control_c, 6, 11, 95
8, 10861, Control_c, 6, 11, 93
8, 10862, Control_c, 6, 11, 90
8, 10863, Control_c, 6, 11, 87
8, 10864, Control_c, 6, 11, 85
8, 10865, Control_c, 6, 11, 82
8, 10866, Control_c, 6, 11, 79
8, 10867, Control_c, 6, 11, 77
8, 10868, Control_c, 6, 11, 74
8, 10869, Control_c, 6, 11, 71
8, 10870, Control_c, 6, 11, 69
8, 10871, Control_c, 6, 11, 66
8, 10872, Control_c, 6, 11, 64
8, 10873, Control_c, 6, 11, 61
8, 10874, Control_c, 6, 11, 58
8, 10875, Control_c, 6, 11, 56
8, 10876, Control_c, 6, 11, 53
8, 10877, Control_c, 6, 11, 50
8, 10878, Control_c, 6, 11, 48
8, 10879, Control_c, 6, 11, 45
8, 10880, Control_c, 6, 11, 42
8, 10881, Control_c, 6, 11, 40
8, 10882, Control_c, 6, 11, 37
8, 10883, Control_c, 6, 11, 34
8, 10884, Control_c, 6, 11, 32
8, 10885, Control_c, 6, 11, 29
8, 10886, Control_c, 6, 11, 26
8, 10887, Control_c, 6, 11, 24
8, 10888, Control_c, 6, 11, 21
8, 10889, Control_c, 6, 11, 19
8, 10890, Control_c, 6, 11, 16
8, 10891, Control_c, 6, 11, 13
8, 10892, Control_c, 6, 11, 11
8, 10893, Control_c, 6, 11, 8
8, 10894, Control_c, 6, 11, 5
8, 10895, Control_c, 6, 11, 3
8, 10896, Note_off_c, 6, 63, 64
8, 10896, Control_c, 6, 11, 127
8, 10896, Note_on_c, 6, 93, 64
8, 10897, Control_c, 6, 11, 124
8, 10898, Control_c, 6, 11, 122
8, 10899, Control_c, 6, 11, 119
8, 10900, Control_c, 6, 11, 116
8, 10901, Control_c, 6, 11, 114
8, 10902, Control_c, 6, 11, 111
8, 10903, Control_c, 6, 11, 108
8, 10904, Control_c, 6, 11, 106
8, 10905, Control_c, 6, 11, 103
8, 10906, Control_c, 6, 11, 101
8, 10907, Control_c, 6, 11, 98
8, 10908, Control_c, 6, 11, 95
8, 10909, Control_c, 6, 11, 93
8, 10910, Control_c, 6, 11, 90
8, 10911, Control_c, 6, 11, 87
8, 10912, Control_c, 6, 11, 85
8, 10913, Control_c, 6, 11, 82
8, 10914, Control_c, 6, 11, 79
8, 10915, Control_c, 6, 11, 77
8, 10916, Control_c, 6, 11, 74
8, 10917, Control_c, 6, 11, 71
8, 10918, Control_c, 6, 11, 69
8, 10919, Control_c, 6, 11, 66
8, 10920, Control_c, 6, 11, 64
8, 10921, Control_c, 6, 11, 61
8, 10922, Control_c, 6, 11, 58
8, 10923, Control_c, 6, 11, 56
8, 10924, Control_c, 6, 11, 53
8, 10925, Control_c, 6, 11, 50
8, 10926, Control_c, 6, 11, 48
8, 10927, Control_c, 6, 11, 45
8, 10928, Control_c, 6, 11, 42
8, 10929, Control_c, 6, 11, 40
8, 10930, Control_c, 6, 11, 37
8, 10931, Control_c, 6, 11, 34
8, 10932, Control_c, 6, 11, 32
8, 10933, Control_c, 6, 11, 29
8, 10934, Control_c, 6, 11, 26
8, 10935, Control_c, 6, 11, 24
8, 10936, Control_c, 6, 11, 21
8, 10937, Control_c, 6, 11, 19
8, 10938, Control_c, 6, 11, 16
8, 10939, Control_c, 6, 11, 13
8, 10940, Control_c, 6, 11, 11
8, 10941, Control_c, 6, 11, 8
8, 10942, Control_c, 6, 11, 5
8, 10943, Control_c, 6, 11, 3
8, 10944, Note_off_c, 6, 93, 64
8, 10944, Control_c, 6, 11, 127
8, 10944, Note_on_c, 6, 33, 64
8, 10945, Control_c, 6, 11, 124
8, 10946, Control_c, 6, 11, 122
8, 10947, Control_c, 6, 11, 119
8, 10948, Control_c, 6, 11, 116
8, 10949, Control_c, 6, 11, 114
8, 10950, Control_c, 6, 11, 111
8, 10951, Control_c, 6, 11, 108
8, 10952, Control_c, 6, 11, 106
8, 10953, Control_c, 6, 11, 103
8, 10954, Control_c, 6, 11, 101
8, 10955, Control_c, 6, 11, 98
8, 10956, Control_c, 6, 11, 95
8, 10957, Control_c, 6, 11, 93
8, 10958, Control_c, 6, 11, 90
8, 10959, Control_c, 6, 11, 87
8, 10960, Control_c, 6, 11, 85
8, 10961, Control_c, 6, 11, 82
8, 10962, Control_c, 6, 11, 79
8, 10963, Control_c, 6, 11, 77
8, 10964, Control_c, 6, 11, 74
8, 10965, Control_c, 6, 11, 71
8, 10966, Control_c, 6, 11, 69
8, 10967, Control_c, 6, 11, 66
8, 10968, Control_c, 6, 11, 64
8, 10969, Control_c, 6, 11, 61
8, 10970, Control_c, 6, 11, 58
8, 10971, Control_c, 6, 11, 56
8, 10972, Control_c, 6, 11, 53
8, 10973, Control_c, 6, 11, 50
8, 10974, Control_c, 6, 11, 48
8, 10975, Control_c, 6, 11, 45
8, 10976, Control_c, 6, 11, 42
8, 10977, Control_c, 6, 11, 40
8, 10978, Control_c, 6, 11, 37
8, 10979, Control_c, 6, 11, 34
8, 10980, Control_c, 6, 11, 32
8, 10981, Control_c, 6, 11, 29
8, 10982, Control_c, 6, 11, 26
8, 10983, Control_c, 6, 11, 24
8, 10984, Control_c, 6, 11, 21
8, 10985, Control_c, 6, 11, 19
8, 10986, Control_c, 6, 11, 16
8, 10987, Control_c, 6, 11, 13
8, 10988, Control_c, 6, 11, 11
8, 10989, Control_c, 6, 11, 8
8, 10990, Control_c, 6, 11, 5
8, 10991, Control_c, 6, 11, 3
8, 10992, Note_off_c, 6, 33, 64
8, 10992, Control_c, 6, 11, 127
8, 10992, Note_on_c, 6, 93, 64
8, 10993, Control_c, 6, 11, 124
8, 10994, Control_c, 6, 11, 122
8, 10995, Control_c, 6, 11, 119
8, 10996, Control_c, 6, 11, 116
8, 10997, Control_c, 6, 11, 114
8, 10998, Control_c, 6, 11, 111
8, 10999, Control_c, 6, 11, 108
8, 11000, Control_c, 6, 11, 106
8, 11001, Control_c, 6, 11, 103
8, 11002, Control_c, 6, 11, 101
8, 11003, Control_c, 6, 11, 98
8, 11004, Control_c, 6, 11, 95
8, 11005, Control_c, 6, 11, 93
8, 11006, Control_c, 6, 11, 90
8, 11007, Control_c, 6, 11, 87
8, 11008, Control_c, 6, 11, 85
8, 11009, Control_c, 6, 11, 82
8, 11010, Control_c, 6, 11, 79
8, 11011, Control_c, 6, 11, 77
8, 11012, Control_c, 6, 11, 74
8, 11013, Control_c, 6, 11, 71
8, 11014, Control_c, 6, 11, 69
8, 11015, Control_c, 6, 11, 66
8, 11016, Control_c, 6, 11, 64
8, 11017, Control_c, 6, 11, 61
8, 11018, Control_c, 6, 11, 58
8, 11019, Control_c, 6, 11, 56
8, 11020, Control_c, 6, 11, 53
8, 11021, Control_c, 6, 11, 50
8, 11022, Control_c, 6, 11, 48
8, 11023, Control_c, 6, 11, 45
8, 11024, Control_c, 6, 11, 42
8, 11025, Control_c, 6, 11, 40
8, 11026, Control_c, 6, 11, 37
8, 11027, Control_c, 6, 11, 34
8, 11028, Control_c, 6, 11, 32
8, 11029, Control_c, 6, 11, 29
8, 11030, Control_c, 6, 11, 26
8, 11031, Control_c, 6, 11, 24
8, 11032, Control_c, 6, 11, 21
8, 11033, Control_c, 6, 11, 19
8, 11034, Control_c, 6, 11, 16
8, 11035, Control_c, 6, 11, 13
8, 11036, Control_c, 6, 11, 11
8, 11037, Control_c, 6, 11, 8
8, 11038, Control_c, 6, 11, 5
8, 11039, Control_c, 6, 11, 3
8, 11040, Note_off_c, 6, 93, 64
8, 11040, Control_c, 6, 11, 127
8, 11040, Note_on_c, 6, 63, 64
8, 11041, Control_c, 6, 11, 124
8, 11042, Control_c, 6, 11, 122
8, 11043, Control_c, 6, 11, 119
8, 11044, Control_c, 6, 11, 116
8, 11045, Control_c, 6, 11, 114
8, 11046, Control_c, 6, 11, 111
8, 11047, Control_c, 6, 11, 108
8, 11048, Control_c, 6, 11, 106
8, 11049, Control_c, 6, 11, 103
8, 11050, Control_c, 6, 11, 101
8, 11051, Control_c, 6, 11, 98
8, 11052, Control_c, 6, 11, 95
8, 11053, Control_c, 6, 11, 93
8, 11054, Control_c, 6, 11, 90
8, 11055, Control_c, 6, 11, 87
8, 11056, Control_c, 6, 11, 85
8, 11057, Control_c, 6, 11, 82
8, 11058, Control_c, 6, 11, 79
8, 11059, Control_c, 6, 11, 77
8, 11060, Control_c, 6, 11, 74
8, 11061, Control_c, 6, 11, 71
8, 11062, Control_c, 6, 11, 69
8, 11063, Control_c, 6, 11, 66
8, 11064, Control_c, 6, 11, 64
8, 11065, Control_c, 6, 11, 61
8, 11066, Control_c, 6, 11, 58
8, 11067, Control_c, 6, 11, 56
8, 11068, Control_c, 6, 11, 53
8, 11069, Control_c, 6, 11, 50
8, 11070, Control_c, 6, 11, 48
8, 11071, Control_c, 6, 11, 45
8, 11072, Control_c, 6, 11, 42
8, 11073, Control_c, 6, 11, 40
8, 11074, Control_c, 6, 11, 37
8, 11075, Control_c, 6, 11, 34
8, 11076, Control_c, 6, 11, 32
8, 11077, Control_c, 6, 11, 29
8, 11078, Control_c, 6, 11, 26
8, 11079, Control_c, 6, 11, 24
8, 11080, Control_c, 6, 11, 21
8, 11081, Control_c, 6, 11, 19
8, 11082, Control_c, 6, 11, 16
8, 11083, Control_c, 6, 11, 13
8, 11084, Control_c, 6, 11, 11
8, 11085, Control_c, 6, 11, 8
8, 11086, Control_c, 6, 11, 5
8, 11087, Control_c, 6, 11, 3
8, 11088, Note_off_c, 6, 63, 64
8, 11088, Control_c, 6, 11, 127
8, 11088, Note_on_c, 6, 93, 64
8, 11089, Control_c, 6, 11, 124
8, 11090, Control_c, 6, 11, 122
8, 11091, Control_c, 6, 11, 119
8, 11092, Control_c, 6, 11, 116
8, 11093, Control_c, 6, 11, 114
8, 11094, Control_c, 6, 11, 111
8, 11095, Control_c, 6, 11, 108
8, 11096, Control_c, 6, 11, 106
8, 11097, Control_c, 6, 11, 103
8, 11098, Control_c, 6, 11, 101
8, 11099, Control_c, 6, 11, 98
8, 11100, Control_c, 6, 11, 95
8, 11101, Control_c, 6, 11, 93
8, 11102, Control_c, 6, 11, 90
8, 11103, Control_c, 6, 11, 87
8, 11104, Control_c, 6, 11, 85
8, 11105, Control_c, 6, 11, 82
8, 11106, Control_c, 6, 11, 79
8, 11107, Control_c, 6, 11, 77
8, 11108, Control_c, 6, 11, 74
8, 11109, Control_c, 6, 11, 71
8, 11110, Control_c, 6, 11, 69
8, 11111, Control_c, 6, 11, 66
8, 11112, Control_c, 6, 11, 64
8, 11113, Control_c, 6, 11, 61
8, 11114, Control_c, 6, 11, 58
8, 11115, Control_c, 6, 11, 56
8, 11116, Control_c, 6, 11, 53
8, 11117, Control_c, 6, 11, 50
8, 11118, Control_c, 6, 11, 48
8, 11119, Control_c, 6, 11, 45
8, 11120, Control_c, 6, 11, 42
8, 11121, Control_c, 6, 11, 40
8, 11122, Control_c, 6, 11, 37
8, 11123, Control_c, 6, 11, 34
8, 11124, Control_c, 6, 11, 32
8, 11125, Control_c, 6, 11, 29
8, 11126, Control_c, 6, 11, 26
8, 11127, Control_c, 6, 11, 24
8, 11128, Control_c, 6, 11, 21
8, 11129, Control_c, 6, 11, 19
8, 11130, Control_c, 6, 11, 16
8, 11131, Control_c, 6, 11, 13
8, 11132, Control_c, 6, 11, 11
8, 11133, Control_c, 6, 11, 8
8, 11134, Control_c, 6, 11, 5
8, 11135, Control_c, 6, 11, 3
8, 11136, Note_off_c, 6, 93, 64
8, 11136, Control_c, 6, 11, 127
8, 11136, Note_on_c, 6, 33, 64
8, 11137, Control_c, 6, 11, 124
8, 11138, Control_c, 6, 11, 122
8, 11139, Control_c, 6, 11, 119
8, 11140, Control_c, 6, 11, 116
8, 11141, Control_c, 6, 11, 114
8, 11142, Control_c, 6, 11, 111
8, 11143, Control_c, 6, 11, 108
8, 11144, Control_c, 6, 11, 106
8, 11145, Control_c, 6, 11, 103
8, 11146, Control_c, 6, 11, 101
8, 11147, Control_c, 6, 11, 98
8, 11148, Control_c, 6, 11, 95
8, 11149, Control_c, 6, 11, 93
8, 11150, Control_c, 6, 11, 90
8, 11151, Control_c, 6, 11, 87
8, 11152, Control_c, 6, 11, 85
8, 11153, Control_c, 6, 11, 82
8, 11154, Control_c, 6, 11, 79
8, 11155, Control_c, 6, 11, 77
8, 11156, Control_c, 6, 11, 74
8, 11157, Control_c, 6, 11, 71
8, 11158, Control_c, 6, 11, 69
8, 11159, Control_c, 6, 11, 66
8, 11160, Control_c, 6, 11, 64
8, 11161, Control_c, 6, 11, 61
8, 11162, Control_c, 6, 11, 58
8, 11163, Control_c, 6, 11, 56
8, 11164, Control_c, 6, 11, 53
8, 11165, Control_c, 6, 11, 50
8, 11166, Control_c, 6, 11, 48
8, 11167, Control_c, 6, 11, 45
8, 11168, Control_c, 6, 11, 42
8, 11169, Control_c, 6, 11, 40
8, 11170, Control_c, 6, 11, 37
8, 11171, Control_c, 6, 11, 34
8, 11172, Control_c, 6, 11, 32
8, 11173, Control_c, 6, 11, 29
8, 11174, Control_c, 6, 11, 26
8, 11175, Control_c, 6, 11, 24
8, 11176, Control_c, 6, 11, 21
8, 11177, Control_c, 6, 11, 19
8, 11178, Control_c, 6, 11, 16
8, 11179, Control_c, 6, 11, 13
8, 11180, Control_c, 6, 11, 11
8, 11181, Control_c, 6, 11, 8
8, 11182, Control_c, 6, 11, 5
8, 11183, Control_c, 6, 11, 3
8, 11184, Note_off_c, 6, 33, 64
8, 11184, Control_c, 6, 11, 127
8, 11184, Note_on_c, 6, 93, 64
8, 11185, Control_c, 6, 11, 124
8, 11186, Control_c, 6, 11, 122
8, 11187, Control_c, 6, 11, 119
8, 11188, Control_c, 6, 11, 116
8, 11189, Control_c, 6, 11, 114
8, 11190, Control_c, 6, 11, 111
8, 11191, Control_c, 6, 11, 108
8, 11192, Control_c, 6, 11, 106
8, 11193, Control_c, 6, 11, 103
8, 11194, Control_c, 6, 11, 101
8, 11195, Control_c, 6, 11, 98
8, 11196, Control_c, 6, 11, 95
8, 11197, Control_c, 6, 11, 93
8, 11198, Control_c, 6, 11, 90
8, 11199, Control_c, 6, 11, 87
8, 11200, Control_c, 6, 11, 85
8, 11201, Control_c, 6, 11, 82
8, 11202, Control_c, 6, 11, 79
8, 11203, Control_c, 6, 11, 77
8, 11204, Control_c, 6, 11, 74
8, 11205, Control_c, 6, 11, 71
8, 11206, Control_c, 6, 11, 69
8, 11207, Control_c, 6, 11, 66
8, 11208, Control_c, 6, 11, 64
8, 11209, Control_c, 6, 11, 61
8, 11210, Control_c, 6, 11, 58
8, 11211, Control_c, 6, 11, 56
8, 11212, Control_c, 6, 11, 53
8, 11213, Control_c, 6, 11, 50
8, 11214, Control_c, 6, 11, 48
8, 11215, Control_c, 6, 11, 45
8, 11216, Control_c, 6, 11, 42
8, 11217, Control_c, 6, 11, 40
8, 11218, Control_c, 6, 11, 37
8, 11219, Control_c, 6, 11, 34
8, 11220, Control_c, 6, 11, 32
8, 11221, Control_c, 6, 11, 29
8, 11222, Control_c, 6, 11, 26
8, 11223, Control_c, 6, 11, 24
8, 11224, Control_c, 6, 11, 21
8, 11225, Control_c, 6, 11, 19
8, 11226, Control_c, 6, 11, 16
8, 11227, Control_c, 6, 11, 13
8, 11228, Control_c, 6, 11, 11
8, 11229, Control_c, 6, 11, 8
8, 11230, Control_c, 6, 11, 5
8, 11231, Control_c, 6, 11, 3
8, 11232, Note_off_c, 6, 93, 64
8, 11232, Control_c, 6, 11, 127
8, 11232, Note_on_c, 6, 63, 64
8, 11233, Control_c, 6, 11, 124
8, 11234, Control_c, 6, 11, 122
8, 11235, Control_c, 6, 11, 119
8, 11236, Control_c, 6, 11, 116
8, 11237, Control_c, 6, 11, 114
8, 11238, Control_c, 6, 11, 111
8, 11239, Control_c, 6, 11, 108
8, 11240, Control_c, 6, 11, 106
8, 11241, Control_c, 6, 11, 103
8, 11242, Control_c, 6, 11, 101
8, 11243, Control_c, 6, 11, 98
8, 11244, Control_c, 6, 11, 95
8, 11245, Control_c, 6, 11, 93
8, 11246, Control_c, 6, 11, 90
8, 11247, Control_c, 6, 11, 87
8, 11248, Control_c, 6, 11, 85
8, 11249, Control_c, 6, 11, 82
8, 11250, Control_c, 6, 11, 79
8, 11251, Control_c, 6, 11, 77
8, 11252, Control_c, 6, 11, 74
8, 11253, Control_c, 6, 11, 71
8, 11254, Control_c, 6, 11, 69
8, 11255, Control_c, 6, 11, 66
8, 11256, Control_c, 6, 11, 64
8, 11257, Control_c, 6, 11, 61
8, 11258, Control_c, 6, 11, 58
8, 11259, Control_c, 6, 11, 56
8, 11260, Control_c, 6, 11, 53
8, 11261, Control_c, 6, 11, 50
8, 11262, Control_c, 6, 11, 48
8, 11263, Control_c, 6, 11, 45
8, 11264, Control_c, 6, 11, 42
8, 11265, Control_c, 6, 11, 40
8, 11266, Control_c, 6, 11, 37
8, 11267, Control_c, 6, 11, 34
8, 11268, Control_c, 6, 11, 32
8, 11269, Control_c, 6, 11, 29
8, 11270, Control_c, 6, 11, 26
8, 11271, Control_c, 6, 11, 24
8, 11272, Control_c, 6, 11, 21
8, 11273, Control_c, 6, 11, 19
8, 11274, Control_c, 6, 11, 16
8, 11275, Control_c, 6, 11, 13
8, 11276, Control_c, 6, 11, 11
8, 11277, Control_c, 6, 11, 8
8, 11278, Control_c, 6, 11, 5
8, 11279, Control_c, 6, 11, 3
8, 11280, Note_off_c, 6, 63, 64
8, 11280, Control_c, 6, 11, 127
8, 11280, Note_on_c, 6, 93, 64
8, 11281, Control_c, 6, 11, 124
8, 11282, Control_c, 6, 11, 122
8, 11283, Control_c, 6, 11, 119
8, 11284, Control_c, 6, 11, 116
8, 11285, Control_c, 6, 11, 114
8, 11286, Control_c, 6, 11, 111
8, 11287, Control_c, 6, 11, 108
8, 11288, Control_c, 6, 11, 106
8, 11289, Control_c, 6, 11, 103
8, 11290, Control_c, 6, 11, 101
8, 11291, Control_c, 6, 11, 98
8, 11292, Control_c, 6, 11, 95
8, 11293, Control_c, 6, 11, 93
8, 11294, Control_c, 6, 11, 90
8, 11295, Control_c, 6, 11, 87
8, 11296, Control_c, 6, 11, 85
8, 11297, Control_c, 6, 11, 82
8, 11298, Control_c, 6, 11, 79
8, 11299, Control_c, 6, 11, 77
8, 11300, Control_c, 6, 11, 74
8, 11301, Control_c, 6, 11, 71
8, 11302, Control_c, 6, 11, 69
8, 11303, Control_c, 6, 11, 66
8, 11304, Control_c, 6, 11, 64
8, 11305, Control_c, 6, 11, 61
8, 11306, Control_c, 6, 11, 58
8, 11307, Control_c, 6, 11, 56
8, 11308, Control_c, 6, 11, 53
8, 11309, Control_c, 6, 11, 50
8, 11310, Control_c, 6, 11, 48
8, 11311, Control_c, 6, 11, 45
8, 11312, Control_c, 6, 11, 42
8, 11313, Control_c, 6, 11, 40
8, 11314, Control_c, 6, 11, 37
8, 11315, Control_c, 6, 11, 34
8, 11316, Control_c, 6, 11, 32
8, 11317, Control_c, 6, 11, 29
8, 11318, Control_c, 6, 11, 26
8, 11319, Control_c, 6, 11, 24
8, 11320, Control_c, 6, 11, 21
8, 11321, Control_c, 6, 11, 19
8, 11322, Control_c, 6, 11, 16
8, 11323, Control_c, 6, 11, 13
8, 11324, Control_c, 6, 11, 11
8, 11325, Control_c, 6, 11, 8
8, 11326, Control_c, 6, 11, 5
8, 11327, Control_c, 6, 11, 3
8, 11328, Note_off_c, 6, 93, 64
8, 11328, Control_c, 6, 11, 127
8, 11328, Note_on_c, 6, 33, 64
8, 11329, Control_c, 6, 11, 124
8, 11330, Control_c, 6, 11, 122
8, 11331, Control_c, 6, 11, 119
8, 11332, Control_c, 6, 11, 116
8, 11333, Control_c, 6, 11, 114
8, 11334, Control_c, 6, 11, 111
8, 11335, Control_c, 6, 11, 108
8, 11336, Control_c, 6, 11, 106
8, 11337, Control_c, 6, 11, 103
8, 11338, Control_c, 6, 11, 101
8, 11339, Control_c, 6, 11, 98
8, 11340, Control_c, 6, 11, 95
8, 11341, Control_c, 6, 11, 93
8, 11342, Control_c, 6, 11, 90
8, 11343, Control_c, 6, 11, 87
8, 11344, Control_c, 6, 11, 85
8, 11345, Control_c, 6, 11, 82
8, 11346, Control_c, 6, 11, 79
8, 11347, Control_c, 6, 11, 77
8, 11348, Control_c, 6, 11, 74
8, 11349, Control_c, 6, 11, 71
8, 11350, Control_c, 6, 11, 69
8, 11351, Control_c, 6, 11, 66
8, 11352, Control_c, 6, 11, 64
8, 11353, Control_c, 6, 11, 61
8, 11354, Control_c, 6, 11, 58
8, 11355, Control_c, 6, 11, 56
8, 11356, Control_c, 6, 11, 53
8, 11357, Control_c, 6, 11, 50
8, 11358, Control_c, 6, 11, 48
8, 11359, Control_c, 6, 11, 45
8, 11360, Control_c, 6, 11, 42
8, 11361, Control_c, 6, 11, 40
8, 11362, Control_c, 6, 11, 37
8, 11363, Control_c, 6, 11, 34
8, 11364, Control_c, 6, 11, 32
8, 11365, Control_c, 6, 11, 29
8, 11366, Control_c, 6, 11, 26
8, 11367, Control_c, 6, 11, 24
8, 11368, Control_c, 6, 11, 21
8, 11369, Control_c, 6, 11, 19
8, 11370, Control_c, 6, 11, 16
8, 11371, Control_c, 6, 11, 13
8, 11372, Control_c, 6, 11, 11
8, 11373, Control_c, 6, 11, 8
8, 11374, Control_c, 6, 11, 5
8, 11375, Control_c, 6, 11, 3
8, 11376, Note_off_c, 6, 33, 64
8, 11376, Control_c, 6, 11, 127
8, 11376, Note_on_c, 6, 93, 64
8, 11377, Control_c, 6, 11, 124
8, 11378, Control_c, 6, 11, 122
8, 11379, Control_c, 6, 11, 119
8, 11380, Control_c, 6, 11, 116
8, 11381, Control_c, 6, 11, 114
8, 11382, Control_c, 6, 11, 111
8, 11383, Control_c, 6, 11, 108
8, 11384, Control_c, 6, 11, 106
8, 11385, Control_c, 6, 11, 103
8, 11386, Control_c, 6, 11, 101
8, 11387, Control_c, 6, 11, 98
8, 11388, Control_c, 6, 11, 95
8, 11389, Control_c, 6, 11, 93
8, 11390, Control_c, 6, 11, 90
8, 11391, Control_c, 6, 11, 87
8, 11392, Control_c, 6, 11, 85
8, 11393, Control_c, 6, 11, 82
8, 11394, Control_c, 6, 11, 79
8, 11395, Control_c, 6, 11, 77
8, 11396, Control_c, 6, 11, 74
8, 11397, Control_c, 6, 11, 71
8, 11398, Control_c, 6, 11, 69
8, 11399, Control_c, 6, 11, 66
8, 11400, Control_c, 6, 11, 64
8, 11401, Control_c, 6, 11, 61
8, 11402, Control_c, 6, 11, 58
8, 11403, Control_c, 6, 11, 56
8, 11404, Control_c, 6, 11, 53
8, 11405, Control_c, 6, 11, 50
8, 11406, Control_c, 6, 11, 48
8, 11407, Control_c, 6, 11, 45
8, 11408, Control_c, 6, 11, 42
8, 11409, Control_c, 6, 11, 40
8, 11410, Control_c, 6, 11, 37
8, 11411, Control_c, 6, 11, 34
8, 11412, Control_c, 6, 11, 32
8, 11413, Control_c, 6, 11, 29
8, 11414, Control_c, 6, 11, 26
8, 11415, Control_c, 6, 11, 24
8, 11416, Control_c, 6, 11, 21
8, 11417, Control_c, 6, 11, 19
8, 11418, Control_c, 6, 11, 16
8, 11419, Control_c, 6, 11, 13
8, 11420, Control_c, 6, 11, 11
8, 11421, Control_c, 6, 11, 8
8, 11422, Control_c, 6, 11, 5
8, 11423, Control_c, 6, 11, 3
8, 11424, Note_off_c, 6, 93, 64
8, 11424, Control_c, 6, 11, 127
8, 11424, Note_on_c, 6, 63, 64
8, 11425, Control_c, 6, 11, 124
8, 11426, Control_c, 6, 11, 122
8, 11427, Control_c, 6, 11, 119
8, 11428, Control_c, 6, 11, 116
8, 11429, Control_c, 6, 11, 114
8, 11430, Control_c, 6, 11, 111
8, 11431, Control_c, 6, 11, 108
8, 11432, Control_c, 6, 11, 106
8, 11433, Control_c, 6, 11, 103
8, 11434, Control_c, 6, 11, 101
8, 11435, Control_c, 6, 11, 98
8, 11436, Control_c, 6, 11, 95
8, 11437, Control_c, 6, 11, 93
8, 11438, Control_c, 6, 11, 90
8, 11439, Control_c, 6, 11, 87
8, 11440, Control_c, 6, 11, 85
8, 11441, Control_c, 6, 11, 82
8, 11442, Control_c, 6, 11, 79
8, 11443, Control_c, 6, 11, 77
8, 11444, Control_c, 6, 11, 74
8, 11445, Control_c, 6, 11, 71
8, 11446, Control_c, 6, 11, 69
8, 11447, Control_c, 6, 11, 66
8, 11448, Control_c, 6, 11, 64
8, 11449, Control_c, 6, 11, 61
8, 11450, Control_c, 6, 11, 58
8, 11451, Control_c, 6, 11, 56
8, 11452, Control_c, 6, 11, 53
8, 11453, Control_c, 6, 11, 50
8, 11454, Control_c, 6, 11, 48
8, 11455, Control_c, 6, 11, 45
8, 11456, Control_c, 6, 11, 42
8, 11457, Control_c, 6, 11, 40
8, 11458, Control_c, 6, 11, 37
8, 11459, Control_c, 6, 11, 34
8, 11460, Control_c, 6, 11, 32
8, 11461, Control_c, 6, 11, 29
8, 11462, Control_c, 6, 11, 26
8, 11463, Control_c, 6, 11, 24
8, 11464, Control_c, 6, 11, 21
8, 11465, Control_c, 6, 11, 19
8, 11466, Control_c, 6, 11, 16
8, 11467, Control_c, 6, 11, 13
8, 11468, Control_c, 6, 11, 11
8, 11469, Control_c, 6, 11, 8
8, 11470, Control_c, 6, 11, 5
8, 11471, Control_c, 6, 11, 3
8, 11472, Note_off_c, 6, 63, 64
8, 11472, Control_c, 6, 11, 127
8, 11472, Note_on_c, 6, 63, 64
8, 11473, Control_c, 6, 11, 124
8, 11474, Control_c, 6, 11, 122
8, 11475, Control_c, 6, 11, 119
8, 11476, Control_c, 6, 11, 116
8, 11477, Control_c, 6, 11, 114
8, 11478, Control_c, 6, 11, 111
8, 11479, Control_c, 6, 11, 108
8, 11480, Control_c, 6, 11, 106
8, 11481, Control_c, 6, 11, 103
8, 11482, Control_c, 6, 11, 101
8, 11483, Control_c, 6, 11, 98
8, 11484, Control_c, 6, 11, 95
8, 11485, Control_c, 6, 11, 93
8, 11486, Control_c, 6, 11, 90
8, 11487, Control_c, 6, 11, 87
8, 11488, Control_c, 6, 11, 85
8, 11489, Control_c, 6, 11, 82
8, 11490, Control_c, 6, 11, 79
8, 11491, Control_c, 6, 11, 77
8, 11492, Control_c, 6, 11, 74
8, 11493, Control_c, 6, 11, 71
8, 11494, Control_c, 6, 11, 69
8, 11495, Control_c, 6, 11, 66
8, 11496, Control_c, 6, 11, 64
8, 11497, Control_c, 6, 11, 61
8, 11498, Control_c, 6, 11, 58
8, 11499, Control_c, 6, 11, 56
8, 11500, Control_c, 6, 11, 53
8, 11501, Control_c, 6, 11, 50
8, 11502, Control_c, 6, 11, 48
8, 11503, Control_c, 6, 11, 45
8, 11504, Control_c, 6, 11, 42
8, 11505, Control_c, 6, 11, 40
8, 11506, Control_c, 6, 11, 37
8, 11507, Control_c, 6, 11, 34
8, 11508, Control_c, 6, 11, 32
8, 11509, Control_c, 6, 11, 29
8, 11510, Control_c, 6, 11, 26
8, 11511, Control_c, 6, 11, 24
8, 11512, Control_c, 6, 11, 21
8, 11513, Control_c, 6, 11, 19
8, 11514, Control_c, 6, 11, 16
8, 11515, Control_c, 6, 11, 13
8, 11516, Control_c, 6, 11, 11
8, 11517, Control_c, 6, 11, 8
8, 11518, Control_c, 6, 11, 5
8, 11519, Control_c, 6, 11, 3
8, 11520, Note_off_c, 6, 63, 64
8, 11520, Control_c, 6, 11, 127
8, 11520, Note_on_c, 6, 33, 64
8, 11521, Control_c, 6, 11, 124
8, 11522, Control_c, 6, 11, 122
8, 11523, Control_c, 6, 11, 119
8, 11524, Control_c, 6, 11, 116
8, 11525, Control_c, 6, 11, 114
8, 11526, Control_c, 6, 11, 111
8, 11527, Control_c, 6, 11, 108
8, 11528, Control_c, 6, 11, 106
8, 11529, Control_c, 6, 11, 103
8, 11530, Control_c, 6, 11, 101
8, 11531, Control_c, 6, 11, 98
8, 11532, Control_c, 6, 11, 95
8, 11533, Control_c, 6, 11, 93
8, 11534, Control_c, 6, 11, 90
8, 11535, Control_c, 6, 11, 87
8, 11536, Control_c, 6, 11, 85
8, 11537, Control_c, 6, 11, 82
8, 11538, Control_c, 6, 11, 79
8, 11539, Control_c, 6, 11, 77
8, 11540, Control_c, 6, 11, 74
8, 11541, Control_c, 6, 11, 71
8, 11542, Control_c, 6, 11, 69
8, 11543, Control_c, 6, 11, 66
8, 11544, Control_c, 6, 11, 64
8, 11545, Control_c, 6, 11, 61
8, 11546, Control_c, 6, 11, 58
8, 11547, Control_c, 6, 11, 56
8, 11548, Control_c, 6, 11, 53
8, 11549, Control_c, 6, 11, 50
8, 11550, Control_c, 6, 11, 48
8, 11551, Control_c, 6, 11, 45
8, 11552, Control_c, 6, 11, 42
8, 11553, Control_c, 6, 11, 40
8, 11554, Control_c, 6, 11, 37
8, 11555, Control_c, 6, 11, 34
8, 11556, Control_c, 6, 11, 32
8, 11557, Control_c, 6, 11, 29
8, 11558, Control_c, 6, 11, 26
8, 11559, Control_c, 6, 11, 24
8, 11560, Control_c, 6, 11, 21
8, 11561, Control_c, 6, 11, 19
8, 11562, Control_c, 6, 11, 16
8, 11563, Control_c, 6, 11, 13
8, 11564, Control_c, 6, 11, 11
8, 11565, Control_c, 6, 11, 8
8, 11566, Control_c, 6, 11, 5
8, 11567, Control_c, 6, 11, 3
8, 11568, Note_off_c, 6, 33, 64
8, 11568, Control_c, 6, 11, 127
8, 11568, Note_on_c, 6, 93, 64
8, 11569, Control_c, 6, 11, 124
8, 11570, Control_c, 6, 11, 122
8, 11571, Control_c, 6, 11, 119
8, 11572, Control_c, 6, 11, 116
8, 11573, Control_c, 6, 11, 114
8, 11574, Control_c, 6, 11, 111
8, 11575, Control_c, 6, 11, 108
8, 11576, Control_c, 6, 11, 106
8, 11577, Control_c, 6, 11, 103
8, 11578, Control_c, 6, 11, 101
8, 11579, Control_c, 6, 11, 98
8, 11580, Control_c, 6, 11, 95
8, 11581, Control_c, 6, 11, 93
8, 11582, Control_c, 6, 11, 90
8, 11583, Control_c, 6, 11, 87
8, 11584, Control_c, 6, 11, 85
8, 11585, Control_c, 6, 11, 82
8, 11586, Control_c, 6, 11, 79
8, 11587, Control_c, 6, 11, 77
8, 11588, Control_c, 6, 11, 74
8, 11589, Control_c, 6, 11, 71
8, 11590, Control_c, 6, 11, 69
8, 11591, Control_c, 6, 11, 66
8, 11592, Control_c, 6, 11, 64
8, 11593, Control_c, 6, 11, 61
8, 11594, Control_c, 6, 11, 58
8, 11595, Control_c, 6, 11, 56
8, 11596, Control_c, 6, 11, 53
8, 11597, Control_c, 6, 11, 50
8, 11598, Control_c, 6, 11, 48
8, 11599, Control_c, 6, 11, 45
8, 11600, Control_c, 6, 11, 42
8, 11601, Control_c, 6, 11, 40
8, 11602, Control_c, 6, 11, 37
8, 11603, Control_c, 6, 11, 34
8, 11604, Control_c, 6, 11, 32
8, 11605, Control_c, 6, 11, 29
8, 11606, Control_c, 6, 11, 26
8, 11607, Control_c, 6, 11, 24
8, 11608, Control_c, 6, 11, 21
8, 11609, Control_c, 6, 11, 19
8, 11610, Control_c, 6, 11, 16
8, 11611, Control_c, 6, 11, 13
8, 11612, Control_c, 6, 11, 11
8, 11613, Control_c, 6, 11, 8
8, 11614, Control_c, 6, 11, 5
8, 11615, Control_c, 6, 11, 3
8, 11616, Note_off_c, 6, 93, 64
8, 11616, Control_c, 6, 11, 127
8, 11616, Note_on_c, 6, 63, 64
8, 11617, Control_c, 6, 11, 124
8, 11618, Control_c, 6, 11, 122
8, 11619, Control_c, 6, 11, 119
8, 11620, Control_c, 6, 11, 116
8, 11621, Control_c, 6, 11, 114
8, 11622, Control_c, 6, 11, 111
8, 11623, Control_c, 6, 11, 108
8, 11624, Control_c, 6, 11, 106
8, 11625, Control_c, 6, 11, 103
8, 11626, Control_c, 6, 11, 101
8, 11627, Control_c, 6, 11, 98
8, 11628, Control_c, 6, 11, 95
8, 11629, Control_c, 6, 11, 93
8, 11630, Control_c, 6, 11, 90
8, 11631, Control_c, 6, 11, 87
8, 11632, Control_c, 6, 11, 85
8, 11633, Control_c, 6, 11, 82
8, 11634, Control_c, 6, 11, 79
8, 11635, Control_c, 6, 11, 77
8, 11636, Control_c, 6, 11, 74
8, 11637, Control_c, 6, 11, 71
8, 11638, Control_c, 6, 11, 69
8, 11639, Control_c, 6, 11, 66
8, 11640, Control_c, 6, 11, 64
8, 11641, Control_c, 6, 11, 61
8, 11642, Control_c, 6, 11, 58
8, 11643, Control_c, 6, 11, 56
8, 11644, Control_c, 6, 11, 53
8, 11645, Control_c, 6, 11, 50
8, 11646, Control_c, 6, 11, 48
8, 11647, Control_c, 6, 11, 45
8, 11648, Control_c, 6, 11, 42
8, 11649, Control_c, 6, 11, 40
8, 11650, Control_c, 6, 11, 37
8, 11651, Control_c, 6, 11, 34
8, 11652, Control_c, 6, 11, 32
8, 11653, Control_c, 6, 11, 29
8, 11654, Control_c, 6, 11, 26
8, 11655, Control_c, 6, 11, 24
8, 11656, Control_c, 6, 11, 21
8, 11657, Control_c, 6, 11, 19
8, 11658, Control_c, 6, 11, 16
8, 11659, Control_c, 6, 11, 13
8, 11660, Control_c, 6, 11, 11
8, 11661, Control_c, 6, 11, 8
8, 11662, Control_c, 6, 11, 5
8, 11663, Control_c, 6, 11, 3
8, 11664, Note_off_c, 6, 63, 64
8, 11664, Control_c, 6, 11, 127
8, 11664, Note_on_c, 6, 93, 64
8, 11665, Control_c, 6, 11, 124
8, 11666, Control_c, 6, 11, 122
8, 11667, Control_c, 6, 11, 119
8, 11668, Control_c, 6, 11, 116
8, 11669, Control_c, 6, 11, 114
8, 11670, Control_c, 6, 11, 111
8, 11671, Control_c, 6, 11, 108
8, 11672, Control_c, 6, 11, 106
8, 11673, Control_c, 6, 11, 103
8, 11674, Control_c, 6, 11, 101
8, 11675, Control_c, 6, 11, 98
8, 11676, Control_c, 6, 11, 95
8, 11677, Control_c, 6, 11, 93
8, 11678, Control_c, 6, 11, 90
8, 11679, Control_c, 6, 11, 87
8, 11680, Control_c, 6, 11, 85
8, 11681, Control_c, 6, 11, 82
8, 11682, Control_c, 6, 11, 79
8, 11683, Control_c, 6, 11, 77
8, 11684, Control_c, 6, 11, 74
8, 11685, Control_c, 6, 11, 71
8, 11686, Control_c, 6, 11, 69
8, 11687, Control_c, 6, 11, 66
8, 11688, Control_c, 6, 11, 64
8, 11689, Control_c, 6, 11, 61
8, 11690, Control_c, 6, 11, 58
8, 11691, Control_c, 6, 11, 56
8, 11692, Control_c, 6, 11, 53
8, 11693, Control_c, 6, 11, 50
8, 11694, Control_c, 6, 11, 48
8, 11695, Control_c, 6, 11, 45
8, 11696, Control_c, 6, 11, 42
8, 11697, Control_c, 6, 11, 40
8, 11698, Control_c, 6, 11, 37
8, 11699, Control_c, 6, 11, 34
8, 11700, Control_c, 6, 11, 32
8, 11701, Control_c, 6, 11, 29
8, 11702, Control_c, 6, 11, 26
8, 11703, Control_c, 6, 11, 24
8, 11704, Control_c, 6, 11, 21
8, 11705, Control_c, 6, 11, 19
8, 11706, Control_c, 6, 11, 16
8, 11707, Control_c, 6, 11, 13
8, 11708, Control_c, 6, 11, 11
8, 11709, Control_c, 6, 11, 8
8, 11710, Control_c, 6, 11, 5
8, 11711, Control_c, 6, 11, 3
8, 11712, Note_off_c, 6, 93, 64
8, 11712, Control_c, 6, 11, 127
8, 11712, Note_on_c, 6, 33, 64
8, 11713, Control_c, 6, 11, 124
8, 11714, Control_c, 6, 11, 122
8, 11715, Control_c, 6, 11, 119
8, 11716, Control_c, 6, 11, 116
8, 11717, Control_c, 6, 11, 114
8, 11718, Control_c, 6, 11, 111
8, 11719, Control_c, 6, 11, 108
8, 11720, Control_c, 6, 11, 106
8, 11721, Control_c, 6, 11, 103
8, 11722, Control_c, 6, 11, 101
8, 11723, Control_c, 6, 11, 98
8, 11724, Control_c, 6, 11, 95
8, 11725, Control_c, 6, 11, 93
8, 11726, Control_c, 6, 11, 90
8, 11727, Control_c, 6, 11, 87
8, 11728, Control_c, 6, 11, 85
8, 11729, Control_c, 6, 11, 82
8, 11730, Control_c, 6, 11, 79
8, 11731, Control_c, 6, 11, 77
8, 11732, Control_c, 6, 11, 74
8, 11733, Control_c, 6, 11, 71
8, 11734, Control_c, 6, 11, 69
8, 11735, Control_c, 6, 11, 66
8, 11736, Control_c, 6, 11, 64
8, 11737, Control_c, 6, 11, 61
8, 11738, Control_c, 6, 11, 58
8, 11739, Control_c, 6, 11, 56
8, 11740, Control_c, 6, 11, 53
8, 11741, Control_c, 6, 11, 50
8, 11742, Control_c, 6, 11, 48
8, 11743, Control_c, 6, 11, 45
8, 11744, Control_c, 6, 11, 42
8, 11745, Control_c, 6, 11, 40
8, 11746, Control_c, 6, 11, 37
8, 11747, Control_c, 6, 11, 34
8, 11748, Control_c, 6, 11, 32
8, 11749, Control_c, 6, 11, 29
8, 11750, Control_c, 6, 11, 26
8, 11751, Control_c, 6, 11, 24
8, 11752, Control_c, 6, 11, 21
8, 11753, Control_c, 6, 11, 19
8, 11754, Control_c, 6, 11, 16
8, 11755, Control_c, 6, 11, 13
8, 11756, Control_c, 6, 11, 11
8, 11757, Control_c, 6, 11, 8
8, 11758, Control_c, 6, 11, 5
8, 11759, Control_c, 6, 11, 3
8, 11760, Note_off_c, 6, 33, 64
8, 11760, Control_c, 6, 11, 127
8, 11760, Note_on_c, 6, 93, 64
8, 11761, Control_c, 6, 11, 124
8, 11762, Control_c, 6, 11, 122
8, 11763, Control_c, 6, 11, 119
8, 11764, Control_c, 6, 11, 116
8, 11765, Control_c, 6, 11, 114
8, 11766, Control_c, 6, 11, 111
8, 11767, Control_c, 6, 11, 108
8, 11768, Control_c, 6, 11, 106
8, 11769, Control_c, 6, 11, 103
8, 11770, Control_c, 6, 11, 101
8, 11771, Control_c, 6, 11, 98
8, 11772, Control_c, 6, 11, 95
8, 11773, Control_c, 6, 11, 93
8, 11774, Control_c, 6, 11, 90
8, 11775, Control_c, 6, 11, 87
8, 11776, Control_c, 6, 11, 85
8, 11777, Control_c, 6, 11, 82
8, 11778, Control_c, 6, 11, 79
8, 11779, Control_c, 6, 11, 77
8, 11780, Control_c, 6, 11, 74
8, 11781, Control_c, 6, 11, 71
8, 11782, Control_c, 6, 11, 69
8, 11783, Control_c, 6, 11, 66
8, 11784, Control_c, 6, 11, 64
8, 11785, Control_c, 6, 11, 61
8, 11786, Control_c, 6, 11, 58
8, 11787, Control_c, 6, 11, 56
8, 11788, Control_c, 6, 11, 53
8, 11789, Control_c, 6, 11, 50
8, 11790, Control_c, 6, 11, 48
8, 11791, Control_c, 6, 11, 45
8, 11792, Control_c, 6, 11, 42
8, 11793, Control_c, 6, 11, 40
8, 11794, Control_c, 6, 11, 37
8, 11795, Control_c, 6, 11, 34
8, 11796, Control_c, 6, 11, 32
8, 11797, Control_c, 6, 11, 29
8, 11798, Control_c, 6, 11, 26
8, 11799, Control_c, 6, 11, 24
8, 11800, Control_c, 6, 11, 21
8, 11801, Control_c, 6, 11, 19
8, 11802, Control_c, 6, 11, 16
8, 11803, Control_c, 6, 11, 13
8, 11804, Control_c, 6, 11, 11
8, 11805, Control_c, 6, 11, 8
8, 11806, Control_c, 6, 11, 5
8, 11807, Control_c, 6, 11, 3
8, 11808, Note_off_c, 6, 93, 64
8, 11808, Control_c, 6, 11, 127
8, 11808, Note_on_c, 6, 63, 64
8, 11809, Control_c, 6, 11, 124
8, 11810, Control_c, 6, 11, 122
8, 11811, Control_c, 6, 11, 119
8, 11812, Control_c, 6, 11, 116
8, 11813, Control_c, 6, 11, 114
8, 11814, Control_c, 6, 11, 111
8, 11815, Control_c, 6, 11, 108
8, 11816, Control_c, 6, 11, 106
8, 11817, Control_c, 6, 11, 103
8, 11818, Control_c, 6, 11, 101
8, 11819, Control_c, 6, 11, 98
8, 11820, Control_c, 6, 11, 95
8, 11821, Control_c, 6, 11, 93
8, 11822, Control_c, 6, 11, 90
8, 11823, Control_c, 6, 11, 87
8, 11824, Control_c, 6, 11, 85
8, 11825, Control_c, 6, 11, 82
8, 11826, Control_c, 6, 11, 79
8, 11827, Control_c, 6, 11, 77
8, 11828, Control_c, 6, 11, 74
8, 11829, Control_c, 6, 11, 71
8, 11830, Control_c, 6, 11, 69
8, 11831, Control_c, 6, 11, 66
8, 11832, Control_c, 6, 11, 64
8, 11833, Control_c, 6, 11, 61
8, 11834, Control_c, 6, 11, 58
8, 11835, Control_c, 6, 11, 56
8, 11836, Control_c, 6, 11, 53
8, 11837, Control_c, 6, 11, 50
8, 11838, Control_c, 6, 11, 48
8, 11839, Control_c, 6, 11, 45
8, 11840, Control_c, 6, 11, 42
8, 11841, Control_c, 6, 11, 40
8, 11842, Control_c, 6, 11, 37
8, 11843, Control_c, 6, 11, 34
8, 11844, Control_c, 6, 11, 32
8, 11845, Control_c, 6, 11, 29
8, 11846, Control_c, 6, 11, 26
8, 11847, Control_c, 6, 11, 24
8, 11848, Control_c, 6, 11, 21
8, 11849, Control_c, 6, 11, 19
8, 11850, Control_c, 6, 11, 16
8, 11851, Control_c, 6, 11, 13
8, 11852, Control_c, 6, 11, 11
8, 11853, Control_c, 6, 11, 8
8, 11854, Control_c, 6, 11, 5
8, 11855, Control_c, 6, 11, 3
8, 11856, Note_off_c, 6, 63, 64
8, 11856, Control_c, 6, 11, 127
8, 11856, Note_on_c, 6, 93, 64
8, 11857, Control_c, 6, 11, 124
8, 11858, Control_c, 6, 11, 122
8, 11859, Control_c, 6, 11, 119
8, 11860, Control_c, 6, 11, 116
8, 11861, Control_c, 6, 11, 114
8, 11862, Control_c, 6, 11, 111
8, 11863, Control_c, 6, 11, 108
8, 11864, Control_c, 6, 11, 106
8, 11865, Control_c, 6, 11, 103
8, 11866, Control_c, 6, 11, 101
8, 11867, Control_c, 6, 11, 98
8, 11868, Control_c, 6, 11, 95
8, 11869, Control_c, 6, 11, 93
8, 11870, Control_c, 6, 11, 90
8, 11871, Control_c, 6, 11, 87
8, 11872, Control_c, 6, 11, 85
8, 11873, Control_c, 6, 11, 82
8, 11874, Control_c, 6, 11, 79
8, 11875, Control_c, 6, 11, 77
8, 11876, Control_c, 6, 11, 74
8, 11877, Control_c, 6, 11, 71
8, 11878, Control_c, 6, 11, 69
8, 11879, Control_c, 6, 11, 66
8, 11880, Control_c, 6, 11, 64
8, 11881, Control_c, 6, 11, 61
8, 11882, Control_c, 6, 11, 58
8, 11883, Control_c, 6, 11, 56
8, 11884, Control_c, 6, 11, 53
8, 11885, Control_c, 6, 11, 50
8, 11886, Control_c, 6, 11, 48
8, 11887, Control_c, 6, 11, 45
8, 11888, Control_c, 6, 11, 42
8, 11889, Control_c, 6, 11, 40
8, 11890, Control_c, 6, 11, 37
8, 11891, Control_c, 6, 11, 34
8, 11892, Control_c, 6, 11, 32
8, 11893, Control_c, 6, 11, 29
8, 11894, Control_c, 6, 11, 26
8, 11895, Control_c, 6, 11, 24
8, 11896, Control_c, 6, 11, 21
8, 11897, Control_c, 6, 11, 19
8, 11898, Control_c, 6, 11, 16
8, 11899, Control_c, 6, 11, 13
8, 11900, Control_c, 6, 11, 11
8, 11901, Control_c, 6, 11, 8
8, 11902, Control_c, 6, 11, 5
8, 11903, Control_c, 6, 11, 3
8, 11904, Note_off_c, 6, 93, 64
8, 11904, Control_c, 6, 11, 127
8, 11904, Note_on_c, 6, 33, 64
8, 11905, Control_c, 6, 11, 124
8, 11906, Control_c, 6, 11, 122
8, 11907, Control_c, 6, 11, 119
8, 11908, Control_c, 6, 11, 116
8, 11909, Control_c, 6, 11, 114
8, 11910, Control_c, 6, 11, 111
8, 11911, Control_c, 6, 11, 108
8, 11912, Control_c, 6, 11, 106
8, 11913, Control_c, 6, 11, 103
8, 11914, Control_c, 6, 11, 101
8, 11915, Control_c, 6, 11, 98
8, 11916, Control_c, 6, 11, 95
8, 11917, Control_c, 6, 11, 93
8, 11918, Control_c, 6, 11, 90
8, 11919, Control_c, 6, 11, 87
8, 11920, Control_c, 6, 11, 85
8, 11921, Control_c, 6, 11, 82
8, 11922, Control_c, 6, 11, 79
8, 11923, Control_c, 6, 11, 77
8, 11924, Control_c, 6, 11, 74
8, 11925, Control_c, 6, 11, 71
8, 11926, Control_c, 6, 11, 69
8, 11927, Control_c, 6, 11, 66
8, 11928, Control_c, 6, 11, 64
8, 11929, Control_c, 6, 11, 61
8, 11930, Control_c, 6, 11, 58
8, 11931, Control_c, 6, 11, 56
8, 11932, Control_c, 6, 11, 53
8, 11933, Control_c, 6, 11, 50
8, 11934, Control_c, 6, 11, 48
8, 11935, Control_c, 6, 11, 45
8, 11936, Control_c, 6, 11, 42
8, 11937, Control_c, 6, 11, 40
8, 11938, Control_c, 6, 11, 37
8, 11939, Control_c, 6, 11, 34
8, 11940, Control_c, 6, 11, 32
8, 11941, Control_c, 6, 11, 29
8, 11942, Control_c, 6, 11, 26
8, 11943, Control_c, 6, 11, 24
8, 11944, Control_c, 6, 11, 21
8, 11945, Control_c, 6, 11, 19
8, 11946, Control_c, 6, 11, 16
8, 11947, Control_c, 6, 11, 13
8, 11948, Control_c, 6, 11, 11
8, 11949, Control_c, 6, 11, 8
8, 11950, Control_c, 6, 11, 5
8, 11951, Control_c, 6, 11, 3
8, 11952, Note_off_c, 6, 33, 64
8, 11952, Control_c, 6, 11, 127
8, 11952, Note_on_c, 6, 93, 64
8, 11953, Control_c, 6, 11, 124
8, 11954, Control_c, 6, 11, 122
8, 11955, Control_c, 6, 11, 119
8, 11956, Control_c, 6, 11, 116
8, 11957, Control_c, 6, 11, 114
8, 11958, Control_c, 6, 11, 111
8, 11959, Control_c, 6, 11, 108
8, 11960, Control_c, 6, 11, 106
8, 11961, Control_c, 6, 11, 103
8, 11962, Control_c, 6, 11, 101
8, 11963, Control_c, 6, 11, 98
8, 11964, Control_c, 6, 11, 95
8, 11965, Control_c, 6, 11, 93
8, 11966, Control_c, 6, 11, 90
8, 11967, Control_c, 6, 11, 87
8, 11968, Control_c, 6, 11, 85
8, 11969, Control_c, 6, 11, 82
8, 11970, Control_c, 6, 11, 79
8, 11971, Control_c, 6, 11, 77
8, 11972, Control_c, 6, 11, 74
8, 11973, Control_c, 6, 11, 71
8, 11974, Control_c, 6, 11, 69
8, 11975, Control_c, 6, 11, 66
8, 11976, Control_c, 6, 11, 64
8, 11977, Control_c, 6, 11, 61
8, 11978, Control_c, 6, 11, 58
8, 11979, Control_c, 6, 11, 56
8, 11980, Control_c, 6, 11, 53
8, 11981, Control_c, 6, 11, 50
8, 11982, Control_c, 6, 11, 48
8, 11983, Control_c, 6, 11, 45
8, 11984, Control_c, 6, 11, 42
8, 11985, Control_c, 6, 11, 40
8, 11986, Control_c, 6, 11, 37
8, 11987, Control_c, 6, 11, 34
8, 11988, Control_c, 6, 11, 32
8, 11989, Control_c, 6, 11, 29
8, 11990, Control_c, 6, 11, 26
8, 11991, Control_c, 6, 11, 24
8, 11992, Control_c, 6, 11, 21
8, 11993, Control_c, 6, 11, 19
8, 11994, Control_c, 6, 11, 16
8, 11995, Control_c, 6, 11, 13
8, 11996, Control_c, 6, 11, 11
8, 11997, Control_c, 6, 11, 8
8, 11998, Control_c, 6, 11, 5
8, 11999, Control_c, 6, 11, 3
8, 12000, Note_off_c, 6, 93, 64
8, 12000, Control_c, 6, 11, 127
8, 12000, Note_on_c, 6, 63, 64
8, 12001, Control_c, 6, 11, 124
8, 12002, Control_c, 6, 11, 122
8, 12003, Control_c, 6, 11, 119
8, 12004, Control_c, 6, 11, 116
8, 12005, Control_c, 6, 11, 114
8, 12006, Control_c, 6, 11, 111
8, 12007, Control_c, 6, 11, 108
8, 12008, Control_c, 6, 11, 106
8, 12009, Control_c, 6, 11, 103
8, 12010, Control_c, 6, 11, 101
8, 12011, Control_c, 6, 11, 98
8, 12012, Control_c, 6, 11, 95
8, 12013, Control_c, 6, 11, 93
8, 12014, Control_c, 6, 11, 90
8, 12015, Control_c, 6, 11, 87
8, 12016, Control_c, 6, 11, 85
8, 12017, Control_c, 6, 11, 82
8, 12018, Control_c, 6, 11, 79
8, 12019, Control_c, 6, 11, 77
8, 12020, Control_c, 6, 11, 74
8, 12021, Control_c, 6, 11, 71
8, 12022, Control_c, 6, 11, 69
8, 12023, Control_c, 6, 11, 66
8, 12024, Control_c, 6, 11, 64
8, 12025, Control_c, 6, 11, 61
8, 12026, Control_c, 6, 11, 58
8, 12027, Control_c, 6, 11, 56
8, 12028, Control_c, 6, 11, 53
8, 12029, Control_c, 6, 11, 50
8, 12030, Control_c, 6, 11, 48
8, 12031, Control_c, 6, 11, 45
8, 12032, Control_c, 6, 11, 42
8, 12033, Control_c, 6, 11, 40
8, 12034, Control_c, 6, 11, 37
8, 12035, Control_c, 6, 11, 34
8, 12036, Control_c, 6, 11, 32
8, 12037, Control_c, 6, 11, 29
8, 12038, Control_c, 6, 11, 26
8, 12039, Control_c, 6, 11, 24
8, 12040, Control_c, 6, 11, 21
8, 12041, Control_c, 6, 11, 19
8, 12042, Control_c, 6, 11, 16
8, 12043, Control_c, 6, 11, 13
8, 12044, Control_c, 6, 11, 11
8, 12045, Control_c, 6, 11, 8
8, 12046, Control_c, 6, 11, 5
8, 12047, Control_c, 6, 11, 3
8, 12048, Note_off_c, 6, 63, 64
8, 12048, Control_c, 6, 11, 127
8, 12048, Note_on_c, 6, 93, 64
8, 12049, Control_c, 6, 11, 124
8, 12050, Control_c, 6, 11, 122
8, 12051, Control_c, 6, 11, 119
8, 12052, Control_c, 6, 11, 116
8, 12053, Control_c, 6, 11, 114
8, 12054, Control_c, 6, 11, 111
8, 12055, Control_c, 6, 11, 108
8, 12056, Control_c, 6, 11, 106
8, 12057, Control_c, 6, 11, 103
8, 12058, Control_c, 6, 11, 101
8, 12059, Control_c, 6, 11, 98
8, 12060, Control_c, 6, 11, 95
8, 12061, Control_c, 6, 11, 93
8, 12062, Control_c, 6, 11, 90
8, 12063, Control_c, 6, 11, 87
8, 12064, Control_c, 6, 11, 85
8, 12065, Control_c, 6, 11, 82
8, 12066, Control_c, 6, 11, 79
8, 12067, Control_c, 6, 11, 77
8, 12068, Control_c, 6, 11, 74
8, 12069, Control_c, 6, 11, 71
8, 12070, Control_c, 6, 11, 69
8, 12071, Control_c, 6, 11, 66
8, 12072, Control_c, 6, 11, 64
8, 12073, Control_c, 6, 11, 61
8, 12074, Control_c, 6, 11, 58
8, 12075, Control_c, 6, 11, 56
8, 12076, Control_c, 6, 11, 53
8, 12077, Control_c, 6, 11, 50
8, 12078, Control_c, 6, 11, 48
8, 12079, Control_c, 6, 11, 45
8, 12080, Control_c, 6, 11, 42
8, 12081, Control_c, 6, 11, 40
8, 12082, Control_c, 6, 11, 37
8, 12083, Control_c, 6, 11, 34
8, 12084, Control_c, 6, 11, 32
8, 12085, Control_c, 6, 11, 29
8, 12086, Control_c, 6, 11, 26
8, 12087, Control_c, 6, 11, 24
8, 12088, Control_c, 6, 11, 21
8, 12089, Control_c, 6, 11, 19
8, 12090, Control_c, 6, 11, 16
8, 12091, Control_c, 6, 11, 13
8, 12092, Control_c, 6, 11, 11
8, 12093, Control_c, 6, 11, 8
8, 12094, Control_c, 6, 11, 5
8, 12095, Control_c, 6, 11, 3
8, 12096, Note_off_c, 6, 93, 64
8, 12096, Control_c, 6, 11, 127
8, 12096, Note_on_c, 6, 33, 64
8, 12097, Control_c, 6, 11, 124
8, 12098, Control_c, 6, 11, 122
8, 12099, Control_c, 6, 11, 119
8, 12100, Control_c, 6, 11, 116
8, 12101, Control_c, 6, 11, 114
8, 12102, Control_c, 6, 11, 111
8, 12103, Control_c, 6, 11, 108
8, 12104, Control_c, 6, 11, 106
8, 12105, Control_c, 6, 11, 103
8, 12106, Control_c, 6, 11, 101
8, 12107, Control_c, 6, 11, 98
8, 12108, Control_c, 6, 11, 95
8, 12109, Control_c, 6, 11, 93
8, 12110, Control_c, 6, 11, 90
8, 12111, Control_c, 6, 11, 87
8, 12112, Control_c, 6, 11, 85
8, 12113, Control_c, 6, 11, 82
8, 12114, Control_c, 6, 11, 79
8, 12115, Control_c, 6, 11, 77
8, 12116, Control_c, 6, 11, 74
8, 12117, Control_c, 6, 11, 71
8, 12118, Control_c, 6, 11, 69
8, 12119, Control_c, 6, 11, 66
8, 12120, Control_c, 6, 11, 64
8, 12121, Control_c, 6, 11, 61
8, 12122, Control_c, 6, 11, 58
8, 12123, Control_c, 6, 11, 56
8, 12124, Control_c, 6, 11, 53
8, 12125, Control_c, 6, 11, 50
8, 12126, Control_c, 6, 11, 48
8, 12127, Control_c, 6, 11, 45
8, 12128, Control_c, 6, 11, 42
8, 12129, Control_c, 6, 11, 40
8, 12130, Control_c, 6, 11, 37
8, 12131, Control_c, 6, 11, 34
8, 12132, Control_c, 6, 11, 32
8, 12133, Control_c, 6, 11, 29
8, 12134, Control_c, 6, 11, 26
8, 12135, Control_c, 6, 11, 24
8, 12136, Control_c, 6, 11, 21
8, 12137, Control_c, 6, 11, 19
8, 12138, Control_c, 6, 11, 16
8, 12139, Control_c, 6, 11, 13
8, 12140, Control_c, 6, 11, 11
8, 12141, Control_c, 6, 11, 8
8, 12142, Control_c, 6, 11, 5
8, 12143, Control_c, 6, 11, 3
8, 12144, Note_off_c, 6, 33, 64
8, 12144, Control_c, 6, 11, 127
8, 12144, Note_on_c, 6, 93, 64
8, 12145, Control_c, 6, 11, 124
8, 12146, Control_c, 6, 11, 122
8, 12147, Control_c, 6, 11, 119
8, 12148, Control_c, 6, 11, 116
8, 12149, Control_c, 6, 11, 114
8, 12150, Control_c, 6, 11, 111
8, 12151, Control_c, 6, 11, 108
8, 12152, Control_c, 6, 11, 106
8, 12153, Control_c, 6, 11, 103
8, 12154, Control_c, 6, 11, 101
8, 12155, Control_c, 6, 11, 98
8, 12156, Control_c, 6, 11, 95
8, 12157, Control_c, 6, 11, 93
8, 12158, Control_c, 6, 11, 90
8, 12159, Control_c, 6, 11, 87
8, 12160, Control_c, 6, 11, 85
8, 12161, Control_c, 6, 11, 82
8, 12162, Control_c, 6, 11, 79
8, 12163, Control_c, 6, 11, 77
8, 12164, Control_c, 6, 11, 74
8, 12165, Control_c, 6, 11, 71
8, 12166, Control_c, 6, 11, 69
8, 12167, Control_c, 6, 11, 66
8, 12168, Control_c, 6, 11, 64
8, 12169, Control_c, 6, 11, 61
8, 12170, Control_c, 6, 11, 58
8, 12171, Control_c, 6, 11, 56
8, 12172, Control_c, 6, 11, 53
8, 12173, Control_c, 6, 11, 50
8, 12174, Control_c, 6, 11, 48
8, 12175, Control_c, 6, 11, 45
8, 12176, Control_c, 6, 11, 42
8, 12177, Control_c, 6, 11, 40
8, 12178, Control_c, 6, 11, 37
8, 12179, Control_c, 6, 11, 34
8, 12180, Control_c, 6, 11, 32
8, 12181, Control_c, 6, 11, 29
8, 12182, Control_c, 6, 11, 26
8, 12183, Control_c, 6, 11, 24
8, 12184, Control_c, 6, 11, 21
8, 12185, Control_c, 6, 11, 19
8, 12186, Control_c, 6, 11, 16
8, 12187, Control_c, 6, 11, 13
8, 12188, Control_c, 6, 11, 11
8, 12189, Control_c, 6, 11, 8
8, 12190, Control_c, 6, 11, 5
8, 12191, Control_c, 6, 11, 3
8, 12192, Note_off_c, 6, 93, 64
8, 12192, Control_c, 6, 11, 127
8, 12192, Note_on_c, 6, 63, 64
8, 12193, Control_c, 6, 11, 124
8, 12194, Control_c, 6, 11, 122
8, 12195, Control_c, 6, 11, 119
8, 12196, Control_c, 6, 11, 116
8, 12197, Control_c, 6, 11, 114
8, 12198, Control_c, 6, 11, 111
8, 12199, Control_c, 6, 11, 108
8, 12200, Control_c, 6, 11, 106
8, 12201, Control_c, 6, 11, 103
8, 12202, Control_c, 6, 11, 101
8, 12203, Control_c, 6, 11, 98
8, 12204, Control_c, 6, 11, 95
8, 12205, Control_c, 6, 11, 93
8, 12206, Control_c, 6, 11, 90
8, 12207, Control_c, 6, 11, 87
8, 12208, Control_c, 6, 11, 85
8, 12209, Control_c, 6, 11, 82
8, 12210, Control_c, 6, 11, 79
8, 12211, Control_c, 6, 11, 77
8, 12212, Control_c, 6, 11, 74
8, 12213, Control_c, 6, 11, 71
8, 12214, Control_c, 6, 11, 69
8, 12215, Control_c, 6, 11, 66
8, 12216, Control_c, 6, 11, 64
8, 12217, Control_c, 6, 11, 61
8, 12218, Control_c, 6, 11, 58
8, 12219, Control_c, 6, 11, 56
8, 12220, Control_c, 6, 11, 53
8, 12221, Control_c, 6, 11, 50
8, 12222, Control_c, 6, 11, 48
8, 12223, Control_c, 6, 11, 45
8, 12224, Control_c, 6, 11, 42
8, 12225, Control_c, 6, 11, 40
8, 12226, Control_c, 6, 11, 37
8, 12227, Control_c, 6, 11, 34
8, 12228, Control_c, 6, 11, 32
8, 12229, Control_c, 6, 11, 29
8, 12230, Control_c, 6, 11, 26
8, 12231, Control_c, 6, 11, 24
8, 12232, Control_c, 6, 11, 21
8, 12233, Control_c, 6, 11, 19
8, 12234, Control_c, 6, 11, 16
8, 12235, Control_c, 6, 11, 13
8, 12236, Control_c, 6, 11, 11
8, 12237, Control_c, 6, 11, 8
8, 12238, Control_c, 6, 11, 5
8, 12239, Control_c, 6, 11, 3
8, 12240, Note_off_c, 6, 63, 64
8, 12240, Control_c, 6, 11, 127
8, 12240, Note_on_c, 6, 63, 64
8, 12241, Control_c, 6, 11, 124
8, 12242, Control_c, 6, 11, 122
8, 12243, Control_c, 6, 11, 119
8, 12244, Control_c, 6, 11, 116
8, 12245, Control_c, 6, 11, 114
8, 12246, Control_c, 6, 11, 111
8, 12247, Control_c, 6, 11, 108
8, 12248, Control_c, 6, 11, 106
8, 12249, Control_c, 6, 11, 103
8, 12250, Control_c, 6, 11, 101
8, 12251, Control_c, 6, 11, 98
8, 12252, Control_c, 6, 11, 95
8, 12253, Control_c, 6, 11, 93
8, 12254, Control_c, 6, 11, 90
8, 12255, Control_c, 6, 11, 87
8, 12256, Control_c, 6, 11, 85
8, 12257, Control_c, 6, 11, 82
8, 12258, Control_c, 6, 11, 79
8, 12259, Control_c, 6, 11, 77
8, 12260, Control_c, 6, 11, 74
8, 12261, Control_c, 6, 11, 71
8, 12262, Control_c, 6, 11, 69
8, 12263, Control_c, 6, 11, 66
8, 12264, Control_c, 6, 11, 64
8, 12265, Control_c, 6, 11, 61
8, 12266, Control_c, 6, 11, 58
8, 12267, Control_c, 6, 11, 56
8, 12268, Control_c, 6, 11, 53
8, 12269, Control_c, 6, 11, 50
8, 12270, Control_c, 6, 11, 48
8, 12271, Control_c, 6, 11, 45
8, 12272, Control_c, 6, 11, 42
8, 12273, Control_c, 6, 11, 40
8, 12274, Control_c, 6, 11, 37
8, 12275, Control_c, 6, 11, 34
8, 12276, Control_c, 6, 11, 32
8, 12277, Control_c, 6, 11, 29
8, 12278, Control_c, 6, 11, 26
8, 12279, Control_c, 6, 11, 24
8, 12280, Control_c, 6, 11, 21
8, 12281, Control_c, 6, 11, 19
8, 12282, Control_c, 6, 11, 16
8, 12283, Control_c, 6, 11, 13
8, 12284, Control_c, 6, 11, 11
8, 12285, Control_c, 6, 11, 8
8, 12286, Control_c, 6, 11, 5
8, 12287, Control_c, 6, 11, 3
8, 12288, Note_off_c, 6, 63, 64
8, 12288, Control_c, 6, 11, 127
8, 12288, Note_on_c, 6, 33, 64
8, 12289, Control_c, 6, 11, 124
8, 12290, Control_c, 6, 11, 122
8, 12291, Control_c, 6, 11, 119
8, 12292, Control_c, 6, 11, 116
8, 12293, Control_c, 6, 11, 114
8, 12294, Control_c, 6, 11, 111
8, 12295, Control_c, 6, 11, 108
8, 12296, Control_c, 6, 11, 106
8, 12297, Control_c, 6, 11, 103
8, 12298, Control_c, 6, 11, 101
8, 12299, Control_c, 6, 11, 98
8, 12300, Control_c, 6, 11, 95
8, 12301, Control_c, 6, 11, 93
8, 12302, Control_c, 6, 11, 90
8, 12303, Control_c, 6, 11, 87
8, 12304, Control_c, 6, 11, 85
8, 12305, Control_c, 6, 11, 82
8, 12306, Control_c, 6, 11, 79
8, 12307, Control_c, 6, 11, 77
8, 12308, Control_c, 6, 11, 74
8, 12309, Control_c, 6, 11, 71
8, 12310, Control_c, 6, 11, 69
8, 12311, Control_c, 6, 11, 66
8, 12312, Control_c, 6, 11, 64
8, 12313, Control_c, 6, 11, 61
8, 12314, Control_c, 6, 11, 58
8, 12315, Control_c, 6, 11, 56
8, 12316, Control_c, 6, 11, 53
8, 12317, Control_c, 6, 11, 50
8, 12318, Control_c, 6, 11, 48
8, 12319, Control_c, 6, 11, 45
8, 12320, Control_c, 6, 11, 42
8, 12321, Control_c, 6, 11, 40
8, 12322, Control_c, 6, 11, 37
8, 12323, Control_c, 6, 11, 34
8, 12324, Control_c, 6, 11, 32
8, 12325, Control_c, 6, 11, 29
8, 12326, Control_c, 6, 11, 26
8, 12327, Control_c, 6, 11, 24
8, 12328, Control_c, 6, 11, 21
8, 12329, Control_c, 6, 11, 19
8, 12330, Control_c, 6, 11, 16
8, 12331, Control_c, 6, 11, 13
8, 12332, Control_c, 6, 11, 11
8, 12333, Control_c, 6, 11, 8
8, 12334, Control_c, 6, 11, 5
8, 12335, Control_c, 6, 11, 3
8, 12336, Note_off_c, 6, 33, 64
8, 12336, Control_c, 6, 11, 127
8, 12336, Note_on_c, 6, 93, 64
8, 12337, Control_c, 6, 11, 124
8, 12338, Control_c, 6, 11, 122
8, 12339, Control_c, 6, 11, 119
8, 12340, Control_c, 6, 11, 116
8, 12341, Control_c, 6, 11, 114
8, 12342, Control_c, 6, 11, 111
8, 12343, Control_c, 6, 11, 108
8, 12344, Control_c, 6, 11, 106
8, 12345, Control_c, 6, 11, 103
8, 12346, Control_c, 6, 11, 101
8, 12347, Control_c, 6, 11, 98
8, 12348, Control_c, 6, 11, 95
8, 12349, Control_c, 6, 11, 93
8, 12350, Control_c, 6, 11, 90
8, 12351, Control_c, 6, 11, 87
8, 12352, Control_c, 6, 11, 85
8, 12353, Control_c, 6, 11, 82
8, 12354, Control_c, 6, 11, 79
8, 12355, Control_c, 6, 11, 77
8, 12356, Control_c, 6, 11, 74
8, 12357, Control_c, 6, 11, 71
8, 12358, Control_c, 6, 11, 69
8, 12359, Control_c, 6, 11, 66
8, 12360, Control_c, 6, 11, 64
8, 12361, Control_c, 6, 11, 61
8, 12362, Control_c, 6, 11, 58
8, 12363, Control_c, 6, 11, 56
8, 12364, Control_c, 6, 11, 53
8, 12365, Control_c, 6, 11, 50
8, 12366, Control_c, 6, 11, 48
8, 12367, Control_c, 6, 11, 45
8, 12368, Control_c, 6, 11, 42
8, 12369, Control_c, 6, 11, 40
8, 12370, Control_c, 6, 11, 37
8, 12371, Control_c, 6, 11, 34
8, 12372, Control_c, 6, 11, 32
8, 12373, Control_c, 6, 11, 29
8, 12374, Control_c, 6, 11, 26
8, 12375, Control_c, 6, 11, 24
8, 12376, Control_c, 6, 11, 21
8, 12377, Control_c, 6, 11, 19
8, 12378, Control_c, 6, 11, 16
8, 12379, Control_c, 6, 11, 13
8, 12380, Control_c, 6, 11, 11
8, 12381, Control_c, 6, 11, 8
8, 12382, Control_c, 6, 11, 5
8, 12383, Control_c, 6, 11, 3
8, 12384, Note_off_c, 6, 93, 64
8, 12384, Control_c, 6, 11, 127
8, 12384, Note_on_c, 6, 63, 64
8, 12385, Control_c, 6, 11, 124
8, 12386, Control_c, 6, 11, 122
8, 12387, Control_c, 6, 11, 119
8, 12388, Control_c, 6, 11, 116
8, 12389, Control_c, 6, 11, 114
8, 12390, Control_c, 6, 11, 111
8, 12391, Control_c, 6, 11, 108
8, 12392, Control_c, 6, 11, 106
8, 12393, Control_c, 6, 11, 103
8, 12394, Control_c, 6, 11, 101
8, 12395, Control_c, 6, 11, 98
8, 12396, Control_c, 6, 11, 95
8, 12397, Control_c, 6, 11, 93
8, 12398, Control_c, 6, 11, 90
8, 12399, Control_c, 6, 11, 87
8, 12400, Control_c, 6, 11, 85
8, 12401, Control_c, 6, 11, 82
8, 12402, Control_c, 6, 11, 79
8, 12403, Control_c, 6, 11, 77
8, 12404, Control_c, 6, 11, 74
8, 12405, Control_c, 6, 11, 71
8, 12406, Control_c, 6, 11, 69
8, 12407, Control_c, 6, 11, 66
8, 12408, Control_c, 6, 11, 64
8, 12409, Control_c, 6, 11, 61
8, 12410, Control_c, 6, 11, 58
8, 12411, Control_c, 6, 11, 56
8, 12412, Control_c, 6, 11, 53
8, 12413, Control_c, 6, 11, 50
8, 12414, Control_c, 6, 11, 48
8, 12415, Control_c, 6, 11, 45
8, 12416, Control_c, 6, 11, 42
8, 12417, Control_c, 6, 11, 40
8, 12418, Control_c, 6, 11, 37
8, 12419, Control_c, 6, 11, 34
8, 12420, Control_c, 6, 11, 32
8, 12421, Control_c, 6, 11, 29
8, 12422, Control_c, 6, 11, 26
8, 12423, Control_c, 6, 11, 24
8, 12424, Control_c, 6, 11, 21
8, 12425, Control_c, 6, 11, 19
8, 12426, Control_c, 6, 11, 16
8, 12427, Control_c, 6, 11, 13
8, 12428, Control_c, 6, 11, 11
8, 12429, Control_c, 6, 11, 8
8, 12430, Control_c, 6, 11, 5
8, 12431, Control_c, 6, 11, 3
8, 12432, Note_off_c, 6, 63, 64
8, 12432, Control_c, 6, 11, 127
8, 12432, Note_on_c, 6, 93, 64
8, 12433, Control_c, 6, 11, 124
8, 12434, Control_c, 6, 11, 122
8, 12435, Control_c, 6, 11, 119
8, 12436, Control_c, 6, 11, 116
8, 12437, Control_c, 6, 11, 114
8, 12438, Control_c, 6, 11, 111
8, 12439, Control_c, 6, 11, 108
8, 12440, Control_c, 6, 11, 106
8, 12441, Control_c, 6, 11, 103
8, 12442, Control_c, 6, 11, 101
8, 12443, Control_c, 6, 11, 98
8, 12444, Control_c, 6, 11, 95
8, 12445, Control_c, 6, 11, 93
8, 12446, Control_c, 6, 11, 90
8, 12447, Control_c, 6, 11, 87
8, 12448, Control_c, 6, 11, 85
8, 12449, Control_c, 6, 11, 82
8, 12450, Control_c, 6, 11, 79
8, 12451, Control_c, 6, 11, 77
8, 12452, Control_c, 6, 11, 74
8, 12453, Control_c, 6, 11, 71
8, 12454, Control_c, 6, 11, 69
8, 12455, Control_c, 6, 11, 66
8, 12456, Control_c, 6, 11, 64
8, 12457, Control_c, 6, 11, 61
8, 12458, Control_c, 6, 11, 58
8, 12459, Control_c, 6, 11, 56
8, 12460, Control_c, 6, 11, 53
8, 12461, Control_c, 6, 11, 50
8, 12462, Control_c, 6, 11, 48
8, 12463, Control_c, 6, 11, 45
8, 12464, Control_c, 6, 11, 42
8, 12465, Control_c, 6, 11, 40
8, 12466, Control_c, 6, 11, 37
8, 12467, Control_c, 6, 11, 34
8, 12468, Control_c, 6, 11, 32
8, 12469, Control_c, 6, 11, 29
8, 12470, Control_c, 6, 11, 26
8, 12471, Control_c, 6, 11, 24
8, 12472, Control_c, 6, 11, 21
8, 12473, Control_c, 6, 11, 19
8, 12474, Control_c, 6, 11, 16
8, 12475, Control_c, 6, 11, 13
8, 12476, Control_c, 6, 11, 11
8, 12477, Control_c, 6, 11, 8
8, 12478, Control_c, 6, 11, 5
8, 12479, Control_c, 6, 11, 3
8, 12480, Note_off_c, 6, 93, 64
8, 12480, Control_c, 6, 11, 127
8, 12480, Note_on_c, 6, 33, 64
8, 12481, Control_c, 6, 11, 124
8, 12482, Control_c, 6, 11, 122
8, 12483, Control_c, 6, 11, 119
8, 12484, Control_c, 6, 11, 116
8, 12485, Control_c, 6, 11, 114
8, 12486, Control_c, 6, 11, 111
8, 12487, Control_c, 6, 11, 108
8, 12488, Control_c, 6, 11, 106
8, 12489, Control_c, 6, 11, 103
8, 12490, Control_c, 6, 11, 101
8, 12491, Control_c, 6, 11, 98
8, 12492, Control_c, 6, 11, 95
8, 12493, Control_c, 6, 11, 93
8, 12494, Control_c, 6, 11, 90
8, 12495, Control_c, 6, 11, 87
8, 12496, Control_c, 6, 11, 85
8, 12497, Control_c, 6, 11, 82
8, 12498, Control_c, 6, 11, 79
8, 12499, Control_c, 6, 11, 77
8, 12500, Control_c, 6, 11, 74
8, 12501, Control_c, 6, 11, 71
8, 12502, Control_c, 6, 11, 69
8, 12503, Control_c, 6, 11, 66
8, 12504, Control_c, 6, 11, 64
8, 12505, Control_c, 6, 11, 61
8, 12506, Control_c, 6, 11, 58
8, 12507, Control_c, 6, 11, 56
8, 12508, Control_c, 6, 11, 53
8, 12509, Control_c, 6, 11, 50
8, 12510, Control_c, 6, 11, 48
8, 12511, Control_c, 6, 11, 45
8, 12512, Control_c, 6, 11, 42
8, 12513, Control_c, 6, 11, 40
8, 12514, Control_c, 6, 11, 37
8, 12515, Control_c, 6, 11, 34
8, 12516, Control_c, 6, 11, 32
8, 12517, Control_c, 6, 11, 29
8, 12518, Control_c, 6, 11, 26
8, 12519, Control_c, 6, 11, 24
8, 12520, Control_c, 6, 11, 21
8, 12521, Control_c, 6, 11, 19
8, 12522, Control_c, 6, 11, 16
8, 12523, Control_c, 6, 11, 13
8, 12524, Control_c, 6, 11, 11
8, 12525, Control_c, 6, 11, 8
8, 12526, Control_c, 6, 11, 5
8, 12527, Control_c, 6, 11, 3
8, 12528, Note_off_c, 6, 33, 64
8, 12528, Control_c, 6, 11, 127
8, 12528, Note_on_c, 6, 93, 64
8, 12529, Control_c, 6, 11, 124
8, 12530, Control_c, 6, 11, 122
8, 12531, Control_c, 6, 11, 119
8, 12532, Control_c, 6, 11, 116
8, 12533, Control_c, 6, 11, 114
8, 12534, Control_c, 6, 11, 111
8, 12535, Control_c, 6, 11, 108
8, 12536, Control_c, 6, 11, 106
8, 12537, Control_c, 6, 11, 103
8, 12538, Control_c, 6, 11, 101
8, 12539, Control_c, 6, 11, 98
8, 12540, Control_c, 6, 11, 95
8, 12541, Control_c, 6, 11, 93
8, 12542, Control_c, 6, 11, 90
8, 12543, Control_c, 6, 11, 87
8, 12544, Control_c, 6, 11, 85
8, 12545, Control_c, 6, 11, 82
8, 12546, Control_c, 6, 11, 79
8, 12547, Control_c, 6, 11, 77
8, 12548, Control_c, 6, 11, 74
8, 12549, Control_c, 6, 11, 71
8, 12550, Control_c, 6, 11, 69
8, 12551, Control_c, 6, 11, 66
8, 12552, Control_c, 6, 11, 64
8, 12553, Control_c, 6, 11, 61
8, 12554, Control_c, 6, 11, 58
8, 12555, Control_c, 6, 11, 56
8, 12556, Control_c, 6, 11, 53
8, 12557, Control_c, 6, 11, 50
8, 12558, Control_c, 6, 11, 48
8, 12559, Control_c, 6, 11, 45
8, 12560, Control_c, 6, 11, 42
8, 12561, Control_c, 6, 11, 40
8, 12562, Control_c, 6, 11, 37
8, 12563, Control_c, 6, 11, 34
8, 12564, Control_c, 6, 11, 32
8, 12565, Control_c, 6, 11, 29
8, 12566, Control_c, 6, 11, 26
8, 12567, Control_c, 6, 11, 24
8, 12568, Control_c, 6, 11, 21
8, 12569, Control_c, 6, 11, 19
8, 12570, Control_c, 6, 11, 16
8, 12571, Control_c, 6, 11, 13
8, 12572, Control_c, 6, 11, 11
8, 12573, Control_c, 6, 11, 8
8, 12574, Control_c, 6, 11, 5
8, 12575, Control_c, 6, 11, 3
8, 12576, Note_off_c, 6, 93, 64
8, 12576, Control_c, 6, 11, 127
8, 12576, Note_on_c, 6, 63, 64
8, 12577, Control_c, 6, 11, 124
8, 12578, Control_c, 6, 11, 122
8, 12579, Control_c, 6, 11, 119
8, 12580, Control_c, 6, 11, 116
8, 12581, Control_c, 6, 11, 114
8, 12582, Control_c, 6, 11, 111
8, 12583, Control_c, 6, 11, 108
8, 12584, Control_c, 6, 11, 106
8, 12585, Control_c, 6, 11, 103
8, 12586, Control_c, 6, 11, 101
8, 12587, Control_c, 6, 11, 98
8, 12588, Control_c, 6, 11, 95
8, 12589, Control_c, 6, 11, 93
8, 12590, Control_c, 6, 11, 90
8, 12591, Control_c, 6, 11, 87
8, 12592, Control_c, 6, 11, 85
8, 12593, Control_c, 6, 11, 82
8, 12594, Control_c, 6, 11, 79
8, 12595, Control_c, 6, 11, 77
8, 12596, Control_c, 6, 11, 74
8, 12597, Control_c, 6, 11, 71
8, 12598, Control_c, 6, 11, 69
8, 12599, Control_c, 6, 11, 66
8, 12600, Control_c, 6, 11, 64
8, 12601, Control_c, 6, 11, 61
8, 12602, Control_c, 6, 11, 58
8, 12603, Control_c, 6, 11, 56
8, 12604, Control_c, 6, 11, 53
8, 12605, Control_c, 6, 11, 50
8, 12606, Control_c, 6, 11, 48
8, 12607, Control_c, 6, 11, 45
8, 12608, Control_c, 6, 11, 42
8, 12609, Control_c, 6, 11, 40
8, 12610, Control_c, 6, 11, 37
8, 12611, Control_c, 6, 11, 34
8, 12612, Control_c, 6, 11, 32
8, 12613, Control_c, 6, 11, 29
8, 12614, Control_c, 6, 11, 26
8, 12615, Control_c, 6, 11, 24
8, 12616, Control_c, 6, 11, 21
8, 12617, Control_c, 6, 11, 19
8, 12618, Control_c, 6, 11, 16
8, 12619, Control_c, 6, 11, 13
8, 12620, Control_c, 6, 11, 11
8, 12621, Control_c, 6, 11, 8
8, 12622, Control_c, 6, 11, 5
8, 12623, Control_c, 6, 11, 3
8, 12624, Note_off_c, 6, 63, 64
8, 12624, Control_c, 6, 11, 127
8, 12624, Note_on_c, 6, 93, 64
8, 12625, Control_c, 6, 11, 124
8, 12626, Control_c, 6, 11, 122
8, 12627, Control_c, 6, 11, 119
8, 12628, Control_c, 6, 11, 116
8, 12629, Control_c, 6, 11, 114
8, 12630, Control_c, 6, 11, 111
8, 12631, Control_c, 6, 11, 108
8, 12632, Control_c, 6, 11, 106
8, 12633, Control_c, 6, 11, 103
8, 12634, Control_c, 6, 11, 101
8, 12635, Control_c, 6, 11, 98
8, 12636, Control_c, 6, 11, 95
8, 12637, Control_c, 6, 11, 93
8, 12638, Control_c, 6, 11, 90
8, 12639, Control_c, 6, 11, 87
8, 12640, Control_c, 6, 11, 85
8, 12641, Control_c, 6, 11, 82
8, 12642, Control_c, 6, 11, 79
8, 12643, Control_c, 6, 11, 77
8, 12644, Control_c, 6, 11, 74
8, 12645, Control_c, 6, 11, 71
8, 12646, Control_c, 6, 11, 69
8, 12647, Control_c, 6, 11, 66
8, 12648, Control_c, 6, 11, 64
8, 12649, Control_c, 6, 11, 61
8, 12650, Control_c, 6, 11, 58
8, 12651, Control_c, 6, 11, 56
8, 12652, Control_c, 6, 11, 53
8, 12653, Control_c, 6, 11, 50
8, 12654, Control_c, 6, 11, 48
8, 12655, Control_c, 6, 11, 45
8, 12656, Control_c, 6, 11, 42
8, 12657, Control_c, 6, 11, 40
8, 12658, Control_c, 6, 11, 37
8, 12659, Control_c, 6, 11, 34
8, 12660, Control_c, 6, 11, 32
8, 12661, Control_c, 6, 11, 29
8, 12662, Control_c, 6, 11, 26
8, 12663, Control_c, 6, 11, 24
8, 12664, Control_c, 6, 11, 21
8, 12665, Control_c, 6, 11, 19
8, 12666, Control_c, 6, 11, 16
8, 12667, Control_c, 6, 11, 13
8, 12668, Control_c, 6, 11, 11
8, 12669, Control_c, 6, 11, 8
8, 12670, Control_c, 6, 11, 5
8, 12671, Control_c, 6, 11, 3
8, 12672, Note_off_c, 6, 93, 64
8, 12672, Control_c, 6, 11, 127
8, 12672, Note_on_c, 6, 33, 64
8, 12673, Control_c, 6, 11, 124
8, 12674, Control_c, 6, 11, 122
8, 12675, Control_c, 6, 11, 119
8, 12676, Control_c, 6, 11, 116
8, 12677, Control_c, 6, 11, 114
8, 12678, Control_c, 6, 11, 111
8, 12679, Control_c, 6, 11, 108
8, 12680, Control_c, 6, 11, 106
8, 12681, Control_c, 6, 11, 103
8, 12682, Control_c, 6, 11, 101
8, 12683, Control_c, 6, 11, 98
8, 12684, Control_c, 6, 11, 95
8, 12685, Control_c, 6, 11, 93
8, 12686, Control_c, 6, 11, 90
8, 12687, Control_c, 6, 11, 87
8, 12688, Control_c, 6, 11, 85
8, 12689, Control_c, 6, 11, 82
8, 12690, Control_c, 6, 11, 79
8, 12691, Control_c, 6, 11, 77
8, 12692, Control_c, 6, 11, 74
8, 12693, Control_c, 6, 11, 71
8, 12694, Control_c, 6, 11, 69
8, 12695, Control_c, 6, 11, 66
8, 12696, Control_c, 6, 11, 64
8, 12697, Control_c, 6, 11, 61
8, 12698, Control_c, 6, 11, 58
8, 12699, Control_c, 6, 11, 56
8, 12700, Control_c, 6, 11, 53
8, 12701, Control_c, 6, 11, 50
8, 12702, Control_c, 6, 11, 48
8, 12703, Control_c, 6, 11, 45
8, 12704, Control_c, 6, 11, 42
8, 12705, Control_c, 6, 11, 40
8, 12706, Control_c, 6, 11, 37
8, 12707, Control_c, 6, 11, 34
8, 12708, Control_c, 6, 11, 32
8, 12709, Control_c, 6, 11, 29
8, 12710, Control_c, 6, 11, 26
8, 12711, Control_c, 6, 11, 24
8, 12712, Control_c, 6, 11, 21
8, 12713, Control_c, 6, 11, 19
8, 12714, Control_c, 6, 11, 16
8, 12715, Control_c, 6, 11, 13
8, 12716, Control_c, 6, 11, 11
8, 12717, Control_c, 6, 11, 8
8, 12718, Control_c, 6, 11, 5
8, 12719, Control_c, 6, 11, 3
8, 12720, Note_off_c, 6, 33, 64
8, 12720, Control_c, 6, 11, 127
8, 12720, Note_on_c, 6, 93, 64
8, 12721, Control_c, 6, 11, 124
8, 12722, Control_c, 6, 11, 122
8, 12723, Control_c, 6, 11, 119
8, 12724, Control_c, 6, 11, 116
8, 12725, Control_c, 6, 11, 114
8, 12726, Control_c, 6, 11, 111
8, 12727, Control_c, 6, 11, 108
8, 12728, Control_c, 6, 11, 106
8, 12729, Control_c, 6, 11, 103
8, 12730, Control_c, 6, 11, 101
8, 12731, Control_c, 6, 11, 98
8, 12732, Control_c, 6, 11, 95
8, 12733, Control_c, 6, 11, 93
8, 12734, Control_c, 6, 11, 90
8, 12735, Control_c, 6, 11, 87
8, 12736, Control_c, 6, 11, 85
8, 12737, Control_c, 6, 11, 82
8, 12738, Control_c, 6, 11, 79
8, 12739, Control_c, 6, 11, 77
8, 12740, Control_c, 6, 11, 74
8, 12741, Control_c, 6, 11, 71
8, 12742, Control_c, 6, 11, 69
8, 12743, Control_c, 6, 11, 66
8, 12744, Control_c, 6, 11, 64
8, 12745, Control_c, 6, 11, 61
8, 12746, Control_c, 6, 11, 58
8, 12747, Control_c, 6, 11, 56
8, 12748, Control_c, 6, 11, 53
8, 12749, Control_c, 6, 11, 50
8, 12750, Control_c, 6, 11, 48
8, 12751, Control_c, 6, 11, 45
8, 12752, Control_c, 6, 11, 42
8, 12753, Control_c, 6, 11, 40
8, 12754, Control_c, 6, 11, 37
8, 12755, Control_c, 6, 11, 34
8, 12756, Control_c, 6, 11, 32
8, 12757, Control_c, 6, 11, 29
8, 12758, Control_c, 6, 11, 26
8, 12759, Control_c, 6, 11, 24
8, 12760, Control_c, 6, 11, 21
8, 12761, Control_c, 6, 11, 19
8, 12762, Control_c, 6, 11, 16
8, 12763, Control_c, 6, 11, 13
8, 12764, Control_c, 6, 11, 11
8, 12765, Control_c, 6, 11, 8
8, 12766, Control_c, 6, 11, 5
8, 12767, Control_c, 6, 11, 3
8, 12768, Note_off_c, 6, 93, 64
8, 12768, Control_c, 6, 11, 127
8, 12768, Note_on_c, 6, 63, 64
8, 12769, Control_c, 6, 11, 124
8, 12770, Control_c, 6, 11, 122
8, 12771, Control_c, 6, 11, 119
8, 12772, Control_c, 6, 11, 116
8, 12773, Control_c, 6, 11, 114
8, 12774, Control_c, 6, 11, 111
8, 12775, Control_c, 6, 11, 108
8, 12776, Control_c, 6, 11, 106
8, 12777, Control_c, 6, 11, 103
8, 12778, Control_c, 6, 11, 101
8, 12779, Control_c, 6, 11, 98
8, 12780, Control_c, 6, 11, 95
8, 12781, Control_c, 6, 11, 93
8, 12782, Control_c, 6, 11, 90
8, 12783, Control_c, 6, 11, 87
8, 12784, Control_c, 6, 11, 85
8, 12785, Control_c, 6, 11, 82
8, 12786, Control_c, 6, 11, 79
8, 12787, Control_c, 6, 11, 77
8, 12788, Control_c, 6, 11, 74
8, 12789, Control_c, 6, 11, 71
8, 12790, Control_c, 6, 11, 69
8, 12791, Control_c, 6, 11, 66
8, 12792, Control_c, 6, 11, 64
8, 12793, Control_c, 6, 11, 61
8, 12794, Control_c, 6, 11, 58
8, 12795, Control_c, 6, 11, 56
8, 12796, Control_c, 6, 11, 53
8, 12797, Control_c, 6, 11, 50
8, 12798, Control_c, 6, 11, 48
8, 12799, Control_c, 6, 11, 45
8, 12800, Control_c, 6, 11, 42
8, 12801, Control_c, 6, 11, 40
8, 12802, Control_c, 6, 11, 37
8, 12803, Control_c, 6, 11, 34
8, 12804, Control_c, 6, 11, 32
8, 12805, Control_c, 6, 11, 29
8, 12806, Control_c, 6, 11, 26
8, 12807, Control_c, 6, 11, 24
8, 12808, Control_c, 6, 11, 21
8, 12809, Control_c, 6, 11, 19
8, 12810, Control_c, 6, 11, 16
8, 12811, Control_c, 6, 11, 13
8, 12812, Control_c, 6, 11, 11
8, 12813, Control_c, 6, 11, 8
8, 12814, Control_c, 6, 11, 5
8, 12815, Control_c, 6, 11, 3
8, 12816, Note_off_c, 6, 63, 64
8, 12816, Control_c, 6, 11, 127
8, 12816, Note_on_c, 6, 93, 64
8, 12817, Control_c, 6, 11, 124
8, 12818, Control_c, 6, 11, 122
8, 12819, Control_c, 6, 11, 119
8, 12820, Control_c, 6, 11, 116
8, 12821, Control_c, 6, 11, 114
8, 12822, Control_c, 6, 11, 111
8, 12823, Control_c, 6, 11, 108
8, 12824, Control_c, 6, 11, 106
8, 12825, Control_c, 6, 11, 103
8, 12826, Control_c, 6, 11, 101
8, 12827, Control_c, 6, 11, 98
8, 12828, Control_c, 6, 11, 95
8, 12829, Control_c, 6, 11, 93
8, 12830, Control_c, 6, 11, 90
8, 12831, Control_c, 6, 11, 87
8, 12832, Control_c, 6, 11, 85
8, 12833, Control_c, 6, 11, 82
8, 12834, Control_c, 6, 11, 79
8, 12835, Control_c, 6, 11, 77
8, 12836, Control_c, 6, 11, 74
8, 12837, Control_c, 6, 11, 71
8, 12838, Control_c, 6, 11, 69
8, 12839, Control_c, 6, 11, 66
8, 12840, Control_c, 6, 11, 64
8, 12841, Control_c, 6, 11, 61
8, 12842, Control_c, 6, 11, 58
8, 12843, Control_c, 6, 11, 56
8, 12844, Control_c, 6, 11, 53
8, 12845, Control_c, 6, 11, 50
8, 12846, Control_c, 6, 11, 48
8, 12847, Control_c, 6, 11, 45
8, 12848, Control_c, 6, 11, 42
8, 12849, Control_c, 6, 11, 40
8, 12850, Control_c, 6, 11, 37
8, 12851, Control_c, 6, 11, 34
8, 12852, Control_c, 6, 11, 32
8, 12853, Control_c, 6, 11, 29
8, 12854, Control_c, 6, 11, 26
8, 12855, Control_c, 6, 11, 24
8, 12856, Control_c, 6, 11, 21
8, 12857, Control_c, 6, 11, 19
8, 12858, Control_c, 6, 11, 16
8, 12859, Control_c, 6, 11, 13
8, 12860, Control_c, 6, 11, 11
8, 12861, Control_c, 6, 11, 8
8, 12862, Control_c, 6, 11, 5
8, 12863, Control_c, 6, 11, 3
8, 12864, Note_off_c, 6, 93, 64
8, 12864, Control_c, 6, 11, 127
8, 12864, Note_on_c, 6, 33, 64
8, 12865, Control_c, 6, 11, 124
8, 12866, Control_c, 6, 11, 122
8, 12867, Control_c, 6, 11, 119
8, 12868, Control_c, 6, 11, 116
8, 12869, Control_c, 6, 11, 114
8, 12870, Control_c, 6, 11, 111
8, 12871, Control_c, 6, 11, 108
8, 12872, Control_c, 6, 11, 106
8, 12873, Control_c, 6, 11, 103
8, 12874, Control_c, 6, 11, 101
8, 12875, Control_c, 6, 11, 98
8, 12876, Control_c, 6, 11, 95
8, 12877, Control_c, 6, 11, 93
8, 12878, Control_c, 6, 11, 90
8, 12879, Control_c, 6, 11, 87
8, 12880, Control_c, 6, 11, 85
8, 12881, Control_c, 6, 11, 82
8, 12882, Control_c, 6, 11, 79
8, 12883, Control_c, 6, 11, 77
8, 12884, Control_c, 6, 11, 74
8, 12885, Control_c, 6, 11, 71
8, 12886, Control_c, 6, 11, 69
8, 12887, Control_c, 6, 11, 66
8, 12888, Control_c, 6, 11, 64
8, 12889, Control_c, 6, 11, 61
8, 12890, Control_c, 6, 11, 58
8, 12891, Control_c, 6, 11, 56
8, 12892, Control_c, 6, 11, 53
8, 12893, Control_c, 6, 11, 50
8, 12894, Control_c, 6, 11, 48
8, 12895, Control_c, 6, 11, 45
8, 12896, Control_c, 6, 11, 42
8, 12897, Control_c, 6, 11, 40
8, 12898, Control_c, 6, 11, 37
8, 12899, Control_c, 6, 11, 34
8, 12900, Control_c, 6, 11, 32
8, 12901, Control_c, 6, 11, 29
8, 12902, Control_c, 6, 11, 26
8, 12903, Control_c, 6, 11, 24
8, 12904, Control_c, 6, 11, 21
8, 12905, Control_c, 6, 11, 19
8, 12906, Control_c, 6, 11, 16
8, 12907, Control_c, 6, 11, 13
8, 12908, Control_c, 6, 11, 11
8, 12909, Control_c, 6, 11, 8
8, 12910, Control_c, 6, 11, 5
8, 12911, Control_c, 6, 11, 3
8, 12912, Note_off_c, 6, 33, 64
8, 12912, Control_c, 6, 11, 127
8, 12912, Note_on_c, 6, 93, 64
8, 12913, Control_c, 6, 11, 124
8, 12914, Control_c, 6, 11, 122
8, 12915, Control_c, 6, 11, 119
8, 12916, Control_c, 6, 11, 116
8, 12917, Control_c, 6, 11, 114
8, 12918, Control_c, 6, 11, 111
8, 12919, Control_c, 6, 11, 108
8, 12920, Control_c, 6, 11, 106
8, 12921, Control_c, 6, 11, 103
8, 12922, Control_c, 6, 11, 101
8, 12923, Control_c, 6, 11, 98
8, 12924, Control_c, 6, 11, 95
8, 12925, Control_c, 6, 11, 93
8, 12926, Control_c, 6, 11, 90
8, 12927, Control_c, 6, 11, 87
8, 12928, Control_c, 6, 11, 85
8, 12929, Control_c, 6, 11, 82
8, 12930, Control_c, 6, 11, 79
8, 12931, Control_c, 6, 11, 77
8, 12932, Control_c, 6, 11, 74
8, 12933, Control_c, 6, 11, 71
8, 12934, Control_c, 6, 11, 69
8, 12935, Control_c, 6, 11, 66
8, 12936, Control_c, 6, 11, 64
8, 12937, Control_c, 6, 11, 61
8, 12938, Control_c, 6, 11, 58
8, 12939, Control_c, 6, 11, 56
8, 12940, Control_c, 6, 11, 53
8, 12941, Control_c, 6, 11, 50
8, 12942, Control_c, 6, 11, 48
8, 12943, Control_c, 6, 11, 45
8, 12944, Control_c, 6, 11, 42
8, 12945, Control_c, 6, 11, 40
8, 12946, Control_c, 6, 11, 37
8, 12947, Control_c, 6, 11, 34
8, 12948, Control_c, 6, 11, 32
8, 12949, Control_c, 6, 11, 29
8, 12950, Control_c, 6, 11, 26
8, 12951, Control_c, 6, 11, 24
8, 12952, Control_c, 6, 11, 21
8, 12953, Control_c, 6, 11, 19
8, 12954, Control_c, 6, 11, 16
8, 12955, Control_c, 6, 11, 13
8, 12956, Control_c, 6, 11, 11
8, 12957, Control_c, 6, 11, 8
8, 12958, Control_c, 6, 11, 5
8, 12959, Control_c, 6, 11, 3
8, 12960, Note_off_c, 6, 93, 64
8, 12960, Control_c, 6, 11, 127
8, 12960, Note_on_c, 6, 63, 64
8, 12961, Control_c, 6, 11, 124
8, 12962, Control_c, 6, 11, 122
8, 12963, Control_c, 6, 11, 119
8, 12964, Control_c, 6, 11, 116
8, 12965, Control_c, 6, 11, 114
8, 12966, Control_c, 6, 11, 111
8, 12967, Control_c, 6, 11, 108
8, 12968, Control_c, 6, 11, 106
8, 12969, Control_c, 6, 11, 103
8, 12970, Control_c, 6, 11, 101
8, 12971, Control_c, 6, 11, 98
8, 12972, Control_c, 6, 11, 95
8, 12973, Control_c, 6, 11, 93
8, 12974, Control_c, 6, 11, 90
8, 12975, Control_c, 6, 11, 87
8, 12976, Control_c, 6, 11, 85
8, 12977, Control_c, 6, 11, 82
8, 12978, Control_c, 6, 11, 79
8, 12979, Control_c, 6, 11, 77
8, 12980, Control_c, 6, 11, 74
8, 12981, Control_c, 6, 11, 71
8, 12982, Control_c, 6, 11, 69
8, 12983, Control_c, 6, 11, 66
8, 12984, Control_c, 6, 11, 64
8, 12985, Control_c, 6, 11, 61
8, 12986, Control_c, 6, 11, 58
8, 12987, Control_c, 6, 11, 56
8, 12988, Control_c, 6, 11, 53
8, 12989, Control_c, 6, 11, 50
8, 12990, Control_c, 6, 11, 48
8, 12991, Control_c, 6, 11, 45
8, 12992, Control_c, 6, 11, 42
8, 12993, Control_c, 6, 11, 40
8, 12994, Control_c, 6, 11, 37
8, 12995, Control_c, 6, 11, 34
8, 12996, Control_c, 6, 11, 32
8, 12997, Control_c, 6, 11, 29
8, 12998, Control_c, 6, 11, 26
8, 12999, Control_c, 6, 11, 24
8, 13000, Control_c, 6, 11, 21
8, 13001, Control_c, 6, 11, 19
8, 13002, Control_c, 6, 11, 16
8, 13003, Control_c, 6, 11, 13
8, 13004, Control_c, 6, 11, 11
8, 13005, Control_c, 6, 11, 8
8, 13006, Control_c, 6, 11, 5
8, 13007, Control_c, 6, 11, 3
8, 13008, Note_off_c, 6, 63, 64
8, 13008, Control_c, 6, 11, 127
8, 13008, Note_on_c, 6, 63, 64
8, 13009, Control_c, 6, 11, 124
8, 13010, Control_c, 6, 11, 122
8, 13011, Control_c, 6, 11, 119
8, 13012, Control_c, 6, 11, 116
8, 13013, Control_c, 6, 11, 114
8, 13014, Control_c, 6, 11, 111
8, 13015, Control_c, 6, 11, 108
8, 13016, Control_c, 6, 11, 106
8, 13017, Control_c, 6, 11, 103
8, 13018, Control_c, 6, 11, 101
8, 13019, Control_c, 6, 11, 98
8, 13020, Control_c, 6, 11, 95
8, 13021, Control_c, 6, 11, 93
8, 13022, Control_c, 6, 11, 90
8, 13023, Control_c, 6, 11, 87
8, 13024, Control_c, 6, 11, 85
8, 13025, Control_c, 6, 11, 82
8, 13026, Control_c, 6, 11, 79
8, 13027, Control_c, 6, 11, 77
8, 13028, Control_c, 6, 11, 74
8, 13029, Control_c, 6, 11, 71
8, 13030, Control_c, 6, 11, 69
8, 13031, Control_c, 6, 11, 66
8, 13032, Control_c, 6, 11, 64
8, 13033, Control_c, 6, 11, 61
8, 13034, Control_c, 6, 11, 58
8, 13035, Control_c, 6, 11, 56
8, 13036, Control_c, 6, 11, 53
8, 13037, Control_c, 6, 11, 50
8, 13038, Control_c, 6, 11, 48
8, 13039, Control_c, 6, 11, 45
8, 13040, Control_c, 6, 11, 42
8, 13041, Control_c, 6, 11, 40
8, 13042, Control_c, 6, 11, 37
8, 13043, Control_c, 6, 11, 34
8, 13044, Control_c, 6, 11, 32
8, 13045, Control_c, 6, 11, 29
8, 13046, Control_c, 6, 11, 26
8, 13047, Control_c, 6, 11, 24
8, 13048, Control_c, 6, 11, 21
8, 13049, Control_c, 6, 11, 19
8, 13050, Control_c, 6, 11, 16
8, 13051, Control_c, 6, 11, 13
8, 13052, Control_c, 6, 11, 11
8, 13053, Control_c, 6, 11, 8
8, 13054, Control_c, 6, 11, 5
8, 13055, Control_c, 6, 11, 3
8, 13056, Note_off_c, 6, 63, 64
8, 13056, Control_c, 6, 11, 127
8, 13056, Note_on_c, 6, 33, 64
8, 13057, Control_c, 6, 11, 124
8, 13058, Control_c, 6, 11, 122
8, 13059, Control_c, 6, 11, 119
8, 13060, Control_c, 6, 11, 116
8, 13061, Control_c, 6, 11, 114
8, 13062, Control_c, 6, 11, 111
8, 13063, Control_c, 6, 11, 108
8, 13064, Control_c, 6, 11, 106
8, 13065, Control_c, 6, 11, 103
8, 13066, Control_c, 6, 11, 101
8, 13067, Control_c, 6, 11, 98
8, 13068, Control_c, 6, 11, 95
8, 13069, Control_c, 6, 11, 93
8, 13070, Control_c, 6, 11, 90
8, 13071, Control_c, 6, 11, 87
8, 13072, Control_c, 6, 11, 85
8, 13073, Control_c, 6, 11, 82
8, 13074, Control_c, 6, 11, 79
8, 13075, Control_c, 6, 11, 77
8, 13076, Control_c, 6, 11, 74
8, 13077, Control_c, 6, 11, 71
8, 13078, Control_c, 6, 11, 69
8, 13079, Control_c, 6, 11, 66
8, 13080, Control_c, 6, 11, 64
8, 13081, Control_c, 6, 11, 61
8, 13082, Control_c, 6, 11, 58
8, 13083, Control_c, 6, 11, 56
8, 13084, Control_c, 6, 11, 53
8, 13085, Control_c, 6, 11, 50
8, 13086, Control_c, 6, 11, 48
8, 13087, Control_c, 6, 11, 45
8, 13088, Control_c, 6, 11, 42
8, 13089, Control_c, 6, 11, 40
8, 13090, Control_c, 6, 11, 37
8, 13091, Control_c, 6, 11, 34
8, 13092, Control_c, 6, 11, 32
8, 13093, Control_c, 6, 11, 29
8, 13094, Control_c, 6, 11, 26
8, 13095, Control_c, 6, 11, 24
8, 13096, Control_c, 6, 11, 21
8, 13097, Control_c, 6, 11, 19
8, 13098, Control_c, 6, 11, 16
8, 13099, Control_c, 6, 11, 13
8, 13100, Control_c, 6, 11, 11
8, 13101, Control_c, 6, 11, 8
8, 13102, Control_c, 6, 11, 5
8, 13103, Control_c, 6, 11, 3
8, 13104, Note_off_c, 6, 33, 64
8, 13104, Control_c, 6, 11, 127
8, 13104, Note_on_c, 6, 93, 64
8, 13105, Control_c, 6, 11, 124
8, 13106, Control_c, 6, 11, 122
8, 13107, Control_c, 6, 11, 119
8, 13108, Control_c, 6, 11, 116
8, 13109, Control_c, 6, 11, 114
8, 13110, Control_c, 6, 11, 111
8, 13111, Control_c, 6, 11, 108
8, 13112, Control_c, 6, 11, 106
8, 13113, Control_c, 6, 11, 103
8, 13114, Control_c, 6, 11, 101
8, 13115, Control_c, 6, 11, 98
8, 13116, Control_c, 6, 11, 95
8, 13117, Control_c, 6, 11, 93
8, 13118, Control_c, 6, 11, 90
8, 13119, Control_c, 6, 11, 87
8, 13120, Control_c, 6, 11, 85
8, 13121, Control_c, 6, 11, 82
8, 13122, Control_c, 6, 11, 79
8, 13123, Control_c, 6, 11, 77
8, 13124, Control_c, 6, 11, 74
8, 13125, Control_c, 6, 11, 71
8, 13126, Control_c, 6, 11, 69
8, 13127, Control_c, 6, 11, 66
8, 13128, Control_c, 6, 11, 64
8, 13129, Control_c, 6, 11, 61
8, 13130, Control_c, 6, 11, 58
8, 13131, Control_c, 6, 11, 56
8, 13132, Control_c, 6, 11, 53
8, 13133, Control_c, 6, 11, 50
8, 13134, Control_c, 6, 11, 48
8, 13135, Control_c, 6, 11, 45
8, 13136, Control_c, 6, 11, 42
8, 13137, Control_c, 6, 11, 40
8, 13138, Control_c, 6, 11, 37
8, 13139, Control_c, 6, 11, 34
8, 13140, Control_c, 6, 11, 32
8, 13141, Control_c, 6, 11, 29
8, 13142, Control_c, 6, 11, 26
8, 13143, Control_c, 6, 11, 24
8, 13144, Control_c, 6, 11, 21
8, 13145, Control_c, 6, 11, 19
8, 13146, Control_c, 6, 11, 16
8, 13147, Control_c, 6, 11, 13
8, 13148, Control_c, 6, 11, 11
8, 13149, Control_c, 6, 11, 8
8, 13150, Control_c, 6, 11, 5
8, 13151, Control_c, 6, 11, 3
8, 13152, Note_off_c, 6, 93, 64
8, 13152, Control_c, 6, 11, 127
8, 13152, Note_on_c, 6, 63, 64
8, 13153, Control_c, 6, 11, 124
8, 13154, Control_c, 6, 11, 122
8, 13155, Control_c, 6, 11, 119
8, 13156, Control_c, 6, 11, 116
8, 13157, Control_c, 6, 11, 114
8, 13158, Control_c, 6, 11, 111
8, 13159, Control_c, 6, 11, 108
8, 13160, Control_c, 6, 11, 106
8, 13161, Control_c, 6, 11, 103
8, 13162, Control_c, 6, 11, 101
8, 13163, Control_c, 6, 11, 98
8, 13164, Control_c, 6, 11, 95
8, 13165, Control_c, 6, 11, 93
8, 13166, Control_c, 6, 11, 90
8, 13167, Control_c, 6, 11, 87
8, 13168, Control_c, 6, 11, 85
8, 13169, Control_c, 6, 11, 82
8, 13170, Control_c, 6, 11, 79
8, 13171, Control_c, 6, 11, 77
8, 13172, Control_c, 6, 11, 74
8, 13173, Control_c, 6, 11, 71
8, 13174, Control_c, 6, 11, 69
8, 13175, Control_c, 6, 11, 66
8, 13176, Control_c, 6, 11, 64
8, 13177, Control_c, 6, 11, 61
8, 13178, Control_c, 6, 11, 58
8, 13179, Control_c, 6, 11, 56
8, 13180, Control_c, 6, 11, 53
8, 13181, Control_c, 6, 11, 50
8, 13182, Control_c, 6, 11, 48
8, 13183, Control_c, 6, 11, 45
8, 13184, Control_c, 6, 11, 42
8, 13185, Control_c, 6, 11, 40
8, 13186, Control_c, 6, 11, 37
8, 13187, Control_c, 6, 11, 34
8, 13188, Control_c, 6, 11, 32
8, 13189, Control_c, 6, 11, 29
8, 13190, Control_c, 6, 11, 26
8, 13191, Control_c, 6, 11, 24
8, 13192, Control_c, 6, 11, 21
8, 13193, Control_c, 6, 11, 19
8, 13194, Control_c, 6, 11, 16
8, 13195, Control_c, 6, 11, 13
8, 13196, Control_c, 6, 11, 11
8, 13197, Control_c, 6, 11, 8
8, 13198, Control_c, 6, 11, 5
8, 13199, Control_c, 6, 11, 3
8, 13200, Note_off_c, 6, 63, 64
8, 13200, Control_c, 6, 11, 127
8, 13200, Note_on_c, 6, 93, 64
8, 13201, Control_c, 6, 11, 124
8, 13202, Control_c, 6, 11, 122
8, 13203, Control_c, 6, 11, 119
8, 13204, Control_c, 6, 11, 116
8, 13205, Control_c, 6, 11, 114
8, 13206, Control_c, 6, 11, 111
8, 13207, Control_c, 6, 11, 108
8, 13208, Control_c, 6, 11, 106
8, 13209, Control_c, 6, 11, 103
8, 13210, Control_c, 6, 11, 101
8, 13211, Control_c, 6, 11, 98
8, 13212, Control_c, 6, 11, 95
8, 13213, Control_c, 6, 11, 93
8, 13214, Control_c, 6, 11, 90
8, 13215, Control_c, 6, 11, 87
8, 13216, Control_c, 6, 11, 85
8, 13217, Control_c, 6, 11, 82
8, 13218, Control_c, 6, 11, 79
8, 13219, Control_c, 6, 11, 77
8, 13220, Control_c, 6, 11, 74
8, 13221, Control_c, 6, 11, 71
8, 13222, Control_c, 6, 11, 69
8, 13223, Control_c, 6, 11, 66
8, 13224, Control_c, 6, 11, 64
8, 13225, Control_c, 6, 11, 61
8, 13226, Control_c, 6, 11, 58
8, 13227, Control_c, 6, 11, 56
8, 13228, Control_c, 6, 11, 53
8, 13229, Control_c, 6, 11, 50
8, 13230, Control_c, 6, 11, 48
8, 13231, Control_c, 6, 11, 45
8, 13232, Control_c, 6, 11, 42
8, 13233, Control_c, 6, 11, 40
8, 13234, Control_c, 6, 11, 37
8, 13235, Control_c, 6, 11, 34
8, 13236, Control_c, 6, 11, 32
8, 13237, Control_c, 6, 11, 29
8, 13238, Control_c, 6, 11, 26
8, 13239, Control_c, 6, 11, 24
8, 13240, Control_c, 6, 11, 21
8, 13241, Control_c, 6, 11, 19
8, 13242, Control_c, 6, 11, 16
8, 13243, Control_c, 6, 11, 13
8, 13244, Control_c, 6, 11, 11
8, 13245, Control_c, 6, 11, 8
8, 13246, Control_c, 6, 11, 5
8, 13247, Control_c, 6, 11, 3
8, 13248, Note_off_c, 6, 93, 64
8, 13248, Control_c, 6, 11, 127
8, 13248, Note_on_c, 6, 33, 64
8, 13249, Control_c, 6, 11, 124
8, 13250, Control_c, 6, 11, 122
8, 13251, Control_c, 6, 11, 119
8, 13252, Control_c, 6, 11, 116
8, 13253, Control_c, 6, 11, 114
8, 13254, Control_c, 6, 11, 111
8, 13255, Control_c, 6, 11, 108
8, 13256, Control_c, 6, 11, 106
8, 13257, Control_c, 6, 11, 103
8, 13258, Control_c, 6, 11, 101
8, 13259, Control_c, 6, 11, 98
8, 13260, Control_c, 6, 11, 95
8, 13261, Control_c, 6, 11, 93
8, 13262, Control_c, 6, 11, 90
8, 13263, Control_c, 6, 11, 87
8, 13264, Control_c, 6, 11, 85
8, 13265, Control_c, 6, 11, 82
8, 13266, Control_c, 6, 11, 79
8, 13267, Control_c, 6, 11, 77
8, 13268, Control_c, 6, 11, 74
8, 13269, Control_c, 6, 11, 71
8, 13270, Control_c, 6, 11, 69
8, 13271, Control_c, 6, 11, 66
8, 13272, Control_c, 6, 11, 64
8, 13273, Control_c, 6, 11, 61
8, 13274, Control_c, 6, 11, 58
8, 13275, Control_c, 6, 11, 56
8, 13276, Control_c, 6, 11, 53
8, 13277, Control_c, 6, 11, 50
8, 13278, Control_c, 6, 11, 48
8, 13279, Control_c, 6, 11, 45
8, 13280, Control_c, 6, 11, 42
8, 13281, Control_c, 6, 11, 40
8, 13282, Control_c, 6, 11, 37
8, 13283, Control_c, 6, 11, 34
8, 13284, Control_c, 6, 11, 32
8, 13285, Control_c, 6, 11, 29
8, 13286, Control_c, 6, 11, 26
8, 13287, Control_c, 6, 11, 24
8, 13288, Control_c, 6, 11, 21
8, 13289, Control_c, 6, 11, 19
8, 13290, Control_c, 6, 11, 16
8, 13291, Control_c, 6, 11, 13
8, 13292, Control_c, 6, 11, 11
8, 13293, Control_c, 6, 11, 8
8, 13294, Control_c, 6, 11, 5
8, 13295, Control_c, 6, 11, 3
8, 13296, Note_off_c, 6, 33, 64
8, 13296, Control_c, 6, 11, 127
8, 13296, Note_on_c, 6, 93, 64
8, 13297, Control_c, 6, 11, 124
8, 13298, Control_c, 6, 11, 122
8, 13299, Control_c, 6, 11, 119
8, 13300, Control_c, 6, 11, 116
8, 13301, Control_c, 6, 11, 114
8, 13302, Control_c, 6, 11, 111
8, 13303, Control_c, 6, 11, 108
8, 13304, Control_c, 6, 11, 106
8, 13305, Control_c, 6, 11, 103
8, 13306, Control_c, 6, 11, 101
8, 13307, Control_c, 6, 11, 98
8, 13308, Control_c, 6, 11, 95
8, 13309, Control_c, 6, 11, 93
8, 13310, Control_c, 6, 11, 90
8, 13311, Control_c, 6, 11, 87
8, 13312, Control_c, 6, 11, 85
8, 13313, Control_c, 6, 11, 82
8, 13314, Control_c, 6, 11, 79
8, 13315, Control_c, 6, 11, 77
8, 13316, Control_c, 6, 11, 74
8, 13317, Control_c, 6, 11, 71
8, 13318, Control_c, 6, 11, 69
8, 13319, Control_c, 6, 11, 66
8, 13320, Control_c, 6, 11, 64
8, 13321, Control_c, 6, 11, 61
8, 13322, Control_c, 6, 11, 58
8, 13323, Control_c, 6, 11, 56
8, 13324, Control_c, 6, 11, 53
8, 13325, Control_c, 6, 11, 50
8, 13326, Control_c, 6, 11, 48
8, 13327, Control_c, 6, 11, 45
8, 13328, Control_c, 6, 11, 42
8, 13329, Control_c, 6, 11, 40
8, 13330, Control_c, 6, 11, 37
8, 13331, Control_c, 6, 11, 34
8, 13332, Control_c, 6, 11, 32
8, 13333, Control_c, 6, 11, 29
8, 13334, Control_c, 6, 11, 26
8, 13335, Control_c, 6, 11, 24
8, 13336, Control_c, 6, 11, 21
8, 13337, Control_c, 6, 11, 19
8, 13338, Control_c, 6, 11, 16
8, 13339, Control_c, 6, 11, 13
8, 13340, Control_c, 6, 11, 11
8, 13341, Control_c, 6, 11, 8
8, 13342, Control_c, 6, 11, 5
8, 13343, Control_c, 6, 11, 3
8, 13344, Note_off_c, 6, 93, 64
8, 13344, Control_c, 6, 11, 127
8, 13344, Note_on_c, 6, 63, 64
8, 13345, Control_c, 6, 11, 124
8, 13346, Control_c, 6, 11, 122
8, 13347, Control_c, 6, 11, 119
8, 13348, Control_c, 6, 11, 116
8, 13349, Control_c, 6, 11, 114
8, 13350, Control_c, 6, 11, 111
8, 13351, Control_c, 6, 11, 108
8, 13352, Control_c, 6, 11, 106
8, 13353, Control_c, 6, 11, 103
8, 13354, Control_c, 6, 11, 101
8, 13355, Control_c, 6, 11, 98
8, 13356, Control_c, 6, 11, 95
8, 13357, Control_c, 6, 11, 93
8, 13358, Control_c, 6, 11, 90
8, 13359, Control_c, 6, 11, 87
8, 13360, Control_c, 6, 11, 85
8, 13361, Control_c, 6, 11, 82
8, 13362, Control_c, 6, 11, 79
8, 13363, Control_c, 6, 11, 77
8, 13364, Control_c, 6, 11, 74
8, 13365, Control_c, 6, 11, 71
8, 13366, Control_c, 6, 11, 69
8, 13367, Control_c, 6, 11, 66
8, 13368, Control_c, 6, 11, 64
8, 13369, Control_c, 6, 11, 61
8, 13370, Control_c, 6, 11, 58
8, 13371, Control_c, 6, 11, 56
8, 13372, Control_c, 6, 11, 53
8, 13373, Control_c, 6, 11, 50
8, 13374, Control_c, 6, 11, 48
8, 13375, Control_c, 6, 11, 45
8, 13376, Control_c, 6, 11, 42
8, 13377, Control_c, 6, 11, 40
8, 13378, Control_c, 6, 11, 37
8, 13379, Control_c, 6, 11, 34
8, 13380, Control_c, 6, 11, 32
8, 13381, Control_c, 6, 11, 29
8, 13382, Control_c, 6, 11, 26
8, 13383, Control_c, 6, 11, 24
8, 13384, Control_c, 6, 11, 21
8, 13385, Control_c, 6, 11, 19
8, 13386, Control_c, 6, 11, 16
8, 13387, Control_c, 6, 11, 13
8, 13388, Control_c, 6, 11, 11
8, 13389, Control_c, 6, 11, 8
8, 13390, Control_c, 6, 11, 5
8, 13391, Control_c, 6, 11, 3
8, 13392, Note_off_c, 6, 63, 64
8, 13392, Control_c, 6, 11, 127
8, 13392, Note_on_c, 6, 93, 64
8, 13393, Control_c, 6, 11, 124
8, 13394, Control_c, 6, 11, 122
8, 13395, Control_c, 6, 11, 119
8, 13396, Control_c, 6, 11, 116
8, 13397, Control_c, 6, 11, 114
8, 13398, Control_c, 6, 11, 111
8, 13399, Control_c, 6, 11, 108
8, 13400, Control_c, 6, 11, 106
8, 13401, Control_c, 6, 11, 103
8, 13402, Control_c, 6, 11, 101
8, 13403, Control_c, 6, 11, 98
8, 13404, Control_c, 6, 11, 95
8, 13405, Control_c, 6, 11, 93
8, 13406, Control_c, 6, 11, 90
8, 13407, Control_c, 6, 11, 87
8, 13408, Control_c, 6, 11, 85
8, 13409, Control_c, 6, 11, 82
8, 13410, Control_c, 6, 11, 79
8, 13411, Control_c, 6, 11, 77
8, 13412, Control_c, 6, 11, 74
8, 13413, Control_c, 6, 11, 71
8, 13414, Control_c, 6, 11, 69
8, 13415, Control_c, 6, 11, 66
8, 13416, Control_c, 6, 11, 64
8, 13417, Control_c, 6, 11, 61
8, 13418, Control_c, 6, 11, 58
8, 13419, Control_c, 6, 11, 56
8, 13420, Control_c, 6, 11, 53
8, 13421, Control_c, 6, 11, 50
8, 13422, Control_c, 6, 11, 48
8, 13423, Control_c, 6, 11, 45
8, 13424, Control_c, 6, 11, 42
8, 13425, Control_c, 6, 11, 40
8, 13426, Control_c, 6, 11, 37
8, 13427, Control_c, 6, 11, 34
8, 13428, Control_c, 6, 11, 32
8, 13429, Control_c, 6, 11, 29
8, 13430, Control_c, 6, 11, 26
8, 13431, Control_c, 6, 11, 24
8, 13432, Control_c, 6, 11, 21
8, 13433, Control_c, 6, 11, 19
8, 13434, Control_c, 6, 11, 16
8, 13435, Control_c, 6, 11, 13
8, 13436, Control_c, 6, 11, 11
8, 13437, Control_c, 6, 11, 8
8, 13438, Control_c, 6, 11, 5
8, 13439, Control_c, 6, 11, 3
8, 13440, Note_off_c, 6, 93, 64
8, 13440, Control_c, 6, 11, 127
8, 13440, Note_on_c, 6, 33, 64
8, 13441, Control_c, 6, 11, 124
8, 13442, Control_c, 6, 11, 122
8, 13443, Control_c, 6, 11, 119
8, 13444, Control_c, 6, 11, 116
8, 13445, Control_c, 6, 11, 114
8, 13446, Control_c, 6, 11, 111
8, 13447, Control_c, 6, 11, 108
8, 13448, Control_c, 6, 11, 106
8, 13449, Control_c, 6, 11, 103
8, 13450, Control_c, 6, 11, 101
8, 13451, Control_c, 6, 11, 98
8, 13452, Control_c, 6, 11, 95
8, 13453, Control_c, 6, 11, 93
8, 13454, Control_c, 6, 11, 90
8, 13455, Control_c, 6, 11, 87
8, 13456, Control_c, 6, 11, 85
8, 13457, Control_c, 6, 11, 82
8, 13458, Control_c, 6, 11, 79
8, 13459, Control_c, 6, 11, 77
8, 13460, Control_c, 6, 11, 74
8, 13461, Control_c, 6, 11, 71
8, 13462, Control_c, 6, 11, 69
8, 13463, Control_c, 6, 11, 66
8, 13464, Control_c, 6, 11, 64
8, 13465, Control_c, 6, 11, 61
8, 13466, Control_c, 6, 11, 58
8, 13467, Control_c, 6, 11, 56
8, 13468, Control_c, 6, 11, 53
8, 13469, Control_c, 6, 11, 50
8, 13470, Control_c, 6, 11, 48
8, 13471, Control_c, 6, 11, 45
8, 13472, Control_c, 6, 11, 42
8, 13473, Control_c, 6, 11, 40
8, 13474, Control_c, 6, 11, 37
8, 13475, Control_c, 6, 11, 34
8, 13476, Control_c, 6, 11, 32
8, 13477, Control_c, 6, 11, 29
8, 13478, Control_c, 6, 11, 26
8, 13479, Control_c, 6, 11, 24
8, 13480, Control_c, 6, 11, 21
8, 13481, Control_c, 6, 11, 19
8, 13482, Control_c, 6, 11, 16
8, 13483, Control_c, 6, 11, 13
8, 13484, Control_c, 6, 11, 11
8, 13485, Control_c, 6, 11, 8
8, 13486, Control_c, 6, 11, 5
8, 13487, Control_c, 6, 11, 3
8, 13488, Note_off_c, 6, 33, 64
8, 13488, Control_c, 6, 11, 127
8, 13488, Note_on_c, 6, 93, 64
8, 13489, Control_c, 6, 11, 124
8, 13490, Control_c, 6, 11, 122
8, 13491, Control_c, 6, 11, 119
8, 13492, Control_c, 6, 11, 116
8, 13493, Control_c, 6, 11, 114
8, 13494, Control_c, 6, 11, 111
8, 13495, Control_c, 6, 11, 108
8, 13496, Control_c, 6, 11, 106
8, 13497, Control_c, 6, 11, 103
8, 13498, Control_c, 6, 11, 101
8, 13499, Control_c, 6, 11, 98
8, 13500, Control_c, 6, 11, 95
8, 13501, Control_c, 6, 11, 93
8, 13502, Control_c, 6, 11, 90
8, 13503, Control_c, 6, 11, 87
8, 13504, Control_c, 6, 11, 85
8, 13505, Control_c, 6, 11, 82
8, 13506, Control_c, 6, 11, 79
8, 13507, Control_c, 6, 11, 77
8, 13508, Control_c, 6, 11, 74
8, 13509, Control_c, 6, 11, 71
8, 13510, Control_c, 6, 11, 69
8, 13511, Control_c, 6, 11, 66
8, 13512, Control_c, 6, 11, 64
8, 13513, Control_c, 6, 11, 61
8, 13514, Control_c, 6, 11, 58
8, 13515, Control_c, 6, 11, 56
8, 13516, Control_c, 6, 11, 53
8, 13517, Control_c, 6, 11, 50
8, 13518, Control_c, 6, 11, 48
8, 13519, Control_c, 6, 11, 45
8, 13520, Control_c, 6, 11, 42
8, 13521, Control_c, 6, 11, 40
8, 13522, Control_c, 6, 11, 37
8, 13523, Control_c, 6, 11, 34
8, 13524, Control_c, 6, 11, 32
8, 13525, Control_c, 6, 11, 29
8, 13526, Control_c, 6, 11, 26
8, 13527, Control_c, 6, 11, 24
8, 13528, Control_c, 6, 11, 21
8, 13529, Control_c, 6, 11, 19
8, 13530, Control_c, 6, 11, 16
8, 13531, Control_c, 6, 11, 13
8, 13532, Control_c, 6, 11, 11
8, 13533, Control_c, 6, 11, 8
8, 13534, Control_c, 6, 11, 5
8, 13535, Control_c, 6, 11, 3
8, 13536, Note_off_c, 6, 93, 64
8, 13536, Control_c, 6, 11, 127
8, 13536, Note_on_c, 6, 63, 64
8, 13537, Control_c, 6, 11, 124
8, 13538, Control_c, 6, 11, 122
8, 13539, Control_c, 6, 11, 119
8, 13540, Control_c, 6, 11, 116
8, 13541, Control_c, 6, 11, 114
8, 13542, Control_c, 6, 11, 111
8, 13543, Control_c, 6, 11, 108
8, 13544, Control_c, 6, 11, 106
8, 13545, Control_c, 6, 11, 103
8, 13546, Control_c, 6, 11, 101
8, 13547, Control_c, 6, 11, 98
8, 13548, Control_c, 6, 11, 95
8, 13549, Control_c, 6, 11, 93
8, 13550, Control_c, 6, 11, 90
8, 13551, Control_c, 6, 11, 87
8, 13552, Control_c, 6, 11, 85
8, 13553, Control_c, 6, 11, 82
8, 13554, Control_c, 6, 11, 79
8, 13555, Control_c, 6, 11, 77
8, 13556, Control_c, 6, 11, 74
8, 13557, Control_c, 6, 11, 71
8, 13558, Control_c, 6, 11, 69
8, 13559, Control_c, 6, 11, 66
8, 13560, Control_c, 6, 11, 64
8, 13561, Control_c, 6, 11, 61
8, 13562, Control_c, 6, 11, 58
8, 13563, Control_c, 6, 11, 56
8, 13564, Control_c, 6, 11, 53
8, 13565, Control_c, 6, 11, 50
8, 13566, Control_c, 6, 11, 48
8, 13567, Control_c, 6, 11, 45
8, 13568, Control_c, 6, 11, 42
8, 13569, Control_c, 6, 11, 40
8, 13570, Control_c, 6, 11, 37
8, 13571, Control_c, 6, 11, 34
8, 13572, Control_c, 6, 11, 32
8, 13573, Control_c, 6, 11, 29
8, 13574, Control_c, 6, 11, 26
8, 13575, Control_c, 6, 11, 24
8, 13576, Control_c, 6, 11, 21
8, 13577, Control_c, 6, 11, 19
8, 13578, Control_c, 6, 11, 16
8, 13579, Control_c, 6, 11, 13
8, 13580, Control_c, 6, 11, 11
8, 13581, Control_c, 6, 11, 8
8, 13582, Control_c, 6, 11, 5
8, 13583, Control_c, 6, 11, 3
8, 13584, Note_off_c, 6, 63, 64
8, 13584, Control_c, 6, 11, 127
8, 13584, Note_on_c, 6, 93, 64
8, 13585, Control_c, 6, 11, 124
8, 13586, Control_c, 6, 11, 122
8, 13587, Control_c, 6, 11, 119
8, 13588, Control_c, 6, 11, 116
8, 13589, Control_c, 6, 11, 114
8, 13590, Control_c, 6, 11, 111
8, 13591, Control_c, 6, 11, 108
8, 13592, Control_c, 6, 11, 106
8, 13593, Control_c, 6, 11, 103
8, 13594, Control_c, 6, 11, 101
8, 13595, Control_c, 6, 11, 98
8, 13596, Control_c, 6, 11, 95
8, 13597, Control_c, 6, 11, 93
8, 13598, Control_c, 6, 11, 90
8, 13599, Control_c, 6, 11, 87
8, 13600, Control_c, 6, 11, 85
8, 13601, Control_c, 6, 11, 82
8, 13602, Control_c, 6, 11, 79
8, 13603, Control_c, 6, 11, 77
8, 13604, Control_c, 6, 11, 74
8, 13605, Control_c, 6, 11, 71
8, 13606, Control_c, 6, 11, 69
8, 13607, Control_c, 6, 11, 66
8, 13608, Control_c, 6, 11, 64
8, 13609, Control_c, 6, 11, 61
8, 13610, Control_c, 6, 11, 58
8, 13611, Control_c, 6, 11, 56
8, 13612, Control_c, 6, 11, 53
8, 13613, Control_c, 6, 11, 50
8, 13614, Control_c, 6, 11, 48
8, 13615, Control_c, 6, 11, 45
8, 13616, Control_c, 6, 11, 42
8, 13617, Control_c, 6, 11, 40
8, 13618, Control_c, 6, 11, 37
8, 13619, Control_c, 6, 11, 34
8, 13620, Control_c, 6, 11, 32
8, 13621, Control_c, 6, 11, 29
8, 13622, Control_c, 6, 11, 26
8, 13623, Control_c, 6, 11, 24
8, 13624, Control_c, 6, 11, 21
8, 13625, Control_c, 6, 11, 19
8, 13626, Control_c, 6, 11, 16
8, 13627, Control_c, 6, 11, 13
8, 13628, Control_c, 6, 11, 11
8, 13629, Control_c, 6, 11, 8
8, 13630, Control_c, 6, 11, 5
8, 13631, Control_c, 6, 11, 3
8, 13632, Note_off_c, 6, 93, 64
8, 13632, Control_c, 6, 11, 127
8, 13632, Note_on_c, 6, 33, 64
8, 13633, Control_c, 6, 11, 124
8, 13634, Control_c, 6, 11, 122
8, 13635, Control_c, 6, 11, 119
8, 13636, Control_c, 6, 11, 116
8, 13637, Control_c, 6, 11, 114
8, 13638, Control_c, 6, 11, 111
8, 13639, Control_c, 6, 11, 108
8, 13640, Control_c, 6, 11, 106
8, 13641, Control_c, 6, 11, 103
8, 13642, Control_c, 6, 11, 101
8, 13643, Control_c, 6, 11, 98
8, 13644, Control_c, 6, 11, 95
8, 13645, Control_c, 6, 11, 93
8, 13646, Control_c, 6, 11, 90
8, 13647, Control_c, 6, 11, 87
8, 13648, Control_c, 6, 11, 85
8, 13649, Control_c, 6, 11, 82
8, 13650, Control_c, 6, 11, 79
8, 13651, Control_c, 6, 11, 77
8, 13652, Control_c, 6, 11, 74
8, 13653, Control_c, 6, 11, 71
8, 13654, Control_c, 6, 11, 69
8, 13655, Control_c, 6, 11, 66
8, 13656, Control_c, 6, 11, 64
8, 13657, Control_c, 6, 11, 61
8, 13658, Control_c, 6, 11, 58
8, 13659, Control_c, 6, 11, 56
8, 13660, Control_c, 6, 11, 53
8, 13661, Control_c, 6, 11, 50
8, 13662, Control_c, 6, 11, 48
8, 13663, Control_c, 6, 11, 45
8, 13664, Control_c, 6, 11, 42
8, 13665, Control_c, 6, 11, 40
8, 13666, Control_c, 6, 11, 37
8, 13667, Control_c, 6, 11, 34
8, 13668, Control_c, 6, 11, 32
8, 13669, Control_c, 6, 11, 29
8, 13670, Control_c, 6, 11, 26
8, 13671, Control_c, 6, 11, 24
8, 13672, Control_c, 6, 11, 21
8, 13673, Control_c, 6, 11, 19
8, 13674, Control_c, 6, 11, 16
8, 13675, Control_c, 6, 11, 13
8, 13676, Control_c, 6, 11, 11
8, 13677, Control_c, 6, 11, 8
8, 13678, Control_c, 6, 11, 5
8, 13679, Control_c, 6, 11, 3
8, 13680, Note_off_c, 6, 33, 64
8, 13680, Control_c, 6, 11, 127
8, 13680, Note_on_c, 6, 93, 64
8, 13681, Control_c, 6, 11, 124
8, 13682, Control_c, 6, 11, 122
8, 13683, Control_c, 6, 11, 119
8, 13684, Control_c, 6, 11, 116
8, 13685, Control_c, 6, 11, 114
8, 13686, Control_c, 6, 11, 111
8, 13687, Control_c, 6, 11, 108
8, 13688, Control_c, 6, 11, 106
8, 13689, Control_c, 6, 11, 103
8, 13690, Control_c, 6, 11, 101
8, 13691, Control_c, 6, 11, 98
8, 13692, Control_c, 6, 11, 95
8, 13693, Control_c, 6, 11, 93
8, 13694, Control_c, 6, 11, 90
8, 13695, Control_c, 6, 11, 87
8, 13696, Control_c, 6, 11, 85
8, 13697, Control_c, 6, 11, 82
8, 13698, Control_c, 6, 11, 79
8, 13699, Control_c, 6, 11, 77
8, 13700, Control_c, 6, 11, 74
8, 13701, Control_c, 6, 11, 71
8, 13702, Control_c, 6, 11, 69
8, 13703, Control_c, 6, 11, 66
8, 13704, Control_c, 6, 11, 64
8, 13705, Control_c, 6, 11, 61
8, 13706, Control_c, 6, 11, 58
8, 13707, Control_c, 6, 11, 56
8, 13708, Control_c, 6, 11, 53
8, 13709, Control_c, 6, 11, 50
8, 13710, Control_c, 6, 11, 48
8, 13711, Control_c, 6, 11, 45
8, 13712, Control_c, 6, 11, 42
8, 13713, Control_c, 6, 11, 40
8, 13714, Control_c, 6, 11, 37
8, 13715, Control_c, 6, 11, 34
8, 13716, Control_c, 6, 11, 32
8, 13717, Control_c, 6, 11, 29
8, 13718, Control_c, 6, 11, 26
8, 13719, Control_c, 6, 11, 24
8, 13720, Control_c, 6, 11, 21
8, 13721, Control_c, 6, 11, 19
8, 13722, Control_c, 6, 11, 16
8, 13723, Control_c, 6, 11, 13
8, 13724, Control_c, 6, 11, 11
8, 13725, Control_c, 6, 11, 8
8, 13726, Control_c, 6, 11, 5
8, 13727, Control_c, 6, 11, 3
8, 13728, Note_off_c, 6, 93, 64
8, 13728, Control_c, 6, 11, 127
8, 13728, Note_on_c, 6, 63, 64
8, 13729, Control_c, 6, 11, 124
8, 13730, Control_c, 6, 11, 122
8, 13731, Control_c, 6, 11, 119
8, 13732, Control_c, 6, 11, 116
8, 13733, Control_c, 6, 11, 114
8, 13734, Control_c, 6, 11, 111
8, 13735, Control_c, 6, 11, 108
8, 13736, Control_c, 6, 11, 106
8, 13737, Control_c, 6, 11, 103
8, 13738, Control_c, 6, 11, 101
8, 13739, Control_c, 6, 11, 98
8, 13740, Control_c, 6, 11, 95
8, 13741, Control_c, 6, 11, 93
8, 13742, Control_c, 6, 11, 90
8, 13743, Control_c, 6, 11, 87
8, 13744, Control_c, 6, 11, 85
8, 13745, Control_c, 6, 11, 82
8, 13746, Control_c, 6, 11, 79
8, 13747, Control_c, 6, 11, 77
8, 13748, Control_c, 6, 11, 74
8, 13749, Control_c, 6, 11, 71
8, 13750, Control_c, 6, 11, 69
8, 13751, Control_c, 6, 11, 66
8, 13752, Control_c, 6, 11, 64
8, 13753, Control_c, 6, 11, 61
8, 13754, Control_c, 6, 11, 58
8, 13755, Control_c, 6, 11, 56
8, 13756, Control_c, 6, 11, 53
8, 13757, Control_c, 6, 11, 50
8, 13758, Control_c, 6, 11, 48
8, 13759, Control_c, 6, 11, 45
8, 13760, Control_c, 6, 11, 42
8, 13761, Control_c, 6, 11, 40
8, 13762, Control_c, 6, 11, 37
8, 13763, Control_c, 6, 11, 34
8, 13764, Control_c, 6, 11, 32
8, 13765, Control_c, 6, 11, 29
8, 13766, Control_c, 6, 11, 26
8, 13767, Control_c, 6, 11, 24
8, 13768, Control_c, 6, 11, 21
8, 13769, Control_c, 6, 11, 19
8, 13770, Control_c, 6, 11, 16
8, 13771, Control_c, 6, 11, 13
8, 13772, Control_c, 6, 11, 11
8, 13773, Control_c, 6, 11, 8
8, 13774, Control_c, 6, 11, 5
8, 13775, Control_c, 6, 11, 3
8, 13776, Note_off_c, 6, 63, 64
8, 13776, Control_c, 6, 11, 127
8, 13776, Note_on_c, 6, 63, 64
8, 13777, Control_c, 6, 11, 124
8, 13778, Control_c, 6, 11, 122
8, 13779, Control_c, 6, 11, 119
8, 13780, Control_c, 6, 11, 116
8, 13781, Control_c, 6, 11, 114
8, 13782, Control_c, 6, 11, 111
8, 13783, Control_c, 6, 11, 108
8, 13784, Control_c, 6, 11, 106
8, 13785, Control_c, 6, 11, 103
8, 13786, Control_c, 6, 11, 101
8, 13787, Control_c, 6, 11, 98
8, 13788, Control_c, 6, 11, 95
8, 13789, Control_c, 6, 11, 93
8, 13790, Control_c, 6, 11, 90
8, 13791, Control_c, 6, 11, 87
8, 13792, Control_c, 6, 11, 85
8, 13793, Control_c, 6, 11, 82
8, 13794, Control_c, 6, 11, 79
8, 13795, Control_c, 6, 11, 77
8, 13796, Control_c, 6, 11, 74
8, 13797, Control_c, 6, 11, 71
8, 13798, Control_c, 6, 11, 69
8, 13799, Control_c, 6, 11, 66
8, 13800, Control_c, 6, 11, 64
8, 13801, Control_c, 6, 11, 61
8, 13802, Control_c, 6, 11, 58
8, 13803, Control_c, 6, 11, 56
8, 13804, Control_c, 6, 11, 53
8, 13805, Control_c, 6, 11, 50
8, 13806, Control_c, 6, 11, 48
8, 13807, Control_c, 6, 11, 45
8, 13808, Control_c, 6, 11, 42
8, 13809, Control_c, 6, 11, 40
8, 13810, Control_c, 6, 11, 37
8, 13811, Control_c, 6, 11, 34
8, 13812, Control_c, 6, 11, 32
8, 13813, Control_c, 6, 11, 29
8, 13814, Control_c, 6, 11, 26
8, 13815, Control_c, 6, 11, 24
8, 13816, Control_c, 6, 11, 21
8, 13817, Control_c, 6, 11, 19
8, 13818, Control_c, 6, 11, 16
8, 13819, Control_c, 6, 11, 13
8, 13820, Control_c, 6, 11, 11
8, 13821, Control_c, 6, 11, 8
8, 13822, Control_c, 6, 11, 5
8, 13823, Control_c, 6, 11, 3
8, 13824, Note_off_c, 6, 63, 64
8, 13824, Control_c, 6, 11, 127
8, 13824, Note_on_c, 6, 33, 64
8, 13825, Control_c, 6, 11, 124
8, 13826, Control_c, 6, 11, 122
8, 13827, Control_c, 6, 11, 119
8, 13828, Control_c, 6, 11, 116
8, 13829, Control_c, 6, 11, 114
8, 13830, Control_c, 6, 11, 111
8, 13831, Control_c, 6, 11, 108
8, 13832, Control_c, 6, 11, 106
8, 13833, Control_c, 6, 11, 103
8, 13834, Control_c, 6, 11, 101
8, 13835, Control_c, 6, 11, 98
8, 13836, Control_c, 6, 11, 95
8, 13837, Control_c, 6, 11, 93
8, 13838, Control_c, 6, 11, 90
8, 13839, Control_c, 6, 11, 87
8, 13840, Control_c, 6, 11, 85
8, 13841, Control_c, 6, 11, 82
8, 13842, Control_c, 6, 11, 79
8, 13843, Control_c, 6, 11, 77
8, 13844, Control_c, 6, 11, 74
8, 13845, Control_c, 6, 11, 71
8, 13846, Control_c, 6, 11, 69
8, 13847, Control_c, 6, 11, 66
8, 13848, Control_c, 6, 11, 64
8, 13849, Control_c, 6, 11, 61
8, 13850, Control_c, 6, 11, 58
8, 13851, Control_c, 6, 11, 56
8, 13852, Control_c, 6, 11, 53
8, 13853, Control_c, 6, 11, 50
8, 13854, Control_c, 6, 11, 48
8, 13855, Control_c, 6, 11, 45
8, 13856, Control_c, 6, 11, 42
8, 13857, Control_c, 6, 11, 40
8, 13858, Control_c, 6, 11, 37
8, 13859, Control_c, 6, 11, 34
8, 13860, Control_c, 6, 11, 32
8, 13861, Control_c, 6, 11, 29
8, 13862, Control_c, 6, 11, 26
8, 13863, Control_c, 6, 11, 24
8, 13864, Control_c, 6, 11, 21
8, 13865, Control_c, 6, 11, 19
8, 13866, Control_c, 6, 11, 16
8, 13867, Control_c, 6, 11, 13
8, 13868, Control_c, 6, 11, 11
8, 13869, Control_c, 6, 11, 8
8, 13870, Control_c, 6, 11, 5
8, 13871, Control_c, 6, 11, 3
8, 13872, Note_off_c, 6, 33, 64
8, 13872, Control_c, 6, 11, 127
8, 13872, Note_on_c, 6, 93, 64
8, 13873, Control_c, 6, 11, 124
8, 13874, Control_c, 6, 11, 122
8, 13875, Control_c, 6, 11, 119
8, 13876, Control_c, 6, 11, 116
8, 13877, Control_c, 6, 11, 114
8, 13878, Control_c, 6, 11, 111
8, 13879, Control_c, 6, 11, 108
8, 13880, Control_c, 6, 11, 106
8, 13881, Control_c, 6, 11, 103
8, 13882, Control_c, 6, 11, 101
8, 13883, Control_c, 6, 11, 98
8, 13884, Control_c, 6, 11, 95
8, 13885, Control_c, 6, 11, 93
8, 13886, Control_c, 6, 11, 90
8, 13887, Control_c, 6, 11, 87
8, 13888, Control_c, 6, 11, 85
8, 13889, Control_c, 6, 11, 82
8, 13890, Control_c, 6, 11, 79
8, 13891, Control_c, 6, 11, 77
8, 13892, Control_c, 6, 11, 74
8, 13893, Control_c, 6, 11, 71
8, 13894, Control_c, 6, 11, 69
8, 13895, Control_c, 6, 11, 66
8, 13896, Control_c, 6, 11, 64
8, 13897, Control_c, 6, 11, 61
8, 13898, Control_c, 6, 11, 58
8, 13899, Control_c, 6, 11, 56
8, 13900, Control_c, 6, 11, 53
8, 13901, Control_c, 6, 11, 50
8, 13902, Control_c, 6, 11, 48
8, 13903, Control_c, 6, 11, 45
8, 13904, Control_c, 6, 11, 42
8, 13905, Control_c, 6, 11, 40
8, 13906, Control_c, 6, 11, 37
8, 13907, Control_c, 6, 11, 34
8, 13908, Control_c, 6, 11, 32
8, 13909, Control_c, 6, 11, 29
8, 13910, Control_c, 6, 11, 26
8, 13911, Control_c, 6, 11, 24
8, 13912, Control_c, 6, 11, 21
8, 13913, Control_c, 6, 11, 19
8, 13914, Control_c, 6, 11, 16
8, 13915, Control_c, 6, 11, 13
8, 13916, Control_c, 6, 11, 11
8, 13917, Control_c, 6, 11, 8
8, 13918, Control_c, 6, 11, 5
8, 13919, Control_c, 6, 11, 3
8, 13920, Note_off_c, 6, 93, 64
8, 13920, Control_c, 6, 11, 127
8, 13920, Note_on_c, 6, 63, 64
8, 13921, Control_c, 6, 11, 124
8, 13922, Control_c, 6, 11, 122
8, 13923, Control_c, 6, 11, 119
8, 13924, Control_c, 6, 11, 116
8, 13925, Control_c, 6, 11, 114
8, 13926, Control_c, 6, 11, 111
8, 13927, Control_c, 6, 11, 108
8, 13928, Control_c, 6, 11, 106
8, 13929, Control_c, 6, 11, 103
8, 13930, Control_c, 6, 11, 101
8, 13931, Control_c, 6, 11, 98
8, 13932, Control_c, 6, 11, 95
8, 13933, Control_c, 6, 11, 93
8, 13934, Control_c, 6, 11, 90
8, 13935, Control_c, 6, 11, 87
8, 13936, Control_c, 6, 11, 85
8, 13937, Control_c, 6, 11, 82
8, 13938, Control_c, 6, 11, 79
8, 13939, Control_c, 6, 11, 77
8, 13940, Control_c, 6, 11, 74
8, 13941, Control_c, 6, 11, 71
8, 13942, Control_c, 6, 11, 69
8, 13943, Control_c, 6, 11, 66
8, 13944, Control_c, 6, 11, 64
8, 13945, Control_c, 6, 11, 61
8, 13946, Control_c, 6, 11, 58
8, 13947, Control_c, 6, 11, 56
8, 13948, Control_c, 6, 11, 53
8, 13949, Control_c, 6, 11, 50
8, 13950, Control_c, 6, 11, 48
8, 13951, Control_c, 6, 11, 45
8, 13952, Control_c, 6, 11, 42
8, 13953, Control_c, 6, 11, 40
8, 13954, Control_c, 6, 11, 37
8, 13955, Control_c, 6, 11, 34
8, 13956, Control_c, 6, 11, 32
8, 13957, Control_c, 6, 11, 29
8, 13958, Control_c, 6, 11, 26
8, 13959, Control_c, 6, 11, 24
8, 13960, Control_c, 6, 11, 21
8, 13961, Control_c, 6, 11, 19
8, 13962, Control_c, 6, 11, 16
8, 13963, Control_c, 6, 11, 13
8, 13964, Control_c, 6, 11, 11
8, 13965, Control_c, 6, 11, 8
8, 13966, Control_c, 6, 11, 5
8, 13967, Control_c, 6, 11, 3
8, 13968, Note_off_c, 6, 63, 64
8, 13968, Control_c, 6, 11, 127
8, 13968, Note_on_c, 6, 93, 64
8, 13969, Control_c, 6, 11, 124
8, 13970, Control_c, 6, 11, 122
8, 13971, Control_c, 6, 11, 119
8, 13972, Control_c, 6, 11, 116
8, 13973, Control_c, 6, 11, 114
8, 13974, Control_c, 6, 11, 111
8, 13975, Control_c, 6, 11, 108
8, 13976, Control_c, 6, 11, 106
8, 13977, Control_c, 6, 11, 103
8, 13978, Control_c, 6, 11, 101
8, 13979, Control_c, 6, 11, 98
8, 13980, Control_c, 6, 11, 95
8, 13981, Control_c, 6, 11, 93
8, 13982, Control_c, 6, 11, 90
8, 13983, Control_c, 6, 11, 87
8, 13984, Control_c, 6, 11, 85
8, 13985, Control_c, 6, 11, 82
8, 13986, Control_c, 6, 11, 79
8, 13987, Control_c, 6, 11, 77
8, 13988, Control_c, 6, 11, 74
8, 13989, Control_c, 6, 11, 71
8, 13990, Control_c, 6, 11, 69
8, 13991, Control_c, 6, 11, 66
8, 13992, Control_c, 6, 11, 64
8, 13993, Control_c, 6, 11, 61
8, 13994, Control_c, 6, 11, 58
8, 13995, Control_c, 6, 11, 56
8, 13996, Control_c, 6, 11, 53
8, 13997, Control_c, 6, 11, 50
8, 13998, Control_c, 6, 11, 48
8, 13999, Control_c, 6, 11, 45
8, 14000, Control_c, 6, 11, 42
8, 14001, Control_c, 6, 11, 40
8, 14002, Control_c, 6, 11, 37
8, 14003, Control_c, 6, 11, 34
8, 14004, Control_c, 6, 11, 32
8, 14005, Control_c, 6, 11, 29
8, 14006, Control_c, 6, 11, 26
8, 14007, Control_c, 6, 11, 24
8, 14008, Control_c, 6, 11, 21
8, 14009, Control_c, 6, 11, 19
8, 14010, Control_c, 6, 11, 16
8, 14011, Control_c, 6, 11, 13
8, 14012, Control_c, 6, 11, 11
8, 14013, Control_c, 6, 11, 8
8, 14014, Control_c, 6, 11, 5
8, 14015, Control_c, 6, 11, 3
8, 14016, Note_off_c, 6, 93, 64
8, 14016, Control_c, 6, 11, 127
8, 14016, Note_on_c, 6, 33, 64
8, 14017, Control_c, 6, 11, 124
8, 14018, Control_c, 6, 11, 122
8, 14019, Control_c, 6, 11, 119
8, 14020, Control_c, 6, 11, 116
8, 14021, Control_c, 6, 11, 114
8, 14022, Control_c, 6, 11, 111
8, 14023, Control_c, 6, 11, 108
8, 14024, Control_c, 6, 11, 106
8, 14025, Control_c, 6, 11, 103
8, 14026, Control_c, 6, 11, 101
8, 14027, Control_c, 6, 11, 98
8, 14028, Control_c, 6, 11, 95
8, 14029, Control_c, 6, 11, 93
8, 14030, Control_c, 6, 11, 90
8, 14031, Control_c, 6, 11, 87
8, 14032, Control_c, 6, 11, 85
8, 14033, Control_c, 6, 11, 82
8, 14034, Control_c, 6, 11, 79
8, 14035, Control_c, 6, 11, 77
8, 14036, Control_c, 6, 11, 74
8, 14037, Control_c, 6, 11, 71
8, 14038, Control_c, 6, 11, 69
8, 14039, Control_c, 6, 11, 66
8, 14040, Control_c, 6, 11, 64
8, 14041, Control_c, 6, 11, 61
8, 14042, Control_c, 6, 11, 58
8, 14043, Control_c, 6, 11, 56
8, 14044, Control_c, 6, 11, 53
8, 14045, Control_c, 6, 11, 50
8, 14046, Control_c, 6, 11, 48
8, 14047, Control_c, 6, 11, 45
8, 14048, Control_c, 6, 11, 42
8, 14049, Control_c, 6, 11, 40
8, 14050, Control_c, 6, 11, 37
8, 14051, Control_c, 6, 11, 34
8, 14052, Control_c, 6, 11, 32
8, 14053, Control_c, 6, 11, 29
8, 14054, Control_c, 6, 11, 26
8, 14055, Control_c, 6, 11, 24
8, 14056, Control_c, 6, 11, 21
8, 14057, Control_c, 6, 11, 19
8, 14058, Control_c, 6, 11, 16
8, 14059, Control_c, 6, 11, 13
8, 14060, Control_c, 6, 11, 11
8, 14061, Control_c, 6, 11, 8
8, 14062, Control_c, 6, 11, 5
8, 14063, Control_c, 6, 11, 3
8, 14064, Note_off_c, 6, 33, 64
8, 14064, Control_c, 6, 11, 127
8, 14064, Note_on_c, 6, 93, 64
8, 14065, Control_c, 6, 11, 124
8, 14066, Control_c, 6, 11, 122
8, 14067, Control_c, 6, 11, 119
8, 14068, Control_c, 6, 11, 116
8, 14069, Control_c, 6, 11, 114
8, 14070, Control_c, 6, 11, 111
8, 14071, Control_c, 6, 11, 108
8, 14072, Control_c, 6, 11, 106
8, 14073, Control_c, 6, 11, 103
8, 14074, Control_c, 6, 11, 101
8, 14075, Control_c, 6, 11, 98
8, 14076, Control_c, 6, 11, 95
8, 14077, Control_c, 6, 11, 93
8, 14078, Control_c, 6, 11, 90
8, 14079, Control_c, 6, 11, 87
8, 14080, Control_c, 6, 11, 85
8, 14081, Control_c, 6, 11, 82
8, 14082, Control_c, 6, 11, 79
8, 14083, Control_c, 6, 11, 77
8, 14084, Control_c, 6, 11, 74
8, 14085, Control_c, 6, 11, 71
8, 14086, Control_c, 6, 11, 69
8, 14087, Control_c, 6, 11, 66
8, 14088, Control_c, 6, 11, 64
8, 14089, Control_c, 6, 11, 61
8, 14090, Control_c, 6, 11, 58
8, 14091, Control_c, 6, 11, 56
8, 14092, Control_c, 6, 11, 53
8, 14093, Control_c, 6, 11, 50
8, 14094, Control_c, 6, 11, 48
8, 14095, Control_c, 6, 11, 45
8, 14096, Control_c, 6, 11, 42
8, 14097, Control_c, 6, 11, 40
8, 14098, Control_c, 6, 11, 37
8, 14099, Control_c, 6, 11, 34
8, 14100, Control_c, 6, 11, 32
8, 14101, Control_c, 6, 11, 29
8, 14102, Control_c, 6, 11, 26
8, 14103, Control_c, 6, 11, 24
8, 14104, Control_c, 6, 11, 21
8, 14105, Control_c, 6, 11, 19
8, 14106, Control_c, 6, 11, 16
8, 14107, Control_c, 6, 11, 13
8, 14108, Control_c, 6, 11, 11
8, 14109, Control_c, 6, 11, 8
8, 14110, Control_c, 6, 11, 5
8, 14111, Control_c, 6, 11, 3
8, 14112, Note_off_c, 6, 93, 64
8, 14112, Control_c, 6, 11, 127
8, 14112, Note_on_c, 6, 63, 64
8, 14113, Control_c, 6, 11, 124
8, 14114, Control_c, 6, 11, 122
8, 14115, Control_c, 6, 11, 119
8, 14116, Control_c, 6, 11, 116
8, 14117, Control_c, 6, 11, 114
8, 14118, Control_c, 6, 11, 111
8, 14119, Control_c, 6, 11, 108
8, 14120, Control_c, 6, 11, 106
8, 14121, Control_c, 6, 11, 103
8, 14122, Control_c, 6, 11, 101
8, 14123, Control_c, 6, 11, 98
8, 14124, Control_c, 6, 11, 95
8, 14125, Control_c, 6, 11, 93
8, 14126, Control_c, 6, 11, 90
8, 14127, Control_c, 6, 11, 87
8, 14128, Control_c, 6, 11, 85
8, 14129, Control_c, 6, 11, 82
8, 14130, Control_c, 6, 11, 79
8, 14131, Control_c, 6, 11, 77
8, 14132, Control_c, 6, 11, 74
8, 14133, Control_c, 6, 11, 71
8, 14134, Control_c, 6, 11, 69
8, 14135, Control_c, 6, 11, 66
8, 14136, Control_c, 6, 11, 64
8, 14137, Control_c, 6, 11, 61
8, 14138, Control_c, 6, 11, 58
8, 14139, Control_c, 6, 11, 56
8, 14140, Control_c, 6, 11, 53
8, 14141, Control_c, 6, 11, 50
8, 14142, Control_c, 6, 11, 48
8, 14143, Control_c, 6, 11, 45
8, 14144, Control_c, 6, 11, 42
8, 14145, Control_c, 6, 11, 40
8, 14146, Control_c, 6, 11, 37
8, 14147, Control_c, 6, 11, 34
8, 14148, Control_c, 6, 11, 32
8, 14149, Control_c, 6, 11, 29
8, 14150, Control_c, 6, 11, 26
8, 14151, Control_c, 6, 11, 24
8, 14152, Control_c, 6, 11, 21
8, 14153, Control_c, 6, 11, 19
8, 14154, Control_c, 6, 11, 16
8, 14155, Control_c, 6, 11, 13
8, 14156, Control_c, 6, 11, 11
8, 14157, Control_c, 6, 11, 8
8, 14158, Control_c, 6, 11, 5
8, 14159, Control_c, 6, 11, 3
8, 14160, Note_off_c, 6, 63, 64
8, 14160, Control_c, 6, 11, 127
8, 14160, Note_on_c, 6, 93, 64
8, 14161, Control_c, 6, 11, 124
8, 14162, Control_c, 6, 11, 122
8, 14163, Control_c, 6, 11, 119
8, 14164, Control_c, 6, 11, 116
8, 14165, Control_c, 6, 11, 114
8, 14166, Control_c, 6, 11, 111
8, 14167, Control_c, 6, 11, 108
8, 14168, Control_c, 6, 11, 106
8, 14169, Control_c, 6, 11, 103
8, 14170, Control_c, 6, 11, 101
8, 14171, Control_c, 6, 11, 98
8, 14172, Control_c, 6, 11, 95
8, 14173, Control_c, 6, 11, 93
8, 14174, Control_c, 6, 11, 90
8, 14175, Control_c, 6, 11, 87
8, 14176, Control_c, 6, 11, 85
8, 14177, Control_c, 6, 11, 82
8, 14178, Control_c, 6, 11, 79
8, 14179, Control_c, 6, 11, 77
8, 14180, Control_c, 6, 11, 74
8, 14181, Control_c, 6, 11, 71
8, 14182, Control_c, 6, 11, 69
8, 14183, Control_c, 6, 11, 66
8, 14184, Control_c, 6, 11, 64
8, 14185, Control_c, 6, 11, 61
8, 14186, Control_c, 6, 11, 58
8, 14187, Control_c, 6, 11, 56
8, 14188, Control_c, 6, 11, 53
8, 14189, Control_c, 6, 11, 50
8, 14190, Control_c, 6, 11, 48
8, 14191, Control_c, 6, 11, 45
8, 14192, Control_c, 6, 11, 42
8, 14193, Control_c, 6, 11, 40
8, 14194, Control_c, 6, 11, 37
8, 14195, Control_c, 6, 11, 34
8, 14196, Control_c, 6, 11, 32
8, 14197, Control_c, 6, 11, 29
8, 14198, Control_c, 6, 11, 26
8, 14199, Control_c, 6, 11, 24
8, 14200, Control_c, 6, 11, 21
8, 14201, Control_c, 6, 11, 19
8, 14202, Control_c, 6, 11, 16
8, 14203, Control_c, 6, 11, 13
8, 14204, Control_c, 6, 11, 11
8, 14205, Control_c, 6, 11, 8
8, 14206, Control_c, 6, 11, 5
8, 14207, Control_c, 6, 11, 3
8, 14208, Note_off_c, 6, 93, 64
8, 14208, Control_c, 6, 11, 127
8, 14208, Note_on_c, 6, 33, 64
8, 14209, Control_c, 6, 11, 124
8, 14210, Control_c, 6, 11, 122
8, 14211, Control_c, 6, 11, 119
8, 14212, Control_c, 6, 11, 116
8, 14213, Control_c, 6, 11, 114
8, 14214, Control_c, 6, 11, 111
8, 14215, Control_c, 6, 11, 108
8, 14216, Control_c, 6, 11, 106
8, 14217, Control_c, 6, 11, 103
8, 14218, Control_c, 6, 11, 101
8, 14219, Control_c, 6, 11, 98
8, 14220, Control_c, 6, 11, 95
8, 14221, Control_c, 6, 11, 93
8, 14222, Control_c, 6, 11, 90
8, 14223, Control_c, 6, 11, 87
8, 14224, Control_c, 6, 11, 85
8, 14225, Control_c, 6, 11, 82
8, 14226, Control_c, 6, 11, 79
8, 14227, Control_c, 6, 11, 77
8, 14228, Control_c, 6, 11, 74
8, 14229, Control_c, 6, 11, 71
8, 14230, Control_c, 6, 11, 69
8, 14231, Control_c, 6, 11, 66
8, 14232, Control_c, 6, 11, 64
8, 14233, Control_c, 6, 11, 61
8, 14234, Control_c, 6, 11, 58
8, 14235, Control_c, 6, 11, 56
8, 14236, Control_c, 6, 11, 53
8, 14237, Control_c, 6, 11, 50
8, 14238, Control_c, 6, 11, 48
8, 14239, Control_c, 6, 11, 45
8, 14240, Control_c, 6, 11, 42
8, 14241, Control_c, 6, 11, 40
8, 14242, Control_c, 6, 11, 37
8, 14243, Control_c, 6, 11, 34
8, 14244, Control_c, 6, 11, 32
8, 14245, Control_c, 6, 11, 29
8, 14246, Control_c, 6, 11, 26
8, 14247, Control_c, 6, 11, 24
8, 14248, Control_c, 6, 11, 21
8, 14249, Control_c, 6, 11, 19
8, 14250, Control_c, 6, 11, 16
8, 14251, Control_c, 6, 11, 13
8, 14252, Control_c, 6, 11, 11
8, 14253, Control_c, 6, 11, 8
8, 14254, Control_c, 6, 11, 5
8, 14255, Control_c, 6, 11, 3
8, 14256, Note_off_c, 6, 33, 64
8, 14256, Control_c, 6, 11, 127
8, 14256, Note_on_c, 6, 93, 64
8, 14257, Control_c, 6, 11, 124
8, 14258, Control_c, 6, 11, 122
8, 14259, Control_c, 6, 11, 119
8, 14260, Control_c, 6, 11, 116
8, 14261, Control_c, 6, 11, 114
8, 14262, Control_c, 6, 11, 111
8, 14263, Control_c, 6, 11, 108
8, 14264, Control_c, 6, 11, 106
8, 14265, Control_c, 6, 11, 103
8, 14266, Control_c, 6, 11, 101
8, 14267, Control_c, 6, 11, 98
8, 14268, Control_c, 6, 11, 95
8, 14269, Control_c, 6, 11, 93
8, 14270, Control_c, 6, 11, 90
8, 14271, Control_c, 6, 11, 87
8, 14272, Control_c, 6, 11, 85
8, 14273, Control_c, 6, 11, 82
8, 14274, Control_c, 6, 11, 79
8, 14275, Control_c, 6, 11, 77
8, 14276, Control_c, 6, 11, 74
8, 14277, Control_c, 6, 11, 71
8, 14278, Control_c, 6, 11, 69
8, 14279, Control_c, 6, 11, 66
8, 14280, Control_c, 6, 11, 64
8, 14281, Control_c, 6, 11, 61
8, 14282, Control_c, 6, 11, 58
8, 14283, Control_c, 6, 11, 56
8, 14284, Control_c, 6, 11, 53
8, 14285, Control_c, 6, 11, 50
8, 14286, Control_c, 6, 11, 48
8, 14287, Control_c, 6, 11, 45
8, 14288, Control_c, 6, 11, 42
8, 14289, Control_c, 6, 11, 40
8, 14290, Control_c, 6, 11, 37
8, 14291, Control_c, 6, 11, 34
8, 14292, Control_c, 6, 11, 32
8, 14293, Control_c, 6, 11, 29
8, 14294, Control_c, 6, 11, 26
8, 14295, Control_c, 6, 11, 24
8, 14296, Control_c, 6, 11, 21
8, 14297, Control_c, 6, 11, 19
8, 14298, Control_c, 6, 11, 16
8, 14299, Control_c, 6, 11, 13
8, 14300, Control_c, 6, 11, 11
8, 14301, Control_c, 6, 11, 8
8, 14302, Control_c, 6, 11, 5
8, 14303, Control_c, 6, 11, 3
8, 14304, Note_off_c, 6, 93, 64
8, 14304, Control_c, 6, 11, 127
8, 14304, Note_on_c, 6, 63, 64
8, 14305, Control_c, 6, 11, 124
8, 14306, Control_c, 6, 11, 122
8, 14307, Control_c, 6, 11, 119
8, 14308, Control_c, 6, 11, 116
8, 14309, Control_c, 6, 11, 114
8, 14310, Control_c, 6, 11, 111
8, 14311, Control_c, 6, 11, 108
8, 14312, Control_c, 6, 11, 106
8, 14313, Control_c, 6, 11, 103
8, 14314, Control_c, 6, 11, 101
8, 14315, Control_c, 6, 11, 98
8, 14316, Control_c, 6, 11, 95
8, 14317, Control_c, 6, 11, 93
8, 14318, Control_c, 6, 11, 90
8, 14319, Control_c, 6, 11, 87
8, 14320, Control_c, 6, 11, 85
8, 14321, Control_c, 6, 11, 82
8, 14322, Control_c, 6, 11, 79
8, 14323, Control_c, 6, 11, 77
8, 14324, Control_c, 6, 11, 74
8, 14325, Control_c, 6, 11, 71
8, 14326, Control_c, 6, 11, 69
8, 14327, Control_c, 6, 11, 66
8, 14328, Control_c, 6, 11, 64
8, 14329, Control_c, 6, 11, 61
8, 14330, Control_c, 6, 11, 58
8, 14331, Control_c, 6, 11, 56
8, 14332, Control_c, 6, 11, 53
8, 14333, Control_c, 6, 11, 50
8, 14334, Control_c, 6, 11, 48
8, 14335, Control_c, 6, 11, 45
8, 14336, Control_c, 6, 11, 42
8, 14337, Control_c, 6, 11, 40
8, 14338, Control_c, 6, 11, 37
8, 14339, Control_c, 6, 11, 34
8, 14340, Control_c, 6, 11, 32
8, 14341, Control_c, 6, 11, 29
8, 14342, Control_c, 6, 11, 26
8, 14343, Control_c, 6, 11, 24
8, 14344, Control_c, 6, 11, 21
8, 14345, Control_c, 6, 11, 19
8, 14346, Control_c, 6, 11, 16
8, 14347, Control_c, 6, 11, 13
8, 14348, Control_c, 6, 11, 11
8, 14349, Control_c, 6, 11, 8
8, 14350, Control_c, 6, 11, 5
8, 14351, Control_c, 6, 11, 3
8, 14352, Note_off_c, 6, 63, 64
8, 14352, Control_c, 6, 11, 127
8, 14352, Note_on_c, 6, 93, 64
8, 14353, Control_c, 6, 11, 124
8, 14354, Control_c, 6, 11, 122
8, 14355, Control_c, 6, 11, 119
8, 14356, Control_c, 6, 11, 116
8, 14357, Control_c, 6, 11, 114
8, 14358, Control_c, 6, 11, 111
8, 14359, Control_c, 6, 11, 108
8, 14360, Control_c, 6, 11, 106
8, 14361, Control_c, 6, 11, 103
8, 14362, Control_c, 6, 11, 101
8, 14363, Control_c, 6, 11, 98
8, 14364, Control_c, 6, 11, 95
8, 14365, Control_c, 6, 11, 93
8, 14366, Control_c, 6, 11, 90
8, 14367, Control_c, 6, 11, 87
8, 14368, Control_c, 6, 11, 85
8, 14369, Control_c, 6, 11, 82
8, 14370, Control_c, 6, 11, 79
8, 14371, Control_c, 6, 11, 77
8, 14372, Control_c, 6, 11, 74
8, 14373, Control_c, 6, 11, 71
8, 14374, Control_c, 6, 11, 69
8, 14375, Control_c, 6, 11, 66
8, 14376, Control_c, 6, 11, 64
8, 14377, Control_c, 6, 11, 61
8, 14378, Control_c, 6, 11, 58
8, 14379, Control_c, 6, 11, 56
8, 14380, Control_c, 6, 11, 53
8, 14381, Control_c, 6, 11, 50
8, 14382, Control_c, 6, 11, 48
8, 14383, Control_c, 6, 11, 45
8, 14384, Control_c, 6, 11, 42
8, 14385, Control_c, 6, 11, 40
8, 14386, Control_c, 6, 11, 37
8, 14387, Control_c, 6, 11, 34
8, 14388, Control_c, 6, 11, 32
8, 14389, Control_c, 6, 11, 29
8, 14390, Control_c, 6, 11, 26
8, 14391, Control_c, 6, 11, 24
8, 14392, Control_c, 6, 11, 21
8, 14393, Control_c, 6, 11, 19
8, 14394, Control_c, 6, 11, 16
8, 14395, Control_c, 6, 11, 13
8, 14396, Control_c, 6, 11, 11
8, 14397, Control_c, 6, 11, 8
8, 14398, Control_c, 6, 11, 5
8, 14399, Control_c, 6, 11, 3
8, 14400, Note_off_c, 6, 93, 64
8, 14400, Control_c, 6, 11, 127
8, 14400, Note_on_c, 6, 33, 64
8, 14401, Control_c, 6, 11, 124
8, 14402, Control_c, 6, 11, 122
8, 14403, Control_c, 6, 11, 119
8, 14404, Control_c, 6, 11, 116
8, 14405, Control_c, 6, 11, 114
8, 14406, Control_c, 6, 11, 111
8, 14407, Control_c, 6, 11, 108
8, 14408, Control_c, 6, 11, 106
8, 14409, Control_c, 6, 11, 103
8, 14410, Control_c, 6, 11, 101
8, 14411, Control_c, 6, 11, 98
8, 14412, Control_c, 6, 11, 95
8, 14413, Control_c, 6, 11, 93
8, 14414, Control_c, 6, 11, 90
8, 14415, Control_c, 6, 11, 87
8, 14416, Control_c, 6, 11, 85
8, 14417, Control_c, 6, 11, 82
8, 14418, Control_c, 6, 11, 79
8, 14419, Control_c, 6, 11, 77
8, 14420, Control_c, 6, 11, 74
8, 14421, Control_c, 6, 11, 71
8, 14422, Control_c, 6, 11, 69
8, 14423, Control_c, 6, 11, 66
8, 14424, Control_c, 6, 11, 64
8, 14425, Control_c, 6, 11, 61
8, 14426, Control_c, 6, 11, 58
8, 14427, Control_c, 6, 11, 56
8, 14428, Control_c, 6, 11, 53
8, 14429, Control_c, 6, 11, 50
8, 14430, Control_c, 6, 11, 48
8, 14431, Control_c, 6, 11, 45
8, 14432, Control_c, 6, 11, 42
8, 14433, Control_c, 6, 11, 40
8, 14434, Control_c, 6, 11, 37
8, 14435, Control_c, 6, 11, 34
8, 14436, Control_c, 6, 11, 32
8, 14437, Control_c, 6, 11, 29
8, 14438, Control_c, 6, 11, 26
8, 14439, Control_c, 6, 11, 24
8, 14440, Control_c, 6, 11, 21
8, 14441, Control_c, 6, 11, 19
8, 14442, Control_c, 6, 11, 16
8, 14443, Control_c, 6, 11, 13
8, 14444, Control_c, 6, 11, 11
8, 14445, Control_c, 6, 11, 8
8, 14446, Control_c, 6, 11, 5
8, 14447, Control_c, 6, 11, 3
8, 14448, Note_off_c, 6, 33, 64
8, 14448, Control_c, 6, 11, 127
8, 14448, Note_on_c, 6, 93, 64
8, 14449, Control_c, 6, 11, 124
8, 14450, Control_c, 6, 11, 122
8, 14451, Control_c, 6, 11, 119
8, 14452, Control_c, 6, 11, 116
8, 14453, Control_c, 6, 11, 114
8, 14454, Control_c, 6, 11, 111
8, 14455, Control_c, 6, 11, 108
8, 14456, Control_c, 6, 11, 106
8, 14457, Control_c, 6, 11, 103
8, 14458, Control_c, 6, 11, 101
8, 14459, Control_c, 6, 11, 98
8, 14460, Control_c, 6, 11, 95
8, 14461, Control_c, 6, 11, 93
8, 14462, Control_c, 6, 11, 90
8, 14463, Control_c, 6, 11, 87
8, 14464, Control_c, 6, 11, 85
8, 14465, Control_c, 6, 11, 82
8, 14466, Control_c, 6, 11, 79
8, 14467, Control_c, 6, 11, 77
8, 14468, Control_c, 6, 11, 74
8, 14469, Control_c, 6, 11, 71
8, 14470, Control_c, 6, 11, 69
8, 14471, Control_c, 6, 11, 66
8, 14472, Control_c, 6, 11, 64
8, 14473, Control_c, 6, 11, 61
8, 14474, Control_c, 6, 11, 58
8, 14475, Control_c, 6, 11, 56
8, 14476, Control_c, 6, 11, 53
8, 14477, Control_c, 6, 11, 50
8, 14478, Control_c, 6, 11, 48
8, 14479, Control_c, 6, 11, 45
8, 14480, Control_c, 6, 11, 42
8, 14481, Control_c, 6, 11, 40
8, 14482, Control_c, 6, 11, 37
8, 14483, Control_c, 6, 11, 34
8, 14484, Control_c, 6, 11, 32
8, 14485, Control_c, 6, 11, 29
8, 14486, Control_c, 6, 11, 26
8, 14487, Control_c, 6, 11, 24
8, 14488, Control_c, 6, 11, 21
8, 14489, Control_c, 6, 11, 19
8, 14490, Control_c, 6, 11, 16
8, 14491, Control_c, 6, 11, 13
8, 14492, Control_c, 6, 11, 11
8, 14493, Control_c, 6, 11, 8
8, 14494, Control_c, 6, 11, 5
8, 14495, Control_c, 6, 11, 3
8, 14496, Note_off_c, 6, 93, 64
8, 14496, Control_c, 6, 11, 127
8, 14496, Note_on_c, 6, 63, 64
8, 14497, Control_c, 6, 11, 124
8, 14498, Control_c, 6, 11, 122
8, 14499, Control_c, 6, 11, 119
8, 14500, Control_c, 6, 11, 116
8, 14501, Control_c, 6, 11, 114
8, 14502, Control_c, 6, 11, 111
8, 14503, Control_c, 6, 11, 108
8, 14504, Control_c, 6, 11, 106
8, 14505, Control_c, 6, 11, 103
8, 14506, Control_c, 6, 11, 101
8, 14507, Control_c, 6, 11, 98
8, 14508, Control_c, 6, 11, 95
8, 14509, Control_c, 6, 11, 93
8, 14510, Control_c, 6, 11, 90
8, 14511, Control_c, 6, 11, 87
8, 14512, Control_c, 6, 11, 85
8, 14513, Control_c, 6, 11, 82
8, 14514, Control_c, 6, 11, 79
8, 14515, Control_c, 6, 11, 77
8, 14516, Control_c, 6, 11, 74
8, 14517, Control_c, 6, 11, 71
8, 14518, Control_c, 6, 11, 69
8, 14519, Control_c, 6, 11, 66
8, 14520, Control_c, 6, 11, 64
8, 14521, Control_c, 6, 11, 61
8, 14522, Control_c, 6, 11, 58
8, 14523, Control_c, 6, 11, 56
8, 14524, Control_c, 6, 11, 53
8, 14525, Control_c, 6, 11, 50
8, 14526, Control_c, 6, 11, 48
8, 14527, Control_c, 6, 11, 45
8, 14528, Control_c, 6, 11, 42
8, 14529, Control_c, 6, 11, 40
8, 14530, Control_c, 6, 11, 37
8, 14531, Control_c, 6, 11, 34
8, 14532, Control_c, 6, 11, 32
8, 14533, Control_c, 6, 11, 29
8, 14534, Control_c, 6, 11, 26
8, 14535, Control_c, 6, 11, 24
8, 14536, Control_c, 6, 11, 21
8, 14537, Control_c, 6, 11, 19
8, 14538, Control_c, 6, 11, 16
8, 14539, Control_c, 6, 11, 13
8, 14540, Control_c, 6, 11, 11
8, 14541, Control_c, 6, 11, 8
8, 14542, Control_c, 6, 11, 5
8, 14543, Control_c, 6, 11, 3
8, 14544, Note_off_c, 6, 63, 64
8, 14544, Control_c, 6, 11, 127
8, 14544, Note_on_c, 6, 63, 64
8, 14545, Control_c, 6, 11, 124
8, 14546, Control_c, 6, 11, 122
8, 14547, Control_c, 6, 11, 119
8, 14548, Control_c, 6, 11, 116
8, 14549, Control_c, 6, 11, 114
8, 14550, Control_c, 6, 11, 111
8, 14551, Control_c, 6, 11, 108
8, 14552, Control_c, 6, 11, 106
8, 14553, Control_c, 6, 11, 103
8, 14554, Control_c, 6, 11, 101
8, 14555, Control_c, 6, 11, 98
8, 14556, Control_c, 6, 11, 95
8, 14557, Control_c, 6, 11, 93
8, 14558, Control_c, 6, 11, 90
8, 14559, Control_c, 6, 11, 87
8, 14560, Control_c, 6, 11, 85
8, 14561, Control_c, 6, 11, 82
8, 14562, Control_c, 6, 11, 79
8, 14563, Control_c, 6, 11, 77
8, 14564, Control_c, 6, 11, 74
8, 14565, Control_c, 6, 11, 71
8, 14566, Control_c, 6, 11, 69
8, 14567, Control_c, 6, 11, 66
8, 14568, Control_c, 6, 11, 64
8, 14569, Control_c, 6, 11, 61
8, 14570, Control_c, 6, 11, 58
8, 14571, Control_c, 6, 11, 56
8, 14572, Control_c, 6, 11, 53
8, 14573, Control_c, 6, 11, 50
8, 14574, Control_c, 6, 11, 48
8, 14575, Control_c, 6, 11, 45
8, 14576, Control_c, 6, 11, 42
8, 14577, Control_c, 6, 11, 40
8, 14578, Control_c, 6, 11, 37
8, 14579, Control_c, 6, 11, 34
8, 14580, Control_c, 6, 11, 32
8, 14581, Control_c, 6, 11, 29
8, 14582, Control_c, 6, 11, 26
8, 14583, Control_c, 6, 11, 24
8, 14584, Control_c, 6, 11, 21
8, 14585, Control_c, 6, 11, 19
8, 14586, Control_c, 6, 11, 16
8, 14587, Control_c, 6, 11, 13
8, 14588, Control_c, 6, 11, 11
8, 14589, Control_c, 6, 11, 8
8, 14590, Control_c, 6, 11, 5
8, 14591, Control_c, 6, 11, 3
8, 14592, Note_off_c, 6, 63, 64
8, 14592, Control_c, 6, 11, 127
8, 14592, Note_on_c, 6, 33, 64
8, 14593, Control_c, 6, 11, 124
8, 14594, Control_c, 6, 11, 122
8, 14595, Control_c, 6, 11, 119
8, 14596, Control_c, 6, 11, 116
8, 14597, Control_c, 6, 11, 114
8, 14598, Control_c, 6, 11, 111
8, 14599, Control_c, 6, 11, 108
8, 14600, Control_c, 6, 11, 106
8, 14601, Control_c, 6, 11, 103
8, 14602, Control_c, 6, 11, 101
8, 14603, Control_c, 6, 11, 98
8, 14604, Control_c, 6, 11, 95
8, 14605, Control_c, 6, 11, 93
8, 14606, Control_c, 6, 11, 90
8, 14607, Control_c, 6, 11, 87
8, 14608, Control_c, 6, 11, 85
8, 14609, Control_c, 6, 11, 82
8, 14610, Control_c, 6, 11, 79
8, 14611, Control_c, 6, 11, 77
8, 14612, Control_c, 6, 11, 74
8, 14613, Control_c, 6, 11, 71
8, 14614, Control_c, 6, 11, 69
8, 14615, Control_c, 6, 11, 66
8, 14616, Control_c, 6, 11, 64
8, 14617, Control_c, 6, 11, 61
8, 14618, Control_c, 6, 11, 58
8, 14619, Control_c, 6, 11, 56
8, 14620, Control_c, 6, 11, 53
8, 14621, Control_c, 6, 11, 50
8, 14622, Control_c, 6, 11, 48
8, 14623, Control_c, 6, 11, 45
8, 14624, Control_c, 6, 11, 42
8, 14625, Control_c, 6, 11, 40
8, 14626, Control_c, 6, 11, 37
8, 14627, Control_c, 6, 11, 34
8, 14628, Control_c, 6, 11, 32
8, 14629, Control_c, 6, 11, 29
8, 14630, Control_c, 6, 11, 26
8, 14631, Control_c, 6, 11, 24
8, 14632, Control_c, 6, 11, 21
8, 14633, Control_c, 6, 11, 19
8, 14634, Control_c, 6, 11, 16
8, 14635, Control_c, 6, 11, 13
8, 14636, Control_c, 6, 11, 11
8, 14637, Control_c, 6, 11, 8
8, 14638, Control_c, 6, 11, 5
8, 14639, Control_c, 6, 11, 3
8, 14640, Note_off_c, 6, 33, 64
8, 14640, Control_c, 6, 11, 127
8, 14640, Note_on_c, 6, 93, 64
8, 14641, Control_c, 6, 11, 124
8, 14642, Control_c, 6, 11, 122
8, 14643, Control_c, 6, 11, 119
8, 14644, Control_c, 6, 11, 116
8, 14645, Control_c, 6, 11, 114
8, 14646, Control_c, 6, 11, 111
8, 14647, Control_c, 6, 11, 108
8, 14648, Control_c, 6, 11, 106
8, 14649, Control_c, 6, 11, 103
8, 14650, Control_c, 6, 11, 101
8, 14651, Control_c, 6, 11, 98
8, 14652, Control_c, 6, 11, 95
8, 14653, Control_c, 6, 11, 93
8, 14654, Control_c, 6, 11, 90
8, 14655, Control_c, 6, 11, 87
8, 14656, Control_c, 6, 11, 85
8, 14657, Control_c, 6, 11, 82
8, 14658, Control_c, 6, 11, 79
8, 14659, Control_c, 6, 11, 77
8, 14660, Control_c, 6, 11, 74
8, 14661, Control_c, 6, 11, 71
8, 14662, Control_c, 6, 11, 69
8, 14663, Control_c, 6, 11, 66
8, 14664, Control_c, 6, 11, 64
8, 14665, Control_c, 6, 11, 61
8, 14666, Control_c, 6, 11, 58
8, 14667, Control_c, 6, 11, 56
8, 14668, Control_c, 6, 11, 53
8, 14669, Control_c, 6, 11, 50
8, 14670, Control_c, 6, 11, 48
8, 14671, Control_c, 6, 11, 45
8, 14672, Control_c, 6, 11, 42
8, 14673, Control_c, 6, 11, 40
8, 14674, Control_c, 6, 11, 37
8, 14675, Control_c, 6, 11, 34
8, 14676, Control_c, 6, 11, 32
8, 14677, Control_c, 6, 11, 29
8, 14678, Control_c, 6, 11, 26
8, 14679, Control_c, 6, 11, 24
8, 14680, Control_c, 6, 11, 21
8, 14681, Control_c, 6, 11, 19
8, 14682, Control_c, 6, 11, 16
8, 14683, Control_c, 6, 11, 13
8, 14684, Control_c, 6, 11, 11
8, 14685, Control_c, 6, 11, 8
8, 14686, Control_c, 6, 11, 5
8, 14687, Control_c, 6, 11, 3
8, 14688, Note_off_c, 6, 93, 64
8, 14688, Control_c, 6, 11, 127
8, 14688, Note_on_c, 6, 63, 64
8, 14689, Control_c, 6, 11, 124
8, 14690, Control_c, 6, 11, 122
8, 14691, Control_c, 6, 11, 119
8, 14692, Control_c, 6, 11, 116
8, 14693, Control_c, 6, 11, 114
8, 14694, Control_c, 6, 11, 111
8, 14695, Control_c, 6, 11, 108
8, 14696, Control_c, 6, 11, 106
8, 14697, Control_c, 6, 11, 103
8, 14698, Control_c, 6, 11, 101
8, 14699, Control_c, 6, 11, 98
8, 14700, Control_c, 6, 11, 95
8, 14701, Control_c, 6, 11, 93
8, 14702, Control_c, 6, 11, 90
8, 14703, Control_c, 6, 11, 87
8, 14704, Control_c, 6, 11, 85
8, 14705, Control_c, 6, 11, 82
8, 14706, Control_c, 6, 11, 79
8, 14707, Control_c, 6, 11, 77
8, 14708, Control_c, 6, 11, 74
8, 14709, Control_c, 6, 11, 71
8, 14710, Control_c, 6, 11, 69
8, 14711, Control_c, 6, 11, 66
8, 14712, Control_c, 6, 11, 64
8, 14713, Control_c, 6, 11, 61
8, 14714, Control_c, 6, 11, 58
8, 14715, Control_c, 6, 11, 56
8, 14716, Control_c, 6, 11, 53
8, 14717, Control_c, 6, 11, 50
8, 14718, Control_c, 6, 11, 48
8, 14719, Control_c, 6, 11, 45
8, 14720, Control_c, 6, 11, 42
8, 14721, Control_c, 6, 11, 40
8, 14722, Control_c, 6, 11, 37
8, 14723, Control_c, 6, 11, 34
8, 14724, Control_c, 6, 11, 32
8, 14725, Control_c, 6, 11, 29
8, 14726, Control_c, 6, 11, 26
8, 14727, Control_c, 6, 11, 24
8, 14728, Control_c, 6, 11, 21
8, 14729, Control_c, 6, 11, 19
8, 14730, Control_c, 6, 11, 16
8, 14731, Control_c, 6, 11, 13
8, 14732, Control_c, 6, 11, 11
8, 14733, Control_c, 6, 11, 8
8, 14734, Control_c, 6, 11, 5
8, 14735, Control_c, 6, 11, 3
8, 14736, Note_off_c, 6, 63, 64
8, 14736, Control_c, 6, 11, 127
8, 14736, Note_on_c, 6, 93, 64
8, 14737, Control_c, 6, 11, 122
8, 14738, Control_c, 6, 11, 116
8, 14739, Control_c, 6, 11, 111
8, 14740, Control_c, 6, 11, 106
8, 14741, Control_c, 6, 11, 101
8, 14742, Control_c, 6, 11, 95
8, 14743, Control_c, 6, 11, 90
8, 14744, Control_c, 6, 11, 85
8, 14745, Control_c, 6, 11, 79
8, 14746, Control_c, 6, 11, 74
8, 14747, Control_c, 6, 11, 69
8, 14748, Control_c, 6, 11, 64
8, 14749, Control_c, 6, 11, 58
8, 14750, Control_c, 6, 11, 53
8, 14751, Control_c, 6, 11, 48
8, 14752, Control_c, 6, 11, 42
8, 14753, Control_c, 6, 11, 37
8, 14754, Control_c, 6, 11, 32
8, 14755, Control_c, 6, 11, 26
8, 14756, Control_c, 6, 11, 21
8, 14757, Control_c, 6, 11, 16
8, 14758, Control_c, 6, 11, 11
8, 14759, Control_c, 6, 11, 5
8, 14760, Note_off_c, 6, 93, 64
8, 14760, Control_c, 6, 11, 127
8, 14760, Note_on_c, 6, 63, 64
8, 14761, Control_c, 6, 11, 123
8, 14762, Control_c, 6, 11, 120
8, 14763, Control_c, 6, 11, 116
8, 14764, Control_c, 6, 11, 113
8, 14765, Control_c, 6, 11, 109
8, 14766, Control_c, 6, 11, 106
8, 14767, Control_c, 6, 11, 102
8, 14768, Control_c, 6, 11, 99
8, 14769, Control_c, 6, 11, 95
8, 14770, Control_c, 6, 11, 92
8, 14771, Control_c, 6, 11, 88
8, 14772, Control_c, 6, 11, 85
8, 14773, Control_c, 6, 11, 81
8, 14774, Control_c, 6, 11, 78
8, 14775, Control_c, 6, 11, 74
8, 14776, Control_c, 6, 11, 71
8, 14777, Control_c, 6, 11, 67
8, 14778, Control_c, 6, 11, 64
8, 14779, Control_c, 6, 11, 60
8, 14780, Control_c, 6, 11, 56
8, 14781, Control_c, 6, 11, 53
8, 14782, Control_c, 6, 11, 49
8, 14783, Control_c, 6, 11, 46
8, 14784, Note_off_c, 6, 63, 64
8, 14784, Control_c, 6, 11, 85
8, 14784, Note_on_c, 6, 33, 64
8, 14785, Control_c, 6, 11, 83
8, 14786, Control_c, 6, 11, 81
8, 14787, Control_c, 6, 11, 79
8, 14788, Control_c, 6, 11, 78
8, 14789, Control_c, 6, 11, 76
8, 14790, Control_c, 6, 11, 74
8, 14791, Control_c, 6, 11, 72
8, 14792, Control_c, 6, 11, 71
8, 14793, Control_c, 6, 11, 69
8, 14794, Control_c, 6, 11, 67
8, 14795, Control_c, 6, 11, 65
8, 14796, Control_c, 6, 11, 64
8, 14797, Control_c, 6, 11, 62
8, 14798, Control_c, 6, 11, 60
8, 14799, Control_c, 6, 11, 58
8, 14800, Control_c, 6, 11, 56
8, 14801, Control_c, 6, 11, 55
8, 14802, Control_c, 6, 11, 53
8, 14803, Control_c, 6, 11, 51
8, 14804, Control_c, 6, 11, 49
8, 14805, Control_c, 6, 11, 48
8, 14806, Control_c, 6, 11, 46
8, 14807, Control_c, 6, 11, 44
8, 14808, Control_c, 6, 11, 42
8, 14809, Control_c, 6, 11, 41
8, 14810, Control_c, 6, 11, 39
8, 14811, Control_c, 6, 11, 37
8, 14812, Control_c, 6, 11, 35
8, 14813, Control_c, 6, 11, 34
8, 14814, Control_c, 6, 11, 32
8, 14815, Control_c, 6, 11, 30
8, 14816, Control_c, 6, 11, 28
8, 14817, Control_c, 6, 11, 26
8, 14818, Control_c, 6, 11, 25
8, 14819, Control_c, 6, 11, 23
8, 14820, Control_c, 6, 11, 21
8, 14821, Control_c, 6, 11, 19
8, 14822, Control_c, 6, 11, 18
8, 14823, Control_c, 6, 11, 16
8, 14824, Control_c, 6, 11, 14
8, 14825, Control_c, 6, 11, 12
8, 14826, Control_c, 6, 11, 11
8, 14827, Control_c, 6, 11, 9
8, 14828, Control_c, 6, 11, 7
8, 14829, Control_c, 6, 11, 5
8, 14830, Control_c, 6, 11, 4
8, 14831, Control_c, 6, 11, 2
8, 14832, Note_off_c, 6, 33, 64
8, 14832, Control_c, 6, 11, 127
8, 14832, Note_on_c, 6, 33, 64
8, 14833, Control_c, 6, 11, 124
8, 14834, Control_c, 6, 11, 122
8, 14835, Control_c, 6, 11, 119
8, 14836, Control_c, 6, 11, 116
8, 14837, Control_c, 6, 11, 114
8, 14838, Control_c, 6, 11, 111
8, 14839, Control_c, 6, 11, 108
8, 14840, Control_c, 6, 11, 106
8, 14841, Control_c, 6, 11, 103
8, 14842, Control_c, 6, 11, 101
8, 14843, Control_c, 6, 11, 98
8, 14844, Control_c, 6, 11, 95
8, 14845, Control_c, 6, 11, 93
8, 14846, Control_c, 6, 11, 90
8, 14847, Control_c, 6, 11, 87
8, 14848, Control_c, 6, 11, 85
8, 14849, Control_c, 6, 11, 82
8, 14850, Control_c, 6, 11, 79
8, 14851, Control_c, 6, 11, 77
8, 14852, Control_c, 6, 11, 74
8, 14853, Control_c, 6, 11, 71
8, 14854, Control_c, 6, 11, 69
8, 14855, Control_c, 6, 11, 66
8, 14856, Control_c, 6, 11, 64
8, 14857, Control_c, 6, 11, 61
8, 14858, Control_c, 6, 11, 58
8, 14859, Control_c, 6, 11, 56
8, 14860, Control_c, 6, 11, 53
8, 14861, Control_c, 6, 11, 50
8, 14862, Control_c, 6, 11, 48
8, 14863, Control_c, 6, 11, 45
8, 14864, Control_c, 6, 11, 42
8, 14865, Control_c, 6, 11, 40
8, 14866, Control_c, 6, 11, 37
8, 14867, Control_c, 6, 11, 34
8, 14868, Control_c, 6, 11, 32
8, 14869, Control_c, 6, 11, 29
8, 14870, Control_c, 6, 11, 26
8, 14871, Control_c, 6, 11, 24
8, 14872, Control_c, 6, 11, 21
8, 14873, Control_c, 6, 11, 19
8, 14874, Control_c, 6, 11, 16
8, 14875, Control_c, 6, 11, 13
8, 14876, Control_c, 6, 11, 11
8, 14877, Control_c, 6, 11, 8
8, 14878, Control_c, 6, 11, 5
8, 14879, Control_c, 6, 11, 3
8, 14880, Note_off_c, 6, 33, 64
8, 14880, Control_c, 6, 11, 127
8, 14880, Note_on_c, 6, 63, 64
8, 14881, Control_c, 6, 11, 124
8, 14882, Control_c, 6, 11, 122
8, 14883, Control_c, 6, 11, 119
8, 14884, Control_c, 6, 11, 116
8, 14885, Control_c, 6, 11, 114
8, 14886, Control_c, 6, 11, 111
8, 14887, Control_c, 6, 11, 108
8, 14888, Control_c, 6, 11, 106
8, 14889, Control_c, 6, 11, 103
8, 14890, Control_c, 6, 11, 101
8, 14891, Control_c, 6, 11, 98
8, 14892, Control_c, 6, 11, 95
8, 14893, Control_c, 6, 11, 93
8, 14894, Control_c, 6, 11, 90
8, 14895, Control_c, 6, 11, 87
8, 14896, Control_c, 6, 11, 85
8, 14897, Control_c, 6, 11, 82
8, 14898, Control_c, 6, 11, 79
8, 14899, Control_c, 6, 11, 77
8, 14900, Control_c, 6, 11, 74
8, 14901, Control_c, 6, 11, 71
8, 14902, Control_c, 6, 11, 69
8, 14903, Control_c, 6, 11, 66
8, 14904, Control_c, 6, 11, 64
8, 14905, Control_c, 6, 11, 61
8, 14906, Control_c, 6, 11, 58
8, 14907, Control_c, 6, 11, 56
8, 14908, Control_c, 6, 11, 53
8, 14909, Control_c, 6, 11, 50
8, 14910, Control_c, 6, 11, 48
8, 14911, Control_c, 6, 11, 45
8, 14912, Control_c, 6, 11, 42
8, 14913, Control_c, 6, 11, 40
8, 14914, Control_c, 6, 11, 37
8, 14915, Control_c, 6, 11, 34
8, 14916, Control_c, 6, 11, 32
8, 14917, Control_c, 6, 11, 29
8, 14918, Control_c, 6, 11, 26
8, 14919, Control_c, 6, 11, 24
8, 14920, Control_c, 6, 11, 21
8, 14921, Control_c, 6, 11, 19
8, 14922, Control_c, 6, 11, 16
8, 14923, Control_c, 6, 11, 13
8, 14924, Control_c, 6, 11, 11
8, 14925, Control_c, 6, 11, 8
8, 14926, Control_c, 6, 11, 5
8, 14927, Control_c, 6, 11, 3
8, 14928, Note_off_c, 6, 63, 64
8, 14928, Control_c, 6, 11, 85
8, 14928, Note_on_c, 6, 93, 64
8, 14929, Control_c, 6, 11, 83
8, 14930, Control_c, 6, 11, 81
8, 14931, Control_c, 6, 11, 79
8, 14932, Control_c, 6, 11, 78
8, 14933, Control_c, 6, 11, 76
8, 14934, Control_c, 6, 11, 74
8, 14935, Control_c, 6, 11, 72
8, 14936, Control_c, 6, 11, 71
8, 14937, Control_c, 6, 11, 69
8, 14938, Control_c, 6, 11, 67
8, 14939, Control_c, 6, 11, 65
8, 14940, Control_c, 6, 11, 64
8, 14941, Control_c, 6, 11, 62
8, 14942, Control_c, 6, 11, 60
8, 14943, Control_c, 6, 11, 58
8, 14944, Control_c, 6, 11, 56
8, 14945, Control_c, 6, 11, 55
8, 14946, Control_c, 6, 11, 53
8, 14947, Control_c, 6, 11, 51
8, 14948, Control_c, 6, 11, 49
8, 14949, Control_c, 6, 11, 48
8, 14950, Control_c, 6, 11, 46
8, 14951, Control_c, 6, 11, 44
8, 14952, Control_c, 6, 11, 42
8, 14953, Control_c, 6, 11, 41
8, 14954, Control_c, 6, 11, 39
8, 14955, Control_c, 6, 11, 37
8, 14956, Control_c, 6, 11, 35
8, 14957, Control_c, 6, 11, 34
8, 14958, Control_c, 6, 11, 32
8, 14959, Control_c, 6, 11, 30
8, 14960, Control_c, 6, 11, 28
8, 14961, Control_c, 6, 11, 26
8, 14962, Control_c, 6, 11, 25
8, 14963, Control_c, 6, 11, 23
8, 14964, Control_c, 6, 11, 21
8, 14965, Control_c, 6, 11, 19
8, 14966, Control_c, 6, 11, 18
8, 14967, Control_c, 6, 11, 16
8, 14968, Control_c, 6, 11, 14
8, 14969, Control_c, 6, 11, 12
8, 14970, Control_c, 6, 11, 11
8, 14971, Control_c, 6, 11, 9
8, 14972, Control_c, 6, 11, 7
8, 14973, Control_c, 6, 11, 5
8, 14974, Control_c, 6, 11, 4
8, 14975, Control_c, 6, 11, 2
8, 14976, Note_off_c, 6, 93, 64
8, 14976, Control_c, 6, 11, 127
8, 14976, Note_on_c, 6, 33, 64
8, 14977, Control_c, 6, 11, 124
8, 14978, Control_c, 6, 11, 122
8, 14979, Control_c, 6, 11, 119
8, 14980, Control_c, 6, 11, 116
8, 14981, Control_c, 6, 11, 114
8, 14982, Control_c, 6, 11, 111
8, 14983, Control_c, 6, 11, 108
8, 14984, Control_c, 6, 11, 106
8, 14985, Control_c, 6, 11, 103
8, 14986, Control_c, 6, 11, 101
8, 14987, Control_c, 6, 11, 98
8, 14988, Control_c, 6, 11, 95
8, 14989, Control_c, 6, 11, 93
8, 14990, Control_c, 6, 11, 90
8, 14991, Control_c, 6, 11, 87
8, 14992, Control_c, 6, 11, 85
8, 14993, Control_c, 6, 11, 82
8, 14994, Control_c, 6, 11, 79
8, 14995, Control_c, 6, 11, 77
8, 14996, Control_c, 6, 11, 74
8, 14997, Control_c, 6, 11, 71
8, 14998, Control_c, 6, 11, 69
8, 14999, Control_c, 6, 11, 66
8, 15000, Control_c, 6, 11, 64
8, 15001, Control_c, 6, 11, 61
8, 15002, Control_c, 6, 11, 58
8, 15003, Control_c, 6, 11, 56
8, 15004, Control_c, 6, 11, 53
8, 15005, Control_c, 6, 11, 50
8, 15006, Control_c, 6, 11, 48
8, 15007, Control_c, 6, 11, 45
8, 15008, Control_c, 6, 11, 42
8, 15009, Control_c, 6, 11, 40
8, 15010, Control_c, 6, 11, 37
8, 15011, Control_c, 6, 11, 34
8, 15012, Control_c, 6, 11, 32
8, 15013, Control_c, 6, 11, 29
8, 15014, Control_c, 6, 11, 26
8, 15015, Control_c, 6, 11, 24
8, 15016, Control_c, 6, 11, 21
8, 15017, Control_c, 6, 11, 19
8, 15018, Control_c, 6, 11, 16
8, 15019, Control_c, 6, 11, 13
8, 15020, Control_c, 6, 11, 11
8, 15021, Control_c, 6, 11, 8
8, 15022, Control_c, 6, 11, 5
8, 15023, Control_c, 6, 11, 3
8, 15024, Note_off_c, 6, 33, 64
8, 15024, Control_c, 6, 11, 127
8, 15024, Note_on_c, 6, 93, 64
8, 15025, Control_c, 6, 11, 124
8, 15026, Control_c, 6, 11, 122
8, 15027, Control_c, 6, 11, 119
8, 15028, Control_c, 6, 11, 116
8, 15029, Control_c, 6, 11, 114
8, 15030, Control_c, 6, 11, 111
8, 15031, Control_c, 6, 11, 108
8, 15032, Control_c, 6, 11, 106
8, 15033, Control_c, 6, 11, 103
8, 15034, Control_c, 6, 11, 101
8, 15035, Control_c, 6, 11, 98
8, 15036, Control_c, 6, 11, 95
8, 15037, Control_c, 6, 11, 93
8, 15038, Control_c, 6, 11, 90
8, 15039, Control_c, 6, 11, 87
8, 15040, Control_c, 6, 11, 85
8, 15041, Control_c, 6, 11, 82
8, 15042, Control_c, 6, 11, 79
8, 15043, Control_c, 6, 11, 77
8, 15044, Control_c, 6, 11, 74
8, 15045, Control_c, 6, 11, 71
8, 15046, Control_c, 6, 11, 69
8, 15047, Control_c, 6, 11, 66
8, 15048, Control_c, 6, 11, 64
8, 15049, Control_c, 6, 11, 61
8, 15050, Control_c, 6, 11, 58
8, 15051, Control_c, 6, 11, 56
8, 15052, Control_c, 6, 11, 53
8, 15053, Control_c, 6, 11, 50
8, 15054, Control_c, 6, 11, 48
8, 15055, Control_c, 6, 11, 45
8, 15056, Control_c, 6, 11, 42
8, 15057, Control_c, 6, 11, 40
8, 15058, Control_c, 6, 11, 37
8, 15059, Control_c, 6, 11, 34
8, 15060, Control_c, 6, 11, 32
8, 15061, Control_c, 6, 11, 29
8, 15062, Control_c, 6, 11, 26
8, 15063, Control_c, 6, 11, 24
8, 15064, Control_c, 6, 11, 21
8, 15065, Control_c, 6, 11, 19
8, 15066, Control_c, 6, 11, 16
8, 15067, Control_c, 6, 11, 13
8, 15068, Control_c, 6, 11, 11
8, 15069, Control_c, 6, 11, 8
8, 15070, Control_c, 6, 11, 5
8, 15071, Control_c, 6, 11, 3
8, 15072, Note_off_c, 6, 93, 64
8, 15072, Control_c, 6, 11, 127
8, 15072, Note_on_c, 6, 63, 64
8, 15073, Control_c, 6, 11, 124
8, 15074, Control_c, 6, 11, 122
8, 15075, Control_c, 6, 11, 119
8, 15076, Control_c, 6, 11, 116
8, 15077, Control_c, 6, 11, 114
8, 15078, Control_c, 6, 11, 111
8, 15079, Control_c, 6, 11, 108
8, 15080, Control_c, 6, 11, 106
8, 15081, Control_c, 6, 11, 103
8, 15082, Control_c, 6, 11, 101
8, 15083, Control_c, 6, 11, 98
8, 15084, Control_c, 6, 11, 95
8, 15085, Control_c, 6, 11, 93
8, 15086, Control_c, 6, 11, 90
8, 15087, Control_c, 6, 11, 87
8, 15088, Control_c, 6, 11, 85
8, 15089, Control_c, 6, 11, 82
8, 15090, Control_c, 6, 11, 79
8, 15091, Control_c, 6, 11, 77
8, 15092, Control_c, 6, 11, 74
8, 15093, Control_c, 6, 11, 71
8, 15094, Control_c, 6, 11, 69
8, 15095, Control_c, 6, 11, 66
8, 15096, Control_c, 6, 11, 64
8, 15097, Control_c, 6, 11, 61
8, 15098, Control_c, 6, 11, 58
8, 15099, Control_c, 6, 11, 56
8, 15100, Control_c, 6, 11, 53
8, 15101, Control_c, 6, 11, 50
8, 15102, Control_c, 6, 11, 48
8, 15103, Control_c, 6, 11, 45
8, 15104, Control_c, 6, 11, 42
8, 15105, Control_c, 6, 11, 40
8, 15106, Control_c, 6, 11, 37
8, 15107, Control_c, 6, 11, 34
8, 15108, Control_c, 6, 11, 32
8, 15109, Control_c, 6, 11, 29
8, 15110, Control_c, 6, 11, 26
8, 15111, Control_c, 6, 11, 24
8, 15112, Control_c, 6, 11, 21
8, 15113, Control_c, 6, 11, 19
8, 15114, Control_c, 6, 11, 16
8, 15115, Control_c, 6, 11, 13
8, 15116, Control_c, 6, 11, 11
8, 15117, Control_c, 6, 11, 8
8, 15118, Control_c, 6, 11, 5
8, 15119, Control_c, 6, 11, 3
8, 15120, Note_off_c, 6, 63, 64
8, 15120, Control_c, 6, 11, 127
8, 15120, Note_on_c, 6, 93, 64
8, 15121, Control_c, 6, 11, 122
8, 15122, Control_c, 6, 11, 116
8, 15123, Control_c, 6, 11, 111
8, 15124, Control_c, 6, 11, 106
8, 15125, Control_c, 6, 11, 101
8, 15126, Control_c, 6, 11, 95
8, 15127, Control_c, 6, 11, 90
8, 15128, Control_c, 6, 11, 85
8, 15129, Control_c, 6, 11, 79
8, 15130, Control_c, 6, 11, 74
8, 15131, Control_c, 6, 11, 69
8, 15132, Control_c, 6, 11, 64
8, 15133, Control_c, 6, 11, 58
8, 15134, Control_c, 6, 11, 53
8, 15135, Control_c, 6, 11, 48
8, 15136, Control_c, 6, 11, 42
8, 15137, Control_c, 6, 11, 37
8, 15138, Control_c, 6, 11, 32
8, 15139, Control_c, 6, 11, 26
8, 15140, Control_c, 6, 11, 21
8, 15141, Control_c, 6, 11, 16
8, 15142, Control_c, 6, 11, 11
8, 15143, Control_c, 6, 11, 5
8, 15144, Note_off_c, 6, 93, 64
8, 15144, Control_c, 6, 11, 127
8, 15144, Note_on_c, 6, 63, 64
8, 15145, Control_c, 6, 11, 123
8, 15146, Control_c, 6, 11, 120
8, 15147, Control_c, 6, 11, 116
8, 15148, Control_c, 6, 11, 113
8, 15149, Control_c, 6, 11, 109
8, 15150, Control_c, 6, 11, 106
8, 15151, Control_c, 6, 11, 102
8, 15152, Control_c, 6, 11, 99
8, 15153, Control_c, 6, 11, 95
8, 15154, Control_c, 6, 11, 92
8, 15155, Control_c, 6, 11, 88
8, 15156, Control_c, 6, 11, 85
8, 15157, Control_c, 6, 11, 81
8, 15158, Control_c, 6, 11, 78
8, 15159, Control_c, 6, 11, 74
8, 15160, Control_c, 6, 11, 71
8, 15161, Control_c, 6, 11, 67
8, 15162, Control_c, 6, 11, 64
8, 15163, Control_c, 6, 11, 60
8, 15164, Control_c, 6, 11, 56
8, 15165, Control_c, 6, 11, 53
8, 15166, Control_c, 6, 11, 49
8, 15167, Control_c, 6, 11, 46
8, 15168, Note_off_c, 6, 63, 64
8, 15168, Control_c, 6, 11, 85
8, 15168, Note_on_c, 6, 33, 64
8, 15169, Control_c, 6, 11, 83
8, 15170, Control_c, 6, 11, 81
8, 15171, Control_c, 6, 11, 79
8, 15172, Control_c, 6, 11, 78
8, 15173, Control_c, 6, 11, 76
8, 15174, Control_c, 6, 11, 74
8, 15175, Control_c, 6, 11, 72
8, 15176, Control_c, 6, 11, 71
8, 15177, Control_c, 6, 11, 69
8, 15178, Control_c, 6, 11, 67
8, 15179, Control_c, 6, 11, 65
8, 15180, Control_c, 6, 11, 64
8, 15181, Control_c, 6, 11, 62
8, 15182, Control_c, 6, 11, 60
8, 15183, Control_c, 6, 11, 58
8, 15184, Control_c, 6, 11, 56
8, 15185, Control_c, 6, 11, 55
8, 15186, Control_c, 6, 11, 53
8, 15187, Control_c, 6, 11, 51
8, 15188, Control_c, 6, 11, 49
8, 15189, Control_c, 6, 11, 48
8, 15190, Control_c, 6, 11, 46
8, 15191, Control_c, 6, 11, 44
8, 15192, Control_c, 6, 11, 42
8, 15193, Control_c, 6, 11, 41
8, 15194, Control_c, 6, 11, 39
8, 15195, Control_c, 6, 11, 37
8, 15196, Control_c, 6, 11, 35
8, 15197, Control_c, 6, 11, 34
8, 15198, Control_c, 6, 11, 32
8, 15199, Control_c, 6, 11, 30
8, 15200, Control_c, 6, 11, 28
8, 15201, Control_c, 6, 11, 26
8, 15202, Control_c, 6, 11, 25
8, 15203, Control_c, 6, 11, 23
8, 15204, Control_c, 6, 11, 21
8, 15205, Control_c, 6, 11, 19
8, 15206, Control_c, 6, 11, 18
8, 15207, Control_c, 6, 11, 16
8, 15208, Control_c, 6, 11, 14
8, 15209, Control_c, 6, 11, 12
8, 15210, Control_c, 6, 11, 11
8, 15211, Control_c, 6, 11, 9
8, 15212, Control_c, 6, 11, 7
8, 15213, Control_c, 6, 11, 5
8, 15214, Control_c, 6, 11, 4
8, 15215, Control_c, 6, 11, 2
8, 15216, Note_off_c, 6, 33, 64
8, 15216, Control_c, 6, 11, 127
8, 15216, Note_on_c, 6, 33, 64
8, 15217, Control_c, 6, 11, 124
8, 15218, Control_c, 6, 11, 122
8, 15219, Control_c, 6, 11, 119
8, 15220, Control_c, 6, 11, 116
8, 15221, Control_c, 6, 11, 114
8, 15222, Control_c, 6, 11, 111
8, 15223, Control_c, 6, 11, 108
8, 15224, Control_c, 6, 11, 106
8, 15225, Control_c, 6, 11, 103
8, 15226, Control_c, 6, 11, 101
8, 15227, Control_c, 6, 11, 98
8, 15228, Control_c, 6, 11, 95
8, 15229, Control_c, 6, 11, 93
8, 15230, Control_c, 6, 11, 90
8, 15231, Control_c, 6, 11, 87
8, 15232, Control_c, 6, 11, 85
8, 15233, Control_c, 6, 11, 82
8, 15234, Control_c, 6, 11, 79
8, 15235, Control_c, 6, 11, 77
8, 15236, Control_c, 6, 11, 74
8, 15237, Control_c, 6, 11, 71
8, 15238, Control_c, 6, 11, 69
8, 15239, Control_c, 6, 11, 66
8, 15240, Control_c, 6, 11, 64
8, 15241, Control_c, 6, 11, 61
8, 15242, Control_c, 6, 11, 58
8, 15243, Control_c, 6, 11, 56
8, 15244, Control_c, 6, 11, 53
8, 15245, Control_c, 6, 11, 50
8, 15246, Control_c, 6, 11, 48
8, 15247, Control_c, 6, 11, 45
8, 15248, Control_c, 6, 11, 42
8, 15249, Control_c, 6, 11, 40
8, 15250, Control_c, 6, 11, 37
8, 15251, Control_c, 6, 11, 34
8, 15252, Control_c, 6, 11, 32
8, 15253, Control_c, 6, 11, 29
8, 15254, Control_c, 6, 11, 26
8, 15255, Control_c, 6, 11, 24
8, 15256, Control_c, 6, 11, 21
8, 15257, Control_c, 6, 11, 19
8, 15258, Control_c, 6, 11, 16
8, 15259, Control_c, 6, 11, 13
8, 15260, Control_c, 6, 11, 11
8, 15261, Control_c, 6, 11, 8
8, 15262, Control_c, 6, 11, 5
8, 15263, Control_c, 6, 11, 3
8, 15264, Note_off_c, 6, 33, 64
8, 15264, Control_c, 6, 11, 127
8, 15264, Note_on_c, 6, 63, 64
8, 15265, Control_c, 6, 11, 124
8, 15266, Control_c, 6, 11, 122
8, 15267, Control_c, 6, 11, 119
8, 15268, Control_c, 6, 11, 116
8, 15269, Control_c, 6, 11, 114
8, 15270, Control_c, 6, 11, 111
8, 15271, Control_c, 6, 11, 108
8, 15272, Control_c, 6, 11, 106
8, 15273, Control_c, 6, 11, 103
8, 15274, Control_c, 6, 11, 101
8, 15275, Control_c, 6, 11, 98
8, 15276, Control_c, 6, 11, 95
8, 15277, Control_c, 6, 11, 93
8, 15278, Control_c, 6, 11, 90
8, 15279, Control_c, 6, 11, 87
8, 15280, Control_c, 6, 11, 85
8, 15281, Control_c, 6, 11, 82
8, 15282, Control_c, 6, 11, 79
8, 15283, Control_c, 6, 11, 77
8, 15284, Control_c, 6, 11, 74
8, 15285, Control_c, 6, 11, 71
8, 15286, Control_c, 6, 11, 69
8, 15287, Control_c, 6, 11, 66
8, 15288, Control_c, 6, 11, 64
8, 15289, Control_c, 6, 11, 61
8, 15290, Control_c, 6, 11, 58
8, 15291, Control_c, 6, 11, 56
8, 15292, Control_c, 6, 11, 53
8, 15293, Control_c, 6, 11, 50
8, 15294, Control_c, 6, 11, 48
8, 15295, Control_c, 6, 11, 45
8, 15296, Control_c, 6, 11, 42
8, 15297, Control_c, 6, 11, 40
8, 15298, Control_c, 6, 11, 37
8, 15299, Control_c, 6, 11, 34
8, 15300, Control_c, 6, 11, 32
8, 15301, Control_c, 6, 11, 29
8, 15302, Control_c, 6, 11, 26
8, 15303, Control_c, 6, 11, 24
8, 15304, Control_c, 6, 11, 21
8, 15305, Control_c, 6, 11, 19
8, 15306, Control_c, 6, 11, 16
8, 15307, Control_c, 6, 11, 13
8, 15308, Control_c, 6, 11, 11
8, 15309, Control_c, 6, 11, 8
8, 15310, Control_c, 6, 11, 5
8, 15311, Control_c, 6, 11, 3
8, 15312, Note_off_c, 6, 63, 64
8, 15312, Control_c, 6, 11, 127
8, 15312, Note_on_c, 6, 93, 64
8, 15313, Control_c, 6, 11, 122
8, 15314, Control_c, 6, 11, 116
8, 15315, Control_c, 6, 11, 111
8, 15316, Control_c, 6, 11, 106
8, 15317, Control_c, 6, 11, 101
8, 15318, Control_c, 6, 11, 95
8, 15319, Control_c, 6, 11, 90
8, 15320, Control_c, 6, 11, 85
8, 15321, Control_c, 6, 11, 79
8, 15322, Control_c, 6, 11, 74
8, 15323, Control_c, 6, 11, 69
8, 15324, Control_c, 6, 11, 64
8, 15325, Control_c, 6, 11, 58
8, 15326, Control_c, 6, 11, 53
8, 15327, Control_c, 6, 11, 48
8, 15328, Control_c, 6, 11, 42
8, 15329, Control_c, 6, 11, 37
8, 15330, Control_c, 6, 11, 32
8, 15331, Control_c, 6, 11, 26
8, 15332, Control_c, 6, 11, 21
8, 15333, Control_c, 6, 11, 16
8, 15334, Control_c, 6, 11, 11
8, 15335, Control_c, 6, 11, 5
8, 15336, Note_off_c, 6, 93, 64
8, 15336, Control_c, 6, 11, 127
8, 15336, Note_on_c, 6, 63, 64
8, 15337, Control_c, 6, 11, 122
8, 15338, Control_c, 6, 11, 116
8, 15339, Control_c, 6, 11, 111
8, 15340, Control_c, 6, 11, 106
8, 15341, Control_c, 6, 11, 101
8, 15342, Control_c, 6, 11, 95
8, 15343, Control_c, 6, 11, 90
8, 15344, Control_c, 6, 11, 85
8, 15345, Control_c, 6, 11, 79
8, 15346, Control_c, 6, 11, 74
8, 15347, Control_c, 6, 11, 69
8, 15348, Control_c, 6, 11, 64
8, 15349, Control_c, 6, 11, 58
8, 15350, Control_c, 6, 11, 53
8, 15351, Control_c, 6, 11, 48
8, 15352, Control_c, 6, 11, 42
8, 15353, Control_c, 6, 11, 37
8, 15354, Control_c, 6, 11, 32
8, 15355, Control_c, 6, 11, 26
8, 15356, Control_c, 6, 11, 21
8, 15357, Control_c, 6, 11, 16
8, 15358, Control_c, 6, 11, 11
8, 15359, Control_c, 6, 11, 5
8, 15360, Note_off_c, 6, 63, 64
8, 15360, Control_c, 6, 11, 127
8, 15360, Note_on_c, 6, 33, 64
8, 15361, Control_c, 6, 11, 124
8, 15362, Control_c, 6, 11, 122
8, 15363, Control_c, 6, 11, 119
8, 15364, Control_c, 6, 11, 116
8, 15365, Control_c, 6, 11, 114
8, 15366, Control_c, 6, 11, 111
8, 15367, Control_c, 6, 11, 108
8, 15368, Control_c, 6, 11, 106
8, 15369, Control_c, 6, 11, 103
8, 15370, Control_c, 6, 11, 101
8, 15371, Control_c, 6, 11, 98
8, 15372, Control_c, 6, 11, 95
8, 15373, Control_c, 6, 11, 93
8, 15374, Control_c, 6, 11, 90
8, 15375, Control_c, 6, 11, 87
8, 15376, Control_c, 6, 11, 85
8, 15377, Control_c, 6, 11, 82
8, 15378, Control_c, 6, 11, 79
8, 15379, Control_c, 6, 11, 77
8, 15380, Control_c, 6, 11, 74
8, 15381, Control_c, 6, 11, 71
8, 15382, Control_c, 6, 11, 69
8, 15383, Control_c, 6, 11, 66
8, 15384, Control_c, 6, 11, 64
8, 15385, Control_c, 6, 11, 61
8, 15386, Control_c, 6, 11, 58
8, 15387, Control_c, 6, 11, 56
8, 15388, Control_c, 6, 11, 53
8, 15389, Control_c, 6, 11, 50
8, 15390, Control_c, 6, 11, 48
8, 15391, Control_c, 6, 11, 45
8, 15392, Control_c, 6, 11, 42
8, 15393, Control_c, 6, 11, 40
8, 15394, Control_c, 6, 11, 37
8, 15395, Control_c, 6, 11, 34
8, 15396, Control_c, 6, 11, 32
8, 15397, Control_c, 6, 11, 29
8, 15398, Control_c, 6, 11, 26
8, 15399, Control_c, 6, 11, 24
8, 15400, Control_c, 6, 11, 21
8, 15401, Control_c, 6, 11, 19
8, 15402, Control_c, 6, 11, 16
8, 15403, Control_c, 6, 11, 13
8, 15404, Control_c, 6, 11, 11
8, 15405, Control_c, 6, 11, 8
8, 15406, Control_c, 6, 11, 5
8, 15407, Control_c, 6, 11, 3
8, 15408, Note_off_c, 6, 33, 64
8, 15408, Control_c, 6, 11, 127
8, 15408, Note_on_c, 6, 93, 64
8, 15409, Control_c, 6, 11, 124
8, 15410, Control_c, 6, 11, 122
8, 15411, Control_c, 6, 11, 119
8, 15412, Control_c, 6, 11, 116
8, 15413, Control_c, 6, 11, 114
8, 15414, Control_c, 6, 11, 111
8, 15415, Control_c, 6, 11, 108
8, 15416, Control_c, 6, 11, 106
8, 15417, Control_c, 6, 11, 103
8, 15418, Control_c, 6, 11, 101
8, 15419, Control_c, 6, 11, 98
8, 15420, Control_c, 6, 11, 95
8, 15421, Control_c, 6, 11, 93
8, 15422, Control_c, 6, 11, 90
8, 15423, Control_c, 6, 11, 87
8, 15424, Control_c, 6, 11, 85
8, 15425, Control_c, 6, 11, 82
8, 15426, Control_c, 6, 11, 79
8, 15427, Control_c, 6, 11, 77
8, 15428, Control_c, 6, 11, 74
8, 15429, Control_c, 6, 11, 71
8, 15430, Control_c, 6, 11, 69
8, 15431, Control_c, 6, 11, 66
8, 15432, Control_c, 6, 11, 64
8, 15433, Control_c, 6, 11, 61
8, 15434, Control_c, 6, 11, 58
8, 15435, Control_c, 6, 11, 56
8, 15436, Control_c, 6, 11, 53
8, 15437, Control_c, 6, 11, 50
8, 15438, Control_c, 6, 11, 48
8, 15439, Control_c, 6, 11, 45
8, 15440, Control_c, 6, 11, 42
8, 15441, Control_c, 6, 11, 40
8, 15442, Control_c, 6, 11, 37
8, 15443, Control_c, 6, 11, 34
8, 15444, Control_c, 6, 11, 32
8, 15445, Control_c, 6, 11, 29
8, 15446, Control_c, 6, 11, 26
8, 15447, Control_c, 6, 11, 24
8, 15448, Control_c, 6, 11, 21
8, 15449, Control_c, 6, 11, 19
8, 15450, Control_c, 6, 11, 16
8, 15451, Control_c, 6, 11, 13
8, 15452, Control_c, 6, 11, 11
8, 15453, Control_c, 6, 11, 8
8, 15454, Control_c, 6, 11, 5
8, 15455, Control_c, 6, 11, 3
8, 15456, Note_off_c, 6, 93, 64
8, 15456, Control_c, 6, 11, 127
8, 15456, Note_on_c, 6, 63, 64
8, 15457, Control_c, 6, 11, 124
8, 15458, Control_c, 6, 11, 122
8, 15459, Control_c, 6, 11, 119
8, 15460, Control_c, 6, 11, 116
8, 15461, Control_c, 6, 11, 114
8, 15462, Control_c, 6, 11, 111
8, 15463, Control_c, 6, 11, 108
8, 15464, Control_c, 6, 11, 106
8, 15465, Control_c, 6, 11, 103
8, 15466, Control_c, 6, 11, 101
8, 15467, Control_c, 6, 11, 98
8, 15468, Control_c, 6, 11, 95
8, 15469, Control_c, 6, 11, 93
8, 15470, Control_c, 6, 11, 90
8, 15471, Control_c, 6, 11, 87
8, 15472, Control_c, 6, 11, 85
8, 15473, Control_c, 6, 11, 82
8, 15474, Control_c, 6, 11, 79
8, 15475, Control_c, 6, 11, 77
8, 15476, Control_c, 6, 11, 74
8, 15477, Control_c, 6, 11, 71
8, 15478, Control_c, 6, 11, 69
8, 15479, Control_c, 6, 11, 66
8, 15480, Control_c, 6, 11, 64
8, 15481, Control_c, 6, 11, 61
8, 15482, Control_c, 6, 11, 58
8, 15483, Control_c, 6, 11, 56
8, 15484, Control_c, 6, 11, 53
8, 15485, Control_c, 6, 11, 50
8, 15486, Control_c, 6, 11, 48
8, 15487, Control_c, 6, 11, 45
8, 15488, Control_c, 6, 11, 42
8, 15489, Control_c, 6, 11, 40
8, 15490, Control_c, 6, 11, 37
8, 15491, Control_c, 6, 11, 34
8, 15492, Control_c, 6, 11, 32
8, 15493, Control_c, 6, 11, 29
8, 15494, Control_c, 6, 11, 26
8, 15495, Control_c, 6, 11, 24
8, 15496, Control_c, 6, 11, 21
8, 15497, Control_c, 6, 11, 19
8, 15498, Control_c, 6, 11, 16
8, 15499, Control_c, 6, 11, 13
8, 15500, Control_c, 6, 11, 11
8, 15501, Control_c, 6, 11, 8
8, 15502, Control_c, 6, 11, 5
8, 15503, Control_c, 6, 11, 3
8, 15504, Note_off_c, 6, 63, 64
8, 15504, Control_c, 6, 11, 127
8, 15504, Note_on_c, 6, 93, 64
8, 15505, Control_c, 6, 11, 122
8, 15506, Control_c, 6, 11, 116
8, 15507, Control_c, 6, 11, 111
8, 15508, Control_c, 6, 11, 106
8, 15509, Control_c, 6, 11, 101
8, 15510, Control_c, 6, 11, 95
8, 15511, Control_c, 6, 11, 90
8, 15512, Control_c, 6, 11, 85
8, 15513, Control_c, 6, 11, 79
8, 15514, Control_c, 6, 11, 74
8, 15515, Control_c, 6, 11, 69
8, 15516, Control_c, 6, 11, 64
8, 15517, Control_c, 6, 11, 58
8, 15518, Control_c, 6, 11, 53
8, 15519, Control_c, 6, 11, 48
8, 15520, Control_c, 6, 11, 42
8, 15521, Control_c, 6, 11, 37
8, 15522, Control_c, 6, 11, 32
8, 15523, Control_c, 6, 11, 26
8, 15524, Control_c, 6, 11, 21
8, 15525, Control_c, 6, 11, 16
8, 15526, Control_c, 6, 11, 11
8, 15527, Control_c, 6, 11, 5
8, 15528, Note_off_c, 6, 93, 64
8, 15528, Control_c, 6, 11, 127
8, 15528, Note_on_c, 6, 63, 64
8, 15529, Control_c, 6, 11, 123
8, 15530, Control_c, 6, 11, 120
8, 15531, Control_c, 6, 11, 116
8, 15532, Control_c, 6, 11, 113
8, 15533, Control_c, 6, 11, 109
8, 15534, Control_c, 6, 11, 106
8, 15535, Control_c, 6, 11, 102
8, 15536, Control_c, 6, 11, 99
8, 15537, Control_c, 6, 11, 95
8, 15538, Control_c, 6, 11, 92
8, 15539, Control_c, 6, 11, 88
8, 15540, Control_c, 6, 11, 85
8, 15541, Control_c, 6, 11, 81
8, 15542, Control_c, 6, 11, 78
8, 15543, Control_c, 6, 11, 74
8, 15544, Control_c, 6, 11, 71
8, 15545, Control_c, 6, 11, 67
8, 15546, Control_c, 6, 11, 64
8, 15547, Control_c, 6, 11, 60
8, 15548, Control_c, 6, 11, 56
8, 15549, Control_c, 6, 11, 53
8, 15550, Control_c, 6, 11, 49
8, 15551, Control_c, 6, 11, 46
8, 15552, Note_off_c, 6, 63, 64
8, 15552, Control_c, 6, 11, 85
8, 15552, Note_on_c, 6, 33, 64
8, 15553, Control_c, 6, 11, 83
8, 15554, Control_c, 6, 11, 81
8, 15555, Control_c, 6, 11, 79
8, 15556, Control_c, 6, 11, 78
8, 15557, Control_c, 6, 11, 76
8, 15558, Control_c, 6, 11, 74
8, 15559, Control_c, 6, 11, 72
8, 15560, Control_c, 6, 11, 71
8, 15561, Control_c, 6, 11, 69
8, 15562, Control_c, 6, 11, 67
8, 15563, Control_c, 6, 11, 65
8, 15564, Control_c, 6, 11, 64
8, 15565, Control_c, 6, 11, 62
8, 15566, Control_c, 6, 11, 60
8, 15567, Control_c, 6, 11, 58
8, 15568, Control_c, 6, 11, 56
8, 15569, Control_c, 6, 11, 55
8, 15570, Control_c, 6, 11, 53
8, 15571, Control_c, 6, 11, 51
8, 15572, Control_c, 6, 11, 49
8, 15573, Control_c, 6, 11, 48
8, 15574, Control_c, 6, 11, 46
8, 15575, Control_c, 6, 11, 44
8, 15576, Control_c, 6, 11, 42
8, 15577, Control_c, 6, 11, 41
8, 15578, Control_c, 6, 11, 39
8, 15579, Control_c, 6, 11, 37
8, 15580, Control_c, 6, 11, 35
8, 15581, Control_c, 6, 11, 34
8, 15582, Control_c, 6, 11, 32
8, 15583, Control_c, 6, 11, 30
8, 15584, Control_c, 6, 11, 28
8, 15585, Control_c, 6, 11, 26
8, 15586, Control_c, 6, 11, 25
8, 15587, Control_c, 6, 11, 23
8, 15588, Control_c, 6, 11, 21
8, 15589, Control_c, 6, 11, 19
8, 15590, Control_c, 6, 11, 18
8, 15591, Control_c, 6, 11, 16
8, 15592, Control_c, 6, 11, 14
8, 15593, Control_c, 6, 11, 12
8, 15594, Control_c, 6, 11, 11
8, 15595, Control_c, 6, 11, 9
8, 15596, Control_c, 6, 11, 7
8, 15597, Control_c, 6, 11, 5
8, 15598, Control_c, 6, 11, 4
8, 15599, Control_c, 6, 11, 2
8, 15600, Note_off_c, 6, 33, 64
8, 15600, Control_c, 6, 11, 127
8, 15600, Note_on_c, 6, 33, 64
8, 15601, Control_c, 6, 11, 124
8, 15602, Control_c, 6, 11, 122
8, 15603, Control_c, 6, 11, 119
8, 15604, Control_c, 6, 11, 116
8, 15605, Control_c, 6, 11, 114
8, 15606, Control_c, 6, 11, 111
8, 15607, Control_c, 6, 11, 108
8, 15608, Control_c, 6, 11, 106
8, 15609, Control_c, 6, 11, 103
8, 15610, Control_c, 6, 11, 101
8, 15611, Control_c, 6, 11, 98
8, 15612, Control_c, 6, 11, 95
8, 15613, Control_c, 6, 11, 93
8, 15614, Control_c, 6, 11, 90
8, 15615, Control_c, 6, 11, 87
8, 15616, Control_c, 6, 11, 85
8, 15617, Control_c, 6, 11, 82
8, 15618, Control_c, 6, 11, 79
8, 15619, Control_c, 6, 11, 77
8, 15620, Control_c, 6, 11, 74
8, 15621, Control_c, 6, 11, 71
8, 15622, Control_c, 6, 11, 69
8, 15623, Control_c, 6, 11, 66
8, 15624, Control_c, 6, 11, 64
8, 15625, Control_c, 6, 11, 61
8, 15626, Control_c, 6, 11, 58
8, 15627, Control_c, 6, 11, 56
8, 15628, Control_c, 6, 11, 53
8, 15629, Control_c, 6, 11, 50
8, 15630, Control_c, 6, 11, 48
8, 15631, Control_c, 6, 11, 45
8, 15632, Control_c, 6, 11, 42
8, 15633, Control_c, 6, 11, 40
8, 15634, Control_c, 6, 11, 37
8, 15635, Control_c, 6, 11, 34
8, 15636, Control_c, 6, 11, 32
8, 15637, Control_c, 6, 11, 29
8, 15638, Control_c, 6, 11, 26
8, 15639, Control_c, 6, 11, 24
8, 15640, Control_c, 6, 11, 21
8, 15641, Control_c, 6, 11, 19
8, 15642, Control_c, 6, 11, 16
8, 15643, Control_c, 6, 11, 13
8, 15644, Control_c, 6, 11, 11
8, 15645, Control_c, 6, 11, 8
8, 15646, Control_c, 6, 11, 5
8, 15647, Control_c, 6, 11, 3
8, 15648, Note_off_c, 6, 33, 64
8, 15648, Control_c, 6, 11, 127
8, 15648, Note_on_c, 6, 63, 64
8, 15649, Control_c, 6, 11, 124
8, 15650, Control_c, 6, 11, 122
8, 15651, Control_c, 6, 11, 119
8, 15652, Control_c, 6, 11, 116
8, 15653, Control_c, 6, 11, 114
8, 15654, Control_c, 6, 11, 111
8, 15655, Control_c, 6, 11, 108
8, 15656, Control_c, 6, 11, 106
8, 15657, Control_c, 6, 11, 103
8, 15658, Control_c, 6, 11, 101
8, 15659, Control_c, 6, 11, 98
8, 15660, Control_c, 6, 11, 95
8, 15661, Control_c, 6, 11, 93
8, 15662, Control_c, 6, 11, 90
8, 15663, Control_c, 6, 11, 87
8, 15664, Control_c, 6, 11, 85
8, 15665, Control_c, 6, 11, 82
8, 15666, Control_c, 6, 11, 79
8, 15667, Control_c, 6, 11, 77
8, 15668, Control_c, 6, 11, 74
8, 15669, Control_c, 6, 11, 71
8, 15670, Control_c, 6, 11, 69
8, 15671, Control_c, 6, 11, 66
8, 15672, Control_c, 6, 11, 64
8, 15673, Control_c, 6, 11, 61
8, 15674, Control_c, 6, 11, 58
8, 15675, Control_c, 6, 11, 56
8, 15676, Control_c, 6, 11, 53
8, 15677, Control_c, 6, 11, 50
8, 15678, Control_c, 6, 11, 48
8, 15679, Control_c, 6, 11, 45
8, 15680, Control_c, 6, 11, 42
8, 15681, Control_c, 6, 11, 40
8, 15682, Control_c, 6, 11, 37
8, 15683, Control_c, 6, 11, 34
8, 15684, Control_c, 6, 11, 32
8, 15685, Control_c, 6, 11, 29
8, 15686, Control_c, 6, 11, 26
8, 15687, Control_c, 6, 11, 24
8, 15688, Control_c, 6, 11, 21
8, 15689, Control_c, 6, 11, 19
8, 15690, Control_c, 6, 11, 16
8, 15691, Control_c, 6, 11, 13
8, 15692, Control_c, 6, 11, 11
8, 15693, Control_c, 6, 11, 8
8, 15694, Control_c, 6, 11, 5
8, 15695, Control_c, 6, 11, 3
8, 15696, Note_off_c, 6, 63, 64
8, 15696, Control_c, 6, 11, 85
8, 15696, Note_on_c, 6, 93, 64
8, 15697, Control_c, 6, 11, 83
8, 15698, Control_c, 6, 11, 81
8, 15699, Control_c, 6, 11, 79
8, 15700, Control_c, 6, 11, 78
8, 15701, Control_c, 6, 11, 76
8, 15702, Control_c, 6, 11, 74
8, 15703, Control_c, 6, 11, 72
8, 15704, Control_c, 6, 11, 71
8, 15705, Control_c, 6, 11, 69
8, 15706, Control_c, 6, 11, 67
8, 15707, Control_c, 6, 11, 65
8, 15708, Control_c, 6, 11, 64
8, 15709, Control_c, 6, 11, 62
8, 15710, Control_c, 6, 11, 60
8, 15711, Control_c, 6, 11, 58
8, 15712, Control_c, 6, 11, 56
8, 15713, Control_c, 6, 11, 55
8, 15714, Control_c, 6, 11, 53
8, 15715, Control_c, 6, 11, 51
8, 15716, Control_c, 6, 11, 49
8, 15717, Control_c, 6, 11, 48
8, 15718, Control_c, 6, 11, 46
8, 15719, Control_c, 6, 11, 44
8, 15720, Control_c, 6, 11, 42
8, 15721, Control_c, 6, 11, 41
8, 15722, Control_c, 6, 11, 39
8, 15723, Control_c, 6, 11, 37
8, 15724, Control_c, 6, 11, 35
8, 15725, Control_c, 6, 11, 34
8, 15726, Control_c, 6, 11, 32
8, 15727, Control_c, 6, 11, 30
8, 15728, Control_c, 6, 11, 28
8, 15729, Control_c, 6, 11, 26
8, 15730, Control_c, 6, 11, 25
8, 15731, Control_c, 6, 11, 23
8, 15732, Control_c, 6, 11, 21
8, 15733, Control_c, 6, 11, 19
8, 15734, Control_c, 6, 11, 18
8, 15735, Control_c, 6, 11, 16
8, 15736, Control_c, 6, 11, 14
8, 15737, Control_c, 6, 11, 12
8, 15738, Control_c, 6, 11, 11
8, 15739, Control_c, 6, 11, 9
8, 15740, Control_c, 6, 11, 7
8, 15741, Control_c, 6, 11, 5
8, 15742, Control_c, 6, 11, 4
8, 15743, Control_c, 6, 11, 2
8, 15744, Note_off_c, 6, 93, 64
8, 15744, Control_c, 6, 11, 127
8, 15744, Note_on_c, 6, 33, 64
8, 15745, Control_c, 6, 11, 124
8, 15746, Control_c, 6, 11, 122
8, 15747, Control_c, 6, 11, 119
8, 15748, Control_c, 6, 11, 116
8, 15749, Control_c, 6, 11, 114
8, 15750, Control_c, 6, 11, 111
8, 15751, Control_c, 6, 11, 108
8, 15752, Control_c, 6, 11, 106
8, 15753, Control_c, 6, 11, 103
8, 15754, Control_c, 6, 11, 101
8, 15755, Control_c, 6, 11, 98
8, 15756, Control_c, 6, 11, 95
8, 15757, Control_c, 6, 11, 93
8, 15758, Control_c, 6, 11, 90
8, 15759, Control_c, 6, 11, 87
8, 15760, Control_c, 6, 11, 85
8, 15761, Control_c, 6, 11, 82
8, 15762, Control_c, 6, 11, 79
8, 15763, Control_c, 6, 11, 77
8, 15764, Control_c, 6, 11, 74
8, 15765, Control_c, 6, 11, 71
8, 15766, Control_c, 6, 11, 69
8, 15767, Control_c, 6, 11, 66
8, 15768, Control_c, 6, 11, 64
8, 15769, Control_c, 6, 11, 61
8, 15770, Control_c, 6, 11, 58
8, 15771, Control_c, 6, 11, 56
8, 15772, Control_c, 6, 11, 53
8, 15773, Control_c, 6, 11, 50
8, 15774, Control_c, 6, 11, 48
8, 15775, Control_c, 6, 11, 45
8, 15776, Control_c, 6, 11, 42
8, 15777, Control_c, 6, 11, 40
8, 15778, Control_c, 6, 11, 37
8, 15779, Control_c, 6, 11, 34
8, 15780, Control_c, 6, 11, 32
8, 15781, Control_c, 6, 11, 29
8, 15782, Control_c, 6, 11, 26
8, 15783, Control_c, 6, 11, 24
8, 15784, Control_c, 6, 11, 21
8, 15785, Control_c, 6, 11, 19
8, 15786, Control_c, 6, 11, 16
8, 15787, Control_c, 6, 11, 13
8, 15788, Control_c, 6, 11, 11
8, 15789, Control_c, 6, 11, 8
8, 15790, Control_c, 6, 11, 5
8, 15791, Control_c, 6, 11, 3
8, 15792, Note_off_c, 6, 33, 64
8, 15792, Control_c, 6, 11, 127
8, 15792, Note_on_c, 6, 93, 64
8, 15793, Control_c, 6, 11, 124
8, 15794, Control_c, 6, 11, 122
8, 15795, Control_c, 6, 11, 119
8, 15796, Control_c, 6, 11, 116
8, 15797, Control_c, 6, 11, 114
8, 15798, Control_c, 6, 11, 111
8, 15799, Control_c, 6, 11, 108
8, 15800, Control_c, 6, 11, 106
8, 15801, Control_c, 6, 11, 103
8, 15802, Control_c, 6, 11, 101
8, 15803, Control_c, 6, 11, 98
8, 15804, Control_c, 6, 11, 95
8, 15805, Control_c, 6, 11, 93
8, 15806, Control_c, 6, 11, 90
8, 15807, Control_c, 6, 11, 87
8, 15808, Control_c, 6, 11, 85
8, 15809, Control_c, 6, 11, 82
8, 15810, Control_c, 6, 11, 79
8, 15811, Control_c, 6, 11, 77
8, 15812, Control_c, 6, 11, 74
8, 15813, Control_c, 6, 11, 71
8, 15814, Control_c, 6, 11, 69
8, 15815, Control_c, 6, 11, 66
8, 15816, Control_c, 6, 11, 64
8, 15817, Control_c, 6, 11, 61
8, 15818, Control_c, 6, 11, 58
8, 15819, Control_c, 6, 11, 56
8, 15820, Control_c, 6, 11, 53
8, 15821, Control_c, 6, 11, 50
8, 15822, Control_c, 6, 11, 48
8, 15823, Control_c, 6, 11, 45
8, 15824, Control_c, 6, 11, 42
8, 15825, Control_c, 6, 11, 40
8, 15826, Control_c, 6, 11, 37
8, 15827, Control_c, 6, 11, 34
8, 15828, Control_c, 6, 11, 32
8, 15829, Control_c, 6, 11, 29
8, 15830, Control_c, 6, 11, 26
8, 15831, Control_c, 6, 11, 24
8, 15832, Control_c, 6, 11, 21
8, 15833, Control_c, 6, 11, 19
8, 15834, Control_c, 6, 11, 16
8, 15835, Control_c, 6, 11, 13
8, 15836, Control_c, 6, 11, 11
8, 15837, Control_c, 6, 11, 8
8, 15838, Control_c, 6, 11, 5
8, 15839, Control_c, 6, 11, 3
8, 15840, Note_off_c, 6, 93, 64
8, 15840, Control_c, 6, 11, 127
8, 15840, Note_on_c, 6, 63, 64
8, 15841, Control_c, 6, 11, 124
8, 15842, Control_c, 6, 11, 122
8, 15843, Control_c, 6, 11, 119
8, 15844, Control_c, 6, 11, 116
8, 15845, Control_c, 6, 11, 114
8, 15846, Control_c, 6, 11, 111
8, 15847, Control_c, 6, 11, 108
8, 15848, Control_c, 6, 11, 106
8, 15849, Control_c, 6, 11, 103
8, 15850, Control_c, 6, 11, 101
8, 15851, Control_c, 6, 11, 98
8, 15852, Control_c, 6, 11, 95
8, 15853, Control_c, 6, 11, 93
8, 15854, Control_c, 6, 11, 90
8, 15855, Control_c, 6, 11, 87
8, 15856, Control_c, 6, 11, 85
8, 15857, Control_c, 6, 11, 82
8, 15858, Control_c, 6, 11, 79
8, 15859, Control_c, 6, 11, 77
8, 15860, Control_c, 6, 11, 74
8, 15861, Control_c, 6, 11, 71
8, 15862, Control_c, 6, 11, 69
8, 15863, Control_c, 6, 11, 66
8, 15864, Control_c, 6, 11, 64
8, 15865, Control_c, 6, 11, 61
8, 15866, Control_c, 6, 11, 58
8, 15867, Control_c, 6, 11, 56
8, 15868, Control_c, 6, 11, 53
8, 15869, Control_c, 6, 11, 50
8, 15870, Control_c, 6, 11, 48
8, 15871, Control_c, 6, 11, 45
8, 15872, Control_c, 6, 11, 42
8, 15873, Control_c, 6, 11, 40
8, 15874, Control_c, 6, 11, 37
8, 15875, Control_c, 6, 11, 34
8, 15876, Control_c, 6, 11, 32
8, 15877, Control_c, 6, 11, 29
8, 15878, Control_c, 6, 11, 26
8, 15879, Control_c, 6, 11, 24
8, 15880, Control_c, 6, 11, 21
8, 15881, Control_c, 6, 11, 19
8, 15882, Control_c, 6, 11, 16
8, 15883, Control_c, 6, 11, 13
8, 15884, Control_c, 6, 11, 11
8, 15885, Control_c, 6, 11, 8
8, 15886, Control_c, 6, 11, 5
8, 15887, Control_c, 6, 11, 3
8, 15888, Note_off_c, 6, 63, 64
8, 15888, Control_c, 6, 11, 127
8, 15888, Note_on_c, 6, 93, 64
8, 15889, Control_c, 6, 11, 122
8, 15890, Control_c, 6, 11, 116
8, 15891, Control_c, 6, 11, 111
8, 15892, Control_c, 6, 11, 106
8, 15893, Control_c, 6, 11, 101
8, 15894, Control_c, 6, 11, 95
8, 15895, Control_c, 6, 11, 90
8, 15896, Control_c, 6, 11, 85
8, 15897, Control_c, 6, 11, 79
8, 15898, Control_c, 6, 11, 74
8, 15899, Control_c, 6, 11, 69
8, 15900, Control_c, 6, 11, 64
8, 15901, Control_c, 6, 11, 58
8, 15902, Control_c, 6, 11, 53
8, 15903, Control_c, 6, 11, 48
8, 15904, Control_c, 6, 11, 42
8, 15905, Control_c, 6, 11, 37
8, 15906, Control_c, 6, 11, 32
8, 15907, Control_c, 6, 11, 26
8, 15908, Control_c, 6, 11, 21
8, 15909, Control_c, 6, 11, 16
8, 15910, Control_c, 6, 11, 11
8, 15911, Control_c, 6, 11, 5
8, 15912, Note_off_c, 6, 93, 64
8, 15912, Control_c, 6, 11, 127
8, 15912, Note_on_c, 6, 63, 64
8, 15913, Control_c, 6, 11, 123
8, 15914, Control_c, 6, 11, 120
8, 15915, Control_c, 6, 11, 116
8, 15916, Control_c, 6, 11, 113
8, 15917, Control_c, 6, 11, 109
8, 15918, Control_c, 6, 11, 106
8, 15919, Control_c, 6, 11, 102
8, 15920, Control_c, 6, 11, 99
8, 15921, Control_c, 6, 11, 95
8, 15922, Control_c, 6, 11, 92
8, 15923, Control_c, 6, 11, 88
8, 15924, Control_c, 6, 11, 85
8, 15925, Control_c, 6, 11, 81
8, 15926, Control_c, 6, 11, 78
8, 15927, Control_c, 6, 11, 74
8, 15928, Control_c, 6, 11, 71
8, 15929, Control_c, 6, 11, 67
8, 15930, Control_c, 6, 11, 64
8, 15931, Control_c, 6, 11, 60
8, 15932, Control_c, 6, 11, 56
8, 15933, Control_c, 6, 11, 53
8, 15934, Control_c, 6, 11, 49
8, 15935, Control_c, 6, 11, 46
8, 15936, Note_off_c, 6, 63, 64
8, 15936, Control_c, 6, 11, 85
8, 15936, Note_on_c, 6, 33, 64
8, 15937, Control_c, 6, 11, 83
8, 15938, Control_c, 6, 11, 81
8, 15939, Control_c, 6, 11, 79
8, 15940, Control_c, 6, 11, 78
8, 15941, Control_c, 6, 11, 76
8, 15942, Control_c, 6, 11, 74
8, 15943, Control_c, 6, 11, 72
8, 15944, Control_c, 6, 11, 71
8, 15945, Control_c, 6, 11, 69
8, 15946, Control_c, 6, 11, 67
8, 15947, Control_c, 6, 11, 65
8, 15948, Control_c, 6, 11, 64
8, 15949, Control_c, 6, 11, 62
8, 15950, Control_c, 6, 11, 60
8, 15951, Control_c, 6, 11, 58
8, 15952, Control_c, 6, 11, 56
8, 15953, Control_c, 6, 11, 55
8, 15954, Control_c, 6, 11, 53
8, 15955, Control_c, 6, 11, 51
8, 15956, Control_c, 6, 11, 49
8, 15957, Control_c, 6, 11, 48
8, 15958, Control_c, 6, 11, 46
8, 15959, Control_c, 6, 11, 44
8, 15960, Control_c, 6, 11, 42
8, 15961, Control_c, 6, 11, 41
8, 15962, Control_c, 6, 11, 39
8, 15963, Control_c, 6, 11, 37
8, 15964, Control_c, 6, 11, 35
8, 15965, Control_c, 6, 11, 34
8, 15966, Control_c, 6, 11, 32
8, 15967, Control_c, 6, 11, 30
8, 15968, Control_c, 6, 11, 28
8, 15969, Control_c, 6, 11, 26
8, 15970, Control_c, 6, 11, 25
8, 15971, Control_c, 6, 11, 23
8, 15972, Control_c, 6, 11, 21
8, 15973, Control_c, 6, 11, 19
8, 15974, Control_c, 6, 11, 18
8, 15975, Control_c, 6, 11, 16
8, 15976, Control_c, 6, 11, 14
8, 15977, Control_c, 6, 11, 12
8, 15978, Control_c, 6, 11, 11
8, 15979, Control_c, 6, 11, 9
8, 15980, Control_c, 6, 11, 7
8, 15981, Control_c, 6, 11, 5
8, 15982, Control_c, 6, 11, 4
8, 15983, Control_c, 6, 11, 2
8, 15984, Note_off_c, 6, 33, 64
8, 15984, Control_c, 6, 11, 127
8, 15984, Note_on_c, 6, 33, 64
8, 15985, Control_c, 6, 11, 124
8, 15986, Control_c, 6, 11, 122
8, 15987, Control_c, 6, 11, 119
8, 15988, Control_c, 6, 11, 116
8, 15989, Control_c, 6, 11, 114
8, 15990, Control_c, 6, 11, 111
8, 15991, Control_c, 6, 11, 108
8, 15992, Control_c, 6, 11, 106
8, 15993, Control_c, 6, 11, 103
8, 15994, Control_c, 6, 11, 101
8, 15995, Control_c, 6, 11, 98
8, 15996, Control_c, 6, 11, 95
8, 15997, Control_c, 6, 11, 93
8, 15998, Control_c, 6, 11, 90
8, 15999, Control_c, 6, 11, 87
8, 16000, Control_c, 6, 11, 85
8, 16001, Control_c, 6, 11, 82
8, 16002, Control_c, 6, 11, 79
8, 16003, Control_c, 6, 11, 77
8, 16004, Control_c, 6, 11, 74
8, 16005, Control_c, 6, 11, 71
8, 16006, Control_c, 6, 11, 69
8, 16007, Control_c, 6, 11, 66
8, 16008, Control_c, 6, 11, 64
8, 16009, Control_c, 6, 11, 61
8, 16010, Control_c, 6, 11, 58
8, 16011, Control_c, 6, 11, 56
8, 16012, Control_c, 6, 11, 53
8, 16013, Control_c, 6, 11, 50
8, 16014, Control_c, 6, 11, 48
8, 16015, Control_c, 6, 11, 45
8, 16016, Control_c, 6, 11, 42
8, 16017, Control_c, 6, 11, 40
8, 16018, Control_c, 6, 11, 37
8, 16019, Control_c, 6, 11, 34
8, 16020, Control_c, 6, 11, 32
8, 16021, Control_c, 6, 11, 29
8, 16022, Control_c, 6, 11, 26
8, 16023, Control_c, 6, 11, 24
8, 16024, Control_c, 6, 11, 21
8, 16025, Control_c, 6, 11, 19
8, 16026, Control_c, 6, 11, 16
8, 16027, Control_c, 6, 11, 13
8, 16028, Control_c, 6, 11, 11
8, 16029, Control_c, 6, 11, 8
8, 16030, Control_c, 6, 11, 5
8, 16031, Control_c, 6, 11, 3
8, 16032, Note_off_c, 6, 33, 64
8, 16032, Control_c, 6, 11, 127
8, 16032, Note_on_c, 6, 63, 64
8, 16033, Control_c, 6, 11, 124
8, 16034, Control_c, 6, 11, 122
8, 16035, Control_c, 6, 11, 119
8, 16036, Control_c, 6, 11, 116
8, 16037, Control_c, 6, 11, 114
8, 16038, Control_c, 6, 11, 111
8, 16039, Control_c, 6, 11, 108
8, 16040, Control_c, 6, 11, 106
8, 16041, Control_c, 6, 11, 103
8, 16042, Control_c, 6, 11, 101
8, 16043, Control_c, 6, 11, 98
8, 16044, Control_c, 6, 11, 95
8, 16045, Control_c, 6, 11, 93
8, 16046, Control_c, 6, 11, 90
8, 16047, Control_c, 6, 11, 87
8, 16048, Control_c, 6, 11, 85
8, 16049, Control_c, 6, 11, 82
8, 16050, Control_c, 6, 11, 79
8, 16051, Control_c, 6, 11, 77
8, 16052, Control_c, 6, 11, 74
8, 16053, Control_c, 6, 11, 71
8, 16054, Control_c, 6, 11, 69
8, 16055, Control_c, 6, 11, 66
8, 16056, Control_c, 6, 11, 64
8, 16057, Control_c, 6, 11, 61
8, 16058, Control_c, 6, 11, 58
8, 16059, Control_c, 6, 11, 56
8, 16060, Control_c, 6, 11, 53
8, 16061, Control_c, 6, 11, 50
8, 16062, Control_c, 6, 11, 48
8, 16063, Control_c, 6, 11, 45
8, 16064, Control_c, 6, 11, 42
8, 16065, Control_c, 6, 11, 40
8, 16066, Control_c, 6, 11, 37
8, 16067, Control_c, 6, 11, 34
8, 16068, Control_c, 6, 11, 32
8, 16069, Control_c, 6, 11, 29
8, 16070, Control_c, 6, 11, 26
8, 16071, Control_c, 6, 11, 24
8, 16072, Control_c, 6, 11, 21
8, 16073, Control_c, 6, 11, 19
8, 16074, Control_c, 6, 11, 16
8, 16075, Control_c, 6, 11, 13
8, 16076, Control_c, 6, 11, 11
8, 16077, Control_c, 6, 11, 8
8, 16078, Control_c, 6, 11, 5
8, 16079, Control_c, 6, 11, 3
8, 16080, Note_off_c, 6, 63, 64
8, 16080, Control_c, 6, 11, 127
8, 16080, Note_on_c, 6, 93, 64
8, 16081, Control_c, 6, 11, 122
8, 16082, Control_c, 6, 11, 116
8, 16083, Control_c, 6, 11, 111
8, 16084, Control_c, 6, 11, 106
8, 16085, Control_c, 6, 11, 101
8, 16086, Control_c, 6, 11, 95
8, 16087, Control_c, 6, 11, 90
8, 16088, Control_c, 6, 11, 85
8, 16089, Control_c, 6, 11, 79
8, 16090, Control_c, 6, 11, 74
8, 16091, Control_c, 6, 11, 69
8, 16092, Control_c, 6, 11, 64
8, 16093, Control_c, 6, 11, 58
8, 16094, Control_c, 6, 11, 53
8, 16095, Control_c, 6, 11, 48
8, 16096, Control_c, 6, 11, 42
8, 16097, Control_c, 6, 11, 37
8, 16098, Control_c, 6, 11, 32
8, 16099, Control_c, 6, 11, 26
8, 16100, Control_c, 6, 11, 21
8, 16101, Control_c, 6, 11, 16
8, 16102, Control_c, 6, 11, 11
8, 16103, Control_c, 6, 11, 5
8, 16104, Note_off_c, 6, 93, 64
8, 16104, Control_c, 6, 11, 127
8, 16104, Note_on_c, 6, 63, 64
8, 16105, Control_c, 6, 11, 122
8, 16106, Control_c, 6, 11, 116
8, 16107, Control_c, 6, 11, 111
8, 16108, Control_c, 6, 11, 106
8, 16109, Control_c, 6, 11, 101
8, 16110, Control_c, 6, 11, 95
8, 16111, Control_c, 6, 11, 90
8, 16112, Control_c, 6, 11, 85
8, 16113, Control_c, 6, 11, 79
8, 16114, Control_c, 6, 11, 74
8, 16115, Control_c, 6, 11, 69
8, 16116, Control_c, 6, 11, 64
8, 16117, Control_c, 6, 11, 58
8, 16118, Control_c, 6, 11, 53
8, 16119, Control_c, 6, 11, 48
8, 16120, Control_c, 6, 11, 42
8, 16121, Control_c, 6, 11, 37
8, 16122, Control_c, 6, 11, 32
8, 16123, Control_c, 6, 11, 26
8, 16124, Control_c, 6, 11, 21
8, 16125, Control_c, 6, 11, 16
8, 16126, Control_c, 6, 11, 11
8, 16127, Control_c, 6, 11, 5
8, 16128, Note_off_c, 6, 63, 64
8, 16128, Control_c, 6, 11, 127
8, 16128, Note_on_c, 6, 33, 64
8, 16129, Control_c, 6, 11, 124
8, 16130, Control_c, 6, 11, 122
8, 16131, Control_c, 6, 11, 119
8, 16132, Control_c, 6, 11, 116
8, 16133, Control_c, 6, 11, 114
8, 16134, Control_c, 6, 11, 111
8, 16135, Control_c, 6, 11, 108
8, 16136, Control_c, 6, 11, 106
8, 16137, Control_c, 6, 11, 103
8, 16138, Control_c, 6, 11, 101
8, 16139, Control_c, 6, 11, 98
8, 16140, Control_c, 6, 11, 95
8, 16141, Control_c, 6, 11, 93
8, 16142, Control_c, 6, 11, 90
8, 16143, Control_c, 6, 11, 87
8, 16144, Control_c, 6, 11, 85
8, 16145, Control_c, 6, 11, 82
8, 16146, Control_c, 6, 11, 79
8, 16147, Control_c, 6, 11, 77
8, 16148, Control_c, 6, 11, 74
8, 16149, Control_c, 6, 11, 71
8, 16150, Control_c, 6, 11, 69
8, 16151, Control_c, 6, 11, 66
8, 16152, Control_c, 6, 11, 64
8, 16153, Control_c, 6, 11, 61
8, 16154, Control_c, 6, 11, 58
8, 16155, Control_c, 6, 11, 56
8, 16156, Control_c, 6, 11, 53
8, 16157, Control_c, 6, 11, 50
8, 16158, Control_c, 6, 11, 48
8, 16159, Control_c, 6, 11, 45
8, 16160, Control_c, 6, 11, 42
8, 16161, Control_c, 6, 11, 40
8, 16162, Control_c, 6, 11, 37
8, 16163, Control_c, 6, 11, 34
8, 16164, Control_c, 6, 11, 32
8, 16165, Control_c, 6, 11, 29
8, 16166, Control_c, 6, 11, 26
8, 16167, Control_c, 6, 11, 24
8, 16168, Control_c, 6, 11, 21
8, 16169, Control_c, 6, 11, 19
8, 16170, Control_c, 6, 11, 16
8, 16171, Control_c, 6, 11, 13
8, 16172, Control_c, 6, 11, 11
8, 16173, Control_c, 6, 11, 8
8, 16174, Control_c, 6, 11, 5
8, 16175, Control_c, 6, 11, 3
8, 16176, Note_off_c, 6, 33, 64
8, 16176, Control_c, 6, 11, 127
8, 16176, Note_on_c, 6, 93, 64
8, 16177, Control_c, 6, 11, 124
8, 16178, Control_c, 6, 11, 122
8, 16179, Control_c, 6, 11, 119
8, 16180, Control_c, 6, 11, 116
8, 16181, Control_c, 6, 11, 114
8, 16182, Control_c, 6, 11, 111
8, 16183, Control_c, 6, 11, 108
8, 16184, Control_c, 6, 11, 106
8, 16185, Control_c, 6, 11, 103
8, 16186, Control_c, 6, 11, 101
8, 16187, Control_c, 6, 11, 98
8, 16188, Control_c, 6, 11, 95
8, 16189, Control_c, 6, 11, 93
8, 16190, Control_c, 6, 11, 90
8, 16191, Control_c, 6, 11, 87
8, 16192, Control_c, 6, 11, 85
8, 16193, Control_c, 6, 11, 82
8, 16194, Control_c, 6, 11, 79
8, 16195, Control_c, 6, 11, 77
8, 16196, Control_c, 6, 11, 74
8, 16197, Control_c, 6, 11, 71
8, 16198, Control_c, 6, 11, 69
8, 16199, Control_c, 6, 11, 66
8, 16200, Control_c, 6, 11, 64
8, 16201, Control_c, 6, 11, 61
8, 16202, Control_c, 6, 11, 58
8, 16203, Control_c, 6, 11, 56
8, 16204, Control_c, 6, 11, 53
8, 16205, Control_c, 6, 11, 50
8, 16206, Control_c, 6, 11, 48
8, 16207, Control_c, 6, 11, 45
8, 16208, Control_c, 6, 11, 42
8, 16209, Control_c, 6, 11, 40
8, 16210, Control_c, 6, 11, 37
8, 16211, Control_c, 6, 11, 34
8, 16212, Control_c, 6, 11, 32
8, 16213, Control_c, 6, 11, 29
8, 16214, Control_c, 6, 11, 26
8, 16215, Control_c, 6, 11, 24
8, 16216, Control_c, 6, 11, 21
8, 16217, Control_c, 6, 11, 19
8, 16218, Control_c, 6, 11, 16
8, 16219, Control_c, 6, 11, 13
8, 16220, Control_c, 6, 11, 11
8, 16221, Control_c, 6, 11, 8
8, 16222, Control_c, 6, 11, 5
8, 16223, Control_c, 6, 11, 3
8, 16224, Note_off_c, 6, 93, 64
8, 16224, Control_c, 6, 11, 127
8, 16224, Note_on_c, 6, 63, 64
8, 16225, Control_c, 6, 11, 124
8, 16226, Control_c, 6, 11, 122
8, 16227, Control_c, 6, 11, 119
8, 16228, Control_c, 6, 11, 116
8, 16229, Control_c, 6, 11, 114
8, 16230, Control_c, 6, 11, 111
8, 16231, Control_c, 6, 11, 108
8, 16232, Control_c, 6, 11, 106
8, 16233, Control_c, 6, 11, 103
8, 16234, Control_c, 6, 11, 101
8, 16235, Control_c, 6, 11, 98
8, 16236, Control_c, 6, 11, 95
8, 16237, Control_c, 6, 11, 93
8, 16238, Control_c, 6, 11, 90
8, 16239, Control_c, 6, 11, 87
8, 16240, Control_c, 6, 11, 85
8, 16241, Control_c, 6, 11, 82
8, 16242, Control_c, 6, 11, 79
8, 16243, Control_c, 6, 11, 77
8, 16244, Control_c, 6, 11, 74
8, 16245, Control_c, 6, 11, 71
8, 16246, Control_c, 6, 11, 69
8, 16247, Control_c, 6, 11, 66
8, 16248, Control_c, 6, 11, 64
8, 16249, Control_c, 6, 11, 61
8, 16250, Control_c, 6, 11, 58
8, 16251, Control_c, 6, 11, 56
8, 16252, Control_c, 6, 11, 53
8, 16253, Control_c, 6, 11, 50
8, 16254, Control_c, 6, 11, 48
8, 16255, Control_c, 6, 11, 45
8, 16256, Control_c, 6, 11, 42
8, 16257, Control_c, 6, 11, 40
8, 16258, Control_c, 6, 11, 37
8, 16259, Control_c, 6, 11, 34
8, 16260, Control_c, 6, 11, 32
8, 16261, Control_c, 6, 11, 29
8, 16262, Control_c, 6, 11, 26
8, 16263, Control_c, 6, 11, 24
8, 16264, Control_c, 6, 11, 21
8, 16265, Control_c, 6, 11, 19
8, 16266, Control_c, 6, 11, 16
8, 16267, Control_c, 6, 11, 13
8, 16268, Control_c, 6, 11, 11
8, 16269, Control_c, 6, 11, 8
8, 16270, Control_c, 6, 11, 5
8, 16271, Control_c, 6, 11, 3
8, 16272, Note_off_c, 6, 63, 64
8, 16272, Control_c, 6, 11, 127
8, 16272, Note_on_c, 6, 93, 64
8, 16273, Control_c, 6, 11, 122
8, 16274, Control_c, 6, 11, 116
8, 16275, Control_c, 6, 11, 111
8, 16276, Control_c, 6, 11, 106
8, 16277, Control_c, 6, 11, 101
8, 16278, Control_c, 6, 11, 95
8, 16279, Control_c, 6, 11, 90
8, 16280, Control_c, 6, 11, 85
8, 16281, Control_c, 6, 11, 79
8, 16282, Control_c, 6, 11, 74
8, 16283, Control_c, 6, 11, 69
8, 16284, Control_c, 6, 11, 64
8, 16285, Control_c, 6, 11, 58
8, 16286, Control_c, 6, 11, 53
8, 16287, Control_c, 6, 11, 48
8, 16288, Control_c, 6, 11, 42
8, 16289, Control_c, 6, 11, 37
8, 16290, Control_c, 6, 11, 32
8, 16291, Control_c, 6, 11, 26
8, 16292, Control_c, 6, 11, 21
8, 16293, Control_c, 6, 11, 16
8, 16294, Control_c, 6, 11, 11
8, 16295, Control_c, 6, 11, 5
8, 16296, Note_off_c, 6, 93, 64
8, 16296, Control_c, 6, 11, 127
8, 16296, Note_on_c, 6, 63, 64
8, 16297, Control_c, 6, 11, 123
8, 16298, Control_c, 6, 11, 120
8, 16299, Control_c, 6, 11, 116
8, 16300, Control_c, 6, 11, 113
8, 16301, Control_c, 6, 11, 109
8, 16302, Control_c, 6, 11, 106
8, 16303, Control_c, 6, 11, 102
8, 16304, Control_c, 6, 11, 99
8, 16305, Control_c, 6, 11, 95
8, 16306, Control_c, 6, 11, 92
8, 16307, Control_c, 6, 11, 88
8, 16308, Control_c, 6, 11, 85
8, 16309, Control_c, 6, 11, 81
8, 16310, Control_c, 6, 11, 78
8, 16311, Control_c, 6, 11, 74
8, 16312, Control_c, 6, 11, 71
8, 16313, Control_c, 6, 11, 67
8, 16314, Control_c, 6, 11, 64
8, 16315, Control_c, 6, 11, 60
8, 16316, Control_c, 6, 11, 56
8, 16317, Control_c, 6, 11, 53
8, 16318, Control_c, 6, 11, 49
8, 16319, Control_c, 6, 11, 46
8, 16320, Note_off_c, 6, 63, 64
8, 16320, Control_c, 6, 11, 85
8, 16320, Note_on_c, 6, 33, 64
8, 16321, Control_c, 6, 11, 83
8, 16322, Control_c, 6, 11, 81
8, 16323, Control_c, 6, 11, 79
8, 16324, Control_c, 6, 11, 78
8, 16325, Control_c, 6, 11, 76
8, 16326, Control_c, 6, 11, 74
8, 16327, Control_c, 6, 11, 72
8, 16328, Control_c, 6, 11, 71
8, 16329, Control_c, 6, 11, 69
8, 16330, Control_c, 6, 11, 67
8, 16331, Control_c, 6, 11, 65
8, 16332, Control_c, 6, 11, 64
8, 16333, Control_c, 6, 11, 62
8, 16334, Control_c, 6, 11, 60
8, 16335, Control_c, 6, 11, 58
8, 16336, Control_c, 6, 11, 56
8, 16337, Control_c, 6, 11, 55
8, 16338, Control_c, 6, 11, 53
8, 16339, Control_c, 6, 11, 51
8, 16340, Control_c, 6, 11, 49
8, 16341, Control_c, 6, 11, 48
8, 16342, Control_c, 6, 11, 46
8, 16343, Control_c, 6, 11, 44
8, 16344, Control_c, 6, 11, 42
8, 16345, Control_c, 6, 11, 41
8, 16346, Control_c, 6, 11, 39
8, 16347, Control_c, 6, 11, 37
8, 16348, Control_c, 6, 11, 35
8, 16349, Control_c, 6, 11, 34
8, 16350, Control_c, 6, 11, 32
8, 16351, Control_c, 6, 11, 30
8, 16352, Control_c, 6, 11, 28
8, 16353, Control_c, 6, 11, 26
8, 16354, Control_c, 6, 11, 25
8, 16355, Control_c, 6, 11, 23
8, 16356, Control_c, 6, 11, 21
8, 16357, Control_c, 6, 11, 19
8, 16358, Control_c, 6, 11, 18
8, 16359, Control_c, 6, 11, 16
8, 16360, Control_c, 6, 11, 14
8, 16361, Control_c, 6, 11, 12
8, 16362, Control_c, 6, 11, 11
8, 16363, Control_c, 6, 11, 9
8, 16364, Control_c, 6, 11, 7
8, 16365, Control_c, 6, 11, 5
8, 16366, Control_c, 6, 11, 4
8, 16367, Control_c, 6, 11, 2
8, 16368, Note_off_c, 6, 33, 64
8, 16368, Control_c, 6, 11, 127
8, 16368, Note_on_c, 6, 33, 64
8, 16369, Control_c, 6, 11, 124
8, 16370, Control_c, 6, 11, 122
8, 16371, Control_c, 6, 11, 119
8, 16372, Control_c, 6, 11, 116
8, 16373, Control_c, 6, 11, 114
8, 16374, Control_c, 6, 11, 111
8, 16375, Control_c, 6, 11, 108
8, 16376, Control_c, 6, 11, 106
8, 16377, Control_c, 6, 11, 103
8, 16378, Control_c, 6, 11, 101
8, 16379, Control_c, 6, 11, 98
8, 16380, Control_c, 6, 11, 95
8, 16381, Control_c, 6, 11, 93
8, 16382, Control_c, 6, 11, 90
8, 16383, Control_c, 6, 11, 87
8, 16384, Control_c, 6, 11, 85
8, 16385, Control_c, 6, 11, 82
8, 16386, Control_c, 6, 11, 79
8, 16387, Control_c, 6, 11, 77
8, 16388, Control_c, 6, 11, 74
8, 16389, Control_c, 6, 11, 71
8, 16390, Control_c, 6, 11, 69
8, 16391, Control_c, 6, 11, 66
8, 16392, Control_c, 6, 11, 64
8, 16393, Control_c, 6, 11, 61
8, 16394, Control_c, 6, 11, 58
8, 16395, Control_c, 6, 11, 56
8, 16396, Control_c, 6, 11, 53
8, 16397, Control_c, 6, 11, 50
8, 16398, Control_c, 6, 11, 48
8, 16399, Control_c, 6, 11, 45
8, 16400, Control_c, 6, 11, 42
8, 16401, Control_c, 6, 11, 40
8, 16402, Control_c, 6, 11, 37
8, 16403, Control_c, 6, 11, 34
8, 16404, Control_c, 6, 11, 32
8, 16405, Control_c, 6, 11, 29
8, 16406, Control_c, 6, 11, 26
8, 16407, Control_c, 6, 11, 24
8, 16408, Control_c, 6, 11, 21
8, 16409, Control_c, 6, 11, 19
8, 16410, Control_c, 6, 11, 16
8, 16411, Control_c, 6, 11, 13
8, 16412, Control_c, 6, 11, 11
8, 16413, Control_c, 6, 11, 8
8, 16414, Control_c, 6, 11, 5
8, 16415, Control_c, 6, 11, 3
8, 16416, Note_off_c, 6, 33, 64
8, 16416, Control_c, 6, 11, 127
8, 16416, Note_on_c, 6, 63, 64
8, 16417, Control_c, 6, 11, 124
8, 16418, Control_c, 6, 11, 122
8, 16419, Control_c, 6, 11, 119
8, 16420, Control_c, 6, 11, 116
8, 16421, Control_c, 6, 11, 114
8, 16422, Control_c, 6, 11, 111
8, 16423, Control_c, 6, 11, 108
8, 16424, Control_c, 6, 11, 106
8, 16425, Control_c, 6, 11, 103
8, 16426, Control_c, 6, 11, 101
8, 16427, Control_c, 6, 11, 98
8, 16428, Control_c, 6, 11, 95
8, 16429, Control_c, 6, 11, 93
8, 16430, Control_c, 6, 11, 90
8, 16431, Control_c, 6, 11, 87
8, 16432, Control_c, 6, 11, 85
8, 16433, Control_c, 6, 11, 82
8, 16434, Control_c, 6, 11, 79
8, 16435, Control_c, 6, 11, 77
8, 16436, Control_c, 6, 11, 74
8, 16437, Control_c, 6, 11, 71
8, 16438, Control_c, 6, 11, 69
8, 16439, Control_c, 6, 11, 66
8, 16440, Control_c, 6, 11, 64
8, 16441, Control_c, 6, 11, 61
8, 16442, Control_c, 6, 11, 58
8, 16443, Control_c, 6, 11, 56
8, 16444, Control_c, 6, 11, 53
8, 16445, Control_c, 6, 11, 50
8, 16446, Control_c, 6, 11, 48
8, 16447, Control_c, 6, 11, 45
8, 16448, Control_c, 6, 11, 42
8, 16449, Control_c, 6, 11, 40
8, 16450, Control_c, 6, 11, 37
8, 16451, Control_c, 6, 11, 34
8, 16452, Control_c, 6, 11, 32
8, 16453, Control_c, 6, 11, 29
8, 16454, Control_c, 6, 11, 26
8, 16455, Control_c, 6, 11, 24
8, 16456, Control_c, 6, 11, 21
8, 16457, Control_c, 6, 11, 19
8, 16458, Control_c, 6, 11, 16
8, 16459, Control_c, 6, 11, 13
8, 16460, Control_c, 6, 11, 11
8, 16461, Control_c, 6, 11, 8
8, 16462, Control_c, 6, 11, 5
8, 16463, Control_c, 6, 11, 3
8, 16464, Note_off_c, 6, 63, 64
8, 16464, Control_c, 6, 11, 85
8, 16464, Note_on_c, 6, 93, 64
8, 16465, Control_c, 6, 11, 83
8, 16466, Control_c, 6, 11, 81
8, 16467, Control_c, 6, 11, 79
8, 16468, Control_c, 6, 11, 78
8, 16469, Control_c, 6, 11, 76
8, 16470, Control_c, 6, 11, 74
8, 16471, Control_c, 6, 11, 72
8, 16472, Control_c, 6, 11, 71
8, 16473, Control_c, 6, 11, 69
8, 16474, Control_c, 6, 11, 67
8, 16475, Control_c, 6, 11, 65
8, 16476, Control_c, 6, 11, 64
8, 16477, Control_c, 6, 11, 62
8, 16478, Control_c, 6, 11, 60
8, 16479, Control_c, 6, 11, 58
8, 16480, Control_c, 6, 11, 56
8, 16481, Control_c, 6, 11, 55
8, 16482, Control_c, 6, 11, 53
8, 16483, Control_c, 6, 11, 51
8, 16484, Control_c, 6, 11, 49
8, 16485, Control_c, 6, 11, 48
8, 16486, Control_c, 6, 11, 46
8, 16487, Control_c, 6, 11, 44
8, 16488, Control_c, 6, 11, 42
8, 16489, Control_c, 6, 11, 41
8, 16490, Control_c, 6, 11, 39
8, 16491, Control_c, 6, 11, 37
8, 16492, Control_c, 6, 11, 35
8, 16493, Control_c, 6, 11, 34
8, 16494, Control_c, 6, 11, 32
8, 16495, Control_c, 6, 11, 30
8, 16496, Control_c, 6, 11, 28
8, 16497, Control_c, 6, 11, 26
8, 16498, Control_c, 6, 11, 25
8, 16499, Control_c, 6, 11, 23
8, 16500, Control_c, 6, 11, 21
8, 16501, Control_c, 6, 11, 19
8, 16502, Control_c, 6, 11, 18
8, 16503, Control_c, 6, 11, 16
8, 16504, Control_c, 6, 11, 14
8, 16505, Control_c, 6, 11, 12
8, 16506, Control_c, 6, 11, 11
8, 16507, Control_c, 6, 11, 9
8, 16508, Control_c, 6, 11, 7
8, 16509, Control_c, 6, 11, 5
8, 16510, Control_c, 6, 11, 4
8, 16511, Control_c, 6, 11, 2
8, 16512, Note_off_c, 6, 93, 64
8, 16512, Control_c, 6, 11, 127
8, 16512, Note_on_c, 6, 33, 64
8, 16513, Control_c, 6, 11, 124
8, 16514, Control_c, 6, 11, 122
8, 16515, Control_c, 6, 11, 119
8, 16516, Control_c, 6, 11, 116
8, 16517, Control_c, 6, 11, 114
8, 16518, Control_c, 6, 11, 111
8, 16519, Control_c, 6, 11, 108
8, 16520, Control_c, 6, 11, 106
8, 16521, Control_c, 6, 11, 103
8, 16522, Control_c, 6, 11, 101
8, 16523, Control_c, 6, 11, 98
8, 16524, Control_c, 6, 11, 95
8, 16525, Control_c, 6, 11, 93
8, 16526, Control_c, 6, 11, 90
8, 16527, Control_c, 6, 11, 87
8, 16528, Control_c, 6, 11, 85
8, 16529, Control_c, 6, 11, 82
8, 16530, Control_c, 6, 11, 79
8, 16531, Control_c, 6, 11, 77
8, 16532, Control_c, 6, 11, 74
8, 16533, Control_c, 6, 11, 71
8, 16534, Control_c, 6, 11, 69
8, 16535, Control_c, 6, 11, 66
8, 16536, Control_c, 6, 11, 64
8, 16537, Control_c, 6, 11, 61
8, 16538, Control_c, 6, 11, 58
8, 16539, Control_c, 6, 11, 56
8, 16540, Control_c, 6, 11, 53
8, 16541, Control_c, 6, 11, 50
8, 16542, Control_c, 6, 11, 48
8, 16543, Control_c, 6, 11, 45
8, 16544, Control_c, 6, 11, 42
8, 16545, Control_c, 6, 11, 40
8, 16546, Control_c, 6, 11, 37
8, 16547, Control_c, 6, 11, 34
8, 16548, Control_c, 6, 11, 32
8, 16549, Control_c, 6, 11, 29
8, 16550, Control_c, 6, 11, 26
8, 16551, Control_c, 6, 11, 24
8, 16552, Control_c, 6, 11, 21
8, 16553, Control_c, 6, 11, 19
8, 16554, Control_c, 6, 11, 16
8, 16555, Control_c, 6, 11, 13
8, 16556, Control_c, 6, 11, 11
8, 16557, Control_c, 6, 11, 8
8, 16558, Control_c, 6, 11, 5
8, 16559, Control_c, 6, 11, 3
8, 16560, Note_off_c, 6, 33, 64
8, 16560, Control_c, 6, 11, 127
8, 16560, Note_on_c, 6, 93, 64
8, 16561, Control_c, 6, 11, 124
8, 16562, Control_c, 6, 11, 122
8, 16563, Control_c, 6, 11, 119
8, 16564, Control_c, 6, 11, 116
8, 16565, Control_c, 6, 11, 114
8, 16566, Control_c, 6, 11, 111
8, 16567, Control_c, 6, 11, 108
8, 16568, Control_c, 6, 11, 106
8, 16569, Control_c, 6, 11, 103
8, 16570, Control_c, 6, 11, 101
8, 16571, Control_c, 6, 11, 98
8, 16572, Control_c, 6, 11, 95
8, 16573, Control_c, 6, 11, 93
8, 16574, Control_c, 6, 11, 90
8, 16575, Control_c, 6, 11, 87
8, 16576, Control_c, 6, 11, 85
8, 16577, Control_c, 6, 11, 82
8, 16578, Control_c, 6, 11, 79
8, 16579, Control_c, 6, 11, 77
8, 16580, Control_c, 6, 11, 74
8, 16581, Control_c, 6, 11, 71
8, 16582, Control_c, 6, 11, 69
8, 16583, Control_c, 6, 11, 66
8, 16584, Control_c, 6, 11, 64
8, 16585, Control_c, 6, 11, 61
8, 16586, Control_c, 6, 11, 58
8, 16587, Control_c, 6, 11, 56
8, 16588, Control_c, 6, 11, 53
8, 16589, Control_c, 6, 11, 50
8, 16590, Control_c, 6, 11, 48
8, 16591, Control_c, 6, 11, 45
8, 16592, Control_c, 6, 11, 42
8, 16593, Control_c, 6, 11, 40
8, 16594, Control_c, 6, 11, 37
8, 16595, Control_c, 6, 11, 34
8, 16596, Control_c, 6, 11, 32
8, 16597, Control_c, 6, 11, 29
8, 16598, Control_c, 6, 11, 26
8, 16599, Control_c, 6, 11, 24
8, 16600, Control_c, 6, 11, 21
8, 16601, Control_c, 6, 11, 19
8, 16602, Control_c, 6, 11, 16
8, 16603, Control_c, 6, 11, 13
8, 16604, Control_c, 6, 11, 11
8, 16605, Control_c, 6, 11, 8
8, 16606, Control_c, 6, 11, 5
8, 16607, Control_c, 6, 11, 3
8, 16608, Note_off_c, 6, 93, 64
8, 16608, Control_c, 6, 11, 127
8, 16608, Note_on_c, 6, 63, 64
8, 16609, Control_c, 6, 11, 124
8, 16610, Control_c, 6, 11, 122
8, 16611, Control_c, 6, 11, 119
8, 16612, Control_c, 6, 11, 116
8, 16613, Control_c, 6, 11, 114
8, 16614, Control_c, 6, 11, 111
8, 16615, Control_c, 6, 11, 108
8, 16616, Control_c, 6, 11, 106
8, 16617, Control_c, 6, 11, 103
8, 16618, Control_c, 6, 11, 101
8, 16619, Control_c, 6, 11, 98
8, 16620, Control_c, 6, 11, 95
8, 16621, Control_c, 6, 11, 93
8, 16622, Control_c, 6, 11, 90
8, 16623, Control_c, 6, 11, 87
8, 16624, Control_c, 6, 11, 85
8, 16625, Control_c, 6, 11, 82
8, 16626, Control_c, 6, 11, 79
8, 16627, Control_c, 6, 11, 77
8, 16628, Control_c, 6, 11, 74
8, 16629, Control_c, 6, 11, 71
8, 16630, Control_c, 6, 11, 69
8, 16631, Control_c, 6, 11, 66
8, 16632, Control_c, 6, 11, 64
8, 16633, Control_c, 6, 11, 61
8, 16634, Control_c, 6, 11, 58
8, 16635, Control_c, 6, 11, 56
8, 16636, Control_c, 6, 11, 53
8, 16637, Control_c, 6, 11, 50
8, 16638, Control_c, 6, 11, 48
8, 16639, Control_c, 6, 11, 45
8, 16640, Control_c, 6, 11, 42
8, 16641, Control_c, 6, 11, 40
8, 16642, Control_c, 6, 11, 37
8, 16643, Control_c, 6, 11, 34
8, 16644, Control_c, 6, 11, 32
8, 16645, Control_c, 6, 11, 29
8, 16646, Control_c, 6, 11, 26
8, 16647, Control_c, 6, 11, 24
8, 16648, Control_c, 6, 11, 21
8, 16649, Control_c, 6, 11, 19
8, 16650, Control_c, 6, 11, 16
8, 16651, Control_c, 6, 11, 13
8, 16652, Control_c, 6, 11, 11
8, 16653, Control_c, 6, 11, 8
8, 16654, Control_c, 6, 11, 5
8, 16655, Control_c, 6, 11, 3
8, 16656, Note_off_c, 6, 63, 64
8, 16656, Control_c, 6, 11, 127
8, 16656, Note_on_c, 6, 93, 64
8, 16657, Control_c, 6, 11, 122
8, 16658, Control_c, 6, 11, 116
8, 16659, Control_c, 6, 11, 111
8, 16660, Control_c, 6, 11, 106
8, 16661, Control_c, 6, 11, 101
8, 16662, Control_c, 6, 11, 95
8, 16663, Control_c, 6, 11, 90
8, 16664, Control_c, 6, 11, 85
8, 16665, Control_c, 6, 11, 79
8, 16666, Control_c, 6, 11, 74
8, 16667, Control_c, 6, 11, 69
8, 16668, Control_c, 6, 11, 64
8, 16669, Control_c, 6, 11, 58
8, 16670, Control_c, 6, 11, 53
8, 16671, Control_c, 6, 11, 48
8, 16672, Control_c, 6, 11, 42
8, 16673, Control_c, 6, 11, 37
8, 16674, Control_c, 6, 11, 32
8, 16675, Control_c, 6, 11, 26
8, 16676, Control_c, 6, 11, 21
8, 16677, Control_c, 6, 11, 16
8, 16678, Control_c, 6, 11, 11
8, 16679, Control_c, 6, 11, 5
8, 16680, Note_off_c, 6, 93, 64
8, 16680, Control_c, 6, 11, 127
8, 16680, Note_on_c, 6, 63, 64
8, 16681, Control_c, 6, 11, 123
8, 16682, Control_c, 6, 11, 120
8, 16683, Control_c, 6, 11, 116
8, 16684, Control_c, 6, 11, 113
8, 16685, Control_c, 6, 11, 109
8, 16686, Control_c, 6, 11, 106
8, 16687, Control_c, 6, 11, 102
8, 16688, Control_c, 6, 11, 99
8, 16689, Control_c, 6, 11, 95
8, 16690, Control_c, 6, 11, 92
8, 16691, Control_c, 6, 11, 88
8, 16692, Control_c, 6, 11, 85
8, 16693, Control_c, 6, 11, 81
8, 16694, Control_c, 6, 11, 78
8, 16695, Control_c, 6, 11, 74
8, 16696, Control_c, 6, 11, 71
8, 16697, Control_c, 6, 11, 67
8, 16698, Control_c, 6, 11, 64
8, 16699, Control_c, 6, 11, 60
8, 16700, Control_c, 6, 11, 56
8, 16701, Control_c, 6, 11, 53
8, 16702, Control_c, 6, 11, 49
8, 16703, Control_c, 6, 11, 46
8, 16704, Note_off_c, 6, 63, 64
8, 16704, Control_c, 6, 11, 85
8, 16704, Note_on_c, 6, 33, 64
8, 16705, Control_c, 6, 11, 83
8, 16706, Control_c, 6, 11, 81
8, 16707, Control_c, 6, 11, 79
8, 16708, Control_c, 6, 11, 78
8, 16709, Control_c, 6, 11, 76
8, 16710, Control_c, 6, 11, 74
8, 16711, Control_c, 6, 11, 72
8, 16712, Control_c, 6, 11, 71
8, 16713, Control_c, 6, 11, 69
8, 16714, Control_c, 6, 11, 67
8, 16715, Control_c, 6, 11, 65
8, 16716, Control_c, 6, 11, 64
8, 16717, Control_c, 6, 11, 62
8, 16718, Control_c, 6, 11, 60
8, 16719, Control_c, 6, 11, 58
8, 16720, Control_c, 6, 11, 56
8, 16721, Control_c, 6, 11, 55
8, 16722, Control_c, 6, 11, 53
8, 16723, Control_c, 6, 11, 51
8, 16724, Control_c, 6, 11, 49
8, 16725, Control_c, 6, 11, 48
8, 16726, Control_c, 6, 11, 46
8, 16727, Control_c, 6, 11, 44
8, 16728, Control_c, 6, 11, 42
8, 16729, Control_c, 6, 11, 41
8, 16730, Control_c, 6, 11, 39
8, 16731, Control_c, 6, 11, 37
8, 16732, Control_c, 6, 11, 35
8, 16733, Control_c, 6, 11, 34
8, 16734, Control_c, 6, 11, 32
8, 16735, Control_c, 6, 11, 30
8, 16736, Control_c, 6, 11, 28
8, 16737, Control_c, 6, 11, 26
8, 16738, Control_c, 6, 11, 25
8, 16739, Control_c, 6, 11, 23
8, 16740, Control_c, 6, 11, 21
8, 16741, Control_c, 6, 11, 19
8, 16742, Control_c, 6, 11, 18
8, 16743, Control_c, 6, 11, 16
8, 16744, Control_c, 6, 11, 14
8, 16745, Control_c, 6, 11, 12
8, 16746, Control_c, 6, 11, 11
8, 16747, Control_c, 6, 11, 9
8, 16748, Control_c, 6, 11, 7
8, 16749, Control_c, 6, 11, 5
8, 16750, Control_c, 6, 11, 4
8, 16751, Control_c, 6, 11, 2
8, 16752, Note_off_c, 6, 33, 64
8, 16752, Control_c, 6, 11, 127
8, 16752, Note_on_c, 6, 33, 64
8, 16753, Control_c, 6, 11, 124
8, 16754, Control_c, 6, 11, 122
8, 16755, Control_c, 6, 11, 119
8, 16756, Control_c, 6, 11, 116
8, 16757, Control_c, 6, 11, 114
8, 16758, Control_c, 6, 11, 111
8, 16759, Control_c, 6, 11, 108
8, 16760, Control_c, 6, 11, 106
8, 16761, Control_c, 6, 11, 103
8, 16762, Control_c, 6, 11, 101
8, 16763, Control_c, 6, 11, 98
8, 16764, Control_c, 6, 11, 95
8, 16765, Control_c, 6, 11, 93
8, 16766, Control_c, 6, 11, 90
8, 16767, Control_c, 6, 11, 87
8, 16768, Control_c, 6, 11, 85
8, 16769, Control_c, 6, 11, 82
8, 16770, Control_c, 6, 11, 79
8, 16771, Control_c, 6, 11, 77
8, 16772, Control_c, 6, 11, 74
8, 16773, Control_c, 6, 11, 71
8, 16774, Control_c, 6, 11, 69
8, 16775, Control_c, 6, 11, 66
8, 16776, Control_c, 6, 11, 64
8, 16777, Control_c, 6, 11, 61
8, 16778, Control_c, 6, 11, 58
8, 16779, Control_c, 6, 11, 56
8, 16780, Control_c, 6, 11, 53
8, 16781, Control_c, 6, 11, 50
8, 16782, Control_c, 6, 11, 48
8, 16783, Control_c, 6, 11, 45
8, 16784, Control_c, 6, 11, 42
8, 16785, Control_c, 6, 11, 40
8, 16786, Control_c, 6, 11, 37
8, 16787, Control_c, 6, 11, 34
8, 16788, Control_c, 6, 11, 32
8, 16789, Control_c, 6, 11, 29
8, 16790, Control_c, 6, 11, 26
8, 16791, Control_c, 6, 11, 24
8, 16792, Control_c, 6, 11, 21
8, 16793, Control_c, 6, 11, 19
8, 16794, Control_c, 6, 11, 16
8, 16795, Control_c, 6, 11, 13
8, 16796, Control_c, 6, 11, 11
8, 16797, Control_c, 6, 11, 8
8, 16798, Control_c, 6, 11, 5
8, 16799, Control_c, 6, 11, 3
8, 16800, Note_off_c, 6, 33, 64
8, 16800, Control_c, 6, 11, 127
8, 16800, Note_on_c, 6, 63, 64
8, 16801, Control_c, 6, 11, 124
8, 16802, Control_c, 6, 11, 122
8, 16803, Control_c, 6, 11, 119
8, 16804, Control_c, 6, 11, 116
8, 16805, Control_c, 6, 11, 114
8, 16806, Control_c, 6, 11, 111
8, 16807, Control_c, 6, 11, 108
8, 16808, Control_c, 6, 11, 106
8, 16809, Control_c, 6, 11, 103
8, 16810, Control_c, 6, 11, 101
8, 16811, Control_c, 6, 11, 98
8, 16812, Control_c, 6, 11, 95
8, 16813, Control_c, 6, 11, 93
8, 16814, Control_c, 6, 11, 90
8, 16815, Control_c, 6, 11, 87
8, 16816, Control_c, 6, 11, 85
8, 16817, Control_c, 6, 11, 82
8, 16818, Control_c, 6, 11, 79
8, 16819, Control_c, 6, 11, 77
8, 16820, Control_c, 6, 11, 74
8, 16821, Control_c, 6, 11, 71
8, 16822, Control_c, 6, 11, 69
8, 16823, Control_c, 6, 11, 66
8, 16824, Control_c, 6, 11, 64
8, 16825, Control_c, 6, 11, 61
8, 16826, Control_c, 6, 11, 58
8, 16827, Control_c, 6, 11, 56
8, 16828, Control_c, 6, 11, 53
8, 16829, Control_c, 6, 11, 50
8, 16830, Control_c, 6, 11, 48
8, 16831, Control_c, 6, 11, 45
8, 16832, Control_c, 6, 11, 42
8, 16833, Control_c, 6, 11, 40
8, 16834, Control_c, 6, 11, 37
8, 16835, Control_c, 6, 11, 34
8, 16836, Control_c, 6, 11, 32
8, 16837, Control_c, 6, 11, 29
8, 16838, Control_c, 6, 11, 26
8, 16839, Control_c, 6, 11, 24
8, 16840, Control_c, 6, 11, 21
8, 16841, Control_c, 6, 11, 19
8, 16842, Control_c, 6, 11, 16
8, 16843, Control_c, 6, 11, 13
8, 16844, Control_c, 6, 11, 11
8, 16845, Control_c, 6, 11, 8
8, 16846, Control_c, 6, 11, 5
8, 16847, Control_c, 6, 11, 3
8, 16848, Note_off_c, 6, 63, 64
8, 16848, Control_c, 6, 11, 127
8, 16848, Note_on_c, 6, 93, 64
8, 16849, Control_c, 6, 11, 122
8, 16850, Control_c, 6, 11, 116
8, 16851, Control_c, 6, 11, 111
8, 16852, Control_c, 6, 11, 106
8, 16853, Control_c, 6, 11, 101
8, 16854, Control_c, 6, 11, 95
8, 16855, Control_c, 6, 11, 90
8, 16856, Control_c, 6, 11, 85
8, 16857, Control_c, 6, 11, 79
8, 16858, Control_c, 6, 11, 74
8, 16859, Control_c, 6, 11, 69
8, 16860, Control_c, 6, 11, 64
8, 16861, Control_c, 6, 11, 58
8, 16862, Control_c, 6, 11, 53
8, 16863, Control_c, 6, 11, 48
8, 16864, Control_c, 6, 11, 42
8, 16865, Control_c, 6, 11, 37
8, 16866, Control_c, 6, 11, 32
8, 16867, Control_c, 6, 11, 26
8, 16868, Control_c, 6, 11, 21
8, 16869, Control_c, 6, 11, 16
8, 16870, Control_c, 6, 11, 11
8, 16871, Control_c, 6, 11, 5
8, 16872, Note_off_c, 6, 93, 64
8, 16872, Control_c, 6, 11, 127
8, 16872, Note_on_c, 6, 63, 64
8, 16873, Control_c, 6, 11, 122
8, 16874, Control_c, 6, 11, 116
8, 16875, Control_c, 6, 11, 111
8, 16876, Control_c, 6, 11, 106
8, 16877, Control_c, 6, 11, 101
8, 16878, Control_c, 6, 11, 95
8, 16879, Control_c, 6, 11, 90
8, 16880, Control_c, 6, 11, 85
8, 16881, Control_c, 6, 11, 79
8, 16882, Control_c, 6, 11, 74
8, 16883, Control_c, 6, 11, 69
8, 16884, Control_c, 6, 11, 64
8, 16885, Control_c, 6, 11, 58
8, 16886, Control_c, 6, 11, 53
8, 16887, Control_c, 6, 11, 48
8, 16888, Control_c, 6, 11, 42
8, 16889, Control_c, 6, 11, 37
8, 16890, Control_c, 6, 11, 32
8, 16891, Control_c, 6, 11, 26
8, 16892, Control_c, 6, 11, 21
8, 16893, Control_c, 6, 11, 16
8, 16894, Control_c, 6, 11, 11
8, 16895, Control_c, 6, 11, 5
8, 16896, Note_off_c, 6, 63, 64
8, 16896, Control_c, 6, 11, 127
8, 16896, Note_on_c, 6, 33, 64
8, 16897, Control_c, 6, 11, 124
8, 16898, Control_c, 6, 11, 122
8, 16899, Control_c, 6, 11, 119
8, 16900, Control_c, 6, 11, 116
8, 16901, Control_c, 6, 11, 114
8, 16902, Control_c, 6, 11, 111
8, 16903, Control_c, 6, 11, 108
8, 16904, Control_c, 6, 11, 106
8, 16905, Control_c, 6, 11, 103
8, 16906, Control_c, 6, 11, 101
8, 16907, Control_c, 6, 11, 98
8, 16908, Control_c, 6, 11, 95
8, 16909, Control_c, 6, 11, 93
8, 16910, Control_c, 6, 11, 90
8, 16911, Control_c, 6, 11, 87
8, 16912, Control_c, 6, 11, 85
8, 16913, Control_c, 6, 11, 82
8, 16914, Control_c, 6, 11, 79
8, 16915, Control_c, 6, 11, 77
8, 16916, Control_c, 6, 11, 74
8, 16917, Control_c, 6, 11, 71
8, 16918, Control_c, 6, 11, 69
8, 16919, Control_c, 6, 11, 66
8, 16920, Control_c, 6, 11, 64
8, 16921, Control_c, 6, 11, 61
8, 16922, Control_c, 6, 11, 58
8, 16923, Control_c, 6, 11, 56
8, 16924, Control_c, 6, 11, 53
8, 16925, Control_c, 6, 11, 50
8, 16926, Control_c, 6, 11, 48
8, 16927, Control_c, 6, 11, 45
8, 16928, Control_c, 6, 11, 42
8, 16929, Control_c, 6, 11, 40
8, 16930, Control_c, 6, 11, 37
8, 16931, Control_c, 6, 11, 34
8, 16932, Control_c, 6, 11, 32
8, 16933, Control_c, 6, 11, 29
8, 16934, Control_c, 6, 11, 26
8, 16935, Control_c, 6, 11, 24
8, 16936, Control_c, 6, 11, 21
8, 16937, Control_c, 6, 11, 19
8, 16938, Control_c, 6, 11, 16
8, 16939, Control_c, 6, 11, 13
8, 16940, Control_c, 6, 11, 11
8, 16941, Control_c, 6, 11, 8
8, 16942, Control_c, 6, 11, 5
8, 16943, Control_c, 6, 11, 3
8, 16944, Note_off_c, 6, 33, 64
8, 16944, Control_c, 6, 11, 127
8, 16944, Note_on_c, 6, 93, 64
8, 16945, Control_c, 6, 11, 124
8, 16946, Control_c, 6, 11, 122
8, 16947, Control_c, 6, 11, 119
8, 16948, Control_c, 6, 11, 116
8, 16949, Control_c, 6, 11, 114
8, 16950, Control_c, 6, 11, 111
8, 16951, Control_c, 6, 11, 108
8, 16952, Control_c, 6, 11, 106
8, 16953, Control_c, 6, 11, 103
8, 16954, Control_c, 6, 11, 101
8, 16955, Control_c, 6, 11, 98
8, 16956, Control_c, 6, 11, 95
8, 16957, Control_c, 6, 11, 93
8, 16958, Control_c, 6, 11, 90
8, 16959, Control_c, 6, 11, 87
8, 16960, Control_c, 6, 11, 85
8, 16961, Control_c, 6, 11, 82
8, 16962, Control_c, 6, 11, 79
8, 16963, Control_c, 6, 11, 77
8, 16964, Control_c, 6, 11, 74
8, 16965, Control_c, 6, 11, 71
8, 16966, Control_c, 6, 11, 69
8, 16967, Control_c, 6, 11, 66
8, 16968, Control_c, 6, 11, 64
8, 16969, Control_c, 6, 11, 61
8, 16970, Control_c, 6, 11, 58
8, 16971, Control_c, 6, 11, 56
8, 16972, Control_c, 6, 11, 53
8, 16973, Control_c, 6, 11, 50
8, 16974, Control_c, 6, 11, 48
8, 16975, Control_c, 6, 11, 45
8, 16976, Control_c, 6, 11, 42
8, 16977, Control_c, 6, 11, 40
8, 16978, Control_c, 6, 11, 37
8, 16979, Control_c, 6, 11, 34
8, 16980, Control_c, 6, 11, 32
8, 16981, Control_c, 6, 11, 29
8, 16982, Control_c, 6, 11, 26
8, 16983, Control_c, 6, 11, 24
8, 16984, Control_c, 6, 11, 21
8, 16985, Control_c, 6, 11, 19
8, 16986, Control_c, 6, 11, 16
8, 16987, Control_c, 6, 11, 13
8, 16988, Control_c, 6, 11, 11
8, 16989, Control_c, 6, 11, 8
8, 16990, Control_c, 6, 11, 5
8, 16991, Control_c, 6, 11, 3
8, 16992, Note_off_c, 6, 93, 64
8, 16992, Control_c, 6, 11, 127
8, 16992, Note_on_c, 6, 63, 64
8, 16993, Control_c, 6, 11, 124
8, 16994, Control_c, 6, 11, 122
8, 16995, Control_c, 6, 11, 119
8, 16996, Control_c, 6, 11, 116
8, 16997, Control_c, 6, 11, 114
8, 16998, Control_c, 6, 11, 111
8, 16999, Control_c, 6, 11, 108
8, 17000, Control_c, 6, 11, 106
8, 17001, Control_c, 6, 11, 103
8, 17002, Control_c, 6, 11, 101
8, 17003, Control_c, 6, 11, 98
8, 17004, Control_c, 6, 11, 95
8, 17005, Control_c, 6, 11, 93
8, 17006, Control_c, 6, 11, 90
8, 17007, Control_c, 6, 11, 87
8, 17008, Control_c, 6, 11, 85
8, 17009, Control_c, 6, 11, 82
8, 17010, Control_c, 6, 11, 79
8, 17011, Control_c, 6, 11, 77
8, 17012, Control_c, 6, 11, 74
8, 17013, Control_c, 6, 11, 71
8, 17014, Control_c, 6, 11, 69
8, 17015, Control_c, 6, 11, 66
8, 17016, Control_c, 6, 11, 64
8, 17017, Control_c, 6, 11, 61
8, 17018, Control_c, 6, 11, 58
8, 17019, Control_c, 6, 11, 56
8, 17020, Control_c, 6, 11, 53
8, 17021, Control_c, 6, 11, 50
8, 17022, Control_c, 6, 11, 48
8, 17023, Control_c, 6, 11, 45
8, 17024, Control_c, 6, 11, 42
8, 17025, Control_c, 6, 11, 40
8, 17026, Control_c, 6, 11, 37
8, 17027, Control_c, 6, 11, 34
8, 17028, Control_c, 6, 11, 32
8, 17029, Control_c, 6, 11, 29
8, 17030, Control_c, 6, 11, 26
8, 17031, Control_c, 6, 11, 24
8, 17032, Control_c, 6, 11, 21
8, 17033, Control_c, 6, 11, 19
8, 17034, Control_c, 6, 11, 16
8, 17035, Control_c, 6, 11, 13
8, 17036, Control_c, 6, 11, 11
8, 17037, Control_c, 6, 11, 8
8, 17038, Control_c, 6, 11, 5
8, 17039, Control_c, 6, 11, 3
8, 17040, Note_off_c, 6, 63, 64
8, 17040, Control_c, 6, 11, 127
8, 17040, Note_on_c, 6, 93, 64
8, 17041, Control_c, 6, 11, 122
8, 17042, Control_c, 6, 11, 116
8, 17043, Control_c, 6, 11, 111
8, 17044, Control_c, 6, 11, 106
8, 17045, Control_c, 6, 11, 101
8, 17046, Control_c, 6, 11, 95
8, 17047, Control_c, 6, 11, 90
8, 17048, Control_c, 6, 11, 85
8, 17049, Control_c, 6, 11, 79
8, 17050, Control_c, 6, 11, 74
8, 17051, Control_c, 6, 11, 69
8, 17052, Control_c, 6, 11, 64
8, 17053, Control_c, 6, 11, 58
8, 17054, Control_c, 6, 11, 53
8, 17055, Control_c, 6, 11, 48
8, 17056, Control_c, 6, 11, 42
8, 17057, Control_c, 6, 11, 37
8, 17058, Control_c, 6, 11, 32
8, 17059, Control_c, 6, 11, 26
8, 17060, Control_c, 6, 11, 21
8, 17061, Control_c, 6, 11, 16
8, 17062, Control_c, 6, 11, 11
8, 17063, Control_c, 6, 11, 5
8, 17064, Note_off_c, 6, 93, 64
8, 17064, Control_c, 6, 11, 127
8, 17064, Note_on_c, 6, 63, 64
8, 17065, Control_c, 6, 11, 123
8, 17066, Control_c, 6, 11, 120
8, 17067, Control_c, 6, 11, 116
8, 17068, Control_c, 6, 11, 113
8, 17069, Control_c, 6, 11, 109
8, 17070, Control_c, 6, 11, 106
8, 17071, Control_c, 6, 11, 102
8, 17072, Control_c, 6, 11, 99
8, 17073, Control_c, 6, 11, 95
8, 17074, Control_c, 6, 11, 92
8, 17075, Control_c, 6, 11, 88
8, 17076, Control_c, 6, 11, 85
8, 17077, Control_c, 6, 11, 81
8, 17078, Control_c, 6, 11, 78
8, 17079, Control_c, 6, 11, 74
8, 17080, Control_c, 6, 11, 71
8, 17081, Control_c, 6, 11, 67
8, 17082, Control_c, 6, 11, 64
8, 17083, Control_c, 6, 11, 60
8, 17084, Control_c, 6, 11, 56
8, 17085, Control_c, 6, 11, 53
8, 17086, Control_c, 6, 11, 49
8, 17087, Control_c, 6, 11, 46
8, 17088, Note_off_c, 6, 63, 64
8, 17088, Control_c, 6, 11, 85
8, 17088, Note_on_c, 6, 33, 64
8, 17089, Control_c, 6, 11, 83
8, 17090, Control_c, 6, 11, 81
8, 17091, Control_c, 6, 11, 79
8, 17092, Control_c, 6, 11, 78
8, 17093, Control_c, 6, 11, 76
8, 17094, Control_c, 6, 11, 74
8, 17095, Control_c, 6, 11, 72
8, 17096, Control_c, 6, 11, 71
8, 17097, Control_c, 6, 11, 69
8, 17098, Control_c, 6, 11, 67
8, 17099, Control_c, 6, 11, 65
8, 17100, Control_c, 6, 11, 64
8, 17101, Control_c, 6, 11, 62
8, 17102, Control_c, 6, 11, 60
8, 17103, Control_c, 6, 11, 58
8, 17104, Control_c, 6, 11, 56
8, 17105, Control_c, 6, 11, 55
8, 17106, Control_c, 6, 11, 53
8, 17107, Control_c, 6, 11, 51
8, 17108, Control_c, 6, 11, 49
8, 17109, Control_c, 6, 11, 48
8, 17110, Control_c, 6, 11, 46
8, 17111, Control_c, 6, 11, 44
8, 17112, Control_c, 6, 11, 42
8, 17113, Control_c, 6, 11, 41
8, 17114, Control_c, 6, 11, 39
8, 17115, Control_c, 6, 11, 37
8, 17116, Control_c, 6, 11, 35
8, 17117, Control_c, 6, 11, 34
8, 17118, Control_c, 6, 11, 32
8, 17119, Control_c, 6, 11, 30
8, 17120, Control_c, 6, 11, 28
8, 17121, Control_c, 6, 11, 26
8, 17122, Control_c, 6, 11, 25
8, 17123, Control_c, 6, 11, 23
8, 17124, Control_c, 6, 11, 21
8, 17125, Control_c, 6, 11, 19
8, 17126, Control_c, 6, 11, 18
8, 17127, Control_c, 6, 11, 16
8, 17128, Control_c, 6, 11, 14
8, 17129, Control_c, 6, 11, 12
8, 17130, Control_c, 6, 11, 11
8, 17131, Control_c, 6, 11, 9
8, 17132, Control_c, 6, 11, 7
8, 17133, Control_c, 6, 11, 5
8, 17134, Control_c, 6, 11, 4
8, 17135, Control_c, 6, 11, 2
8, 17136, Note_off_c, 6, 33, 64
8, 17136, Control_c, 6, 11, 127
8, 17136, Note_on_c, 6, 33, 64
8, 17137, Control_c, 6, 11, 124
8, 17138, Control_c, 6, 11, 122
8, 17139, Control_c, 6, 11, 119
8, 17140, Control_c, 6, 11, 116
8, 17141, Control_c, 6, 11, 114
8, 17142, Control_c, 6, 11, 111
8, 17143, Control_c, 6, 11, 108
8, 17144, Control_c, 6, 11, 106
8, 17145, Control_c, 6, 11, 103
8, 17146, Control_c, 6, 11, 101
8, 17147, Control_c, 6, 11, 98
8, 17148, Control_c, 6, 11, 95
8, 17149, Control_c, 6, 11, 93
8, 17150, Control_c, 6, 11, 90
8, 17151, Control_c, 6, 11, 87
8, 17152, Control_c, 6, 11, 85
8, 17153, Control_c, 6, 11, 82
8, 17154, Control_c, 6, 11, 79
8, 17155, Control_c, 6, 11, 77
8, 17156, Control_c, 6, 11, 74
8, 17157, Control_c, 6, 11, 71
8, 17158, Control_c, 6, 11, 69
8, 17159, Control_c, 6, 11, 66
8, 17160, Control_c, 6, 11, 64
8, 17161, Control_c, 6, 11, 61
8, 17162, Control_c, 6, 11, 58
8, 17163, Control_c, 6, 11, 56
8, 17164, Control_c, 6, 11, 53
8, 17165, Control_c, 6, 11, 50
8, 17166, Control_c, 6, 11, 48
8, 17167, Control_c, 6, 11, 45
8, 17168, Control_c, 6, 11, 42
8, 17169, Control_c, 6, 11, 40
8, 17170, Control_c, 6, 11, 37
8, 17171, Control_c, 6, 11, 34
8, 17172, Control_c, 6, 11, 32
8, 17173, Control_c, 6, 11, 29
8, 17174, Control_c, 6, 11, 26
8, 17175, Control_c, 6, 11, 24
8, 17176, Control_c, 6, 11, 21
8, 17177, Control_c, 6, 11, 19
8, 17178, Control_c, 6, 11, 16
8, 17179, Control_c, 6, 11, 13
8, 17180, Control_c, 6, 11, 11
8, 17181, Control_c, 6, 11, 8
8, 17182, Control_c, 6, 11, 5
8, 17183, Control_c, 6, 11, 3
8, 17184, Note_off_c, 6, 33, 64
8, 17184, Control_c, 6, 11, 127
8, 17184, Note_on_c, 6, 63, 64
8, 17185, Control_c, 6, 11, 124
8, 17186, Control_c, 6, 11, 122
8, 17187, Control_c, 6, 11, 119
8, 17188, Control_c, 6, 11, 116
8, 17189, Control_c, 6, 11, 114
8, 17190, Control_c, 6, 11, 111
8, 17191, Control_c, 6, 11, 108
8, 17192, Control_c, 6, 11, 106
8, 17193, Control_c, 6, 11, 103
8, 17194, Control_c, 6, 11, 101
8, 17195, Control_c, 6, 11, 98
8, 17196, Control_c, 6, 11, 95
8, 17197, Control_c, 6, 11, 93
8, 17198, Control_c, 6, 11, 90
8, 17199, Control_c, 6, 11, 87
8, 17200, Control_c, 6, 11, 85
8, 17201, Control_c, 6, 11, 82
8, 17202, Control_c, 6, 11, 79
8, 17203, Control_c, 6, 11, 77
8, 17204, Control_c, 6, 11, 74
8, 17205, Control_c, 6, 11, 71
8, 17206, Control_c, 6, 11, 69
8, 17207, Control_c, 6, 11, 66
8, 17208, Control_c, 6, 11, 64
8, 17209, Control_c, 6, 11, 61
8, 17210, Control_c, 6, 11, 58
8, 17211, Control_c, 6, 11, 56
8, 17212, Control_c, 6, 11, 53
8, 17213, Control_c, 6, 11, 50
8, 17214, Control_c, 6, 11, 48
8, 17215, Control_c, 6, 11, 45
8, 17216, Control_c, 6, 11, 42
8, 17217, Control_c, 6, 11, 40
8, 17218, Control_c, 6, 11, 37
8, 17219, Control_c, 6, 11, 34
8, 17220, Control_c, 6, 11, 32
8, 17221, Control_c, 6, 11, 29
8, 17222, Control_c, 6, 11, 26
8, 17223, Control_c, 6, 11, 24
8, 17224, Control_c, 6, 11, 21
8, 17225, Control_c, 6, 11, 19
8, 17226, Control_c, 6, 11, 16
8, 17227, Control_c, 6, 11, 13
8, 17228, Control_c, 6, 11, 11
8, 17229, Control_c, 6, 11, 8
8, 17230, Control_c, 6, 11, 5
8, 17231, Control_c, 6, 11, 3
8, 17232, Note_off_c, 6, 63, 64
8, 17232, Control_c, 6, 11, 85
8, 17232, Note_on_c, 6, 93, 64
8, 17233, Control_c, 6, 11, 83
8, 17234, Control_c, 6, 11, 81
8, 17235, Control_c, 6, 11, 79
8, 17236, Control_c, 6, 11, 78
8, 17237, Control_c, 6, 11, 76
8, 17238, Control_c, 6, 11, 74
8, 17239, Control_c, 6, 11, 72
8, 17240, Control_c, 6, 11, 71
8, 17241, Control_c, 6, 11, 69
8, 17242, Control_c, 6, 11, 67
8, 17243, Control_c, 6, 11, 65
8, 17244, Control_c, 6, 11, 64
8, 17245, Control_c, 6, 11, 62
8, 17246, Control_c, 6, 11, 60
8, 17247, Control_c, 6, 11, 58
8, 17248, Control_c, 6, 11, 56
8, 17249, Control_c, 6, 11, 55
8, 17250, Control_c, 6, 11, 53
8, 17251, Control_c, 6, 11, 51
8, 17252, Control_c, 6, 11, 49
8, 17253, Control_c, 6, 11, 48
8, 17254, Control_c, 6, 11, 46
8, 17255, Control_c, 6, 11, 44
8, 17256, Control_c, 6, 11, 42
8, 17257, Control_c, 6, 11, 41
8, 17258, Control_c, 6, 11, 39
8, 17259, Control_c, 6, 11, 37
8, 17260, Control_c, 6, 11, 35
8, 17261, Control_c, 6, 11, 34
8, 17262, Control_c, 6, 11, 32
8, 17263, Control_c, 6, 11, 30
8, 17264, Control_c, 6, 11, 28
8, 17265, Control_c, 6, 11, 26
8, 17266, Control_c, 6, 11, 25
8, 17267, Control_c, 6, 11, 23
8, 17268, Control_c, 6, 11, 21
8, 17269, Control_c, 6, 11, 19
8, 17270, Control_c, 6, 11, 18
8, 17271, Control_c, 6, 11, 16
8, 17272, Control_c, 6, 11, 14
8, 17273, Control_c, 6, 11, 12
8, 17274, Control_c, 6, 11, 11
8, 17275, Control_c, 6, 11, 9
8, 17276, Control_c, 6, 11, 7
8, 17277, Control_c, 6, 11, 5
8, 17278, Control_c, 6, 11, 4
8, 17279, Control_c, 6, 11, 2
8, 17280, Note_off_c, 6, 93, 64
8, 17280, Control_c, 6, 11, 127
8, 17280, Note_on_c, 6, 33, 64
8, 17281, Control_c, 6, 11, 124
8, 17282, Control_c, 6, 11, 122
8, 17283, Control_c, 6, 11, 119
8, 17284, Control_c, 6, 11, 116
8, 17285, Control_c, 6, 11, 114
8, 17286, Control_c, 6, 11, 111
8, 17287, Control_c, 6, 11, 108
8, 17288, Control_c, 6, 11, 106
8, 17289, Control_c, 6, 11, 103
8, 17290, Control_c, 6, 11, 101
8, 17291, Control_c, 6, 11, 98
8, 17292, Control_c, 6, 11, 95
8, 17293, Control_c, 6, 11, 93
8, 17294, Control_c, 6, 11, 90
8, 17295, Control_c, 6, 11, 87
8, 17296, Control_c, 6, 11, 85
8, 17297, Control_c, 6, 11, 82
8, 17298, Control_c, 6, 11, 79
8, 17299, Control_c, 6, 11, 77
8, 17300, Control_c, 6, 11, 74
8, 17301, Control_c, 6, 11, 71
8, 17302, Control_c, 6, 11, 69
8, 17303, Control_c, 6, 11, 66
8, 17304, Control_c, 6, 11, 64
8, 17305, Control_c, 6, 11, 61
8, 17306, Control_c, 6, 11, 58
8, 17307, Control_c, 6, 11, 56
8, 17308, Control_c, 6, 11, 53
8, 17309, Control_c, 6, 11, 50
8, 17310, Control_c, 6, 11, 48
8, 17311, Control_c, 6, 11, 45
8, 17312, Control_c, 6, 11, 42
8, 17313, Control_c, 6, 11, 40
8, 17314, Control_c, 6, 11, 37
8, 17315, Control_c, 6, 11, 34
8, 17316, Control_c, 6, 11, 32
8, 17317, Control_c, 6, 11, 29
8, 17318, Control_c, 6, 11, 26
8, 17319, Control_c, 6, 11, 24
8, 17320, Control_c, 6, 11, 21
8, 17321, Control_c, 6, 11, 19
8, 17322, Control_c, 6, 11, 16
8, 17323, Control_c, 6, 11, 13
8, 17324, Control_c, 6, 11, 11
8, 17325, Control_c, 6, 11, 8
8, 17326, Control_c, 6, 11, 5
8, 17327, Control_c, 6, 11, 3
8, 17328, Note_off_c, 6, 33, 64
8, 17328, Control_c, 6, 11, 127
8, 17328, Note_on_c, 6, 33, 64
8, 17329, Control_c, 6, 11, 124
8, 17330, Control_c, 6, 11, 122
8, 17331, Control_c, 6, 11, 119
8, 17332, Control_c, 6, 11, 116
8, 17333, Control_c, 6, 11, 114
8, 17334, Control_c, 6, 11, 111
8, 17335, Control_c, 6, 11, 108
8, 17336, Control_c, 6, 11, 106
8, 17337, Control_c, 6, 11, 103
8, 17338, Control_c, 6, 11, 101
8, 17339, Control_c, 6, 11, 98
8, 17340, Control_c, 6, 11, 95
8, 17341, Control_c, 6, 11, 93
8, 17342, Control_c, 6, 11, 90
8, 17343, Control_c, 6, 11, 87
8, 17344, Control_c, 6, 11, 85
8, 17345, Control_c, 6, 11, 82
8, 17346, Control_c, 6, 11, 79
8, 17347, Control_c, 6, 11, 77
8, 17348, Control_c, 6, 11, 74
8, 17349, Control_c, 6, 11, 71
8, 17350, Control_c, 6, 11, 69
8, 17351, Control_c, 6, 11, 66
8, 17352, Control_c, 6, 11, 64
8, 17353, Control_c, 6, 11, 61
8, 17354, Control_c, 6, 11, 58
8, 17355, Control_c, 6, 11, 56
8, 17356, Control_c, 6, 11, 53
8, 17357, Control_c, 6, 11, 50
8, 17358, Control_c, 6, 11, 48
8, 17359, Control_c, 6, 11, 45
8, 17360, Control_c, 6, 11, 42
8, 17361, Control_c, 6, 11, 40
8, 17362, Control_c, 6, 11, 37
8, 17363, Control_c, 6, 11, 34
8, 17364, Control_c, 6, 11, 32
8, 17365, Control_c, 6, 11, 29
8, 17366, Control_c, 6, 11, 26
8, 17367, Control_c, 6, 11, 24
8, 17368, Control_c, 6, 11, 21
8, 17369, Control_c, 6, 11, 19
8, 17370, Control_c, 6, 11, 16
8, 17371, Control_c, 6, 11, 13
8, 17372, Control_c, 6, 11, 11
8, 17373, Control_c, 6, 11, 8
8, 17374, Control_c, 6, 11, 5
8, 17375, Control_c, 6, 11, 3
8, 17376, Note_off_c, 6, 33, 64
8, 17376, Control_c, 6, 11, 127
8, 17376, Note_on_c, 6, 93, 64
8, 17377, Control_c, 6, 11, 124
8, 17378, Control_c, 6, 11, 122
8, 17379, Control_c, 6, 11, 119
8, 17380, Control_c, 6, 11, 116
8, 17381, Control_c, 6, 11, 114
8, 17382, Control_c, 6, 11, 111
8, 17383, Control_c, 6, 11, 108
8, 17384, Control_c, 6, 11, 106
8, 17385, Control_c, 6, 11, 103
8, 17386, Control_c, 6, 11, 101
8, 17387, Control_c, 6, 11, 98
8, 17388, Control_c, 6, 11, 95
8, 17389, Control_c, 6, 11, 93
8, 17390, Control_c, 6, 11, 90
8, 17391, Control_c, 6, 11, 87
8, 17392, Control_c, 6, 11, 85
8, 17393, Control_c, 6, 11, 82
8, 17394, Control_c, 6, 11, 79
8, 17395, Control_c, 6, 11, 77
8, 17396, Control_c, 6, 11, 74
8, 17397, Control_c, 6, 11, 71
8, 17398, Control_c, 6, 11, 69
8, 17399, Control_c, 6, 11, 66
8, 17400, Control_c, 6, 11, 64
8, 17401, Control_c, 6, 11, 61
8, 17402, Control_c, 6, 11, 58
8, 17403, Control_c, 6, 11, 56
8, 17404, Control_c, 6, 11, 53
8, 17405, Control_c, 6, 11, 50
8, 17406, Control_c, 6, 11, 48
8, 17407, Control_c, 6, 11, 45
8, 17408, Control_c, 6, 11, 42
8, 17409, Control_c, 6, 11, 40
8, 17410, Control_c, 6, 11, 37
8, 17411, Control_c, 6, 11, 34
8, 17412, Control_c, 6, 11, 32
8, 17413, Control_c, 6, 11, 29
8, 17414, Control_c, 6, 11, 26
8, 17415, Control_c, 6, 11, 24
8, 17416, Control_c, 6, 11, 21
8, 17417, Control_c, 6, 11, 19
8, 17418, Control_c, 6, 11, 16
8, 17419, Control_c, 6, 11, 13
8, 17420, Control_c, 6, 11, 11
8, 17421, Control_c, 6, 11, 8
8, 17422, Control_c, 6, 11, 5
8, 17423, Control_c, 6, 11, 3
8, 17424, Note_off_c, 6, 93, 64
8, 17424, Control_c, 6, 11, 127
8, 17424, Note_on_c, 6, 33, 64
8, 17425, Control_c, 6, 11, 124
8, 17426, Control_c, 6, 11, 122
8, 17427, Control_c, 6, 11, 119
8, 17428, Control_c, 6, 11, 116
8, 17429, Control_c, 6, 11, 114
8, 17430, Control_c, 6, 11, 111
8, 17431, Control_c, 6, 11, 108
8, 17432, Control_c, 6, 11, 106
8, 17433, Control_c, 6, 11, 103
8, 17434, Control_c, 6, 11, 101
8, 17435, Control_c, 6, 11, 98
8, 17436, Control_c, 6, 11, 95
8, 17437, Control_c, 6, 11, 93
8, 17438, Control_c, 6, 11, 90
8, 17439, Control_c, 6, 11, 87
8, 17440, Control_c, 6, 11, 85
8, 17441, Control_c, 6, 11, 82
8, 17442, Control_c, 6, 11, 79
8, 17443, Control_c, 6, 11, 77
8, 17444, Control_c, 6, 11, 74
8, 17445, Control_c, 6, 11, 71
8, 17446, Control_c, 6, 11, 69
8, 17447, Control_c, 6, 11, 66
8, 17448, Control_c, 6, 11, 64
8, 17449, Control_c, 6, 11, 61
8, 17450, Control_c, 6, 11, 58
8, 17451, Control_c, 6, 11, 56
8, 17452, Control_c, 6, 11, 53
8, 17453, Control_c, 6, 11, 50
8, 17454, Control_c, 6, 11, 48
8, 17455, Control_c, 6, 11, 45
8, 17456, Control_c, 6, 11, 42
8, 17457, Control_c, 6, 11, 40
8, 17458, Control_c, 6, 11, 37
8, 17459, Control_c, 6, 11, 34
8, 17460, Control_c, 6, 11, 32
8, 17461, Control_c, 6, 11, 29
8, 17462, Control_c, 6, 11, 26
8, 17463, Control_c, 6, 11, 24
8, 17464, Control_c, 6, 11, 21
8, 17465, Control_c, 6, 11, 19
8, 17466, Control_c, 6, 11, 16
8, 17467, Control_c, 6, 11, 13
8, 17468, Control_c, 6, 11, 11
8, 17469, Control_c, 6, 11, 8
8, 17470, Control_c, 6, 11, 5
8, 17471, Control_c, 6, 11, 3
8, 17472, Note_off_c, 6, 33, 64
8, 17472, Control_c, 6, 11, 127
8, 17472, Note_on_c, 6, 63, 64
8, 17473, Control_c, 6, 11, 124
8, 17474, Control_c, 6, 11, 122
8, 17475, Control_c, 6, 11, 119
8, 17476, Control_c, 6, 11, 116
8, 17477, Control_c, 6, 11, 114
8, 17478, Control_c, 6, 11, 111
8, 17479, Control_c, 6, 11, 108
8, 17480, Control_c, 6, 11, 106
8, 17481, Control_c, 6, 11, 103
8, 17482, Control_c, 6, 11, 101
8, 17483, Control_c, 6, 11, 98
8, 17484, Control_c, 6, 11, 95
8, 17485, Control_c, 6, 11, 93
8, 17486, Control_c, 6, 11, 90
8, 17487, Control_c, 6, 11, 87
8, 17488, Control_c, 6, 11, 85
8, 17489, Control_c, 6, 11, 82
8, 17490, Control_c, 6, 11, 79
8, 17491, Control_c, 6, 11, 77
8, 17492, Control_c, 6, 11, 74
8, 17493, Control_c, 6, 11, 71
8, 17494, Control_c, 6, 11, 69
8, 17495, Control_c, 6, 11, 66
8, 17496, Control_c, 6, 11, 64
8, 17497, Control_c, 6, 11, 61
8, 17498, Control_c, 6, 11, 58
8, 17499, Control_c, 6, 11, 56
8, 17500, Control_c, 6, 11, 53
8, 17501, Control_c, 6, 11, 50
8, 17502, Control_c, 6, 11, 48
8, 17503, Control_c, 6, 11, 45
8, 17504, Control_c, 6, 11, 42
8, 17505, Control_c, 6, 11, 40
8, 17506, Control_c, 6, 11, 37
8, 17507, Control_c, 6, 11, 34
8, 17508, Control_c, 6, 11, 32
8, 17509, Control_c, 6, 11, 29
8, 17510, Control_c, 6, 11, 26
8, 17511, Control_c, 6, 11, 24
8, 17512, Control_c, 6, 11, 21
8, 17513, Control_c, 6, 11, 19
8, 17514, Control_c, 6, 11, 16
8, 17515, Control_c, 6, 11, 13
8, 17516, Control_c, 6, 11, 11
8, 17517, Control_c, 6, 11, 8
8, 17518, Control_c, 6, 11, 5
8, 17519, Control_c, 6, 11, 3
8, 17520, Note_off_c, 6, 63, 64
8, 17520, Control_c, 6, 11, 127
8, 17520, Note_on_c, 6, 33, 64
8, 17521, Control_c, 6, 11, 124
8, 17522, Control_c, 6, 11, 122
8, 17523, Control_c, 6, 11, 119
8, 17524, Control_c, 6, 11, 116
8, 17525, Control_c, 6, 11, 114
8, 17526, Control_c, 6, 11, 111
8, 17527, Control_c, 6, 11, 108
8, 17528, Control_c, 6, 11, 106
8, 17529, Control_c, 6, 11, 103
8, 17530, Control_c, 6, 11, 101
8, 17531, Control_c, 6, 11, 98
8, 17532, Control_c, 6, 11, 95
8, 17533, Control_c, 6, 11, 93
8, 17534, Control_c, 6, 11, 90
8, 17535, Control_c, 6, 11, 87
8, 17536, Control_c, 6, 11, 85
8, 17537, Control_c, 6, 11, 82
8, 17538, Control_c, 6, 11, 79
8, 17539, Control_c, 6, 11, 77
8, 17540, Control_c, 6, 11, 74
8, 17541, Control_c, 6, 11, 71
8, 17542, Control_c, 6, 11, 69
8, 17543, Control_c, 6, 11, 66
8, 17544, Control_c, 6, 11, 64
8, 17545, Control_c, 6, 11, 61
8, 17546, Control_c, 6, 11, 58
8, 17547, Control_c, 6, 11, 56
8, 17548, Control_c, 6, 11, 53
8, 17549, Control_c, 6, 11, 50
8, 17550, Control_c, 6, 11, 48
8, 17551, Control_c, 6, 11, 45
8, 17552, Control_c, 6, 11, 42
8, 17553, Control_c, 6, 11, 40
8, 17554, Control_c, 6, 11, 37
8, 17555, Control_c, 6, 11, 34
8, 17556, Control_c, 6, 11, 32
8, 17557, Control_c, 6, 11, 29
8, 17558, Control_c, 6, 11, 26
8, 17559, Control_c, 6, 11, 24
8, 17560, Control_c, 6, 11, 21
8, 17561, Control_c, 6, 11, 19
8, 17562, Control_c, 6, 11, 16
8, 17563, Control_c, 6, 11, 13
8, 17564, Control_c, 6, 11, 11
8, 17565, Control_c, 6, 11, 8
8, 17566, Control_c, 6, 11, 5
8, 17567, Control_c, 6, 11, 3
8, 17568, Note_off_c, 6, 33, 64
8, 17568, Control_c, 6, 11, 127
8, 17568, Note_on_c, 6, 63, 64
8, 17569, Control_c, 6, 11, 124
8, 17570, Control_c, 6, 11, 122
8, 17571, Control_c, 6, 11, 119
8, 17572, Control_c, 6, 11, 116
8, 17573, Control_c, 6, 11, 114
8, 17574, Control_c, 6, 11, 111
8, 17575, Control_c, 6, 11, 108
8, 17576, Control_c, 6, 11, 106
8, 17577, Control_c, 6, 11, 103
8, 17578, Control_c, 6, 11, 101
8, 17579, Control_c, 6, 11, 98
8, 17580, Control_c, 6, 11, 95
8, 17581, Control_c, 6, 11, 93
8, 17582, Control_c, 6, 11, 90
8, 17583, Control_c, 6, 11, 87
8, 17584, Control_c, 6, 11, 85
8, 17585, Control_c, 6, 11, 82
8, 17586, Control_c, 6, 11, 79
8, 17587, Control_c, 6, 11, 77
8, 17588, Control_c, 6, 11, 74
8, 17589, Control_c, 6, 11, 71
8, 17590, Control_c, 6, 11, 69
8, 17591, Control_c, 6, 11, 66
8, 17592, Control_c, 6, 11, 64
8, 17593, Control_c, 6, 11, 61
8, 17594, Control_c, 6, 11, 58
8, 17595, Control_c, 6, 11, 56
8, 17596, Control_c, 6, 11, 53
8, 17597, Control_c, 6, 11, 50
8, 17598, Control_c, 6, 11, 48
8, 17599, Control_c, 6, 11, 45
8, 17600, Control_c, 6, 11, 42
8, 17601, Control_c, 6, 11, 40
8, 17602, Control_c, 6, 11, 37
8, 17603, Control_c, 6, 11, 34
8, 17604, Control_c, 6, 11, 32
8, 17605, Control_c, 6, 11, 29
8, 17606, Control_c, 6, 11, 26
8, 17607, Control_c, 6, 11, 24
8, 17608, Control_c, 6, 11, 21
8, 17609, Control_c, 6, 11, 19
8, 17610, Control_c, 6, 11, 16
8, 17611, Control_c, 6, 11, 13
8, 17612, Control_c, 6, 11, 11
8, 17613, Control_c, 6, 11, 8
8, 17614, Control_c, 6, 11, 5
8, 17615, Control_c, 6, 11, 3
8, 17616, Note_off_c, 6, 63, 64
8, 17616, Control_c, 6, 11, 127
8, 17616, Note_on_c, 6, 33, 64
8, 17617, Control_c, 6, 11, 124
8, 17618, Control_c, 6, 11, 122
8, 17619, Control_c, 6, 11, 119
8, 17620, Control_c, 6, 11, 116
8, 17621, Control_c, 6, 11, 114
8, 17622, Control_c, 6, 11, 111
8, 17623, Control_c, 6, 11, 108
8, 17624, Control_c, 6, 11, 106
8, 17625, Control_c, 6, 11, 103
8, 17626, Control_c, 6, 11, 101
8, 17627, Control_c, 6, 11, 98
8, 17628, Control_c, 6, 11, 95
8, 17629, Control_c, 6, 11, 93
8, 17630, Control_c, 6, 11, 90
8, 17631, Control_c, 6, 11, 87
8, 17632, Control_c, 6, 11, 85
8, 17633, Control_c, 6, 11, 82
8, 17634, Control_c, 6, 11, 79
8, 17635, Control_c, 6, 11, 77
8, 17636, Control_c, 6, 11, 74
8, 17637, Control_c, 6, 11, 71
8, 17638, Control_c, 6, 11, 69
8, 17639, Control_c, 6, 11, 66
8, 17640, Control_c, 6, 11, 64
8, 17641, Control_c, 6, 11, 61
8, 17642, Control_c, 6, 11, 58
8, 17643, Control_c, 6, 11, 56
8, 17644, Control_c, 6, 11, 53
8, 17645, Control_c, 6, 11, 50
8, 17646, Control_c, 6, 11, 48
8, 17647, Control_c, 6, 11, 45
8, 17648, Control_c, 6, 11, 42
8, 17649, Control_c, 6, 11, 40
8, 17650, Control_c, 6, 11, 37
8, 17651, Control_c, 6, 11, 34
8, 17652, Control_c, 6, 11, 32
8, 17653, Control_c, 6, 11, 29
8, 17654, Control_c, 6, 11, 26
8, 17655, Control_c, 6, 11, 24
8, 17656, Control_c, 6, 11, 21
8, 17657, Control_c, 6, 11, 19
8, 17658, Control_c, 6, 11, 16
8, 17659, Control_c, 6, 11, 13
8, 17660, Control_c, 6, 11, 11
8, 17661, Control_c, 6, 11, 8
8, 17662, Control_c, 6, 11, 5
8, 17663, Control_c, 6, 11, 3
8, 17664, Note_off_c, 6, 33, 64
8, 17664, Control_c, 6, 11, 127
8, 17664, Note_on_c, 6, 93, 64
8, 17665, Control_c, 6, 11, 124
8, 17666, Control_c, 6, 11, 122
8, 17667, Control_c, 6, 11, 119
8, 17668, Control_c, 6, 11, 116
8, 17669, Control_c, 6, 11, 114
8, 17670, Control_c, 6, 11, 111
8, 17671, Control_c, 6, 11, 108
8, 17672, Control_c, 6, 11, 106
8, 17673, Control_c, 6, 11, 103
8, 17674, Control_c, 6, 11, 101
8, 17675, Control_c, 6, 11, 98
8, 17676, Control_c, 6, 11, 95
8, 17677, Control_c, 6, 11, 93
8, 17678, Control_c, 6, 11, 90
8, 17679, Control_c, 6, 11, 87
8, 17680, Control_c, 6, 11, 85
8, 17681, Control_c, 6, 11, 82
8, 17682, Control_c, 6, 11, 79
8, 17683, Control_c, 6, 11, 77
8, 17684, Control_c, 6, 11, 74
8, 17685, Control_c, 6, 11, 71
8, 17686, Control_c, 6, 11, 69
8, 17687, Control_c, 6, 11, 66
8, 17688, Control_c, 6, 11, 64
8, 17689, Control_c, 6, 11, 61
8, 17690, Control_c, 6, 11, 58
8, 17691, Control_c, 6, 11, 56
8, 17692, Control_c, 6, 11, 53
8, 17693, Control_c, 6, 11, 50
8, 17694, Control_c, 6, 11, 48
8, 17695, Control_c, 6, 11, 45
8, 17696, Control_c, 6, 11, 42
8, 17697, Control_c, 6, 11, 40
8, 17698, Control_c, 6, 11, 37
8, 17699, Control_c, 6, 11, 34
8, 17700, Control_c, 6, 11, 32
8, 17701, Control_c, 6, 11, 29
8, 17702, Control_c, 6, 11, 26
8, 17703, Control_c, 6, 11, 24
8, 17704, Control_c, 6, 11, 21
8, 17705, Control_c, 6, 11, 19
8, 17706, Control_c, 6, 11, 16
8, 17707, Control_c, 6, 11, 13
8, 17708, Control_c, 6, 11, 11
8, 17709, Control_c, 6, 11, 8
8, 17710, Control_c, 6, 11, 5
8, 17711, Control_c, 6, 11, 3
8, 17712, Note_off_c, 6, 93, 64
8, 17712, Control_c, 6, 11, 127
8, 17712, Note_on_c, 6, 33, 64
8, 17713, Control_c, 6, 11, 124
8, 17714, Control_c, 6, 11, 122
8, 17715, Control_c, 6, 11, 119
8, 17716, Control_c, 6, 11, 116
8, 17717, Control_c, 6, 11, 114
8, 17718, Control_c, 6, 11, 111
8, 17719, Control_c, 6, 11, 108
8, 17720, Control_c, 6, 11, 106
8, 17721, Control_c, 6, 11, 103
8, 17722, Control_c, 6, 11, 101
8, 17723, Control_c, 6, 11, 98
8, 17724, Control_c, 6, 11, 95
8, 17725, Control_c, 6, 11, 93
8, 17726, Control_c, 6, 11, 90
8, 17727, Control_c, 6, 11, 87
8, 17728, Control_c, 6, 11, 85
8, 17729, Control_c, 6, 11, 82
8, 17730, Control_c, 6, 11, 79
8, 17731, Control_c, 6, 11, 77
8, 17732, Control_c, 6, 11, 74
8, 17733, Control_c, 6, 11, 71
8, 17734, Control_c, 6, 11, 69
8, 17735, Control_c, 6, 11, 66
8, 17736, Control_c, 6, 11, 64
8, 17737, Control_c, 6, 11, 61
8, 17738, Control_c, 6, 11, 58
8, 17739, Control_c, 6, 11, 56
8, 17740, Control_c, 6, 11, 53
8, 17741, Control_c, 6, 11, 50
8, 17742, Control_c, 6, 11, 48
8, 17743, Control_c, 6, 11, 45
8, 17744, Control_c, 6, 11, 42
8, 17745, Control_c, 6, 11, 40
8, 17746, Control_c, 6, 11, 37
8, 17747, Control_c, 6, 11, 34
8, 17748, Control_c, 6, 11, 32
8, 17749, Control_c, 6, 11, 29
8, 17750, Control_c, 6, 11, 26
8, 17751, Control_c, 6, 11, 24
8, 17752, Control_c, 6, 11, 21
8, 17753, Control_c, 6, 11, 19
8, 17754, Control_c, 6, 11, 16
8, 17755, Control_c, 6, 11, 13
8, 17756, Control_c, 6, 11, 11
8, 17757, Control_c, 6, 11, 8
8, 17758, Control_c, 6, 11, 5
8, 17759, Control_c, 6, 11, 3
8, 17760, Note_off_c, 6, 33, 64
8, 17760, Control_c, 6, 11, 127
8, 17760, Note_on_c, 6, 87, 64
8, 17761, Control_c, 6, 11, 124
8, 17762, Control_c, 6, 11, 122
8, 17763, Control_c, 6, 11, 119
8, 17764, Control_c, 6, 11, 116
8, 17765, Control_c, 6, 11, 114
8, 17766, Control_c, 6, 11, 111
8, 17767, Control_c, 6, 11, 108
8, 17768, Control_c, 6, 11, 106
8, 17769, Control_c, 6, 11, 103
8, 17770, Control_c, 6, 11, 101
8, 17771, Control_c, 6, 11, 98
8, 17772, Control_c, 6, 11, 95
8, 17773, Control_c, 6, 11, 93
8, 17774, Control_c, 6, 11, 90
8, 17775, Control_c, 6, 11, 87
8, 17776, Control_c, 6, 11, 85
8, 17777, Control_c, 6, 11, 82
8, 17778, Control_c, 6, 11, 79
8, 17779, Control_c, 6, 11, 77
8, 17780, Control_c, 6, 11, 74
8, 17781, Control_c, 6, 11, 71
8, 17782, Control_c, 6, 11, 69
8, 17783, Control_c, 6, 11, 66
8, 17784, Control_c, 6, 11, 64
8, 17785, Control_c, 6, 11, 61
8, 17786, Control_c, 6, 11, 58
8, 17787, Control_c, 6, 11, 56
8, 17788, Control_c, 6, 11, 53
8, 17789, Control_c, 6, 11, 50
8, 17790, Control_c, 6, 11, 48
8, 17791, Control_c, 6, 11, 45
8, 17792, Control_c, 6, 11, 42
8, 17793, Control_c, 6, 11, 40
8, 17794, Control_c, 6, 11, 37
8, 17795, Control_c, 6, 11, 34
8, 17796, Control_c, 6, 11, 32
8, 17797, Control_c, 6, 11, 29
8, 17798, Control_c, 6, 11, 26
8, 17799, Control_c, 6, 11, 24
8, 17800, Control_c, 6, 11, 21
8, 17801, Control_c, 6, 11, 19
8, 17802, Control_c, 6, 11, 16
8, 17803, Control_c, 6, 11, 13
8, 17804, Control_c, 6, 11, 11
8, 17805, Control_c, 6, 11, 8
8, 17806, Control_c, 6, 11, 5
8, 17807, Control_c, 6, 11, 3
8, 17808, Note_off_c, 6, 87, 64
8, 17808, Control_c, 6, 11, 127
8, 17808, Note_on_c, 6, 33, 64
8, 17809, Control_c, 6, 11, 124
8, 17810, Control_c, 6, 11, 122
8, 17811, Control_c, 6, 11, 119
8, 17812, Control_c, 6, 11, 116
8, 17813, Control_c, 6, 11, 114
8, 17814, Control_c, 6, 11, 111
8, 17815, Control_c, 6, 11, 108
8, 17816, Control_c, 6, 11, 106
8, 17817, Control_c, 6, 11, 103
8, 17818, Control_c, 6, 11, 101
8, 17819, Control_c, 6, 11, 98
8, 17820, Control_c, 6, 11, 95
8, 17821, Control_c, 6, 11, 93
8, 17822, Control_c, 6, 11, 90
8, 17823, Control_c, 6, 11, 87
8, 17824, Control_c, 6, 11, 85
8, 17825, Control_c, 6, 11, 82
8, 17826, Control_c, 6, 11, 79
8, 17827, Control_c, 6, 11, 77
8, 17828, Control_c, 6, 11, 74
8, 17829, Control_c, 6, 11, 71
8, 17830, Control_c, 6, 11, 69
8, 17831, Control_c, 6, 11, 66
8, 17832, Control_c, 6, 11, 64
8, 17833, Control_c, 6, 11, 61
8, 17834, Control_c, 6, 11, 58
8, 17835, Control_c, 6, 11, 56
8, 17836, Control_c, 6, 11, 53
8, 17837, Control_c, 6, 11, 50
8, 17838, Control_c, 6, 11, 48
8, 17839, Control_c, 6, 11, 45
8, 17840, Control_c, 6, 11, 42
8, 17841, Control_c, 6, 11, 40
8, 17842, Control_c, 6, 11, 37
8, 17843, Control_c, 6, 11, 34
8, 17844, Control_c, 6, 11, 32
8, 17845, Control_c, 6, 11, 29
8, 17846, Control_c, 6, 11, 26
8, 17847, Control_c, 6, 11, 24
8, 17848, Control_c, 6, 11, 21
8, 17849, Control_c, 6, 11, 19
8, 17850, Control_c, 6, 11, 16
8, 17851, Control_c, 6, 11, 13
8, 17852, Control_c, 6, 11, 11
8, 17853, Control_c, 6, 11, 8
8, 17854, Control_c, 6, 11, 5
8, 17855, Control_c, 6, 11, 3
8, 17856, Note_off_c, 6, 33, 64
8, 17856, Control_c, 6, 11, 127
8, 17856, Note_on_c, 6, 63, 64
8, 17857, Control_c, 6, 11, 124
8, 17858, Control_c, 6, 11, 122
8, 17859, Control_c, 6, 11, 119
8, 17860, Control_c, 6, 11, 116
8, 17861, Control_c, 6, 11, 114
8, 17862, Control_c, 6, 11, 111
8, 17863, Control_c, 6, 11, 108
8, 17864, Control_c, 6, 11, 106
8, 17865, Control_c, 6, 11, 103
8, 17866, Control_c, 6, 11, 101
8, 17867, Control_c, 6, 11, 98
8, 17868, Control_c, 6, 11, 95
8, 17869, Control_c, 6, 11, 93
8, 17870, Control_c, 6, 11, 90
8, 17871, Control_c, 6, 11, 87
8, 17872, Control_c, 6, 11, 85
8, 17873, Control_c, 6, 11, 82
8, 17874, Control_c, 6, 11, 79
8, 17875, Control_c, 6, 11, 77
8, 17876, Control_c, 6, 11, 74
8, 17877, Control_c, 6, 11, 71
8, 17878, Control_c, 6, 11, 69
8, 17879, Control_c, 6, 11, 66
8, 17880, Control_c, 6, 11, 64
8, 17881, Control_c, 6, 11, 61
8, 17882, Control_c, 6, 11, 58
8, 17883, Control_c, 6, 11, 56
8, 17884, Control_c, 6, 11, 53
8, 17885, Control_c, 6, 11, 50
8, 17886, Control_c, 6, 11, 48
8, 17887, Control_c, 6, 11, 45
8, 17888, Control_c, 6, 11, 42
8, 17889, Control_c, 6, 11, 40
8, 17890, Control_c, 6, 11, 37
8, 17891, Control_c, 6, 11, 34
8, 17892, Control_c, 6, 11, 32
8, 17893, Control_c, 6, 11, 29
8, 17894, Control_c, 6, 11, 26
8, 17895, Control_c, 6, 11, 24
8, 17896, Control_c, 6, 11, 21
8, 17897, Control_c, 6, 11, 19
8, 17898, Control_c, 6, 11, 16
8, 17899, Control_c, 6, 11, 13
8, 17900, Control_c, 6, 11, 11
8, 17901, Control_c, 6, 11, 8
8, 17902, Control_c, 6, 11, 5
8, 17903, Control_c, 6, 11, 3
8, 17904, Note_off_c, 6, 63, 64
8, 17904, Control_c, 6, 11, 127
8, 17904, Note_on_c, 6, 33, 64
8, 17905, Control_c, 6, 11, 124
8, 17906, Control_c, 6, 11, 122
8, 17907, Control_c, 6, 11, 119
8, 17908, Control_c, 6, 11, 116
8, 17909, Control_c, 6, 11, 114
8, 17910, Control_c, 6, 11, 111
8, 17911, Control_c, 6, 11, 108
8, 17912, Control_c, 6, 11, 106
8, 17913, Control_c, 6, 11, 103
8, 17914, Control_c, 6, 11, 101
8, 17915, Control_c, 6, 11, 98
8, 17916, Control_c, 6, 11, 95
8, 17917, Control_c, 6, 11, 93
8, 17918, Control_c, 6, 11, 90
8, 17919, Control_c, 6, 11, 87
8, 17920, Control_c, 6, 11, 85
8, 17921, Control_c, 6, 11, 82
8, 17922, Control_c, 6, 11, 79
8, 17923, Control_c, 6, 11, 77
8, 17924, Control_c, 6, 11, 74
8, 17925, Control_c, 6, 11, 71
8, 17926, Control_c, 6, 11, 69
8, 17927, Control_c, 6, 11, 66
8, 17928, Control_c, 6, 11, 64
8, 17929, Control_c, 6, 11, 61
8, 17930, Control_c, 6, 11, 58
8, 17931, Control_c, 6, 11, 56
8, 17932, Control_c, 6, 11, 53
8, 17933, Control_c, 6, 11, 50
8, 17934, Control_c, 6, 11, 48
8, 17935, Control_c, 6, 11, 45
8, 17936, Control_c, 6, 11, 42
8, 17937, Control_c, 6, 11, 40
8, 17938, Control_c, 6, 11, 37
8, 17939, Control_c, 6, 11, 34
8, 17940, Control_c, 6, 11, 32
8, 17941, Control_c, 6, 11, 29
8, 17942, Control_c, 6, 11, 26
8, 17943, Control_c, 6, 11, 24
8, 17944, Control_c, 6, 11, 21
8, 17945, Control_c, 6, 11, 19
8, 17946, Control_c, 6, 11, 16
8, 17947, Control_c, 6, 11, 13
8, 17948, Control_c, 6, 11, 11
8, 17949, Control_c, 6, 11, 8
8, 17950, Control_c, 6, 11, 5
8, 17951, Control_c, 6, 11, 3
8, 17952, Note_off_c, 6, 33, 64
8, 17952, Control_c, 6, 11, 127
8, 17952, Note_on_c, 6, 93, 64
8, 17953, Control_c, 6, 11, 124
8, 17954, Control_c, 6, 11, 122
8, 17955, Control_c, 6, 11, 119
8, 17956, Control_c, 6, 11, 116
8, 17957, Control_c, 6, 11, 114
8, 17958, Control_c, 6, 11, 111
8, 17959, Control_c, 6, 11, 108
8, 17960, Control_c, 6, 11, 106
8, 17961, Control_c, 6, 11, 103
8, 17962, Control_c, 6, 11, 101
8, 17963, Control_c, 6, 11, 98
8, 17964, Control_c, 6, 11, 95
8, 17965, Control_c, 6, 11, 93
8, 17966, Control_c, 6, 11, 90
8, 17967, Control_c, 6, 11, 87
8, 17968, Control_c, 6, 11, 85
8, 17969, Control_c, 6, 11, 82
8, 17970, Control_c, 6, 11, 79
8, 17971, Control_c, 6, 11, 77
8, 17972, Control_c, 6, 11, 74
8, 17973, Control_c, 6, 11, 71
8, 17974, Control_c, 6, 11, 69
8, 17975, Control_c, 6, 11, 66
8, 17976, Control_c, 6, 11, 64
8, 17977, Control_c, 6, 11, 61
8, 17978, Control_c, 6, 11, 58
8, 17979, Control_c, 6, 11, 56
8, 17980, Control_c, 6, 11, 53
8, 17981, Control_c, 6, 11, 50
8, 17982, Control_c, 6, 11, 48
8, 17983, Control_c, 6, 11, 45
8, 17984, Control_c, 6, 11, 42
8, 17985, Control_c, 6, 11, 40
8, 17986, Control_c, 6, 11, 37
8, 17987, Control_c, 6, 11, 34
8, 17988, Control_c, 6, 11, 32
8, 17989, Control_c, 6, 11, 29
8, 17990, Control_c, 6, 11, 26
8, 17991, Control_c, 6, 11, 24
8, 17992, Control_c, 6, 11, 21
8, 17993, Control_c, 6, 11, 19
8, 17994, Control_c, 6, 11, 16
8, 17995, Control_c, 6, 11, 13
8, 17996, Control_c, 6, 11, 11
8, 17997, Control_c, 6, 11, 8
8, 17998, Control_c, 6, 11, 5
8, 17999, Control_c, 6, 11, 3
8, 18000, Note_off_c, 6, 93, 64
8, 18000, Control_c, 6, 11, 127
8, 18000, Note_on_c, 6, 33, 64
8, 18001, Control_c, 6, 11, 124
8, 18002, Control_c, 6, 11, 122
8, 18003, Control_c, 6, 11, 119
8, 18004, Control_c, 6, 11, 116
8, 18005, Control_c, 6, 11, 114
8, 18006, Control_c, 6, 11, 111
8, 18007, Control_c, 6, 11, 108
8, 18008, Control_c, 6, 11, 106
8, 18009, Control_c, 6, 11, 103
8, 18010, Control_c, 6, 11, 101
8, 18011, Control_c, 6, 11, 98
8, 18012, Control_c, 6, 11, 95
8, 18013, Control_c, 6, 11, 93
8, 18014, Control_c, 6, 11, 90
8, 18015, Control_c, 6, 11, 87
8, 18016, Control_c, 6, 11, 85
8, 18017, Control_c, 6, 11, 82
8, 18018, Control_c, 6, 11, 79
8, 18019, Control_c, 6, 11, 77
8, 18020, Control_c, 6, 11, 74
8, 18021, Control_c, 6, 11, 71
8, 18022, Control_c, 6, 11, 69
8, 18023, Control_c, 6, 11, 66
8, 18024, Control_c, 6, 11, 64
8, 18025, Control_c, 6, 11, 61
8, 18026, Control_c, 6, 11, 58
8, 18027, Control_c, 6, 11, 56
8, 18028, Control_c, 6, 11, 53
8, 18029, Control_c, 6, 11, 50
8, 18030, Control_c, 6, 11, 48
8, 18031, Control_c, 6, 11, 45
8, 18032, Control_c, 6, 11, 42
8, 18033, Control_c, 6, 11, 40
8, 18034, Control_c, 6, 11, 37
8, 18035, Control_c, 6, 11, 34
8, 18036, Control_c, 6, 11, 32
8, 18037, Control_c, 6, 11, 29
8, 18038, Control_c, 6, 11, 26
8, 18039, Control_c, 6, 11, 24
8, 18040, Control_c, 6, 11, 21
8, 18041, Control_c, 6, 11, 19
8, 18042, Control_c, 6, 11, 16
8, 18043, Control_c, 6, 11, 13
8, 18044, Control_c, 6, 11, 11
8, 18045, Control_c, 6, 11, 8
8, 18046, Control_c, 6, 11, 5
8, 18047, Control_c, 6, 11, 3
8, 18048, Note_off_c, 6, 33, 64
8, 18048, Control_c, 6, 11, 127
8, 18048, Note_on_c, 6, 93, 64
8, 18049, Control_c, 6, 11, 124
8, 18050, Control_c, 6, 11, 122
8, 18051, Control_c, 6, 11, 119
8, 18052, Control_c, 6, 11, 116
8, 18053, Control_c, 6, 11, 114
8, 18054, Control_c, 6, 11, 111
8, 18055, Control_c, 6, 11, 108
8, 18056, Control_c, 6, 11, 106
8, 18057, Control_c, 6, 11, 103
8, 18058, Control_c, 6, 11, 101
8, 18059, Control_c, 6, 11, 98
8, 18060, Control_c, 6, 11, 95
8, 18061, Control_c, 6, 11, 93
8, 18062, Control_c, 6, 11, 90
8, 18063, Control_c, 6, 11, 87
8, 18064, Control_c, 6, 11, 85
8, 18065, Control_c, 6, 11, 82
8, 18066, Control_c, 6, 11, 79
8, 18067, Control_c, 6, 11, 77
8, 18068, Control_c, 6, 11, 74
8, 18069, Control_c, 6, 11, 71
8, 18070, Control_c, 6, 11, 69
8, 18071, Control_c, 6, 11, 66
8, 18072, Control_c, 6, 11, 64
8, 18073, Control_c, 6, 11, 61
8, 18074, Control_c, 6, 11, 58
8, 18075, Control_c, 6, 11, 56
8, 18076, Control_c, 6, 11, 53
8, 18077, Control_c, 6, 11, 50
8, 18078, Control_c, 6, 11, 48
8, 18079, Control_c, 6, 11, 45
8, 18080, Control_c, 6, 11, 42
8, 18081, Control_c, 6, 11, 40
8, 18082, Control_c, 6, 11, 37
8, 18083, Control_c, 6, 11, 34
8, 18084, Control_c, 6, 11, 32
8, 18085, Control_c, 6, 11, 29
8, 18086, Control_c, 6, 11, 26
8, 18087, Control_c, 6, 11, 24
8, 18088, Control_c, 6, 11, 21
8, 18089, Control_c, 6, 11, 19
8, 18090, Control_c, 6, 11, 16
8, 18091, Control_c, 6, 11, 13
8, 18092, Control_c, 6, 11, 11
8, 18093, Control_c, 6, 11, 8
8, 18094, Control_c, 6, 11, 5
8, 18095, Control_c, 6, 11, 3
8, 18096, Note_off_c, 6, 93, 64
8, 18096, Control_c, 6, 11, 127
8, 18096, Note_on_c, 6, 33, 64
8, 18097, Control_c, 6, 11, 124
8, 18098, Control_c, 6, 11, 122
8, 18099, Control_c, 6, 11, 119
8, 18100, Control_c, 6, 11, 116
8, 18101, Control_c, 6, 11, 114
8, 18102, Control_c, 6, 11, 111
8, 18103, Control_c, 6, 11, 108
8, 18104, Control_c, 6, 11, 106
8, 18105, Control_c, 6, 11, 103
8, 18106, Control_c, 6, 11, 101
8, 18107, Control_c, 6, 11, 98
8, 18108, Control_c, 6, 11, 95
8, 18109, Control_c, 6, 11, 93
8, 18110, Control_c, 6, 11, 90
8, 18111, Control_c, 6, 11, 87
8, 18112, Control_c, 6, 11, 85
8, 18113, Control_c, 6, 11, 82
8, 18114, Control_c, 6, 11, 79
8, 18115, Control_c, 6, 11, 77
8, 18116, Control_c, 6, 11, 74
8, 18117, Control_c, 6, 11, 71
8, 18118, Control_c, 6, 11, 69
8, 18119, Control_c, 6, 11, 66
8, 18120, Control_c, 6, 11, 64
8, 18121, Control_c, 6, 11, 61
8, 18122, Control_c, 6, 11, 58
8, 18123, Control_c, 6, 11, 56
8, 18124, Control_c, 6, 11, 53
8, 18125, Control_c, 6, 11, 50
8, 18126, Control_c, 6, 11, 48
8, 18127, Control_c, 6, 11, 45
8, 18128, Control_c, 6, 11, 42
8, 18129, Control_c, 6, 11, 40
8, 18130, Control_c, 6, 11, 37
8, 18131, Control_c, 6, 11, 34
8, 18132, Control_c, 6, 11, 32
8, 18133, Control_c, 6, 11, 29
8, 18134, Control_c, 6, 11, 26
8, 18135, Control_c, 6, 11, 24
8, 18136, Control_c, 6, 11, 21
8, 18137, Control_c, 6, 11, 19
8, 18138, Control_c, 6, 11, 16
8, 18139, Control_c, 6, 11, 13
8, 18140, Control_c, 6, 11, 11
8, 18141, Control_c, 6, 11, 8
8, 18142, Control_c, 6, 11, 5
8, 18143, Control_c, 6, 11, 3
8, 18144, Note_off_c, 6, 33, 64
8, 18144, Control_c, 6, 11, 127
8, 18144, Note_on_c, 6, 87, 64
8, 18145, Control_c, 6, 11, 124
8, 18146, Control_c, 6, 11, 122
8, 18147, Control_c, 6, 11, 119
8, 18148, Control_c, 6, 11, 116
8, 18149, Control_c, 6, 11, 114
8, 18150, Control_c, 6, 11, 111
8, 18151, Control_c, 6, 11, 108
8, 18152, Control_c, 6, 11, 106
8, 18153, Control_c, 6, 11, 103
8, 18154, Control_c, 6, 11, 101
8, 18155, Control_c, 6, 11, 98
8, 18156, Control_c, 6, 11, 95
8, 18157, Control_c, 6, 11, 93
8, 18158, Control_c, 6, 11, 90
8, 18159, Control_c, 6, 11, 87
8, 18160, Control_c, 6, 11, 85
8, 18161, Control_c, 6, 11, 82
8, 18162, Control_c, 6, 11, 79
8, 18163, Control_c, 6, 11, 77
8, 18164, Control_c, 6, 11, 74
8, 18165, Control_c, 6, 11, 71
8, 18166, Control_c, 6, 11, 69
8, 18167, Control_c, 6, 11, 66
8, 18168, Control_c, 6, 11, 64
8, 18169, Control_c, 6, 11, 61
8, 18170, Control_c, 6, 11, 58
8, 18171, Control_c, 6, 11, 56
8, 18172, Control_c, 6, 11, 53
8, 18173, Control_c, 6, 11, 50
8, 18174, Control_c, 6, 11, 48
8, 18175, Control_c, 6, 11, 45
8, 18176, Control_c, 6, 11, 42
8, 18177, Control_c, 6, 11, 40
8, 18178, Control_c, 6, 11, 37
8, 18179, Control_c, 6, 11, 34
8, 18180, Control_c, 6, 11, 32
8, 18181, Control_c, 6, 11, 29
8, 18182, Control_c, 6, 11, 26
8, 18183, Control_c, 6, 11, 24
8, 18184, Control_c, 6, 11, 21
8, 18185, Control_c, 6, 11, 19
8, 18186, Control_c, 6, 11, 16
8, 18187, Control_c, 6, 11, 13
8, 18188, Control_c, 6, 11, 11
8, 18189, Control_c, 6, 11, 8
8, 18190, Control_c, 6, 11, 5
8, 18191, Control_c, 6, 11, 3
8, 18192, Note_off_c, 6, 87, 64
8, 18192, Control_c, 6, 11, 127
8, 18192, Note_on_c, 6, 33, 64
8, 18193, Control_c, 6, 11, 124
8, 18194, Control_c, 6, 11, 122
8, 18195, Control_c, 6, 11, 119
8, 18196, Control_c, 6, 11, 116
8, 18197, Control_c, 6, 11, 114
8, 18198, Control_c, 6, 11, 111
8, 18199, Control_c, 6, 11, 108
8, 18200, Control_c, 6, 11, 106
8, 18201, Control_c, 6, 11, 103
8, 18202, Control_c, 6, 11, 101
8, 18203, Control_c, 6, 11, 98
8, 18204, Control_c, 6, 11, 95
8, 18205, Control_c, 6, 11, 93
8, 18206, Control_c, 6, 11, 90
8, 18207, Control_c, 6, 11, 87
8, 18208, Control_c, 6, 11, 85
8, 18209, Control_c, 6, 11, 82
8, 18210, Control_c, 6, 11, 79
8, 18211, Control_c, 6, 11, 77
8, 18212, Control_c, 6, 11, 74
8, 18213, Control_c, 6, 11, 71
8, 18214, Control_c, 6, 11, 69
8, 18215, Control_c, 6, 11, 66
8, 18216, Control_c, 6, 11, 64
8, 18217, Control_c, 6, 11, 61
8, 18218, Control_c, 6, 11, 58
8, 18219, Control_c, 6, 11, 56
8, 18220, Control_c, 6, 11, 53
8, 18221, Control_c, 6, 11, 50
8, 18222, Control_c, 6, 11, 48
8, 18223, Control_c, 6, 11, 45
8, 18224, Control_c, 6, 11, 42
8, 18225, Control_c, 6, 11, 40
8, 18226, Control_c, 6, 11, 37
8, 18227, Control_c, 6, 11, 34
8, 18228, Control_c, 6, 11, 32
8, 18229, Control_c, 6, 11, 29
8, 18230, Control_c, 6, 11, 26
8, 18231, Control_c, 6, 11, 24
8, 18232, Control_c, 6, 11, 21
8, 18233, Control_c, 6, 11, 19
8, 18234, Control_c, 6, 11, 16
8, 18235, Control_c, 6, 11, 13
8, 18236, Control_c, 6, 11, 11
8, 18237, Control_c, 6, 11, 8
8, 18238, Control_c, 6, 11, 5
8, 18239, Control_c, 6, 11, 3
8, 18240, Note_off_c, 6, 33, 64
8, 18240, Control_c, 6, 11, 127
8, 18240, Note_on_c, 6, 63, 64
8, 18241, Control_c, 6, 11, 124
8, 18242, Control_c, 6, 11, 122
8, 18243, Control_c, 6, 11, 119
8, 18244, Control_c, 6, 11, 116
8, 18245, Control_c, 6, 11, 114
8, 18246, Control_c, 6, 11, 111
8, 18247, Control_c, 6, 11, 108
8, 18248, Control_c, 6, 11, 106
8, 18249, Control_c, 6, 11, 103
8, 18250, Control_c, 6, 11, 101
8, 18251, Control_c, 6, 11, 98
8, 18252, Control_c, 6, 11, 95
8, 18253, Control_c, 6, 11, 93
8, 18254, Control_c, 6, 11, 90
8, 18255, Control_c, 6, 11, 87
8, 18256, Control_c, 6, 11, 85
8, 18257, Control_c, 6, 11, 82
8, 18258, Control_c, 6, 11, 79
8, 18259, Control_c, 6, 11, 77
8, 18260, Control_c, 6, 11, 74
8, 18261, Control_c, 6, 11, 71
8, 18262, Control_c, 6, 11, 69
8, 18263, Control_c, 6, 11, 66
8, 18264, Control_c, 6, 11, 64
8, 18265, Control_c, 6, 11, 61
8, 18266, Control_c, 6, 11, 58
8, 18267, Control_c, 6, 11, 56
8, 18268, Control_c, 6, 11, 53
8, 18269, Control_c, 6, 11, 50
8, 18270, Control_c, 6, 11, 48
8, 18271, Control_c, 6, 11, 45
8, 18272, Control_c, 6, 11, 42
8, 18273, Control_c, 6, 11, 40
8, 18274, Control_c, 6, 11, 37
8, 18275, Control_c, 6, 11, 34
8, 18276, Control_c, 6, 11, 32
8, 18277, Control_c, 6, 11, 29
8, 18278, Control_c, 6, 11, 26
8, 18279, Control_c, 6, 11, 24
8, 18280, Control_c, 6, 11, 21
8, 18281, Control_c, 6, 11, 19
8, 18282, Control_c, 6, 11, 16
8, 18283, Control_c, 6, 11, 13
8, 18284, Control_c, 6, 11, 11
8, 18285, Control_c, 6, 11, 8
8, 18286, Control_c, 6, 11, 5
8, 18287, Control_c, 6, 11, 3
8, 18288, Note_off_c, 6, 63, 64
8, 18288, Control_c, 6, 11, 127
8, 18288, Note_on_c, 6, 33, 64
8, 18289, Control_c, 6, 11, 124
8, 18290, Control_c, 6, 11, 122
8, 18291, Control_c, 6, 11, 119
8, 18292, Control_c, 6, 11, 116
8, 18293, Control_c, 6, 11, 114
8, 18294, Control_c, 6, 11, 111
8, 18295, Control_c, 6, 11, 108
8, 18296, Control_c, 6, 11, 106
8, 18297, Control_c, 6, 11, 103
8, 18298, Control_c, 6, 11, 101
8, 18299, Control_c, 6, 11, 98
8, 18300, Control_c, 6, 11, 95
8, 18301, Control_c, 6, 11, 93
8, 18302, Control_c, 6, 11, 90
8, 18303, Control_c, 6, 11, 87
8, 18304, Control_c, 6, 11, 85
8, 18305, Control_c, 6, 11, 82
8, 18306, Control_c, 6, 11, 79
8, 18307, Control_c, 6, 11, 77
8, 18308, Control_c, 6, 11, 74
8, 18309, Control_c, 6, 11, 71
8, 18310, Control_c, 6, 11, 69
8, 18311, Control_c, 6, 11, 66
8, 18312, Control_c, 6, 11, 64
8, 18313, Control_c, 6, 11, 61
8, 18314, Control_c, 6, 11, 58
8, 18315, Control_c, 6, 11, 56
8, 18316, Control_c, 6, 11, 53
8, 18317, Control_c, 6, 11, 50
8, 18318, Control_c, 6, 11, 48
8, 18319, Control_c, 6, 11, 45
8, 18320, Control_c, 6, 11, 42
8, 18321, Control_c, 6, 11, 40
8, 18322, Control_c, 6, 11, 37
8, 18323, Control_c, 6, 11, 34
8, 18324, Control_c, 6, 11, 32
8, 18325, Control_c, 6, 11, 29
8, 18326, Control_c, 6, 11, 26
8, 18327, Control_c, 6, 11, 24
8, 18328, Control_c, 6, 11, 21
8, 18329, Control_c, 6, 11, 19
8, 18330, Control_c, 6, 11, 16
8, 18331, Control_c, 6, 11, 13
8, 18332, Control_c, 6, 11, 11
8, 18333, Control_c, 6, 11, 8
8, 18334, Control_c, 6, 11, 5
8, 18335, Control_c, 6, 11, 3
8, 18336, Note_off_c, 6, 33, 64
8, 18336, Control_c, 6, 11, 127
8, 18336, Note_on_c, 6, 87, 64
8, 18337, Control_c, 6, 11, 124
8, 18338, Control_c, 6, 11, 122
8, 18339, Control_c, 6, 11, 119
8, 18340, Control_c, 6, 11, 116
8, 18341, Control_c, 6, 11, 114
8, 18342, Control_c, 6, 11, 111
8, 18343, Control_c, 6, 11, 108
8, 18344, Control_c, 6, 11, 106
8, 18345, Control_c, 6, 11, 103
8, 18346, Control_c, 6, 11, 101
8, 18347, Control_c, 6, 11, 98
8, 18348, Control_c, 6, 11, 95
8, 18349, Control_c, 6, 11, 93
8, 18350, Control_c, 6, 11, 90
8, 18351, Control_c, 6, 11, 87
8, 18352, Control_c, 6, 11, 85
8, 18353, Control_c, 6, 11, 82
8, 18354, Control_c, 6, 11, 79
8, 18355, Control_c, 6, 11, 77
8, 18356, Control_c, 6, 11, 74
8, 18357, Control_c, 6, 11, 71
8, 18358, Control_c, 6, 11, 69
8, 18359, Control_c, 6, 11, 66
8, 18360, Control_c, 6, 11, 64
8, 18361, Control_c, 6, 11, 61
8, 18362, Control_c, 6, 11, 58
8, 18363, Control_c, 6, 11, 56
8, 18364, Control_c, 6, 11, 53
8, 18365, Control_c, 6, 11, 50
8, 18366, Control_c, 6, 11, 48
8, 18367, Control_c, 6, 11, 45
8, 18368, Control_c, 6, 11, 42
8, 18369, Control_c, 6, 11, 40
8, 18370, Control_c, 6, 11, 37
8, 18371, Control_c, 6, 11, 34
8, 18372, Control_c, 6, 11, 32
8, 18373, Control_c, 6, 11, 29
8, 18374, Control_c, 6, 11, 26
8, 18375, Control_c, 6, 11, 24
8, 18376, Control_c, 6, 11, 21
8, 18377, Control_c, 6, 11, 19
8, 18378, Control_c, 6, 11, 16
8, 18379, Control_c, 6, 11, 13
8, 18380, Control_c, 6, 11, 11
8, 18381, Control_c, 6, 11, 8
8, 18382, Control_c, 6, 11, 5
8, 18383, Control_c, 6, 11, 3
8, 18384, Note_off_c, 6, 87, 64
8, 18384, Control_c, 6, 11, 127
8, 18384, Note_on_c, 6, 33, 64
8, 18385, Control_c, 6, 11, 124
8, 18386, Control_c, 6, 11, 122
8, 18387, Control_c, 6, 11, 119
8, 18388, Control_c, 6, 11, 116
8, 18389, Control_c, 6, 11, 114
8, 18390, Control_c, 6, 11, 111
8, 18391, Control_c, 6, 11, 108
8, 18392, Control_c, 6, 11, 106
8, 18393, Control_c, 6, 11, 103
8, 18394, Control_c, 6, 11, 101
8, 18395, Control_c, 6, 11, 98
8, 18396, Control_c, 6, 11, 95
8, 18397, Control_c, 6, 11, 93
8, 18398, Control_c, 6, 11, 90
8, 18399, Control_c, 6, 11, 87
8, 18400, Control_c, 6, 11, 85
8, 18401, Control_c, 6, 11, 82
8, 18402, Control_c, 6, 11, 79
8, 18403, Control_c, 6, 11, 77
8, 18404, Control_c, 6, 11, 74
8, 18405, Control_c, 6, 11, 71
8, 18406, Control_c, 6, 11, 69
8, 18407, Control_c, 6, 11, 66
8, 18408, Control_c, 6, 11, 64
8, 18409, Control_c, 6, 11, 61
8, 18410, Control_c, 6, 11, 58
8, 18411, Control_c, 6, 11, 56
8, 18412, Control_c, 6, 11, 53
8, 18413, Control_c, 6, 11, 50
8, 18414, Control_c, 6, 11, 48
8, 18415, Control_c, 6, 11, 45
8, 18416, Control_c, 6, 11, 42
8, 18417, Control_c, 6, 11, 40
8, 18418, Control_c, 6, 11, 37
8, 18419, Control_c, 6, 11, 34
8, 18420, Control_c, 6, 11, 32
8, 18421, Control_c, 6, 11, 29
8, 18422, Control_c, 6, 11, 26
8, 18423, Control_c, 6, 11, 24
8, 18424, Control_c, 6, 11, 21
8, 18425, Control_c, 6, 11, 19
8, 18426, Control_c, 6, 11, 16
8, 18427, Control_c, 6, 11, 13
8, 18428, Control_c, 6, 11, 11
8, 18429, Control_c, 6, 11, 8
8, 18430, Control_c, 6, 11, 5
8, 18431, Control_c, 6, 11, 3
8, 18432, Note_off_c, 6, 33, 64
8, 18432, Control_c, 6, 11, 127
8, 18432, Note_on_c, 6, 93, 64
8, 18433, Control_c, 6, 11, 124
8, 18434, Control_c, 6, 11, 122
8, 18435, Control_c, 6, 11, 119
8, 18436, Control_c, 6, 11, 116
8, 18437, Control_c, 6, 11, 114
8, 18438, Control_c, 6, 11, 111
8, 18439, Control_c, 6, 11, 108
8, 18440, Control_c, 6, 11, 106
8, 18441, Control_c, 6, 11, 103
8, 18442, Control_c, 6, 11, 101
8, 18443, Control_c, 6, 11, 98
8, 18444, Control_c, 6, 11, 95
8, 18445, Control_c, 6, 11, 93
8, 18446, Control_c, 6, 11, 90
8, 18447, Control_c, 6, 11, 87
8, 18448, Control_c, 6, 11, 85
8, 18449, Control_c, 6, 11, 82
8, 18450, Control_c, 6, 11, 79
8, 18451, Control_c, 6, 11, 77
8, 18452, Control_c, 6, 11, 74
8, 18453, Control_c, 6, 11, 71
8, 18454, Control_c, 6, 11, 69
8, 18455, Control_c, 6, 11, 66
8, 18456, Control_c, 6, 11, 64
8, 18457, Control_c, 6, 11, 61
8, 18458, Control_c, 6, 11, 58
8, 18459, Control_c, 6, 11, 56
8, 18460, Control_c, 6, 11, 53
8, 18461, Control_c, 6, 11, 50
8, 18462, Control_c, 6, 11, 48
8, 18463, Control_c, 6, 11, 45
8, 18464, Control_c, 6, 11, 42
8, 18465, Control_c, 6, 11, 40
8, 18466, Control_c, 6, 11, 37
8, 18467, Control_c, 6, 11, 34
8, 18468, Control_c, 6, 11, 32
8, 18469, Control_c, 6, 11, 29
8, 18470, Control_c, 6, 11, 26
8, 18471, Control_c, 6, 11, 24
8, 18472, Control_c, 6, 11, 21
8, 18473, Control_c, 6, 11, 19
8, 18474, Control_c, 6, 11, 16
8, 18475, Control_c, 6, 11, 13
8, 18476, Control_c, 6, 11, 11
8, 18477, Control_c, 6, 11, 8
8, 18478, Control_c, 6, 11, 5
8, 18479, Control_c, 6, 11, 3
8, 18480, Note_off_c, 6, 93, 64
8, 18480, Control_c, 6, 11, 127
8, 18480, Note_on_c, 6, 33, 64
8, 18481, Control_c, 6, 11, 124
8, 18482, Control_c, 6, 11, 122
8, 18483, Control_c, 6, 11, 119
8, 18484, Control_c, 6, 11, 116
8, 18485, Control_c, 6, 11, 114
8, 18486, Control_c, 6, 11, 111
8, 18487, Control_c, 6, 11, 108
8, 18488, Control_c, 6, 11, 106
8, 18489, Control_c, 6, 11, 103
8, 18490, Control_c, 6, 11, 101
8, 18491, Control_c, 6, 11, 98
8, 18492, Control_c, 6, 11, 95
8, 18493, Control_c, 6, 11, 93
8, 18494, Control_c, 6, 11, 90
8, 18495, Control_c, 6, 11, 87
8, 18496, Control_c, 6, 11, 85
8, 18497, Control_c, 6, 11, 82
8, 18498, Control_c, 6, 11, 79
8, 18499, Control_c, 6, 11, 77
8, 18500, Control_c, 6, 11, 74
8, 18501, Control_c, 6, 11, 71
8, 18502, Control_c, 6, 11, 69
8, 18503, Control_c, 6, 11, 66
8, 18504, Control_c, 6, 11, 64
8, 18505, Control_c, 6, 11, 61
8, 18506, Control_c, 6, 11, 58
8, 18507, Control_c, 6, 11, 56
8, 18508, Control_c, 6, 11, 53
8, 18509, Control_c, 6, 11, 50
8, 18510, Control_c, 6, 11, 48
8, 18511, Control_c, 6, 11, 45
8, 18512, Control_c, 6, 11, 42
8, 18513, Control_c, 6, 11, 40
8, 18514, Control_c, 6, 11, 37
8, 18515, Control_c, 6, 11, 34
8, 18516, Control_c, 6, 11, 32
8, 18517, Control_c, 6, 11, 29
8, 18518, Control_c, 6, 11, 26
8, 18519, Control_c, 6, 11, 24
8, 18520, Control_c, 6, 11, 21
8, 18521, Control_c, 6, 11, 19
8, 18522, Control_c, 6, 11, 16
8, 18523, Control_c, 6, 11, 13
8, 18524, Control_c, 6, 11, 11
8, 18525, Control_c, 6, 11, 8
8, 18526, Control_c, 6, 11, 5
8, 18527, Control_c, 6, 11, 3
8, 18528, Note_off_c, 6, 33, 64
8, 18528, Control_c, 6, 11, 127
8, 18528, Note_on_c, 6, 87, 64
8, 18529, Control_c, 6, 11, 124
8, 18530, Control_c, 6, 11, 122
8, 18531, Control_c, 6, 11, 119
8, 18532, Control_c, 6, 11, 116
8, 18533, Control_c, 6, 11, 114
8, 18534, Control_c, 6, 11, 111
8, 18535, Control_c, 6, 11, 108
8, 18536, Control_c, 6, 11, 106
8, 18537, Control_c, 6, 11, 103
8, 18538, Control_c, 6, 11, 101
8, 18539, Control_c, 6, 11, 98
8, 18540, Control_c, 6, 11, 95
8, 18541, Control_c, 6, 11, 93
8, 18542, Control_c, 6, 11, 90
8, 18543, Control_c, 6, 11, 87
8, 18544, Control_c, 6, 11, 85
8, 18545, Control_c, 6, 11, 82
8, 18546, Control_c, 6, 11, 79
8, 18547, Control_c, 6, 11, 77
8, 18548, Control_c, 6, 11, 74
8, 18549, Control_c, 6, 11, 71
8, 18550, Control_c, 6, 11, 69
8, 18551, Control_c, 6, 11, 66
8, 18552, Control_c, 6, 11, 64
8, 18553, Control_c, 6, 11, 61
8, 18554, Control_c, 6, 11, 58
8, 18555, Control_c, 6, 11, 56
8, 18556, Control_c, 6, 11, 53
8, 18557, Control_c, 6, 11, 50
8, 18558, Control_c, 6, 11, 48
8, 18559, Control_c, 6, 11, 45
8, 18560, Control_c, 6, 11, 42
8, 18561, Control_c, 6, 11, 40
8, 18562, Control_c, 6, 11, 37
8, 18563, Control_c, 6, 11, 34
8, 18564, Control_c, 6, 11, 32
8, 18565, Control_c, 6, 11, 29
8, 18566, Control_c, 6, 11, 26
8, 18567, Control_c, 6, 11, 24
8, 18568, Control_c, 6, 11, 21
8, 18569, Control_c, 6, 11, 19
8, 18570, Control_c, 6, 11, 16
8, 18571, Control_c, 6, 11, 13
8, 18572, Control_c, 6, 11, 11
8, 18573, Control_c, 6, 11, 8
8, 18574, Control_c, 6, 11, 5
8, 18575, Control_c, 6, 11, 3
8, 18576, Note_off_c, 6, 87, 64
8, 18576, Control_c, 6, 11, 127
8, 18576, Note_on_c, 6, 33, 64
8, 18577, Control_c, 6, 11, 124
8, 18578, Control_c, 6, 11, 122
8, 18579, Control_c, 6, 11, 119
8, 18580, Control_c, 6, 11, 116
8, 18581, Control_c, 6, 11, 114
8, 18582, Control_c, 6, 11, 111
8, 18583, Control_c, 6, 11, 108
8, 18584, Control_c, 6, 11, 106
8, 18585, Control_c, 6, 11, 103
8, 18586, Control_c, 6, 11, 101
8, 18587, Control_c, 6, 11, 98
8, 18588, Control_c, 6, 11, 95
8, 18589, Control_c, 6, 11, 93
8, 18590, Control_c, 6, 11, 90
8, 18591, Control_c, 6, 11, 87
8, 18592, Control_c, 6, 11, 85
8, 18593, Control_c, 6, 11, 82
8, 18594, Control_c, 6, 11, 79
8, 18595, Control_c, 6, 11, 77
8, 18596, Control_c, 6, 11, 74
8, 18597, Control_c, 6, 11, 71
8, 18598, Control_c, 6, 11, 69
8, 18599, Control_c, 6, 11, 66
8, 18600, Control_c, 6, 11, 64
8, 18601, Control_c, 6, 11, 61
8, 18602, Control_c, 6, 11, 58
8, 18603, Control_c, 6, 11, 56
8, 18604, Control_c, 6, 11, 53
8, 18605, Control_c, 6, 11, 50
8, 18606, Control_c, 6, 11, 48
8, 18607, Control_c, 6, 11, 45
8, 18608, Control_c, 6, 11, 42
8, 18609, Control_c, 6, 11, 40
8, 18610, Control_c, 6, 11, 37
8, 18611, Control_c, 6, 11, 34
8, 18612, Control_c, 6, 11, 32
8, 18613, Control_c, 6, 11, 29
8, 18614, Control_c, 6, 11, 26
8, 18615, Control_c, 6, 11, 24
8, 18616, Control_c, 6, 11, 21
8, 18617, Control_c, 6, 11, 19
8, 18618, Control_c, 6, 11, 16
8, 18619, Control_c, 6, 11, 13
8, 18620, Control_c, 6, 11, 11
8, 18621, Control_c, 6, 11, 8
8, 18622, Control_c, 6, 11, 5
8, 18623, Control_c, 6, 11, 3
8, 18624, Note_off_c, 6, 33, 64
8, 18624, Control_c, 6, 11, 127
8, 18624, Note_on_c, 6, 63, 64
8, 18625, Control_c, 6, 11, 124
8, 18626, Control_c, 6, 11, 122
8, 18627, Control_c, 6, 11, 119
8, 18628, Control_c, 6, 11, 116
8, 18629, Control_c, 6, 11, 114
8, 18630, Control_c, 6, 11, 111
8, 18631, Control_c, 6, 11, 108
8, 18632, Control_c, 6, 11, 106
8, 18633, Control_c, 6, 11, 103
8, 18634, Control_c, 6, 11, 101
8, 18635, Control_c, 6, 11, 98
8, 18636, Control_c, 6, 11, 95
8, 18637, Control_c, 6, 11, 93
8, 18638, Control_c, 6, 11, 90
8, 18639, Control_c, 6, 11, 87
8, 18640, Control_c, 6, 11, 85
8, 18641, Control_c, 6, 11, 82
8, 18642, Control_c, 6, 11, 79
8, 18643, Control_c, 6, 11, 77
8, 18644, Control_c, 6, 11, 74
8, 18645, Control_c, 6, 11, 71
8, 18646, Control_c, 6, 11, 69
8, 18647, Control_c, 6, 11, 66
8, 18648, Control_c, 6, 11, 64
8, 18649, Control_c, 6, 11, 61
8, 18650, Control_c, 6, 11, 58
8, 18651, Control_c, 6, 11, 56
8, 18652, Control_c, 6, 11, 53
8, 18653, Control_c, 6, 11, 50
8, 18654, Control_c, 6, 11, 48
8, 18655, Control_c, 6, 11, 45
8, 18656, Control_c, 6, 11, 42
8, 18657, Control_c, 6, 11, 40
8, 18658, Control_c, 6, 11, 37
8, 18659, Control_c, 6, 11, 34
8, 18660, Control_c, 6, 11, 32
8, 18661, Control_c, 6, 11, 29
8, 18662, Control_c, 6, 11, 26
8, 18663, Control_c, 6, 11, 24
8, 18664, Control_c, 6, 11, 21
8, 18665, Control_c, 6, 11, 19
8, 18666, Control_c, 6, 11, 16
8, 18667, Control_c, 6, 11, 13
8, 18668, Control_c, 6, 11, 11
8, 18669, Control_c, 6, 11, 8
8, 18670, Control_c, 6, 11, 5
8, 18671, Control_c, 6, 11, 3
8, 18672, Note_off_c, 6, 63, 64
8, 18672, Control_c, 6, 11, 127
8, 18672, Note_on_c, 6, 33, 64
8, 18673, Control_c, 6, 11, 124
8, 18674, Control_c, 6, 11, 122
8, 18675, Control_c, 6, 11, 119
8, 18676, Control_c, 6, 11, 116
8, 18677, Control_c, 6, 11, 114
8, 18678, Control_c, 6, 11, 111
8, 18679, Control_c, 6, 11, 108
8, 18680, Control_c, 6, 11, 106
8, 18681, Control_c, 6, 11, 103
8, 18682, Control_c, 6, 11, 101
8, 18683, Control_c, 6, 11, 98
8, 18684, Control_c, 6, 11, 95
8, 18685, Control_c, 6, 11, 93
8, 18686, Control_c, 6, 11, 90
8, 18687, Control_c, 6, 11, 87
8, 18688, Control_c, 6, 11, 85
8, 18689, Control_c, 6, 11, 82
8, 18690, Control_c, 6, 11, 79
8, 18691, Control_c, 6, 11, 77
8, 18692, Control_c, 6, 11, 74
8, 18693, Control_c, 6, 11, 71
8, 18694, Control_c, 6, 11, 69
8, 18695, Control_c, 6, 11, 66
8, 18696, Control_c, 6, 11, 64
8, 18697, Control_c, 6, 11, 61
8, 18698, Control_c, 6, 11, 58
8, 18699, Control_c, 6, 11, 56
8, 18700, Control_c, 6, 11, 53
8, 18701, Control_c, 6, 11, 50
8, 18702, Control_c, 6, 11, 48
8, 18703, Control_c, 6, 11, 45
8, 18704, Control_c, 6, 11, 42
8, 18705, Control_c, 6, 11, 40
8, 18706, Control_c, 6, 11, 37
8, 18707, Control_c, 6, 11, 34
8, 18708, Control_c, 6, 11, 32
8, 18709, Control_c, 6, 11, 29
8, 18710, Control_c, 6, 11, 26
8, 18711, Control_c, 6, 11, 24
8, 18712, Control_c, 6, 11, 21
8, 18713, Control_c, 6, 11, 19
8, 18714, Control_c, 6, 11, 16
8, 18715, Control_c, 6, 11, 13
8, 18716, Control_c, 6, 11, 11
8, 18717, Control_c, 6, 11, 8
8, 18718, Control_c, 6, 11, 5
8, 18719, Control_c, 6, 11, 3
8, 18720, Note_off_c, 6, 33, 64
8, 18720, Control_c, 6, 11, 127
8, 18720, Note_on_c, 6, 93, 64
8, 18721, Control_c, 6, 11, 124
8, 18722, Control_c, 6, 11, 122
8, 18723, Control_c, 6, 11, 119
8, 18724, Control_c, 6, 11, 116
8, 18725, Control_c, 6, 11, 114
8, 18726, Control_c, 6, 11, 111
8, 18727, Control_c, 6, 11, 108
8, 18728, Control_c, 6, 11, 106
8, 18729, Control_c, 6, 11, 103
8, 18730, Control_c, 6, 11, 101
8, 18731, Control_c, 6, 11, 98
8, 18732, Control_c, 6, 11, 95
8, 18733, Control_c, 6, 11, 93
8, 18734, Control_c, 6, 11, 90
8, 18735, Control_c, 6, 11, 87
8, 18736, Control_c, 6, 11, 85
8, 18737, Control_c, 6, 11, 82
8, 18738, Control_c, 6, 11, 79
8, 18739, Control_c, 6, 11, 77
8, 18740, Control_c, 6, 11, 74
8, 18741, Control_c, 6, 11, 71
8, 18742, Control_c, 6, 11, 69
8, 18743, Control_c, 6, 11, 66
8, 18744, Control_c, 6, 11, 64
8, 18745, Control_c, 6, 11, 61
8, 18746, Control_c, 6, 11, 58
8, 18747, Control_c, 6, 11, 56
8, 18748, Control_c, 6, 11, 53
8, 18749, Control_c, 6, 11, 50
8, 18750, Control_c, 6, 11, 48
8, 18751, Control_c, 6, 11, 45
8, 18752, Control_c, 6, 11, 42
8, 18753, Control_c, 6, 11, 40
8, 18754, Control_c, 6, 11, 37
8, 18755, Control_c, 6, 11, 34
8, 18756, Control_c, 6, 11, 32
8, 18757, Control_c, 6, 11, 29
8, 18758, Control_c, 6, 11, 26
8, 18759, Control_c, 6, 11, 24
8, 18760, Control_c, 6, 11, 21
8, 18761, Control_c, 6, 11, 19
8, 18762, Control_c, 6, 11, 16
8, 18763, Control_c, 6, 11, 13
8, 18764, Control_c, 6, 11, 11
8, 18765, Control_c, 6, 11, 8
8, 18766, Control_c, 6, 11, 5
8, 18767, Control_c, 6, 11, 3
8, 18768, Note_off_c, 6, 93, 64
8, 18768, Control_c, 6, 11, 127
8, 18768, Note_on_c, 6, 33, 64
8, 18769, Control_c, 6, 11, 124
8, 18770, Control_c, 6, 11, 122
8, 18771, Control_c, 6, 11, 119
8, 18772, Control_c, 6, 11, 116
8, 18773, Control_c, 6, 11, 114
8, 18774, Control_c, 6, 11, 111
8, 18775, Control_c, 6, 11, 108
8, 18776, Control_c, 6, 11, 106
8, 18777, Control_c, 6, 11, 103
8, 18778, Control_c, 6, 11, 101
8, 18779, Control_c, 6, 11, 98
8, 18780, Control_c, 6, 11, 95
8, 18781, Control_c, 6, 11, 93
8, 18782, Control_c, 6, 11, 90
8, 18783, Control_c, 6, 11, 87
8, 18784, Control_c, 6, 11, 85
8, 18785, Control_c, 6, 11, 82
8, 18786, Control_c, 6, 11, 79
8, 18787, Control_c, 6, 11, 77
8, 18788, Control_c, 6, 11, 74
8, 18789, Control_c, 6, 11, 71
8, 18790, Control_c, 6, 11, 69
8, 18791, Control_c, 6, 11, 66
8, 18792, Control_c, 6, 11, 64
8, 18793, Control_c, 6, 11, 61
8, 18794, Control_c, 6, 11, 58
8, 18795, Control_c, 6, 11, 56
8, 18796, Control_c, 6, 11, 53
8, 18797, Control_c, 6, 11, 50
8, 18798, Control_c, 6, 11, 48
8, 18799, Control_c, 6, 11, 45
8, 18800, Control_c, 6, 11, 42
8, 18801, Control_c, 6, 11, 40
8, 18802, Control_c, 6, 11, 37
8, 18803, Control_c, 6, 11, 34
8, 18804, Control_c, 6, 11, 32
8, 18805, Control_c, 6, 11, 29
8, 18806, Control_c, 6, 11, 26
8, 18807, Control_c, 6, 11, 24
8, 18808, Control_c, 6, 11, 21
8, 18809, Control_c, 6, 11, 19
8, 18810, Control_c, 6, 11, 16
8, 18811, Control_c, 6, 11, 13
8, 18812, Control_c, 6, 11, 11
8, 18813, Control_c, 6, 11, 8
8, 18814, Control_c, 6, 11, 5
8, 18815, Control_c, 6, 11, 3
8, 18816, Note_off_c, 6, 33, 64
8, 18816, Control_c, 6, 11, 127
8, 18816, Note_on_c, 6, 93, 64
8, 18817, Control_c, 6, 11, 124
8, 18818, Control_c, 6, 11, 122
8, 18819, Control_c, 6, 11, 119
8, 18820, Control_c, 6, 11, 116
8, 18821, Control_c, 6, 11, 114
8, 18822, Control_c, 6, 11, 111
8, 18823, Control_c, 6, 11, 108
8, 18824, Control_c, 6, 11, 106
8, 18825, Control_c, 6, 11, 103
8, 18826, Control_c, 6, 11, 101
8, 18827, Control_c, 6, 11, 98
8, 18828, Control_c, 6, 11, 95
8, 18829, Control_c, 6, 11, 93
8, 18830, Control_c, 6, 11, 90
8, 18831, Control_c, 6, 11, 87
8, 18832, Control_c, 6, 11, 85
8, 18833, Control_c, 6, 11, 82
8, 18834, Control_c, 6, 11, 79
8, 18835, Control_c, 6, 11, 77
8, 18836, Control_c, 6, 11, 74
8, 18837, Control_c, 6, 11, 71
8, 18838, Control_c, 6, 11, 69
8, 18839, Control_c, 6, 11, 66
8, 18840, Control_c, 6, 11, 64
8, 18841, Control_c, 6, 11, 61
8, 18842, Control_c, 6, 11, 58
8, 18843, Control_c, 6, 11, 56
8, 18844, Control_c, 6, 11, 53
8, 18845, Control_c, 6, 11, 50
8, 18846, Control_c, 6, 11, 48
8, 18847, Control_c, 6, 11, 45
8, 18848, Control_c, 6, 11, 42
8, 18849, Control_c, 6, 11, 40
8, 18850, Control_c, 6, 11, 37
8, 18851, Control_c, 6, 11, 34
8, 18852, Control_c, 6, 11, 32
8, 18853, Control_c, 6, 11, 29
8, 18854, Control_c, 6, 11, 26
8, 18855, Control_c, 6, 11, 24
8, 18856, Control_c, 6, 11, 21
8, 18857, Control_c, 6, 11, 19
8, 18858, Control_c, 6, 11, 16
8, 18859, Control_c, 6, 11, 13
8, 18860, Control_c, 6, 11, 11
8, 18861, Control_c, 6, 11, 8
8, 18862, Control_c, 6, 11, 5
8, 18863, Control_c, 6, 11, 3
8, 18864, Note_off_c, 6, 93, 64
8, 18864, Control_c, 6, 11, 127
8, 18864, Note_on_c, 6, 33, 64
8, 18865, Control_c, 6, 11, 124
8, 18866, Control_c, 6, 11, 122
8, 18867, Control_c, 6, 11, 119
8, 18868, Control_c, 6, 11, 116
8, 18869, Control_c, 6, 11, 114
8, 18870, Control_c, 6, 11, 111
8, 18871, Control_c, 6, 11, 108
8, 18872, Control_c, 6, 11, 106
8, 18873, Control_c, 6, 11, 103
8, 18874, Control_c, 6, 11, 101
8, 18875, Control_c, 6, 11, 98
8, 18876, Control_c, 6, 11, 95
8, 18877, Control_c, 6, 11, 93
8, 18878, Control_c, 6, 11, 90
8, 18879, Control_c, 6, 11, 87
8, 18880, Control_c, 6, 11, 85
8, 18881, Control_c, 6, 11, 82
8, 18882, Control_c, 6, 11, 79
8, 18883, Control_c, 6, 11, 77
8, 18884, Control_c, 6, 11, 74
8, 18885, Control_c, 6, 11, 71
8, 18886, Control_c, 6, 11, 69
8, 18887, Control_c, 6, 11, 66
8, 18888, Control_c, 6, 11, 64
8, 18889, Control_c, 6, 11, 61
8, 18890, Control_c, 6, 11, 58
8, 18891, Control_c, 6, 11, 56
8, 18892, Control_c, 6, 11, 53
8, 18893, Control_c, 6, 11, 50
8, 18894, Control_c, 6, 11, 48
8, 18895, Control_c, 6, 11, 45
8, 18896, Control_c, 6, 11, 42
8, 18897, Control_c, 6, 11, 40
8, 18898, Control_c, 6, 11, 37
8, 18899, Control_c, 6, 11, 34
8, 18900, Control_c, 6, 11, 32
8, 18901, Control_c, 6, 11, 29
8, 18902, Control_c, 6, 11, 26
8, 18903, Control_c, 6, 11, 24
8, 18904, Control_c, 6, 11, 21
8, 18905, Control_c, 6, 11, 19
8, 18906, Control_c, 6, 11, 16
8, 18907, Control_c, 6, 11, 13
8, 18908, Control_c, 6, 11, 11
8, 18909, Control_c, 6, 11, 8
8, 18910, Control_c, 6, 11, 5
8, 18911, Control_c, 6, 11, 3
8, 18912, Note_off_c, 6, 33, 64
8, 18912, Control_c, 6, 11, 127
8, 18912, Note_on_c, 6, 87, 64
8, 18913, Control_c, 6, 11, 124
8, 18914, Control_c, 6, 11, 122
8, 18915, Control_c, 6, 11, 119
8, 18916, Control_c, 6, 11, 116
8, 18917, Control_c, 6, 11, 114
8, 18918, Control_c, 6, 11, 111
8, 18919, Control_c, 6, 11, 108
8, 18920, Control_c, 6, 11, 106
8, 18921, Control_c, 6, 11, 103
8, 18922, Control_c, 6, 11, 101
8, 18923, Control_c, 6, 11, 98
8, 18924, Control_c, 6, 11, 95
8, 18925, Control_c, 6, 11, 93
8, 18926, Control_c, 6, 11, 90
8, 18927, Control_c, 6, 11, 87
8, 18928, Control_c, 6, 11, 85
8, 18929, Control_c, 6, 11, 82
8, 18930, Control_c, 6, 11, 79
8, 18931, Control_c, 6, 11, 77
8, 18932, Control_c, 6, 11, 74
8, 18933, Control_c, 6, 11, 71
8, 18934, Control_c, 6, 11, 69
8, 18935, Control_c, 6, 11, 66
8, 18936, Control_c, 6, 11, 64
8, 18937, Control_c, 6, 11, 61
8, 18938, Control_c, 6, 11, 58
8, 18939, Control_c, 6, 11, 56
8, 18940, Control_c, 6, 11, 53
8, 18941, Control_c, 6, 11, 50
8, 18942, Control_c, 6, 11, 48
8, 18943, Control_c, 6, 11, 45
8, 18944, Control_c, 6, 11, 42
8, 18945, Control_c, 6, 11, 40
8, 18946, Control_c, 6, 11, 37
8, 18947, Control_c, 6, 11, 34
8, 18948, Control_c, 6, 11, 32
8, 18949, Control_c, 6, 11, 29
8, 18950, Control_c, 6, 11, 26
8, 18951, Control_c, 6, 11, 24
8, 18952, Control_c, 6, 11, 21
8, 18953, Control_c, 6, 11, 19
8, 18954, Control_c, 6, 11, 16
8, 18955, Control_c, 6, 11, 13
8, 18956, Control_c, 6, 11, 11
8, 18957, Control_c, 6, 11, 8
8, 18958, Control_c, 6, 11, 5
8, 18959, Control_c, 6, 11, 3
8, 18960, Note_off_c, 6, 87, 64
8, 18960, Control_c, 6, 11, 127
8, 18960, Note_on_c, 6, 33, 64
8, 18961, Control_c, 6, 11, 124
8, 18962, Control_c, 6, 11, 122
8, 18963, Control_c, 6, 11, 119
8, 18964, Control_c, 6, 11, 116
8, 18965, Control_c, 6, 11, 114
8, 18966, Control_c, 6, 11, 111
8, 18967, Control_c, 6, 11, 108
8, 18968, Control_c, 6, 11, 106
8, 18969, Control_c, 6, 11, 103
8, 18970, Control_c, 6, 11, 101
8, 18971, Control_c, 6, 11, 98
8, 18972, Control_c, 6, 11, 95
8, 18973, Control_c, 6, 11, 93
8, 18974, Control_c, 6, 11, 90
8, 18975, Control_c, 6, 11, 87
8, 18976, Control_c, 6, 11, 85
8, 18977, Control_c, 6, 11, 82
8, 18978, Control_c, 6, 11, 79
8, 18979, Control_c, 6, 11, 77
8, 18980, Control_c, 6, 11, 74
8, 18981, Control_c, 6, 11, 71
8, 18982, Control_c, 6, 11, 69
8, 18983, Control_c, 6, 11, 66
8, 18984, Control_c, 6, 11, 64
8, 18985, Control_c, 6, 11, 61
8, 18986, Control_c, 6, 11, 58
8, 18987, Control_c, 6, 11, 56
8, 18988, Control_c, 6, 11, 53
8, 18989, Control_c, 6, 11, 50
8, 18990, Control_c, 6, 11, 48
8, 18991, Control_c, 6, 11, 45
8, 18992, Control_c, 6, 11, 42
8, 18993, Control_c, 6, 11, 40
8, 18994, Control_c, 6, 11, 37
8, 18995, Control_c, 6, 11, 34
8, 18996, Control_c, 6, 11, 32
8, 18997, Control_c, 6, 11, 29
8, 18998, Control_c, 6, 11, 26
8, 18999, Control_c, 6, 11, 24
8, 19000, Control_c, 6, 11, 21
8, 19001, Control_c, 6, 11, 19
8, 19002, Control_c, 6, 11, 16
8, 19003, Control_c, 6, 11, 13
8, 19004, Control_c, 6, 11, 11
8, 19005, Control_c, 6, 11, 8
8, 19006, Control_c, 6, 11, 5
8, 19007, Control_c, 6, 11, 3
8, 19008, Note_off_c, 6, 33, 64
8, 19008, Control_c, 6, 11, 127
8, 19008, Note_on_c, 6, 63, 64
8, 19009, Control_c, 6, 11, 124
8, 19010, Control_c, 6, 11, 122
8, 19011, Control_c, 6, 11, 119
8, 19012, Control_c, 6, 11, 116
8, 19013, Control_c, 6, 11, 114
8, 19014, Control_c, 6, 11, 111
8, 19015, Control_c, 6, 11, 108
8, 19016, Control_c, 6, 11, 106
8, 19017, Control_c, 6, 11, 103
8, 19018, Control_c, 6, 11, 101
8, 19019, Control_c, 6, 11, 98
8, 19020, Control_c, 6, 11, 95
8, 19021, Control_c, 6, 11, 93
8, 19022, Control_c, 6, 11, 90
8, 19023, Control_c, 6, 11, 87
8, 19024, Control_c, 6, 11, 85
8, 19025, Control_c, 6, 11, 82
8, 19026, Control_c, 6, 11, 79
8, 19027, Control_c, 6, 11, 77
8, 19028, Control_c, 6, 11, 74
8, 19029, Control_c, 6, 11, 71
8, 19030, Control_c, 6, 11, 69
8, 19031, Control_c, 6, 11, 66
8, 19032, Control_c, 6, 11, 64
8, 19033, Control_c, 6, 11, 61
8, 19034, Control_c, 6, 11, 58
8, 19035, Control_c, 6, 11, 56
8, 19036, Control_c, 6, 11, 53
8, 19037, Control_c, 6, 11, 50
8, 19038, Control_c, 6, 11, 48
8, 19039, Control_c, 6, 11, 45
8, 19040, Control_c, 6, 11, 42
8, 19041, Control_c, 6, 11, 40
8, 19042, Control_c, 6, 11, 37
8, 19043, Control_c, 6, 11, 34
8, 19044, Control_c, 6, 11, 32
8, 19045, Control_c, 6, 11, 29
8, 19046, Control_c, 6, 11, 26
8, 19047, Control_c, 6, 11, 24
8, 19048, Control_c, 6, 11, 21
8, 19049, Control_c, 6, 11, 19
8, 19050, Control_c, 6, 11, 16
8, 19051, Control_c, 6, 11, 13
8, 19052, Control_c, 6, 11, 11
8, 19053, Control_c, 6, 11, 8
8, 19054, Control_c, 6, 11, 5
8, 19055, Control_c, 6, 11, 3
8, 19056, Note_off_c, 6, 63, 64
8, 19056, Control_c, 6, 11, 127
8, 19056, Note_on_c, 6, 33, 64
8, 19057, Control_c, 6, 11, 124
8, 19058, Control_c, 6, 11, 122
8, 19059, Control_c, 6, 11, 119
8, 19060, Control_c, 6, 11, 116
8, 19061, Control_c, 6, 11, 114
8, 19062, Control_c, 6, 11, 111
8, 19063, Control_c, 6, 11, 108
8, 19064, Control_c, 6, 11, 106
8, 19065, Control_c, 6, 11, 103
8, 19066, Control_c, 6, 11, 101
8, 19067, Control_c, 6, 11, 98
8, 19068, Control_c, 6, 11, 95
8, 19069, Control_c, 6, 11, 93
8, 19070, Control_c, 6, 11, 90
8, 19071, Control_c, 6, 11, 87
8, 19072, Control_c, 6, 11, 85
8, 19073, Control_c, 6, 11, 82
8, 19074, Control_c, 6, 11, 79
8, 19075, Control_c, 6, 11, 77
8, 19076, Control_c, 6, 11, 74
8, 19077, Control_c, 6, 11, 71
8, 19078, Control_c, 6, 11, 69
8, 19079, Control_c, 6, 11, 66
8, 19080, Control_c, 6, 11, 64
8, 19081, Control_c, 6, 11, 61
8, 19082, Control_c, 6, 11, 58
8, 19083, Control_c, 6, 11, 56
8, 19084, Control_c, 6, 11, 53
8, 19085, Control_c, 6, 11, 50
8, 19086, Control_c, 6, 11, 48
8, 19087, Control_c, 6, 11, 45
8, 19088, Control_c, 6, 11, 42
8, 19089, Control_c, 6, 11, 40
8, 19090, Control_c, 6, 11, 37
8, 19091, Control_c, 6, 11, 34
8, 19092, Control_c, 6, 11, 32
8, 19093, Control_c, 6, 11, 29
8, 19094, Control_c, 6, 11, 26
8, 19095, Control_c, 6, 11, 24
8, 19096, Control_c, 6, 11, 21
8, 19097, Control_c, 6, 11, 19
8, 19098, Control_c, 6, 11, 16
8, 19099, Control_c, 6, 11, 13
8, 19100, Control_c, 6, 11, 11
8, 19101, Control_c, 6, 11, 8
8, 19102, Control_c, 6, 11, 5
8, 19103, Control_c, 6, 11, 3
8, 19104, Note_off_c, 6, 33, 64
8, 19104, Control_c, 6, 11, 127
8, 19104, Note_on_c, 6, 87, 64
8, 19105, Control_c, 6, 11, 124
8, 19106, Control_c, 6, 11, 122
8, 19107, Control_c, 6, 11, 119
8, 19108, Control_c, 6, 11, 116
8, 19109, Control_c, 6, 11, 114
8, 19110, Control_c, 6, 11, 111
8, 19111, Control_c, 6, 11, 108
8, 19112, Control_c, 6, 11, 106
8, 19113, Control_c, 6, 11, 103
8, 19114, Control_c, 6, 11, 101
8, 19115, Control_c, 6, 11, 98
8, 19116, Control_c, 6, 11, 95
8, 19117, Control_c, 6, 11, 93
8, 19118, Control_c, 6, 11, 90
8, 19119, Control_c, 6, 11, 87
8, 19120, Control_c, 6, 11, 85
8, 19121, Control_c, 6, 11, 82
8, 19122, Control_c, 6, 11, 79
8, 19123, Control_c, 6, 11, 77
8, 19124, Control_c, 6, 11, 74
8, 19125, Control_c, 6, 11, 71
8, 19126, Control_c, 6, 11, 69
8, 19127, Control_c, 6, 11, 66
8, 19128, Control_c, 6, 11, 64
8, 19129, Control_c, 6, 11, 61
8, 19130, Control_c, 6, 11, 58
8, 19131, Control_c, 6, 11, 56
8, 19132, Control_c, 6, 11, 53
8, 19133, Control_c, 6, 11, 50
8, 19134, Control_c, 6, 11, 48
8, 19135, Control_c, 6, 11, 45
8, 19136, Control_c, 6, 11, 42
8, 19137, Control_c, 6, 11, 40
8, 19138, Control_c, 6, 11, 37
8, 19139, Control_c, 6, 11, 34
8, 19140, Control_c, 6, 11, 32
8, 19141, Control_c, 6, 11, 29
8, 19142, Control_c, 6, 11, 26
8, 19143, Control_c, 6, 11, 24
8, 19144, Control_c, 6, 11, 21
8, 19145, Control_c, 6, 11, 19
8, 19146, Control_c, 6, 11, 16
8, 19147, Control_c, 6, 11, 13
8, 19148, Control_c, 6, 11, 11
8, 19149, Control_c, 6, 11, 8
8, 19150, Control_c, 6, 11, 5
8, 19151, Control_c, 6, 11, 3
8, 19152, Note_off_c, 6, 87, 64
8, 19152, Control_c, 6, 11, 127
8, 19152, Note_on_c, 6, 33, 64
8, 19153, Control_c, 6, 11, 124
8, 19154, Control_c, 6, 11, 122
8, 19155, Control_c, 6, 11, 119
8, 19156, Control_c, 6, 11, 116
8, 19157, Control_c, 6, 11, 114
8, 19158, Control_c, 6, 11, 111
8, 19159, Control_c, 6, 11, 108
8, 19160, Control_c, 6, 11, 106
8, 19161, Control_c, 6, 11, 103
8, 19162, Control_c, 6, 11, 101
8, 19163, Control_c, 6, 11, 98
8, 19164, Control_c, 6, 11, 95
8, 19165, Control_c, 6, 11, 93
8, 19166, Control_c, 6, 11, 90
8, 19167, Control_c, 6, 11, 87
8, 19168, Control_c, 6, 11, 85
8, 19169, Control_c, 6, 11, 82
8, 19170, Control_c, 6, 11, 79
8, 19171, Control_c, 6, 11, 77
8, 19172, Control_c, 6, 11, 74
8, 19173, Control_c, 6, 11, 71
8, 19174, Control_c, 6, 11, 69
8, 19175, Control_c, 6, 11, 66
8, 19176, Control_c, 6, 11, 64
8, 19177, Control_c, 6, 11, 61
8, 19178, Control_c, 6, 11, 58
8, 19179, Control_c, 6, 11, 56
8, 19180, Control_c, 6, 11, 53
8, 19181, Control_c, 6, 11, 50
8, 19182, Control_c, 6, 11, 48
8, 19183, Control_c, 6, 11, 45
8, 19184, Control_c, 6, 11, 42
8, 19185, Control_c, 6, 11, 40
8, 19186, Control_c, 6, 11, 37
8, 19187, Control_c, 6, 11, 34
8, 19188, Control_c, 6, 11, 32
8, 19189, Control_c, 6, 11, 29
8, 19190, Control_c, 6, 11, 26
8, 19191, Control_c, 6, 11, 24
8, 19192, Control_c, 6, 11, 21
8, 19193, Control_c, 6, 11, 19
8, 19194, Control_c, 6, 11, 16
8, 19195, Control_c, 6, 11, 13
8, 19196, Control_c, 6, 11, 11
8, 19197, Control_c, 6, 11, 8
8, 19198, Control_c, 6, 11, 5
8, 19199, Control_c, 6, 11, 3
8, 19200, Note_off_c, 6, 33, 64
8, 19200, Control_c, 6, 11, 127
8, 19200, Note_on_c, 6, 93, 64
8, 19201, Control_c, 6, 11, 124
8, 19202, Control_c, 6, 11, 122
8, 19203, Control_c, 6, 11, 119
8, 19204, Control_c, 6, 11, 116
8, 19205, Control_c, 6, 11, 114
8, 19206, Control_c, 6, 11, 111
8, 19207, Control_c, 6, 11, 108
8, 19208, Control_c, 6, 11, 106
8, 19209, Control_c, 6, 11, 103
8, 19210, Control_c, 6, 11, 101
8, 19211, Control_c, 6, 11, 98
8, 19212, Control_c, 6, 11, 95
8, 19213, Control_c, 6, 11, 93
8, 19214, Control_c, 6, 11, 90
8, 19215, Control_c, 6, 11, 87
8, 19216, Control_c, 6, 11, 85
8, 19217, Control_c, 6, 11, 82
8, 19218, Control_c, 6, 11, 79
8, 19219, Control_c, 6, 11, 77
8, 19220, Control_c, 6, 11, 74
8, 19221, Control_c, 6, 11, 71
8, 19222, Control_c, 6, 11, 69
8, 19223, Control_c, 6, 11, 66
8, 19224, Control_c, 6, 11, 64
8, 19225, Control_c, 6, 11, 61
8, 19226, Control_c, 6, 11, 58
8, 19227, Control_c, 6, 11, 56
8, 19228, Control_c, 6, 11, 53
8, 19229, Control_c, 6, 11, 50
8, 19230, Control_c, 6, 11, 48
8, 19231, Control_c, 6, 11, 45
8, 19232, Control_c, 6, 11, 42
8, 19233, Control_c, 6, 11, 40
8, 19234, Control_c, 6, 11, 37
8, 19235, Control_c, 6, 11, 34
8, 19236, Control_c, 6, 11, 32
8, 19237, Control_c, 6, 11, 29
8, 19238, Control_c, 6, 11, 26
8, 19239, Control_c, 6, 11, 24
8, 19240, Control_c, 6, 11, 21
8, 19241, Control_c, 6, 11, 19
8, 19242, Control_c, 6, 11, 16
8, 19243, Control_c, 6, 11, 13
8, 19244, Control_c, 6, 11, 11
8, 19245, Control_c, 6, 11, 8
8, 19246, Control_c, 6, 11, 5
8, 19247, Control_c, 6, 11, 3
8, 19248, Note_off_c, 6, 93, 64
8, 19248, Control_c, 6, 11, 127
8, 19248, Note_on_c, 6, 33, 64
8, 19249, Control_c, 6, 11, 124
8, 19250, Control_c, 6, 11, 122
8, 19251, Control_c, 6, 11, 119
8, 19252, Control_c, 6, 11, 116
8, 19253, Control_c, 6, 11, 114
8, 19254, Control_c, 6, 11, 111
8, 19255, Control_c, 6, 11, 108
8, 19256, Control_c, 6, 11, 106
8, 19257, Control_c, 6, 11, 103
8, 19258, Control_c, 6, 11, 101
8, 19259, Control_c, 6, 11, 98
8, 19260, Control_c, 6, 11, 95
8, 19261, Control_c, 6, 11, 93
8, 19262, Control_c, 6, 11, 90
8, 19263, Control_c, 6, 11, 87
8, 19264, Control_c, 6, 11, 85
8, 19265, Control_c, 6, 11, 82
8, 19266, Control_c, 6, 11, 79
8, 19267, Control_c, 6, 11, 77
8, 19268, Control_c, 6, 11, 74
8, 19269, Control_c, 6, 11, 71
8, 19270, Control_c, 6, 11, 69
8, 19271, Control_c, 6, 11, 66
8, 19272, Control_c, 6, 11, 64
8, 19273, Control_c, 6, 11, 61
8, 19274, Control_c, 6, 11, 58
8, 19275, Control_c, 6, 11, 56
8, 19276, Control_c, 6, 11, 53
8, 19277, Control_c, 6, 11, 50
8, 19278, Control_c, 6, 11, 48
8, 19279, Control_c, 6, 11, 45
8, 19280, Control_c, 6, 11, 42
8, 19281, Control_c, 6, 11, 40
8, 19282, Control_c, 6, 11, 37
8, 19283, Control_c, 6, 11, 34
8, 19284, Control_c, 6, 11, 32
8, 19285, Control_c, 6, 11, 29
8, 19286, Control_c, 6, 11, 26
8, 19287, Control_c, 6, 11, 24
8, 19288, Control_c, 6, 11, 21
8, 19289, Control_c, 6, 11, 19
8, 19290, Control_c, 6, 11, 16
8, 19291, Control_c, 6, 11, 13
8, 19292, Control_c, 6, 11, 11
8, 19293, Control_c, 6, 11, 8
8, 19294, Control_c, 6, 11, 5
8, 19295, Control_c, 6, 11, 3
8, 19296, Note_off_c, 6, 33, 64
8, 19296, Control_c, 6, 11, 127
8, 19296, Note_on_c, 6, 87, 64
8, 19297, Control_c, 6, 11, 124
8, 19298, Control_c, 6, 11, 122
8, 19299, Control_c, 6, 11, 119
8, 19300, Control_c, 6, 11, 116
8, 19301, Control_c, 6, 11, 114
8, 19302, Control_c, 6, 11, 111
8, 19303, Control_c, 6, 11, 108
8, 19304, Control_c, 6, 11, 106
8, 19305, Control_c, 6, 11, 103
8, 19306, Control_c, 6, 11, 101
8, 19307, Control_c, 6, 11, 98
8, 19308, Control_c, 6, 11, 95
8, 19309, Control_c, 6, 11, 93
8, 19310, Control_c, 6, 11, 90
8, 19311, Control_c, 6, 11, 87
8, 19312, Control_c, 6, 11, 85
8, 19313, Control_c, 6, 11, 82
8, 19314, Control_c, 6, 11, 79
8, 19315, Control_c, 6, 11, 77
8, 19316, Control_c, 6, 11, 74
8, 19317, Control_c, 6, 11, 71
8, 19318, Control_c, 6, 11, 69
8, 19319, Control_c, 6, 11, 66
8, 19320, Control_c, 6, 11, 64
8, 19321, Control_c, 6, 11, 61
8, 19322, Control_c, 6, 11, 58
8, 19323, Control_c, 6, 11, 56
8, 19324, Control_c, 6, 11, 53
8, 19325, Control_c, 6, 11, 50
8, 19326, Control_c, 6, 11, 48
8, 19327, Control_c, 6, 11, 45
8, 19328, Control_c, 6, 11, 42
8, 19329, Control_c, 6, 11, 40
8, 19330, Control_c, 6, 11, 37
8, 19331, Control_c, 6, 11, 34
8, 19332, Control_c, 6, 11, 32
8, 19333, Control_c, 6, 11, 29
8, 19334, Control_c, 6, 11, 26
8, 19335, Control_c, 6, 11, 24
8, 19336, Control_c, 6, 11, 21
8, 19337, Control_c, 6, 11, 19
8, 19338, Control_c, 6, 11, 16
8, 19339, Control_c, 6, 11, 13
8, 19340, Control_c, 6, 11, 11
8, 19341, Control_c, 6, 11, 8
8, 19342, Control_c, 6, 11, 5
8, 19343, Control_c, 6, 11, 3
8, 19344, Note_off_c, 6, 87, 64
8, 19344, Control_c, 6, 11, 127
8, 19344, Note_on_c, 6, 33, 64
8, 19345, Control_c, 6, 11, 124
8, 19346, Control_c, 6, 11, 122
8, 19347, Control_c, 6, 11, 119
8, 19348, Control_c, 6, 11, 116
8, 19349, Control_c, 6, 11, 114
8, 19350, Control_c, 6, 11, 111
8, 19351, Control_c, 6, 11, 108
8, 19352, Control_c, 6, 11, 106
8, 19353, Control_c, 6, 11, 103
8, 19354, Control_c, 6, 11, 101
8, 19355, Control_c, 6, 11, 98
8, 19356, Control_c, 6, 11, 95
8, 19357, Control_c, 6, 11, 93
8, 19358, Control_c, 6, 11, 90
8, 19359, Control_c, 6, 11, 87
8, 19360, Control_c, 6, 11, 85
8, 19361, Control_c, 6, 11, 82
8, 19362, Control_c, 6, 11, 79
8, 19363, Control_c, 6, 11, 77
8, 19364, Control_c, 6, 11, 74
8, 19365, Control_c, 6, 11, 71
8, 19366, Control_c, 6, 11, 69
8, 19367, Control_c, 6, 11, 66
8, 19368, Control_c, 6, 11, 64
8, 19369, Control_c, 6, 11, 61
8, 19370, Control_c, 6, 11, 58
8, 19371, Control_c, 6, 11, 56
8, 19372, Control_c, 6, 11, 53
8, 19373, Control_c, 6, 11, 50
8, 19374, Control_c, 6, 11, 48
8, 19375, Control_c, 6, 11, 45
8, 19376, Control_c, 6, 11, 42
8, 19377, Control_c, 6, 11, 40
8, 19378, Control_c, 6, 11, 37
8, 19379, Control_c, 6, 11, 34
8, 19380, Control_c, 6, 11, 32
8, 19381, Control_c, 6, 11, 29
8, 19382, Control_c, 6, 11, 26
8, 19383, Control_c, 6, 11, 24
8, 19384, Control_c, 6, 11, 21
8, 19385, Control_c, 6, 11, 19
8, 19386, Control_c, 6, 11, 16
8, 19387, Control_c, 6, 11, 13
8, 19388, Control_c, 6, 11, 11
8, 19389, Control_c, 6, 11, 8
8, 19390, Control_c, 6, 11, 5
8, 19391, Control_c, 6, 11, 3
8, 19392, Note_off_c, 6, 33, 64
8, 19392, Control_c, 6, 11, 127
8, 19392, Note_on_c, 6, 63, 64
8, 19393, Control_c, 6, 11, 124
8, 19394, Control_c, 6, 11, 122
8, 19395, Control_c, 6, 11, 119
8, 19396, Control_c, 6, 11, 116
8, 19397, Control_c, 6, 11, 114
8, 19398, Control_c, 6, 11, 111
8, 19399, Control_c, 6, 11, 108
8, 19400, Control_c, 6, 11, 106
8, 19401, Control_c, 6, 11, 103
8, 19402, Control_c, 6, 11, 101
8, 19403, Control_c, 6, 11, 98
8, 19404, Control_c, 6, 11, 95
8, 19405, Control_c, 6, 11, 93
8, 19406, Control_c, 6, 11, 90
8, 19407, Control_c, 6, 11, 87
8, 19408, Control_c, 6, 11, 85
8, 19409, Control_c, 6, 11, 82
8, 19410, Control_c, 6, 11, 79
8, 19411, Control_c, 6, 11, 77
8, 19412, Control_c, 6, 11, 74
8, 19413, Control_c, 6, 11, 71
8, 19414, Control_c, 6, 11, 69
8, 19415, Control_c, 6, 11, 66
8, 19416, Control_c, 6, 11, 64
8, 19417, Control_c, 6, 11, 61
8, 19418, Control_c, 6, 11, 58
8, 19419, Control_c, 6, 11, 56
8, 19420, Control_c, 6, 11, 53
8, 19421, Control_c, 6, 11, 50
8, 19422, Control_c, 6, 11, 48
8, 19423, Control_c, 6, 11, 45
8, 19424, Control_c, 6, 11, 42
8, 19425, Control_c, 6, 11, 40
8, 19426, Control_c, 6, 11, 37
8, 19427, Control_c, 6, 11, 34
8, 19428, Control_c, 6, 11, 32
8, 19429, Control_c, 6, 11, 29
8, 19430, Control_c, 6, 11, 26
8, 19431, Control_c, 6, 11, 24
8, 19432, Control_c, 6, 11, 21
8, 19433, Control_c, 6, 11, 19
8, 19434, Control_c, 6, 11, 16
8, 19435, Control_c, 6, 11, 13
8, 19436, Control_c, 6, 11, 11
8, 19437, Control_c, 6, 11, 8
8, 19438, Control_c, 6, 11, 5
8, 19439, Control_c, 6, 11, 3
8, 19440, Note_off_c, 6, 63, 64
8, 19440, Control_c, 6, 11, 127
8, 19440, Note_on_c, 6, 33, 64
8, 19441, Control_c, 6, 11, 124
8, 19442, Control_c, 6, 11, 122
8, 19443, Control_c, 6, 11, 119
8, 19444, Control_c, 6, 11, 116
8, 19445, Control_c, 6, 11, 114
8, 19446, Control_c, 6, 11, 111
8, 19447, Control_c, 6, 11, 108
8, 19448, Control_c, 6, 11, 106
8, 19449, Control_c, 6, 11, 103
8, 19450, Control_c, 6, 11, 101
8, 19451, Control_c, 6, 11, 98
8, 19452, Control_c, 6, 11, 95
8, 19453, Control_c, 6, 11, 93
8, 19454, Control_c, 6, 11, 90
8, 19455, Control_c, 6, 11, 87
8, 19456, Control_c, 6, 11, 85
8, 19457, Control_c, 6, 11, 82
8, 19458, Control_c, 6, 11, 79
8, 19459, Control_c, 6, 11, 77
8, 19460, Control_c, 6, 11, 74
8, 19461, Control_c, 6, 11, 71
8, 19462, Control_c, 6, 11, 69
8, 19463, Control_c, 6, 11, 66
8, 19464, Control_c, 6, 11, 64
8, 19465, Control_c, 6, 11, 61
8, 19466, Control_c, 6, 11, 58
8, 19467, Control_c, 6, 11, 56
8, 19468, Control_c, 6, 11, 53
8, 19469, Control_c, 6, 11, 50
8, 19470, Control_c, 6, 11, 48
8, 19471, Control_c, 6, 11, 45
8, 19472, Control_c, 6, 11, 42
8, 19473, Control_c, 6, 11, 40
8, 19474, Control_c, 6, 11, 37
8, 19475, Control_c, 6, 11, 34
8, 19476, Control_c, 6, 11, 32
8, 19477, Control_c, 6, 11, 29
8, 19478, Control_c, 6, 11, 26
8, 19479, Control_c, 6, 11, 24
8, 19480, Control_c, 6, 11, 21
8, 19481, Control_c, 6, 11, 19
8, 19482, Control_c, 6, 11, 16
8, 19483, Control_c, 6, 11, 13
8, 19484, Control_c, 6, 11, 11
8, 19485, Control_c, 6, 11, 8
8, 19486, Control_c, 6, 11, 5
8, 19487, Control_c, 6, 11, 3
8, 19488, Note_off_c, 6, 33, 64
8, 19488, Control_c, 6, 11, 127
8, 19488, Note_on_c, 6, 93, 64
8, 19489, Control_c, 6, 11, 124
8, 19490, Control_c, 6, 11, 122
8, 19491, Control_c, 6, 11, 119
8, 19492, Control_c, 6, 11, 116
8, 19493, Control_c, 6, 11, 114
8, 19494, Control_c, 6, 11, 111
8, 19495, Control_c, 6, 11, 108
8, 19496, Control_c, 6, 11, 106
8, 19497, Control_c, 6, 11, 103
8, 19498, Control_c, 6, 11, 101
8, 19499, Control_c, 6, 11, 98
8, 19500, Control_c, 6, 11, 95
8, 19501, Control_c, 6, 11, 93
8, 19502, Control_c, 6, 11, 90
8, 19503, Control_c, 6, 11, 87
8, 19504, Control_c, 6, 11, 85
8, 19505, Control_c, 6, 11, 82
8, 19506, Control_c, 6, 11, 79
8, 19507, Control_c, 6, 11, 77
8, 19508, Control_c, 6, 11, 74
8, 19509, Control_c, 6, 11, 71
8, 19510, Control_c, 6, 11, 69
8, 19511, Control_c, 6, 11, 66
8, 19512, Control_c, 6, 11, 64
8, 19513, Control_c, 6, 11, 61
8, 19514, Control_c, 6, 11, 58
8, 19515, Control_c, 6, 11, 56
8, 19516, Control_c, 6, 11, 53
8, 19517, Control_c, 6, 11, 50
8, 19518, Control_c, 6, 11, 48
8, 19519, Control_c, 6, 11, 45
8, 19520, Control_c, 6, 11, 42
8, 19521, Control_c, 6, 11, 40
8, 19522, Control_c, 6, 11, 37
8, 19523, Control_c, 6, 11, 34
8, 19524, Control_c, 6, 11, 32
8, 19525, Control_c, 6, 11, 29
8, 19526, Control_c, 6, 11, 26
8, 19527, Control_c, 6, 11, 24
8, 19528, Control_c, 6, 11, 21
8, 19529, Control_c, 6, 11, 19
8, 19530, Control_c, 6, 11, 16
8, 19531, Control_c, 6, 11, 13
8, 19532, Control_c, 6, 11, 11
8, 19533, Control_c, 6, 11, 8
8, 19534, Control_c, 6, 11, 5
8, 19535, Control_c, 6, 11, 3
8, 19536, Note_off_c, 6, 93, 64
8, 19536, Control_c, 6, 11, 127
8, 19536, Note_on_c, 6, 33, 64
8, 19537, Control_c, 6, 11, 124
8, 19538, Control_c, 6, 11, 122
8, 19539, Control_c, 6, 11, 119
8, 19540, Control_c, 6, 11, 116
8, 19541, Control_c, 6, 11, 114
8, 19542, Control_c, 6, 11, 111
8, 19543, Control_c, 6, 11, 108
8, 19544, Control_c, 6, 11, 106
8, 19545, Control_c, 6, 11, 103
8, 19546, Control_c, 6, 11, 101
8, 19547, Control_c, 6, 11, 98
8, 19548, Control_c, 6, 11, 95
8, 19549, Control_c, 6, 11, 93
8, 19550, Control_c, 6, 11, 90
8, 19551, Control_c, 6, 11, 87
8, 19552, Control_c, 6, 11, 85
8, 19553, Control_c, 6, 11, 82
8, 19554, Control_c, 6, 11, 79
8, 19555, Control_c, 6, 11, 77
8, 19556, Control_c, 6, 11, 74
8, 19557, Control_c, 6, 11, 71
8, 19558, Control_c, 6, 11, 69
8, 19559, Control_c, 6, 11, 66
8, 19560, Control_c, 6, 11, 64
8, 19561, Control_c, 6, 11, 61
8, 19562, Control_c, 6, 11, 58
8, 19563, Control_c, 6, 11, 56
8, 19564, Control_c, 6, 11, 53
8, 19565, Control_c, 6, 11, 50
8, 19566, Control_c, 6, 11, 48
8, 19567, Control_c, 6, 11, 45
8, 19568, Control_c, 6, 11, 42
8, 19569, Control_c, 6, 11, 40
8, 19570, Control_c, 6, 11, 37
8, 19571, Control_c, 6, 11, 34
8, 19572, Control_c, 6, 11, 32
8, 19573, Control_c, 6, 11, 29
8, 19574, Control_c, 6, 11, 26
8, 19575, Control_c, 6, 11, 24
8, 19576, Control_c, 6, 11, 21
8, 19577, Control_c, 6, 11, 19
8, 19578, Control_c, 6, 11, 16
8, 19579, Control_c, 6, 11, 13
8, 19580, Control_c, 6, 11, 11
8, 19581, Control_c, 6, 11, 8
8, 19582, Control_c, 6, 11, 5
8, 19583, Control_c, 6, 11, 3
8, 19584, Note_off_c, 6, 33, 64
8, 19584, Control_c, 6, 11, 127
8, 19584, Note_on_c, 6, 93, 64
8, 19585, Control_c, 6, 11, 124
8, 19586, Control_c, 6, 11, 122
8, 19587, Control_c, 6, 11, 119
8, 19588, Control_c, 6, 11, 116
8, 19589, Control_c, 6, 11, 114
8, 19590, Control_c, 6, 11, 111
8, 19591, Control_c, 6, 11, 108
8, 19592, Control_c, 6, 11, 106
8, 19593, Control_c, 6, 11, 103
8, 19594, Control_c, 6, 11, 101
8, 19595, Control_c, 6, 11, 98
8, 19596, Control_c, 6, 11, 95
8, 19597, Control_c, 6, 11, 93
8, 19598, Control_c, 6, 11, 90
8, 19599, Control_c, 6, 11, 87
8, 19600, Control_c, 6, 11, 85
8, 19601, Control_c, 6, 11, 82
8, 19602, Control_c, 6, 11, 79
8, 19603, Control_c, 6, 11, 77
8, 19604, Control_c, 6, 11, 74
8, 19605, Control_c, 6, 11, 71
8, 19606, Control_c, 6, 11, 69
8, 19607, Control_c, 6, 11, 66
8, 19608, Control_c, 6, 11, 64
8, 19609, Control_c, 6, 11, 61
8, 19610, Control_c, 6, 11, 58
8, 19611, Control_c, 6, 11, 56
8, 19612, Control_c, 6, 11, 53
8, 19613, Control_c, 6, 11, 50
8, 19614, Control_c, 6, 11, 48
8, 19615, Control_c, 6, 11, 45
8, 19616, Control_c, 6, 11, 42
8, 19617, Control_c, 6, 11, 40
8, 19618, Control_c, 6, 11, 37
8, 19619, Control_c, 6, 11, 34
8, 19620, Control_c, 6, 11, 32
8, 19621, Control_c, 6, 11, 29
8, 19622, Control_c, 6, 11, 26
8, 19623, Control_c, 6, 11, 24
8, 19624, Control_c, 6, 11, 21
8, 19625, Control_c, 6, 11, 19
8, 19626, Control_c, 6, 11, 16
8, 19627, Control_c, 6, 11, 13
8, 19628, Control_c, 6, 11, 11
8, 19629, Control_c, 6, 11, 8
8, 19630, Control_c, 6, 11, 5
8, 19631, Control_c, 6, 11, 3
8, 19632, Note_off_c, 6, 93, 64
8, 19632, Control_c, 6, 11, 127
8, 19632, Note_on_c, 6, 33, 64
8, 19633, Control_c, 6, 11, 124
8, 19634, Control_c, 6, 11, 122
8, 19635, Control_c, 6, 11, 119
8, 19636, Control_c, 6, 11, 116
8, 19637, Control_c, 6, 11, 114
8, 19638, Control_c, 6, 11, 111
8, 19639, Control_c, 6, 11, 108
8, 19640, Control_c, 6, 11, 106
8, 19641, Control_c, 6, 11, 103
8, 19642, Control_c, 6, 11, 101
8, 19643, Control_c, 6, 11, 98
8, 19644, Control_c, 6, 11, 95
8, 19645, Control_c, 6, 11, 93
8, 19646, Control_c, 6, 11, 90
8, 19647, Control_c, 6, 11, 87
8, 19648, Control_c, 6, 11, 85
8, 19649, Control_c, 6, 11, 82
8, 19650, Control_c, 6, 11, 79
8, 19651, Control_c, 6, 11, 77
8, 19652, Control_c, 6, 11, 74
8, 19653, Control_c, 6, 11, 71
8, 19654, Control_c, 6, 11, 69
8, 19655, Control_c, 6, 11, 66
8, 19656, Control_c, 6, 11, 64
8, 19657, Control_c, 6, 11, 61
8, 19658, Control_c, 6, 11, 58
8, 19659, Control_c, 6, 11, 56
8, 19660, Control_c, 6, 11, 53
8, 19661, Control_c, 6, 11, 50
8, 19662, Control_c, 6, 11, 48
8, 19663, Control_c, 6, 11, 45
8, 19664, Control_c, 6, 11, 42
8, 19665, Control_c, 6, 11, 40
8, 19666, Control_c, 6, 11, 37
8, 19667, Control_c, 6, 11, 34
8, 19668, Control_c, 6, 11, 32
8, 19669, Control_c, 6, 11, 29
8, 19670, Control_c, 6, 11, 26
8, 19671, Control_c, 6, 11, 24
8, 19672, Control_c, 6, 11, 21
8, 19673, Control_c, 6, 11, 19
8, 19674, Control_c, 6, 11, 16
8, 19675, Control_c, 6, 11, 13
8, 19676, Control_c, 6, 11, 11
8, 19677, Control_c, 6, 11, 8
8, 19678, Control_c, 6, 11, 5
8, 19679, Control_c, 6, 11, 3
8, 19680, Note_off_c, 6, 33, 64
8, 19680, Control_c, 6, 11, 127
8, 19680, Note_on_c, 6, 87, 64
8, 19681, Control_c, 6, 11, 124
8, 19682, Control_c, 6, 11, 122
8, 19683, Control_c, 6, 11, 119
8, 19684, Control_c, 6, 11, 116
8, 19685, Control_c, 6, 11, 114
8, 19686, Control_c, 6, 11, 111
8, 19687, Control_c, 6, 11, 108
8, 19688, Control_c, 6, 11, 106
8, 19689, Control_c, 6, 11, 103
8, 19690, Control_c, 6, 11, 101
8, 19691, Control_c, 6, 11, 98
8, 19692, Control_c, 6, 11, 95
8, 19693, Control_c, 6, 11, 93
8, 19694, Control_c, 6, 11, 90
8, 19695, Control_c, 6, 11, 87
8, 19696, Control_c, 6, 11, 85
8, 19697, Control_c, 6, 11, 82
8, 19698, Control_c, 6, 11, 79
8, 19699, Control_c, 6, 11, 77
8, 19700, Control_c, 6, 11, 74
8, 19701, Control_c, 6, 11, 71
8, 19702, Control_c, 6, 11, 69
8, 19703, Control_c, 6, 11, 66
8, 19704, Control_c, 6, 11, 64
8, 19705, Control_c, 6, 11, 61
8, 19706, Control_c, 6, 11, 58
8, 19707, Control_c, 6, 11, 56
8, 19708, Control_c, 6, 11, 53
8, 19709, Control_c, 6, 11, 50
8, 19710, Control_c, 6, 11, 48
8, 19711, Control_c, 6, 11, 45
8, 19712, Control_c, 6, 11, 42
8, 19713, Control_c, 6, 11, 40
8, 19714, Control_c, 6, 11, 37
8, 19715, Control_c, 6, 11, 34
8, 19716, Control_c, 6, 11, 32
8, 19717, Control_c, 6, 11, 29
8, 19718, Control_c, 6, 11, 26
8, 19719, Control_c, 6, 11, 24
8, 19720, Control_c, 6, 11, 21
8, 19721, Control_c, 6, 11, 19
8, 19722, Control_c, 6, 11, 16
8, 19723, Control_c, 6, 11, 13
8, 19724, Control_c, 6, 11, 11
8, 19725, Control_c, 6, 11, 8
8, 19726, Control_c, 6, 11, 5
8, 19727, Control_c, 6, 11, 3
8, 19728, Note_off_c, 6, 87, 64
8, 19728, Control_c, 6, 11, 127
8, 19728, Note_on_c, 6, 33, 64
8, 19729, Control_c, 6, 11, 124
8, 19730, Control_c, 6, 11, 122
8, 19731, Control_c, 6, 11, 119
8, 19732, Control_c, 6, 11, 116
8, 19733, Control_c, 6, 11, 114
8, 19734, Control_c, 6, 11, 111
8, 19735, Control_c, 6, 11, 108
8, 19736, Control_c, 6, 11, 106
8, 19737, Control_c, 6, 11, 103
8, 19738, Control_c, 6, 11, 101
8, 19739, Control_c, 6, 11, 98
8, 19740, Control_c, 6, 11, 95
8, 19741, Control_c, 6, 11, 93
8, 19742, Control_c, 6, 11, 90
8, 19743, Control_c, 6, 11, 87
8, 19744, Control_c, 6, 11, 85
8, 19745, Control_c, 6, 11, 82
8, 19746, Control_c, 6, 11, 79
8, 19747, Control_c, 6, 11, 77
8, 19748, Control_c, 6, 11, 74
8, 19749, Control_c, 6, 11, 71
8, 19750, Control_c, 6, 11, 69
8, 19751, Control_c, 6, 11, 66
8, 19752, Control_c, 6, 11, 64
8, 19753, Control_c, 6, 11, 61
8, 19754, Control_c, 6, 11, 58
8, 19755, Control_c, 6, 11, 56
8, 19756, Control_c, 6, 11, 53
8, 19757, Control_c, 6, 11, 50
8, 19758, Control_c, 6, 11, 48
8, 19759, Control_c, 6, 11, 45
8, 19760, Control_c, 6, 11, 42
8, 19761, Control_c, 6, 11, 40
8, 19762, Control_c, 6, 11, 37
8, 19763, Control_c, 6, 11, 34
8, 19764, Control_c, 6, 11, 32
8, 19765, Control_c, 6, 11, 29
8, 19766, Control_c, 6, 11, 26
8, 19767, Control_c, 6, 11, 24
8, 19768, Control_c, 6, 11, 21
8, 19769, Control_c, 6, 11, 19
8, 19770, Control_c, 6, 11, 16
8, 19771, Control_c, 6, 11, 13
8, 19772, Control_c, 6, 11, 11
8, 19773, Control_c, 6, 11, 8
8, 19774, Control_c, 6, 11, 5
8, 19775, Control_c, 6, 11, 3
8, 19776, Note_off_c, 6, 33, 64
8, 19776, Control_c, 6, 11, 127
8, 19776, Note_on_c, 6, 63, 64
8, 19777, Control_c, 6, 11, 124
8, 19778, Control_c, 6, 11, 122
8, 19779, Control_c, 6, 11, 119
8, 19780, Control_c, 6, 11, 116
8, 19781, Control_c, 6, 11, 114
8, 19782, Control_c, 6, 11, 111
8, 19783, Control_c, 6, 11, 108
8, 19784, Control_c, 6, 11, 106
8, 19785, Control_c, 6, 11, 103
8, 19786, Control_c, 6, 11, 101
8, 19787, Control_c, 6, 11, 98
8, 19788, Control_c, 6, 11, 95
8, 19789, Control_c, 6, 11, 93
8, 19790, Control_c, 6, 11, 90
8, 19791, Control_c, 6, 11, 87
8, 19792, Control_c, 6, 11, 85
8, 19793, Control_c, 6, 11, 82
8, 19794, Control_c, 6, 11, 79
8, 19795, Control_c, 6, 11, 77
8, 19796, Control_c, 6, 11, 74
8, 19797, Control_c, 6, 11, 71
8, 19798, Control_c, 6, 11, 69
8, 19799, Control_c, 6, 11, 66
8, 19800, Control_c, 6, 11, 64
8, 19801, Control_c, 6, 11, 61
8, 19802, Control_c, 6, 11, 58
8, 19803, Control_c, 6, 11, 56
8, 19804, Control_c, 6, 11, 53
8, 19805, Control_c, 6, 11, 50
8, 19806, Control_c, 6, 11, 48
8, 19807, Control_c, 6, 11, 45
8, 19808, Control_c, 6, 11, 42
8, 19809, Control_c, 6, 11, 40
8, 19810, Control_c, 6, 11, 37
8, 19811, Control_c, 6, 11, 34
8, 19812, Control_c, 6, 11, 32
8, 19813, Control_c, 6, 11, 29
8, 19814, Control_c, 6, 11, 26
8, 19815, Control_c, 6, 11, 24
8, 19816, Control_c, 6, 11, 21
8, 19817, Control_c, 6, 11, 19
8, 19818, Control_c, 6, 11, 16
8, 19819, Control_c, 6, 11, 13
8, 19820, Control_c, 6, 11, 11
8, 19821, Control_c, 6, 11, 8
8, 19822, Control_c, 6, 11, 5
8, 19823, Control_c, 6, 11, 3
8, 19824, Note_off_c, 6, 63, 64
8, 19824, Control_c, 6, 11, 127
8, 19824, Note_on_c, 6, 33, 64
8, 19825, Control_c, 6, 11, 124
8, 19826, Control_c, 6, 11, 122
8, 19827, Control_c, 6, 11, 119
8, 19828, Control_c, 6, 11, 116
8, 19829, Control_c, 6, 11, 114
8, 19830, Control_c, 6, 11, 111
8, 19831, Control_c, 6, 11, 108
8, 19832, Control_c, 6, 11, 106
8, 19833, Control_c, 6, 11, 103
8, 19834, Control_c, 6, 11, 101
8, 19835, Control_c, 6, 11, 98
8, 19836, Control_c, 6, 11, 95
8, 19837, Control_c, 6, 11, 93
8, 19838, Control_c, 6, 11, 90
8, 19839, Control_c, 6, 11, 87
8, 19840, Control_c, 6, 11, 85
8, 19841, Control_c, 6, 11, 82
8, 19842, Control_c, 6, 11, 79
8, 19843, Control_c, 6, 11, 77
8, 19844, Control_c, 6, 11, 74
8, 19845, Control_c, 6, 11, 71
8, 19846, Control_c, 6, 11, 69
8, 19847, Control_c, 6, 11, 66
8, 19848, Control_c, 6, 11, 64
8, 19849, Control_c, 6, 11, 61
8, 19850, Control_c, 6, 11, 58
8, 19851, Control_c, 6, 11, 56
8, 19852, Control_c, 6, 11, 53
8, 19853, Control_c, 6, 11, 50
8, 19854, Control_c, 6, 11, 48
8, 19855, Control_c, 6, 11, 45
8, 19856, Control_c, 6, 11, 42
8, 19857, Control_c, 6, 11, 40
8, 19858, Control_c, 6, 11, 37
8, 19859, Control_c, 6, 11, 34
8, 19860, Control_c, 6, 11, 32
8, 19861, Control_c, 6, 11, 29
8, 19862, Control_c, 6, 11, 26
8, 19863, Control_c, 6, 11, 24
8, 19864, Control_c, 6, 11, 21
8, 19865, Control_c, 6, 11, 19
8, 19866, Control_c, 6, 11, 16
8, 19867, Control_c, 6, 11, 13
8, 19868, Control_c, 6, 11, 11
8, 19869, Control_c, 6, 11, 8
8, 19870, Control_c, 6, 11, 5
8, 19871, Control_c, 6, 11, 3
8, 19872, Note_off_c, 6, 33, 64
8, 19872, Control_c, 6, 11, 127
8, 19872, Note_on_c, 6, 87, 64
8, 19873, Control_c, 6, 11, 124
8, 19874, Control_c, 6, 11, 122
8, 19875, Control_c, 6, 11, 119
8, 19876, Control_c, 6, 11, 116
8, 19877, Control_c, 6, 11, 114
8, 19878, Control_c, 6, 11, 111
8, 19879, Control_c, 6, 11, 108
8, 19880, Control_c, 6, 11, 106
8, 19881, Control_c, 6, 11, 103
8, 19882, Control_c, 6, 11, 101
8, 19883, Control_c, 6, 11, 98
8, 19884, Control_c, 6, 11, 95
8, 19885, Control_c, 6, 11, 93
8, 19886, Control_c, 6, 11, 90
8, 19887, Control_c, 6, 11, 87
8, 19888, Control_c, 6, 11, 85
8, 19889, Control_c, 6, 11, 82
8, 19890, Control_c, 6, 11, 79
8, 19891, Control_c, 6, 11, 77
8, 19892, Control_c, 6, 11, 74
8, 19893, Control_c, 6, 11, 71
8, 19894, Control_c, 6, 11, 69
8, 19895, Control_c, 6, 11, 66
8, 19896, Control_c, 6, 11, 64
8, 19897, Control_c, 6, 11, 61
8, 19898, Control_c, 6, 11, 58
8, 19899, Control_c, 6, 11, 56
8, 19900, Control_c, 6, 11, 53
8, 19901, Control_c, 6, 11, 50
8, 19902, Control_c, 6, 11, 48
8, 19903, Control_c, 6, 11, 45
8, 19904, Control_c, 6, 11, 42
8, 19905, Control_c, 6, 11, 40
8, 19906, Control_c, 6, 11, 37
8, 19907, Control_c, 6, 11, 34
8, 19908, Control_c, 6, 11, 32
8, 19909, Control_c, 6, 11, 29
8, 19910, Control_c, 6, 11, 26
8, 19911, Control_c, 6, 11, 24
8, 19912, Control_c, 6, 11, 21
8, 19913, Control_c, 6, 11, 19
8, 19914, Control_c, 6, 11, 16
8, 19915, Control_c, 6, 11, 13
8, 19916, Control_c, 6, 11, 11
8, 19917, Control_c, 6, 11, 8
8, 19918, Control_c, 6, 11, 5
8, 19919, Control_c, 6, 11, 3
8, 19920, Note_off_c, 6, 87, 64
8, 19920, Control_c, 6, 11, 127
8, 19920, Note_on_c, 6, 33, 64
8, 19921, Control_c, 6, 11, 124
8, 19922, Control_c, 6, 11, 122
8, 19923, Control_c, 6, 11, 119
8, 19924, Control_c, 6, 11, 116
8, 19925, Control_c, 6, 11, 114
8, 19926, Control_c, 6, 11, 111
8, 19927, Control_c, 6, 11, 108
8, 19928, Control_c, 6, 11, 106
8, 19929, Control_c, 6, 11, 103
8, 19930, Control_c, 6, 11, 101
8, 19931, Control_c, 6, 11, 98
8, 19932, Control_c, 6, 11, 95
8, 19933, Control_c, 6, 11, 93
8, 19934, Control_c, 6, 11, 90
8, 19935, Control_c, 6, 11, 87
8, 19936, Control_c, 6, 11, 85
8, 19937, Control_c, 6, 11, 82
8, 19938, Control_c, 6, 11, 79
8, 19939, Control_c, 6, 11, 77
8, 19940, Control_c, 6, 11, 74
8, 19941, Control_c, 6, 11, 71
8, 19942, Control_c, 6, 11, 69
8, 19943, Control_c, 6, 11, 66
8, 19944, Control_c, 6, 11, 64
8, 19945, Control_c, 6, 11, 61
8, 19946, Control_c, 6, 11, 58
8, 19947, Control_c, 6, 11, 56
8, 19948, Control_c, 6, 11, 53
8, 19949, Control_c, 6, 11, 50
8, 19950, Control_c, 6, 11, 48
8, 19951, Control_c, 6, 11, 45
8, 19952, Control_c, 6, 11, 42
8, 19953, Control_c, 6, 11, 40
8, 19954, Control_c, 6, 11, 37
8, 19955, Control_c, 6, 11, 34
8, 19956, Control_c, 6, 11, 32
8, 19957, Control_c, 6, 11, 29
8, 19958, Control_c, 6, 11, 26
8, 19959, Control_c, 6, 11, 24
8, 19960, Control_c, 6, 11, 21
8, 19961, Control_c, 6, 11, 19
8, 19962, Control_c, 6, 11, 16
8, 19963, Control_c, 6, 11, 13
8, 19964, Control_c, 6, 11, 11
8, 19965, Control_c, 6, 11, 8
8, 19966, Control_c, 6, 11, 5
8, 19967, Control_c, 6, 11, 3
8, 19968, Note_off_c, 6, 33, 64
8, 19968, Control_c, 6, 11, 127
8, 19968, Note_on_c, 6, 93, 64
8, 19969, Control_c, 6, 11, 124
8, 19970, Control_c, 6, 11, 122
8, 19971, Control_c, 6, 11, 119
8, 19972, Control_c, 6, 11, 116
8, 19973, Control_c, 6, 11, 114
8, 19974, Control_c, 6, 11, 111
8, 19975, Control_c, 6, 11, 108
8, 19976, Control_c, 6, 11, 106
8, 19977, Control_c, 6, 11, 103
8, 19978, Control_c, 6, 11, 101
8, 19979, Control_c, 6, 11, 98
8, 19980, Control_c, 6, 11, 95
8, 19981, Control_c, 6, 11, 93
8, 19982, Control_c, 6, 11, 90
8, 19983, Control_c, 6, 11, 87
8, 19984, Control_c, 6, 11, 85
8, 19985, Control_c, 6, 11, 82
8, 19986, Control_c, 6, 11, 79
8, 19987, Control_c, 6, 11, 77
8, 19988, Control_c, 6, 11, 74
8, 19989, Control_c, 6, 11, 71
8, 19990, Control_c, 6, 11, 69
8, 19991, Control_c, 6, 11, 66
8, 19992, Control_c, 6, 11, 64
8, 19993, Control_c, 6, 11, 61
8, 19994, Control_c, 6, 11, 58
8, 19995, Control_c, 6, 11, 56
8, 19996, Control_c, 6, 11, 53
8, 19997, Control_c, 6, 11, 50
8, 19998, Control_c, 6, 11, 48
8, 19999, Control_c, 6, 11, 45
8, 20000, Control_c, 6, 11, 42
8, 20001, Control_c, 6, 11, 40
8, 20002, Control_c, 6, 11, 37
8, 20003, Control_c, 6, 11, 34
8, 20004, Control_c, 6, 11, 32
8, 20005, Control_c, 6, 11, 29
8, 20006, Control_c, 6, 11, 26
8, 20007, Control_c, 6, 11, 24
8, 20008, Control_c, 6, 11, 21
8, 20009, Control_c, 6, 11, 19
8, 20010, Control_c, 6, 11, 16
8, 20011, Control_c, 6, 11, 13
8, 20012, Control_c, 6, 11, 11
8, 20013, Control_c, 6, 11, 8
8, 20014, Control_c, 6, 11, 5
8, 20015, Control_c, 6, 11, 3
8, 20016, Note_off_c, 6, 93, 64
8, 20016, Control_c, 6, 11, 127
8, 20016, Note_on_c, 6, 51, 64
8, 20017, Control_c, 6, 11, 124
8, 20018, Control_c, 6, 11, 122
8, 20019, Control_c, 6, 11, 119
8, 20020, Control_c, 6, 11, 116
8, 20021, Control_c, 6, 11, 114
8, 20022, Control_c, 6, 11, 111
8, 20023, Control_c, 6, 11, 108
8, 20024, Control_c, 6, 11, 106
8, 20025, Control_c, 6, 11, 103
8, 20026, Control_c, 6, 11, 101
8, 20027, Control_c, 6, 11, 98
8, 20028, Control_c, 6, 11, 95
8, 20029, Control_c, 6, 11, 93
8, 20030, Control_c, 6, 11, 90
8, 20031, Control_c, 6, 11, 87
8, 20032, Control_c, 6, 11, 85
8, 20033, Control_c, 6, 11, 82
8, 20034, Control_c, 6, 11, 79
8, 20035, Control_c, 6, 11, 77
8, 20036, Control_c, 6, 11, 74
8, 20037, Control_c, 6, 11, 71
8, 20038, Control_c, 6, 11, 69
8, 20039, Control_c, 6, 11, 66
8, 20040, Control_c, 6, 11, 64
8, 20041, Control_c, 6, 11, 61
8, 20042, Control_c, 6, 11, 58
8, 20043, Control_c, 6, 11, 56
8, 20044, Control_c, 6, 11, 53
8, 20045, Control_c, 6, 11, 50
8, 20046, Control_c, 6, 11, 48
8, 20047, Control_c, 6, 11, 45
8, 20048, Control_c, 6, 11, 42
8, 20049, Control_c, 6, 11, 40
8, 20050, Control_c, 6, 11, 37
8, 20051, Control_c, 6, 11, 34
8, 20052, Control_c, 6, 11, 32
8, 20053, Control_c, 6, 11, 29
8, 20054, Control_c, 6, 11, 26
8, 20055, Control_c, 6, 11, 24
8, 20056, Control_c, 6, 11, 21
8, 20057, Control_c, 6, 11, 19
8, 20058, Control_c, 6, 11, 16
8, 20059, Control_c, 6, 11, 13
8, 20060, Control_c, 6, 11, 11
8, 20061, Control_c, 6, 11, 8
8, 20062, Control_c, 6, 11, 5
8, 20063, Control_c, 6, 11, 3
8, 20064, Note_off_c, 6, 51, 64
8, 20064, Control_c, 6, 11, 127
8, 20064, Note_on_c, 6, 57, 64
8, 20065, Control_c, 6, 11, 124
8, 20066, Control_c, 6, 11, 122
8, 20067, Control_c, 6, 11, 119
8, 20068, Control_c, 6, 11, 116
8, 20069, Control_c, 6, 11, 114
8, 20070, Control_c, 6, 11, 111
8, 20071, Control_c, 6, 11, 108
8, 20072, Control_c, 6, 11, 106
8, 20073, Control_c, 6, 11, 103
8, 20074, Control_c, 6, 11, 101
8, 20075, Control_c, 6, 11, 98
8, 20076, Control_c, 6, 11, 95
8, 20077, Control_c, 6, 11, 93
8, 20078, Control_c, 6, 11, 90
8, 20079, Control_c, 6, 11, 87
8, 20080, Control_c, 6, 11, 85
8, 20081, Control_c, 6, 11, 82
8, 20082, Control_c, 6, 11, 79
8, 20083, Control_c, 6, 11, 77
8, 20084, Control_c, 6, 11, 74
8, 20085, Control_c, 6, 11, 71
8, 20086, Control_c, 6, 11, 69
8, 20087, Control_c, 6, 11, 66
8, 20088, Control_c, 6, 11, 64
8, 20089, Control_c, 6, 11, 61
8, 20090, Control_c, 6, 11, 58
8, 20091, Control_c, 6, 11, 56
8, 20092, Control_c, 6, 11, 53
8, 20093, Control_c, 6, 11, 50
8, 20094, Control_c, 6, 11, 48
8, 20095, Control_c, 6, 11, 45
8, 20096, Control_c, 6, 11, 42
8, 20097, Control_c, 6, 11, 40
8, 20098, Control_c, 6, 11, 37
8, 20099, Control_c, 6, 11, 34
8, 20100, Control_c, 6, 11, 32
8, 20101, Control_c, 6, 11, 29
8, 20102, Control_c, 6, 11, 26
8, 20103, Control_c, 6, 11, 24
8, 20104, Control_c, 6, 11, 21
8, 20105, Control_c, 6, 11, 19
8, 20106, Control_c, 6, 11, 16
8, 20107, Control_c, 6, 11, 13
8, 20108, Control_c, 6, 11, 11
8, 20109, Control_c, 6, 11, 8
8, 20110, Control_c, 6, 11, 5
8, 20111, Control_c, 6, 11, 3
8, 20112, Note_off_c, 6, 57, 64
8, 20112, Control_c, 6, 11, 127
8, 20112, Note_on_c, 6, 87, 64
8, 20113, Control_c, 6, 11, 124
8, 20114, Control_c, 6, 11, 122
8, 20115, Control_c, 6, 11, 119
8, 20116, Control_c, 6, 11, 116
8, 20117, Control_c, 6, 11, 114
8, 20118, Control_c, 6, 11, 111
8, 20119, Control_c, 6, 11, 108
8, 20120, Control_c, 6, 11, 106
8, 20121, Control_c, 6, 11, 103
8, 20122, Control_c, 6, 11, 101
8, 20123, Control_c, 6, 11, 98
8, 20124, Control_c, 6, 11, 95
8, 20125, Control_c, 6, 11, 93
8, 20126, Control_c, 6, 11, 90
8, 20127, Control_c, 6, 11, 87
8, 20128, Control_c, 6, 11, 85
8, 20129, Control_c, 6, 11, 82
8, 20130, Control_c, 6, 11, 79
8, 20131, Control_c, 6, 11, 77
8, 20132, Control_c, 6, 11, 74
8, 20133, Control_c, 6, 11, 71
8, 20134, Control_c, 6, 11, 69
8, 20135, Control_c, 6, 11, 66
8, 20136, Control_c, 6, 11, 64
8, 20137, Control_c, 6, 11, 61
8, 20138, Control_c, 6, 11, 58
8, 20139, Control_c, 6, 11, 56
8, 20140, Control_c, 6, 11, 53
8, 20141, Control_c, 6, 11, 50
8, 20142, Control_c, 6, 11, 48
8, 20143, Control_c, 6, 11, 45
8, 20144, Control_c, 6, 11, 42
8, 20145, Control_c, 6, 11, 40
8, 20146, Control_c, 6, 11, 37
8, 20147, Control_c, 6, 11, 34
8, 20148, Control_c, 6, 11, 32
8, 20149, Control_c, 6, 11, 29
8, 20150, Control_c, 6, 11, 26
8, 20151, Control_c, 6, 11, 24
8, 20152, Control_c, 6, 11, 21
8, 20153, Control_c, 6, 11, 19
8, 20154, Control_c, 6, 11, 16
8, 20155, Control_c, 6, 11, 13
8, 20156, Control_c, 6, 11, 11
8, 20157, Control_c, 6, 11, 8
8, 20158, Control_c, 6, 11, 5
8, 20159, Control_c, 6, 11, 3
8, 20160, Note_off_c, 6, 87, 64
8, 20160, Control_c, 6, 11, 127
8, 20160, Note_on_c, 6, 51, 64
8, 20161, Control_c, 6, 11, 124
8, 20162, Control_c, 6, 11, 122
8, 20163, Control_c, 6, 11, 119
8, 20164, Control_c, 6, 11, 116
8, 20165, Control_c, 6, 11, 114
8, 20166, Control_c, 6, 11, 111
8, 20167, Control_c, 6, 11, 108
8, 20168, Control_c, 6, 11, 106
8, 20169, Control_c, 6, 11, 103
8, 20170, Control_c, 6, 11, 101
8, 20171, Control_c, 6, 11, 98
8, 20172, Control_c, 6, 11, 95
8, 20173, Control_c, 6, 11, 93
8, 20174, Control_c, 6, 11, 90
8, 20175, Control_c, 6, 11, 87
8, 20176, Control_c, 6, 11, 85
8, 20177, Control_c, 6, 11, 82
8, 20178, Control_c, 6, 11, 79
8, 20179, Control_c, 6, 11, 77
8, 20180, Control_c, 6, 11, 74
8, 20181, Control_c, 6, 11, 71
8, 20182, Control_c, 6, 11, 69
8, 20183, Control_c, 6, 11, 66
8, 20184, Control_c, 6, 11, 64
8, 20185, Control_c, 6, 11, 61
8, 20186, Control_c, 6, 11, 58
8, 20187, Control_c, 6, 11, 56
8, 20188, Control_c, 6, 11, 53
8, 20189, Control_c, 6, 11, 50
8, 20190, Control_c, 6, 11, 48
8, 20191, Control_c, 6, 11, 45
8, 20192, Control_c, 6, 11, 42
8, 20193, Control_c, 6, 11, 40
8, 20194, Control_c, 6, 11, 37
8, 20195, Control_c, 6, 11, 34
8, 20196, Control_c, 6, 11, 32
8, 20197, Control_c, 6, 11, 29
8, 20198, Control_c, 6, 11, 26
8, 20199, Control_c, 6, 11, 24
8, 20200, Control_c, 6, 11, 21
8, 20201, Control_c, 6, 11, 19
8, 20202, Control_c, 6, 11, 16
8, 20203, Control_c, 6, 11, 13
8, 20204, Control_c, 6, 11, 11
8, 20205, Control_c, 6, 11, 8
8, 20206, Control_c, 6, 11, 5
8, 20207, Control_c, 6, 11, 3
8, 20208, Note_off_c, 6, 51, 64
8, 20208, Control_c, 6, 11, 127
8, 20208, Note_on_c, 6, 57, 64
8, 20209, Control_c, 6, 11, 124
8, 20210, Control_c, 6, 11, 122
8, 20211, Control_c, 6, 11, 119
8, 20212, Control_c, 6, 11, 116
8, 20213, Control_c, 6, 11, 114
8, 20214, Control_c, 6, 11, 111
8, 20215, Control_c, 6, 11, 108
8, 20216, Control_c, 6, 11, 106
8, 20217, Control_c, 6, 11, 103
8, 20218, Control_c, 6, 11, 101
8, 20219, Control_c, 6, 11, 98
8, 20220, Control_c, 6, 11, 95
8, 20221, Control_c, 6, 11, 93
8, 20222, Control_c, 6, 11, 90
8, 20223, Control_c, 6, 11, 87
8, 20224, Control_c, 6, 11, 85
8, 20225, Control_c, 6, 11, 82
8, 20226, Control_c, 6, 11, 79
8, 20227, Control_c, 6, 11, 77
8, 20228, Control_c, 6, 11, 74
8, 20229, Control_c, 6, 11, 71
8, 20230, Control_c, 6, 11, 69
8, 20231, Control_c, 6, 11, 66
8, 20232, Control_c, 6, 11, 64
8, 20233, Control_c, 6, 11, 61
8, 20234, Control_c, 6, 11, 58
8, 20235, Control_c, 6, 11, 56
8, 20236, Control_c, 6, 11, 53
8, 20237, Control_c, 6, 11, 50
8, 20238, Control_c, 6, 11, 48
8, 20239, Control_c, 6, 11, 45
8, 20240, Control_c, 6, 11, 42
8, 20241, Control_c, 6, 11, 40
8, 20242, Control_c, 6, 11, 37
8, 20243, Control_c, 6, 11, 34
8, 20244, Control_c, 6, 11, 32
8, 20245, Control_c, 6, 11, 29
8, 20246, Control_c, 6, 11, 26
8, 20247, Control_c, 6, 11, 24
8, 20248, Control_c, 6, 11, 21
8, 20249, Control_c, 6, 11, 19
8, 20250, Control_c, 6, 11, 16
8, 20251, Control_c, 6, 11, 13
8, 20252, Control_c, 6, 11, 11
8, 20253, Control_c, 6, 11, 8
8, 20254, Control_c, 6, 11, 5
8, 20255, Control_c, 6, 11, 3
8, 20256, Note_off_c, 6, 57, 64
8, 20256, Control_c, 6, 11, 127
8, 20256, Note_on_c, 6, 93, 64
8, 20257, Control_c, 6, 11, 126
8, 20258, Control_c, 6, 11, 124
8, 20259, Control_c, 6, 11, 123
8, 20260, Control_c, 6, 11, 122
8, 20261, Control_c, 6, 11, 120
8, 20262, Control_c, 6, 11, 119
8, 20263, Control_c, 6, 11, 118
8, 20264, Control_c, 6, 11, 116
8, 20265, Control_c, 6, 11, 115
8, 20266, Control_c, 6, 11, 114
8, 20267, Control_c, 6, 11, 112
8, 20268, Control_c, 6, 11, 111
8, 20269, Control_c, 6, 11, 110
8, 20270, Control_c, 6, 11, 108
8, 20271, Control_c, 6, 11, 107
8, 20272, Control_c, 6, 11, 106
8, 20273, Control_c, 6, 11, 105
8, 20274, Control_c, 6, 11, 103
8, 20275, Control_c, 6, 11, 102
8, 20276, Control_c, 6, 11, 101
8, 20277, Control_c, 6, 11, 99
8, 20278, Control_c, 6, 11, 98
8, 20279, Control_c, 6, 11, 97
8, 20280, Control_c, 6, 11, 95
8, 20281, Control_c, 6, 11, 94
8, 20282, Control_c, 6, 11, 93
8, 20283, Control_c, 6, 11, 91
8, 20284, Control_c, 6, 11, 90
8, 20285, Control_c, 6, 11, 89
8, 20286, Control_c, 6, 11, 87
8, 20287, Control_c, 6, 11, 86
8, 20288, Control_c, 6, 11, 85
8, 20289, Control_c, 6, 11, 83
8, 20290, Control_c, 6, 11, 82
8, 20291, Control_c, 6, 11, 81
8, 20292, Control_c, 6, 11, 79
8, 20293, Control_c, 6, 11, 78
8, 20294, Control_c, 6, 11, 77
8, 20295, Control_c, 6, 11, 75
8, 20296, Control_c, 6, 11, 74
8, 20297, Control_c, 6, 11, 73
8, 20298, Control_c, 6, 11, 71
8, 20299, Control_c, 6, 11, 70
8, 20300, Control_c, 6, 11, 69
8, 20301, Control_c, 6, 11, 67
8, 20302, Control_c, 6, 11, 66
8, 20303, Control_c, 6, 11, 65
8, 20304, Control_c, 6, 11, 64
8, 20305, Control_c, 6, 11, 62
8, 20306, Control_c, 6, 11, 61
8, 20307, Control_c, 6, 11, 60
8, 20308, Control_c, 6, 11, 58
8, 20309, Control_c, 6, 11, 57
8, 20310, Control_c, 6, 11, 56
8, 20311, Control_c, 6, 11, 54
8, 20312, Control_c, 6, 11, 53
8, 20313, Control_c, 6, 11, 52
8, 20314, Control_c, 6, 11, 50
8, 20315, Control_c, 6, 11, 49
8, 20316, Control_c, 6, 11, 48
8, 20317, Control_c, 6, 11, 46
8, 20318, Control_c, 6, 11, 45
8, 20319, Control_c, 6, 11, 44
8, 20320, Control_c, 6, 11, 42
8, 20321, Control_c, 6, 11, 41
8, 20322, Control_c, 6, 11, 40
8, 20323, Control_c, 6, 11, 38
8, 20324, Control_c, 6, 11, 37
8, 20325, Control_c, 6, 11, 36
8, 20326, Control_c, 6, 11, 34
8, 20327, Control_c, 6, 11, 33
8, 20328, Control_c, 6, 11, 32
8, 20329, Control_c, 6, 11, 30
8, 20330, Control_c, 6, 11, 29
8, 20331, Control_c, 6, 11, 28
8, 20332, Control_c, 6, 11, 26
8, 20333, Control_c, 6, 11, 25
8, 20334, Control_c, 6, 11, 24
8, 20335, Control_c, 6, 11, 22
8, 20336, Control_c, 6, 11, 21
8, 20337, Control_c, 6, 11, 20
8, 20338, Control_c, 6, 11, 19
8, 20339, Control_c, 6, 11, 17
8, 20340, Control_c, 6, 11, 16
8, 20341, Control_c, 6, 11, 15
8, 20342, Control_c, 6, 11, 13
8, 20343, Control_c, 6, 11, 12
8, 20344, Control_c, 6, 11, 11
8, 20345, Control_c, 6, 11, 9
8, 20346, Control_c, 6, 11, 8
8, 20347, Control_c, 6, 11, 7
8, 20348, Control_c, 6, 11, 5
8, 20349, Control_c, 6, 11, 4
8, 20350, Control_c, 6, 11, 3
8, 20351, Control_c, 6, 11, 1
8, 20352, Note_off_c, 6, 93, 64
8, 20352, Control_c, 6, 11, 127
8, 20352, Note_on_c, 6, 33, 64
8, 20353, Control_c, 6, 11, 124
8, 20354, Control_c, 6, 11, 122
8, 20355, Control_c, 6, 11, 119
8, 20356, Control_c, 6, 11, 116
8, 20357, Control_c, 6, 11, 114
8, 20358, Control_c, 6, 11, 111
8, 20359, Control_c, 6, 11, 108
8, 20360, Control_c, 6, 11, 106
8, 20361, Control_c, 6, 11, 103
8, 20362, Control_c, 6, 11, 101
8, 20363, Control_c, 6, 11, 98
8, 20364, Control_c, 6, 11, 95
8, 20365, Control_c, 6, 11, 93
8, 20366, Control_c, 6, 11, 90
8, 20367, Control_c, 6, 11, 87
8, 20368, Control_c, 6, 11, 85
8, 20369, Control_c, 6, 11, 82
8, 20370, Control_c, 6, 11, 79
8, 20371, Control_c, 6, 11, 77
8, 20372, Control_c, 6, 11, 74
8, 20373, Control_c, 6, 11, 71
8, 20374, Control_c, 6, 11, 69
8, 20375, Control_c, 6, 11, 66
8, 20376, Control_c, 6, 11, 64
8, 20377, Control_c, 6, 11, 61
8, 20378, Control_c, 6, 11, 58
8, 20379, Control_c, 6, 11, 56
8, 20380, Control_c, 6, 11, 53
8, 20381, Control_c, 6, 11, 50
8, 20382, Control_c, 6, 11, 48
8, 20383, Control_c, 6, 11, 45
8, 20384, Control_c, 6, 11, 42
8, 20385, Control_c, 6, 11, 40
8, 20386, Control_c, 6, 11, 37
8, 20387, Control_c, 6, 11, 34
8, 20388, Control_c, 6, 11, 32
8, 20389, Control_c, 6, 11, 29
8, 20390, Control_c, 6, 11, 26
8, 20391, Control_c, 6, 11, 24
8, 20392, Control_c, 6, 11, 21
8, 20393, Control_c, 6, 11, 19
8, 20394, Control_c, 6, 11, 16
8, 20395, Control_c, 6, 11, 13
8, 20396, Control_c, 6, 11, 11
8, 20397, Control_c, 6, 11, 8
8, 20398, Control_c, 6, 11, 5
8, 20399, Control_c, 6, 11, 3
8, 20400, Note_off_c, 6, 33, 64
8, 20400, Control_c, 6, 11, 127
8, 20400, Note_on_c, 6, 63, 64
8, 20401, Control_c, 6, 11, 124
8, 20402, Control_c, 6, 11, 122
8, 20403, Control_c, 6, 11, 119
8, 20404, Control_c, 6, 11, 116
8, 20405, Control_c, 6, 11, 114
8, 20406, Control_c, 6, 11, 111
8, 20407, Control_c, 6, 11, 108
8, 20408, Control_c, 6, 11, 106
8, 20409, Control_c, 6, 11, 103
8, 20410, Control_c, 6, 11, 101
8, 20411, Control_c, 6, 11, 98
8, 20412, Control_c, 6, 11, 95
8, 20413, Control_c, 6, 11, 93
8, 20414, Control_c, 6, 11, 90
8, 20415, Control_c, 6, 11, 87
8, 20416, Control_c, 6, 11, 85
8, 20417, Control_c, 6, 11, 82
8, 20418, Control_c, 6, 11, 79
8, 20419, Control_c, 6, 11, 77
8, 20420, Control_c, 6, 11, 74
8, 20421, Control_c, 6, 11, 71
8, 20422, Control_c, 6, 11, 69
8, 20423, Control_c, 6, 11, 66
8, 20424, Control_c, 6, 11, 64
8, 20425, Control_c, 6, 11, 61
8, 20426, Control_c, 6, 11, 58
8, 20427, Control_c, 6, 11, 56
8, 20428, Control_c, 6, 11, 53
8, 20429, Control_c, 6, 11, 50
8, 20430, Control_c, 6, 11, 48
8, 20431, Control_c, 6, 11, 45
8, 20432, Control_c, 6, 11, 42
8, 20433, Control_c, 6, 11, 40
8, 20434, Control_c, 6, 11, 37
8, 20435, Control_c, 6, 11, 34
8, 20436, Control_c, 6, 11, 32
8, 20437, Control_c, 6, 11, 29
8, 20438, Control_c, 6, 11, 26
8, 20439, Control_c, 6, 11, 24
8, 20440, Control_c, 6, 11, 21
8, 20441, Control_c, 6, 11, 19
8, 20442, Control_c, 6, 11, 16
8, 20443, Control_c, 6, 11, 13
8, 20444, Control_c, 6, 11, 11
8, 20445, Control_c, 6, 11, 8
8, 20446, Control_c, 6, 11, 5
8, 20447, Control_c, 6, 11, 3
8, 20448, Note_off_c, 6, 63, 64
8, 20448, Control_c, 6, 11, 127
8, 20448, Note_on_c, 6, 63, 64
8, 20449, Control_c, 6, 11, 122
8, 20450, Control_c, 6, 11, 116
8, 20451, Control_c, 6, 11, 111
8, 20452, Control_c, 6, 11, 106
8, 20453, Control_c, 6, 11, 101
8, 20454, Control_c, 6, 11, 95
8, 20455, Control_c, 6, 11, 90
8, 20456, Control_c, 6, 11, 85
8, 20457, Control_c, 6, 11, 79
8, 20458, Control_c, 6, 11, 74
8, 20459, Control_c, 6, 11, 69
8, 20460, Control_c, 6, 11, 64
8, 20461, Control_c, 6, 11, 58
8, 20462, Control_c, 6, 11, 53
8, 20463, Control_c, 6, 11, 48
8, 20464, Control_c, 6, 11, 42
8, 20465, Control_c, 6, 11, 37
8, 20466, Control_c, 6, 11, 32
8, 20467, Control_c, 6, 11, 26
8, 20468, Control_c, 6, 11, 21
8, 20469, Control_c, 6, 11, 16
8, 20470, Control_c, 6, 11, 11
8, 20471, Control_c, 6, 11, 5
8, 20472, Note_off_c, 6, 63, 64
8, 20472, Control_c, 6, 11, 127
8, 20472, Note_on_c, 6, 63, 64
8, 20473, Control_c, 6, 11, 122
8, 20474, Control_c, 6, 11, 116
8, 20475, Control_c, 6, 11, 111
8, 20476, Control_c, 6, 11, 106
8, 20477, Control_c, 6, 11, 101
8, 20478, Control_c, 6, 11, 95
8, 20479, Control_c, 6, 11, 90
8, 20480, Control_c, 6, 11, 85
8, 20481, Control_c, 6, 11, 79
8, 20482, Control_c, 6, 11, 74
8, 20483, Control_c, 6, 11, 69
8, 20484, Control_c, 6, 11, 64
8, 20485, Control_c, 6, 11, 58
8, 20486, Control_c, 6, 11, 53
8, 20487, Control_c, 6, 11, 48
8, 20488, Control_c, 6, 11, 42
8, 20489, Control_c, 6, 11, 37
8, 20490, Control_c, 6, 11, 32
8, 20491, Control_c, 6, 11, 26
8, 20492, Control_c, 6, 11, 21
8, 20493, Control_c, 6, 11, 16
8, 20494, Control_c, 6, 11, 11
8, 20495, Control_c, 6, 11, 5
8, 20496, Note_off_c, 6, 63, 64
8, 20496, Control_c, 6, 11, 127
8, 20496, Note_on_c, 6, 57, 64
8, 20497, Control_c, 6, 11, 122
8, 20498, Control_c, 6, 11, 116
8, 20499, Control_c, 6, 11, 111
8, 20500, Control_c, 6, 11, 106
8, 20501, Control_c, 6, 11, 101
8, 20502, Control_c, 6, 11, 95
8, 20503, Control_c, 6, 11, 90
8, 20504, Control_c, 6, 11, 85
8, 20505, Control_c, 6, 11, 79
8, 20506, Control_c, 6, 11, 74
8, 20507, Control_c, 6, 11, 69
8, 20508, Control_c, 6, 11, 64
8, 20509, Control_c, 6, 11, 58
8, 20510, Control_c, 6, 11, 53
8, 20511, Control_c, 6, 11, 48
8, 20512, Control_c, 6, 11, 42
8, 20513, Control_c, 6, 11, 37
8, 20514, Control_c, 6, 11, 32
8, 20515, Control_c, 6, 11, 26
8, 20516, Control_c, 6, 11, 21
8, 20517, Control_c, 6, 11, 16
8, 20518, Control_c, 6, 11, 11
8, 20519, Control_c, 6, 11, 5
8, 20520, Note_off_c, 6, 57, 64
8, 20520, Control_c, 6, 11, 127
8, 20520, Note_on_c, 6, 57, 64
8, 20521, Control_c, 6, 11, 122
8, 20522, Control_c, 6, 11, 116
8, 20523, Control_c, 6, 11, 111
8, 20524, Control_c, 6, 11, 106
8, 20525, Control_c, 6, 11, 101
8, 20526, Control_c, 6, 11, 95
8, 20527, Control_c, 6, 11, 90
8, 20528, Control_c, 6, 11, 85
8, 20529, Control_c, 6, 11, 79
8, 20530, Control_c, 6, 11, 74
8, 20531, Control_c, 6, 11, 69
8, 20532, Control_c, 6, 11, 64
8, 20533, Control_c, 6, 11, 58
8, 20534, Control_c, 6, 11, 53
8, 20535, Control_c, 6, 11, 48
8, 20536, Control_c, 6, 11, 42
8, 20537, Control_c, 6, 11, 37
8, 20538, Control_c, 6, 11, 32
8, 20539, Control_c, 6, 11, 26
8, 20540, Control_c, 6, 11, 21
8, 20541, Control_c, 6, 11, 16
8, 20542, Control_c, 6, 11, 11
8, 20543, Control_c, 6, 11, 5
8, 20544, Note_off_c, 6, 57, 64
8, 20544, Control_c, 6, 11, 127
8, 20544, Note_on_c, 6, 57, 64
8, 20545, Control_c, 6, 11, 122
8, 20546, Control_c, 6, 11, 116
8, 20547, Control_c, 6, 11, 111
8, 20548, Control_c, 6, 11, 106
8, 20549, Control_c, 6, 11, 101
8, 20550, Control_c, 6, 11, 95
8, 20551, Control_c, 6, 11, 90
8, 20552, Control_c, 6, 11, 85
8, 20553, Control_c, 6, 11, 79
8, 20554, Control_c, 6, 11, 74
8, 20555, Control_c, 6, 11, 69
8, 20556, Control_c, 6, 11, 64
8, 20557, Control_c, 6, 11, 58
8, 20558, Control_c, 6, 11, 53
8, 20559, Control_c, 6, 11, 48
8, 20560, Control_c, 6, 11, 42
8, 20561, Control_c, 6, 11, 37
8, 20562, Control_c, 6, 11, 32
8, 20563, Control_c, 6, 11, 26
8, 20564, Control_c, 6, 11, 21
8, 20565, Control_c, 6, 11, 16
8, 20566, Control_c, 6, 11, 11
8, 20567, Control_c, 6, 11, 5
8, 20568, Note_off_c, 6, 57, 64
8, 20568, Control_c, 6, 11, 127
8, 20568, Note_on_c, 6, 57, 64
8, 20569, Control_c, 6, 11, 122
8, 20570, Control_c, 6, 11, 116
8, 20571, Control_c, 6, 11, 111
8, 20572, Control_c, 6, 11, 106
8, 20573, Control_c, 6, 11, 101
8, 20574, Control_c, 6, 11, 95
8, 20575, Control_c, 6, 11, 90
8, 20576, Control_c, 6, 11, 85
8, 20577, Control_c, 6, 11, 79
8, 20578, Control_c, 6, 11, 74
8, 20579, Control_c, 6, 11, 69
8, 20580, Control_c, 6, 11, 64
8, 20581, Control_c, 6, 11, 58
8, 20582, Control_c, 6, 11, 53
8, 20583, Control_c, 6, 11, 48
8, 20584, Control_c, 6, 11, 42
8, 20585, Control_c, 6, 11, 37
8, 20586, Control_c, 6, 11, 32
8, 20587, Control_c, 6, 11, 26
8, 20588, Control_c, 6, 11, 21
8, 20589, Control_c, 6, 11, 16
8, 20590, Control_c, 6, 11, 11
8, 20591, Control_c, 6, 11, 5
8, 20592, Note_off_c, 6, 57, 64
8, 20592, Control_c, 6, 11, 127
8, 20592, Note_on_c, 6, 51, 64
8, 20593, Control_c, 6, 11, 122
8, 20594, Control_c, 6, 11, 116
8, 20595, Control_c, 6, 11, 111
8, 20596, Control_c, 6, 11, 106
8, 20597, Control_c, 6, 11, 101
8, 20598, Control_c, 6, 11, 95
8, 20599, Control_c, 6, 11, 90
8, 20600, Control_c, 6, 11, 85
8, 20601, Control_c, 6, 11, 79
8, 20602, Control_c, 6, 11, 74
8, 20603, Control_c, 6, 11, 69
8, 20604, Control_c, 6, 11, 64
8, 20605, Control_c, 6, 11, 58
8, 20606, Control_c, 6, 11, 53
8, 20607, Control_c, 6, 11, 48
8, 20608, Control_c, 6, 11, 42
8, 20609, Control_c, 6, 11, 37
8, 20610, Control_c, 6, 11, 32
8, 20611, Control_c, 6, 11, 26
8, 20612, Control_c, 6, 11, 21
8, 20613, Control_c, 6, 11, 16
8, 20614, Control_c, 6, 11, 11
8, 20615, Control_c, 6, 11, 5
8, 20616, Note_off_c, 6, 51, 64
8, 20616, Control_c, 6, 11, 127
8, 20616, Note_on_c, 6, 51, 64
8, 20617, Control_c, 6, 11, 122
8, 20618, Control_c, 6, 11, 116
8, 20619, Control_c, 6, 11, 111
8, 20620, Control_c, 6, 11, 106
8, 20621, Control_c, 6, 11, 101
8, 20622, Control_c, 6, 11, 95
8, 20623, Control_c, 6, 11, 90
8, 20624, Control_c, 6, 11, 85
8, 20625, Control_c, 6, 11, 79
8, 20626, Control_c, 6, 11, 74
8, 20627, Control_c, 6, 11, 69
8, 20628, Control_c, 6, 11, 64
8, 20629, Control_c, 6, 11, 58
8, 20630, Control_c, 6, 11, 53
8, 20631, Control_c, 6, 11, 48
8, 20632, Control_c, 6, 11, 42
8, 20633, Control_c, 6, 11, 37
8, 20634, Control_c, 6, 11, 32
8, 20635, Control_c, 6, 11, 26
8, 20636, Control_c, 6, 11, 21
8, 20637, Control_c, 6, 11, 16
8, 20638, Control_c, 6, 11, 11
8, 20639, Control_c, 6, 11, 5
8, 20640, Note_off_c, 6, 51, 64
8, 20640, Control_c, 6, 11, 127
8, 20640, Note_on_c, 6, 51, 64
8, 20641, Control_c, 6, 11, 122
8, 20642, Control_c, 6, 11, 116
8, 20643, Control_c, 6, 11, 111
8, 20644, Control_c, 6, 11, 106
8, 20645, Control_c, 6, 11, 101
8, 20646, Control_c, 6, 11, 95
8, 20647, Control_c, 6, 11, 90
8, 20648, Control_c, 6, 11, 85
8, 20649, Control_c, 6, 11, 79
8, 20650, Control_c, 6, 11, 74
8, 20651, Control_c, 6, 11, 69
8, 20652, Control_c, 6, 11, 64
8, 20653, Control_c, 6, 11, 58
8, 20654, Control_c, 6, 11, 53
8, 20655, Control_c, 6, 11, 48
8, 20656, Control_c, 6, 11, 42
8, 20657, Control_c, 6, 11, 37
8, 20658, Control_c, 6, 11, 32
8, 20659, Control_c, 6, 11, 26
8, 20660, Control_c, 6, 11, 21
8, 20661, Control_c, 6, 11, 16
8, 20662, Control_c, 6, 11, 11
8, 20663, Control_c, 6, 11, 5
8, 20664, Note_off_c, 6, 51, 64
8, 20664, Control_c, 6, 11, 127
8, 20664, Note_on_c, 6, 51, 64
8, 20665, Control_c, 6, 11, 122
8, 20666, Control_c, 6, 11, 116
8, 20667, Control_c, 6, 11, 111
8, 20668, Control_c, 6, 11, 106
8, 20669, Control_c, 6, 11, 101
8, 20670, Control_c, 6, 11, 95
8, 20671, Control_c, 6, 11, 90
8, 20672, Control_c, 6, 11, 85
8, 20673, Control_c, 6, 11, 79
8, 20674, Control_c, 6, 11, 74
8, 20675, Control_c, 6, 11, 69
8, 20676, Control_c, 6, 11, 64
8, 20677, Control_c, 6, 11, 58
8, 20678, Control_c, 6, 11, 53
8, 20679, Control_c, 6, 11, 48
8, 20680, Control_c, 6, 11, 42
8, 20681, Control_c, 6, 11, 37
8, 20682, Control_c, 6, 11, 32
8, 20683, Control_c, 6, 11, 26
8, 20684, Control_c, 6, 11, 21
8, 20685, Control_c, 6, 11, 16
8, 20686, Control_c, 6, 11, 11
8, 20687, Control_c, 6, 11, 5
8, 20688, Note_off_c, 6, 51, 64
8, 20688, Control_c, 6, 11, 127
8, 20688, Note_on_c, 6, 45, 64
8, 20689, Control_c, 6, 11, 122
8, 20690, Control_c, 6, 11, 116
8, 20691, Control_c, 6, 11, 111
8, 20692, Control_c, 6, 11, 106
8, 20693, Control_c, 6, 11, 101
8, 20694, Control_c, 6, 11, 95
8, 20695, Control_c, 6, 11, 90
8, 20696, Control_c, 6, 11, 85
8, 20697, Control_c, 6, 11, 79
8, 20698, Control_c, 6, 11, 74
8, 20699, Control_c, 6, 11, 69
8, 20700, Control_c, 6, 11, 64
8, 20701, Control_c, 6, 11, 58
8, 20702, Control_c, 6, 11, 53
8, 20703, Control_c, 6, 11, 48
8, 20704, Control_c, 6, 11, 42
8, 20705, Control_c, 6, 11, 37
8, 20706, Control_c, 6, 11, 32
8, 20707, Control_c, 6, 11, 26
8, 20708, Control_c, 6, 11, 21
8, 20709, Control_c, 6, 11, 16
8, 20710, Control_c, 6, 11, 11
8, 20711, Control_c, 6, 11, 5
8, 20712, Note_off_c, 6, 45, 64
8, 20712, Control_c, 6, 11, 127
8, 20712, Note_on_c, 6, 45, 64
8, 20713, Control_c, 6, 11, 122
8, 20714, Control_c, 6, 11, 116
8, 20715, Control_c, 6, 11, 111
8, 20716, Control_c, 6, 11, 106
8, 20717, Control_c, 6, 11, 101
8, 20718, Control_c, 6, 11, 95
8, 20719, Control_c, 6, 11, 90
8, 20720, Control_c, 6, 11, 85
8, 20721, Control_c, 6, 11, 79
8, 20722, Control_c, 6, 11, 74
8, 20723, Control_c, 6, 11, 69
8, 20724, Control_c, 6, 11, 64
8, 20725, Control_c, 6, 11, 58
8, 20726, Control_c, 6, 11, 53
8, 20727, Control_c, 6, 11, 48
8, 20728, Control_c, 6, 11, 42
8, 20729, Control_c, 6, 11, 37
8, 20730, Control_c, 6, 11, 32
8, 20731, Control_c, 6, 11, 26
8, 20732, Control_c, 6, 11, 21
8, 20733, Control_c, 6, 11, 16
8, 20734, Control_c, 6, 11, 11
8, 20735, Control_c, 6, 11, 5
8, 20736, Note_off_c, 6, 45, 64
8, 20736, Control_c, 6, 11, 127
8, 20736, Note_on_c, 6, 33, 64
8, 20737, Control_c, 6, 11, 124
8, 20738, Control_c, 6, 11, 122
8, 20739, Control_c, 6, 11, 119
8, 20740, Control_c, 6, 11, 116
8, 20741, Control_c, 6, 11, 114
8, 20742, Control_c, 6, 11, 111
8, 20743, Control_c, 6, 11, 108
8, 20744, Control_c, 6, 11, 106
8, 20745, Control_c, 6, 11, 103
8, 20746, Control_c, 6, 11, 101
8, 20747, Control_c, 6, 11, 98
8, 20748, Control_c, 6, 11, 95
8, 20749, Control_c, 6, 11, 93
8, 20750, Control_c, 6, 11, 90
8, 20751, Control_c, 6, 11, 87
8, 20752, Control_c, 6, 11, 85
8, 20753, Control_c, 6, 11, 82
8, 20754, Control_c, 6, 11, 79
8, 20755, Control_c, 6, 11, 77
8, 20756, Control_c, 6, 11, 74
8, 20757, Control_c, 6, 11, 71
8, 20758, Control_c, 6, 11, 69
8, 20759, Control_c, 6, 11, 66
8, 20760, Control_c, 6, 11, 64
8, 20761, Control_c, 6, 11, 61
8, 20762, Control_c, 6, 11, 58
8, 20763, Control_c, 6, 11, 56
8, 20764, Control_c, 6, 11, 53
8, 20765, Control_c, 6, 11, 50
8, 20766, Control_c, 6, 11, 48
8, 20767, Control_c, 6, 11, 45
8, 20768, Control_c, 6, 11, 42
8, 20769, Control_c, 6, 11, 40
8, 20770, Control_c, 6, 11, 37
8, 20771, Control_c, 6, 11, 34
8, 20772, Control_c, 6, 11, 32
8, 20773, Control_c, 6, 11, 29
8, 20774, Control_c, 6, 11, 26
8, 20775, Control_c, 6, 11, 24
8, 20776, Control_c, 6, 11, 21
8, 20777, Control_c, 6, 11, 19
8, 20778, Control_c, 6, 11, 16
8, 20779, Control_c, 6, 11, 13
8, 20780, Control_c, 6, 11, 11
8, 20781, Control_c, 6, 11, 8
8, 20782, Control_c, 6, 11, 5
8, 20783, Control_c, 6, 11, 3
8, 20784, Note_off_c, 6, 33, 64
8, 20784, Control_c, 6, 11, 127
8, 20784, Note_on_c, 6, 93, 64
8, 20785, Control_c, 6, 11, 124
8, 20786, Control_c, 6, 11, 122
8, 20787, Control_c, 6, 11, 119
8, 20788, Control_c, 6, 11, 116
8, 20789, Control_c, 6, 11, 114
8, 20790, Control_c, 6, 11, 111
8, 20791, Control_c, 6, 11, 108
8, 20792, Control_c, 6, 11, 106
8, 20793, Control_c, 6, 11, 103
8, 20794, Control_c, 6, 11, 101
8, 20795, Control_c, 6, 11, 98
8, 20796, Control_c, 6, 11, 95
8, 20797, Control_c, 6, 11, 93
8, 20798, Control_c, 6, 11, 90
8, 20799, Control_c, 6, 11, 87
8, 20800, Control_c, 6, 11, 85
8, 20801, Control_c, 6, 11, 82
8, 20802, Control_c, 6, 11, 79
8, 20803, Control_c, 6, 11, 77
8, 20804, Control_c, 6, 11, 74
8, 20805, Control_c, 6, 11, 71
8, 20806, Control_c, 6, 11, 69
8, 20807, Control_c, 6, 11, 66
8, 20808, Control_c, 6, 11, 64
8, 20809, Control_c, 6, 11, 61
8, 20810, Control_c, 6, 11, 58
8, 20811, Control_c, 6, 11, 56
8, 20812, Control_c, 6, 11, 53
8, 20813, Control_c, 6, 11, 50
8, 20814, Control_c, 6, 11, 48
8, 20815, Control_c, 6, 11, 45
8, 20816, Control_c, 6, 11, 42
8, 20817, Control_c, 6, 11, 40
8, 20818, Control_c, 6, 11, 37
8, 20819, Control_c, 6, 11, 34
8, 20820, Control_c, 6, 11, 32
8, 20821, Control_c, 6, 11, 29
8, 20822, Control_c, 6, 11, 26
8, 20823, Control_c, 6, 11, 24
8, 20824, Control_c, 6, 11, 21
8, 20825, Control_c, 6, 11, 19
8, 20826, Control_c, 6, 11, 16
8, 20827, Control_c, 6, 11, 13
8, 20828, Control_c, 6, 11, 11
8, 20829, Control_c, 6, 11, 8
8, 20830, Control_c, 6, 11, 5
8, 20831, Control_c, 6, 11, 3
8, 20832, Note_off_c, 6, 93, 64
8, 20832, Control_c, 6, 11, 127
8, 20832, Note_on_c, 6, 63, 64
8, 20833, Control_c, 6, 11, 124
8, 20834, Control_c, 6, 11, 122
8, 20835, Control_c, 6, 11, 119
8, 20836, Control_c, 6, 11, 116
8, 20837, Control_c, 6, 11, 114
8, 20838, Control_c, 6, 11, 111
8, 20839, Control_c, 6, 11, 108
8, 20840, Control_c, 6, 11, 106
8, 20841, Control_c, 6, 11, 103
8, 20842, Control_c, 6, 11, 101
8, 20843, Control_c, 6, 11, 98
8, 20844, Control_c, 6, 11, 95
8, 20845, Control_c, 6, 11, 93
8, 20846, Control_c, 6, 11, 90
8, 20847, Control_c, 6, 11, 87
8, 20848, Control_c, 6, 11, 85
8, 20849, Control_c, 6, 11, 82
8, 20850, Control_c, 6, 11, 79
8, 20851, Control_c, 6, 11, 77
8, 20852, Control_c, 6, 11, 74
8, 20853, Control_c, 6, 11, 71
8, 20854, Control_c, 6, 11, 69
8, 20855, Control_c, 6, 11, 66
8, 20856, Control_c, 6, 11, 64
8, 20857, Control_c, 6, 11, 61
8, 20858, Control_c, 6, 11, 58
8, 20859, Control_c, 6, 11, 56
8, 20860, Control_c, 6, 11, 53
8, 20861, Control_c, 6, 11, 50
8, 20862, Control_c, 6, 11, 48
8, 20863, Control_c, 6, 11, 45
8, 20864, Control_c, 6, 11, 42
8, 20865, Control_c, 6, 11, 40
8, 20866, Control_c, 6, 11, 37
8, 20867, Control_c, 6, 11, 34
8, 20868, Control_c, 6, 11, 32
8, 20869, Control_c, 6, 11, 29
8, 20870, Control_c, 6, 11, 26
8, 20871, Control_c, 6, 11, 24
8, 20872, Control_c, 6, 11, 21
8, 20873, Control_c, 6, 11, 19
8, 20874, Control_c, 6, 11, 16
8, 20875, Control_c, 6, 11, 13
8, 20876, Control_c, 6, 11, 11
8, 20877, Control_c, 6, 11, 8
8, 20878, Control_c, 6, 11, 5
8, 20879, Control_c, 6, 11, 3
8, 20880, Note_off_c, 6, 63, 64
8, 20880, Control_c, 6, 11, 127
8, 20880, Note_on_c, 6, 93, 64
8, 20881, Control_c, 6, 11, 124
8, 20882, Control_c, 6, 11, 122
8, 20883, Control_c, 6, 11, 119
8, 20884, Control_c, 6, 11, 116
8, 20885, Control_c, 6, 11, 114
8, 20886, Control_c, 6, 11, 111
8, 20887, Control_c, 6, 11, 108
8, 20888, Control_c, 6, 11, 106
8, 20889, Control_c, 6, 11, 103
8, 20890, Control_c, 6, 11, 101
8, 20891, Control_c, 6, 11, 98
8, 20892, Control_c, 6, 11, 95
8, 20893, Control_c, 6, 11, 93
8, 20894, Control_c, 6, 11, 90
8, 20895, Control_c, 6, 11, 87
8, 20896, Control_c, 6, 11, 85
8, 20897, Control_c, 6, 11, 82
8, 20898, Control_c, 6, 11, 79
8, 20899, Control_c, 6, 11, 77
8, 20900, Control_c, 6, 11, 74
8, 20901, Control_c, 6, 11, 71
8, 20902, Control_c, 6, 11, 69
8, 20903, Control_c, 6, 11, 66
8, 20904, Control_c, 6, 11, 64
8, 20905, Control_c, 6, 11, 61
8, 20906, Control_c, 6, 11, 58
8, 20907, Control_c, 6, 11, 56
8, 20908, Control_c, 6, 11, 53
8, 20909, Control_c, 6, 11, 50
8, 20910, Control_c, 6, 11, 48
8, 20911, Control_c, 6, 11, 45
8, 20912, Control_c, 6, 11, 42
8, 20913, Control_c, 6, 11, 40
8, 20914, Control_c, 6, 11, 37
8, 20915, Control_c, 6, 11, 34
8, 20916, Control_c, 6, 11, 32
8, 20917, Control_c, 6, 11, 29
8, 20918, Control_c, 6, 11, 26
8, 20919, Control_c, 6, 11, 24
8, 20920, Control_c, 6, 11, 21
8, 20921, Control_c, 6, 11, 19
8, 20922, Control_c, 6, 11, 16
8, 20923, Control_c, 6, 11, 13
8, 20924, Control_c, 6, 11, 11
8, 20925, Control_c, 6, 11, 8
8, 20926, Control_c, 6, 11, 5
8, 20927, Control_c, 6, 11, 3
8, 20928, Note_off_c, 6, 93, 64
8, 20928, Control_c, 6, 11, 127
8, 20928, Note_on_c, 6, 33, 64
8, 20929, Control_c, 6, 11, 124
8, 20930, Control_c, 6, 11, 122
8, 20931, Control_c, 6, 11, 119
8, 20932, Control_c, 6, 11, 116
8, 20933, Control_c, 6, 11, 114
8, 20934, Control_c, 6, 11, 111
8, 20935, Control_c, 6, 11, 108
8, 20936, Control_c, 6, 11, 106
8, 20937, Control_c, 6, 11, 103
8, 20938, Control_c, 6, 11, 101
8, 20939, Control_c, 6, 11, 98
8, 20940, Control_c, 6, 11, 95
8, 20941, Control_c, 6, 11, 93
8, 20942, Control_c, 6, 11, 90
8, 20943, Control_c, 6, 11, 87
8, 20944, Control_c, 6, 11, 85
8, 20945, Control_c, 6, 11, 82
8, 20946, Control_c, 6, 11, 79
8, 20947, Control_c, 6, 11, 77
8, 20948, Control_c, 6, 11, 74
8, 20949, Control_c, 6, 11, 71
8, 20950, Control_c, 6, 11, 69
8, 20951, Control_c, 6, 11, 66
8, 20952, Control_c, 6, 11, 64
8, 20953, Control_c, 6, 11, 61
8, 20954, Control_c, 6, 11, 58
8, 20955, Control_c, 6, 11, 56
8, 20956, Control_c, 6, 11, 53
8, 20957, Control_c, 6, 11, 50
8, 20958, Control_c, 6, 11, 48
8, 20959, Control_c, 6, 11, 45
8, 20960, Control_c, 6, 11, 42
8, 20961, Control_c, 6, 11, 40
8, 20962, Control_c, 6, 11, 37
8, 20963, Control_c, 6, 11, 34
8, 20964, Control_c, 6, 11, 32
8, 20965, Control_c, 6, 11, 29
8, 20966, Control_c, 6, 11, 26
8, 20967, Control_c, 6, 11, 24
8, 20968, Control_c, 6, 11, 21
8, 20969, Control_c, 6, 11, 19
8, 20970, Control_c, 6, 11, 16
8, 20971, Control_c, 6, 11, 13
8, 20972, Control_c, 6, 11, 11
8, 20973, Control_c, 6, 11, 8
8, 20974, Control_c, 6, 11, 5
8, 20975, Control_c, 6, 11, 3
8, 20976, Note_off_c, 6, 33, 64
8, 20976, Control_c, 6, 11, 127
8, 20976, Note_on_c, 6, 93, 64
8, 20977, Control_c, 6, 11, 124
8, 20978, Control_c, 6, 11, 122
8, 20979, Control_c, 6, 11, 119
8, 20980, Control_c, 6, 11, 116
8, 20981, Control_c, 6, 11, 114
8, 20982, Control_c, 6, 11, 111
8, 20983, Control_c, 6, 11, 108
8, 20984, Control_c, 6, 11, 106
8, 20985, Control_c, 6, 11, 103
8, 20986, Control_c, 6, 11, 101
8, 20987, Control_c, 6, 11, 98
8, 20988, Control_c, 6, 11, 95
8, 20989, Control_c, 6, 11, 93
8, 20990, Control_c, 6, 11, 90
8, 20991, Control_c, 6, 11, 87
8, 20992, Control_c, 6, 11, 85
8, 20993, Control_c, 6, 11, 82
8, 20994, Control_c, 6, 11, 79
8, 20995, Control_c, 6, 11, 77
8, 20996, Control_c, 6, 11, 74
8, 20997, Control_c, 6, 11, 71
8, 20998, Control_c, 6, 11, 69
8, 20999, Control_c, 6, 11, 66
8, 21000, Control_c, 6, 11, 64
8, 21001, Control_c, 6, 11, 61
8, 21002, Control_c, 6, 11, 58
8, 21003, Control_c, 6, 11, 56
8, 21004, Control_c, 6, 11, 53
8, 21005, Control_c, 6, 11, 50
8, 21006, Control_c, 6, 11, 48
8, 21007, Control_c, 6, 11, 45
8, 21008, Control_c, 6, 11, 42
8, 21009, Control_c, 6, 11, 40
8, 21010, Control_c, 6, 11, 37
8, 21011, Control_c, 6, 11, 34
8, 21012, Control_c, 6, 11, 32
8, 21013, Control_c, 6, 11, 29
8, 21014, Control_c, 6, 11, 26
8, 21015, Control_c, 6, 11, 24
8, 21016, Control_c, 6, 11, 21
8, 21017, Control_c, 6, 11, 19
8, 21018, Control_c, 6, 11, 16
8, 21019, Control_c, 6, 11, 13
8, 21020, Control_c, 6, 11, 11
8, 21021, Control_c, 6, 11, 8
8, 21022, Control_c, 6, 11, 5
8, 21023, Control_c, 6, 11, 3
8, 21024, Note_off_c, 6, 93, 64
8, 21024, Control_c, 6, 11, 127
8, 21024, Note_on_c, 6, 63, 64
8, 21025, Control_c, 6, 11, 124
8, 21026, Control_c, 6, 11, 122
8, 21027, Control_c, 6, 11, 119
8, 21028, Control_c, 6, 11, 116
8, 21029, Control_c, 6, 11, 114
8, 21030, Control_c, 6, 11, 111
8, 21031, Control_c, 6, 11, 108
8, 21032, Control_c, 6, 11, 106
8, 21033, Control_c, 6, 11, 103
8, 21034, Control_c, 6, 11, 101
8, 21035, Control_c, 6, 11, 98
8, 21036, Control_c, 6, 11, 95
8, 21037, Control_c, 6, 11, 93
8, 21038, Control_c, 6, 11, 90
8, 21039, Control_c, 6, 11, 87
8, 21040, Control_c, 6, 11, 85
8, 21041, Control_c, 6, 11, 82
8, 21042, Control_c, 6, 11, 79
8, 21043, Control_c, 6, 11, 77
8, 21044, Control_c, 6, 11, 74
8, 21045, Control_c, 6, 11, 71
8, 21046, Control_c, 6, 11, 69
8, 21047, Control_c, 6, 11, 66
8, 21048, Control_c, 6, 11, 64
8, 21049, Control_c, 6, 11, 61
8, 21050, Control_c, 6, 11, 58
8, 21051, Control_c, 6, 11, 56
8, 21052, Control_c, 6, 11, 53
8, 21053, Control_c, 6, 11, 50
8, 21054, Control_c, 6, 11, 48
8, 21055, Control_c, 6, 11, 45
8, 21056, Control_c, 6, 11, 42
8, 21057, Control_c, 6, 11, 40
8, 21058, Control_c, 6, 11, 37
8, 21059, Control_c, 6, 11, 34
8, 21060, Control_c, 6, 11, 32
8, 21061, Control_c, 6, 11, 29
8, 21062, Control_c, 6, 11, 26
8, 21063, Control_c, 6, 11, 24
8, 21064, Control_c, 6, 11, 21
8, 21065, Control_c, 6, 11, 19
8, 21066, Control_c, 6, 11, 16
8, 21067, Control_c, 6, 11, 13
8, 21068, Control_c, 6, 11, 11
8, 21069, Control_c, 6, 11, 8
8, 21070, Control_c, 6, 11, 5
8, 21071, Control_c, 6, 11, 3
8, 21072, Note_off_c, 6, 63, 64
8, 21072, Control_c, 6, 11, 127
8, 21072, Note_on_c, 6, 93, 64
8, 21073, Control_c, 6, 11, 124
8, 21074, Control_c, 6, 11, 122
8, 21075, Control_c, 6, 11, 119
8, 21076, Control_c, 6, 11, 116
8, 21077, Control_c, 6, 11, 114
8, 21078, Control_c, 6, 11, 111
8, 21079, Control_c, 6, 11, 108
8, 21080, Control_c, 6, 11, 106
8, 21081, Control_c, 6, 11, 103
8, 21082, Control_c, 6, 11, 101
8, 21083, Control_c, 6, 11, 98
8, 21084, Control_c, 6, 11, 95
8, 21085, Control_c, 6, 11, 93
8, 21086, Control_c, 6, 11, 90
8, 21087, Control_c, 6, 11, 87
8, 21088, Control_c, 6, 11, 85
8, 21089, Control_c, 6, 11, 82
8, 21090, Control_c, 6, 11, 79
8, 21091, Control_c, 6, 11, 77
8, 21092, Control_c, 6, 11, 74
8, 21093, Control_c, 6, 11, 71
8, 21094, Control_c, 6, 11, 69
8, 21095, Control_c, 6, 11, 66
8, 21096, Control_c, 6, 11, 64
8, 21097, Control_c, 6, 11, 61
8, 21098, Control_c, 6, 11, 58
8, 21099, Control_c, 6, 11, 56
8, 21100, Control_c, 6, 11, 53
8, 21101, Control_c, 6, 11, 50
8, 21102, Control_c, 6, 11, 48
8, 21103, Control_c, 6, 11, 45
8, 21104, Control_c, 6, 11, 42
8, 21105, Control_c, 6, 11, 40
8, 21106, Control_c, 6, 11, 37
8, 21107, Control_c, 6, 11, 34
8, 21108, Control_c, 6, 11, 32
8, 21109, Control_c, 6, 11, 29
8, 21110, Control_c, 6, 11, 26
8, 21111, Control_c, 6, 11, 24
8, 21112, Control_c, 6, 11, 21
8, 21113, Control_c, 6, 11, 19
8, 21114, Control_c, 6, 11, 16
8, 21115, Control_c, 6, 11, 13
8, 21116, Control_c, 6, 11, 11
8, 21117, Control_c, 6, 11, 8
8, 21118, Control_c, 6, 11, 5
8, 21119, Control_c, 6, 11, 3
8, 21120, Note_off_c, 6, 93, 64
8, 21120, Control_c, 6, 11, 127
8, 21120, Note_on_c, 6, 33, 64
8, 21121, Control_c, 6, 11, 124
8, 21122, Control_c, 6, 11, 122
8, 21123, Control_c, 6, 11, 119
8, 21124, Control_c, 6, 11, 116
8, 21125, Control_c, 6, 11, 114
8, 21126, Control_c, 6, 11, 111
8, 21127, Control_c, 6, 11, 108
8, 21128, Control_c, 6, 11, 106
8, 21129, Control_c, 6, 11, 103
8, 21130, Control_c, 6, 11, 101
8, 21131, Control_c, 6, 11, 98
8, 21132, Control_c, 6, 11, 95
8, 21133, Control_c, 6, 11, 93
8, 21134, Control_c, 6, 11, 90
8, 21135, Control_c, 6, 11, 87
8, 21136, Control_c, 6, 11, 85
8, 21137, Control_c, 6, 11, 82
8, 21138, Control_c, 6, 11, 79
8, 21139, Control_c, 6, 11, 77
8, 21140, Control_c, 6, 11, 74
8, 21141, Control_c, 6, 11, 71
8, 21142, Control_c, 6, 11, 69
8, 21143, Control_c, 6, 11, 66
8, 21144, Control_c, 6, 11, 64
8, 21145, Control_c, 6, 11, 61
8, 21146, Control_c, 6, 11, 58
8, 21147, Control_c, 6, 11, 56
8, 21148, Control_c, 6, 11, 53
8, 21149, Control_c, 6, 11, 50
8, 21150, Control_c, 6, 11, 48
8, 21151, Control_c, 6, 11, 45
8, 21152, Control_c, 6, 11, 42
8, 21153, Control_c, 6, 11, 40
8, 21154, Control_c, 6, 11, 37
8, 21155, Control_c, 6, 11, 34
8, 21156, Control_c, 6, 11, 32
8, 21157, Control_c, 6, 11, 29
8, 21158, Control_c, 6, 11, 26
8, 21159, Control_c, 6, 11, 24
8, 21160, Control_c, 6, 11, 21
8, 21161, Control_c, 6, 11, 19
8, 21162, Control_c, 6, 11, 16
8, 21163, Control_c, 6, 11, 13
8, 21164, Control_c, 6, 11, 11
8, 21165, Control_c, 6, 11, 8
8, 21166, Control_c, 6, 11, 5
8, 21167, Control_c, 6, 11, 3
8, 21168, Note_off_c, 6, 33, 64
8, 21168, Control_c, 6, 11, 127
8, 21168, Note_on_c, 6, 93, 64
8, 21169, Control_c, 6, 11, 124
8, 21170, Control_c, 6, 11, 122
8, 21171, Control_c, 6, 11, 119
8, 21172, Control_c, 6, 11, 116
8, 21173, Control_c, 6, 11, 114
8, 21174, Control_c, 6, 11, 111
8, 21175, Control_c, 6, 11, 108
8, 21176, Control_c, 6, 11, 106
8, 21177, Control_c, 6, 11, 103
8, 21178, Control_c, 6, 11, 101
8, 21179, Control_c, 6, 11, 98
8, 21180, Control_c, 6, 11, 95
8, 21181, Control_c, 6, 11, 93
8, 21182, Control_c, 6, 11, 90
8, 21183, Control_c, 6, 11, 87
8, 21184, Control_c, 6, 11, 85
8, 21185, Control_c, 6, 11, 82
8, 21186, Control_c, 6, 11, 79
8, 21187, Control_c, 6, 11, 77
8, 21188, Control_c, 6, 11, 74
8, 21189, Control_c, 6, 11, 71
8, 21190, Control_c, 6, 11, 69
8, 21191, Control_c, 6, 11, 66
8, 21192, Control_c, 6, 11, 64
8, 21193, Control_c, 6, 11, 61
8, 21194, Control_c, 6, 11, 58
8, 21195, Control_c, 6, 11, 56
8, 21196, Control_c, 6, 11, 53
8, 21197, Control_c, 6, 11, 50
8, 21198, Control_c, 6, 11, 48
8, 21199, Control_c, 6, 11, 45
8, 21200, Control_c, 6, 11, 42
8, 21201, Control_c, 6, 11, 40
8, 21202, Control_c, 6, 11, 37
8, 21203, Control_c, 6, 11, 34
8, 21204, Control_c, 6, 11, 32
8, 21205, Control_c, 6, 11, 29
8, 21206, Control_c, 6, 11, 26
8, 21207, Control_c, 6, 11, 24
8, 21208, Control_c, 6, 11, 21
8, 21209, Control_c, 6, 11, 19
8, 21210, Control_c, 6, 11, 16
8, 21211, Control_c, 6, 11, 13
8, 21212, Control_c, 6, 11, 11
8, 21213, Control_c, 6, 11, 8
8, 21214, Control_c, 6, 11, 5
8, 21215, Control_c, 6, 11, 3
8, 21216, Note_off_c, 6, 93, 64
8, 21216, Control_c, 6, 11, 127
8, 21216, Note_on_c, 6, 63, 64
8, 21217, Control_c, 6, 11, 124
8, 21218, Control_c, 6, 11, 122
8, 21219, Control_c, 6, 11, 119
8, 21220, Control_c, 6, 11, 116
8, 21221, Control_c, 6, 11, 114
8, 21222, Control_c, 6, 11, 111
8, 21223, Control_c, 6, 11, 108
8, 21224, Control_c, 6, 11, 106
8, 21225, Control_c, 6, 11, 103
8, 21226, Control_c, 6, 11, 101
8, 21227, Control_c, 6, 11, 98
8, 21228, Control_c, 6, 11, 95
8, 21229, Control_c, 6, 11, 93
8, 21230, Control_c, 6, 11, 90
8, 21231, Control_c, 6, 11, 87
8, 21232, Control_c, 6, 11, 85
8, 21233, Control_c, 6, 11, 82
8, 21234, Control_c, 6, 11, 79
8, 21235, Control_c, 6, 11, 77
8, 21236, Control_c, 6, 11, 74
8, 21237, Control_c, 6, 11, 71
8, 21238, Control_c, 6, 11, 69
8, 21239, Control_c, 6, 11, 66
8, 21240, Control_c, 6, 11, 64
8, 21241, Control_c, 6, 11, 61
8, 21242, Control_c, 6, 11, 58
8, 21243, Control_c, 6, 11, 56
8, 21244, Control_c, 6, 11, 53
8, 21245, Control_c, 6, 11, 50
8, 21246, Control_c, 6, 11, 48
8, 21247, Control_c, 6, 11, 45
8, 21248, Control_c, 6, 11, 42
8, 21249, Control_c, 6, 11, 40
8, 21250, Control_c, 6, 11, 37
8, 21251, Control_c, 6, 11, 34
8, 21252, Control_c, 6, 11, 32
8, 21253, Control_c, 6, 11, 29
8, 21254, Control_c, 6, 11, 26
8, 21255, Control_c, 6, 11, 24
8, 21256, Control_c, 6, 11, 21
8, 21257, Control_c, 6, 11, 19
8, 21258, Control_c, 6, 11, 16
8, 21259, Control_c, 6, 11, 13
8, 21260, Control_c, 6, 11, 11
8, 21261, Control_c, 6, 11, 8
8, 21262, Control_c, 6, 11, 5
8, 21263, Control_c, 6, 11, 3
8, 21264, Note_off_c, 6, 63, 64
8, 21264, Control_c, 6, 11, 127
8, 21264, Note_on_c, 6, 93, 64
8, 21265, Control_c, 6, 11, 124
8, 21266, Control_c, 6, 11, 122
8, 21267, Control_c, 6, 11, 119
8, 21268, Control_c, 6, 11, 116
8, 21269, Control_c, 6, 11, 114
8, 21270, Control_c, 6, 11, 111
8, 21271, Control_c, 6, 11, 108
8, 21272, Control_c, 6, 11, 106
8, 21273, Control_c, 6, 11, 103
8, 21274, Control_c, 6, 11, 101
8, 21275, Control_c, 6, 11, 98
8, 21276, Control_c, 6, 11, 95
8, 21277, Control_c, 6, 11, 93
8, 21278, Control_c, 6, 11, 90
8, 21279, Control_c, 6, 11, 87
8, 21280, Control_c, 6, 11, 85
8, 21281, Control_c, 6, 11, 82
8, 21282, Control_c, 6, 11, 79
8, 21283, Control_c, 6, 11, 77
8, 21284, Control_c, 6, 11, 74
8, 21285, Control_c, 6, 11, 71
8, 21286, Control_c, 6, 11, 69
8, 21287, Control_c, 6, 11, 66
8, 21288, Control_c, 6, 11, 64
8, 21289, Control_c, 6, 11, 61
8, 21290, Control_c, 6, 11, 58
8, 21291, Control_c, 6, 11, 56
8, 21292, Control_c, 6, 11, 53
8, 21293, Control_c, 6, 11, 50
8, 21294, Control_c, 6, 11, 48
8, 21295, Control_c, 6, 11, 45
8, 21296, Control_c, 6, 11, 42
8, 21297, Control_c, 6, 11, 40
8, 21298, Control_c, 6, 11, 37
8, 21299, Control_c, 6, 11, 34
8, 21300, Control_c, 6, 11, 32
8, 21301, Control_c, 6, 11, 29
8, 21302, Control_c, 6, 11, 26
8, 21303, Control_c, 6, 11, 24
8, 21304, Control_c, 6, 11, 21
8, 21305, Control_c, 6, 11, 19
8, 21306, Control_c, 6, 11, 16
8, 21307, Control_c, 6, 11, 13
8, 21308, Control_c, 6, 11, 11
8, 21309, Control_c, 6, 11, 8
8, 21310, Control_c, 6, 11, 5
8, 21311, Control_c, 6, 11, 3
8, 21312, Note_off_c, 6, 93, 64
8, 21312, Control_c, 6, 11, 127
8, 21312, Note_on_c, 6, 33, 64
8, 21313, Control_c, 6, 11, 124
8, 21314, Control_c, 6, 11, 122
8, 21315, Control_c, 6, 11, 119
8, 21316, Control_c, 6, 11, 116
8, 21317, Control_c, 6, 11, 114
8, 21318, Control_c, 6, 11, 111
8, 21319, Control_c, 6, 11, 108
8, 21320, Control_c, 6, 11, 106
8, 21321, Control_c, 6, 11, 103
8, 21322, Control_c, 6, 11, 101
8, 21323, Control_c, 6, 11, 98
8, 21324, Control_c, 6, 11, 95
8, 21325, Control_c, 6, 11, 93
8, 21326, Control_c, 6, 11, 90
8, 21327, Control_c, 6, 11, 87
8, 21328, Control_c, 6, 11, 85
8, 21329, Control_c, 6, 11, 82
8, 21330, Control_c, 6, 11, 79
8, 21331, Control_c, 6, 11, 77
8, 21332, Control_c, 6, 11, 74
8, 21333, Control_c, 6, 11, 71
8, 21334, Control_c, 6, 11, 69
8, 21335, Control_c, 6, 11, 66
8, 21336, Control_c, 6, 11, 64
8, 21337, Control_c, 6, 11, 61
8, 21338, Control_c, 6, 11, 58
8, 21339, Control_c, 6, 11, 56
8, 21340, Control_c, 6, 11, 53
8, 21341, Control_c, 6, 11, 50
8, 21342, Control_c, 6, 11, 48
8, 21343, Control_c, 6, 11, 45
8, 21344, Control_c, 6, 11, 42
8, 21345, Control_c, 6, 11, 40
8, 21346, Control_c, 6, 11, 37
8, 21347, Control_c, 6, 11, 34
8, 21348, Control_c, 6, 11, 32
8, 21349, Control_c, 6, 11, 29
8, 21350, Control_c, 6, 11, 26
8, 21351, Control_c, 6, 11, 24
8, 21352, Control_c, 6, 11, 21
8, 21353, Control_c, 6, 11, 19
8, 21354, Control_c, 6, 11, 16
8, 21355, Control_c, 6, 11, 13
8, 21356, Control_c, 6, 11, 11
8, 21357, Control_c, 6, 11, 8
8, 21358, Control_c, 6, 11, 5
8, 21359, Control_c, 6, 11, 3
8, 21360, Note_off_c, 6, 33, 64
8, 21360, Control_c, 6, 11, 127
8, 21360, Note_on_c, 6, 93, 64
8, 21361, Control_c, 6, 11, 124
8, 21362, Control_c, 6, 11, 122
8, 21363, Control_c, 6, 11, 119
8, 21364, Control_c, 6, 11, 116
8, 21365, Control_c, 6, 11, 114
8, 21366, Control_c, 6, 11, 111
8, 21367, Control_c, 6, 11, 108
8, 21368, Control_c, 6, 11, 106
8, 21369, Control_c, 6, 11, 103
8, 21370, Control_c, 6, 11, 101
8, 21371, Control_c, 6, 11, 98
8, 21372, Control_c, 6, 11, 95
8, 21373, Control_c, 6, 11, 93
8, 21374, Control_c, 6, 11, 90
8, 21375, Control_c, 6, 11, 87
8, 21376, Control_c, 6, 11, 85
8, 21377, Control_c, 6, 11, 82
8, 21378, Control_c, 6, 11, 79
8, 21379, Control_c, 6, 11, 77
8, 21380, Control_c, 6, 11, 74
8, 21381, Control_c, 6, 11, 71
8, 21382, Control_c, 6, 11, 69
8, 21383, Control_c, 6, 11, 66
8, 21384, Control_c, 6, 11, 64
8, 21385, Control_c, 6, 11, 61
8, 21386, Control_c, 6, 11, 58
8, 21387, Control_c, 6, 11, 56
8, 21388, Control_c, 6, 11, 53
8, 21389, Control_c, 6, 11, 50
8, 21390, Control_c, 6, 11, 48
8, 21391, Control_c, 6, 11, 45
8, 21392, Control_c, 6, 11, 42
8, 21393, Control_c, 6, 11, 40
8, 21394, Control_c, 6, 11, 37
8, 21395, Control_c, 6, 11, 34
8, 21396, Control_c, 6, 11, 32
8, 21397, Control_c, 6, 11, 29
8, 21398, Control_c, 6, 11, 26
8, 21399, Control_c, 6, 11, 24
8, 21400, Control_c, 6, 11, 21
8, 21401, Control_c, 6, 11, 19
8, 21402, Control_c, 6, 11, 16
8, 21403, Control_c, 6, 11, 13
8, 21404, Control_c, 6, 11, 11
8, 21405, Control_c, 6, 11, 8
8, 21406, Control_c, 6, 11, 5
8, 21407, Control_c, 6, 11, 3
8, 21408, Note_off_c, 6, 93, 64
8, 21408, Control_c, 6, 11, 127
8, 21408, Note_on_c, 6, 63, 64
8, 21409, Control_c, 6, 11, 124
8, 21410, Control_c, 6, 11, 122
8, 21411, Control_c, 6, 11, 119
8, 21412, Control_c, 6, 11, 116
8, 21413, Control_c, 6, 11, 114
8, 21414, Control_c, 6, 11, 111
8, 21415, Control_c, 6, 11, 108
8, 21416, Control_c, 6, 11, 106
8, 21417, Control_c, 6, 11, 103
8, 21418, Control_c, 6, 11, 101
8, 21419, Control_c, 6, 11, 98
8, 21420, Control_c, 6, 11, 95
8, 21421, Control_c, 6, 11, 93
8, 21422, Control_c, 6, 11, 90
8, 21423, Control_c, 6, 11, 87
8, 21424, Control_c, 6, 11, 85
8, 21425, Control_c, 6, 11, 82
8, 21426, Control_c, 6, 11, 79
8, 21427, Control_c, 6, 11, 77
8, 21428, Control_c, 6, 11, 74
8, 21429, Control_c, 6, 11, 71
8, 21430, Control_c, 6, 11, 69
8, 21431, Control_c, 6, 11, 66
8, 21432, Control_c, 6, 11, 64
8, 21433, Control_c, 6, 11, 61
8, 21434, Control_c, 6, 11, 58
8, 21435, Control_c, 6, 11, 56
8, 21436, Control_c, 6, 11, 53
8, 21437, Control_c, 6, 11, 50
8, 21438, Control_c, 6, 11, 48
8, 21439, Control_c, 6, 11, 45
8, 21440, Control_c, 6, 11, 42
8, 21441, Control_c, 6, 11, 40
8, 21442, Control_c, 6, 11, 37
8, 21443, Control_c, 6, 11, 34
8, 21444, Control_c, 6, 11, 32
8, 21445, Control_c, 6, 11, 29
8, 21446, Control_c, 6, 11, 26
8, 21447, Control_c, 6, 11, 24
8, 21448, Control_c, 6, 11, 21
8, 21449, Control_c, 6, 11, 19
8, 21450, Control_c, 6, 11, 16
8, 21451, Control_c, 6, 11, 13
8, 21452, Control_c, 6, 11, 11
8, 21453, Control_c, 6, 11, 8
8, 21454, Control_c, 6, 11, 5
8, 21455, Control_c, 6, 11, 3
8, 21456, Note_off_c, 6, 63, 64
8, 21456, Control_c, 6, 11, 127
8, 21456, Note_on_c, 6, 63, 64
8, 21457, Control_c, 6, 11, 124
8, 21458, Control_c, 6, 11, 122
8, 21459, Control_c, 6, 11, 119
8, 21460, Control_c, 6, 11, 116
8, 21461, Control_c, 6, 11, 114
8, 21462, Control_c, 6, 11, 111
8, 21463, Control_c, 6, 11, 108
8, 21464, Control_c, 6, 11, 106
8, 21465, Control_c, 6, 11, 103
8, 21466, Control_c, 6, 11, 101
8, 21467, Control_c, 6, 11, 98
8, 21468, Control_c, 6, 11, 95
8, 21469, Control_c, 6, 11, 93
8, 21470, Control_c, 6, 11, 90
8, 21471, Control_c, 6, 11, 87
8, 21472, Control_c, 6, 11, 85
8, 21473, Control_c, 6, 11, 82
8, 21474, Control_c, 6, 11, 79
8, 21475, Control_c, 6, 11, 77
8, 21476, Control_c, 6, 11, 74
8, 21477, Control_c, 6, 11, 71
8, 21478, Control_c, 6, 11, 69
8, 21479, Control_c, 6, 11, 66
8, 21480, Control_c, 6, 11, 64
8, 21481, Control_c, 6, 11, 61
8, 21482, Control_c, 6, 11, 58
8, 21483, Control_c, 6, 11, 56
8, 21484, Control_c, 6, 11, 53
8, 21485, Control_c, 6, 11, 50
8, 21486, Control_c, 6, 11, 48
8, 21487, Control_c, 6, 11, 45
8, 21488, Control_c, 6, 11, 42
8, 21489, Control_c, 6, 11, 40
8, 21490, Control_c, 6, 11, 37
8, 21491, Control_c, 6, 11, 34
8, 21492, Control_c, 6, 11, 32
8, 21493, Control_c, 6, 11, 29
8, 21494, Control_c, 6, 11, 26
8, 21495, Control_c, 6, 11, 24
8, 21496, Control_c, 6, 11, 21
8, 21497, Control_c, 6, 11, 19
8, 21498, Control_c, 6, 11, 16
8, 21499, Control_c, 6, 11, 13
8, 21500, Control_c, 6, 11, 11
8, 21501, Control_c, 6, 11, 8
8, 21502, Control_c, 6, 11, 5
8, 21503, Control_c, 6, 11, 3
8, 21504, Note_off_c, 6, 63, 64
8, 21504, Control_c, 6, 11, 127
8, 21504, Note_on_c, 6, 33, 64
8, 21505, Control_c, 6, 11, 124
8, 21506, Control_c, 6, 11, 122
8, 21507, Control_c, 6, 11, 119
8, 21508, Control_c, 6, 11, 116
8, 21509, Control_c, 6, 11, 114
8, 21510, Control_c, 6, 11, 111
8, 21511, Control_c, 6, 11, 108
8, 21512, Control_c, 6, 11, 106
8, 21513, Control_c, 6, 11, 103
8, 21514, Control_c, 6, 11, 101
8, 21515, Control_c, 6, 11, 98
8, 21516, Control_c, 6, 11, 95
8, 21517, Control_c, 6, 11, 93
8, 21518, Control_c, 6, 11, 90
8, 21519, Control_c, 6, 11, 87
8, 21520, Control_c, 6, 11, 85
8, 21521, Control_c, 6, 11, 82
8, 21522, Control_c, 6, 11, 79
8, 21523, Control_c, 6, 11, 77
8, 21524, Control_c, 6, 11, 74
8, 21525, Control_c, 6, 11, 71
8, 21526, Control_c, 6, 11, 69
8, 21527, Control_c, 6, 11, 66
8, 21528, Control_c, 6, 11, 64
8, 21529, Control_c, 6, 11, 61
8, 21530, Control_c, 6, 11, 58
8, 21531, Control_c, 6, 11, 56
8, 21532, Control_c, 6, 11, 53
8, 21533, Control_c, 6, 11, 50
8, 21534, Control_c, 6, 11, 48
8, 21535, Control_c, 6, 11, 45
8, 21536, Control_c, 6, 11, 42
8, 21537, Control_c, 6, 11, 40
8, 21538, Control_c, 6, 11, 37
8, 21539, Control_c, 6, 11, 34
8, 21540, Control_c, 6, 11, 32
8, 21541, Control_c, 6, 11, 29
8, 21542, Control_c, 6, 11, 26
8, 21543, Control_c, 6, 11, 24
8, 21544, Control_c, 6, 11, 21
8, 21545, Control_c, 6, 11, 19
8, 21546, Control_c, 6, 11, 16
8, 21547, Control_c, 6, 11, 13
8, 21548, Control_c, 6, 11, 11
8, 21549, Control_c, 6, 11, 8
8, 21550, Control_c, 6, 11, 5
8, 21551, Control_c, 6, 11, 3
8, 21552, Note_off_c, 6, 33, 64
8, 21552, Control_c, 6, 11, 127
8, 21552, Note_on_c, 6, 93, 64
8, 21553, Control_c, 6, 11, 124
8, 21554, Control_c, 6, 11, 122
8, 21555, Control_c, 6, 11, 119
8, 21556, Control_c, 6, 11, 116
8, 21557, Control_c, 6, 11, 114
8, 21558, Control_c, 6, 11, 111
8, 21559, Control_c, 6, 11, 108
8, 21560, Control_c, 6, 11, 106
8, 21561, Control_c, 6, 11, 103
8, 21562, Control_c, 6, 11, 101
8, 21563, Control_c, 6, 11, 98
8, 21564, Control_c, 6, 11, 95
8, 21565, Control_c, 6, 11, 93
8, 21566, Control_c, 6, 11, 90
8, 21567, Control_c, 6, 11, 87
8, 21568, Control_c, 6, 11, 85
8, 21569, Control_c, 6, 11, 82
8, 21570, Control_c, 6, 11, 79
8, 21571, Control_c, 6, 11, 77
8, 21572, Control_c, 6, 11, 74
8, 21573, Control_c, 6, 11, 71
8, 21574, Control_c, 6, 11, 69
8, 21575, Control_c, 6, 11, 66
8, 21576, Control_c, 6, 11, 64
8, 21577, Control_c, 6, 11, 61
8, 21578, Control_c, 6, 11, 58
8, 21579, Control_c, 6, 11, 56
8, 21580, Control_c, 6, 11, 53
8, 21581, Control_c, 6, 11, 50
8, 21582, Control_c, 6, 11, 48
8, 21583, Control_c, 6, 11, 45
8, 21584, Control_c, 6, 11, 42
8, 21585, Control_c, 6, 11, 40
8, 21586, Control_c, 6, 11, 37
8, 21587, Control_c, 6, 11, 34
8, 21588, Control_c, 6, 11, 32
8, 21589, Control_c, 6, 11, 29
8, 21590, Control_c, 6, 11, 26
8, 21591, Control_c, 6, 11, 24
8, 21592, Control_c, 6, 11, 21
8, 21593, Control_c, 6, 11, 19
8, 21594, Control_c, 6, 11, 16
8, 21595, Control_c, 6, 11, 13
8, 21596, Control_c, 6, 11, 11
8, 21597, Control_c, 6, 11, 8
8, 21598, Control_c, 6, 11, 5
8, 21599, Control_c, 6, 11, 3
8, 21600, Note_off_c, 6, 93, 64
8, 21600, Control_c, 6, 11, 127
8, 21600, Note_on_c, 6, 63, 64
8, 21601, Control_c, 6, 11, 124
8, 21602, Control_c, 6, 11, 122
8, 21603, Control_c, 6, 11, 119
8, 21604, Control_c, 6, 11, 116
8, 21605, Control_c, 6, 11, 114
8, 21606, Control_c, 6, 11, 111
8, 21607, Control_c, 6, 11, 108
8, 21608, Control_c, 6, 11, 106
8, 21609, Control_c, 6, 11, 103
8, 21610, Control_c, 6, 11, 101
8, 21611, Control_c, 6, 11, 98
8, 21612, Control_c, 6, 11, 95
8, 21613, Control_c, 6, 11, 93
8, 21614, Control_c, 6, 11, 90
8, 21615, Control_c, 6, 11, 87
8, 21616, Control_c, 6, 11, 85
8, 21617, Control_c, 6, 11, 82
8, 21618, Control_c, 6, 11, 79
8, 21619, Control_c, 6, 11, 77
8, 21620, Control_c, 6, 11, 74
8, 21621, Control_c, 6, 11, 71
8, 21622, Control_c, 6, 11, 69
8, 21623, Control_c, 6, 11, 66
8, 21624, Control_c, 6, 11, 64
8, 21625, Control_c, 6, 11, 61
8, 21626, Control_c, 6, 11, 58
8, 21627, Control_c, 6, 11, 56
8, 21628, Control_c, 6, 11, 53
8, 21629, Control_c, 6, 11, 50
8, 21630, Control_c, 6, 11, 48
8, 21631, Control_c, 6, 11, 45
8, 21632, Control_c, 6, 11, 42
8, 21633, Control_c, 6, 11, 40
8, 21634, Control_c, 6, 11, 37
8, 21635, Control_c, 6, 11, 34
8, 21636, Control_c, 6, 11, 32
8, 21637, Control_c, 6, 11, 29
8, 21638, Control_c, 6, 11, 26
8, 21639, Control_c, 6, 11, 24
8, 21640, Control_c, 6, 11, 21
8, 21641, Control_c, 6, 11, 19
8, 21642, Control_c, 6, 11, 16
8, 21643, Control_c, 6, 11, 13
8, 21644, Control_c, 6, 11, 11
8, 21645, Control_c, 6, 11, 8
8, 21646, Control_c, 6, 11, 5
8, 21647, Control_c, 6, 11, 3
8, 21648, Note_off_c, 6, 63, 64
8, 21648, Control_c, 6, 11, 127
8, 21648, Note_on_c, 6, 93, 64
8, 21649, Control_c, 6, 11, 124
8, 21650, Control_c, 6, 11, 122
8, 21651, Control_c, 6, 11, 119
8, 21652, Control_c, 6, 11, 116
8, 21653, Control_c, 6, 11, 114
8, 21654, Control_c, 6, 11, 111
8, 21655, Control_c, 6, 11, 108
8, 21656, Control_c, 6, 11, 106
8, 21657, Control_c, 6, 11, 103
8, 21658, Control_c, 6, 11, 101
8, 21659, Control_c, 6, 11, 98
8, 21660, Control_c, 6, 11, 95
8, 21661, Control_c, 6, 11, 93
8, 21662, Control_c, 6, 11, 90
8, 21663, Control_c, 6, 11, 87
8, 21664, Control_c, 6, 11, 85
8, 21665, Control_c, 6, 11, 82
8, 21666, Control_c, 6, 11, 79
8, 21667, Control_c, 6, 11, 77
8, 21668, Control_c, 6, 11, 74
8, 21669, Control_c, 6, 11, 71
8, 21670, Control_c, 6, 11, 69
8, 21671, Control_c, 6, 11, 66
8, 21672, Control_c, 6, 11, 64
8, 21673, Control_c, 6, 11, 61
8, 21674, Control_c, 6, 11, 58
8, 21675, Control_c, 6, 11, 56
8, 21676, Control_c, 6, 11, 53
8, 21677, Control_c, 6, 11, 50
8, 21678, Control_c, 6, 11, 48
8, 21679, Control_c, 6, 11, 45
8, 21680, Control_c, 6, 11, 42
8, 21681, Control_c, 6, 11, 40
8, 21682, Control_c, 6, 11, 37
8, 21683, Control_c, 6, 11, 34
8, 21684, Control_c, 6, 11, 32
8, 21685, Control_c, 6, 11, 29
8, 21686, Control_c, 6, 11, 26
8, 21687, Control_c, 6, 11, 24
8, 21688, Control_c, 6, 11, 21
8, 21689, Control_c, 6, 11, 19
8, 21690, Control_c, 6, 11, 16
8, 21691, Control_c, 6, 11, 13
8, 21692, Control_c, 6, 11, 11
8, 21693, Control_c, 6, 11, 8
8, 21694, Control_c, 6, 11, 5
8, 21695, Control_c, 6, 11, 3
8, 21696, Note_off_c, 6, 93, 64
8, 21696, Control_c, 6, 11, 127
8, 21696, Note_on_c, 6, 33, 64
8, 21697, Control_c, 6, 11, 124
8, 21698, Control_c, 6, 11, 122
8, 21699, Control_c, 6, 11, 119
8, 21700, Control_c, 6, 11, 116
8, 21701, Control_c, 6, 11, 114
8, 21702, Control_c, 6, 11, 111
8, 21703, Control_c, 6, 11, 108
8, 21704, Control_c, 6, 11, 106
8, 21705, Control_c, 6, 11, 103
8, 21706, Control_c, 6, 11, 101
8, 21707, Control_c, 6, 11, 98
8, 21708, Control_c, 6, 11, 95
8, 21709, Control_c, 6, 11, 93
8, 21710, Control_c, 6, 11, 90
8, 21711, Control_c, 6, 11, 87
8, 21712, Control_c, 6, 11, 85
8, 21713, Control_c, 6, 11, 82
8, 21714, Control_c, 6, 11, 79
8, 21715, Control_c, 6, 11, 77
8, 21716, Control_c, 6, 11, 74
8, 21717, Control_c, 6, 11, 71
8, 21718, Control_c, 6, 11, 69
8, 21719, Control_c, 6, 11, 66
8, 21720, Control_c, 6, 11, 64
8, 21721, Control_c, 6, 11, 61
8, 21722, Control_c, 6, 11, 58
8, 21723, Control_c, 6, 11, 56
8, 21724, Control_c, 6, 11, 53
8, 21725, Control_c, 6, 11, 50
8, 21726, Control_c, 6, 11, 48
8, 21727, Control_c, 6, 11, 45
8, 21728, Control_c, 6, 11, 42
8, 21729, Control_c, 6, 11, 40
8, 21730, Control_c, 6, 11, 37
8, 21731, Control_c, 6, 11, 34
8, 21732, Control_c, 6, 11, 32
8, 21733, Control_c, 6, 11, 29
8, 21734, Control_c, 6, 11, 26
8, 21735, Control_c, 6, 11, 24
8, 21736, Control_c, 6, 11, 21
8, 21737, Control_c, 6, 11, 19
8, 21738, Control_c, 6, 11, 16
8, 21739, Control_c, 6, 11, 13
8, 21740, Control_c, 6, 11, 11
8, 21741, Control_c, 6, 11, 8
8, 21742, Control_c, 6, 11, 5
8, 21743, Control_c, 6, 11, 3
8, 21744, Note_off_c, 6, 33, 64
8, 21744, Control_c, 6, 11, 127
8, 21744, Note_on_c, 6, 93, 64
8, 21745, Control_c, 6, 11, 124
8, 21746, Control_c, 6, 11, 122
8, 21747, Control_c, 6, 11, 119
8, 21748, Control_c, 6, 11, 116
8, 21749, Control_c, 6, 11, 114
8, 21750, Control_c, 6, 11, 111
8, 21751, Control_c, 6, 11, 108
8, 21752, Control_c, 6, 11, 106
8, 21753, Control_c, 6, 11, 103
8, 21754, Control_c, 6, 11, 101
8, 21755, Control_c, 6, 11, 98
8, 21756, Control_c, 6, 11, 95
8, 21757, Control_c, 6, 11, 93
8, 21758, Control_c, 6, 11, 90
8, 21759, Control_c, 6, 11, 87
8, 21760, Control_c, 6, 11, 85
8, 21761, Control_c, 6, 11, 82
8, 21762, Control_c, 6, 11, 79
8, 21763, Control_c, 6, 11, 77
8, 21764, Control_c, 6, 11, 74
8, 21765, Control_c, 6, 11, 71
8, 21766, Control_c, 6, 11, 69
8, 21767, Control_c, 6, 11, 66
8, 21768, Control_c, 6, 11, 64
8, 21769, Control_c, 6, 11, 61
8, 21770, Control_c, 6, 11, 58
8, 21771, Control_c, 6, 11, 56
8, 21772, Control_c, 6, 11, 53
8, 21773, Control_c, 6, 11, 50
8, 21774, Control_c, 6, 11, 48
8, 21775, Control_c, 6, 11, 45
8, 21776, Control_c, 6, 11, 42
8, 21777, Control_c, 6, 11, 40
8, 21778, Control_c, 6, 11, 37
8, 21779, Control_c, 6, 11, 34
8, 21780, Control_c, 6, 11, 32
8, 21781, Control_c, 6, 11, 29
8, 21782, Control_c, 6, 11, 26
8, 21783, Control_c, 6, 11, 24
8, 21784, Control_c, 6, 11, 21
8, 21785, Control_c, 6, 11, 19
8, 21786, Control_c, 6, 11, 16
8, 21787, Control_c, 6, 11, 13
8, 21788, Control_c, 6, 11, 11
8, 21789, Control_c, 6, 11, 8
8, 21790, Control_c, 6, 11, 5
8, 21791, Control_c, 6, 11, 3
8, 21792, Note_off_c, 6, 93, 64
8, 21792, Control_c, 6, 11, 127
8, 21792, Note_on_c, 6, 63, 64
8, 21793, Control_c, 6, 11, 124
8, 21794, Control_c, 6, 11, 122
8, 21795, Control_c, 6, 11, 119
8, 21796, Control_c, 6, 11, 116
8, 21797, Control_c, 6, 11, 114
8, 21798, Control_c, 6, 11, 111
8, 21799, Control_c, 6, 11, 108
8, 21800, Control_c, 6, 11, 106
8, 21801, Control_c, 6, 11, 103
8, 21802, Control_c, 6, 11, 101
8, 21803, Control_c, 6, 11, 98
8, 21804, Control_c, 6, 11, 95
8, 21805, Control_c, 6, 11, 93
8, 21806, Control_c, 6, 11, 90
8, 21807, Control_c, 6, 11, 87
8, 21808, Control_c, 6, 11, 85
8, 21809, Control_c, 6, 11, 82
8, 21810, Control_c, 6, 11, 79
8, 21811, Control_c, 6, 11, 77
8, 21812, Control_c, 6, 11, 74
8, 21813, Control_c, 6, 11, 71
8, 21814, Control_c, 6, 11, 69
8, 21815, Control_c, 6, 11, 66
8, 21816, Control_c, 6, 11, 64
8, 21817, Control_c, 6, 11, 61
8, 21818, Control_c, 6, 11, 58
8, 21819, Control_c, 6, 11, 56
8, 21820, Control_c, 6, 11, 53
8, 21821, Control_c, 6, 11, 50
8, 21822, Control_c, 6, 11, 48
8, 21823, Control_c, 6, 11, 45
8, 21824, Control_c, 6, 11, 42
8, 21825, Control_c, 6, 11, 40
8, 21826, Control_c, 6, 11, 37
8, 21827, Control_c, 6, 11, 34
8, 21828, Control_c, 6, 11, 32
8, 21829, Control_c, 6, 11, 29
8, 21830, Control_c, 6, 11, 26
8, 21831, Control_c, 6, 11, 24
8, 21832, Control_c, 6, 11, 21
8, 21833, Control_c, 6, 11, 19
8, 21834, Control_c, 6, 11, 16
8, 21835, Control_c, 6, 11, 13
8, 21836, Control_c, 6, 11, 11
8, 21837, Control_c, 6, 11, 8
8, 21838, Control_c, 6, 11, 5
8, 21839, Control_c, 6, 11, 3
8, 21840, Note_off_c, 6, 63, 64
8, 21840, Control_c, 6, 11, 127
8, 21840, Note_on_c, 6, 93, 64
8, 21841, Control_c, 6, 11, 124
8, 21842, Control_c, 6, 11, 122
8, 21843, Control_c, 6, 11, 119
8, 21844, Control_c, 6, 11, 116
8, 21845, Control_c, 6, 11, 114
8, 21846, Control_c, 6, 11, 111
8, 21847, Control_c, 6, 11, 108
8, 21848, Control_c, 6, 11, 106
8, 21849, Control_c, 6, 11, 103
8, 21850, Control_c, 6, 11, 101
8, 21851, Control_c, 6, 11, 98
8, 21852, Control_c, 6, 11, 95
8, 21853, Control_c, 6, 11, 93
8, 21854, Control_c, 6, 11, 90
8, 21855, Control_c, 6, 11, 87
8, 21856, Control_c, 6, 11, 85
8, 21857, Control_c, 6, 11, 82
8, 21858, Control_c, 6, 11, 79
8, 21859, Control_c, 6, 11, 77
8, 21860, Control_c, 6, 11, 74
8, 21861, Control_c, 6, 11, 71
8, 21862, Control_c, 6, 11, 69
8, 21863, Control_c, 6, 11, 66
8, 21864, Control_c, 6, 11, 64
8, 21865, Control_c, 6, 11, 61
8, 21866, Control_c, 6, 11, 58
8, 21867, Control_c, 6, 11, 56
8, 21868, Control_c, 6, 11, 53
8, 21869, Control_c, 6, 11, 50
8, 21870, Control_c, 6, 11, 48
8, 21871, Control_c, 6, 11, 45
8, 21872, Control_c, 6, 11, 42
8, 21873, Control_c, 6, 11, 40
8, 21874, Control_c, 6, 11, 37
8, 21875, Control_c, 6, 11, 34
8, 21876, Control_c, 6, 11, 32
8, 21877, Control_c, 6, 11, 29
8, 21878, Control_c, 6, 11, 26
8, 21879, Control_c, 6, 11, 24
8, 21880, Control_c, 6, 11, 21
8, 21881, Control_c, 6, 11, 19
8, 21882, Control_c, 6, 11, 16
8, 21883, Control_c, 6, 11, 13
8, 21884, Control_c, 6, 11, 11
8, 21885, Control_c, 6, 11, 8
8, 21886, Control_c, 6, 11, 5
8, 21887, Control_c, 6, 11, 3
8, 21888, Note_off_c, 6, 93, 64
8, 21888, Control_c, 6, 11, 127
8, 21888, Note_on_c, 6, 33, 64
8, 21889, Control_c, 6, 11, 124
8, 21890, Control_c, 6, 11, 122
8, 21891, Control_c, 6, 11, 119
8, 21892, Control_c, 6, 11, 116
8, 21893, Control_c, 6, 11, 114
8, 21894, Control_c, 6, 11, 111
8, 21895, Control_c, 6, 11, 108
8, 21896, Control_c, 6, 11, 106
8, 21897, Control_c, 6, 11, 103
8, 21898, Control_c, 6, 11, 101
8, 21899, Control_c, 6, 11, 98
8, 21900, Control_c, 6, 11, 95
8, 21901, Control_c, 6, 11, 93
8, 21902, Control_c, 6, 11, 90
8, 21903, Control_c, 6, 11, 87
8, 21904, Control_c, 6, 11, 85
8, 21905, Control_c, 6, 11, 82
8, 21906, Control_c, 6, 11, 79
8, 21907, Control_c, 6, 11, 77
8, 21908, Control_c, 6, 11, 74
8, 21909, Control_c, 6, 11, 71
8, 21910, Control_c, 6, 11, 69
8, 21911, Control_c, 6, 11, 66
8, 21912, Control_c, 6, 11, 64
8, 21913, Control_c, 6, 11, 61
8, 21914, Control_c, 6, 11, 58
8, 21915, Control_c, 6, 11, 56
8, 21916, Control_c, 6, 11, 53
8, 21917, Control_c, 6, 11, 50
8, 21918, Control_c, 6, 11, 48
8, 21919, Control_c, 6, 11, 45
8, 21920, Control_c, 6, 11, 42
8, 21921, Control_c, 6, 11, 40
8, 21922, Control_c, 6, 11, 37
8, 21923, Control_c, 6, 11, 34
8, 21924, Control_c, 6, 11, 32
8, 21925, Control_c, 6, 11, 29
8, 21926, Control_c, 6, 11, 26
8, 21927, Control_c, 6, 11, 24
8, 21928, Control_c, 6, 11, 21
8, 21929, Control_c, 6, 11, 19
8, 21930, Control_c, 6, 11, 16
8, 21931, Control_c, 6, 11, 13
8, 21932, Control_c, 6, 11, 11
8, 21933, Control_c, 6, 11, 8
8, 21934, Control_c, 6, 11, 5
8, 21935, Control_c, 6, 11, 3
8, 21936, Note_off_c, 6, 33, 64
8, 21936, Control_c, 6, 11, 127
8, 21936, Note_on_c, 6, 93, 64
8, 21937, Control_c, 6, 11, 124
8, 21938, Control_c, 6, 11, 122
8, 21939, Control_c, 6, 11, 119
8, 21940, Control_c, 6, 11, 116
8, 21941, Control_c, 6, 11, 114
8, 21942, Control_c, 6, 11, 111
8, 21943, Control_c, 6, 11, 108
8, 21944, Control_c, 6, 11, 106
8, 21945, Control_c, 6, 11, 103
8, 21946, Control_c, 6, 11, 101
8, 21947, Control_c, 6, 11, 98
8, 21948, Control_c, 6, 11, 95
8, 21949, Control_c, 6, 11, 93
8, 21950, Control_c, 6, 11, 90
8, 21951, Control_c, 6, 11, 87
8, 21952, Control_c, 6, 11, 85
8, 21953, Control_c, 6, 11, 82
8, 21954, Control_c, 6, 11, 79
8, 21955, Control_c, 6, 11, 77
8, 21956, Control_c, 6, 11, 74
8, 21957, Control_c, 6, 11, 71
8, 21958, Control_c, 6, 11, 69
8, 21959, Control_c, 6, 11, 66
8, 21960, Control_c, 6, 11, 64
8, 21961, Control_c, 6, 11, 61
8, 21962, Control_c, 6, 11, 58
8, 21963, Control_c, 6, 11, 56
8, 21964, Control_c, 6, 11, 53
8, 21965, Control_c, 6, 11, 50
8, 21966, Control_c, 6, 11, 48
8, 21967, Control_c, 6, 11, 45
8, 21968, Control_c, 6, 11, 42
8, 21969, Control_c, 6, 11, 40
8, 21970, Control_c, 6, 11, 37
8, 21971, Control_c, 6, 11, 34
8, 21972, Control_c, 6, 11, 32
8, 21973, Control_c, 6, 11, 29
8, 21974, Control_c, 6, 11, 26
8, 21975, Control_c, 6, 11, 24
8, 21976, Control_c, 6, 11, 21
8, 21977, Control_c, 6, 11, 19
8, 21978, Control_c, 6, 11, 16
8, 21979, Control_c, 6, 11, 13
8, 21980, Control_c, 6, 11, 11
8, 21981, Control_c, 6, 11, 8
8, 21982, Control_c, 6, 11, 5
8, 21983, Control_c, 6, 11, 3
8, 21984, Note_off_c, 6, 93, 64
8, 21984, Control_c, 6, 11, 127
8, 21984, Note_on_c, 6, 63, 64
8, 21985, Control_c, 6, 11, 124
8, 21986, Control_c, 6, 11, 122
8, 21987, Control_c, 6, 11, 119
8, 21988, Control_c, 6, 11, 116
8, 21989, Control_c, 6, 11, 114
8, 21990, Control_c, 6, 11, 111
8, 21991, Control_c, 6, 11, 108
8, 21992, Control_c, 6, 11, 106
8, 21993, Control_c, 6, 11, 103
8, 21994, Control_c, 6, 11, 101
8, 21995, Control_c, 6, 11, 98
8, 21996, Control_c, 6, 11, 95
8, 21997, Control_c, 6, 11, 93
8, 21998, Control_c, 6, 11, 90
8, 21999, Control_c, 6, 11, 87
8, 22000, Control_c, 6, 11, 85
8, 22001, Control_c, 6, 11, 82
8, 22002, Control_c, 6, 11, 79
8, 22003, Control_c, 6, 11, 77
8, 22004, Control_c, 6, 11, 74
8, 22005, Control_c, 6, 11, 71
8, 22006, Control_c, 6, 11, 69
8, 22007, Control_c, 6, 11, 66
8, 22008, Control_c, 6, 11, 64
8, 22009, Control_c, 6, 11, 61
8, 22010, Control_c, 6, 11, 58
8, 22011, Control_c, 6, 11, 56
8, 22012, Control_c, 6, 11, 53
8, 22013, Control_c, 6, 11, 50
8, 22014, Control_c, 6, 11, 48
8, 22015, Control_c, 6, 11, 45
8, 22016, Control_c, 6, 11, 42
8, 22017, Control_c, 6, 11, 40
8, 22018, Control_c, 6, 11, 37
8, 22019, Control_c, 6, 11, 34
8, 22020, Control_c, 6, 11, 32
8, 22021, Control_c, 6, 11, 29
8, 22022, Control_c, 6, 11, 26
8, 22023, Control_c, 6, 11, 24
8, 22024, Control_c, 6, 11, 21
8, 22025, Control_c, 6, 11, 19
8, 22026, Control_c, 6, 11, 16
8, 22027, Control_c, 6, 11, 13
8, 22028, Control_c, 6, 11, 11
8, 22029, Control_c, 6, 11, 8
8, 22030, Control_c, 6, 11, 5
8, 22031, Control_c, 6, 11, 3
8, 22032, Note_off_c, 6, 63, 64
8, 22032, Control_c, 6, 11, 127
8, 22032, Note_on_c, 6, 93, 64
8, 22033, Control_c, 6, 11, 124
8, 22034, Control_c, 6, 11, 122
8, 22035, Control_c, 6, 11, 119
8, 22036, Control_c, 6, 11, 116
8, 22037, Control_c, 6, 11, 114
8, 22038, Control_c, 6, 11, 111
8, 22039, Control_c, 6, 11, 108
8, 22040, Control_c, 6, 11, 106
8, 22041, Control_c, 6, 11, 103
8, 22042, Control_c, 6, 11, 101
8, 22043, Control_c, 6, 11, 98
8, 22044, Control_c, 6, 11, 95
8, 22045, Control_c, 6, 11, 93
8, 22046, Control_c, 6, 11, 90
8, 22047, Control_c, 6, 11, 87
8, 22048, Control_c, 6, 11, 85
8, 22049, Control_c, 6, 11, 82
8, 22050, Control_c, 6, 11, 79
8, 22051, Control_c, 6, 11, 77
8, 22052, Control_c, 6, 11, 74
8, 22053, Control_c, 6, 11, 71
8, 22054, Control_c, 6, 11, 69
8, 22055, Control_c, 6, 11, 66
8, 22056, Control_c, 6, 11, 64
8, 22057, Control_c, 6, 11, 61
8, 22058, Control_c, 6, 11, 58
8, 22059, Control_c, 6, 11, 56
8, 22060, Control_c, 6, 11, 53
8, 22061, Control_c, 6, 11, 50
8, 22062, Control_c, 6, 11, 48
8, 22063, Control_c, 6, 11, 45
8, 22064, Control_c, 6, 11, 42
8, 22065, Control_c, 6, 11, 40
8, 22066, Control_c, 6, 11, 37
8, 22067, Control_c, 6, 11, 34
8, 22068, Control_c, 6, 11, 32
8, 22069, Control_c, 6, 11, 29
8, 22070, Control_c, 6, 11, 26
8, 22071, Control_c, 6, 11, 24
8, 22072, Control_c, 6, 11, 21
8, 22073, Control_c, 6, 11, 19
8, 22074, Control_c, 6, 11, 16
8, 22075, Control_c, 6, 11, 13
8, 22076, Control_c, 6, 11, 11
8, 22077, Control_c, 6, 11, 8
8, 22078, Control_c, 6, 11, 5
8, 22079, Control_c, 6, 11, 3
8, 22080, Note_off_c, 6, 93, 64
8, 22080, Control_c, 6, 11, 127
8, 22080, Note_on_c, 6, 33, 64
8, 22081, Control_c, 6, 11, 124
8, 22082, Control_c, 6, 11, 122
8, 22083, Control_c, 6, 11, 119
8, 22084, Control_c, 6, 11, 116
8, 22085, Control_c, 6, 11, 114
8, 22086, Control_c, 6, 11, 111
8, 22087, Control_c, 6, 11, 108
8, 22088, Control_c, 6, 11, 106
8, 22089, Control_c, 6, 11, 103
8, 22090, Control_c, 6, 11, 101
8, 22091, Control_c, 6, 11, 98
8, 22092, Control_c, 6, 11, 95
8, 22093, Control_c, 6, 11, 93
8, 22094, Control_c, 6, 11, 90
8, 22095, Control_c, 6, 11, 87
8, 22096, Control_c, 6, 11, 85
8, 22097, Control_c, 6, 11, 82
8, 22098, Control_c, 6, 11, 79
8, 22099, Control_c, 6, 11, 77
8, 22100, Control_c, 6, 11, 74
8, 22101, Control_c, 6, 11, 71
8, 22102, Control_c, 6, 11, 69
8, 22103, Control_c, 6, 11, 66
8, 22104, Control_c, 6, 11, 64
8, 22105, Control_c, 6, 11, 61
8, 22106, Control_c, 6, 11, 58
8, 22107, Control_c, 6, 11, 56
8, 22108, Control_c, 6, 11, 53
8, 22109, Control_c, 6, 11, 50
8, 22110, Control_c, 6, 11, 48
8, 22111, Control_c, 6, 11, 45
8, 22112, Control_c, 6, 11, 42
8, 22113, Control_c, 6, 11, 40
8, 22114, Control_c, 6, 11, 37
8, 22115, Control_c, 6, 11, 34
8, 22116, Control_c, 6, 11, 32
8, 22117, Control_c, 6, 11, 29
8, 22118, Control_c, 6, 11, 26
8, 22119, Control_c, 6, 11, 24
8, 22120, Control_c, 6, 11, 21
8, 22121, Control_c, 6, 11, 19
8, 22122, Control_c, 6, 11, 16
8, 22123, Control_c, 6, 11, 13
8, 22124, Control_c, 6, 11, 11
8, 22125, Control_c, 6, 11, 8
8, 22126, Control_c, 6, 11, 5
8, 22127, Control_c, 6, 11, 3
8, 22128, Note_off_c, 6, 33, 64
8, 22128, Control_c, 6, 11, 127
8, 22128, Note_on_c, 6, 93, 64
8, 22129, Control_c, 6, 11, 124
8, 22130, Control_c, 6, 11, 122
8, 22131, Control_c, 6, 11, 119
8, 22132, Control_c, 6, 11, 116
8, 22133, Control_c, 6, 11, 114
8, 22134, Control_c, 6, 11, 111
8, 22135, Control_c, 6, 11, 108
8, 22136, Control_c, 6, 11, 106
8, 22137, Control_c, 6, 11, 103
8, 22138, Control_c, 6, 11, 101
8, 22139, Control_c, 6, 11, 98
8, 22140, Control_c, 6, 11, 95
8, 22141, Control_c, 6, 11, 93
8, 22142, Control_c, 6, 11, 90
8, 22143, Control_c, 6, 11, 87
8, 22144, Control_c, 6, 11, 85
8, 22145, Control_c, 6, 11, 82
8, 22146, Control_c, 6, 11, 79
8, 22147, Control_c, 6, 11, 77
8, 22148, Control_c, 6, 11, 74
8, 22149, Control_c, 6, 11, 71
8, 22150, Control_c, 6, 11, 69
8, 22151, Control_c, 6, 11, 66
8, 22152, Control_c, 6, 11, 64
8, 22153, Control_c, 6, 11, 61
8, 22154, Control_c, 6, 11, 58
8, 22155, Control_c, 6, 11, 56
8, 22156, Control_c, 6, 11, 53
8, 22157, Control_c, 6, 11, 50
8, 22158, Control_c, 6, 11, 48
8, 22159, Control_c, 6, 11, 45
8, 22160, Control_c, 6, 11, 42
8, 22161, Control_c, 6, 11, 40
8, 22162, Control_c, 6, 11, 37
8, 22163, Control_c, 6, 11, 34
8, 22164, Control_c, 6, 11, 32
8, 22165, Control_c, 6, 11, 29
8, 22166, Control_c, 6, 11, 26
8, 22167, Control_c, 6, 11, 24
8, 22168, Control_c, 6, 11, 21
8, 22169, Control_c, 6, 11, 19
8, 22170, Control_c, 6, 11, 16
8, 22171, Control_c, 6, 11, 13
8, 22172, Control_c, 6, 11, 11
8, 22173, Control_c, 6, 11, 8
8, 22174, Control_c, 6, 11, 5
8, 22175, Control_c, 6, 11, 3
8, 22176, Note_off_c, 6, 93, 64
8, 22176, Control_c, 6, 11, 127
8, 22176, Note_on_c, 6, 63, 64
8, 22177, Control_c, 6, 11, 124
8, 22178, Control_c, 6, 11, 122
8, 22179, Control_c, 6, 11, 119
8, 22180, Control_c, 6, 11, 116
8, 22181, Control_c, 6, 11, 114
8, 22182, Control_c, 6, 11, 111
8, 22183, Control_c, 6, 11, 108
8, 22184, Control_c, 6, 11, 106
8, 22185, Control_c, 6, 11, 103
8, 22186, Control_c, 6, 11, 101
8, 22187, Control_c, 6, 11, 98
8, 22188, Control_c, 6, 11, 95
8, 22189, Control_c, 6, 11, 93
8, 22190, Control_c, 6, 11, 90
8, 22191, Control_c, 6, 11, 87
8, 22192, Control_c, 6, 11, 85
8, 22193, Control_c, 6, 11, 82
8, 22194, Control_c, 6, 11, 79
8, 22195, Control_c, 6, 11, 77
8, 22196, Control_c, 6, 11, 74
8, 22197, Control_c, 6, 11, 71
8, 22198, Control_c, 6, 11, 69
8, 22199, Control_c, 6, 11, 66
8, 22200, Control_c, 6, 11, 64
8, 22201, Control_c, 6, 11, 61
8, 22202, Control_c, 6, 11, 58
8, 22203, Control_c, 6, 11, 56
8, 22204, Control_c, 6, 11, 53
8, 22205, Control_c, 6, 11, 50
8, 22206, Control_c, 6, 11, 48
8, 22207, Control_c, 6, 11, 45
8, 22208, Control_c, 6, 11, 42
8, 22209, Control_c, 6, 11, 40
8, 22210, Control_c, 6, 11, 37
8, 22211, Control_c, 6, 11, 34
8, 22212, Control_c, 6, 11, 32
8, 22213, Control_c, 6, 11, 29
8, 22214, Control_c, 6, 11, 26
8, 22215, Control_c, 6, 11, 24
8, 22216, Control_c, 6, 11, 21
8, 22217, Control_c, 6, 11, 19
8, 22218, Control_c, 6, 11, 16
8, 22219, Control_c, 6, 11, 13
8, 22220, Control_c, 6, 11, 11
8, 22221, Control_c, 6, 11, 8
8, 22222, Control_c, 6, 11, 5
8, 22223, Control_c, 6, 11, 3
8, 22224, Note_off_c, 6, 63, 64
8, 22224, Control_c, 6, 11, 127
8, 22224, Note_on_c, 6, 63, 64
8, 22225, Control_c, 6, 11, 124
8, 22226, Control_c, 6, 11, 122
8, 22227, Control_c, 6, 11, 119
8, 22228, Control_c, 6, 11, 116
8, 22229, Control_c, 6, 11, 114
8, 22230, Control_c, 6, 11, 111
8, 22231, Control_c, 6, 11, 108
8, 22232, Control_c, 6, 11, 106
8, 22233, Control_c, 6, 11, 103
8, 22234, Control_c, 6, 11, 101
8, 22235, Control_c, 6, 11, 98
8, 22236, Control_c, 6, 11, 95
8, 22237, Control_c, 6, 11, 93
8, 22238, Control_c, 6, 11, 90
8, 22239, Control_c, 6, 11, 87
8, 22240, Control_c, 6, 11, 85
8, 22241, Control_c, 6, 11, 82
8, 22242, Control_c, 6, 11, 79
8, 22243, Control_c, 6, 11, 77
8, 22244, Control_c, 6, 11, 74
8, 22245, Control_c, 6, 11, 71
8, 22246, Control_c, 6, 11, 69
8, 22247, Control_c, 6, 11, 66
8, 22248, Control_c, 6, 11, 64
8, 22249, Control_c, 6, 11, 61
8, 22250, Control_c, 6, 11, 58
8, 22251, Control_c, 6, 11, 56
8, 22252, Control_c, 6, 11, 53
8, 22253, Control_c, 6, 11, 50
8, 22254, Control_c, 6, 11, 48
8, 22255, Control_c, 6, 11, 45
8, 22256, Control_c, 6, 11, 42
8, 22257, Control_c, 6, 11, 40
8, 22258, Control_c, 6, 11, 37
8, 22259, Control_c, 6, 11, 34
8, 22260, Control_c, 6, 11, 32
8, 22261, Control_c, 6, 11, 29
8, 22262, Control_c, 6, 11, 26
8, 22263, Control_c, 6, 11, 24
8, 22264, Control_c, 6, 11, 21
8, 22265, Control_c, 6, 11, 19
8, 22266, Control_c, 6, 11, 16
8, 22267, Control_c, 6, 11, 13
8, 22268, Control_c, 6, 11, 11
8, 22269, Control_c, 6, 11, 8
8, 22270, Control_c, 6, 11, 5
8, 22271, Control_c, 6, 11, 3
8, 22272, Note_off_c, 6, 63, 64
8, 22272, Control_c, 6, 11, 127
8, 22272, Note_on_c, 6, 33, 64
8, 22273, Control_c, 6, 11, 124
8, 22274, Control_c, 6, 11, 122
8, 22275, Control_c, 6, 11, 119
8, 22276, Control_c, 6, 11, 116
8, 22277, Control_c, 6, 11, 114
8, 22278, Control_c, 6, 11, 111
8, 22279, Control_c, 6, 11, 108
8, 22280, Control_c, 6, 11, 106
8, 22281, Control_c, 6, 11, 103
8, 22282, Control_c, 6, 11, 101
8, 22283, Control_c, 6, 11, 98
8, 22284, Control_c, 6, 11, 95
8, 22285, Control_c, 6, 11, 93
8, 22286, Control_c, 6, 11, 90
8, 22287, Control_c, 6, 11, 87
8, 22288, Control_c, 6, 11, 85
8, 22289, Control_c, 6, 11, 82
8, 22290, Control_c, 6, 11, 79
8, 22291, Control_c, 6, 11, 77
8, 22292, Control_c, 6, 11, 74
8, 22293, Control_c, 6, 11, 71
8, 22294, Control_c, 6, 11, 69
8, 22295, Control_c, 6, 11, 66
8, 22296, Control_c, 6, 11, 64
8, 22297, Control_c, 6, 11, 61
8, 22298, Control_c, 6, 11, 58
8, 22299, Control_c, 6, 11, 56
8, 22300, Control_c, 6, 11, 53
8, 22301, Control_c, 6, 11, 50
8, 22302, Control_c, 6, 11, 48
8, 22303, Control_c, 6, 11, 45
8, 22304, Control_c, 6, 11, 42
8, 22305, Control_c, 6, 11, 40
8, 22306, Control_c, 6, 11, 37
8, 22307, Control_c, 6, 11, 34
8, 22308, Control_c, 6, 11, 32
8, 22309, Control_c, 6, 11, 29
8, 22310, Control_c, 6, 11, 26
8, 22311, Control_c, 6, 11, 24
8, 22312, Control_c, 6, 11, 21
8, 22313, Control_c, 6, 11, 19
8, 22314, Control_c, 6, 11, 16
8, 22315, Control_c, 6, 11, 13
8, 22316, Control_c, 6, 11, 11
8, 22317, Control_c, 6, 11, 8
8, 22318, Control_c, 6, 11, 5
8, 22319, Control_c, 6, 11, 3
8, 22320, Note_off_c, 6, 33, 64
8, 22320, Control_c, 6, 11, 127
8, 22320, Note_on_c, 6, 93, 64
8, 22321, Control_c, 6, 11, 124
8, 22322, Control_c, 6, 11, 122
8, 22323, Control_c, 6, 11, 119
8, 22324, Control_c, 6, 11, 116
8, 22325, Control_c, 6, 11, 114
8, 22326, Control_c, 6, 11, 111
8, 22327, Control_c, 6, 11, 108
8, 22328, Control_c, 6, 11, 106
8, 22329, Control_c, 6, 11, 103
8, 22330, Control_c, 6, 11, 101
8, 22331, Control_c, 6, 11, 98
8, 22332, Control_c, 6, 11, 95
8, 22333, Control_c, 6, 11, 93
8, 22334, Control_c, 6, 11, 90
8, 22335, Control_c, 6, 11, 87
8, 22336, Control_c, 6, 11, 85
8, 22337, Control_c, 6, 11, 82
8, 22338, Control_c, 6, 11, 79
8, 22339, Control_c, 6, 11, 77
8, 22340, Control_c, 6, 11, 74
8, 22341, Control_c, 6, 11, 71
8, 22342, Control_c, 6, 11, 69
8, 22343, Control_c, 6, 11, 66
8, 22344, Control_c, 6, 11, 64
8, 22345, Control_c, 6, 11, 61
8, 22346, Control_c, 6, 11, 58
8, 22347, Control_c, 6, 11, 56
8, 22348, Control_c, 6, 11, 53
8, 22349, Control_c, 6, 11, 50
8, 22350, Control_c, 6, 11, 48
8, 22351, Control_c, 6, 11, 45
8, 22352, Control_c, 6, 11, 42
8, 22353, Control_c, 6, 11, 40
8, 22354, Control_c, 6, 11, 37
8, 22355, Control_c, 6, 11, 34
8, 22356, Control_c, 6, 11, 32
8, 22357, Control_c, 6, 11, 29
8, 22358, Control_c, 6, 11, 26
8, 22359, Control_c, 6, 11, 24
8, 22360, Control_c, 6, 11, 21
8, 22361, Control_c, 6, 11, 19
8, 22362, Control_c, 6, 11, 16
8, 22363, Control_c, 6, 11, 13
8, 22364, Control_c, 6, 11, 11
8, 22365, Control_c, 6, 11, 8
8, 22366, Control_c, 6, 11, 5
8, 22367, Control_c, 6, 11, 3
8, 22368, Note_off_c, 6, 93, 64
8, 22368, Control_c, 6, 11, 127
8, 22368, Note_on_c, 6, 63, 64
8, 22369, Control_c, 6, 11, 124
8, 22370, Control_c, 6, 11, 122
8, 22371, Control_c, 6, 11, 119
8, 22372, Control_c, 6, 11, 116
8, 22373, Control_c, 6, 11, 114
8, 22374, Control_c, 6, 11, 111
8, 22375, Control_c, 6, 11, 108
8, 22376, Control_c, 6, 11, 106
8, 22377, Control_c, 6, 11, 103
8, 22378, Control_c, 6, 11, 101
8, 22379, Control_c, 6, 11, 98
8, 22380, Control_c, 6, 11, 95
8, 22381, Control_c, 6, 11, 93
8, 22382, Control_c, 6, 11, 90
8, 22383, Control_c, 6, 11, 87
8, 22384, Control_c, 6, 11, 85
8, 22385, Control_c, 6, 11, 82
8, 22386, Control_c, 6, 11, 79
8, 22387, Control_c, 6, 11, 77
8, 22388, Control_c, 6, 11, 74
8, 22389, Control_c, 6, 11, 71
8, 22390, Control_c, 6, 11, 69
8, 22391, Control_c, 6, 11, 66
8, 22392, Control_c, 6, 11, 64
8, 22393, Control_c, 6, 11, 61
8, 22394, Control_c, 6, 11, 58
8, 22395, Control_c, 6, 11, 56
8, 22396, Control_c, 6, 11, 53
8, 22397, Control_c, 6, 11, 50
8, 22398, Control_c, 6, 11, 48
8, 22399, Control_c, 6, 11, 45
8, 22400, Control_c, 6, 11, 42
8, 22401, Control_c, 6, 11, 40
8, 22402, Control_c, 6, 11, 37
8, 22403, Control_c, 6, 11, 34
8, 22404, Control_c, 6, 11, 32
8, 22405, Control_c, 6, 11, 29
8, 22406, Control_c, 6, 11, 26
8, 22407, Control_c, 6, 11, 24
8, 22408, Control_c, 6, 11, 21
8, 22409, Control_c, 6, 11, 19
8, 22410, Control_c, 6, 11, 16
8, 22411, Control_c, 6, 11, 13
8, 22412, Control_c, 6, 11, 11
8, 22413, Control_c, 6, 11, 8
8, 22414, Control_c, 6, 11, 5
8, 22415, Control_c, 6, 11, 3
8, 22416, Note_off_c, 6, 63, 64
8, 22416, Control_c, 6, 11, 127
8, 22416, Note_on_c, 6, 93, 64
8, 22417, Control_c, 6, 11, 124
8, 22418, Control_c, 6, 11, 122
8, 22419, Control_c, 6, 11, 119
8, 22420, Control_c, 6, 11, 116
8, 22421, Control_c, 6, 11, 114
8, 22422, Control_c, 6, 11, 111
8, 22423, Control_c, 6, 11, 108
8, 22424, Control_c, 6, 11, 106
8, 22425, Control_c, 6, 11, 103
8, 22426, Control_c, 6, 11, 101
8, 22427, Control_c, 6, 11, 98
8, 22428, Control_c, 6, 11, 95
8, 22429, Control_c, 6, 11, 93
8, 22430, Control_c, 6, 11, 90
8, 22431, Control_c, 6, 11, 87
8, 22432, Control_c, 6, 11, 85
8, 22433, Control_c, 6, 11, 82
8, 22434, Control_c, 6, 11, 79
8, 22435, Control_c, 6, 11, 77
8, 22436, Control_c, 6, 11, 74
8, 22437, Control_c, 6, 11, 71
8, 22438, Control_c, 6, 11, 69
8, 22439, Control_c, 6, 11, 66
8, 22440, Control_c, 6, 11, 64
8, 22441, Control_c, 6, 11, 61
8, 22442, Control_c, 6, 11, 58
8, 22443, Control_c, 6, 11, 56
8, 22444, Control_c, 6, 11, 53
8, 22445, Control_c, 6, 11, 50
8, 22446, Control_c, 6, 11, 48
8, 22447, Control_c, 6, 11, 45
8, 22448, Control_c, 6, 11, 42
8, 22449, Control_c, 6, 11, 40
8, 22450, Control_c, 6, 11, 37
8, 22451, Control_c, 6, 11, 34
8, 22452, Control_c, 6, 11, 32
8, 22453, Control_c, 6, 11, 29
8, 22454, Control_c, 6, 11, 26
8, 22455, Control_c, 6, 11, 24
8, 22456, Control_c, 6, 11, 21
8, 22457, Control_c, 6, 11, 19
8, 22458, Control_c, 6, 11, 16
8, 22459, Control_c, 6, 11, 13
8, 22460, Control_c, 6, 11, 11
8, 22461, Control_c, 6, 11, 8
8, 22462, Control_c, 6, 11, 5
8, 22463, Control_c, 6, 11, 3
8, 22464, Note_off_c, 6, 93, 64
8, 22464, Control_c, 6, 11, 127
8, 22464, Note_on_c, 6, 33, 64
8, 22465, Control_c, 6, 11, 124
8, 22466, Control_c, 6, 11, 122
8, 22467, Control_c, 6, 11, 119
8, 22468, Control_c, 6, 11, 116
8, 22469, Control_c, 6, 11, 114
8, 22470, Control_c, 6, 11, 111
8, 22471, Control_c, 6, 11, 108
8, 22472, Control_c, 6, 11, 106
8, 22473, Control_c, 6, 11, 103
8, 22474, Control_c, 6, 11, 101
8, 22475, Control_c, 6, 11, 98
8, 22476, Control_c, 6, 11, 95
8, 22477, Control_c, 6, 11, 93
8, 22478, Control_c, 6, 11, 90
8, 22479, Control_c, 6, 11, 87
8, 22480, Control_c, 6, 11, 85
8, 22481, Control_c, 6, 11, 82
8, 22482, Control_c, 6, 11, 79
8, 22483, Control_c, 6, 11, 77
8, 22484, Control_c, 6, 11, 74
8, 22485, Control_c, 6, 11, 71
8, 22486, Control_c, 6, 11, 69
8, 22487, Control_c, 6, 11, 66
8, 22488, Control_c, 6, 11, 64
8, 22489, Control_c, 6, 11, 61
8, 22490, Control_c, 6, 11, 58
8, 22491, Control_c, 6, 11, 56
8, 22492, Control_c, 6, 11, 53
8, 22493, Control_c, 6, 11, 50
8, 22494, Control_c, 6, 11, 48
8, 22495, Control_c, 6, 11, 45
8, 22496, Control_c, 6, 11, 42
8, 22497, Control_c, 6, 11, 40
8, 22498, Control_c, 6, 11, 37
8, 22499, Control_c, 6, 11, 34
8, 22500, Control_c, 6, 11, 32
8, 22501, Control_c, 6, 11, 29
8, 22502, Control_c, 6, 11, 26
8, 22503, Control_c, 6, 11, 24
8, 22504, Control_c, 6, 11, 21
8, 22505, Control_c, 6, 11, 19
8, 22506, Control_c, 6, 11, 16
8, 22507, Control_c, 6, 11, 13
8, 22508, Control_c, 6, 11, 11
8, 22509, Control_c, 6, 11, 8
8, 22510, Control_c, 6, 11, 5
8, 22511, Control_c, 6, 11, 3
8, 22512, Note_off_c, 6, 33, 64
8, 22512, Control_c, 6, 11, 127
8, 22512, Note_on_c, 6, 93, 64
8, 22513, Control_c, 6, 11, 124
8, 22514, Control_c, 6, 11, 122
8, 22515, Control_c, 6, 11, 119
8, 22516, Control_c, 6, 11, 116
8, 22517, Control_c, 6, 11, 114
8, 22518, Control_c, 6, 11, 111
8, 22519, Control_c, 6, 11, 108
8, 22520, Control_c, 6, 11, 106
8, 22521, Control_c, 6, 11, 103
8, 22522, Control_c, 6, 11, 101
8, 22523, Control_c, 6, 11, 98
8, 22524, Control_c, 6, 11, 95
8, 22525, Control_c, 6, 11, 93
8, 22526, Control_c, 6, 11, 90
8, 22527, Control_c, 6, 11, 87
8, 22528, Control_c, 6, 11, 85
8, 22529, Control_c, 6, 11, 82
8, 22530, Control_c, 6, 11, 79
8, 22531, Control_c, 6, 11, 77
8, 22532, Control_c, 6, 11, 74
8, 22533, Control_c, 6, 11, 71
8, 22534, Control_c, 6, 11, 69
8, 22535, Control_c, 6, 11, 66
8, 22536, Control_c, 6, 11, 64
8, 22537, Control_c, 6, 11, 61
8, 22538, Control_c, 6, 11, 58
8, 22539, Control_c, 6, 11, 56
8, 22540, Control_c, 6, 11, 53
8, 22541, Control_c, 6, 11, 50
8, 22542, Control_c, 6, 11, 48
8, 22543, Control_c, 6, 11, 45
8, 22544, Control_c, 6, 11, 42
8, 22545, Control_c, 6, 11, 40
8, 22546, Control_c, 6, 11, 37
8, 22547, Control_c, 6, 11, 34
8, 22548, Control_c, 6, 11, 32
8, 22549, Control_c, 6, 11, 29
8, 22550, Control_c, 6, 11, 26
8, 22551, Control_c, 6, 11, 24
8, 22552, Control_c, 6, 11, 21
8, 22553, Control_c, 6, 11, 19
8, 22554, Control_c, 6, 11, 16
8, 22555, Control_c, 6, 11, 13
8, 22556, Control_c, 6, 11, 11
8, 22557, Control_c, 6, 11, 8
8, 22558, Control_c, 6, 11, 5
8, 22559, Control_c, 6, 11, 3
8, 22560, Note_off_c, 6, 93, 64
8, 22560, Control_c, 6, 11, 127
8, 22560, Note_on_c, 6, 63, 64
8, 22561, Control_c, 6, 11, 124
8, 22562, Control_c, 6, 11, 122
8, 22563, Control_c, 6, 11, 119
8, 22564, Control_c, 6, 11, 116
8, 22565, Control_c, 6, 11, 114
8, 22566, Control_c, 6, 11, 111
8, 22567, Control_c, 6, 11, 108
8, 22568, Control_c, 6, 11, 106
8, 22569, Control_c, 6, 11, 103
8, 22570, Control_c, 6, 11, 101
8, 22571, Control_c, 6, 11, 98
8, 22572, Control_c, 6, 11, 95
8, 22573, Control_c, 6, 11, 93
8, 22574, Control_c, 6, 11, 90
8, 22575, Control_c, 6, 11, 87
8, 22576, Control_c, 6, 11, 85
8, 22577, Control_c, 6, 11, 82
8, 22578, Control_c, 6, 11, 79
8, 22579, Control_c, 6, 11, 77
8, 22580, Control_c, 6, 11, 74
8, 22581, Control_c, 6, 11, 71
8, 22582, Control_c, 6, 11, 69
8, 22583, Control_c, 6, 11, 66
8, 22584, Control_c, 6, 11, 64
8, 22585, Control_c, 6, 11, 61
8, 22586, Control_c, 6, 11, 58
8, 22587, Control_c, 6, 11, 56
8, 22588, Control_c, 6, 11, 53
8, 22589, Control_c, 6, 11, 50
8, 22590, Control_c, 6, 11, 48
8, 22591, Control_c, 6, 11, 45
8, 22592, Control_c, 6, 11, 42
8, 22593, Control_c, 6, 11, 40
8, 22594, Control_c, 6, 11, 37
8, 22595, Control_c, 6, 11, 34
8, 22596, Control_c, 6, 11, 32
8, 22597, Control_c, 6, 11, 29
8, 22598, Control_c, 6, 11, 26
8, 22599, Control_c, 6, 11, 24
8, 22600, Control_c, 6, 11, 21
8, 22601, Control_c, 6, 11, 19
8, 22602, Control_c, 6, 11, 16
8, 22603, Control_c, 6, 11, 13
8, 22604, Control_c, 6, 11, 11
8, 22605, Control_c, 6, 11, 8
8, 22606, Control_c, 6, 11, 5
8, 22607, Control_c, 6, 11, 3
8, 22608, Note_off_c, 6, 63, 64
8, 22608, Control_c, 6, 11, 127
8, 22608, Note_on_c, 6, 93, 64
8, 22609, Control_c, 6, 11, 124
8, 22610, Control_c, 6, 11, 122
8, 22611, Control_c, 6, 11, 119
8, 22612, Control_c, 6, 11, 116
8, 22613, Control_c, 6, 11, 114
8, 22614, Control_c, 6, 11, 111
8, 22615, Control_c, 6, 11, 108
8, 22616, Control_c, 6, 11, 106
8, 22617, Control_c, 6, 11, 103
8, 22618, Control_c, 6, 11, 101
8, 22619, Control_c, 6, 11, 98
8, 22620, Control_c, 6, 11, 95
8, 22621, Control_c, 6, 11, 93
8, 22622, Control_c, 6, 11, 90
8, 22623, Control_c, 6, 11, 87
8, 22624, Control_c, 6, 11, 85
8, 22625, Control_c, 6, 11, 82
8, 22626, Control_c, 6, 11, 79
8, 22627, Control_c, 6, 11, 77
8, 22628, Control_c, 6, 11, 74
8, 22629, Control_c, 6, 11, 71
8, 22630, Control_c, 6, 11, 69
8, 22631, Control_c, 6, 11, 66
8, 22632, Control_c, 6, 11, 64
8, 22633, Control_c, 6, 11, 61
8, 22634, Control_c, 6, 11, 58
8, 22635, Control_c, 6, 11, 56
8, 22636, Control_c, 6, 11, 53
8, 22637, Control_c, 6, 11, 50
8, 22638, Control_c, 6, 11, 48
8, 22639, Control_c, 6, 11, 45
8, 22640, Control_c, 6, 11, 42
8, 22641, Control_c, 6, 11, 40
8, 22642, Control_c, 6, 11, 37
8, 22643, Control_c, 6, 11, 34
8, 22644, Control_c, 6, 11, 32
8, 22645, Control_c, 6, 11, 29
8, 22646, Control_c, 6, 11, 26
8, 22647, Control_c, 6, 11, 24
8, 22648, Control_c, 6, 11, 21
8, 22649, Control_c, 6, 11, 19
8, 22650, Control_c, 6, 11, 16
8, 22651, Control_c, 6, 11, 13
8, 22652, Control_c, 6, 11, 11
8, 22653, Control_c, 6, 11, 8
8, 22654, Control_c, 6, 11, 5
8, 22655, Control_c, 6, 11, 3
8, 22656, Note_off_c, 6, 93, 64
8, 22656, Control_c, 6, 11, 127
8, 22656, Note_on_c, 6, 33, 64
8, 22657, Control_c, 6, 11, 124
8, 22658, Control_c, 6, 11, 122
8, 22659, Control_c, 6, 11, 119
8, 22660, Control_c, 6, 11, 116
8, 22661, Control_c, 6, 11, 114
8, 22662, Control_c, 6, 11, 111
8, 22663, Control_c, 6, 11, 108
8, 22664, Control_c, 6, 11, 106
8, 22665, Control_c, 6, 11, 103
8, 22666, Control_c, 6, 11, 101
8, 22667, Control_c, 6, 11, 98
8, 22668, Control_c, 6, 11, 95
8, 22669, Control_c, 6, 11, 93
8, 22670, Control_c, 6, 11, 90
8, 22671, Control_c, 6, 11, 87
8, 22672, Control_c, 6, 11, 85
8, 22673, Control_c, 6, 11, 82
8, 22674, Control_c, 6, 11, 79
8, 22675, Control_c, 6, 11, 77
8, 22676, Control_c, 6, 11, 74
8, 22677, Control_c, 6, 11, 71
8, 22678, Control_c, 6, 11, 69
8, 22679, Control_c, 6, 11, 66
8, 22680, Control_c, 6, 11, 64
8, 22681, Control_c, 6, 11, 61
8, 22682, Control_c, 6, 11, 58
8, 22683, Control_c, 6, 11, 56
8, 22684, Control_c, 6, 11, 53
8, 22685, Control_c, 6, 11, 50
8, 22686, Control_c, 6, 11, 48
8, 22687, Control_c, 6, 11, 45
8, 22688, Control_c, 6, 11, 42
8, 22689, Control_c, 6, 11, 40
8, 22690, Control_c, 6, 11, 37
8, 22691, Control_c, 6, 11, 34
8, 22692, Control_c, 6, 11, 32
8, 22693, Control_c, 6, 11, 29
8, 22694, Control_c, 6, 11, 26
8, 22695, Control_c, 6, 11, 24
8, 22696, Control_c, 6, 11, 21
8, 22697, Control_c, 6, 11, 19
8, 22698, Control_c, 6, 11, 16
8, 22699, Control_c, 6, 11, 13
8, 22700, Control_c, 6, 11, 11
8, 22701, Control_c, 6, 11, 8
8, 22702, Control_c, 6, 11, 5
8, 22703, Control_c, 6, 11, 3
8, 22704, Note_off_c, 6, 33, 64
8, 22704, Control_c, 6, 11, 127
8, 22704, Note_on_c, 6, 93, 64
8, 22705, Control_c, 6, 11, 124
8, 22706, Control_c, 6, 11, 122
8, 22707, Control_c, 6, 11, 119
8, 22708, Control_c, 6, 11, 116
8, 22709, Control_c, 6, 11, 114
8, 22710, Control_c, 6, 11, 111
8, 22711, Control_c, 6, 11, 108
8, 22712, Control_c, 6, 11, 106
8, 22713, Control_c, 6, 11, 103
8, 22714, Control_c, 6, 11, 101
8, 22715, Control_c, 6, 11, 98
8, 22716, Control_c, 6, 11, 95
8, 22717, Control_c, 6, 11, 93
8, 22718, Control_c, 6, 11, 90
8, 22719, Control_c, 6, 11, 87
8, 22720, Control_c, 6, 11, 85
8, 22721, Control_c, 6, 11, 82
8, 22722, Control_c, 6, 11, 79
8, 22723, Control_c, 6, 11, 77
8, 22724, Control_c, 6, 11, 74
8, 22725, Control_c, 6, 11, 71
8, 22726, Control_c, 6, 11, 69
8, 22727, Control_c, 6, 11, 66
8, 22728, Control_c, 6, 11, 64
8, 22729, Control_c, 6, 11, 61
8, 22730, Control_c, 6, 11, 58
8, 22731, Control_c, 6, 11, 56
8, 22732, Control_c, 6, 11, 53
8, 22733, Control_c, 6, 11, 50
8, 22734, Control_c, 6, 11, 48
8, 22735, Control_c, 6, 11, 45
8, 22736, Control_c, 6, 11, 42
8, 22737, Control_c, 6, 11, 40
8, 22738, Control_c, 6, 11, 37
8, 22739, Control_c, 6, 11, 34
8, 22740, Control_c, 6, 11, 32
8, 22741, Control_c, 6, 11, 29
8, 22742, Control_c, 6, 11, 26
8, 22743, Control_c, 6, 11, 24
8, 22744, Control_c, 6, 11, 21
8, 22745, Control_c, 6, 11, 19
8, 22746, Control_c, 6, 11, 16
8, 22747, Control_c, 6, 11, 13
8, 22748, Control_c, 6, 11, 11
8, 22749, Control_c, 6, 11, 8
8, 22750, Control_c, 6, 11, 5
8, 22751, Control_c, 6, 11, 3
8, 22752, Note_off_c, 6, 93, 64
8, 22752, Control_c, 6, 11, 127
8, 22752, Note_on_c, 6, 63, 64
8, 22753, Control_c, 6, 11, 124
8, 22754, Control_c, 6, 11, 122
8, 22755, Control_c, 6, 11, 119
8, 22756, Control_c, 6, 11, 116
8, 22757, Control_c, 6, 11, 114
8, 22758, Control_c, 6, 11, 111
8, 22759, Control_c, 6, 11, 108
8, 22760, Control_c, 6, 11, 106
8, 22761, Control_c, 6, 11, 103
8, 22762, Control_c, 6, 11, 101
8, 22763, Control_c, 6, 11, 98
8, 22764, Control_c, 6, 11, 95
8, 22765, Control_c, 6, 11, 93
8, 22766, Control_c, 6, 11, 90
8, 22767, Control_c, 6, 11, 87
8, 22768, Control_c, 6, 11, 85
8, 22769, Control_c, 6, 11, 82
8, 22770, Control_c, 6, 11, 79
8, 22771, Control_c, 6, 11, 77
8, 22772, Control_c, 6, 11, 74
8, 22773, Control_c, 6, 11, 71
8, 22774, Control_c, 6, 11, 69
8, 22775, Control_c, 6, 11, 66
8, 22776, Control_c, 6, 11, 64
8, 22777, Control_c, 6, 11, 61
8, 22778, Control_c, 6, 11, 58
8, 22779, Control_c, 6, 11, 56
8, 22780, Control_c, 6, 11, 53
8, 22781, Control_c, 6, 11, 50
8, 22782, Control_c, 6, 11, 48
8, 22783, Control_c, 6, 11, 45
8, 22784, Control_c, 6, 11, 42
8, 22785, Control_c, 6, 11, 40
8, 22786, Control_c, 6, 11, 37
8, 22787, Control_c, 6, 11, 34
8, 22788, Control_c, 6, 11, 32
8, 22789, Control_c, 6, 11, 29
8, 22790, Control_c, 6, 11, 26
8, 22791, Control_c, 6, 11, 24
8, 22792, Control_c, 6, 11, 21
8, 22793, Control_c, 6, 11, 19
8, 22794, Control_c, 6, 11, 16
8, 22795, Control_c, 6, 11, 13
8, 22796, Control_c, 6, 11, 11
8, 22797, Control_c, 6, 11, 8
8, 22798, Control_c, 6, 11, 5
8, 22799, Control_c, 6, 11, 3
8, 22800, Note_off_c, 6, 63, 64
8, 22800, Control_c, 6, 11, 127
8, 22800, Note_on_c, 6, 93, 64
8, 22801, Control_c, 6, 11, 124
8, 22802, Control_c, 6, 11, 122
8, 22803, Control_c, 6, 11, 119
8, 22804, Control_c, 6, 11, 116
8, 22805, Control_c, 6, 11, 114
8, 22806, Control_c, 6, 11, 111
8, 22807, Control_c, 6, 11, 108
8, 22808, Control_c, 6, 11, 106
8, 22809, Control_c, 6, 11, 103
8, 22810, Control_c, 6, 11, 101
8, 22811, Control_c, 6, 11, 98
8, 22812, Control_c, 6, 11, 95
8, 22813, Control_c, 6, 11, 93
8, 22814, Control_c, 6, 11, 90
8, 22815, Control_c, 6, 11, 87
8, 22816, Control_c, 6, 11, 85
8, 22817, Control_c, 6, 11, 82
8, 22818, Control_c, 6, 11, 79
8, 22819, Control_c, 6, 11, 77
8, 22820, Control_c, 6, 11, 74
8, 22821, Control_c, 6, 11, 71
8, 22822, Control_c, 6, 11, 69
8, 22823, Control_c, 6, 11, 66
8, 22824, Control_c, 6, 11, 64
8, 22825, Control_c, 6, 11, 61
8, 22826, Control_c, 6, 11, 58
8, 22827, Control_c, 6, 11, 56
8, 22828, Control_c, 6, 11, 53
8, 22829, Control_c, 6, 11, 50
8, 22830, Control_c, 6, 11, 48
8, 22831, Control_c, 6, 11, 45
8, 22832, Control_c, 6, 11, 42
8, 22833, Control_c, 6, 11, 40
8, 22834, Control_c, 6, 11, 37
8, 22835, Control_c, 6, 11, 34
8, 22836, Control_c, 6, 11, 32
8, 22837, Control_c, 6, 11, 29
8, 22838, Control_c, 6, 11, 26
8, 22839, Control_c, 6, 11, 24
8, 22840, Control_c, 6, 11, 21
8, 22841, Control_c, 6, 11, 19
8, 22842, Control_c, 6, 11, 16
8, 22843, Control_c, 6, 11, 13
8, 22844, Control_c, 6, 11, 11
8, 22845, Control_c, 6, 11, 8
8, 22846, Control_c, 6, 11, 5
8, 22847, Control_c, 6, 11, 3
8, 22848, Note_off_c, 6, 93, 64
8, 22848, Control_c, 6, 11, 127
8, 22848, Note_on_c, 6, 33, 64
8, 22849, Control_c, 6, 11, 124
8, 22850, Control_c, 6, 11, 122
8, 22851, Control_c, 6, 11, 119
8, 22852, Control_c, 6, 11, 116
8, 22853, Control_c, 6, 11, 114
8, 22854, Control_c, 6, 11, 111
8, 22855, Control_c, 6, 11, 108
8, 22856, Control_c, 6, 11, 106
8, 22857, Control_c, 6, 11, 103
8, 22858, Control_c, 6, 11, 101
8, 22859, Control_c, 6, 11, 98
8, 22860, Control_c, 6, 11, 95
8, 22861, Control_c, 6, 11, 93
8, 22862, Control_c, 6, 11, 90
8, 22863, Control_c, 6, 11, 87
8, 22864, Control_c, 6, 11, 85
8, 22865, Control_c, 6, 11, 82
8, 22866, Control_c, 6, 11, 79
8, 22867, Control_c, 6, 11, 77
8, 22868, Control_c, 6, 11, 74
8, 22869, Control_c, 6, 11, 71
8, 22870, Control_c, 6, 11, 69
8, 22871, Control_c, 6, 11, 66
8, 22872, Control_c, 6, 11, 64
8, 22873, Control_c, 6, 11, 61
8, 22874, Control_c, 6, 11, 58
8, 22875, Control_c, 6, 11, 56
8, 22876, Control_c, 6, 11, 53
8, 22877, Control_c, 6, 11, 50
8, 22878, Control_c, 6, 11, 48
8, 22879, Control_c, 6, 11, 45
8, 22880, Control_c, 6, 11, 42
8, 22881, Control_c, 6, 11, 40
8, 22882, Control_c, 6, 11, 37
8, 22883, Control_c, 6, 11, 34
8, 22884, Control_c, 6, 11, 32
8, 22885, Control_c, 6, 11, 29
8, 22886, Control_c, 6, 11, 26
8, 22887, Control_c, 6, 11, 24
8, 22888, Control_c, 6, 11, 21
8, 22889, Control_c, 6, 11, 19
8, 22890, Control_c, 6, 11, 16
8, 22891, Control_c, 6, 11, 13
8, 22892, Control_c, 6, 11, 11
8, 22893, Control_c, 6, 11, 8
8, 22894, Control_c, 6, 11, 5
8, 22895, Control_c, 6, 11, 3
8, 22896, Note_off_c, 6, 33, 64
8, 22896, Control_c, 6, 11, 127
8, 22896, Note_on_c, 6, 93, 64
8, 22897, Control_c, 6, 11, 124
8, 22898, Control_c, 6, 11, 122
8, 22899, Control_c, 6, 11, 119
8, 22900, Control_c, 6, 11, 116
8, 22901, Control_c, 6, 11, 114
8, 22902, Control_c, 6, 11, 111
8, 22903, Control_c, 6, 11, 108
8, 22904, Control_c, 6, 11, 106
8, 22905, Control_c, 6, 11, 103
8, 22906, Control_c, 6, 11, 101
8, 22907, Control_c, 6, 11, 98
8, 22908, Control_c, 6, 11, 95
8, 22909, Control_c, 6, 11, 93
8, 22910, Control_c, 6, 11, 90
8, 22911, Control_c, 6, 11, 87
8, 22912, Control_c, 6, 11, 85
8, 22913, Control_c, 6, 11, 82
8, 22914, Control_c, 6, 11, 79
8, 22915, Control_c, 6, 11, 77
8, 22916, Control_c, 6, 11, 74
8, 22917, Control_c, 6, 11, 71
8, 22918, Control_c, 6, 11, 69
8, 22919, Control_c, 6, 11, 66
8, 22920, Control_c, 6, 11, 64
8, 22921, Control_c, 6, 11, 61
8, 22922, Control_c, 6, 11, 58
8, 22923, Control_c, 6, 11, 56
8, 22924, Control_c, 6, 11, 53
8, 22925, Control_c, 6, 11, 50
8, 22926, Control_c, 6, 11, 48
8, 22927, Control_c, 6, 11, 45
8, 22928, Control_c, 6, 11, 42
8, 22929, Control_c, 6, 11, 40
8, 22930, Control_c, 6, 11, 37
8, 22931, Control_c, 6, 11, 34
8, 22932, Control_c, 6, 11, 32
8, 22933, Control_c, 6, 11, 29
8, 22934, Control_c, 6, 11, 26
8, 22935, Control_c, 6, 11, 24
8, 22936, Control_c, 6, 11, 21
8, 22937, Control_c, 6, 11, 19
8, 22938, Control_c, 6, 11, 16
8, 22939, Control_c, 6, 11, 13
8, 22940, Control_c, 6, 11, 11
8, 22941, Control_c, 6, 11, 8
8, 22942, Control_c, 6, 11, 5
8, 22943, Control_c, 6, 11, 3
8, 22944, Note_off_c, 6, 93, 64
8, 22944, Control_c, 6, 11, 127
8, 22944, Note_on_c, 6, 63, 64
8, 22945, Control_c, 6, 11, 124
8, 22946, Control_c, 6, 11, 122
8, 22947, Control_c, 6, 11, 119
8, 22948, Control_c, 6, 11, 116
8, 22949, Control_c, 6, 11, 114
8, 22950, Control_c, 6, 11, 111
8, 22951, Control_c, 6, 11, 108
8, 22952, Control_c, 6, 11, 106
8, 22953, Control_c, 6, 11, 103
8, 22954, Control_c, 6, 11, 101
8, 22955, Control_c, 6, 11, 98
8, 22956, Control_c, 6, 11, 95
8, 22957, Control_c, 6, 11, 93
8, 22958, Control_c, 6, 11, 90
8, 22959, Control_c, 6, 11, 87
8, 22960, Control_c, 6, 11, 85
8, 22961, Control_c, 6, 11, 82
8, 22962, Control_c, 6, 11, 79
8, 22963, Control_c, 6, 11, 77
8, 22964, Control_c, 6, 11, 74
8, 22965, Control_c, 6, 11, 71
8, 22966, Control_c, 6, 11, 69
8, 22967, Control_c, 6, 11, 66
8, 22968, Control_c, 6, 11, 64
8, 22969, Control_c, 6, 11, 61
8, 22970, Control_c, 6, 11, 58
8, 22971, Control_c, 6, 11, 56
8, 22972, Control_c, 6, 11, 53
8, 22973, Control_c, 6, 11, 50
8, 22974, Control_c, 6, 11, 48
8, 22975, Control_c, 6, 11, 45
8, 22976, Control_c, 6, 11, 42
8, 22977, Control_c, 6, 11, 40
8, 22978, Control_c, 6, 11, 37
8, 22979, Control_c, 6, 11, 34
8, 22980, Control_c, 6, 11, 32
8, 22981, Control_c, 6, 11, 29
8, 22982, Control_c, 6, 11, 26
8, 22983, Control_c, 6, 11, 24
8, 22984, Control_c, 6, 11, 21
8, 22985, Control_c, 6, 11, 19
8, 22986, Control_c, 6, 11, 16
8, 22987, Control_c, 6, 11, 13
8, 22988, Control_c, 6, 11, 11
8, 22989, Control_c, 6, 11, 8
8, 22990, Control_c, 6, 11, 5
8, 22991, Control_c, 6, 11, 3
8, 22992, Note_off_c, 6, 63, 64
8, 22992, Control_c, 6, 11, 127
8, 22992, Note_on_c, 6, 63, 64
8, 22993, Control_c, 6, 11, 124
8, 22994, Control_c, 6, 11, 122
8, 22995, Control_c, 6, 11, 119
8, 22996, Control_c, 6, 11, 116
8, 22997, Control_c, 6, 11, 114
8, 22998, Control_c, 6, 11, 111
8, 22999, Control_c, 6, 11, 108
8, 23000, Control_c, 6, 11, 106
8, 23001, Control_c, 6, 11, 103
8, 23002, Control_c, 6, 11, 101
8, 23003, Control_c, 6, 11, 98
8, 23004, Control_c, 6, 11, 95
8, 23005, Control_c, 6, 11, 93
8, 23006, Control_c, 6, 11, 90
8, 23007, Control_c, 6, 11, 87
8, 23008, Control_c, 6, 11, 85
8, 23009, Control_c, 6, 11, 82
8, 23010, Control_c, 6, 11, 79
8, 23011, Control_c, 6, 11, 77
8, 23012, Control_c, 6, 11, 74
8, 23013, Control_c, 6, 11, 71
8, 23014, Control_c, 6, 11, 69
8, 23015, Control_c, 6, 11, 66
8, 23016, Control_c, 6, 11, 64
8, 23017, Control_c, 6, 11, 61
8, 23018, Control_c, 6, 11, 58
8, 23019, Control_c, 6, 11, 56
8, 23020, Control_c, 6, 11, 53
8, 23021, Control_c, 6, 11, 50
8, 23022, Control_c, 6, 11, 48
8, 23023, Control_c, 6, 11, 45
8, 23024, Control_c, 6, 11, 42
8, 23025, Control_c, 6, 11, 40
8, 23026, Control_c, 6, 11, 37
8, 23027, Control_c, 6, 11, 34
8, 23028, Control_c, 6, 11, 32
8, 23029, Control_c, 6, 11, 29
8, 23030, Control_c, 6, 11, 26
8, 23031, Control_c, 6, 11, 24
8, 23032, Control_c, 6, 11, 21
8, 23033, Control_c, 6, 11, 19
8, 23034, Control_c, 6, 11, 16
8, 23035, Control_c, 6, 11, 13
8, 23036, Control_c, 6, 11, 11
8, 23037, Control_c, 6, 11, 8
8, 23038, Control_c, 6, 11, 5
8, 23039, Control_c, 6, 11, 3
8, 23040, Note_off_c, 6, 63, 64
8, 23040, Control_c, 6, 11, 127
8, 23040, Note_on_c, 6, 33, 64
8, 23041, Control_c, 6, 11, 124
8, 23042, Control_c, 6, 11, 122
8, 23043, Control_c, 6, 11, 119
8, 23044, Control_c, 6, 11, 116
8, 23045, Control_c, 6, 11, 114
8, 23046, Control_c, 6, 11, 111
8, 23047, Control_c, 6, 11, 108
8, 23048, Control_c, 6, 11, 106
8, 23049, Control_c, 6, 11, 103
8, 23050, Control_c, 6, 11, 101
8, 23051, Control_c, 6, 11, 98
8, 23052, Control_c, 6, 11, 95
8, 23053, Control_c, 6, 11, 93
8, 23054, Control_c, 6, 11, 90
8, 23055, Control_c, 6, 11, 87
8, 23056, Control_c, 6, 11, 85
8, 23057, Control_c, 6, 11, 82
8, 23058, Control_c, 6, 11, 79
8, 23059, Control_c, 6, 11, 77
8, 23060, Control_c, 6, 11, 74
8, 23061, Control_c, 6, 11, 71
8, 23062, Control_c, 6, 11, 69
8, 23063, Control_c, 6, 11, 66
8, 23064, Control_c, 6, 11, 64
8, 23065, Control_c, 6, 11, 61
8, 23066, Control_c, 6, 11, 58
8, 23067, Control_c, 6, 11, 56
8, 23068, Control_c, 6, 11, 53
8, 23069, Control_c, 6, 11, 50
8, 23070, Control_c, 6, 11, 48
8, 23071, Control_c, 6, 11, 45
8, 23072, Control_c, 6, 11, 42
8, 23073, Control_c, 6, 11, 40
8, 23074, Control_c, 6, 11, 37
8, 23075, Control_c, 6, 11, 34
8, 23076, Control_c, 6, 11, 32
8, 23077, Control_c, 6, 11, 29
8, 23078, Control_c, 6, 11, 26
8, 23079, Control_c, 6, 11, 24
8, 23080, Control_c, 6, 11, 21
8, 23081, Control_c, 6, 11, 19
8, 23082, Control_c, 6, 11, 16
8, 23083, Control_c, 6, 11, 13
8, 23084, Control_c, 6, 11, 11
8, 23085, Control_c, 6, 11, 8
8, 23086, Control_c, 6, 11, 5
8, 23087, Control_c, 6, 11, 3
8, 23088, Note_off_c, 6, 33, 64
8, 23088, Control_c, 6, 11, 127
8, 23088, Note_on_c, 6, 93, 64
8, 23089, Control_c, 6, 11, 124
8, 23090, Control_c, 6, 11, 122
8, 23091, Control_c, 6, 11, 119
8, 23092, Control_c, 6, 11, 116
8, 23093, Control_c, 6, 11, 114
8, 23094, Control_c, 6, 11, 111
8, 23095, Control_c, 6, 11, 108
8, 23096, Control_c, 6, 11, 106
8, 23097, Control_c, 6, 11, 103
8, 23098, Control_c, 6, 11, 101
8, 23099, Control_c, 6, 11, 98
8, 23100, Control_c, 6, 11, 95
8, 23101, Control_c, 6, 11, 93
8, 23102, Control_c, 6, 11, 90
8, 23103, Control_c, 6, 11, 87
8, 23104, Control_c, 6, 11, 85
8, 23105, Control_c, 6, 11, 82
8, 23106, Control_c, 6, 11, 79
8, 23107, Control_c, 6, 11, 77
8, 23108, Control_c, 6, 11, 74
8, 23109, Control_c, 6, 11, 71
8, 23110, Control_c, 6, 11, 69
8, 23111, Control_c, 6, 11, 66
8, 23112, Control_c, 6, 11, 64
8, 23113, Control_c, 6, 11, 61
8, 23114, Control_c, 6, 11, 58
8, 23115, Control_c, 6, 11, 56
8, 23116, Control_c, 6, 11, 53
8, 23117, Control_c, 6, 11, 50
8, 23118, Control_c, 6, 11, 48
8, 23119, Control_c, 6, 11, 45
8, 23120, Control_c, 6, 11, 42
8, 23121, Control_c, 6, 11, 40
8, 23122, Control_c, 6, 11, 37
8, 23123, Control_c, 6, 11, 34
8, 23124, Control_c, 6, 11, 32
8, 23125, Control_c, 6, 11, 29
8, 23126, Control_c, 6, 11, 26
8, 23127, Control_c, 6, 11, 24
8, 23128, Control_c, 6, 11, 21
8, 23129, Control_c, 6, 11, 19
8, 23130, Control_c, 6, 11, 16
8, 23131, Control_c, 6, 11, 13
8, 23132, Control_c, 6, 11, 11
8, 23133, Control_c, 6, 11, 8
8, 23134, Control_c, 6, 11, 5
8, 23135, Control_c, 6, 11, 3
8, 23136, Note_off_c, 6, 93, 64
8, 23136, Control_c, 6, 11, 127
8, 23136, Note_on_c, 6, 63, 64
8, 23137, Control_c, 6, 11, 124
8, 23138, Control_c, 6, 11, 122
8, 23139, Control_c, 6, 11, 119
8, 23140, Control_c, 6, 11, 116
8, 23141, Control_c, 6, 11, 114
8, 23142, Control_c, 6, 11, 111
8, 23143, Control_c, 6, 11, 108
8, 23144, Control_c, 6, 11, 106
8, 23145, Control_c, 6, 11, 103
8, 23146, Control_c, 6, 11, 101
8, 23147, Control_c, 6, 11, 98
8, 23148, Control_c, 6, 11, 95
8, 23149, Control_c, 6, 11, 93
8, 23150, Control_c, 6, 11, 90
8, 23151, Control_c, 6, 11, 87
8, 23152, Control_c, 6, 11, 85
8, 23153, Control_c, 6, 11, 82
8, 23154, Control_c, 6, 11, 79
8, 23155, Control_c, 6, 11, 77
8, 23156, Control_c, 6, 11, 74
8, 23157, Control_c, 6, 11, 71
8, 23158, Control_c, 6, 11, 69
8, 23159, Control_c, 6, 11, 66
8, 23160, Control_c, 6, 11, 64
8, 23161, Control_c, 6, 11, 61
8, 23162, Control_c, 6, 11, 58
8, 23163, Control_c, 6, 11, 56
8, 23164, Control_c, 6, 11, 53
8, 23165, Control_c, 6, 11, 50
8, 23166, Control_c, 6, 11, 48
8, 23167, Control_c, 6, 11, 45
8, 23168, Control_c, 6, 11, 42
8, 23169, Control_c, 6, 11, 40
8, 23170, Control_c, 6, 11, 37
8, 23171, Control_c, 6, 11, 34
8, 23172, Control_c, 6, 11, 32
8, 23173, Control_c, 6, 11, 29
8, 23174, Control_c, 6, 11, 26
8, 23175, Control_c, 6, 11, 24
8, 23176, Control_c, 6, 11, 21
8, 23177, Control_c, 6, 11, 19
8, 23178, Control_c, 6, 11, 16
8, 23179, Control_c, 6, 11, 13
8, 23180, Control_c, 6, 11, 11
8, 23181, Control_c, 6, 11, 8
8, 23182, Control_c, 6, 11, 5
8, 23183, Control_c, 6, 11, 3
8, 23184, Note_off_c, 6, 63, 64
8, 23184, Control_c, 6, 11, 127
8, 23184, Note_on_c, 6, 93, 64
8, 23185, Control_c, 6, 11, 124
8, 23186, Control_c, 6, 11, 122
8, 23187, Control_c, 6, 11, 119
8, 23188, Control_c, 6, 11, 116
8, 23189, Control_c, 6, 11, 114
8, 23190, Control_c, 6, 11, 111
8, 23191, Control_c, 6, 11, 108
8, 23192, Control_c, 6, 11, 106
8, 23193, Control_c, 6, 11, 103
8, 23194, Control_c, 6, 11, 101
8, 23195, Control_c, 6, 11, 98
8, 23196, Control_c, 6, 11, 95
8, 23197, Control_c, 6, 11, 93
8, 23198, Control_c, 6, 11, 90
8, 23199, Control_c, 6, 11, 87
8, 23200, Control_c, 6, 11, 85
8, 23201, Control_c, 6, 11, 82
8, 23202, Control_c, 6, 11, 79
8, 23203, Control_c, 6, 11, 77
8, 23204, Control_c, 6, 11, 74
8, 23205, Control_c, 6, 11, 71
8, 23206, Control_c, 6, 11, 69
8, 23207, Control_c, 6, 11, 66
8, 23208, Control_c, 6, 11, 64
8, 23209, Control_c, 6, 11, 61
8, 23210, Control_c, 6, 11, 58
8, 23211, Control_c, 6, 11, 56
8, 23212, Control_c, 6, 11, 53
8, 23213, Control_c, 6, 11, 50
8, 23214, Control_c, 6, 11, 48
8, 23215, Control_c, 6, 11, 45
8, 23216, Control_c, 6, 11, 42
8, 23217, Control_c, 6, 11, 40
8, 23218, Control_c, 6, 11, 37
8, 23219, Control_c, 6, 11, 34
8, 23220, Control_c, 6, 11, 32
8, 23221, Control_c, 6, 11, 29
8, 23222, Control_c, 6, 11, 26
8, 23223, Control_c, 6, 11, 24
8, 23224, Control_c, 6, 11, 21
8, 23225, Control_c, 6, 11, 19
8, 23226, Control_c, 6, 11, 16
8, 23227, Control_c, 6, 11, 13
8, 23228, Control_c, 6, 11, 11
8, 23229, Control_c, 6, 11, 8
8, 23230, Control_c, 6, 11, 5
8, 23231, Control_c, 6, 11, 3
8, 23232, Note_off_c, 6, 93, 64
8, 23232, Control_c, 6, 11, 127
8, 23232, Note_on_c, 6, 33, 64
8, 23233, Control_c, 6, 11, 124
8, 23234, Control_c, 6, 11, 122
8, 23235, Control_c, 6, 11, 119
8, 23236, Control_c, 6, 11, 116
8, 23237, Control_c, 6, 11, 114
8, 23238, Control_c, 6, 11, 111
8, 23239, Control_c, 6, 11, 108
8, 23240, Control_c, 6, 11, 106
8, 23241, Control_c, 6, 11, 103
8, 23242, Control_c, 6, 11, 101
8, 23243, Control_c, 6, 11, 98
8, 23244, Control_c, 6, 11, 95
8, 23245, Control_c, 6, 11, 93
8, 23246, Control_c, 6, 11, 90
8, 23247, Control_c, 6, 11, 87
8, 23248, Control_c, 6, 11, 85
8, 23249, Control_c, 6, 11, 82
8, 23250, Control_c, 6, 11, 79
8, 23251, Control_c, 6, 11, 77
8, 23252, Control_c, 6, 11, 74
8, 23253, Control_c, 6, 11, 71
8, 23254, Control_c, 6, 11, 69
8, 23255, Control_c, 6, 11, 66
8, 23256, Control_c, 6, 11, 64
8, 23257, Control_c, 6, 11, 61
8, 23258, Control_c, 6, 11, 58
8, 23259, Control_c, 6, 11, 56
8, 23260, Control_c, 6, 11, 53
8, 23261, Control_c, 6, 11, 50
8, 23262, Control_c, 6, 11, 48
8, 23263, Control_c, 6, 11, 45
8, 23264, Control_c, 6, 11, 42
8, 23265, Control_c, 6, 11, 40
8, 23266, Control_c, 6, 11, 37
8, 23267, Control_c, 6, 11, 34
8, 23268, Control_c, 6, 11, 32
8, 23269, Control_c, 6, 11, 29
8, 23270, Control_c, 6, 11, 26
8, 23271, Control_c, 6, 11, 24
8, 23272, Control_c, 6, 11, 21
8, 23273, Control_c, 6, 11, 19
8, 23274, Control_c, 6, 11, 16
8, 23275, Control_c, 6, 11, 13
8, 23276, Control_c, 6, 11, 11
8, 23277, Control_c, 6, 11, 8
8, 23278, Control_c, 6, 11, 5
8, 23279, Control_c, 6, 11, 3
8, 23280, Note_off_c, 6, 33, 64
8, 23280, Control_c, 6, 11, 127
8, 23280, Note_on_c, 6, 93, 64
8, 23281, Control_c, 6, 11, 124
8, 23282, Control_c, 6, 11, 122
8, 23283, Control_c, 6, 11, 119
8, 23284, Control_c, 6, 11, 116
8, 23285, Control_c, 6, 11, 114
8, 23286, Control_c, 6, 11, 111
8, 23287, Control_c, 6, 11, 108
8, 23288, Control_c, 6, 11, 106
8, 23289, Control_c, 6, 11, 103
8, 23290, Control_c, 6, 11, 101
8, 23291, Control_c, 6, 11, 98
8, 23292, Control_c, 6, 11, 95
8, 23293, Control_c, 6, 11, 93
8, 23294, Control_c, 6, 11, 90
8, 23295, Control_c, 6, 11, 87
8, 23296, Control_c, 6, 11, 85
8, 23297, Control_c, 6, 11, 82
8, 23298, Control_c, 6, 11, 79
8, 23299, Control_c, 6, 11, 77
8, 23300, Control_c, 6, 11, 74
8, 23301, Control_c, 6, 11, 71
8, 23302, Control_c, 6, 11, 69
8, 23303, Control_c, 6, 11, 66
8, 23304, Control_c, 6, 11, 64
8, 23305, Control_c, 6, 11, 61
8, 23306, Control_c, 6, 11, 58
8, 23307, Control_c, 6, 11, 56
8, 23308, Control_c, 6, 11, 53
8, 23309, Control_c, 6, 11, 50
8, 23310, Control_c, 6, 11, 48
8, 23311, Control_c, 6, 11, 45
8, 23312, Control_c, 6, 11, 42
8, 23313, Control_c, 6, 11, 40
8, 23314, Control_c, 6, 11, 37
8, 23315, Control_c, 6, 11, 34
8, 23316, Control_c, 6, 11, 32
8, 23317, Control_c, 6, 11, 29
8, 23318, Control_c, 6, 11, 26
8, 23319, Control_c, 6, 11, 24
8, 23320, Control_c, 6, 11, 21
8, 23321, Control_c, 6, 11, 19
8, 23322, Control_c, 6, 11, 16
8, 23323, Control_c, 6, 11, 13
8, 23324, Control_c, 6, 11, 11
8, 23325, Control_c, 6, 11, 8
8, 23326, Control_c, 6, 11, 5
8, 23327, Control_c, 6, 11, 3
8, 23328, Note_off_c, 6, 93, 64
8, 23328, Control_c, 6, 11, 127
8, 23328, Note_on_c, 6, 63, 64
8, 23329, Control_c, 6, 11, 124
8, 23330, Control_c, 6, 11, 122
8, 23331, Control_c, 6, 11, 119
8, 23332, Control_c, 6, 11, 116
8, 23333, Control_c, 6, 11, 114
8, 23334, Control_c, 6, 11, 111
8, 23335, Control_c, 6, 11, 108
8, 23336, Control_c, 6, 11, 106
8, 23337, Control_c, 6, 11, 103
8, 23338, Control_c, 6, 11, 101
8, 23339, Control_c, 6, 11, 98
8, 23340, Control_c, 6, 11, 95
8, 23341, Control_c, 6, 11, 93
8, 23342, Control_c, 6, 11, 90
8, 23343, Control_c, 6, 11, 87
8, 23344, Control_c, 6, 11, 85
8, 23345, Control_c, 6, 11, 82
8, 23346, Control_c, 6, 11, 79
8, 23347, Control_c, 6, 11, 77
8, 23348, Control_c, 6, 11, 74
8, 23349, Control_c, 6, 11, 71
8, 23350, Control_c, 6, 11, 69
8, 23351, Control_c, 6, 11, 66
8, 23352, Control_c, 6, 11, 64
8, 23353, Control_c, 6, 11, 61
8, 23354, Control_c, 6, 11, 58
8, 23355, Control_c, 6, 11, 56
8, 23356, Control_c, 6, 11, 53
8, 23357, Control_c, 6, 11, 50
8, 23358, Control_c, 6, 11, 48
8, 23359, Control_c, 6, 11, 45
8, 23360, Control_c, 6, 11, 42
8, 23361, Control_c, 6, 11, 40
8, 23362, Control_c, 6, 11, 37
8, 23363, Control_c, 6, 11, 34
8, 23364, Control_c, 6, 11, 32
8, 23365, Control_c, 6, 11, 29
8, 23366, Control_c, 6, 11, 26
8, 23367, Control_c, 6, 11, 24
8, 23368, Control_c, 6, 11, 21
8, 23369, Control_c, 6, 11, 19
8, 23370, Control_c, 6, 11, 16
8, 23371, Control_c, 6, 11, 13
8, 23372, Control_c, 6, 11, 11
8, 23373, Control_c, 6, 11, 8
8, 23374, Control_c, 6, 11, 5
8, 23375, Control_c, 6, 11, 3
8, 23376, Note_off_c, 6, 63, 64
8, 23376, Control_c, 6, 11, 127
8, 23376, Note_on_c, 6, 93, 64
8, 23377, Control_c, 6, 11, 124
8, 23378, Control_c, 6, 11, 122
8, 23379, Control_c, 6, 11, 119
8, 23380, Control_c, 6, 11, 116
8, 23381, Control_c, 6, 11, 114
8, 23382, Control_c, 6, 11, 111
8, 23383, Control_c, 6, 11, 108
8, 23384, Control_c, 6, 11, 106
8, 23385, Control_c, 6, 11, 103
8, 23386, Control_c, 6, 11, 101
8, 23387, Control_c, 6, 11, 98
8, 23388, Control_c, 6, 11, 95
8, 23389, Control_c, 6, 11, 93
8, 23390, Control_c, 6, 11, 90
8, 23391, Control_c, 6, 11, 87
8, 23392, Control_c, 6, 11, 85
8, 23393, Control_c, 6, 11, 82
8, 23394, Control_c, 6, 11, 79
8, 23395, Control_c, 6, 11, 77
8, 23396, Control_c, 6, 11, 74
8, 23397, Control_c, 6, 11, 71
8, 23398, Control_c, 6, 11, 69
8, 23399, Control_c, 6, 11, 66
8, 23400, Control_c, 6, 11, 64
8, 23401, Control_c, 6, 11, 61
8, 23402, Control_c, 6, 11, 58
8, 23403, Control_c, 6, 11, 56
8, 23404, Control_c, 6, 11, 53
8, 23405, Control_c, 6, 11, 50
8, 23406, Control_c, 6, 11, 48
8, 23407, Control_c, 6, 11, 45
8, 23408, Control_c, 6, 11, 42
8, 23409, Control_c, 6, 11, 40
8, 23410, Control_c, 6, 11, 37
8, 23411, Control_c, 6, 11, 34
8, 23412, Control_c, 6, 11, 32
8, 23413, Control_c, 6, 11, 29
8, 23414, Control_c, 6, 11, 26
8, 23415, Control_c, 6, 11, 24
8, 23416, Control_c, 6, 11, 21
8, 23417, Control_c, 6, 11, 19
8, 23418, Control_c, 6, 11, 16
8, 23419, Control_c, 6, 11, 13
8, 23420, Control_c, 6, 11, 11
8, 23421, Control_c, 6, 11, 8
8, 23422, Control_c, 6, 11, 5
8, 23423, Control_c, 6, 11, 3
8, 23424, Note_off_c, 6, 93, 64
8, 23424, Control_c, 6, 11, 127
8, 23424, Note_on_c, 6, 33, 64
8, 23425, Control_c, 6, 11, 124
8, 23426, Control_c, 6, 11, 122
8, 23427, Control_c, 6, 11, 119
8, 23428, Control_c, 6, 11, 116
8, 23429, Control_c, 6, 11, 114
8, 23430, Control_c, 6, 11, 111
8, 23431, Control_c, 6, 11, 108
8, 23432, Control_c, 6, 11, 106
8, 23433, Control_c, 6, 11, 103
8, 23434, Control_c, 6, 11, 101
8, 23435, Control_c, 6, 11, 98
8, 23436, Control_c, 6, 11, 95
8, 23437, Control_c, 6, 11, 93
8, 23438, Control_c, 6, 11, 90
8, 23439, Control_c, 6, 11, 87
8, 23440, Control_c, 6, 11, 85
8, 23441, Control_c, 6, 11, 82
8, 23442, Control_c, 6, 11, 79
8, 23443, Control_c, 6, 11, 77
8, 23444, Control_c, 6, 11, 74
8, 23445, Control_c, 6, 11, 71
8, 23446, Control_c, 6, 11, 69
8, 23447, Control_c, 6, 11, 66
8, 23448, Control_c, 6, 11, 64
8, 23449, Control_c, 6, 11, 61
8, 23450, Control_c, 6, 11, 58
8, 23451, Control_c, 6, 11, 56
8, 23452, Control_c, 6, 11, 53
8, 23453, Control_c, 6, 11, 50
8, 23454, Control_c, 6, 11, 48
8, 23455, Control_c, 6, 11, 45
8, 23456, Control_c, 6, 11, 42
8, 23457, Control_c, 6, 11, 40
8, 23458, Control_c, 6, 11, 37
8, 23459, Control_c, 6, 11, 34
8, 23460, Control_c, 6, 11, 32
8, 23461, Control_c, 6, 11, 29
8, 23462, Control_c, 6, 11, 26
8, 23463, Control_c, 6, 11, 24
8, 23464, Control_c, 6, 11, 21
8, 23465, Control_c, 6, 11, 19
8, 23466, Control_c, 6, 11, 16
8, 23467, Control_c, 6, 11, 13
8, 23468, Control_c, 6, 11, 11
8, 23469, Control_c, 6, 11, 8
8, 23470, Control_c, 6, 11, 5
8, 23471, Control_c, 6, 11, 3
8, 23472, Note_off_c, 6, 33, 64
8, 23472, Control_c, 6, 11, 127
8, 23472, Note_on_c, 6, 93, 64
8, 23473, Control_c, 6, 11, 124
8, 23474, Control_c, 6, 11, 122
8, 23475, Control_c, 6, 11, 119
8, 23476, Control_c, 6, 11, 116
8, 23477, Control_c, 6, 11, 114
8, 23478, Control_c, 6, 11, 111
8, 23479, Control_c, 6, 11, 108
8, 23480, Control_c, 6, 11, 106
8, 23481, Control_c, 6, 11, 103
8, 23482, Control_c, 6, 11, 101
8, 23483, Control_c, 6, 11, 98
8, 23484, Control_c, 6, 11, 95
8, 23485, Control_c, 6, 11, 93
8, 23486, Control_c, 6, 11, 90
8, 23487, Control_c, 6, 11, 87
8, 23488, Control_c, 6, 11, 85
8, 23489, Control_c, 6, 11, 82
8, 23490, Control_c, 6, 11, 79
8, 23491, Control_c, 6, 11, 77
8, 23492, Control_c, 6, 11, 74
8, 23493, Control_c, 6, 11, 71
8, 23494, Control_c, 6, 11, 69
8, 23495, Control_c, 6, 11, 66
8, 23496, Control_c, 6, 11, 64
8, 23497, Control_c, 6, 11, 61
8, 23498, Control_c, 6, 11, 58
8, 23499, Control_c, 6, 11, 56
8, 23500, Control_c, 6, 11, 53
8, 23501, Control_c, 6, 11, 50
8, 23502, Control_c, 6, 11, 48
8, 23503, Control_c, 6, 11, 45
8, 23504, Control_c, 6, 11, 42
8, 23505, Control_c, 6, 11, 40
8, 23506, Control_c, 6, 11, 37
8, 23507, Control_c, 6, 11, 34
8, 23508, Control_c, 6, 11, 32
8, 23509, Control_c, 6, 11, 29
8, 23510, Control_c, 6, 11, 26
8, 23511, Control_c, 6, 11, 24
8, 23512, Control_c, 6, 11, 21
8, 23513, Control_c, 6, 11, 19
8, 23514, Control_c, 6, 11, 16
8, 23515, Control_c, 6, 11, 13
8, 23516, Control_c, 6, 11, 11
8, 23517, Control_c, 6, 11, 8
8, 23518, Control_c, 6, 11, 5
8, 23519, Control_c, 6, 11, 3
8, 23520, Note_off_c, 6, 93, 64
8, 23520, Control_c, 6, 11, 127
8, 23520, Note_on_c, 6, 63, 64
8, 23521, Control_c, 6, 11, 124
8, 23522, Control_c, 6, 11, 122
8, 23523, Control_c, 6, 11, 119
8, 23524, Control_c, 6, 11, 116
8, 23525, Control_c, 6, 11, 114
8, 23526, Control_c, 6, 11, 111
8, 23527, Control_c, 6, 11, 108
8, 23528, Control_c, 6, 11, 106
8, 23529, Control_c, 6, 11, 103
8, 23530, Control_c, 6, 11, 101
8, 23531, Control_c, 6, 11, 98
8, 23532, Control_c, 6, 11, 95
8, 23533, Control_c, 6, 11, 93
8, 23534, Control_c, 6, 11, 90
8, 23535, Control_c, 6, 11, 87
8, 23536, Control_c, 6, 11, 85
8, 23537, Control_c, 6, 11, 82
8, 23538, Control_c, 6, 11, 79
8, 23539, Control_c, 6, 11, 77
8, 23540, Control_c, 6, 11, 74
8, 23541, Control_c, 6, 11, 71
8, 23542, Control_c, 6, 11, 69
8, 23543, Control_c, 6, 11, 66
8, 23544, Control_c, 6, 11, 64
8, 23545, Control_c, 6, 11, 61
8, 23546, Control_c, 6, 11, 58
8, 23547, Control_c, 6, 11, 56
8, 23548, Control_c, 6, 11, 53
8, 23549, Control_c, 6, 11, 50
8, 23550, Control_c, 6, 11, 48
8, 23551, Control_c, 6, 11, 45
8, 23552, Control_c, 6, 11, 42
8, 23553, Control_c, 6, 11, 40
8, 23554, Control_c, 6, 11, 37
8, 23555, Control_c, 6, 11, 34
8, 23556, Control_c, 6, 11, 32
8, 23557, Control_c, 6, 11, 29
8, 23558, Control_c, 6, 11, 26
8, 23559, Control_c, 6, 11, 24
8, 23560, Control_c, 6, 11, 21
8, 23561, Control_c, 6, 11, 19
8, 23562, Control_c, 6, 11, 16
8, 23563, Control_c, 6, 11, 13
8, 23564, Control_c, 6, 11, 11
8, 23565, Control_c, 6, 11, 8
8, 23566, Control_c, 6, 11, 5
8, 23567, Control_c, 6, 11, 3
8, 23568, Note_off_c, 6, 63, 64
8, 23568, Control_c, 6, 11, 127
8, 23568, Note_on_c, 6, 93, 64
8, 23569, Control_c, 6, 11, 124
8, 23570, Control_c, 6, 11, 122
8, 23571, Control_c, 6, 11, 119
8, 23572, Control_c, 6, 11, 116
8, 23573, Control_c, 6, 11, 114
8, 23574, Control_c, 6, 11, 111
8, 23575, Control_c, 6, 11, 108
8, 23576, Control_c, 6, 11, 106
8, 23577, Control_c, 6, 11, 103
8, 23578, Control_c, 6, 11, 101
8, 23579, Control_c, 6, 11, 98
8, 23580, Control_c, 6, 11, 95
8, 23581, Control_c, 6, 11, 93
8, 23582, Control_c, 6, 11, 90
8, 23583, Control_c, 6, 11, 87
8, 23584, Control_c, 6, 11, 85
8, 23585, Control_c, 6, 11, 82
8, 23586, Control_c, 6, 11, 79
8, 23587, Control_c, 6, 11, 77
8, 23588, Control_c, 6, 11, 74
8, 23589, Control_c, 6, 11, 71
8, 23590, Control_c, 6, 11, 69
8, 23591, Control_c, 6, 11, 66
8, 23592, Control_c, 6, 11, 64
8, 23593, Control_c, 6, 11, 61
8, 23594, Control_c, 6, 11, 58
8, 23595, Control_c, 6, 11, 56
8, 23596, Control_c, 6, 11, 53
8, 23597, Control_c, 6, 11, 50
8, 23598, Control_c, 6, 11, 48
8, 23599, Control_c, 6, 11, 45
8, 23600, Control_c, 6, 11, 42
8, 23601, Control_c, 6, 11, 40
8, 23602, Control_c, 6, 11, 37
8, 23603, Control_c, 6, 11, 34
8, 23604, Control_c, 6, 11, 32
8, 23605, Control_c, 6, 11, 29
8, 23606, Control_c, 6, 11, 26
8, 23607, Control_c, 6, 11, 24
8, 23608, Control_c, 6, 11, 21
8, 23609, Control_c, 6, 11, 19
8, 23610, Control_c, 6, 11, 16
8, 23611, Control_c, 6, 11, 13
8, 23612, Control_c, 6, 11, 11
8, 23613, Control_c, 6, 11, 8
8, 23614, Control_c, 6, 11, 5
8, 23615, Control_c, 6, 11, 3
8, 23616, Note_off_c, 6, 93, 64
8, 23616, Control_c, 6, 11, 127
8, 23616, Note_on_c, 6, 33, 64
8, 23617, Control_c, 6, 11, 124
8, 23618, Control_c, 6, 11, 122
8, 23619, Control_c, 6, 11, 119
8, 23620, Control_c, 6, 11, 116
8, 23621, Control_c, 6, 11, 114
8, 23622, Control_c, 6, 11, 111
8, 23623, Control_c, 6, 11, 108
8, 23624, Control_c, 6, 11, 106
8, 23625, Control_c, 6, 11, 103
8, 23626, Control_c, 6, 11, 101
8, 23627, Control_c, 6, 11, 98
8, 23628, Control_c, 6, 11, 95
8, 23629, Control_c, 6, 11, 93
8, 23630, Control_c, 6, 11, 90
8, 23631, Control_c, 6, 11, 87
8, 23632, Control_c, 6, 11, 85
8, 23633, Control_c, 6, 11, 82
8, 23634, Control_c, 6, 11, 79
8, 23635, Control_c, 6, 11, 77
8, 23636, Control_c, 6, 11, 74
8, 23637, Control_c, 6, 11, 71
8, 23638, Control_c, 6, 11, 69
8, 23639, Control_c, 6, 11, 66
8, 23640, Control_c, 6, 11, 64
8, 23641, Control_c, 6, 11, 61
8, 23642, Control_c, 6, 11, 58
8, 23643, Control_c, 6, 11, 56
8, 23644, Control_c, 6, 11, 53
8, 23645, Control_c, 6, 11, 50
8, 23646, Control_c, 6, 11, 48
8, 23647, Control_c, 6, 11, 45
8, 23648, Control_c, 6, 11, 42
8, 23649, Control_c, 6, 11, 40
8, 23650, Control_c, 6, 11, 37
8, 23651, Control_c, 6, 11, 34
8, 23652, Control_c, 6, 11, 32
8, 23653, Control_c, 6, 11, 29
8, 23654, Control_c, 6, 11, 26
8, 23655, Control_c, 6, 11, 24
8, 23656, Control_c, 6, 11, 21
8, 23657, Control_c, 6, 11, 19
8, 23658, Control_c, 6, 11, 16
8, 23659, Control_c, 6, 11, 13
8, 23660, Control_c, 6, 11, 11
8, 23661, Control_c, 6, 11, 8
8, 23662, Control_c, 6, 11, 5
8, 23663, Control_c, 6, 11, 3
8, 23664, Note_off_c, 6, 33, 64
8, 23664, Control_c, 6, 11, 127
8, 23664, Note_on_c, 6, 93, 64
8, 23665, Control_c, 6, 11, 124
8, 23666, Control_c, 6, 11, 122
8, 23667, Control_c, 6, 11, 119
8, 23668, Control_c, 6, 11, 116
8, 23669, Control_c, 6, 11, 114
8, 23670, Control_c, 6, 11, 111
8, 23671, Control_c, 6, 11, 108
8, 23672, Control_c, 6, 11, 106
8, 23673, Control_c, 6, 11, 103
8, 23674, Control_c, 6, 11, 101
8, 23675, Control_c, 6, 11, 98
8, 23676, Control_c, 6, 11, 95
8, 23677, Control_c, 6, 11, 93
8, 23678, Control_c, 6, 11, 90
8, 23679, Control_c, 6, 11, 87
8, 23680, Control_c, 6, 11, 85
8, 23681, Control_c, 6, 11, 82
8, 23682, Control_c, 6, 11, 79
8, 23683, Control_c, 6, 11, 77
8, 23684, Control_c, 6, 11, 74
8, 23685, Control_c, 6, 11, 71
8, 23686, Control_c, 6, 11, 69
8, 23687, Control_c, 6, 11, 66
8, 23688, Control_c, 6, 11, 64
8, 23689, Control_c, 6, 11, 61
8, 23690, Control_c, 6, 11, 58
8, 23691, Control_c, 6, 11, 56
8, 23692, Control_c, 6, 11, 53
8, 23693, Control_c, 6, 11, 50
8, 23694, Control_c, 6, 11, 48
8, 23695, Control_c, 6, 11, 45
8, 23696, Control_c, 6, 11, 42
8, 23697, Control_c, 6, 11, 40
8, 23698, Control_c, 6, 11, 37
8, 23699, Control_c, 6, 11, 34
8, 23700, Control_c, 6, 11, 32
8, 23701, Control_c, 6, 11, 29
8, 23702, Control_c, 6, 11, 26
8, 23703, Control_c, 6, 11, 24
8, 23704, Control_c, 6, 11, 21
8, 23705, Control_c, 6, 11, 19
8, 23706, Control_c, 6, 11, 16
8, 23707, Control_c, 6, 11, 13
8, 23708, Control_c, 6, 11, 11
8, 23709, Control_c, 6, 11, 8
8, 23710, Control_c, 6, 11, 5
8, 23711, Control_c, 6, 11, 3
8, 23712, Note_off_c, 6, 93, 64
8, 23712, Control_c, 6, 11, 127
8, 23712, Note_on_c, 6, 63, 64
8, 23713, Control_c, 6, 11, 124
8, 23714, Control_c, 6, 11, 122
8, 23715, Control_c, 6, 11, 119
8, 23716, Control_c, 6, 11, 116
8, 23717, Control_c, 6, 11, 114
8, 23718, Control_c, 6, 11, 111
8, 23719, Control_c, 6, 11, 108
8, 23720, Control_c, 6, 11, 106
8, 23721, Control_c, 6, 11, 103
8, 23722, Control_c, 6, 11, 101
8, 23723, Control_c, 6, 11, 98
8, 23724, Control_c, 6, 11, 95
8, 23725, Control_c, 6, 11, 93
8, 23726, Control_c, 6, 11, 90
8, 23727, Control_c, 6, 11, 87
8, 23728, Control_c, 6, 11, 85
8, 23729, Control_c, 6, 11, 82
8, 23730, Control_c, 6, 11, 79
8, 23731, Control_c, 6, 11, 77
8, 23732, Control_c, 6, 11, 74
8, 23733, Control_c, 6, 11, 71
8, 23734, Control_c, 6, 11, 69
8, 23735, Control_c, 6, 11, 66
8, 23736, Control_c, 6, 11, 64
8, 23737, Control_c, 6, 11, 61
8, 23738, Control_c, 6, 11, 58
8, 23739, Control_c, 6, 11, 56
8, 23740, Control_c, 6, 11, 53
8, 23741, Control_c, 6, 11, 50
8, 23742, Control_c, 6, 11, 48
8, 23743, Control_c, 6, 11, 45
8, 23744, Control_c, 6, 11, 42
8, 23745, Control_c, 6, 11, 40
8, 23746, Control_c, 6, 11, 37
8, 23747, Control_c, 6, 11, 34
8, 23748, Control_c, 6, 11, 32
8, 23749, Control_c, 6, 11, 29
8, 23750, Control_c, 6, 11, 26
8, 23751, Control_c, 6, 11, 24
8, 23752, Control_c, 6, 11, 21
8, 23753, Control_c, 6, 11, 19
8, 23754, Control_c, 6, 11, 16
8, 23755, Control_c, 6, 11, 13
8, 23756, Control_c, 6, 11, 11
8, 23757, Control_c, 6, 11, 8
8, 23758, Control_c, 6, 11, 5
8, 23759, Control_c, 6, 11, 3
8, 23760, Note_off_c, 6, 63, 64
8, 23760, Control_c, 6, 11, 127
8, 23760, Note_on_c, 6, 63, 64
8, 23761, Control_c, 6, 11, 124
8, 23762, Control_c, 6, 11, 122
8, 23763, Control_c, 6, 11, 119
8, 23764, Control_c, 6, 11, 116
8, 23765, Control_c, 6, 11, 114
8, 23766, Control_c, 6, 11, 111
8, 23767, Control_c, 6, 11, 108
8, 23768, Control_c, 6, 11, 106
8, 23769, Control_c, 6, 11, 103
8, 23770, Control_c, 6, 11, 101
8, 23771, Control_c, 6, 11, 98
8, 23772, Control_c, 6, 11, 95
8, 23773, Control_c, 6, 11, 93
8, 23774, Control_c, 6, 11, 90
8, 23775, Control_c, 6, 11, 87
8, 23776, Control_c, 6, 11, 85
8, 23777, Control_c, 6, 11, 82
8, 23778, Control_c, 6, 11, 79
8, 23779, Control_c, 6, 11, 77
8, 23780, Control_c, 6, 11, 74
8, 23781, Control_c, 6, 11, 71
8, 23782, Control_c, 6, 11, 69
8, 23783, Control_c, 6, 11, 66
8, 23784, Control_c, 6, 11, 64
8, 23785, Control_c, 6, 11, 61
8, 23786, Control_c, 6, 11, 58
8, 23787, Control_c, 6, 11, 56
8, 23788, Control_c, 6, 11, 53
8, 23789, Control_c, 6, 11, 50
8, 23790, Control_c, 6, 11, 48
8, 23791, Control_c, 6, 11, 45
8, 23792, Control_c, 6, 11, 42
8, 23793, Control_c, 6, 11, 40
8, 23794, Control_c, 6, 11, 37
8, 23795, Control_c, 6, 11, 34
8, 23796, Control_c, 6, 11, 32
8, 23797, Control_c, 6, 11, 29
8, 23798, Control_c, 6, 11, 26
8, 23799, Control_c, 6, 11, 24
8, 23800, Control_c, 6, 11, 21
8, 23801, Control_c, 6, 11, 19
8, 23802, Control_c, 6, 11, 16
8, 23803, Control_c, 6, 11, 13
8, 23804, Control_c, 6, 11, 11
8, 23805, Control_c, 6, 11, 8
8, 23806, Control_c, 6, 11, 5
8, 23807, Control_c, 6, 11, 3
8, 23808, Note_off_c, 6, 63, 64
8, 23808, Control_c, 6, 11, 127
8, 23808, Note_on_c, 6, 33, 64
8, 23809, Control_c, 6, 11, 124
8, 23810, Control_c, 6, 11, 122
8, 23811, Control_c, 6, 11, 119
8, 23812, Control_c, 6, 11, 116
8, 23813, Control_c, 6, 11, 114
8, 23814, Control_c, 6, 11, 111
8, 23815, Control_c, 6, 11, 108
8, 23816, Control_c, 6, 11, 106
8, 23817, Control_c, 6, 11, 103
8, 23818, Control_c, 6, 11, 101
8, 23819, Control_c, 6, 11, 98
8, 23820, Control_c, 6, 11, 95
8, 23821, Control_c, 6, 11, 93
8, 23822, Control_c, 6, 11, 90
8, 23823, Control_c, 6, 11, 87
8, 23824, Control_c, 6, 11, 85
8, 23825, Control_c, 6, 11, 82
8, 23826, Control_c, 6, 11, 79
8, 23827, Control_c, 6, 11, 77
8, 23828, Control_c, 6, 11, 74
8, 23829, Control_c, 6, 11, 71
8, 23830, Control_c, 6, 11, 69
8, 23831, Control_c, 6, 11, 66
8, 23832, Control_c, 6, 11, 64
8, 23833, Control_c, 6, 11, 61
8, 23834, Control_c, 6, 11, 58
8, 23835, Control_c, 6, 11, 56
8, 23836, Control_c, 6, 11, 53
8, 23837, Control_c, 6, 11, 50
8, 23838, Control_c, 6, 11, 48
8, 23839, Control_c, 6, 11, 45
8, 23840, Control_c, 6, 11, 42
8, 23841, Control_c, 6, 11, 40
8, 23842, Control_c, 6, 11, 37
8, 23843, Control_c, 6, 11, 34
8, 23844, Control_c, 6, 11, 32
8, 23845, Control_c, 6, 11, 29
8, 23846, Control_c, 6, 11, 26
8, 23847, Control_c, 6, 11, 24
8, 23848, Control_c, 6, 11, 21
8, 23849, Control_c, 6, 11, 19
8, 23850, Control_c, 6, 11, 16
8, 23851, Control_c, 6, 11, 13
8, 23852, Control_c, 6, 11, 11
8, 23853, Control_c, 6, 11, 8
8, 23854, Control_c, 6, 11, 5
8, 23855, Control_c, 6, 11, 3
8, 23856, Note_off_c, 6, 33, 64
8, 23856, Control_c, 6, 11, 127
8, 23856, Note_on_c, 6, 93, 64
8, 23857, Control_c, 6, 11, 124
8, 23858, Control_c, 6, 11, 122
8, 23859, Control_c, 6, 11, 119
8, 23860, Control_c, 6, 11, 116
8, 23861, Control_c, 6, 11, 114
8, 23862, Control_c, 6, 11, 111
8, 23863, Control_c, 6, 11, 108
8, 23864, Control_c, 6, 11, 106
8, 23865, Control_c, 6, 11, 103
8, 23866, Control_c, 6, 11, 101
8, 23867, Control_c, 6, 11, 98
8, 23868, Control_c, 6, 11, 95
8, 23869, Control_c, 6, 11, 93
8, 23870, Control_c, 6, 11, 90
8, 23871, Control_c, 6, 11, 87
8, 23872, Control_c, 6, 11, 85
8, 23873, Control_c, 6, 11, 82
8, 23874, Control_c, 6, 11, 79
8, 23875, Control_c, 6, 11, 77
8, 23876, Control_c, 6, 11, 74
8, 23877, Control_c, 6, 11, 71
8, 23878, Control_c, 6, 11, 69
8, 23879, Control_c, 6, 11, 66
8, 23880, Control_c, 6, 11, 64
8, 23881, Control_c, 6, 11, 61
8, 23882, Control_c, 6, 11, 58
8, 23883, Control_c, 6, 11, 56
8, 23884, Control_c, 6, 11, 53
8, 23885, Control_c, 6, 11, 50
8, 23886, Control_c, 6, 11, 48
8, 23887, Control_c, 6, 11, 45
8, 23888, Control_c, 6, 11, 42
8, 23889, Control_c, 6, 11, 40
8, 23890, Control_c, 6, 11, 37
8, 23891, Control_c, 6, 11, 34
8, 23892, Control_c, 6, 11, 32
8, 23893, Control_c, 6, 11, 29
8, 23894, Control_c, 6, 11, 26
8, 23895, Control_c, 6, 11, 24
8, 23896, Control_c, 6, 11, 21
8, 23897, Control_c, 6, 11, 19
8, 23898, Control_c, 6, 11, 16
8, 23899, Control_c, 6, 11, 13
8, 23900, Control_c, 6, 11, 11
8, 23901, Control_c, 6, 11, 8
8, 23902, Control_c, 6, 11, 5
8, 23903, Control_c, 6, 11, 3
8, 23904, Note_off_c, 6, 93, 64
8, 23904, Control_c, 6, 11, 127
8, 23904, Note_on_c, 6, 63, 64
8, 23905, Control_c, 6, 11, 124
8, 23906, Control_c, 6, 11, 122
8, 23907, Control_c, 6, 11, 119
8, 23908, Control_c, 6, 11, 116
8, 23909, Control_c, 6, 11, 114
8, 23910, Control_c, 6, 11, 111
8, 23911, Control_c, 6, 11, 108
8, 23912, Control_c, 6, 11, 106
8, 23913, Control_c, 6, 11, 103
8, 23914, Control_c, 6, 11, 101
8, 23915, Control_c, 6, 11, 98
8, 23916, Control_c, 6, 11, 95
8, 23917, Control_c, 6, 11, 93
8, 23918, Control_c, 6, 11, 90
8, 23919, Control_c, 6, 11, 87
8, 23920, Control_c, 6, 11, 85
8, 23921, Control_c, 6, 11, 82
8, 23922, Control_c, 6, 11, 79
8, 23923, Control_c, 6, 11, 77
8, 23924, Control_c, 6, 11, 74
8, 23925, Control_c, 6, 11, 71
8, 23926, Control_c, 6, 11, 69
8, 23927, Control_c, 6, 11, 66
8, 23928, Control_c, 6, 11, 64
8, 23929, Control_c, 6, 11, 61
8, 23930, Control_c, 6, 11, 58
8, 23931, Control_c, 6, 11, 56
8, 23932, Control_c, 6, 11, 53
8, 23933, Control_c, 6, 11, 50
8, 23934, Control_c, 6, 11, 48
8, 23935, Control_c, 6, 11, 45
8, 23936, Control_c, 6, 11, 42
8, 23937, Control_c, 6, 11, 40
8, 23938, Control_c, 6, 11, 37
8, 23939, Control_c, 6, 11, 34
8, 23940, Control_c, 6, 11, 32
8, 23941, Control_c, 6, 11, 29
8, 23942, Control_c, 6, 11, 26
8, 23943, Control_c, 6, 11, 24
8, 23944, Control_c, 6, 11, 21
8, 23945, Control_c, 6, 11, 19
8, 23946, Control_c, 6, 11, 16
8, 23947, Control_c, 6, 11, 13
8, 23948, Control_c, 6, 11, 11
8, 23949, Control_c, 6, 11, 8
8, 23950, Control_c, 6, 11, 5
8, 23951, Control_c, 6, 11, 3
8, 23952, Note_off_c, 6, 63, 64
8, 23952, Control_c, 6, 11, 127
8, 23952, Note_on_c, 6, 93, 64
8, 23953, Control_c, 6, 11, 124
8, 23954, Control_c, 6, 11, 122
8, 23955, Control_c, 6, 11, 119
8, 23956, Control_c, 6, 11, 116
8, 23957, Control_c, 6, 11, 114
8, 23958, Control_c, 6, 11, 111
8, 23959, Control_c, 6, 11, 108
8, 23960, Control_c, 6, 11, 106
8, 23961, Control_c, 6, 11, 103
8, 23962, Control_c, 6, 11, 101
8, 23963, Control_c, 6, 11, 98
8, 23964, Control_c, 6, 11, 95
8, 23965, Control_c, 6, 11, 93
8, 23966, Control_c, 6, 11, 90
8, 23967, Control_c, 6, 11, 87
8, 23968, Control_c, 6, 11, 85
8, 23969, Control_c, 6, 11, 82
8, 23970, Control_c, 6, 11, 79
8, 23971, Control_c, 6, 11, 77
8, 23972, Control_c, 6, 11, 74
8, 23973, Control_c, 6, 11, 71
8, 23974, Control_c, 6, 11, 69
8, 23975, Control_c, 6, 11, 66
8, 23976, Control_c, 6, 11, 64
8, 23977, Control_c, 6, 11, 61
8, 23978, Control_c, 6, 11, 58
8, 23979, Control_c, 6, 11, 56
8, 23980, Control_c, 6, 11, 53
8, 23981, Control_c, 6, 11, 50
8, 23982, Control_c, 6, 11, 48
8, 23983, Control_c, 6, 11, 45
8, 23984, Control_c, 6, 11, 42
8, 23985, Control_c, 6, 11, 40
8, 23986, Control_c, 6, 11, 37
8, 23987, Control_c, 6, 11, 34
8, 23988, Control_c, 6, 11, 32
8, 23989, Control_c, 6, 11, 29
8, 23990, Control_c, 6, 11, 26
8, 23991, Control_c, 6, 11, 24
8, 23992, Control_c, 6, 11, 21
8, 23993, Control_c, 6, 11, 19
8, 23994, Control_c, 6, 11, 16
8, 23995, Control_c, 6, 11, 13
8, 23996, Control_c, 6, 11, 11
8, 23997, Control_c, 6, 11, 8
8, 23998, Control_c, 6, 11, 5
8, 23999, Control_c, 6, 11, 3
8, 24000, Note_off_c, 6, 93, 64
8, 24000, Control_c, 6, 11, 127
8, 24000, Note_on_c, 6, 33, 64
8, 24001, Control_c, 6, 11, 124
8, 24002, Control_c, 6, 11, 122
8, 24003, Control_c, 6, 11, 119
8, 24004, Control_c, 6, 11, 116
8, 24005, Control_c, 6, 11, 114
8, 24006, Control_c, 6, 11, 111
8, 24007, Control_c, 6, 11, 108
8, 24008, Control_c, 6, 11, 106
8, 24009, Control_c, 6, 11, 103
8, 24010, Control_c, 6, 11, 101
8, 24011, Control_c, 6, 11, 98
8, 24012, Control_c, 6, 11, 95
8, 24013, Control_c, 6, 11, 93
8, 24014, Control_c, 6, 11, 90
8, 24015, Control_c, 6, 11, 87
8, 24016, Control_c, 6, 11, 85
8, 24017, Control_c, 6, 11, 82
8, 24018, Control_c, 6, 11, 79
8, 24019, Control_c, 6, 11, 77
8, 24020, Control_c, 6, 11, 74
8, 24021, Control_c, 6, 11, 71
8, 24022, Control_c, 6, 11, 69
8, 24023, Control_c, 6, 11, 66
8, 24024, Control_c, 6, 11, 64
8, 24025, Control_c, 6, 11, 61
8, 24026, Control_c, 6, 11, 58
8, 24027, Control_c, 6, 11, 56
8, 24028, Control_c, 6, 11, 53
8, 24029, Control_c, 6, 11, 50
8, 24030, Control_c, 6, 11, 48
8, 24031, Control_c, 6, 11, 45
8, 24032, Control_c, 6, 11, 42
8, 24033, Control_c, 6, 11, 40
8, 24034, Control_c, 6, 11, 37
8, 24035, Control_c, 6, 11, 34
8, 24036, Control_c, 6, 11, 32
8, 24037, Control_c, 6, 11, 29
8, 24038, Control_c, 6, 11, 26
8, 24039, Control_c, 6, 11, 24
8, 24040, Control_c, 6, 11, 21
8, 24041, Control_c, 6, 11, 19
8, 24042, Control_c, 6, 11, 16
8, 24043, Control_c, 6, 11, 13
8, 24044, Control_c, 6, 11, 11
8, 24045, Control_c, 6, 11, 8
8, 24046, Control_c, 6, 11, 5
8, 24047, Control_c, 6, 11, 3
8, 24048, Note_off_c, 6, 33, 64
8, 24048, Control_c, 6, 11, 127
8, 24048, Note_on_c, 6, 93, 64
8, 24049, Control_c, 6, 11, 124
8, 24050, Control_c, 6, 11, 122
8, 24051, Control_c, 6, 11, 119
8, 24052, Control_c, 6, 11, 116
8, 24053, Control_c, 6, 11, 114
8, 24054, Control_c, 6, 11, 111
8, 24055, Control_c, 6, 11, 108
8, 24056, Control_c, 6, 11, 106
8, 24057, Control_c, 6, 11, 103
8, 24058, Control_c, 6, 11, 101
8, 24059, Control_c, 6, 11, 98
8, 24060, Control_c, 6, 11, 95
8, 24061, Control_c, 6, 11, 93
8, 24062, Control_c, 6, 11, 90
8, 24063, Control_c, 6, 11, 87
8, 24064, Control_c, 6, 11, 85
8, 24065, Control_c, 6, 11, 82
8, 24066, Control_c, 6, 11, 79
8, 24067, Control_c, 6, 11, 77
8, 24068, Control_c, 6, 11, 74
8, 24069, Control_c, 6, 11, 71
8, 24070, Control_c, 6, 11, 69
8, 24071, Control_c, 6, 11, 66
8, 24072, Control_c, 6, 11, 64
8, 24073, Control_c, 6, 11, 61
8, 24074, Control_c, 6, 11, 58
8, 24075, Control_c, 6, 11, 56
8, 24076, Control_c, 6, 11, 53
8, 24077, Control_c, 6, 11, 50
8, 24078, Control_c, 6, 11, 48
8, 24079, Control_c, 6, 11, 45
8, 24080, Control_c, 6, 11, 42
8, 24081, Control_c, 6, 11, 40
8, 24082, Control_c, 6, 11, 37
8, 24083, Control_c, 6, 11, 34
8, 24084, Control_c, 6, 11, 32
8, 24085, Control_c, 6, 11, 29
8, 24086, Control_c, 6, 11, 26
8, 24087, Control_c, 6, 11, 24
8, 24088, Control_c, 6, 11, 21
8, 24089, Control_c, 6, 11, 19
8, 24090, Control_c, 6, 11, 16
8, 24091, Control_c, 6, 11, 13
8, 24092, Control_c, 6, 11, 11
8, 24093, Control_c, 6, 11, 8
8, 24094, Control_c, 6, 11, 5
8, 24095, Control_c, 6, 11, 3
8, 24096, Note_off_c, 6, 93, 64
8, 24096, Control_c, 6, 11, 127
8, 24096, Note_on_c, 6, 63, 64
8, 24097, Control_c, 6, 11, 124
8, 24098, Control_c, 6, 11, 122
8, 24099, Control_c, 6, 11, 119
8, 24100, Control_c, 6, 11, 116
8, 24101, Control_c, 6, 11, 114
8, 24102, Control_c, 6, 11, 111
8, 24103, Control_c, 6, 11, 108
8, 24104, Control_c, 6, 11, 106
8, 24105, Control_c, 6, 11, 103
8, 24106, Control_c, 6, 11, 101
8, 24107, Control_c, 6, 11, 98
8, 24108, Control_c, 6, 11, 95
8, 24109, Control_c, 6, 11, 93
8, 24110, Control_c, 6, 11, 90
8, 24111, Control_c, 6, 11, 87
8, 24112, Control_c, 6, 11, 85
8, 24113, Control_c, 6, 11, 82
8, 24114, Control_c, 6, 11, 79
8, 24115, Control_c, 6, 11, 77
8, 24116, Control_c, 6, 11, 74
8, 24117, Control_c, 6, 11, 71
8, 24118, Control_c, 6, 11, 69
8, 24119, Control_c, 6, 11, 66
8, 24120, Control_c, 6, 11, 64
8, 24121, Control_c, 6, 11, 61
8, 24122, Control_c, 6, 11, 58
8, 24123, Control_c, 6, 11, 56
8, 24124, Control_c, 6, 11, 53
8, 24125, Control_c, 6, 11, 50
8, 24126, Control_c, 6, 11, 48
8, 24127, Control_c, 6, 11, 45
8, 24128, Control_c, 6, 11, 42
8, 24129, Control_c, 6, 11, 40
8, 24130, Control_c, 6, 11, 37
8, 24131, Control_c, 6, 11, 34
8, 24132, Control_c, 6, 11, 32
8, 24133, Control_c, 6, 11, 29
8, 24134, Control_c, 6, 11, 26
8, 24135, Control_c, 6, 11, 24
8, 24136, Control_c, 6, 11, 21
8, 24137, Control_c, 6, 11, 19
8, 24138, Control_c, 6, 11, 16
8, 24139, Control_c, 6, 11, 13
8, 24140, Control_c, 6, 11, 11
8, 24141, Control_c, 6, 11, 8
8, 24142, Control_c, 6, 11, 5
8, 24143, Control_c, 6, 11, 3
8, 24144, Note_off_c, 6, 63, 64
8, 24144, Control_c, 6, 11, 127
8, 24144, Note_on_c, 6, 93, 64
8, 24145, Control_c, 6, 11, 124
8, 24146, Control_c, 6, 11, 122
8, 24147, Control_c, 6, 11, 119
8, 24148, Control_c, 6, 11, 116
8, 24149, Control_c, 6, 11, 114
8, 24150, Control_c, 6, 11, 111
8, 24151, Control_c, 6, 11, 108
8, 24152, Control_c, 6, 11, 106
8, 24153, Control_c, 6, 11, 103
8, 24154, Control_c, 6, 11, 101
8, 24155, Control_c, 6, 11, 98
8, 24156, Control_c, 6, 11, 95
8, 24157, Control_c, 6, 11, 93
8, 24158, Control_c, 6, 11, 90
8, 24159, Control_c, 6, 11, 87
8, 24160, Control_c, 6, 11, 85
8, 24161, Control_c, 6, 11, 82
8, 24162, Control_c, 6, 11, 79
8, 24163, Control_c, 6, 11, 77
8, 24164, Control_c, 6, 11, 74
8, 24165, Control_c, 6, 11, 71
8, 24166, Control_c, 6, 11, 69
8, 24167, Control_c, 6, 11, 66
8, 24168, Control_c, 6, 11, 64
8, 24169, Control_c, 6, 11, 61
8, 24170, Control_c, 6, 11, 58
8, 24171, Control_c, 6, 11, 56
8, 24172, Control_c, 6, 11, 53
8, 24173, Control_c, 6, 11, 50
8, 24174, Control_c, 6, 11, 48
8, 24175, Control_c, 6, 11, 45
8, 24176, Control_c, 6, 11, 42
8, 24177, Control_c, 6, 11, 40
8, 24178, Control_c, 6, 11, 37
8, 24179, Control_c, 6, 11, 34
8, 24180, Control_c, 6, 11, 32
8, 24181, Control_c, 6, 11, 29
8, 24182, Control_c, 6, 11, 26
8, 24183, Control_c, 6, 11, 24
8, 24184, Control_c, 6, 11, 21
8, 24185, Control_c, 6, 11, 19
8, 24186, Control_c, 6, 11, 16
8, 24187, Control_c, 6, 11, 13
8, 24188, Control_c, 6, 11, 11
8, 24189, Control_c, 6, 11, 8
8, 24190, Control_c, 6, 11, 5
8, 24191, Control_c, 6, 11, 3
8, 24192, Note_off_c, 6, 93, 64
8, 24192, Control_c, 6, 11, 127
8, 24192, Note_on_c, 6, 33, 64
8, 24193, Control_c, 6, 11, 124
8, 24194, Control_c, 6, 11, 122
8, 24195, Control_c, 6, 11, 119
8, 24196, Control_c, 6, 11, 116
8, 24197, Control_c, 6, 11, 114
8, 24198, Control_c, 6, 11, 111
8, 24199, Control_c, 6, 11, 108
8, 24200, Control_c, 6, 11, 106
8, 24201, Control_c, 6, 11, 103
8, 24202, Control_c, 6, 11, 101
8, 24203, Control_c, 6, 11, 98
8, 24204, Control_c, 6, 11, 95
8, 24205, Control_c, 6, 11, 93
8, 24206, Control_c, 6, 11, 90
8, 24207, Control_c, 6, 11, 87
8, 24208, Control_c, 6, 11, 85
8, 24209, Control_c, 6, 11, 82
8, 24210, Control_c, 6, 11, 79
8, 24211, Control_c, 6, 11, 77
8, 24212, Control_c, 6, 11, 74
8, 24213, Control_c, 6, 11, 71
8, 24214, Control_c, 6, 11, 69
8, 24215, Control_c, 6, 11, 66
8, 24216, Control_c, 6, 11, 64
8, 24217, Control_c, 6, 11, 61
8, 24218, Control_c, 6, 11, 58
8, 24219, Control_c, 6, 11, 56
8, 24220, Control_c, 6, 11, 53
8, 24221, Control_c, 6, 11, 50
8, 24222, Control_c, 6, 11, 48
8, 24223, Control_c, 6, 11, 45
8, 24224, Control_c, 6, 11, 42
8, 24225, Control_c, 6, 11, 40
8, 24226, Control_c, 6, 11, 37
8, 24227, Control_c, 6, 11, 34
8, 24228, Control_c, 6, 11, 32
8, 24229, Control_c, 6, 11, 29
8, 24230, Control_c, 6, 11, 26
8, 24231, Control_c, 6, 11, 24
8, 24232, Control_c, 6, 11, 21
8, 24233, Control_c, 6, 11, 19
8, 24234, Control_c, 6, 11, 16
8, 24235, Control_c, 6, 11, 13
8, 24236, Control_c, 6, 11, 11
8, 24237, Control_c, 6, 11, 8
8, 24238, Control_c, 6, 11, 5
8, 24239, Control_c, 6, 11, 3
8, 24240, Note_off_c, 6, 33, 64
8, 24240, Control_c, 6, 11, 127
8, 24240, Note_on_c, 6, 93, 64
8, 24241, Control_c, 6, 11, 124
8, 24242, Control_c, 6, 11, 122
8, 24243, Control_c, 6, 11, 119
8, 24244, Control_c, 6, 11, 116
8, 24245, Control_c, 6, 11, 114
8, 24246, Control_c, 6, 11, 111
8, 24247, Control_c, 6, 11, 108
8, 24248, Control_c, 6, 11, 106
8, 24249, Control_c, 6, 11, 103
8, 24250, Control_c, 6, 11, 101
8, 24251, Control_c, 6, 11, 98
8, 24252, Control_c, 6, 11, 95
8, 24253, Control_c, 6, 11, 93
8, 24254, Control_c, 6, 11, 90
8, 24255, Control_c, 6, 11, 87
8, 24256, Control_c, 6, 11, 85
8, 24257, Control_c, 6, 11, 82
8, 24258, Control_c, 6, 11, 79
8, 24259, Control_c, 6, 11, 77
8, 24260, Control_c, 6, 11, 74
8, 24261, Control_c, 6, 11, 71
8, 24262, Control_c, 6, 11, 69
8, 24263, Control_c, 6, 11, 66
8, 24264, Control_c, 6, 11, 64
8, 24265, Control_c, 6, 11, 61
8, 24266, Control_c, 6, 11, 58
8, 24267, Control_c, 6, 11, 56
8, 24268, Control_c, 6, 11, 53
8, 24269, Control_c, 6, 11, 50
8, 24270, Control_c, 6, 11, 48
8, 24271, Control_c, 6, 11, 45
8, 24272, Control_c, 6, 11, 42
8, 24273, Control_c, 6, 11, 40
8, 24274, Control_c, 6, 11, 37
8, 24275, Control_c, 6, 11, 34
8, 24276, Control_c, 6, 11, 32
8, 24277, Control_c, 6, 11, 29
8, 24278, Control_c, 6, 11, 26
8, 24279, Control_c, 6, 11, 24
8, 24280, Control_c, 6, 11, 21
8, 24281, Control_c, 6, 11, 19
8, 24282, Control_c, 6, 11, 16
8, 24283, Control_c, 6, 11, 13
8, 24284, Control_c, 6, 11, 11
8, 24285, Control_c, 6, 11, 8
8, 24286, Control_c, 6, 11, 5
8, 24287, Control_c, 6, 11, 3
8, 24288, Note_off_c, 6, 93, 64
8, 24288, Control_c, 6, 11, 127
8, 24288, Note_on_c, 6, 63, 64
8, 24289, Control_c, 6, 11, 124
8, 24290, Control_c, 6, 11, 122
8, 24291, Control_c, 6, 11, 119
8, 24292, Control_c, 6, 11, 116
8, 24293, Control_c, 6, 11, 114
8, 24294, Control_c, 6, 11, 111
8, 24295, Control_c, 6, 11, 108
8, 24296, Control_c, 6, 11, 106
8, 24297, Control_c, 6, 11, 103
8, 24298, Control_c, 6, 11, 101
8, 24299, Control_c, 6, 11, 98
8, 24300, Control_c, 6, 11, 95
8, 24301, Control_c, 6, 11, 93
8, 24302, Control_c, 6, 11, 90
8, 24303, Control_c, 6, 11, 87
8, 24304, Control_c, 6, 11, 85
8, 24305, Control_c, 6, 11, 82
8, 24306, Control_c, 6, 11, 79
8, 24307, Control_c, 6, 11, 77
8, 24308, Control_c, 6, 11, 74
8, 24309, Control_c, 6, 11, 71
8, 24310, Control_c, 6, 11, 69
8, 24311, Control_c, 6, 11, 66
8, 24312, Control_c, 6, 11, 64
8, 24313, Control_c, 6, 11, 61
8, 24314, Control_c, 6, 11, 58
8, 24315, Control_c, 6, 11, 56
8, 24316, Control_c, 6, 11, 53
8, 24317, Control_c, 6, 11, 50
8, 24318, Control_c, 6, 11, 48
8, 24319, Control_c, 6, 11, 45
8, 24320, Control_c, 6, 11, 42
8, 24321, Control_c, 6, 11, 40
8, 24322, Control_c, 6, 11, 37
8, 24323, Control_c, 6, 11, 34
8, 24324, Control_c, 6, 11, 32
8, 24325, Control_c, 6, 11, 29
8, 24326, Control_c, 6, 11, 26
8, 24327, Control_c, 6, 11, 24
8, 24328, Control_c, 6, 11, 21
8, 24329, Control_c, 6, 11, 19
8, 24330, Control_c, 6, 11, 16
8, 24331, Control_c, 6, 11, 13
8, 24332, Control_c, 6, 11, 11
8, 24333, Control_c, 6, 11, 8
8, 24334, Control_c, 6, 11, 5
8, 24335, Control_c, 6, 11, 3
8, 24336, Note_off_c, 6, 63, 64
8, 24336, Control_c, 6, 11, 127
8, 24336, Note_on_c, 6, 93, 64
8, 24337, Control_c, 6, 11, 124
8, 24338, Control_c, 6, 11, 122
8, 24339, Control_c, 6, 11, 119
8, 24340, Control_c, 6, 11, 116
8, 24341, Control_c, 6, 11, 114
8, 24342, Control_c, 6, 11, 111
8, 24343, Control_c, 6, 11, 108
8, 24344, Control_c, 6, 11, 106
8, 24345, Control_c, 6, 11, 103
8, 24346, Control_c, 6, 11, 101
8, 24347, Control_c, 6, 11, 98
8, 24348, Control_c, 6, 11, 95
8, 24349, Control_c, 6, 11, 93
8, 24350, Control_c, 6, 11, 90
8, 24351, Control_c, 6, 11, 87
8, 24352, Control_c, 6, 11, 85
8, 24353, Control_c, 6, 11, 82
8, 24354, Control_c, 6, 11, 79
8, 24355, Control_c, 6, 11, 77
8, 24356, Control_c, 6, 11, 74
8, 24357, Control_c, 6, 11, 71
8, 24358, Control_c, 6, 11, 69
8, 24359, Control_c, 6, 11, 66
8, 24360, Control_c, 6, 11, 64
8, 24361, Control_c, 6, 11, 61
8, 24362, Control_c, 6, 11, 58
8, 24363, Control_c, 6, 11, 56
8, 24364, Control_c, 6, 11, 53
8, 24365, Control_c, 6, 11, 50
8, 24366, Control_c, 6, 11, 48
8, 24367, Control_c, 6, 11, 45
8, 24368, Control_c, 6, 11, 42
8, 24369, Control_c, 6, 11, 40
8, 24370, Control_c, 6, 11, 37
8, 24371, Control_c, 6, 11, 34
8, 24372, Control_c, 6, 11, 32
8, 24373, Control_c, 6, 11, 29
8, 24374, Control_c, 6, 11, 26
8, 24375, Control_c, 6, 11, 24
8, 24376, Control_c, 6, 11, 21
8, 24377, Control_c, 6, 11, 19
8, 24378, Control_c, 6, 11, 16
8, 24379, Control_c, 6, 11, 13
8, 24380, Control_c, 6, 11, 11
8, 24381, Control_c, 6, 11, 8
8, 24382, Control_c, 6, 11, 5
8, 24383, Control_c, 6, 11, 3
8, 24384, Note_off_c, 6, 93, 64
8, 24384, Control_c, 6, 11, 127
8, 24384, Note_on_c, 6, 33, 64
8, 24385, Control_c, 6, 11, 124
8, 24386, Control_c, 6, 11, 122
8, 24387, Control_c, 6, 11, 119
8, 24388, Control_c, 6, 11, 116
8, 24389, Control_c, 6, 11, 114
8, 24390, Control_c, 6, 11, 111
8, 24391, Control_c, 6, 11, 108
8, 24392, Control_c, 6, 11, 106
8, 24393, Control_c, 6, 11, 103
8, 24394, Control_c, 6, 11, 101
8, 24395, Control_c, 6, 11, 98
8, 24396, Control_c, 6, 11, 95
8, 24397, Control_c, 6, 11, 93
8, 24398, Control_c, 6, 11, 90
8, 24399, Control_c, 6, 11, 87
8, 24400, Control_c, 6, 11, 85
8, 24401, Control_c, 6, 11, 82
8, 24402, Control_c, 6, 11, 79
8, 24403, Control_c, 6, 11, 77
8, 24404, Control_c, 6, 11, 74
8, 24405, Control_c, 6, 11, 71
8, 24406, Control_c, 6, 11, 69
8, 24407, Control_c, 6, 11, 66
8, 24408, Control_c, 6, 11, 64
8, 24409, Control_c, 6, 11, 61
8, 24410, Control_c, 6, 11, 58
8, 24411, Control_c, 6, 11, 56
8, 24412, Control_c, 6, 11, 53
8, 24413, Control_c, 6, 11, 50
8, 24414, Control_c, 6, 11, 48
8, 24415, Control_c, 6, 11, 45
8, 24416, Control_c, 6, 11, 42
8, 24417, Control_c, 6, 11, 40
8, 24418, Control_c, 6, 11, 37
8, 24419, Control_c, 6, 11, 34
8, 24420, Control_c, 6, 11, 32
8, 24421, Control_c, 6, 11, 29
8, 24422, Control_c, 6, 11, 26
8, 24423, Control_c, 6, 11, 24
8, 24424, Control_c, 6, 11, 21
8, 24425, Control_c, 6, 11, 19
8, 24426, Control_c, 6, 11, 16
8, 24427, Control_c, 6, 11, 13
8, 24428, Control_c, 6, 11, 11
8, 24429, Control_c, 6, 11, 8
8, 24430, Control_c, 6, 11, 5
8, 24431, Control_c, 6, 11, 3
8, 24432, Note_off_c, 6, 33, 64
8, 24432, Control_c, 6, 11, 127
8, 24432, Note_on_c, 6, 93, 64
8, 24433, Control_c, 6, 11, 124
8, 24434, Control_c, 6, 11, 122
8, 24435, Control_c, 6, 11, 119
8, 24436, Control_c, 6, 11, 116
8, 24437, Control_c, 6, 11, 114
8, 24438, Control_c, 6, 11, 111
8, 24439, Control_c, 6, 11, 108
8, 24440, Control_c, 6, 11, 106
8, 24441, Control_c, 6, 11, 103
8, 24442, Control_c, 6, 11, 101
8, 24443, Control_c, 6, 11, 98
8, 24444, Control_c, 6, 11, 95
8, 24445, Control_c, 6, 11, 93
8, 24446, Control_c, 6, 11, 90
8, 24447, Control_c, 6, 11, 87
8, 24448, Control_c, 6, 11, 85
8, 24449, Control_c, 6, 11, 82
8, 24450, Control_c, 6, 11, 79
8, 24451, Control_c, 6, 11, 77
8, 24452, Control_c, 6, 11, 74
8, 24453, Control_c, 6, 11, 71
8, 24454, Control_c, 6, 11, 69
8, 24455, Control_c, 6, 11, 66
8, 24456, Control_c, 6, 11, 64
8, 24457, Control_c, 6, 11, 61
8, 24458, Control_c, 6, 11, 58
8, 24459, Control_c, 6, 11, 56
8, 24460, Control_c, 6, 11, 53
8, 24461, Control_c, 6, 11, 50
8, 24462, Control_c, 6, 11, 48
8, 24463, Control_c, 6, 11, 45
8, 24464, Control_c, 6, 11, 42
8, 24465, Control_c, 6, 11, 40
8, 24466, Control_c, 6, 11, 37
8, 24467, Control_c, 6, 11, 34
8, 24468, Control_c, 6, 11, 32
8, 24469, Control_c, 6, 11, 29
8, 24470, Control_c, 6, 11, 26
8, 24471, Control_c, 6, 11, 24
8, 24472, Control_c, 6, 11, 21
8, 24473, Control_c, 6, 11, 19
8, 24474, Control_c, 6, 11, 16
8, 24475, Control_c, 6, 11, 13
8, 24476, Control_c, 6, 11, 11
8, 24477, Control_c, 6, 11, 8
8, 24478, Control_c, 6, 11, 5
8, 24479, Control_c, 6, 11, 3
8, 24480, Note_off_c, 6, 93, 64
8, 24480, Control_c, 6, 11, 127
8, 24480, Note_on_c, 6, 63, 64
8, 24481, Control_c, 6, 11, 124
8, 24482, Control_c, 6, 11, 122
8, 24483, Control_c, 6, 11, 119
8, 24484, Control_c, 6, 11, 116
8, 24485, Control_c, 6, 11, 114
8, 24486, Control_c, 6, 11, 111
8, 24487, Control_c, 6, 11, 108
8, 24488, Control_c, 6, 11, 106
8, 24489, Control_c, 6, 11, 103
8, 24490, Control_c, 6, 11, 101
8, 24491, Control_c, 6, 11, 98
8, 24492, Control_c, 6, 11, 95
8, 24493, Control_c, 6, 11, 93
8, 24494, Control_c, 6, 11, 90
8, 24495, Control_c, 6, 11, 87
8, 24496, Control_c, 6, 11, 85
8, 24497, Control_c, 6, 11, 82
8, 24498, Control_c, 6, 11, 79
8, 24499, Control_c, 6, 11, 77
8, 24500, Control_c, 6, 11, 74
8, 24501, Control_c, 6, 11, 71
8, 24502, Control_c, 6, 11, 69
8, 24503, Control_c, 6, 11, 66
8, 24504, Control_c, 6, 11, 64
8, 24505, Control_c, 6, 11, 61
8, 24506, Control_c, 6, 11, 58
8, 24507, Control_c, 6, 11, 56
8, 24508, Control_c, 6, 11, 53
8, 24509, Control_c, 6, 11, 50
8, 24510, Control_c, 6, 11, 48
8, 24511, Control_c, 6, 11, 45
8, 24512, Control_c, 6, 11, 42
8, 24513, Control_c, 6, 11, 40
8, 24514, Control_c, 6, 11, 37
8, 24515, Control_c, 6, 11, 34
8, 24516, Control_c, 6, 11, 32
8, 24517, Control_c, 6, 11, 29
8, 24518, Control_c, 6, 11, 26
8, 24519, Control_c, 6, 11, 24
8, 24520, Control_c, 6, 11, 21
8, 24521, Control_c, 6, 11, 19
8, 24522, Control_c, 6, 11, 16
8, 24523, Control_c, 6, 11, 13
8, 24524, Control_c, 6, 11, 11
8, 24525, Control_c, 6, 11, 8
8, 24526, Control_c, 6, 11, 5
8, 24527, Control_c, 6, 11, 3
8, 24528, Note_off_c, 6, 63, 64
8, 24528, Control_c, 6, 11, 127
8, 24528, Note_on_c, 6, 63, 64
8, 24529, Control_c, 6, 11, 124
8, 24530, Control_c, 6, 11, 122
8, 24531, Control_c, 6, 11, 119
8, 24532, Control_c, 6, 11, 116
8, 24533, Control_c, 6, 11, 114
8, 24534, Control_c, 6, 11, 111
8, 24535, Control_c, 6, 11, 108
8, 24536, Control_c, 6, 11, 106
8, 24537, Control_c, 6, 11, 103
8, 24538, Control_c, 6, 11, 101
8, 24539, Control_c, 6, 11, 98
8, 24540, Control_c, 6, 11, 95
8, 24541, Control_c, 6, 11, 93
8, 24542, Control_c, 6, 11, 90
8, 24543, Control_c, 6, 11, 87
8, 24544, Control_c, 6, 11, 85
8, 24545, Control_c, 6, 11, 82
8, 24546, Control_c, 6, 11, 79
8, 24547, Control_c, 6, 11, 77
8, 24548, Control_c, 6, 11, 74
8, 24549, Control_c, 6, 11, 71
8, 24550, Control_c, 6, 11, 69
8, 24551, Control_c, 6, 11, 66
8, 24552, Control_c, 6, 11, 64
8, 24553, Control_c, 6, 11, 61
8, 24554, Control_c, 6, 11, 58
8, 24555, Control_c, 6, 11, 56
8, 24556, Control_c, 6, 11, 53
8, 24557, Control_c, 6, 11, 50
8, 24558, Control_c, 6, 11, 48
8, 24559, Control_c, 6, 11, 45
8, 24560, Control_c, 6, 11, 42
8, 24561, Control_c, 6, 11, 40
8, 24562, Control_c, 6, 11, 37
8, 24563, Control_c, 6, 11, 34
8, 24564, Control_c, 6, 11, 32
8, 24565, Control_c, 6, 11, 29
8, 24566, Control_c, 6, 11, 26
8, 24567, Control_c, 6, 11, 24
8, 24568, Control_c, 6, 11, 21
8, 24569, Control_c, 6, 11, 19
8, 24570, Control_c, 6, 11, 16
8, 24571, Control_c, 6, 11, 13
8, 24572, Control_c, 6, 11, 11
8, 24573, Control_c, 6, 11, 8
8, 24574, Control_c, 6, 11, 5
8, 24575, Control_c, 6, 11, 3
8, 24576, Note_off_c, 6, 63, 64
8, 24576, Control_c, 6, 11, 127
8, 24576, Note_on_c, 6, 87, 64
8, 24580, Control_c, 6, 11, 126
8, 24586, Control_c, 6, 11, 125
8, 24592, Control_c, 6, 11, 124
8, 24598, Control_c, 6, 11, 123
8, 24604, Control_c, 6, 11, 122
8, 24610, Control_c, 6, 11, 121
8, 24616, Control_c, 6, 11, 120
8, 24622, Control_c, 6, 11, 119
8, 24628, Control_c, 6, 11, 118
8, 24634, Control_c, 6, 11, 117
8, 24640, Control_c, 6, 11, 116
8, 24646, Control_c, 6, 11, 115
8, 24652, Control_c, 6, 11, 114
8, 24658, Control_c, 6, 11, 113
8, 24664, Control_c, 6, 11, 112
8, 24670, Control_c, 6, 11, 111
8, 24676, Control_c, 6, 11, 110
8, 24682, Control_c, 6, 11, 109
8, 24688, Control_c, 6, 11, 108
8, 24694, Control_c, 6, 11, 107
8, 24700, Control_c, 6, 11, 106
8, 24707, Control_c, 6, 11, 105
8, 24713, Control_c, 6, 11, 104
8, 24719, Control_c, 6, 11, 103
8, 24725, Control_c, 6, 11, 102
8, 24731, Control_c, 6, 11, 101
8, 24737, Control_c, 6, 11, 100
8, 24743, Control_c, 6, 11, 99
8, 24749, Control_c, 6, 11, 98
8, 24755, Control_c, 6, 11, 97
8, 24761, Control_c, 6, 11, 96
8, 24767, Control_c, 6, 11, 95
8, 24773, Control_c, 6, 11, 94
8, 24779, Control_c, 6, 11, 93
8, 24785, Control_c, 6, 11, 92
8, 24791, Control_c, 6, 11, 91
8, 24797, Control_c, 6, 11, 90
8, 24803, Control_c, 6, 11, 89
8, 24809, Control_c, 6, 11, 88
8, 24815, Control_c, 6, 11, 87
8, 24821, Control_c, 6, 11, 86
8, 24827, Control_c, 6, 11, 85
8, 24834, Control_c, 6, 11, 84
8, 24840, Control_c, 6, 11, 83
8, 24846, Control_c, 6, 11, 82
8, 24852, Control_c, 6, 11, 81
8, 24858, Control_c, 6, 11, 80
8, 24864, Control_c, 6, 11, 79
8, 24870, Control_c, 6, 11, 78
8, 24876, Control_c, 6, 11, 77
8, 24882, Control_c, 6, 11, 76
8, 24888, Control_c, 6, 11, 75
8, 24894, Control_c, 6, 11, 74
8, 24900, Control_c, 6, 11, 73
8, 24906, Control_c, 6, 11, 72
8, 24912, Control_c, 6, 11, 71
8, 24918, Control_c, 6, 11, 70
8, 24924, Control_c, 6, 11, 69
8, 24930, Control_c, 6, 11, 68
8, 24936, Control_c, 6, 11, 67
8, 24942, Control_c, 6, 11, 66
8, 24948, Control_c, 6, 11, 65
8, 24954, Control_c, 6, 11, 64
8, 24961, Control_c, 6, 11, 63
8, 24967, Control_c, 6, 11, 62
8, 24973, Control_c, 6, 11, 61
8, 24979, Control_c, 6, 11, 60
8, 24985, Control_c, 6, 11, 59
8, 24991, Control_c, 6, 11, 58
8, 24997, Control_c, 6, 11, 57
8, 25003, Control_c, 6, 11, 56
8, 25009, Control_c, 6, 11, 55
8, 25015, Control_c, 6, 11, 54
8, 25021, Control_c, 6, 11, 53
8, 25027, Control_c, 6, 11, 52
8, 25033, Control_c, 6, 11, 51
8, 25039, Control_c, 6, 11, 50
8, 25045, Control_c, 6, 11, 49
8, 25051, Control_c, 6, 11, 48
8, 25057, Control_c, 6, 11, 47
8, 25063, Control_c, 6, 11, 46
8, 25069, Control_c, 6, 11, 45
8, 25075, Control_c, 6, 11, 44
8, 25081, Control_c, 6, 11, 43
8, 25087, Control_c, 6, 11, 42
8, 25094, Control_c, 6, 11, 41
8, 25100, Control_c, 6, 11, 40
8, 25106, Control_c, 6, 11, 39
8, 25112, Control_c, 6, 11, 38
8, 25118, Control_c, 6, 11, 37
8, 25124, Control_c, 6, 11, 36
8, 25130, Control_c, 6, 11, 35
8, 25136, Control_c, 6, 11, 34
8, 25142, Control_c, 6, 11, 33
8, 25148, Control_c, 6, 11, 32
8, 25154, Control_c, 6, 11, 31
8, 25160, Control_c, 6, 11, 30
8, 25166, Control_c, 6, 11, 29
8, 25172, Control_c, 6, 11, 28
8, 25178, Control_c, 6, 11, 27
8, 25184, Control_c, 6, 11, 26
8, 25190, Control_c, 6, 11, 25
8, 25196, Control_c, 6, 11, 24
8, 25202, Control_c, 6, 11, 23
8, 25208, Control_c, 6, 11, 22
8, 25214, Control_c, 6, 11, 21
8, 25221, Control_c, 6, 11, 20
8, 25227, Control_c, 6, 11, 19
8, 25233, Control_c, 6, 11, 18
8, 25239, Control_c, 6, 11, 17
8, 25245, Control_c, 6, 11, 16
8, 25251, Control_c, 6, 11, 15
8, 25257, Control_c, 6, 11, 14
8, 25263, Control_c, 6, 11, 13
8, 25269, Control_c, 6, 11, 12
8, 25275, Control_c, 6, 11, 11
8, 25281, Control_c, 6, 11, 10
8, 25287, Control_c, 6, 11, 9
8, 25293, Control_c, 6, 11, 8
8, 25299, Control_c, 6, 11, 7
8, 25305, Control_c, 6, 11, 6
8, 25311, Control_c, 6, 11, 5
8, 25317, Control_c, 6, 11, 4
8, 25323, Control_c, 6, 11, 3
8, 25329, Control_c, 6, 11, 2
8, 25335, Control_c, 6, 11, 1
8, 25341, Control_c, 6, 11, 0
8, 25344, Note_off_c, 6, 87, 64
8, 25344, End_track
0, 0, End_of_file
