0, 0, Header, 1, 12, 192
1, 0, Copyright_t, "All Rights Reserved"
1, 0, End_track
1, 0, Key_signature, 1, "major"
1, 0, Start_track
1, 0, Tempo, 555555
1, 0, Text_t, "By Smash Mouth"
1, 0, Text_t, "Generated by NoteWorthy Composer"
1, 0, Time_signature, 4, 2, 24, 8
1, 0, Title_t, "allstar"
2, 0, Control_c, 0, 10, 64
2, 0, Control_c, 0, 7, 127
2, 0, MIDI_port, 0
2, 0, Program_c, 0, 29
2, 0, Start_track
2, 0, Title_t, "ingame,49,62"
2, 576, Note_on_c, 0, 54, 110
2, 736, Note_on_c, 0, 54, 0
2, 768, Note_on_c, 0, 61, 110
2, 862, Note_on_c, 0, 61, 0
2, 864, Note_on_c, 0, 58, 110
2, 958, Note_on_c, 0, 58, 0
2, 960, Note_on_c, 0, 58, 110
2, 1120, Note_on_c, 0, 58, 0
2, 1152, Note_on_c, 0, 56, 110
2, 1246, Note_on_c, 0, 56, 0
2, 1248, Note_on_c, 0, 54, 110
2, 1342, Note_on_c, 0, 54, 0
2, 1344, Note_on_c, 0, 54, 110
2, 1438, Note_on_c, 0, 54, 0
2, 1440, Note_on_c, 0, 59, 110
2, 1630, Note_on_c, 0, 59, 0
2, 1632, Note_on_c, 0, 58, 110
2, 1726, Note_on_c, 0, 58, 0
2, 1728, Note_on_c, 0, 58, 110
2, 1822, Note_on_c, 0, 58, 0
2, 1824, Note_on_c, 0, 56, 110
2, 1918, Note_on_c, 0, 56, 0
2, 1920, Note_on_c, 0, 56, 110
2, 2014, Note_on_c, 0, 56, 0
2, 2016, Note_on_c, 0, 54, 110
2, 2110, Note_on_c, 0, 54, 0
2, 2208, Note_on_c, 0, 54, 110
2, 2302, Note_on_c, 0, 54, 0
2, 2304, Note_on_c, 0, 61, 110
2, 2398, Note_on_c, 0, 61, 0
2, 2400, Note_on_c, 0, 58, 110
2, 2494, Note_on_c, 0, 58, 0
2, 2496, Note_on_c, 0, 58, 110
2, 2590, Note_on_c, 0, 58, 0
2, 2592, Note_on_c, 0, 56, 110
2, 2686, Note_on_c, 0, 56, 0
2, 2688, Note_on_c, 0, 56, 110
2, 2782, Note_on_c, 0, 56, 0
2, 2784, Note_on_c, 0, 54, 110
2, 2878, Note_on_c, 0, 54, 0
2, 2880, Note_on_c, 0, 54, 110
2, 2974, Note_on_c, 0, 54, 0
2, 2976, Note_on_c, 0, 51, 110
2, 3166, Note_on_c, 0, 51, 0
2, 3168, Note_on_c, 0, 49, 110
2, 3424, Note_on_c, 0, 49, 0
2, 3648, Note_on_c, 0, 54, 110
2, 3742, Note_on_c, 0, 54, 0
2, 3744, Note_on_c, 0, 54, 110
2, 3838, Note_on_c, 0, 54, 0
2, 3840, Note_on_c, 0, 61, 110
2, 3934, Note_on_c, 0, 61, 0
2, 3936, Note_on_c, 0, 58, 110
2, 4030, Note_on_c, 0, 58, 0
2, 4032, Note_on_c, 0, 58, 110
2, 4126, Note_on_c, 0, 58, 0
2, 4128, Note_on_c, 0, 56, 110
2, 4222, Note_on_c, 0, 56, 0
2, 4224, Note_on_c, 0, 56, 110
2, 4318, Note_on_c, 0, 56, 0
2, 4320, Note_on_c, 0, 54, 110
2, 4414, Note_on_c, 0, 54, 0
2, 4416, Note_on_c, 0, 54, 110
2, 4510, Note_on_c, 0, 54, 0
2, 4512, Note_on_c, 0, 59, 110
2, 4702, Note_on_c, 0, 59, 0
2, 4704, Note_on_c, 0, 58, 110
2, 4798, Note_on_c, 0, 58, 0
2, 4800, Note_on_c, 0, 58, 110
2, 4894, Note_on_c, 0, 58, 0
2, 4896, Note_on_c, 0, 56, 110
2, 4990, Note_on_c, 0, 56, 0
2, 4992, Note_on_c, 0, 56, 110
2, 5086, Note_on_c, 0, 56, 0
2, 5088, Note_on_c, 0, 54, 110
2, 5182, Note_on_c, 0, 54, 0
2, 5184, Note_on_c, 0, 54, 110
2, 5278, Note_on_c, 0, 54, 0
2, 5280, Note_on_c, 0, 61, 110
2, 5470, Note_on_c, 0, 61, 0
2, 5472, Note_on_c, 0, 58, 110
2, 5566, Note_on_c, 0, 58, 0
2, 5568, Note_on_c, 0, 58, 110
2, 5662, Note_on_c, 0, 58, 0
2, 5664, Note_on_c, 0, 56, 110
2, 5854, Note_on_c, 0, 56, 0
2, 5856, Note_on_c, 0, 54, 110
2, 5950, Note_on_c, 0, 54, 0
2, 5952, Note_on_c, 0, 54, 110
2, 6046, Note_on_c, 0, 54, 0
2, 6048, Note_on_c, 0, 56, 110
2, 6238, Note_on_c, 0, 56, 0
2, 6240, Note_on_c, 0, 51, 110
2, 6496, Note_on_c, 0, 51, 0
2, 6720, Note_on_c, 0, 54, 110
2, 6862, Note_on_c, 0, 54, 0
2, 6864, Note_on_c, 0, 54, 110
2, 6910, Note_on_c, 0, 54, 0
2, 6912, Note_on_c, 0, 54, 110
2, 7006, Note_on_c, 0, 54, 0
2, 7008, Note_on_c, 0, 54, 110
2, 7102, Note_on_c, 0, 54, 0
2, 7104, Note_on_c, 0, 54, 110
2, 7150, Note_on_c, 0, 54, 0
2, 7152, Note_on_c, 0, 54, 110
2, 7198, Note_on_c, 0, 54, 0
2, 7200, Note_on_c, 0, 54, 110
2, 7246, Note_on_c, 0, 54, 0
2, 7248, Note_on_c, 0, 54, 110
2, 7294, Note_on_c, 0, 54, 0
2, 7296, Note_on_c, 0, 54, 110
2, 7390, Note_on_c, 0, 54, 0
2, 7392, Note_on_c, 0, 54, 110
2, 7486, Note_on_c, 0, 54, 0
2, 7488, Note_on_c, 0, 54, 110
2, 7534, Note_on_c, 0, 54, 0
2, 7536, Note_on_c, 0, 54, 110
2, 7582, Note_on_c, 0, 54, 0
2, 7680, Note_on_c, 0, 54, 110
2, 7774, Note_on_c, 0, 54, 0
2, 7776, Note_on_c, 0, 54, 110
2, 7822, Note_on_c, 0, 54, 0
2, 7824, Note_on_c, 0, 54, 110
2, 7870, Note_on_c, 0, 54, 0
2, 7872, Note_on_c, 0, 54, 110
2, 7966, Note_on_c, 0, 54, 0
2, 7968, Note_on_c, 0, 54, 110
2, 8014, Note_on_c, 0, 54, 0
2, 8016, Note_on_c, 0, 54, 110
2, 8062, Note_on_c, 0, 54, 0
2, 8064, Note_on_c, 0, 54, 110
2, 8110, Note_on_c, 0, 54, 0
2, 8112, Note_on_c, 0, 54, 110
2, 8158, Note_on_c, 0, 54, 0
2, 8160, Note_on_c, 0, 54, 110
2, 8254, Note_on_c, 0, 54, 0
2, 8256, Note_on_c, 0, 58, 110
2, 8302, Note_on_c, 0, 58, 0
2, 8304, Note_on_c, 0, 54, 110
2, 8350, Note_on_c, 0, 54, 0
2, 8448, Note_on_c, 0, 58, 110
2, 8494, Note_on_c, 0, 58, 0
2, 8496, Note_on_c, 0, 61, 110
2, 8542, Note_on_c, 0, 61, 0
2, 8544, Note_on_c, 0, 61, 110
2, 8638, Note_on_c, 0, 61, 0
2, 8640, Note_on_c, 0, 61, 110
2, 8734, Note_on_c, 0, 61, 0
2, 8736, Note_on_c, 0, 59, 110
2, 8782, Note_on_c, 0, 59, 0
2, 8784, Note_on_c, 0, 59, 110
2, 8830, Note_on_c, 0, 59, 0
2, 8832, Note_on_c, 0, 58, 110
2, 8926, Note_on_c, 0, 58, 0
2, 8928, Note_on_c, 0, 58, 110
2, 9022, Note_on_c, 0, 58, 0
2, 9024, Note_on_c, 0, 58, 110
2, 9118, Note_on_c, 0, 58, 0
2, 9168, Note_on_c, 0, 49, 110
2, 9214, Note_on_c, 0, 49, 0
2, 9216, Note_on_c, 0, 58, 110
2, 9310, Note_on_c, 0, 58, 0
2, 9312, Note_on_c, 0, 54, 110
2, 9406, Note_on_c, 0, 54, 0
2, 9408, Note_on_c, 0, 54, 110
2, 9502, Note_on_c, 0, 54, 0
2, 9504, Note_on_c, 0, 54, 110
2, 9550, Note_on_c, 0, 54, 0
2, 9552, Note_on_c, 0, 51, 110
2, 9598, Note_on_c, 0, 51, 0
2, 9600, Note_on_c, 0, 54, 110
2, 9694, Note_on_c, 0, 54, 0
2, 9696, Note_on_c, 0, 54, 110
2, 9790, Note_on_c, 0, 54, 0
2, 9792, Note_on_c, 0, 51, 110
2, 9838, Note_on_c, 0, 51, 0
2, 9840, Note_on_c, 0, 49, 110
2, 9886, Note_on_c, 0, 49, 0
2, 9984, Note_on_c, 0, 58, 110
2, 10030, Note_on_c, 0, 58, 0
2, 10032, Note_on_c, 0, 61, 110
2, 10126, Note_on_c, 0, 61, 0
2, 10128, Note_on_c, 0, 58, 110
2, 10174, Note_on_c, 0, 58, 0
2, 10176, Note_on_c, 0, 63, 110
2, 10270, Note_on_c, 0, 63, 0
2, 10272, Note_on_c, 0, 58, 110
2, 10318, Note_on_c, 0, 58, 0
2, 10320, Note_on_c, 0, 61, 110
2, 10414, Note_on_c, 0, 61, 0
2, 10416, Note_on_c, 0, 58, 110
2, 10462, Note_on_c, 0, 58, 0
2, 10464, Note_on_c, 0, 63, 110
2, 10558, Note_on_c, 0, 63, 0
2, 10560, Note_on_c, 0, 58, 110
2, 10606, Note_on_c, 0, 58, 0
2, 10608, Note_on_c, 0, 61, 110
2, 10702, Note_on_c, 0, 61, 0
2, 10704, Note_on_c, 0, 59, 110
2, 10798, Note_on_c, 0, 59, 0
2, 10800, Note_on_c, 0, 58, 110
2, 10894, Note_on_c, 0, 58, 0
2, 10896, Note_on_c, 0, 56, 110
2, 10990, Note_on_c, 0, 56, 0
2, 10992, Note_on_c, 0, 56, 110
2, 11086, Note_on_c, 0, 56, 0
2, 11088, Note_on_c, 0, 54, 110
2, 11134, Note_on_c, 0, 54, 0
2, 11136, Note_on_c, 0, 56, 110
2, 11230, Note_on_c, 0, 56, 0
2, 11232, Note_on_c, 0, 54, 110
2, 11326, Note_on_c, 0, 54, 0
2, 11472, Note_on_c, 0, 49, 110
2, 11518, Note_on_c, 0, 49, 0
2, 11520, Note_on_c, 0, 54, 110
2, 11566, Note_on_c, 0, 54, 0
2, 11568, Note_on_c, 0, 54, 110
2, 11614, Note_on_c, 0, 54, 0
2, 11616, Note_on_c, 0, 54, 110
2, 11710, Note_on_c, 0, 54, 0
2, 11712, Note_on_c, 0, 54, 110
2, 11758, Note_on_c, 0, 54, 0
2, 11760, Note_on_c, 0, 54, 110
2, 11806, Note_on_c, 0, 54, 0
2, 11808, Note_on_c, 0, 54, 110
2, 11902, Note_on_c, 0, 54, 0
2, 11904, Note_on_c, 0, 54, 110
2, 11998, Note_on_c, 0, 54, 0
2, 12240, Note_on_c, 0, 49, 110
2, 12286, Note_on_c, 0, 49, 0
2, 12288, Note_on_c, 0, 58, 110
2, 12334, Note_on_c, 0, 58, 0
2, 12336, Note_on_c, 0, 54, 110
2, 12382, Note_on_c, 0, 54, 0
2, 12384, Note_on_c, 0, 54, 110
2, 12478, Note_on_c, 0, 54, 0
2, 12480, Note_on_c, 0, 54, 110
2, 12526, Note_on_c, 0, 54, 0
2, 12528, Note_on_c, 0, 51, 110
2, 12574, Note_on_c, 0, 51, 0
2, 12576, Note_on_c, 0, 51, 110
2, 12670, Note_on_c, 0, 51, 0
2, 12672, Note_on_c, 0, 51, 110
2, 12832, Note_on_c, 0, 51, 0
2, 13056, Note_on_c, 0, 58, 110
2, 13150, Note_on_c, 0, 58, 0
2, 13152, Note_on_c, 0, 54, 110
2, 13342, Note_on_c, 0, 54, 0
2, 13344, Note_on_c, 0, 54, 110
2, 13390, Note_on_c, 0, 54, 0
2, 13392, Note_on_c, 0, 51, 110
2, 13438, Note_on_c, 0, 51, 0
2, 13440, Note_on_c, 0, 54, 110
2, 13534, Note_on_c, 0, 54, 0
2, 13536, Note_on_c, 0, 54, 110
2, 13630, Note_on_c, 0, 54, 0
2, 13728, Note_on_c, 0, 54, 110
2, 13774, Note_on_c, 0, 54, 0
2, 13776, Note_on_c, 0, 51, 110
2, 13822, Note_on_c, 0, 51, 0
2, 13824, Note_on_c, 0, 54, 110
2, 13918, Note_on_c, 0, 54, 0
2, 13920, Note_on_c, 0, 54, 110
2, 14014, Note_on_c, 0, 54, 0
2, 14112, Note_on_c, 0, 54, 110
2, 14206, Note_on_c, 0, 54, 0
2, 14304, Note_on_c, 0, 58, 110
2, 14560, Note_on_c, 0, 58, 0
2, 14592, Note_on_c, 0, 58, 110
2, 14686, Note_on_c, 0, 58, 0
2, 14688, Note_on_c, 0, 54, 110
2, 14878, Note_on_c, 0, 54, 0
2, 14880, Note_on_c, 0, 54, 110
2, 14926, Note_on_c, 0, 54, 0
2, 14928, Note_on_c, 0, 51, 110
2, 14974, Note_on_c, 0, 51, 0
2, 14976, Note_on_c, 0, 54, 110
2, 15070, Note_on_c, 0, 54, 0
2, 15072, Note_on_c, 0, 54, 110
2, 15166, Note_on_c, 0, 54, 0
2, 15264, Note_on_c, 0, 54, 110
2, 15310, Note_on_c, 0, 54, 0
2, 15312, Note_on_c, 0, 51, 110
2, 15358, Note_on_c, 0, 51, 0
2, 15360, Note_on_c, 0, 54, 110
2, 15454, Note_on_c, 0, 54, 0
2, 15456, Note_on_c, 0, 54, 110
2, 15550, Note_on_c, 0, 54, 0
2, 15648, Note_on_c, 0, 54, 110
2, 15742, Note_on_c, 0, 54, 0
2, 15840, Note_on_c, 0, 58, 110
2, 16096, Note_on_c, 0, 58, 0
2, 16128, Note_on_c, 0, 58, 110
2, 16288, Note_on_c, 0, 58, 0
2, 16320, Note_on_c, 0, 61, 110
2, 16462, Note_on_c, 0, 61, 0
2, 16464, Note_on_c, 0, 61, 110
2, 16510, Note_on_c, 0, 61, 0
2, 16512, Note_on_c, 0, 59, 110
2, 16606, Note_on_c, 0, 59, 0
2, 16608, Note_on_c, 0, 58, 110
2, 16702, Note_on_c, 0, 58, 0
2, 16704, Note_on_c, 0, 56, 110
2, 16798, Note_on_c, 0, 56, 0
2, 16800, Note_on_c, 0, 56, 110
2, 16894, Note_on_c, 0, 56, 0
2, 16896, Note_on_c, 0, 54, 110
2, 17230, Note_on_c, 0, 54, 0
2, 17280, Note_on_c, 0, 54, 110
2, 17374, Note_on_c, 0, 54, 0
2, 17376, Note_on_c, 0, 54, 110
2, 17470, Note_on_c, 0, 54, 0
2, 17472, Note_on_c, 0, 56, 110
2, 17566, Note_on_c, 0, 56, 0
2, 17568, Note_on_c, 0, 54, 110
2, 17662, Note_on_c, 0, 54, 0
2, 17664, Note_on_c, 0, 58, 110
2, 17758, Note_on_c, 0, 58, 0
2, 17760, Note_on_c, 0, 56, 110
2, 18016, Note_on_c, 0, 56, 0
2, 18048, Note_on_c, 0, 56, 110
2, 18142, Note_on_c, 0, 56, 0
2, 18144, Note_on_c, 0, 54, 110
2, 18334, Note_on_c, 0, 54, 0
2, 18336, Note_on_c, 0, 56, 110
2, 18430, Note_on_c, 0, 56, 0
2, 18432, Note_on_c, 0, 58, 110
2, 18526, Note_on_c, 0, 58, 0
2, 18528, Note_on_c, 0, 51, 110
2, 19102, Note_on_c, 0, 51, 0
2, 19104, Note_on_c, 0, 54, 110
2, 19150, Note_on_c, 0, 54, 0
2, 19152, Note_on_c, 0, 54, 110
2, 19198, Note_on_c, 0, 54, 0
2, 19200, Note_on_c, 0, 54, 110
2, 19294, Note_on_c, 0, 54, 0
2, 19296, Note_on_c, 0, 54, 110
2, 19390, Note_on_c, 0, 54, 0
2, 19488, Note_on_c, 0, 54, 110
2, 19534, Note_on_c, 0, 54, 0
2, 19536, Note_on_c, 0, 54, 110
2, 19582, Note_on_c, 0, 54, 0
2, 19584, Note_on_c, 0, 54, 110
2, 19630, Note_on_c, 0, 54, 0
2, 19632, Note_on_c, 0, 54, 110
2, 19678, Note_on_c, 0, 54, 0
2, 19680, Note_on_c, 0, 54, 110
2, 19774, Note_on_c, 0, 54, 0
2, 19776, Note_on_c, 0, 54, 110
2, 19822, Note_on_c, 0, 54, 0
2, 19824, Note_on_c, 0, 54, 110
2, 19918, Note_on_c, 0, 54, 0
2, 19920, Note_on_c, 0, 49, 110
2, 19966, Note_on_c, 0, 49, 0
2, 19968, Note_on_c, 0, 54, 110
2, 20014, Note_on_c, 0, 54, 0
2, 20016, Note_on_c, 0, 54, 110
2, 20062, Note_on_c, 0, 54, 0
2, 20064, Note_on_c, 0, 54, 110
2, 20158, Note_on_c, 0, 54, 0
2, 20160, Note_on_c, 0, 54, 110
2, 20254, Note_on_c, 0, 54, 0
2, 20256, Note_on_c, 0, 54, 110
2, 20350, Note_on_c, 0, 54, 0
2, 20352, Note_on_c, 0, 54, 110
2, 20398, Note_on_c, 0, 54, 0
2, 20400, Note_on_c, 0, 54, 110
2, 20446, Note_on_c, 0, 54, 0
2, 20448, Note_on_c, 0, 54, 110
2, 20542, Note_on_c, 0, 54, 0
2, 20544, Note_on_c, 0, 58, 110
2, 20590, Note_on_c, 0, 58, 0
2, 20592, Note_on_c, 0, 54, 110
2, 20638, Note_on_c, 0, 54, 0
2, 20640, Note_on_c, 0, 49, 110
2, 20686, Note_on_c, 0, 49, 0
2, 20688, Note_on_c, 0, 49, 110
2, 20734, Note_on_c, 0, 49, 0
2, 20736, Note_on_c, 0, 58, 110
2, 20782, Note_on_c, 0, 58, 0
2, 20784, Note_on_c, 0, 61, 110
2, 20830, Note_on_c, 0, 61, 0
2, 20832, Note_on_c, 0, 61, 110
2, 20878, Note_on_c, 0, 61, 0
2, 20880, Note_on_c, 0, 59, 110
2, 20974, Note_on_c, 0, 59, 0
2, 20976, Note_on_c, 0, 58, 110
2, 21070, Note_on_c, 0, 58, 0
2, 21072, Note_on_c, 0, 56, 110
2, 21118, Note_on_c, 0, 56, 0
2, 21120, Note_on_c, 0, 56, 110
2, 21166, Note_on_c, 0, 56, 0
2, 21168, Note_on_c, 0, 54, 110
2, 21262, Note_on_c, 0, 54, 0
2, 21312, Note_on_c, 0, 54, 110
2, 21358, Note_on_c, 0, 54, 0
2, 21360, Note_on_c, 0, 54, 110
2, 21406, Note_on_c, 0, 54, 0
2, 21408, Note_on_c, 0, 54, 110
2, 21454, Note_on_c, 0, 54, 0
2, 21456, Note_on_c, 0, 56, 110
2, 21502, Note_on_c, 0, 56, 0
2, 21504, Note_on_c, 0, 58, 110
2, 21598, Note_on_c, 0, 58, 0
2, 21600, Note_on_c, 0, 56, 110
2, 21646, Note_on_c, 0, 56, 0
2, 21648, Note_on_c, 0, 54, 110
2, 21694, Note_on_c, 0, 54, 0
2, 21696, Note_on_c, 0, 56, 110
2, 21742, Note_on_c, 0, 56, 0
2, 21744, Note_on_c, 0, 54, 110
2, 21790, Note_on_c, 0, 54, 0
2, 21792, Note_on_c, 0, 51, 110
2, 21886, Note_on_c, 0, 51, 0
2, 21888, Note_on_c, 0, 51, 110
2, 21934, Note_on_c, 0, 51, 0
2, 21936, Note_on_c, 0, 51, 110
2, 21982, Note_on_c, 0, 51, 0
2, 22032, Note_on_c, 0, 49, 110
2, 22078, Note_on_c, 0, 49, 0
2, 22080, Note_on_c, 0, 58, 110
2, 22174, Note_on_c, 0, 58, 0
2, 22176, Note_on_c, 0, 61, 110
2, 22270, Note_on_c, 0, 61, 0
2, 22272, Note_on_c, 0, 63, 110
2, 22366, Note_on_c, 0, 63, 0
2, 22416, Note_on_c, 0, 49, 110
2, 22462, Note_on_c, 0, 49, 0
2, 22464, Note_on_c, 0, 58, 110
2, 22510, Note_on_c, 0, 58, 0
2, 22512, Note_on_c, 0, 54, 110
2, 22558, Note_on_c, 0, 54, 0
2, 22560, Note_on_c, 0, 54, 110
2, 22606, Note_on_c, 0, 54, 0
2, 22608, Note_on_c, 0, 54, 110
2, 22654, Note_on_c, 0, 54, 0
2, 22656, Note_on_c, 0, 54, 110
2, 22750, Note_on_c, 0, 54, 0
2, 22800, Note_on_c, 0, 49, 110
2, 22846, Note_on_c, 0, 49, 0
2, 22848, Note_on_c, 0, 54, 110
2, 22894, Note_on_c, 0, 54, 0
2, 22896, Note_on_c, 0, 56, 110
2, 22942, Note_on_c, 0, 56, 0
2, 22944, Note_on_c, 0, 58, 110
2, 22990, Note_on_c, 0, 58, 0
2, 22992, Note_on_c, 0, 61, 110
2, 23038, Note_on_c, 0, 61, 0
2, 23040, Note_on_c, 0, 59, 110
2, 23134, Note_on_c, 0, 59, 0
2, 23136, Note_on_c, 0, 58, 110
2, 23182, Note_on_c, 0, 58, 0
2, 23184, Note_on_c, 0, 56, 110
2, 23230, Note_on_c, 0, 56, 0
2, 23232, Note_on_c, 0, 58, 110
2, 23278, Note_on_c, 0, 58, 0
2, 23280, Note_on_c, 0, 56, 110
2, 23326, Note_on_c, 0, 56, 0
2, 23328, Note_on_c, 0, 51, 110
2, 23422, Note_on_c, 0, 51, 0
2, 23424, Note_on_c, 0, 51, 110
2, 23518, Note_on_c, 0, 51, 0
2, 23568, Note_on_c, 0, 49, 110
2, 23614, Note_on_c, 0, 49, 0
2, 23616, Note_on_c, 0, 63, 110
2, 23710, Note_on_c, 0, 63, 0
2, 23712, Note_on_c, 0, 61, 110
2, 23806, Note_on_c, 0, 61, 0
2, 23808, Note_on_c, 0, 61, 110
2, 23854, Note_on_c, 0, 61, 0
2, 23856, Note_on_c, 0, 61, 110
2, 23902, Note_on_c, 0, 61, 0
2, 24000, Note_on_c, 0, 58, 110
2, 24046, Note_on_c, 0, 58, 0
2, 24048, Note_on_c, 0, 54, 110
2, 24142, Note_on_c, 0, 54, 0
2, 24144, Note_on_c, 0, 54, 110
2, 24238, Note_on_c, 0, 54, 0
2, 24384, Note_on_c, 0, 54, 110
2, 24430, Note_on_c, 0, 54, 0
2, 24432, Note_on_c, 0, 54, 110
2, 24478, Note_on_c, 0, 54, 0
2, 24480, Note_on_c, 0, 54, 110
2, 24526, Note_on_c, 0, 54, 0
2, 24528, Note_on_c, 0, 56, 110
2, 24574, Note_on_c, 0, 56, 0
2, 24576, Note_on_c, 0, 58, 110
2, 24622, Note_on_c, 0, 58, 0
2, 24624, Note_on_c, 0, 54, 110
2, 24670, Note_on_c, 0, 54, 0
2, 24672, Note_on_c, 0, 54, 110
2, 24718, Note_on_c, 0, 54, 0
2, 24720, Note_on_c, 0, 56, 110
2, 24766, Note_on_c, 0, 56, 0
2, 24768, Note_on_c, 0, 58, 110
2, 24814, Note_on_c, 0, 58, 0
2, 24816, Note_on_c, 0, 54, 110
2, 24862, Note_on_c, 0, 54, 0
2, 24864, Note_on_c, 0, 51, 110
2, 24958, Note_on_c, 0, 51, 0
2, 24960, Note_on_c, 0, 51, 110
2, 25120, Note_on_c, 0, 51, 0
2, 25344, Note_on_c, 0, 58, 110
2, 25438, Note_on_c, 0, 58, 0
2, 25440, Note_on_c, 0, 54, 110
2, 25630, Note_on_c, 0, 54, 0
2, 25632, Note_on_c, 0, 54, 110
2, 25678, Note_on_c, 0, 54, 0
2, 25680, Note_on_c, 0, 51, 110
2, 25726, Note_on_c, 0, 51, 0
2, 25728, Note_on_c, 0, 54, 110
2, 25822, Note_on_c, 0, 54, 0
2, 25824, Note_on_c, 0, 54, 110
2, 25918, Note_on_c, 0, 54, 0
2, 26016, Note_on_c, 0, 54, 110
2, 26062, Note_on_c, 0, 54, 0
2, 26064, Note_on_c, 0, 51, 110
2, 26110, Note_on_c, 0, 51, 0
2, 26112, Note_on_c, 0, 54, 110
2, 26206, Note_on_c, 0, 54, 0
2, 26208, Note_on_c, 0, 54, 110
2, 26302, Note_on_c, 0, 54, 0
2, 26400, Note_on_c, 0, 54, 110
2, 26494, Note_on_c, 0, 54, 0
2, 26592, Note_on_c, 0, 58, 110
2, 26848, Note_on_c, 0, 58, 0
2, 26880, Note_on_c, 0, 58, 110
2, 26974, Note_on_c, 0, 58, 0
2, 26976, Note_on_c, 0, 54, 110
2, 27166, Note_on_c, 0, 54, 0
2, 27168, Note_on_c, 0, 54, 110
2, 27214, Note_on_c, 0, 54, 0
2, 27216, Note_on_c, 0, 51, 110
2, 27262, Note_on_c, 0, 51, 0
2, 27264, Note_on_c, 0, 54, 110
2, 27358, Note_on_c, 0, 54, 0
2, 27360, Note_on_c, 0, 54, 110
2, 27454, Note_on_c, 0, 54, 0
2, 27552, Note_on_c, 0, 54, 110
2, 27598, Note_on_c, 0, 54, 0
2, 27600, Note_on_c, 0, 51, 110
2, 27646, Note_on_c, 0, 51, 0
2, 27648, Note_on_c, 0, 54, 110
2, 27742, Note_on_c, 0, 54, 0
2, 27744, Note_on_c, 0, 54, 110
2, 27838, Note_on_c, 0, 54, 0
2, 27936, Note_on_c, 0, 54, 110
2, 28030, Note_on_c, 0, 54, 0
2, 28128, Note_on_c, 0, 58, 110
2, 28384, Note_on_c, 0, 58, 0
2, 28416, Note_on_c, 0, 58, 110
2, 28576, Note_on_c, 0, 58, 0
2, 28608, Note_on_c, 0, 61, 110
2, 28750, Note_on_c, 0, 61, 0
2, 28752, Note_on_c, 0, 61, 110
2, 28798, Note_on_c, 0, 61, 0
2, 28800, Note_on_c, 0, 59, 110
2, 28894, Note_on_c, 0, 59, 0
2, 28896, Note_on_c, 0, 58, 110
2, 28990, Note_on_c, 0, 58, 0
2, 28992, Note_on_c, 0, 56, 110
2, 29086, Note_on_c, 0, 56, 0
2, 29088, Note_on_c, 0, 56, 110
2, 29182, Note_on_c, 0, 56, 0
2, 29184, Note_on_c, 0, 54, 110
2, 29518, Note_on_c, 0, 54, 0
2, 29568, Note_on_c, 0, 54, 110
2, 29662, Note_on_c, 0, 54, 0
2, 29664, Note_on_c, 0, 54, 110
2, 29758, Note_on_c, 0, 54, 0
2, 29760, Note_on_c, 0, 56, 110
2, 29854, Note_on_c, 0, 56, 0
2, 29856, Note_on_c, 0, 54, 110
2, 29950, Note_on_c, 0, 54, 0
2, 29952, Note_on_c, 0, 58, 110
2, 30046, Note_on_c, 0, 58, 0
2, 30048, Note_on_c, 0, 56, 110
2, 30304, Note_on_c, 0, 56, 0
2, 30336, Note_on_c, 0, 56, 110
2, 30430, Note_on_c, 0, 56, 0
2, 30432, Note_on_c, 0, 54, 110
2, 30622, Note_on_c, 0, 54, 0
2, 30624, Note_on_c, 0, 56, 110
2, 30718, Note_on_c, 0, 56, 0
2, 30720, Note_on_c, 0, 58, 110
2, 30814, Note_on_c, 0, 58, 0
2, 30816, Note_on_c, 0, 51, 110
2, 31438, Note_on_c, 0, 51, 0
2, 37632, Note_on_c, 0, 58, 110
2, 37726, Note_on_c, 0, 58, 0
2, 37728, Note_on_c, 0, 54, 110
2, 37918, Note_on_c, 0, 54, 0
2, 37920, Note_on_c, 0, 54, 110
2, 37966, Note_on_c, 0, 54, 0
2, 37968, Note_on_c, 0, 51, 110
2, 38014, Note_on_c, 0, 51, 0
2, 38016, Note_on_c, 0, 54, 110
2, 38110, Note_on_c, 0, 54, 0
2, 38112, Note_on_c, 0, 54, 110
2, 38206, Note_on_c, 0, 54, 0
2, 38304, Note_on_c, 0, 54, 110
2, 38350, Note_on_c, 0, 54, 0
2, 38352, Note_on_c, 0, 51, 110
2, 38398, Note_on_c, 0, 51, 0
2, 38400, Note_on_c, 0, 54, 110
2, 38494, Note_on_c, 0, 54, 0
2, 38496, Note_on_c, 0, 54, 110
2, 38590, Note_on_c, 0, 54, 0
2, 38688, Note_on_c, 0, 54, 110
2, 38782, Note_on_c, 0, 54, 0
2, 38880, Note_on_c, 0, 58, 110
2, 39136, Note_on_c, 0, 58, 0
2, 39168, Note_on_c, 0, 58, 110
2, 39262, Note_on_c, 0, 58, 0
2, 39264, Note_on_c, 0, 54, 110
2, 39454, Note_on_c, 0, 54, 0
2, 39456, Note_on_c, 0, 54, 110
2, 39502, Note_on_c, 0, 54, 0
2, 39504, Note_on_c, 0, 51, 110
2, 39550, Note_on_c, 0, 51, 0
2, 39552, Note_on_c, 0, 54, 110
2, 39646, Note_on_c, 0, 54, 0
2, 39648, Note_on_c, 0, 54, 110
2, 39742, Note_on_c, 0, 54, 0
2, 39840, Note_on_c, 0, 54, 110
2, 39886, Note_on_c, 0, 54, 0
2, 39888, Note_on_c, 0, 51, 110
2, 39934, Note_on_c, 0, 51, 0
2, 39936, Note_on_c, 0, 54, 110
2, 40030, Note_on_c, 0, 54, 0
2, 40032, Note_on_c, 0, 54, 110
2, 40126, Note_on_c, 0, 54, 0
2, 40224, Note_on_c, 0, 54, 110
2, 40318, Note_on_c, 0, 54, 0
2, 40416, Note_on_c, 0, 58, 110
2, 40606, Note_on_c, 0, 58, 0
2, 40608, Note_on_c, 0, 49, 110
2, 40702, Note_on_c, 0, 49, 0
2, 40704, Note_on_c, 0, 58, 110
2, 40864, Note_on_c, 0, 58, 0
2, 40896, Note_on_c, 0, 61, 110
2, 41038, Note_on_c, 0, 61, 0
2, 41040, Note_on_c, 0, 61, 110
2, 41086, Note_on_c, 0, 61, 0
2, 41088, Note_on_c, 0, 59, 110
2, 41182, Note_on_c, 0, 59, 0
2, 41184, Note_on_c, 0, 61, 110
2, 41278, Note_on_c, 0, 61, 0
2, 41280, Note_on_c, 0, 63, 110
2, 41374, Note_on_c, 0, 63, 0
2, 41376, Note_on_c, 0, 66, 110
2, 41806, Note_on_c, 0, 66, 0
2, 41856, Note_on_c, 0, 54, 110
2, 41950, Note_on_c, 0, 54, 0
2, 41952, Note_on_c, 0, 54, 110
2, 42046, Note_on_c, 0, 54, 0
2, 42048, Note_on_c, 0, 56, 110
2, 42142, Note_on_c, 0, 56, 0
2, 42144, Note_on_c, 0, 54, 110
2, 42238, Note_on_c, 0, 54, 0
2, 42240, Note_on_c, 0, 58, 110
2, 42334, Note_on_c, 0, 58, 0
2, 42336, Note_on_c, 0, 56, 110
2, 42592, Note_on_c, 0, 56, 0
2, 42816, Note_on_c, 0, 54, 110
2, 42976, Note_on_c, 0, 54, 0
2, 43008, Note_on_c, 0, 61, 110
2, 43102, Note_on_c, 0, 61, 0
2, 43104, Note_on_c, 0, 58, 110
2, 43198, Note_on_c, 0, 58, 0
2, 43200, Note_on_c, 0, 58, 110
2, 43360, Note_on_c, 0, 58, 0
2, 43392, Note_on_c, 0, 56, 110
2, 43486, Note_on_c, 0, 56, 0
2, 43488, Note_on_c, 0, 54, 110
2, 43582, Note_on_c, 0, 54, 0
2, 43584, Note_on_c, 0, 54, 110
2, 43678, Note_on_c, 0, 54, 0
2, 43680, Note_on_c, 0, 59, 110
2, 43870, Note_on_c, 0, 59, 0
2, 43872, Note_on_c, 0, 58, 110
2, 43966, Note_on_c, 0, 58, 0
2, 43968, Note_on_c, 0, 58, 110
2, 44062, Note_on_c, 0, 58, 0
2, 44064, Note_on_c, 0, 56, 110
2, 44158, Note_on_c, 0, 56, 0
2, 44160, Note_on_c, 0, 56, 110
2, 44254, Note_on_c, 0, 56, 0
2, 44256, Note_on_c, 0, 54, 110
2, 44350, Note_on_c, 0, 54, 0
2, 44352, Note_on_c, 0, 56, 110
2, 44446, Note_on_c, 0, 56, 0
2, 44448, Note_on_c, 0, 54, 110
2, 44542, Note_on_c, 0, 54, 0
2, 44544, Note_on_c, 0, 61, 110
2, 44638, Note_on_c, 0, 61, 0
2, 44640, Note_on_c, 0, 58, 110
2, 44734, Note_on_c, 0, 58, 0
2, 44736, Note_on_c, 0, 58, 110
2, 44830, Note_on_c, 0, 58, 0
2, 44832, Note_on_c, 0, 56, 110
2, 44926, Note_on_c, 0, 56, 0
2, 44928, Note_on_c, 0, 56, 110
2, 45022, Note_on_c, 0, 56, 0
2, 45024, Note_on_c, 0, 54, 110
2, 45118, Note_on_c, 0, 54, 0
2, 45120, Note_on_c, 0, 54, 110
2, 45214, Note_on_c, 0, 54, 0
2, 45216, Note_on_c, 0, 51, 110
2, 45406, Note_on_c, 0, 51, 0
2, 45408, Note_on_c, 0, 49, 110
2, 45664, Note_on_c, 0, 49, 0
2, 45888, Note_on_c, 0, 61, 110
2, 45934, Note_on_c, 0, 61, 0
2, 45936, Note_on_c, 0, 61, 110
2, 46078, Note_on_c, 0, 61, 0
2, 46080, Note_on_c, 0, 61, 110
2, 46240, Note_on_c, 0, 61, 0
2, 46272, Note_on_c, 0, 58, 110
2, 46318, Note_on_c, 0, 58, 0
2, 46320, Note_on_c, 0, 56, 110
2, 46366, Note_on_c, 0, 56, 0
2, 46368, Note_on_c, 0, 58, 110
2, 46462, Note_on_c, 0, 58, 0
2, 46464, Note_on_c, 0, 56, 110
2, 46558, Note_on_c, 0, 56, 0
2, 46656, Note_on_c, 0, 56, 110
2, 46702, Note_on_c, 0, 56, 0
2, 46704, Note_on_c, 0, 61, 110
2, 46846, Note_on_c, 0, 61, 0
2, 46848, Note_on_c, 0, 59, 110
2, 46894, Note_on_c, 0, 59, 0
2, 46896, Note_on_c, 0, 58, 110
2, 46942, Note_on_c, 0, 58, 0
2, 46944, Note_on_c, 0, 59, 110
2, 46990, Note_on_c, 0, 59, 0
2, 46992, Note_on_c, 0, 58, 110
2, 47038, Note_on_c, 0, 58, 0
2, 47040, Note_on_c, 0, 59, 110
2, 47134, Note_on_c, 0, 59, 0
2, 47136, Note_on_c, 0, 54, 110
2, 47230, Note_on_c, 0, 54, 0
2, 47232, Note_on_c, 0, 51, 110
2, 47326, Note_on_c, 0, 51, 0
2, 47328, Note_on_c, 0, 49, 110
2, 47422, Note_on_c, 0, 49, 0
2, 47424, Note_on_c, 0, 51, 110
2, 47518, Note_on_c, 0, 51, 0
2, 47520, Note_on_c, 0, 49, 110
2, 47614, Note_on_c, 0, 49, 0
2, 47616, Note_on_c, 0, 61, 110
2, 47776, Note_on_c, 0, 61, 0
2, 47808, Note_on_c, 0, 58, 110
2, 47902, Note_on_c, 0, 58, 0
2, 47904, Note_on_c, 0, 58, 110
2, 47998, Note_on_c, 0, 58, 0
2, 48000, Note_on_c, 0, 56, 110
2, 48094, Note_on_c, 0, 56, 0
2, 48096, Note_on_c, 0, 54, 110
2, 48190, Note_on_c, 0, 54, 0
2, 48288, Note_on_c, 0, 56, 110
2, 48478, Note_on_c, 0, 56, 0
2, 48480, Note_on_c, 0, 58, 110
2, 48910, Note_on_c, 0, 58, 0
2, 48960, Note_on_c, 0, 61, 110
2, 49102, Note_on_c, 0, 61, 0
2, 49104, Note_on_c, 0, 61, 110
2, 49150, Note_on_c, 0, 61, 0
2, 49152, Note_on_c, 0, 61, 110
2, 49246, Note_on_c, 0, 61, 0
2, 49248, Note_on_c, 0, 61, 110
2, 49342, Note_on_c, 0, 61, 0
2, 49344, Note_on_c, 0, 61, 110
2, 49390, Note_on_c, 0, 61, 0
2, 49392, Note_on_c, 0, 61, 110
2, 49438, Note_on_c, 0, 61, 0
2, 49440, Note_on_c, 0, 61, 110
2, 49486, Note_on_c, 0, 61, 0
2, 49488, Note_on_c, 0, 61, 110
2, 49534, Note_on_c, 0, 61, 0
2, 49536, Note_on_c, 0, 61, 110
2, 49630, Note_on_c, 0, 61, 0
2, 49632, Note_on_c, 0, 61, 110
2, 49726, Note_on_c, 0, 61, 0
2, 49728, Note_on_c, 0, 61, 110
2, 49774, Note_on_c, 0, 61, 0
2, 49776, Note_on_c, 0, 61, 110
2, 49822, Note_on_c, 0, 61, 0
2, 49920, Note_on_c, 0, 61, 110
2, 50014, Note_on_c, 0, 61, 0
2, 50016, Note_on_c, 0, 61, 110
2, 50062, Note_on_c, 0, 61, 0
2, 50064, Note_on_c, 0, 61, 110
2, 50110, Note_on_c, 0, 61, 0
2, 50112, Note_on_c, 0, 61, 110
2, 50206, Note_on_c, 0, 61, 0
2, 50208, Note_on_c, 0, 61, 110
2, 50254, Note_on_c, 0, 61, 0
2, 50256, Note_on_c, 0, 61, 110
2, 50302, Note_on_c, 0, 61, 0
2, 50304, Note_on_c, 0, 61, 110
2, 50350, Note_on_c, 0, 61, 0
2, 50352, Note_on_c, 0, 61, 110
2, 50398, Note_on_c, 0, 61, 0
2, 50400, Note_on_c, 0, 61, 110
2, 50494, Note_on_c, 0, 61, 0
2, 50496, Note_on_c, 0, 63, 110
2, 50542, Note_on_c, 0, 63, 0
2, 50544, Note_on_c, 0, 61, 110
2, 50590, Note_on_c, 0, 61, 0
2, 50688, Note_on_c, 0, 58, 110
2, 50734, Note_on_c, 0, 58, 0
2, 50736, Note_on_c, 0, 61, 110
2, 50782, Note_on_c, 0, 61, 0
2, 50784, Note_on_c, 0, 61, 110
2, 50878, Note_on_c, 0, 61, 0
2, 50880, Note_on_c, 0, 61, 110
2, 50974, Note_on_c, 0, 61, 0
2, 50976, Note_on_c, 0, 59, 110
2, 51022, Note_on_c, 0, 59, 0
2, 51024, Note_on_c, 0, 59, 110
2, 51070, Note_on_c, 0, 59, 0
2, 51072, Note_on_c, 0, 58, 110
2, 51166, Note_on_c, 0, 58, 0
2, 51168, Note_on_c, 0, 58, 110
2, 51262, Note_on_c, 0, 58, 0
2, 51264, Note_on_c, 0, 58, 110
2, 51358, Note_on_c, 0, 58, 0
2, 51408, Note_on_c, 0, 49, 110
2, 51454, Note_on_c, 0, 49, 0
2, 51456, Note_on_c, 0, 58, 110
2, 51550, Note_on_c, 0, 58, 0
2, 51552, Note_on_c, 0, 54, 110
2, 51646, Note_on_c, 0, 54, 0
2, 51648, Note_on_c, 0, 54, 110
2, 51742, Note_on_c, 0, 54, 0
2, 51744, Note_on_c, 0, 54, 110
2, 51790, Note_on_c, 0, 54, 0
2, 51792, Note_on_c, 0, 51, 110
2, 51838, Note_on_c, 0, 51, 0
2, 51840, Note_on_c, 0, 54, 110
2, 51934, Note_on_c, 0, 54, 0
2, 51936, Note_on_c, 0, 54, 110
2, 52030, Note_on_c, 0, 54, 0
2, 52032, Note_on_c, 0, 51, 110
2, 52078, Note_on_c, 0, 51, 0
2, 52080, Note_on_c, 0, 49, 110
2, 52126, Note_on_c, 0, 49, 0
2, 52224, Note_on_c, 0, 58, 110
2, 52270, Note_on_c, 0, 58, 0
2, 52272, Note_on_c, 0, 61, 110
2, 52366, Note_on_c, 0, 61, 0
2, 52368, Note_on_c, 0, 58, 110
2, 52414, Note_on_c, 0, 58, 0
2, 52416, Note_on_c, 0, 63, 110
2, 52510, Note_on_c, 0, 63, 0
2, 52512, Note_on_c, 0, 58, 110
2, 52558, Note_on_c, 0, 58, 0
2, 52560, Note_on_c, 0, 61, 110
2, 52654, Note_on_c, 0, 61, 0
2, 52656, Note_on_c, 0, 58, 110
2, 52702, Note_on_c, 0, 58, 0
2, 52704, Note_on_c, 0, 63, 110
2, 52798, Note_on_c, 0, 63, 0
2, 52800, Note_on_c, 0, 58, 110
2, 52846, Note_on_c, 0, 58, 0
2, 52848, Note_on_c, 0, 61, 110
2, 52942, Note_on_c, 0, 61, 0
2, 52944, Note_on_c, 0, 59, 110
2, 53038, Note_on_c, 0, 59, 0
2, 53040, Note_on_c, 0, 58, 110
2, 53134, Note_on_c, 0, 58, 0
2, 53136, Note_on_c, 0, 56, 110
2, 53230, Note_on_c, 0, 56, 0
2, 53232, Note_on_c, 0, 56, 110
2, 53326, Note_on_c, 0, 56, 0
2, 53328, Note_on_c, 0, 54, 110
2, 53374, Note_on_c, 0, 54, 0
2, 53376, Note_on_c, 0, 56, 110
2, 53470, Note_on_c, 0, 56, 0
2, 53472, Note_on_c, 0, 54, 110
2, 53566, Note_on_c, 0, 54, 0
2, 53712, Note_on_c, 0, 49, 110
2, 53758, Note_on_c, 0, 49, 0
2, 53760, Note_on_c, 0, 54, 110
2, 53806, Note_on_c, 0, 54, 0
2, 53808, Note_on_c, 0, 54, 110
2, 53854, Note_on_c, 0, 54, 0
2, 53856, Note_on_c, 0, 54, 110
2, 53950, Note_on_c, 0, 54, 0
2, 53952, Note_on_c, 0, 54, 110
2, 53998, Note_on_c, 0, 54, 0
2, 54000, Note_on_c, 0, 54, 110
2, 54046, Note_on_c, 0, 54, 0
2, 54048, Note_on_c, 0, 54, 110
2, 54142, Note_on_c, 0, 54, 0
2, 54144, Note_on_c, 0, 54, 110
2, 54238, Note_on_c, 0, 54, 0
2, 54480, Note_on_c, 0, 49, 110
2, 54526, Note_on_c, 0, 49, 0
2, 54528, Note_on_c, 0, 63, 110
2, 54574, Note_on_c, 0, 63, 0
2, 54576, Note_on_c, 0, 61, 110
2, 54622, Note_on_c, 0, 61, 0
2, 54624, Note_on_c, 0, 61, 110
2, 54718, Note_on_c, 0, 61, 0
2, 54720, Note_on_c, 0, 61, 110
2, 54766, Note_on_c, 0, 61, 0
2, 54768, Note_on_c, 0, 61, 110
2, 54814, Note_on_c, 0, 61, 0
2, 54816, Note_on_c, 0, 61, 110
2, 54910, Note_on_c, 0, 61, 0
2, 54912, Note_on_c, 0, 61, 110
2, 55072, Note_on_c, 0, 61, 0
2, 55296, Note_on_c, 0, 58, 110
2, 55390, Note_on_c, 0, 58, 0
2, 55392, Note_on_c, 0, 54, 110
2, 55582, Note_on_c, 0, 54, 0
2, 55584, Note_on_c, 0, 54, 110
2, 55630, Note_on_c, 0, 54, 0
2, 55632, Note_on_c, 0, 51, 110
2, 55678, Note_on_c, 0, 51, 0
2, 55680, Note_on_c, 0, 54, 110
2, 55774, Note_on_c, 0, 54, 0
2, 55776, Note_on_c, 0, 54, 110
2, 55870, Note_on_c, 0, 54, 0
2, 55968, Note_on_c, 0, 54, 110
2, 56014, Note_on_c, 0, 54, 0
2, 56016, Note_on_c, 0, 51, 110
2, 56062, Note_on_c, 0, 51, 0
2, 56064, Note_on_c, 0, 54, 110
2, 56158, Note_on_c, 0, 54, 0
2, 56160, Note_on_c, 0, 54, 110
2, 56254, Note_on_c, 0, 54, 0
2, 56352, Note_on_c, 0, 54, 110
2, 56446, Note_on_c, 0, 54, 0
2, 56544, Note_on_c, 0, 58, 110
2, 56800, Note_on_c, 0, 58, 0
2, 56832, Note_on_c, 0, 58, 110
2, 56926, Note_on_c, 0, 58, 0
2, 56928, Note_on_c, 0, 54, 110
2, 57118, Note_on_c, 0, 54, 0
2, 57120, Note_on_c, 0, 54, 110
2, 57166, Note_on_c, 0, 54, 0
2, 57168, Note_on_c, 0, 51, 110
2, 57214, Note_on_c, 0, 51, 0
2, 57216, Note_on_c, 0, 54, 110
2, 57310, Note_on_c, 0, 54, 0
2, 57312, Note_on_c, 0, 54, 110
2, 57406, Note_on_c, 0, 54, 0
2, 57504, Note_on_c, 0, 54, 110
2, 57550, Note_on_c, 0, 54, 0
2, 57552, Note_on_c, 0, 51, 110
2, 57598, Note_on_c, 0, 51, 0
2, 57600, Note_on_c, 0, 54, 110
2, 57694, Note_on_c, 0, 54, 0
2, 57696, Note_on_c, 0, 54, 110
2, 57790, Note_on_c, 0, 54, 0
2, 57888, Note_on_c, 0, 54, 110
2, 57982, Note_on_c, 0, 54, 0
2, 58080, Note_on_c, 0, 58, 110
2, 58270, Note_on_c, 0, 58, 0
2, 58272, Note_on_c, 0, 49, 110
2, 58366, Note_on_c, 0, 49, 0
2, 58368, Note_on_c, 0, 58, 110
2, 58528, Note_on_c, 0, 58, 0
2, 58560, Note_on_c, 0, 61, 110
2, 58702, Note_on_c, 0, 61, 0
2, 58704, Note_on_c, 0, 61, 110
2, 58750, Note_on_c, 0, 61, 0
2, 58752, Note_on_c, 0, 59, 110
2, 58846, Note_on_c, 0, 59, 0
2, 58848, Note_on_c, 0, 61, 110
2, 58942, Note_on_c, 0, 61, 0
2, 58944, Note_on_c, 0, 63, 110
2, 59038, Note_on_c, 0, 63, 0
2, 59040, Note_on_c, 0, 66, 110
2, 59134, Note_on_c, 0, 66, 0
2, 59136, Note_on_c, 0, 68, 110
2, 59230, Note_on_c, 0, 68, 0
2, 59232, Note_on_c, 0, 66, 110
2, 59488, Note_on_c, 0, 66, 0
2, 59520, Note_on_c, 0, 54, 110
2, 59614, Note_on_c, 0, 54, 0
2, 59616, Note_on_c, 0, 54, 110
2, 59710, Note_on_c, 0, 54, 0
2, 59712, Note_on_c, 0, 56, 110
2, 59806, Note_on_c, 0, 56, 0
2, 59808, Note_on_c, 0, 54, 110
2, 59902, Note_on_c, 0, 54, 0
2, 59904, Note_on_c, 0, 61, 110
2, 59998, Note_on_c, 0, 61, 0
2, 60000, Note_on_c, 0, 58, 110
2, 60256, Note_on_c, 0, 58, 0
2, 60288, Note_on_c, 0, 56, 110
2, 60382, Note_on_c, 0, 56, 0
2, 60384, Note_on_c, 0, 54, 110
2, 60574, Note_on_c, 0, 54, 0
2, 60576, Note_on_c, 0, 56, 110
2, 60670, Note_on_c, 0, 56, 0
2, 60672, Note_on_c, 0, 58, 110
2, 60766, Note_on_c, 0, 58, 0
2, 60768, Note_on_c, 0, 54, 110
2, 61294, Note_on_c, 0, 54, 0
2, 61344, Note_on_c, 0, 49, 110
2, 61438, Note_on_c, 0, 49, 0
2, 61440, Note_on_c, 0, 58, 110
2, 61600, Note_on_c, 0, 58, 0
2, 61632, Note_on_c, 0, 61, 110
2, 61774, Note_on_c, 0, 61, 0
2, 61776, Note_on_c, 0, 61, 110
2, 61822, Note_on_c, 0, 61, 0
2, 61824, Note_on_c, 0, 59, 110
2, 61918, Note_on_c, 0, 59, 0
2, 61920, Note_on_c, 0, 61, 110
2, 62014, Note_on_c, 0, 61, 0
2, 62016, Note_on_c, 0, 63, 110
2, 62110, Note_on_c, 0, 63, 0
2, 62112, Note_on_c, 0, 66, 110
2, 62206, Note_on_c, 0, 66, 0
2, 62208, Note_on_c, 0, 68, 110
2, 62302, Note_on_c, 0, 68, 0
2, 62304, Note_on_c, 0, 66, 110
2, 62560, Note_on_c, 0, 66, 0
2, 62592, Note_on_c, 0, 54, 110
2, 62686, Note_on_c, 0, 54, 0
2, 62688, Note_on_c, 0, 54, 110
2, 62782, Note_on_c, 0, 54, 0
2, 62784, Note_on_c, 0, 56, 110
2, 62878, Note_on_c, 0, 56, 0
2, 62880, Note_on_c, 0, 54, 110
2, 62974, Note_on_c, 0, 54, 0
2, 62976, Note_on_c, 0, 61, 110
2, 63070, Note_on_c, 0, 61, 0
2, 63072, Note_on_c, 0, 58, 110
2, 63328, Note_on_c, 0, 58, 0
2, 63360, Note_on_c, 0, 56, 110
2, 63454, Note_on_c, 0, 56, 0
2, 63456, Note_on_c, 0, 54, 110
2, 63646, Note_on_c, 0, 54, 0
2, 63648, Note_on_c, 0, 56, 110
2, 63742, Note_on_c, 0, 56, 0
2, 63744, Note_on_c, 0, 58, 110
2, 63838, Note_on_c, 0, 58, 0
2, 63840, Note_on_c, 0, 51, 110
2, 64366, End_track
2, 64366, Note_on_c, 0, 51, 0
