0, 0, End_of_file
0, 0, Header, 1, 13, 120
1, 0, Key_signature, 0, "major"
1, 0, Start_track
1, 0, Tempo, 582524
1, 0, Time_signature, 4, 2, 24, 8
1, 0, Title_t, "John Williams"
1, 0, Title_t, "Star Wars"
2, 0, Control_c, 1, 10, 72
2, 0, Control_c, 1, 7, 104
2, 0, MIDI_port, 1
2, 0, Program_c, 1, 70
2, 0, Start_track
3, 0, Control_c, 0, 10, 55
3, 0, Control_c, 0, 7, 108
3, 0, MIDI_port, 1
3, 0, Program_c, 0, 73
3, 0, Start_track
4, 0, Control_c, 2, 10, 73
4, 0, Control_c, 2, 7, 126
4, 0, MIDI_port, 1
4, 0, Program_c, 2, 60
4, 0, Start_track
5, 0, Control_c, 3, 10, 64
5, 0, Control_c, 3, 7, 126
5, 0, MIDI_port, 1
5, 0, Program_c, 3, 56
5, 0, Start_track
6, 0, Control_c, 4, 10, 38
6, 0, Control_c, 4, 7, 125
6, 0, MIDI_port, 1
6, 0, Program_c, 4, 57
6, 0, Start_track
7, 0, Control_c, 6, 10, 38
7, 0, Control_c, 6, 7, 102
7, 0, MIDI_port, 1
7, 0, Program_c, 6, 46
7, 0, Start_track
8, 0, Control_c, 7, 10, 90
8, 0, Control_c, 7, 7, 110
8, 0, MIDI_port, 1
8, 0, Program_c, 7, 1
8, 0, Start_track
9, 0, Control_c, 8, 10, 45
9, 0, Control_c, 8, 7, 125
9, 0, MIDI_port, 1
9, 0, Program_c, 8, 48
9, 0, Start_track
10, 0, Control_c, 10, 10, 83
10, 0, Control_c, 10, 7, 108
10, 0, MIDI_port, 1
10, 0, Program_c, 10, 48
10, 0, Start_track
11, 0, Control_c, 11, 10, 83
11, 0, Control_c, 11, 7, 124
11, 0, MIDI_port, 1
11, 0, Program_c, 11, 44
11, 0, Start_track
12, 0, Control_c, 5, 10, 50
12, 0, Control_c, 5, 7, 109
12, 0, MIDI_port, 1
12, 0, Program_c, 5, 47
12, 0, Start_track
13, 0, Control_c, 9, 10, 64
13, 0, Control_c, 9, 7, 85
13, 0, MIDI_port, 1
13, 0, Start_track
3, 1, Control_c, 0, 18, 0
2, 5, Control_c, 1, 18, 0
4, 6, Control_c, 2, 18, 64
5, 7, Control_c, 3, 18, 64
6, 8, Control_c, 4, 18, 64
12, 10, Control_c, 5, 18, 64
7, 11, Control_c, 6, 18, 64
8, 11, Control_c, 7, 18, 63
9, 13, Control_c, 8, 18, 64
10, 15, Control_c, 10, 18, 64
11, 15, Control_c, 11, 18, 64
2, 480, Note_on_c, 1, 70, 62
2, 480, Note_on_c, 1, 82, 70
6, 480, Note_on_c, 4, 58, 114
9, 480, Note_on_c, 8, 82, 59
10, 480, Note_on_c, 10, 34, 114
10, 480, Note_on_c, 10, 46, 114
10, 480, Note_on_c, 10, 62, 114
10, 480, Note_on_c, 10, 70, 114
12, 480, Note_on_c, 5, 34, 72
12, 480, Note_on_c, 5, 46, 119
13, 480, Note_on_c, 9, 57, 95
13, 480, Note_on_c, 9, 59, 95
9, 485, Note_on_c, 8, 53, 108
9, 485, Note_on_c, 8, 62, 67
9, 499, Note_on_c, 8, 94, 97
4, 602, Note_on_c, 2, 58, 114
9, 615, Note_on_c, 8, 53, 0
10, 630, Note_on_c, 10, 62, 0
6, 643, Note_on_c, 4, 58, 0
2, 653, Note_on_c, 1, 82, 0
2, 655, Note_on_c, 1, 70, 0
6, 660, Note_on_c, 4, 58, 114
6, 675, Note_on_c, 4, 58, 0
10, 675, Note_on_c, 10, 70, 0
6, 676, Note_on_c, 4, 58, 114
10, 682, Note_on_c, 10, 46, 0
6, 689, Note_on_c, 4, 58, 0
6, 692, Note_on_c, 4, 58, 114
6, 705, Note_on_c, 4, 58, 0
6, 708, Note_on_c, 4, 58, 114
10, 710, Note_on_c, 10, 34, 0
6, 720, Note_on_c, 4, 58, 0
6, 722, Note_on_c, 4, 58, 114
4, 765, Note_on_c, 2, 58, 0
4, 782, Note_on_c, 2, 58, 114
4, 804, Note_on_c, 2, 58, 0
12, 818, Note_on_c, 5, 34, 0
12, 818, Note_on_c, 5, 46, 0
4, 842, Note_on_c, 2, 58, 114
4, 867, Note_on_c, 2, 58, 0
6, 867, Note_on_c, 4, 58, 0
4, 882, Note_on_c, 2, 58, 114
4, 899, Note_on_c, 2, 58, 0
6, 900, Note_on_c, 4, 58, 114
6, 915, Note_on_c, 4, 58, 0
6, 916, Note_on_c, 4, 58, 114
4, 922, Note_on_c, 2, 58, 114
6, 929, Note_on_c, 4, 58, 0
6, 932, Note_on_c, 4, 58, 114
4, 938, Note_on_c, 2, 58, 0
6, 945, Note_on_c, 4, 58, 0
6, 948, Note_on_c, 4, 58, 114
9, 950, Note_on_c, 8, 62, 0
6, 960, Note_on_c, 4, 58, 0
4, 962, Note_on_c, 2, 58, 114
6, 962, Note_on_c, 4, 58, 114
6, 982, Note_on_c, 4, 58, 0
6, 1000, Note_on_c, 4, 53, 114
5, 1015, Note_on_c, 3, 70, 114
6, 1019, Note_on_c, 4, 53, 0
5, 1025, Note_on_c, 3, 70, 0
5, 1030, Note_on_c, 3, 70, 114
5, 1040, Note_on_c, 3, 70, 0
6, 1040, Note_on_c, 4, 58, 114
5, 1045, Note_on_c, 3, 70, 114
5, 1054, Note_on_c, 3, 70, 0
6, 1058, Note_on_c, 4, 58, 0
5, 1060, Note_on_c, 3, 70, 114
5, 1073, Note_on_c, 3, 70, 0
5, 1076, Note_on_c, 3, 70, 114
6, 1078, Note_on_c, 4, 65, 114
5, 1094, Note_on_c, 3, 70, 0
6, 1094, Note_on_c, 4, 65, 0
4, 1109, Note_on_c, 2, 58, 0
5, 1115, Note_on_c, 3, 65, 114
6, 1118, Note_on_c, 4, 63, 114
5, 1128, Note_on_c, 3, 65, 0
6, 1134, Note_on_c, 4, 63, 0
4, 1147, Note_on_c, 2, 65, 114
5, 1153, Note_on_c, 3, 75, 114
6, 1155, Note_on_c, 4, 58, 114
4, 1162, Note_on_c, 2, 65, 0
5, 1166, Note_on_c, 3, 75, 0
6, 1171, Note_on_c, 4, 58, 0
5, 1196, Note_on_c, 3, 77, 114
6, 1196, Note_on_c, 4, 58, 114
4, 1204, Note_on_c, 2, 70, 114
4, 1205, Note_on_c, 2, 65, 114
5, 1211, Note_on_c, 3, 77, 0
6, 1214, Note_on_c, 4, 58, 0
6, 1234, Note_on_c, 4, 53, 114
5, 1236, Note_on_c, 3, 75, 114
5, 1249, Note_on_c, 3, 75, 0
6, 1253, Note_on_c, 4, 53, 0
5, 1274, Note_on_c, 3, 70, 114
6, 1276, Note_on_c, 4, 63, 114
5, 1290, Note_on_c, 3, 70, 0
6, 1292, Note_on_c, 4, 63, 0
4, 1305, Note_on_c, 2, 65, 0
2, 1317, Note_on_c, 1, 68, 66
5, 1317, Note_on_c, 3, 70, 114
6, 1317, Note_on_c, 4, 65, 114
2, 1318, Note_on_c, 1, 63, 70
4, 1320, Note_on_c, 2, 63, 114
2, 1329, Note_on_c, 1, 68, 0
2, 1331, Note_on_c, 1, 63, 0
6, 1332, Note_on_c, 4, 65, 0
5, 1333, Note_on_c, 3, 70, 0
4, 1334, Note_on_c, 2, 70, 0
4, 1337, Note_on_c, 2, 63, 0
2, 1355, Note_on_c, 1, 63, 70
2, 1355, Note_on_c, 1, 68, 58
5, 1355, Note_on_c, 3, 65, 114
6, 1358, Note_on_c, 4, 58, 114
4, 1362, Note_on_c, 2, 68, 114
4, 1363, Note_on_c, 2, 63, 114
2, 1365, Note_on_c, 1, 68, 0
2, 1366, Note_on_c, 1, 63, 0
6, 1367, Note_on_c, 4, 58, 0
5, 1370, Note_on_c, 3, 65, 0
4, 1375, Note_on_c, 2, 68, 0
4, 1378, Note_on_c, 2, 63, 0
6, 1378, Note_on_c, 4, 58, 114
13, 1379, Note_on_c, 9, 57, 0
13, 1379, Note_on_c, 9, 59, 0
6, 1388, Note_on_c, 4, 58, 0
5, 1395, Note_on_c, 3, 75, 114
6, 1395, Note_on_c, 4, 58, 114
2, 1396, Note_on_c, 1, 63, 66
2, 1396, Note_on_c, 1, 68, 62
4, 1400, Note_on_c, 2, 68, 114
4, 1402, Note_on_c, 2, 63, 114
2, 1405, Note_on_c, 1, 68, 0
2, 1406, Note_on_c, 1, 63, 0
5, 1406, Note_on_c, 3, 75, 0
6, 1409, Note_on_c, 4, 58, 0
4, 1415, Note_on_c, 2, 63, 0
4, 1415, Note_on_c, 2, 68, 0
6, 1437, Note_on_c, 4, 63, 114
2, 1438, Note_on_c, 1, 63, 74
2, 1438, Note_on_c, 1, 65, 66
5, 1438, Note_on_c, 3, 77, 114
4, 1441, Note_on_c, 2, 63, 114
4, 1441, Note_on_c, 2, 70, 114
6, 1446, Note_on_c, 4, 51, 114
5, 1452, Note_on_c, 3, 77, 0
6, 1455, Note_on_c, 4, 63, 0
4, 1458, Note_on_c, 2, 70, 0
6, 1466, Note_on_c, 4, 51, 0
6, 1476, Note_on_c, 4, 58, 114
5, 1478, Note_on_c, 3, 75, 114
6, 1482, Note_on_c, 4, 46, 114
4, 1483, Note_on_c, 2, 70, 114
5, 1489, Note_on_c, 3, 75, 0
6, 1496, Note_on_c, 4, 58, 0
4, 1498, Note_on_c, 2, 70, 0
6, 1509, Note_on_c, 4, 46, 0
5, 1515, Note_on_c, 3, 70, 114
6, 1516, Note_on_c, 4, 65, 114
4, 1519, Note_on_c, 2, 70, 114
6, 1522, Note_on_c, 4, 53, 114
5, 1528, Note_on_c, 3, 70, 0
2, 1531, Note_on_c, 1, 65, 0
6, 1531, Note_on_c, 4, 65, 0
2, 1534, Note_on_c, 1, 63, 0
4, 1537, Note_on_c, 2, 70, 0
6, 1539, Note_on_c, 4, 53, 0
4, 1543, Note_on_c, 2, 63, 0
5, 1557, Note_on_c, 3, 70, 114
6, 1560, Note_on_c, 4, 68, 114
2, 1561, Note_on_c, 1, 63, 70
2, 1561, Note_on_c, 1, 65, 66
4, 1563, Note_on_c, 2, 70, 114
4, 1565, Note_on_c, 2, 63, 114
6, 1570, Note_on_c, 4, 56, 114
2, 1572, Note_on_c, 1, 63, 0
2, 1572, Note_on_c, 1, 65, 0
5, 1572, Note_on_c, 3, 70, 0
4, 1580, Note_on_c, 2, 63, 0
5, 1597, Note_on_c, 3, 65, 114
2, 1601, Note_on_c, 1, 63, 70
2, 1602, Note_on_c, 1, 65, 62
4, 1606, Note_on_c, 2, 63, 114
2, 1611, Note_on_c, 1, 63, 0
2, 1612, Note_on_c, 1, 65, 0
5, 1613, Note_on_c, 3, 65, 0
4, 1621, Note_on_c, 2, 63, 0
5, 1638, Note_on_c, 3, 75, 114
2, 1641, Note_on_c, 1, 63, 70
2, 1641, Note_on_c, 1, 65, 66
4, 1645, Note_on_c, 2, 63, 114
2, 1652, Note_on_c, 1, 65, 0
5, 1652, Note_on_c, 3, 75, 0
2, 1654, Note_on_c, 1, 63, 0
4, 1659, Note_on_c, 2, 63, 0
5, 1680, Note_on_c, 3, 77, 114
4, 1684, Note_on_c, 2, 63, 114
2, 1685, Note_on_c, 1, 65, 70
2, 1686, Note_on_c, 1, 63, 74
5, 1694, Note_on_c, 3, 77, 0
2, 1695, Note_on_c, 1, 65, 0
2, 1700, Note_on_c, 1, 63, 0
5, 1725, Note_on_c, 3, 70, 114
5, 1738, Note_on_c, 3, 70, 0
5, 1741, Note_on_c, 3, 70, 114
4, 1759, Note_on_c, 2, 63, 0
5, 1759, Note_on_c, 3, 70, 0
9, 1764, Note_on_c, 8, 94, 0
9, 1765, Note_on_c, 8, 82, 0
4, 1769, Note_on_c, 2, 70, 0
5, 1772, Note_on_c, 3, 70, 114
5, 1790, Note_on_c, 3, 70, 0
6, 1791, Note_on_c, 4, 68, 0
1, 1800, Tempo, 447761
6, 1805, Note_on_c, 4, 56, 0
9, 1823, Note_on_c, 8, 81, 60
5, 1830, Note_on_c, 3, 65, 113
5, 1831, Note_on_c, 3, 57, 113
5, 1837, Note_on_c, 3, 65, 113
6, 1837, Note_on_c, 4, 58, 107
2, 1838, Note_on_c, 1, 69, 54
6, 1838, Note_on_c, 4, 53, 107
12, 1840, Note_on_c, 5, 41, 87
9, 1843, Note_on_c, 8, 82, 63
5, 1844, Note_on_c, 3, 65, 0
5, 1845, Note_on_c, 3, 65, 0
9, 1846, Note_on_c, 8, 81, 0
2, 1858, Note_on_c, 1, 70, 50
2, 1859, Note_on_c, 1, 69, 0
5, 1867, Note_on_c, 3, 57, 0
9, 1869, Note_on_c, 8, 82, 0
9, 1870, Note_on_c, 8, 84, 68
12, 1873, Note_on_c, 5, 41, 0
6, 1874, Note_on_c, 4, 53, 0
6, 1878, Note_on_c, 4, 58, 0
2, 1881, Note_on_c, 1, 70, 0
2, 1885, Note_on_c, 1, 72, 50
9, 1891, Note_on_c, 8, 85, 73
9, 1892, Note_on_c, 8, 84, 0
5, 1893, Note_on_c, 3, 65, 113
12, 1903, Note_on_c, 5, 41, 87
5, 1905, Note_on_c, 3, 65, 113
2, 1906, Note_on_c, 1, 72, 0
2, 1906, Note_on_c, 1, 73, 50
6, 1907, Note_on_c, 4, 53, 107
6, 1910, Note_on_c, 4, 58, 107
5, 1915, Note_on_c, 3, 65, 0
9, 1915, Note_on_c, 8, 87, 77
5, 1916, Note_on_c, 3, 65, 0
9, 1917, Note_on_c, 8, 85, 0
5, 1921, Control_c, 3, 7, 124
2, 1930, Note_on_c, 1, 75, 50
2, 1931, Note_on_c, 1, 73, 0
12, 1931, Note_on_c, 5, 41, 0
6, 1936, Note_on_c, 4, 53, 0
9, 1938, Note_on_c, 8, 89, 81
9, 1941, Note_on_c, 8, 87, 0
6, 1942, Note_on_c, 4, 58, 0
2, 1952, Note_on_c, 1, 75, 0
2, 1953, Note_on_c, 1, 77, 52
5, 1957, Note_on_c, 3, 65, 113
12, 1963, Note_on_c, 5, 41, 87
9, 1964, Note_on_c, 8, 89, 0
9, 1965, Note_on_c, 8, 91, 86
5, 1968, Note_on_c, 3, 65, 113
6, 1968, Note_on_c, 4, 53, 107
6, 1970, Note_on_c, 4, 58, 107
2, 1978, Note_on_c, 1, 77, 0
5, 1979, Note_on_c, 3, 65, 0
5, 1979, Note_on_c, 3, 65, 0
2, 1980, Note_on_c, 1, 79, 52
9, 1988, Note_on_c, 8, 93, 91
9, 1991, Note_on_c, 8, 91, 0
12, 1994, Note_on_c, 5, 41, 0
2, 2001, Note_on_c, 1, 79, 0
2, 2003, Note_on_c, 1, 81, 52
6, 2011, Note_on_c, 4, 53, 0
6, 2012, Note_on_c, 4, 58, 0
9, 2013, Note_on_c, 8, 94, 99
9, 2020, Note_on_c, 8, 93, 0
2, 2033, Note_on_c, 1, 82, 48
2, 2034, Note_on_c, 1, 81, 0
1, 2040, Tempo, 576923
5, 2042, Note_on_c, 3, 70, 113
10, 2111, Note_on_c, 10, 34, 99
10, 2111, Note_on_c, 10, 41, 99
10, 2115, Note_on_c, 10, 34, 0
10, 2117, Note_on_c, 10, 41, 0
6, 2121, Note_on_c, 4, 58, 107
12, 2121, Note_on_c, 5, 46, 69
13, 2121, Note_on_c, 9, 38, 50
6, 2123, Note_on_c, 4, 53, 107
10, 2130, Note_on_c, 10, 34, 99
10, 2130, Note_on_c, 10, 41, 99
6, 2131, Note_on_c, 4, 53, 0
12, 2131, Note_on_c, 5, 46, 0
6, 2132, Note_on_c, 4, 58, 0
10, 2132, Note_on_c, 10, 41, 0
13, 2132, Note_on_c, 9, 38, 0
10, 2134, Note_on_c, 10, 34, 0
13, 2138, Note_on_c, 9, 38, 55
12, 2140, Note_on_c, 5, 46, 71
6, 2141, Note_on_c, 4, 58, 107
6, 2142, Note_on_c, 4, 53, 107
13, 2146, Note_on_c, 9, 38, 0
6, 2149, Note_on_c, 4, 53, 0
6, 2149, Note_on_c, 4, 58, 0
10, 2149, Note_on_c, 10, 34, 99
10, 2149, Note_on_c, 10, 41, 99
12, 2149, Note_on_c, 5, 46, 0
6, 2160, Note_on_c, 4, 53, 107
6, 2160, Note_on_c, 4, 58, 107
12, 2160, Note_on_c, 5, 46, 71
13, 2160, Note_on_c, 9, 38, 53
5, 2259, Note_on_c, 3, 70, 0
5, 2282, Note_on_c, 3, 77, 113
10, 2293, Note_on_c, 10, 34, 0
10, 2295, Note_on_c, 10, 41, 0
6, 2310, Note_on_c, 4, 53, 0
12, 2310, Note_on_c, 5, 46, 0
6, 2312, Note_on_c, 4, 58, 0
13, 2312, Note_on_c, 9, 38, 0
2, 2318, End_track
2, 2318, Note_on_c, 1, 82, 0
6, 2340, Note_on_c, 4, 58, 107
10, 2340, Note_on_c, 10, 41, 99
10, 2340, Note_on_c, 10, 50, 99
13, 2340, Note_on_c, 9, 38, 50
6, 2342, Note_on_c, 4, 53, 107
10, 2342, Note_on_c, 10, 34, 99
10, 2342, Note_on_c, 10, 58, 107
12, 2342, Note_on_c, 5, 46, 63
6, 2350, Note_on_c, 4, 58, 0
10, 2350, Note_on_c, 10, 34, 0
10, 2350, Note_on_c, 10, 41, 0
10, 2350, Note_on_c, 10, 58, 0
12, 2350, Note_on_c, 5, 46, 0
13, 2350, Note_on_c, 9, 38, 0
10, 2351, Note_on_c, 10, 50, 0
6, 2352, Note_on_c, 4, 53, 0
13, 2355, Note_on_c, 9, 38, 53
6, 2360, Note_on_c, 4, 53, 107
6, 2360, Note_on_c, 4, 58, 107
10, 2360, Note_on_c, 10, 34, 99
10, 2360, Note_on_c, 10, 41, 99
10, 2360, Note_on_c, 10, 50, 99
10, 2360, Note_on_c, 10, 58, 107
12, 2360, Note_on_c, 5, 46, 71
13, 2363, Note_on_c, 9, 38, 0
6, 2368, Note_on_c, 4, 58, 0
10, 2368, Note_on_c, 10, 34, 0
10, 2368, Note_on_c, 10, 41, 0
10, 2368, Note_on_c, 10, 58, 0
12, 2368, Note_on_c, 5, 46, 0
6, 2369, Note_on_c, 4, 53, 0
10, 2370, Note_on_c, 10, 50, 0
13, 2375, Note_on_c, 9, 38, 55
10, 2376, Note_on_c, 10, 41, 99
10, 2376, Note_on_c, 10, 50, 99
6, 2377, Note_on_c, 4, 58, 107
10, 2377, Note_on_c, 10, 34, 99
10, 2377, Note_on_c, 10, 58, 107
12, 2377, Note_on_c, 5, 46, 71
6, 2378, Note_on_c, 4, 53, 107
13, 2383, Note_on_c, 9, 38, 0
10, 2384, Note_on_c, 10, 41, 0
6, 2385, Note_on_c, 4, 58, 0
6, 2386, Note_on_c, 4, 53, 0
10, 2387, Note_on_c, 10, 34, 0
10, 2387, Note_on_c, 10, 58, 0
12, 2387, Note_on_c, 5, 46, 0
10, 2397, Note_on_c, 10, 50, 0
13, 2400, Note_on_c, 9, 38, 58
6, 2403, Note_on_c, 4, 53, 107
10, 2403, Note_on_c, 10, 34, 99
10, 2403, Note_on_c, 10, 41, 99
10, 2403, Note_on_c, 10, 58, 107
12, 2403, Note_on_c, 5, 46, 71
6, 2404, Note_on_c, 4, 58, 107
10, 2404, Note_on_c, 10, 50, 99
13, 2421, Note_on_c, 9, 38, 0
6, 2422, Note_on_c, 4, 53, 0
10, 2425, Note_on_c, 10, 41, 0
6, 2426, Note_on_c, 4, 58, 0
10, 2426, Note_on_c, 10, 34, 0
10, 2426, Note_on_c, 10, 58, 0
12, 2426, Note_on_c, 5, 46, 0
10, 2428, Note_on_c, 10, 50, 0
6, 2460, Note_on_c, 4, 56, 107
6, 2460, Note_on_c, 4, 58, 107
10, 2460, Note_on_c, 10, 29, 99
10, 2460, Note_on_c, 10, 41, 99
10, 2460, Note_on_c, 10, 56, 99
13, 2460, Note_on_c, 9, 38, 53
10, 2461, Note_on_c, 10, 58, 107
12, 2461, Note_on_c, 5, 41, 71
6, 2479, Note_on_c, 4, 56, 0
10, 2480, Note_on_c, 10, 56, 0
10, 2483, Note_on_c, 10, 29, 0
10, 2483, Note_on_c, 10, 41, 0
13, 2483, Note_on_c, 9, 38, 0
10, 2484, Note_on_c, 10, 58, 0
12, 2484, Note_on_c, 5, 41, 0
6, 2485, Note_on_c, 4, 58, 0
5, 2490, Note_on_c, 3, 77, 0
5, 2521, Note_on_c, 3, 75, 113
7, 2523, Note_on_c, 6, 70, 68
7, 2534, Note_on_c, 6, 70, 0
5, 2537, Note_on_c, 3, 75, 0
7, 2546, Note_on_c, 6, 75, 56
13, 2553, Note_on_c, 9, 38, 53
5, 2556, Note_on_c, 3, 74, 113
7, 2557, Note_on_c, 6, 75, 0
13, 2559, Note_on_c, 9, 38, 0
13, 2561, Note_on_c, 9, 38, 48
7, 2564, Note_on_c, 6, 77, 56
13, 2567, Note_on_c, 9, 38, 0
5, 2569, Note_on_c, 3, 74, 0
13, 2570, Note_on_c, 9, 38, 53
7, 2575, Note_on_c, 6, 77, 0
13, 2575, Note_on_c, 9, 38, 0
6, 2580, Note_on_c, 4, 56, 107
6, 2580, Note_on_c, 4, 58, 107
10, 2580, Note_on_c, 10, 29, 99
13, 2580, Note_on_c, 9, 38, 61
10, 2581, Note_on_c, 10, 53, 99
10, 2581, Note_on_c, 10, 56, 99
7, 2582, Note_on_c, 6, 82, 61
7, 2593, Note_on_c, 6, 82, 0
5, 2596, Note_on_c, 3, 72, 113
7, 2604, Note_on_c, 6, 77, 54
6, 2605, Note_on_c, 4, 56, 0
6, 2610, Note_on_c, 4, 58, 0
5, 2612, Note_on_c, 3, 72, 0
10, 2612, Note_on_c, 10, 56, 0
7, 2615, Note_on_c, 6, 77, 0
10, 2618, Note_on_c, 10, 29, 0
10, 2620, Note_on_c, 10, 53, 0
7, 2623, Note_on_c, 6, 75, 61
7, 2635, Note_on_c, 6, 75, 0
13, 2640, Note_on_c, 9, 38, 0
5, 2642, Note_on_c, 3, 82, 113
7, 2646, Note_on_c, 6, 70, 64
7, 2657, Note_on_c, 6, 70, 0
7, 2666, Note_on_c, 6, 75, 61
13, 2673, Note_on_c, 9, 38, 53
7, 2677, Note_on_c, 6, 75, 0
13, 2679, Note_on_c, 9, 38, 0
13, 2681, Note_on_c, 9, 38, 48
7, 2685, Note_on_c, 6, 77, 61
13, 2687, Note_on_c, 9, 38, 0
13, 2690, Note_on_c, 9, 38, 53
13, 2695, Note_on_c, 9, 38, 0
7, 2696, Note_on_c, 6, 77, 0
6, 2698, Note_on_c, 4, 63, 107
6, 2699, Note_on_c, 4, 58, 107
10, 2700, Note_on_c, 10, 29, 99
10, 2700, Note_on_c, 10, 56, 99
13, 2700, Note_on_c, 9, 38, 61
10, 2701, Note_on_c, 10, 58, 99
7, 2705, Note_on_c, 6, 82, 56
7, 2717, Note_on_c, 6, 82, 0
6, 2724, Note_on_c, 4, 58, 0
7, 2725, Note_on_c, 6, 77, 54
10, 2725, Note_on_c, 10, 58, 0
6, 2728, Note_on_c, 4, 63, 0
13, 2730, Note_on_c, 9, 38, 0
13, 2735, Note_on_c, 9, 38, 43
7, 2736, Note_on_c, 6, 77, 0
10, 2736, Note_on_c, 10, 29, 0
10, 2736, Note_on_c, 10, 56, 0
13, 2740, Note_on_c, 9, 38, 0
13, 2743, Note_on_c, 9, 38, 48
7, 2744, Note_on_c, 6, 75, 56
13, 2749, Note_on_c, 9, 38, 0
13, 2752, Note_on_c, 9, 38, 49
7, 2755, Note_on_c, 6, 75, 0
13, 2757, Note_on_c, 9, 38, 0
6, 2761, Note_on_c, 4, 58, 107
13, 2761, Note_on_c, 9, 38, 55
6, 2763, Note_on_c, 4, 63, 107
10, 2763, Note_on_c, 10, 58, 107
7, 2764, Note_on_c, 6, 70, 68
10, 2764, Note_on_c, 10, 29, 99
10, 2764, Note_on_c, 10, 56, 99
10, 2764, Note_on_c, 10, 63, 107
13, 2771, Note_on_c, 9, 38, 0
7, 2775, Note_on_c, 6, 70, 0
6, 2779, Note_on_c, 4, 63, 0
10, 2780, Note_on_c, 10, 56, 0
10, 2780, Note_on_c, 10, 63, 0
6, 2782, Note_on_c, 4, 58, 0
7, 2783, Note_on_c, 6, 72, 61
10, 2784, Note_on_c, 10, 58, 0
10, 2790, Note_on_c, 10, 29, 0
7, 2794, Note_on_c, 6, 72, 0
13, 2800, Note_on_c, 9, 38, 55
7, 2803, Note_on_c, 6, 77, 61
13, 2811, Note_on_c, 9, 38, 0
7, 2814, Note_on_c, 6, 77, 0
13, 2816, Note_on_c, 9, 38, 58
6, 2818, Note_on_c, 4, 58, 107
10, 2818, Note_on_c, 10, 29, 99
6, 2820, Note_on_c, 4, 63, 107
10, 2820, Note_on_c, 10, 58, 107
10, 2821, Note_on_c, 10, 56, 99
10, 2821, Note_on_c, 10, 63, 107
7, 2824, Note_on_c, 6, 82, 61
13, 2824, Note_on_c, 9, 38, 0
6, 2828, Note_on_c, 4, 58, 0
6, 2828, Note_on_c, 4, 63, 0
10, 2829, Note_on_c, 10, 56, 0
10, 2829, Note_on_c, 10, 63, 0
10, 2830, Note_on_c, 10, 58, 0
10, 2831, Note_on_c, 10, 29, 0
13, 2831, Note_on_c, 9, 38, 58
7, 2835, Note_on_c, 6, 82, 0
6, 2838, Note_on_c, 4, 58, 107
6, 2840, Note_on_c, 4, 63, 107
10, 2840, Note_on_c, 10, 58, 107
10, 2841, Note_on_c, 10, 29, 99
10, 2841, Note_on_c, 10, 56, 99
10, 2841, Note_on_c, 10, 63, 107
7, 2842, Note_on_c, 6, 77, 61
13, 2845, Note_on_c, 9, 38, 0
6, 2848, Note_on_c, 4, 58, 0
6, 2848, Note_on_c, 4, 63, 0
10, 2849, Note_on_c, 10, 56, 0
10, 2849, Note_on_c, 10, 63, 0
10, 2850, Note_on_c, 10, 29, 0
10, 2850, Note_on_c, 10, 58, 0
5, 2852, Note_on_c, 3, 82, 0
7, 2853, Note_on_c, 6, 77, 0
6, 2858, Note_on_c, 4, 58, 107
6, 2859, Note_on_c, 4, 63, 107
10, 2859, Note_on_c, 10, 58, 107
7, 2860, Note_on_c, 6, 72, 64
10, 2860, Note_on_c, 10, 29, 99
10, 2860, Note_on_c, 10, 56, 99
10, 2860, Note_on_c, 10, 63, 107
6, 2869, Note_on_c, 4, 63, 0
10, 2870, Note_on_c, 10, 63, 0
6, 2871, Note_on_c, 4, 58, 0
7, 2871, Note_on_c, 6, 72, 0
10, 2872, Note_on_c, 10, 29, 0
10, 2872, Note_on_c, 10, 58, 0
10, 2879, Note_on_c, 10, 56, 0
13, 2879, Note_on_c, 9, 38, 61
6, 2880, Note_on_c, 4, 53, 107
6, 2880, Note_on_c, 4, 58, 107
5, 2881, Note_on_c, 3, 77, 113
7, 2881, Note_on_c, 6, 70, 68
10, 2881, Note_on_c, 10, 34, 99
10, 2881, Note_on_c, 10, 46, 99
10, 2881, Note_on_c, 10, 50, 99
10, 2881, Note_on_c, 10, 53, 107
10, 2881, Note_on_c, 10, 58, 107
7, 2892, Note_on_c, 6, 70, 0
13, 2893, Note_on_c, 9, 38, 0
6, 2896, Note_on_c, 4, 58, 0
10, 2897, Note_on_c, 10, 50, 0
10, 2897, Note_on_c, 10, 58, 0
6, 2898, Note_on_c, 4, 53, 0
10, 2898, Note_on_c, 10, 34, 0
10, 2899, Note_on_c, 10, 46, 0
10, 2899, Note_on_c, 10, 53, 0
7, 2901, Note_on_c, 6, 72, 61
7, 2913, Note_on_c, 6, 72, 0
6, 2920, Note_on_c, 4, 53, 107
6, 2920, Note_on_c, 4, 58, 107
7, 2920, Note_on_c, 6, 77, 54
10, 2921, Note_on_c, 10, 34, 99
10, 2921, Note_on_c, 10, 46, 99
10, 2921, Note_on_c, 10, 50, 99
10, 2921, Note_on_c, 10, 53, 107
10, 2921, Note_on_c, 10, 58, 107
13, 2921, Note_on_c, 9, 38, 58
7, 2931, Note_on_c, 6, 77, 0
13, 2934, Note_on_c, 9, 38, 0
6, 2935, Note_on_c, 4, 58, 0
10, 2936, Note_on_c, 10, 50, 0
10, 2936, Note_on_c, 10, 58, 0
6, 2938, Note_on_c, 4, 53, 0
10, 2939, Note_on_c, 10, 34, 0
10, 2939, Note_on_c, 10, 46, 0
10, 2939, Note_on_c, 10, 53, 0
7, 2940, Note_on_c, 6, 82, 61
7, 2952, Note_on_c, 6, 82, 0
13, 2957, Note_on_c, 9, 38, 58
6, 2960, Note_on_c, 4, 53, 107
6, 2960, Note_on_c, 4, 58, 107
7, 2960, Note_on_c, 6, 77, 54
10, 2961, Note_on_c, 10, 34, 99
10, 2961, Note_on_c, 10, 46, 99
10, 2961, Note_on_c, 10, 50, 99
10, 2961, Note_on_c, 10, 53, 107
10, 2961, Note_on_c, 10, 58, 107
5, 2969, Note_on_c, 3, 77, 0
7, 2971, Note_on_c, 6, 77, 0
13, 2973, Note_on_c, 9, 38, 0
7, 2979, Note_on_c, 6, 72, 64
6, 2980, Note_on_c, 4, 53, 0
6, 2980, Note_on_c, 4, 58, 0
10, 2981, Note_on_c, 10, 46, 0
10, 2981, Note_on_c, 10, 50, 0
10, 2981, Note_on_c, 10, 53, 0
10, 2981, Note_on_c, 10, 58, 0
10, 2982, Note_on_c, 10, 34, 0
7, 2990, Note_on_c, 6, 72, 0
5, 2996, Note_on_c, 3, 75, 113
7, 2998, Note_on_c, 6, 70, 68
7, 3010, Note_on_c, 6, 70, 0
5, 3014, Note_on_c, 3, 75, 0
7, 3019, Note_on_c, 6, 75, 56
7, 3030, Note_on_c, 6, 75, 0
5, 3031, Note_on_c, 3, 74, 113
13, 3033, Note_on_c, 9, 38, 53
7, 3038, Note_on_c, 6, 77, 51
13, 3039, Note_on_c, 9, 38, 0
13, 3041, Note_on_c, 9, 38, 48
5, 3044, Note_on_c, 3, 74, 0
13, 3047, Note_on_c, 9, 38, 0
7, 3050, Note_on_c, 6, 77, 0
13, 3050, Note_on_c, 9, 38, 53
13, 3055, Note_on_c, 9, 38, 0
7, 3058, Note_on_c, 6, 82, 61
6, 3060, Note_on_c, 4, 53, 107
6, 3060, Note_on_c, 4, 58, 107
10, 3060, Note_on_c, 10, 29, 99
10, 3060, Note_on_c, 10, 58, 99
13, 3060, Note_on_c, 9, 38, 61
10, 3061, Note_on_c, 10, 51, 99
10, 3061, Note_on_c, 10, 56, 99
7, 3069, Note_on_c, 6, 82, 0
5, 3072, Note_on_c, 3, 72, 113
7, 3078, Note_on_c, 6, 77, 54
6, 3085, Note_on_c, 4, 53, 0
5, 3089, Note_on_c, 3, 72, 0
7, 3089, Note_on_c, 6, 77, 0
6, 3090, Note_on_c, 4, 58, 0
10, 3092, Note_on_c, 10, 56, 0
7, 3096, Note_on_c, 6, 75, 61
10, 3096, Note_on_c, 10, 58, 0
10, 3097, Note_on_c, 10, 51, 0
10, 3098, Note_on_c, 10, 29, 0
7, 3107, Note_on_c, 6, 75, 0
7, 3116, Note_on_c, 6, 70, 64
5, 3120, Note_on_c, 3, 82, 113
13, 3120, Note_on_c, 9, 38, 0
7, 3126, Note_on_c, 6, 70, 0
7, 3138, Note_on_c, 6, 75, 56
7, 3149, Note_on_c, 6, 75, 0
13, 3153, Note_on_c, 9, 38, 53
7, 3155, Note_on_c, 6, 77, 56
13, 3159, Note_on_c, 9, 38, 0
13, 3161, Note_on_c, 9, 38, 48
7, 3166, Note_on_c, 6, 77, 0
13, 3167, Note_on_c, 9, 38, 0
13, 3170, Note_on_c, 9, 38, 53
13, 3175, Note_on_c, 9, 38, 0
7, 3176, Note_on_c, 6, 82, 61
6, 3178, Note_on_c, 4, 63, 107
6, 3179, Note_on_c, 4, 58, 107
10, 3180, Note_on_c, 10, 29, 99
10, 3180, Note_on_c, 10, 56, 99
13, 3180, Note_on_c, 9, 38, 61
10, 3181, Note_on_c, 10, 51, 99
10, 3181, Note_on_c, 10, 58, 99
7, 3187, Note_on_c, 6, 82, 0
7, 3196, Note_on_c, 6, 77, 52
6, 3204, Note_on_c, 4, 58, 0
10, 3205, Note_on_c, 10, 58, 0
7, 3207, Note_on_c, 6, 77, 0
6, 3208, Note_on_c, 4, 63, 0
13, 3210, Note_on_c, 9, 38, 0
10, 3214, Note_on_c, 10, 51, 0
13, 3215, Note_on_c, 9, 38, 43
7, 3216, Note_on_c, 6, 75, 52
10, 3216, Note_on_c, 10, 29, 0
10, 3216, Note_on_c, 10, 56, 0
13, 3220, Note_on_c, 9, 38, 0
13, 3223, Note_on_c, 9, 38, 48
7, 3227, Note_on_c, 6, 75, 0
13, 3229, Note_on_c, 9, 38, 0
13, 3232, Note_on_c, 9, 38, 49
7, 3237, Note_on_c, 6, 70, 64
13, 3237, Note_on_c, 9, 38, 0
6, 3241, Note_on_c, 4, 58, 107
13, 3241, Note_on_c, 9, 38, 55
6, 3243, Note_on_c, 4, 63, 107
10, 3243, Note_on_c, 10, 51, 99
10, 3243, Note_on_c, 10, 58, 107
10, 3244, Note_on_c, 10, 29, 99
10, 3244, Note_on_c, 10, 56, 99
10, 3244, Note_on_c, 10, 63, 107
7, 3248, Note_on_c, 6, 70, 0
13, 3251, Note_on_c, 9, 38, 0
7, 3257, Note_on_c, 6, 72, 64
6, 3259, Note_on_c, 4, 63, 0
10, 3260, Note_on_c, 10, 56, 0
10, 3260, Note_on_c, 10, 63, 0
6, 3262, Note_on_c, 4, 58, 0
10, 3264, Note_on_c, 10, 51, 0
10, 3264, Note_on_c, 10, 58, 0
7, 3269, Note_on_c, 6, 72, 0
10, 3270, Note_on_c, 10, 29, 0
7, 3276, Note_on_c, 6, 77, 61
13, 3280, Note_on_c, 9, 38, 55
7, 3287, Note_on_c, 6, 77, 0
13, 3291, Note_on_c, 9, 38, 0
13, 3296, Note_on_c, 9, 38, 58
6, 3298, Note_on_c, 4, 58, 107
7, 3298, Note_on_c, 6, 82, 61
10, 3298, Note_on_c, 10, 29, 99
6, 3300, Note_on_c, 4, 63, 107
10, 3300, Note_on_c, 10, 51, 99
10, 3300, Note_on_c, 10, 58, 107
10, 3301, Note_on_c, 10, 56, 99
10, 3301, Note_on_c, 10, 63, 107
13, 3304, Note_on_c, 9, 38, 0
6, 3308, Note_on_c, 4, 58, 0
6, 3308, Note_on_c, 4, 63, 0
7, 3309, Note_on_c, 6, 82, 0
10, 3309, Note_on_c, 10, 56, 0
10, 3309, Note_on_c, 10, 63, 0
10, 3310, Note_on_c, 10, 51, 0
10, 3310, Note_on_c, 10, 58, 0
10, 3311, Note_on_c, 10, 29, 0
13, 3311, Note_on_c, 9, 38, 58
6, 3318, Note_on_c, 4, 58, 107
7, 3318, Note_on_c, 6, 77, 61
6, 3320, Note_on_c, 4, 63, 107
10, 3320, Note_on_c, 10, 51, 99
10, 3320, Note_on_c, 10, 58, 107
10, 3321, Note_on_c, 10, 29, 99
10, 3321, Note_on_c, 10, 56, 99
10, 3321, Note_on_c, 10, 63, 107
13, 3325, Note_on_c, 9, 38, 0
6, 3328, Note_on_c, 4, 58, 0
6, 3328, Note_on_c, 4, 63, 0
7, 3329, Note_on_c, 6, 77, 0
10, 3329, Note_on_c, 10, 56, 0
10, 3329, Note_on_c, 10, 63, 0
10, 3330, Note_on_c, 10, 29, 0
10, 3330, Note_on_c, 10, 51, 0
10, 3330, Note_on_c, 10, 58, 0
6, 3333, Note_on_c, 4, 58, 107
7, 3337, Note_on_c, 6, 72, 68
6, 3339, Note_on_c, 4, 63, 107
10, 3339, Note_on_c, 10, 51, 99
10, 3339, Note_on_c, 10, 58, 107
5, 3340, Note_on_c, 3, 82, 0
10, 3340, Note_on_c, 10, 29, 99
10, 3340, Note_on_c, 10, 56, 99
10, 3340, Note_on_c, 10, 63, 107
7, 3348, Note_on_c, 6, 72, 0
6, 3349, Note_on_c, 4, 58, 0
6, 3349, Note_on_c, 4, 63, 0
10, 3350, Note_on_c, 10, 56, 0
10, 3350, Note_on_c, 10, 63, 0
10, 3352, Note_on_c, 10, 29, 0
10, 3352, Note_on_c, 10, 51, 0
10, 3352, Note_on_c, 10, 58, 0
7, 3356, Note_on_c, 6, 70, 68
13, 3359, Note_on_c, 9, 38, 61
6, 3360, Note_on_c, 4, 53, 107
6, 3360, Note_on_c, 4, 58, 107
10, 3361, Note_on_c, 10, 34, 99
10, 3361, Note_on_c, 10, 46, 99
10, 3361, Note_on_c, 10, 51, 99
10, 3361, Note_on_c, 10, 53, 107
10, 3361, Note_on_c, 10, 58, 107
5, 3365, Note_on_c, 3, 77, 113
7, 3367, Note_on_c, 6, 70, 0
13, 3373, Note_on_c, 9, 38, 0
6, 3376, Note_on_c, 4, 58, 0
7, 3376, Note_on_c, 6, 72, 61
10, 3377, Note_on_c, 10, 51, 0
10, 3377, Note_on_c, 10, 58, 0
6, 3378, Note_on_c, 4, 53, 0
10, 3378, Note_on_c, 10, 34, 0
10, 3379, Note_on_c, 10, 46, 0
10, 3379, Note_on_c, 10, 53, 0
7, 3387, Note_on_c, 6, 72, 0
7, 3396, Note_on_c, 6, 77, 56
6, 3400, Note_on_c, 4, 53, 107
6, 3400, Note_on_c, 4, 58, 107
10, 3401, Note_on_c, 10, 34, 99
10, 3401, Note_on_c, 10, 46, 99
10, 3401, Note_on_c, 10, 50, 99
10, 3401, Note_on_c, 10, 53, 107
10, 3401, Note_on_c, 10, 58, 107
13, 3401, Note_on_c, 9, 38, 58
7, 3407, Note_on_c, 6, 77, 0
13, 3414, Note_on_c, 9, 38, 0
6, 3415, Note_on_c, 4, 58, 0
7, 3415, Note_on_c, 6, 82, 56
10, 3416, Note_on_c, 10, 50, 0
10, 3416, Note_on_c, 10, 58, 0
6, 3418, Note_on_c, 4, 53, 0
10, 3419, Note_on_c, 10, 34, 0
10, 3419, Note_on_c, 10, 46, 0
10, 3419, Note_on_c, 10, 53, 0
7, 3426, Note_on_c, 6, 82, 0
5, 3435, Note_on_c, 3, 77, 0
7, 3436, Note_on_c, 6, 77, 54
13, 3437, Note_on_c, 9, 38, 58
6, 3440, Note_on_c, 4, 53, 107
6, 3440, Note_on_c, 4, 58, 107
10, 3441, Note_on_c, 10, 34, 99
10, 3441, Note_on_c, 10, 46, 99
10, 3441, Note_on_c, 10, 50, 99
10, 3441, Note_on_c, 10, 53, 107
10, 3441, Note_on_c, 10, 58, 107
7, 3447, Note_on_c, 6, 77, 0
13, 3453, Note_on_c, 9, 38, 0
7, 3455, Note_on_c, 6, 72, 64
6, 3460, Note_on_c, 4, 53, 0
6, 3460, Note_on_c, 4, 58, 0
10, 3461, Note_on_c, 10, 46, 0
10, 3461, Note_on_c, 10, 50, 0
10, 3461, Note_on_c, 10, 53, 0
10, 3461, Note_on_c, 10, 58, 0
10, 3462, Note_on_c, 10, 34, 0
7, 3466, Note_on_c, 6, 72, 0
4, 3480, Note_on_c, 2, 68, 114
5, 3483, Note_on_c, 3, 75, 114
7, 3485, Note_on_c, 6, 70, 68
4, 3490, Note_on_c, 2, 72, 114
7, 3496, Note_on_c, 6, 70, 0
5, 3497, Note_on_c, 3, 75, 0
4, 3498, Note_on_c, 2, 68, 0
4, 3506, Note_on_c, 2, 72, 0
5, 3518, Note_on_c, 3, 74, 114
4, 3526, Note_on_c, 2, 71, 114
4, 3527, Note_on_c, 2, 67, 114
5, 3533, Note_on_c, 3, 74, 0
4, 3541, Note_on_c, 2, 71, 0
4, 3545, Note_on_c, 2, 67, 0
9, 3549, Note_on_c, 8, 94, 0
5, 3558, Note_on_c, 3, 75, 114
4, 3565, Note_on_c, 2, 68, 114
4, 3566, Note_on_c, 2, 72, 114
5, 3572, Note_on_c, 3, 75, 0
12, 3573, Note_on_c, 5, 29, 61
13, 3573, Note_on_c, 9, 38, 57
12, 3579, Note_on_c, 5, 29, 0
13, 3579, Note_on_c, 9, 38, 0
12, 3581, Note_on_c, 5, 29, 53
13, 3581, Note_on_c, 9, 38, 50
4, 3582, Note_on_c, 2, 72, 0
4, 3584, Note_on_c, 2, 68, 0
12, 3587, Note_on_c, 5, 29, 0
13, 3587, Note_on_c, 9, 38, 0
12, 3590, Note_on_c, 5, 29, 61
13, 3590, Note_on_c, 9, 38, 57
12, 3595, Note_on_c, 5, 29, 0
13, 3595, Note_on_c, 9, 38, 0
5, 3599, Note_on_c, 3, 72, 114
12, 3600, Note_on_c, 5, 29, 70
13, 3600, Note_on_c, 9, 38, 63
10, 3603, Note_on_c, 10, 41, 105
4, 3605, Note_on_c, 2, 69, 114
9, 3606, Note_on_c, 8, 60, 114
4, 3607, Note_on_c, 2, 65, 114
9, 3618, Note_on_c, 8, 60, 0
9, 3622, Note_on_c, 8, 59, 114
10, 3629, Note_on_c, 10, 41, 0
9, 3640, Note_on_c, 8, 59, 0
9, 3642, Note_on_c, 8, 60, 114
9, 3658, Note_on_c, 8, 60, 0
9, 3660, Note_on_c, 8, 62, 114
12, 3660, Note_on_c, 5, 29, 0
13, 3660, Note_on_c, 9, 38, 0
9, 3680, Note_on_c, 8, 62, 0
9, 3680, Note_on_c, 8, 63, 114
9, 3693, Note_on_c, 8, 63, 0
9, 3697, Note_on_c, 8, 64, 114
9, 3715, Note_on_c, 8, 64, 0
9, 3718, Note_on_c, 8, 65, 114
9, 3733, Note_on_c, 8, 65, 0
9, 3737, Note_on_c, 8, 64, 114
9, 3755, Note_on_c, 8, 64, 0
9, 3757, Note_on_c, 8, 65, 114
9, 3775, Note_on_c, 8, 65, 0
10, 3776, Note_on_c, 10, 41, 105
9, 3778, Note_on_c, 8, 67, 114
12, 3780, Note_on_c, 5, 29, 56
13, 3780, Note_on_c, 9, 38, 53
10, 3789, Note_on_c, 10, 41, 0
12, 3790, Note_on_c, 5, 29, 0
13, 3790, Note_on_c, 9, 38, 0
9, 3793, Note_on_c, 8, 67, 0
12, 3795, Note_on_c, 5, 29, 61
13, 3795, Note_on_c, 9, 38, 57
10, 3796, Note_on_c, 10, 41, 105
9, 3797, Note_on_c, 8, 69, 114
12, 3803, Note_on_c, 5, 29, 0
13, 3803, Note_on_c, 9, 38, 0
10, 3807, Note_on_c, 10, 41, 0
9, 3812, Note_on_c, 8, 69, 0
10, 3813, Note_on_c, 10, 41, 90
12, 3815, Note_on_c, 5, 29, 63
13, 3815, Note_on_c, 9, 38, 60
9, 3816, Note_on_c, 8, 70, 114
4, 3819, Note_on_c, 2, 65, 0
4, 3820, Note_on_c, 2, 69, 0
12, 3823, Note_on_c, 5, 29, 0
13, 3823, Note_on_c, 9, 38, 0
10, 3825, Note_on_c, 10, 41, 0
9, 3831, Note_on_c, 8, 70, 0
10, 3838, Note_on_c, 10, 41, 105
9, 3839, Note_on_c, 8, 72, 114
12, 3840, Note_on_c, 5, 29, 55
13, 3840, Note_on_c, 9, 38, 52
5, 3849, Note_on_c, 3, 72, 0
9, 3854, Note_on_c, 8, 72, 0
9, 3860, Note_on_c, 8, 74, 93
12, 3861, Note_on_c, 5, 29, 0
13, 3861, Note_on_c, 9, 38, 0
10, 3868, Note_on_c, 10, 41, 0
9, 3876, Note_on_c, 8, 75, 93
9, 3882, Note_on_c, 8, 74, 0
9, 3895, Note_on_c, 8, 77, 93
5, 3896, Note_on_c, 3, 65, 114
10, 3896, Note_on_c, 10, 41, 95
9, 3897, Note_on_c, 8, 75, 0
12, 3900, Note_on_c, 5, 29, 52
13, 3900, Note_on_c, 9, 38, 49
5, 3907, Note_on_c, 3, 65, 0
5, 3915, Note_on_c, 3, 65, 114
9, 3915, Note_on_c, 8, 79, 93
9, 3920, Note_on_c, 8, 77, 0
10, 3922, Note_on_c, 10, 41, 0
12, 3923, Note_on_c, 5, 29, 0
13, 3923, Note_on_c, 9, 38, 0
5, 3930, Note_on_c, 3, 65, 0
9, 3933, Note_on_c, 8, 81, 93
13, 3933, Note_on_c, 9, 38, 49
5, 3935, Note_on_c, 3, 65, 114
9, 3938, Note_on_c, 8, 79, 0
13, 3939, Note_on_c, 9, 38, 0
13, 3941, Note_on_c, 9, 38, 43
13, 3947, Note_on_c, 9, 38, 0
5, 3950, Note_on_c, 3, 65, 0
13, 3950, Note_on_c, 9, 38, 49
13, 3955, Note_on_c, 9, 38, 0
5, 3958, Note_on_c, 3, 70, 114
10, 3958, Note_on_c, 10, 34, 95
10, 3958, Note_on_c, 10, 46, 95
12, 3958, Note_on_c, 5, 34, 73
9, 3960, Note_on_c, 8, 82, 93
13, 3960, Note_on_c, 9, 38, 54
6, 3962, Note_on_c, 4, 58, 97
4, 3963, Note_on_c, 2, 50, 87
9, 3963, Note_on_c, 8, 81, 0
9, 3979, Note_on_c, 8, 82, 0
9, 4002, Note_on_c, 8, 82, 93
9, 4020, Note_on_c, 8, 81, 93
13, 4020, Note_on_c, 9, 38, 0
4, 4027, Note_on_c, 2, 50, 0
9, 4028, Note_on_c, 8, 82, 0
9, 4040, Note_on_c, 8, 82, 93
9, 4044, Note_on_c, 8, 81, 0
13, 4053, Note_on_c, 9, 38, 49
6, 4054, Note_on_c, 4, 58, 0
9, 4057, Note_on_c, 8, 81, 93
13, 4059, Note_on_c, 9, 38, 0
9, 4061, Note_on_c, 8, 82, 0
13, 4061, Note_on_c, 9, 38, 43
10, 4063, Note_on_c, 10, 34, 0
10, 4063, Note_on_c, 10, 46, 0
12, 4063, Note_on_c, 5, 34, 0
13, 4067, Note_on_c, 9, 38, 0
13, 4070, Note_on_c, 9, 38, 49
9, 4075, Note_on_c, 8, 82, 93
13, 4075, Note_on_c, 9, 38, 0
10, 4076, Note_on_c, 10, 33, 95
10, 4076, Note_on_c, 10, 45, 95
12, 4076, Note_on_c, 5, 33, 71
6, 4080, Note_on_c, 4, 58, 97
13, 4080, Note_on_c, 9, 38, 54
9, 4082, Note_on_c, 8, 81, 0
4, 4083, Note_on_c, 2, 50, 87
9, 4096, Note_on_c, 8, 82, 0
13, 4110, Note_on_c, 9, 38, 0
9, 4116, Note_on_c, 8, 82, 93
9, 4132, Note_on_c, 8, 81, 93
4, 4137, Note_on_c, 2, 50, 0
9, 4138, Note_on_c, 8, 82, 0
9, 4150, Note_on_c, 8, 82, 93
9, 4157, Note_on_c, 8, 81, 0
6, 4163, Note_on_c, 4, 58, 0
9, 4168, Note_on_c, 8, 81, 93
9, 4172, Note_on_c, 8, 82, 0
10, 4173, Note_on_c, 10, 33, 0
10, 4173, Note_on_c, 10, 45, 0
12, 4173, Note_on_c, 5, 33, 0
13, 4173, Note_on_c, 9, 38, 49
13, 4179, Note_on_c, 9, 38, 0
5, 4181, Note_on_c, 3, 70, 0
13, 4181, Note_on_c, 9, 38, 43
13, 4187, Note_on_c, 9, 38, 0
9, 4189, Note_on_c, 8, 82, 93
13, 4190, Note_on_c, 9, 38, 49
9, 4192, Note_on_c, 8, 81, 0
13, 4195, Note_on_c, 9, 38, 0
10, 4197, Note_on_c, 10, 33, 95
10, 4197, Note_on_c, 10, 45, 95
12, 4197, Note_on_c, 5, 33, 71
4, 4198, Note_on_c, 2, 50, 87
6, 4199, Note_on_c, 4, 58, 97
13, 4200, Note_on_c, 9, 38, 54
5, 4201, Note_on_c, 3, 77, 114
9, 4210, Note_on_c, 8, 82, 0
9, 4235, Note_on_c, 8, 82, 93
4, 4249, Note_on_c, 2, 50, 0
9, 4254, Note_on_c, 8, 81, 93
9, 4260, Note_on_c, 8, 82, 0
13, 4260, Note_on_c, 9, 38, 0
10, 4266, Note_on_c, 10, 33, 95
10, 4266, Note_on_c, 10, 45, 95
12, 4266, Note_on_c, 5, 33, 65
10, 4272, Note_on_c, 10, 33, 0
10, 4272, Note_on_c, 10, 45, 0
12, 4272, Note_on_c, 5, 33, 0
6, 4275, Note_on_c, 4, 58, 0
9, 4275, Note_on_c, 8, 82, 93
9, 4279, Note_on_c, 8, 81, 0
6, 4293, Note_on_c, 4, 58, 97
13, 4293, Note_on_c, 9, 38, 49
4, 4294, Note_on_c, 2, 50, 87
9, 4294, Note_on_c, 8, 81, 93
9, 4298, Note_on_c, 8, 82, 0
13, 4299, Note_on_c, 9, 38, 0
13, 4301, Note_on_c, 9, 38, 43
4, 4302, Note_on_c, 2, 50, 0
6, 4302, Note_on_c, 4, 58, 0
13, 4307, Note_on_c, 9, 38, 0
13, 4310, Note_on_c, 9, 38, 49
9, 4314, Note_on_c, 8, 82, 93
13, 4315, Note_on_c, 9, 38, 0
6, 4316, Note_on_c, 4, 58, 97
4, 4317, Note_on_c, 2, 50, 87
9, 4319, Note_on_c, 8, 81, 0
10, 4319, Note_on_c, 10, 34, 95
10, 4319, Note_on_c, 10, 46, 95
12, 4319, Note_on_c, 5, 34, 55
13, 4320, Note_on_c, 9, 38, 54
6, 4331, Note_on_c, 4, 58, 0
4, 4332, Note_on_c, 2, 50, 0
9, 4333, Note_on_c, 8, 82, 0
10, 4335, Note_on_c, 10, 33, 0
10, 4335, Note_on_c, 10, 45, 0
12, 4335, Note_on_c, 5, 33, 0
10, 4337, Note_on_c, 10, 34, 0
10, 4337, Note_on_c, 10, 46, 0
12, 4337, Note_on_c, 5, 34, 0
13, 4350, Note_on_c, 9, 38, 0
9, 4355, Note_on_c, 8, 82, 93
10, 4358, Note_on_c, 10, 34, 95
10, 4358, Note_on_c, 10, 46, 95
12, 4358, Note_on_c, 5, 34, 56
4, 4363, Note_on_c, 2, 50, 87
6, 4365, Note_on_c, 4, 58, 97
9, 4373, Note_on_c, 8, 81, 93
4, 4376, Note_on_c, 2, 50, 0
10, 4376, Note_on_c, 10, 34, 0
10, 4376, Note_on_c, 10, 46, 0
12, 4376, Note_on_c, 5, 34, 0
6, 4377, Note_on_c, 4, 58, 0
9, 4380, Note_on_c, 8, 82, 0
10, 4391, Note_on_c, 10, 33, 95
10, 4391, Note_on_c, 10, 45, 95
12, 4391, Note_on_c, 5, 33, 65
9, 4395, Note_on_c, 8, 82, 93
4, 4398, Note_on_c, 2, 50, 87
9, 4398, Note_on_c, 8, 81, 0
6, 4400, Note_on_c, 4, 58, 97
9, 4412, Note_on_c, 8, 81, 93
6, 4413, Note_on_c, 4, 58, 0
10, 4413, Note_on_c, 10, 33, 0
10, 4413, Note_on_c, 10, 45, 0
12, 4413, Note_on_c, 5, 33, 0
13, 4413, Note_on_c, 9, 38, 49
4, 4414, Note_on_c, 2, 50, 0
9, 4418, Note_on_c, 8, 82, 0
13, 4419, Note_on_c, 9, 38, 0
13, 4421, Note_on_c, 9, 38, 43
13, 4427, Note_on_c, 9, 38, 0
13, 4430, Note_on_c, 9, 38, 49
5, 4431, Note_on_c, 3, 77, 0
9, 4435, Note_on_c, 8, 82, 93
13, 4435, Note_on_c, 9, 38, 0
9, 4437, Note_on_c, 8, 81, 0
10, 4438, Note_on_c, 10, 31, 95
10, 4438, Note_on_c, 10, 43, 95
12, 4438, Note_on_c, 5, 31, 73
4, 4440, Note_on_c, 2, 51, 87
13, 4440, Note_on_c, 9, 38, 54
5, 4441, Note_on_c, 3, 75, 114
6, 4442, Note_on_c, 4, 63, 97
5, 4454, Note_on_c, 3, 75, 0
9, 4456, Note_on_c, 8, 82, 0
5, 4478, Note_on_c, 3, 74, 114
9, 4480, Note_on_c, 8, 82, 93
5, 4491, Note_on_c, 3, 74, 0
9, 4493, Note_on_c, 8, 81, 93
13, 4500, Note_on_c, 9, 38, 0
9, 4501, Note_on_c, 8, 82, 0
9, 4516, Note_on_c, 8, 82, 93
5, 4517, Note_on_c, 3, 72, 114
9, 4520, Note_on_c, 8, 81, 0
6, 4529, Note_on_c, 4, 63, 0
4, 4530, Note_on_c, 2, 51, 0
5, 4532, Note_on_c, 3, 72, 0
9, 4532, Note_on_c, 8, 81, 93
13, 4533, Note_on_c, 9, 38, 49
9, 4538, Note_on_c, 8, 82, 0
13, 4539, Note_on_c, 9, 38, 0
13, 4541, Note_on_c, 9, 38, 43
10, 4546, Note_on_c, 10, 31, 0
10, 4546, Note_on_c, 10, 43, 0
12, 4546, Note_on_c, 5, 31, 0
13, 4547, Note_on_c, 9, 38, 0
13, 4550, Note_on_c, 9, 38, 49
4, 4553, Note_on_c, 2, 53, 87
9, 4553, Note_on_c, 8, 82, 93
13, 4555, Note_on_c, 9, 38, 0
6, 4556, Note_on_c, 4, 63, 97
9, 4559, Note_on_c, 8, 81, 0
10, 4560, Note_on_c, 10, 31, 95
10, 4560, Note_on_c, 10, 43, 95
12, 4560, Note_on_c, 5, 31, 71
13, 4560, Note_on_c, 9, 38, 54
5, 4561, Note_on_c, 3, 82, 114
9, 4573, Note_on_c, 8, 82, 0
13, 4590, Note_on_c, 9, 38, 0
9, 4595, Note_on_c, 8, 82, 93
9, 4612, Note_on_c, 8, 81, 93
6, 4614, Note_on_c, 4, 63, 0
4, 4615, Note_on_c, 2, 53, 0
9, 4619, Note_on_c, 8, 82, 0
4, 4631, Note_on_c, 2, 55, 87
6, 4634, Note_on_c, 4, 63, 97
9, 4634, Note_on_c, 8, 82, 93
9, 4638, Note_on_c, 8, 81, 0
10, 4641, Note_on_c, 10, 31, 0
10, 4641, Note_on_c, 10, 43, 0
12, 4641, Note_on_c, 5, 31, 0
10, 4643, Note_on_c, 10, 39, 95
10, 4643, Note_on_c, 10, 51, 95
9, 4652, Note_on_c, 8, 81, 93
13, 4653, Note_on_c, 9, 38, 49
6, 4655, Note_on_c, 4, 63, 0
4, 4658, Note_on_c, 2, 55, 0
9, 4658, Note_on_c, 8, 82, 0
13, 4659, Note_on_c, 9, 38, 0
13, 4661, Note_on_c, 9, 38, 43
10, 4664, Note_on_c, 10, 39, 0
10, 4664, Note_on_c, 10, 51, 0
13, 4667, Note_on_c, 9, 38, 0
13, 4670, Note_on_c, 9, 38, 49
9, 4673, Note_on_c, 8, 82, 93
13, 4675, Note_on_c, 9, 38, 0
9, 4677, Note_on_c, 8, 81, 0
13, 4680, Note_on_c, 9, 38, 54
10, 4681, Note_on_c, 10, 39, 95
10, 4681, Note_on_c, 10, 51, 95
6, 4685, Note_on_c, 4, 63, 97
4, 4686, Note_on_c, 2, 55, 87
9, 4692, Note_on_c, 8, 82, 0
10, 4701, Note_on_c, 10, 39, 0
10, 4701, Note_on_c, 10, 51, 0
9, 4716, Note_on_c, 8, 82, 93
10, 4723, Note_on_c, 10, 38, 95
10, 4723, Note_on_c, 10, 50, 95
9, 4733, Note_on_c, 8, 81, 93
9, 4740, Note_on_c, 8, 82, 0
13, 4740, Note_on_c, 9, 38, 0
10, 4742, Note_on_c, 10, 38, 0
10, 4742, Note_on_c, 10, 50, 0
9, 4756, Note_on_c, 8, 82, 93
9, 4760, Note_on_c, 8, 81, 0
10, 4763, Note_on_c, 10, 36, 95
10, 4763, Note_on_c, 10, 48, 95
6, 4770, Note_on_c, 4, 63, 0
4, 4772, Note_on_c, 2, 55, 0
13, 4773, Note_on_c, 9, 38, 49
9, 4775, Note_on_c, 8, 81, 93
9, 4779, Note_on_c, 8, 82, 0
13, 4779, Note_on_c, 9, 38, 0
13, 4781, Note_on_c, 9, 38, 43
10, 4782, Note_on_c, 10, 36, 0
10, 4782, Note_on_c, 10, 48, 0
5, 4786, Note_on_c, 3, 82, 0
13, 4787, Note_on_c, 9, 38, 0
13, 4790, Note_on_c, 9, 38, 49
6, 4795, Note_on_c, 4, 62, 97
13, 4795, Note_on_c, 9, 38, 0
6, 4796, Note_on_c, 4, 58, 97
4, 4797, Note_on_c, 2, 53, 87
9, 4799, Note_on_c, 8, 81, 0
9, 4799, Note_on_c, 8, 82, 93
13, 4800, Note_on_c, 9, 38, 54
5, 4801, Note_on_c, 3, 77, 114
10, 4807, Note_on_c, 10, 34, 95
10, 4807, Note_on_c, 10, 46, 95
9, 4818, Note_on_c, 8, 82, 0
10, 4827, Note_on_c, 10, 34, 0
10, 4827, Note_on_c, 10, 46, 0
13, 4830, Note_on_c, 9, 38, 0
9, 4843, Note_on_c, 8, 82, 93
10, 4845, Note_on_c, 10, 33, 95
10, 4845, Note_on_c, 10, 45, 95
9, 4860, Note_on_c, 8, 81, 93
10, 4863, Note_on_c, 10, 33, 0
10, 4863, Note_on_c, 10, 45, 0
9, 4866, Note_on_c, 8, 82, 0
6, 4876, Note_on_c, 4, 62, 0
4, 4879, Note_on_c, 2, 53, 0
6, 4881, Note_on_c, 4, 58, 0
9, 4881, Note_on_c, 8, 82, 93
10, 4883, Note_on_c, 10, 31, 95
10, 4883, Note_on_c, 10, 43, 95
9, 4886, Note_on_c, 8, 81, 0
13, 4893, Note_on_c, 9, 38, 49
5, 4899, Note_on_c, 3, 77, 0
13, 4899, Note_on_c, 9, 38, 0
9, 4900, Note_on_c, 8, 81, 93
13, 4901, Note_on_c, 9, 38, 43
9, 4904, Note_on_c, 8, 82, 0
10, 4904, Note_on_c, 10, 31, 0
10, 4904, Note_on_c, 10, 43, 0
13, 4907, Note_on_c, 9, 38, 0
13, 4910, Note_on_c, 9, 38, 49
13, 4915, Note_on_c, 9, 38, 0
9, 4919, Note_on_c, 8, 82, 93
4, 4920, Note_on_c, 2, 51, 87
5, 4920, Note_on_c, 3, 75, 114
6, 4920, Note_on_c, 4, 58, 97
6, 4920, Note_on_c, 4, 63, 97
13, 4920, Note_on_c, 9, 38, 54
9, 4925, Note_on_c, 8, 81, 0
10, 4927, Note_on_c, 10, 29, 95
10, 4927, Note_on_c, 10, 41, 95
5, 4939, Note_on_c, 3, 75, 0
9, 4939, Note_on_c, 8, 82, 0
5, 4960, Note_on_c, 3, 74, 114
9, 4960, Note_on_c, 8, 82, 93
5, 4973, Note_on_c, 3, 74, 0
9, 4973, Note_on_c, 8, 81, 93
9, 4980, Note_on_c, 8, 82, 0
13, 4980, Note_on_c, 9, 38, 0
9, 4995, Note_on_c, 8, 82, 93
5, 4997, Note_on_c, 3, 72, 114
9, 5002, Note_on_c, 8, 81, 0
4, 5008, Note_on_c, 2, 51, 0
6, 5008, Note_on_c, 4, 63, 0
6, 5010, Note_on_c, 4, 58, 0
5, 5012, Note_on_c, 3, 72, 0
10, 5012, Note_on_c, 10, 29, 0
10, 5012, Note_on_c, 10, 41, 0
13, 5013, Note_on_c, 9, 38, 49
9, 5015, Note_on_c, 8, 81, 93
9, 5019, Note_on_c, 8, 82, 0
13, 5019, Note_on_c, 9, 38, 0
13, 5021, Note_on_c, 9, 38, 43
13, 5027, Note_on_c, 9, 38, 0
13, 5030, Note_on_c, 9, 38, 49
13, 5035, Note_on_c, 9, 38, 0
9, 5038, Note_on_c, 8, 81, 0
9, 5038, Note_on_c, 8, 82, 93
4, 5040, Note_on_c, 2, 51, 87
4, 5040, Note_on_c, 2, 63, 87
5, 5040, Note_on_c, 3, 82, 114
6, 5040, Note_on_c, 4, 58, 97
6, 5040, Note_on_c, 4, 63, 97
13, 5040, Note_on_c, 9, 38, 54
10, 5041, Note_on_c, 10, 31, 95
10, 5041, Note_on_c, 10, 43, 95
6, 5049, Note_on_c, 4, 58, 0
4, 5052, Note_on_c, 2, 51, 0
4, 5053, Note_on_c, 2, 63, 0
6, 5053, Note_on_c, 4, 63, 0
9, 5056, Note_on_c, 8, 82, 0
10, 5067, Note_on_c, 10, 31, 0
10, 5067, Note_on_c, 10, 43, 0
13, 5070, Note_on_c, 9, 38, 0
4, 5081, Note_on_c, 2, 51, 87
4, 5081, Note_on_c, 2, 63, 87
6, 5081, Note_on_c, 4, 58, 97
6, 5081, Note_on_c, 4, 63, 97
9, 5081, Note_on_c, 8, 82, 93
4, 5093, Note_on_c, 2, 51, 0
4, 5094, Note_on_c, 2, 63, 0
6, 5094, Note_on_c, 4, 58, 0
6, 5094, Note_on_c, 4, 63, 0
10, 5096, Note_on_c, 10, 33, 95
10, 5096, Note_on_c, 10, 45, 95
9, 5098, Note_on_c, 8, 81, 93
9, 5104, Note_on_c, 8, 82, 0
4, 5118, Note_on_c, 2, 51, 87
4, 5118, Note_on_c, 2, 63, 87
6, 5118, Note_on_c, 4, 58, 97
6, 5118, Note_on_c, 4, 63, 97
9, 5120, Note_on_c, 8, 82, 93
10, 5122, Note_on_c, 10, 33, 0
10, 5122, Note_on_c, 10, 45, 0
9, 5125, Note_on_c, 8, 81, 0
6, 5131, Note_on_c, 4, 58, 0
4, 5132, Note_on_c, 2, 51, 0
4, 5132, Note_on_c, 2, 63, 0
6, 5132, Note_on_c, 4, 63, 0
13, 5133, Note_on_c, 9, 38, 49
13, 5139, Note_on_c, 9, 38, 0
9, 5140, Note_on_c, 8, 81, 93
13, 5141, Note_on_c, 9, 38, 43
9, 5147, Note_on_c, 8, 82, 0
13, 5147, Note_on_c, 9, 38, 0
13, 5150, Note_on_c, 9, 38, 49
10, 5154, Note_on_c, 10, 34, 95
10, 5154, Note_on_c, 10, 46, 95
13, 5155, Note_on_c, 9, 38, 0
4, 5160, Note_on_c, 2, 57, 87
4, 5160, Note_on_c, 2, 58, 87
6, 5160, Note_on_c, 4, 58, 97
13, 5160, Note_on_c, 9, 38, 54
4, 5161, Note_on_c, 2, 62, 87
6, 5161, Note_on_c, 4, 62, 97
9, 5161, Note_on_c, 8, 81, 0
9, 5161, Note_on_c, 8, 82, 93
10, 5175, Note_on_c, 10, 34, 0
10, 5175, Note_on_c, 10, 46, 0
9, 5181, Note_on_c, 8, 82, 0
10, 5195, Note_on_c, 10, 33, 95
10, 5195, Note_on_c, 10, 45, 95
9, 5201, Note_on_c, 8, 82, 93
10, 5211, Note_on_c, 10, 33, 0
10, 5211, Note_on_c, 10, 45, 0
9, 5213, Note_on_c, 8, 81, 93
9, 5220, Note_on_c, 8, 82, 0
13, 5220, Note_on_c, 9, 38, 0
10, 5233, Note_on_c, 10, 31, 95
10, 5233, Note_on_c, 10, 43, 95
9, 5235, Note_on_c, 8, 82, 93
9, 5242, Note_on_c, 8, 81, 0
4, 5252, Note_on_c, 2, 58, 0
6, 5252, Note_on_c, 4, 58, 0
13, 5253, Note_on_c, 9, 38, 49
4, 5254, Note_on_c, 2, 62, 0
6, 5254, Note_on_c, 4, 62, 0
9, 5255, Note_on_c, 8, 81, 93
10, 5255, Note_on_c, 10, 31, 0
10, 5255, Note_on_c, 10, 43, 0
13, 5259, Note_on_c, 9, 38, 0
4, 5260, Note_on_c, 2, 57, 0
9, 5260, Note_on_c, 8, 82, 0
13, 5261, Note_on_c, 9, 38, 43
13, 5267, Note_on_c, 9, 38, 0
13, 5270, Note_on_c, 9, 38, 49
13, 5275, Note_on_c, 9, 38, 0
5, 5276, Note_on_c, 3, 82, 0
9, 5277, Note_on_c, 8, 82, 93
10, 5277, Note_on_c, 10, 29, 95
10, 5277, Note_on_c, 10, 41, 95
4, 5278, Note_on_c, 2, 62, 87
6, 5278, Note_on_c, 4, 62, 97
4, 5280, Note_on_c, 2, 58, 87
5, 5280, Note_on_c, 3, 77, 114
6, 5280, Note_on_c, 4, 58, 97
8, 5280, Control_c, 7, 18, 64
9, 5280, Note_on_c, 8, 81, 0
13, 5280, Note_on_c, 9, 38, 54
4, 5291, Note_on_c, 2, 62, 0
6, 5291, Note_on_c, 4, 62, 0
4, 5295, Note_on_c, 2, 58, 0
6, 5295, Note_on_c, 4, 58, 0
9, 5295, Note_on_c, 8, 82, 0
10, 5305, Note_on_c, 10, 29, 0
10, 5305, Note_on_c, 10, 41, 0
13, 5310, Note_on_c, 9, 38, 0
4, 5316, Note_on_c, 2, 62, 87
6, 5316, Note_on_c, 4, 62, 97
4, 5317, Note_on_c, 2, 58, 87
6, 5317, Note_on_c, 4, 58, 97
9, 5318, Note_on_c, 8, 82, 93
4, 5331, Note_on_c, 2, 58, 0
4, 5331, Note_on_c, 2, 62, 0
6, 5331, Note_on_c, 4, 58, 0
6, 5331, Note_on_c, 4, 62, 0
9, 5335, Note_on_c, 8, 81, 93
10, 5339, Note_on_c, 10, 34, 95
10, 5339, Note_on_c, 10, 46, 95
9, 5341, Note_on_c, 8, 82, 0
4, 5355, Note_on_c, 2, 62, 87
6, 5355, Note_on_c, 4, 62, 97
4, 5357, Note_on_c, 2, 58, 87
6, 5357, Note_on_c, 4, 58, 97
9, 5358, Note_on_c, 8, 82, 93
9, 5362, Note_on_c, 8, 81, 0
4, 5369, Note_on_c, 2, 62, 0
6, 5369, Note_on_c, 4, 62, 0
10, 5373, Note_on_c, 10, 34, 0
10, 5373, Note_on_c, 10, 46, 0
4, 5375, Note_on_c, 2, 58, 0
6, 5375, Note_on_c, 4, 58, 0
13, 5375, Note_on_c, 9, 38, 37
9, 5376, Note_on_c, 8, 81, 93
13, 5380, Note_on_c, 9, 38, 0
13, 5383, Note_on_c, 9, 38, 43
9, 5384, Note_on_c, 8, 82, 0
13, 5389, Note_on_c, 9, 38, 0
5, 5390, Note_on_c, 3, 77, 0
13, 5392, Note_on_c, 9, 38, 44
10, 5397, Note_on_c, 10, 53, 95
12, 5397, Note_on_c, 5, 53, 65
13, 5397, Note_on_c, 9, 38, 0
4, 5398, Note_on_c, 2, 68, 87
4, 5398, Note_on_c, 2, 72, 87
6, 5398, Note_on_c, 4, 60, 97
6, 5398, Note_on_c, 4, 63, 97
10, 5398, Note_on_c, 10, 41, 95
12, 5398, Note_on_c, 5, 41, 65
9, 5399, Note_on_c, 8, 81, 0
10, 5399, Note_on_c, 10, 56, 95
13, 5401, Note_on_c, 9, 38, 50
9, 5402, Note_on_c, 8, 80, 93
5, 5403, Note_on_c, 3, 75, 114
13, 5411, Note_on_c, 9, 38, 0
4, 5413, Note_on_c, 2, 72, 0
6, 5413, Note_on_c, 4, 63, 0
4, 5417, Note_on_c, 2, 68, 0
5, 5417, Note_on_c, 3, 75, 0
6, 5417, Note_on_c, 4, 60, 0
9, 5418, Note_on_c, 8, 80, 0
10, 5419, Note_on_c, 10, 56, 0
10, 5435, Note_on_c, 10, 55, 95
9, 5437, Note_on_c, 8, 79, 93
4, 5440, Note_on_c, 2, 67, 87
4, 5440, Note_on_c, 2, 71, 87
6, 5440, Note_on_c, 4, 59, 97
6, 5440, Note_on_c, 4, 62, 97
5, 5442, Note_on_c, 3, 74, 114
5, 5452, Note_on_c, 3, 74, 0
10, 5452, Note_on_c, 10, 55, 0
4, 5454, Note_on_c, 2, 71, 0
6, 5454, Note_on_c, 4, 62, 0
4, 5456, Note_on_c, 2, 67, 0
6, 5456, Note_on_c, 4, 59, 0
9, 5457, Note_on_c, 8, 79, 0
9, 5473, Note_on_c, 8, 80, 93
10, 5476, Note_on_c, 10, 56, 95
4, 5480, Note_on_c, 2, 68, 87
6, 5480, Note_on_c, 4, 60, 97
4, 5481, Note_on_c, 2, 72, 87
5, 5481, Note_on_c, 3, 75, 114
6, 5481, Note_on_c, 4, 63, 97
10, 5484, Note_on_c, 10, 53, 0
12, 5484, Note_on_c, 5, 53, 0
10, 5491, Note_on_c, 10, 41, 0
12, 5491, Note_on_c, 5, 41, 0
10, 5492, Note_on_c, 10, 56, 0
9, 5493, Note_on_c, 8, 80, 0
5, 5494, Note_on_c, 3, 75, 0
4, 5497, Note_on_c, 2, 72, 0
6, 5497, Note_on_c, 4, 63, 0
4, 5498, Note_on_c, 2, 68, 0
6, 5498, Note_on_c, 4, 60, 0
9, 5511, Note_on_c, 8, 77, 93
10, 5511, Note_on_c, 10, 29, 95
12, 5511, Note_on_c, 5, 29, 71
10, 5512, Note_on_c, 10, 41, 95
12, 5512, Note_on_c, 5, 41, 71
10, 5514, Note_on_c, 10, 53, 95
13, 5519, Note_on_c, 9, 38, 54
5, 5520, Note_on_c, 3, 72, 114
4, 5521, Note_on_c, 2, 65, 87
4, 5521, Note_on_c, 2, 69, 87
6, 5521, Note_on_c, 4, 57, 97
6, 5521, Note_on_c, 4, 60, 97
10, 5530, Note_on_c, 10, 41, 0
12, 5530, Note_on_c, 5, 41, 0
10, 5531, Note_on_c, 10, 29, 0
12, 5531, Note_on_c, 5, 29, 0
13, 5533, Note_on_c, 9, 38, 0
10, 5547, Note_on_c, 10, 29, 95
12, 5547, Note_on_c, 5, 29, 73
10, 5550, Note_on_c, 10, 41, 95
12, 5550, Note_on_c, 5, 41, 62
13, 5561, Note_on_c, 9, 38, 52
10, 5566, Note_on_c, 10, 29, 0
12, 5566, Note_on_c, 5, 29, 0
10, 5568, Note_on_c, 10, 41, 0
12, 5568, Note_on_c, 5, 41, 0
13, 5574, Note_on_c, 9, 38, 0
10, 5585, Note_on_c, 10, 29, 95
12, 5585, Note_on_c, 5, 29, 71
10, 5587, Note_on_c, 10, 41, 95
12, 5587, Note_on_c, 5, 41, 62
13, 5597, Note_on_c, 9, 38, 52
10, 5605, Note_on_c, 10, 29, 0
12, 5605, Note_on_c, 5, 29, 0
10, 5609, Note_on_c, 10, 41, 0
12, 5609, Note_on_c, 5, 41, 0
13, 5613, Note_on_c, 9, 38, 0
10, 5631, Note_on_c, 10, 29, 95
12, 5631, Note_on_c, 5, 29, 73
10, 5633, Note_on_c, 10, 41, 95
12, 5633, Note_on_c, 5, 41, 71
13, 5640, Note_on_c, 9, 38, 76
13, 5645, Note_on_c, 9, 38, 0
13, 5647, Note_on_c, 9, 38, 50
13, 5653, Note_on_c, 9, 38, 0
13, 5656, Note_on_c, 9, 38, 52
13, 5662, Note_on_c, 9, 38, 0
13, 5665, Note_on_c, 9, 38, 45
13, 5675, Note_on_c, 9, 38, 0
9, 5686, Note_on_c, 8, 77, 0
4, 5725, Note_on_c, 2, 69, 0
4, 5729, Note_on_c, 2, 65, 0
10, 5736, Note_on_c, 10, 29, 0
10, 5736, Note_on_c, 10, 41, 0
12, 5736, Note_on_c, 5, 29, 0
12, 5736, Note_on_c, 5, 41, 0
5, 5741, Note_on_c, 3, 72, 0
6, 5746, Note_on_c, 4, 57, 0
6, 5746, Note_on_c, 4, 60, 0
9, 5751, Note_on_c, 8, 77, 97
10, 5751, Note_on_c, 10, 65, 92
10, 5760, Note_on_c, 10, 29, 87
10, 5774, Note_on_c, 10, 53, 0
10, 5800, Note_on_c, 10, 29, 0
9, 5834, Note_on_c, 8, 77, 0
10, 5834, Note_on_c, 10, 65, 0
9, 5845, Note_on_c, 8, 77, 97
10, 5845, Note_on_c, 10, 65, 92
4, 5881, Note_on_c, 2, 55, 49
9, 5881, Note_on_c, 8, 77, 0
9, 5881, Note_on_c, 8, 79, 97
10, 5881, Note_on_c, 10, 65, 0
10, 5881, Note_on_c, 10, 67, 92
4, 5882, Note_on_c, 2, 63, 38
7, 5882, Note_on_c, 6, 65, 49
8, 5882, Note_on_c, 7, 75, 71
7, 5895, Note_on_c, 6, 65, 0
7, 5900, Note_on_c, 6, 67, 49
8, 5907, Note_on_c, 7, 75, 0
7, 5913, Note_on_c, 6, 67, 0
7, 5916, Note_on_c, 6, 70, 49
8, 5917, Note_on_c, 7, 70, 66
7, 5929, Note_on_c, 6, 70, 0
7, 5936, Note_on_c, 6, 75, 42
8, 5942, Note_on_c, 7, 70, 0
7, 5949, Note_on_c, 6, 75, 0
7, 5953, Note_on_c, 6, 77, 45
8, 5956, Note_on_c, 7, 65, 68
7, 5966, Note_on_c, 6, 77, 0
7, 5971, Note_on_c, 6, 82, 45
8, 5981, Note_on_c, 7, 65, 0
4, 5982, Note_on_c, 2, 63, 0
4, 5984, Note_on_c, 2, 55, 0
7, 5984, Note_on_c, 6, 82, 0
10, 5988, Note_on_c, 10, 29, 89
7, 5993, Note_on_c, 6, 65, 49
8, 5996, Note_on_c, 7, 67, 68
4, 6002, Note_on_c, 2, 55, 51
4, 6002, Note_on_c, 2, 63, 50
7, 6006, Note_on_c, 6, 65, 0
7, 6011, Note_on_c, 6, 67, 49
8, 6021, Note_on_c, 7, 67, 0
7, 6024, Note_on_c, 6, 67, 0
7, 6030, Note_on_c, 6, 70, 49
8, 6036, Note_on_c, 7, 72, 75
7, 6043, Note_on_c, 6, 70, 0
9, 6046, Note_on_c, 8, 79, 0
9, 6046, Note_on_c, 8, 79, 97
10, 6046, Note_on_c, 10, 67, 0
10, 6046, Note_on_c, 10, 67, 92
7, 6050, Note_on_c, 6, 75, 41
8, 6061, Note_on_c, 7, 72, 0
7, 6063, Note_on_c, 6, 75, 0
7, 6068, Note_on_c, 6, 77, 45
8, 6075, Note_on_c, 7, 77, 75
7, 6081, Note_on_c, 6, 77, 0
7, 6086, Note_on_c, 6, 82, 45
7, 6099, Note_on_c, 6, 82, 0
8, 6100, Note_on_c, 7, 77, 0
9, 6103, Note_on_c, 8, 87, 97
10, 6103, Note_on_c, 10, 75, 92
7, 6108, Note_on_c, 6, 65, 49
8, 6116, Note_on_c, 7, 79, 75
7, 6121, Note_on_c, 6, 65, 0
7, 6128, Note_on_c, 6, 67, 45
7, 6141, Note_on_c, 6, 67, 0
8, 6141, Note_on_c, 7, 79, 0
7, 6148, Note_on_c, 6, 70, 49
10, 6156, Note_on_c, 10, 29, 0
8, 6157, Note_on_c, 7, 75, 71
7, 6161, Note_on_c, 6, 70, 0
9, 6168, Note_on_c, 8, 86, 97
10, 6168, Note_on_c, 10, 74, 92
9, 6170, Note_on_c, 8, 87, 0
10, 6170, Note_on_c, 10, 75, 0
7, 6171, Note_on_c, 6, 75, 45
8, 6182, Note_on_c, 7, 75, 0
7, 6184, Note_on_c, 6, 75, 0
7, 6191, Note_on_c, 6, 77, 43
8, 6196, Note_on_c, 7, 70, 71
7, 6204, Note_on_c, 6, 77, 0
4, 6206, Note_on_c, 2, 63, 0
4, 6207, Note_on_c, 2, 55, 0
7, 6210, Note_on_c, 6, 82, 45
9, 6211, Note_on_c, 8, 79, 0
10, 6211, Note_on_c, 10, 67, 0
9, 6219, Note_on_c, 8, 86, 0
10, 6219, Note_on_c, 10, 74, 0
8, 6221, Note_on_c, 7, 70, 0
9, 6222, Note_on_c, 8, 84, 97
10, 6222, Note_on_c, 10, 72, 92
7, 6223, Note_on_c, 6, 82, 0
10, 6223, Note_on_c, 10, 29, 89
4, 6235, Note_on_c, 2, 55, 50
7, 6235, Note_on_c, 6, 65, 45
4, 6236, Note_on_c, 2, 63, 54
8, 6236, Note_on_c, 7, 69, 75
7, 6248, Note_on_c, 6, 65, 0
7, 6254, Note_on_c, 6, 67, 49
8, 6261, Note_on_c, 7, 69, 0
7, 6267, Note_on_c, 6, 67, 0
7, 6273, Note_on_c, 6, 70, 53
8, 6276, Note_on_c, 7, 70, 66
9, 6284, Note_on_c, 8, 82, 96
10, 6284, Note_on_c, 10, 70, 91
7, 6286, Note_on_c, 6, 70, 0
9, 6287, Note_on_c, 8, 84, 0
10, 6287, Note_on_c, 10, 72, 0
7, 6296, Note_on_c, 6, 75, 42
8, 6301, Note_on_c, 7, 70, 0
7, 6309, Note_on_c, 6, 75, 0
7, 6311, Note_on_c, 6, 77, 45
8, 6316, Note_on_c, 7, 77, 71
7, 6324, Note_on_c, 6, 77, 0
7, 6330, Note_on_c, 6, 82, 45
4, 6336, Note_on_c, 2, 63, 0
4, 6340, Note_on_c, 2, 55, 0
8, 6341, Note_on_c, 7, 77, 0
7, 6343, Note_on_c, 6, 82, 0
9, 6344, Note_on_c, 8, 82, 0
10, 6344, Note_on_c, 10, 70, 0
9, 6350, Note_on_c, 8, 82, 94
10, 6350, Note_on_c, 10, 70, 89
7, 6353, Note_on_c, 6, 65, 49
4, 6356, Note_on_c, 2, 55, 54
4, 6356, Note_on_c, 2, 63, 56
8, 6358, Note_on_c, 7, 82, 80
7, 6366, Note_on_c, 6, 65, 0
7, 6371, Note_on_c, 6, 67, 49
8, 6383, Note_on_c, 7, 82, 0
7, 6384, Note_on_c, 6, 67, 0
9, 6387, Note_on_c, 8, 84, 94
10, 6387, Note_on_c, 10, 72, 89
7, 6390, Note_on_c, 6, 70, 49
8, 6398, Note_on_c, 7, 77, 77
9, 6398, Note_on_c, 8, 82, 0
10, 6398, Note_on_c, 10, 70, 0
7, 6403, Note_on_c, 6, 70, 0
10, 6404, Note_on_c, 10, 29, 0
7, 6413, Note_on_c, 6, 75, 45
9, 6422, Note_on_c, 8, 84, 0
10, 6422, Note_on_c, 10, 72, 0
8, 6423, Note_on_c, 7, 77, 0
9, 6423, Note_on_c, 8, 86, 94
10, 6423, Note_on_c, 10, 74, 89
7, 6426, Note_on_c, 6, 75, 0
7, 6433, Note_on_c, 6, 77, 43
8, 6438, Note_on_c, 7, 72, 80
7, 6446, Note_on_c, 6, 77, 0
7, 6450, Note_on_c, 6, 82, 45
7, 6463, Note_on_c, 6, 82, 0
8, 6463, Note_on_c, 7, 72, 0
9, 6469, Note_on_c, 8, 86, 0
10, 6469, Note_on_c, 10, 74, 0
9, 6471, Note_on_c, 8, 84, 96
10, 6471, Note_on_c, 10, 72, 91
7, 6473, Note_on_c, 6, 65, 49
10, 6473, Note_on_c, 10, 29, 89
8, 6478, Note_on_c, 7, 77, 86
7, 6486, Note_on_c, 6, 65, 0
7, 6491, Note_on_c, 6, 67, 45
8, 6503, Note_on_c, 7, 77, 0
7, 6504, Note_on_c, 6, 67, 0
7, 6512, Note_on_c, 6, 70, 49
8, 6517, Note_on_c, 7, 82, 68
4, 6523, Note_on_c, 2, 55, 0
7, 6525, Note_on_c, 6, 70, 0
4, 6527, Note_on_c, 2, 63, 0
7, 6534, Note_on_c, 6, 75, 43
4, 6542, Note_on_c, 2, 55, 65
8, 6542, Note_on_c, 7, 82, 0
7, 6547, Note_on_c, 6, 75, 0
7, 6551, Note_on_c, 6, 77, 49
8, 6556, Note_on_c, 7, 87, 71
9, 6556, Note_on_c, 8, 84, 0
10, 6556, Note_on_c, 10, 72, 0
9, 6560, Note_on_c, 8, 79, 97
10, 6560, Note_on_c, 10, 67, 92
7, 6564, Note_on_c, 6, 77, 0
7, 6570, Note_on_c, 6, 82, 49
8, 6581, Note_on_c, 7, 87, 0
7, 6583, Note_on_c, 6, 82, 0
4, 6584, Note_on_c, 2, 55, 0
9, 6595, Note_on_c, 8, 79, 0
10, 6595, Note_on_c, 10, 67, 0
9, 6596, Note_on_c, 8, 81, 97
10, 6596, Note_on_c, 10, 69, 92
4, 6598, Note_on_c, 2, 57, 63
4, 6598, Note_on_c, 2, 65, 66
8, 6598, Note_on_c, 7, 84, 80
8, 6623, Note_on_c, 7, 84, 0
8, 6637, Note_on_c, 7, 77, 75
10, 6643, Note_on_c, 10, 29, 0
8, 6662, Note_on_c, 7, 77, 0
8, 6677, Note_on_c, 7, 72, 77
8, 6702, Note_on_c, 7, 72, 0
9, 6708, Note_on_c, 8, 81, 0
10, 6708, Note_on_c, 10, 69, 0
10, 6711, Note_on_c, 10, 29, 89
9, 6714, Note_on_c, 8, 77, 97
10, 6714, Note_on_c, 10, 65, 92
8, 6717, Note_on_c, 7, 77, 75
8, 6742, Note_on_c, 7, 77, 0
8, 6757, Note_on_c, 7, 84, 77
4, 6776, Note_on_c, 2, 57, 0
4, 6778, Note_on_c, 2, 65, 0
8, 6782, Note_on_c, 7, 84, 0
9, 6784, Note_on_c, 8, 77, 0
10, 6784, Note_on_c, 10, 65, 0
4, 6785, Note_on_c, 2, 57, 68
8, 6797, Note_on_c, 7, 89, 71
9, 6803, Note_on_c, 8, 77, 97
10, 6803, Note_on_c, 10, 65, 92
4, 6816, Note_on_c, 2, 57, 0
8, 6822, Note_on_c, 7, 89, 0
9, 6835, Note_on_c, 8, 79, 97
10, 6835, Note_on_c, 10, 67, 92
8, 6838, Note_on_c, 7, 87, 86
4, 6840, Note_on_c, 2, 63, 71
4, 6841, Note_on_c, 2, 55, 71
7, 6842, Note_on_c, 6, 65, 49
9, 6844, Note_on_c, 8, 77, 0
10, 6844, Note_on_c, 10, 65, 0
7, 6855, Note_on_c, 6, 65, 0
7, 6860, Note_on_c, 6, 67, 49
8, 6863, Note_on_c, 7, 87, 0
10, 6869, Note_on_c, 10, 29, 0
7, 6873, Note_on_c, 6, 67, 0
7, 6876, Note_on_c, 6, 70, 49
8, 6877, Note_on_c, 7, 82, 77
7, 6889, Note_on_c, 6, 70, 0
4, 6894, Note_on_c, 2, 55, 0
7, 6896, Note_on_c, 6, 75, 42
4, 6900, Note_on_c, 2, 63, 0
8, 6902, Note_on_c, 7, 82, 0
7, 6909, Note_on_c, 6, 75, 0
7, 6913, Note_on_c, 6, 77, 45
8, 6916, Note_on_c, 7, 77, 77
7, 6926, Note_on_c, 6, 77, 0
7, 6931, Note_on_c, 6, 82, 45
8, 6941, Note_on_c, 7, 77, 0
7, 6944, Note_on_c, 6, 82, 0
10, 6946, Note_on_c, 10, 29, 89
7, 6953, Note_on_c, 6, 65, 49
8, 6957, Note_on_c, 7, 72, 77
4, 6959, Note_on_c, 2, 63, 75
4, 6960, Note_on_c, 2, 55, 75
7, 6966, Note_on_c, 6, 65, 0
7, 6971, Note_on_c, 6, 67, 49
8, 6982, Note_on_c, 7, 72, 0
7, 6984, Note_on_c, 6, 67, 0
7, 6990, Note_on_c, 6, 70, 49
8, 6996, Note_on_c, 7, 77, 77
7, 7003, Note_on_c, 6, 70, 0
9, 7003, Note_on_c, 8, 79, 0
10, 7003, Note_on_c, 10, 67, 0
7, 7010, Note_on_c, 6, 75, 41
9, 7013, Note_on_c, 8, 79, 97
10, 7013, Note_on_c, 10, 67, 92
8, 7021, Note_on_c, 7, 77, 0
7, 7023, Note_on_c, 6, 75, 0
7, 7028, Note_on_c, 6, 77, 45
8, 7036, Note_on_c, 7, 82, 68
9, 7038, Note_on_c, 8, 87, 74
10, 7038, Note_on_c, 10, 75, 69
9, 7040, Note_on_c, 8, 79, 0
10, 7040, Note_on_c, 10, 67, 0
7, 7041, Note_on_c, 6, 77, 0
7, 7046, Note_on_c, 6, 82, 45
7, 7059, Note_on_c, 6, 82, 0
8, 7061, Note_on_c, 7, 82, 0
9, 7066, Note_on_c, 8, 87, 0
10, 7066, Note_on_c, 10, 75, 0
7, 7068, Note_on_c, 6, 65, 49
9, 7070, Note_on_c, 8, 87, 97
10, 7070, Note_on_c, 10, 75, 92
8, 7076, Note_on_c, 7, 87, 77
7, 7081, Note_on_c, 6, 65, 0
7, 7088, Note_on_c, 6, 67, 45
7, 7101, Note_on_c, 6, 67, 0
8, 7101, Note_on_c, 7, 87, 0
7, 7108, Note_on_c, 6, 70, 49
8, 7116, Note_on_c, 7, 82, 60
7, 7121, Note_on_c, 6, 70, 0
10, 7124, Note_on_c, 10, 29, 0
9, 7125, Note_on_c, 8, 87, 0
10, 7125, Note_on_c, 10, 75, 0
9, 7126, Note_on_c, 8, 86, 97
10, 7126, Note_on_c, 10, 74, 92
7, 7131, Note_on_c, 6, 75, 45
8, 7141, Note_on_c, 7, 82, 0
7, 7144, Note_on_c, 6, 75, 0
7, 7151, Note_on_c, 6, 77, 43
8, 7157, Note_on_c, 7, 77, 75
7, 7164, Note_on_c, 6, 77, 0
7, 7170, Note_on_c, 6, 82, 45
4, 7171, Note_on_c, 2, 55, 0
4, 7178, Note_on_c, 2, 63, 0
9, 7181, Note_on_c, 8, 86, 0
10, 7181, Note_on_c, 10, 74, 0
8, 7182, Note_on_c, 7, 77, 0
9, 7182, Note_on_c, 8, 84, 97
10, 7182, Note_on_c, 10, 72, 92
7, 7183, Note_on_c, 6, 82, 0
10, 7190, Note_on_c, 10, 29, 89
7, 7195, Note_on_c, 6, 65, 45
4, 7196, Note_on_c, 2, 63, 79
4, 7198, Note_on_c, 2, 55, 81
8, 7198, Note_on_c, 7, 75, 86
7, 7208, Note_on_c, 6, 65, 0
7, 7214, Note_on_c, 6, 67, 49
8, 7223, Note_on_c, 7, 75, 0
7, 7227, Note_on_c, 6, 67, 0
7, 7233, Note_on_c, 6, 70, 53
8, 7237, Note_on_c, 7, 77, 80
9, 7243, Note_on_c, 8, 84, 0
10, 7243, Note_on_c, 10, 72, 0
9, 7245, Note_on_c, 8, 82, 96
10, 7245, Note_on_c, 10, 70, 91
7, 7246, Note_on_c, 6, 70, 0
7, 7256, Note_on_c, 6, 75, 42
8, 7262, Note_on_c, 7, 77, 0
7, 7269, Note_on_c, 6, 75, 0
7, 7271, Note_on_c, 6, 77, 45
9, 7272, Note_on_c, 8, 89, 86
10, 7272, Note_on_c, 10, 77, 81
8, 7277, Note_on_c, 7, 82, 68
7, 7284, Note_on_c, 6, 77, 0
9, 7285, Note_on_c, 8, 82, 0
10, 7285, Note_on_c, 10, 70, 0
7, 7290, Note_on_c, 6, 82, 45
9, 7292, Note_on_c, 8, 89, 0
10, 7292, Note_on_c, 10, 77, 0
4, 7294, Note_on_c, 2, 55, 0
4, 7296, Note_on_c, 2, 63, 0
9, 7298, Note_on_c, 8, 89, 97
10, 7298, Note_on_c, 10, 77, 92
8, 7302, Note_on_c, 7, 82, 0
7, 7303, Note_on_c, 6, 82, 0
10, 7304, Note_on_c, 10, 29, 0
7, 7313, Note_on_c, 6, 65, 49
10, 7316, Note_on_c, 10, 37, 89
4, 7318, Note_on_c, 2, 56, 83
8, 7318, Note_on_c, 7, 89, 86
4, 7319, Note_on_c, 2, 61, 83
7, 7326, Note_on_c, 6, 65, 0
7, 7331, Note_on_c, 6, 68, 49
8, 7343, Note_on_c, 7, 89, 0
7, 7344, Note_on_c, 6, 68, 0
7, 7350, Note_on_c, 6, 72, 49
8, 7358, Note_on_c, 7, 84, 71
7, 7363, Note_on_c, 6, 72, 0
7, 7373, Note_on_c, 6, 73, 45
8, 7383, Note_on_c, 7, 84, 0
7, 7386, Note_on_c, 6, 73, 0
7, 7393, Note_on_c, 6, 77, 43
8, 7397, Note_on_c, 7, 77, 71
9, 7400, Note_on_c, 8, 89, 0
10, 7400, Note_on_c, 10, 77, 0
9, 7401, Note_on_c, 8, 84, 86
10, 7401, Note_on_c, 10, 72, 82
7, 7406, Note_on_c, 6, 77, 0
7, 7410, Note_on_c, 6, 80, 45
4, 7421, Note_on_c, 2, 56, 0
9, 7421, Note_on_c, 8, 84, 0
10, 7421, Note_on_c, 10, 72, 0
8, 7422, Note_on_c, 7, 77, 0
7, 7423, Note_on_c, 6, 80, 0
10, 7423, Note_on_c, 10, 37, 0
4, 7426, Note_on_c, 2, 61, 0
9, 7426, Note_on_c, 8, 84, 97
10, 7426, Note_on_c, 10, 72, 92
7, 7433, Note_on_c, 6, 65, 49
4, 7435, Note_on_c, 2, 60, 86
10, 7436, Note_on_c, 10, 29, 89
4, 7437, Note_on_c, 2, 57, 86
8, 7437, Note_on_c, 7, 72, 86
7, 7446, Note_on_c, 6, 65, 0
7, 7451, Note_on_c, 6, 72, 45
8, 7462, Note_on_c, 7, 72, 0
7, 7464, Note_on_c, 6, 72, 0
7, 7472, Note_on_c, 6, 77, 49
8, 7476, Note_on_c, 7, 77, 77
7, 7485, Note_on_c, 6, 77, 0
7, 7494, Note_on_c, 6, 89, 43
8, 7501, Note_on_c, 7, 77, 0
7, 7507, Note_on_c, 6, 89, 0
7, 7511, Note_on_c, 6, 84, 49
8, 7515, Note_on_c, 7, 84, 77
7, 7524, Note_on_c, 6, 84, 0
7, 7530, Note_on_c, 6, 77, 49
8, 7540, Note_on_c, 7, 84, 0
4, 7542, Note_on_c, 2, 57, 0
4, 7542, Note_on_c, 2, 60, 0
7, 7543, Note_on_c, 6, 77, 0
4, 7552, Note_on_c, 2, 55, 88
4, 7553, Note_on_c, 2, 63, 88
8, 7556, Note_on_c, 7, 89, 86
8, 7581, Note_on_c, 7, 89, 0
8, 7595, Note_on_c, 7, 82, 75
8, 7620, Note_on_c, 7, 82, 0
10, 7629, Note_on_c, 10, 29, 0
8, 7635, Note_on_c, 7, 75, 86
8, 7660, Note_on_c, 7, 75, 0
10, 7670, Note_on_c, 10, 41, 89
4, 7676, Note_on_c, 2, 57, 92
4, 7676, Note_on_c, 2, 60, 92
8, 7676, Note_on_c, 7, 84, 80
4, 7678, Note_on_c, 2, 63, 0
4, 7679, Note_on_c, 2, 55, 0
8, 7701, Note_on_c, 7, 84, 0
8, 7715, Note_on_c, 7, 77, 77
8, 7740, Note_on_c, 7, 77, 0
8, 7755, Note_on_c, 7, 72, 86
9, 7755, Note_on_c, 8, 84, 0
10, 7755, Note_on_c, 10, 72, 0
9, 7765, Note_on_c, 8, 77, 97
10, 7765, Note_on_c, 10, 65, 92
4, 7776, Note_on_c, 2, 57, 0
8, 7780, Note_on_c, 7, 72, 0
10, 7781, Note_on_c, 10, 41, 0
4, 7782, Note_on_c, 2, 60, 0
10, 7791, Note_on_c, 10, 39, 89
9, 7796, Note_on_c, 8, 79, 97
10, 7796, Note_on_c, 10, 67, 92
9, 7801, Note_on_c, 8, 77, 0
10, 7801, Note_on_c, 10, 65, 0
4, 7803, Note_on_c, 2, 55, 95
4, 7805, Note_on_c, 2, 63, 95
4, 7917, Note_on_c, 2, 55, 0
4, 7919, Note_on_c, 2, 57, 98
9, 7963, Note_on_c, 8, 79, 0
10, 7963, Note_on_c, 10, 67, 0
9, 7966, Note_on_c, 8, 79, 97
10, 7966, Note_on_c, 10, 67, 92
4, 7973, Note_on_c, 2, 58, 99
4, 7977, Note_on_c, 2, 57, 0
10, 8014, Note_on_c, 10, 39, 0
9, 8023, Note_on_c, 8, 87, 97
10, 8023, Note_on_c, 10, 75, 92
9, 8027, Note_on_c, 8, 79, 0
10, 8027, Note_on_c, 10, 67, 0
10, 8032, Note_on_c, 10, 36, 114
4, 8035, Note_on_c, 2, 59, 100
4, 8037, Note_on_c, 2, 58, 0
4, 8080, Note_on_c, 2, 63, 0
4, 8087, Note_on_c, 2, 62, 101
9, 8088, Note_on_c, 8, 86, 97
10, 8088, Note_on_c, 10, 74, 92
9, 8090, Note_on_c, 8, 87, 0
10, 8090, Note_on_c, 10, 75, 0
9, 8139, Note_on_c, 8, 86, 0
10, 8139, Note_on_c, 10, 74, 0
9, 8142, Note_on_c, 8, 84, 97
10, 8142, Note_on_c, 10, 72, 92
4, 8144, Note_on_c, 2, 62, 0
10, 8153, Note_on_c, 10, 60, 114
4, 8155, Note_on_c, 2, 60, 103
4, 8157, Note_on_c, 2, 59, 0
4, 8201, Note_on_c, 2, 60, 0
4, 8202, Note_on_c, 2, 58, 104
4, 8203, Note_on_c, 2, 62, 104
9, 8204, Note_on_c, 8, 82, 96
10, 8204, Note_on_c, 10, 60, 0
10, 8204, Note_on_c, 10, 70, 91
9, 8207, Note_on_c, 8, 84, 0
10, 8207, Note_on_c, 10, 62, 114
10, 8207, Note_on_c, 10, 72, 0
4, 8260, Note_on_c, 2, 62, 0
4, 8263, Note_on_c, 2, 58, 0
9, 8264, Note_on_c, 8, 82, 0
10, 8264, Note_on_c, 10, 70, 0
10, 8266, Note_on_c, 10, 48, 114
10, 8267, Note_on_c, 10, 36, 0
4, 8269, Note_on_c, 2, 63, 104
4, 8270, Note_on_c, 2, 58, 104
9, 8270, Note_on_c, 8, 82, 94
10, 8270, Note_on_c, 10, 70, 89
10, 8271, Note_on_c, 10, 63, 114
10, 8275, Note_on_c, 10, 62, 0
9, 8307, Note_on_c, 8, 84, 94
10, 8307, Note_on_c, 10, 72, 89
9, 8318, Note_on_c, 8, 82, 0
10, 8318, Note_on_c, 10, 70, 0
9, 8342, Note_on_c, 8, 84, 0
10, 8342, Note_on_c, 10, 72, 0
9, 8343, Note_on_c, 8, 86, 94
10, 8343, Note_on_c, 10, 74, 89
4, 8386, Note_on_c, 2, 53, 104
4, 8386, Note_on_c, 2, 65, 104
4, 8389, Note_on_c, 2, 63, 0
9, 8389, Note_on_c, 8, 86, 0
10, 8389, Note_on_c, 10, 74, 0
9, 8391, Note_on_c, 8, 84, 96
10, 8391, Note_on_c, 10, 53, 114
10, 8391, Note_on_c, 10, 72, 91
10, 8392, Note_on_c, 10, 48, 0
9, 8476, Note_on_c, 8, 84, 0
10, 8476, Note_on_c, 10, 72, 0
9, 8480, Note_on_c, 8, 79, 97
10, 8480, Note_on_c, 10, 67, 92
4, 8490, Note_on_c, 2, 58, 0
9, 8508, Note_on_c, 8, 79, 0
10, 8508, Note_on_c, 10, 67, 0
4, 8510, Note_on_c, 2, 60, 104
9, 8516, Note_on_c, 8, 81, 97
10, 8516, Note_on_c, 10, 69, 92
13, 8520, Note_on_c, 9, 38, 63
13, 8534, Note_on_c, 9, 38, 0
13, 8561, Note_on_c, 9, 38, 61
13, 8574, Note_on_c, 9, 38, 0
13, 8597, Note_on_c, 9, 38, 61
10, 8607, Note_on_c, 10, 63, 0
13, 8613, Note_on_c, 9, 38, 0
4, 8614, Note_on_c, 2, 65, 0
10, 8618, Note_on_c, 10, 53, 0
4, 8619, Note_on_c, 2, 60, 0
4, 8624, Note_on_c, 2, 53, 0
9, 8628, Note_on_c, 8, 81, 0
10, 8628, Note_on_c, 10, 69, 0
5, 8630, Note_on_c, 3, 77, 114
10, 8638, Note_on_c, 10, 41, 114
1, 8640, Tempo, 576923
13, 8640, Note_on_c, 9, 38, 76
10, 8642, Note_on_c, 10, 53, 114
4, 8643, Note_on_c, 2, 65, 103
9, 8643, Note_on_c, 8, 89, 86
13, 8646, Note_on_c, 9, 38, 0
13, 8648, Note_on_c, 9, 38, 50
13, 8654, Note_on_c, 9, 38, 0
13, 8656, Note_on_c, 9, 38, 52
13, 8661, Note_on_c, 9, 38, 0
13, 8665, Note_on_c, 9, 38, 45
13, 8675, Note_on_c, 9, 38, 0
4, 8694, Note_on_c, 2, 65, 0
10, 8702, Note_on_c, 10, 41, 0
10, 8703, Note_on_c, 10, 53, 0
5, 8706, Note_on_c, 3, 77, 0
9, 8711, Note_on_c, 8, 89, 0
13, 8723, Note_on_c, 9, 38, 76
1, 8725, Tempo, 576923
5, 8725, Note_on_c, 3, 77, 103
1, 8730, Tempo, 571429
10, 8730, Note_on_c, 10, 41, 114
10, 8730, Note_on_c, 10, 53, 114
4, 8732, Note_on_c, 2, 65, 103
9, 8732, Note_on_c, 8, 89, 88
13, 8739, Note_on_c, 9, 38, 0
5, 8745, Note_on_c, 3, 77, 0
4, 8752, Note_on_c, 2, 65, 0
9, 8752, Note_on_c, 8, 89, 0
9, 8755, Note_on_c, 8, 94, 91
4, 8756, Note_on_c, 2, 70, 103
10, 8756, Note_on_c, 10, 41, 0
10, 8756, Note_on_c, 10, 53, 0
9, 8757, Note_on_c, 8, 90, 91
10, 8758, Note_on_c, 10, 36, 114
13, 8758, Note_on_c, 9, 38, 66
5, 8760, Note_on_c, 3, 82, 103
5, 8761, Note_on_c, 3, 78, 103
10, 8763, Note_on_c, 10, 48, 114
4, 8767, Note_on_c, 2, 66, 103
5, 8783, Note_on_c, 3, 78, 0
9, 8808, Note_on_c, 8, 90, 0
13, 8811, Note_on_c, 9, 38, 0
1, 8815, Tempo, 566038
9, 8815, Note_on_c, 8, 94, 0
1, 8820, Tempo, 560748
5, 8820, Note_on_c, 3, 82, 0
10, 8834, Note_on_c, 10, 36, 0
10, 8836, Note_on_c, 10, 48, 0
4, 8837, Note_on_c, 2, 66, 0
5, 8846, Note_on_c, 3, 77, 103
5, 8846, Note_on_c, 3, 80, 103
10, 8850, Note_on_c, 10, 38, 114
10, 8851, Note_on_c, 10, 50, 114
4, 8853, Note_on_c, 2, 65, 103
9, 8853, Note_on_c, 8, 89, 90
4, 8857, Note_on_c, 2, 68, 103
9, 8857, Note_on_c, 8, 92, 94
5, 8860, Note_on_c, 3, 80, 0
5, 8864, Note_on_c, 3, 77, 0
10, 8869, Note_on_c, 10, 38, 0
4, 8871, Note_on_c, 2, 65, 0
9, 8871, Note_on_c, 8, 89, 0
4, 8874, Note_on_c, 2, 68, 0
9, 8874, Note_on_c, 8, 92, 0
9, 8875, Note_on_c, 8, 90, 95
10, 8876, Note_on_c, 10, 50, 0
9, 8877, Note_on_c, 8, 87, 95
5, 8880, Note_on_c, 3, 78, 103
10, 8880, Note_on_c, 10, 39, 114
5, 8881, Note_on_c, 3, 75, 103
10, 8881, Note_on_c, 10, 51, 114
4, 8885, Note_on_c, 2, 66, 103
4, 8887, Note_on_c, 2, 63, 103
5, 8900, Note_on_c, 3, 75, 0
1, 8905, Tempo, 555556
1, 8910, Tempo, 550459
9, 8929, Note_on_c, 8, 90, 0
9, 8931, Note_on_c, 8, 87, 0
5, 8940, Note_on_c, 3, 78, 0
10, 8947, Note_on_c, 10, 51, 0
10, 8949, Note_on_c, 10, 39, 0
4, 8958, Note_on_c, 2, 66, 0
4, 8960, Note_on_c, 2, 63, 0
5, 8970, Note_on_c, 3, 77, 103
4, 8971, Note_on_c, 2, 61, 103
4, 8971, Note_on_c, 2, 65, 103
5, 8971, Note_on_c, 3, 73, 103
9, 8971, Note_on_c, 8, 85, 97
9, 8971, Note_on_c, 8, 89, 97
10, 8972, Note_on_c, 10, 53, 114
10, 8975, Note_on_c, 10, 41, 114
5, 8984, Note_on_c, 3, 73, 0
4, 8987, Note_on_c, 2, 61, 0
9, 8987, Note_on_c, 8, 85, 0
5, 8988, Note_on_c, 3, 77, 0
4, 8991, Note_on_c, 2, 65, 0
9, 8991, Note_on_c, 8, 89, 0
10, 8991, Note_on_c, 10, 41, 0
1, 8995, Tempo, 550459
10, 8995, Note_on_c, 10, 53, 0
1, 9000, Tempo, 540541
9, 9001, Note_on_c, 8, 87, 99
10, 9001, Note_on_c, 10, 54, 114
5, 9003, Note_on_c, 3, 75, 103
10, 9003, Note_on_c, 10, 42, 114
5, 9005, Note_on_c, 3, 72, 103
4, 9006, Note_on_c, 2, 63, 103
4, 9007, Note_on_c, 2, 60, 103
9, 9007, Note_on_c, 8, 84, 99
5, 9035, Note_on_c, 3, 72, 0
9, 9046, Note_on_c, 8, 87, 0
9, 9054, Note_on_c, 8, 84, 0
5, 9063, Note_on_c, 3, 75, 0
4, 9069, Note_on_c, 2, 63, 0
10, 9072, Note_on_c, 10, 54, 0
4, 9073, Note_on_c, 2, 60, 0
10, 9078, Note_on_c, 10, 42, 0
4, 9088, Note_on_c, 2, 58, 103
9, 9088, Note_on_c, 8, 82, 101
5, 9092, Note_on_c, 3, 73, 103
5, 9093, Note_on_c, 3, 70, 103
4, 9097, Note_on_c, 2, 61, 103
9, 9097, Note_on_c, 8, 85, 102
10, 9100, Note_on_c, 10, 44, 114
10, 9100, Note_on_c, 10, 56, 114
4, 9104, Note_on_c, 2, 58, 0
9, 9104, Note_on_c, 8, 82, 0
5, 9106, Note_on_c, 3, 73, 0
5, 9107, Note_on_c, 3, 70, 0
10, 9113, Note_on_c, 10, 44, 0
4, 9115, Note_on_c, 2, 61, 0
9, 9115, Note_on_c, 8, 85, 0
10, 9116, Note_on_c, 10, 56, 0
4, 9120, Note_on_c, 2, 56, 103
8, 9120, Control_c, 7, 18, 0
8, 9120, End_track
9, 9120, Note_on_c, 8, 80, 102
5, 9122, Note_on_c, 3, 72, 103
4, 9125, Note_on_c, 2, 60, 103
5, 9125, Note_on_c, 3, 68, 103
9, 9125, Note_on_c, 8, 84, 102
10, 9127, Note_on_c, 10, 46, 114
10, 9128, Note_on_c, 10, 58, 114
5, 9155, Note_on_c, 3, 68, 0
4, 9169, Note_on_c, 2, 56, 0
4, 9169, Note_on_c, 2, 60, 0
9, 9169, Note_on_c, 8, 80, 0
9, 9174, Note_on_c, 8, 84, 0
5, 9183, Note_on_c, 3, 72, 0
4, 9184, Note_on_c, 2, 70, 0
10, 9195, Note_on_c, 10, 46, 0
10, 9199, Note_on_c, 10, 58, 0
9, 9203, Note_on_c, 8, 82, 106
4, 9205, Note_on_c, 2, 54, 103
9, 9205, Note_on_c, 8, 78, 106
5, 9206, Note_on_c, 3, 70, 103
4, 9208, Note_on_c, 2, 58, 103
9, 9214, Note_on_c, 8, 82, 0
4, 9219, Note_on_c, 2, 58, 0
5, 9219, Note_on_c, 3, 70, 0
4, 9225, Note_on_c, 2, 54, 0
9, 9225, Note_on_c, 8, 78, 0
1, 9235, Tempo, 540541
1, 9240, Tempo, 512821
6, 9240, Note_on_c, 4, 60, 127
6, 9240, Note_on_c, 4, 65, 127
10, 9240, Note_on_c, 10, 53, 127
12, 9240, Note_on_c, 5, 41, 118
13, 9240, Note_on_c, 9, 38, 94
7, 9241, Note_on_c, 6, 89, 74
9, 9242, Note_on_c, 8, 89, 77
13, 9248, Note_on_c, 9, 57, 82
5, 9251, Note_on_c, 3, 77, 111
13, 9256, Note_on_c, 9, 38, 0
12, 9259, Note_on_c, 5, 41, 0
6, 9270, Note_on_c, 4, 60, 0
9, 9330, Note_on_c, 8, 65, 100
12, 9330, Note_on_c, 5, 41, 62
13, 9330, Note_on_c, 9, 38, 68
7, 9342, Note_on_c, 6, 89, 0
13, 9342, Note_on_c, 9, 38, 0
9, 9352, Note_on_c, 8, 65, 0
12, 9353, Note_on_c, 5, 41, 0
1, 9360, Tempo, 504202
9, 9360, Note_on_c, 8, 65, 114
12, 9360, Note_on_c, 5, 41, 111
13, 9360, Note_on_c, 9, 38, 85
13, 9363, Note_on_c, 9, 57, 0
13, 9376, Note_on_c, 9, 38, 0
12, 9380, Note_on_c, 5, 41, 0
9, 9382, Note_on_c, 8, 65, 0
10, 9432, Note_on_c, 10, 53, 0
9, 9450, Note_on_c, 8, 65, 85
10, 9450, Note_on_c, 10, 53, 98
12, 9450, Note_on_c, 5, 41, 62
13, 9450, Note_on_c, 9, 38, 51
10, 9460, Control_c, 10, 18, 65
10, 9460, Control_c, 10, 7, 76
13, 9462, Note_on_c, 9, 38, 0
6, 9465, Note_on_c, 4, 65, 0
12, 9469, Note_on_c, 5, 41, 0
9, 9472, Note_on_c, 8, 65, 0
10, 9477, Note_on_c, 10, 53, 0
6, 9480, Note_on_c, 4, 53, 127
9, 9480, Note_on_c, 8, 65, 114
10, 9480, Note_on_c, 10, 53, 124
12, 9480, Note_on_c, 5, 41, 105
13, 9480, Note_on_c, 9, 38, 92
5, 9487, Note_on_c, 3, 77, 0
13, 9493, Note_on_c, 9, 38, 0
6, 9495, Note_on_c, 4, 53, 0
12, 9498, Note_on_c, 5, 41, 0
9, 9502, Note_on_c, 8, 65, 0
10, 9507, Note_on_c, 10, 53, 0
6, 9510, Note_on_c, 4, 53, 126
9, 9510, Note_on_c, 8, 65, 85
10, 9510, Note_on_c, 10, 53, 98
12, 9510, Note_on_c, 5, 41, 72
13, 9510, Note_on_c, 9, 38, 67
6, 9527, Note_on_c, 4, 53, 0
13, 9528, Note_on_c, 9, 38, 0
12, 9529, Note_on_c, 5, 41, 0
9, 9532, Note_on_c, 8, 65, 0
10, 9537, Note_on_c, 10, 53, 0
6, 9540, Note_on_c, 4, 53, 127
9, 9540, Note_on_c, 8, 65, 85
10, 9540, Note_on_c, 10, 53, 98
12, 9540, Note_on_c, 5, 41, 99
13, 9540, Note_on_c, 9, 38, 84
13, 9550, Note_on_c, 9, 38, 0
6, 9555, Note_on_c, 4, 53, 0
12, 9556, Note_on_c, 5, 41, 0
9, 9562, Note_on_c, 8, 65, 0
10, 9567, Note_on_c, 10, 53, 0
1, 9570, Tempo, 504202
6, 9570, Note_on_c, 4, 53, 127
9, 9570, Note_on_c, 8, 65, 85
10, 9570, Note_on_c, 10, 53, 98
12, 9570, Note_on_c, 5, 41, 69
13, 9570, Note_on_c, 9, 38, 49
1, 9575, Tempo, 495868
6, 9587, Note_on_c, 4, 53, 0
13, 9588, Note_on_c, 9, 38, 0
12, 9591, Note_on_c, 5, 41, 0
9, 9592, Note_on_c, 8, 65, 0
9, 9597, Note_on_c, 8, 89, 0
10, 9597, Note_on_c, 10, 53, 0
6, 9600, Note_on_c, 4, 53, 127
9, 9600, Note_on_c, 8, 65, 114
10, 9600, Note_on_c, 10, 53, 124
12, 9600, Note_on_c, 5, 41, 105
13, 9600, Note_on_c, 9, 38, 92
13, 9618, Note_on_c, 9, 38, 0
6, 9619, Note_on_c, 4, 53, 0
12, 9620, Note_on_c, 5, 41, 0
9, 9622, Note_on_c, 8, 65, 0
10, 9627, Note_on_c, 10, 53, 0
9, 9690, Note_on_c, 8, 65, 85
10, 9690, Note_on_c, 10, 53, 98
12, 9690, Note_on_c, 5, 41, 68
13, 9690, Note_on_c, 9, 38, 75
13, 9706, Note_on_c, 9, 38, 0
9, 9712, Note_on_c, 8, 65, 0
12, 9712, Note_on_c, 5, 41, 0
10, 9717, Note_on_c, 10, 53, 0
9, 9720, Note_on_c, 8, 65, 114
10, 9720, Note_on_c, 10, 53, 124
12, 9720, Note_on_c, 5, 41, 113
13, 9720, Note_on_c, 9, 38, 92
13, 9736, Note_on_c, 9, 38, 0
12, 9741, Note_on_c, 5, 41, 0
9, 9742, Note_on_c, 8, 65, 0
10, 9747, Note_on_c, 10, 53, 0
9, 9810, Note_on_c, 8, 65, 85
10, 9810, Note_on_c, 10, 53, 98
12, 9810, Note_on_c, 5, 41, 73
13, 9810, Note_on_c, 9, 38, 55
13, 9823, Note_on_c, 9, 38, 0
12, 9830, Note_on_c, 5, 41, 0
9, 9832, Note_on_c, 8, 65, 0
10, 9837, Note_on_c, 10, 53, 0
6, 9840, Note_on_c, 4, 53, 127
9, 9840, Note_on_c, 8, 65, 114
10, 9840, Note_on_c, 10, 53, 124
12, 9840, Note_on_c, 5, 41, 108
13, 9840, Note_on_c, 9, 38, 92
13, 9855, Note_on_c, 9, 38, 0
6, 9856, Note_on_c, 4, 53, 0
12, 9859, Note_on_c, 5, 41, 0
9, 9862, Note_on_c, 8, 65, 0
10, 9867, Note_on_c, 10, 53, 0
6, 9870, Note_on_c, 4, 53, 122
9, 9870, Note_on_c, 8, 65, 85
10, 9870, Note_on_c, 10, 53, 98
12, 9870, Note_on_c, 5, 41, 68
13, 9870, Note_on_c, 9, 38, 67
6, 9882, Note_on_c, 4, 53, 0
13, 9886, Note_on_c, 9, 38, 0
12, 9890, Note_on_c, 5, 41, 0
9, 9892, Note_on_c, 8, 65, 0
10, 9897, Note_on_c, 10, 53, 0
6, 9900, Note_on_c, 4, 53, 127
9, 9900, Note_on_c, 8, 65, 85
10, 9900, Note_on_c, 10, 53, 98
12, 9900, Note_on_c, 5, 41, 104
13, 9900, Note_on_c, 9, 38, 95
12, 9915, Note_on_c, 5, 41, 0
13, 9915, Note_on_c, 9, 38, 0
6, 9916, Note_on_c, 4, 53, 0
9, 9922, Note_on_c, 8, 65, 0
10, 9927, Note_on_c, 10, 53, 0
5, 9930, Note_on_c, 3, 63, 127
5, 9930, Note_on_c, 3, 67, 127
5, 9930, Note_on_c, 3, 70, 127
6, 9930, Note_on_c, 4, 53, 127
9, 9930, Note_on_c, 8, 65, 85
10, 9930, Note_on_c, 10, 53, 98
12, 9930, Note_on_c, 5, 41, 68
13, 9930, Note_on_c, 9, 38, 68
5, 9944, Note_on_c, 3, 70, 0
5, 9946, Note_on_c, 3, 67, 0
5, 9947, Note_on_c, 3, 63, 0
6, 9948, Note_on_c, 4, 53, 0
13, 9950, Note_on_c, 9, 38, 0
12, 9951, Note_on_c, 5, 41, 0
9, 9952, Note_on_c, 8, 65, 0
10, 9957, Note_on_c, 10, 53, 0
5, 9960, Note_on_c, 3, 63, 127
5, 9960, Note_on_c, 3, 67, 127
5, 9960, Note_on_c, 3, 70, 127
6, 9960, Note_on_c, 4, 53, 127
9, 9960, Note_on_c, 8, 65, 114
10, 9960, Note_on_c, 10, 53, 124
12, 9960, Note_on_c, 5, 41, 106
13, 9960, Note_on_c, 9, 38, 100
13, 9978, Note_on_c, 9, 38, 0
6, 9979, Note_on_c, 4, 53, 0
12, 9980, Note_on_c, 5, 41, 0
9, 9982, Note_on_c, 8, 65, 0
10, 9987, Note_on_c, 10, 53, 0
9, 10050, Note_on_c, 8, 65, 85
10, 10050, Note_on_c, 10, 53, 98
12, 10050, Note_on_c, 5, 41, 72
13, 10050, Note_on_c, 9, 38, 73
5, 10068, Note_on_c, 3, 70, 0
13, 10068, Note_on_c, 9, 38, 0
12, 10070, Note_on_c, 5, 41, 0
9, 10072, Note_on_c, 8, 65, 0
5, 10073, Note_on_c, 3, 67, 0
5, 10074, Note_on_c, 3, 63, 0
10, 10077, Note_on_c, 10, 53, 0
5, 10080, Note_on_c, 3, 60, 112
5, 10080, Note_on_c, 3, 64, 127
5, 10080, Note_on_c, 3, 67, 117
9, 10080, Note_on_c, 8, 65, 127
10, 10080, Note_on_c, 10, 53, 127
12, 10080, Note_on_c, 5, 41, 111
13, 10080, Note_on_c, 9, 38, 83
13, 10098, Note_on_c, 9, 38, 0
12, 10101, Note_on_c, 5, 41, 0
9, 10102, Note_on_c, 8, 65, 0
10, 10107, Note_on_c, 10, 53, 0
5, 10111, Note_on_c, 3, 64, 0
5, 10133, Note_on_c, 3, 67, 0
5, 10135, Note_on_c, 3, 60, 0
5, 10170, Note_on_c, 3, 63, 127
5, 10170, Note_on_c, 3, 67, 127
5, 10170, Note_on_c, 3, 70, 127
9, 10170, Note_on_c, 8, 65, 96
10, 10170, Note_on_c, 10, 53, 110
12, 10170, Note_on_c, 5, 41, 65
13, 10170, Note_on_c, 9, 38, 52
5, 10186, Note_on_c, 3, 70, 0
5, 10188, Note_on_c, 3, 67, 0
13, 10188, Note_on_c, 9, 38, 0
5, 10190, Note_on_c, 3, 63, 0
12, 10191, Note_on_c, 5, 41, 0
9, 10192, Note_on_c, 8, 65, 0
10, 10197, Note_on_c, 10, 53, 0
5, 10200, Note_on_c, 3, 63, 123
5, 10200, Note_on_c, 3, 67, 127
5, 10200, Note_on_c, 3, 70, 127
6, 10200, Note_on_c, 4, 53, 127
9, 10200, Note_on_c, 8, 65, 127
10, 10200, Note_on_c, 10, 53, 127
12, 10200, Note_on_c, 5, 41, 106
13, 10200, Note_on_c, 9, 38, 89
13, 10215, Note_on_c, 9, 38, 0
6, 10216, Note_on_c, 4, 53, 0
12, 10220, Note_on_c, 5, 41, 0
9, 10222, Note_on_c, 8, 65, 0
10, 10227, Note_on_c, 10, 53, 0
6, 10230, Note_on_c, 4, 53, 123
9, 10230, Note_on_c, 8, 65, 96
10, 10230, Note_on_c, 10, 53, 110
12, 10230, Note_on_c, 5, 41, 71
13, 10230, Note_on_c, 9, 38, 58
6, 10243, Note_on_c, 4, 53, 0
12, 10246, Note_on_c, 5, 41, 0
13, 10246, Note_on_c, 9, 38, 0
9, 10252, Note_on_c, 8, 65, 0
10, 10257, Note_on_c, 10, 53, 0
6, 10260, Note_on_c, 4, 53, 127
9, 10260, Note_on_c, 8, 65, 96
10, 10260, Note_on_c, 10, 53, 110
12, 10260, Note_on_c, 5, 41, 102
13, 10260, Note_on_c, 9, 38, 88
6, 10273, Note_on_c, 4, 53, 0
13, 10273, Note_on_c, 9, 38, 0
12, 10279, Note_on_c, 5, 41, 0
9, 10282, Note_on_c, 8, 65, 0
10, 10287, Note_on_c, 10, 53, 0
6, 10290, Note_on_c, 4, 53, 123
9, 10290, Note_on_c, 8, 65, 96
10, 10290, Note_on_c, 10, 53, 110
12, 10290, Note_on_c, 5, 41, 71
13, 10290, Note_on_c, 9, 38, 64
12, 10308, Note_on_c, 5, 41, 0
6, 10309, Note_on_c, 4, 53, 0
5, 10311, Note_on_c, 3, 67, 0
13, 10311, Note_on_c, 9, 38, 0
9, 10312, Note_on_c, 8, 65, 0
10, 10317, Note_on_c, 10, 53, 0
5, 10320, Note_on_c, 3, 60, 116
5, 10320, Note_on_c, 3, 64, 127
5, 10320, Note_on_c, 3, 67, 127
6, 10320, Note_on_c, 4, 53, 127
9, 10320, Note_on_c, 8, 65, 127
10, 10320, Note_on_c, 10, 53, 127
12, 10320, Note_on_c, 5, 41, 105
13, 10320, Note_on_c, 9, 38, 88
5, 10321, Note_on_c, 3, 63, 0
5, 10328, Note_on_c, 3, 70, 0
13, 10336, Note_on_c, 9, 38, 0
9, 10342, Note_on_c, 8, 65, 0
12, 10343, Note_on_c, 5, 41, 0
6, 10345, Note_on_c, 4, 53, 0
10, 10347, Note_on_c, 10, 53, 0
5, 10356, Note_on_c, 3, 64, 0
5, 10360, Note_on_c, 3, 67, 0
5, 10370, Note_on_c, 3, 60, 0
5, 10410, Note_on_c, 3, 66, 127
5, 10410, Note_on_c, 3, 70, 127
5, 10410, Note_on_c, 3, 73, 127
9, 10410, Note_on_c, 8, 65, 96
10, 10410, Note_on_c, 10, 53, 110
12, 10410, Note_on_c, 5, 41, 78
13, 10410, Note_on_c, 9, 38, 59
5, 10423, Note_on_c, 3, 73, 0
5, 10426, Note_on_c, 3, 70, 0
13, 10428, Note_on_c, 9, 38, 0
5, 10431, Note_on_c, 3, 66, 0
9, 10432, Note_on_c, 8, 65, 0
12, 10432, Note_on_c, 5, 41, 0
10, 10437, Note_on_c, 10, 53, 0
5, 10440, Note_on_c, 3, 66, 116
5, 10440, Note_on_c, 3, 70, 127
5, 10440, Note_on_c, 3, 73, 127
9, 10440, Note_on_c, 8, 65, 127
10, 10440, Note_on_c, 10, 53, 127
12, 10440, Note_on_c, 5, 41, 111
13, 10440, Note_on_c, 9, 38, 94
13, 10456, Note_on_c, 9, 38, 0
12, 10461, Note_on_c, 5, 41, 0
9, 10462, Note_on_c, 8, 65, 0
10, 10467, Note_on_c, 10, 53, 0
9, 10530, Note_on_c, 8, 65, 96
10, 10530, Note_on_c, 10, 53, 110
12, 10530, Note_on_c, 5, 41, 73
13, 10530, Note_on_c, 9, 38, 57
5, 10537, Note_on_c, 3, 70, 0
13, 10548, Note_on_c, 9, 38, 0
12, 10549, Note_on_c, 5, 41, 0
9, 10552, Note_on_c, 8, 65, 0
10, 10557, Note_on_c, 10, 53, 0
5, 10560, Note_on_c, 3, 65, 127
5, 10560, Note_on_c, 3, 66, 0
5, 10560, Note_on_c, 3, 69, 127
5, 10560, Note_on_c, 3, 72, 127
6, 10560, Note_on_c, 4, 53, 127
9, 10560, Note_on_c, 8, 65, 127
10, 10560, Note_on_c, 10, 53, 127
12, 10560, Note_on_c, 5, 41, 105
13, 10560, Note_on_c, 9, 38, 90
5, 10565, Note_on_c, 3, 73, 0
6, 10576, Note_on_c, 4, 53, 0
13, 10578, Note_on_c, 9, 38, 0
12, 10579, Note_on_c, 5, 41, 0
9, 10582, Note_on_c, 8, 65, 0
10, 10587, Note_on_c, 10, 53, 0
6, 10590, Note_on_c, 4, 53, 127
9, 10590, Note_on_c, 8, 65, 96
10, 10590, Note_on_c, 10, 53, 110
12, 10590, Note_on_c, 5, 41, 73
13, 10590, Note_on_c, 9, 38, 51
5, 10593, Note_on_c, 3, 69, 0
5, 10596, Note_on_c, 3, 72, 0
5, 10600, Note_on_c, 3, 65, 0
13, 10606, Note_on_c, 9, 38, 0
6, 10608, Note_on_c, 4, 53, 0
9, 10612, Note_on_c, 8, 65, 0
12, 10612, Note_on_c, 5, 41, 0
10, 10617, Note_on_c, 10, 53, 0
5, 10620, Note_on_c, 3, 66, 117
5, 10620, Note_on_c, 3, 70, 127
5, 10620, Note_on_c, 3, 73, 126
6, 10620, Note_on_c, 4, 53, 127
9, 10620, Note_on_c, 8, 65, 96
10, 10620, Note_on_c, 10, 53, 110
12, 10620, Note_on_c, 5, 41, 94
13, 10620, Note_on_c, 9, 38, 85
6, 10628, Note_on_c, 4, 53, 0
13, 10633, Note_on_c, 9, 38, 0
12, 10635, Note_on_c, 5, 41, 0
5, 10641, Note_on_c, 3, 70, 0
9, 10642, Note_on_c, 8, 65, 0
10, 10647, Note_on_c, 10, 53, 0
5, 10648, Note_on_c, 3, 73, 0
5, 10650, Note_on_c, 3, 65, 110
5, 10650, Note_on_c, 3, 69, 127
5, 10650, Note_on_c, 3, 72, 123
6, 10650, Note_on_c, 4, 53, 127
9, 10650, Note_on_c, 8, 65, 96
10, 10650, Note_on_c, 10, 53, 110
12, 10650, Note_on_c, 5, 41, 77
13, 10650, Note_on_c, 9, 38, 62
5, 10651, Note_on_c, 3, 66, 0
6, 10667, Note_on_c, 4, 53, 0
13, 10670, Note_on_c, 9, 38, 0
9, 10672, Note_on_c, 8, 65, 0
12, 10673, Note_on_c, 5, 41, 0
5, 10677, Note_on_c, 3, 69, 0
10, 10677, Note_on_c, 10, 53, 0
5, 10680, Note_on_c, 3, 63, 127
5, 10680, Note_on_c, 3, 67, 127
5, 10680, Note_on_c, 3, 70, 116
6, 10680, Note_on_c, 4, 53, 127
9, 10680, Note_on_c, 8, 65, 127
10, 10680, Note_on_c, 10, 53, 127
12, 10680, Note_on_c, 5, 41, 107
13, 10680, Note_on_c, 9, 38, 87
5, 10681, Note_on_c, 3, 72, 0
5, 10687, Note_on_c, 3, 65, 0
5, 10698, Note_on_c, 3, 63, 0
5, 10698, Note_on_c, 3, 67, 0
5, 10698, Note_on_c, 3, 70, 0
13, 10699, Note_on_c, 9, 38, 0
6, 10701, Note_on_c, 4, 53, 0
9, 10702, Note_on_c, 8, 65, 0
12, 10703, Note_on_c, 5, 41, 0
10, 10707, Note_on_c, 10, 53, 0
5, 10740, Note_on_c, 3, 60, 127
5, 10740, Note_on_c, 3, 64, 127
5, 10740, Note_on_c, 3, 67, 127
9, 10770, Note_on_c, 8, 65, 96
10, 10770, Note_on_c, 10, 53, 110
12, 10770, Note_on_c, 5, 41, 73
13, 10770, Note_on_c, 9, 38, 66
13, 10786, Note_on_c, 9, 38, 0
9, 10792, Note_on_c, 8, 65, 0
12, 10792, Note_on_c, 5, 41, 0
10, 10797, Note_on_c, 10, 53, 0
9, 10800, Note_on_c, 8, 65, 127
10, 10800, Note_on_c, 10, 53, 127
12, 10800, Note_on_c, 5, 41, 107
13, 10800, Note_on_c, 9, 38, 89
13, 10815, Note_on_c, 9, 38, 0
9, 10822, Note_on_c, 8, 65, 0
12, 10822, Note_on_c, 5, 41, 0
10, 10827, Note_on_c, 10, 53, 0
9, 10890, Note_on_c, 8, 65, 96
10, 10890, Note_on_c, 10, 53, 110
12, 10890, Note_on_c, 5, 41, 68
13, 10890, Note_on_c, 9, 38, 60
13, 10908, Note_on_c, 9, 38, 0
12, 10911, Note_on_c, 5, 41, 0
9, 10912, Note_on_c, 8, 65, 0
10, 10917, Note_on_c, 10, 53, 0
6, 10920, Note_on_c, 4, 53, 127
9, 10920, Note_on_c, 8, 61, 127
10, 10920, Note_on_c, 10, 49, 127
12, 10920, Note_on_c, 5, 41, 105
13, 10920, Note_on_c, 9, 38, 89
9, 10927, Note_on_c, 8, 61, 111
9, 10934, Note_on_c, 8, 61, 0
6, 10935, Note_on_c, 4, 53, 0
9, 10935, Note_on_c, 8, 61, 0
13, 10936, Note_on_c, 9, 38, 0
12, 10940, Note_on_c, 5, 41, 0
10, 10947, Note_on_c, 10, 49, 0
6, 10950, Note_on_c, 4, 53, 127
9, 10950, Note_on_c, 8, 61, 96
10, 10950, Note_on_c, 10, 49, 110
12, 10950, Note_on_c, 5, 41, 71
13, 10950, Note_on_c, 9, 38, 55
9, 10956, Note_on_c, 8, 61, 99
12, 10960, Note_on_c, 5, 41, 0
9, 10962, Note_on_c, 8, 61, 0
9, 10962, Note_on_c, 8, 61, 0
6, 10966, Note_on_c, 4, 53, 0
13, 10967, Note_on_c, 9, 38, 0
10, 10977, Note_on_c, 10, 49, 0
6, 10980, Note_on_c, 4, 53, 127
9, 10980, Note_on_c, 8, 61, 96
10, 10980, Note_on_c, 10, 49, 110
12, 10980, Note_on_c, 5, 41, 102
13, 10980, Note_on_c, 9, 38, 85
9, 10986, Note_on_c, 8, 61, 111
6, 10990, Note_on_c, 4, 53, 0
9, 10992, Note_on_c, 8, 61, 0
9, 10992, Note_on_c, 8, 61, 0
13, 10993, Note_on_c, 9, 38, 0
12, 10999, Note_on_c, 5, 41, 0
10, 11007, Note_on_c, 10, 49, 0
6, 11010, Note_on_c, 4, 53, 127
9, 11010, Note_on_c, 8, 61, 96
10, 11010, Note_on_c, 10, 49, 110
12, 11010, Note_on_c, 5, 41, 68
13, 11010, Note_on_c, 9, 38, 57
9, 11013, Note_on_c, 8, 61, 83
9, 11016, Note_on_c, 8, 61, 0
9, 11016, Note_on_c, 8, 61, 0
13, 11028, Note_on_c, 9, 38, 0
6, 11029, Note_on_c, 4, 53, 0
12, 11029, Note_on_c, 5, 41, 0
10, 11037, Note_on_c, 10, 49, 0
6, 11040, Note_on_c, 4, 53, 127
9, 11040, Note_on_c, 8, 65, 127
10, 11040, Note_on_c, 10, 53, 127
12, 11040, Note_on_c, 5, 41, 111
13, 11040, Note_on_c, 9, 38, 88
13, 11060, Note_on_c, 9, 38, 0
6, 11062, Note_on_c, 4, 53, 0
9, 11062, Note_on_c, 8, 65, 0
12, 11065, Note_on_c, 5, 41, 0
10, 11067, Note_on_c, 10, 53, 0
9, 11130, Note_on_c, 8, 65, 96
10, 11130, Note_on_c, 10, 53, 110
12, 11130, Note_on_c, 5, 41, 73
13, 11130, Note_on_c, 9, 38, 66
13, 11148, Note_on_c, 9, 38, 0
9, 11152, Note_on_c, 8, 65, 0
12, 11154, Note_on_c, 5, 41, 0
10, 11157, Note_on_c, 10, 53, 0
9, 11160, Note_on_c, 8, 65, 127
10, 11160, Note_on_c, 10, 53, 127
12, 11160, Note_on_c, 5, 41, 112
13, 11160, Note_on_c, 9, 38, 89
13, 11179, Note_on_c, 9, 38, 0
9, 11182, Note_on_c, 8, 65, 0
12, 11183, Note_on_c, 5, 41, 0
10, 11187, Note_on_c, 10, 53, 0
9, 11250, Note_on_c, 8, 65, 96
10, 11250, Note_on_c, 10, 53, 110
12, 11250, Note_on_c, 5, 41, 65
13, 11250, Note_on_c, 9, 38, 60
13, 11268, Note_on_c, 9, 38, 0
12, 11269, Note_on_c, 5, 41, 0
9, 11272, Note_on_c, 8, 65, 0
10, 11277, Note_on_c, 10, 53, 0
6, 11280, Note_on_c, 4, 53, 127
9, 11280, Note_on_c, 8, 61, 110
9, 11280, Note_on_c, 8, 61, 127
10, 11280, Note_on_c, 10, 49, 127
12, 11280, Note_on_c, 5, 41, 106
13, 11280, Note_on_c, 9, 38, 85
9, 11281, Note_on_c, 8, 61, 0
9, 11296, Note_on_c, 8, 61, 0
13, 11297, Note_on_c, 9, 38, 0
6, 11298, Note_on_c, 4, 53, 0
12, 11301, Note_on_c, 5, 41, 0
10, 11307, Note_on_c, 10, 49, 0
9, 11308, Note_on_c, 8, 61, 95
6, 11310, Note_on_c, 4, 53, 116
9, 11310, Note_on_c, 8, 61, 0
9, 11310, Note_on_c, 8, 61, 96
10, 11310, Note_on_c, 10, 49, 110
12, 11310, Note_on_c, 5, 41, 78
13, 11310, Note_on_c, 9, 38, 61
9, 11311, Note_on_c, 8, 61, 0
6, 11329, Note_on_c, 4, 53, 0
12, 11329, Note_on_c, 5, 41, 0
13, 11329, Note_on_c, 9, 38, 0
9, 11337, Note_on_c, 8, 61, 112
10, 11337, Note_on_c, 10, 49, 0
6, 11340, Note_on_c, 4, 53, 127
9, 11340, Note_on_c, 8, 61, 96
10, 11340, Note_on_c, 10, 49, 110
12, 11340, Note_on_c, 5, 41, 107
13, 11340, Note_on_c, 9, 38, 88
9, 11342, Note_on_c, 8, 61, 0
9, 11342, Note_on_c, 8, 61, 0
6, 11347, Note_on_c, 4, 53, 0
12, 11356, Note_on_c, 5, 41, 0
13, 11356, Note_on_c, 9, 38, 0
9, 11363, Note_on_c, 8, 61, 83
10, 11367, Note_on_c, 10, 49, 0
6, 11370, Note_on_c, 4, 53, 115
9, 11370, Note_on_c, 8, 61, 96
10, 11370, Note_on_c, 10, 49, 110
12, 11370, Note_on_c, 5, 41, 78
13, 11370, Note_on_c, 9, 38, 68
9, 11376, Note_on_c, 8, 61, 0
9, 11376, Note_on_c, 8, 61, 0
6, 11386, Note_on_c, 4, 53, 0
13, 11391, Note_on_c, 9, 38, 0
12, 11396, Note_on_c, 5, 41, 0
10, 11397, Note_on_c, 10, 49, 0
6, 11400, Note_on_c, 4, 53, 127
9, 11400, Note_on_c, 8, 65, 127
10, 11400, Note_on_c, 10, 53, 127
12, 11400, Note_on_c, 5, 41, 106
13, 11400, Note_on_c, 9, 38, 89
9, 11422, Note_on_c, 8, 65, 0
13, 11422, Note_on_c, 9, 38, 0
6, 11423, Note_on_c, 4, 53, 0
12, 11423, Note_on_c, 5, 41, 0
10, 11427, Note_on_c, 10, 53, 0
9, 11490, Note_on_c, 8, 65, 96
10, 11490, Note_on_c, 10, 53, 110
12, 11490, Note_on_c, 5, 41, 73
13, 11490, Note_on_c, 9, 38, 72
13, 11509, Note_on_c, 9, 38, 0
12, 11510, Note_on_c, 5, 41, 0
9, 11512, Note_on_c, 8, 65, 0
10, 11517, Note_on_c, 10, 53, 0
9, 11520, Note_on_c, 8, 65, 127
10, 11520, Note_on_c, 10, 53, 127
12, 11520, Note_on_c, 5, 41, 107
13, 11520, Note_on_c, 9, 38, 89
12, 11541, Note_on_c, 5, 41, 0
13, 11541, Note_on_c, 9, 38, 0
9, 11542, Note_on_c, 8, 65, 0
10, 11547, Note_on_c, 10, 53, 0
9, 11610, Note_on_c, 8, 65, 96
10, 11610, Note_on_c, 10, 53, 110
12, 11610, Note_on_c, 5, 41, 79
13, 11610, Note_on_c, 9, 38, 61
13, 11629, Note_on_c, 9, 38, 0
9, 11632, Note_on_c, 8, 65, 0
12, 11633, Note_on_c, 5, 41, 0
10, 11637, Note_on_c, 10, 53, 0
9, 11638, Note_on_c, 8, 61, 106
6, 11640, Note_on_c, 4, 53, 127
9, 11640, Note_on_c, 8, 61, 0
9, 11640, Note_on_c, 8, 61, 127
10, 11640, Note_on_c, 10, 49, 127
12, 11640, Note_on_c, 5, 41, 112
13, 11640, Note_on_c, 9, 38, 87
9, 11641, Note_on_c, 8, 61, 0
6, 11656, Note_on_c, 4, 53, 0
13, 11656, Note_on_c, 9, 38, 0
12, 11659, Note_on_c, 5, 41, 0
10, 11667, Note_on_c, 10, 49, 0
9, 11668, Note_on_c, 8, 61, 84
6, 11670, Note_on_c, 4, 53, 127
9, 11670, Note_on_c, 8, 61, 0
9, 11670, Note_on_c, 8, 61, 96
10, 11670, Note_on_c, 10, 49, 110
12, 11670, Note_on_c, 5, 41, 82
13, 11670, Note_on_c, 9, 38, 69
9, 11671, Note_on_c, 8, 61, 0
5, 11685, Note_on_c, 3, 64, 0
12, 11686, Note_on_c, 5, 41, 0
6, 11688, Note_on_c, 4, 53, 0
13, 11689, Note_on_c, 9, 38, 0
5, 11690, Note_on_c, 3, 60, 0
10, 11697, Note_on_c, 10, 49, 0
5, 11700, Note_on_c, 3, 67, 0
6, 11700, Note_on_c, 4, 53, 127
9, 11700, Note_on_c, 8, 61, 101
9, 11700, Note_on_c, 8, 61, 96
10, 11700, Note_on_c, 10, 49, 110
12, 11700, Note_on_c, 5, 41, 106
13, 11700, Note_on_c, 9, 38, 86
9, 11701, Note_on_c, 8, 61, 0
9, 11711, Note_on_c, 8, 61, 0
6, 11712, Note_on_c, 4, 53, 0
13, 11715, Note_on_c, 9, 38, 0
12, 11718, Note_on_c, 5, 41, 0
9, 11723, Note_on_c, 8, 61, 99
10, 11727, Note_on_c, 10, 49, 0
6, 11730, Note_on_c, 4, 53, 127
9, 11730, Note_on_c, 8, 61, 96
10, 11730, Note_on_c, 10, 49, 110
12, 11730, Note_on_c, 5, 41, 95
13, 11730, Note_on_c, 9, 38, 75
9, 11736, Note_on_c, 8, 61, 0
9, 11736, Note_on_c, 8, 61, 0
6, 11746, Note_on_c, 4, 53, 0
13, 11748, Note_on_c, 9, 38, 0
12, 11753, Note_on_c, 5, 41, 0
10, 11757, Note_on_c, 10, 49, 0
6, 11760, Note_on_c, 4, 53, 127
9, 11760, Note_on_c, 8, 65, 127
10, 11760, Note_on_c, 10, 53, 127
12, 11760, Note_on_c, 5, 41, 87
13, 11760, Note_on_c, 9, 38, 75
13, 11773, Note_on_c, 9, 38, 0
12, 11776, Note_on_c, 5, 41, 0
9, 11782, Note_on_c, 8, 65, 0
10, 11787, Note_on_c, 10, 53, 0
6, 11790, Note_on_c, 4, 53, 0
9, 11790, Note_on_c, 8, 65, 96
10, 11790, Note_on_c, 10, 53, 110
12, 11790, Note_on_c, 5, 41, 76
13, 11790, Note_on_c, 9, 38, 45
13, 11806, Note_on_c, 9, 38, 0
12, 11810, Note_on_c, 5, 41, 0
9, 11812, Note_on_c, 8, 65, 0
10, 11817, Note_on_c, 10, 53, 0
9, 11820, Note_on_c, 8, 65, 96
10, 11820, Note_on_c, 10, 53, 110
12, 11820, Note_on_c, 5, 41, 86
13, 11820, Note_on_c, 9, 38, 74
12, 11838, Note_on_c, 5, 41, 0
13, 11838, Note_on_c, 9, 38, 0
9, 11842, Note_on_c, 8, 65, 0
10, 11847, Note_on_c, 10, 53, 0
6, 11850, Note_on_c, 4, 53, 127
9, 11850, Note_on_c, 8, 65, 96
10, 11850, Note_on_c, 10, 53, 110
12, 11850, Note_on_c, 5, 41, 77
13, 11850, Note_on_c, 9, 38, 59
13, 11867, Note_on_c, 9, 38, 0
12, 11868, Note_on_c, 5, 41, 0
6, 11870, Note_on_c, 4, 53, 0
9, 11872, Note_on_c, 8, 65, 0
10, 11877, Note_on_c, 10, 53, 0
6, 11880, Note_on_c, 4, 56, 127
9, 11880, Note_on_c, 8, 60, 127
10, 11880, Note_on_c, 10, 48, 127
12, 11880, Note_on_c, 5, 36, 88
13, 11880, Note_on_c, 9, 38, 80
12, 11896, Note_on_c, 5, 36, 0
13, 11897, Note_on_c, 9, 38, 0
6, 11898, Note_on_c, 4, 56, 0
9, 11902, Note_on_c, 8, 60, 0
10, 11907, Note_on_c, 10, 48, 0
6, 11910, Note_on_c, 4, 56, 116
9, 11910, Note_on_c, 8, 60, 96
10, 11910, Note_on_c, 10, 48, 110
12, 11910, Note_on_c, 5, 36, 82
13, 11910, Note_on_c, 9, 38, 52
6, 11926, Note_on_c, 4, 56, 0
12, 11927, Note_on_c, 5, 36, 0
13, 11927, Note_on_c, 9, 38, 0
9, 11932, Note_on_c, 8, 60, 0
10, 11937, Note_on_c, 10, 48, 0
6, 11940, Note_on_c, 4, 56, 127
9, 11940, Note_on_c, 8, 60, 96
10, 11940, Note_on_c, 10, 48, 110
12, 11940, Note_on_c, 5, 36, 95
13, 11940, Note_on_c, 9, 38, 87
12, 11955, Note_on_c, 5, 36, 0
13, 11956, Note_on_c, 9, 38, 0
6, 11957, Note_on_c, 4, 56, 0
9, 11962, Note_on_c, 8, 60, 0
10, 11967, Note_on_c, 10, 48, 0
6, 11970, Note_on_c, 4, 56, 127
9, 11970, Note_on_c, 8, 60, 96
10, 11970, Note_on_c, 10, 48, 110
12, 11970, Note_on_c, 5, 36, 86
13, 11970, Note_on_c, 9, 38, 66
6, 11987, Note_on_c, 4, 56, 0
12, 11990, Note_on_c, 5, 36, 0
13, 11990, Note_on_c, 9, 38, 0
9, 11992, Note_on_c, 8, 60, 0
12, 11995, Note_on_c, 5, 43, 119
10, 11997, Note_on_c, 10, 48, 0
13, 12000, Note_on_c, 9, 57, 97
12, 12032, Note_on_c, 5, 43, 0
13, 12055, Note_on_c, 9, 57, 0
9, 12090, Note_on_c, 8, 67, 101
10, 12090, Note_on_c, 10, 55, 110
12, 12090, Note_on_c, 5, 43, 87
13, 12090, Note_on_c, 9, 38, 66
12, 12103, Note_on_c, 5, 43, 0
13, 12107, Note_on_c, 9, 38, 0
9, 12112, Note_on_c, 8, 67, 0
10, 12117, Note_on_c, 10, 55, 0
9, 12120, Note_on_c, 8, 67, 127
10, 12120, Note_on_c, 10, 55, 127
12, 12120, Note_on_c, 5, 43, 108
13, 12120, Note_on_c, 9, 38, 90
9, 12142, Note_on_c, 8, 67, 0
13, 12143, Note_on_c, 9, 38, 0
10, 12147, Note_on_c, 10, 55, 0
12, 12155, Note_on_c, 5, 43, 0
9, 12210, Note_on_c, 8, 67, 101
10, 12210, Note_on_c, 10, 55, 110
12, 12210, Note_on_c, 5, 43, 87
13, 12210, Note_on_c, 9, 38, 66
12, 12223, Note_on_c, 5, 43, 0
13, 12227, Note_on_c, 9, 38, 0
9, 12232, Note_on_c, 8, 67, 0
10, 12237, Note_on_c, 10, 55, 0
9, 12240, Note_on_c, 8, 67, 127
10, 12240, Note_on_c, 10, 55, 127
12, 12240, Note_on_c, 5, 43, 116
13, 12240, Note_on_c, 9, 38, 88
13, 12258, Note_on_c, 9, 38, 0
9, 12262, Note_on_c, 8, 67, 0
10, 12267, Note_on_c, 10, 55, 0
12, 12270, Note_on_c, 5, 43, 0
9, 12330, Note_on_c, 8, 67, 101
10, 12330, Note_on_c, 10, 55, 110
12, 12330, Note_on_c, 5, 43, 88
13, 12330, Note_on_c, 9, 38, 58
10, 12340, Control_c, 10, 18, 65
12, 12345, Note_on_c, 5, 43, 0
13, 12347, Note_on_c, 9, 38, 0
9, 12352, Note_on_c, 8, 67, 0
10, 12357, Note_on_c, 10, 55, 0
9, 12360, Note_on_c, 8, 67, 127
10, 12360, Note_on_c, 10, 55, 127
12, 12360, Note_on_c, 5, 43, 112
13, 12360, Note_on_c, 9, 38, 85
13, 12376, Note_on_c, 9, 38, 0
12, 12380, Note_on_c, 5, 43, 0
9, 12382, Note_on_c, 8, 67, 0
10, 12387, Note_on_c, 10, 55, 0
9, 12390, Note_on_c, 8, 67, 101
10, 12390, Note_on_c, 10, 55, 110
12, 12390, Note_on_c, 5, 43, 88
13, 12390, Note_on_c, 9, 38, 55
12, 12396, Note_on_c, 5, 43, 0
13, 12407, Note_on_c, 9, 38, 0
9, 12412, Note_on_c, 8, 67, 0
10, 12417, Note_on_c, 10, 55, 0
9, 12420, Note_on_c, 8, 67, 101
10, 12420, Note_on_c, 10, 55, 110
12, 12420, Note_on_c, 5, 43, 107
13, 12420, Note_on_c, 9, 38, 86
12, 12435, Note_on_c, 5, 43, 0
13, 12436, Note_on_c, 9, 38, 0
9, 12442, Note_on_c, 8, 67, 0
10, 12447, Note_on_c, 10, 55, 0
5, 12448, Note_on_c, 3, 65, 127
5, 12450, Note_on_c, 3, 72, 127
9, 12450, Note_on_c, 8, 67, 101
10, 12450, Note_on_c, 10, 55, 110
12, 12450, Note_on_c, 5, 43, 96
13, 12450, Note_on_c, 9, 38, 60
5, 12453, Note_on_c, 3, 69, 123
4, 12461, Note_on_c, 2, 60, 121
5, 12466, Note_on_c, 3, 72, 0
5, 12468, Note_on_c, 3, 69, 0
12, 12468, Note_on_c, 5, 43, 0
5, 12469, Note_on_c, 3, 65, 0
13, 12470, Note_on_c, 9, 38, 0
9, 12472, Note_on_c, 8, 67, 0
4, 12473, Note_on_c, 2, 60, 0
10, 12477, Note_on_c, 10, 55, 0
9, 12480, Note_on_c, 8, 67, 127
10, 12480, Note_on_c, 10, 55, 127
12, 12480, Note_on_c, 5, 43, 116
13, 12480, Note_on_c, 9, 38, 86
5, 12485, Note_on_c, 3, 65, 116
5, 12486, Note_on_c, 3, 72, 116
5, 12487, Note_on_c, 3, 69, 124
4, 12488, Note_on_c, 2, 60, 112
13, 12501, Note_on_c, 9, 38, 0
9, 12502, Note_on_c, 8, 67, 0
10, 12507, Note_on_c, 10, 55, 0
12, 12507, Note_on_c, 5, 43, 0
9, 12570, Note_on_c, 8, 67, 101
10, 12570, Note_on_c, 10, 55, 110
12, 12570, Note_on_c, 5, 43, 94
13, 12570, Note_on_c, 9, 38, 74
12, 12580, Note_on_c, 5, 43, 0
13, 12587, Note_on_c, 9, 38, 0
9, 12592, Note_on_c, 8, 67, 0
10, 12597, Note_on_c, 10, 55, 0
5, 12599, Note_on_c, 3, 72, 0
9, 12600, Note_on_c, 8, 67, 127
10, 12600, Note_on_c, 10, 55, 127
12, 12600, Note_on_c, 5, 43, 112
13, 12600, Note_on_c, 9, 38, 86
5, 12607, Note_on_c, 3, 69, 0
5, 12608, Note_on_c, 3, 62, 127
5, 12608, Note_on_c, 3, 69, 124
5, 12610, Note_on_c, 3, 65, 0
4, 12613, Note_on_c, 2, 57, 127
4, 12613, Note_on_c, 2, 60, 0
5, 12615, Note_on_c, 3, 66, 127
12, 12621, Note_on_c, 5, 43, 0
13, 12621, Note_on_c, 9, 38, 0
9, 12622, Note_on_c, 8, 67, 0
10, 12627, Note_on_c, 10, 55, 0
4, 12643, Note_on_c, 2, 57, 0
5, 12647, Note_on_c, 3, 66, 0
5, 12651, Note_on_c, 3, 69, 0
5, 12654, Note_on_c, 3, 62, 0
9, 12690, Note_on_c, 8, 67, 101
10, 12690, Note_on_c, 10, 55, 110
12, 12690, Note_on_c, 5, 43, 87
13, 12690, Note_on_c, 9, 38, 58
5, 12700, Note_on_c, 3, 69, 127
5, 12700, Note_on_c, 3, 72, 127
4, 12703, Note_on_c, 2, 60, 112
5, 12703, Note_on_c, 3, 65, 81
12, 12706, Note_on_c, 5, 43, 0
13, 12708, Note_on_c, 9, 38, 0
5, 12712, Note_on_c, 3, 65, 0
9, 12712, Note_on_c, 8, 67, 0
5, 12713, Note_on_c, 3, 69, 0
5, 12713, Note_on_c, 3, 72, 0
4, 12714, Note_on_c, 2, 60, 0
10, 12717, Note_on_c, 10, 55, 0
9, 12720, Note_on_c, 8, 67, 127
10, 12720, Note_on_c, 10, 55, 127
12, 12720, Note_on_c, 5, 43, 112
13, 12720, Note_on_c, 9, 38, 89
5, 12723, Note_on_c, 3, 65, 107
5, 12730, Note_on_c, 3, 72, 127
4, 12733, Note_on_c, 2, 60, 118
5, 12733, Note_on_c, 3, 69, 127
12, 12737, Note_on_c, 5, 43, 0
13, 12738, Note_on_c, 9, 38, 0
9, 12742, Note_on_c, 8, 67, 0
10, 12747, Note_on_c, 10, 55, 0
9, 12750, Note_on_c, 8, 67, 101
10, 12750, Note_on_c, 10, 55, 110
12, 12750, Note_on_c, 5, 43, 86
13, 12750, Note_on_c, 9, 38, 61
12, 12766, Note_on_c, 5, 43, 0
13, 12770, Note_on_c, 9, 38, 0
9, 12772, Note_on_c, 8, 67, 0
10, 12777, Note_on_c, 10, 55, 0
9, 12780, Note_on_c, 8, 67, 101
10, 12780, Note_on_c, 10, 55, 110
12, 12780, Note_on_c, 5, 43, 105
13, 12780, Note_on_c, 9, 38, 80
12, 12788, Note_on_c, 5, 43, 0
13, 12794, Note_on_c, 9, 38, 0
9, 12802, Note_on_c, 8, 67, 0
10, 12807, Note_on_c, 10, 55, 0
9, 12810, Note_on_c, 8, 67, 101
10, 12810, Note_on_c, 10, 55, 110
12, 12810, Note_on_c, 5, 43, 89
13, 12810, Note_on_c, 9, 38, 68
13, 12830, Note_on_c, 9, 38, 0
9, 12832, Note_on_c, 8, 67, 0
12, 12833, Note_on_c, 5, 43, 0
10, 12837, Note_on_c, 10, 55, 0
5, 12840, Note_on_c, 3, 69, 124
9, 12840, Note_on_c, 8, 67, 127
10, 12840, Note_on_c, 10, 55, 127
12, 12840, Note_on_c, 5, 43, 116
13, 12840, Note_on_c, 9, 38, 90
5, 12841, Note_on_c, 3, 62, 121
5, 12843, Note_on_c, 3, 69, 0
5, 12843, Note_on_c, 3, 72, 0
9, 12846, Note_on_c, 8, 86, 60
4, 12848, Note_on_c, 2, 57, 126
5, 12848, Note_on_c, 3, 65, 0
5, 12848, Note_on_c, 3, 66, 121
4, 12851, Note_on_c, 2, 60, 0
12, 12861, Note_on_c, 5, 43, 0
13, 12861, Note_on_c, 9, 38, 0
9, 12862, Note_on_c, 8, 67, 0
10, 12867, Note_on_c, 10, 55, 0
9, 12877, Note_on_c, 8, 87, 61
5, 12879, Note_on_c, 3, 66, 0
9, 12881, Note_on_c, 8, 86, 0
4, 12882, Note_on_c, 2, 57, 0
5, 12886, Note_on_c, 3, 62, 0
9, 12901, Note_on_c, 8, 86, 61
9, 12908, Note_on_c, 8, 87, 0
5, 12930, Note_on_c, 3, 72, 126
10, 12930, Note_on_c, 10, 55, 110
12, 12930, Note_on_c, 5, 43, 89
13, 12930, Note_on_c, 9, 38, 61
4, 12931, Note_on_c, 2, 63, 112
9, 12933, Note_on_c, 8, 87, 62
5, 12935, Note_on_c, 3, 75, 116
5, 12936, Note_on_c, 3, 68, 127
9, 12937, Note_on_c, 8, 86, 0
5, 12945, Note_on_c, 3, 72, 0
5, 12946, Note_on_c, 3, 69, 0
4, 12947, Note_on_c, 2, 63, 0
12, 12948, Note_on_c, 5, 43, 0
5, 12950, Note_on_c, 3, 75, 0
13, 12950, Note_on_c, 9, 38, 0
5, 12951, Note_on_c, 3, 68, 0
10, 12957, Note_on_c, 10, 55, 0
4, 12960, Note_on_c, 2, 63, 96
9, 12960, Note_on_c, 8, 86, 63
10, 12960, Note_on_c, 10, 55, 127
12, 12960, Note_on_c, 5, 43, 112
13, 12960, Note_on_c, 9, 38, 89
5, 12963, Note_on_c, 3, 72, 116
5, 12965, Note_on_c, 3, 68, 117
5, 12966, Note_on_c, 3, 75, 112
9, 12966, Note_on_c, 8, 87, 0
12, 12977, Note_on_c, 5, 43, 0
13, 12978, Note_on_c, 9, 38, 0
10, 12987, Note_on_c, 10, 55, 0
9, 12992, Note_on_c, 8, 87, 65
9, 12994, Note_on_c, 8, 86, 0
9, 13021, Note_on_c, 8, 86, 66
9, 13024, Note_on_c, 8, 87, 0
10, 13050, Note_on_c, 10, 55, 110
12, 13050, Note_on_c, 5, 43, 80
13, 13050, Note_on_c, 9, 38, 62
9, 13052, Note_on_c, 8, 87, 67
9, 13054, Note_on_c, 8, 86, 0
12, 13063, Note_on_c, 5, 43, 0
13, 13067, Note_on_c, 9, 38, 0
5, 13076, Note_on_c, 3, 72, 0
10, 13077, Note_on_c, 10, 55, 0
5, 13080, Note_on_c, 3, 71, 126
10, 13080, Note_on_c, 10, 55, 127
12, 13080, Note_on_c, 5, 43, 112
13, 13080, Note_on_c, 9, 38, 90
5, 13083, Note_on_c, 3, 67, 123
5, 13083, Note_on_c, 3, 74, 116
9, 13083, Note_on_c, 8, 86, 68
9, 13085, Note_on_c, 8, 87, 0
4, 13086, Note_on_c, 2, 62, 107
5, 13089, Note_on_c, 3, 68, 0
4, 13093, Note_on_c, 2, 63, 0
5, 13093, Note_on_c, 3, 75, 0
12, 13095, Note_on_c, 5, 43, 0
13, 13096, Note_on_c, 9, 38, 0
10, 13107, Note_on_c, 10, 55, 0
10, 13110, Note_on_c, 10, 55, 110
12, 13110, Note_on_c, 5, 43, 80
13, 13110, Note_on_c, 9, 38, 64
9, 13111, Note_on_c, 8, 87, 69
9, 13112, Note_on_c, 8, 86, 0
5, 13113, Note_on_c, 3, 67, 0
5, 13113, Note_on_c, 3, 71, 0
5, 13113, Note_on_c, 3, 74, 0
12, 13124, Note_on_c, 5, 43, 0
4, 13128, Note_on_c, 2, 62, 0
13, 13130, Note_on_c, 9, 38, 0
10, 13137, Note_on_c, 10, 55, 0
10, 13140, Note_on_c, 10, 55, 110
12, 13140, Note_on_c, 5, 43, 107
13, 13140, Note_on_c, 9, 38, 87
5, 13143, Note_on_c, 3, 72, 123
5, 13143, Note_on_c, 3, 75, 109
9, 13143, Note_on_c, 8, 86, 70
9, 13144, Note_on_c, 8, 87, 0
5, 13145, Note_on_c, 3, 68, 121
4, 13148, Note_on_c, 2, 63, 101
12, 13151, Note_on_c, 5, 43, 0
5, 13157, Note_on_c, 3, 72, 0
13, 13157, Note_on_c, 9, 38, 0
10, 13167, Note_on_c, 10, 55, 0
5, 13168, Note_on_c, 3, 68, 0
5, 13168, Note_on_c, 3, 71, 93
5, 13170, Note_on_c, 3, 67, 110
6, 13170, Note_on_c, 4, 72, 127
10, 13170, Note_on_c, 10, 55, 110
12, 13170, Note_on_c, 5, 43, 87
13, 13170, Note_on_c, 9, 38, 58
9, 13171, Note_on_c, 8, 86, 0
4, 13173, Note_on_c, 2, 62, 102
9, 13173, Note_on_c, 8, 87, 71
5, 13175, Note_on_c, 3, 74, 90
6, 13175, Note_on_c, 4, 75, 127
6, 13176, Note_on_c, 4, 68, 127
5, 13182, Note_on_c, 3, 75, 0
4, 13183, Note_on_c, 2, 63, 0
6, 13185, Note_on_c, 4, 72, 0
13, 13186, Note_on_c, 9, 38, 0
6, 13190, Note_on_c, 4, 75, 0
5, 13191, Note_on_c, 3, 71, 0
6, 13191, Note_on_c, 4, 68, 0
12, 13191, Note_on_c, 5, 43, 0
5, 13193, Note_on_c, 3, 67, 0
10, 13197, Note_on_c, 10, 55, 0
5, 13198, Note_on_c, 3, 65, 127
6, 13198, Note_on_c, 4, 72, 127
9, 13200, Note_on_c, 8, 86, 72
10, 13200, Note_on_c, 10, 55, 127
12, 13200, Note_on_c, 5, 43, 115
13, 13200, Note_on_c, 9, 38, 85
5, 13201, Note_on_c, 3, 69, 127
5, 13201, Note_on_c, 3, 72, 127
4, 13203, Note_on_c, 2, 60, 121
9, 13204, Note_on_c, 8, 87, 0
4, 13205, Note_on_c, 2, 62, 0
6, 13205, Note_on_c, 4, 68, 127
6, 13206, Note_on_c, 4, 75, 126
5, 13207, Note_on_c, 3, 74, 0
5, 13218, Note_on_c, 3, 65, 0
5, 13219, Note_on_c, 3, 69, 0
12, 13226, Note_on_c, 5, 43, 0
10, 13227, Note_on_c, 10, 55, 0
13, 13227, Note_on_c, 9, 38, 0
9, 13228, Note_on_c, 8, 87, 73
9, 13230, Note_on_c, 8, 86, 0
4, 13233, Note_on_c, 2, 60, 0
5, 13236, Note_on_c, 3, 72, 0
9, 13258, Note_on_c, 8, 86, 74
9, 13263, Note_on_c, 8, 87, 0
4, 13265, Note_on_c, 2, 57, 124
9, 13286, Note_on_c, 8, 87, 75
10, 13290, Note_on_c, 10, 55, 110
12, 13290, Note_on_c, 5, 43, 78
13, 13290, Note_on_c, 9, 38, 58
9, 13291, Note_on_c, 8, 86, 0
12, 13308, Note_on_c, 5, 43, 0
13, 13308, Note_on_c, 9, 38, 0
6, 13311, Note_on_c, 4, 72, 0
9, 13313, Note_on_c, 8, 86, 76
9, 13317, Note_on_c, 8, 87, 0
10, 13317, Note_on_c, 10, 55, 0
6, 13320, Note_on_c, 4, 71, 127
10, 13320, Note_on_c, 10, 55, 127
12, 13320, Note_on_c, 5, 43, 106
13, 13320, Note_on_c, 9, 38, 89
6, 13323, Note_on_c, 4, 67, 127
6, 13323, Note_on_c, 4, 74, 127
6, 13329, Note_on_c, 4, 68, 0
6, 13333, Note_on_c, 4, 75, 0
9, 13340, Note_on_c, 8, 87, 77
13, 13340, Note_on_c, 9, 38, 0
9, 13344, Note_on_c, 8, 86, 0
10, 13347, Note_on_c, 10, 55, 0
12, 13348, Note_on_c, 5, 43, 0
6, 13353, Note_on_c, 4, 67, 0
6, 13353, Note_on_c, 4, 71, 0
6, 13353, Note_on_c, 4, 74, 0
4, 13360, Note_on_c, 2, 57, 0
9, 13371, Note_on_c, 8, 86, 78
9, 13374, Note_on_c, 8, 87, 0
6, 13378, Note_on_c, 4, 75, 127
6, 13383, Note_on_c, 4, 72, 127
6, 13385, Note_on_c, 4, 68, 127
9, 13400, Note_on_c, 8, 87, 79
9, 13403, Note_on_c, 8, 86, 0
6, 13406, Note_on_c, 4, 72, 0
6, 13408, Note_on_c, 4, 71, 127
6, 13410, Note_on_c, 4, 67, 127
10, 13410, Note_on_c, 10, 55, 110
12, 13410, Note_on_c, 5, 43, 83
13, 13410, Note_on_c, 9, 38, 61
6, 13415, Note_on_c, 4, 74, 127
6, 13418, Note_on_c, 4, 68, 0
6, 13426, Note_on_c, 4, 75, 0
13, 13427, Note_on_c, 9, 38, 0
9, 13430, Note_on_c, 8, 86, 80
12, 13430, Note_on_c, 5, 43, 0
9, 13435, Note_on_c, 8, 87, 0
10, 13437, Note_on_c, 10, 55, 0
6, 13438, Note_on_c, 4, 65, 127
10, 13440, Note_on_c, 10, 51, 127
12, 13440, Note_on_c, 5, 43, 108
13, 13440, Note_on_c, 9, 38, 88
6, 13441, Note_on_c, 4, 69, 127
6, 13441, Note_on_c, 4, 71, 0
6, 13441, Note_on_c, 4, 72, 127
6, 13442, Note_on_c, 4, 67, 0
6, 13447, Note_on_c, 4, 74, 0
6, 13458, Note_on_c, 4, 65, 0
13, 13458, Note_on_c, 9, 38, 0
6, 13459, Note_on_c, 4, 69, 0
9, 13459, Note_on_c, 8, 87, 81
9, 13460, Note_on_c, 8, 86, 0
12, 13460, Note_on_c, 5, 43, 0
6, 13461, Note_on_c, 4, 72, 0
10, 13467, Note_on_c, 10, 51, 0
10, 13470, Note_on_c, 10, 51, 110
12, 13470, Note_on_c, 5, 43, 85
13, 13470, Note_on_c, 9, 38, 73
12, 13477, Note_on_c, 5, 43, 0
13, 13481, Note_on_c, 9, 38, 0
9, 13486, Note_on_c, 8, 86, 82
6, 13491, Note_on_c, 4, 69, 127
9, 13492, Note_on_c, 8, 87, 0
6, 13495, Note_on_c, 4, 62, 127
10, 13497, Note_on_c, 10, 51, 0
10, 13500, Note_on_c, 10, 51, 110
12, 13500, Note_on_c, 5, 43, 108
13, 13500, Note_on_c, 9, 38, 88
13, 13515, Note_on_c, 9, 38, 0
12, 13516, Note_on_c, 5, 43, 0
9, 13517, Note_on_c, 8, 87, 83
9, 13519, Note_on_c, 8, 86, 0
10, 13527, Note_on_c, 10, 51, 0
10, 13530, Note_on_c, 10, 51, 110
12, 13530, Note_on_c, 5, 43, 86
13, 13530, Note_on_c, 9, 38, 63
13, 13540, Note_on_c, 9, 38, 0
9, 13543, Note_on_c, 8, 86, 84
12, 13551, Note_on_c, 5, 43, 0
9, 13553, Note_on_c, 8, 87, 0
10, 13557, Note_on_c, 10, 51, 0
10, 13560, Note_on_c, 10, 55, 127
12, 13560, Note_on_c, 5, 43, 117
13, 13560, Note_on_c, 9, 38, 96
9, 13575, Note_on_c, 8, 87, 85
9, 13579, Note_on_c, 8, 86, 0
13, 13583, Note_on_c, 9, 38, 0
10, 13587, Note_on_c, 10, 55, 0
12, 13595, Note_on_c, 5, 43, 0
9, 13604, Note_on_c, 8, 86, 86
9, 13612, Note_on_c, 8, 87, 0
9, 13636, Note_on_c, 8, 87, 87
9, 13639, Note_on_c, 8, 86, 0
10, 13650, Note_on_c, 10, 55, 110
12, 13650, Note_on_c, 5, 43, 88
13, 13650, Note_on_c, 9, 38, 70
9, 13662, Note_on_c, 8, 86, 88
12, 13670, Note_on_c, 5, 43, 0
13, 13671, Note_on_c, 9, 38, 0
9, 13672, Note_on_c, 8, 87, 0
10, 13677, Note_on_c, 10, 55, 0
10, 13680, Note_on_c, 10, 55, 127
12, 13680, Note_on_c, 5, 43, 106
13, 13680, Note_on_c, 9, 38, 103
9, 13691, Note_on_c, 8, 87, 89
9, 13698, Note_on_c, 8, 86, 0
13, 13704, Note_on_c, 9, 38, 0
10, 13707, Note_on_c, 10, 55, 0
12, 13707, Note_on_c, 5, 43, 0
9, 13715, Note_on_c, 8, 86, 90
9, 13724, Note_on_c, 8, 87, 0
9, 13735, Note_on_c, 8, 84, 95
9, 13744, Note_on_c, 8, 86, 0
9, 13762, Note_on_c, 8, 85, 98
9, 13763, Note_on_c, 8, 84, 0
12, 13770, Note_on_c, 5, 43, 88
13, 13770, Note_on_c, 9, 38, 84
9, 13787, Note_on_c, 8, 85, 0
13, 13788, Note_on_c, 9, 38, 0
12, 13790, Note_on_c, 5, 43, 0
9, 13791, Note_on_c, 8, 86, 102
10, 13800, Note_on_c, 10, 51, 127
12, 13800, Note_on_c, 5, 43, 108
13, 13800, Note_on_c, 9, 38, 110
13, 13816, Note_on_c, 9, 38, 0
12, 13818, Note_on_c, 5, 43, 0
9, 13822, Note_on_c, 8, 86, 0
9, 13823, Note_on_c, 8, 87, 106
10, 13827, Note_on_c, 10, 51, 0
10, 13830, Note_on_c, 10, 51, 110
12, 13830, Note_on_c, 5, 43, 95
13, 13830, Note_on_c, 9, 38, 83
12, 13846, Note_on_c, 5, 43, 0
9, 13847, Note_on_c, 8, 87, 0
13, 13848, Note_on_c, 9, 38, 0
9, 13853, Note_on_c, 8, 88, 110
5, 13857, Note_on_c, 3, 76, 98
10, 13857, Note_on_c, 10, 51, 0
10, 13860, Note_on_c, 10, 51, 110
12, 13860, Note_on_c, 5, 43, 115
13, 13860, Note_on_c, 9, 38, 113
12, 13875, Note_on_c, 5, 43, 0
13, 13875, Note_on_c, 9, 38, 0
9, 13878, Note_on_c, 8, 88, 0
9, 13878, Note_on_c, 8, 89, 113
5, 13881, Note_on_c, 3, 76, 0
5, 13882, Note_on_c, 3, 77, 101
6, 13884, Note_on_c, 4, 62, 0
10, 13887, Note_on_c, 10, 51, 0
10, 13890, Note_on_c, 10, 51, 110
12, 13890, Note_on_c, 5, 43, 96
13, 13890, Note_on_c, 9, 38, 86
6, 13894, Note_on_c, 4, 69, 0
9, 13896, Note_on_c, 8, 89, 0
5, 13898, Note_on_c, 3, 77, 0
9, 13898, Note_on_c, 8, 90, 116
5, 13906, Note_on_c, 3, 78, 111
12, 13908, Note_on_c, 5, 43, 0
13, 13913, Note_on_c, 9, 38, 0
10, 13917, Note_on_c, 10, 51, 0
1, 13920, Tempo, 576923
12, 13920, Note_on_c, 5, 43, 112
13, 13920, Note_on_c, 9, 38, 127
9, 13921, Note_on_c, 8, 91, 119
5, 13924, Note_on_c, 3, 79, 125
9, 13925, Note_on_c, 8, 90, 0
4, 13930, Note_on_c, 2, 62, 43
10, 13931, Note_on_c, 10, 43, 127
13, 13931, Note_on_c, 9, 38, 98
5, 13932, Note_on_c, 3, 78, 0
13, 13932, Note_on_c, 9, 57, 127
4, 13933, Note_on_c, 2, 55, 126
13, 13941, Note_on_c, 9, 38, 0
13, 13941, Note_on_c, 9, 38, 125
13, 13942, Note_on_c, 9, 38, 0
13, 13942, Note_on_c, 9, 38, 0
12, 13944, Note_on_c, 5, 43, 0
13, 13964, Note_on_c, 9, 57, 0
10, 13990, Note_on_c, 10, 43, 0
5, 13994, Note_on_c, 3, 79, 0
13, 13998, Note_on_c, 9, 38, 92
13, 14009, Note_on_c, 9, 38, 0
13, 14017, Note_on_c, 9, 38, 92
9, 14024, Note_on_c, 8, 91, 0
13, 14028, Note_on_c, 9, 38, 0
13, 14038, Note_on_c, 9, 38, 91
10, 14050, Note_on_c, 10, 31, 127
10, 14050, Note_on_c, 10, 43, 127
13, 14051, Note_on_c, 9, 38, 0
13, 14052, Note_on_c, 9, 38, 90
10, 14060, Note_on_c, 10, 31, 0
10, 14060, Note_on_c, 10, 43, 0
13, 14063, Note_on_c, 9, 38, 0
10, 14108, Note_on_c, 10, 31, 127
10, 14108, Note_on_c, 10, 43, 127
9, 14112, Note_on_c, 8, 55, 127
13, 14113, Note_on_c, 9, 38, 77
10, 14118, Note_on_c, 10, 31, 0
10, 14118, Note_on_c, 10, 43, 0
9, 14119, Note_on_c, 8, 55, 0
13, 14121, Note_on_c, 9, 38, 0
10, 14128, Note_on_c, 10, 31, 127
10, 14128, Note_on_c, 10, 43, 127
9, 14131, Note_on_c, 8, 55, 127
13, 14133, Note_on_c, 9, 38, 62
10, 14138, Note_on_c, 10, 31, 0
10, 14138, Note_on_c, 10, 43, 0
9, 14139, Note_on_c, 8, 55, 0
13, 14142, Note_on_c, 9, 38, 0
10, 14147, Note_on_c, 10, 31, 127
10, 14147, Note_on_c, 10, 43, 127
9, 14150, Note_on_c, 8, 55, 127
13, 14153, Note_on_c, 9, 38, 87
10, 14155, Note_on_c, 10, 31, 0
10, 14155, Note_on_c, 10, 43, 0
9, 14159, Note_on_c, 8, 55, 0
13, 14163, Note_on_c, 9, 38, 0
9, 14169, Note_on_c, 8, 55, 127
10, 14170, Note_on_c, 10, 31, 127
10, 14170, Note_on_c, 10, 43, 127
13, 14171, Note_on_c, 9, 38, 86
9, 14179, Note_on_c, 8, 55, 0
13, 14182, Note_on_c, 9, 38, 0
10, 14188, Note_on_c, 10, 31, 0
10, 14188, Note_on_c, 10, 43, 0
10, 14230, Note_on_c, 10, 31, 127
10, 14230, Note_on_c, 10, 43, 127
13, 14232, Note_on_c, 9, 38, 74
9, 14233, Note_on_c, 8, 55, 127
10, 14241, Note_on_c, 10, 31, 0
10, 14241, Note_on_c, 10, 43, 0
9, 14242, Note_on_c, 8, 55, 0
13, 14242, Note_on_c, 9, 38, 0
10, 14250, Note_on_c, 10, 31, 127
10, 14250, Note_on_c, 10, 43, 127
13, 14251, Note_on_c, 9, 38, 72
9, 14253, Note_on_c, 8, 55, 127
10, 14260, Note_on_c, 10, 31, 0
10, 14260, Note_on_c, 10, 43, 0
9, 14263, Note_on_c, 8, 55, 0
13, 14264, Note_on_c, 9, 38, 0
10, 14270, Note_on_c, 10, 31, 127
10, 14270, Note_on_c, 10, 43, 127
9, 14271, Note_on_c, 8, 55, 127
13, 14272, Note_on_c, 9, 38, 78
4, 14276, Note_on_c, 2, 62, 0
10, 14280, Note_on_c, 10, 31, 0
10, 14280, Note_on_c, 10, 43, 0
9, 14281, Note_on_c, 8, 55, 0
13, 14284, Note_on_c, 9, 38, 0
12, 14286, Note_on_c, 5, 39, 119
13, 14286, Note_on_c, 9, 51, 21
13, 14286, Note_on_c, 9, 57, 20
10, 14289, Note_on_c, 10, 27, 127
10, 14289, Note_on_c, 10, 39, 127
9, 14291, Note_on_c, 8, 63, 127
10, 14291, Note_on_c, 10, 58, 127
13, 14291, Note_on_c, 9, 38, 73
13, 14297, Note_on_c, 9, 57, 0
12, 14298, Note_on_c, 5, 39, 0
13, 14298, Note_on_c, 9, 51, 0
10, 14299, Note_on_c, 10, 27, 0
10, 14299, Note_on_c, 10, 39, 0
4, 14300, Note_on_c, 2, 55, 0
9, 14301, Note_on_c, 8, 63, 0
13, 14303, Note_on_c, 9, 38, 0
10, 14304, Note_on_c, 10, 58, 0
12, 14306, Note_on_c, 5, 39, 119
10, 14308, Note_on_c, 10, 27, 127
10, 14308, Note_on_c, 10, 39, 127
9, 14310, Note_on_c, 8, 63, 127
10, 14311, Note_on_c, 10, 58, 127
13, 14312, Note_on_c, 9, 38, 81
12, 14318, Note_on_c, 5, 39, 0
10, 14319, Note_on_c, 10, 27, 0
10, 14319, Note_on_c, 10, 39, 0
9, 14320, Note_on_c, 8, 63, 0
10, 14321, Note_on_c, 10, 58, 0
13, 14324, Note_on_c, 9, 38, 0
10, 14327, Note_on_c, 10, 27, 127
10, 14327, Note_on_c, 10, 39, 127
12, 14328, Note_on_c, 5, 39, 119
9, 14330, Note_on_c, 8, 63, 127
13, 14331, Note_on_c, 9, 38, 80
10, 14332, Note_on_c, 10, 58, 127
10, 14337, Note_on_c, 10, 27, 0
10, 14337, Note_on_c, 10, 39, 0
9, 14341, Note_on_c, 8, 63, 0
10, 14342, Note_on_c, 10, 58, 0
12, 14343, Note_on_c, 5, 39, 0
13, 14344, Note_on_c, 9, 38, 0
12, 14347, Note_on_c, 5, 39, 119
13, 14347, Note_on_c, 9, 51, 2
10, 14348, Note_on_c, 10, 27, 127
10, 14348, Note_on_c, 10, 39, 127
13, 14349, Note_on_c, 9, 57, 2
9, 14350, Note_on_c, 8, 63, 127
10, 14351, Note_on_c, 10, 58, 127
13, 14353, Note_on_c, 9, 38, 79
9, 14358, Note_on_c, 8, 63, 0
12, 14359, Note_on_c, 5, 39, 0
13, 14359, Note_on_c, 9, 57, 0
13, 14360, Note_on_c, 9, 51, 0
10, 14362, Note_on_c, 10, 27, 0
10, 14362, Note_on_c, 10, 39, 0
10, 14362, Note_on_c, 10, 58, 0
13, 14364, Note_on_c, 9, 38, 0
9, 14410, Note_on_c, 8, 55, 127
6, 14411, Note_on_c, 4, 55, 123
10, 14411, Note_on_c, 10, 31, 127
10, 14411, Note_on_c, 10, 43, 127
13, 14413, Note_on_c, 9, 38, 79
9, 14420, Note_on_c, 8, 55, 0
6, 14422, Note_on_c, 4, 55, 0
10, 14422, Note_on_c, 10, 31, 0
10, 14422, Note_on_c, 10, 43, 0
13, 14424, Note_on_c, 9, 38, 0
13, 14529, Note_on_c, 9, 38, 79
6, 14531, Note_on_c, 4, 55, 123
9, 14531, Note_on_c, 8, 55, 127
10, 14531, Note_on_c, 10, 31, 127
10, 14531, Note_on_c, 10, 43, 127
9, 14538, Note_on_c, 8, 55, 0
6, 14539, Note_on_c, 4, 55, 0
10, 14539, Note_on_c, 10, 31, 0
10, 14539, Note_on_c, 10, 43, 0
13, 14542, Note_on_c, 9, 38, 0
6, 14591, Note_on_c, 4, 55, 123
10, 14591, Note_on_c, 10, 31, 127
10, 14591, Note_on_c, 10, 43, 127
13, 14591, Note_on_c, 9, 38, 79
9, 14592, Note_on_c, 8, 55, 127
9, 14600, Note_on_c, 8, 55, 0
6, 14601, Note_on_c, 4, 55, 0
10, 14601, Note_on_c, 10, 31, 0
10, 14601, Note_on_c, 10, 43, 0
13, 14602, Note_on_c, 9, 38, 0
6, 14611, Note_on_c, 4, 55, 123
9, 14611, Note_on_c, 8, 55, 127
10, 14611, Note_on_c, 10, 31, 127
10, 14611, Note_on_c, 10, 43, 127
13, 14611, Note_on_c, 9, 38, 51
6, 14620, Note_on_c, 4, 55, 0
10, 14620, Note_on_c, 10, 31, 0
10, 14620, Note_on_c, 10, 43, 0
13, 14621, Note_on_c, 9, 38, 0
9, 14622, Note_on_c, 8, 55, 0
6, 14631, Note_on_c, 4, 55, 123
9, 14631, Note_on_c, 8, 55, 127
10, 14631, Note_on_c, 10, 31, 127
10, 14631, Note_on_c, 10, 43, 127
13, 14631, Note_on_c, 9, 38, 79
9, 14640, Note_on_c, 8, 55, 0
6, 14642, Note_on_c, 4, 55, 0
10, 14642, Note_on_c, 10, 31, 0
10, 14642, Note_on_c, 10, 43, 0
13, 14642, Note_on_c, 9, 38, 0
13, 14650, Note_on_c, 9, 38, 79
6, 14651, Note_on_c, 4, 55, 123
9, 14651, Note_on_c, 8, 55, 127
10, 14651, Note_on_c, 10, 31, 127
10, 14651, Note_on_c, 10, 43, 127
6, 14661, Note_on_c, 4, 55, 0
10, 14661, Note_on_c, 10, 31, 0
10, 14661, Note_on_c, 10, 43, 0
9, 14662, Note_on_c, 8, 55, 0
13, 14663, Note_on_c, 9, 38, 0
9, 14712, Note_on_c, 8, 55, 127
13, 14712, Note_on_c, 9, 38, 71
6, 14715, Note_on_c, 4, 55, 123
10, 14715, Note_on_c, 10, 31, 127
10, 14715, Note_on_c, 10, 43, 127
9, 14721, Note_on_c, 8, 55, 0
13, 14722, Note_on_c, 9, 38, 0
6, 14726, Note_on_c, 4, 55, 0
10, 14726, Note_on_c, 10, 31, 0
10, 14726, Note_on_c, 10, 43, 0
9, 14732, Note_on_c, 8, 55, 127
13, 14732, Note_on_c, 9, 38, 75
6, 14735, Note_on_c, 4, 55, 123
10, 14735, Note_on_c, 10, 31, 127
10, 14735, Note_on_c, 10, 43, 127
9, 14743, Note_on_c, 8, 55, 0
6, 14745, Note_on_c, 4, 55, 0
10, 14745, Note_on_c, 10, 31, 0
10, 14745, Note_on_c, 10, 43, 0
13, 14745, Note_on_c, 9, 38, 0
13, 14751, Note_on_c, 9, 38, 79
9, 14752, Note_on_c, 8, 55, 127
6, 14753, Note_on_c, 4, 55, 123
10, 14753, Note_on_c, 10, 31, 127
10, 14753, Note_on_c, 10, 43, 127
9, 14762, Note_on_c, 8, 55, 0
13, 14764, Note_on_c, 9, 38, 0
6, 14765, Note_on_c, 4, 55, 0
10, 14765, Note_on_c, 10, 31, 0
10, 14765, Note_on_c, 10, 43, 0
12, 14770, Note_on_c, 5, 39, 119
13, 14770, Note_on_c, 9, 51, 7
13, 14770, Note_on_c, 9, 57, 7
9, 14771, Note_on_c, 8, 63, 127
10, 14771, Note_on_c, 10, 58, 127
13, 14771, Note_on_c, 9, 38, 79
6, 14773, Note_on_c, 4, 51, 123
10, 14773, Note_on_c, 10, 27, 127
10, 14773, Note_on_c, 10, 39, 127
13, 14780, Note_on_c, 9, 57, 0
9, 14781, Note_on_c, 8, 63, 0
13, 14782, Note_on_c, 9, 38, 0
6, 14783, Note_on_c, 4, 51, 0
10, 14783, Note_on_c, 10, 27, 0
10, 14783, Note_on_c, 10, 39, 0
10, 14783, Note_on_c, 10, 58, 0
12, 14783, Note_on_c, 5, 39, 0
13, 14783, Note_on_c, 9, 51, 0
12, 14790, Note_on_c, 5, 39, 119
6, 14791, Note_on_c, 4, 51, 123
9, 14791, Note_on_c, 8, 63, 127
10, 14791, Note_on_c, 10, 27, 127
10, 14791, Note_on_c, 10, 39, 127
10, 14791, Note_on_c, 10, 58, 127
13, 14792, Note_on_c, 9, 38, 79
10, 14801, Note_on_c, 10, 58, 0
9, 14802, Note_on_c, 8, 63, 0
12, 14802, Note_on_c, 5, 39, 0
13, 14803, Note_on_c, 9, 38, 0
6, 14804, Note_on_c, 4, 51, 0
10, 14804, Note_on_c, 10, 27, 0
10, 14804, Note_on_c, 10, 39, 0
6, 14810, Note_on_c, 4, 51, 123
9, 14810, Note_on_c, 8, 63, 127
10, 14810, Note_on_c, 10, 27, 127
10, 14810, Note_on_c, 10, 39, 127
10, 14811, Note_on_c, 10, 58, 127
12, 14812, Note_on_c, 5, 39, 119
13, 14812, Note_on_c, 9, 38, 77
9, 14820, Note_on_c, 8, 63, 0
6, 14821, Note_on_c, 4, 51, 0
10, 14821, Note_on_c, 10, 27, 0
10, 14821, Note_on_c, 10, 39, 0
10, 14822, Note_on_c, 10, 58, 0
13, 14824, Note_on_c, 9, 38, 0
12, 14827, Note_on_c, 5, 39, 0
6, 14830, Note_on_c, 4, 51, 123
10, 14830, Note_on_c, 10, 27, 127
10, 14830, Note_on_c, 10, 39, 127
10, 14830, Note_on_c, 10, 58, 127
13, 14830, Note_on_c, 9, 57, 2
9, 14831, Note_on_c, 8, 63, 127
13, 14832, Note_on_c, 9, 38, 79
12, 14833, Note_on_c, 5, 39, 119
13, 14833, Note_on_c, 9, 57, 2
13, 14836, Note_on_c, 9, 57, 0
13, 14837, Note_on_c, 9, 57, 0
9, 14841, Note_on_c, 8, 63, 0
6, 14842, Note_on_c, 4, 51, 0
10, 14842, Note_on_c, 10, 27, 0
10, 14842, Note_on_c, 10, 39, 0
13, 14843, Note_on_c, 9, 38, 0
10, 14844, Note_on_c, 10, 58, 0
12, 14845, Note_on_c, 5, 39, 0
5, 14882, Note_on_c, 3, 67, 117
9, 14891, Note_on_c, 8, 55, 127
13, 14892, Note_on_c, 9, 38, 79
6, 14893, Note_on_c, 4, 67, 127
9, 14900, Note_on_c, 8, 55, 0
13, 14900, Note_on_c, 9, 48, 79
13, 14901, Note_on_c, 9, 51, 79
13, 14902, Note_on_c, 9, 38, 0
13, 14911, Note_on_c, 9, 48, 0
13, 14911, Note_on_c, 9, 51, 0
6, 14960, Note_on_c, 4, 67, 0
5, 14972, Note_on_c, 3, 67, 0
6, 15010, Note_on_c, 4, 67, 123
9, 15010, Note_on_c, 8, 55, 127
6, 15011, Note_on_c, 4, 55, 123
10, 15011, Note_on_c, 10, 31, 127
10, 15011, Note_on_c, 10, 43, 127
13, 15011, Note_on_c, 9, 38, 105
5, 15015, Note_on_c, 3, 67, 123
9, 15021, Note_on_c, 8, 55, 0
6, 15022, Note_on_c, 4, 55, 0
10, 15022, Note_on_c, 10, 31, 0
10, 15022, Note_on_c, 10, 43, 0
13, 15022, Note_on_c, 9, 38, 0
13, 15071, Note_on_c, 9, 38, 105
6, 15073, Note_on_c, 4, 55, 123
10, 15073, Note_on_c, 10, 31, 127
10, 15073, Note_on_c, 10, 43, 127
9, 15076, Note_on_c, 8, 55, 127
13, 15081, Note_on_c, 9, 38, 0
6, 15083, Note_on_c, 4, 55, 0
6, 15083, Note_on_c, 4, 67, 0
10, 15083, Note_on_c, 10, 31, 0
10, 15083, Note_on_c, 10, 43, 0
9, 15085, Note_on_c, 8, 55, 0
13, 15088, Note_on_c, 9, 38, 105
6, 15093, Note_on_c, 4, 55, 123
10, 15093, Note_on_c, 10, 31, 127
10, 15093, Note_on_c, 10, 43, 127
9, 15095, Note_on_c, 8, 55, 127
5, 15096, Note_on_c, 3, 67, 0
13, 15100, Note_on_c, 9, 38, 0
6, 15103, Note_on_c, 4, 55, 0
10, 15103, Note_on_c, 10, 31, 0
10, 15103, Note_on_c, 10, 43, 0
9, 15106, Note_on_c, 8, 55, 0
13, 15110, Note_on_c, 9, 38, 105
6, 15112, Note_on_c, 4, 55, 123
10, 15112, Note_on_c, 10, 31, 127
10, 15112, Note_on_c, 10, 43, 127
9, 15114, Note_on_c, 8, 55, 127
13, 15119, Note_on_c, 9, 38, 0
6, 15123, Note_on_c, 4, 55, 0
10, 15123, Note_on_c, 10, 31, 0
10, 15123, Note_on_c, 10, 43, 0
9, 15125, Note_on_c, 8, 55, 0
9, 15130, Note_on_c, 8, 55, 127
13, 15130, Note_on_c, 9, 38, 105
6, 15131, Note_on_c, 4, 55, 123
10, 15131, Note_on_c, 10, 31, 127
10, 15131, Note_on_c, 10, 43, 127
6, 15136, Note_on_c, 4, 67, 123
5, 15140, Note_on_c, 3, 67, 123
6, 15141, Note_on_c, 4, 55, 0
10, 15141, Note_on_c, 10, 31, 0
10, 15141, Note_on_c, 10, 43, 0
9, 15143, Note_on_c, 8, 55, 0
13, 15145, Note_on_c, 9, 38, 0
6, 15191, Note_on_c, 4, 55, 123
10, 15191, Note_on_c, 10, 31, 127
10, 15191, Note_on_c, 10, 43, 127
13, 15191, Note_on_c, 9, 38, 105
9, 15193, Note_on_c, 8, 55, 127
6, 15202, Note_on_c, 4, 55, 0
10, 15202, Note_on_c, 10, 31, 0
10, 15202, Note_on_c, 10, 43, 0
13, 15202, Note_on_c, 9, 38, 0
9, 15203, Note_on_c, 8, 55, 0
6, 15210, Note_on_c, 4, 67, 0
6, 15211, Note_on_c, 4, 55, 123
10, 15211, Note_on_c, 10, 31, 127
10, 15211, Note_on_c, 10, 43, 127
5, 15212, Note_on_c, 3, 67, 0
9, 15212, Note_on_c, 8, 55, 127
13, 15212, Note_on_c, 9, 38, 105
6, 15222, Note_on_c, 4, 55, 0
10, 15222, Note_on_c, 10, 31, 0
10, 15222, Note_on_c, 10, 43, 0
9, 15223, Note_on_c, 8, 55, 0
13, 15224, Note_on_c, 9, 38, 0
6, 15230, Note_on_c, 4, 55, 123
10, 15230, Note_on_c, 10, 31, 127
10, 15230, Note_on_c, 10, 43, 127
9, 15232, Note_on_c, 8, 55, 127
13, 15232, Note_on_c, 9, 38, 105
6, 15242, Note_on_c, 4, 55, 0
9, 15242, Note_on_c, 8, 55, 0
10, 15242, Note_on_c, 10, 31, 0
10, 15242, Note_on_c, 10, 43, 0
13, 15244, Note_on_c, 9, 38, 0
12, 15246, Note_on_c, 5, 39, 119
9, 15250, Note_on_c, 8, 63, 127
5, 15251, Note_on_c, 3, 63, 123
6, 15251, Note_on_c, 4, 51, 123
9, 15251, Note_on_c, 8, 55, 127
10, 15251, Note_on_c, 10, 27, 127
10, 15251, Note_on_c, 10, 39, 127
13, 15251, Note_on_c, 9, 38, 105
6, 15253, Note_on_c, 4, 63, 123
12, 15260, Note_on_c, 5, 39, 0
6, 15261, Note_on_c, 4, 51, 0
10, 15261, Note_on_c, 10, 27, 0
10, 15261, Note_on_c, 10, 39, 0
9, 15262, Note_on_c, 8, 55, 0
13, 15262, Note_on_c, 9, 38, 0
9, 15263, Note_on_c, 8, 63, 0
6, 15269, Note_on_c, 4, 51, 123
10, 15269, Note_on_c, 10, 27, 127
10, 15269, Note_on_c, 10, 39, 127
9, 15270, Note_on_c, 8, 55, 127
13, 15270, Note_on_c, 9, 38, 105
9, 15271, Note_on_c, 8, 63, 127
12, 15271, Note_on_c, 5, 39, 119
9, 15281, Note_on_c, 8, 55, 0
9, 15281, Note_on_c, 8, 63, 0
12, 15281, Note_on_c, 5, 39, 0
6, 15283, Note_on_c, 4, 51, 0
10, 15283, Note_on_c, 10, 27, 0
10, 15283, Note_on_c, 10, 39, 0
13, 15283, Note_on_c, 9, 38, 0
9, 15288, Note_on_c, 8, 55, 127
6, 15289, Note_on_c, 4, 51, 123
10, 15289, Note_on_c, 10, 27, 127
10, 15289, Note_on_c, 10, 39, 127
13, 15290, Note_on_c, 9, 38, 105
9, 15291, Note_on_c, 8, 63, 127
12, 15292, Note_on_c, 5, 39, 119
9, 15298, Note_on_c, 8, 55, 0
6, 15300, Note_on_c, 4, 51, 0
10, 15300, Note_on_c, 10, 27, 0
10, 15300, Note_on_c, 10, 39, 0
9, 15302, Note_on_c, 8, 63, 0
13, 15303, Note_on_c, 9, 38, 0
12, 15304, Note_on_c, 5, 39, 0
9, 15309, Note_on_c, 8, 55, 127
6, 15310, Note_on_c, 4, 51, 123
9, 15310, Note_on_c, 8, 63, 127
10, 15310, Note_on_c, 10, 27, 127
10, 15310, Note_on_c, 10, 39, 127
6, 15311, Note_on_c, 4, 63, 0
12, 15311, Note_on_c, 5, 39, 119
13, 15311, Note_on_c, 9, 38, 105
5, 15312, Note_on_c, 3, 63, 0
9, 15319, Note_on_c, 8, 55, 0
12, 15321, Note_on_c, 5, 39, 0
6, 15323, Note_on_c, 4, 51, 0
9, 15323, Note_on_c, 8, 63, 0
10, 15323, Note_on_c, 10, 27, 0
10, 15323, Note_on_c, 10, 39, 0
13, 15323, Note_on_c, 9, 38, 0
5, 15337, Note_on_c, 3, 70, 123
6, 15341, Note_on_c, 4, 70, 123
5, 15355, Note_on_c, 3, 70, 0
6, 15357, Note_on_c, 4, 70, 0
5, 15370, Note_on_c, 3, 67, 123
6, 15372, Note_on_c, 4, 67, 123
6, 15373, Note_on_c, 4, 55, 123
10, 15373, Note_on_c, 10, 31, 127
10, 15373, Note_on_c, 10, 43, 127
13, 15373, Note_on_c, 9, 38, 105
9, 15375, Note_on_c, 8, 55, 127
9, 15383, Note_on_c, 8, 55, 0
6, 15385, Note_on_c, 4, 55, 0
10, 15385, Note_on_c, 10, 31, 0
10, 15385, Note_on_c, 10, 43, 0
13, 15386, Note_on_c, 9, 38, 0
6, 15456, Note_on_c, 4, 67, 0
5, 15466, Note_on_c, 3, 67, 0
6, 15490, Note_on_c, 4, 55, 123
10, 15490, Note_on_c, 10, 31, 127
10, 15490, Note_on_c, 10, 43, 127
6, 15491, Note_on_c, 4, 63, 123
5, 15492, Note_on_c, 3, 63, 123
9, 15493, Note_on_c, 8, 55, 127
13, 15493, Note_on_c, 9, 38, 105
6, 15501, Note_on_c, 4, 55, 0
9, 15501, Note_on_c, 8, 55, 0
10, 15501, Note_on_c, 10, 31, 0
10, 15501, Note_on_c, 10, 43, 0
13, 15505, Note_on_c, 9, 38, 0
5, 15544, Note_on_c, 3, 63, 0
6, 15549, Note_on_c, 4, 63, 0
6, 15550, Note_on_c, 4, 55, 123
10, 15550, Note_on_c, 10, 31, 127
10, 15550, Note_on_c, 10, 43, 127
13, 15553, Note_on_c, 9, 38, 95
9, 15555, Note_on_c, 8, 55, 127
6, 15561, Note_on_c, 4, 55, 0
10, 15561, Note_on_c, 10, 31, 0
10, 15561, Note_on_c, 10, 43, 0
13, 15563, Note_on_c, 9, 38, 0
9, 15564, Note_on_c, 8, 55, 0
6, 15570, Note_on_c, 4, 55, 123
10, 15570, Note_on_c, 10, 31, 127
10, 15570, Note_on_c, 10, 43, 127
9, 15572, Note_on_c, 8, 55, 127
13, 15572, Note_on_c, 9, 38, 105
6, 15581, Note_on_c, 4, 55, 0
10, 15581, Note_on_c, 10, 31, 0
10, 15581, Note_on_c, 10, 43, 0
9, 15582, Note_on_c, 8, 55, 0
13, 15583, Note_on_c, 9, 38, 0
5, 15584, Note_on_c, 3, 70, 123
6, 15584, Note_on_c, 4, 70, 123
6, 15590, Note_on_c, 4, 55, 123
10, 15590, Note_on_c, 10, 31, 127
10, 15590, Note_on_c, 10, 43, 127
9, 15592, Note_on_c, 8, 55, 127
13, 15592, Note_on_c, 9, 38, 105
6, 15600, Note_on_c, 4, 70, 0
6, 15601, Note_on_c, 4, 55, 0
10, 15601, Note_on_c, 10, 31, 0
10, 15601, Note_on_c, 10, 43, 0
5, 15602, Note_on_c, 3, 70, 0
9, 15603, Note_on_c, 8, 55, 0
13, 15604, Note_on_c, 9, 38, 0
9, 15607, Note_on_c, 8, 55, 127
6, 15610, Note_on_c, 4, 55, 123
10, 15610, Note_on_c, 10, 31, 127
10, 15610, Note_on_c, 10, 43, 127
13, 15610, Note_on_c, 9, 38, 95
6, 15612, Note_on_c, 4, 67, 123
5, 15615, Note_on_c, 3, 67, 123
9, 15618, Note_on_c, 8, 55, 0
13, 15620, Note_on_c, 9, 38, 0
6, 15621, Note_on_c, 4, 55, 0
10, 15621, Note_on_c, 10, 31, 0
10, 15621, Note_on_c, 10, 43, 0
6, 15668, Note_on_c, 4, 55, 123
10, 15668, Note_on_c, 10, 31, 127
10, 15668, Note_on_c, 10, 43, 127
13, 15671, Note_on_c, 9, 38, 105
9, 15674, Note_on_c, 8, 55, 127
6, 15679, Note_on_c, 4, 55, 0
10, 15679, Note_on_c, 10, 31, 0
10, 15679, Note_on_c, 10, 43, 0
13, 15682, Note_on_c, 9, 38, 0
9, 15683, Note_on_c, 8, 55, 0
6, 15688, Note_on_c, 4, 55, 123
10, 15688, Note_on_c, 10, 31, 127
10, 15688, Note_on_c, 10, 43, 127
13, 15690, Note_on_c, 9, 38, 105
9, 15693, Note_on_c, 8, 55, 127
6, 15699, Note_on_c, 4, 55, 0
10, 15699, Note_on_c, 10, 31, 0
10, 15699, Note_on_c, 10, 43, 0
13, 15703, Note_on_c, 9, 38, 0
9, 15704, Note_on_c, 8, 55, 0
6, 15710, Note_on_c, 4, 55, 123
10, 15710, Note_on_c, 10, 31, 127
10, 15710, Note_on_c, 10, 43, 127
13, 15710, Note_on_c, 9, 38, 105
9, 15711, Note_on_c, 8, 55, 127
6, 15721, Note_on_c, 4, 55, 0
10, 15721, Note_on_c, 10, 31, 0
10, 15721, Note_on_c, 10, 43, 0
13, 15722, Note_on_c, 9, 38, 0
9, 15723, Note_on_c, 8, 55, 0
12, 15727, Note_on_c, 5, 39, 119
9, 15728, Note_on_c, 8, 55, 127
9, 15729, Note_on_c, 8, 58, 127
6, 15730, Note_on_c, 4, 51, 123
10, 15730, Note_on_c, 10, 27, 127
10, 15730, Note_on_c, 10, 39, 127
13, 15730, Note_on_c, 9, 38, 105
9, 15739, Note_on_c, 8, 55, 0
9, 15740, Note_on_c, 8, 58, 0
12, 15740, Note_on_c, 5, 39, 0
6, 15741, Note_on_c, 4, 51, 0
10, 15741, Note_on_c, 10, 27, 0
10, 15741, Note_on_c, 10, 39, 0
13, 15741, Note_on_c, 9, 38, 0
12, 15748, Note_on_c, 5, 39, 119
6, 15750, Note_on_c, 4, 51, 123
9, 15750, Note_on_c, 8, 55, 127
9, 15750, Note_on_c, 8, 58, 127
10, 15750, Note_on_c, 10, 27, 127
10, 15750, Note_on_c, 10, 39, 127
13, 15750, Note_on_c, 9, 38, 105
9, 15761, Note_on_c, 8, 55, 0
9, 15761, Note_on_c, 8, 58, 0
12, 15761, Note_on_c, 5, 39, 0
6, 15763, Note_on_c, 4, 51, 0
10, 15763, Note_on_c, 10, 27, 0
10, 15763, Note_on_c, 10, 39, 0
6, 15764, Note_on_c, 4, 67, 0
13, 15764, Note_on_c, 9, 38, 0
9, 15765, Note_on_c, 8, 55, 127
6, 15768, Note_on_c, 4, 51, 123
9, 15768, Note_on_c, 8, 58, 127
10, 15768, Note_on_c, 10, 27, 127
10, 15768, Note_on_c, 10, 39, 127
13, 15770, Note_on_c, 9, 38, 105
12, 15771, Note_on_c, 5, 39, 119
5, 15772, Note_on_c, 3, 67, 0
9, 15776, Note_on_c, 8, 55, 0
6, 15779, Note_on_c, 4, 51, 0
10, 15779, Note_on_c, 10, 27, 0
10, 15779, Note_on_c, 10, 39, 0
9, 15780, Note_on_c, 8, 58, 0
13, 15781, Note_on_c, 9, 38, 0
12, 15783, Note_on_c, 5, 39, 0
9, 15787, Note_on_c, 8, 58, 127
9, 15788, Note_on_c, 8, 55, 127
6, 15790, Note_on_c, 4, 51, 123
10, 15790, Note_on_c, 10, 27, 127
10, 15790, Note_on_c, 10, 39, 127
12, 15791, Note_on_c, 5, 39, 119
13, 15791, Note_on_c, 9, 38, 105
9, 15798, Note_on_c, 8, 55, 0
9, 15800, Note_on_c, 8, 58, 0
12, 15800, Note_on_c, 5, 39, 0
6, 15801, Note_on_c, 4, 51, 0
10, 15801, Note_on_c, 10, 27, 0
10, 15801, Note_on_c, 10, 39, 0
13, 15802, Note_on_c, 9, 38, 0
6, 15851, Note_on_c, 4, 74, 123
9, 15851, Note_on_c, 8, 55, 127
13, 15851, Note_on_c, 9, 38, 105
6, 15852, Note_on_c, 4, 55, 123
10, 15852, Note_on_c, 10, 31, 127
10, 15852, Note_on_c, 10, 43, 127
5, 15853, Note_on_c, 3, 74, 123
9, 15861, Note_on_c, 8, 55, 0
13, 15861, Note_on_c, 9, 38, 0
6, 15863, Note_on_c, 4, 55, 0
10, 15863, Note_on_c, 10, 31, 0
10, 15863, Note_on_c, 10, 43, 0
6, 15927, Note_on_c, 4, 74, 0
5, 15934, Note_on_c, 3, 74, 0
6, 15971, Note_on_c, 4, 74, 123
9, 15971, Note_on_c, 8, 55, 127
13, 15971, Note_on_c, 9, 38, 105
5, 15973, Note_on_c, 3, 74, 123
6, 15973, Note_on_c, 4, 55, 123
10, 15973, Note_on_c, 10, 31, 127
10, 15973, Note_on_c, 10, 43, 127
9, 15981, Note_on_c, 8, 55, 0
13, 15982, Note_on_c, 9, 38, 0
6, 15984, Note_on_c, 4, 55, 0
10, 15984, Note_on_c, 10, 31, 0
10, 15984, Note_on_c, 10, 43, 0
13, 16032, Note_on_c, 9, 38, 105
6, 16033, Note_on_c, 4, 55, 123
10, 16033, Note_on_c, 10, 31, 127
10, 16033, Note_on_c, 10, 43, 127
9, 16037, Note_on_c, 8, 55, 127
6, 16043, Note_on_c, 4, 55, 0
10, 16043, Note_on_c, 10, 31, 0
10, 16043, Note_on_c, 10, 43, 0
13, 16043, Note_on_c, 9, 38, 0
6, 16046, Note_on_c, 4, 74, 0
9, 16046, Note_on_c, 8, 55, 0
6, 16052, Note_on_c, 4, 55, 123
10, 16052, Note_on_c, 10, 31, 127
10, 16052, Note_on_c, 10, 43, 127
13, 16052, Note_on_c, 9, 38, 81
5, 16053, Note_on_c, 3, 74, 0
9, 16056, Note_on_c, 8, 55, 127
6, 16063, Note_on_c, 4, 55, 0
10, 16063, Note_on_c, 10, 31, 0
10, 16063, Note_on_c, 10, 43, 0
13, 16063, Note_on_c, 9, 38, 0
9, 16067, Note_on_c, 8, 55, 0
13, 16071, Note_on_c, 9, 38, 105
6, 16072, Note_on_c, 4, 55, 123
10, 16072, Note_on_c, 10, 31, 127
10, 16072, Note_on_c, 10, 43, 127
9, 16077, Note_on_c, 8, 55, 127
13, 16082, Note_on_c, 9, 38, 0
6, 16084, Note_on_c, 4, 55, 0
10, 16084, Note_on_c, 10, 31, 0
10, 16084, Note_on_c, 10, 43, 0
9, 16086, Note_on_c, 8, 55, 0
6, 16090, Note_on_c, 4, 74, 123
6, 16091, Note_on_c, 4, 55, 123
10, 16091, Note_on_c, 10, 31, 127
10, 16091, Note_on_c, 10, 43, 127
13, 16091, Note_on_c, 9, 38, 105
9, 16093, Note_on_c, 8, 55, 127
5, 16095, Note_on_c, 3, 74, 123
6, 16102, Note_on_c, 4, 55, 0
10, 16102, Note_on_c, 10, 31, 0
10, 16102, Note_on_c, 10, 43, 0
13, 16102, Note_on_c, 9, 38, 0
9, 16104, Note_on_c, 8, 55, 0
9, 16151, Note_on_c, 8, 55, 127
6, 16153, Note_on_c, 4, 55, 123
10, 16153, Note_on_c, 10, 31, 127
10, 16153, Note_on_c, 10, 43, 127
13, 16155, Note_on_c, 9, 38, 105
9, 16160, Note_on_c, 8, 55, 0
6, 16163, Note_on_c, 4, 55, 0
10, 16163, Note_on_c, 10, 31, 0
10, 16163, Note_on_c, 10, 43, 0
13, 16165, Note_on_c, 9, 38, 0
6, 16168, Note_on_c, 4, 74, 0
9, 16171, Note_on_c, 8, 55, 127
6, 16172, Note_on_c, 4, 55, 123
10, 16172, Note_on_c, 10, 31, 127
10, 16172, Note_on_c, 10, 43, 127
13, 16174, Note_on_c, 9, 38, 100
5, 16175, Note_on_c, 3, 74, 0
6, 16182, Note_on_c, 4, 55, 0
10, 16182, Note_on_c, 10, 31, 0
10, 16182, Note_on_c, 10, 43, 0
9, 16183, Note_on_c, 8, 55, 0
13, 16185, Note_on_c, 9, 38, 0
9, 16191, Note_on_c, 8, 55, 127
6, 16192, Note_on_c, 4, 55, 123
10, 16192, Note_on_c, 10, 31, 127
10, 16192, Note_on_c, 10, 43, 127
13, 16192, Note_on_c, 9, 38, 105
9, 16202, Note_on_c, 8, 55, 0
6, 16204, Note_on_c, 4, 55, 0
10, 16204, Note_on_c, 10, 31, 0
10, 16204, Note_on_c, 10, 43, 0
13, 16205, Note_on_c, 9, 38, 0
12, 16208, Note_on_c, 5, 39, 119
9, 16210, Note_on_c, 8, 58, 127
9, 16210, Note_on_c, 8, 66, 127
6, 16211, Note_on_c, 4, 51, 123
10, 16211, Note_on_c, 10, 27, 127
10, 16211, Note_on_c, 10, 39, 127
10, 16211, Note_on_c, 10, 58, 127
13, 16212, Note_on_c, 9, 38, 105
6, 16214, Note_on_c, 4, 75, 123
5, 16215, Note_on_c, 3, 75, 123
6, 16221, Note_on_c, 4, 51, 0
9, 16221, Note_on_c, 8, 66, 0
10, 16221, Note_on_c, 10, 27, 0
10, 16221, Note_on_c, 10, 39, 0
12, 16221, Note_on_c, 5, 39, 0
9, 16222, Note_on_c, 8, 58, 0
10, 16222, Note_on_c, 10, 58, 0
13, 16224, Note_on_c, 9, 38, 0
12, 16228, Note_on_c, 5, 39, 119
9, 16230, Note_on_c, 8, 58, 127
9, 16230, Note_on_c, 8, 66, 127
10, 16230, Note_on_c, 10, 58, 127
6, 16231, Note_on_c, 4, 51, 123
10, 16231, Note_on_c, 10, 27, 127
10, 16231, Note_on_c, 10, 39, 127
13, 16231, Note_on_c, 9, 38, 105
12, 16239, Note_on_c, 5, 39, 0
10, 16241, Note_on_c, 10, 58, 0
6, 16242, Note_on_c, 4, 51, 0
9, 16242, Note_on_c, 8, 58, 0
9, 16242, Note_on_c, 8, 66, 0
10, 16242, Note_on_c, 10, 27, 0
10, 16242, Note_on_c, 10, 39, 0
13, 16244, Note_on_c, 9, 38, 0
9, 16250, Note_on_c, 8, 66, 127
6, 16251, Note_on_c, 4, 51, 123
9, 16251, Note_on_c, 8, 58, 127
10, 16251, Note_on_c, 10, 27, 127
10, 16251, Note_on_c, 10, 39, 127
10, 16251, Note_on_c, 10, 58, 127
12, 16251, Note_on_c, 5, 39, 119
13, 16251, Note_on_c, 9, 38, 105
9, 16260, Note_on_c, 8, 66, 0
6, 16262, Note_on_c, 4, 51, 0
10, 16262, Note_on_c, 10, 27, 0
10, 16262, Note_on_c, 10, 39, 0
9, 16263, Note_on_c, 8, 58, 0
12, 16263, Note_on_c, 5, 39, 0
13, 16263, Note_on_c, 9, 38, 0
10, 16264, Note_on_c, 10, 58, 0
6, 16266, Note_on_c, 4, 75, 0
5, 16268, Note_on_c, 3, 75, 0
9, 16270, Note_on_c, 8, 58, 127
9, 16270, Note_on_c, 8, 66, 127
10, 16270, Note_on_c, 10, 58, 127
6, 16272, Note_on_c, 4, 51, 123
10, 16272, Note_on_c, 10, 27, 127
10, 16272, Note_on_c, 10, 39, 127
12, 16273, Note_on_c, 5, 39, 119
13, 16273, Note_on_c, 9, 38, 105
9, 16280, Note_on_c, 8, 58, 0
9, 16280, Note_on_c, 8, 66, 0
13, 16284, Note_on_c, 9, 38, 0
6, 16285, Note_on_c, 4, 51, 0
10, 16285, Note_on_c, 10, 27, 0
10, 16285, Note_on_c, 10, 39, 0
10, 16285, Note_on_c, 10, 58, 0
12, 16285, Note_on_c, 5, 39, 0
6, 16301, Note_on_c, 4, 70, 123
5, 16302, Note_on_c, 3, 70, 123
5, 16318, Note_on_c, 3, 70, 0
6, 16320, Note_on_c, 4, 70, 0
6, 16328, Note_on_c, 4, 63, 123
10, 16328, Note_on_c, 10, 39, 127
10, 16328, Note_on_c, 10, 51, 127
13, 16332, Note_on_c, 9, 38, 105
5, 16333, Note_on_c, 3, 66, 123
9, 16333, Note_on_c, 8, 58, 127
9, 16333, Note_on_c, 8, 63, 127
6, 16335, Note_on_c, 4, 66, 123
6, 16341, Note_on_c, 4, 63, 0
10, 16341, Note_on_c, 10, 51, 0
9, 16343, Note_on_c, 8, 63, 0
13, 16343, Note_on_c, 9, 38, 0
10, 16344, Note_on_c, 10, 39, 0
9, 16353, Note_on_c, 8, 58, 0
5, 16408, Note_on_c, 3, 66, 0
6, 16419, Note_on_c, 4, 66, 0
5, 16450, Note_on_c, 3, 63, 123
6, 16450, Note_on_c, 4, 60, 123
9, 16450, Note_on_c, 8, 63, 127
10, 16450, Note_on_c, 10, 36, 127
10, 16450, Note_on_c, 10, 48, 127
6, 16451, Note_on_c, 4, 63, 123
13, 16451, Note_on_c, 9, 38, 105
9, 16452, Note_on_c, 8, 63, 127
9, 16454, Note_on_c, 8, 63, 0
9, 16455, Note_on_c, 8, 63, 0
13, 16462, Note_on_c, 9, 38, 0
6, 16464, Note_on_c, 4, 60, 0
10, 16464, Note_on_c, 10, 48, 0
10, 16466, Note_on_c, 10, 36, 0
6, 16501, Note_on_c, 4, 63, 0
6, 16511, Note_on_c, 4, 60, 123
10, 16511, Note_on_c, 10, 36, 127
10, 16511, Note_on_c, 10, 48, 127
13, 16511, Note_on_c, 9, 38, 105
5, 16515, Note_on_c, 3, 63, 0
9, 16519, Note_on_c, 8, 63, 127
13, 16522, Note_on_c, 9, 38, 0
6, 16525, Note_on_c, 4, 60, 0
10, 16525, Note_on_c, 10, 48, 0
10, 16527, Note_on_c, 10, 36, 0
9, 16529, Note_on_c, 8, 63, 0
6, 16531, Note_on_c, 4, 60, 123
10, 16531, Note_on_c, 10, 36, 127
10, 16531, Note_on_c, 10, 48, 127
13, 16531, Note_on_c, 9, 38, 100
9, 16536, Note_on_c, 8, 63, 127
6, 16538, Note_on_c, 4, 70, 123
5, 16540, Note_on_c, 3, 70, 123
6, 16544, Note_on_c, 4, 60, 0
10, 16544, Note_on_c, 10, 48, 0
13, 16544, Note_on_c, 9, 38, 0
10, 16546, Note_on_c, 10, 36, 0
9, 16548, Note_on_c, 8, 63, 0
6, 16551, Note_on_c, 4, 60, 123
10, 16551, Note_on_c, 10, 36, 127
10, 16551, Note_on_c, 10, 48, 127
13, 16551, Note_on_c, 9, 38, 105
6, 16555, Note_on_c, 4, 70, 0
9, 16555, Note_on_c, 8, 63, 127
5, 16560, Note_on_c, 3, 70, 0
9, 16561, Note_on_c, 8, 63, 0
6, 16564, Note_on_c, 4, 60, 0
10, 16564, Note_on_c, 10, 48, 0
13, 16564, Note_on_c, 9, 38, 0
10, 16566, Note_on_c, 10, 36, 0
6, 16570, Note_on_c, 4, 55, 123
10, 16570, Note_on_c, 10, 31, 127
10, 16570, Note_on_c, 10, 43, 127
6, 16571, Note_on_c, 4, 67, 123
13, 16571, Note_on_c, 9, 38, 105
9, 16572, Note_on_c, 8, 55, 127
5, 16573, Note_on_c, 3, 67, 123
6, 16580, Note_on_c, 4, 55, 0
10, 16580, Note_on_c, 10, 31, 0
10, 16580, Note_on_c, 10, 43, 0
9, 16583, Note_on_c, 8, 55, 0
13, 16584, Note_on_c, 9, 38, 0
4, 16630, Note_on_c, 2, 58, 108
9, 16630, Note_on_c, 8, 58, 127
4, 16631, Note_on_c, 2, 62, 127
9, 16631, Note_on_c, 8, 62, 127
13, 16632, Note_on_c, 9, 38, 105
9, 16640, Note_on_c, 8, 62, 0
9, 16642, Note_on_c, 8, 58, 0
4, 16643, Note_on_c, 2, 58, 0
13, 16643, Note_on_c, 9, 38, 0
4, 16644, Note_on_c, 2, 62, 0
4, 16650, Note_on_c, 2, 58, 103
9, 16650, Note_on_c, 8, 58, 127
9, 16650, Note_on_c, 8, 62, 127
4, 16651, Note_on_c, 2, 62, 127
6, 16651, Note_on_c, 4, 55, 123
10, 16651, Note_on_c, 10, 31, 127
10, 16651, Note_on_c, 10, 43, 127
13, 16653, Note_on_c, 9, 38, 100
6, 16662, Note_on_c, 4, 55, 0
10, 16662, Note_on_c, 10, 31, 0
10, 16662, Note_on_c, 10, 43, 0
4, 16663, Note_on_c, 2, 58, 0
9, 16663, Note_on_c, 8, 58, 0
9, 16663, Note_on_c, 8, 62, 0
4, 16664, Note_on_c, 2, 62, 0
13, 16666, Note_on_c, 9, 38, 0
4, 16670, Note_on_c, 2, 58, 114
6, 16670, Note_on_c, 4, 55, 123
9, 16670, Note_on_c, 8, 58, 127
9, 16670, Note_on_c, 8, 62, 127
10, 16670, Note_on_c, 10, 31, 127
10, 16670, Note_on_c, 10, 43, 127
4, 16671, Note_on_c, 2, 62, 127
13, 16672, Note_on_c, 9, 38, 105
4, 16683, Note_on_c, 2, 58, 0
6, 16683, Note_on_c, 4, 55, 0
9, 16683, Note_on_c, 8, 58, 0
9, 16683, Note_on_c, 8, 62, 0
10, 16683, Note_on_c, 10, 31, 0
10, 16683, Note_on_c, 10, 43, 0
4, 16684, Note_on_c, 2, 62, 0
13, 16684, Note_on_c, 9, 38, 0
4, 16690, Note_on_c, 2, 59, 108
4, 16690, Note_on_c, 2, 63, 127
9, 16690, Note_on_c, 8, 59, 127
9, 16690, Note_on_c, 8, 63, 127
12, 16690, Note_on_c, 5, 39, 119
6, 16691, Note_on_c, 4, 55, 123
10, 16691, Note_on_c, 10, 31, 127
10, 16691, Note_on_c, 10, 43, 127
13, 16691, Note_on_c, 9, 38, 105
10, 16693, Note_on_c, 10, 50, 127
6, 16702, Note_on_c, 4, 55, 0
10, 16702, Note_on_c, 10, 31, 0
10, 16702, Note_on_c, 10, 43, 0
13, 16702, Note_on_c, 9, 38, 0
4, 16703, Note_on_c, 2, 59, 0
4, 16703, Note_on_c, 2, 63, 0
9, 16703, Note_on_c, 8, 59, 0
9, 16703, Note_on_c, 8, 63, 0
10, 16703, Note_on_c, 10, 50, 0
12, 16703, Note_on_c, 5, 39, 0
4, 16710, Note_on_c, 2, 59, 114
6, 16710, Note_on_c, 4, 55, 123
9, 16710, Note_on_c, 8, 59, 127
9, 16710, Note_on_c, 8, 63, 127
10, 16710, Note_on_c, 10, 31, 127
10, 16710, Note_on_c, 10, 43, 127
4, 16711, Note_on_c, 2, 63, 127
13, 16711, Note_on_c, 9, 38, 105
10, 16713, Note_on_c, 10, 50, 127
12, 16713, Note_on_c, 5, 39, 119
6, 16717, Note_on_c, 4, 67, 0
5, 16719, Note_on_c, 3, 67, 0
4, 16722, Note_on_c, 2, 59, 0
9, 16722, Note_on_c, 8, 59, 0
9, 16722, Note_on_c, 8, 63, 0
4, 16723, Note_on_c, 2, 63, 0
6, 16723, Note_on_c, 4, 55, 0
10, 16723, Note_on_c, 10, 31, 0
10, 16723, Note_on_c, 10, 43, 0
12, 16723, Note_on_c, 5, 39, 0
13, 16724, Note_on_c, 9, 38, 0
10, 16726, Note_on_c, 10, 50, 0
4, 16729, Note_on_c, 2, 59, 127
4, 16730, Note_on_c, 2, 63, 127
6, 16730, Note_on_c, 4, 55, 123
9, 16730, Note_on_c, 8, 59, 127
9, 16730, Note_on_c, 8, 63, 127
10, 16730, Note_on_c, 10, 31, 127
10, 16730, Note_on_c, 10, 43, 127
13, 16731, Note_on_c, 9, 38, 105
10, 16733, Note_on_c, 10, 50, 127
12, 16737, Note_on_c, 5, 39, 119
4, 16742, Note_on_c, 2, 59, 0
6, 16742, Note_on_c, 4, 55, 0
10, 16742, Note_on_c, 10, 31, 0
10, 16742, Note_on_c, 10, 43, 0
13, 16742, Note_on_c, 9, 38, 0
4, 16743, Note_on_c, 2, 63, 0
9, 16743, Note_on_c, 8, 59, 0
9, 16743, Note_on_c, 8, 63, 0
10, 16744, Note_on_c, 10, 50, 0
12, 16747, Note_on_c, 5, 39, 0
4, 16750, Note_on_c, 2, 61, 108
4, 16750, Note_on_c, 2, 65, 127
6, 16750, Note_on_c, 4, 55, 123
9, 16750, Note_on_c, 8, 61, 127
9, 16750, Note_on_c, 8, 65, 127
10, 16750, Note_on_c, 10, 31, 127
10, 16750, Note_on_c, 10, 43, 127
13, 16751, Note_on_c, 9, 38, 105
10, 16752, Note_on_c, 10, 50, 127
12, 16755, Note_on_c, 5, 39, 119
13, 16761, Note_on_c, 9, 38, 0
4, 16762, Note_on_c, 2, 61, 0
4, 16762, Note_on_c, 2, 65, 0
9, 16762, Note_on_c, 8, 61, 0
9, 16762, Note_on_c, 8, 65, 0
6, 16763, Note_on_c, 4, 55, 0
10, 16763, Note_on_c, 10, 31, 0
10, 16763, Note_on_c, 10, 43, 0
10, 16765, Note_on_c, 10, 50, 0
12, 16767, Note_on_c, 5, 39, 0
13, 16768, Note_on_c, 9, 38, 105
4, 16769, Note_on_c, 2, 61, 108
4, 16769, Note_on_c, 2, 65, 127
9, 16770, Note_on_c, 8, 61, 127
9, 16770, Note_on_c, 8, 65, 127
13, 16779, Note_on_c, 9, 38, 0
4, 16782, Note_on_c, 2, 61, 0
4, 16782, Note_on_c, 2, 65, 0
9, 16783, Note_on_c, 8, 61, 0
9, 16783, Note_on_c, 8, 65, 0
4, 16788, Note_on_c, 2, 65, 127
4, 16790, Note_on_c, 2, 61, 108
9, 16790, Note_on_c, 8, 61, 127
9, 16790, Note_on_c, 8, 65, 127
13, 16790, Note_on_c, 9, 38, 105
4, 16799, Note_on_c, 2, 65, 0
13, 16799, Note_on_c, 9, 38, 0
4, 16801, Note_on_c, 2, 61, 0
9, 16801, Note_on_c, 8, 61, 0
9, 16801, Note_on_c, 8, 65, 0
6, 16810, Note_on_c, 4, 55, 123
6, 16810, Note_on_c, 4, 79, 123
10, 16810, Note_on_c, 10, 31, 127
10, 16810, Note_on_c, 10, 43, 127
9, 16811, Note_on_c, 8, 67, 127
13, 16812, Note_on_c, 9, 38, 105
5, 16817, Note_on_c, 3, 79, 123
9, 16820, Note_on_c, 8, 67, 0
6, 16821, Note_on_c, 4, 55, 0
10, 16821, Note_on_c, 10, 31, 0
10, 16821, Note_on_c, 10, 43, 0
13, 16822, Note_on_c, 9, 38, 0
5, 16889, Note_on_c, 3, 79, 0
6, 16902, Note_on_c, 4, 79, 0
5, 16930, Note_on_c, 3, 67, 123
9, 16930, Note_on_c, 8, 67, 127
6, 16931, Note_on_c, 4, 55, 123
6, 16931, Note_on_c, 4, 67, 123
10, 16931, Note_on_c, 10, 31, 127
10, 16931, Note_on_c, 10, 43, 127
13, 16931, Note_on_c, 9, 38, 105
9, 16941, Note_on_c, 8, 67, 0
6, 16942, Note_on_c, 4, 55, 0
10, 16942, Note_on_c, 10, 31, 0
10, 16942, Note_on_c, 10, 43, 0
13, 16942, Note_on_c, 9, 38, 0
5, 16974, Note_on_c, 3, 67, 0
6, 16991, Note_on_c, 4, 67, 0
13, 16991, Note_on_c, 9, 38, 105
6, 16993, Note_on_c, 4, 55, 123
10, 16993, Note_on_c, 10, 31, 127
10, 16993, Note_on_c, 10, 43, 127
9, 16996, Note_on_c, 8, 67, 127
13, 17001, Note_on_c, 9, 38, 0
6, 17003, Note_on_c, 4, 55, 0
10, 17003, Note_on_c, 10, 31, 0
10, 17003, Note_on_c, 10, 43, 0
9, 17005, Note_on_c, 8, 67, 0
13, 17008, Note_on_c, 9, 38, 105
6, 17013, Note_on_c, 4, 55, 123
10, 17013, Note_on_c, 10, 31, 127
10, 17013, Note_on_c, 10, 43, 127
9, 17015, Note_on_c, 8, 67, 127
13, 17020, Note_on_c, 9, 38, 0
6, 17023, Note_on_c, 4, 55, 0
10, 17023, Note_on_c, 10, 31, 0
10, 17023, Note_on_c, 10, 43, 0
6, 17025, Note_on_c, 4, 67, 123
9, 17026, Note_on_c, 8, 67, 0
5, 17028, Note_on_c, 3, 67, 123
13, 17030, Note_on_c, 9, 38, 105
6, 17032, Note_on_c, 4, 55, 123
10, 17032, Note_on_c, 10, 31, 127
10, 17032, Note_on_c, 10, 43, 127
9, 17034, Note_on_c, 8, 67, 127
13, 17039, Note_on_c, 9, 38, 0
6, 17043, Note_on_c, 4, 55, 0
10, 17043, Note_on_c, 10, 31, 0
10, 17043, Note_on_c, 10, 43, 0
9, 17045, Note_on_c, 8, 67, 0
5, 17046, Note_on_c, 3, 67, 0
6, 17048, Note_on_c, 4, 67, 0
9, 17050, Note_on_c, 8, 67, 127
13, 17050, Note_on_c, 9, 38, 105
6, 17051, Note_on_c, 4, 55, 123
10, 17051, Note_on_c, 10, 31, 127
10, 17051, Note_on_c, 10, 43, 127
6, 17055, Note_on_c, 4, 79, 123
5, 17056, Note_on_c, 3, 79, 123
6, 17061, Note_on_c, 4, 55, 0
10, 17061, Note_on_c, 10, 31, 0
10, 17061, Note_on_c, 10, 43, 0
9, 17063, Note_on_c, 8, 67, 0
13, 17065, Note_on_c, 9, 38, 0
6, 17111, Note_on_c, 4, 55, 123
10, 17111, Note_on_c, 10, 31, 127
10, 17111, Note_on_c, 10, 43, 127
13, 17111, Note_on_c, 9, 38, 105
9, 17113, Note_on_c, 8, 67, 127
6, 17122, Note_on_c, 4, 55, 0
10, 17122, Note_on_c, 10, 31, 0
10, 17122, Note_on_c, 10, 43, 0
13, 17122, Note_on_c, 9, 38, 0
9, 17123, Note_on_c, 8, 67, 0
6, 17131, Note_on_c, 4, 55, 123
6, 17131, Note_on_c, 4, 79, 0
10, 17131, Note_on_c, 10, 31, 127
10, 17131, Note_on_c, 10, 43, 127
9, 17132, Note_on_c, 8, 67, 127
13, 17132, Note_on_c, 9, 38, 105
5, 17137, Note_on_c, 3, 79, 0
6, 17142, Note_on_c, 4, 55, 0
10, 17142, Note_on_c, 10, 31, 0
10, 17142, Note_on_c, 10, 43, 0
9, 17143, Note_on_c, 8, 67, 0
13, 17144, Note_on_c, 9, 38, 0
6, 17150, Note_on_c, 4, 55, 123
10, 17150, Note_on_c, 10, 31, 127
10, 17150, Note_on_c, 10, 43, 127
9, 17152, Note_on_c, 8, 67, 127
13, 17152, Note_on_c, 9, 38, 105
6, 17162, Note_on_c, 4, 55, 0
9, 17162, Note_on_c, 8, 67, 0
10, 17162, Note_on_c, 10, 31, 0
10, 17162, Note_on_c, 10, 43, 0
6, 17164, Note_on_c, 4, 78, 123
13, 17164, Note_on_c, 9, 38, 0
9, 17170, Note_on_c, 8, 63, 127
6, 17171, Note_on_c, 4, 51, 123
9, 17171, Note_on_c, 8, 67, 127
10, 17171, Note_on_c, 10, 27, 127
10, 17171, Note_on_c, 10, 39, 127
13, 17171, Note_on_c, 9, 38, 105
5, 17176, Note_on_c, 3, 78, 123
12, 17176, Note_on_c, 5, 43, 119
6, 17181, Note_on_c, 4, 51, 0
10, 17181, Note_on_c, 10, 27, 0
10, 17181, Note_on_c, 10, 39, 0
9, 17182, Note_on_c, 8, 67, 0
13, 17182, Note_on_c, 9, 38, 0
9, 17183, Note_on_c, 8, 63, 0
6, 17189, Note_on_c, 4, 51, 123
10, 17189, Note_on_c, 10, 27, 127
10, 17189, Note_on_c, 10, 39, 127
9, 17190, Note_on_c, 8, 67, 127
12, 17190, Note_on_c, 5, 43, 0
13, 17190, Note_on_c, 9, 38, 105
9, 17191, Note_on_c, 8, 63, 127
9, 17201, Note_on_c, 8, 63, 0
9, 17201, Note_on_c, 8, 67, 0
12, 17201, Note_on_c, 5, 43, 119
6, 17203, Note_on_c, 4, 51, 0
10, 17203, Note_on_c, 10, 27, 0
10, 17203, Note_on_c, 10, 39, 0
13, 17203, Note_on_c, 9, 38, 0
9, 17208, Note_on_c, 8, 67, 127
6, 17209, Note_on_c, 4, 51, 123
10, 17209, Note_on_c, 10, 27, 127
10, 17209, Note_on_c, 10, 39, 127
13, 17210, Note_on_c, 9, 38, 105
9, 17211, Note_on_c, 8, 63, 127
12, 17211, Note_on_c, 5, 43, 0
9, 17218, Note_on_c, 8, 67, 0
6, 17220, Note_on_c, 4, 51, 0
10, 17220, Note_on_c, 10, 27, 0
10, 17220, Note_on_c, 10, 39, 0
9, 17222, Note_on_c, 8, 63, 0
12, 17222, Note_on_c, 5, 43, 119
13, 17223, Note_on_c, 9, 38, 0
6, 17229, Note_on_c, 4, 78, 0
9, 17229, Note_on_c, 8, 67, 127
6, 17230, Note_on_c, 4, 51, 123
9, 17230, Note_on_c, 8, 63, 127
10, 17230, Note_on_c, 10, 27, 127
10, 17230, Note_on_c, 10, 39, 127
13, 17231, Note_on_c, 9, 38, 105
12, 17234, Note_on_c, 5, 43, 0
5, 17238, Note_on_c, 3, 78, 0
9, 17239, Note_on_c, 8, 67, 0
12, 17241, Note_on_c, 5, 43, 119
6, 17243, Note_on_c, 4, 51, 0
9, 17243, Note_on_c, 8, 63, 0
10, 17243, Note_on_c, 10, 27, 0
10, 17243, Note_on_c, 10, 39, 0
13, 17243, Note_on_c, 9, 38, 0
12, 17251, Note_on_c, 5, 43, 0
6, 17262, Note_on_c, 4, 77, 123
5, 17268, Note_on_c, 3, 77, 123
6, 17282, Note_on_c, 4, 77, 0
5, 17288, Note_on_c, 3, 77, 0
6, 17288, Note_on_c, 4, 76, 123
6, 17289, Note_on_c, 4, 61, 123
10, 17289, Note_on_c, 10, 49, 127
9, 17292, Note_on_c, 8, 64, 127
9, 17292, Note_on_c, 8, 68, 127
10, 17293, Note_on_c, 10, 37, 127
13, 17293, Note_on_c, 9, 38, 105
12, 17294, Note_on_c, 5, 49, 119
5, 17295, Note_on_c, 3, 76, 123
9, 17300, Note_on_c, 8, 64, 0
9, 17300, Note_on_c, 8, 68, 0
6, 17301, Note_on_c, 4, 61, 0
10, 17301, Note_on_c, 10, 49, 0
10, 17305, Note_on_c, 10, 37, 0
13, 17306, Note_on_c, 9, 38, 0
6, 17316, Note_on_c, 4, 76, 0
5, 17317, Note_on_c, 3, 76, 0
5, 17323, Note_on_c, 3, 75, 123
12, 17323, Note_on_c, 5, 49, 0
6, 17328, Note_on_c, 4, 75, 123
5, 17341, Note_on_c, 3, 75, 0
5, 17347, Note_on_c, 3, 76, 123
6, 17348, Note_on_c, 4, 75, 0
6, 17350, Note_on_c, 4, 76, 123
6, 17377, Note_on_c, 4, 76, 0
5, 17386, Note_on_c, 3, 76, 0
6, 17407, Note_on_c, 4, 61, 123
10, 17407, Note_on_c, 10, 49, 127
10, 17410, Note_on_c, 10, 37, 127
9, 17413, Note_on_c, 8, 64, 127
9, 17413, Note_on_c, 8, 68, 127
13, 17413, Note_on_c, 9, 38, 105
6, 17418, Note_on_c, 4, 61, 0
10, 17418, Note_on_c, 10, 49, 0
9, 17421, Note_on_c, 8, 64, 0
9, 17421, Note_on_c, 8, 68, 0
10, 17421, Note_on_c, 10, 37, 0
13, 17425, Note_on_c, 9, 38, 0
6, 17470, Note_on_c, 4, 61, 123
10, 17470, Note_on_c, 10, 37, 127
10, 17470, Note_on_c, 10, 49, 127
5, 17471, Note_on_c, 3, 68, 123
6, 17473, Note_on_c, 4, 68, 123
13, 17473, Note_on_c, 9, 38, 95
9, 17476, Note_on_c, 8, 64, 127
9, 17476, Note_on_c, 8, 68, 127
6, 17481, Note_on_c, 4, 61, 0
10, 17481, Note_on_c, 10, 37, 0
10, 17481, Note_on_c, 10, 49, 0
13, 17483, Note_on_c, 9, 38, 0
9, 17485, Note_on_c, 8, 64, 0
9, 17485, Note_on_c, 8, 68, 0
6, 17490, Note_on_c, 4, 61, 123
10, 17490, Note_on_c, 10, 37, 127
10, 17490, Note_on_c, 10, 49, 127
13, 17492, Note_on_c, 9, 38, 105
5, 17493, Note_on_c, 3, 68, 0
9, 17493, Note_on_c, 8, 64, 127
9, 17493, Note_on_c, 8, 68, 127
6, 17496, Note_on_c, 4, 68, 0
6, 17501, Note_on_c, 4, 61, 0
10, 17501, Note_on_c, 10, 37, 0
10, 17501, Note_on_c, 10, 49, 0
9, 17503, Note_on_c, 8, 64, 0
9, 17503, Note_on_c, 8, 68, 0
13, 17503, Note_on_c, 9, 38, 0
6, 17510, Note_on_c, 4, 61, 123
10, 17510, Note_on_c, 10, 37, 127
10, 17510, Note_on_c, 10, 49, 127
13, 17512, Note_on_c, 9, 38, 105
9, 17513, Note_on_c, 8, 64, 127
9, 17513, Note_on_c, 8, 68, 127
6, 17521, Note_on_c, 4, 61, 0
10, 17521, Note_on_c, 10, 37, 0
10, 17521, Note_on_c, 10, 49, 0
9, 17524, Note_on_c, 8, 64, 0
9, 17524, Note_on_c, 8, 68, 0
13, 17524, Note_on_c, 9, 38, 0
9, 17528, Note_on_c, 8, 64, 127
9, 17528, Note_on_c, 8, 68, 127
6, 17530, Note_on_c, 4, 61, 123
10, 17530, Note_on_c, 10, 37, 127
10, 17530, Note_on_c, 10, 49, 127
13, 17530, Note_on_c, 9, 38, 95
6, 17533, Note_on_c, 4, 73, 123
5, 17535, Note_on_c, 3, 73, 123
9, 17539, Note_on_c, 8, 64, 0
9, 17539, Note_on_c, 8, 68, 0
13, 17540, Note_on_c, 9, 38, 0
6, 17541, Note_on_c, 4, 61, 0
10, 17541, Note_on_c, 10, 37, 0
10, 17541, Note_on_c, 10, 49, 0
6, 17588, Note_on_c, 4, 61, 123
10, 17588, Note_on_c, 10, 37, 127
10, 17588, Note_on_c, 10, 49, 127
13, 17591, Note_on_c, 9, 38, 105
9, 17595, Note_on_c, 8, 64, 127
9, 17595, Note_on_c, 8, 68, 127
6, 17599, Note_on_c, 4, 61, 0
10, 17599, Note_on_c, 10, 37, 0
10, 17599, Note_on_c, 10, 49, 0
13, 17602, Note_on_c, 9, 38, 0
9, 17604, Note_on_c, 8, 64, 0
9, 17604, Note_on_c, 8, 68, 0
6, 17608, Note_on_c, 4, 61, 123
10, 17608, Note_on_c, 10, 37, 127
10, 17608, Note_on_c, 10, 49, 127
13, 17610, Note_on_c, 9, 38, 105
6, 17613, Note_on_c, 4, 73, 0
9, 17615, Note_on_c, 8, 64, 127
9, 17615, Note_on_c, 8, 68, 127
6, 17619, Note_on_c, 4, 61, 0
10, 17619, Note_on_c, 10, 37, 0
10, 17619, Note_on_c, 10, 49, 0
13, 17623, Note_on_c, 9, 38, 0
5, 17625, Note_on_c, 3, 73, 0
9, 17626, Note_on_c, 8, 64, 0
9, 17626, Note_on_c, 8, 68, 0
6, 17630, Note_on_c, 4, 61, 123
10, 17630, Note_on_c, 10, 37, 127
10, 17630, Note_on_c, 10, 49, 127
13, 17630, Note_on_c, 9, 38, 105
9, 17632, Note_on_c, 8, 64, 127
9, 17632, Note_on_c, 8, 68, 127
6, 17641, Note_on_c, 4, 61, 0
10, 17641, Note_on_c, 10, 37, 0
10, 17641, Note_on_c, 10, 49, 0
13, 17642, Note_on_c, 9, 38, 0
9, 17644, Note_on_c, 8, 64, 0
9, 17644, Note_on_c, 8, 68, 0
6, 17650, Note_on_c, 4, 61, 123
9, 17650, Note_on_c, 8, 64, 127
9, 17650, Note_on_c, 8, 68, 127
10, 17650, Note_on_c, 10, 37, 127
10, 17650, Note_on_c, 10, 49, 127
12, 17650, Note_on_c, 5, 49, 119
13, 17650, Note_on_c, 9, 38, 105
5, 17653, Note_on_c, 3, 72, 123
6, 17653, Note_on_c, 4, 72, 123
6, 17661, Note_on_c, 4, 61, 0
9, 17661, Note_on_c, 8, 64, 0
9, 17661, Note_on_c, 8, 68, 0
10, 17661, Note_on_c, 10, 37, 0
10, 17661, Note_on_c, 10, 49, 0
13, 17661, Note_on_c, 9, 38, 0
12, 17663, Note_on_c, 5, 49, 0
6, 17670, Note_on_c, 4, 61, 123
10, 17670, Note_on_c, 10, 37, 127
10, 17670, Note_on_c, 10, 49, 127
12, 17670, Note_on_c, 5, 49, 119
13, 17670, Note_on_c, 9, 38, 105
9, 17671, Note_on_c, 8, 64, 127
9, 17671, Note_on_c, 8, 68, 127
9, 17682, Note_on_c, 8, 64, 0
9, 17682, Note_on_c, 8, 68, 0
6, 17683, Note_on_c, 4, 61, 0
10, 17683, Note_on_c, 10, 37, 0
10, 17683, Note_on_c, 10, 49, 0
12, 17683, Note_on_c, 5, 49, 0
13, 17684, Note_on_c, 9, 38, 0
9, 17686, Note_on_c, 8, 64, 127
9, 17686, Note_on_c, 8, 68, 127
6, 17688, Note_on_c, 4, 61, 123
10, 17688, Note_on_c, 10, 37, 127
10, 17688, Note_on_c, 10, 49, 127
13, 17690, Note_on_c, 9, 38, 105
12, 17693, Note_on_c, 5, 49, 119
9, 17697, Note_on_c, 8, 64, 0
9, 17697, Note_on_c, 8, 68, 0
6, 17699, Note_on_c, 4, 61, 0
10, 17699, Note_on_c, 10, 37, 0
10, 17699, Note_on_c, 10, 49, 0
13, 17701, Note_on_c, 9, 38, 0
12, 17705, Note_on_c, 5, 49, 0
9, 17709, Note_on_c, 8, 64, 127
9, 17709, Note_on_c, 8, 68, 127
6, 17710, Note_on_c, 4, 61, 123
10, 17710, Note_on_c, 10, 37, 127
10, 17710, Note_on_c, 10, 49, 127
13, 17711, Note_on_c, 9, 38, 105
12, 17713, Note_on_c, 5, 49, 119
6, 17719, Note_on_c, 4, 72, 0
9, 17719, Note_on_c, 8, 64, 0
9, 17719, Note_on_c, 8, 68, 0
6, 17721, Note_on_c, 4, 61, 0
10, 17721, Note_on_c, 10, 37, 0
10, 17721, Note_on_c, 10, 49, 0
12, 17722, Note_on_c, 5, 49, 0
13, 17722, Note_on_c, 9, 38, 0
5, 17728, Note_on_c, 3, 72, 0
6, 17743, Note_on_c, 4, 71, 123
5, 17745, Note_on_c, 3, 71, 123
6, 17765, Note_on_c, 4, 71, 0
5, 17766, Note_on_c, 3, 71, 0
6, 17769, Note_on_c, 4, 63, 123
10, 17769, Note_on_c, 10, 51, 127
10, 17771, Note_on_c, 10, 39, 127
13, 17772, Note_on_c, 9, 38, 105
9, 17773, Note_on_c, 8, 63, 127
9, 17773, Note_on_c, 8, 66, 127
6, 17775, Note_on_c, 4, 70, 123
5, 17776, Note_on_c, 3, 70, 123
6, 17781, Note_on_c, 4, 63, 0
10, 17781, Note_on_c, 10, 39, 0
10, 17781, Note_on_c, 10, 51, 0
13, 17782, Note_on_c, 9, 38, 0
9, 17784, Note_on_c, 8, 63, 0
9, 17784, Note_on_c, 8, 66, 0
5, 17798, Note_on_c, 3, 70, 0
6, 17798, Note_on_c, 4, 70, 0
6, 17802, Note_on_c, 4, 69, 123
5, 17805, Note_on_c, 3, 69, 123
6, 17820, Note_on_c, 4, 69, 0
5, 17825, Note_on_c, 3, 69, 0
6, 17833, Note_on_c, 4, 70, 123
5, 17836, Note_on_c, 3, 70, 123
5, 17852, Note_on_c, 3, 70, 0
6, 17859, Note_on_c, 4, 70, 0
6, 17887, Note_on_c, 4, 63, 123
9, 17887, Note_on_c, 8, 63, 127
9, 17887, Note_on_c, 8, 66, 127
10, 17887, Note_on_c, 10, 39, 127
10, 17887, Note_on_c, 10, 51, 127
13, 17891, Note_on_c, 9, 38, 105
6, 17898, Note_on_c, 4, 63, 0
9, 17898, Note_on_c, 8, 63, 0
9, 17898, Note_on_c, 8, 66, 0
10, 17898, Note_on_c, 10, 39, 0
10, 17898, Note_on_c, 10, 51, 0
13, 17902, Note_on_c, 9, 38, 0
6, 17950, Note_on_c, 4, 63, 123
9, 17950, Note_on_c, 8, 63, 127
9, 17950, Note_on_c, 8, 66, 127
10, 17950, Note_on_c, 10, 39, 127
10, 17950, Note_on_c, 10, 51, 127
13, 17951, Note_on_c, 9, 38, 105
6, 17955, Note_on_c, 4, 63, 123
5, 17956, Note_on_c, 3, 63, 123
6, 17958, Note_on_c, 4, 63, 0
6, 17959, Note_on_c, 4, 63, 0
9, 17961, Note_on_c, 8, 63, 0
9, 17961, Note_on_c, 8, 66, 0
10, 17961, Note_on_c, 10, 39, 0
10, 17961, Note_on_c, 10, 51, 0
13, 17961, Note_on_c, 9, 38, 0
13, 17968, Note_on_c, 9, 38, 105
6, 17970, Note_on_c, 4, 63, 123
9, 17970, Note_on_c, 8, 63, 127
9, 17970, Note_on_c, 8, 66, 127
10, 17970, Note_on_c, 10, 39, 127
10, 17970, Note_on_c, 10, 51, 127
6, 17975, Note_on_c, 4, 63, 0
5, 17977, Note_on_c, 3, 63, 0
13, 17980, Note_on_c, 9, 38, 0
9, 17981, Note_on_c, 8, 63, 0
9, 17981, Note_on_c, 8, 66, 0
10, 17981, Note_on_c, 10, 39, 0
10, 17981, Note_on_c, 10, 51, 0
6, 17989, Note_on_c, 4, 63, 123
10, 17989, Note_on_c, 10, 51, 127
9, 17990, Note_on_c, 8, 63, 127
9, 17990, Note_on_c, 8, 66, 127
10, 17990, Note_on_c, 10, 39, 127
13, 17990, Note_on_c, 9, 38, 105
13, 17999, Note_on_c, 9, 38, 0
6, 18000, Note_on_c, 4, 63, 0
10, 18000, Note_on_c, 10, 51, 0
9, 18001, Note_on_c, 8, 63, 0
9, 18001, Note_on_c, 8, 66, 0
10, 18001, Note_on_c, 10, 39, 0
6, 18010, Note_on_c, 4, 62, 123
9, 18010, Note_on_c, 8, 63, 127
9, 18010, Note_on_c, 8, 66, 127
10, 18010, Note_on_c, 10, 38, 127
10, 18010, Note_on_c, 10, 50, 127
13, 18010, Note_on_c, 9, 38, 105
5, 18014, Note_on_c, 3, 66, 123
6, 18015, Note_on_c, 4, 66, 123
9, 18021, Note_on_c, 8, 63, 0
9, 18021, Note_on_c, 8, 66, 0
13, 18025, Note_on_c, 9, 38, 0
6, 18035, Note_on_c, 4, 62, 0
10, 18035, Note_on_c, 10, 50, 0
10, 18041, Note_on_c, 10, 38, 0
13, 18071, Note_on_c, 9, 38, 105
13, 18082, Note_on_c, 9, 38, 0
6, 18087, Note_on_c, 4, 66, 0
13, 18092, Note_on_c, 9, 38, 105
5, 18098, Note_on_c, 3, 66, 0
13, 18104, Note_on_c, 9, 38, 0
13, 18112, Note_on_c, 9, 38, 105
13, 18124, Note_on_c, 9, 38, 0
6, 18130, Note_on_c, 4, 60, 123
9, 18130, Note_on_c, 8, 63, 127
9, 18130, Note_on_c, 8, 66, 127
10, 18130, Note_on_c, 10, 36, 127
10, 18130, Note_on_c, 10, 48, 127
12, 18131, Note_on_c, 5, 42, 119
13, 18131, Note_on_c, 9, 38, 105
5, 18133, Note_on_c, 3, 63, 123
6, 18137, Note_on_c, 4, 63, 123
6, 18141, Note_on_c, 4, 60, 0
9, 18141, Note_on_c, 8, 63, 0
9, 18141, Note_on_c, 8, 66, 0
10, 18141, Note_on_c, 10, 36, 0
10, 18141, Note_on_c, 10, 48, 0
13, 18142, Note_on_c, 9, 38, 0
12, 18145, Note_on_c, 5, 42, 0
6, 18150, Note_on_c, 4, 60, 123
9, 18150, Note_on_c, 8, 63, 127
9, 18150, Note_on_c, 8, 66, 127
10, 18150, Note_on_c, 10, 36, 127
10, 18150, Note_on_c, 10, 48, 127
13, 18150, Note_on_c, 9, 38, 105
12, 18156, Note_on_c, 5, 42, 119
6, 18163, Note_on_c, 4, 60, 0
9, 18163, Note_on_c, 8, 63, 0
9, 18163, Note_on_c, 8, 66, 0
10, 18163, Note_on_c, 10, 36, 0
10, 18163, Note_on_c, 10, 48, 0
13, 18163, Note_on_c, 9, 38, 0
12, 18166, Note_on_c, 5, 42, 0
6, 18168, Note_on_c, 4, 60, 123
9, 18168, Note_on_c, 8, 63, 127
9, 18168, Note_on_c, 8, 66, 127
10, 18168, Note_on_c, 10, 36, 127
10, 18168, Note_on_c, 10, 48, 127
13, 18170, Note_on_c, 9, 38, 105
12, 18177, Note_on_c, 5, 42, 119
6, 18179, Note_on_c, 4, 60, 0
9, 18179, Note_on_c, 8, 63, 0
9, 18179, Note_on_c, 8, 66, 0
10, 18179, Note_on_c, 10, 36, 0
10, 18179, Note_on_c, 10, 48, 0
13, 18183, Note_on_c, 9, 38, 0
12, 18189, Note_on_c, 5, 42, 0
6, 18190, Note_on_c, 4, 60, 123
9, 18190, Note_on_c, 8, 63, 127
9, 18190, Note_on_c, 8, 66, 127
10, 18190, Note_on_c, 10, 36, 127
10, 18190, Note_on_c, 10, 48, 127
13, 18191, Note_on_c, 9, 38, 105
12, 18196, Note_on_c, 5, 42, 119
6, 18201, Note_on_c, 4, 60, 0
9, 18201, Note_on_c, 8, 63, 0
9, 18201, Note_on_c, 8, 66, 0
10, 18201, Note_on_c, 10, 36, 0
10, 18201, Note_on_c, 10, 48, 0
13, 18203, Note_on_c, 9, 38, 0
6, 18205, Note_on_c, 4, 63, 0
12, 18206, Note_on_c, 5, 42, 0
5, 18208, Note_on_c, 3, 63, 0
5, 18225, Note_on_c, 3, 66, 123
6, 18226, Note_on_c, 4, 66, 123
5, 18241, Note_on_c, 3, 66, 0
6, 18241, Note_on_c, 4, 66, 0
6, 18251, Note_on_c, 4, 55, 123
9, 18251, Note_on_c, 8, 67, 127
10, 18251, Note_on_c, 10, 31, 127
10, 18251, Note_on_c, 10, 43, 127
13, 18253, Note_on_c, 9, 38, 105
5, 18256, Note_on_c, 3, 70, 123
6, 18260, Note_on_c, 4, 70, 123
6, 18262, Note_on_c, 4, 55, 0
9, 18262, Note_on_c, 8, 67, 0
10, 18262, Note_on_c, 10, 31, 0
10, 18262, Note_on_c, 10, 43, 0
13, 18266, Note_on_c, 9, 38, 0
5, 18339, Note_on_c, 3, 70, 0
6, 18341, Note_on_c, 4, 70, 0
6, 18370, Note_on_c, 4, 63, 123
9, 18370, Note_on_c, 8, 63, 127
9, 18370, Note_on_c, 8, 67, 127
10, 18370, Note_on_c, 10, 39, 127
10, 18370, Note_on_c, 10, 51, 127
13, 18373, Note_on_c, 9, 38, 105
6, 18375, Note_on_c, 4, 67, 123
5, 18377, Note_on_c, 3, 67, 123
6, 18381, Note_on_c, 4, 63, 0
9, 18381, Note_on_c, 8, 63, 0
9, 18381, Note_on_c, 8, 67, 0
10, 18381, Note_on_c, 10, 39, 0
10, 18381, Note_on_c, 10, 51, 0
13, 18385, Note_on_c, 9, 38, 0
6, 18390, Note_on_c, 4, 63, 123
9, 18390, Note_on_c, 8, 63, 127
9, 18390, Note_on_c, 8, 67, 127
10, 18390, Note_on_c, 10, 39, 127
10, 18390, Note_on_c, 10, 51, 127
6, 18403, Note_on_c, 4, 63, 0
9, 18403, Note_on_c, 8, 63, 0
9, 18403, Note_on_c, 8, 67, 0
10, 18403, Note_on_c, 10, 39, 0
10, 18403, Note_on_c, 10, 51, 0
6, 18408, Note_on_c, 4, 63, 123
9, 18408, Note_on_c, 8, 63, 127
9, 18408, Note_on_c, 8, 67, 127
10, 18408, Note_on_c, 10, 39, 127
10, 18408, Note_on_c, 10, 51, 127
6, 18419, Note_on_c, 4, 63, 0
9, 18419, Note_on_c, 8, 63, 0
9, 18419, Note_on_c, 8, 67, 0
10, 18419, Note_on_c, 10, 39, 0
10, 18419, Note_on_c, 10, 51, 0
6, 18430, Note_on_c, 4, 63, 123
9, 18430, Note_on_c, 8, 63, 127
9, 18430, Note_on_c, 8, 67, 127
10, 18430, Note_on_c, 10, 51, 127
10, 18431, Note_on_c, 10, 39, 127
13, 18433, Note_on_c, 9, 38, 95
5, 18437, Note_on_c, 3, 67, 0
6, 18441, Note_on_c, 4, 63, 0
9, 18441, Note_on_c, 8, 63, 0
9, 18441, Note_on_c, 8, 67, 0
10, 18441, Note_on_c, 10, 51, 0
6, 18442, Note_on_c, 4, 67, 0
10, 18442, Note_on_c, 10, 39, 0
13, 18443, Note_on_c, 9, 38, 0
13, 18452, Note_on_c, 9, 38, 105
13, 18463, Note_on_c, 9, 38, 0
5, 18465, Note_on_c, 3, 70, 123
6, 18465, Note_on_c, 4, 70, 123
13, 18472, Note_on_c, 9, 38, 105
6, 18481, Note_on_c, 4, 70, 0
5, 18482, Note_on_c, 3, 70, 0
13, 18484, Note_on_c, 9, 38, 0
13, 18490, Note_on_c, 9, 38, 95
6, 18493, Note_on_c, 4, 55, 123
9, 18493, Note_on_c, 8, 67, 127
10, 18493, Note_on_c, 10, 31, 127
10, 18493, Note_on_c, 10, 43, 127
5, 18496, Note_on_c, 3, 74, 123
6, 18497, Note_on_c, 4, 74, 123
13, 18500, Note_on_c, 9, 38, 0
6, 18503, Note_on_c, 4, 55, 0
9, 18503, Note_on_c, 8, 67, 0
10, 18503, Note_on_c, 10, 31, 0
10, 18503, Note_on_c, 10, 43, 0
6, 18551, Note_on_c, 4, 55, 123
9, 18551, Note_on_c, 8, 67, 127
10, 18551, Note_on_c, 10, 31, 127
10, 18551, Note_on_c, 10, 43, 127
13, 18551, Note_on_c, 9, 38, 105
6, 18562, Note_on_c, 4, 55, 0
9, 18562, Note_on_c, 8, 67, 0
10, 18562, Note_on_c, 10, 31, 0
10, 18562, Note_on_c, 10, 43, 0
13, 18562, Note_on_c, 9, 38, 0
13, 18570, Note_on_c, 9, 38, 105
6, 18571, Note_on_c, 4, 55, 123
9, 18571, Note_on_c, 8, 67, 127
10, 18571, Note_on_c, 10, 31, 127
10, 18571, Note_on_c, 10, 43, 127
6, 18582, Note_on_c, 4, 55, 0
9, 18582, Note_on_c, 8, 67, 0
10, 18582, Note_on_c, 10, 31, 0
10, 18582, Note_on_c, 10, 43, 0
13, 18583, Note_on_c, 9, 38, 0
13, 18590, Note_on_c, 9, 38, 105
6, 18591, Note_on_c, 4, 55, 123
9, 18591, Note_on_c, 8, 67, 127
10, 18591, Note_on_c, 10, 31, 127
10, 18591, Note_on_c, 10, 43, 127
9, 18601, Note_on_c, 8, 67, 0
13, 18602, Note_on_c, 9, 38, 0
6, 18603, Note_on_c, 4, 55, 0
10, 18603, Note_on_c, 10, 31, 0
10, 18603, Note_on_c, 10, 43, 0
13, 18610, Note_on_c, 9, 38, 105
6, 18611, Note_on_c, 4, 55, 123
9, 18611, Note_on_c, 8, 67, 127
10, 18611, Note_on_c, 10, 31, 127
10, 18611, Note_on_c, 10, 43, 127
12, 18617, Note_on_c, 5, 43, 119
6, 18621, Note_on_c, 4, 55, 0
9, 18621, Note_on_c, 8, 67, 0
10, 18621, Note_on_c, 10, 31, 0
10, 18621, Note_on_c, 10, 43, 0
13, 18621, Note_on_c, 9, 38, 0
6, 18630, Note_on_c, 4, 55, 123
9, 18630, Note_on_c, 8, 67, 127
10, 18630, Note_on_c, 10, 31, 127
10, 18630, Note_on_c, 10, 43, 127
12, 18630, Note_on_c, 5, 43, 0
13, 18630, Note_on_c, 9, 38, 105
12, 18638, Note_on_c, 5, 43, 119
6, 18643, Note_on_c, 4, 55, 0
9, 18643, Note_on_c, 8, 67, 0
10, 18643, Note_on_c, 10, 31, 0
10, 18643, Note_on_c, 10, 43, 0
13, 18644, Note_on_c, 9, 38, 0
6, 18648, Note_on_c, 4, 74, 0
6, 18650, Note_on_c, 4, 55, 123
9, 18650, Note_on_c, 8, 67, 127
10, 18650, Note_on_c, 10, 31, 127
10, 18650, Note_on_c, 10, 43, 127
13, 18650, Note_on_c, 9, 38, 105
12, 18651, Note_on_c, 5, 43, 0
6, 18661, Note_on_c, 4, 55, 0
9, 18661, Note_on_c, 8, 67, 0
10, 18661, Note_on_c, 10, 31, 0
10, 18661, Note_on_c, 10, 43, 0
12, 18661, Note_on_c, 5, 43, 119
13, 18661, Note_on_c, 9, 38, 0
5, 18664, Note_on_c, 3, 74, 0
6, 18671, Note_on_c, 4, 55, 123
9, 18671, Note_on_c, 8, 67, 127
10, 18671, Note_on_c, 10, 31, 127
10, 18671, Note_on_c, 10, 43, 127
13, 18671, Note_on_c, 9, 38, 105
12, 18673, Note_on_c, 5, 43, 0
6, 18681, Note_on_c, 4, 55, 0
9, 18681, Note_on_c, 8, 67, 0
10, 18681, Note_on_c, 10, 31, 0
10, 18681, Note_on_c, 10, 43, 0
12, 18681, Note_on_c, 5, 43, 119
13, 18681, Note_on_c, 9, 38, 0
13, 18688, Note_on_c, 9, 38, 105
6, 18690, Note_on_c, 4, 55, 123
9, 18690, Note_on_c, 8, 67, 127
10, 18690, Note_on_c, 10, 31, 127
10, 18690, Note_on_c, 10, 43, 127
12, 18694, Note_on_c, 5, 43, 0
13, 18699, Note_on_c, 9, 38, 0
12, 18701, Note_on_c, 5, 43, 119
6, 18703, Note_on_c, 4, 55, 0
9, 18703, Note_on_c, 8, 67, 0
10, 18703, Note_on_c, 10, 31, 0
10, 18703, Note_on_c, 10, 43, 0
13, 18709, Note_on_c, 9, 38, 105
6, 18710, Note_on_c, 4, 55, 123
9, 18710, Note_on_c, 8, 67, 127
10, 18710, Note_on_c, 10, 31, 127
10, 18710, Note_on_c, 10, 43, 127
12, 18714, Note_on_c, 5, 43, 0
13, 18718, Note_on_c, 9, 38, 0
6, 18721, Note_on_c, 4, 55, 0
9, 18721, Note_on_c, 8, 67, 0
10, 18721, Note_on_c, 10, 31, 0
10, 18721, Note_on_c, 10, 43, 0
12, 18724, Note_on_c, 5, 43, 119
6, 18730, Note_on_c, 4, 63, 123
6, 18730, Note_on_c, 4, 79, 123
10, 18730, Note_on_c, 10, 39, 127
10, 18730, Note_on_c, 10, 51, 127
9, 18731, Note_on_c, 8, 67, 127
13, 18732, Note_on_c, 9, 38, 105
12, 18733, Note_on_c, 5, 51, 119
12, 18736, Note_on_c, 5, 43, 0
5, 18737, Note_on_c, 3, 79, 123
9, 18740, Note_on_c, 8, 67, 0
6, 18741, Note_on_c, 4, 63, 0
10, 18741, Note_on_c, 10, 39, 0
10, 18741, Note_on_c, 10, 51, 0
13, 18742, Note_on_c, 9, 38, 0
12, 18761, Note_on_c, 5, 51, 0
5, 18809, Note_on_c, 3, 79, 0
6, 18822, Note_on_c, 4, 79, 0
5, 18850, Note_on_c, 3, 67, 123
9, 18850, Note_on_c, 8, 67, 127
6, 18851, Note_on_c, 4, 63, 123
6, 18851, Note_on_c, 4, 67, 123
10, 18851, Note_on_c, 10, 39, 127
10, 18851, Note_on_c, 10, 51, 127
13, 18851, Note_on_c, 9, 38, 105
9, 18861, Note_on_c, 8, 67, 0
6, 18862, Note_on_c, 4, 63, 0
10, 18862, Note_on_c, 10, 39, 0
10, 18862, Note_on_c, 10, 51, 0
13, 18862, Note_on_c, 9, 38, 0
5, 18894, Note_on_c, 3, 67, 0
6, 18911, Note_on_c, 4, 67, 0
13, 18911, Note_on_c, 9, 38, 105
6, 18913, Note_on_c, 4, 63, 123
10, 18913, Note_on_c, 10, 39, 127
10, 18913, Note_on_c, 10, 51, 127
9, 18916, Note_on_c, 8, 67, 127
13, 18921, Note_on_c, 9, 38, 0
6, 18923, Note_on_c, 4, 63, 0
10, 18923, Note_on_c, 10, 39, 0
10, 18923, Note_on_c, 10, 51, 0
9, 18925, Note_on_c, 8, 67, 0
13, 18928, Note_on_c, 9, 38, 105
6, 18933, Note_on_c, 4, 63, 123
10, 18933, Note_on_c, 10, 39, 127
10, 18933, Note_on_c, 10, 51, 127
9, 18935, Note_on_c, 8, 67, 127
13, 18940, Note_on_c, 9, 38, 0
6, 18943, Note_on_c, 4, 63, 0
10, 18943, Note_on_c, 10, 39, 0
10, 18943, Note_on_c, 10, 51, 0
6, 18945, Note_on_c, 4, 67, 123
9, 18946, Note_on_c, 8, 67, 0
5, 18948, Note_on_c, 3, 67, 123
13, 18950, Note_on_c, 9, 38, 105
6, 18952, Note_on_c, 4, 63, 123
10, 18952, Note_on_c, 10, 39, 127
10, 18952, Note_on_c, 10, 51, 127
9, 18954, Note_on_c, 8, 67, 127
13, 18959, Note_on_c, 9, 38, 0
6, 18963, Note_on_c, 4, 63, 0
10, 18963, Note_on_c, 10, 39, 0
10, 18963, Note_on_c, 10, 51, 0
9, 18965, Note_on_c, 8, 67, 0
5, 18966, Note_on_c, 3, 67, 0
6, 18968, Note_on_c, 4, 67, 0
9, 18970, Note_on_c, 8, 67, 127
13, 18970, Note_on_c, 9, 38, 105
6, 18971, Note_on_c, 4, 55, 123
10, 18971, Note_on_c, 10, 31, 127
10, 18971, Note_on_c, 10, 43, 127
6, 18975, Note_on_c, 4, 79, 123
5, 18976, Note_on_c, 3, 79, 123
6, 18981, Note_on_c, 4, 55, 0
10, 18981, Note_on_c, 10, 31, 0
10, 18981, Note_on_c, 10, 43, 0
9, 18983, Note_on_c, 8, 67, 0
13, 18985, Note_on_c, 9, 38, 0
6, 19031, Note_on_c, 4, 55, 123
10, 19031, Note_on_c, 10, 31, 127
10, 19031, Note_on_c, 10, 43, 127
13, 19031, Note_on_c, 9, 38, 105
9, 19033, Note_on_c, 8, 67, 127
6, 19042, Note_on_c, 4, 55, 0
10, 19042, Note_on_c, 10, 31, 0
10, 19042, Note_on_c, 10, 43, 0
13, 19042, Note_on_c, 9, 38, 0
9, 19043, Note_on_c, 8, 67, 0
6, 19051, Note_on_c, 4, 55, 123
6, 19051, Note_on_c, 4, 79, 0
10, 19051, Note_on_c, 10, 31, 127
10, 19051, Note_on_c, 10, 43, 127
9, 19052, Note_on_c, 8, 67, 127
13, 19052, Note_on_c, 9, 38, 105
5, 19057, Note_on_c, 3, 79, 0
6, 19062, Note_on_c, 4, 55, 0
10, 19062, Note_on_c, 10, 31, 0
10, 19062, Note_on_c, 10, 43, 0
9, 19063, Note_on_c, 8, 67, 0
13, 19064, Note_on_c, 9, 38, 0
6, 19070, Note_on_c, 4, 55, 123
10, 19070, Note_on_c, 10, 31, 127
10, 19070, Note_on_c, 10, 43, 127
9, 19072, Note_on_c, 8, 67, 127
13, 19072, Note_on_c, 9, 38, 105
6, 19082, Note_on_c, 4, 55, 0
9, 19082, Note_on_c, 8, 67, 0
10, 19082, Note_on_c, 10, 31, 0
10, 19082, Note_on_c, 10, 43, 0
6, 19084, Note_on_c, 4, 78, 123
13, 19084, Note_on_c, 9, 38, 0
9, 19090, Note_on_c, 8, 63, 127
6, 19091, Note_on_c, 4, 51, 123
9, 19091, Note_on_c, 8, 67, 127
10, 19091, Note_on_c, 10, 27, 127
10, 19091, Note_on_c, 10, 39, 127
13, 19091, Note_on_c, 9, 38, 105
5, 19096, Note_on_c, 3, 78, 123
12, 19096, Note_on_c, 5, 43, 119
6, 19101, Note_on_c, 4, 51, 0
10, 19101, Note_on_c, 10, 27, 0
10, 19101, Note_on_c, 10, 39, 0
9, 19102, Note_on_c, 8, 67, 0
13, 19102, Note_on_c, 9, 38, 0
9, 19103, Note_on_c, 8, 63, 0
6, 19109, Note_on_c, 4, 51, 123
10, 19109, Note_on_c, 10, 27, 127
10, 19109, Note_on_c, 10, 39, 127
9, 19110, Note_on_c, 8, 67, 127
12, 19110, Note_on_c, 5, 43, 0
13, 19110, Note_on_c, 9, 38, 105
9, 19111, Note_on_c, 8, 63, 127
9, 19121, Note_on_c, 8, 63, 0
9, 19121, Note_on_c, 8, 67, 0
12, 19121, Note_on_c, 5, 43, 119
6, 19123, Note_on_c, 4, 51, 0
10, 19123, Note_on_c, 10, 27, 0
10, 19123, Note_on_c, 10, 39, 0
13, 19123, Note_on_c, 9, 38, 0
9, 19128, Note_on_c, 8, 67, 127
6, 19129, Note_on_c, 4, 51, 123
10, 19129, Note_on_c, 10, 27, 127
10, 19129, Note_on_c, 10, 39, 127
13, 19130, Note_on_c, 9, 38, 105
9, 19131, Note_on_c, 8, 63, 127
12, 19131, Note_on_c, 5, 43, 0
9, 19138, Note_on_c, 8, 67, 0
6, 19140, Note_on_c, 4, 51, 0
10, 19140, Note_on_c, 10, 27, 0
10, 19140, Note_on_c, 10, 39, 0
9, 19142, Note_on_c, 8, 63, 0
12, 19142, Note_on_c, 5, 43, 119
13, 19143, Note_on_c, 9, 38, 0
6, 19149, Note_on_c, 4, 78, 0
9, 19149, Note_on_c, 8, 67, 127
6, 19150, Note_on_c, 4, 51, 123
9, 19150, Note_on_c, 8, 63, 127
10, 19150, Note_on_c, 10, 27, 127
10, 19150, Note_on_c, 10, 39, 127
13, 19151, Note_on_c, 9, 38, 105
12, 19154, Note_on_c, 5, 43, 0
5, 19158, Note_on_c, 3, 78, 0
9, 19159, Note_on_c, 8, 67, 0
12, 19161, Note_on_c, 5, 43, 119
6, 19163, Note_on_c, 4, 51, 0
9, 19163, Note_on_c, 8, 63, 0
10, 19163, Note_on_c, 10, 27, 0
10, 19163, Note_on_c, 10, 39, 0
13, 19163, Note_on_c, 9, 38, 0
12, 19171, Note_on_c, 5, 43, 0
6, 19182, Note_on_c, 4, 77, 123
5, 19188, Note_on_c, 3, 77, 123
6, 19202, Note_on_c, 4, 77, 0
5, 19208, Note_on_c, 3, 77, 0
6, 19208, Note_on_c, 4, 76, 123
6, 19209, Note_on_c, 4, 61, 123
10, 19209, Note_on_c, 10, 49, 127
9, 19212, Note_on_c, 8, 64, 127
9, 19212, Note_on_c, 8, 68, 127
10, 19213, Note_on_c, 10, 37, 127
13, 19213, Note_on_c, 9, 38, 105
12, 19214, Note_on_c, 5, 49, 119
5, 19215, Note_on_c, 3, 76, 123
9, 19220, Note_on_c, 8, 64, 0
9, 19220, Note_on_c, 8, 68, 0
6, 19221, Note_on_c, 4, 61, 0
10, 19221, Note_on_c, 10, 49, 0
10, 19225, Note_on_c, 10, 37, 0
13, 19226, Note_on_c, 9, 38, 0
6, 19236, Note_on_c, 4, 76, 0
5, 19237, Note_on_c, 3, 76, 0
5, 19243, Note_on_c, 3, 75, 123
12, 19243, Note_on_c, 5, 49, 0
6, 19248, Note_on_c, 4, 75, 123
5, 19261, Note_on_c, 3, 75, 0
5, 19267, Note_on_c, 3, 76, 123
6, 19268, Note_on_c, 4, 75, 0
6, 19270, Note_on_c, 4, 76, 123
6, 19297, Note_on_c, 4, 76, 0
5, 19306, Note_on_c, 3, 76, 0
6, 19327, Note_on_c, 4, 61, 123
10, 19327, Note_on_c, 10, 49, 127
10, 19330, Note_on_c, 10, 37, 127
9, 19333, Note_on_c, 8, 64, 127
9, 19333, Note_on_c, 8, 68, 127
13, 19333, Note_on_c, 9, 38, 105
6, 19338, Note_on_c, 4, 61, 0
10, 19338, Note_on_c, 10, 49, 0
9, 19341, Note_on_c, 8, 64, 0
9, 19341, Note_on_c, 8, 68, 0
10, 19341, Note_on_c, 10, 37, 0
13, 19345, Note_on_c, 9, 38, 0
6, 19390, Note_on_c, 4, 61, 123
10, 19390, Note_on_c, 10, 37, 127
10, 19390, Note_on_c, 10, 49, 127
5, 19391, Note_on_c, 3, 68, 123
6, 19393, Note_on_c, 4, 68, 123
9, 19393, Note_on_c, 8, 64, 127
13, 19393, Note_on_c, 9, 38, 95
9, 19396, Note_on_c, 8, 68, 127
6, 19401, Note_on_c, 4, 61, 0
9, 19401, Note_on_c, 8, 64, 0
10, 19401, Note_on_c, 10, 37, 0
10, 19401, Note_on_c, 10, 49, 0
13, 19403, Note_on_c, 9, 38, 0
9, 19405, Note_on_c, 8, 68, 0
6, 19410, Note_on_c, 4, 61, 123
10, 19410, Note_on_c, 10, 37, 127
10, 19410, Note_on_c, 10, 49, 127
9, 19412, Note_on_c, 8, 64, 127
13, 19412, Note_on_c, 9, 38, 105
5, 19413, Note_on_c, 3, 68, 0
9, 19413, Note_on_c, 8, 68, 127
6, 19416, Note_on_c, 4, 68, 0
6, 19421, Note_on_c, 4, 61, 0
10, 19421, Note_on_c, 10, 37, 0
10, 19421, Note_on_c, 10, 49, 0
9, 19422, Note_on_c, 8, 64, 0
9, 19423, Note_on_c, 8, 68, 0
13, 19423, Note_on_c, 9, 38, 0
6, 19430, Note_on_c, 4, 61, 123
10, 19430, Note_on_c, 10, 37, 127
10, 19430, Note_on_c, 10, 49, 127
9, 19431, Note_on_c, 8, 64, 127
13, 19432, Note_on_c, 9, 38, 105
9, 19433, Note_on_c, 8, 68, 127
6, 19441, Note_on_c, 4, 61, 0
10, 19441, Note_on_c, 10, 37, 0
10, 19441, Note_on_c, 10, 49, 0
9, 19442, Note_on_c, 8, 64, 0
9, 19444, Note_on_c, 8, 68, 0
13, 19444, Note_on_c, 9, 38, 0
9, 19448, Note_on_c, 8, 68, 127
6, 19450, Note_on_c, 4, 61, 123
9, 19450, Note_on_c, 8, 64, 127
10, 19450, Note_on_c, 10, 37, 127
10, 19450, Note_on_c, 10, 49, 127
13, 19450, Note_on_c, 9, 38, 95
6, 19453, Note_on_c, 4, 73, 123
5, 19455, Note_on_c, 3, 73, 123
6, 19455, Note_on_c, 4, 68, 123
9, 19459, Note_on_c, 8, 68, 0
13, 19460, Note_on_c, 9, 38, 0
6, 19461, Note_on_c, 4, 61, 0
9, 19461, Note_on_c, 8, 64, 0
10, 19461, Note_on_c, 10, 37, 0
10, 19461, Note_on_c, 10, 49, 0
6, 19508, Note_on_c, 4, 61, 123
10, 19508, Note_on_c, 10, 37, 127
10, 19508, Note_on_c, 10, 49, 127
13, 19511, Note_on_c, 9, 38, 105
9, 19513, Note_on_c, 8, 64, 127
9, 19515, Note_on_c, 8, 68, 127
6, 19519, Note_on_c, 4, 61, 0
10, 19519, Note_on_c, 10, 37, 0
10, 19519, Note_on_c, 10, 49, 0
9, 19522, Note_on_c, 8, 64, 0
13, 19522, Note_on_c, 9, 38, 0
9, 19524, Note_on_c, 8, 68, 0
6, 19528, Note_on_c, 4, 61, 123
10, 19528, Note_on_c, 10, 37, 127
10, 19528, Note_on_c, 10, 49, 127
13, 19530, Note_on_c, 9, 38, 105
6, 19533, Note_on_c, 4, 73, 0
9, 19533, Note_on_c, 8, 64, 127
6, 19535, Note_on_c, 4, 68, 0
9, 19535, Note_on_c, 8, 68, 127
6, 19539, Note_on_c, 4, 61, 0
10, 19539, Note_on_c, 10, 37, 0
10, 19539, Note_on_c, 10, 49, 0
9, 19543, Note_on_c, 8, 64, 0
13, 19543, Note_on_c, 9, 38, 0
5, 19545, Note_on_c, 3, 73, 0
9, 19546, Note_on_c, 8, 68, 0
6, 19550, Note_on_c, 4, 61, 123
10, 19550, Note_on_c, 10, 37, 127
10, 19550, Note_on_c, 10, 49, 127
13, 19550, Note_on_c, 9, 38, 105
9, 19551, Note_on_c, 8, 64, 127
9, 19552, Note_on_c, 8, 68, 127
6, 19561, Note_on_c, 4, 61, 0
10, 19561, Note_on_c, 10, 37, 0
10, 19561, Note_on_c, 10, 49, 0
9, 19562, Note_on_c, 8, 64, 0
13, 19562, Note_on_c, 9, 38, 0
9, 19564, Note_on_c, 8, 68, 0
6, 19570, Note_on_c, 4, 61, 123
9, 19570, Note_on_c, 8, 64, 127
9, 19570, Note_on_c, 8, 68, 127
10, 19570, Note_on_c, 10, 37, 127
10, 19570, Note_on_c, 10, 49, 127
13, 19570, Note_on_c, 9, 38, 105
12, 19572, Note_on_c, 5, 49, 119
5, 19573, Note_on_c, 3, 72, 123
6, 19573, Note_on_c, 4, 72, 123
6, 19575, Note_on_c, 4, 68, 123
6, 19581, Note_on_c, 4, 61, 0
9, 19581, Note_on_c, 8, 64, 0
9, 19581, Note_on_c, 8, 68, 0
10, 19581, Note_on_c, 10, 37, 0
10, 19581, Note_on_c, 10, 49, 0
13, 19581, Note_on_c, 9, 38, 0
12, 19585, Note_on_c, 5, 49, 0
6, 19590, Note_on_c, 4, 61, 123
10, 19590, Note_on_c, 10, 37, 127
10, 19590, Note_on_c, 10, 49, 127
13, 19590, Note_on_c, 9, 38, 105
9, 19591, Note_on_c, 8, 64, 127
9, 19591, Note_on_c, 8, 68, 127
12, 19593, Note_on_c, 5, 49, 119
9, 19602, Note_on_c, 8, 64, 0
9, 19602, Note_on_c, 8, 68, 0
6, 19603, Note_on_c, 4, 61, 0
10, 19603, Note_on_c, 10, 37, 0
10, 19603, Note_on_c, 10, 49, 0
13, 19604, Note_on_c, 9, 38, 0
9, 19606, Note_on_c, 8, 68, 127
12, 19606, Note_on_c, 5, 49, 0
6, 19608, Note_on_c, 4, 61, 123
9, 19608, Note_on_c, 8, 64, 127
10, 19608, Note_on_c, 10, 37, 127
10, 19608, Note_on_c, 10, 49, 127
13, 19610, Note_on_c, 9, 38, 105
12, 19616, Note_on_c, 5, 49, 119
9, 19617, Note_on_c, 8, 68, 0
6, 19619, Note_on_c, 4, 61, 0
9, 19619, Note_on_c, 8, 64, 0
10, 19619, Note_on_c, 10, 37, 0
10, 19619, Note_on_c, 10, 49, 0
13, 19621, Note_on_c, 9, 38, 0
6, 19628, Note_on_c, 4, 68, 0
12, 19628, Note_on_c, 5, 49, 0
9, 19629, Note_on_c, 8, 68, 127
6, 19630, Note_on_c, 4, 61, 123
9, 19630, Note_on_c, 8, 64, 127
10, 19630, Note_on_c, 10, 37, 127
10, 19630, Note_on_c, 10, 49, 127
13, 19631, Note_on_c, 9, 38, 105
12, 19636, Note_on_c, 5, 49, 119
6, 19639, Note_on_c, 4, 72, 0
9, 19639, Note_on_c, 8, 68, 0
9, 19640, Note_on_c, 8, 64, 0
6, 19641, Note_on_c, 4, 61, 0
10, 19641, Note_on_c, 10, 37, 0
10, 19641, Note_on_c, 10, 49, 0
13, 19642, Note_on_c, 9, 38, 0
12, 19645, Note_on_c, 5, 49, 0
5, 19648, Note_on_c, 3, 72, 0
6, 19663, Note_on_c, 4, 68, 123
6, 19663, Note_on_c, 4, 71, 123
5, 19665, Note_on_c, 3, 71, 123
6, 19679, Note_on_c, 4, 71, 0
6, 19681, Note_on_c, 4, 68, 0
5, 19686, Note_on_c, 3, 71, 0
6, 19689, Note_on_c, 4, 63, 123
10, 19689, Note_on_c, 10, 51, 127
10, 19691, Note_on_c, 10, 39, 127
13, 19692, Note_on_c, 9, 38, 105
6, 19693, Note_on_c, 4, 70, 123
9, 19693, Note_on_c, 8, 63, 127
9, 19693, Note_on_c, 8, 66, 127
6, 19694, Note_on_c, 4, 66, 123
5, 19696, Note_on_c, 3, 70, 123
6, 19701, Note_on_c, 4, 63, 0
10, 19701, Note_on_c, 10, 39, 0
10, 19701, Note_on_c, 10, 51, 0
13, 19702, Note_on_c, 9, 38, 0
9, 19704, Note_on_c, 8, 63, 0
9, 19704, Note_on_c, 8, 66, 0
6, 19714, Note_on_c, 4, 66, 0
6, 19716, Note_on_c, 4, 70, 0
5, 19718, Note_on_c, 3, 70, 0
6, 19721, Note_on_c, 4, 65, 123
6, 19721, Note_on_c, 4, 69, 123
5, 19725, Note_on_c, 3, 69, 123
6, 19739, Note_on_c, 4, 69, 0
6, 19741, Note_on_c, 4, 65, 0
5, 19745, Note_on_c, 3, 69, 0
6, 19751, Note_on_c, 4, 70, 123
6, 19753, Note_on_c, 4, 66, 123
5, 19756, Note_on_c, 3, 70, 123
5, 19772, Note_on_c, 3, 70, 0
6, 19776, Note_on_c, 4, 66, 0
6, 19777, Note_on_c, 4, 70, 0
6, 19807, Note_on_c, 4, 63, 123
9, 19807, Note_on_c, 8, 63, 127
9, 19807, Note_on_c, 8, 66, 127
10, 19807, Note_on_c, 10, 39, 127
10, 19807, Note_on_c, 10, 51, 127
13, 19811, Note_on_c, 9, 38, 105
6, 19818, Note_on_c, 4, 63, 0
9, 19818, Note_on_c, 8, 63, 0
9, 19818, Note_on_c, 8, 66, 0
10, 19818, Note_on_c, 10, 39, 0
10, 19818, Note_on_c, 10, 51, 0
13, 19822, Note_on_c, 9, 38, 0
6, 19870, Note_on_c, 4, 63, 123
9, 19870, Note_on_c, 8, 63, 127
9, 19870, Note_on_c, 8, 66, 127
10, 19870, Note_on_c, 10, 39, 127
10, 19870, Note_on_c, 10, 51, 127
13, 19871, Note_on_c, 9, 38, 105
6, 19875, Note_on_c, 4, 63, 123
5, 19876, Note_on_c, 3, 63, 123
6, 19878, Note_on_c, 4, 63, 0
6, 19879, Note_on_c, 4, 63, 0
9, 19881, Note_on_c, 8, 63, 0
9, 19881, Note_on_c, 8, 66, 0
10, 19881, Note_on_c, 10, 39, 0
10, 19881, Note_on_c, 10, 51, 0
13, 19881, Note_on_c, 9, 38, 0
13, 19888, Note_on_c, 9, 38, 105
6, 19890, Note_on_c, 4, 63, 123
9, 19890, Note_on_c, 8, 63, 127
9, 19890, Note_on_c, 8, 66, 127
10, 19890, Note_on_c, 10, 39, 127
10, 19890, Note_on_c, 10, 51, 127
6, 19895, Note_on_c, 4, 63, 0
5, 19897, Note_on_c, 3, 63, 0
13, 19900, Note_on_c, 9, 38, 0
9, 19901, Note_on_c, 8, 63, 0
9, 19901, Note_on_c, 8, 66, 0
10, 19901, Note_on_c, 10, 39, 0
10, 19901, Note_on_c, 10, 51, 0
6, 19910, Note_on_c, 4, 63, 123
9, 19910, Note_on_c, 8, 63, 127
9, 19910, Note_on_c, 8, 66, 127
10, 19910, Note_on_c, 10, 39, 127
10, 19910, Note_on_c, 10, 51, 127
13, 19910, Note_on_c, 9, 38, 105
13, 19919, Note_on_c, 9, 38, 0
6, 19921, Note_on_c, 4, 63, 0
9, 19921, Note_on_c, 8, 63, 0
9, 19921, Note_on_c, 8, 66, 0
10, 19921, Note_on_c, 10, 39, 0
10, 19921, Note_on_c, 10, 51, 0
6, 19930, Note_on_c, 4, 63, 123
9, 19930, Note_on_c, 8, 63, 127
9, 19930, Note_on_c, 8, 66, 127
10, 19930, Note_on_c, 10, 39, 127
10, 19930, Note_on_c, 10, 51, 127
13, 19930, Note_on_c, 9, 38, 105
5, 19934, Note_on_c, 3, 66, 123
6, 19935, Note_on_c, 4, 66, 123
6, 19941, Note_on_c, 4, 63, 0
9, 19941, Note_on_c, 8, 63, 0
9, 19941, Note_on_c, 8, 66, 0
10, 19941, Note_on_c, 10, 39, 0
10, 19941, Note_on_c, 10, 51, 0
13, 19945, Note_on_c, 9, 38, 0
13, 19991, Note_on_c, 9, 38, 105
13, 20002, Note_on_c, 9, 38, 0
6, 20007, Note_on_c, 4, 66, 0
13, 20012, Note_on_c, 9, 38, 105
5, 20018, Note_on_c, 3, 66, 0
13, 20024, Note_on_c, 9, 38, 0
13, 20032, Note_on_c, 9, 38, 105
13, 20044, Note_on_c, 9, 38, 0
6, 20050, Note_on_c, 4, 60, 123
7, 20050, Control_c, 6, 18, 65
9, 20050, Note_on_c, 8, 63, 127
9, 20050, Note_on_c, 8, 66, 127
10, 20050, Note_on_c, 10, 36, 127
10, 20050, Note_on_c, 10, 48, 127
6, 20051, Note_on_c, 4, 66, 123
12, 20051, Note_on_c, 5, 42, 119
13, 20051, Note_on_c, 9, 38, 105
5, 20053, Note_on_c, 3, 63, 123
6, 20053, Note_on_c, 4, 63, 123
6, 20053, Note_on_c, 4, 70, 123
6, 20061, Note_on_c, 4, 60, 0
9, 20061, Note_on_c, 8, 63, 0
9, 20061, Note_on_c, 8, 66, 0
10, 20061, Note_on_c, 10, 36, 0
10, 20061, Note_on_c, 10, 48, 0
13, 20062, Note_on_c, 9, 38, 0
12, 20065, Note_on_c, 5, 42, 0
6, 20070, Note_on_c, 4, 60, 123
9, 20070, Note_on_c, 8, 63, 127
9, 20070, Note_on_c, 8, 66, 127
10, 20070, Note_on_c, 10, 36, 127
10, 20070, Note_on_c, 10, 48, 127
13, 20070, Note_on_c, 9, 38, 105
12, 20076, Note_on_c, 5, 42, 119
6, 20083, Note_on_c, 4, 60, 0
9, 20083, Note_on_c, 8, 63, 0
9, 20083, Note_on_c, 8, 66, 0
10, 20083, Note_on_c, 10, 36, 0
10, 20083, Note_on_c, 10, 48, 0
13, 20083, Note_on_c, 9, 38, 0
12, 20086, Note_on_c, 5, 42, 0
6, 20088, Note_on_c, 4, 60, 123
9, 20088, Note_on_c, 8, 63, 127
9, 20088, Note_on_c, 8, 66, 127
10, 20088, Note_on_c, 10, 36, 127
10, 20088, Note_on_c, 10, 48, 127
13, 20090, Note_on_c, 9, 38, 105
12, 20097, Note_on_c, 5, 42, 119
6, 20099, Note_on_c, 4, 60, 0
9, 20099, Note_on_c, 8, 63, 0
9, 20099, Note_on_c, 8, 66, 0
10, 20099, Note_on_c, 10, 36, 0
10, 20099, Note_on_c, 10, 48, 0
13, 20103, Note_on_c, 9, 38, 0
12, 20109, Note_on_c, 5, 42, 0
6, 20110, Note_on_c, 4, 60, 123
9, 20110, Note_on_c, 8, 63, 127
9, 20110, Note_on_c, 8, 66, 127
10, 20110, Note_on_c, 10, 36, 127
10, 20110, Note_on_c, 10, 48, 127
13, 20111, Note_on_c, 9, 38, 105
12, 20116, Note_on_c, 5, 42, 119
6, 20121, Note_on_c, 4, 60, 0
6, 20121, Note_on_c, 4, 63, 0
9, 20121, Note_on_c, 8, 63, 0
9, 20121, Note_on_c, 8, 66, 0
10, 20121, Note_on_c, 10, 36, 0
10, 20121, Note_on_c, 10, 48, 0
13, 20123, Note_on_c, 9, 38, 0
12, 20126, Note_on_c, 5, 42, 0
6, 20127, Note_on_c, 4, 66, 0
5, 20128, Note_on_c, 3, 63, 0
6, 20132, Note_on_c, 4, 70, 0
5, 20145, Note_on_c, 3, 70, 123
6, 20146, Note_on_c, 4, 70, 123
5, 20161, Note_on_c, 3, 70, 0
6, 20161, Note_on_c, 4, 70, 0
6, 20171, Note_on_c, 4, 55, 123
9, 20171, Note_on_c, 8, 67, 127
10, 20171, Note_on_c, 10, 31, 127
10, 20171, Note_on_c, 10, 43, 127
13, 20173, Note_on_c, 9, 38, 105
6, 20174, Note_on_c, 4, 67, 123
5, 20176, Note_on_c, 3, 67, 123
6, 20182, Note_on_c, 4, 55, 0
9, 20182, Note_on_c, 8, 67, 0
10, 20182, Note_on_c, 10, 31, 0
10, 20182, Note_on_c, 10, 43, 0
13, 20183, Note_on_c, 9, 49, 67
13, 20186, Note_on_c, 9, 38, 0
13, 20216, Note_on_c, 9, 49, 0
6, 20254, Note_on_c, 4, 67, 0
5, 20259, Note_on_c, 3, 67, 0
6, 20290, Note_on_c, 4, 63, 123
6, 20290, Note_on_c, 4, 66, 123
6, 20290, Note_on_c, 4, 70, 123
9, 20290, Note_on_c, 8, 63, 127
9, 20290, Note_on_c, 8, 66, 127
10, 20290, Note_on_c, 10, 39, 127
10, 20290, Note_on_c, 10, 51, 127
6, 20291, Note_on_c, 4, 63, 123
6, 20292, Note_on_c, 4, 63, 0
6, 20293, Note_on_c, 4, 63, 0
13, 20293, Note_on_c, 9, 38, 105
5, 20297, Note_on_c, 3, 63, 123
9, 20301, Note_on_c, 8, 63, 0
9, 20301, Note_on_c, 8, 66, 0
10, 20301, Note_on_c, 10, 39, 0
10, 20301, Note_on_c, 10, 51, 0
13, 20305, Note_on_c, 9, 38, 0
6, 20310, Note_on_c, 4, 63, 123
9, 20310, Note_on_c, 8, 63, 127
9, 20310, Note_on_c, 8, 66, 127
10, 20310, Note_on_c, 10, 39, 127
10, 20310, Note_on_c, 10, 51, 127
6, 20323, Note_on_c, 4, 63, 0
9, 20323, Note_on_c, 8, 63, 0
9, 20323, Note_on_c, 8, 66, 0
10, 20323, Note_on_c, 10, 39, 0
10, 20323, Note_on_c, 10, 51, 0
6, 20328, Note_on_c, 4, 63, 123
9, 20328, Note_on_c, 8, 63, 127
9, 20328, Note_on_c, 8, 66, 127
10, 20328, Note_on_c, 10, 39, 127
10, 20328, Note_on_c, 10, 51, 127
6, 20339, Note_on_c, 4, 63, 0
9, 20339, Note_on_c, 8, 63, 0
9, 20339, Note_on_c, 8, 66, 0
10, 20339, Note_on_c, 10, 39, 0
10, 20339, Note_on_c, 10, 51, 0
6, 20350, Note_on_c, 4, 63, 123
9, 20350, Note_on_c, 8, 63, 127
9, 20350, Note_on_c, 8, 66, 127
10, 20350, Note_on_c, 10, 39, 127
10, 20350, Note_on_c, 10, 51, 127
13, 20353, Note_on_c, 9, 38, 95
5, 20357, Note_on_c, 3, 63, 0
6, 20359, Note_on_c, 4, 63, 0
6, 20360, Note_on_c, 4, 66, 0
6, 20360, Note_on_c, 4, 70, 0
9, 20361, Note_on_c, 8, 63, 0
9, 20361, Note_on_c, 8, 66, 0
10, 20361, Note_on_c, 10, 39, 0
10, 20361, Note_on_c, 10, 51, 0
13, 20363, Note_on_c, 9, 38, 0
13, 20372, Note_on_c, 9, 38, 105
13, 20383, Note_on_c, 9, 38, 0
5, 20385, Note_on_c, 3, 70, 123
6, 20387, Note_on_c, 4, 70, 123
13, 20392, Note_on_c, 9, 38, 105
5, 20402, Note_on_c, 3, 70, 0
6, 20403, Note_on_c, 4, 70, 0
13, 20404, Note_on_c, 9, 38, 0
13, 20410, Note_on_c, 9, 38, 95
13, 20411, Note_on_c, 9, 57, 67
6, 20413, Note_on_c, 4, 55, 123
6, 20413, Note_on_c, 4, 67, 123
9, 20413, Note_on_c, 8, 67, 127
10, 20413, Note_on_c, 10, 31, 127
10, 20413, Note_on_c, 10, 43, 127
5, 20416, Note_on_c, 3, 67, 123
13, 20420, Note_on_c, 9, 38, 0
6, 20423, Note_on_c, 4, 55, 0
9, 20423, Note_on_c, 8, 67, 0
10, 20423, Note_on_c, 10, 31, 0
10, 20423, Note_on_c, 10, 43, 0
13, 20437, Note_on_c, 9, 57, 0
6, 20471, Note_on_c, 4, 55, 123
9, 20471, Note_on_c, 8, 67, 127
10, 20471, Note_on_c, 10, 31, 127
10, 20471, Note_on_c, 10, 43, 127
13, 20471, Note_on_c, 9, 38, 105
6, 20482, Note_on_c, 4, 55, 0
9, 20482, Note_on_c, 8, 67, 0
10, 20482, Note_on_c, 10, 31, 0
10, 20482, Note_on_c, 10, 43, 0
13, 20482, Note_on_c, 9, 38, 0
13, 20490, Note_on_c, 9, 38, 105
6, 20491, Note_on_c, 4, 55, 123
9, 20491, Note_on_c, 8, 67, 127
10, 20491, Note_on_c, 10, 31, 127
10, 20491, Note_on_c, 10, 43, 127
6, 20502, Note_on_c, 4, 55, 0
9, 20502, Note_on_c, 8, 67, 0
10, 20502, Note_on_c, 10, 31, 0
10, 20502, Note_on_c, 10, 43, 0
13, 20503, Note_on_c, 9, 38, 0
13, 20510, Note_on_c, 9, 38, 105
6, 20511, Note_on_c, 4, 55, 123
9, 20511, Note_on_c, 8, 67, 127
10, 20511, Note_on_c, 10, 31, 127
10, 20511, Note_on_c, 10, 43, 127
9, 20521, Note_on_c, 8, 67, 0
13, 20522, Note_on_c, 9, 38, 0
6, 20523, Note_on_c, 4, 55, 0
10, 20523, Note_on_c, 10, 31, 0
10, 20523, Note_on_c, 10, 43, 0
13, 20530, Note_on_c, 9, 38, 105
6, 20531, Note_on_c, 4, 55, 123
9, 20531, Note_on_c, 8, 67, 127
10, 20531, Note_on_c, 10, 31, 127
10, 20531, Note_on_c, 10, 43, 127
13, 20531, Note_on_c, 9, 57, 67
12, 20534, Note_on_c, 5, 43, 119
6, 20541, Note_on_c, 4, 55, 0
9, 20541, Note_on_c, 8, 67, 0
10, 20541, Note_on_c, 10, 31, 0
10, 20541, Note_on_c, 10, 43, 0
13, 20542, Note_on_c, 9, 38, 0
12, 20547, Note_on_c, 5, 43, 0
6, 20550, Note_on_c, 4, 55, 106
9, 20550, Note_on_c, 8, 67, 127
10, 20550, Note_on_c, 10, 31, 127
10, 20550, Note_on_c, 10, 43, 127
13, 20550, Note_on_c, 9, 38, 105
13, 20551, Note_on_c, 9, 57, 0
12, 20554, Note_on_c, 5, 43, 119
6, 20563, Note_on_c, 4, 55, 0
9, 20563, Note_on_c, 8, 67, 0
10, 20563, Note_on_c, 10, 31, 0
10, 20563, Note_on_c, 10, 43, 0
6, 20564, Note_on_c, 4, 67, 0
13, 20564, Note_on_c, 9, 38, 0
12, 20567, Note_on_c, 5, 43, 0
6, 20570, Note_on_c, 4, 55, 106
9, 20570, Note_on_c, 8, 67, 127
10, 20570, Note_on_c, 10, 31, 127
10, 20570, Note_on_c, 10, 43, 127
13, 20570, Note_on_c, 9, 38, 105
6, 20581, Note_on_c, 4, 55, 0
9, 20581, Note_on_c, 8, 67, 0
10, 20581, Note_on_c, 10, 31, 0
10, 20581, Note_on_c, 10, 43, 0
13, 20582, Note_on_c, 9, 38, 0
5, 20584, Note_on_c, 3, 67, 0
12, 20586, Note_on_c, 5, 43, 119
6, 20591, Note_on_c, 4, 55, 106
9, 20591, Note_on_c, 8, 67, 127
10, 20591, Note_on_c, 10, 31, 127
10, 20591, Note_on_c, 10, 43, 127
13, 20591, Note_on_c, 9, 38, 105
12, 20598, Note_on_c, 5, 43, 0
13, 20602, Note_on_c, 9, 38, 0
6, 20604, Note_on_c, 4, 55, 0
9, 20604, Note_on_c, 8, 67, 0
10, 20604, Note_on_c, 10, 31, 0
10, 20604, Note_on_c, 10, 43, 0
12, 20606, Note_on_c, 5, 43, 119
12, 20615, Note_on_c, 5, 43, 0
12, 20652, Note_on_c, 5, 50, 119
12, 20656, Note_on_c, 5, 50, 119
12, 20659, Note_on_c, 5, 50, 0
12, 20659, Note_on_c, 5, 50, 0
9, 20710, Note_on_c, 8, 58, 127
4, 20711, Note_on_c, 2, 58, 93
4, 20711, Note_on_c, 2, 62, 127
9, 20711, Note_on_c, 8, 62, 127
13, 20712, Note_on_c, 9, 38, 105
9, 20720, Note_on_c, 8, 62, 0
4, 20721, Note_on_c, 2, 58, 0
9, 20722, Note_on_c, 8, 58, 0
13, 20723, Note_on_c, 9, 38, 0
4, 20724, Note_on_c, 2, 62, 0
4, 20730, Note_on_c, 2, 58, 109
9, 20730, Note_on_c, 8, 58, 127
9, 20730, Note_on_c, 8, 62, 127
4, 20731, Note_on_c, 2, 62, 127
6, 20731, Note_on_c, 4, 55, 106
11, 20731, Note_on_c, 11, 31, 127
11, 20731, Note_on_c, 11, 43, 127
13, 20733, Note_on_c, 9, 38, 100
6, 20742, Note_on_c, 4, 55, 0
11, 20742, Note_on_c, 11, 31, 0
11, 20742, Note_on_c, 11, 43, 0
4, 20743, Note_on_c, 2, 58, 0
9, 20743, Note_on_c, 8, 58, 0
9, 20743, Note_on_c, 8, 62, 0
4, 20744, Note_on_c, 2, 62, 0
13, 20746, Note_on_c, 9, 38, 0
4, 20750, Note_on_c, 2, 58, 112
6, 20750, Note_on_c, 4, 55, 106
9, 20750, Note_on_c, 8, 58, 127
9, 20750, Note_on_c, 8, 62, 127
11, 20750, Note_on_c, 11, 31, 127
11, 20750, Note_on_c, 11, 43, 127
4, 20751, Note_on_c, 2, 62, 127
13, 20752, Note_on_c, 9, 38, 105
4, 20763, Note_on_c, 2, 58, 0
6, 20763, Note_on_c, 4, 55, 0
9, 20763, Note_on_c, 8, 58, 0
9, 20763, Note_on_c, 8, 62, 0
11, 20763, Note_on_c, 11, 31, 0
11, 20763, Note_on_c, 11, 43, 0
4, 20764, Note_on_c, 2, 62, 0
13, 20764, Note_on_c, 9, 38, 0
4, 20770, Note_on_c, 2, 59, 114
4, 20770, Note_on_c, 2, 63, 127
9, 20770, Note_on_c, 8, 59, 127
9, 20770, Note_on_c, 8, 63, 127
12, 20770, Note_on_c, 5, 39, 119
6, 20771, Note_on_c, 4, 55, 106
11, 20771, Note_on_c, 11, 31, 127
11, 20771, Note_on_c, 11, 43, 127
13, 20771, Note_on_c, 9, 38, 105
11, 20773, Note_on_c, 11, 50, 127
6, 20782, Note_on_c, 4, 55, 0
11, 20782, Note_on_c, 11, 31, 0
11, 20782, Note_on_c, 11, 43, 0
13, 20782, Note_on_c, 9, 38, 0
4, 20783, Note_on_c, 2, 59, 0
4, 20783, Note_on_c, 2, 63, 0
9, 20783, Note_on_c, 8, 59, 0
9, 20783, Note_on_c, 8, 63, 0
11, 20783, Note_on_c, 11, 50, 0
12, 20783, Note_on_c, 5, 39, 0
4, 20790, Note_on_c, 2, 59, 117
6, 20790, Note_on_c, 4, 55, 106
9, 20790, Note_on_c, 8, 59, 127
9, 20790, Note_on_c, 8, 63, 127
11, 20790, Note_on_c, 11, 31, 127
11, 20790, Note_on_c, 11, 43, 127
4, 20791, Note_on_c, 2, 63, 127
13, 20791, Note_on_c, 9, 38, 105
11, 20793, Note_on_c, 11, 50, 127
12, 20793, Note_on_c, 5, 39, 119
4, 20802, Note_on_c, 2, 59, 0
9, 20802, Note_on_c, 8, 59, 0
9, 20802, Note_on_c, 8, 63, 0
4, 20803, Note_on_c, 2, 63, 0
6, 20803, Note_on_c, 4, 55, 0
11, 20803, Note_on_c, 11, 31, 0
11, 20803, Note_on_c, 11, 43, 0
12, 20803, Note_on_c, 5, 39, 0
13, 20804, Note_on_c, 9, 38, 0
11, 20806, Note_on_c, 11, 50, 0
4, 20809, Note_on_c, 2, 59, 119
9, 20809, Note_on_c, 8, 63, 127
4, 20810, Note_on_c, 2, 63, 127
6, 20810, Note_on_c, 4, 55, 106
9, 20810, Note_on_c, 8, 59, 127
11, 20810, Note_on_c, 11, 31, 127
11, 20810, Note_on_c, 11, 43, 127
13, 20811, Note_on_c, 9, 38, 105
11, 20813, Note_on_c, 11, 50, 127
12, 20817, Note_on_c, 5, 39, 119
4, 20822, Note_on_c, 2, 59, 0
6, 20822, Note_on_c, 4, 55, 0
9, 20822, Note_on_c, 8, 63, 0
11, 20822, Note_on_c, 11, 31, 0
11, 20822, Note_on_c, 11, 43, 0
13, 20822, Note_on_c, 9, 38, 0
4, 20823, Note_on_c, 2, 63, 0
9, 20823, Note_on_c, 8, 59, 0
11, 20824, Note_on_c, 11, 50, 0
12, 20827, Note_on_c, 5, 39, 0
4, 20830, Note_on_c, 2, 61, 121
4, 20830, Note_on_c, 2, 65, 127
6, 20830, Note_on_c, 4, 55, 106
9, 20830, Note_on_c, 8, 61, 127
9, 20830, Note_on_c, 8, 65, 127
11, 20830, Note_on_c, 11, 31, 127
11, 20830, Note_on_c, 11, 43, 127
13, 20831, Note_on_c, 9, 38, 105
11, 20832, Note_on_c, 11, 50, 127
12, 20835, Note_on_c, 5, 39, 119
9, 20841, Note_on_c, 8, 65, 0
13, 20841, Note_on_c, 9, 38, 0
4, 20842, Note_on_c, 2, 61, 0
4, 20842, Note_on_c, 2, 65, 0
9, 20842, Note_on_c, 8, 61, 0
6, 20843, Note_on_c, 4, 55, 0
11, 20843, Note_on_c, 11, 31, 0
11, 20843, Note_on_c, 11, 43, 0
11, 20845, Note_on_c, 11, 50, 0
12, 20847, Note_on_c, 5, 39, 0
9, 20848, Note_on_c, 8, 65, 127
13, 20848, Note_on_c, 9, 38, 105
4, 20849, Note_on_c, 2, 61, 123
4, 20850, Note_on_c, 2, 65, 127
9, 20850, Note_on_c, 8, 61, 127
13, 20859, Note_on_c, 9, 38, 0
9, 20861, Note_on_c, 8, 65, 0
4, 20862, Note_on_c, 2, 61, 0
4, 20863, Note_on_c, 2, 65, 0
9, 20863, Note_on_c, 8, 61, 0
9, 20868, Note_on_c, 8, 65, 127
4, 20870, Note_on_c, 2, 61, 126
4, 20870, Note_on_c, 2, 65, 127
9, 20870, Note_on_c, 8, 61, 127
13, 20870, Note_on_c, 9, 38, 105
9, 20879, Note_on_c, 8, 65, 0
13, 20879, Note_on_c, 9, 38, 0
1, 20880, Tempo, 625000
13, 20880, Note_on_c, 9, 46, 74
4, 20881, Note_on_c, 2, 61, 0
4, 20881, Note_on_c, 2, 65, 0
9, 20881, Note_on_c, 8, 61, 0
13, 20885, Note_on_c, 9, 57, 127
13, 20890, Note_on_c, 9, 57, 116
11, 20895, Note_on_c, 11, 36, 127
13, 20895, Note_on_c, 9, 57, 0
12, 20896, Note_on_c, 5, 47, 119
13, 20896, Note_on_c, 9, 57, 0
7, 20898, Note_on_c, 6, 60, 56
7, 20899, Note_on_c, 6, 48, 53
7, 20945, Note_on_c, 6, 48, 0
7, 20948, Note_on_c, 6, 60, 0
11, 20955, Note_on_c, 11, 55, 106
11, 20957, Note_on_c, 11, 51, 127
11, 20962, Note_on_c, 11, 55, 0
11, 20964, Note_on_c, 11, 51, 0
11, 20975, Note_on_c, 11, 55, 92
11, 20977, Note_on_c, 11, 51, 106
11, 20981, Note_on_c, 11, 36, 0
11, 20981, Note_on_c, 11, 55, 0
11, 20982, Note_on_c, 11, 51, 0
11, 20991, Note_on_c, 11, 51, 106
11, 20993, Note_on_c, 11, 55, 83
13, 21000, Note_on_c, 9, 46, 0
11, 21003, Note_on_c, 11, 55, 0
11, 21006, Note_on_c, 11, 51, 0
11, 21013, Note_on_c, 11, 47, 119
11, 21013, Note_on_c, 11, 56, 127
12, 21014, Note_on_c, 5, 47, 0
11, 21022, Note_on_c, 11, 56, 0
11, 21025, Note_on_c, 11, 47, 0
11, 21033, Note_on_c, 11, 56, 106
11, 21036, Note_on_c, 11, 47, 106
11, 21040, Note_on_c, 11, 56, 0
11, 21046, Note_on_c, 11, 47, 0
11, 21052, Note_on_c, 11, 56, 92
11, 21054, Note_on_c, 11, 47, 106
11, 21063, Note_on_c, 11, 47, 0
11, 21065, Note_on_c, 11, 56, 0
11, 21073, Note_on_c, 11, 53, 106
11, 21075, Note_on_c, 11, 50, 119
11, 21083, Note_on_c, 11, 53, 0
11, 21085, Note_on_c, 11, 50, 0
11, 21093, Note_on_c, 11, 53, 83
11, 21096, Note_on_c, 11, 50, 92
11, 21103, Note_on_c, 11, 53, 0
11, 21104, Note_on_c, 11, 50, 0
11, 21112, Note_on_c, 11, 53, 106
11, 21114, Note_on_c, 11, 50, 89
11, 21121, Note_on_c, 11, 53, 0
11, 21127, Note_on_c, 11, 50, 0
11, 21142, Note_on_c, 11, 36, 127
11, 21193, Note_on_c, 11, 55, 106
11, 21197, Note_on_c, 11, 63, 127
11, 21202, Note_on_c, 11, 55, 0
11, 21205, Note_on_c, 11, 63, 0
11, 21211, Note_on_c, 11, 55, 127
11, 21212, Note_on_c, 11, 36, 0
11, 21217, Note_on_c, 11, 63, 106
11, 21221, Note_on_c, 11, 55, 0
11, 21223, Note_on_c, 11, 63, 0
11, 21231, Note_on_c, 11, 55, 119
11, 21235, Note_on_c, 11, 63, 106
11, 21241, Note_on_c, 11, 55, 0
11, 21244, Note_on_c, 11, 63, 0
11, 21253, Note_on_c, 11, 51, 119
11, 21255, Note_on_c, 11, 62, 106
11, 21261, Note_on_c, 11, 51, 0
11, 21264, Note_on_c, 11, 62, 0
11, 21273, Note_on_c, 11, 51, 127
11, 21275, Note_on_c, 11, 62, 106
11, 21281, Note_on_c, 11, 51, 0
11, 21283, Note_on_c, 11, 62, 0
11, 21291, Note_on_c, 11, 51, 127
11, 21293, Note_on_c, 11, 62, 92
11, 21299, Note_on_c, 11, 51, 0
11, 21305, Note_on_c, 11, 62, 0
11, 21314, Note_on_c, 11, 59, 92
11, 21315, Note_on_c, 11, 54, 127
11, 21324, Note_on_c, 11, 54, 0
11, 21324, Note_on_c, 11, 59, 0
11, 21335, Note_on_c, 11, 54, 92
11, 21335, Note_on_c, 11, 59, 106
11, 21343, Note_on_c, 11, 54, 0
11, 21345, Note_on_c, 11, 59, 0
11, 21351, Note_on_c, 11, 54, 106
11, 21355, Note_on_c, 11, 59, 92
11, 21360, Note_on_c, 11, 54, 0
11, 21364, Note_on_c, 11, 59, 0
11, 21371, Note_on_c, 11, 36, 83
11, 21432, Note_on_c, 11, 59, 127
11, 21432, Note_on_c, 11, 67, 127
11, 21440, Note_on_c, 11, 59, 0
11, 21440, Note_on_c, 11, 67, 0
11, 21452, Note_on_c, 11, 59, 127
11, 21453, Note_on_c, 11, 67, 90
11, 21460, Note_on_c, 11, 59, 0
11, 21461, Note_on_c, 11, 67, 0
11, 21470, Note_on_c, 11, 59, 90
11, 21470, Note_on_c, 11, 67, 82
11, 21478, Note_on_c, 11, 59, 0
11, 21481, Note_on_c, 11, 67, 0
11, 21488, Note_on_c, 11, 38, 84
11, 21490, Note_on_c, 11, 36, 0
11, 21493, Note_on_c, 11, 66, 127
11, 21496, Note_on_c, 11, 60, 126
11, 21503, Note_on_c, 11, 66, 0
11, 21504, Note_on_c, 11, 60, 0
11, 21510, Note_on_c, 11, 60, 101
11, 21514, Note_on_c, 11, 66, 127
11, 21520, Note_on_c, 11, 60, 0
11, 21522, Note_on_c, 11, 66, 0
11, 21529, Note_on_c, 11, 60, 104
11, 21532, Note_on_c, 11, 66, 116
11, 21541, Note_on_c, 11, 60, 0
11, 21542, Note_on_c, 11, 66, 0
11, 21552, Note_on_c, 11, 54, 119
11, 21555, Note_on_c, 11, 62, 97
11, 21561, Note_on_c, 11, 54, 0
11, 21565, Note_on_c, 11, 62, 0
11, 21572, Note_on_c, 11, 54, 90
11, 21577, Note_on_c, 11, 62, 90
11, 21580, Note_on_c, 11, 54, 0
11, 21586, Note_on_c, 11, 62, 0
11, 21590, Note_on_c, 11, 54, 127
11, 21596, Note_on_c, 11, 62, 76
11, 21599, Note_on_c, 11, 54, 0
11, 21603, Note_on_c, 11, 39, 89
11, 21606, Note_on_c, 11, 62, 0
11, 21610, Note_on_c, 11, 65, 127
11, 21612, Note_on_c, 11, 57, 119
11, 21620, Note_on_c, 11, 65, 0
11, 21621, Note_on_c, 11, 38, 0
11, 21621, Note_on_c, 11, 57, 0
11, 21629, Note_on_c, 11, 65, 121
11, 21630, Note_on_c, 11, 57, 97
11, 21638, Note_on_c, 11, 65, 0
11, 21640, Note_on_c, 11, 57, 0
11, 21649, Note_on_c, 11, 65, 97
11, 21650, Note_on_c, 11, 57, 104
11, 21656, Note_on_c, 11, 65, 0
11, 21663, Note_on_c, 11, 57, 0
11, 21670, Note_on_c, 11, 63, 127
11, 21671, Note_on_c, 11, 55, 116
11, 21677, Note_on_c, 11, 63, 0
11, 21680, Note_on_c, 11, 55, 0
11, 21688, Note_on_c, 11, 63, 97
11, 21690, Note_on_c, 11, 55, 101
11, 21695, Note_on_c, 11, 63, 0
11, 21698, Note_on_c, 11, 55, 0
11, 21706, Note_on_c, 11, 63, 104
11, 21710, Note_on_c, 11, 55, 127
11, 21717, Note_on_c, 11, 63, 0
11, 21719, Note_on_c, 11, 55, 0
11, 21724, Note_on_c, 11, 39, 0
11, 21724, Note_on_c, 11, 41, 92
11, 21728, Note_on_c, 11, 59, 121
11, 21731, Note_on_c, 11, 51, 127
11, 21738, Note_on_c, 11, 59, 0
11, 21739, Note_on_c, 11, 51, 0
11, 21748, Note_on_c, 11, 59, 114
11, 21750, Note_on_c, 11, 51, 127
11, 21758, Note_on_c, 11, 59, 0
11, 21759, Note_on_c, 11, 51, 0
11, 21768, Note_on_c, 11, 59, 76
11, 21769, Note_on_c, 11, 51, 119
11, 21777, Note_on_c, 11, 59, 0
11, 21778, Note_on_c, 11, 51, 0
11, 21786, Note_on_c, 11, 56, 86
11, 21791, Note_on_c, 11, 47, 121
11, 21797, Note_on_c, 11, 56, 0
11, 21799, Note_on_c, 11, 47, 0
11, 21810, Note_on_c, 11, 56, 104
11, 21811, Note_on_c, 11, 47, 127
11, 21816, Note_on_c, 11, 56, 0
11, 21820, Note_on_c, 11, 47, 0
11, 21826, Note_on_c, 11, 56, 114
11, 21830, Note_on_c, 11, 47, 127
11, 21834, Note_on_c, 11, 56, 0
11, 21840, Note_on_c, 11, 47, 0
11, 21844, Note_on_c, 11, 41, 0
9, 21847, Note_on_c, 8, 62, 127
11, 21848, Note_on_c, 11, 50, 127
6, 21851, Note_on_c, 4, 50, 127
11, 21851, Note_on_c, 11, 38, 127
5, 21853, Note_on_c, 3, 62, 122
6, 21853, Note_on_c, 4, 62, 114
12, 21853, Note_on_c, 5, 50, 118
11, 21856, Note_on_c, 11, 45, 119
7, 21858, Note_on_c, 6, 62, 56
7, 21859, Note_on_c, 6, 50, 53
9, 21885, Note_on_c, 8, 62, 0
11, 21897, Note_on_c, 11, 50, 0
12, 21903, Note_on_c, 5, 50, 0
7, 21905, Note_on_c, 6, 50, 0
11, 21905, Note_on_c, 11, 38, 0
6, 21907, Note_on_c, 4, 62, 0
7, 21908, Note_on_c, 6, 62, 0
6, 21909, Note_on_c, 4, 50, 0
11, 21915, Note_on_c, 11, 57, 106
11, 21917, Note_on_c, 11, 53, 127
5, 21918, Note_on_c, 3, 62, 0
11, 21922, Note_on_c, 11, 57, 0
11, 21924, Note_on_c, 11, 53, 0
11, 21926, Note_on_c, 11, 45, 0
11, 21935, Note_on_c, 11, 57, 92
11, 21937, Note_on_c, 11, 53, 106
11, 21941, Note_on_c, 11, 57, 0
11, 21942, Note_on_c, 11, 53, 0
11, 21951, Note_on_c, 11, 53, 106
11, 21953, Note_on_c, 11, 57, 83
11, 21963, Note_on_c, 11, 57, 0
11, 21966, Note_on_c, 11, 53, 0
11, 21973, Note_on_c, 11, 49, 119
11, 21973, Note_on_c, 11, 58, 127
11, 21982, Note_on_c, 11, 58, 0
11, 21985, Note_on_c, 11, 49, 0
11, 21993, Note_on_c, 11, 58, 106
11, 21996, Note_on_c, 11, 49, 106
11, 22000, Note_on_c, 11, 58, 0
11, 22006, Note_on_c, 11, 49, 0
11, 22012, Note_on_c, 11, 58, 92
11, 22014, Note_on_c, 11, 49, 106
11, 22023, Note_on_c, 11, 49, 0
11, 22025, Note_on_c, 11, 58, 0
11, 22033, Note_on_c, 11, 55, 106
11, 22035, Note_on_c, 11, 52, 119
11, 22043, Note_on_c, 11, 55, 0
11, 22045, Note_on_c, 11, 52, 0
11, 22053, Note_on_c, 11, 55, 83
11, 22056, Note_on_c, 11, 52, 92
11, 22063, Note_on_c, 11, 55, 0
11, 22064, Note_on_c, 11, 52, 0
11, 22072, Note_on_c, 11, 55, 106
11, 22074, Note_on_c, 11, 52, 89
11, 22081, Note_on_c, 11, 55, 0
11, 22087, Note_on_c, 11, 52, 0
11, 22092, Note_on_c, 11, 38, 127
6, 22093, Note_on_c, 4, 50, 119
9, 22093, Note_on_c, 8, 62, 127
11, 22093, Note_on_c, 11, 50, 127
6, 22094, Note_on_c, 4, 62, 103
5, 22096, Note_on_c, 3, 62, 127
12, 22099, Note_on_c, 5, 50, 119
11, 22101, Note_on_c, 11, 45, 127
9, 22129, Note_on_c, 8, 62, 0
11, 22135, Note_on_c, 11, 50, 0
6, 22139, Note_on_c, 4, 62, 0
11, 22139, Note_on_c, 11, 38, 0
6, 22143, Note_on_c, 4, 50, 0
12, 22144, Note_on_c, 5, 50, 0
5, 22149, Note_on_c, 3, 62, 0
11, 22153, Note_on_c, 11, 57, 106
11, 22157, Note_on_c, 11, 65, 127
11, 22162, Note_on_c, 11, 57, 0
11, 22165, Note_on_c, 11, 65, 0
11, 22167, Note_on_c, 11, 45, 0
11, 22171, Note_on_c, 11, 57, 127
11, 22177, Note_on_c, 11, 65, 106
11, 22181, Note_on_c, 11, 57, 0
11, 22183, Note_on_c, 11, 65, 0
11, 22191, Note_on_c, 11, 57, 119
11, 22195, Note_on_c, 11, 65, 106
11, 22201, Note_on_c, 11, 57, 0
11, 22204, Note_on_c, 11, 65, 0
11, 22213, Note_on_c, 11, 53, 119
11, 22215, Note_on_c, 11, 64, 106
11, 22221, Note_on_c, 11, 53, 0
11, 22224, Note_on_c, 11, 64, 0
11, 22233, Note_on_c, 11, 53, 127
11, 22235, Note_on_c, 11, 64, 106
11, 22241, Note_on_c, 11, 53, 0
11, 22243, Note_on_c, 11, 64, 0
11, 22251, Note_on_c, 11, 53, 127
11, 22253, Note_on_c, 11, 64, 92
11, 22259, Note_on_c, 11, 53, 0
11, 22265, Note_on_c, 11, 64, 0
11, 22274, Note_on_c, 11, 61, 92
11, 22275, Note_on_c, 11, 56, 127
11, 22284, Note_on_c, 11, 56, 0
11, 22284, Note_on_c, 11, 61, 0
11, 22295, Note_on_c, 11, 56, 92
11, 22295, Note_on_c, 11, 61, 106
11, 22303, Note_on_c, 11, 56, 0
11, 22305, Note_on_c, 11, 61, 0
11, 22311, Note_on_c, 11, 56, 106
11, 22315, Note_on_c, 11, 61, 92
11, 22320, Note_on_c, 11, 56, 0
11, 22324, Note_on_c, 11, 61, 0
11, 22331, Note_on_c, 11, 38, 127
11, 22331, Note_on_c, 11, 50, 127
6, 22333, Note_on_c, 4, 50, 127
6, 22333, Note_on_c, 4, 62, 114
9, 22334, Note_on_c, 8, 62, 127
12, 22335, Note_on_c, 5, 50, 119
5, 22336, Note_on_c, 3, 62, 127
9, 22364, Note_on_c, 8, 62, 0
11, 22377, Note_on_c, 11, 50, 0
6, 22379, Note_on_c, 4, 62, 0
12, 22379, Note_on_c, 5, 50, 0
6, 22380, Note_on_c, 4, 50, 0
11, 22380, Note_on_c, 11, 38, 0
5, 22384, Note_on_c, 3, 62, 0
11, 22392, Note_on_c, 11, 61, 127
11, 22392, Note_on_c, 11, 69, 127
11, 22400, Note_on_c, 11, 61, 0
11, 22400, Note_on_c, 11, 69, 0
11, 22412, Note_on_c, 11, 61, 127
11, 22413, Note_on_c, 11, 69, 90
11, 22420, Note_on_c, 11, 61, 0
11, 22421, Note_on_c, 11, 69, 0
11, 22430, Note_on_c, 11, 61, 90
11, 22430, Note_on_c, 11, 69, 82
11, 22438, Note_on_c, 11, 61, 0
11, 22441, Note_on_c, 11, 69, 0
11, 22453, Note_on_c, 11, 68, 127
11, 22456, Note_on_c, 11, 47, 104
11, 22456, Note_on_c, 11, 62, 126
11, 22463, Note_on_c, 11, 68, 0
11, 22464, Note_on_c, 11, 62, 0
11, 22470, Note_on_c, 11, 62, 101
11, 22474, Note_on_c, 11, 68, 127
11, 22480, Note_on_c, 11, 62, 0
11, 22482, Note_on_c, 11, 68, 0
11, 22489, Note_on_c, 11, 62, 104
11, 22492, Note_on_c, 11, 68, 116
11, 22501, Note_on_c, 11, 62, 0
11, 22502, Note_on_c, 11, 68, 0
11, 22512, Note_on_c, 11, 56, 119
11, 22515, Note_on_c, 11, 64, 97
11, 22521, Note_on_c, 11, 56, 0
11, 22525, Note_on_c, 11, 64, 0
11, 22532, Note_on_c, 11, 56, 90
11, 22537, Note_on_c, 11, 64, 90
11, 22540, Note_on_c, 11, 56, 0
11, 22546, Note_on_c, 11, 64, 0
11, 22550, Note_on_c, 11, 56, 127
11, 22556, Note_on_c, 11, 64, 76
11, 22559, Note_on_c, 11, 56, 0
11, 22566, Note_on_c, 11, 64, 0
11, 22570, Note_on_c, 11, 67, 127
11, 22572, Note_on_c, 11, 59, 119
11, 22576, Note_on_c, 11, 48, 94
11, 22580, Note_on_c, 11, 67, 0
11, 22581, Note_on_c, 11, 59, 0
11, 22583, Note_on_c, 11, 47, 0
11, 22589, Note_on_c, 11, 67, 121
11, 22590, Note_on_c, 11, 59, 97
11, 22598, Note_on_c, 11, 67, 0
11, 22600, Note_on_c, 11, 59, 0
11, 22609, Note_on_c, 11, 67, 97
11, 22610, Note_on_c, 11, 59, 104
11, 22616, Note_on_c, 11, 67, 0
11, 22623, Note_on_c, 11, 59, 0
11, 22630, Note_on_c, 11, 65, 127
11, 22631, Note_on_c, 11, 57, 116
11, 22637, Note_on_c, 11, 65, 0
11, 22640, Note_on_c, 11, 57, 0
11, 22648, Note_on_c, 11, 65, 97
11, 22650, Note_on_c, 11, 57, 101
11, 22655, Note_on_c, 11, 65, 0
11, 22658, Note_on_c, 11, 57, 0
11, 22666, Note_on_c, 11, 65, 104
11, 22670, Note_on_c, 11, 57, 127
11, 22677, Note_on_c, 11, 65, 0
11, 22679, Note_on_c, 11, 57, 0
11, 22688, Note_on_c, 11, 61, 121
11, 22691, Note_on_c, 11, 53, 127
11, 22698, Note_on_c, 11, 61, 0
11, 22699, Note_on_c, 11, 49, 90
11, 22699, Note_on_c, 11, 53, 0
11, 22708, Note_on_c, 11, 61, 114
11, 22710, Note_on_c, 11, 48, 0
11, 22710, Note_on_c, 11, 53, 127
11, 22718, Note_on_c, 11, 61, 0
11, 22719, Note_on_c, 11, 53, 0
11, 22728, Note_on_c, 11, 61, 76
11, 22729, Note_on_c, 11, 53, 119
11, 22737, Note_on_c, 11, 61, 0
11, 22738, Note_on_c, 11, 53, 0
11, 22746, Note_on_c, 11, 58, 86
11, 22751, Note_on_c, 11, 49, 121
11, 22757, Note_on_c, 11, 58, 0
11, 22759, Note_on_c, 11, 49, 0
11, 22770, Note_on_c, 11, 58, 87
11, 22771, Note_on_c, 11, 49, 109
11, 22776, Note_on_c, 11, 58, 0
11, 22780, Note_on_c, 11, 49, 0
11, 22788, Note_on_c, 11, 58, 95
11, 22792, Note_on_c, 11, 49, 119
11, 22796, Note_on_c, 11, 58, 0
11, 22802, Note_on_c, 11, 49, 0
11, 22804, Note_on_c, 11, 49, 0
9, 22811, Note_on_c, 8, 71, 77
11, 22811, Note_on_c, 11, 52, 88
11, 22811, Note_on_c, 11, 52, 88
9, 22812, Note_on_c, 8, 68, 88
11, 22812, Note_on_c, 11, 52, 0
9, 22830, Note_on_c, 8, 72, 77
11, 22830, Note_on_c, 11, 47, 77
11, 22830, Note_on_c, 11, 53, 77
9, 22832, Note_on_c, 8, 71, 0
9, 22834, Note_on_c, 8, 67, 63
9, 22834, Note_on_c, 8, 68, 0
11, 22836, Note_on_c, 11, 52, 0
11, 22848, Note_on_c, 11, 47, 0
9, 22849, Note_on_c, 8, 74, 69
11, 22849, Note_on_c, 11, 55, 69
11, 22850, Note_on_c, 11, 41, 74
9, 22853, Note_on_c, 8, 72, 0
11, 22853, Note_on_c, 11, 53, 0
9, 22854, Note_on_c, 8, 64, 77
9, 22859, Note_on_c, 8, 67, 0
11, 22869, Note_on_c, 11, 56, 55
11, 22870, Note_on_c, 11, 55, 0
9, 22871, Note_on_c, 8, 77, 59
11, 22871, Note_on_c, 11, 40, 99
9, 22872, Note_on_c, 8, 64, 0
9, 22873, Note_on_c, 8, 60, 88
9, 22874, Note_on_c, 8, 74, 0
11, 22877, Note_on_c, 11, 41, 0
9, 22887, Note_on_c, 8, 77, 0
9, 22890, Note_on_c, 8, 60, 0
9, 22890, Note_on_c, 8, 76, 59
11, 22890, Note_on_c, 11, 39, 77
11, 22890, Note_on_c, 11, 55, 74
11, 22892, Note_on_c, 11, 40, 0
9, 22893, Note_on_c, 8, 59, 74
11, 22894, Note_on_c, 11, 56, 0
9, 22908, Note_on_c, 8, 59, 0
9, 22908, Note_on_c, 8, 60, 63
9, 22908, Note_on_c, 8, 76, 0
9, 22909, Note_on_c, 8, 77, 63
11, 22909, Note_on_c, 11, 55, 0
11, 22909, Note_on_c, 11, 56, 74
11, 22910, Note_on_c, 11, 39, 0
11, 22910, Note_on_c, 11, 40, 77
9, 22929, Note_on_c, 8, 60, 0
9, 22930, Note_on_c, 8, 64, 77
9, 22930, Note_on_c, 8, 72, 77
11, 22931, Note_on_c, 11, 40, 0
11, 22931, Note_on_c, 11, 44, 88
11, 22931, Note_on_c, 11, 53, 88
9, 22932, Note_on_c, 8, 77, 0
11, 22934, Note_on_c, 11, 56, 0
11, 22947, Note_on_c, 11, 53, 0
9, 22948, Note_on_c, 8, 63, 69
9, 22948, Note_on_c, 8, 72, 0
9, 22949, Note_on_c, 8, 64, 0
9, 22949, Note_on_c, 8, 71, 74
11, 22949, Note_on_c, 11, 52, 74
11, 22953, Note_on_c, 11, 43, 77
11, 22956, Note_on_c, 11, 44, 0
9, 22964, Note_on_c, 8, 63, 0
9, 22965, Note_on_c, 8, 64, 69
9, 22969, Note_on_c, 8, 72, 77
11, 22969, Note_on_c, 11, 53, 69
11, 22970, Note_on_c, 11, 44, 77
11, 22973, Note_on_c, 11, 52, 0
9, 22974, Note_on_c, 8, 71, 0
11, 22975, Note_on_c, 11, 43, 0
9, 22987, Note_on_c, 8, 64, 0
9, 22988, Note_on_c, 8, 68, 88
11, 22989, Note_on_c, 11, 60, 77
9, 22990, Note_on_c, 8, 76, 59
11, 22990, Note_on_c, 11, 44, 0
11, 22990, Note_on_c, 11, 47, 77
11, 22990, Note_on_c, 11, 53, 0
9, 22993, Note_on_c, 8, 72, 0
9, 23004, Note_on_c, 8, 76, 0
9, 23006, Note_on_c, 8, 67, 69
9, 23008, Note_on_c, 8, 68, 0
9, 23009, Note_on_c, 8, 75, 55
11, 23009, Note_on_c, 11, 59, 74
11, 23009, Note_on_c, 11, 60, 0
11, 23010, Note_on_c, 11, 47, 0
11, 23011, Note_on_c, 11, 46, 99
9, 23025, Note_on_c, 8, 68, 88
9, 23027, Note_on_c, 8, 67, 0
11, 23028, Note_on_c, 11, 59, 0
9, 23029, Note_on_c, 8, 75, 0
9, 23029, Note_on_c, 8, 76, 74
11, 23029, Note_on_c, 11, 60, 77
11, 23030, Note_on_c, 11, 46, 0
11, 23030, Note_on_c, 11, 47, 88
9, 23043, Note_on_c, 8, 68, 0
9, 23045, Note_on_c, 8, 76, 0
11, 23046, Note_on_c, 11, 47, 0
11, 23047, Note_on_c, 11, 60, 0
9, 23051, Note_on_c, 8, 69, 99
9, 23051, Note_on_c, 8, 77, 77
11, 23052, Note_on_c, 11, 52, 88
11, 23053, Note_on_c, 11, 60, 88
9, 23069, Note_on_c, 8, 69, 0
9, 23070, Note_on_c, 8, 68, 69
9, 23070, Note_on_c, 8, 76, 77
9, 23071, Note_on_c, 8, 77, 0
11, 23071, Note_on_c, 11, 59, 69
11, 23072, Note_on_c, 11, 48, 74
11, 23073, Note_on_c, 11, 52, 0
11, 23076, Note_on_c, 11, 60, 0
9, 23088, Note_on_c, 8, 77, 74
9, 23089, Note_on_c, 8, 69, 74
9, 23090, Note_on_c, 8, 76, 0
11, 23090, Note_on_c, 11, 47, 74
11, 23091, Note_on_c, 11, 48, 0
11, 23091, Note_on_c, 11, 57, 74
11, 23091, Note_on_c, 11, 59, 0
9, 23093, Note_on_c, 8, 68, 0
9, 23110, Note_on_c, 8, 77, 0
9, 23111, Note_on_c, 8, 71, 77
9, 23111, Note_on_c, 8, 80, 74
11, 23111, Note_on_c, 11, 53, 88
9, 23114, Note_on_c, 8, 69, 0
11, 23115, Note_on_c, 11, 47, 0
11, 23116, Note_on_c, 11, 56, 69
11, 23127, Note_on_c, 11, 57, 0
9, 23128, Note_on_c, 8, 69, 69
9, 23128, Note_on_c, 8, 71, 0
9, 23130, Note_on_c, 8, 79, 74
9, 23131, Note_on_c, 8, 80, 0
11, 23131, Note_on_c, 11, 52, 63
11, 23134, Note_on_c, 11, 53, 0
11, 23134, Note_on_c, 11, 56, 0
11, 23135, Note_on_c, 11, 59, 74
7, 23141, Note_on_c, 6, 52, 59
7, 23145, Note_on_c, 6, 53, 16
9, 23147, Note_on_c, 8, 71, 77
9, 23150, Note_on_c, 8, 79, 0
9, 23150, Note_on_c, 8, 80, 69
9, 23151, Note_on_c, 8, 69, 0
11, 23151, Note_on_c, 11, 48, 88
11, 23153, Note_on_c, 11, 64, 88
11, 23154, Note_on_c, 11, 59, 0
11, 23158, Note_on_c, 11, 52, 0
7, 23163, Note_on_c, 6, 52, 0
11, 23164, Note_on_c, 11, 64, 0
7, 23166, Note_on_c, 6, 55, 20
11, 23166, Note_on_c, 11, 48, 0
9, 23167, Note_on_c, 8, 71, 0
9, 23169, Note_on_c, 8, 80, 0
9, 23169, Note_on_c, 8, 83, 88
11, 23171, Note_on_c, 11, 41, 74
9, 23172, Note_on_c, 8, 59, 99
7, 23175, Note_on_c, 6, 53, 0
11, 23175, Note_on_c, 11, 64, 88
7, 23179, Note_on_c, 6, 57, 43
7, 23186, Note_on_c, 6, 55, 0
9, 23189, Note_on_c, 8, 82, 69
9, 23189, Note_on_c, 8, 83, 0
7, 23190, Note_on_c, 6, 59, 37
9, 23191, Note_on_c, 8, 60, 77
11, 23191, Note_on_c, 11, 44, 69
11, 23192, Note_on_c, 11, 64, 0
7, 23195, Note_on_c, 6, 57, 0
9, 23195, Note_on_c, 8, 59, 0
11, 23195, Note_on_c, 11, 60, 74
11, 23198, Note_on_c, 11, 41, 0
7, 23203, Note_on_c, 6, 60, 46
7, 23207, Note_on_c, 6, 59, 0
9, 23207, Note_on_c, 8, 83, 88
9, 23210, Note_on_c, 8, 64, 74
9, 23210, Note_on_c, 8, 82, 0
7, 23211, Note_on_c, 6, 62, 48
9, 23211, Note_on_c, 8, 60, 0
11, 23211, Note_on_c, 11, 47, 74
11, 23212, Note_on_c, 11, 44, 0
11, 23212, Note_on_c, 11, 59, 77
7, 23215, Note_on_c, 6, 60, 0
11, 23215, Note_on_c, 11, 60, 0
7, 23220, Note_on_c, 6, 64, 52
7, 23224, Note_on_c, 6, 62, 0
9, 23224, Note_on_c, 8, 83, 0
9, 23226, Note_on_c, 8, 64, 0
7, 23228, Note_on_c, 6, 65, 55
9, 23229, Note_on_c, 8, 65, 74
9, 23230, Note_on_c, 8, 71, 99
7, 23231, Note_on_c, 6, 64, 0
11, 23232, Note_on_c, 11, 47, 0
11, 23232, Note_on_c, 11, 48, 74
11, 23232, Note_on_c, 11, 59, 0
11, 23234, Note_on_c, 11, 56, 74
7, 23236, Note_on_c, 6, 67, 43
7, 23240, Note_on_c, 6, 65, 0
7, 23244, Note_on_c, 6, 69, 48
7, 23248, Note_on_c, 6, 67, 0
9, 23248, Note_on_c, 8, 68, 77
9, 23248, Note_on_c, 8, 72, 77
11, 23250, Note_on_c, 11, 48, 0
11, 23251, Note_on_c, 11, 47, 77
9, 23252, Note_on_c, 8, 65, 0
9, 23252, Note_on_c, 8, 71, 0
7, 23253, Note_on_c, 6, 71, 40
11, 23255, Note_on_c, 11, 64, 77
7, 23258, Note_on_c, 6, 69, 0
11, 23258, Note_on_c, 11, 56, 0
7, 23265, Note_on_c, 6, 72, 40
9, 23267, Note_on_c, 8, 68, 0
9, 23267, Note_on_c, 8, 71, 77
9, 23268, Note_on_c, 8, 72, 0
9, 23268, Note_on_c, 8, 76, 74
7, 23269, Note_on_c, 6, 71, 0
11, 23271, Note_on_c, 11, 48, 77
11, 23271, Note_on_c, 11, 68, 77
11, 23272, Note_on_c, 11, 47, 0
11, 23273, Note_on_c, 11, 64, 0
7, 23276, Note_on_c, 6, 74, 46
7, 23280, Note_on_c, 6, 72, 0
11, 23282, Note_on_c, 11, 68, 0
9, 23287, Note_on_c, 8, 71, 0
7, 23288, Note_on_c, 6, 76, 68
9, 23288, Note_on_c, 8, 76, 0
11, 23291, Note_on_c, 11, 48, 0
12, 23291, Note_on_c, 5, 52, 119
7, 23292, Note_on_c, 6, 74, 0
13, 23300, Note_on_c, 9, 57, 127
13, 23310, Note_on_c, 9, 57, 0
7, 23312, Note_on_c, 6, 76, 0
12, 23336, Note_on_c, 5, 52, 0
5, 23352, Note_on_c, 3, 60, 109
5, 23352, Note_on_c, 3, 64, 106
6, 23352, Note_on_c, 4, 60, 109
6, 23352, Note_on_c, 4, 64, 106
12, 23352, Note_on_c, 5, 46, 119
5, 23353, Note_on_c, 3, 68, 112
6, 23353, Note_on_c, 4, 68, 112
5, 23361, Note_on_c, 3, 68, 0
6, 23361, Note_on_c, 4, 68, 0
5, 23362, Note_on_c, 3, 64, 0
6, 23362, Note_on_c, 4, 64, 0
5, 23363, Note_on_c, 3, 60, 0
6, 23363, Note_on_c, 4, 60, 0
5, 23375, Note_on_c, 3, 60, 101
5, 23375, Note_on_c, 3, 64, 86
5, 23375, Note_on_c, 3, 68, 112
6, 23375, Note_on_c, 4, 60, 101
6, 23375, Note_on_c, 4, 64, 86
6, 23375, Note_on_c, 4, 68, 112
5, 23382, Note_on_c, 3, 68, 0
6, 23382, Note_on_c, 4, 68, 0
5, 23383, Note_on_c, 3, 64, 0
6, 23383, Note_on_c, 4, 64, 0
5, 23385, Note_on_c, 3, 60, 0
6, 23385, Note_on_c, 4, 60, 0
5, 23391, Note_on_c, 3, 64, 91
5, 23391, Note_on_c, 3, 68, 86
6, 23391, Note_on_c, 4, 64, 91
6, 23391, Note_on_c, 4, 68, 86
5, 23393, Note_on_c, 3, 60, 91
6, 23393, Note_on_c, 4, 60, 91
12, 23396, Note_on_c, 5, 46, 0
5, 23401, Note_on_c, 3, 64, 0
5, 23401, Note_on_c, 3, 68, 0
6, 23401, Note_on_c, 4, 64, 0
6, 23401, Note_on_c, 4, 68, 0
5, 23403, Note_on_c, 3, 60, 0
6, 23403, Note_on_c, 4, 60, 0
5, 23413, Note_on_c, 3, 65, 70
5, 23413, Note_on_c, 3, 69, 78
6, 23413, Note_on_c, 4, 65, 70
6, 23413, Note_on_c, 4, 69, 78
12, 23413, Note_on_c, 5, 52, 119
5, 23414, Note_on_c, 3, 61, 112
6, 23414, Note_on_c, 4, 61, 112
5, 23421, Note_on_c, 3, 65, 0
6, 23421, Note_on_c, 4, 65, 0
5, 23422, Note_on_c, 3, 69, 0
6, 23422, Note_on_c, 4, 69, 0
5, 23423, Note_on_c, 3, 61, 0
6, 23423, Note_on_c, 4, 61, 0
5, 23432, Note_on_c, 3, 65, 75
5, 23432, Note_on_c, 3, 69, 75
6, 23432, Note_on_c, 4, 65, 75
6, 23432, Note_on_c, 4, 69, 75
5, 23433, Note_on_c, 3, 61, 109
6, 23433, Note_on_c, 4, 61, 109
5, 23440, Note_on_c, 3, 69, 0
6, 23440, Note_on_c, 4, 69, 0
5, 23441, Note_on_c, 3, 61, 0
6, 23441, Note_on_c, 4, 61, 0
5, 23442, Note_on_c, 3, 65, 0
6, 23442, Note_on_c, 4, 65, 0
5, 23451, Note_on_c, 3, 61, 121
5, 23451, Note_on_c, 3, 65, 78
5, 23451, Note_on_c, 3, 69, 78
6, 23451, Note_on_c, 4, 61, 121
6, 23451, Note_on_c, 4, 65, 78
6, 23451, Note_on_c, 4, 69, 78
12, 23451, Note_on_c, 5, 52, 0
5, 23460, Note_on_c, 3, 69, 0
6, 23460, Note_on_c, 4, 69, 0
5, 23461, Note_on_c, 3, 61, 0
5, 23461, Note_on_c, 3, 65, 0
6, 23461, Note_on_c, 4, 61, 0
6, 23461, Note_on_c, 4, 65, 0
5, 23475, Note_on_c, 3, 58, 101
5, 23475, Note_on_c, 3, 66, 124
6, 23475, Note_on_c, 4, 58, 101
6, 23475, Note_on_c, 4, 66, 124
12, 23475, Note_on_c, 5, 46, 119
5, 23476, Note_on_c, 3, 62, 99
6, 23476, Note_on_c, 4, 62, 99
5, 23483, Note_on_c, 3, 66, 0
6, 23483, Note_on_c, 4, 66, 0
5, 23485, Note_on_c, 3, 58, 0
5, 23485, Note_on_c, 3, 62, 0
6, 23485, Note_on_c, 4, 58, 0
6, 23485, Note_on_c, 4, 62, 0
5, 23493, Note_on_c, 3, 62, 65
5, 23493, Note_on_c, 3, 66, 106
6, 23493, Note_on_c, 4, 62, 65
6, 23493, Note_on_c, 4, 66, 106
5, 23495, Note_on_c, 3, 58, 121
6, 23495, Note_on_c, 4, 58, 121
5, 23501, Note_on_c, 3, 62, 0
5, 23501, Note_on_c, 3, 66, 0
6, 23501, Note_on_c, 4, 62, 0
6, 23501, Note_on_c, 4, 66, 0
5, 23503, Note_on_c, 3, 58, 0
6, 23503, Note_on_c, 4, 58, 0
5, 23511, Note_on_c, 3, 62, 75
5, 23511, Note_on_c, 3, 66, 119
6, 23511, Note_on_c, 4, 62, 75
6, 23511, Note_on_c, 4, 66, 119
5, 23513, Note_on_c, 3, 58, 105
6, 23513, Note_on_c, 4, 58, 105
12, 23513, Note_on_c, 5, 46, 0
5, 23522, Note_on_c, 3, 66, 0
6, 23522, Note_on_c, 4, 66, 0
5, 23524, Note_on_c, 3, 58, 0
5, 23524, Note_on_c, 3, 62, 0
6, 23524, Note_on_c, 4, 58, 0
6, 23524, Note_on_c, 4, 62, 0
9, 23527, Note_on_c, 8, 57, 108
9, 23529, Note_on_c, 8, 65, 119
11, 23532, Note_on_c, 11, 53, 127
11, 23532, Note_on_c, 11, 61, 119
12, 23532, Note_on_c, 5, 52, 119
13, 23533, Note_on_c, 9, 57, 127
11, 23534, Note_on_c, 11, 38, 127
11, 23534, Note_on_c, 11, 49, 108
13, 23544, Note_on_c, 9, 57, 0
11, 23558, Note_on_c, 11, 53, 0
9, 23559, Note_on_c, 8, 57, 0
9, 23560, Note_on_c, 8, 65, 0
11, 23560, Note_on_c, 11, 61, 0
11, 23562, Note_on_c, 11, 38, 0
11, 23562, Note_on_c, 11, 49, 0
12, 23568, Note_on_c, 5, 52, 0
12, 23592, Note_on_c, 5, 46, 99
5, 23593, Note_on_c, 3, 64, 96
5, 23593, Note_on_c, 3, 68, 127
6, 23593, Note_on_c, 4, 64, 96
6, 23593, Note_on_c, 4, 68, 127
5, 23594, Note_on_c, 3, 60, 96
6, 23594, Note_on_c, 4, 60, 96
5, 23601, Note_on_c, 3, 68, 0
6, 23601, Note_on_c, 4, 68, 0
5, 23603, Note_on_c, 3, 64, 0
6, 23603, Note_on_c, 4, 64, 0
5, 23604, Note_on_c, 3, 60, 0
6, 23604, Note_on_c, 4, 60, 0
5, 23615, Note_on_c, 3, 60, 101
5, 23615, Note_on_c, 3, 64, 96
5, 23615, Note_on_c, 3, 68, 95
6, 23615, Note_on_c, 4, 60, 101
6, 23615, Note_on_c, 4, 64, 96
6, 23615, Note_on_c, 4, 68, 95
5, 23622, Note_on_c, 3, 68, 0
6, 23622, Note_on_c, 4, 68, 0
5, 23623, Note_on_c, 3, 60, 0
6, 23623, Note_on_c, 4, 60, 0
5, 23624, Note_on_c, 3, 64, 0
6, 23624, Note_on_c, 4, 64, 0
5, 23631, Note_on_c, 3, 64, 96
5, 23631, Note_on_c, 3, 68, 96
6, 23631, Note_on_c, 4, 64, 96
6, 23631, Note_on_c, 4, 68, 96
5, 23632, Note_on_c, 3, 60, 80
6, 23632, Note_on_c, 4, 60, 80
12, 23632, Note_on_c, 5, 46, 0
5, 23640, Note_on_c, 3, 68, 0
6, 23640, Note_on_c, 4, 68, 0
5, 23641, Note_on_c, 3, 64, 0
6, 23641, Note_on_c, 4, 64, 0
5, 23642, Note_on_c, 3, 60, 0
6, 23642, Note_on_c, 4, 60, 0
5, 23654, Note_on_c, 3, 61, 127
5, 23654, Note_on_c, 3, 65, 91
6, 23654, Note_on_c, 4, 61, 127
6, 23654, Note_on_c, 4, 65, 91
12, 23654, Note_on_c, 5, 52, 119
5, 23655, Note_on_c, 3, 69, 94
6, 23655, Note_on_c, 4, 69, 94
5, 23662, Note_on_c, 3, 65, 0
5, 23662, Note_on_c, 3, 69, 0
6, 23662, Note_on_c, 4, 65, 0
6, 23662, Note_on_c, 4, 69, 0
5, 23664, Note_on_c, 3, 61, 0
6, 23664, Note_on_c, 4, 61, 0
5, 23673, Note_on_c, 3, 65, 80
5, 23673, Note_on_c, 3, 69, 86
6, 23673, Note_on_c, 4, 65, 80
6, 23673, Note_on_c, 4, 69, 86
5, 23675, Note_on_c, 3, 61, 109
6, 23675, Note_on_c, 4, 61, 109
5, 23681, Note_on_c, 3, 65, 0
5, 23681, Note_on_c, 3, 69, 0
6, 23681, Note_on_c, 4, 65, 0
6, 23681, Note_on_c, 4, 69, 0
5, 23683, Note_on_c, 3, 61, 0
6, 23683, Note_on_c, 4, 61, 0
5, 23691, Note_on_c, 3, 65, 80
6, 23691, Note_on_c, 4, 65, 80
12, 23691, Note_on_c, 5, 52, 0
5, 23692, Note_on_c, 3, 61, 121
5, 23692, Note_on_c, 3, 69, 96
6, 23692, Note_on_c, 4, 61, 121
6, 23692, Note_on_c, 4, 69, 96
5, 23700, Note_on_c, 3, 69, 0
6, 23700, Note_on_c, 4, 69, 0
5, 23701, Note_on_c, 3, 65, 0
6, 23701, Note_on_c, 4, 65, 0
5, 23702, Note_on_c, 3, 61, 0
6, 23702, Note_on_c, 4, 61, 0
12, 23713, Note_on_c, 5, 46, 119
5, 23716, Note_on_c, 3, 62, 101
5, 23716, Note_on_c, 3, 66, 127
6, 23716, Note_on_c, 4, 62, 101
6, 23716, Note_on_c, 4, 66, 127
5, 23718, Note_on_c, 3, 58, 127
6, 23718, Note_on_c, 4, 58, 127
5, 23724, Note_on_c, 3, 66, 0
6, 23724, Note_on_c, 4, 66, 0
5, 23727, Note_on_c, 3, 62, 0
6, 23727, Note_on_c, 4, 62, 0
5, 23728, Note_on_c, 3, 58, 0
6, 23728, Note_on_c, 4, 58, 0
5, 23735, Note_on_c, 3, 66, 124
6, 23735, Note_on_c, 4, 66, 124
5, 23736, Note_on_c, 3, 58, 101
5, 23736, Note_on_c, 3, 62, 80
6, 23736, Note_on_c, 4, 58, 101
6, 23736, Note_on_c, 4, 62, 80
5, 23743, Note_on_c, 3, 66, 0
6, 23743, Note_on_c, 4, 66, 0
5, 23745, Note_on_c, 3, 62, 0
6, 23745, Note_on_c, 4, 62, 0
5, 23747, Note_on_c, 3, 58, 0
6, 23747, Note_on_c, 4, 58, 0
5, 23751, Note_on_c, 3, 62, 75
5, 23751, Note_on_c, 3, 66, 119
5, 23753, Note_on_c, 3, 58, 105
12, 23755, Note_on_c, 5, 46, 0
5, 23762, Note_on_c, 3, 66, 0
5, 23764, Note_on_c, 3, 58, 0
5, 23764, Note_on_c, 3, 62, 0
9, 23771, Note_on_c, 8, 57, 119
12, 23771, Note_on_c, 5, 52, 119
9, 23772, Note_on_c, 8, 65, 119
11, 23772, Note_on_c, 11, 53, 127
11, 23772, Note_on_c, 11, 61, 119
13, 23772, Note_on_c, 9, 57, 127
11, 23774, Note_on_c, 11, 49, 119
11, 23776, Note_on_c, 11, 38, 127
13, 23782, Note_on_c, 9, 57, 0
11, 23797, Note_on_c, 11, 38, 0
11, 23799, Note_on_c, 11, 53, 0
11, 23800, Note_on_c, 11, 61, 0
9, 23802, Note_on_c, 8, 57, 0
11, 23802, Note_on_c, 11, 49, 0
9, 23809, Note_on_c, 8, 65, 0
12, 23816, Note_on_c, 5, 52, 0
5, 23832, Note_on_c, 3, 64, 109
5, 23832, Note_on_c, 3, 68, 106
6, 23832, Note_on_c, 4, 60, 109
6, 23832, Note_on_c, 4, 64, 106
12, 23832, Note_on_c, 5, 46, 119
5, 23833, Note_on_c, 3, 72, 112
6, 23833, Note_on_c, 4, 68, 112
5, 23841, Note_on_c, 3, 72, 0
6, 23841, Note_on_c, 4, 68, 0
5, 23842, Note_on_c, 3, 68, 0
6, 23842, Note_on_c, 4, 64, 0
5, 23843, Note_on_c, 3, 64, 0
6, 23843, Note_on_c, 4, 60, 0
5, 23855, Note_on_c, 3, 64, 101
5, 23855, Note_on_c, 3, 68, 86
5, 23855, Note_on_c, 3, 72, 112
6, 23855, Note_on_c, 4, 60, 101
6, 23855, Note_on_c, 4, 64, 86
6, 23855, Note_on_c, 4, 68, 112
5, 23862, Note_on_c, 3, 72, 0
6, 23862, Note_on_c, 4, 68, 0
5, 23863, Note_on_c, 3, 68, 0
6, 23863, Note_on_c, 4, 64, 0
5, 23865, Note_on_c, 3, 64, 0
6, 23865, Note_on_c, 4, 60, 0
5, 23871, Note_on_c, 3, 68, 91
5, 23871, Note_on_c, 3, 72, 86
6, 23871, Note_on_c, 4, 64, 91
6, 23871, Note_on_c, 4, 68, 86
5, 23873, Note_on_c, 3, 64, 91
6, 23873, Note_on_c, 4, 60, 91
12, 23876, Note_on_c, 5, 46, 0
5, 23881, Note_on_c, 3, 68, 0
5, 23881, Note_on_c, 3, 72, 0
6, 23881, Note_on_c, 4, 64, 0
6, 23881, Note_on_c, 4, 68, 0
5, 23883, Note_on_c, 3, 64, 0
6, 23883, Note_on_c, 4, 60, 0
5, 23893, Note_on_c, 3, 69, 70
5, 23893, Note_on_c, 3, 73, 78
6, 23893, Note_on_c, 4, 65, 70
6, 23893, Note_on_c, 4, 69, 78
12, 23893, Note_on_c, 5, 52, 119
5, 23894, Note_on_c, 3, 65, 112
6, 23894, Note_on_c, 4, 61, 112
5, 23901, Note_on_c, 3, 69, 0
6, 23901, Note_on_c, 4, 65, 0
5, 23902, Note_on_c, 3, 73, 0
6, 23902, Note_on_c, 4, 69, 0
5, 23903, Note_on_c, 3, 65, 0
6, 23903, Note_on_c, 4, 61, 0
5, 23912, Note_on_c, 3, 69, 75
5, 23912, Note_on_c, 3, 73, 75
6, 23912, Note_on_c, 4, 65, 75
6, 23912, Note_on_c, 4, 69, 75
5, 23913, Note_on_c, 3, 65, 109
6, 23913, Note_on_c, 4, 61, 109
5, 23920, Note_on_c, 3, 73, 0
6, 23920, Note_on_c, 4, 69, 0
5, 23921, Note_on_c, 3, 65, 0
6, 23921, Note_on_c, 4, 61, 0
5, 23922, Note_on_c, 3, 69, 0
6, 23922, Note_on_c, 4, 65, 0
5, 23931, Note_on_c, 3, 65, 121
5, 23931, Note_on_c, 3, 69, 78
5, 23931, Note_on_c, 3, 73, 78
6, 23931, Note_on_c, 4, 61, 121
6, 23931, Note_on_c, 4, 65, 78
6, 23931, Note_on_c, 4, 69, 78
12, 23931, Note_on_c, 5, 52, 0
5, 23940, Note_on_c, 3, 73, 0
6, 23940, Note_on_c, 4, 69, 0
5, 23941, Note_on_c, 3, 65, 0
5, 23941, Note_on_c, 3, 69, 0
6, 23941, Note_on_c, 4, 61, 0
6, 23941, Note_on_c, 4, 65, 0
5, 23955, Note_on_c, 3, 62, 101
5, 23955, Note_on_c, 3, 70, 124
6, 23955, Note_on_c, 4, 58, 101
6, 23955, Note_on_c, 4, 66, 124
12, 23955, Note_on_c, 5, 46, 119
5, 23956, Note_on_c, 3, 66, 99
6, 23956, Note_on_c, 4, 62, 99
5, 23963, Note_on_c, 3, 70, 0
6, 23963, Note_on_c, 4, 66, 0
5, 23965, Note_on_c, 3, 62, 0
5, 23965, Note_on_c, 3, 66, 0
6, 23965, Note_on_c, 4, 58, 0
6, 23965, Note_on_c, 4, 62, 0
5, 23973, Note_on_c, 3, 66, 65
5, 23973, Note_on_c, 3, 70, 106
6, 23973, Note_on_c, 4, 62, 65
6, 23973, Note_on_c, 4, 66, 106
5, 23975, Note_on_c, 3, 62, 121
6, 23975, Note_on_c, 4, 58, 121
5, 23981, Note_on_c, 3, 66, 0
5, 23981, Note_on_c, 3, 70, 0
6, 23981, Note_on_c, 4, 62, 0
6, 23981, Note_on_c, 4, 66, 0
5, 23983, Note_on_c, 3, 62, 0
6, 23983, Note_on_c, 4, 58, 0
5, 23991, Note_on_c, 3, 66, 75
5, 23991, Note_on_c, 3, 70, 119
6, 23991, Note_on_c, 4, 62, 75
6, 23991, Note_on_c, 4, 66, 119
5, 23993, Note_on_c, 3, 62, 105
6, 23993, Note_on_c, 4, 58, 105
12, 23993, Note_on_c, 5, 46, 0
5, 24002, Note_on_c, 3, 70, 0
6, 24002, Note_on_c, 4, 66, 0
5, 24004, Note_on_c, 3, 62, 0
5, 24004, Note_on_c, 3, 66, 0
6, 24004, Note_on_c, 4, 58, 0
6, 24004, Note_on_c, 4, 62, 0
9, 24007, Note_on_c, 8, 57, 127
9, 24008, Note_on_c, 8, 65, 127
12, 24012, Note_on_c, 5, 52, 119
13, 24012, Note_on_c, 9, 57, 127
11, 24013, Note_on_c, 11, 53, 127
11, 24013, Note_on_c, 11, 61, 119
11, 24015, Note_on_c, 11, 38, 127
11, 24015, Note_on_c, 11, 49, 119
11, 24020, Note_on_c, 11, 25, 127
13, 24028, Note_on_c, 9, 57, 0
11, 24033, Note_on_c, 11, 53, 0
11, 24035, Note_on_c, 11, 61, 0
9, 24039, Note_on_c, 8, 57, 0
11, 24040, Note_on_c, 11, 38, 0
9, 24042, Note_on_c, 8, 65, 0
11, 24043, Note_on_c, 11, 49, 0
12, 24048, Note_on_c, 5, 52, 0
12, 24072, Note_on_c, 5, 46, 99
5, 24073, Note_on_c, 3, 68, 96
5, 24073, Note_on_c, 3, 72, 127
6, 24073, Note_on_c, 4, 64, 96
6, 24073, Note_on_c, 4, 68, 127
5, 24074, Note_on_c, 3, 64, 96
6, 24074, Note_on_c, 4, 60, 96
6, 24081, Note_on_c, 4, 68, 0
5, 24083, Note_on_c, 3, 72, 0
6, 24083, Note_on_c, 4, 64, 0
5, 24084, Note_on_c, 3, 68, 0
6, 24084, Note_on_c, 4, 60, 0
5, 24085, Note_on_c, 3, 64, 0
5, 24095, Note_on_c, 3, 64, 101
5, 24095, Note_on_c, 3, 68, 96
5, 24095, Note_on_c, 3, 72, 95
6, 24095, Note_on_c, 4, 60, 101
6, 24095, Note_on_c, 4, 64, 96
6, 24095, Note_on_c, 4, 68, 95
11, 24096, End_track
11, 24096, Note_on_c, 11, 25, 0
6, 24102, Note_on_c, 4, 68, 0
5, 24103, Note_on_c, 3, 72, 0
6, 24103, Note_on_c, 4, 60, 0
6, 24104, Note_on_c, 4, 64, 0
5, 24105, Note_on_c, 3, 64, 0
5, 24106, Note_on_c, 3, 68, 0
5, 24111, Note_on_c, 3, 68, 96
5, 24111, Note_on_c, 3, 72, 96
6, 24111, Note_on_c, 4, 64, 96
6, 24111, Note_on_c, 4, 68, 96
5, 24112, Note_on_c, 3, 64, 80
6, 24112, Note_on_c, 4, 60, 80
12, 24112, Note_on_c, 5, 46, 0
6, 24120, Note_on_c, 4, 68, 0
6, 24121, Note_on_c, 4, 64, 0
5, 24122, Note_on_c, 3, 72, 0
6, 24122, Note_on_c, 4, 60, 0
5, 24123, Note_on_c, 3, 68, 0
5, 24124, Note_on_c, 3, 64, 0
5, 24134, Note_on_c, 3, 65, 127
5, 24134, Note_on_c, 3, 69, 91
6, 24134, Note_on_c, 4, 61, 127
6, 24134, Note_on_c, 4, 65, 91
12, 24134, Note_on_c, 5, 52, 119
5, 24135, Note_on_c, 3, 73, 94
6, 24135, Note_on_c, 4, 69, 94
6, 24142, Note_on_c, 4, 65, 0
6, 24142, Note_on_c, 4, 69, 0
5, 24144, Note_on_c, 3, 69, 0
5, 24144, Note_on_c, 3, 73, 0
6, 24144, Note_on_c, 4, 61, 0
5, 24145, Note_on_c, 3, 65, 0
5, 24153, Note_on_c, 3, 69, 80
5, 24153, Note_on_c, 3, 73, 86
6, 24153, Note_on_c, 4, 65, 80
6, 24153, Note_on_c, 4, 69, 86
5, 24155, Note_on_c, 3, 65, 109
6, 24155, Note_on_c, 4, 61, 109
6, 24161, Note_on_c, 4, 65, 0
6, 24161, Note_on_c, 4, 69, 0
5, 24163, Note_on_c, 3, 69, 0
5, 24163, Note_on_c, 3, 73, 0
6, 24163, Note_on_c, 4, 61, 0
5, 24164, Note_on_c, 3, 65, 0
5, 24171, Note_on_c, 3, 69, 80
6, 24171, Note_on_c, 4, 65, 80
12, 24171, Note_on_c, 5, 52, 0
5, 24172, Note_on_c, 3, 65, 121
5, 24172, Note_on_c, 3, 73, 96
6, 24172, Note_on_c, 4, 61, 121
6, 24172, Note_on_c, 4, 69, 96
6, 24180, Note_on_c, 4, 69, 0
6, 24181, Note_on_c, 4, 65, 0
5, 24182, Note_on_c, 3, 73, 0
6, 24182, Note_on_c, 4, 61, 0
5, 24183, Note_on_c, 3, 69, 0
5, 24184, Note_on_c, 3, 65, 0
12, 24193, Note_on_c, 5, 46, 119
5, 24196, Note_on_c, 3, 66, 101
5, 24196, Note_on_c, 3, 70, 127
6, 24196, Note_on_c, 4, 62, 101
6, 24196, Note_on_c, 4, 66, 127
5, 24198, Note_on_c, 3, 62, 127
6, 24198, Note_on_c, 4, 58, 127
6, 24204, Note_on_c, 4, 66, 0
5, 24206, Note_on_c, 3, 70, 0
6, 24207, Note_on_c, 4, 62, 0
6, 24208, Note_on_c, 4, 58, 0
5, 24209, Note_on_c, 3, 62, 0
5, 24209, Note_on_c, 3, 66, 0
5, 24215, Note_on_c, 3, 70, 124
6, 24215, Note_on_c, 4, 66, 124
5, 24216, Note_on_c, 3, 62, 101
5, 24216, Note_on_c, 3, 66, 80
6, 24216, Note_on_c, 4, 58, 101
6, 24216, Note_on_c, 4, 62, 80
6, 24223, Note_on_c, 4, 66, 0
5, 24225, Note_on_c, 3, 70, 0
6, 24225, Note_on_c, 4, 62, 0
5, 24227, Note_on_c, 3, 66, 0
6, 24227, Note_on_c, 4, 58, 0
5, 24229, Note_on_c, 3, 62, 0
5, 24233, Note_on_c, 3, 66, 96
5, 24233, Note_on_c, 3, 70, 114
6, 24233, Note_on_c, 4, 62, 96
6, 24233, Note_on_c, 4, 66, 114
5, 24234, Note_on_c, 3, 62, 127
6, 24234, Note_on_c, 4, 58, 127
12, 24235, Note_on_c, 5, 46, 0
6, 24243, Note_on_c, 4, 66, 0
6, 24244, Note_on_c, 4, 58, 0
6, 24245, Note_on_c, 4, 62, 0
5, 24246, Note_on_c, 3, 70, 0
5, 24247, Note_on_c, 3, 62, 0
5, 24248, Note_on_c, 3, 66, 0
12, 24252, Note_on_c, 5, 52, 119
13, 24254, Note_on_c, 9, 57, 127
6, 24256, Note_on_c, 4, 54, 121
10, 24258, Note_on_c, 10, 25, 127
6, 24260, Note_on_c, 4, 42, 117
6, 24260, Note_on_c, 4, 49, 124
5, 24261, Note_on_c, 3, 67, 112
5, 24261, Note_on_c, 3, 72, 119
13, 24261, Note_on_c, 9, 57, 90
5, 24262, Note_on_c, 3, 60, 109
13, 24265, Note_on_c, 9, 57, 0
13, 24267, Note_on_c, 9, 57, 0
12, 24287, Note_on_c, 5, 52, 0
6, 24306, Note_on_c, 4, 54, 0
6, 24310, Note_on_c, 4, 42, 0
6, 24310, Note_on_c, 4, 49, 0
5, 24311, Note_on_c, 3, 67, 0
5, 24311, Note_on_c, 3, 72, 0
12, 24311, Note_on_c, 5, 46, 119
5, 24312, Note_on_c, 3, 60, 0
12, 24351, Note_on_c, 5, 46, 0
12, 24371, Note_on_c, 5, 52, 119
13, 24372, Note_on_c, 9, 57, 127
13, 24375, Note_on_c, 9, 57, 81
5, 24376, Note_on_c, 3, 60, 114
5, 24376, Note_on_c, 3, 67, 127
5, 24378, Note_on_c, 3, 72, 114
13, 24378, Note_on_c, 9, 57, 0
13, 24378, Note_on_c, 9, 57, 0
6, 24380, Note_on_c, 4, 49, 127
6, 24380, Note_on_c, 4, 54, 127
6, 24381, Note_on_c, 4, 42, 106
5, 24401, Note_on_c, 3, 67, 0
5, 24401, Note_on_c, 3, 72, 0
5, 24404, Note_on_c, 3, 60, 0
6, 24406, Note_on_c, 4, 42, 0
6, 24406, Note_on_c, 4, 49, 0
12, 24407, Note_on_c, 5, 52, 0
6, 24408, Note_on_c, 4, 54, 0
12, 24431, Note_on_c, 5, 46, 119
13, 24431, Note_on_c, 9, 57, 127
6, 24436, Note_on_c, 4, 49, 127
6, 24436, Note_on_c, 4, 54, 127
6, 24437, Note_on_c, 4, 42, 106
13, 24438, Note_on_c, 9, 57, 69
5, 24439, Note_on_c, 3, 72, 121
5, 24440, Note_on_c, 3, 67, 105
5, 24441, Note_on_c, 3, 60, 122
13, 24441, Note_on_c, 9, 57, 0
13, 24446, Note_on_c, 9, 57, 0
12, 24471, Note_on_c, 5, 46, 0
6, 24486, Note_on_c, 4, 49, 0
6, 24486, Note_on_c, 4, 54, 0
6, 24487, Note_on_c, 4, 42, 0
5, 24489, Note_on_c, 3, 72, 0
5, 24490, Note_on_c, 3, 67, 0
5, 24491, Note_on_c, 3, 60, 0
12, 24492, Note_on_c, 5, 52, 119
12, 24529, Note_on_c, 5, 52, 0
12, 24550, Note_on_c, 5, 46, 119
13, 24553, Note_on_c, 9, 57, 127
13, 24553, Note_on_c, 9, 57, 81
13, 24554, Note_on_c, 9, 57, 0
5, 24555, Note_on_c, 3, 67, 124
5, 24556, Note_on_c, 3, 72, 127
5, 24557, Note_on_c, 3, 60, 112
6, 24557, Note_on_c, 4, 54, 127
6, 24559, Note_on_c, 4, 49, 127
6, 24560, Note_on_c, 4, 42, 106
13, 24563, Note_on_c, 9, 57, 0
12, 24589, Note_on_c, 5, 46, 0
5, 24605, Note_on_c, 3, 67, 0
5, 24606, Note_on_c, 3, 72, 0
5, 24607, Note_on_c, 3, 60, 0
6, 24607, Note_on_c, 4, 54, 0
6, 24609, Note_on_c, 4, 49, 0
6, 24610, Note_on_c, 4, 42, 0
12, 24612, Note_on_c, 5, 52, 119
12, 24649, Note_on_c, 5, 52, 0
12, 24670, Note_on_c, 5, 46, 119
13, 24671, Note_on_c, 9, 57, 127
5, 24673, Note_on_c, 3, 60, 127
5, 24673, Note_on_c, 3, 67, 127
5, 24673, Note_on_c, 3, 72, 127
6, 24673, Note_on_c, 4, 54, 127
13, 24673, Note_on_c, 9, 57, 76
6, 24674, Note_on_c, 4, 49, 127
13, 24674, Note_on_c, 9, 57, 0
13, 24674, Note_on_c, 9, 57, 0
6, 24676, Note_on_c, 4, 42, 127
10, 24701, Note_on_c, 10, 25, 0
12, 24703, Note_on_c, 5, 46, 0
5, 24723, Note_on_c, 3, 60, 0
5, 24723, Note_on_c, 3, 67, 0
5, 24723, Note_on_c, 3, 72, 0
6, 24723, Note_on_c, 4, 54, 0
6, 24724, Note_on_c, 4, 49, 0
6, 24726, Note_on_c, 4, 42, 0
1, 24730, Tempo, 631579
9, 24730, Note_on_c, 8, 68, 55
10, 24732, Note_on_c, 10, 37, 74
3, 24733, Note_on_c, 0, 81, 57
1, 24735, Tempo, 631579
7, 24735, Note_on_c, 6, 85, 59
9, 24749, Note_on_c, 8, 72, 61
9, 24751, Note_on_c, 8, 68, 0
9, 24767, Note_on_c, 8, 72, 0
9, 24769, Note_on_c, 8, 73, 55
7, 24779, Note_on_c, 6, 85, 0
7, 24780, Note_on_c, 6, 81, 53
9, 24789, Note_on_c, 8, 73, 0
9, 24790, Note_on_c, 8, 77, 55
3, 24797, Note_on_c, 0, 80, 48
3, 24799, Note_on_c, 0, 81, 0
9, 24810, Note_on_c, 8, 73, 55
9, 24816, Note_on_c, 8, 77, 0
7, 24820, Note_on_c, 6, 81, 0
7, 24822, Note_on_c, 6, 77, 40
9, 24829, Note_on_c, 8, 72, 55
9, 24829, Note_on_c, 8, 73, 0
1, 24830, Tempo, 638298
1, 24835, Tempo, 645161
9, 24850, Note_on_c, 8, 68, 55
9, 24850, Note_on_c, 8, 72, 0
3, 24855, Note_on_c, 0, 81, 46
3, 24857, Note_on_c, 0, 80, 0
7, 24859, Note_on_c, 6, 77, 0
7, 24863, Note_on_c, 6, 85, 64
9, 24868, Note_on_c, 8, 68, 0
9, 24870, Note_on_c, 8, 72, 61
9, 24887, Note_on_c, 8, 73, 55
9, 24892, Note_on_c, 8, 72, 0
7, 24901, Note_on_c, 6, 85, 0
7, 24903, Note_on_c, 6, 81, 50
6, 24910, Note_on_c, 4, 68, 62
9, 24910, Note_on_c, 8, 73, 0
9, 24910, Note_on_c, 8, 77, 55
6, 24911, Note_on_c, 4, 65, 86
6, 24914, Note_on_c, 4, 61, 58
3, 24923, Note_on_c, 0, 80, 55
3, 24928, Note_on_c, 0, 81, 0
9, 24928, Note_on_c, 8, 73, 55
1, 24930, Tempo, 652174
9, 24931, Note_on_c, 8, 77, 0
1, 24935, Tempo, 659341
6, 24936, Note_on_c, 4, 68, 0
6, 24937, Note_on_c, 4, 65, 0
6, 24939, Note_on_c, 4, 61, 0
7, 24943, Note_on_c, 6, 77, 56
7, 24943, Note_on_c, 6, 81, 0
9, 24947, Note_on_c, 8, 72, 55
9, 24949, Note_on_c, 8, 73, 0
9, 24966, Note_on_c, 8, 72, 0
9, 24968, Note_on_c, 8, 68, 63
6, 24969, Note_on_c, 4, 65, 68
6, 24970, Note_on_c, 4, 61, 61
6, 24970, Note_on_c, 4, 68, 50
7, 24978, Note_on_c, 6, 77, 0
7, 24981, Note_on_c, 6, 85, 67
3, 24983, Note_on_c, 0, 80, 0
3, 24983, Note_on_c, 0, 81, 53
9, 24983, Note_on_c, 8, 92, 64
9, 24987, Note_on_c, 8, 68, 0
9, 24987, Note_on_c, 8, 72, 61
9, 25007, Note_on_c, 8, 73, 55
9, 25008, Note_on_c, 8, 72, 0
7, 25022, Note_on_c, 6, 81, 59
7, 25022, Note_on_c, 6, 85, 0
1, 25025, Tempo, 674157
9, 25028, Note_on_c, 8, 73, 0
9, 25028, Note_on_c, 8, 77, 55
1, 25030, Tempo, 674157
3, 25040, Note_on_c, 0, 80, 54
3, 25043, Note_on_c, 0, 81, 0
9, 25047, Note_on_c, 8, 73, 55
9, 25048, Note_on_c, 8, 77, 0
7, 25058, Note_on_c, 6, 81, 0
7, 25059, Note_on_c, 6, 77, 69
9, 25065, Note_on_c, 8, 73, 0
9, 25068, Note_on_c, 8, 72, 55
9, 25090, Note_on_c, 8, 68, 55
9, 25092, Note_on_c, 8, 72, 0
7, 25097, Note_on_c, 6, 77, 0
7, 25098, Note_on_c, 6, 85, 71
3, 25103, Note_on_c, 0, 80, 0
3, 25103, Note_on_c, 0, 81, 53
9, 25108, Note_on_c, 8, 72, 55
9, 25111, Note_on_c, 8, 68, 0
1, 25115, Tempo, 689655
1, 25120, Tempo, 689655
9, 25127, Note_on_c, 8, 73, 55
6, 25128, Note_on_c, 4, 61, 0
6, 25128, Note_on_c, 4, 68, 0
6, 25129, Note_on_c, 4, 65, 0
9, 25133, Note_on_c, 8, 72, 0
7, 25140, Note_on_c, 6, 81, 64
7, 25142, Note_on_c, 6, 85, 0
6, 25146, Note_on_c, 4, 65, 119
9, 25146, Note_on_c, 8, 73, 0
6, 25148, Note_on_c, 4, 68, 76
9, 25148, Note_on_c, 8, 77, 55
6, 25150, Note_on_c, 4, 61, 83
3, 25161, Note_on_c, 0, 77, 56
6, 25166, Note_on_c, 4, 68, 0
9, 25167, Note_on_c, 8, 73, 55
3, 25168, Note_on_c, 0, 81, 0
6, 25168, Note_on_c, 4, 61, 0
6, 25169, Note_on_c, 4, 65, 0
9, 25174, Note_on_c, 8, 77, 0
7, 25177, Note_on_c, 6, 81, 0
7, 25178, Note_on_c, 6, 77, 64
9, 25187, Note_on_c, 8, 72, 55
9, 25191, Note_on_c, 8, 73, 0
1, 25200, Tempo, 697674
1, 25205, Tempo, 705882
9, 25207, Note_on_c, 8, 72, 0
9, 25210, Note_on_c, 8, 68, 55
6, 25213, Note_on_c, 4, 65, 88
9, 25215, Note_on_c, 8, 89, 64
6, 25216, Note_on_c, 4, 69, 95
7, 25219, Note_on_c, 6, 77, 0
7, 25220, Note_on_c, 6, 85, 75
6, 25221, Note_on_c, 4, 61, 74
3, 25226, Note_on_c, 0, 77, 0
3, 25226, Note_on_c, 0, 80, 56
9, 25229, Note_on_c, 8, 69, 61
9, 25231, Note_on_c, 8, 68, 0
9, 25236, Note_on_c, 8, 92, 0
9, 25247, Note_on_c, 8, 69, 0
9, 25249, Note_on_c, 8, 73, 55
6, 25250, Note_on_c, 4, 69, 0
6, 25254, Note_on_c, 4, 61, 0
6, 25254, Note_on_c, 4, 65, 0
7, 25258, Note_on_c, 6, 81, 62
7, 25258, Note_on_c, 6, 85, 0
9, 25269, Note_on_c, 8, 73, 0
9, 25270, Note_on_c, 8, 77, 55
1, 25280, Tempo, 705882
3, 25284, Note_on_c, 0, 77, 48
3, 25284, Note_on_c, 0, 80, 0
1, 25285, Tempo, 714286
9, 25290, Note_on_c, 8, 73, 55
7, 25294, Note_on_c, 6, 81, 0
6, 25295, Note_on_c, 4, 61, 109
6, 25295, Note_on_c, 4, 65, 114
7, 25295, Note_on_c, 6, 77, 67
6, 25296, Note_on_c, 4, 69, 100
9, 25296, Note_on_c, 8, 77, 0
6, 25306, Note_on_c, 4, 69, 0
6, 25308, Note_on_c, 4, 65, 0
9, 25309, Note_on_c, 8, 69, 55
9, 25309, Note_on_c, 8, 73, 0
6, 25312, Note_on_c, 4, 61, 0
6, 25328, Note_on_c, 4, 68, 82
6, 25329, Note_on_c, 4, 61, 62
6, 25330, Note_on_c, 4, 65, 97
9, 25330, Note_on_c, 8, 68, 55
9, 25330, Note_on_c, 8, 69, 0
7, 25333, Note_on_c, 6, 77, 0
7, 25336, Note_on_c, 6, 85, 68
3, 25343, Note_on_c, 0, 80, 59
3, 25344, Note_on_c, 0, 77, 0
9, 25348, Note_on_c, 8, 68, 0
9, 25350, Note_on_c, 8, 69, 61
1, 25360, Tempo, 722892
1, 25365, Tempo, 731707
9, 25367, Note_on_c, 8, 73, 55
9, 25372, Note_on_c, 8, 69, 0
7, 25373, Note_on_c, 6, 81, 69
7, 25376, Note_on_c, 6, 85, 0
9, 25390, Note_on_c, 8, 73, 0
9, 25390, Note_on_c, 8, 77, 55
3, 25401, Note_on_c, 0, 80, 0
3, 25403, Note_on_c, 0, 77, 56
9, 25408, Note_on_c, 8, 73, 55
9, 25411, Note_on_c, 8, 77, 0
7, 25413, Note_on_c, 6, 81, 0
7, 25414, Note_on_c, 6, 77, 71
9, 25427, Note_on_c, 8, 69, 55
9, 25429, Note_on_c, 8, 73, 0
1, 25435, Tempo, 740741
1, 25440, Tempo, 750000
9, 25442, Note_on_c, 8, 91, 64
9, 25444, Note_on_c, 8, 89, 0
9, 25446, Note_on_c, 8, 69, 0
9, 25448, Note_on_c, 8, 68, 63
7, 25451, Note_on_c, 6, 77, 0
7, 25453, Note_on_c, 6, 85, 73
3, 25465, Note_on_c, 0, 77, 0
3, 25465, Note_on_c, 0, 80, 67
9, 25467, Note_on_c, 8, 68, 0
9, 25467, Note_on_c, 8, 69, 61
9, 25487, Note_on_c, 8, 73, 55
9, 25488, Note_on_c, 8, 69, 0
7, 25491, Note_on_c, 6, 81, 84
7, 25491, Note_on_c, 6, 85, 0
1, 25505, Tempo, 750000
9, 25508, Note_on_c, 8, 73, 0
9, 25508, Note_on_c, 8, 77, 55
1, 25510, Tempo, 759494
3, 25521, Note_on_c, 0, 80, 0
3, 25522, Note_on_c, 0, 77, 53
9, 25527, Note_on_c, 8, 73, 55
9, 25528, Note_on_c, 8, 77, 0
7, 25529, Note_on_c, 6, 81, 0
7, 25530, Note_on_c, 6, 77, 75
9, 25545, Note_on_c, 8, 73, 0
9, 25548, Note_on_c, 8, 69, 55
7, 25570, Note_on_c, 6, 81, 69
9, 25570, Note_on_c, 8, 68, 55
7, 25572, Note_on_c, 6, 77, 0
9, 25572, Note_on_c, 8, 69, 0
1, 25575, Tempo, 769231
1, 25580, Tempo, 779221
3, 25584, Note_on_c, 0, 80, 59
3, 25585, Note_on_c, 0, 77, 0
9, 25588, Note_on_c, 8, 69, 55
9, 25591, Note_on_c, 8, 68, 0
9, 25607, Note_on_c, 8, 73, 55
7, 25611, Note_on_c, 6, 77, 69
7, 25613, Note_on_c, 6, 81, 0
9, 25613, Note_on_c, 8, 69, 0
9, 25626, Note_on_c, 8, 73, 0
9, 25628, Note_on_c, 8, 77, 55
1, 25645, Tempo, 789474
3, 25645, Note_on_c, 0, 80, 0
3, 25646, Note_on_c, 0, 77, 48
9, 25647, Note_on_c, 8, 73, 55
1, 25650, Tempo, 789474
7, 25650, Note_on_c, 6, 73, 75
7, 25651, Note_on_c, 6, 77, 0
9, 25654, Note_on_c, 8, 77, 0
9, 25667, Note_on_c, 8, 69, 55
9, 25671, Note_on_c, 8, 73, 0
9, 25674, Note_on_c, 8, 91, 0
9, 25687, Note_on_c, 8, 69, 0
9, 25689, Note_on_c, 8, 77, 55
9, 25689, Note_on_c, 8, 88, 64
7, 25695, Note_on_c, 6, 81, 75
7, 25696, Note_on_c, 6, 73, 0
1, 25705, Tempo, 800000
3, 25709, Note_on_c, 0, 77, 0
9, 25709, Note_on_c, 8, 73, 55
1, 25710, Tempo, 810811
3, 25710, Note_on_c, 0, 80, 59
6, 25716, Note_on_c, 4, 65, 0
9, 25717, Note_on_c, 8, 77, 0
9, 25728, Note_on_c, 8, 69, 55
9, 25730, Note_on_c, 8, 73, 0
7, 25735, Note_on_c, 6, 77, 69
7, 25737, Note_on_c, 6, 81, 0
9, 25745, Note_on_c, 8, 69, 0
9, 25750, Note_on_c, 8, 73, 55
6, 25758, Note_on_c, 4, 68, 0
3, 25763, Note_on_c, 0, 80, 0
6, 25763, Note_on_c, 4, 61, 0
3, 25765, Note_on_c, 0, 77, 45
1, 25770, Tempo, 821918
7, 25770, Note_on_c, 6, 73, 65
9, 25770, Note_on_c, 8, 69, 61
7, 25772, Note_on_c, 6, 77, 0
1, 25775, Tempo, 821918
9, 25778, Note_on_c, 8, 73, 0
9, 25790, Note_on_c, 8, 65, 55
9, 25790, Note_on_c, 8, 69, 0
7, 25811, Note_on_c, 6, 77, 65
9, 25811, Note_on_c, 8, 73, 55
9, 25815, Note_on_c, 8, 65, 0
7, 25817, Note_on_c, 6, 73, 0
3, 25825, Note_on_c, 0, 77, 0
3, 25825, Note_on_c, 0, 81, 56
1, 25830, Tempo, 845070
9, 25831, Note_on_c, 8, 69, 55
1, 25835, Tempo, 845070
9, 25839, Note_on_c, 8, 73, 0
9, 25849, Note_on_c, 8, 69, 0
7, 25850, Note_on_c, 6, 73, 69
7, 25851, Note_on_c, 6, 77, 0
9, 25851, Note_on_c, 8, 65, 55
9, 25873, Note_on_c, 8, 69, 68
9, 25874, Note_on_c, 8, 65, 0
3, 25884, Note_on_c, 0, 81, 0
1, 25885, Tempo, 845070
3, 25885, Note_on_c, 0, 77, 53
7, 25889, Note_on_c, 6, 69, 65
1, 25890, Tempo, 857143
7, 25891, Note_on_c, 6, 73, 0
9, 25900, Note_on_c, 8, 65, 55
9, 25900, Note_on_c, 8, 69, 0
9, 25928, Note_on_c, 8, 65, 0
9, 25929, Note_on_c, 8, 73, 55
1, 25930, Tempo, 535714
1, 25935, Tempo, 454545
7, 25941, Note_on_c, 6, 64, 43
7, 25944, Note_on_c, 6, 69, 0
3, 25946, End_track
3, 25946, Note_on_c, 0, 77, 0
9, 25957, Note_on_c, 8, 73, 0
7, 25994, Note_on_c, 6, 64, 0
7, 25997, Note_on_c, 6, 69, 80
9, 26007, Note_on_c, 8, 71, 55
7, 26040, Note_on_c, 6, 71, 96
7, 26052, Note_on_c, 6, 69, 0
7, 26070, Note_on_c, 6, 76, 73
9, 26084, Note_on_c, 8, 71, 0
7, 26087, Note_on_c, 6, 71, 0
9, 26097, Note_on_c, 8, 64, 55
7, 26101, Note_on_c, 6, 76, 0
7, 26105, Note_on_c, 6, 83, 81
10, 26111, Note_on_c, 10, 38, 55
10, 26122, Note_on_c, 10, 37, 0
7, 26136, Note_on_c, 6, 84, 66
10, 26152, Note_on_c, 10, 39, 57
7, 26164, Note_on_c, 6, 83, 0
10, 26164, Note_on_c, 10, 38, 0
7, 26170, Note_on_c, 6, 88, 72
9, 26173, Note_on_c, 8, 72, 74
10, 26173, Note_on_c, 10, 40, 55
9, 26184, Note_on_c, 8, 64, 0
10, 26184, Note_on_c, 10, 39, 0
7, 26186, Note_on_c, 6, 84, 0
7, 26231, Note_on_c, 6, 88, 0
9, 26249, Note_on_c, 8, 72, 0
9, 26252, Note_on_c, 8, 71, 55
9, 26340, Note_on_c, 8, 71, 0
9, 26345, Note_on_c, 8, 64, 55
9, 26410, Note_on_c, 8, 72, 69
4, 26432, Note_on_c, 2, 52, 88
9, 26437, Note_on_c, 8, 64, 0
9, 26482, Note_on_c, 8, 72, 0
9, 26488, Note_on_c, 8, 71, 59
9, 26551, Note_on_c, 8, 60, 55
9, 26573, Note_on_c, 8, 71, 0
9, 26579, Note_on_c, 8, 64, 55
9, 26648, Note_on_c, 8, 72, 77
9, 26650, Note_on_c, 8, 64, 0
9, 26667, Note_on_c, 8, 60, 0
4, 26668, Note_on_c, 2, 57, 99
4, 26674, Note_on_c, 2, 52, 0
9, 26701, Note_on_c, 8, 71, 59
9, 26731, Note_on_c, 8, 72, 0
9, 26765, Note_on_c, 8, 71, 0
9, 26766, Note_on_c, 8, 69, 63
9, 26790, Note_on_c, 8, 60, 56
9, 26825, Note_on_c, 8, 64, 63
9, 26838, Note_on_c, 8, 69, 0
9, 26889, Note_on_c, 8, 72, 69
9, 26901, Note_on_c, 8, 64, 0
9, 26905, Note_on_c, 8, 60, 0
9, 26952, Note_on_c, 8, 71, 55
9, 26975, Note_on_c, 8, 72, 0
9, 27009, Note_on_c, 8, 60, 63
9, 27010, Note_on_c, 8, 69, 55
9, 27010, Note_on_c, 8, 71, 0
9, 27073, Note_on_c, 8, 64, 63
9, 27088, Note_on_c, 8, 69, 0
4, 27128, Note_on_c, 2, 59, 112
4, 27132, Note_on_c, 2, 57, 0
9, 27133, Note_on_c, 8, 72, 74
9, 27139, Note_on_c, 8, 60, 0
9, 27145, Note_on_c, 8, 64, 0
9, 27174, Note_on_c, 8, 88, 0
9, 27192, Note_on_c, 8, 71, 59
9, 27209, Note_on_c, 8, 72, 0
9, 27246, Note_on_c, 8, 71, 0
9, 27247, Note_on_c, 8, 69, 63
9, 27255, Note_on_c, 8, 60, 69
9, 27308, Note_on_c, 8, 64, 69
9, 27326, Note_on_c, 8, 69, 0
9, 27370, Note_on_c, 8, 72, 77
4, 27377, Note_on_c, 2, 64, 76
9, 27380, Note_on_c, 8, 60, 0
9, 27387, Note_on_c, 8, 64, 0
9, 27428, Note_on_c, 8, 71, 55
9, 27450, Note_on_c, 8, 72, 0
9, 27483, Note_on_c, 8, 71, 0
9, 27486, Note_on_c, 8, 69, 55
9, 27493, Note_on_c, 8, 60, 63
4, 27501, Note_on_c, 2, 60, 99
4, 27508, Note_on_c, 2, 59, 0
9, 27545, Note_on_c, 8, 64, 74
4, 27550, Note_on_c, 2, 62, 88
4, 27551, Note_on_c, 2, 60, 0
9, 27562, Note_on_c, 8, 69, 0
4, 27605, Note_on_c, 2, 60, 99
4, 27607, Note_on_c, 2, 62, 0
9, 27607, Note_on_c, 8, 72, 77
9, 27615, Note_on_c, 8, 64, 0
9, 27616, Note_on_c, 8, 60, 0
4, 27623, Note_on_c, 2, 69, 85
4, 27634, Note_on_c, 2, 64, 0
9, 27668, Note_on_c, 8, 71, 59
9, 27683, Note_on_c, 8, 72, 0
9, 27725, Note_on_c, 8, 69, 55
9, 27731, Note_on_c, 8, 60, 55
9, 27732, Note_on_c, 8, 71, 0
9, 27788, Note_on_c, 8, 64, 63
9, 27810, Note_on_c, 8, 69, 0
9, 27848, Note_on_c, 8, 72, 77
10, 27848, Note_on_c, 10, 57, 63
9, 27857, Note_on_c, 8, 60, 0
9, 27862, Note_on_c, 8, 64, 0
9, 27908, Note_on_c, 8, 71, 59
9, 27921, Note_on_c, 8, 72, 0
9, 27965, Note_on_c, 8, 69, 63
9, 27966, Note_on_c, 8, 71, 0
9, 27970, Note_on_c, 8, 60, 55
9, 28027, Note_on_c, 8, 64, 63
10, 28031, Note_on_c, 10, 57, 0
9, 28044, Note_on_c, 8, 69, 0
9, 28088, Note_on_c, 8, 72, 69
10, 28088, Note_on_c, 10, 57, 55
4, 28089, Note_on_c, 2, 71, 72
9, 28093, Note_on_c, 8, 64, 0
9, 28099, Note_on_c, 8, 60, 0
4, 28102, Note_on_c, 2, 69, 0
9, 28148, Note_on_c, 8, 71, 55
9, 28163, Note_on_c, 8, 72, 0
9, 28196, Note_on_c, 8, 60, 55
9, 28205, Note_on_c, 8, 69, 55
9, 28209, Note_on_c, 8, 71, 0
9, 28266, Note_on_c, 8, 64, 59
10, 28274, Note_on_c, 10, 57, 0
4, 28276, Note_on_c, 2, 60, 0
9, 28279, Note_on_c, 8, 69, 0
9, 28327, Note_on_c, 8, 72, 69
4, 28331, Note_on_c, 2, 52, 127
10, 28332, Note_on_c, 10, 57, 55
9, 28336, Note_on_c, 8, 60, 0
9, 28337, Note_on_c, 8, 64, 0
10, 28339, Note_on_c, 10, 40, 0
9, 28388, Note_on_c, 8, 71, 59
9, 28405, Note_on_c, 8, 72, 0
9, 28441, Note_on_c, 8, 60, 55
9, 28448, Note_on_c, 8, 69, 55
9, 28449, Note_on_c, 8, 71, 0
4, 28464, Note_on_c, 2, 72, 68
4, 28470, Note_on_c, 2, 71, 0
10, 28495, Note_on_c, 10, 57, 0
9, 28509, Note_on_c, 8, 64, 59
4, 28519, Note_on_c, 2, 72, 0
9, 28524, Note_on_c, 8, 69, 0
4, 28526, Note_on_c, 2, 74, 83
4, 28555, Note_on_c, 2, 57, 108
4, 28556, Note_on_c, 2, 52, 0
9, 28562, Note_on_c, 8, 60, 0
10, 28566, Note_on_c, 10, 48, 84
9, 28569, Note_on_c, 8, 72, 74
10, 28574, Note_on_c, 10, 57, 55
9, 28577, Note_on_c, 8, 64, 0
4, 28601, Note_on_c, 2, 74, 0
4, 28602, Note_on_c, 2, 72, 67
9, 28628, Note_on_c, 8, 71, 63
9, 28644, Note_on_c, 8, 72, 0
9, 28681, Note_on_c, 8, 60, 63
9, 28685, Note_on_c, 8, 69, 59
9, 28686, Note_on_c, 8, 71, 0
10, 28739, Note_on_c, 10, 57, 0
9, 28745, Note_on_c, 8, 64, 63
9, 28761, Note_on_c, 8, 69, 0
9, 28807, Note_on_c, 8, 72, 69
10, 28813, Note_on_c, 10, 57, 69
9, 28817, Note_on_c, 8, 64, 0
9, 28867, Note_on_c, 8, 71, 59
9, 28893, Note_on_c, 8, 72, 0
10, 28917, Note_on_c, 10, 47, 84
9, 28920, Note_on_c, 8, 62, 85
10, 28922, Note_on_c, 10, 48, 0
9, 28925, Note_on_c, 8, 60, 0
9, 28925, Note_on_c, 8, 71, 0
4, 28926, Note_on_c, 2, 59, 87
9, 28926, Note_on_c, 8, 69, 55
4, 28935, Note_on_c, 2, 57, 0
4, 28937, Note_on_c, 2, 72, 0
4, 28941, Note_on_c, 2, 71, 73
10, 28985, Note_on_c, 10, 57, 0
9, 28986, Note_on_c, 8, 64, 55
9, 29001, Note_on_c, 8, 69, 0
9, 29048, Note_on_c, 8, 72, 74
9, 29050, Note_on_c, 8, 64, 61
9, 29051, Note_on_c, 8, 64, 0
10, 29052, Note_on_c, 10, 57, 63
9, 29055, Note_on_c, 8, 62, 0
10, 29055, Note_on_c, 10, 45, 84
10, 29056, Note_on_c, 10, 47, 0
4, 29058, Note_on_c, 2, 60, 100
4, 29062, Note_on_c, 2, 59, 0
4, 29065, Note_on_c, 2, 71, 0
4, 29066, Note_on_c, 2, 69, 63
9, 29107, Note_on_c, 8, 71, 59
9, 29113, Note_on_c, 8, 64, 0
9, 29113, Note_on_c, 8, 72, 0
9, 29165, Note_on_c, 8, 69, 55
4, 29170, Note_on_c, 2, 52, 100
4, 29170, Note_on_c, 2, 60, 0
9, 29170, Note_on_c, 8, 52, 77
9, 29175, Note_on_c, 8, 71, 0
10, 29197, Note_on_c, 10, 57, 0
9, 29225, Note_on_c, 8, 64, 74
9, 29245, Note_on_c, 8, 69, 0
9, 29286, Note_on_c, 8, 72, 69
10, 29286, Note_on_c, 10, 57, 59
4, 29297, Note_on_c, 2, 60, 87
4, 29298, Note_on_c, 2, 52, 0
9, 29298, Note_on_c, 8, 64, 0
4, 29302, Note_on_c, 2, 67, 39
4, 29319, Note_on_c, 2, 69, 0
9, 29346, Note_on_c, 8, 71, 63
9, 29361, Note_on_c, 8, 72, 0
4, 29375, Note_on_c, 2, 57, 100
4, 29380, Note_on_c, 2, 60, 0
9, 29404, Note_on_c, 8, 71, 0
9, 29405, Note_on_c, 8, 69, 55
9, 29411, Note_on_c, 8, 52, 0
9, 29411, Note_on_c, 8, 55, 77
10, 29417, Note_on_c, 10, 43, 88
10, 29426, Note_on_c, 10, 45, 0
4, 29456, Note_on_c, 2, 57, 0
4, 29456, Note_on_c, 2, 64, 100
9, 29462, Note_on_c, 8, 64, 69
10, 29464, Note_on_c, 10, 57, 0
9, 29476, Note_on_c, 8, 69, 0
9, 29528, Note_on_c, 8, 74, 69
10, 29530, Note_on_c, 10, 57, 59
4, 29531, Note_on_c, 2, 62, 113
9, 29531, Note_on_c, 8, 55, 0
10, 29533, Note_on_c, 10, 42, 84
9, 29535, Note_on_c, 8, 57, 77
4, 29536, Note_on_c, 2, 64, 0
10, 29537, Note_on_c, 10, 43, 0
4, 29538, Note_on_c, 2, 67, 0
4, 29540, Note_on_c, 2, 66, 39
9, 29540, Note_on_c, 8, 64, 0
9, 29586, Note_on_c, 8, 70, 59
9, 29603, Note_on_c, 8, 74, 0
9, 29645, Note_on_c, 8, 69, 55
13, 29655, Note_on_c, 9, 38, 66
9, 29665, Note_on_c, 8, 70, 0
13, 29667, Note_on_c, 9, 38, 0
13, 29695, Note_on_c, 9, 38, 66
13, 29703, Note_on_c, 9, 38, 0
9, 29708, Note_on_c, 8, 66, 55
10, 29710, Note_on_c, 10, 57, 0
9, 29723, Note_on_c, 8, 69, 0
13, 29732, Note_on_c, 9, 38, 56
13, 29742, Note_on_c, 9, 38, 0
9, 29765, Note_on_c, 8, 66, 0
9, 29768, Note_on_c, 8, 74, 74
10, 29773, Note_on_c, 10, 57, 55
13, 29775, Note_on_c, 9, 38, 84
13, 29798, Note_on_c, 9, 38, 0
9, 29828, Note_on_c, 8, 70, 63
9, 29836, Note_on_c, 8, 74, 0
9, 29888, Note_on_c, 8, 69, 63
9, 29889, Note_on_c, 8, 70, 0
12, 29893, Note_on_c, 5, 45, 79
13, 29901, Note_on_c, 9, 38, 56
13, 29911, Note_on_c, 9, 38, 0
12, 29918, Note_on_c, 5, 45, 0
10, 29941, Note_on_c, 10, 57, 0
13, 29941, Note_on_c, 9, 38, 40
9, 29946, Note_on_c, 8, 66, 55
13, 29950, Note_on_c, 9, 38, 0
12, 29953, Note_on_c, 5, 45, 96
9, 29954, Note_on_c, 8, 69, 0
13, 29970, Note_on_c, 9, 38, 58
12, 29978, Note_on_c, 5, 45, 0
13, 29980, Note_on_c, 9, 38, 0
9, 30008, Note_on_c, 8, 74, 69
9, 30009, Note_on_c, 8, 66, 0
12, 30011, Note_on_c, 5, 45, 102
10, 30014, Note_on_c, 10, 57, 55
13, 30015, Note_on_c, 9, 59, 58
6, 30017, Note_on_c, 4, 62, 117
13, 30021, Note_on_c, 9, 38, 61
13, 30023, Note_on_c, 9, 59, 0
13, 30031, Note_on_c, 9, 38, 0
12, 30037, Note_on_c, 5, 45, 0
9, 30068, Note_on_c, 8, 70, 55
9, 30080, Note_on_c, 8, 74, 0
4, 30101, Note_on_c, 2, 66, 0
6, 30122, Note_on_c, 4, 62, 0
9, 30128, Note_on_c, 8, 69, 69
12, 30134, Note_on_c, 5, 45, 73
9, 30139, Note_on_c, 8, 70, 0
12, 30159, Note_on_c, 5, 45, 0
10, 30169, Note_on_c, 10, 57, 0
9, 30187, Note_on_c, 8, 66, 59
9, 30188, Note_on_c, 8, 69, 0
9, 30248, Note_on_c, 8, 74, 63
6, 30253, Note_on_c, 4, 69, 114
10, 30255, Note_on_c, 10, 57, 55
12, 30256, Note_on_c, 5, 45, 76
9, 30258, Note_on_c, 8, 66, 0
12, 30278, Note_on_c, 5, 45, 0
9, 30308, Note_on_c, 8, 70, 55
9, 30326, Note_on_c, 8, 74, 0
9, 30368, Note_on_c, 8, 69, 59
9, 30390, Note_on_c, 8, 70, 0
6, 30413, Note_on_c, 4, 69, 0
10, 30423, Note_on_c, 10, 57, 0
9, 30427, Note_on_c, 8, 66, 59
9, 30432, Note_on_c, 8, 69, 0
9, 30488, Note_on_c, 8, 74, 55
6, 30491, Note_on_c, 4, 67, 117
10, 30491, Note_on_c, 10, 38, 88
10, 30493, Note_on_c, 10, 42, 0
10, 30495, Note_on_c, 10, 57, 55
9, 30517, Note_on_c, 8, 66, 0
4, 30528, Note_on_c, 2, 62, 0
9, 30548, Note_on_c, 8, 70, 55
6, 30551, Note_on_c, 4, 67, 0
9, 30563, Note_on_c, 8, 74, 0
6, 30580, Note_on_c, 4, 66, 110
9, 30609, Note_on_c, 8, 69, 55
6, 30611, Note_on_c, 4, 66, 0
9, 30624, Note_on_c, 8, 70, 0
6, 30657, Note_on_c, 4, 64, 112
9, 30668, Note_on_c, 8, 66, 63
9, 30670, Note_on_c, 8, 69, 0
10, 30671, Note_on_c, 10, 57, 0
6, 30688, Note_on_c, 4, 64, 0
9, 30728, Note_on_c, 8, 74, 69
6, 30733, Note_on_c, 4, 74, 117
10, 30735, Note_on_c, 10, 44, 84
10, 30735, Note_on_c, 10, 57, 55
9, 30741, Note_on_c, 8, 66, 0
10, 30741, Note_on_c, 10, 38, 0
9, 30788, Note_on_c, 8, 70, 59
9, 30809, Note_on_c, 8, 74, 0
9, 30845, Note_on_c, 8, 70, 0
9, 30849, Note_on_c, 8, 69, 55
10, 30861, Note_on_c, 10, 57, 0
13, 30864, Note_on_c, 9, 38, 43
13, 30877, Note_on_c, 9, 38, 0
13, 30898, Note_on_c, 9, 38, 8
13, 30906, Note_on_c, 9, 38, 0
9, 30908, Note_on_c, 8, 66, 59
9, 30914, Note_on_c, 8, 69, 0
13, 30915, Note_on_c, 9, 38, 48
13, 30926, Note_on_c, 9, 38, 0
6, 30931, Note_on_c, 4, 74, 0
13, 30945, Note_on_c, 9, 38, 54
13, 30955, Note_on_c, 9, 38, 0
9, 30956, Note_on_c, 8, 66, 0
9, 30970, Note_on_c, 8, 74, 55
6, 30971, Note_on_c, 4, 69, 113
13, 30972, Note_on_c, 9, 38, 106
10, 30978, Note_on_c, 10, 42, 76
10, 30980, Note_on_c, 10, 44, 0
10, 30983, Note_on_c, 10, 57, 63
13, 30988, Note_on_c, 9, 38, 0
9, 31032, Note_on_c, 8, 70, 55
9, 31042, Note_on_c, 8, 74, 0
9, 31092, Note_on_c, 8, 69, 69
13, 31096, Note_on_c, 9, 38, 49
10, 31111, Note_on_c, 10, 57, 0
13, 31111, Note_on_c, 9, 38, 0
9, 31118, Note_on_c, 8, 70, 0
13, 31138, Note_on_c, 9, 38, 49
13, 31146, Note_on_c, 9, 38, 0
9, 31152, Note_on_c, 8, 62, 59
9, 31167, Note_on_c, 8, 69, 0
13, 31172, Note_on_c, 9, 38, 67
13, 31188, Note_on_c, 9, 38, 0
9, 31212, Note_on_c, 8, 74, 59
4, 31215, Note_on_c, 2, 69, 121
13, 31215, Note_on_c, 9, 38, 98
10, 31216, Note_on_c, 10, 57, 72
5, 31228, Note_on_c, 3, 74, 97
9, 31230, Note_on_c, 8, 62, 0
13, 31260, Note_on_c, 9, 38, 0
9, 31272, Note_on_c, 8, 70, 63
5, 31276, Note_on_c, 3, 74, 0
9, 31292, Note_on_c, 8, 74, 0
4, 31310, Note_on_c, 2, 69, 0
10, 31330, Note_on_c, 10, 57, 0
9, 31332, Note_on_c, 8, 69, 63
9, 31345, Note_on_c, 8, 70, 0
5, 31348, Note_on_c, 3, 81, 95
5, 31388, Note_on_c, 3, 81, 0
9, 31388, Note_on_c, 8, 62, 59
9, 31388, Note_on_c, 8, 69, 0
4, 31400, Note_on_c, 2, 69, 86
4, 31428, Note_on_c, 2, 69, 0
9, 31449, Note_on_c, 8, 74, 74
10, 31452, Note_on_c, 10, 57, 55
4, 31456, Note_on_c, 2, 69, 114
5, 31459, Note_on_c, 3, 79, 81
9, 31463, Note_on_c, 8, 62, 0
5, 31487, Note_on_c, 3, 79, 0
5, 31501, Note_on_c, 3, 78, 73
9, 31511, Note_on_c, 8, 70, 63
9, 31525, Note_on_c, 8, 74, 0
5, 31530, Note_on_c, 3, 78, 0
5, 31538, Note_on_c, 3, 76, 84
5, 31563, Note_on_c, 3, 76, 0
9, 31568, Note_on_c, 8, 69, 63
10, 31570, Note_on_c, 10, 57, 0
9, 31575, Note_on_c, 8, 70, 0
5, 31580, Note_on_c, 3, 86, 107
6, 31581, Note_on_c, 4, 69, 0
5, 31627, Note_on_c, 3, 86, 0
9, 31627, Note_on_c, 8, 62, 55
13, 31640, Note_on_c, 9, 38, 58
13, 31648, Note_on_c, 9, 38, 0
9, 31650, Note_on_c, 8, 69, 0
13, 31658, Note_on_c, 9, 38, 57
13, 31666, Note_on_c, 9, 38, 0
13, 31677, Note_on_c, 9, 38, 77
13, 31685, Note_on_c, 9, 38, 0
9, 31688, Note_on_c, 8, 74, 63
10, 31688, Note_on_c, 10, 57, 55
13, 31698, Note_on_c, 9, 38, 99
9, 31703, Note_on_c, 8, 62, 0
5, 31710, Note_on_c, 3, 81, 88
9, 31746, Note_on_c, 8, 70, 55
13, 31749, Note_on_c, 9, 38, 0
9, 31775, Note_on_c, 8, 74, 0
9, 31807, Note_on_c, 8, 69, 59
12, 31809, Note_on_c, 5, 45, 73
10, 31816, Note_on_c, 10, 57, 0
13, 31821, Note_on_c, 9, 38, 72
9, 31822, Note_on_c, 8, 70, 0
12, 31833, Note_on_c, 5, 45, 0
13, 31837, Note_on_c, 9, 38, 0
12, 31867, Note_on_c, 5, 45, 79
9, 31868, Note_on_c, 8, 62, 55
9, 31877, Note_on_c, 8, 69, 0
9, 31878, Note_on_c, 8, 57, 0
13, 31881, Note_on_c, 9, 38, 71
12, 31890, Note_on_c, 5, 45, 0
13, 31894, Note_on_c, 9, 38, 0
9, 31909, Note_on_c, 8, 62, 0
10, 31911, Note_on_c, 10, 38, 108
10, 31912, Note_on_c, 10, 42, 0
9, 31928, Note_on_c, 8, 77, 59
12, 31930, Note_on_c, 5, 45, 85
10, 31931, Note_on_c, 10, 58, 55
9, 31940, Note_on_c, 8, 57, 55
13, 31940, Note_on_c, 9, 38, 98
12, 31961, Note_on_c, 5, 45, 0
4, 31964, Note_on_c, 2, 69, 0
9, 31988, Note_on_c, 8, 70, 63
13, 31989, Note_on_c, 9, 38, 0
9, 31994, Note_on_c, 8, 77, 0
5, 32006, Note_on_c, 3, 81, 0
9, 32046, Note_on_c, 8, 70, 0
12, 32052, Note_on_c, 5, 45, 85
9, 32053, Note_on_c, 8, 66, 55
13, 32060, Note_on_c, 9, 38, 52
13, 32069, Note_on_c, 9, 38, 0
12, 32078, Note_on_c, 5, 45, 0
9, 32087, Note_on_c, 8, 57, 0
9, 32098, Note_on_c, 8, 66, 0
9, 32101, Note_on_c, 8, 65, 59
13, 32112, Note_on_c, 9, 38, 79
13, 32133, Note_on_c, 9, 38, 0
4, 32166, Note_on_c, 2, 65, 91
9, 32167, Note_on_c, 8, 77, 63
9, 32172, Note_on_c, 8, 65, 0
9, 32173, Note_on_c, 8, 57, 69
13, 32173, Note_on_c, 9, 38, 89
12, 32174, Note_on_c, 5, 45, 71
13, 32185, Note_on_c, 9, 38, 0
12, 32209, Note_on_c, 5, 45, 0
9, 32227, Note_on_c, 8, 70, 63
9, 32233, Note_on_c, 8, 77, 0
9, 32283, Note_on_c, 8, 66, 55
9, 32286, Note_on_c, 8, 70, 0
5, 32288, Note_on_c, 3, 67, 117
13, 32298, Note_on_c, 9, 38, 49
5, 32299, Note_on_c, 3, 67, 0
13, 32306, Note_on_c, 9, 38, 0
9, 32315, Note_on_c, 8, 57, 0
4, 32319, Note_on_c, 2, 65, 0
5, 32322, Note_on_c, 3, 66, 100
13, 32324, Note_on_c, 9, 38, 50
13, 32332, Note_on_c, 9, 38, 0
4, 32340, Note_on_c, 2, 70, 91
9, 32340, Note_on_c, 8, 65, 69
5, 32343, Note_on_c, 3, 66, 0
9, 32343, Note_on_c, 8, 66, 0
13, 32350, Note_on_c, 9, 38, 45
5, 32355, Note_on_c, 3, 64, 110
13, 32363, Note_on_c, 9, 38, 0
5, 32369, Note_on_c, 3, 64, 0
13, 32380, Note_on_c, 9, 38, 68
4, 32385, Note_on_c, 2, 70, 0
13, 32388, Note_on_c, 9, 38, 0
9, 32403, Note_on_c, 8, 77, 77
9, 32408, Note_on_c, 8, 65, 0
4, 32410, Note_on_c, 2, 69, 101
13, 32410, Note_on_c, 9, 38, 89
5, 32411, Note_on_c, 3, 69, 119
9, 32413, Note_on_c, 8, 57, 63
13, 32424, Note_on_c, 9, 38, 0
5, 32442, Note_on_c, 3, 69, 0
9, 32460, Note_on_c, 8, 70, 69
9, 32474, Note_on_c, 8, 77, 0
9, 32518, Note_on_c, 8, 66, 77
9, 32525, Note_on_c, 8, 70, 0
5, 32528, Note_on_c, 3, 67, 117
5, 32539, Note_on_c, 3, 67, 0
9, 32552, Note_on_c, 8, 57, 0
5, 32565, Note_on_c, 3, 66, 97
9, 32574, Note_on_c, 8, 65, 111
9, 32575, Note_on_c, 8, 66, 0
5, 32585, Note_on_c, 3, 66, 0
5, 32601, Note_on_c, 3, 64, 103
5, 32612, Note_on_c, 3, 64, 0
4, 32640, Note_on_c, 2, 69, 0
9, 32640, Note_on_c, 8, 77, 88
9, 32642, Note_on_c, 8, 65, 0
4, 32651, Note_on_c, 2, 65, 101
5, 32653, Note_on_c, 3, 74, 96
9, 32655, Note_on_c, 8, 57, 77
5, 32696, Note_on_c, 3, 74, 0
9, 32698, Note_on_c, 8, 70, 74
9, 32716, Note_on_c, 8, 77, 0
9, 32760, Note_on_c, 8, 66, 74
9, 32765, Note_on_c, 8, 70, 0
13, 32778, Note_on_c, 9, 38, 48
5, 32783, Note_on_c, 3, 69, 117
13, 32787, Note_on_c, 9, 38, 0
9, 32790, Note_on_c, 8, 57, 0
13, 32806, Note_on_c, 9, 38, 47
13, 32814, Note_on_c, 9, 38, 0
5, 32818, Note_on_c, 3, 69, 0
4, 32823, Note_on_c, 2, 65, 0
9, 32826, Note_on_c, 8, 65, 77
9, 32830, Note_on_c, 8, 66, 0
13, 32832, Note_on_c, 9, 38, 55
4, 32840, Note_on_c, 2, 70, 111
13, 32846, Note_on_c, 9, 38, 0
13, 32862, Note_on_c, 9, 38, 74
9, 32870, Note_on_c, 8, 65, 0
5, 32874, Note_on_c, 3, 74, 70
13, 32874, Note_on_c, 9, 38, 0
4, 32875, Note_on_c, 2, 70, 0
5, 32879, Note_on_c, 3, 69, 102
10, 32880, Note_on_c, 10, 57, 72
6, 32882, Note_on_c, 4, 69, 102
6, 32883, Note_on_c, 4, 74, 47
10, 32885, Note_on_c, 10, 42, 88
9, 32886, Note_on_c, 8, 74, 74
10, 32886, Note_on_c, 10, 58, 0
5, 32889, Note_on_c, 3, 74, 0
10, 32891, Note_on_c, 10, 38, 0
4, 32895, Note_on_c, 2, 69, 91
5, 32895, Note_on_c, 3, 81, 96
13, 32895, Note_on_c, 9, 38, 55
9, 32897, Note_on_c, 8, 57, 81
6, 32900, Note_on_c, 4, 81, 109
13, 32902, Note_on_c, 9, 59, 69
6, 32905, Note_on_c, 4, 69, 0
6, 32905, Note_on_c, 4, 74, 0
13, 32910, Note_on_c, 9, 38, 0
5, 32912, Note_on_c, 3, 69, 0
13, 32914, Note_on_c, 9, 59, 0
5, 32919, Note_on_c, 3, 74, 106
5, 32929, Note_on_c, 3, 81, 0
5, 32937, Note_on_c, 3, 74, 0
6, 32938, Note_on_c, 4, 81, 0
9, 32942, Note_on_c, 8, 70, 69
9, 32950, Note_on_c, 8, 74, 0
6, 33000, Note_on_c, 4, 74, 92
5, 33005, Note_on_c, 3, 74, 62
5, 33006, Note_on_c, 3, 69, 92
9, 33006, Note_on_c, 8, 69, 69
6, 33008, Note_on_c, 4, 69, 88
6, 33015, Note_on_c, 4, 81, 111
5, 33020, Note_on_c, 3, 69, 0
5, 33020, Note_on_c, 3, 74, 0
5, 33020, Note_on_c, 3, 81, 95
9, 33023, Note_on_c, 8, 70, 0
6, 33024, Note_on_c, 4, 69, 0
6, 33026, Note_on_c, 4, 74, 0
5, 33028, Note_on_c, 3, 74, 110
6, 33033, Note_on_c, 4, 74, 74
9, 33037, Note_on_c, 8, 57, 0
6, 33049, Note_on_c, 4, 81, 0
6, 33054, Note_on_c, 4, 74, 0
5, 33059, Note_on_c, 3, 74, 0
5, 33060, Note_on_c, 3, 81, 0
9, 33066, Note_on_c, 8, 62, 69
9, 33078, Note_on_c, 8, 69, 0
4, 33080, Note_on_c, 2, 69, 0
5, 33115, Note_on_c, 3, 69, 63
6, 33120, Note_on_c, 4, 79, 73
6, 33127, Note_on_c, 4, 74, 97
5, 33131, Note_on_c, 3, 69, 0
9, 33133, Note_on_c, 8, 74, 69
4, 33134, Note_on_c, 2, 69, 120
5, 33135, Note_on_c, 3, 79, 80
9, 33135, Note_on_c, 8, 57, 74
6, 33138, Note_on_c, 4, 71, 44
5, 33139, Note_on_c, 3, 74, 94
9, 33139, Note_on_c, 8, 62, 0
6, 33147, Note_on_c, 4, 74, 0
6, 33152, Note_on_c, 4, 71, 0
5, 33169, Note_on_c, 3, 74, 0
6, 33171, Note_on_c, 4, 79, 0
5, 33175, Note_on_c, 3, 78, 88
5, 33178, Note_on_c, 3, 79, 0
6, 33178, Note_on_c, 4, 78, 92
9, 33190, Note_on_c, 8, 70, 63
5, 33197, Note_on_c, 3, 78, 0
6, 33200, Note_on_c, 4, 71, 88
9, 33204, Note_on_c, 8, 74, 0
6, 33205, Note_on_c, 4, 78, 0
5, 33206, Note_on_c, 3, 76, 88
6, 33215, Note_on_c, 4, 71, 0
6, 33215, Note_on_c, 4, 76, 106
4, 33222, Note_on_c, 2, 69, 0
5, 33231, Note_on_c, 3, 76, 0
6, 33235, Note_on_c, 4, 76, 0
9, 33244, Note_on_c, 8, 69, 74
6, 33254, Note_on_c, 4, 74, 88
6, 33255, Note_on_c, 4, 86, 127
5, 33258, Note_on_c, 3, 86, 110
9, 33260, Note_on_c, 8, 70, 0
9, 33265, Note_on_c, 8, 57, 0
6, 33269, Note_on_c, 4, 74, 0
6, 33294, Note_on_c, 4, 86, 0
9, 33304, Note_on_c, 8, 62, 69
4, 33314, Note_on_c, 2, 69, 109
9, 33319, Note_on_c, 8, 69, 0
5, 33321, Note_on_c, 3, 86, 0
4, 33342, Note_on_c, 2, 69, 0
9, 33367, Note_on_c, 8, 74, 77
9, 33374, Note_on_c, 8, 57, 77
9, 33378, Note_on_c, 8, 62, 0
6, 33380, Note_on_c, 4, 81, 76
4, 33381, Note_on_c, 2, 69, 99
13, 33384, Note_on_c, 9, 38, 54
5, 33390, Note_on_c, 3, 81, 80
13, 33392, Note_on_c, 9, 38, 0
13, 33413, Note_on_c, 9, 38, 33
9, 33421, Note_on_c, 8, 70, 74
13, 33421, Note_on_c, 9, 38, 0
9, 33437, Note_on_c, 8, 74, 0
13, 33446, Note_on_c, 9, 38, 42
13, 33455, Note_on_c, 9, 38, 0
9, 33475, Note_on_c, 8, 69, 63
13, 33475, Note_on_c, 9, 38, 50
5, 33487, Note_on_c, 3, 74, 56
9, 33490, Note_on_c, 8, 70, 0
13, 33497, Note_on_c, 9, 38, 0
9, 33499, Note_on_c, 8, 57, 0
5, 33502, Note_on_c, 3, 74, 0
13, 33506, Note_on_c, 9, 38, 97
13, 33526, Note_on_c, 9, 38, 0
5, 33535, Note_on_c, 3, 69, 114
9, 33540, Note_on_c, 8, 62, 55
5, 33551, Note_on_c, 3, 69, 0
9, 33554, Note_on_c, 8, 69, 0
13, 33570, Note_on_c, 9, 38, 68
5, 33571, Note_on_c, 3, 74, 112
13, 33581, Note_on_c, 9, 38, 0
5, 33586, Note_on_c, 3, 74, 0
13, 33597, Note_on_c, 9, 38, 55
9, 33600, Note_on_c, 8, 74, 77
13, 33606, Note_on_c, 9, 38, 0
5, 33611, Note_on_c, 3, 76, 105
9, 33612, Note_on_c, 8, 62, 0
9, 33615, Note_on_c, 8, 57, 96
13, 33627, Note_on_c, 9, 38, 97
13, 33654, Note_on_c, 9, 38, 0
9, 33659, Note_on_c, 8, 70, 69
9, 33678, Note_on_c, 8, 74, 0
5, 33692, Note_on_c, 3, 76, 0
9, 33715, Note_on_c, 8, 69, 63
9, 33729, Note_on_c, 8, 70, 0
12, 33730, Note_on_c, 5, 45, 85
5, 33733, Note_on_c, 3, 74, 127
6, 33740, Note_on_c, 4, 62, 80
5, 33748, Note_on_c, 3, 74, 0
13, 33750, Note_on_c, 9, 38, 80
9, 33751, Note_on_c, 8, 57, 0
12, 33755, Note_on_c, 5, 45, 0
13, 33764, Note_on_c, 9, 38, 0
6, 33773, Note_on_c, 4, 62, 0
9, 33777, Note_on_c, 8, 62, 69
5, 33784, Note_on_c, 3, 69, 95
9, 33785, Note_on_c, 8, 69, 0
12, 33789, Note_on_c, 5, 45, 76
6, 33797, Note_on_c, 4, 64, 110
5, 33805, Note_on_c, 3, 69, 0
12, 33811, Note_on_c, 5, 45, 0
5, 33815, Note_on_c, 3, 74, 113
6, 33827, Note_on_c, 4, 64, 0
9, 33830, Note_on_c, 8, 62, 0
5, 33832, Note_on_c, 3, 74, 0
10, 33835, Note_on_c, 10, 39, 76
10, 33835, Note_on_c, 10, 57, 0
10, 33836, Note_on_c, 10, 59, 55
10, 33841, Note_on_c, 10, 42, 0
9, 33847, Note_on_c, 8, 71, 77
12, 33848, Note_on_c, 5, 45, 102
6, 33851, Note_on_c, 4, 62, 59
9, 33852, Note_on_c, 8, 57, 63
5, 33855, Note_on_c, 3, 83, 109
6, 33855, Note_on_c, 4, 66, 114
5, 33856, Note_on_c, 3, 81, 0
5, 33857, Note_on_c, 3, 78, 123
13, 33861, Note_on_c, 9, 38, 89
6, 33865, Note_on_c, 4, 69, 102
6, 33865, Note_on_c, 4, 74, 127
12, 33874, Note_on_c, 5, 45, 0
13, 33877, Note_on_c, 9, 38, 0
6, 33878, Note_on_c, 4, 81, 0
6, 33885, Note_on_c, 4, 62, 0
6, 33895, Note_on_c, 4, 69, 0
6, 33895, Note_on_c, 4, 74, 0
6, 33896, Note_on_c, 4, 66, 0
9, 33905, Note_on_c, 8, 67, 63
9, 33915, Note_on_c, 8, 71, 0
13, 33928, Note_on_c, 9, 38, 3
13, 33936, Note_on_c, 9, 38, 0
13, 33950, Note_on_c, 9, 38, 79
9, 33965, Note_on_c, 8, 66, 74
13, 33966, Note_on_c, 9, 38, 0
12, 33971, Note_on_c, 5, 45, 90
6, 33973, Note_on_c, 4, 59, 121
9, 33973, Note_on_c, 8, 67, 0
6, 33978, Note_on_c, 4, 74, 127
6, 33980, Note_on_c, 4, 69, 116
13, 33981, Note_on_c, 9, 38, 105
6, 33983, Note_on_c, 4, 62, 84
12, 33997, Note_on_c, 5, 45, 0
13, 33997, Note_on_c, 9, 38, 0
9, 33999, Note_on_c, 8, 57, 0
6, 34003, Note_on_c, 4, 62, 0
6, 34003, Note_on_c, 4, 74, 0
6, 34006, Note_on_c, 4, 69, 0
6, 34007, Note_on_c, 4, 59, 0
9, 34027, Note_on_c, 8, 59, 69
9, 34037, Note_on_c, 8, 66, 0
13, 34040, Note_on_c, 9, 38, 86
13, 34060, Note_on_c, 9, 38, 0
4, 34074, Note_on_c, 2, 69, 0
9, 34086, Note_on_c, 8, 71, 77
9, 34088, Note_on_c, 8, 59, 0
9, 34089, Note_on_c, 8, 57, 68
4, 34094, Note_on_c, 2, 66, 96
12, 34095, Note_on_c, 5, 45, 96
6, 34097, Note_on_c, 4, 69, 122
6, 34098, Note_on_c, 4, 62, 111
6, 34098, Note_on_c, 4, 74, 127
6, 34103, Note_on_c, 4, 59, 114
13, 34103, Note_on_c, 9, 38, 79
6, 34119, Note_on_c, 4, 62, 0
13, 34119, Note_on_c, 9, 38, 0
6, 34121, Note_on_c, 4, 74, 0
6, 34122, Note_on_c, 4, 69, 0
12, 34132, Note_on_c, 5, 45, 0
9, 34141, Note_on_c, 8, 67, 74
9, 34149, Note_on_c, 8, 71, 0
6, 34183, Note_on_c, 4, 69, 120
6, 34185, Note_on_c, 4, 74, 116
6, 34186, Note_on_c, 4, 81, 86
9, 34198, Note_on_c, 8, 66, 55
6, 34199, Note_on_c, 4, 69, 0
6, 34200, Note_on_c, 4, 74, 0
6, 34200, Note_on_c, 4, 81, 0
9, 34206, Note_on_c, 8, 67, 0
13, 34213, Note_on_c, 9, 38, 80
6, 34223, Note_on_c, 4, 69, 127
6, 34223, Note_on_c, 4, 74, 117
6, 34224, Note_on_c, 4, 81, 102
13, 34228, Note_on_c, 9, 38, 0
9, 34237, Note_on_c, 8, 57, 0
6, 34238, Note_on_c, 4, 69, 0
6, 34238, Note_on_c, 4, 74, 0
13, 34241, Note_on_c, 9, 38, 76
6, 34242, Note_on_c, 4, 81, 0
13, 34253, Note_on_c, 9, 38, 0
6, 34258, Note_on_c, 4, 69, 124
9, 34258, Note_on_c, 8, 59, 74
6, 34262, Note_on_c, 4, 81, 97
6, 34265, Note_on_c, 4, 74, 117
13, 34270, Note_on_c, 9, 38, 74
6, 34274, Note_on_c, 4, 69, 0
9, 34274, Note_on_c, 8, 66, 0
5, 34279, Note_on_c, 3, 78, 0
6, 34279, Note_on_c, 4, 81, 0
5, 34280, Note_on_c, 3, 83, 0
6, 34280, Note_on_c, 4, 74, 0
13, 34286, Note_on_c, 9, 38, 0
6, 34295, Note_on_c, 4, 69, 117
6, 34295, Note_on_c, 4, 81, 106
6, 34298, Note_on_c, 4, 74, 127
13, 34301, Note_on_c, 9, 38, 80
13, 34311, Note_on_c, 9, 38, 0
6, 34314, Note_on_c, 4, 59, 0
6, 34314, Note_on_c, 4, 69, 0
6, 34317, Note_on_c, 4, 81, 0
6, 34318, Note_on_c, 4, 74, 0
9, 34319, Note_on_c, 8, 59, 0
9, 34321, Note_on_c, 8, 71, 88
4, 34324, Note_on_c, 2, 66, 0
9, 34325, Note_on_c, 8, 57, 55
6, 34330, Note_on_c, 4, 67, 97
4, 34335, Note_on_c, 2, 62, 108
6, 34336, Note_on_c, 4, 79, 127
6, 34336, Note_on_c, 4, 86, 127
6, 34346, Note_on_c, 4, 67, 127
9, 34358, Note_on_c, 8, 62, 54
10, 34360, Note_on_c, 10, 50, 83
6, 34362, Note_on_c, 4, 67, 0
6, 34362, Note_on_c, 4, 67, 0
9, 34385, Note_on_c, 8, 62, 0
10, 34387, Note_on_c, 10, 50, 0
9, 34388, Note_on_c, 8, 61, 73
10, 34390, Note_on_c, 10, 49, 106
6, 34395, Note_on_c, 4, 79, 0
6, 34397, Note_on_c, 4, 86, 0
9, 34415, Note_on_c, 8, 61, 0
10, 34417, Note_on_c, 10, 49, 0
9, 34418, Note_on_c, 8, 58, 73
10, 34420, Note_on_c, 10, 46, 106
9, 34424, Note_on_c, 8, 71, 0
9, 34445, Note_on_c, 8, 58, 0
10, 34447, Note_on_c, 10, 46, 0
9, 34448, Note_on_c, 8, 57, 91
10, 34448, Note_on_c, 10, 30, 121
7, 34450, Control_c, 6, 18, 63
10, 34450, Note_on_c, 10, 45, 106
12, 34450, Note_on_c, 5, 42, 85
9, 34463, Note_on_c, 8, 57, 0
12, 34473, Note_on_c, 5, 42, 0
10, 34477, Note_on_c, 10, 45, 0
9, 34478, Note_on_c, 8, 58, 73
10, 34480, Note_on_c, 10, 46, 106
10, 34484, Note_on_c, 10, 30, 0
9, 34505, Note_on_c, 8, 58, 0
10, 34507, Note_on_c, 10, 46, 0
9, 34508, Note_on_c, 8, 61, 73
10, 34508, Note_on_c, 10, 28, 121
10, 34510, Note_on_c, 10, 49, 106
12, 34510, Note_on_c, 5, 40, 84
9, 34535, Note_on_c, 8, 61, 0
10, 34537, Note_on_c, 10, 49, 0
9, 34538, Note_on_c, 8, 62, 74
10, 34540, Note_on_c, 10, 50, 107
4, 34550, Control_c, 2, 18, 63
12, 34551, Note_on_c, 5, 40, 0
10, 34556, Note_on_c, 10, 28, 0
9, 34565, Note_on_c, 8, 62, 0
10, 34567, Note_on_c, 10, 50, 0
9, 34568, Note_on_c, 8, 57, 92
10, 34570, Note_on_c, 10, 45, 107
9, 34571, Note_on_c, 8, 57, 0
9, 34571, Note_on_c, 8, 57, 0
10, 34597, Note_on_c, 10, 45, 0
9, 34598, Note_on_c, 8, 58, 74
10, 34600, Note_on_c, 10, 46, 107
9, 34625, Note_on_c, 8, 58, 0
10, 34627, Note_on_c, 10, 46, 0
9, 34628, Note_on_c, 8, 61, 74
10, 34630, Note_on_c, 10, 49, 107
9, 34655, Note_on_c, 8, 61, 0
10, 34657, Note_on_c, 10, 49, 0
9, 34658, Note_on_c, 8, 62, 74
10, 34660, Note_on_c, 10, 50, 107
9, 34685, Note_on_c, 8, 62, 0
10, 34687, Note_on_c, 10, 50, 0
6, 34690, Note_on_c, 4, 74, 127
9, 34718, Note_on_c, 8, 62, 54
10, 34720, Note_on_c, 10, 50, 85
9, 34745, Note_on_c, 8, 62, 0
10, 34747, Note_on_c, 10, 50, 0
9, 34748, Note_on_c, 8, 61, 75
10, 34750, Note_on_c, 10, 49, 109
9, 34775, Note_on_c, 8, 61, 0
10, 34777, Note_on_c, 10, 49, 0
9, 34778, Note_on_c, 8, 58, 75
10, 34780, Note_on_c, 10, 46, 109
10, 34789, Note_on_c, 10, 59, 0
9, 34805, Note_on_c, 8, 58, 0
10, 34806, Note_on_c, 10, 39, 0
10, 34807, Note_on_c, 10, 46, 0
9, 34808, Note_on_c, 8, 57, 93
10, 34808, Note_on_c, 10, 30, 123
10, 34810, Note_on_c, 10, 45, 109
12, 34810, Note_on_c, 5, 42, 96
12, 34830, Note_on_c, 5, 42, 0
9, 34835, Note_on_c, 8, 57, 0
10, 34837, Note_on_c, 10, 45, 0
9, 34838, Note_on_c, 8, 58, 75
10, 34840, Note_on_c, 10, 46, 109
10, 34854, Note_on_c, 10, 30, 0
9, 34865, Note_on_c, 8, 58, 0
10, 34867, Note_on_c, 10, 46, 0
9, 34868, Note_on_c, 8, 61, 75
10, 34870, Note_on_c, 10, 49, 109
9, 34895, Note_on_c, 8, 61, 0
10, 34897, Note_on_c, 10, 49, 0
9, 34898, Note_on_c, 8, 62, 75
10, 34900, Note_on_c, 10, 50, 109
9, 34925, Note_on_c, 8, 62, 0
10, 34927, Note_on_c, 10, 50, 0
9, 34928, Note_on_c, 8, 64, 94
10, 34928, Note_on_c, 10, 28, 124
10, 34930, Note_on_c, 10, 52, 110
12, 34930, Note_on_c, 5, 40, 94
9, 34955, Note_on_c, 8, 64, 0
10, 34957, Note_on_c, 10, 52, 0
9, 34958, Note_on_c, 8, 66, 76
10, 34960, Note_on_c, 10, 54, 110
12, 34965, Note_on_c, 5, 40, 0
10, 34969, Note_on_c, 10, 28, 0
9, 34985, Note_on_c, 8, 66, 0
10, 34987, Note_on_c, 10, 54, 0
9, 34988, Note_on_c, 8, 67, 76
10, 34990, Note_on_c, 10, 55, 110
9, 35015, Note_on_c, 8, 67, 0
10, 35017, Note_on_c, 10, 55, 0
9, 35018, Note_on_c, 8, 69, 76
10, 35020, Note_on_c, 10, 57, 110
4, 35044, Note_on_c, 2, 62, 0
6, 35045, Note_on_c, 4, 74, 0
9, 35045, Note_on_c, 8, 69, 0
10, 35047, Note_on_c, 10, 57, 0
4, 35050, Note_on_c, 2, 60, 96
6, 35050, Note_on_c, 4, 72, 121
4, 35065, Note_on_c, 2, 60, 0
6, 35080, Note_on_c, 4, 72, 0
4, 35090, Note_on_c, 2, 58, 105
6, 35090, Note_on_c, 4, 70, 127
4, 35106, Note_on_c, 2, 58, 0
6, 35121, Note_on_c, 4, 70, 0
4, 35130, Note_on_c, 2, 57, 80
6, 35130, Note_on_c, 4, 69, 100
9, 35138, Note_on_c, 8, 62, 57
10, 35140, Note_on_c, 10, 50, 88
4, 35149, Note_on_c, 2, 57, 0
6, 35164, Note_on_c, 4, 69, 0
4, 35165, Note_on_c, 2, 67, 96
9, 35165, Note_on_c, 8, 62, 0
10, 35167, Note_on_c, 10, 50, 0
9, 35168, Note_on_c, 8, 62, 96
6, 35170, Note_on_c, 4, 79, 120
10, 35170, Note_on_c, 10, 50, 113
9, 35195, Note_on_c, 8, 62, 0
10, 35197, Note_on_c, 10, 50, 0
9, 35198, Note_on_c, 8, 64, 77
10, 35200, Note_on_c, 10, 52, 113
9, 35225, Note_on_c, 8, 64, 0
10, 35227, Note_on_c, 10, 52, 0
9, 35228, Note_on_c, 8, 66, 77
10, 35230, Note_on_c, 10, 54, 113
9, 35255, Note_on_c, 8, 66, 0
10, 35257, Note_on_c, 10, 54, 0
9, 35258, Note_on_c, 8, 67, 57
10, 35260, Note_on_c, 10, 55, 88
9, 35285, Note_on_c, 8, 67, 0
10, 35287, Note_on_c, 10, 55, 0
9, 35288, Note_on_c, 8, 67, 96
10, 35288, Note_on_c, 10, 30, 126
10, 35290, Note_on_c, 10, 55, 113
12, 35290, Note_on_c, 5, 42, 96
9, 35315, Note_on_c, 8, 67, 0
12, 35315, Note_on_c, 5, 42, 0
10, 35317, Note_on_c, 10, 55, 0
9, 35318, Note_on_c, 8, 69, 78
10, 35320, Note_on_c, 10, 57, 114
10, 35327, Note_on_c, 10, 30, 0
9, 35345, Note_on_c, 8, 69, 0
10, 35347, Note_on_c, 10, 57, 0
9, 35348, Note_on_c, 8, 70, 78
10, 35348, Note_on_c, 10, 28, 127
10, 35350, Note_on_c, 10, 58, 114
12, 35350, Note_on_c, 5, 40, 88
9, 35375, Note_on_c, 8, 70, 0
10, 35377, Note_on_c, 10, 58, 0
9, 35378, Note_on_c, 8, 72, 78
10, 35380, Note_on_c, 10, 60, 114
10, 35384, Note_on_c, 10, 28, 0
12, 35388, Note_on_c, 5, 40, 0
4, 35396, Note_on_c, 2, 67, 0
6, 35401, Note_on_c, 4, 79, 0
9, 35405, Note_on_c, 8, 72, 0
10, 35407, Note_on_c, 10, 60, 0
4, 35410, Note_on_c, 2, 62, 98
6, 35410, Note_on_c, 4, 74, 122
9, 35438, Note_on_c, 8, 73, 58
10, 35440, Note_on_c, 10, 61, 89
1, 35465, Tempo, 454545
9, 35465, Note_on_c, 8, 73, 0
10, 35467, Note_on_c, 10, 61, 0
9, 35468, Note_on_c, 8, 72, 79
1, 35470, Tempo, 447761
10, 35470, Note_on_c, 10, 60, 116
9, 35495, Note_on_c, 8, 72, 0
10, 35497, Note_on_c, 10, 60, 0
9, 35498, Note_on_c, 8, 70, 79
10, 35500, Note_on_c, 10, 58, 116
1, 35520, Time_signature, 3, 2, 24, 8
9, 35525, Note_on_c, 8, 70, 0
10, 35527, Note_on_c, 10, 58, 0
9, 35528, Note_on_c, 8, 62, 99
10, 35528, Note_on_c, 10, 30, 127
10, 35530, Note_on_c, 10, 50, 116
12, 35530, Note_on_c, 5, 42, 97
9, 35555, Note_on_c, 8, 62, 0
12, 35555, Note_on_c, 5, 42, 0
10, 35557, Note_on_c, 10, 50, 0
10, 35569, Note_on_c, 10, 30, 0
9, 35618, Note_on_c, 8, 69, 59
10, 35620, Note_on_c, 10, 57, 91
1, 35640, Tempo, 441176
1, 35645, Tempo, 441176
9, 35645, Note_on_c, 8, 69, 0
10, 35647, Note_on_c, 10, 57, 0
9, 35648, Note_on_c, 8, 73, 99
10, 35648, Note_on_c, 10, 28, 127
10, 35650, Note_on_c, 10, 61, 116
12, 35650, Note_on_c, 5, 40, 92
12, 35674, Note_on_c, 5, 40, 0
9, 35675, Note_on_c, 8, 73, 0
10, 35677, Note_on_c, 10, 61, 0
9, 35678, Note_on_c, 8, 72, 80
1, 35680, Tempo, 441176
10, 35680, Note_on_c, 10, 60, 116
1, 35685, Tempo, 441176
10, 35693, Note_on_c, 10, 28, 0
9, 35705, Note_on_c, 8, 72, 0
10, 35707, Note_on_c, 10, 60, 0
9, 35708, Note_on_c, 8, 70, 81
10, 35710, Note_on_c, 10, 58, 116
9, 35735, Note_on_c, 8, 70, 0
10, 35737, Note_on_c, 10, 58, 0
9, 35738, Note_on_c, 8, 62, 81
10, 35740, Note_on_c, 10, 50, 116
4, 35756, Note_on_c, 2, 62, 0
6, 35756, Note_on_c, 4, 74, 0
9, 35765, Note_on_c, 8, 62, 0
10, 35767, Note_on_c, 10, 50, 0
1, 35770, Tempo, 437956
4, 35770, Note_on_c, 2, 60, 98
6, 35770, Note_on_c, 4, 72, 122
1, 35775, Tempo, 437956
6, 35793, Note_on_c, 4, 72, 0
4, 35803, Note_on_c, 2, 60, 0
4, 35810, Note_on_c, 2, 58, 92
6, 35810, Note_on_c, 4, 70, 114
6, 35835, Note_on_c, 4, 70, 0
4, 35845, Note_on_c, 2, 58, 0
4, 35850, Note_on_c, 2, 57, 83
6, 35850, Note_on_c, 4, 69, 104
9, 35858, Note_on_c, 8, 62, 60
10, 35860, Note_on_c, 10, 50, 93
6, 35874, Note_on_c, 4, 69, 0
4, 35884, Note_on_c, 2, 57, 0
9, 35885, Note_on_c, 8, 62, 0
10, 35887, Note_on_c, 10, 50, 0
9, 35888, Note_on_c, 8, 62, 101
4, 35890, Note_on_c, 2, 67, 92
6, 35890, Note_on_c, 4, 79, 114
10, 35890, Note_on_c, 10, 50, 117
9, 35915, Note_on_c, 8, 62, 0
10, 35917, Note_on_c, 10, 50, 0
9, 35918, Note_on_c, 8, 64, 83
10, 35920, Note_on_c, 10, 52, 117
9, 35945, Note_on_c, 8, 64, 0
10, 35947, Note_on_c, 10, 52, 0
9, 35948, Note_on_c, 8, 66, 83
10, 35948, Note_on_c, 10, 33, 127
10, 35950, Note_on_c, 10, 54, 117
12, 35950, Note_on_c, 5, 45, 88
9, 35975, Note_on_c, 8, 66, 0
12, 35975, Note_on_c, 5, 45, 0
10, 35977, Note_on_c, 10, 54, 0
9, 35978, Note_on_c, 8, 67, 83
10, 35980, Note_on_c, 10, 55, 117
10, 35991, Note_on_c, 10, 33, 0
9, 36005, Note_on_c, 8, 67, 0
10, 36007, Note_on_c, 10, 55, 0
9, 36008, Note_on_c, 8, 69, 102
10, 36008, Note_on_c, 10, 30, 127
10, 36010, Note_on_c, 10, 57, 117
12, 36010, Note_on_c, 5, 42, 99
12, 36030, Note_on_c, 5, 42, 0
9, 36035, Note_on_c, 8, 69, 0
10, 36037, Note_on_c, 10, 57, 0
9, 36038, Note_on_c, 8, 70, 83
10, 36040, Note_on_c, 10, 58, 117
10, 36044, Note_on_c, 10, 30, 0
9, 36065, Note_on_c, 8, 70, 0
10, 36067, Note_on_c, 10, 58, 0
9, 36068, Note_on_c, 8, 72, 83
10, 36068, Note_on_c, 10, 28, 127
10, 36070, Note_on_c, 10, 60, 117
12, 36070, Note_on_c, 5, 40, 99
12, 36093, Note_on_c, 5, 40, 0
9, 36095, Note_on_c, 8, 72, 0
10, 36097, Note_on_c, 10, 60, 0
9, 36098, Note_on_c, 8, 73, 83
10, 36100, Note_on_c, 10, 61, 117
10, 36107, Note_on_c, 10, 28, 0
9, 36125, Note_on_c, 8, 73, 0
10, 36127, Note_on_c, 10, 61, 0
4, 36130, Note_on_c, 2, 62, 98
6, 36130, Note_on_c, 4, 74, 122
4, 36131, Note_on_c, 2, 67, 0
6, 36131, Note_on_c, 4, 79, 0
9, 36158, Note_on_c, 8, 73, 62
10, 36160, Note_on_c, 10, 61, 95
9, 36185, Note_on_c, 8, 73, 0
10, 36187, Note_on_c, 10, 61, 0
9, 36188, Note_on_c, 8, 72, 83
10, 36190, Note_on_c, 10, 60, 118
9, 36215, Note_on_c, 8, 72, 0
10, 36217, Note_on_c, 10, 60, 0
9, 36218, Note_on_c, 8, 70, 104
10, 36220, Note_on_c, 10, 58, 118
9, 36245, Note_on_c, 8, 70, 0
10, 36247, Note_on_c, 10, 58, 0
10, 36248, Note_on_c, 10, 30, 127
12, 36250, Note_on_c, 5, 42, 95
12, 36270, Note_on_c, 5, 42, 0
9, 36278, Note_on_c, 8, 73, 62
10, 36280, Note_on_c, 10, 61, 96
10, 36304, Note_on_c, 10, 30, 0
9, 36305, Note_on_c, 8, 73, 0
10, 36307, Note_on_c, 10, 61, 0
9, 36308, Note_on_c, 8, 72, 85
10, 36310, Note_on_c, 10, 60, 118
9, 36335, Note_on_c, 8, 72, 0
10, 36337, Note_on_c, 10, 60, 0
9, 36338, Note_on_c, 8, 70, 85
10, 36340, Note_on_c, 10, 58, 118
9, 36365, Note_on_c, 8, 70, 0
10, 36367, Note_on_c, 10, 58, 0
9, 36368, Note_on_c, 8, 62, 105
10, 36368, Note_on_c, 10, 28, 127
10, 36370, Note_on_c, 10, 50, 118
12, 36370, Note_on_c, 5, 40, 94
12, 36393, Note_on_c, 5, 40, 0
9, 36395, Note_on_c, 8, 62, 0
10, 36397, Note_on_c, 10, 50, 0
10, 36412, Note_on_c, 10, 28, 0
9, 36458, Note_on_c, 8, 62, 62
10, 36460, Note_on_c, 10, 50, 97
9, 36485, Note_on_c, 8, 62, 0
10, 36487, Note_on_c, 10, 50, 0
9, 36488, Note_on_c, 8, 67, 106
4, 36490, Note_on_c, 2, 60, 89
6, 36490, Note_on_c, 4, 72, 108
10, 36490, Note_on_c, 10, 55, 118
4, 36495, Note_on_c, 2, 62, 0
6, 36495, Note_on_c, 4, 74, 0
9, 36515, Note_on_c, 8, 67, 0
10, 36517, Note_on_c, 10, 55, 0
9, 36518, Note_on_c, 8, 69, 86
10, 36520, Note_on_c, 10, 57, 118
9, 36545, Note_on_c, 8, 69, 0
10, 36547, Note_on_c, 10, 57, 0
9, 36548, Note_on_c, 8, 70, 86
10, 36548, Note_on_c, 10, 34, 127
10, 36550, Note_on_c, 10, 58, 118
12, 36550, Note_on_c, 5, 46, 95
12, 36570, Note_on_c, 5, 46, 0
9, 36575, Note_on_c, 8, 70, 0
10, 36577, Note_on_c, 10, 58, 0
9, 36578, Note_on_c, 8, 72, 86
10, 36580, Note_on_c, 10, 60, 119
10, 36587, Note_on_c, 10, 34, 0
9, 36605, Note_on_c, 8, 72, 0
10, 36607, Note_on_c, 10, 60, 0
10, 36608, Note_on_c, 10, 33, 127
12, 36610, Note_on_c, 5, 45, 95
12, 36630, Note_on_c, 5, 45, 0
10, 36648, Note_on_c, 10, 33, 0
9, 36668, Note_on_c, 8, 67, 107
10, 36668, Note_on_c, 10, 31, 127
10, 36670, Note_on_c, 10, 55, 119
9, 36695, Note_on_c, 8, 67, 0
10, 36697, Note_on_c, 10, 55, 0
9, 36698, Note_on_c, 8, 69, 87
10, 36700, Note_on_c, 10, 31, 0
10, 36700, Note_on_c, 10, 57, 119
9, 36725, Note_on_c, 8, 69, 0
10, 36727, Note_on_c, 10, 57, 0
9, 36728, Note_on_c, 8, 70, 118
10, 36728, Note_on_c, 10, 30, 127
10, 36730, Note_on_c, 10, 58, 119
13, 36733, Note_on_c, 9, 57, 127
13, 36753, Note_on_c, 9, 57, 0
9, 36755, Note_on_c, 8, 70, 0
10, 36757, Note_on_c, 10, 58, 0
9, 36758, Note_on_c, 8, 72, 87
10, 36760, Note_on_c, 10, 60, 119
10, 36767, Note_on_c, 10, 30, 0
9, 36785, Note_on_c, 8, 72, 0
10, 36787, Note_on_c, 10, 60, 0
9, 36788, Note_on_c, 8, 73, 87
10, 36788, Note_on_c, 10, 28, 127
10, 36790, Note_on_c, 10, 61, 119
4, 36815, Note_on_c, 2, 60, 0
6, 36815, Note_on_c, 4, 72, 0
9, 36815, Note_on_c, 8, 73, 0
10, 36817, Note_on_c, 10, 61, 0
9, 36818, Note_on_c, 8, 75, 87
10, 36820, Note_on_c, 10, 63, 119
10, 36829, Note_on_c, 10, 28, 0
9, 36845, Note_on_c, 8, 70, 119
9, 36845, Note_on_c, 8, 75, 0
10, 36847, Note_on_c, 10, 63, 0
4, 36850, Note_on_c, 2, 53, 116
5, 36850, Note_on_c, 3, 58, 121
6, 36850, Note_on_c, 4, 50, 122
10, 36850, Note_on_c, 10, 34, 127
12, 36850, Note_on_c, 5, 46, 104
12, 36864, Note_on_c, 5, 46, 0
9, 36872, Note_on_c, 8, 70, 0
9, 36878, Note_on_c, 8, 69, 119
4, 36887, Note_on_c, 2, 53, 0
5, 36888, Note_on_c, 3, 58, 0
6, 36891, Note_on_c, 4, 50, 0
9, 36905, Note_on_c, 8, 69, 0
9, 36908, Note_on_c, 8, 67, 105
9, 36935, Note_on_c, 8, 67, 0
9, 36938, Note_on_c, 8, 65, 106
9, 36965, Note_on_c, 8, 65, 0
9, 36968, Note_on_c, 8, 70, 106
4, 36970, Note_on_c, 2, 53, 101
5, 36970, Note_on_c, 3, 58, 103
6, 36970, Note_on_c, 4, 50, 106
9, 36995, Note_on_c, 8, 70, 0
9, 36998, Note_on_c, 8, 69, 106
9, 37025, Note_on_c, 8, 69, 0
9, 37028, Note_on_c, 8, 67, 106
9, 37055, Note_on_c, 8, 67, 0
9, 37058, Note_on_c, 8, 65, 106
9, 37085, Note_on_c, 8, 65, 0
9, 37088, Note_on_c, 8, 70, 106
9, 37115, Note_on_c, 8, 70, 0
9, 37118, Note_on_c, 8, 69, 106
9, 37145, Note_on_c, 8, 69, 0
9, 37148, Note_on_c, 8, 67, 106
6, 37171, Note_on_c, 4, 50, 0
5, 37172, Note_on_c, 3, 58, 0
4, 37175, Note_on_c, 2, 53, 0
9, 37175, Note_on_c, 8, 67, 0
9, 37178, Note_on_c, 8, 65, 106
10, 37193, Note_on_c, 10, 34, 0
9, 37205, Note_on_c, 8, 65, 0
9, 37208, Note_on_c, 8, 75, 106
4, 37210, Note_on_c, 2, 55, 106
5, 37210, Note_on_c, 3, 58, 110
6, 37210, Note_on_c, 4, 51, 106
10, 37210, Note_on_c, 10, 39, 112
12, 37210, Note_on_c, 5, 51, 93
12, 37220, Note_on_c, 5, 51, 0
9, 37235, Note_on_c, 8, 75, 0
9, 37238, Note_on_c, 8, 74, 106
12, 37240, Note_on_c, 5, 51, 82
5, 37245, Note_on_c, 3, 58, 0
4, 37255, Note_on_c, 2, 55, 0
12, 37258, Note_on_c, 5, 51, 0
9, 37265, Note_on_c, 8, 74, 0
9, 37268, Note_on_c, 8, 72, 106
12, 37270, Note_on_c, 5, 51, 82
6, 37273, Note_on_c, 4, 51, 0
10, 37275, Note_on_c, 10, 39, 0
12, 37279, Note_on_c, 5, 51, 0
9, 37295, Note_on_c, 8, 72, 0
9, 37298, Note_on_c, 8, 70, 106
9, 37325, Note_on_c, 8, 70, 0
9, 37328, Note_on_c, 8, 70, 108
4, 37330, Note_on_c, 2, 53, 105
5, 37330, Note_on_c, 3, 58, 111
6, 37330, Note_on_c, 4, 50, 112
10, 37330, Note_on_c, 10, 34, 112
12, 37330, Note_on_c, 5, 46, 108
12, 37349, Note_on_c, 5, 46, 0
9, 37355, Note_on_c, 8, 70, 0
9, 37358, Note_on_c, 8, 69, 108
5, 37368, Note_on_c, 3, 58, 0
4, 37373, Note_on_c, 2, 53, 0
6, 37374, Note_on_c, 4, 50, 0
9, 37385, Note_on_c, 8, 69, 0
9, 37388, Note_on_c, 8, 67, 108
9, 37415, Note_on_c, 8, 67, 0
9, 37418, Note_on_c, 8, 65, 108
9, 37445, Note_on_c, 8, 65, 0
9, 37448, Note_on_c, 8, 70, 108
4, 37450, Note_on_c, 2, 53, 101
5, 37450, Note_on_c, 3, 58, 110
6, 37450, Note_on_c, 4, 50, 109
9, 37475, Note_on_c, 8, 70, 0
9, 37478, Note_on_c, 8, 69, 108
9, 37505, Note_on_c, 8, 69, 0
9, 37508, Note_on_c, 8, 67, 108
9, 37535, Note_on_c, 8, 67, 0
9, 37538, Note_on_c, 8, 65, 108
9, 37565, Note_on_c, 8, 65, 0
9, 37568, Note_on_c, 8, 70, 108
9, 37595, Note_on_c, 8, 70, 0
9, 37598, Note_on_c, 8, 69, 108
9, 37625, Note_on_c, 8, 69, 0
9, 37628, Note_on_c, 8, 67, 108
6, 37647, Note_on_c, 4, 50, 0
4, 37654, Note_on_c, 2, 53, 0
9, 37655, Note_on_c, 8, 67, 0
9, 37658, Note_on_c, 8, 65, 108
5, 37659, Note_on_c, 3, 58, 0
9, 37685, Note_on_c, 8, 65, 0
10, 37685, Note_on_c, 10, 34, 0
9, 37688, Note_on_c, 8, 75, 109
4, 37690, Note_on_c, 2, 55, 99
5, 37690, Note_on_c, 3, 58, 113
6, 37690, Note_on_c, 4, 51, 110
10, 37690, Note_on_c, 10, 39, 112
12, 37690, Note_on_c, 5, 51, 95
12, 37705, Note_on_c, 5, 51, 0
9, 37715, Note_on_c, 8, 75, 0
9, 37718, Note_on_c, 8, 74, 109
12, 37720, Note_on_c, 5, 51, 82
12, 37730, Note_on_c, 5, 51, 0
5, 37733, Note_on_c, 3, 58, 0
9, 37745, Note_on_c, 8, 74, 0
9, 37748, Note_on_c, 8, 72, 109
6, 37749, Note_on_c, 4, 51, 0
12, 37750, Note_on_c, 5, 51, 95
4, 37763, Note_on_c, 2, 55, 0
12, 37764, Note_on_c, 5, 51, 0
10, 37767, Note_on_c, 10, 39, 0
9, 37775, Note_on_c, 8, 72, 0
9, 37778, Note_on_c, 8, 70, 109
9, 37805, Note_on_c, 8, 70, 0
9, 37808, Note_on_c, 8, 70, 109
4, 37810, Note_on_c, 2, 53, 109
5, 37810, Note_on_c, 3, 58, 111
6, 37810, Note_on_c, 4, 48, 106
10, 37810, Note_on_c, 10, 31, 112
12, 37810, Note_on_c, 5, 43, 108
12, 37832, Note_on_c, 5, 43, 0
9, 37835, Note_on_c, 8, 70, 0
9, 37838, Note_on_c, 8, 69, 109
5, 37853, Note_on_c, 3, 58, 0
6, 37856, Note_on_c, 4, 48, 0
4, 37862, Note_on_c, 2, 53, 0
9, 37865, Note_on_c, 8, 69, 0
9, 37868, Note_on_c, 8, 67, 109
9, 37895, Note_on_c, 8, 67, 0
9, 37898, Note_on_c, 8, 65, 109
9, 37925, Note_on_c, 8, 65, 0
9, 37928, Note_on_c, 8, 70, 109
4, 37930, Note_on_c, 2, 53, 106
5, 37930, Note_on_c, 3, 58, 109
6, 37930, Note_on_c, 4, 48, 105
9, 37955, Note_on_c, 8, 70, 0
9, 37958, Note_on_c, 8, 69, 109
9, 37985, Note_on_c, 8, 69, 0
9, 37988, Note_on_c, 8, 67, 109
9, 38015, Note_on_c, 8, 67, 0
9, 38018, Note_on_c, 8, 65, 109
9, 38045, Note_on_c, 8, 65, 0
9, 38048, Note_on_c, 8, 70, 109
9, 38075, Note_on_c, 8, 70, 0
9, 38078, Note_on_c, 8, 69, 110
9, 38105, Note_on_c, 8, 69, 0
9, 38108, Note_on_c, 8, 67, 110
4, 38114, Note_on_c, 2, 53, 0
6, 38115, Note_on_c, 4, 48, 0
5, 38133, Note_on_c, 3, 58, 0
9, 38135, Note_on_c, 8, 67, 0
9, 38138, Note_on_c, 8, 65, 110
9, 38165, Note_on_c, 8, 65, 0
9, 38168, Note_on_c, 8, 75, 110
10, 38168, Note_on_c, 10, 31, 0
4, 38170, Note_on_c, 2, 51, 106
5, 38170, Note_on_c, 3, 58, 112
6, 38170, Note_on_c, 4, 48, 102
10, 38170, Note_on_c, 10, 41, 112
12, 38170, Note_on_c, 5, 53, 87
12, 38181, Note_on_c, 5, 53, 0
9, 38195, Note_on_c, 8, 75, 0
9, 38198, Note_on_c, 8, 74, 110
12, 38200, Note_on_c, 5, 53, 92
5, 38215, Note_on_c, 3, 58, 0
12, 38220, Note_on_c, 5, 53, 0
9, 38225, Note_on_c, 8, 74, 0
9, 38228, Note_on_c, 8, 72, 110
12, 38230, Note_on_c, 5, 53, 97
4, 38235, Note_on_c, 2, 51, 0
6, 38236, Note_on_c, 4, 48, 0
12, 38243, Note_on_c, 5, 53, 0
10, 38244, Note_on_c, 10, 41, 0
9, 38255, Note_on_c, 8, 72, 0
9, 38258, Note_on_c, 8, 70, 110
9, 38285, Note_on_c, 8, 70, 0
9, 38288, Note_on_c, 8, 70, 110
4, 38290, Note_on_c, 2, 53, 109
5, 38290, Note_on_c, 3, 58, 110
6, 38290, Note_on_c, 4, 48, 106
10, 38290, Note_on_c, 10, 31, 112
12, 38290, Note_on_c, 5, 43, 109
12, 38312, Note_on_c, 5, 43, 0
9, 38315, Note_on_c, 8, 70, 0
9, 38318, Note_on_c, 8, 69, 110
5, 38331, Note_on_c, 3, 58, 0
4, 38339, Note_on_c, 2, 53, 0
9, 38345, Note_on_c, 8, 69, 0
9, 38348, Note_on_c, 8, 67, 110
6, 38353, Note_on_c, 4, 48, 0
9, 38375, Note_on_c, 8, 67, 0
9, 38378, Note_on_c, 8, 65, 110
9, 38405, Note_on_c, 8, 65, 0
9, 38408, Note_on_c, 8, 70, 110
4, 38410, Note_on_c, 2, 53, 110
5, 38410, Note_on_c, 3, 58, 106
6, 38410, Note_on_c, 4, 48, 101
9, 38435, Note_on_c, 8, 70, 0
9, 38438, Note_on_c, 8, 69, 111
9, 38465, Note_on_c, 8, 69, 0
9, 38468, Note_on_c, 8, 67, 111
9, 38495, Note_on_c, 8, 67, 0
9, 38498, Note_on_c, 8, 65, 111
9, 38525, Note_on_c, 8, 65, 0
9, 38528, Note_on_c, 8, 70, 111
9, 38555, Note_on_c, 8, 70, 0
9, 38558, Note_on_c, 8, 69, 111
9, 38585, Note_on_c, 8, 69, 0
9, 38588, Note_on_c, 8, 67, 111
5, 38600, Note_on_c, 3, 58, 0
6, 38610, Note_on_c, 4, 48, 0
9, 38615, Note_on_c, 8, 67, 0
9, 38618, Note_on_c, 8, 65, 111
4, 38619, Note_on_c, 2, 53, 0
9, 38645, Note_on_c, 8, 65, 0
9, 38648, Note_on_c, 8, 75, 111
4, 38650, Note_on_c, 2, 51, 111
5, 38650, Note_on_c, 3, 58, 111
6, 38650, Note_on_c, 4, 48, 107
10, 38650, Note_on_c, 10, 41, 112
12, 38650, Note_on_c, 5, 53, 89
10, 38660, Note_on_c, 10, 31, 0
12, 38661, Note_on_c, 5, 53, 0
9, 38675, Note_on_c, 8, 75, 0
9, 38678, Note_on_c, 8, 74, 88
12, 38680, Note_on_c, 5, 53, 83
12, 38700, Note_on_c, 5, 53, 0
5, 38701, Note_on_c, 3, 58, 0
9, 38705, Note_on_c, 8, 74, 0
6, 38708, Note_on_c, 4, 48, 0
9, 38708, Note_on_c, 8, 72, 88
4, 38710, Note_on_c, 2, 51, 0
12, 38710, Note_on_c, 5, 53, 86
10, 38711, Note_on_c, 10, 41, 0
12, 38723, Note_on_c, 5, 53, 0
9, 38735, Note_on_c, 8, 72, 0
9, 38738, Note_on_c, 8, 70, 88
9, 38765, Note_on_c, 8, 70, 0
9, 38770, Note_on_c, 8, 57, 88
12, 38770, Note_on_c, 5, 47, 99
13, 38773, Note_on_c, 9, 59, 77
10, 38775, Note_on_c, 10, 29, 89
10, 38775, Note_on_c, 10, 50, 88
12, 38784, Note_on_c, 5, 47, 0
13, 38789, Note_on_c, 9, 59, 0
9, 38797, Note_on_c, 8, 57, 0
9, 38798, Note_on_c, 8, 58, 89
9, 38825, Note_on_c, 8, 58, 0
9, 38833, Note_on_c, 8, 59, 89
9, 38860, Note_on_c, 8, 59, 0
9, 38863, Note_on_c, 8, 61, 91
9, 38888, Note_on_c, 8, 59, 91
9, 38890, Note_on_c, 8, 61, 0
10, 38890, Note_on_c, 10, 30, 91
10, 38890, Note_on_c, 10, 51, 91
10, 38905, Note_on_c, 10, 29, 0
10, 38905, Note_on_c, 10, 50, 0
9, 38915, Note_on_c, 8, 59, 0
9, 38918, Note_on_c, 8, 58, 91
9, 38945, Note_on_c, 8, 58, 0
9, 38948, Note_on_c, 8, 56, 91
9, 38975, Note_on_c, 8, 56, 0
9, 38978, Note_on_c, 8, 54, 91
9, 39005, Note_on_c, 8, 54, 0
9, 39008, Note_on_c, 8, 59, 91
9, 39035, Note_on_c, 8, 59, 0
9, 39038, Note_on_c, 8, 61, 93
9, 39065, Note_on_c, 8, 61, 0
9, 39068, Note_on_c, 8, 63, 93
9, 39095, Note_on_c, 8, 63, 0
9, 39098, Note_on_c, 8, 66, 93
9, 39125, Note_on_c, 8, 66, 0
9, 39128, Note_on_c, 8, 64, 93
12, 39130, Note_on_c, 5, 52, 87
12, 39140, Note_on_c, 5, 52, 0
9, 39155, Note_on_c, 8, 64, 0
9, 39158, Note_on_c, 8, 63, 93
12, 39160, Note_on_c, 5, 52, 78
12, 39178, Note_on_c, 5, 52, 0
9, 39185, Note_on_c, 8, 63, 0
9, 39188, Note_on_c, 8, 61, 93
12, 39190, Note_on_c, 5, 52, 78
12, 39199, Note_on_c, 5, 52, 0
9, 39215, Note_on_c, 8, 61, 0
9, 39218, Note_on_c, 8, 59, 95
9, 39245, Note_on_c, 8, 59, 0
10, 39245, Note_on_c, 10, 30, 0
10, 39245, Note_on_c, 10, 51, 0
12, 39250, Note_on_c, 5, 47, 101
9, 39253, Note_on_c, 8, 83, 70
10, 39255, Note_on_c, 10, 31, 95
10, 39255, Note_on_c, 10, 52, 95
9, 39258, Note_on_c, 8, 61, 95
12, 39269, Note_on_c, 5, 47, 0
9, 39283, Note_on_c, 8, 63, 95
9, 39285, Note_on_c, 8, 61, 0
9, 39310, Note_on_c, 8, 63, 0
9, 39313, Note_on_c, 8, 64, 95
9, 39313, Note_on_c, 8, 83, 0
9, 39332, Note_on_c, 8, 85, 70
9, 39340, Note_on_c, 8, 64, 0
9, 39343, Note_on_c, 8, 68, 95
9, 39350, Note_on_c, 8, 87, 70
9, 39353, Note_on_c, 8, 85, 0
9, 39358, Note_on_c, 8, 88, 70
9, 39365, Note_on_c, 8, 87, 0
7, 39370, Control_c, 6, 18, 64
9, 39370, Note_on_c, 8, 68, 0
9, 39372, Note_on_c, 8, 90, 72
9, 39373, Note_on_c, 8, 66, 97
7, 39376, Note_on_c, 6, 75, 114
9, 39376, Note_on_c, 8, 88, 0
7, 39387, Note_on_c, 6, 75, 0
9, 39389, Note_on_c, 8, 90, 0
9, 39400, Note_on_c, 8, 66, 0
9, 39403, Note_on_c, 8, 63, 97
9, 39430, Note_on_c, 8, 63, 0
9, 39433, Note_on_c, 8, 61, 97
7, 39442, Note_on_c, 6, 76, 52
7, 39453, Note_on_c, 6, 76, 0
9, 39460, Note_on_c, 8, 61, 0
9, 39463, Note_on_c, 8, 63, 97
9, 39490, Note_on_c, 8, 63, 0
10, 39490, Note_on_c, 10, 30, 97
10, 39490, Note_on_c, 10, 31, 0
10, 39490, Note_on_c, 10, 51, 97
10, 39490, Note_on_c, 10, 52, 0
9, 39493, Note_on_c, 8, 64, 97
7, 39499, Note_on_c, 6, 78, 99
7, 39515, Note_on_c, 6, 78, 0
9, 39520, Note_on_c, 8, 64, 0
9, 39523, Note_on_c, 8, 70, 97
9, 39550, Note_on_c, 8, 70, 0
7, 39552, Note_on_c, 6, 80, 85
9, 39553, Note_on_c, 8, 73, 99
7, 39564, Note_on_c, 6, 80, 0
9, 39580, Note_on_c, 8, 73, 0
9, 39583, Note_on_c, 8, 71, 99
9, 39610, Note_on_c, 8, 71, 0
10, 39610, Note_on_c, 10, 31, 99
10, 39610, Note_on_c, 10, 52, 99
12, 39610, Note_on_c, 5, 52, 87
7, 39613, Note_on_c, 6, 75, 114
9, 39613, Note_on_c, 8, 70, 99
10, 39615, Note_on_c, 10, 30, 0
10, 39615, Note_on_c, 10, 51, 0
12, 39625, Note_on_c, 5, 52, 0
7, 39628, Note_on_c, 6, 75, 0
9, 39640, Note_on_c, 8, 70, 0
12, 39640, Note_on_c, 5, 52, 75
9, 39643, Note_on_c, 8, 68, 99
12, 39650, Note_on_c, 5, 52, 0
9, 39670, Note_on_c, 8, 68, 0
12, 39670, Note_on_c, 5, 52, 87
7, 39672, Note_on_c, 6, 76, 103
9, 39673, Note_on_c, 8, 66, 99
12, 39684, Note_on_c, 5, 52, 0
7, 39691, Note_on_c, 6, 76, 0
9, 39700, Note_on_c, 8, 66, 0
9, 39703, Note_on_c, 8, 64, 99
9, 39730, Note_on_c, 8, 64, 0
12, 39730, Note_on_c, 5, 44, 99
9, 39733, Note_on_c, 8, 63, 101
9, 39733, Note_on_c, 8, 71, 101
10, 39736, Note_on_c, 10, 42, 101
10, 39740, Note_on_c, 10, 31, 0
10, 39740, Note_on_c, 10, 52, 0
10, 39741, Note_on_c, 10, 51, 92
7, 39743, Note_on_c, 6, 78, 114
12, 39752, Note_on_c, 5, 44, 0
9, 39758, Note_on_c, 8, 70, 101
7, 39759, Note_on_c, 6, 78, 0
9, 39760, Note_on_c, 8, 63, 0
9, 39760, Note_on_c, 8, 71, 0
9, 39763, Note_on_c, 8, 66, 101
9, 39785, Note_on_c, 8, 70, 0
9, 39788, Note_on_c, 8, 68, 101
9, 39790, Note_on_c, 8, 66, 0
9, 39793, Note_on_c, 8, 64, 101
9, 39815, Note_on_c, 8, 68, 0
9, 39818, Note_on_c, 8, 66, 101
9, 39820, Note_on_c, 8, 64, 0
9, 39823, Note_on_c, 8, 63, 101
9, 39845, Note_on_c, 8, 66, 0
9, 39845, Note_on_c, 8, 76, 101
9, 39848, Note_on_c, 8, 71, 101
9, 39850, Note_on_c, 8, 63, 0
9, 39851, Note_on_c, 8, 78, 101
9, 39853, Note_on_c, 8, 61, 101
9, 39858, Note_on_c, 8, 76, 0
10, 39860, Note_on_c, 10, 43, 101
10, 39860, Note_on_c, 10, 52, 86
7, 39863, Note_on_c, 6, 78, 114
10, 39864, Note_on_c, 10, 42, 0
9, 39867, Note_on_c, 8, 78, 0
10, 39869, Note_on_c, 10, 51, 0
7, 39873, Note_on_c, 6, 78, 0
9, 39875, Note_on_c, 8, 71, 0
9, 39878, Note_on_c, 8, 70, 101
9, 39880, Note_on_c, 8, 61, 0
9, 39883, Note_on_c, 8, 59, 101
9, 39905, Note_on_c, 8, 70, 0
9, 39908, Note_on_c, 8, 68, 104
9, 39910, Note_on_c, 8, 59, 0
9, 39913, Note_on_c, 8, 58, 104
9, 39935, Note_on_c, 8, 68, 0
9, 39938, Note_on_c, 8, 66, 102
9, 39940, Note_on_c, 8, 58, 0
9, 39943, Note_on_c, 8, 56, 104
9, 39965, Note_on_c, 8, 66, 0
9, 39968, Note_on_c, 8, 71, 104
10, 39968, Note_on_c, 10, 51, 71
9, 39970, Note_on_c, 8, 56, 0
9, 39973, Note_on_c, 8, 63, 104
10, 39973, Note_on_c, 10, 42, 97
7, 39977, Note_on_c, 6, 75, 114
7, 39992, Note_on_c, 6, 75, 0
10, 39993, Note_on_c, 10, 43, 0
10, 39993, Note_on_c, 10, 52, 0
9, 39995, Note_on_c, 8, 71, 0
9, 39998, Note_on_c, 8, 61, 104
9, 39998, Note_on_c, 8, 70, 85
9, 40000, Note_on_c, 8, 63, 0
9, 40025, Note_on_c, 8, 61, 0
9, 40025, Note_on_c, 8, 70, 0
9, 40028, Note_on_c, 8, 59, 104
9, 40028, Note_on_c, 8, 68, 85
7, 40038, Note_on_c, 6, 76, 105
7, 40048, Note_on_c, 6, 76, 0
7, 40054, Note_on_c, 6, 76, 6
9, 40055, Note_on_c, 8, 59, 0
9, 40055, Note_on_c, 8, 68, 0
9, 40058, Note_on_c, 8, 58, 104
9, 40058, Note_on_c, 8, 66, 85
7, 40065, Note_on_c, 6, 76, 0
10, 40081, Note_on_c, 10, 52, 106
9, 40085, Note_on_c, 8, 58, 0
9, 40085, Note_on_c, 8, 66, 0
10, 40086, Note_on_c, 10, 43, 106
9, 40088, Note_on_c, 8, 76, 106
12, 40090, Note_on_c, 5, 54, 79
9, 40093, Note_on_c, 8, 68, 106
10, 40099, Note_on_c, 10, 51, 0
7, 40100, Note_on_c, 6, 78, 109
12, 40101, Note_on_c, 5, 54, 0
10, 40104, Note_on_c, 10, 42, 0
9, 40115, Note_on_c, 8, 76, 0
7, 40116, Note_on_c, 6, 78, 0
9, 40118, Note_on_c, 8, 66, 106
9, 40118, Note_on_c, 8, 75, 87
9, 40120, Note_on_c, 8, 68, 0
12, 40120, Note_on_c, 5, 54, 84
12, 40140, Note_on_c, 5, 54, 0
9, 40145, Note_on_c, 8, 66, 0
9, 40145, Note_on_c, 8, 75, 0
9, 40148, Note_on_c, 8, 64, 106
9, 40148, Note_on_c, 8, 73, 87
12, 40150, Note_on_c, 5, 54, 87
7, 40159, Note_on_c, 6, 80, 96
12, 40163, Note_on_c, 5, 54, 0
7, 40170, Note_on_c, 6, 80, 0
9, 40175, Note_on_c, 8, 64, 0
9, 40175, Note_on_c, 8, 73, 0
9, 40178, Note_on_c, 8, 71, 87
9, 40183, Note_on_c, 8, 66, 106
10, 40199, Note_on_c, 10, 51, 106
9, 40203, Note_on_c, 8, 63, 106
9, 40205, Note_on_c, 8, 71, 0
9, 40208, Note_on_c, 8, 71, 106
10, 40209, Note_on_c, 10, 43, 0
9, 40210, Note_on_c, 8, 66, 0
12, 40210, Note_on_c, 5, 44, 99
10, 40214, Note_on_c, 10, 42, 106
7, 40220, Note_on_c, 6, 75, 114
9, 40230, Note_on_c, 8, 63, 0
10, 40231, Note_on_c, 10, 52, 0
12, 40232, Note_on_c, 5, 44, 0
9, 40235, Note_on_c, 8, 71, 0
7, 40236, Note_on_c, 6, 75, 0
9, 40238, Note_on_c, 8, 61, 106
9, 40238, Note_on_c, 8, 70, 87
9, 40265, Note_on_c, 8, 61, 0
9, 40265, Note_on_c, 8, 70, 0
9, 40268, Note_on_c, 8, 59, 108
9, 40268, Note_on_c, 8, 68, 89
7, 40277, Note_on_c, 6, 76, 103
7, 40288, Note_on_c, 6, 76, 0
9, 40295, Note_on_c, 8, 59, 0
9, 40295, Note_on_c, 8, 68, 0
9, 40298, Note_on_c, 8, 58, 108
9, 40298, Note_on_c, 8, 66, 89
9, 40314, Note_on_c, 8, 78, 108
9, 40321, Note_on_c, 8, 80, 108
10, 40324, Note_on_c, 10, 52, 108
9, 40325, Note_on_c, 8, 58, 0
9, 40325, Note_on_c, 8, 66, 0
9, 40325, Note_on_c, 8, 78, 0
9, 40326, Note_on_c, 8, 82, 108
9, 40328, Note_on_c, 8, 71, 108
9, 40332, Note_on_c, 8, 80, 0
9, 40333, Note_on_c, 8, 63, 108
9, 40334, Note_on_c, 8, 83, 108
10, 40334, Note_on_c, 10, 43, 108
10, 40335, Note_on_c, 10, 42, 0
9, 40339, Note_on_c, 8, 82, 0
7, 40345, Note_on_c, 6, 78, 114
9, 40352, Note_on_c, 8, 83, 0
9, 40355, Note_on_c, 8, 71, 0
7, 40358, Note_on_c, 6, 78, 0
9, 40358, Note_on_c, 8, 61, 108
9, 40358, Note_on_c, 8, 70, 89
10, 40358, Note_on_c, 10, 51, 0
9, 40360, Note_on_c, 8, 63, 0
9, 40385, Note_on_c, 8, 61, 0
9, 40385, Note_on_c, 8, 70, 0
9, 40388, Note_on_c, 8, 59, 108
9, 40388, Note_on_c, 8, 68, 89
9, 40415, Note_on_c, 8, 59, 0
9, 40415, Note_on_c, 8, 68, 0
9, 40418, Note_on_c, 8, 58, 108
9, 40418, Note_on_c, 8, 66, 89
10, 40441, Note_on_c, 10, 51, 110
9, 40445, Note_on_c, 8, 58, 0
9, 40445, Note_on_c, 8, 66, 0
9, 40448, Note_on_c, 8, 63, 110
9, 40448, Note_on_c, 8, 71, 110
10, 40450, Note_on_c, 10, 52, 0
10, 40451, Note_on_c, 10, 42, 110
10, 40460, Note_on_c, 10, 43, 0
7, 40462, Note_on_c, 6, 78, 114
7, 40473, Note_on_c, 6, 78, 0
9, 40475, Note_on_c, 8, 63, 0
9, 40475, Note_on_c, 8, 71, 0
9, 40478, Note_on_c, 8, 61, 110
9, 40478, Note_on_c, 8, 70, 91
9, 40505, Note_on_c, 8, 61, 0
9, 40505, Note_on_c, 8, 70, 0
9, 40508, Note_on_c, 8, 59, 110
9, 40508, Note_on_c, 8, 68, 91
9, 40535, Note_on_c, 8, 59, 0
9, 40535, Note_on_c, 8, 68, 0
9, 40538, Note_on_c, 8, 58, 110
9, 40538, Note_on_c, 8, 66, 91
9, 40538, Note_on_c, 8, 78, 110
9, 40547, Note_on_c, 8, 80, 110
9, 40549, Note_on_c, 8, 78, 0
10, 40560, Note_on_c, 10, 52, 110
9, 40561, Note_on_c, 8, 82, 110
9, 40562, Note_on_c, 8, 80, 0
9, 40565, Note_on_c, 8, 58, 0
9, 40565, Note_on_c, 8, 66, 0
9, 40568, Note_on_c, 8, 68, 110
9, 40568, Note_on_c, 8, 76, 110
10, 40570, Note_on_c, 10, 43, 110
12, 40570, Note_on_c, 5, 54, 79
9, 40573, Note_on_c, 8, 83, 110
9, 40574, Note_on_c, 8, 82, 0
13, 40576, Note_on_c, 9, 38, 101
10, 40578, Note_on_c, 10, 51, 0
12, 40581, Note_on_c, 5, 54, 0
7, 40582, Note_on_c, 6, 75, 114
10, 40588, Note_on_c, 10, 42, 0
9, 40589, Note_on_c, 8, 83, 0
13, 40591, Note_on_c, 9, 38, 0
7, 40595, Note_on_c, 6, 75, 0
9, 40595, Note_on_c, 8, 68, 0
9, 40595, Note_on_c, 8, 76, 0
9, 40598, Note_on_c, 8, 66, 110
9, 40598, Note_on_c, 8, 75, 91
12, 40600, Note_on_c, 5, 54, 84
13, 40603, Note_on_c, 9, 38, 112
13, 40618, Note_on_c, 9, 38, 0
12, 40620, Note_on_c, 5, 54, 0
9, 40625, Note_on_c, 8, 66, 0
9, 40625, Note_on_c, 8, 75, 0
9, 40628, Note_on_c, 8, 64, 127
9, 40628, Note_on_c, 8, 73, 106
12, 40630, Note_on_c, 5, 54, 87
13, 40632, Note_on_c, 9, 38, 123
7, 40640, Note_on_c, 6, 76, 114
12, 40643, Note_on_c, 5, 54, 0
13, 40647, Note_on_c, 9, 38, 0
9, 40655, Note_on_c, 8, 64, 0
9, 40655, Note_on_c, 8, 73, 0
9, 40658, Note_on_c, 8, 71, 106
7, 40662, Note_on_c, 6, 76, 0
13, 40662, Note_on_c, 9, 38, 127
9, 40663, Note_on_c, 8, 63, 127
10, 40676, Note_on_c, 10, 52, 0
13, 40677, Note_on_c, 9, 38, 0
9, 40685, Note_on_c, 8, 71, 0
10, 40686, Note_on_c, 10, 43, 0
9, 40690, Note_on_c, 8, 63, 0
10, 40690, Note_on_c, 10, 40, 95
10, 40690, Note_on_c, 10, 47, 90
9, 40693, Note_on_c, 8, 63, 123
7, 40710, Note_on_c, 6, 42, 82
7, 40718, Note_on_c, 6, 42, 0
9, 40720, Note_on_c, 8, 61, 117
9, 40726, Note_on_c, 8, 63, 0
7, 40735, Note_on_c, 6, 44, 94
7, 40743, Note_on_c, 6, 44, 0
9, 40751, Note_on_c, 8, 59, 111
7, 40754, Note_on_c, 6, 46, 94
9, 40755, Note_on_c, 8, 61, 0
7, 40762, Note_on_c, 6, 46, 0
7, 40769, Note_on_c, 6, 47, 94
7, 40777, Note_on_c, 6, 47, 0
9, 40777, Note_on_c, 8, 59, 0
9, 40782, Note_on_c, 8, 58, 111
7, 40788, Note_on_c, 6, 49, 94
7, 40796, Note_on_c, 6, 49, 0
7, 40808, Note_on_c, 6, 51, 94
9, 40812, Note_on_c, 8, 58, 0
9, 40814, Note_on_c, 8, 63, 123
7, 40816, Note_on_c, 6, 51, 0
10, 40818, Note_on_c, 10, 51, 95
10, 40827, Note_on_c, 10, 47, 0
7, 40831, Note_on_c, 6, 52, 94
7, 40839, Note_on_c, 6, 52, 0
9, 40843, Note_on_c, 8, 61, 118
9, 40846, Note_on_c, 8, 63, 0
7, 40853, Note_on_c, 6, 54, 94
7, 40861, Note_on_c, 6, 54, 0
9, 40875, Note_on_c, 8, 59, 112
9, 40878, Note_on_c, 8, 61, 0
9, 40904, Note_on_c, 8, 59, 0
9, 40905, Note_on_c, 8, 58, 112
9, 40932, Note_on_c, 8, 75, 120
9, 40936, Note_on_c, 8, 58, 0
10, 40940, Note_on_c, 10, 54, 99
10, 40948, Note_on_c, 10, 51, 0
9, 40961, Note_on_c, 8, 73, 119
9, 40964, Note_on_c, 8, 75, 0
9, 40992, Note_on_c, 8, 71, 113
9, 41002, Note_on_c, 8, 73, 0
9, 41018, Note_on_c, 8, 71, 0
9, 41023, Note_on_c, 8, 70, 113
9, 41055, Note_on_c, 8, 70, 0
10, 41057, Note_on_c, 10, 56, 104
9, 41058, Note_on_c, 8, 87, 118
10, 41080, Note_on_c, 10, 54, 0
9, 41087, Note_on_c, 8, 85, 118
9, 41089, Note_on_c, 8, 87, 0
9, 41117, Note_on_c, 8, 83, 114
9, 41127, Note_on_c, 8, 85, 0
9, 41142, Note_on_c, 8, 82, 114
9, 41149, Note_on_c, 8, 83, 0
9, 41175, Note_on_c, 8, 82, 0
9, 41175, Note_on_c, 8, 87, 116
10, 41178, Note_on_c, 10, 58, 110
10, 41185, Note_on_c, 10, 56, 0
9, 41206, Note_on_c, 8, 85, 121
9, 41206, Note_on_c, 8, 87, 0
9, 41232, Note_on_c, 8, 83, 125
9, 41236, Note_on_c, 8, 85, 0
9, 41260, Note_on_c, 8, 83, 0
9, 41261, Note_on_c, 8, 82, 125
9, 41292, Note_on_c, 8, 82, 0
9, 41297, Note_on_c, 8, 80, 125
9, 41326, Note_on_c, 8, 78, 127
9, 41327, Note_on_c, 8, 80, 0
9, 41355, Note_on_c, 8, 76, 127
9, 41355, Note_on_c, 8, 78, 0
9, 41381, Note_on_c, 8, 76, 0
9, 41385, Note_on_c, 8, 75, 127
10, 41406, Note_on_c, 10, 58, 0
9, 41410, Note_on_c, 8, 75, 0
10, 41410, Note_on_c, 10, 61, 109
10, 41411, Note_on_c, 10, 70, 92
9, 41415, Note_on_c, 8, 73, 127
10, 41435, Note_on_c, 10, 68, 95
10, 41442, Note_on_c, 10, 70, 0
9, 41443, Note_on_c, 8, 73, 0
9, 41445, Note_on_c, 8, 71, 127
10, 41455, Note_on_c, 10, 66, 96
9, 41457, Note_on_c, 8, 70, 127
10, 41462, Note_on_c, 10, 68, 0
9, 41471, Note_on_c, 8, 71, 0
10, 41471, Note_on_c, 10, 64, 98
10, 41474, Note_on_c, 10, 66, 0
9, 41480, Note_on_c, 8, 68, 127
9, 41484, Note_on_c, 8, 70, 0
10, 41486, Note_on_c, 10, 64, 0
10, 41491, Note_on_c, 10, 63, 98
9, 41500, Note_on_c, 8, 66, 127
9, 41511, Note_on_c, 8, 68, 0
10, 41511, Note_on_c, 10, 61, 98
10, 41511, Note_on_c, 10, 63, 0
9, 41521, Note_on_c, 8, 64, 127
9, 41526, Note_on_c, 8, 66, 0
10, 41529, Note_on_c, 10, 61, 0
10, 41530, Note_on_c, 10, 63, 112
10, 41531, Note_on_c, 10, 59, 98
9, 41540, Note_on_c, 8, 63, 127
9, 41546, Note_on_c, 8, 64, 0
10, 41550, Note_on_c, 10, 59, 0
10, 41551, Note_on_c, 10, 58, 98
9, 41556, Note_on_c, 8, 61, 127
9, 41565, Note_on_c, 8, 63, 0
10, 41571, Note_on_c, 10, 56, 98
9, 41575, Note_on_c, 8, 59, 127
10, 41576, Note_on_c, 10, 58, 0
9, 41582, Note_on_c, 8, 61, 0
10, 41591, Note_on_c, 10, 54, 98
9, 41593, Note_on_c, 8, 58, 127
9, 41595, Note_on_c, 8, 59, 0
10, 41597, Note_on_c, 10, 56, 0
9, 41610, Note_on_c, 8, 56, 127
10, 41610, Note_on_c, 10, 52, 98
10, 41611, Note_on_c, 10, 54, 0
10, 41611, Note_on_c, 10, 61, 0
9, 41619, Note_on_c, 8, 58, 0
10, 41630, Note_on_c, 10, 51, 98
9, 41631, Note_on_c, 8, 54, 127
9, 41631, Note_on_c, 8, 56, 0
10, 41632, Note_on_c, 10, 52, 0
10, 41645, Note_on_c, 10, 62, 114
1, 41650, Tempo, 458015
10, 41650, Note_on_c, 10, 46, 110
10, 41650, Note_on_c, 10, 63, 0
9, 41651, Note_on_c, 8, 65, 108
10, 41651, Note_on_c, 10, 50, 98
10, 41653, Note_on_c, 10, 51, 0
9, 41654, Note_on_c, 8, 54, 0
1, 41655, Tempo, 461538
10, 41655, Note_on_c, 10, 34, 61
9, 41658, Note_on_c, 8, 53, 127
10, 41660, Note_on_c, 10, 40, 0
10, 41661, Note_on_c, 10, 53, 110
9, 41668, Note_on_c, 8, 65, 0
9, 41671, Note_on_c, 8, 70, 109
7, 41680, Note_on_c, 6, 70, 94
9, 41690, Note_on_c, 8, 70, 0
9, 41690, Note_on_c, 8, 77, 109
7, 41692, Note_on_c, 6, 70, 0
9, 41700, Note_on_c, 8, 77, 0
9, 41710, Note_on_c, 8, 77, 102
7, 41711, Note_on_c, 6, 77, 65
9, 41730, Note_on_c, 8, 70, 102
7, 41731, Note_on_c, 6, 77, 0
9, 41731, Note_on_c, 8, 77, 0
9, 41745, Note_on_c, 8, 70, 0
9, 41750, Note_on_c, 8, 65, 102
9, 41764, Note_on_c, 8, 65, 0
9, 41770, Note_on_c, 8, 65, 102
10, 41770, Note_on_c, 10, 62, 0
6, 41771, Note_on_c, 4, 58, 127
7, 41771, Note_on_c, 6, 82, 94
10, 41772, Note_on_c, 10, 58, 103
7, 41782, Note_on_c, 6, 82, 0
9, 41785, Note_on_c, 8, 65, 0
9, 41790, Note_on_c, 8, 70, 102
9, 41807, Note_on_c, 8, 70, 0
9, 41810, Note_on_c, 8, 77, 111
9, 41823, Note_on_c, 8, 77, 0
7, 41830, Note_on_c, 6, 77, 90
9, 41830, Note_on_c, 8, 77, 112
6, 41834, Note_on_c, 4, 58, 0
7, 41841, Note_on_c, 6, 77, 0
9, 41850, Note_on_c, 8, 70, 112
9, 41851, Note_on_c, 8, 77, 0
9, 41866, Note_on_c, 8, 70, 0
9, 41870, Note_on_c, 8, 65, 112
9, 41881, Note_on_c, 8, 65, 0
10, 41882, Note_on_c, 10, 50, 0
6, 41887, Note_on_c, 4, 65, 127
7, 41890, Note_on_c, 6, 70, 94
9, 41890, Note_on_c, 8, 65, 112
7, 41903, Note_on_c, 6, 70, 0
9, 41906, Note_on_c, 8, 65, 0
9, 41908, Note_on_c, 8, 53, 0
9, 41910, Note_on_c, 8, 70, 112
9, 41928, Note_on_c, 8, 70, 0
9, 41930, Note_on_c, 8, 77, 112
9, 41941, Note_on_c, 8, 77, 0
7, 41950, Note_on_c, 6, 77, 94
9, 41950, Note_on_c, 8, 77, 112
7, 41967, Note_on_c, 6, 77, 0
9, 41970, Note_on_c, 8, 70, 112
9, 41970, Note_on_c, 8, 77, 0
9, 41986, Note_on_c, 8, 70, 0
9, 41990, Note_on_c, 8, 65, 113
9, 42003, Note_on_c, 8, 65, 0
7, 42010, Note_on_c, 6, 82, 94
9, 42010, Note_on_c, 8, 65, 113
10, 42012, Note_on_c, 10, 62, 104
6, 42020, Note_on_c, 4, 65, 0
10, 42020, Note_on_c, 10, 58, 0
7, 42021, Note_on_c, 6, 82, 0
9, 42030, Note_on_c, 8, 65, 0
9, 42030, Note_on_c, 8, 70, 113
9, 42048, Note_on_c, 8, 70, 0
9, 42050, Note_on_c, 8, 77, 113
6, 42051, Note_on_c, 4, 63, 127
9, 42060, Note_on_c, 8, 77, 0
6, 42066, Note_on_c, 4, 63, 0
9, 42070, Note_on_c, 8, 77, 114
7, 42071, Note_on_c, 6, 77, 91
6, 42081, Note_on_c, 4, 65, 127
7, 42081, Note_on_c, 6, 77, 0
9, 42090, Note_on_c, 8, 70, 114
9, 42094, Note_on_c, 8, 77, 0
6, 42098, Note_on_c, 4, 65, 0
9, 42106, Note_on_c, 8, 65, 114
9, 42107, Note_on_c, 8, 70, 0
10, 42110, Note_on_c, 10, 34, 0
9, 42116, Note_on_c, 8, 65, 0
6, 42121, Note_on_c, 4, 67, 127
7, 42130, Note_on_c, 6, 72, 94
10, 42130, Note_on_c, 10, 60, 105
10, 42132, Note_on_c, 10, 62, 0
9, 42135, Note_on_c, 8, 65, 114
7, 42149, Note_on_c, 6, 72, 0
9, 42150, Note_on_c, 8, 70, 114
9, 42154, Note_on_c, 8, 65, 0
9, 42170, Note_on_c, 8, 75, 116
9, 42171, Note_on_c, 8, 70, 0
9, 42181, Note_on_c, 8, 75, 0
6, 42182, Note_on_c, 4, 67, 0
7, 42190, Note_on_c, 6, 77, 94
9, 42190, Note_on_c, 8, 75, 116
9, 42210, Note_on_c, 8, 70, 116
7, 42211, Note_on_c, 6, 77, 0
9, 42212, Note_on_c, 8, 75, 0
9, 42224, Note_on_c, 8, 70, 0
9, 42226, Note_on_c, 8, 65, 116
10, 42235, Note_on_c, 10, 53, 0
9, 42236, Note_on_c, 8, 65, 0
6, 42241, Note_on_c, 4, 63, 127
10, 42247, Note_on_c, 10, 65, 105
7, 42250, Note_on_c, 6, 82, 94
9, 42250, Note_on_c, 8, 65, 116
5, 42253, Note_on_c, 3, 75, 127
7, 42260, Note_on_c, 6, 82, 0
9, 42265, Note_on_c, 8, 70, 116
9, 42268, Note_on_c, 8, 65, 0
10, 42276, Note_on_c, 10, 60, 0
9, 42281, Note_on_c, 8, 70, 0
9, 42286, Note_on_c, 8, 75, 116
9, 42296, Note_on_c, 8, 75, 0
7, 42310, Note_on_c, 6, 77, 94
9, 42313, Note_on_c, 8, 75, 117
5, 42314, Note_on_c, 3, 75, 0
6, 42321, Note_on_c, 4, 63, 0
9, 42330, Note_on_c, 8, 70, 117
7, 42331, Note_on_c, 6, 77, 0
9, 42333, Note_on_c, 8, 75, 0
9, 42346, Note_on_c, 8, 70, 0
9, 42348, Note_on_c, 8, 65, 117
9, 42359, Note_on_c, 8, 65, 0
6, 42360, Note_on_c, 4, 63, 127
5, 42370, Note_on_c, 3, 70, 127
9, 42370, Note_on_c, 8, 65, 117
7, 42371, Note_on_c, 6, 72, 94
10, 42373, Note_on_c, 10, 67, 95
6, 42377, Note_on_c, 4, 63, 0
9, 42388, Note_on_c, 8, 65, 0
9, 42390, Note_on_c, 8, 70, 118
7, 42396, Note_on_c, 6, 72, 0
6, 42397, Note_on_c, 4, 62, 127
9, 42405, Note_on_c, 8, 70, 0
6, 42410, Note_on_c, 4, 62, 0
9, 42410, Note_on_c, 8, 75, 118
9, 42420, Note_on_c, 8, 75, 0
9, 42430, Note_on_c, 8, 75, 118
7, 42431, Note_on_c, 6, 77, 84
6, 42432, Note_on_c, 4, 63, 127
7, 42449, Note_on_c, 6, 77, 0
9, 42450, Note_on_c, 8, 70, 118
9, 42450, Note_on_c, 8, 75, 0
6, 42452, Note_on_c, 4, 63, 0
5, 42455, Note_on_c, 3, 70, 0
6, 42461, Note_on_c, 4, 63, 127
9, 42466, Note_on_c, 8, 70, 0
6, 42467, Note_on_c, 4, 63, 0
9, 42471, Note_on_c, 8, 65, 118
6, 42476, Note_on_c, 4, 63, 127
9, 42481, Note_on_c, 8, 65, 0
5, 42484, Note_on_c, 3, 68, 127
6, 42486, Note_on_c, 4, 63, 0
7, 42491, Note_on_c, 6, 82, 94
10, 42491, Note_on_c, 10, 60, 106
6, 42492, Note_on_c, 4, 63, 127
9, 42493, Note_on_c, 8, 65, 119
7, 42501, Note_on_c, 6, 82, 0
9, 42505, Note_on_c, 8, 70, 119
6, 42508, Note_on_c, 4, 63, 0
5, 42510, Note_on_c, 3, 68, 0
9, 42516, Note_on_c, 8, 65, 0
9, 42520, Note_on_c, 8, 70, 0
5, 42521, Note_on_c, 3, 67, 127
6, 42527, Note_on_c, 4, 63, 127
9, 42528, Note_on_c, 8, 75, 119
6, 42538, Note_on_c, 4, 63, 0
9, 42539, Note_on_c, 8, 75, 0
5, 42544, Note_on_c, 3, 67, 0
9, 42550, Note_on_c, 8, 75, 119
7, 42551, Note_on_c, 6, 77, 89
5, 42561, Note_on_c, 3, 65, 127
6, 42561, Note_on_c, 4, 63, 127
7, 42561, Note_on_c, 6, 77, 0
9, 42570, Note_on_c, 8, 70, 119
6, 42572, Note_on_c, 4, 63, 0
9, 42573, Note_on_c, 8, 75, 0
5, 42580, Note_on_c, 3, 65, 0
9, 42583, Note_on_c, 8, 65, 119
9, 42589, Note_on_c, 8, 70, 0
9, 42593, Note_on_c, 8, 65, 0
10, 42605, Note_on_c, 10, 34, 96
10, 42605, Note_on_c, 10, 46, 0
10, 42608, Note_on_c, 10, 68, 79
9, 42610, Note_on_c, 8, 63, 119
6, 42611, Note_on_c, 4, 68, 127
7, 42611, Note_on_c, 6, 75, 123
5, 42618, Note_on_c, 3, 72, 127
7, 42628, Note_on_c, 6, 75, 0
9, 42630, Note_on_c, 8, 70, 120
9, 42641, Note_on_c, 8, 63, 0
9, 42645, Note_on_c, 8, 70, 0
4, 42647, Note_on_c, 2, 68, 127
9, 42650, Note_on_c, 8, 75, 120
4, 42653, Note_on_c, 2, 60, 127
9, 42660, Note_on_c, 8, 75, 0
7, 42670, Note_on_c, 6, 80, 123
9, 42670, Note_on_c, 8, 75, 120
4, 42675, Note_on_c, 2, 68, 0
4, 42677, Note_on_c, 2, 60, 0
4, 42688, Note_on_c, 2, 63, 127
4, 42688, Note_on_c, 2, 70, 127
9, 42690, Note_on_c, 8, 70, 120
7, 42691, Note_on_c, 6, 80, 0
9, 42692, Note_on_c, 8, 75, 0
9, 42710, Note_on_c, 8, 63, 121
9, 42710, Note_on_c, 8, 70, 0
4, 42713, Note_on_c, 2, 70, 0
4, 42714, Note_on_c, 2, 63, 0
9, 42719, Note_on_c, 8, 63, 0
4, 42729, Note_on_c, 2, 68, 127
9, 42730, Note_on_c, 8, 63, 121
4, 42731, Note_on_c, 2, 77, 127
7, 42731, Note_on_c, 6, 87, 123
7, 42741, Note_on_c, 6, 87, 0
9, 42747, Note_on_c, 8, 63, 0
9, 42750, Note_on_c, 8, 68, 121
4, 42770, Note_on_c, 2, 68, 0
6, 42770, Note_on_c, 4, 68, 0
9, 42770, Note_on_c, 8, 75, 121
9, 42771, Note_on_c, 8, 68, 0
9, 42779, Note_on_c, 8, 75, 0
9, 42790, Note_on_c, 8, 75, 122
7, 42791, Note_on_c, 6, 80, 116
4, 42795, Note_on_c, 2, 77, 0
7, 42806, Note_on_c, 6, 80, 0
4, 42810, Note_on_c, 2, 68, 127
6, 42810, Note_on_c, 4, 62, 127
9, 42810, Note_on_c, 8, 68, 122
9, 42810, Note_on_c, 8, 75, 0
4, 42813, Note_on_c, 2, 60, 127
4, 42819, Note_on_c, 2, 68, 0
4, 42821, Note_on_c, 2, 70, 127
4, 42825, Note_on_c, 2, 63, 127
6, 42825, Note_on_c, 4, 62, 0
4, 42826, Note_on_c, 2, 60, 0
9, 42830, Note_on_c, 8, 63, 123
9, 42830, Note_on_c, 8, 68, 0
9, 42841, Note_on_c, 8, 63, 0
4, 42842, Note_on_c, 2, 77, 127
4, 42843, Note_on_c, 2, 70, 0
9, 42847, Note_on_c, 8, 72, 87
6, 42850, Note_on_c, 4, 68, 127
9, 42850, Note_on_c, 8, 63, 123
7, 42851, Note_on_c, 6, 75, 123
4, 42852, Note_on_c, 2, 68, 127
4, 42862, Note_on_c, 2, 63, 0
7, 42866, Note_on_c, 6, 75, 0
6, 42868, Note_on_c, 4, 68, 0
9, 42870, Note_on_c, 8, 63, 0
9, 42870, Note_on_c, 8, 65, 123
9, 42870, Note_on_c, 8, 72, 0
9, 42871, Note_on_c, 8, 74, 91
9, 42888, Note_on_c, 8, 65, 0
6, 42890, Note_on_c, 4, 72, 127
9, 42890, Note_on_c, 8, 67, 122
9, 42891, Note_on_c, 8, 74, 0
9, 42892, Note_on_c, 8, 75, 97
9, 42895, Note_on_c, 8, 67, 0
6, 42909, Note_on_c, 4, 72, 0
9, 42910, Note_on_c, 8, 68, 121
9, 42910, Note_on_c, 8, 75, 0
7, 42911, Note_on_c, 6, 80, 123
9, 42912, Note_on_c, 8, 77, 101
7, 42927, Note_on_c, 6, 80, 0
9, 42928, Note_on_c, 8, 77, 0
6, 42930, Note_on_c, 4, 63, 127
9, 42930, Note_on_c, 8, 70, 120
9, 42930, Note_on_c, 8, 79, 104
9, 42932, Note_on_c, 8, 68, 0
9, 42948, Note_on_c, 8, 79, 0
9, 42949, Note_on_c, 8, 81, 108
6, 42950, Note_on_c, 4, 63, 0
9, 42950, Note_on_c, 8, 70, 0
9, 42950, Note_on_c, 8, 72, 120
9, 42964, Note_on_c, 8, 72, 0
9, 42967, Note_on_c, 8, 81, 0
5, 42970, Note_on_c, 3, 74, 127
9, 42970, Note_on_c, 8, 73, 120
6, 42971, Note_on_c, 4, 74, 127
7, 42971, Note_on_c, 6, 87, 123
9, 42971, Note_on_c, 8, 82, 111
5, 42974, Note_on_c, 3, 72, 0
4, 42980, Note_on_c, 2, 68, 0
7, 42981, Note_on_c, 6, 87, 0
9, 42989, Note_on_c, 8, 73, 0
9, 42990, Note_on_c, 8, 75, 116
9, 42990, Note_on_c, 8, 82, 0
9, 42992, Note_on_c, 8, 84, 117
9, 43010, Note_on_c, 8, 75, 0
9, 43010, Note_on_c, 8, 77, 114
9, 43010, Note_on_c, 8, 84, 0
9, 43011, Note_on_c, 8, 86, 121
9, 43021, Note_on_c, 8, 77, 0
9, 43029, Note_on_c, 8, 86, 0
9, 43030, Note_on_c, 8, 79, 114
9, 43030, Note_on_c, 8, 87, 125
5, 43040, Note_on_c, 3, 74, 0
9, 43045, Note_on_c, 8, 87, 0
9, 43048, Note_on_c, 8, 89, 127
9, 43051, Note_on_c, 8, 79, 0
9, 43051, Note_on_c, 8, 80, 110
5, 43061, Note_on_c, 3, 81, 127
9, 43064, Note_on_c, 8, 89, 0
9, 43066, Note_on_c, 8, 80, 0
9, 43068, Note_on_c, 8, 91, 127
9, 43070, Note_on_c, 8, 81, 85
4, 43075, Note_on_c, 2, 77, 0
5, 43076, Note_on_c, 3, 81, 0
9, 43079, Note_on_c, 8, 91, 0
10, 43084, Note_on_c, 10, 68, 0
10, 43085, Note_on_c, 10, 67, 0
12, 43086, Note_on_c, 5, 50, 111
1, 43090, Tempo, 759494
7, 43090, Note_on_c, 6, 50, 92
10, 43090, Note_on_c, 10, 34, 0
9, 43093, Note_on_c, 8, 93, 122
13, 43093, Note_on_c, 9, 57, 127
13, 43093, Note_on_c, 9, 59, 117
5, 43094, Note_on_c, 3, 81, 127
10, 43094, Note_on_c, 10, 60, 0
1, 43095, Tempo, 833333
9, 43097, Note_on_c, 8, 81, 0
12, 43097, Note_on_c, 5, 50, 0
7, 43098, Note_on_c, 6, 50, 0
7, 43098, Note_on_c, 6, 52, 92
10, 43100, Note_on_c, 10, 65, 0
7, 43101, Note_on_c, 6, 52, 0
7, 43103, Note_on_c, 6, 54, 92
10, 43103, Note_on_c, 10, 38, 88
7, 43106, Note_on_c, 6, 54, 0
10, 43106, Note_on_c, 10, 26, 98
7, 43110, Note_on_c, 6, 55, 92
7, 43113, Note_on_c, 6, 55, 0
7, 43116, Note_on_c, 6, 57, 92
7, 43118, Note_on_c, 6, 57, 0
7, 43121, Note_on_c, 6, 59, 92
7, 43124, Note_on_c, 6, 59, 0
7, 43126, Note_on_c, 6, 61, 92
7, 43129, Note_on_c, 6, 61, 0
7, 43131, Note_on_c, 6, 62, 92
7, 43134, Note_on_c, 6, 62, 0
7, 43136, Note_on_c, 6, 64, 92
7, 43139, Note_on_c, 6, 64, 0
7, 43141, Note_on_c, 6, 66, 92
7, 43144, Note_on_c, 6, 66, 0
7, 43146, Note_on_c, 6, 67, 92
7, 43149, Note_on_c, 6, 67, 0
7, 43151, Note_on_c, 6, 69, 92
7, 43156, Note_on_c, 6, 69, 0
7, 43164, Note_on_c, 6, 67, 86
7, 43167, Note_on_c, 6, 67, 0
7, 43173, Note_on_c, 6, 66, 76
7, 43176, Note_on_c, 6, 66, 0
13, 43176, Note_on_c, 9, 59, 0
7, 43180, Note_on_c, 6, 64, 92
7, 43183, Note_on_c, 6, 64, 0
7, 43190, Note_on_c, 6, 62, 92
7, 43193, Note_on_c, 6, 62, 0
7, 43210, Note_on_c, 6, 50, 92
7, 43218, Note_on_c, 6, 50, 0
7, 43218, Note_on_c, 6, 52, 92
7, 43221, Note_on_c, 6, 52, 0
7, 43223, Note_on_c, 6, 54, 92
7, 43226, Note_on_c, 6, 54, 0
7, 43230, Note_on_c, 6, 55, 92
7, 43233, Note_on_c, 6, 55, 0
7, 43236, Note_on_c, 6, 57, 92
7, 43238, Note_on_c, 6, 57, 0
7, 43241, Note_on_c, 6, 59, 92
7, 43244, Note_on_c, 6, 59, 0
7, 43246, Note_on_c, 6, 61, 92
7, 43249, Note_on_c, 6, 61, 0
7, 43251, Note_on_c, 6, 62, 92
7, 43254, Note_on_c, 6, 62, 0
7, 43256, Note_on_c, 6, 64, 92
13, 43257, Note_on_c, 9, 38, 80
7, 43259, Note_on_c, 6, 64, 0
13, 43260, Note_on_c, 9, 38, 0
7, 43261, Note_on_c, 6, 66, 92
13, 43263, Note_on_c, 9, 38, 87
7, 43264, Note_on_c, 6, 66, 0
7, 43266, Note_on_c, 6, 67, 92
13, 43266, Note_on_c, 9, 38, 0
7, 43269, Note_on_c, 6, 67, 0
7, 43271, Note_on_c, 6, 69, 92
13, 43271, Note_on_c, 9, 38, 98
13, 43274, Note_on_c, 9, 38, 0
7, 43276, Note_on_c, 6, 69, 0
13, 43278, Note_on_c, 9, 38, 107
13, 43281, Note_on_c, 9, 38, 0
13, 43283, Note_on_c, 9, 38, 116
7, 43284, Note_on_c, 6, 67, 86
13, 43286, Note_on_c, 9, 38, 0
7, 43287, Note_on_c, 6, 67, 0
13, 43289, Note_on_c, 9, 38, 123
13, 43292, Note_on_c, 9, 38, 0
7, 43293, Note_on_c, 6, 66, 77
7, 43296, Note_on_c, 6, 66, 0
13, 43296, Note_on_c, 9, 38, 127
13, 43298, Note_on_c, 9, 57, 0
13, 43299, Note_on_c, 9, 38, 0
7, 43300, Note_on_c, 6, 64, 92
13, 43301, Note_on_c, 9, 38, 127
7, 43303, Note_on_c, 6, 64, 0
13, 43304, Note_on_c, 9, 38, 0
13, 43309, Note_on_c, 9, 38, 127
13, 43312, Note_on_c, 9, 38, 0
13, 43315, Note_on_c, 9, 38, 127
13, 43318, Note_on_c, 9, 38, 0
13, 43321, Note_on_c, 9, 38, 127
7, 43322, Note_on_c, 6, 57, 92
13, 43324, Note_on_c, 9, 38, 0
13, 43326, Note_on_c, 9, 38, 127
6, 43328, Note_on_c, 4, 74, 0
7, 43328, Note_on_c, 6, 57, 0
7, 43328, Note_on_c, 6, 59, 92
13, 43329, Note_on_c, 9, 38, 0
1, 43330, Tempo, 555556
6, 43331, Note_on_c, 4, 62, 127
13, 43333, Note_on_c, 9, 38, 127
13, 43333, Note_on_c, 9, 59, 127
7, 43334, Note_on_c, 6, 59, 0
1, 43335, End_track
1, 43335, Tempo, 487805
13, 43335, Note_on_c, 9, 57, 127
7, 43336, Note_on_c, 6, 61, 92
13, 43336, Note_on_c, 9, 38, 0
5, 43340, Note_on_c, 3, 81, 0
7, 43342, Note_on_c, 6, 61, 0
7, 43345, Note_on_c, 6, 62, 92
7, 43351, Note_on_c, 6, 62, 0
7, 43357, Note_on_c, 6, 64, 92
7, 43363, Note_on_c, 6, 64, 0
7, 43372, Note_on_c, 6, 66, 92
7, 43378, Note_on_c, 6, 66, 0
7, 43385, Note_on_c, 6, 67, 92
7, 43391, Note_on_c, 6, 67, 0
7, 43396, Note_on_c, 6, 69, 92
7, 43402, Note_on_c, 6, 69, 0
7, 43408, Note_on_c, 6, 71, 92
7, 43414, Note_on_c, 6, 71, 0
13, 43416, Note_on_c, 9, 59, 0
7, 43417, Note_on_c, 6, 73, 92
13, 43418, Note_on_c, 9, 57, 0
6, 43421, Note_on_c, 4, 62, 0
7, 43423, Note_on_c, 6, 73, 0
7, 43427, Note_on_c, 6, 74, 92
7, 43433, Note_on_c, 6, 74, 0
7, 43435, Note_on_c, 6, 76, 92
7, 43441, Note_on_c, 6, 76, 0
7, 43443, Note_on_c, 6, 81, 92
7, 43449, End_track
7, 43449, Note_on_c, 6, 81, 0
6, 43453, Note_on_c, 4, 69, 127
6, 43543, Note_on_c, 4, 69, 0
6, 43571, Note_on_c, 4, 67, 127
12, 43571, Note_on_c, 5, 50, 113
13, 43572, Note_on_c, 9, 38, 127
9, 43575, Note_on_c, 8, 67, 95
9, 43575, Note_on_c, 8, 74, 106
9, 43580, Note_on_c, 8, 69, 95
13, 43585, Note_on_c, 9, 38, 0
12, 43589, Note_on_c, 5, 50, 0
6, 43592, Note_on_c, 4, 67, 0
6, 43611, Note_on_c, 4, 66, 127
12, 43631, Note_on_c, 5, 45, 113
6, 43633, Note_on_c, 4, 66, 0
12, 43649, Note_on_c, 5, 45, 0
13, 43650, Note_on_c, 9, 38, 127
6, 43651, Note_on_c, 4, 64, 127
13, 43658, Note_on_c, 9, 38, 0
13, 43665, Note_on_c, 9, 38, 127
6, 43667, Note_on_c, 4, 64, 0
13, 43673, Note_on_c, 9, 38, 0
13, 43676, Note_on_c, 9, 38, 127
13, 43684, Note_on_c, 9, 38, 0
4, 43690, Note_on_c, 2, 67, 127
12, 43691, Note_on_c, 5, 50, 113
13, 43695, Note_on_c, 9, 38, 127
6, 43696, Note_on_c, 4, 67, 127
13, 43702, Note_on_c, 9, 38, 0
12, 43712, Note_on_c, 5, 50, 0
12, 43751, Note_on_c, 5, 45, 113
12, 43769, Note_on_c, 5, 45, 0
4, 43775, Note_on_c, 2, 67, 0
4, 43810, Note_on_c, 2, 74, 127
12, 43811, Note_on_c, 5, 50, 113
9, 43818, Note_on_c, 8, 95, 91
9, 43828, Note_on_c, 8, 93, 0
12, 43832, Note_on_c, 5, 50, 0
12, 43871, Note_on_c, 5, 45, 113
13, 43888, Note_on_c, 9, 38, 127
12, 43891, Note_on_c, 5, 45, 0
13, 43896, Note_on_c, 9, 38, 0
4, 43900, Note_on_c, 2, 74, 0
13, 43905, Note_on_c, 9, 38, 127
13, 43914, Note_on_c, 9, 38, 0
13, 43915, Note_on_c, 9, 38, 127
13, 43923, Note_on_c, 9, 38, 0
4, 43930, Note_on_c, 2, 72, 127
13, 43930, Note_on_c, 9, 38, 127
12, 43931, Note_on_c, 5, 50, 113
4, 43948, Note_on_c, 2, 72, 0
13, 43950, Note_on_c, 9, 38, 0
12, 43951, Note_on_c, 5, 50, 0
4, 43970, Note_on_c, 2, 71, 127
13, 43970, Note_on_c, 9, 38, 127
13, 43985, Note_on_c, 9, 38, 0
12, 43991, Note_on_c, 5, 45, 113
4, 43993, Note_on_c, 2, 71, 0
12, 44008, Note_on_c, 5, 45, 0
4, 44010, Note_on_c, 2, 69, 127
13, 44010, Note_on_c, 9, 38, 127
13, 44030, Note_on_c, 9, 38, 0
4, 44032, Note_on_c, 2, 69, 0
9, 44045, Note_on_c, 8, 67, 0
9, 44045, Note_on_c, 8, 74, 0
9, 44050, Note_on_c, 8, 69, 0
13, 44050, Note_on_c, 9, 38, 127
12, 44051, Note_on_c, 5, 50, 113
9, 44055, Note_on_c, 8, 72, 100
9, 44055, Note_on_c, 8, 79, 115
9, 44060, Note_on_c, 8, 100, 88
13, 44063, Note_on_c, 9, 38, 0
4, 44064, Note_on_c, 2, 72, 127
9, 44065, Note_on_c, 8, 74, 100
12, 44071, Note_on_c, 5, 50, 0
12, 44111, Note_on_c, 5, 45, 113
12, 44128, Note_on_c, 5, 45, 0
13, 44170, Note_on_c, 9, 38, 127
12, 44171, Note_on_c, 5, 50, 113
12, 44189, Note_on_c, 5, 50, 0
13, 44212, Note_on_c, 9, 38, 0
12, 44231, Note_on_c, 5, 45, 113
12, 44248, Note_on_c, 5, 45, 0
13, 44290, Note_on_c, 9, 38, 127
12, 44291, Note_on_c, 5, 50, 113
13, 44301, Note_on_c, 9, 38, 0
12, 44306, Note_on_c, 5, 50, 0
13, 44330, Note_on_c, 9, 38, 127
13, 44347, Note_on_c, 9, 38, 0
12, 44351, Note_on_c, 5, 45, 113
12, 44366, Note_on_c, 5, 45, 0
13, 44370, Note_on_c, 9, 38, 127
13, 44391, Note_on_c, 9, 38, 0
6, 44409, Note_on_c, 4, 67, 0
6, 44410, Note_on_c, 4, 76, 127
13, 44410, Note_on_c, 9, 38, 127
12, 44411, Note_on_c, 5, 50, 113
12, 44431, Note_on_c, 5, 50, 0
6, 44435, Note_on_c, 4, 76, 0
13, 44436, Note_on_c, 9, 38, 0
6, 44450, Note_on_c, 4, 74, 127
13, 44450, Note_on_c, 9, 38, 127
13, 44460, Note_on_c, 9, 38, 0
12, 44471, Note_on_c, 5, 45, 113
6, 44478, Note_on_c, 4, 74, 0
12, 44488, Note_on_c, 5, 45, 0
6, 44490, Note_on_c, 4, 72, 127
13, 44490, Note_on_c, 9, 38, 127
13, 44507, Note_on_c, 9, 38, 0
6, 44525, Note_on_c, 4, 72, 0
9, 44525, Note_on_c, 8, 72, 0
9, 44525, Note_on_c, 8, 79, 0
13, 44530, Note_on_c, 9, 38, 127
12, 44531, Note_on_c, 5, 50, 113
9, 44533, Note_on_c, 8, 105, 87
6, 44535, Note_on_c, 4, 77, 127
9, 44535, Note_on_c, 8, 74, 0
9, 44535, Note_on_c, 8, 77, 103
9, 44535, Note_on_c, 8, 79, 104
9, 44535, Note_on_c, 8, 84, 114
13, 44551, Note_on_c, 9, 38, 0
12, 44552, Note_on_c, 5, 50, 0
12, 44591, Note_on_c, 5, 45, 113
13, 44608, Note_on_c, 9, 38, 127
12, 44612, Note_on_c, 5, 45, 0
13, 44616, Note_on_c, 9, 38, 0
13, 44623, Note_on_c, 9, 38, 127
13, 44632, Note_on_c, 9, 38, 0
13, 44638, Note_on_c, 9, 38, 127
13, 44646, Note_on_c, 9, 38, 0
13, 44650, Note_on_c, 9, 38, 127
12, 44651, Note_on_c, 5, 50, 113
12, 44674, Note_on_c, 5, 50, 0
12, 44711, Note_on_c, 5, 45, 113
13, 44711, Note_on_c, 9, 38, 0
12, 44736, Note_on_c, 5, 45, 0
13, 44770, Note_on_c, 9, 38, 127
12, 44771, Note_on_c, 5, 50, 113
13, 44785, Note_on_c, 9, 38, 0
12, 44791, Note_on_c, 5, 50, 0
13, 44810, Note_on_c, 9, 38, 127
13, 44828, Note_on_c, 9, 38, 0
12, 44831, Note_on_c, 5, 45, 113
13, 44850, Note_on_c, 9, 38, 127
12, 44852, Note_on_c, 5, 45, 0
6, 44865, Note_on_c, 4, 77, 0
13, 44872, Note_on_c, 9, 38, 0
13, 44890, Note_on_c, 9, 38, 127
12, 44891, Note_on_c, 5, 50, 113
6, 44895, Note_on_c, 4, 72, 127
5, 44900, Note_on_c, 3, 84, 127
12, 44912, Note_on_c, 5, 50, 0
13, 44913, Note_on_c, 9, 38, 0
5, 44916, Note_on_c, 3, 84, 0
6, 44916, Note_on_c, 4, 72, 0
13, 44930, Note_on_c, 9, 38, 127
9, 44931, Note_on_c, 8, 81, 123
6, 44938, Note_on_c, 4, 71, 127
5, 44943, Note_on_c, 3, 83, 127
13, 44945, Note_on_c, 9, 38, 0
9, 44950, Note_on_c, 8, 83, 123
12, 44950, Note_on_c, 5, 45, 113
5, 44958, Note_on_c, 3, 83, 0
6, 44958, Note_on_c, 4, 71, 0
9, 44961, Note_on_c, 8, 81, 0
9, 44969, Note_on_c, 8, 95, 0
9, 44970, Note_on_c, 8, 100, 0
9, 44970, Note_on_c, 8, 84, 123
13, 44970, Note_on_c, 9, 38, 127
5, 44973, Note_on_c, 3, 81, 127
6, 44978, Note_on_c, 4, 69, 127
9, 44985, Note_on_c, 8, 83, 0
5, 44989, Note_on_c, 3, 81, 0
9, 44991, Note_on_c, 8, 85, 123
12, 44993, Note_on_c, 5, 45, 0
4, 44995, Note_on_c, 2, 72, 0
6, 44999, Note_on_c, 4, 69, 0
13, 45002, Note_on_c, 9, 38, 0
10, 45003, Note_on_c, 10, 38, 0
9, 45005, Note_on_c, 8, 84, 0
9, 45010, Note_on_c, 8, 77, 0
9, 45010, Note_on_c, 8, 79, 0
9, 45010, Note_on_c, 8, 81, 123
9, 45010, Note_on_c, 8, 86, 123
10, 45010, Note_on_c, 10, 26, 0
13, 45010, Note_on_c, 9, 38, 127
9, 45011, Note_on_c, 8, 74, 123
5, 45013, Note_on_c, 3, 86, 127
13, 45013, Note_on_c, 9, 57, 125
5, 45020, Note_on_c, 3, 93, 100
9, 45026, Note_on_c, 8, 85, 0
6, 45028, Note_on_c, 4, 74, 127
13, 45030, Note_on_c, 9, 38, 0
9, 45034, Note_on_c, 8, 105, 0
9, 45087, Note_on_c, 8, 81, 0
9, 45087, Note_on_c, 8, 86, 0
9, 45088, Note_on_c, 8, 74, 0
13, 45095, Note_on_c, 9, 57, 0
5, 45120, Note_on_c, 3, 86, 0
5, 45125, Note_on_c, 3, 93, 0
10, 45125, Note_on_c, 10, 38, 106
4, 45130, Note_on_c, 2, 62, 127
5, 45130, Note_on_c, 3, 74, 127
6, 45130, Note_on_c, 4, 74, 0
13, 45130, Note_on_c, 9, 38, 127
6, 45131, Note_on_c, 4, 50, 127
9, 45131, Note_on_c, 8, 38, 124
9, 45131, Note_on_c, 8, 50, 124
4, 45139, Note_on_c, 2, 62, 0
5, 45140, Note_on_c, 3, 74, 0
13, 45140, Note_on_c, 9, 38, 0
6, 45143, Note_on_c, 4, 50, 0
9, 45144, Note_on_c, 8, 38, 0
9, 45144, Note_on_c, 8, 50, 0
10, 45154, Note_on_c, 10, 38, 0
10, 45165, Note_on_c, 10, 38, 106
4, 45170, Note_on_c, 2, 62, 127
5, 45170, Note_on_c, 3, 74, 127
12, 45170, Note_on_c, 5, 50, 105
13, 45170, Note_on_c, 9, 38, 127
6, 45171, Note_on_c, 4, 50, 127
9, 45171, Note_on_c, 8, 38, 124
9, 45171, Note_on_c, 8, 50, 124
12, 45171, Note_on_c, 5, 50, 105
12, 45172, Note_on_c, 5, 50, 0
12, 45172, Note_on_c, 5, 50, 0
4, 45180, Note_on_c, 2, 62, 0
13, 45181, Note_on_c, 9, 38, 0
9, 45184, Note_on_c, 8, 50, 0
5, 45186, Note_on_c, 3, 74, 0
9, 45186, Note_on_c, 8, 38, 0
6, 45187, Note_on_c, 4, 50, 0
10, 45192, Note_on_c, 10, 38, 0
10, 45206, Note_on_c, 10, 38, 106
4, 45210, Note_on_c, 2, 62, 127
5, 45210, Note_on_c, 3, 74, 127
13, 45210, Note_on_c, 9, 38, 127
6, 45211, Note_on_c, 4, 50, 127
9, 45211, Note_on_c, 8, 38, 124
9, 45211, Note_on_c, 8, 50, 124
12, 45211, Note_on_c, 5, 50, 105
4, 45221, Note_on_c, 2, 62, 0
13, 45223, Note_on_c, 9, 38, 0
5, 45224, Note_on_c, 3, 74, 0
9, 45225, Note_on_c, 8, 38, 0
12, 45226, Note_on_c, 5, 50, 0
9, 45227, Note_on_c, 8, 50, 0
6, 45230, Note_on_c, 4, 50, 0
10, 45232, Note_on_c, 10, 38, 0
10, 45246, Note_on_c, 10, 38, 106
4, 45250, Note_on_c, 2, 62, 127
5, 45250, Note_on_c, 3, 74, 127
13, 45250, Note_on_c, 9, 38, 127
6, 45251, Note_on_c, 4, 50, 127
9, 45251, Note_on_c, 8, 38, 124
9, 45251, Note_on_c, 8, 50, 124
12, 45251, Note_on_c, 5, 50, 105
5, 45284, End_track
5, 45284, Note_on_c, 3, 74, 0
12, 45288, End_track
12, 45288, Note_on_c, 5, 50, 0
6, 45289, End_track
6, 45289, Note_on_c, 4, 50, 0
9, 45295, Note_on_c, 8, 38, 0
9, 45297, Note_on_c, 8, 50, 0
13, 45303, End_track
13, 45303, Note_on_c, 9, 38, 0
4, 45306, End_track
4, 45306, Note_on_c, 2, 62, 0
10, 45307, End_track
10, 45307, Note_on_c, 10, 38, 0
9, 45405, End_track
9, 45405, Note_on_c, 8, 84, 0
