0, 0, Header, 0, 1, 384
1, 0, Start_track
1, 0, Title_t, "I've Had the Time of My Life"
1, 0, Title_t, "Theme from Dirty Dancing"
1, 0, Time_signature, 4, 2, 24, 8
1, 0, Key_signature, 0, "major"
1, 0, Tempo, 555556
1, 4, MIDI_port, 0
1, 4, System_exclusive, 5, 126, 127, 9, 1, 247
1, 4, System_exclusive, 10, 65, 16, 66, 18, 64, 0, 127, 0, 65, 247
1, 4, System_exclusive, 34, 65, 16, 69, 18, 16, 0, 0, 80, 114, 111, 103, 114, 97, 109, 109, 101, 100, 32, 98, 121, 32, 72, 97, 110, 100, 115, 32, 79, 110, 46, 32, 32, 14, 247
1, 4, System_exclusive, 25, 65, 16, 66, 18, 64, 1, 16, 2, 0, 1, 3, 2, 2, 2, 2, 2, 2, 1, 1, 1, 1, 1, 1, 23, 247
1, 4, System_exclusive, 10, 65, 16, 66, 18, 64, 1, 51, 90, 50, 247
1, 4, System_exclusive, 10, 65, 16, 66, 18, 64, 1, 58, 90, 43, 247
1, 4, System_exclusive, 73, 65, 16, 69, 18, 16, 1, 0, 3, 20, 20, 23, 30, 22, 23, 20, 3, 2, 2, 2, 2, 3, 0, 0, 16, 31, 25, 25, 25, 25, 25, 0, 27, 10, 10, 10, 10, 26, 0, 0, 28, 23, 22, 22, 23, 28, 0, 3, 24, 8, 8, 8, 8, 8, 0, 0, 0, 31, 0, 0, 31, 31, 31, 31, 0, 0, 0, 0, 0, 0, 0, 0, 71, 247
1, 4, MIDI_port, 0
1, 456, Control_c, 1, 120, 0
1, 460, Control_c, 1, 121, 0
1, 472, Program_c, 1, 38
1, 476, Control_c, 1, 1, 0
1, 480, Pitch_bend_c, 1, 8192
1, 484, Control_c, 1, 64, 0
1, 488, Control_c, 1, 7, 100
1, 492, Control_c, 1, 11, 127
1, 496, Control_c, 1, 10, 44
1, 500, Control_c, 1, 91, 70
1, 504, Control_c, 1, 93, 0
1, 516, Control_c, 1, 101, 0
1, 516, Control_c, 1, 100, 0
1, 516, Control_c, 1, 6, 12
1, 516, Control_c, 1, 38, 0
1, 528, Control_c, 2, 120, 0
1, 532, Control_c, 2, 121, 0
1, 544, Program_c, 2, 0
1, 548, Control_c, 2, 1, 0
1, 552, Pitch_bend_c, 2, 8192
1, 556, Control_c, 2, 64, 0
1, 560, Control_c, 2, 7, 100
1, 564, Control_c, 2, 11, 127
1, 568, Control_c, 2, 10, 44
1, 572, Control_c, 2, 91, 70
1, 576, Control_c, 2, 93, 0
1, 588, Control_c, 2, 101, 0
1, 588, Control_c, 2, 100, 0
1, 588, Control_c, 2, 6, 12
1, 588, Control_c, 2, 38, 0
1, 600, Control_c, 3, 120, 0
1, 604, Control_c, 3, 121, 0
1, 616, Program_c, 3, 4
1, 620, Control_c, 3, 1, 0
1, 624, Pitch_bend_c, 3, 8192
1, 628, Control_c, 3, 64, 0
1, 632, Control_c, 3, 7, 100
1, 636, Control_c, 3, 11, 127
1, 640, Control_c, 3, 10, 84
1, 644, Control_c, 3, 91, 70
1, 648, Control_c, 3, 93, 0
1, 660, Control_c, 3, 101, 0
1, 660, Control_c, 3, 100, 0
1, 660, Control_c, 3, 6, 12
1, 660, Control_c, 3, 38, 0
1, 672, Control_c, 4, 120, 0
1, 676, Control_c, 4, 121, 0
1, 688, Program_c, 4, 27
1, 692, Control_c, 4, 1, 0
1, 696, Pitch_bend_c, 4, 8192
1, 700, Control_c, 4, 64, 0
1, 704, Control_c, 4, 7, 100
1, 708, Control_c, 4, 11, 127
1, 712, Control_c, 4, 10, 44
1, 716, Control_c, 4, 91, 95
1, 720, Control_c, 4, 93, 35
1, 732, Control_c, 4, 101, 0
1, 732, Control_c, 4, 100, 0
1, 732, Control_c, 4, 6, 12
1, 732, Control_c, 4, 38, 0
1, 744, Control_c, 5, 120, 0
1, 748, Control_c, 5, 121, 0
1, 760, Program_c, 5, 28
1, 764, Control_c, 5, 1, 0
1, 768, Pitch_bend_c, 5, 8192
1, 772, Control_c, 5, 64, 0
1, 776, Control_c, 5, 7, 100
1, 780, Control_c, 5, 11, 127
1, 784, Control_c, 5, 10, 94
1, 788, Control_c, 5, 91, 100
1, 792, Control_c, 5, 93, 0
1, 804, Control_c, 5, 101, 0
1, 804, Control_c, 5, 100, 0
1, 804, Control_c, 5, 6, 12
1, 804, Control_c, 5, 38, 0
1, 816, Control_c, 6, 120, 0
1, 820, Control_c, 6, 121, 0
1, 832, Program_c, 6, 48
1, 836, Control_c, 6, 1, 0
1, 840, Pitch_bend_c, 6, 8192
1, 844, Control_c, 6, 64, 0
1, 848, Control_c, 6, 7, 100
1, 852, Control_c, 6, 11, 127
1, 856, Control_c, 6, 10, 64
1, 860, Control_c, 6, 91, 70
1, 864, Control_c, 6, 93, 0
1, 876, Control_c, 6, 101, 0
1, 876, Control_c, 6, 100, 0
1, 876, Control_c, 6, 6, 12
1, 876, Control_c, 6, 38, 0
1, 888, Control_c, 7, 120, 0
1, 892, Control_c, 7, 121, 0
1, 904, Program_c, 7, 48
1, 908, Control_c, 7, 1, 0
1, 912, Pitch_bend_c, 7, 8192
1, 916, Control_c, 7, 64, 0
1, 920, Control_c, 7, 7, 100
1, 924, Control_c, 7, 11, 127
1, 928, Control_c, 7, 10, 44
1, 932, Control_c, 7, 91, 80
1, 936, Control_c, 7, 93, 0
1, 948, Control_c, 7, 101, 0
1, 948, Control_c, 7, 100, 0
1, 948, Control_c, 7, 6, 12
1, 948, Control_c, 7, 38, 0
1, 960, Control_c, 8, 120, 0
1, 964, Control_c, 8, 121, 0
1, 976, Program_c, 8, 88
1, 980, Control_c, 8, 1, 0
1, 984, Pitch_bend_c, 8, 8192
1, 988, Control_c, 8, 64, 0
1, 992, Control_c, 8, 7, 100
1, 996, Control_c, 8, 11, 127
1, 1000, Control_c, 8, 10, 64
1, 1004, Control_c, 8, 91, 100
1, 1008, Control_c, 8, 93, 0
1, 1020, Control_c, 8, 101, 0
1, 1020, Control_c, 8, 100, 0
1, 1020, Control_c, 8, 6, 12
1, 1020, Control_c, 8, 38, 0
1, 1032, Control_c, 9, 120, 0
1, 1036, Control_c, 9, 121, 0
1, 1048, Program_c, 9, 0
1, 1052, Control_c, 9, 1, 0
1, 1056, Pitch_bend_c, 9, 8192
1, 1060, Control_c, 9, 64, 0
1, 1064, Control_c, 9, 7, 100
1, 1068, Control_c, 9, 11, 127
1, 1072, Control_c, 9, 10, 64
1, 1076, Control_c, 9, 91, 75
1, 1080, Control_c, 9, 93, 0
1, 1092, Control_c, 9, 101, 0
1, 1092, Control_c, 9, 100, 0
1, 1092, Control_c, 9, 6, 12
1, 1092, Control_c, 9, 38, 0
1, 1104, Control_c, 10, 120, 0
1, 1108, Control_c, 10, 121, 0
1, 1120, Program_c, 10, 65
1, 1124, Control_c, 10, 1, 0
1, 1128, Pitch_bend_c, 10, 8192
1, 1132, Control_c, 10, 64, 0
1, 1136, Control_c, 10, 7, 115
1, 1140, Control_c, 10, 11, 127
1, 1144, Control_c, 10, 10, 34
1, 1148, Control_c, 10, 91, 110
1, 1152, Control_c, 10, 93, 0
1, 1164, Control_c, 10, 101, 0
1, 1164, Control_c, 10, 100, 0
1, 1164, Control_c, 10, 6, 12
1, 1164, Control_c, 10, 38, 0
1, 1176, Control_c, 11, 120, 0
1, 1180, Control_c, 11, 121, 0
1, 1192, Program_c, 11, 65
1, 1196, Control_c, 11, 1, 0
1, 1200, Pitch_bend_c, 11, 8192
1, 1204, Control_c, 11, 64, 0
1, 1208, Control_c, 11, 7, 105
1, 1212, Control_c, 11, 11, 127
1, 1216, Control_c, 11, 10, 104
1, 1220, Control_c, 11, 91, 100
1, 1224, Control_c, 11, 93, 0
1, 1236, Control_c, 11, 101, 0
1, 1236, Control_c, 11, 100, 0
1, 1236, Control_c, 11, 6, 12
1, 1236, Control_c, 11, 38, 0
1, 1248, Control_c, 12, 120, 0
1, 1252, Control_c, 12, 121, 0
1, 1264, Program_c, 12, 61
1, 1268, Control_c, 12, 1, 0
1, 1272, Pitch_bend_c, 12, 8192
1, 1276, Control_c, 12, 64, 0
1, 1280, Control_c, 12, 7, 125
1, 1284, Control_c, 12, 11, 127
1, 1288, Control_c, 12, 10, 24
1, 1292, Control_c, 12, 91, 110
1, 1296, Control_c, 12, 93, 0
1, 1308, Control_c, 12, 101, 0
1, 1308, Control_c, 12, 100, 0
1, 1308, Control_c, 12, 6, 12
1, 1308, Control_c, 12, 38, 0
1, 1320, Control_c, 13, 120, 0
1, 1324, Control_c, 13, 121, 0
1, 1336, Program_c, 13, 53
1, 1340, Control_c, 13, 1, 0
1, 1344, Pitch_bend_c, 13, 8192
1, 1348, Control_c, 13, 64, 0
1, 1352, Control_c, 13, 7, 120
1, 1356, Control_c, 13, 11, 127
1, 1360, Control_c, 13, 10, 64
1, 1364, Control_c, 13, 91, 100
1, 1368, Control_c, 13, 93, 40
1, 1380, Control_c, 13, 101, 0
1, 1380, Control_c, 13, 100, 0
1, 1380, Control_c, 13, 6, 12
1, 1380, Control_c, 13, 38, 0
1, 1392, Control_c, 14, 120, 0
1, 1396, Control_c, 14, 121, 0
1, 1408, Program_c, 14, 75
1, 1412, Control_c, 14, 1, 0
1, 1416, Pitch_bend_c, 14, 8192
1, 1420, Control_c, 14, 64, 0
1, 1424, Control_c, 14, 7, 100
1, 1428, Control_c, 14, 11, 127
1, 1432, Control_c, 14, 10, 94
1, 1436, Control_c, 14, 91, 110
1, 1440, Control_c, 14, 93, 0
1, 1452, Control_c, 14, 101, 0
1, 1452, Control_c, 14, 100, 0
1, 1452, Control_c, 14, 6, 12
1, 1452, Control_c, 14, 38, 0
1, 1464, Control_c, 15, 120, 0
1, 1468, Control_c, 15, 121, 0
1, 1480, Program_c, 15, 22
1, 1484, Control_c, 15, 1, 0
1, 1488, Pitch_bend_c, 15, 8192
1, 1492, Control_c, 15, 64, 0
1, 1496, Control_c, 15, 7, 100
1, 1500, Control_c, 15, 11, 127
1, 1504, Control_c, 15, 10, 34
1, 1508, Control_c, 15, 91, 110
1, 1512, Control_c, 15, 93, 0
1, 1524, Control_c, 15, 101, 0
1, 1524, Control_c, 15, 100, 0
1, 1524, Control_c, 15, 6, 12
1, 1524, Control_c, 15, 38, 0
1, 1536, Tempo, 555556
1, 1926, Note_on_c, 9, 42, 80
1, 1930, Note_on_c, 9, 42, 0
1, 2310, Note_on_c, 9, 42, 80
1, 2314, Note_on_c, 9, 42, 0
1, 2686, Note_on_c, 9, 42, 80
1, 2690, Note_on_c, 9, 42, 0
1, 2973, Control_c, 6, 11, 1
1, 3064, Note_on_c, 6, 40, 73
1, 3072, Note_on_c, 6, 52, 72
1, 3076, Note_on_c, 6, 64, 68
1, 3082, Note_on_c, 6, 56, 73
1, 3084, Note_on_c, 6, 59, 73
1, 3136, Control_c, 6, 11, 3
1, 3200, Control_c, 6, 11, 5
1, 3264, Control_c, 6, 11, 7
1, 3328, Control_c, 6, 11, 9
1, 3392, Control_c, 6, 11, 11
1, 3456, Control_c, 6, 11, 14
1, 3520, Control_c, 6, 11, 16
1, 3584, Control_c, 6, 11, 18
1, 3648, Control_c, 6, 11, 20
1, 3712, Control_c, 6, 11, 22
1, 3776, Control_c, 6, 11, 24
1, 3840, Control_c, 6, 11, 26
1, 3904, Control_c, 6, 11, 28
1, 3968, Control_c, 6, 11, 30
1, 4032, Control_c, 6, 11, 32
1, 4096, Control_c, 6, 11, 35
1, 4160, Control_c, 6, 11, 37
1, 4224, Control_c, 6, 11, 39
1, 4288, Control_c, 6, 11, 41
1, 4352, Control_c, 6, 11, 43
1, 4416, Control_c, 6, 11, 45
1, 4480, Control_c, 6, 11, 47
1, 4544, Control_c, 6, 11, 49
1, 4608, Control_c, 6, 11, 51
1, 4672, Control_c, 6, 11, 53
1, 4736, Control_c, 6, 11, 55
1, 4800, Control_c, 6, 11, 58
1, 4864, Control_c, 6, 11, 60
1, 4928, Control_c, 6, 11, 62
1, 4992, Control_c, 6, 11, 64
1, 5056, Control_c, 6, 11, 66
1, 5120, Control_c, 6, 11, 68
1, 5184, Control_c, 6, 11, 70
1, 5248, Control_c, 6, 11, 72
1, 5312, Control_c, 6, 11, 74
1, 5344, Note_on_c, 6, 40, 0
1, 5376, Control_c, 6, 11, 76
1, 5440, Control_c, 6, 11, 79
1, 5504, Control_c, 6, 11, 81
1, 5568, Control_c, 6, 11, 83
1, 5568, Control_c, 15, 1, 15
1, 5632, Control_c, 6, 11, 85
1, 5696, Control_c, 6, 11, 87
1, 5758, Note_on_c, 15, 59, 103
1, 5760, Control_c, 6, 11, 89
1, 5824, Control_c, 6, 11, 91
1, 5888, Control_c, 6, 11, 93
1, 5952, Control_c, 6, 11, 95
1, 6016, Control_c, 6, 11, 97
1, 6080, Control_c, 6, 11, 99
1, 6100, Note_on_c, 8, 68, 77
1, 6118, Note_on_c, 15, 59, 0
1, 6140, Note_on_c, 3, 64, 86
1, 6144, Tempo, 550408
1, 6144, Control_c, 6, 11, 102
1, 6144, Pitch_bend_c, 15, 7296
1, 6146, Note_on_c, 9, 51, 93
1, 6146, Note_on_c, 15, 64, 108
1, 6148, Note_on_c, 8, 71, 75
1, 6150, Note_on_c, 9, 51, 0
1, 6152, Pitch_bend_c, 15, 7360
1, 6156, Note_on_c, 1, 28, 110
1, 6156, Pitch_bend_c, 15, 7424
1, 6160, Pitch_bend_c, 15, 7488
1, 6164, Pitch_bend_c, 15, 7552
1, 6168, Pitch_bend_c, 15, 7616
1, 6172, Pitch_bend_c, 15, 7680
1, 6176, Pitch_bend_c, 15, 7744
1, 6180, Pitch_bend_c, 15, 7808
1, 6184, Pitch_bend_c, 15, 7872
1, 6186, Note_on_c, 8, 76, 83
1, 6188, Pitch_bend_c, 15, 7936
1, 6192, Pitch_bend_c, 15, 8000
1, 6196, Pitch_bend_c, 15, 8064
1, 6200, Pitch_bend_c, 15, 8128
1, 6204, Pitch_bend_c, 15, 8192
1, 6208, Control_c, 6, 11, 104
1, 6272, Control_c, 6, 11, 106
1, 6336, Control_c, 6, 11, 108
1, 6338, Note_on_c, 3, 76, 87
1, 6400, Control_c, 6, 11, 110
1, 6432, Control_c, 15, 1, 28
1, 6464, Control_c, 6, 11, 112
1, 6518, Note_on_c, 3, 76, 0
1, 6528, Control_c, 6, 11, 114
1, 6531, Control_c, 15, 1, 70
1, 6536, Note_on_c, 3, 78, 82
1, 6592, Control_c, 6, 11, 116
1, 6648, Control_c, 15, 1, 55
1, 6656, Control_c, 6, 11, 118
1, 6716, Note_on_c, 3, 78, 0
1, 6716, Note_on_c, 3, 71, 86
1, 6720, Control_c, 6, 11, 120
1, 6735, Control_c, 15, 1, 37
1, 6784, Control_c, 6, 11, 123
1, 6848, Control_c, 6, 11, 127
1, 6860, Note_on_c, 3, 64, 0
1, 6896, Note_on_c, 3, 71, 0
1, 6916, Note_on_c, 3, 64, 86
1, 7098, Note_on_c, 3, 76, 88
1, 7278, Note_on_c, 3, 76, 0
1, 7286, Note_on_c, 15, 64, 0
1, 7287, Control_c, 15, 1, 15
1, 7292, Note_on_c, 3, 78, 82
1, 7472, Note_on_c, 3, 78, 0
1, 7492, Note_on_c, 3, 71, 88
1, 7606, Note_on_c, 8, 76, 0
1, 7616, Note_on_c, 8, 71, 0
1, 7616, Note_on_c, 8, 68, 0
1, 7634, Note_on_c, 8, 68, 77
1, 7636, Note_on_c, 3, 64, 0
1, 7664, Note_on_c, 6, 52, 0
1, 7666, Note_on_c, 1, 25, 112
1, 7672, Note_on_c, 3, 71, 0
1, 7676, Note_on_c, 1, 28, 0
1, 7676, Note_on_c, 3, 61, 85
1, 7680, Control_c, 15, 1, 28
1, 7682, Note_on_c, 15, 64, 104
1, 7684, Note_on_c, 8, 71, 82
1, 7684, Note_on_c, 9, 51, 89
1, 7686, Note_on_c, 6, 49, 69
1, 7688, Note_on_c, 9, 51, 0
1, 7728, Note_on_c, 8, 76, 83
1, 7779, Control_c, 15, 1, 70
1, 7878, Note_on_c, 3, 76, 80
1, 7896, Control_c, 15, 1, 55
1, 7983, Control_c, 15, 1, 37
1, 8058, Note_on_c, 3, 76, 0
1, 8066, Note_on_c, 3, 78, 84
1, 8151, Control_c, 15, 1, 15
1, 8222, Note_on_c, 15, 64, 0
1, 8246, Note_on_c, 3, 78, 0
1, 8248, Note_on_c, 3, 71, 80
1, 8254, Note_on_c, 15, 64, 112
1, 8396, Note_on_c, 3, 61, 0
1, 8428, Note_on_c, 3, 71, 0
1, 8434, Note_on_c, 15, 64, 0
1, 8446, Note_on_c, 15, 64, 105
1, 8454, Note_on_c, 3, 61, 79
1, 8642, Note_on_c, 3, 76, 85
1, 8706, Note_on_c, 15, 64, 0
1, 8732, Note_on_c, 15, 66, 103
1, 8822, Note_on_c, 3, 76, 0
1, 8834, Note_on_c, 3, 78, 86
1, 8992, Note_on_c, 15, 66, 0
1, 9014, Note_on_c, 3, 78, 0
1, 9026, Note_on_c, 3, 71, 84
1, 9028, Note_on_c, 15, 68, 111
1, 9136, Note_on_c, 8, 76, 0
1, 9138, Note_on_c, 8, 68, 0
1, 9140, Note_on_c, 8, 71, 0
1, 9168, Note_on_c, 8, 66, 80
1, 9174, Note_on_c, 3, 61, 0
1, 9186, Note_on_c, 1, 25, 0
1, 9202, Note_on_c, 1, 26, 111
1, 9206, Note_on_c, 3, 71, 0
1, 9206, Note_on_c, 6, 49, 0
1, 9208, Note_on_c, 15, 68, 0
1, 9208, Note_on_c, 8, 69, 74
1, 9210, Note_on_c, 6, 56, 0
1, 9210, Note_on_c, 3, 62, 87
1, 9212, Note_on_c, 6, 59, 0
1, 9214, Note_on_c, 6, 50, 71
1, 9214, Note_on_c, 9, 51, 86
1, 9214, Note_on_c, 15, 69, 110
1, 9216, Pitch_bend_c, 15, 7296
1, 9218, Note_on_c, 9, 51, 0
1, 9222, Note_on_c, 6, 54, 66
1, 9224, Pitch_bend_c, 15, 7360
1, 9228, Note_on_c, 6, 57, 67
1, 9228, Pitch_bend_c, 15, 7424
1, 9232, Pitch_bend_c, 15, 7488
1, 9236, Pitch_bend_c, 15, 7552
1, 9240, Pitch_bend_c, 15, 7616
1, 9244, Pitch_bend_c, 15, 7680
1, 9248, Pitch_bend_c, 15, 7744
1, 9252, Pitch_bend_c, 15, 7808
1, 9256, Pitch_bend_c, 15, 7872
1, 9260, Pitch_bend_c, 15, 7936
1, 9264, Pitch_bend_c, 15, 8000
1, 9268, Pitch_bend_c, 15, 8064
1, 9272, Note_on_c, 8, 74, 75
1, 9272, Pitch_bend_c, 15, 8128
1, 9276, Pitch_bend_c, 15, 8192
1, 9316, Note_on_c, 15, 68, 103
1, 9318, Note_on_c, 15, 69, 0
1, 9398, Note_on_c, 3, 76, 83
1, 9414, Note_on_c, 15, 66, 105
1, 9420, Note_on_c, 15, 68, 0
1, 9504, Control_c, 15, 1, 28
1, 9578, Note_on_c, 3, 76, 0
1, 9598, Note_on_c, 3, 78, 87
1, 9603, Control_c, 15, 1, 70
1, 9720, Control_c, 15, 1, 55
1, 9778, Note_on_c, 3, 78, 0
1, 9784, Note_on_c, 3, 71, 82
1, 9807, Control_c, 15, 1, 37
1, 9930, Note_on_c, 3, 62, 0
1, 9964, Note_on_c, 3, 71, 0
1, 9975, Control_c, 15, 1, 15
1, 9986, Note_on_c, 3, 62, 82
1, 10170, Note_on_c, 15, 66, 0
1, 10172, Note_on_c, 3, 76, 87
1, 10352, Note_on_c, 3, 76, 0
1, 10364, Note_on_c, 15, 59, 108
1, 10370, Note_on_c, 3, 78, 80
1, 10544, Note_on_c, 15, 59, 0
1, 10550, Note_on_c, 3, 78, 0
1, 10556, Note_on_c, 3, 71, 88
1, 10562, Note_on_c, 15, 59, 107
1, 10692, Note_on_c, 8, 69, 0
1, 10696, Note_on_c, 8, 66, 0
1, 10706, Note_on_c, 3, 62, 0
1, 10716, Note_on_c, 8, 74, 0
1, 10722, Note_on_c, 1, 26, 0
1, 10736, Note_on_c, 6, 64, 0
1, 10736, Note_on_c, 3, 71, 0
1, 10742, Note_on_c, 15, 59, 0
1, 10744, Note_on_c, 6, 62, 70
1, 10752, Note_on_c, 9, 51, 92
1, 10752, Note_on_c, 15, 69, 107
1, 10756, Note_on_c, 9, 51, 0
1, 10760, Note_on_c, 3, 62, 87
1, 10762, Note_on_c, 1, 38, 118
1, 11112, Note_on_c, 15, 69, 0
1, 11136, Pitch_bend_c, 15, 7296
1, 11136, Note_on_c, 15, 69, 103
1, 11144, Pitch_bend_c, 15, 7360
1, 11148, Pitch_bend_c, 15, 7424
1, 11152, Pitch_bend_c, 15, 7488
1, 11156, Pitch_bend_c, 15, 7552
1, 11160, Pitch_bend_c, 15, 7616
1, 11164, Pitch_bend_c, 15, 7680
1, 11168, Pitch_bend_c, 15, 7744
1, 11172, Pitch_bend_c, 15, 7808
1, 11176, Pitch_bend_c, 15, 7872
1, 11180, Pitch_bend_c, 15, 7936
1, 11184, Pitch_bend_c, 15, 8000
1, 11188, Pitch_bend_c, 15, 8064
1, 11192, Pitch_bend_c, 15, 8128
1, 11196, Pitch_bend_c, 15, 8192
1, 11316, Note_on_c, 15, 69, 0
1, 11330, Note_on_c, 15, 68, 112
1, 11690, Note_on_c, 15, 68, 0
1, 11712, Note_on_c, 15, 66, 112
1, 11892, Note_on_c, 15, 66, 0
1, 11910, Note_on_c, 15, 64, 107
1, 12090, Note_on_c, 15, 64, 0
1, 12102, Note_on_c, 15, 66, 108
1, 12248, Note_on_c, 8, 68, 75
1, 12264, Note_on_c, 6, 62, 0
1, 12274, Note_on_c, 6, 50, 0
1, 12278, Note_on_c, 1, 28, 111
1, 12280, Note_on_c, 3, 62, 0
1, 12282, Note_on_c, 6, 54, 0
1, 12282, Note_on_c, 1, 38, 0
1, 12282, Note_on_c, 15, 66, 0
1, 12284, Note_on_c, 15, 64, 105
1, 12286, Note_on_c, 6, 59, 70
1, 12286, Note_on_c, 8, 71, 81
1, 12288, Note_on_c, 6, 57, 0
1, 12288, Note_on_c, 6, 56, 66
1, 12290, Note_on_c, 9, 51, 89
1, 12292, Note_on_c, 3, 64, 88
1, 12294, Note_on_c, 9, 51, 0
1, 12296, Note_on_c, 6, 52, 70
1, 12298, Note_on_c, 6, 64, 64
1, 12328, Note_on_c, 8, 76, 75
1, 12480, Control_c, 15, 1, 28
1, 12488, Note_on_c, 3, 76, 85
1, 12579, Control_c, 15, 1, 70
1, 12668, Note_on_c, 3, 76, 0
1, 12678, Note_on_c, 3, 78, 82
1, 12696, Control_c, 15, 1, 55
1, 12783, Control_c, 15, 1, 37
1, 12858, Note_on_c, 3, 78, 0
1, 12862, Note_on_c, 3, 71, 88
1, 12951, Control_c, 15, 1, 15
1, 13004, Note_on_c, 15, 64, 0
1, 13012, Note_on_c, 3, 64, 0
1, 13042, Note_on_c, 3, 71, 0
1, 13048, Note_on_c, 3, 64, 83
1, 13244, Note_on_c, 15, 59, 104
1, 13250, Note_on_c, 3, 76, 88
1, 13424, Note_on_c, 15, 59, 0
1, 13430, Note_on_c, 3, 76, 0
1, 13438, Note_on_c, 3, 78, 79
1, 13440, Pitch_bend_c, 15, 7296
1, 13442, Note_on_c, 15, 66, 108
1, 13448, Pitch_bend_c, 15, 7360
1, 13452, Pitch_bend_c, 15, 7424
1, 13456, Pitch_bend_c, 15, 7488
1, 13460, Pitch_bend_c, 15, 7552
1, 13464, Pitch_bend_c, 15, 7616
1, 13468, Pitch_bend_c, 15, 7680
1, 13472, Pitch_bend_c, 15, 7744
1, 13476, Pitch_bend_c, 15, 7808
1, 13480, Pitch_bend_c, 15, 7872
1, 13484, Pitch_bend_c, 15, 7936
1, 13488, Pitch_bend_c, 15, 8000
1, 13492, Pitch_bend_c, 15, 8064
1, 13496, Pitch_bend_c, 15, 8128
1, 13500, Pitch_bend_c, 15, 8192
1, 13618, Note_on_c, 3, 78, 0
1, 13636, Note_on_c, 3, 71, 85
1, 13730, Note_on_c, 8, 71, 0
1, 13736, Note_on_c, 8, 68, 0
1, 13740, Note_on_c, 8, 76, 0
1, 13768, Note_on_c, 3, 64, 0
1, 13780, Note_on_c, 8, 68, 77
1, 13798, Note_on_c, 1, 28, 0
1, 13802, Note_on_c, 15, 66, 0
1, 13808, Note_on_c, 6, 56, 0
1, 13816, Note_on_c, 3, 71, 0
1, 13824, Note_on_c, 9, 51, 93
1, 13824, Note_on_c, 15, 64, 112
1, 13826, Note_on_c, 1, 25, 115
1, 13828, Note_on_c, 9, 51, 0
1, 13828, Note_on_c, 3, 61, 80
1, 13832, Note_on_c, 8, 71, 75
1, 13834, Note_on_c, 6, 49, 66
1, 13862, Note_on_c, 8, 76, 77
1, 14016, Control_c, 15, 1, 28
1, 14022, Note_on_c, 3, 76, 86
1, 14115, Control_c, 15, 1, 70
1, 14202, Note_on_c, 3, 76, 0
1, 14216, Note_on_c, 3, 78, 79
1, 14232, Control_c, 15, 1, 55
1, 14319, Control_c, 15, 1, 37
1, 14394, Note_on_c, 3, 71, 85
1, 14396, Note_on_c, 3, 78, 0
1, 14487, Control_c, 15, 1, 15
1, 14544, Note_on_c, 15, 64, 0
1, 14548, Note_on_c, 3, 61, 0
1, 14574, Note_on_c, 3, 71, 0
1, 14590, Note_on_c, 3, 61, 86
1, 14776, Note_on_c, 15, 66, 109
1, 14782, Note_on_c, 3, 76, 85
1, 14962, Note_on_c, 3, 76, 0
1, 14970, Note_on_c, 3, 78, 85
1, 15136, Note_on_c, 15, 66, 0
1, 15150, Note_on_c, 3, 78, 0
1, 15162, Note_on_c, 3, 71, 80
1, 15174, Note_on_c, 15, 68, 103
1, 15278, Note_on_c, 8, 76, 0
1, 15288, Note_on_c, 8, 68, 0
1, 15296, Note_on_c, 8, 71, 0
1, 15310, Note_on_c, 3, 61, 0
1, 15320, Note_on_c, 8, 66, 80
1, 15342, Note_on_c, 3, 71, 0
1, 15346, Note_on_c, 6, 59, 0
1, 15346, Note_on_c, 1, 25, 0
1, 15354, Note_on_c, 6, 49, 0
1, 15354, Note_on_c, 15, 68, 0
1, 15354, Note_on_c, 6, 50, 64
1, 15354, Note_on_c, 6, 54, 71
1, 15354, Note_on_c, 8, 69, 77
1, 15356, Note_on_c, 6, 52, 0
1, 15356, Note_on_c, 9, 51, 91
1, 15358, Note_on_c, 15, 69, 108
1, 15360, Note_on_c, 9, 51, 0
1, 15360, Note_on_c, 1, 26, 112
1, 15362, Note_on_c, 6, 57, 72
1, 15368, Note_on_c, 3, 62, 88
1, 15412, Note_on_c, 8, 74, 77
1, 15454, Note_on_c, 15, 68, 107
1, 15462, Note_on_c, 15, 69, 0
1, 15544, Note_on_c, 3, 76, 88
1, 15556, Note_on_c, 15, 66, 111
1, 15558, Note_on_c, 15, 68, 0
1, 15648, Control_c, 15, 1, 28
1, 15724, Note_on_c, 3, 76, 0
1, 15746, Note_on_c, 3, 78, 85
1, 15747, Control_c, 15, 1, 70
1, 15864, Control_c, 15, 1, 55
1, 15926, Note_on_c, 3, 78, 0
1, 15928, Note_on_c, 3, 71, 80
1, 15951, Control_c, 15, 1, 37
1, 16088, Note_on_c, 3, 62, 0
1, 16108, Note_on_c, 3, 71, 0
1, 16119, Control_c, 15, 1, 15
1, 16124, Note_on_c, 3, 62, 88
1, 16312, Note_on_c, 15, 66, 0
1, 16326, Note_on_c, 3, 76, 85
1, 16504, Note_on_c, 15, 59, 108
1, 16506, Note_on_c, 3, 76, 0
1, 16520, Note_on_c, 3, 78, 83
1, 16684, Note_on_c, 15, 59, 0
1, 16700, Note_on_c, 3, 78, 0
1, 16700, Note_on_c, 15, 59, 109
1, 16708, Note_on_c, 3, 71, 88
1, 16786, Note_on_c, 8, 69, 0
1, 16796, Note_on_c, 8, 66, 0
1, 16800, Note_on_c, 8, 74, 0
1, 16844, Note_on_c, 3, 62, 0
1, 16880, Note_on_c, 15, 59, 0
1, 16880, Note_on_c, 1, 26, 0
1, 16882, Note_on_c, 6, 62, 68
1, 16888, Note_on_c, 3, 71, 0
1, 16890, Note_on_c, 6, 64, 0
1, 16892, Note_on_c, 3, 62, 86
1, 16894, Note_on_c, 9, 51, 88
1, 16894, Note_on_c, 15, 69, 103
1, 16896, Pitch_bend_c, 15, 7296
1, 16898, Note_on_c, 9, 51, 0
1, 16898, Note_on_c, 1, 38, 112
1, 16904, Pitch_bend_c, 15, 7360
1, 16908, Pitch_bend_c, 15, 7424
1, 16912, Pitch_bend_c, 15, 7488
1, 16916, Pitch_bend_c, 15, 7552
1, 16920, Pitch_bend_c, 15, 7616
1, 16924, Pitch_bend_c, 15, 7680
1, 16928, Pitch_bend_c, 15, 7744
1, 16932, Pitch_bend_c, 15, 7808
1, 16936, Pitch_bend_c, 15, 7872
1, 16940, Pitch_bend_c, 15, 7936
1, 16944, Pitch_bend_c, 15, 8000
1, 16948, Pitch_bend_c, 15, 8064
1, 16952, Pitch_bend_c, 15, 8128
1, 16956, Pitch_bend_c, 15, 8192
1, 17074, Note_on_c, 15, 69, 0
1, 17082, Note_on_c, 15, 69, 109
1, 17262, Note_on_c, 15, 69, 0
1, 17284, Note_on_c, 15, 69, 112
1, 17464, Note_on_c, 15, 69, 0
1, 17478, Note_on_c, 15, 69, 107
1, 17658, Note_on_c, 15, 69, 0
1, 17658, Note_on_c, 15, 68, 111
1, 17838, Note_on_c, 15, 68, 0
1, 17862, Note_on_c, 3, 81, 82
1, 17862, Note_on_c, 15, 66, 105
1, 18042, Note_on_c, 15, 66, 0
1, 18042, Note_on_c, 3, 81, 0
1, 18042, Note_on_c, 3, 78, 85
1, 18048, Pitch_bend_c, 14, 7296
1, 18048, Control_c, 15, 1, 28
1, 18050, Note_on_c, 14, 76, 109
1, 18050, Note_on_c, 15, 64, 110
1, 18056, Pitch_bend_c, 14, 7360
1, 18060, Pitch_bend_c, 14, 7424
1, 18064, Pitch_bend_c, 14, 7488
1, 18068, Pitch_bend_c, 14, 7552
1, 18072, Pitch_bend_c, 14, 7616
1, 18076, Pitch_bend_c, 14, 7680
1, 18080, Pitch_bend_c, 14, 7744
1, 18084, Pitch_bend_c, 14, 7808
1, 18088, Pitch_bend_c, 14, 7872
1, 18092, Pitch_bend_c, 14, 7936
1, 18096, Pitch_bend_c, 14, 8000
1, 18100, Pitch_bend_c, 14, 8064
1, 18104, Pitch_bend_c, 14, 8128
1, 18108, Pitch_bend_c, 14, 8192
1, 18147, Control_c, 15, 1, 70
1, 18222, Note_on_c, 3, 78, 0
1, 18230, Note_on_c, 14, 76, 0
1, 18234, Note_on_c, 3, 74, 80
1, 18238, Note_on_c, 14, 78, 110
1, 18264, Control_c, 15, 1, 55
1, 18338, Note_on_c, 6, 50, 0
1, 18351, Control_c, 15, 1, 37
1, 18388, Note_on_c, 8, 56, 83
1, 18402, Note_on_c, 6, 62, 0
1, 18412, Note_on_c, 3, 62, 0
1, 18414, Note_on_c, 3, 74, 0
1, 18414, Note_on_c, 6, 54, 0
1, 18418, Note_on_c, 14, 78, 0
1, 18418, Note_on_c, 1, 38, 0
1, 18418, Note_on_c, 6, 64, 71
1, 18422, Note_on_c, 6, 57, 0
1, 18422, Note_on_c, 8, 59, 80
1, 18428, Note_on_c, 6, 52, 72
1, 18430, Note_on_c, 9, 51, 86
1, 18432, Note_on_c, 3, 64, 83
1, 18434, Note_on_c, 9, 51, 0
1, 18434, Note_on_c, 6, 59, 73
1, 18434, Note_on_c, 14, 76, 116
1, 18436, Note_on_c, 6, 68, 66
1, 18440, Note_on_c, 1, 28, 112
1, 18480, Note_on_c, 8, 64, 78
1, 18519, Control_c, 15, 1, 15
1, 18590, Note_on_c, 15, 64, 0
1, 18616, Note_on_c, 8, 71, 75
1, 18620, Note_on_c, 3, 76, 81
1, 18624, Control_c, 14, 1, 28
1, 18723, Control_c, 14, 1, 70
1, 18796, Note_on_c, 8, 71, 0
1, 18800, Note_on_c, 3, 76, 0
1, 18812, Note_on_c, 3, 78, 82
1, 18820, Note_on_c, 8, 76, 83
1, 18840, Control_c, 14, 1, 55
1, 18927, Control_c, 14, 1, 37
1, 18992, Note_on_c, 3, 78, 0
1, 19000, Note_on_c, 8, 76, 0
1, 19008, Note_on_c, 8, 81, 79
1, 19014, Note_on_c, 3, 71, 85
1, 19152, Note_on_c, 3, 64, 0
1, 19188, Note_on_c, 8, 81, 0
1, 19192, Note_on_c, 8, 80, 78
1, 19194, Note_on_c, 3, 71, 0
1, 19206, Note_on_c, 3, 64, 79
1, 19392, Note_on_c, 3, 76, 88
1, 19479, Control_c, 14, 1, 15
1, 19554, Note_on_c, 14, 76, 0
1, 19572, Note_on_c, 3, 76, 0
1, 19588, Note_on_c, 3, 78, 86
1, 19768, Note_on_c, 3, 78, 0
1, 19778, Note_on_c, 3, 71, 83
1, 19864, Note_on_c, 8, 80, 0
1, 19890, Note_on_c, 8, 59, 0
1, 19900, Note_on_c, 8, 64, 0
1, 19908, Note_on_c, 8, 56, 0
1, 19916, Note_on_c, 8, 56, 78
1, 19926, Note_on_c, 3, 64, 0
1, 19948, Note_on_c, 6, 52, 0
1, 19958, Note_on_c, 3, 71, 0
1, 19958, Note_on_c, 3, 61, 86
1, 19960, Note_on_c, 1, 28, 0
1, 19960, Note_on_c, 6, 49, 73
1, 19968, Note_on_c, 9, 51, 84
1, 19968, Control_c, 14, 1, 28
1, 19968, Note_on_c, 14, 76, 110
1, 19972, Note_on_c, 9, 51, 0
1, 19972, Note_on_c, 1, 25, 113
1, 19976, Note_on_c, 8, 59, 75
1, 20012, Note_on_c, 8, 64, 83
1, 20067, Control_c, 14, 1, 70
1, 20156, Note_on_c, 8, 71, 75
1, 20166, Note_on_c, 3, 76, 86
1, 20184, Control_c, 14, 1, 55
1, 20271, Control_c, 14, 1, 37
1, 20336, Note_on_c, 8, 71, 0
1, 20346, Note_on_c, 3, 76, 0
1, 20352, Note_on_c, 3, 78, 79
1, 20358, Note_on_c, 8, 76, 75
1, 20439, Control_c, 14, 1, 15
1, 20508, Note_on_c, 14, 76, 0
1, 20532, Note_on_c, 3, 78, 0
1, 20534, Note_on_c, 8, 81, 74
1, 20538, Note_on_c, 8, 76, 0
1, 20538, Note_on_c, 14, 76, 113
1, 20550, Note_on_c, 3, 71, 81
1, 20678, Note_on_c, 3, 61, 0
1, 20714, Note_on_c, 8, 81, 0
1, 20718, Note_on_c, 14, 76, 0
1, 20730, Note_on_c, 3, 71, 0
1, 20736, Note_on_c, 8, 80, 79
1, 20736, Note_on_c, 14, 76, 112
1, 20740, Note_on_c, 3, 61, 88
1, 20930, Note_on_c, 3, 76, 83
1, 20996, Note_on_c, 14, 76, 0
1, 21020, Note_on_c, 14, 78, 109
1, 21110, Note_on_c, 3, 76, 0
1, 21128, Note_on_c, 3, 78, 88
1, 21280, Note_on_c, 14, 78, 0
1, 21306, Note_on_c, 14, 80, 114
1, 21308, Note_on_c, 3, 78, 0
1, 21308, Note_on_c, 3, 71, 79
1, 21424, Note_on_c, 8, 64, 0
1, 21428, Note_on_c, 8, 80, 0
1, 21428, Note_on_c, 8, 56, 0
1, 21448, Note_on_c, 8, 59, 0
1, 21452, Note_on_c, 8, 54, 74
1, 21460, Note_on_c, 3, 61, 0
1, 21478, Note_on_c, 6, 64, 0
1, 21480, Note_on_c, 6, 49, 0
1, 21486, Note_on_c, 14, 80, 0
1, 21488, Note_on_c, 3, 71, 0
1, 21490, Note_on_c, 6, 57, 72
1, 21492, Note_on_c, 1, 25, 0
1, 21494, Note_on_c, 6, 59, 0
1, 21494, Note_on_c, 6, 66, 67
1, 21496, Note_on_c, 6, 68, 0
1, 21496, Note_on_c, 6, 50, 69
1, 21496, Note_on_c, 14, 81, 117
1, 21498, Note_on_c, 9, 51, 90
1, 21502, Note_on_c, 9, 51, 0
1, 21502, Note_on_c, 8, 57, 74
1, 21504, Pitch_bend_c, 14, 7296
1, 21506, Note_on_c, 1, 26, 113
1, 21510, Note_on_c, 3, 62, 84
1, 21510, Note_on_c, 6, 62, 65
1, 21512, Pitch_bend_c, 14, 7360
1, 21516, Pitch_bend_c, 14, 7424
1, 21520, Pitch_bend_c, 14, 7488
1, 21524, Pitch_bend_c, 14, 7552
1, 21528, Pitch_bend_c, 14, 7616
1, 21532, Pitch_bend_c, 14, 7680
1, 21536, Pitch_bend_c, 14, 7744
1, 21540, Pitch_bend_c, 14, 7808
1, 21544, Pitch_bend_c, 14, 7872
1, 21548, Pitch_bend_c, 14, 7936
1, 21552, Pitch_bend_c, 14, 8000
1, 21554, Note_on_c, 8, 62, 78
1, 21556, Pitch_bend_c, 14, 8064
1, 21560, Pitch_bend_c, 14, 8128
1, 21564, Pitch_bend_c, 14, 8192
1, 21692, Note_on_c, 3, 76, 80
1, 21692, Note_on_c, 8, 69, 78
1, 21756, Note_on_c, 14, 81, 0
1, 21790, Note_on_c, 14, 80, 118
1, 21872, Note_on_c, 3, 76, 0
1, 21878, Note_on_c, 8, 74, 82
1, 21882, Note_on_c, 14, 78, 112
1, 21888, Note_on_c, 8, 69, 0
1, 21888, Control_c, 14, 1, 28
1, 21894, Note_on_c, 14, 80, 0
1, 21894, Note_on_c, 3, 78, 82
1, 21987, Control_c, 14, 1, 70
1, 22058, Note_on_c, 8, 74, 0
1, 22074, Note_on_c, 3, 78, 0
1, 22074, Note_on_c, 3, 71, 79
1, 22074, Note_on_c, 8, 80, 82
1, 22104, Control_c, 14, 1, 55
1, 22191, Control_c, 14, 1, 37
1, 22230, Note_on_c, 3, 62, 0
1, 22242, Note_on_c, 14, 78, 0
1, 22254, Note_on_c, 3, 71, 0
1, 22254, Note_on_c, 8, 80, 0
1, 22264, Note_on_c, 3, 62, 85
1, 22272, Note_on_c, 8, 78, 79
1, 22359, Control_c, 14, 1, 15
1, 22456, Note_on_c, 3, 76, 79
1, 22636, Note_on_c, 3, 76, 0
1, 22656, Note_on_c, 3, 78, 82
1, 22658, Note_on_c, 14, 71, 110
1, 22836, Note_on_c, 3, 78, 0
1, 22838, Note_on_c, 14, 71, 0
1, 22840, Note_on_c, 3, 71, 84
1, 22854, Note_on_c, 14, 71, 118
1, 22956, Note_on_c, 8, 54, 0
1, 22958, Note_on_c, 8, 57, 0
1, 22970, Note_on_c, 8, 62, 0
1, 22984, Note_on_c, 3, 62, 0
1, 23010, Note_on_c, 6, 57, 0
1, 23012, Note_on_c, 8, 78, 0
1, 23014, Note_on_c, 6, 66, 0
1, 23016, Note_on_c, 6, 50, 0
1, 23020, Note_on_c, 3, 71, 0
1, 23026, Note_on_c, 1, 26, 0
1, 23030, Note_on_c, 6, 62, 0
1, 23032, Note_on_c, 1, 38, 110
1, 23034, Note_on_c, 14, 71, 0
1, 23034, Note_on_c, 3, 62, 85
1, 23034, Note_on_c, 3, 69, 84
1, 23034, Note_on_c, 3, 74, 87
1, 23036, Note_on_c, 3, 66, 83
1, 23040, Pitch_bend_c, 14, 7296
1, 23040, Note_on_c, 14, 81, 110
1, 23044, Note_on_c, 9, 51, 89
1, 23048, Note_on_c, 9, 51, 0
1, 23048, Pitch_bend_c, 14, 7360
1, 23052, Pitch_bend_c, 14, 7424
1, 23056, Pitch_bend_c, 14, 7488
1, 23060, Pitch_bend_c, 14, 7552
1, 23064, Pitch_bend_c, 14, 7616
1, 23068, Pitch_bend_c, 14, 7680
1, 23072, Pitch_bend_c, 14, 7744
1, 23076, Pitch_bend_c, 14, 7808
1, 23080, Pitch_bend_c, 14, 7872
1, 23084, Pitch_bend_c, 14, 7936
1, 23088, Pitch_bend_c, 14, 8000
1, 23092, Pitch_bend_c, 14, 8064
1, 23096, Pitch_bend_c, 14, 8128
1, 23100, Pitch_bend_c, 14, 8192
1, 23220, Note_on_c, 14, 81, 0
1, 23230, Note_on_c, 8, 78, 78
1, 23236, Note_on_c, 14, 81, 110
1, 23410, Note_on_c, 8, 78, 0
1, 23416, Note_on_c, 14, 81, 0
1, 23420, Note_on_c, 14, 81, 116
1, 23426, Note_on_c, 8, 76, 83
1, 23600, Note_on_c, 14, 81, 0
1, 23606, Note_on_c, 8, 76, 0
1, 23612, Note_on_c, 14, 83, 115
1, 23616, Pitch_bend_c, 14, 7296
1, 23618, Note_on_c, 8, 80, 82
1, 23624, Pitch_bend_c, 14, 7360
1, 23628, Pitch_bend_c, 14, 7424
1, 23632, Pitch_bend_c, 14, 7488
1, 23636, Pitch_bend_c, 14, 7552
1, 23640, Pitch_bend_c, 14, 7616
1, 23644, Pitch_bend_c, 14, 7680
1, 23648, Pitch_bend_c, 14, 7744
1, 23652, Pitch_bend_c, 14, 7808
1, 23656, Pitch_bend_c, 14, 7872
1, 23660, Pitch_bend_c, 14, 7936
1, 23664, Pitch_bend_c, 14, 8000
1, 23668, Pitch_bend_c, 14, 8064
1, 23672, Pitch_bend_c, 14, 8128
1, 23676, Pitch_bend_c, 14, 8192
1, 23712, Control_c, 4, 99, 1
1, 23712, Control_c, 4, 98, 32
1, 23712, Control_c, 4, 6, 50
1, 23712, Control_c, 4, 38, 0
1, 23792, Note_on_c, 14, 83, 0
1, 23798, Note_on_c, 8, 80, 0
1, 23806, Note_on_c, 8, 81, 74
1, 23810, Note_on_c, 14, 79, 110
1, 23986, Note_on_c, 8, 81, 0
1, 23990, Note_on_c, 14, 79, 0
1, 23996, Note_on_c, 14, 78, 111
1, 24000, Control_c, 4, 1, 20
1, 24000, Control_c, 14, 1, 28
1, 24099, Control_c, 14, 1, 70
1, 24182, Note_on_c, 4, 83, 116
1, 24188, Note_on_c, 4, 88, 117
1, 24216, Control_c, 14, 1, 55
1, 24303, Control_c, 14, 1, 37
1, 24320, Pitch_bend_c, 4, 7680
1, 24336, Pitch_bend_c, 4, 7040
1, 24352, Pitch_bend_c, 4, 6656
1, 24368, Pitch_bend_c, 4, 6272
1, 24384, Pitch_bend_c, 4, 5760
1, 24400, Pitch_bend_c, 4, 5376
1, 24416, Pitch_bend_c, 4, 4480
1, 24432, Pitch_bend_c, 4, 3456
1, 24446, Note_on_c, 4, 83, 0
1, 24460, Note_on_c, 4, 88, 0
1, 24471, Control_c, 14, 1, 15
1, 24536, Note_on_c, 14, 78, 0
1, 24552, Note_on_c, 1, 38, 0
1, 24554, Note_on_c, 3, 62, 0
1, 24554, Note_on_c, 3, 74, 0
1, 24554, Note_on_c, 3, 69, 0
1, 24556, Note_on_c, 3, 66, 0
1, 24570, Note_on_c, 1, 28, 109
1, 24572, Pitch_bend_c, 4, 8192
1, 24578, Note_on_c, 14, 79, 118
1, 24580, Note_on_c, 9, 69, 34
1, 24582, Note_on_c, 9, 36, 120
1, 24582, Note_on_c, 9, 37, 89
1, 24584, Note_on_c, 9, 69, 0
1, 24586, Note_on_c, 9, 36, 0
1, 24586, Note_on_c, 9, 37, 0
1, 24668, Note_on_c, 14, 78, 117
1, 24672, Note_on_c, 9, 69, 31
1, 24676, Note_on_c, 9, 69, 0
1, 24690, Note_on_c, 14, 79, 0
1, 24766, Note_on_c, 14, 76, 110
1, 24772, Note_on_c, 9, 69, 34
1, 24776, Note_on_c, 9, 69, 0
1, 24788, Note_on_c, 14, 78, 0
1, 24954, Note_on_c, 9, 37, 89
1, 24958, Note_on_c, 9, 37, 0
1, 24960, Control_c, 14, 1, 28
1, 25059, Control_c, 14, 1, 70
1, 25110, Note_on_c, 1, 28, 0
1, 25176, Control_c, 14, 1, 55
1, 25234, Note_on_c, 1, 40, 112
1, 25246, Note_on_c, 9, 36, 106
1, 25248, Note_on_c, 9, 69, 29
1, 25250, Note_on_c, 9, 36, 0
1, 25252, Note_on_c, 9, 69, 0
1, 25314, Note_on_c, 1, 40, 0
1, 25344, Note_on_c, 9, 37, 95
1, 25348, Note_on_c, 9, 37, 0
1, 25436, Note_on_c, 9, 36, 108
1, 25440, Note_on_c, 9, 36, 0
1, 25442, Note_on_c, 9, 69, 37
1, 25446, Note_on_c, 9, 69, 0
1, 25448, Note_on_c, 1, 40, 115
1, 25528, Note_on_c, 1, 40, 0
1, 25534, Note_on_c, 9, 69, 32
1, 25538, Note_on_c, 9, 69, 0
1, 25540, Note_on_c, 9, 36, 121
1, 25544, Note_on_c, 9, 36, 0
1, 25544, Note_on_c, 1, 28, 116
1, 25647, Control_c, 14, 1, 37
1, 25720, Note_on_c, 9, 69, 29
1, 25724, Note_on_c, 9, 69, 0
1, 25724, Note_on_c, 1, 28, 0
1, 25726, Note_on_c, 9, 37, 93
1, 25730, Note_on_c, 9, 37, 0
1, 25740, Note_on_c, 1, 40, 117
1, 25814, Note_on_c, 1, 40, 0
1, 25814, Note_on_c, 1, 40, 117
1, 25826, Note_on_c, 9, 69, 37
1, 25830, Note_on_c, 9, 69, 0
1, 25894, Note_on_c, 1, 40, 0
1, 25918, Note_on_c, 9, 69, 31
1, 25922, Note_on_c, 9, 69, 0
1, 25930, Note_on_c, 1, 28, 111
1, 26006, Note_on_c, 5, 64, 65
1, 26082, Note_on_c, 5, 64, 0
1, 26100, Note_on_c, 1, 28, 0
1, 26100, Note_on_c, 1, 28, 116
1, 26104, Note_on_c, 5, 64, 65
1, 26110, Note_on_c, 9, 36, 123
1, 26110, Note_on_c, 9, 37, 97
1, 26114, Note_on_c, 9, 37, 0
1, 26114, Note_on_c, 9, 36, 0
1, 26118, Note_on_c, 9, 69, 33
1, 26122, Note_on_c, 9, 69, 0
1, 26180, Note_on_c, 5, 64, 0
1, 26210, Note_on_c, 9, 69, 33
1, 26214, Note_on_c, 9, 69, 0
1, 26216, Note_on_c, 5, 64, 64
1, 26292, Note_on_c, 5, 64, 0
1, 26300, Note_on_c, 9, 69, 32
1, 26304, Note_on_c, 9, 69, 0
1, 26310, Note_on_c, 5, 64, 65
1, 26386, Note_on_c, 5, 64, 0
1, 26446, Note_on_c, 14, 76, 0
1, 26490, Note_on_c, 9, 37, 88
1, 26494, Note_on_c, 9, 37, 0
1, 26583, Control_c, 14, 1, 15
1, 26640, Note_on_c, 1, 28, 0
1, 26776, Note_on_c, 1, 40, 111
1, 26776, Note_on_c, 9, 36, 102
1, 26776, Note_on_c, 9, 69, 35
1, 26780, Note_on_c, 9, 69, 0
1, 26780, Note_on_c, 9, 36, 0
1, 26856, Note_on_c, 1, 40, 0
1, 26872, Note_on_c, 9, 37, 91
1, 26876, Note_on_c, 9, 37, 0
1, 26974, Note_on_c, 1, 40, 118
1, 26974, Note_on_c, 9, 36, 107
1, 26978, Note_on_c, 9, 36, 0
1, 26982, Note_on_c, 9, 69, 33
1, 26986, Note_on_c, 9, 69, 0
1, 27054, Note_on_c, 1, 40, 0
1, 27062, Note_on_c, 1, 28, 113
1, 27072, Note_on_c, 9, 36, 117
1, 27074, Note_on_c, 9, 69, 31
1, 27076, Note_on_c, 9, 36, 0
1, 27078, Note_on_c, 9, 69, 0
1, 27242, Note_on_c, 1, 28, 0
1, 27264, Note_on_c, 9, 69, 38
1, 27266, Note_on_c, 9, 37, 95
1, 27268, Note_on_c, 9, 69, 0
1, 27270, Note_on_c, 9, 37, 0
1, 27274, Note_on_c, 1, 40, 116
1, 27354, Note_on_c, 1, 40, 0
1, 27362, Note_on_c, 1, 40, 113
1, 27362, Note_on_c, 9, 69, 35
1, 27366, Note_on_c, 9, 69, 0
1, 27442, Note_on_c, 1, 40, 0
1, 27448, Note_on_c, 1, 28, 109
1, 27448, Note_on_c, 4, 73, 109
1, 27454, Note_on_c, 9, 69, 35
1, 27458, Note_on_c, 9, 69, 0
1, 27546, Note_on_c, 5, 64, 73
1, 27622, Note_on_c, 5, 64, 0
1, 27628, Note_on_c, 1, 28, 0
1, 27644, Note_on_c, 9, 36, 120
1, 27648, Note_on_c, 9, 36, 0
1, 27648, Note_on_c, 9, 69, 37
1, 27652, Note_on_c, 9, 69, 0
1, 27652, Note_on_c, 9, 37, 89
1, 27654, Note_on_c, 1, 28, 117
1, 27656, Note_on_c, 9, 37, 0
1, 27656, Note_on_c, 5, 64, 70
1, 27732, Note_on_c, 5, 64, 0
1, 27738, Note_on_c, 5, 64, 69
1, 27748, Note_on_c, 9, 69, 36
1, 27752, Note_on_c, 9, 69, 0
1, 27814, Note_on_c, 5, 64, 0
1, 27840, Pitch_bend_c, 4, 6834
1, 27840, Note_on_c, 5, 64, 67
1, 27842, Note_on_c, 9, 69, 33
1, 27846, Note_on_c, 9, 69, 0
1, 27916, Note_on_c, 5, 64, 0
1, 28024, Note_on_c, 9, 37, 96
1, 28028, Note_on_c, 9, 37, 0
1, 28194, Note_on_c, 1, 28, 0
1, 28312, Note_on_c, 9, 69, 35
1, 28316, Note_on_c, 9, 69, 0
1, 28322, Note_on_c, 9, 36, 110
1, 28326, Note_on_c, 9, 36, 0
1, 28332, Note_on_c, 1, 40, 116
1, 28412, Note_on_c, 1, 40, 0
1, 28420, Note_on_c, 9, 37, 94
1, 28424, Note_on_c, 9, 37, 0
1, 28498, Note_on_c, 1, 40, 109
1, 28506, Note_on_c, 9, 69, 32
1, 28510, Note_on_c, 9, 69, 0
1, 28516, Note_on_c, 9, 36, 109
1, 28520, Note_on_c, 9, 36, 0
1, 28578, Note_on_c, 1, 40, 0
1, 28604, Note_on_c, 1, 28, 113
1, 28608, Note_on_c, 9, 36, 118
1, 28612, Note_on_c, 9, 36, 0
1, 28612, Note_on_c, 9, 69, 31
1, 28616, Note_on_c, 9, 69, 0
1, 28784, Note_on_c, 1, 28, 0
1, 28788, Note_on_c, 1, 40, 117
1, 28792, Note_on_c, 9, 37, 92
1, 28796, Note_on_c, 9, 37, 0
1, 28800, Note_on_c, 9, 69, 38
1, 28804, Note_on_c, 9, 69, 0
1, 28868, Note_on_c, 1, 40, 0
1, 28890, Note_on_c, 9, 69, 29
1, 28894, Note_on_c, 9, 69, 0
1, 28902, Note_on_c, 1, 40, 113
1, 28982, Note_on_c, 1, 40, 0
1, 28990, Note_on_c, 1, 28, 114
1, 28990, Note_on_c, 9, 69, 34
1, 28994, Note_on_c, 9, 69, 0
1, 29084, Note_on_c, 5, 64, 68
1, 29160, Note_on_c, 5, 64, 0
1, 29170, Note_on_c, 1, 28, 0
1, 29176, Note_on_c, 5, 64, 72
1, 29176, Note_on_c, 9, 37, 96
1, 29180, Note_on_c, 9, 37, 0
1, 29182, Note_on_c, 9, 36, 118
1, 29182, Note_on_c, 9, 69, 32
1, 29186, Note_on_c, 9, 69, 0
1, 29186, Note_on_c, 9, 36, 0
1, 29196, Note_on_c, 1, 28, 112
1, 29252, Note_on_c, 5, 64, 0
1, 29280, Note_on_c, 9, 69, 37
1, 29282, Note_on_c, 5, 64, 66
1, 29284, Note_on_c, 9, 69, 0
1, 29358, Note_on_c, 5, 64, 0
1, 29366, Note_on_c, 5, 64, 65
1, 29376, Note_on_c, 9, 69, 31
1, 29380, Note_on_c, 9, 69, 0
1, 29442, Note_on_c, 5, 64, 0
1, 29562, Note_on_c, 9, 37, 89
1, 29566, Note_on_c, 9, 37, 0
1, 29736, Note_on_c, 1, 28, 0
1, 29844, Note_on_c, 1, 40, 118
1, 29848, Note_on_c, 9, 69, 34
1, 29852, Note_on_c, 9, 69, 0
1, 29860, Note_on_c, 9, 36, 107
1, 29864, Note_on_c, 9, 36, 0
1, 29924, Note_on_c, 1, 40, 0
1, 29950, Note_on_c, 9, 37, 94
1, 29954, Note_on_c, 9, 37, 0
1, 30042, Note_on_c, 9, 36, 107
1, 30042, Note_on_c, 9, 69, 32
1, 30046, Note_on_c, 9, 69, 0
1, 30046, Note_on_c, 9, 36, 0
1, 30050, Note_on_c, 1, 40, 115
1, 30130, Note_on_c, 1, 40, 0
1, 30138, Note_on_c, 9, 36, 125
1, 30142, Note_on_c, 9, 36, 0
1, 30142, Note_on_c, 9, 69, 33
1, 30146, Note_on_c, 9, 69, 0
1, 30146, Note_on_c, 1, 28, 112
1, 30324, Note_on_c, 1, 40, 116
1, 30326, Note_on_c, 1, 28, 0
1, 30328, Note_on_c, 15, 59, 103
1, 30340, Note_on_c, 9, 69, 37
1, 30342, Note_on_c, 9, 37, 94
1, 30344, Note_on_c, 9, 69, 0
1, 30346, Note_on_c, 9, 37, 0
1, 30404, Note_on_c, 1, 40, 0
1, 30424, Note_on_c, 9, 69, 31
1, 30428, Note_on_c, 9, 69, 0
1, 30436, Note_on_c, 1, 40, 118
1, 30464, Note_on_c, 4, 73, 0
1, 30508, Note_on_c, 15, 59, 0
1, 30516, Note_on_c, 1, 40, 0
1, 30530, Note_on_c, 15, 61, 108
1, 30532, Note_on_c, 9, 69, 36
1, 30534, Note_on_c, 1, 28, 113
1, 30536, Note_on_c, 9, 69, 0
1, 30704, Pitch_bend_c, 4, 8192
1, 30710, Note_on_c, 15, 61, 0
1, 30714, Note_on_c, 1, 28, 0
1, 30716, Note_on_c, 1, 28, 113
1, 30716, Note_on_c, 9, 36, 123
1, 30718, Note_on_c, 6, 57, 65
1, 30718, Note_on_c, 9, 37, 91
1, 30718, Note_on_c, 9, 44, 122
1, 30720, Note_on_c, 9, 36, 0
1, 30720, Pitch_bend_c, 15, 7296
1, 30720, Note_on_c, 15, 62, 103
1, 30722, Note_on_c, 9, 37, 0
1, 30722, Note_on_c, 9, 44, 0
1, 30722, Note_on_c, 9, 69, 31
1, 30724, Note_on_c, 5, 64, 70
1, 30726, Note_on_c, 9, 69, 0
1, 30726, Note_on_c, 6, 54, 67
1, 30726, Note_on_c, 6, 62, 73
1, 30728, Pitch_bend_c, 15, 7360
1, 30732, Pitch_bend_c, 15, 7424
1, 30736, Pitch_bend_c, 15, 7488
1, 30740, Pitch_bend_c, 15, 7552
1, 30744, Pitch_bend_c, 15, 7616
1, 30748, Pitch_bend_c, 15, 7680
1, 30752, Pitch_bend_c, 15, 7744
1, 30756, Pitch_bend_c, 15, 7808
1, 30760, Pitch_bend_c, 15, 7872
1, 30764, Pitch_bend_c, 15, 7936
1, 30768, Pitch_bend_c, 15, 8000
1, 30772, Pitch_bend_c, 15, 8064
1, 30776, Pitch_bend_c, 15, 8128
1, 30780, Pitch_bend_c, 15, 8192
1, 30800, Note_on_c, 5, 64, 0
1, 30806, Note_on_c, 5, 64, 65
1, 30816, Note_on_c, 9, 69, 33
1, 30820, Note_on_c, 9, 69, 0
1, 30882, Note_on_c, 5, 64, 0
1, 30900, Note_on_c, 15, 62, 0
1, 30910, Note_on_c, 15, 61, 106
1, 30914, Note_on_c, 5, 64, 70
1, 30918, Note_on_c, 9, 69, 37
1, 30922, Note_on_c, 9, 69, 0
1, 30990, Note_on_c, 5, 64, 0
1, 31090, Note_on_c, 15, 61, 0
1, 31096, Note_on_c, 9, 42, 80
1, 31098, Note_on_c, 9, 37, 92
1, 31100, Note_on_c, 9, 42, 0
1, 31100, Note_on_c, 15, 62, 112
1, 31102, Note_on_c, 9, 37, 0
1, 31256, Note_on_c, 1, 28, 0
1, 31280, Note_on_c, 15, 62, 0
1, 31294, Note_on_c, 15, 61, 106
1, 31304, Note_on_c, 5, 64, 70
1, 31380, Note_on_c, 5, 64, 0
1, 31384, Note_on_c, 9, 69, 37
1, 31388, Note_on_c, 9, 69, 0
1, 31388, Note_on_c, 9, 36, 102
1, 31392, Note_on_c, 9, 36, 0
1, 31396, Note_on_c, 5, 64, 72
1, 31398, Note_on_c, 1, 40, 112
1, 31472, Note_on_c, 5, 64, 0
1, 31474, Note_on_c, 15, 61, 0
1, 31478, Note_on_c, 1, 40, 0
1, 31480, Note_on_c, 9, 42, 74
1, 31482, Note_on_c, 15, 62, 107
1, 31484, Note_on_c, 9, 42, 0
1, 31484, Note_on_c, 9, 37, 96
1, 31488, Note_on_c, 9, 37, 0
1, 31576, Note_on_c, 9, 36, 101
1, 31578, Note_on_c, 15, 61, 103
1, 31580, Note_on_c, 9, 36, 0
1, 31586, Note_on_c, 15, 62, 0
1, 31590, Note_on_c, 9, 69, 30
1, 31592, Note_on_c, 5, 64, 69
1, 31594, Note_on_c, 9, 69, 0
1, 31594, Note_on_c, 1, 40, 110
1, 31668, Note_on_c, 5, 64, 0
1, 31674, Note_on_c, 1, 40, 0
1, 31674, Note_on_c, 5, 52, 71
1, 31676, Note_on_c, 9, 69, 38
1, 31680, Note_on_c, 9, 69, 0
1, 31682, Note_on_c, 15, 61, 0
1, 31682, Note_on_c, 15, 59, 112
1, 31684, Note_on_c, 9, 36, 123
1, 31688, Note_on_c, 9, 36, 0
1, 31692, Note_on_c, 1, 28, 113
1, 31750, Note_on_c, 5, 52, 0
1, 31862, Note_on_c, 15, 59, 0
1, 31868, Note_on_c, 5, 64, 73
1, 31870, Note_on_c, 9, 42, 75
1, 31872, Note_on_c, 1, 28, 0
1, 31874, Note_on_c, 9, 42, 0
1, 31874, Note_on_c, 9, 69, 33
1, 31876, Note_on_c, 1, 40, 113
1, 31876, Note_on_c, 9, 37, 91
1, 31878, Note_on_c, 9, 69, 0
1, 31878, Note_on_c, 15, 59, 108
1, 31880, Note_on_c, 9, 37, 0
1, 31944, Note_on_c, 5, 64, 0
1, 31954, Note_on_c, 1, 40, 0
1, 31954, Note_on_c, 1, 40, 117
1, 31966, Note_on_c, 5, 64, 72
1, 31970, Note_on_c, 9, 69, 34
1, 31974, Note_on_c, 9, 69, 0
1, 32034, Note_on_c, 1, 40, 0
1, 32042, Note_on_c, 5, 64, 0
1, 32058, Note_on_c, 15, 59, 0
1, 32062, Note_on_c, 5, 52, 65
1, 32064, Note_on_c, 9, 69, 33
1, 32068, Note_on_c, 9, 69, 0
1, 32068, Note_on_c, 1, 28, 116
1, 32068, Note_on_c, 15, 61, 109
1, 32138, Note_on_c, 5, 52, 0
1, 32244, Note_on_c, 1, 28, 0
1, 32244, Note_on_c, 1, 28, 112
1, 32248, Note_on_c, 15, 61, 0
1, 32254, Note_on_c, 9, 44, 124
1, 32254, Note_on_c, 9, 69, 35
1, 32256, Note_on_c, 9, 37, 88
1, 32256, Pitch_bend_c, 15, 7296
1, 32258, Note_on_c, 9, 69, 0
1, 32258, Note_on_c, 9, 44, 0
1, 32258, Note_on_c, 9, 36, 122
1, 32260, Note_on_c, 9, 37, 0
1, 32260, Note_on_c, 15, 62, 111
1, 32262, Note_on_c, 9, 36, 0
1, 32262, Note_on_c, 5, 64, 73
1, 32264, Pitch_bend_c, 15, 7360
1, 32268, Pitch_bend_c, 15, 7424
1, 32272, Pitch_bend_c, 15, 7488
1, 32276, Pitch_bend_c, 15, 7552
1, 32280, Pitch_bend_c, 15, 7616
1, 32284, Pitch_bend_c, 15, 7680
1, 32288, Pitch_bend_c, 15, 7744
1, 32292, Pitch_bend_c, 15, 7808
1, 32296, Pitch_bend_c, 15, 7872
1, 32300, Pitch_bend_c, 15, 7936
1, 32304, Pitch_bend_c, 15, 8000
1, 32308, Pitch_bend_c, 15, 8064
1, 32312, Pitch_bend_c, 15, 8128
1, 32316, Pitch_bend_c, 15, 8192
1, 32338, Note_on_c, 5, 64, 0
1, 32346, Note_on_c, 9, 69, 29
1, 32348, Note_on_c, 5, 64, 66
1, 32350, Note_on_c, 9, 69, 0
1, 32350, Note_on_c, 15, 62, 0
1, 32350, Note_on_c, 15, 62, 103
1, 32424, Note_on_c, 5, 64, 0
1, 32444, Note_on_c, 9, 69, 38
1, 32446, Note_on_c, 5, 64, 73
1, 32448, Note_on_c, 9, 69, 0
1, 32448, Note_on_c, 15, 61, 106
1, 32456, Note_on_c, 15, 62, 0
1, 32522, Note_on_c, 5, 64, 0
1, 32628, Note_on_c, 15, 61, 0
1, 32636, Note_on_c, 15, 62, 104
1, 32644, Note_on_c, 9, 37, 95
1, 32644, Note_on_c, 9, 42, 75
1, 32648, Note_on_c, 9, 42, 0
1, 32648, Note_on_c, 9, 37, 0
1, 32784, Note_on_c, 1, 28, 0
1, 32816, Note_on_c, 15, 62, 0
1, 32826, Note_on_c, 5, 64, 73
1, 32826, Note_on_c, 15, 61, 110
1, 32902, Note_on_c, 5, 64, 0
1, 32922, Note_on_c, 9, 36, 109
1, 32926, Note_on_c, 9, 36, 0
1, 32926, Note_on_c, 5, 64, 67
1, 32934, Note_on_c, 1, 40, 113
1, 32934, Note_on_c, 9, 69, 37
1, 32938, Note_on_c, 9, 69, 0
1, 33002, Note_on_c, 5, 64, 0
1, 33006, Note_on_c, 15, 61, 0
1, 33014, Note_on_c, 1, 40, 0
1, 33022, Note_on_c, 9, 37, 91
1, 33026, Note_on_c, 9, 37, 0
1, 33026, Note_on_c, 9, 42, 73
1, 33028, Note_on_c, 15, 62, 110
1, 33030, Note_on_c, 9, 42, 0
1, 33114, Note_on_c, 9, 36, 106
1, 33118, Note_on_c, 9, 36, 0
1, 33122, Note_on_c, 1, 40, 118
1, 33122, Note_on_c, 5, 64, 69
1, 33124, Note_on_c, 9, 69, 31
1, 33124, Note_on_c, 15, 61, 112
1, 33128, Note_on_c, 9, 69, 0
1, 33132, Note_on_c, 15, 62, 0
1, 33198, Note_on_c, 5, 64, 0
1, 33202, Note_on_c, 1, 40, 0
1, 33212, Note_on_c, 1, 28, 116
1, 33212, Note_on_c, 15, 59, 107
1, 33214, Note_on_c, 9, 36, 121
1, 33216, Note_on_c, 9, 69, 30
1, 33218, Note_on_c, 9, 36, 0
1, 33218, Note_on_c, 5, 52, 67
1, 33220, Note_on_c, 9, 69, 0
1, 33228, Note_on_c, 15, 61, 0
1, 33294, Note_on_c, 5, 52, 0
1, 33392, Note_on_c, 1, 28, 0
1, 33392, Note_on_c, 15, 59, 0
1, 33402, Note_on_c, 5, 64, 64
1, 33402, Note_on_c, 15, 59, 108
1, 33404, Note_on_c, 1, 40, 117
1, 33406, Note_on_c, 9, 37, 90
1, 33406, Note_on_c, 9, 42, 79
1, 33410, Note_on_c, 9, 42, 0
1, 33410, Note_on_c, 9, 37, 0
1, 33414, Note_on_c, 9, 69, 36
1, 33418, Note_on_c, 9, 69, 0
1, 33478, Note_on_c, 5, 64, 0
1, 33484, Note_on_c, 1, 40, 0
1, 33504, Note_on_c, 9, 69, 37
1, 33506, Note_on_c, 5, 64, 72
1, 33508, Note_on_c, 9, 69, 0
1, 33514, Note_on_c, 1, 40, 114
1, 33582, Note_on_c, 15, 59, 0
1, 33582, Note_on_c, 5, 64, 0
1, 33594, Note_on_c, 1, 40, 0
1, 33594, Note_on_c, 9, 69, 31
1, 33596, Note_on_c, 15, 57, 104
1, 33598, Note_on_c, 9, 69, 0
1, 33598, Note_on_c, 5, 52, 67
1, 33602, Note_on_c, 1, 28, 113
1, 33674, Note_on_c, 5, 52, 0
1, 33776, Note_on_c, 15, 57, 0
1, 33778, Note_on_c, 6, 57, 0
1, 33782, Note_on_c, 1, 28, 0
1, 33782, Note_on_c, 1, 28, 112
1, 33784, Note_on_c, 9, 36, 124
1, 33786, Note_on_c, 6, 54, 0
1, 33786, Note_on_c, 6, 62, 0
1, 33786, Note_on_c, 9, 44, 125
1, 33786, Note_on_c, 9, 69, 38
1, 33786, Note_on_c, 15, 59, 107
1, 33788, Note_on_c, 9, 36, 0
1, 33788, Note_on_c, 6, 64, 71
1, 33790, Note_on_c, 9, 69, 0
1, 33790, Note_on_c, 9, 44, 0
1, 33792, Note_on_c, 5, 64, 64
1, 33792, Note_on_c, 6, 59, 66
1, 33794, Note_on_c, 6, 56, 73
1, 33796, Note_on_c, 9, 37, 92
1, 33800, Note_on_c, 9, 37, 0
1, 33868, Note_on_c, 5, 64, 0
1, 33886, Note_on_c, 5, 64, 65
1, 33886, Note_on_c, 9, 69, 34
1, 33888, Control_c, 15, 1, 28
1, 33890, Note_on_c, 9, 69, 0
1, 33962, Note_on_c, 5, 64, 0
1, 33980, Note_on_c, 9, 69, 30
1, 33982, Note_on_c, 5, 64, 71
1, 33984, Note_on_c, 9, 69, 0
1, 33987, Control_c, 15, 1, 70
1, 34058, Note_on_c, 5, 64, 0
1, 34104, Control_c, 15, 1, 55
1, 34176, Note_on_c, 9, 37, 91
1, 34178, Note_on_c, 9, 42, 79
1, 34180, Note_on_c, 9, 37, 0
1, 34182, Note_on_c, 9, 42, 0
1, 34191, Control_c, 15, 1, 37
1, 34322, Note_on_c, 1, 28, 0
1, 34359, Control_c, 15, 1, 15
1, 34360, Note_on_c, 5, 64, 65
1, 34436, Note_on_c, 5, 64, 0
1, 34456, Note_on_c, 9, 36, 107
1, 34456, Note_on_c, 9, 69, 33
1, 34460, Note_on_c, 9, 69, 0
1, 34460, Note_on_c, 9, 36, 0
1, 34464, Note_on_c, 5, 64, 67
1, 34474, Note_on_c, 1, 40, 113
1, 34506, Note_on_c, 15, 59, 0
1, 34540, Note_on_c, 5, 64, 0
1, 34554, Note_on_c, 1, 40, 0
1, 34556, Note_on_c, 9, 37, 88
1, 34558, Note_on_c, 9, 42, 77
1, 34560, Note_on_c, 9, 37, 0
1, 34562, Note_on_c, 9, 42, 0
1, 34646, Note_on_c, 1, 40, 113
1, 34648, Note_on_c, 5, 64, 64
1, 34648, Note_on_c, 9, 69, 38
1, 34652, Note_on_c, 9, 69, 0
1, 34654, Note_on_c, 9, 36, 110
1, 34658, Note_on_c, 9, 36, 0
1, 34724, Note_on_c, 5, 64, 0
1, 34726, Note_on_c, 1, 40, 0
1, 34738, Note_on_c, 1, 28, 118
1, 34742, Note_on_c, 5, 52, 67
1, 34750, Note_on_c, 9, 69, 32
1, 34752, Note_on_c, 9, 36, 118
1, 34754, Note_on_c, 9, 69, 0
1, 34756, Note_on_c, 9, 36, 0
1, 34818, Note_on_c, 5, 52, 0
1, 34918, Note_on_c, 1, 28, 0
1, 34938, Note_on_c, 5, 64, 67
1, 34942, Note_on_c, 9, 42, 80
1, 34942, Note_on_c, 9, 69, 32
1, 34946, Note_on_c, 9, 69, 0
1, 34946, Note_on_c, 9, 42, 0
1, 34946, Note_on_c, 1, 40, 116
1, 34950, Note_on_c, 9, 37, 93
1, 34954, Note_on_c, 9, 37, 0
1, 35014, Note_on_c, 5, 64, 0
1, 35026, Note_on_c, 1, 40, 0
1, 35030, Note_on_c, 1, 40, 117
1, 35034, Note_on_c, 5, 64, 68
1, 35044, Note_on_c, 9, 69, 38
1, 35048, Note_on_c, 9, 69, 0
1, 35110, Note_on_c, 1, 40, 0
1, 35110, Note_on_c, 5, 64, 0
1, 35136, Note_on_c, 9, 69, 33
1, 35140, Note_on_c, 9, 69, 0
1, 35142, Note_on_c, 1, 28, 111
1, 35144, Note_on_c, 5, 52, 70
1, 35220, Note_on_c, 5, 52, 0
1, 35226, Note_on_c, 4, 81, 74
1, 35280, Note_on_c, 4, 81, 0
1, 35314, Note_on_c, 1, 28, 0
1, 35314, Note_on_c, 1, 28, 111
1, 35320, Note_on_c, 4, 80, 114
1, 35324, Note_on_c, 9, 44, 119
1, 35326, Note_on_c, 5, 64, 68
1, 35326, Note_on_c, 9, 69, 36
1, 35328, Note_on_c, 9, 44, 0
1, 35328, Note_on_c, 9, 37, 96
1, 35330, Note_on_c, 9, 69, 0
1, 35330, Note_on_c, 9, 36, 119
1, 35332, Note_on_c, 9, 37, 0
1, 35334, Note_on_c, 9, 36, 0
1, 35402, Note_on_c, 5, 64, 0
1, 35424, Note_on_c, 9, 69, 33
1, 35426, Note_on_c, 5, 64, 67
1, 35428, Note_on_c, 9, 69, 0
1, 35502, Note_on_c, 5, 64, 0
1, 35516, Note_on_c, 5, 64, 71
1, 35524, Note_on_c, 9, 69, 31
1, 35528, Note_on_c, 9, 69, 0
1, 35580, Note_on_c, 4, 80, 0
1, 35592, Note_on_c, 5, 64, 0
1, 35618, Note_on_c, 4, 76, 110
1, 35718, Note_on_c, 9, 37, 89
1, 35718, Note_on_c, 9, 42, 72
1, 35722, Note_on_c, 9, 42, 0
1, 35722, Note_on_c, 9, 37, 0
1, 35854, Note_on_c, 1, 28, 0
1, 35878, Note_on_c, 4, 76, 0
1, 35898, Note_on_c, 4, 71, 109
1, 35900, Note_on_c, 5, 64, 65
1, 35976, Note_on_c, 5, 64, 0
1, 35992, Note_on_c, 1, 40, 117
1, 35998, Note_on_c, 9, 69, 33
1, 36000, Note_on_c, 9, 36, 107
1, 36002, Note_on_c, 9, 69, 0
1, 36002, Note_on_c, 5, 64, 64
1, 36004, Note_on_c, 9, 36, 0
1, 36072, Note_on_c, 1, 40, 0
1, 36078, Note_on_c, 5, 64, 0
1, 36090, Note_on_c, 9, 42, 72
1, 36094, Note_on_c, 9, 42, 0
1, 36100, Note_on_c, 9, 37, 97
1, 36104, Note_on_c, 9, 37, 0
1, 36184, Note_on_c, 5, 64, 71
1, 36188, Note_on_c, 9, 69, 38
1, 36192, Note_on_c, 9, 69, 0
1, 36194, Note_on_c, 1, 40, 117
1, 36194, Note_on_c, 9, 36, 104
1, 36198, Note_on_c, 9, 36, 0
1, 36260, Note_on_c, 5, 64, 0
1, 36274, Note_on_c, 1, 40, 0
1, 36284, Note_on_c, 5, 52, 67
1, 36284, Note_on_c, 9, 69, 34
1, 36288, Note_on_c, 9, 69, 0
1, 36288, Note_on_c, 9, 36, 116
1, 36292, Note_on_c, 9, 36, 0
1, 36292, Note_on_c, 1, 28, 114
1, 36294, Note_on_c, 14, 68, 112
1, 36360, Note_on_c, 5, 52, 0
1, 36472, Note_on_c, 1, 28, 0
1, 36474, Note_on_c, 14, 68, 0
1, 36478, Note_on_c, 9, 37, 95
1, 36480, Note_on_c, 14, 71, 115
1, 36482, Note_on_c, 9, 37, 0
1, 36482, Note_on_c, 5, 64, 66
1, 36484, Note_on_c, 9, 42, 74
1, 36486, Note_on_c, 9, 69, 32
1, 36488, Note_on_c, 9, 42, 0
1, 36490, Note_on_c, 9, 69, 0
1, 36490, Note_on_c, 1, 40, 113
1, 36558, Note_on_c, 5, 64, 0
1, 36566, Note_on_c, 5, 64, 69
1, 36570, Note_on_c, 1, 40, 0
1, 36576, Note_on_c, 9, 69, 38
1, 36580, Note_on_c, 9, 69, 0
1, 36586, Note_on_c, 1, 40, 116
1, 36642, Note_on_c, 5, 64, 0
1, 36660, Note_on_c, 14, 71, 0
1, 36664, Note_on_c, 9, 69, 30
1, 36666, Note_on_c, 1, 40, 0
1, 36666, Note_on_c, 14, 73, 118
1, 36668, Note_on_c, 9, 69, 0
1, 36674, Note_on_c, 5, 52, 66
1, 36684, Note_on_c, 1, 28, 113
1, 36750, Note_on_c, 5, 52, 0
1, 36838, Note_on_c, 4, 71, 0
1, 36846, Note_on_c, 14, 73, 0
1, 36848, Note_on_c, 6, 64, 0
1, 36852, Note_on_c, 6, 59, 0
1, 36854, Note_on_c, 6, 56, 0
1, 36856, Note_on_c, 5, 64, 65
1, 36858, Note_on_c, 6, 62, 66
1, 36858, Note_on_c, 9, 37, 88
1, 36860, Note_on_c, 1, 28, 0
1, 36860, Note_on_c, 1, 28, 117
1, 36862, Note_on_c, 9, 37, 0
1, 36862, Note_on_c, 9, 36, 124
1, 36862, Note_on_c, 9, 44, 122
1, 36864, Note_on_c, 6, 57, 70
1, 36864, Pitch_bend_c, 14, 7296
1, 36864, Note_on_c, 14, 74, 113
1, 36866, Note_on_c, 9, 44, 0
1, 36866, Note_on_c, 9, 36, 0
1, 36870, Note_on_c, 9, 69, 37
1, 36872, Pitch_bend_c, 14, 7360
1, 36874, Note_on_c, 9, 69, 0
1, 36876, Note_on_c, 6, 66, 66
1, 36876, Pitch_bend_c, 14, 7424
1, 36880, Pitch_bend_c, 14, 7488
1, 36884, Pitch_bend_c, 14, 7552
1, 36888, Pitch_bend_c, 14, 7616
1, 36892, Pitch_bend_c, 14, 7680
1, 36896, Pitch_bend_c, 14, 7744
1, 36900, Pitch_bend_c, 14, 7808
1, 36904, Pitch_bend_c, 14, 7872
1, 36908, Pitch_bend_c, 14, 7936
1, 36912, Pitch_bend_c, 14, 8000
1, 36916, Pitch_bend_c, 14, 8064
1, 36920, Pitch_bend_c, 14, 8128
1, 36924, Pitch_bend_c, 14, 8192
1, 36932, Note_on_c, 5, 64, 0
1, 36962, Note_on_c, 9, 69, 37
1, 36964, Note_on_c, 5, 64, 64
1, 36966, Note_on_c, 9, 69, 0
1, 37040, Note_on_c, 5, 64, 0
1, 37044, Note_on_c, 14, 74, 0
1, 37054, Note_on_c, 5, 64, 73
1, 37060, Note_on_c, 14, 73, 111
1, 37062, Note_on_c, 9, 69, 34
1, 37066, Note_on_c, 9, 69, 0
1, 37130, Note_on_c, 5, 64, 0
1, 37240, Note_on_c, 14, 73, 0
1, 37242, Note_on_c, 9, 37, 91
1, 37246, Note_on_c, 9, 37, 0
1, 37248, Note_on_c, 9, 42, 80
1, 37252, Note_on_c, 9, 42, 0
1, 37254, Note_on_c, 14, 74, 116
1, 37400, Note_on_c, 1, 28, 0
1, 37434, Note_on_c, 14, 74, 0
1, 37444, Note_on_c, 14, 73, 113
1, 37446, Note_on_c, 5, 64, 66
1, 37522, Note_on_c, 5, 64, 0
1, 37526, Note_on_c, 5, 64, 64
1, 37528, Note_on_c, 9, 36, 103
1, 37532, Note_on_c, 9, 36, 0
1, 37534, Note_on_c, 9, 69, 29
1, 37538, Note_on_c, 9, 69, 0
1, 37540, Note_on_c, 1, 40, 118
1, 37602, Note_on_c, 5, 64, 0
1, 37620, Note_on_c, 1, 40, 0
1, 37624, Note_on_c, 14, 73, 0
1, 37626, Note_on_c, 14, 74, 117
1, 37630, Note_on_c, 9, 37, 92
1, 37630, Note_on_c, 9, 42, 74
1, 37634, Note_on_c, 9, 42, 0
1, 37634, Note_on_c, 9, 37, 0
1, 37720, Note_on_c, 1, 40, 112
1, 37720, Note_on_c, 5, 64, 72
1, 37724, Note_on_c, 9, 69, 32
1, 37726, Note_on_c, 9, 36, 102
1, 37728, Note_on_c, 9, 69, 0
1, 37728, Note_on_c, 14, 73, 109
1, 37730, Note_on_c, 9, 36, 0
1, 37730, Note_on_c, 14, 74, 0
1, 37796, Note_on_c, 5, 64, 0
1, 37800, Note_on_c, 1, 40, 0
1, 37816, Note_on_c, 9, 36, 122
1, 37820, Note_on_c, 9, 36, 0
1, 37820, Note_on_c, 9, 69, 31
1, 37822, Note_on_c, 14, 71, 114
1, 37824, Note_on_c, 9, 69, 0
1, 37830, Note_on_c, 1, 28, 113
1, 37830, Note_on_c, 5, 52, 67
1, 37832, Note_on_c, 14, 73, 0
1, 37906, Note_on_c, 5, 52, 0
1, 38002, Note_on_c, 14, 71, 0
1, 38010, Note_on_c, 1, 28, 0
1, 38014, Note_on_c, 1, 40, 112
1, 38014, Note_on_c, 9, 69, 32
1, 38016, Note_on_c, 9, 42, 72
1, 38018, Note_on_c, 9, 69, 0
1, 38018, Note_on_c, 5, 64, 65
1, 38020, Note_on_c, 9, 42, 0
1, 38020, Note_on_c, 9, 37, 97
1, 38022, Note_on_c, 14, 71, 118
1, 38024, Note_on_c, 9, 37, 0
1, 38094, Note_on_c, 1, 40, 0
1, 38094, Note_on_c, 5, 64, 0
1, 38104, Note_on_c, 5, 64, 64
1, 38112, Note_on_c, 9, 69, 30
1, 38116, Note_on_c, 9, 69, 0
1, 38116, Note_on_c, 1, 40, 118
1, 38180, Note_on_c, 5, 64, 0
1, 38196, Note_on_c, 1, 40, 0
1, 38200, Note_on_c, 14, 73, 110
1, 38202, Note_on_c, 14, 71, 0
1, 38202, Note_on_c, 9, 69, 34
1, 38206, Note_on_c, 9, 69, 0
1, 38212, Note_on_c, 1, 28, 112
1, 38212, Note_on_c, 5, 52, 64
1, 38288, Note_on_c, 5, 52, 0
1, 38380, Note_on_c, 14, 73, 0
1, 38392, Note_on_c, 1, 28, 0
1, 38392, Note_on_c, 9, 69, 35
1, 38396, Note_on_c, 9, 69, 0
1, 38396, Note_on_c, 9, 36, 118
1, 38398, Note_on_c, 9, 37, 93
1, 38398, Note_on_c, 9, 44, 124
1, 38400, Note_on_c, 9, 36, 0
1, 38400, Pitch_bend_c, 14, 7296
1, 38400, Note_on_c, 14, 74, 117
1, 38402, Note_on_c, 9, 37, 0
1, 38402, Note_on_c, 9, 44, 0
1, 38402, Note_on_c, 5, 64, 72
1, 38404, Note_on_c, 1, 28, 114
1, 38408, Pitch_bend_c, 14, 7360
1, 38412, Pitch_bend_c, 14, 7424
1, 38416, Pitch_bend_c, 14, 7488
1, 38420, Pitch_bend_c, 14, 7552
1, 38424, Pitch_bend_c, 14, 7616
1, 38428, Pitch_bend_c, 14, 7680
1, 38432, Pitch_bend_c, 14, 7744
1, 38436, Pitch_bend_c, 14, 7808
1, 38440, Pitch_bend_c, 14, 7872
1, 38444, Pitch_bend_c, 14, 7936
1, 38448, Pitch_bend_c, 14, 8000
1, 38452, Pitch_bend_c, 14, 8064
1, 38456, Pitch_bend_c, 14, 8128
1, 38460, Pitch_bend_c, 14, 8192
1, 38478, Note_on_c, 5, 64, 0
1, 38492, Note_on_c, 5, 64, 68
1, 38500, Note_on_c, 9, 69, 29
1, 38504, Note_on_c, 9, 69, 0
1, 38568, Note_on_c, 5, 64, 0
1, 38580, Note_on_c, 14, 74, 0
1, 38586, Note_on_c, 9, 69, 34
1, 38588, Note_on_c, 5, 64, 67
1, 38590, Note_on_c, 9, 69, 0
1, 38592, Note_on_c, 14, 73, 112
1, 38664, Note_on_c, 5, 64, 0
1, 38772, Note_on_c, 14, 73, 0
1, 38780, Note_on_c, 9, 42, 80
1, 38784, Note_on_c, 9, 42, 0
1, 38786, Note_on_c, 14, 74, 118
1, 38790, Note_on_c, 9, 37, 97
1, 38794, Note_on_c, 9, 37, 0
1, 38944, Note_on_c, 1, 28, 0
1, 38966, Note_on_c, 14, 74, 0
1, 38970, Note_on_c, 14, 73, 115
1, 38974, Note_on_c, 5, 64, 64
1, 39050, Note_on_c, 5, 64, 0
1, 39058, Note_on_c, 1, 40, 111
1, 39062, Note_on_c, 5, 64, 68
1, 39070, Note_on_c, 9, 36, 107
1, 39074, Note_on_c, 9, 36, 0
1, 39076, Note_on_c, 9, 69, 32
1, 39080, Note_on_c, 9, 69, 0
1, 39138, Note_on_c, 5, 64, 0
1, 39138, Note_on_c, 1, 40, 0
1, 39150, Note_on_c, 14, 73, 0
1, 39160, Note_on_c, 14, 74, 112
1, 39166, Note_on_c, 9, 37, 95
1, 39170, Note_on_c, 9, 37, 0
1, 39174, Note_on_c, 9, 42, 77
1, 39178, Note_on_c, 9, 42, 0
1, 39258, Note_on_c, 5, 64, 71
1, 39258, Note_on_c, 9, 69, 34
1, 39260, Note_on_c, 9, 36, 105
1, 39262, Note_on_c, 9, 69, 0
1, 39264, Note_on_c, 14, 74, 0
1, 39264, Note_on_c, 9, 36, 0
1, 39266, Note_on_c, 14, 73, 110
1, 39270, Note_on_c, 1, 40, 109
1, 39334, Note_on_c, 5, 64, 0
1, 39350, Note_on_c, 1, 40, 0
1, 39352, Note_on_c, 1, 28, 116
1, 39354, Note_on_c, 9, 36, 116
1, 39358, Note_on_c, 9, 36, 0
1, 39358, Note_on_c, 14, 71, 113
1, 39360, Note_on_c, 5, 52, 65
1, 39362, Note_on_c, 9, 69, 29
1, 39366, Note_on_c, 9, 69, 0
1, 39370, Note_on_c, 14, 73, 0
1, 39436, Note_on_c, 5, 52, 0
1, 39532, Note_on_c, 1, 28, 0
1, 39538, Note_on_c, 14, 71, 0
1, 39546, Note_on_c, 1, 40, 109
1, 39546, Note_on_c, 9, 37, 97
1, 39548, Note_on_c, 5, 64, 69
1, 39550, Note_on_c, 9, 37, 0
1, 39552, Pitch_bend_c, 14, 7296
1, 39554, Note_on_c, 9, 42, 72
1, 39558, Note_on_c, 9, 42, 0
1, 39558, Note_on_c, 9, 69, 31
1, 39558, Note_on_c, 14, 76, 116
1, 39560, Pitch_bend_c, 14, 7360
1, 39562, Note_on_c, 9, 69, 0
1, 39564, Pitch_bend_c, 14, 7424
1, 39568, Pitch_bend_c, 14, 7488
1, 39572, Pitch_bend_c, 14, 7552
1, 39576, Pitch_bend_c, 14, 7616
1, 39580, Pitch_bend_c, 14, 7680
1, 39584, Pitch_bend_c, 14, 7744
1, 39588, Pitch_bend_c, 14, 7808
1, 39592, Pitch_bend_c, 14, 7872
1, 39596, Pitch_bend_c, 14, 7936
1, 39600, Pitch_bend_c, 14, 8000
1, 39604, Pitch_bend_c, 14, 8064
1, 39608, Pitch_bend_c, 14, 8128
1, 39612, Pitch_bend_c, 14, 8192
1, 39624, Note_on_c, 5, 64, 0
1, 39626, Note_on_c, 1, 40, 0
1, 39640, Note_on_c, 9, 69, 30
1, 39644, Note_on_c, 9, 69, 0
1, 39644, Note_on_c, 1, 40, 114
1, 39644, Note_on_c, 14, 78, 110
1, 39652, Note_on_c, 5, 64, 71
1, 39662, Note_on_c, 14, 76, 0
1, 39724, Note_on_c, 1, 40, 0
1, 39728, Note_on_c, 5, 64, 0
1, 39736, Note_on_c, 1, 28, 114
1, 39736, Note_on_c, 5, 52, 66
1, 39736, Note_on_c, 9, 69, 36
1, 39740, Note_on_c, 9, 69, 0
1, 39812, Note_on_c, 5, 52, 0
1, 39824, Note_on_c, 14, 78, 0
1, 39842, Note_on_c, 14, 76, 115
1, 39916, Note_on_c, 1, 28, 0
1, 39918, Note_on_c, 6, 62, 0
1, 39924, Note_on_c, 6, 57, 0
1, 39926, Note_on_c, 6, 59, 64
1, 39926, Note_on_c, 6, 68, 66
1, 39928, Note_on_c, 5, 64, 69
1, 39928, Note_on_c, 9, 36, 124
1, 39928, Note_on_c, 9, 69, 32
1, 39932, Note_on_c, 9, 69, 0
1, 39932, Note_on_c, 9, 36, 0
1, 39934, Note_on_c, 1, 28, 116
1, 39936, Note_on_c, 6, 66, 0
1, 39936, Note_on_c, 9, 44, 120
1, 39940, Note_on_c, 9, 44, 0
1, 39940, Note_on_c, 9, 37, 94
1, 39944, Note_on_c, 9, 37, 0
1, 39946, Note_on_c, 6, 64, 69
1, 40004, Note_on_c, 5, 64, 0
1, 40026, Note_on_c, 5, 64, 69
1, 40036, Note_on_c, 9, 69, 34
1, 40040, Note_on_c, 9, 69, 0
1, 40102, Note_on_c, 5, 64, 0
1, 40128, Note_on_c, 5, 64, 71
1, 40128, Note_on_c, 9, 69, 35
1, 40132, Note_on_c, 9, 69, 0
1, 40202, Note_on_c, 14, 76, 0
1, 40204, Note_on_c, 5, 64, 0
1, 40228, Note_on_c, 14, 78, 113
1, 40320, Pitch_bend_c, 14, 7296
1, 40324, Note_on_c, 9, 37, 95
1, 40324, Note_on_c, 14, 80, 112
1, 40326, Note_on_c, 9, 42, 80
1, 40328, Note_on_c, 9, 37, 0
1, 40328, Pitch_bend_c, 14, 7360
1, 40330, Note_on_c, 9, 42, 0
1, 40332, Note_on_c, 14, 78, 0
1, 40332, Pitch_bend_c, 14, 7424
1, 40336, Pitch_bend_c, 14, 7488
1, 40340, Pitch_bend_c, 14, 7552
1, 40344, Pitch_bend_c, 14, 7616
1, 40348, Pitch_bend_c, 14, 7680
1, 40352, Pitch_bend_c, 14, 7744
1, 40356, Pitch_bend_c, 14, 7808
1, 40360, Pitch_bend_c, 14, 7872
1, 40364, Pitch_bend_c, 14, 7936
1, 40368, Pitch_bend_c, 14, 8000
1, 40372, Pitch_bend_c, 14, 8064
1, 40376, Pitch_bend_c, 14, 8128
1, 40380, Pitch_bend_c, 14, 8192
1, 40416, Control_c, 14, 1, 28
1, 40474, Note_on_c, 1, 28, 0
1, 40508, Note_on_c, 5, 64, 64
1, 40515, Control_c, 14, 1, 70
1, 40584, Note_on_c, 5, 64, 0
1, 40600, Note_on_c, 9, 69, 32
1, 40602, Note_on_c, 5, 64, 67
1, 40604, Note_on_c, 9, 69, 0
1, 40604, Note_on_c, 1, 40, 110
1, 40608, Note_on_c, 9, 36, 103
1, 40612, Note_on_c, 9, 36, 0
1, 40632, Control_c, 14, 1, 55
1, 40678, Note_on_c, 5, 64, 0
1, 40684, Note_on_c, 1, 40, 0
1, 40696, Note_on_c, 9, 42, 79
1, 40700, Note_on_c, 9, 42, 0
1, 40708, Note_on_c, 9, 37, 97
1, 40712, Note_on_c, 9, 37, 0
1, 40719, Control_c, 14, 1, 37
1, 40792, Note_on_c, 5, 64, 66
1, 40796, Note_on_c, 9, 36, 106
1, 40800, Note_on_c, 9, 36, 0
1, 40800, Note_on_c, 9, 69, 32
1, 40802, Note_on_c, 1, 40, 118
1, 40804, Note_on_c, 9, 69, 0
1, 40868, Note_on_c, 5, 64, 0
1, 40882, Note_on_c, 1, 40, 0
1, 40887, Control_c, 14, 1, 15
1, 40892, Note_on_c, 5, 52, 68
1, 40894, Note_on_c, 1, 28, 109
1, 40896, Note_on_c, 9, 69, 36
1, 40900, Note_on_c, 9, 69, 0
1, 40902, Note_on_c, 9, 36, 124
1, 40906, Note_on_c, 9, 36, 0
1, 40968, Note_on_c, 5, 52, 0
1, 41044, Note_on_c, 14, 80, 0
1, 41074, Note_on_c, 1, 28, 0
1, 41080, Note_on_c, 9, 69, 32
1, 41084, Note_on_c, 9, 69, 0
1, 41088, Note_on_c, 9, 37, 92
1, 41090, Note_on_c, 9, 42, 71
1, 41092, Note_on_c, 9, 37, 0
1, 41094, Note_on_c, 9, 42, 0
1, 41094, Note_on_c, 5, 64, 68
1, 41100, Note_on_c, 1, 40, 110
1, 41170, Note_on_c, 5, 64, 0
1, 41174, Note_on_c, 1, 40, 0
1, 41174, Note_on_c, 1, 40, 118
1, 41180, Note_on_c, 5, 64, 67
1, 41190, Note_on_c, 9, 69, 32
1, 41194, Note_on_c, 9, 69, 0
1, 41254, Note_on_c, 1, 40, 0
1, 41256, Note_on_c, 5, 64, 0
1, 41274, Note_on_c, 1, 28, 115
1, 41274, Note_on_c, 9, 69, 34
1, 41278, Note_on_c, 9, 69, 0
1, 41288, Note_on_c, 5, 52, 64
1, 41364, Note_on_c, 5, 52, 0
1, 41454, Note_on_c, 1, 28, 0
1, 41464, Note_on_c, 9, 44, 124
1, 41468, Note_on_c, 9, 44, 0
1, 41472, Note_on_c, 9, 37, 90
1, 41474, Note_on_c, 9, 69, 32
1, 41476, Note_on_c, 9, 37, 0
1, 41478, Note_on_c, 9, 69, 0
1, 41478, Note_on_c, 9, 36, 116
1, 41480, Note_on_c, 5, 64, 68
1, 41482, Note_on_c, 9, 36, 0
1, 41482, Note_on_c, 1, 28, 111
1, 41556, Note_on_c, 5, 64, 0
1, 41560, Note_on_c, 5, 64, 70
1, 41564, Note_on_c, 9, 69, 29
1, 41568, Note_on_c, 9, 69, 0
1, 41636, Note_on_c, 5, 64, 0
1, 41660, Note_on_c, 5, 64, 71
1, 41668, Note_on_c, 9, 69, 34
1, 41672, Note_on_c, 9, 69, 0
1, 41736, Note_on_c, 5, 64, 0
1, 41856, Note_on_c, 9, 42, 71
1, 41860, Note_on_c, 9, 42, 0
1, 41860, Note_on_c, 9, 37, 88
1, 41862, Note_on_c, 4, 71, 110
1, 41864, Note_on_c, 9, 37, 0
1, 42022, Note_on_c, 1, 28, 0
1, 42042, Note_on_c, 4, 71, 0
1, 42044, Note_on_c, 5, 64, 72
1, 42048, Note_on_c, 4, 76, 82
1, 42102, Note_on_c, 4, 76, 0
1, 42120, Note_on_c, 5, 64, 0
1, 42140, Note_on_c, 5, 64, 66
1, 42140, Note_on_c, 9, 69, 36
1, 42142, Note_on_c, 4, 83, 113
1, 42144, Note_on_c, 9, 69, 0
1, 42148, Note_on_c, 1, 40, 118
1, 42150, Note_on_c, 9, 36, 106
1, 42154, Note_on_c, 9, 36, 0
1, 42216, Note_on_c, 5, 64, 0
1, 42228, Note_on_c, 1, 40, 0
1, 42236, Note_on_c, 9, 37, 94
1, 42238, Note_on_c, 9, 42, 79
1, 42240, Note_on_c, 9, 37, 0
1, 42242, Note_on_c, 9, 42, 0
1, 42242, Note_on_c, 5, 64, 66
1, 42318, Note_on_c, 5, 64, 0
1, 42330, Note_on_c, 1, 40, 114
1, 42330, Note_on_c, 9, 36, 102
1, 42334, Note_on_c, 9, 36, 0
1, 42334, Note_on_c, 9, 69, 30
1, 42338, Note_on_c, 9, 69, 0
1, 42410, Note_on_c, 1, 40, 0
1, 42426, Note_on_c, 9, 69, 32
1, 42428, Note_on_c, 5, 71, 67
1, 42428, Note_on_c, 9, 36, 124
1, 42430, Note_on_c, 9, 69, 0
1, 42432, Note_on_c, 9, 36, 0
1, 42440, Note_on_c, 5, 68, 71
1, 42444, Note_on_c, 1, 28, 109
1, 42504, Note_on_c, 5, 71, 0
1, 42516, Note_on_c, 5, 68, 0
1, 42528, Note_on_c, 5, 69, 65
1, 42530, Note_on_c, 5, 61, 73
1, 42610, Note_on_c, 1, 40, 112
1, 42616, Note_on_c, 5, 69, 0
1, 42618, Note_on_c, 5, 61, 0
1, 42618, Note_on_c, 9, 42, 77
1, 42620, Note_on_c, 9, 69, 29
1, 42620, Note_on_c, 14, 74, 109
1, 42622, Note_on_c, 9, 42, 0
1, 42624, Note_on_c, 9, 69, 0
1, 42624, Note_on_c, 1, 28, 0
1, 42624, Note_on_c, 9, 37, 93
1, 42628, Note_on_c, 9, 37, 0
1, 42628, Note_on_c, 15, 71, 108
1, 42630, Note_on_c, 5, 71, 68
1, 42630, Note_on_c, 5, 74, 70
1, 42690, Note_on_c, 1, 40, 0
1, 42720, Note_on_c, 1, 40, 114
1, 42726, Note_on_c, 9, 69, 32
1, 42730, Note_on_c, 9, 69, 0
1, 42800, Note_on_c, 1, 40, 0
1, 42800, Note_on_c, 14, 74, 0
1, 42808, Note_on_c, 15, 71, 0
1, 42812, Note_on_c, 9, 69, 34
1, 42814, Note_on_c, 15, 73, 106
1, 42816, Note_on_c, 9, 69, 0
1, 42816, Note_on_c, 14, 76, 117
1, 42824, Note_on_c, 1, 28, 115
1, 42866, Note_on_c, 5, 74, 0
1, 42870, Note_on_c, 5, 71, 0
1, 42982, Note_on_c, 4, 83, 0
1, 42986, Note_on_c, 6, 59, 0
1, 42986, Note_on_c, 6, 68, 0
1, 42994, Note_on_c, 15, 73, 0
1, 42996, Note_on_c, 14, 76, 0
1, 43002, Note_on_c, 9, 69, 35
1, 43004, Note_on_c, 1, 28, 0
1, 43004, Note_on_c, 9, 37, 93
1, 43004, Note_on_c, 9, 44, 121
1, 43006, Note_on_c, 9, 69, 0
1, 43006, Note_on_c, 6, 64, 0
1, 43006, Note_on_c, 14, 78, 117
1, 43008, Note_on_c, 9, 37, 0
1, 43008, Note_on_c, 9, 44, 0
1, 43008, Note_on_c, 6, 57, 65
1, 43008, Pitch_bend_c, 14, 7296
1, 43008, Pitch_bend_c, 15, 7296
1, 43010, Note_on_c, 15, 74, 103
1, 43012, Note_on_c, 1, 28, 109
1, 43014, Note_on_c, 5, 64, 64
1, 43014, Note_on_c, 6, 66, 64
1, 43014, Note_on_c, 9, 36, 122
1, 43016, Note_on_c, 6, 62, 72
1, 43016, Pitch_bend_c, 14, 7360
1, 43016, Pitch_bend_c, 15, 7360
1, 43018, Note_on_c, 9, 36, 0
1, 43020, Pitch_bend_c, 14, 7424
1, 43020, Pitch_bend_c, 15, 7424
1, 43024, Pitch_bend_c, 14, 7488
1, 43024, Pitch_bend_c, 15, 7488
1, 43028, Pitch_bend_c, 14, 7552
1, 43028, Pitch_bend_c, 15, 7552
1, 43032, Pitch_bend_c, 14, 7616
1, 43032, Pitch_bend_c, 15, 7616
1, 43036, Pitch_bend_c, 14, 7680
1, 43036, Pitch_bend_c, 15, 7680
1, 43040, Pitch_bend_c, 14, 7744
1, 43040, Pitch_bend_c, 15, 7744
1, 43044, Pitch_bend_c, 14, 7808
1, 43044, Pitch_bend_c, 15, 7808
1, 43048, Pitch_bend_c, 14, 7872
1, 43048, Pitch_bend_c, 15, 7872
1, 43052, Pitch_bend_c, 14, 7936
1, 43052, Pitch_bend_c, 15, 7936
1, 43056, Pitch_bend_c, 14, 8000
1, 43056, Pitch_bend_c, 15, 8000
1, 43060, Pitch_bend_c, 14, 8064
1, 43060, Pitch_bend_c, 15, 8064
1, 43064, Pitch_bend_c, 14, 8128
1, 43064, Pitch_bend_c, 15, 8128
1, 43068, Pitch_bend_c, 14, 8192
1, 43068, Pitch_bend_c, 15, 8192
1, 43090, Note_on_c, 5, 64, 0
1, 43106, Note_on_c, 9, 69, 35
1, 43110, Note_on_c, 9, 69, 0
1, 43112, Note_on_c, 5, 64, 71
1, 43186, Note_on_c, 14, 78, 0
1, 43188, Note_on_c, 5, 64, 0
1, 43190, Note_on_c, 15, 74, 0
1, 43192, Note_on_c, 9, 69, 33
1, 43196, Note_on_c, 9, 69, 0
1, 43202, Note_on_c, 14, 76, 111
1, 43202, Note_on_c, 15, 73, 111
1, 43204, Note_on_c, 5, 64, 67
1, 43280, Note_on_c, 5, 64, 0
1, 43382, Note_on_c, 14, 76, 0
1, 43382, Note_on_c, 15, 73, 0
1, 43390, Note_on_c, 14, 78, 111
1, 43392, Note_on_c, 9, 37, 91
1, 43392, Note_on_c, 15, 74, 106
1, 43396, Note_on_c, 9, 37, 0
1, 43398, Note_on_c, 9, 42, 76
1, 43402, Note_on_c, 9, 42, 0
1, 43552, Note_on_c, 1, 28, 0
1, 43570, Note_on_c, 14, 78, 0
1, 43572, Note_on_c, 15, 74, 0
1, 43582, Note_on_c, 14, 76, 109
1, 43584, Note_on_c, 15, 73, 109
1, 43590, Note_on_c, 5, 64, 64
1, 43666, Note_on_c, 5, 64, 0
1, 43674, Note_on_c, 9, 69, 35
1, 43676, Note_on_c, 1, 40, 113
1, 43678, Note_on_c, 9, 69, 0
1, 43680, Note_on_c, 9, 36, 105
1, 43680, Note_on_c, 14, 78, 115
1, 43680, Pitch_bend_c, 15, 7296
1, 43682, Note_on_c, 5, 64, 65
1, 43684, Note_on_c, 9, 36, 0
1, 43686, Note_on_c, 14, 76, 0
1, 43686, Note_on_c, 15, 74, 111
1, 43688, Note_on_c, 15, 73, 0
1, 43688, Pitch_bend_c, 15, 7360
1, 43692, Pitch_bend_c, 15, 7424
1, 43696, Pitch_bend_c, 15, 7488
1, 43700, Pitch_bend_c, 15, 7552
1, 43704, Pitch_bend_c, 15, 7616
1, 43708, Pitch_bend_c, 15, 7680
1, 43712, Pitch_bend_c, 15, 7744
1, 43716, Pitch_bend_c, 15, 7808
1, 43720, Pitch_bend_c, 15, 7872
1, 43724, Pitch_bend_c, 15, 7936
1, 43728, Pitch_bend_c, 15, 8000
1, 43732, Pitch_bend_c, 15, 8064
1, 43736, Pitch_bend_c, 15, 8128
1, 43740, Pitch_bend_c, 15, 8192
1, 43756, Note_on_c, 1, 40, 0
1, 43758, Note_on_c, 5, 64, 0
1, 43770, Note_on_c, 9, 42, 75
1, 43774, Note_on_c, 9, 42, 0
1, 43774, Note_on_c, 9, 37, 96
1, 43778, Note_on_c, 9, 37, 0
1, 43860, Note_on_c, 14, 78, 0
1, 43862, Note_on_c, 1, 40, 112
1, 43864, Note_on_c, 5, 64, 72
1, 43866, Note_on_c, 15, 74, 0
1, 43866, Note_on_c, 9, 69, 35
1, 43868, Note_on_c, 9, 36, 101
1, 43870, Note_on_c, 9, 69, 0
1, 43872, Note_on_c, 9, 36, 0
1, 43878, Note_on_c, 14, 76, 118
1, 43878, Note_on_c, 15, 73, 107
1, 43940, Note_on_c, 5, 64, 0
1, 43942, Note_on_c, 1, 40, 0
1, 43954, Note_on_c, 1, 28, 115
1, 43962, Note_on_c, 14, 74, 117
1, 43966, Note_on_c, 9, 69, 36
1, 43970, Note_on_c, 9, 69, 0
1, 43972, Note_on_c, 5, 52, 64
1, 43972, Note_on_c, 9, 36, 124
1, 43974, Note_on_c, 15, 71, 110
1, 43976, Note_on_c, 9, 36, 0
1, 43982, Note_on_c, 14, 76, 0
1, 43982, Note_on_c, 15, 73, 0
1, 44048, Note_on_c, 5, 52, 0
1, 44134, Note_on_c, 1, 28, 0
1, 44142, Note_on_c, 14, 74, 0
1, 44150, Note_on_c, 5, 64, 72
1, 44154, Note_on_c, 15, 71, 0
1, 44154, Note_on_c, 9, 42, 73
1, 44158, Note_on_c, 9, 42, 0
1, 44160, Note_on_c, 9, 37, 92
1, 44160, Note_on_c, 15, 71, 103
1, 44162, Note_on_c, 9, 69, 31
1, 44164, Note_on_c, 9, 37, 0
1, 44166, Note_on_c, 9, 69, 0
1, 44166, Note_on_c, 1, 40, 111
1, 44166, Note_on_c, 14, 74, 113
1, 44226, Note_on_c, 5, 64, 0
1, 44246, Note_on_c, 1, 40, 0
1, 44248, Note_on_c, 5, 64, 73
1, 44250, Note_on_c, 9, 69, 38
1, 44254, Note_on_c, 9, 69, 0
1, 44260, Note_on_c, 1, 40, 111
1, 44324, Note_on_c, 5, 64, 0
1, 44340, Note_on_c, 15, 71, 0
1, 44340, Note_on_c, 1, 40, 0
1, 44344, Note_on_c, 15, 73, 106
1, 44346, Note_on_c, 14, 74, 0
1, 44350, Note_on_c, 5, 52, 66
1, 44352, Note_on_c, 9, 69, 31
1, 44354, Note_on_c, 14, 76, 110
1, 44356, Note_on_c, 9, 69, 0
1, 44362, Note_on_c, 1, 28, 117
1, 44426, Note_on_c, 5, 52, 0
1, 44524, Note_on_c, 15, 73, 0
1, 44534, Note_on_c, 14, 76, 0
1, 44538, Note_on_c, 9, 44, 122
1, 44540, Note_on_c, 9, 69, 37
1, 44542, Note_on_c, 9, 44, 0
1, 44542, Note_on_c, 1, 28, 0
1, 44542, Note_on_c, 9, 36, 123
1, 44544, Note_on_c, 9, 69, 0
1, 44544, Pitch_bend_c, 14, 7296
1, 44544, Note_on_c, 14, 78, 109
1, 44544, Pitch_bend_c, 15, 7296
1, 44544, Note_on_c, 15, 74, 111
1, 44546, Note_on_c, 9, 36, 0
1, 44546, Note_on_c, 1, 28, 110
1, 44546, Note_on_c, 5, 64, 73
1, 44546, Note_on_c, 9, 37, 97
1, 44550, Note_on_c, 9, 37, 0
1, 44552, Pitch_bend_c, 14, 7360
1, 44552, Pitch_bend_c, 15, 7360
1, 44556, Pitch_bend_c, 14, 7424
1, 44556, Pitch_bend_c, 15, 7424
1, 44560, Pitch_bend_c, 14, 7488
1, 44560, Pitch_bend_c, 15, 7488
1, 44564, Pitch_bend_c, 14, 7552
1, 44564, Pitch_bend_c, 15, 7552
1, 44568, Pitch_bend_c, 14, 7616
1, 44568, Pitch_bend_c, 15, 7616
1, 44572, Pitch_bend_c, 14, 7680
1, 44572, Pitch_bend_c, 15, 7680
1, 44576, Pitch_bend_c, 14, 7744
1, 44576, Pitch_bend_c, 15, 7744
1, 44580, Pitch_bend_c, 14, 7808
1, 44580, Pitch_bend_c, 15, 7808
1, 44584, Pitch_bend_c, 14, 7872
1, 44584, Pitch_bend_c, 15, 7872
1, 44588, Pitch_bend_c, 14, 7936
1, 44588, Pitch_bend_c, 15, 7936
1, 44592, Pitch_bend_c, 14, 8000
1, 44592, Pitch_bend_c, 15, 8000
1, 44596, Pitch_bend_c, 14, 8064
1, 44596, Pitch_bend_c, 15, 8064
1, 44600, Pitch_bend_c, 14, 8128
1, 44600, Pitch_bend_c, 15, 8128
1, 44604, Pitch_bend_c, 14, 8192
1, 44604, Pitch_bend_c, 15, 8192
1, 44622, Note_on_c, 5, 64, 0
1, 44632, Note_on_c, 9, 69, 35
1, 44636, Note_on_c, 9, 69, 0
1, 44644, Note_on_c, 5, 64, 71
1, 44720, Note_on_c, 5, 64, 0
1, 44724, Note_on_c, 15, 74, 0
1, 44724, Note_on_c, 14, 78, 0
1, 44730, Note_on_c, 9, 69, 36
1, 44732, Note_on_c, 14, 76, 112
1, 44734, Note_on_c, 9, 69, 0
1, 44734, Note_on_c, 15, 73, 104
1, 44744, Note_on_c, 5, 64, 64
1, 44820, Note_on_c, 5, 64, 0
1, 44826, Note_on_c, 15, 74, 103
1, 44836, Note_on_c, 14, 76, 0
1, 44838, Note_on_c, 15, 73, 0
1, 44838, Note_on_c, 14, 78, 109
1, 44924, Note_on_c, 9, 42, 73
1, 44926, Note_on_c, 9, 37, 91
1, 44928, Note_on_c, 9, 42, 0
1, 44930, Note_on_c, 9, 37, 0
1, 45006, Note_on_c, 15, 74, 0
1, 45016, Note_on_c, 14, 76, 114
1, 45018, Note_on_c, 14, 78, 0
1, 45024, Note_on_c, 15, 73, 108
1, 45086, Note_on_c, 1, 28, 0
1, 45120, Note_on_c, 5, 64, 64
1, 45196, Note_on_c, 5, 64, 0
1, 45196, Note_on_c, 14, 76, 0
1, 45204, Note_on_c, 15, 73, 0
1, 45208, Note_on_c, 1, 40, 117
1, 45210, Note_on_c, 14, 78, 113
1, 45216, Pitch_bend_c, 15, 7296
1, 45218, Note_on_c, 9, 69, 37
1, 45220, Note_on_c, 9, 36, 101
1, 45222, Note_on_c, 9, 69, 0
1, 45222, Note_on_c, 15, 74, 107
1, 45224, Note_on_c, 9, 36, 0
1, 45224, Note_on_c, 5, 64, 64
1, 45224, Pitch_bend_c, 15, 7360
1, 45228, Pitch_bend_c, 15, 7424
1, 45232, Pitch_bend_c, 15, 7488
1, 45236, Pitch_bend_c, 15, 7552
1, 45240, Pitch_bend_c, 15, 7616
1, 45244, Pitch_bend_c, 15, 7680
1, 45248, Pitch_bend_c, 15, 7744
1, 45252, Pitch_bend_c, 15, 7808
1, 45256, Pitch_bend_c, 15, 7872
1, 45260, Pitch_bend_c, 15, 7936
1, 45264, Pitch_bend_c, 15, 8000
1, 45268, Pitch_bend_c, 15, 8064
1, 45272, Pitch_bend_c, 15, 8128
1, 45276, Pitch_bend_c, 15, 8192
1, 45288, Note_on_c, 1, 40, 0
1, 45300, Note_on_c, 5, 64, 0
1, 45306, Note_on_c, 9, 37, 90
1, 45306, Note_on_c, 9, 42, 71
1, 45310, Note_on_c, 9, 42, 0
1, 45310, Note_on_c, 9, 37, 0
1, 45390, Note_on_c, 14, 78, 0
1, 45396, Note_on_c, 1, 40, 114
1, 45402, Note_on_c, 15, 74, 0
1, 45402, Note_on_c, 9, 36, 104
1, 45402, Note_on_c, 14, 76, 118
1, 45406, Note_on_c, 9, 36, 0
1, 45406, Note_on_c, 9, 69, 38
1, 45410, Note_on_c, 9, 69, 0
1, 45412, Note_on_c, 15, 73, 109
1, 45414, Note_on_c, 5, 64, 65
1, 45476, Note_on_c, 1, 40, 0
1, 45490, Note_on_c, 5, 64, 0
1, 45500, Note_on_c, 9, 69, 31
1, 45502, Note_on_c, 9, 36, 117
1, 45502, Note_on_c, 15, 71, 107
1, 45504, Note_on_c, 9, 69, 0
1, 45504, Note_on_c, 1, 28, 116
1, 45506, Note_on_c, 9, 36, 0
1, 45506, Note_on_c, 14, 76, 0
1, 45508, Note_on_c, 5, 52, 66
1, 45508, Note_on_c, 14, 74, 112
1, 45516, Note_on_c, 15, 73, 0
1, 45584, Note_on_c, 5, 52, 0
1, 45682, Note_on_c, 15, 71, 0
1, 45684, Note_on_c, 1, 28, 0
1, 45688, Note_on_c, 14, 74, 0
1, 45688, Note_on_c, 1, 40, 117
1, 45688, Note_on_c, 9, 42, 73
1, 45688, Note_on_c, 9, 69, 34
1, 45688, Note_on_c, 15, 71, 108
1, 45690, Note_on_c, 14, 74, 109
1, 45692, Note_on_c, 9, 69, 0
1, 45692, Note_on_c, 9, 42, 0
1, 45692, Note_on_c, 5, 64, 64
1, 45698, Note_on_c, 9, 37, 93
1, 45702, Note_on_c, 9, 37, 0
1, 45768, Note_on_c, 5, 64, 0
1, 45768, Note_on_c, 1, 40, 0
1, 45786, Note_on_c, 5, 64, 64
1, 45790, Note_on_c, 1, 40, 118
1, 45796, Note_on_c, 9, 69, 30
1, 45800, Note_on_c, 9, 69, 0
1, 45862, Note_on_c, 5, 64, 0
1, 45868, Note_on_c, 15, 71, 0
1, 45870, Note_on_c, 14, 74, 0
1, 45870, Note_on_c, 1, 40, 0
1, 45884, Note_on_c, 9, 69, 36
1, 45884, Note_on_c, 15, 69, 103
1, 45886, Note_on_c, 1, 28, 109
1, 45886, Note_on_c, 5, 52, 65
1, 45886, Note_on_c, 14, 76, 109
1, 45888, Note_on_c, 9, 69, 0
1, 45962, Note_on_c, 5, 52, 0
1, 46064, Note_on_c, 15, 69, 0
1, 46066, Note_on_c, 14, 76, 0
1, 46066, Note_on_c, 1, 28, 0
1, 46068, Note_on_c, 6, 57, 0
1, 46074, Note_on_c, 6, 66, 0
1, 46074, Note_on_c, 6, 68, 72
1, 46074, Note_on_c, 9, 36, 119
1, 46074, Note_on_c, 9, 44, 122
1, 46076, Note_on_c, 6, 62, 0
1, 46076, Note_on_c, 1, 28, 109
1, 46076, Note_on_c, 14, 74, 114
1, 46078, Note_on_c, 9, 44, 0
1, 46078, Note_on_c, 9, 36, 0
1, 46080, Note_on_c, 9, 69, 34
1, 46080, Pitch_bend_c, 15, 7296
1, 46082, Note_on_c, 9, 37, 88
1, 46084, Note_on_c, 9, 69, 0
1, 46086, Note_on_c, 9, 37, 0
1, 46086, Note_on_c, 5, 64, 65
1, 46086, Note_on_c, 6, 59, 68
1, 46086, Note_on_c, 15, 71, 111
1, 46088, Pitch_bend_c, 15, 7360
1, 46090, Note_on_c, 6, 64, 66
1, 46092, Pitch_bend_c, 15, 7424
1, 46096, Pitch_bend_c, 15, 7488
1, 46100, Pitch_bend_c, 15, 7552
1, 46104, Pitch_bend_c, 15, 7616
1, 46108, Pitch_bend_c, 15, 7680
1, 46112, Pitch_bend_c, 15, 7744
1, 46116, Pitch_bend_c, 15, 7808
1, 46120, Pitch_bend_c, 15, 7872
1, 46124, Pitch_bend_c, 15, 7936
1, 46128, Pitch_bend_c, 15, 8000
1, 46132, Pitch_bend_c, 15, 8064
1, 46136, Pitch_bend_c, 15, 8128
1, 46140, Pitch_bend_c, 15, 8192
1, 46162, Note_on_c, 5, 64, 0
1, 46170, Note_on_c, 5, 64, 73
1, 46170, Note_on_c, 9, 69, 36
1, 46174, Note_on_c, 9, 69, 0
1, 46246, Note_on_c, 5, 64, 0
1, 46256, Note_on_c, 14, 74, 0
1, 46266, Note_on_c, 15, 71, 0
1, 46268, Note_on_c, 5, 64, 65
1, 46268, Note_on_c, 14, 69, 115
1, 46274, Note_on_c, 15, 66, 106
1, 46278, Note_on_c, 9, 69, 38
1, 46282, Note_on_c, 9, 69, 0
1, 46344, Note_on_c, 5, 64, 0
1, 46364, Note_on_c, 15, 68, 108
1, 46372, Note_on_c, 14, 69, 0
1, 46374, Note_on_c, 14, 71, 115
1, 46378, Note_on_c, 15, 66, 0
1, 46458, Note_on_c, 9, 42, 79
1, 46462, Note_on_c, 9, 42, 0
1, 46464, Control_c, 14, 1, 28
1, 46464, Control_c, 15, 1, 28
1, 46466, Note_on_c, 9, 37, 90
1, 46470, Note_on_c, 9, 37, 0
1, 46563, Control_c, 14, 1, 70
1, 46563, Control_c, 15, 1, 70
1, 46616, Note_on_c, 1, 28, 0
1, 46664, Note_on_c, 5, 64, 66
1, 46680, Control_c, 14, 1, 55
1, 46680, Control_c, 15, 1, 55
1, 46740, Note_on_c, 5, 64, 0
1, 46744, Note_on_c, 9, 36, 110
1, 46746, Note_on_c, 1, 40, 113
1, 46746, Note_on_c, 9, 69, 30
1, 46748, Note_on_c, 9, 36, 0
1, 46750, Note_on_c, 9, 69, 0
1, 46752, Note_on_c, 5, 64, 64
1, 46767, Control_c, 14, 1, 37
1, 46767, Control_c, 15, 1, 37
1, 46826, Note_on_c, 1, 40, 0
1, 46828, Note_on_c, 5, 64, 0
1, 46836, Note_on_c, 7, 73, 77
1, 46846, Note_on_c, 9, 37, 90
1, 46850, Note_on_c, 9, 37, 0
1, 46852, Note_on_c, 9, 42, 80
1, 46856, Note_on_c, 9, 42, 0
1, 46856, Note_on_c, 7, 61, 82
1, 46934, Note_on_c, 5, 64, 71
1, 46935, Control_c, 14, 1, 15
1, 46935, Control_c, 15, 1, 15
1, 46936, Note_on_c, 9, 36, 109
1, 46940, Note_on_c, 9, 36, 0
1, 46948, Note_on_c, 9, 69, 31
1, 46952, Note_on_c, 9, 69, 0
1, 46956, Note_on_c, 1, 40, 111
1, 47004, Note_on_c, 15, 68, 0
1, 47010, Note_on_c, 5, 64, 0
1, 47014, Note_on_c, 14, 71, 0
1, 47034, Note_on_c, 9, 36, 124
1, 47036, Note_on_c, 1, 40, 0
1, 47038, Note_on_c, 9, 36, 0
1, 47042, Note_on_c, 5, 52, 66
1, 47042, Note_on_c, 9, 69, 35
1, 47044, Note_on_c, 1, 28, 112
1, 47046, Note_on_c, 9, 69, 0
1, 47118, Note_on_c, 5, 52, 0
1, 47196, Note_on_c, 7, 73, 0
1, 47216, Note_on_c, 7, 61, 0
1, 47218, Note_on_c, 7, 71, 75
1, 47224, Note_on_c, 1, 28, 0
1, 47228, Note_on_c, 7, 59, 76
1, 47232, Note_on_c, 5, 64, 72
1, 47234, Note_on_c, 9, 69, 31
1, 47236, Note_on_c, 9, 42, 77
1, 47238, Note_on_c, 9, 69, 0
1, 47238, Note_on_c, 1, 40, 118
1, 47238, Note_on_c, 9, 37, 95
1, 47240, Note_on_c, 9, 42, 0
1, 47242, Note_on_c, 9, 37, 0
1, 47308, Note_on_c, 5, 64, 0
1, 47318, Note_on_c, 1, 40, 0
1, 47324, Note_on_c, 9, 69, 35
1, 47328, Note_on_c, 9, 69, 0
1, 47332, Note_on_c, 5, 64, 73
1, 47340, Note_on_c, 1, 40, 110
1, 47408, Note_on_c, 5, 64, 0
1, 47420, Note_on_c, 1, 40, 0
1, 47420, Note_on_c, 5, 52, 68
1, 47422, Note_on_c, 1, 28, 109
1, 47426, Note_on_c, 9, 69, 29
1, 47430, Note_on_c, 9, 69, 0
1, 47496, Note_on_c, 5, 52, 0
1, 47578, Note_on_c, 7, 71, 0
1, 47588, Note_on_c, 7, 59, 0
1, 47602, Note_on_c, 1, 28, 0
1, 47614, Note_on_c, 9, 36, 124
1, 47614, Note_on_c, 9, 44, 117
1, 47616, Note_on_c, 1, 28, 117
1, 47618, Note_on_c, 9, 44, 0
1, 47618, Note_on_c, 9, 36, 0
1, 47618, Note_on_c, 7, 66, 77
1, 47618, Note_on_c, 9, 37, 91
1, 47618, Note_on_c, 9, 69, 38
1, 47620, Note_on_c, 7, 78, 76
1, 47622, Note_on_c, 9, 69, 0
1, 47622, Note_on_c, 9, 37, 0
1, 47624, Note_on_c, 5, 64, 67
1, 47700, Note_on_c, 5, 64, 0
1, 47710, Note_on_c, 5, 64, 67
1, 47716, Note_on_c, 9, 69, 33
1, 47720, Note_on_c, 9, 69, 0
1, 47786, Note_on_c, 5, 64, 0
1, 47802, Note_on_c, 5, 64, 70
1, 47808, Note_on_c, 9, 69, 35
1, 47812, Note_on_c, 9, 69, 0
1, 47878, Note_on_c, 5, 64, 0
1, 47978, Note_on_c, 7, 66, 0
1, 47980, Note_on_c, 7, 78, 0
1, 48000, Note_on_c, 9, 42, 77
1, 48004, Note_on_c, 9, 42, 0
1, 48004, Note_on_c, 7, 64, 76
1, 48006, Note_on_c, 9, 37, 91
1, 48008, Note_on_c, 7, 76, 83
1, 48010, Note_on_c, 9, 37, 0
1, 48156, Note_on_c, 1, 28, 0
1, 48188, Note_on_c, 5, 64, 72
1, 48264, Note_on_c, 5, 64, 0
1, 48276, Note_on_c, 1, 40, 110
1, 48282, Note_on_c, 5, 64, 73
1, 48284, Note_on_c, 9, 69, 34
1, 48288, Note_on_c, 9, 69, 0
1, 48292, Note_on_c, 9, 36, 102
1, 48296, Note_on_c, 9, 36, 0
1, 48356, Note_on_c, 1, 40, 0
1, 48358, Note_on_c, 5, 64, 0
1, 48364, Note_on_c, 7, 64, 0
1, 48368, Note_on_c, 7, 76, 0
1, 48370, Note_on_c, 7, 69, 80
1, 48376, Note_on_c, 9, 37, 93
1, 48380, Note_on_c, 9, 37, 0
1, 48386, Note_on_c, 7, 81, 80
1, 48390, Note_on_c, 9, 42, 71
1, 48394, Note_on_c, 9, 42, 0
1, 48478, Note_on_c, 5, 64, 68
1, 48484, Note_on_c, 9, 69, 36
1, 48486, Note_on_c, 1, 40, 109
1, 48486, Note_on_c, 9, 36, 102
1, 48488, Note_on_c, 9, 69, 0
1, 48490, Note_on_c, 9, 36, 0
1, 48554, Note_on_c, 5, 64, 0
1, 48566, Note_on_c, 1, 40, 0
1, 48568, Note_on_c, 1, 28, 118
1, 48570, Note_on_c, 9, 69, 36
1, 48572, Note_on_c, 5, 52, 70
1, 48572, Note_on_c, 9, 36, 123
1, 48574, Note_on_c, 9, 69, 0
1, 48576, Note_on_c, 9, 36, 0
1, 48648, Note_on_c, 5, 52, 0
1, 48730, Note_on_c, 7, 69, 0
1, 48746, Note_on_c, 7, 81, 0
1, 48748, Note_on_c, 1, 28, 0
1, 48754, Note_on_c, 7, 80, 81
1, 48758, Note_on_c, 5, 64, 67
1, 48762, Note_on_c, 14, 74, 110
1, 48764, Note_on_c, 1, 40, 112
1, 48764, Note_on_c, 15, 71, 109
1, 48768, Note_on_c, 9, 42, 72
1, 48770, Note_on_c, 9, 69, 33
1, 48772, Note_on_c, 9, 42, 0
1, 48774, Note_on_c, 9, 69, 0
1, 48774, Note_on_c, 9, 37, 96
1, 48776, Note_on_c, 7, 68, 79
1, 48778, Note_on_c, 9, 37, 0
1, 48834, Note_on_c, 5, 64, 0
1, 48844, Note_on_c, 1, 40, 0
1, 48860, Note_on_c, 9, 69, 31
1, 48862, Note_on_c, 5, 64, 70
1, 48864, Note_on_c, 9, 69, 0
1, 48870, Note_on_c, 1, 40, 110
1, 48938, Note_on_c, 5, 64, 0
1, 48942, Note_on_c, 14, 74, 0
1, 48944, Note_on_c, 15, 71, 0
1, 48950, Note_on_c, 1, 40, 0
1, 48950, Note_on_c, 5, 52, 69
1, 48954, Note_on_c, 1, 28, 109
1, 48960, Note_on_c, 15, 73, 110
1, 48962, Note_on_c, 9, 69, 35
1, 48966, Note_on_c, 9, 69, 0
1, 48966, Note_on_c, 14, 76, 114
1, 49026, Note_on_c, 5, 52, 0
1, 49114, Note_on_c, 7, 80, 0
1, 49134, Note_on_c, 6, 68, 0
1, 49134, Note_on_c, 1, 28, 0
1, 49136, Note_on_c, 7, 68, 0
1, 49138, Note_on_c, 6, 62, 71
1, 49140, Note_on_c, 15, 73, 0
1, 49144, Note_on_c, 9, 69, 37
1, 49144, Note_on_c, 14, 78, 115
1, 49146, Note_on_c, 6, 59, 0
1, 49146, Note_on_c, 14, 76, 0
1, 49146, Note_on_c, 5, 64, 68
1, 49148, Note_on_c, 9, 69, 0
1, 49148, Note_on_c, 6, 66, 65
1, 49148, Note_on_c, 7, 69, 80
1, 49148, Note_on_c, 9, 36, 124
1, 49150, Note_on_c, 6, 64, 0
1, 49150, Note_on_c, 15, 74, 103
1, 49152, Note_on_c, 9, 36, 0
1, 49152, Pitch_bend_c, 14, 7296
1, 49152, Pitch_bend_c, 15, 7296
1, 49156, Note_on_c, 9, 37, 96
1, 49156, Note_on_c, 9, 44, 123
1, 49160, Note_on_c, 9, 44, 0
1, 49160, Note_on_c, 9, 37, 0
1, 49160, Pitch_bend_c, 14, 7360
1, 49160, Pitch_bend_c, 15, 7360
1, 49162, Note_on_c, 7, 78, 76
1, 49164, Note_on_c, 1, 28, 118
1, 49164, Pitch_bend_c, 14, 7424
1, 49164, Pitch_bend_c, 15, 7424
1, 49168, Pitch_bend_c, 14, 7488
1, 49168, Pitch_bend_c, 15, 7488
1, 49172, Pitch_bend_c, 14, 7552
1, 49172, Pitch_bend_c, 15, 7552
1, 49176, Pitch_bend_c, 14, 7616
1, 49176, Pitch_bend_c, 15, 7616
1, 49180, Pitch_bend_c, 14, 7680
1, 49180, Pitch_bend_c, 15, 7680
1, 49184, Pitch_bend_c, 14, 7744
1, 49184, Pitch_bend_c, 15, 7744
1, 49188, Pitch_bend_c, 14, 7808
1, 49188, Pitch_bend_c, 15, 7808
1, 49192, Pitch_bend_c, 14, 7872
1, 49192, Pitch_bend_c, 15, 7872
1, 49196, Pitch_bend_c, 14, 7936
1, 49196, Pitch_bend_c, 15, 7936
1, 49200, Pitch_bend_c, 14, 8000
1, 49200, Pitch_bend_c, 15, 8000
1, 49204, Pitch_bend_c, 14, 8064
1, 49204, Pitch_bend_c, 15, 8064
1, 49208, Pitch_bend_c, 14, 8128
1, 49208, Pitch_bend_c, 15, 8128
1, 49212, Pitch_bend_c, 14, 8192
1, 49212, Pitch_bend_c, 15, 8192
1, 49222, Note_on_c, 5, 64, 0
1, 49240, Note_on_c, 9, 69, 35
1, 49244, Note_on_c, 9, 69, 0
1, 49246, Note_on_c, 5, 64, 64
1, 49322, Note_on_c, 5, 64, 0
1, 49324, Note_on_c, 14, 78, 0
1, 49330, Note_on_c, 15, 74, 0
1, 49334, Note_on_c, 5, 64, 70
1, 49336, Note_on_c, 14, 76, 116
1, 49346, Note_on_c, 9, 69, 32
1, 49348, Note_on_c, 15, 73, 106
1, 49350, Note_on_c, 9, 69, 0
1, 49410, Note_on_c, 5, 64, 0
1, 49516, Note_on_c, 14, 76, 0
1, 49528, Note_on_c, 15, 73, 0
1, 49530, Note_on_c, 9, 37, 88
1, 49530, Note_on_c, 15, 74, 111
1, 49534, Note_on_c, 9, 37, 0
1, 49534, Note_on_c, 9, 42, 72
1, 49538, Note_on_c, 9, 42, 0
1, 49542, Note_on_c, 14, 78, 114
1, 49704, Note_on_c, 1, 28, 0
1, 49710, Note_on_c, 15, 74, 0
1, 49718, Note_on_c, 5, 64, 68
1, 49722, Note_on_c, 14, 78, 0
1, 49722, Note_on_c, 14, 76, 109
1, 49732, Note_on_c, 15, 73, 105
1, 49794, Note_on_c, 5, 64, 0
1, 49824, Note_on_c, 9, 69, 34
1, 49824, Note_on_c, 14, 78, 117
1, 49824, Pitch_bend_c, 15, 7296
1, 49824, Note_on_c, 15, 74, 112
1, 49826, Note_on_c, 14, 76, 0
1, 49826, Note_on_c, 5, 64, 66
1, 49826, Note_on_c, 9, 36, 103
1, 49828, Note_on_c, 9, 69, 0
1, 49830, Note_on_c, 9, 36, 0
1, 49832, Pitch_bend_c, 15, 7360
1, 49836, Note_on_c, 15, 73, 0
1, 49836, Note_on_c, 1, 40, 116
1, 49836, Pitch_bend_c, 15, 7424
1, 49840, Pitch_bend_c, 15, 7488
1, 49844, Pitch_bend_c, 15, 7552
1, 49848, Pitch_bend_c, 15, 7616
1, 49852, Pitch_bend_c, 15, 7680
1, 49856, Pitch_bend_c, 15, 7744
1, 49860, Pitch_bend_c, 15, 7808
1, 49864, Pitch_bend_c, 15, 7872
1, 49868, Pitch_bend_c, 15, 7936
1, 49872, Pitch_bend_c, 15, 8000
1, 49876, Pitch_bend_c, 15, 8064
1, 49880, Pitch_bend_c, 15, 8128
1, 49884, Pitch_bend_c, 15, 8192
1, 49902, Note_on_c, 5, 64, 0
1, 49912, Note_on_c, 9, 42, 73
1, 49916, Note_on_c, 9, 42, 0
1, 49916, Note_on_c, 1, 40, 0
1, 49924, Note_on_c, 9, 37, 94
1, 49928, Note_on_c, 9, 37, 0
1, 50004, Note_on_c, 14, 78, 0
1, 50004, Note_on_c, 15, 74, 0
1, 50012, Note_on_c, 5, 64, 69
1, 50012, Note_on_c, 14, 76, 113
1, 50014, Note_on_c, 9, 36, 109
1, 50016, Note_on_c, 9, 69, 38
1, 50018, Note_on_c, 9, 36, 0
1, 50020, Note_on_c, 9, 69, 0
1, 50020, Note_on_c, 1, 40, 109
1, 50020, Note_on_c, 15, 73, 110
1, 50088, Note_on_c, 5, 64, 0
1, 50100, Note_on_c, 1, 40, 0
1, 50108, Note_on_c, 1, 28, 116
1, 50108, Note_on_c, 9, 36, 117
1, 50112, Note_on_c, 9, 36, 0
1, 50112, Note_on_c, 9, 69, 37
1, 50116, Note_on_c, 9, 69, 0
1, 50116, Note_on_c, 14, 76, 0
1, 50116, Note_on_c, 14, 74, 112
1, 50116, Note_on_c, 15, 71, 105
1, 50118, Note_on_c, 5, 52, 68
1, 50124, Note_on_c, 15, 73, 0
1, 50194, Note_on_c, 5, 52, 0
1, 50288, Note_on_c, 1, 28, 0
1, 50296, Note_on_c, 15, 71, 0
1, 50296, Note_on_c, 14, 74, 0
1, 50296, Note_on_c, 9, 37, 92
1, 50296, Note_on_c, 15, 71, 106
1, 50298, Note_on_c, 9, 42, 79
1, 50300, Note_on_c, 9, 37, 0
1, 50300, Note_on_c, 5, 64, 69
1, 50302, Note_on_c, 9, 42, 0
1, 50304, Note_on_c, 14, 74, 112
1, 50308, Note_on_c, 9, 69, 38
1, 50312, Note_on_c, 9, 69, 0
1, 50312, Note_on_c, 1, 40, 109
1, 50376, Note_on_c, 5, 64, 0
1, 50392, Note_on_c, 1, 40, 0
1, 50404, Note_on_c, 9, 69, 31
1, 50406, Note_on_c, 5, 64, 70
1, 50408, Note_on_c, 9, 69, 0
1, 50408, Note_on_c, 1, 40, 118
1, 50476, Note_on_c, 15, 71, 0
1, 50482, Note_on_c, 5, 64, 0
1, 50484, Note_on_c, 14, 74, 0
1, 50488, Note_on_c, 1, 40, 0
1, 50488, Note_on_c, 9, 69, 29
1, 50492, Note_on_c, 9, 69, 0
1, 50492, Note_on_c, 15, 73, 106
1, 50496, Note_on_c, 1, 28, 115
1, 50498, Note_on_c, 14, 76, 116
1, 50500, Note_on_c, 5, 52, 65
1, 50576, Note_on_c, 5, 52, 0
1, 50672, Note_on_c, 15, 73, 0
1, 50676, Note_on_c, 1, 28, 0
1, 50678, Note_on_c, 14, 76, 0
1, 50684, Note_on_c, 9, 36, 124
1, 50684, Note_on_c, 14, 78, 109
1, 50686, Note_on_c, 9, 44, 125
1, 50686, Note_on_c, 9, 69, 38
1, 50688, Note_on_c, 9, 36, 0
1, 50688, Note_on_c, 5, 64, 68
1, 50688, Pitch_bend_c, 14, 7296
1, 50688, Pitch_bend_c, 15, 7296
1, 50690, Note_on_c, 9, 69, 0
1, 50690, Note_on_c, 9, 44, 0
1, 50690, Note_on_c, 9, 37, 91
1, 50692, Note_on_c, 1, 28, 116
1, 50692, Note_on_c, 15, 74, 110
1, 50694, Note_on_c, 9, 37, 0
1, 50696, Pitch_bend_c, 14, 7360
1, 50696, Pitch_bend_c, 15, 7360
1, 50700, Pitch_bend_c, 14, 7424
1, 50700, Pitch_bend_c, 15, 7424
1, 50704, Pitch_bend_c, 14, 7488
1, 50704, Pitch_bend_c, 15, 7488
1, 50708, Pitch_bend_c, 14, 7552
1, 50708, Pitch_bend_c, 15, 7552
1, 50712, Pitch_bend_c, 14, 7616
1, 50712, Pitch_bend_c, 15, 7616
1, 50716, Pitch_bend_c, 14, 7680
1, 50716, Pitch_bend_c, 15, 7680
1, 50720, Pitch_bend_c, 14, 7744
1, 50720, Pitch_bend_c, 15, 7744
1, 50724, Pitch_bend_c, 14, 7808
1, 50724, Pitch_bend_c, 15, 7808
1, 50728, Pitch_bend_c, 14, 7872
1, 50728, Pitch_bend_c, 15, 7872
1, 50732, Pitch_bend_c, 14, 7936
1, 50732, Pitch_bend_c, 15, 7936
1, 50736, Pitch_bend_c, 14, 8000
1, 50736, Pitch_bend_c, 15, 8000
1, 50740, Pitch_bend_c, 14, 8064
1, 50740, Pitch_bend_c, 15, 8064
1, 50744, Pitch_bend_c, 14, 8128
1, 50744, Pitch_bend_c, 15, 8128
1, 50748, Pitch_bend_c, 14, 8192
1, 50748, Pitch_bend_c, 15, 8192
1, 50764, Note_on_c, 5, 64, 0
1, 50774, Note_on_c, 5, 64, 70
1, 50788, Note_on_c, 9, 69, 32
1, 50792, Note_on_c, 9, 69, 0
1, 50850, Note_on_c, 5, 64, 0
1, 50864, Note_on_c, 14, 78, 0
1, 50872, Note_on_c, 15, 74, 0
1, 50878, Note_on_c, 15, 73, 103
1, 50880, Note_on_c, 14, 76, 111
1, 50884, Note_on_c, 5, 64, 70
1, 50886, Note_on_c, 9, 69, 29
1, 50890, Note_on_c, 9, 69, 0
1, 50960, Note_on_c, 5, 64, 0
1, 50982, Note_on_c, 15, 73, 0
1, 50982, Note_on_c, 14, 78, 117
1, 50982, Note_on_c, 15, 74, 104
1, 50984, Note_on_c, 14, 76, 0
1, 51072, Note_on_c, 9, 37, 90
1, 51074, Note_on_c, 9, 42, 74
1, 51076, Note_on_c, 9, 37, 0
1, 51078, Note_on_c, 9, 42, 0
1, 51162, Note_on_c, 15, 74, 0
1, 51162, Note_on_c, 14, 78, 0
1, 51164, Note_on_c, 15, 73, 106
1, 51170, Note_on_c, 14, 76, 111
1, 51232, Note_on_c, 1, 28, 0
1, 51256, Note_on_c, 14, 78, 111
1, 51258, Note_on_c, 15, 74, 105
1, 51268, Note_on_c, 15, 73, 0
1, 51270, Note_on_c, 5, 64, 66
1, 51274, Note_on_c, 14, 76, 0
1, 51346, Note_on_c, 5, 64, 0
1, 51352, Note_on_c, 9, 69, 29
1, 51356, Note_on_c, 9, 69, 0
1, 51358, Note_on_c, 9, 36, 108
1, 51362, Note_on_c, 9, 36, 0
1, 51364, Note_on_c, 5, 64, 64
1, 51370, Note_on_c, 1, 40, 109
1, 51440, Note_on_c, 5, 64, 0
1, 51450, Note_on_c, 1, 40, 0
1, 51454, Note_on_c, 9, 42, 73
1, 51458, Note_on_c, 9, 42, 0
1, 51458, Note_on_c, 9, 37, 96
1, 51462, Note_on_c, 9, 37, 0
1, 51544, Note_on_c, 5, 64, 73
1, 51554, Note_on_c, 9, 36, 110
1, 51556, Note_on_c, 1, 40, 116
1, 51558, Note_on_c, 9, 36, 0
1, 51558, Note_on_c, 9, 69, 36
1, 51562, Note_on_c, 9, 69, 0
1, 51616, Note_on_c, 14, 78, 0
1, 51618, Note_on_c, 15, 74, 0
1, 51620, Note_on_c, 5, 64, 0
1, 51636, Note_on_c, 1, 40, 0
1, 51640, Note_on_c, 9, 69, 29
1, 51642, Note_on_c, 1, 28, 115
1, 51644, Note_on_c, 9, 69, 0
1, 51652, Note_on_c, 9, 36, 119
1, 51654, Note_on_c, 5, 52, 72
1, 51656, Note_on_c, 9, 36, 0
1, 51730, Note_on_c, 5, 52, 0
1, 51736, Note_on_c, 14, 76, 116
1, 51746, Note_on_c, 15, 73, 111
1, 51822, Note_on_c, 1, 28, 0
1, 51830, Note_on_c, 1, 40, 113
1, 51832, Note_on_c, 5, 64, 66
1, 51834, Note_on_c, 9, 69, 37
1, 51838, Note_on_c, 9, 69, 0
1, 51840, Note_on_c, 14, 76, 0
1, 51840, Note_on_c, 9, 37, 96
1, 51840, Note_on_c, 14, 78, 118
1, 51844, Note_on_c, 9, 37, 0
1, 51844, Note_on_c, 9, 42, 71
1, 51844, Note_on_c, 15, 74, 107
1, 51848, Note_on_c, 9, 42, 0
1, 51850, Note_on_c, 15, 73, 0
1, 51908, Note_on_c, 5, 64, 0
1, 51910, Note_on_c, 1, 40, 0
1, 51928, Note_on_c, 9, 69, 30
1, 51932, Note_on_c, 9, 69, 0
1, 51934, Note_on_c, 5, 64, 70
1, 51944, Note_on_c, 1, 40, 109
1, 52010, Note_on_c, 5, 64, 0
1, 52020, Note_on_c, 14, 78, 0
1, 52024, Note_on_c, 1, 40, 0
1, 52024, Note_on_c, 15, 74, 0
1, 52024, Note_on_c, 1, 28, 117
1, 52028, Note_on_c, 5, 52, 68
1, 52030, Note_on_c, 14, 81, 115
1, 52032, Pitch_bend_c, 14, 7296
1, 52032, Pitch_bend_c, 15, 7296
1, 52032, Note_on_c, 15, 78, 103
1, 52034, Note_on_c, 9, 69, 36
1, 52038, Note_on_c, 9, 69, 0
1, 52040, Pitch_bend_c, 14, 7360
1, 52040, Pitch_bend_c, 15, 7360
1, 52044, Pitch_bend_c, 14, 7424
1, 52044, Pitch_bend_c, 15, 7424
1, 52048, Pitch_bend_c, 14, 7488
1, 52048, Pitch_bend_c, 15, 7488
1, 52052, Pitch_bend_c, 14, 7552
1, 52052, Pitch_bend_c, 15, 7552
1, 52056, Pitch_bend_c, 14, 7616
1, 52056, Pitch_bend_c, 15, 7616
1, 52060, Pitch_bend_c, 14, 7680
1, 52060, Pitch_bend_c, 15, 7680
1, 52064, Pitch_bend_c, 14, 7744
1, 52064, Pitch_bend_c, 15, 7744
1, 52068, Pitch_bend_c, 14, 7808
1, 52068, Pitch_bend_c, 15, 7808
1, 52072, Pitch_bend_c, 14, 7872
1, 52072, Pitch_bend_c, 15, 7872
1, 52076, Pitch_bend_c, 14, 7936
1, 52076, Pitch_bend_c, 15, 7936
1, 52080, Pitch_bend_c, 14, 8000
1, 52080, Pitch_bend_c, 15, 8000
1, 52084, Pitch_bend_c, 14, 8064
1, 52084, Pitch_bend_c, 15, 8064
1, 52088, Pitch_bend_c, 14, 8128
1, 52088, Pitch_bend_c, 15, 8128
1, 52092, Pitch_bend_c, 14, 8192
1, 52092, Pitch_bend_c, 15, 8192
1, 52104, Note_on_c, 5, 52, 0
1, 52188, Note_on_c, 7, 69, 0
1, 52198, Note_on_c, 6, 62, 0
1, 52202, Note_on_c, 7, 78, 0
1, 52204, Note_on_c, 1, 28, 0
1, 52208, Note_on_c, 6, 66, 0
1, 52210, Note_on_c, 14, 81, 0
1, 52212, Note_on_c, 15, 78, 0
1, 52216, Note_on_c, 1, 28, 118
1, 52216, Note_on_c, 7, 76, 78
1, 52216, Note_on_c, 15, 76, 110
1, 52218, Note_on_c, 14, 80, 112
1, 52222, Note_on_c, 6, 59, 65
1, 52222, Note_on_c, 6, 68, 72
1, 52226, Note_on_c, 9, 44, 119
1, 52228, Note_on_c, 9, 37, 93
1, 52228, Note_on_c, 9, 69, 30
1, 52230, Note_on_c, 9, 44, 0
1, 52230, Note_on_c, 6, 64, 72
1, 52230, Note_on_c, 9, 36, 119
1, 52232, Note_on_c, 9, 69, 0
1, 52232, Note_on_c, 9, 37, 0
1, 52232, Note_on_c, 5, 64, 67
1, 52234, Note_on_c, 9, 36, 0
1, 52236, Note_on_c, 7, 80, 76
1, 52308, Note_on_c, 5, 64, 0
1, 52316, Note_on_c, 5, 64, 65
1, 52326, Note_on_c, 9, 69, 34
1, 52330, Note_on_c, 9, 69, 0
1, 52392, Note_on_c, 5, 64, 0
1, 52414, Note_on_c, 9, 69, 31
1, 52418, Note_on_c, 9, 69, 0
1, 52424, Note_on_c, 5, 64, 65
1, 52500, Note_on_c, 5, 64, 0
1, 52576, Note_on_c, 15, 76, 0
1, 52578, Note_on_c, 14, 80, 0
1, 52600, Note_on_c, 15, 76, 103
1, 52602, Note_on_c, 14, 80, 110
1, 52608, Note_on_c, 9, 37, 89
1, 52610, Note_on_c, 9, 42, 73
1, 52612, Note_on_c, 9, 37, 0
1, 52614, Note_on_c, 9, 42, 0
1, 52704, Control_c, 14, 1, 28
1, 52704, Control_c, 15, 1, 28
1, 52756, Note_on_c, 1, 28, 0
1, 52790, Note_on_c, 5, 64, 72
1, 52803, Control_c, 14, 1, 70
1, 52803, Control_c, 15, 1, 70
1, 52866, Note_on_c, 5, 64, 0
1, 52892, Note_on_c, 9, 36, 102
1, 52896, Note_on_c, 9, 36, 0
1, 52898, Note_on_c, 9, 69, 29
1, 52900, Note_on_c, 1, 40, 115
1, 52900, Note_on_c, 5, 64, 66
1, 52902, Note_on_c, 9, 69, 0
1, 52920, Control_c, 14, 1, 55
1, 52920, Control_c, 15, 1, 55
1, 52976, Note_on_c, 5, 64, 0
1, 52980, Note_on_c, 1, 40, 0
1, 52984, Note_on_c, 9, 42, 75
1, 52988, Note_on_c, 9, 42, 0
1, 52990, Note_on_c, 9, 37, 94
1, 52994, Note_on_c, 9, 37, 0
1, 53007, Control_c, 14, 1, 37
1, 53007, Control_c, 15, 1, 37
1, 53080, Note_on_c, 1, 40, 118
1, 53080, Note_on_c, 9, 69, 29
1, 53084, Note_on_c, 9, 69, 0
1, 53084, Note_on_c, 9, 36, 103
1, 53088, Note_on_c, 9, 36, 0
1, 53092, Note_on_c, 5, 64, 64
1, 53160, Note_on_c, 1, 40, 0
1, 53168, Note_on_c, 5, 64, 0
1, 53175, Control_c, 14, 1, 15
1, 53175, Control_c, 15, 1, 15
1, 53180, Note_on_c, 5, 52, 68
1, 53180, Note_on_c, 9, 36, 125
1, 53184, Note_on_c, 9, 36, 0
1, 53186, Note_on_c, 9, 69, 37
1, 53190, Note_on_c, 9, 69, 0
1, 53192, Note_on_c, 1, 28, 118
1, 53256, Note_on_c, 5, 52, 0
1, 53320, Note_on_c, 15, 76, 0
1, 53322, Note_on_c, 14, 80, 0
1, 53372, Note_on_c, 1, 28, 0
1, 53372, Note_on_c, 9, 42, 79
1, 53372, Note_on_c, 14, 80, 110
1, 53376, Note_on_c, 9, 42, 0
1, 53376, Note_on_c, 15, 73, 107
1, 53378, Note_on_c, 9, 69, 38
1, 53382, Note_on_c, 9, 69, 0
1, 53382, Note_on_c, 1, 40, 116
1, 53382, Note_on_c, 5, 64, 67
1, 53382, Note_on_c, 9, 37, 91
1, 53386, Note_on_c, 9, 37, 0
1, 53458, Note_on_c, 5, 64, 0
1, 53460, Note_on_c, 1, 40, 0
1, 53460, Note_on_c, 1, 40, 114
1, 53464, Note_on_c, 15, 68, 107
1, 53468, Note_on_c, 9, 69, 34
1, 53472, Note_on_c, 9, 69, 0
1, 53480, Note_on_c, 15, 73, 0
1, 53480, Note_on_c, 5, 64, 71
1, 53528, Note_on_c, 7, 76, 0
1, 53540, Note_on_c, 1, 40, 0
1, 53552, Note_on_c, 14, 80, 0
1, 53556, Note_on_c, 5, 64, 0
1, 53560, Note_on_c, 7, 73, 80
1, 53562, Note_on_c, 5, 52, 68
1, 53562, Note_on_c, 9, 69, 36
1, 53562, Note_on_c, 15, 71, 110
1, 53566, Note_on_c, 9, 69, 0
1, 53568, Note_on_c, 15, 68, 0
1, 53570, Note_on_c, 14, 80, 114
1, 53572, Note_on_c, 1, 28, 112
1, 53638, Note_on_c, 5, 52, 0
1, 53658, Note_on_c, 15, 66, 104
1, 53666, Note_on_c, 15, 71, 0
1, 53740, Note_on_c, 7, 73, 0
1, 53750, Note_on_c, 14, 80, 0
1, 53752, Note_on_c, 1, 28, 0
1, 53752, Note_on_c, 1, 28, 117
1, 53754, Note_on_c, 5, 64, 69
1, 53754, Note_on_c, 7, 71, 78
1, 53758, Note_on_c, 9, 36, 123
1, 53760, Note_on_c, 9, 37, 89
1, 53760, Note_on_c, 14, 78, 112
1, 53760, Note_on_c, 15, 64, 110
1, 53762, Note_on_c, 9, 36, 0
1, 53762, Note_on_c, 15, 66, 0
1, 53764, Note_on_c, 9, 37, 0
1, 53766, Note_on_c, 9, 69, 32
1, 53770, Note_on_c, 9, 69, 0
1, 53830, Note_on_c, 5, 64, 0
1, 53848, Note_on_c, 5, 64, 68
1, 53852, Note_on_c, 9, 69, 29
1, 53856, Note_on_c, 9, 69, 0
1, 53856, Note_on_c, 14, 76, 109
1, 53864, Note_on_c, 14, 78, 0
1, 53924, Note_on_c, 5, 64, 0
1, 53952, Note_on_c, 9, 69, 29
1, 53956, Note_on_c, 9, 69, 0
1, 53960, Note_on_c, 5, 64, 69
1, 54036, Note_on_c, 5, 64, 0
1, 54116, Note_on_c, 14, 76, 0
1, 54120, Note_on_c, 15, 64, 0
1, 54138, Note_on_c, 5, 64, 64
1, 54148, Note_on_c, 9, 37, 90
1, 54152, Note_on_c, 9, 37, 0
1, 54214, Note_on_c, 5, 64, 0
1, 54240, Control_c, 15, 1, 28
1, 54240, Pitch_bend_c, 15, 7296
1, 54244, Note_on_c, 15, 80, 111
1, 54248, Pitch_bend_c, 15, 7360
1, 54252, Pitch_bend_c, 15, 7424
1, 54256, Pitch_bend_c, 15, 7488
1, 54260, Pitch_bend_c, 15, 7552
1, 54264, Pitch_bend_c, 15, 7616
1, 54268, Pitch_bend_c, 15, 7680
1, 54272, Pitch_bend_c, 15, 7744
1, 54276, Pitch_bend_c, 15, 7808
1, 54280, Pitch_bend_c, 15, 7872
1, 54284, Pitch_bend_c, 15, 7936
1, 54288, Pitch_bend_c, 15, 8000
1, 54292, Note_on_c, 1, 28, 0
1, 54292, Pitch_bend_c, 15, 8064
1, 54296, Pitch_bend_c, 15, 8128
1, 54300, Pitch_bend_c, 15, 8192
1, 54339, Control_c, 15, 1, 70
1, 54344, Note_on_c, 5, 64, 72
1, 54420, Note_on_c, 5, 64, 0
1, 54420, Note_on_c, 1, 40, 110
1, 54428, Note_on_c, 9, 36, 101
1, 54432, Note_on_c, 9, 36, 0
1, 54436, Note_on_c, 9, 69, 38
1, 54438, Note_on_c, 5, 64, 64
1, 54440, Note_on_c, 9, 69, 0
1, 54456, Control_c, 15, 1, 55
1, 54500, Note_on_c, 1, 40, 0
1, 54514, Note_on_c, 5, 64, 0
1, 54520, Note_on_c, 9, 37, 92
1, 54524, Note_on_c, 9, 37, 0
1, 54543, Control_c, 15, 1, 37
1, 54612, Note_on_c, 1, 40, 110
1, 54618, Note_on_c, 9, 36, 109
1, 54622, Note_on_c, 9, 36, 0
1, 54628, Note_on_c, 9, 69, 32
1, 54632, Note_on_c, 9, 69, 0
1, 54692, Note_on_c, 1, 40, 0
1, 54704, Note_on_c, 15, 80, 0
1, 54711, Control_c, 15, 1, 15
1, 54712, Note_on_c, 9, 36, 124
1, 54716, Note_on_c, 9, 36, 0
1, 54718, Note_on_c, 5, 71, 66
1, 54718, Note_on_c, 15, 78, 110
1, 54722, Note_on_c, 9, 69, 29
1, 54724, Note_on_c, 1, 28, 110
1, 54726, Note_on_c, 9, 69, 0
1, 54726, Note_on_c, 5, 76, 66
1, 54806, Note_on_c, 5, 71, 0
1, 54810, Note_on_c, 5, 66, 66
1, 54812, Note_on_c, 5, 61, 64
1, 54814, Note_on_c, 5, 76, 0
1, 54898, Note_on_c, 5, 66, 0
1, 54898, Note_on_c, 15, 78, 0
1, 54900, Note_on_c, 5, 61, 0
1, 54904, Note_on_c, 1, 28, 0
1, 54904, Note_on_c, 9, 69, 30
1, 54906, Note_on_c, 1, 40, 117
1, 54906, Note_on_c, 5, 76, 65
1, 54908, Note_on_c, 9, 69, 0
1, 54912, Note_on_c, 5, 71, 65
1, 54912, Note_on_c, 9, 37, 93
1, 54914, Note_on_c, 15, 76, 107
1, 54916, Note_on_c, 9, 37, 0
1, 54986, Note_on_c, 1, 40, 0
1, 55002, Note_on_c, 9, 69, 38
1, 55004, Note_on_c, 1, 35, 114
1, 55006, Note_on_c, 9, 69, 0
1, 55084, Note_on_c, 1, 35, 0
1, 55094, Note_on_c, 15, 76, 0
1, 55094, Note_on_c, 5, 76, 0
1, 55098, Note_on_c, 9, 69, 31
1, 55098, Note_on_c, 15, 71, 110
1, 55102, Note_on_c, 9, 69, 0
1, 55104, Note_on_c, 5, 71, 0
1, 55106, Note_on_c, 1, 28, 116
1, 55234, Note_on_c, 7, 71, 0
1, 55276, Note_on_c, 7, 80, 0
1, 55278, Note_on_c, 15, 71, 0
1, 55282, Note_on_c, 6, 59, 0
1, 55282, Note_on_c, 6, 68, 0
1, 55284, Note_on_c, 1, 33, 113
1, 55284, Note_on_c, 6, 52, 69
1, 55286, Note_on_c, 1, 28, 0
1, 55290, Note_on_c, 6, 64, 0
1, 55290, Note_on_c, 4, 64, 115
1, 55292, Note_on_c, 2, 57, 94
1, 55294, Note_on_c, 2, 61, 97
1, 55294, Note_on_c, 6, 61, 69
1, 55296, Note_on_c, 9, 36, 119
1, 55296, Note_on_c, 9, 42, 56
1, 55300, Note_on_c, 9, 42, 0
1, 55300, Note_on_c, 9, 36, 0
1, 55302, Note_on_c, 2, 64, 101
1, 55306, Note_on_c, 6, 57, 73
1, 55470, Note_on_c, 4, 64, 0
1, 55482, Note_on_c, 5, 73, 72
1, 55486, Note_on_c, 4, 69, 110
1, 55488, Note_on_c, 5, 69, 70
1, 55494, Note_on_c, 9, 42, 58
1, 55498, Note_on_c, 9, 42, 0
1, 55558, Note_on_c, 5, 73, 0
1, 55564, Note_on_c, 5, 69, 0
1, 55576, Note_on_c, 9, 44, 59
1, 55580, Note_on_c, 9, 44, 0
1, 55666, Note_on_c, 4, 69, 0
1, 55674, Note_on_c, 9, 42, 53
1, 55678, Note_on_c, 9, 42, 0
1, 55684, Note_on_c, 4, 74, 116
1, 55684, Note_on_c, 9, 38, 121
1, 55688, Note_on_c, 9, 38, 0
1, 55864, Note_on_c, 4, 74, 0
1, 55866, Note_on_c, 9, 42, 51
1, 55870, Note_on_c, 9, 42, 0
1, 55872, Note_on_c, 4, 73, 113
1, 55962, Note_on_c, 9, 36, 109
1, 55966, Note_on_c, 9, 36, 0
1, 55972, Note_on_c, 9, 46, 104
1, 55976, Note_on_c, 9, 46, 0
1, 56004, Note_on_c, 1, 33, 0
1, 56058, Note_on_c, 9, 42, 55
1, 56062, Note_on_c, 9, 42, 0
1, 56066, Note_on_c, 14, 73, 114
1, 56156, Note_on_c, 9, 36, 106
1, 56156, Note_on_c, 9, 46, 107
1, 56160, Note_on_c, 9, 46, 0
1, 56160, Note_on_c, 9, 36, 0
1, 56160, Control_c, 14, 1, 28
1, 56170, Note_on_c, 1, 42, 109
1, 56250, Note_on_c, 1, 42, 0
1, 56250, Note_on_c, 9, 42, 54
1, 56254, Note_on_c, 9, 42, 0
1, 56259, Control_c, 14, 1, 70
1, 56346, Note_on_c, 9, 44, 58
1, 56350, Note_on_c, 9, 44, 0
1, 56350, Note_on_c, 1, 33, 109
1, 56376, Control_c, 14, 1, 55
1, 56430, Note_on_c, 1, 33, 0
1, 56436, Note_on_c, 1, 40, 116
1, 56440, Note_on_c, 9, 42, 55
1, 56444, Note_on_c, 9, 42, 0
1, 56452, Note_on_c, 9, 38, 116
1, 56456, Note_on_c, 9, 38, 0
1, 56463, Control_c, 14, 1, 37
1, 56626, Note_on_c, 14, 73, 0
1, 56631, Control_c, 14, 1, 15
1, 56636, Note_on_c, 9, 42, 58
1, 56636, Note_on_c, 14, 78, 110
1, 56638, Note_on_c, 5, 69, 69
1, 56640, Note_on_c, 9, 42, 0
1, 56640, Note_on_c, 5, 64, 69
1, 56640, Pitch_bend_c, 14, 7296
1, 56648, Pitch_bend_c, 14, 7360
1, 56652, Pitch_bend_c, 14, 7424
1, 56656, Pitch_bend_c, 14, 7488
1, 56660, Pitch_bend_c, 14, 7552
1, 56664, Pitch_bend_c, 14, 7616
1, 56668, Pitch_bend_c, 14, 7680
1, 56672, Pitch_bend_c, 14, 7744
1, 56676, Pitch_bend_c, 14, 7808
1, 56680, Pitch_bend_c, 14, 7872
1, 56684, Pitch_bend_c, 14, 7936
1, 56688, Pitch_bend_c, 14, 8000
1, 56692, Pitch_bend_c, 14, 8064
1, 56696, Note_on_c, 1, 40, 0
1, 56696, Pitch_bend_c, 14, 8128
1, 56700, Pitch_bend_c, 14, 8192
1, 56714, Note_on_c, 5, 69, 0
1, 56716, Note_on_c, 5, 64, 0
1, 56738, Note_on_c, 5, 69, 71
1, 56742, Note_on_c, 5, 64, 64
1, 56744, Note_on_c, 1, 42, 113
1, 56814, Note_on_c, 5, 69, 0
1, 56816, Note_on_c, 14, 78, 0
1, 56818, Note_on_c, 5, 64, 0
1, 56820, Note_on_c, 1, 33, 115
1, 56824, Note_on_c, 1, 42, 0
1, 56824, Note_on_c, 5, 64, 72
1, 56824, Note_on_c, 5, 69, 64
1, 56824, Note_on_c, 14, 76, 118
1, 56826, Note_on_c, 9, 36, 125
1, 56828, Note_on_c, 9, 42, 52
1, 56830, Note_on_c, 9, 36, 0
1, 56832, Note_on_c, 9, 42, 0
1, 56900, Note_on_c, 5, 64, 0
1, 56900, Note_on_c, 5, 69, 0
1, 56926, Note_on_c, 5, 69, 67
1, 56936, Note_on_c, 5, 64, 64
1, 57002, Note_on_c, 5, 69, 0
1, 57012, Note_on_c, 5, 64, 0
1, 57020, Note_on_c, 5, 64, 72
1, 57028, Note_on_c, 5, 69, 66
1, 57028, Note_on_c, 9, 42, 53
1, 57032, Note_on_c, 9, 42, 0
1, 57096, Note_on_c, 5, 64, 0
1, 57104, Note_on_c, 5, 69, 0
1, 57116, Note_on_c, 5, 69, 69
1, 57116, Note_on_c, 5, 73, 64
1, 57116, Note_on_c, 9, 44, 51
1, 57120, Note_on_c, 9, 44, 0
1, 57184, Note_on_c, 14, 76, 0
1, 57192, Note_on_c, 5, 73, 0
1, 57192, Note_on_c, 5, 69, 0
1, 57212, Note_on_c, 9, 38, 120
1, 57216, Note_on_c, 9, 38, 0
1, 57216, Control_c, 14, 1, 28
1, 57218, Note_on_c, 14, 73, 118
1, 57220, Note_on_c, 9, 42, 51
1, 57224, Note_on_c, 9, 42, 0
1, 57315, Control_c, 14, 1, 70
1, 57406, Note_on_c, 9, 42, 50
1, 57410, Note_on_c, 9, 42, 0
1, 57432, Control_c, 14, 1, 55
1, 57496, Note_on_c, 9, 36, 101
1, 57500, Note_on_c, 9, 36, 0
1, 57500, Note_on_c, 9, 46, 106
1, 57504, Note_on_c, 9, 46, 0
1, 57519, Control_c, 14, 1, 37
1, 57540, Note_on_c, 1, 33, 0
1, 57594, Note_on_c, 9, 42, 55
1, 57596, Note_on_c, 5, 73, 64
1, 57598, Note_on_c, 9, 42, 0
1, 57598, Note_on_c, 5, 76, 73
1, 57598, Note_on_c, 5, 81, 71
1, 57672, Note_on_c, 5, 73, 0
1, 57674, Note_on_c, 5, 81, 0
1, 57674, Note_on_c, 5, 76, 0
1, 57678, Note_on_c, 14, 73, 0
1, 57687, Control_c, 14, 1, 15
1, 57690, Note_on_c, 9, 46, 100
1, 57692, Note_on_c, 1, 42, 114
1, 57694, Note_on_c, 9, 46, 0
1, 57694, Note_on_c, 5, 76, 67
1, 57698, Note_on_c, 9, 36, 110
1, 57700, Note_on_c, 14, 71, 118
1, 57702, Note_on_c, 9, 36, 0
1, 57702, Note_on_c, 5, 73, 65
1, 57704, Note_on_c, 5, 81, 72
1, 57770, Note_on_c, 5, 76, 0
1, 57772, Note_on_c, 1, 42, 0
1, 57778, Note_on_c, 5, 73, 0
1, 57780, Note_on_c, 5, 81, 0
1, 57786, Note_on_c, 5, 81, 66
1, 57790, Note_on_c, 14, 69, 117
1, 57792, Note_on_c, 5, 73, 66
1, 57792, Note_on_c, 9, 42, 54
1, 57796, Note_on_c, 9, 42, 0
1, 57798, Note_on_c, 5, 76, 69
1, 57804, Note_on_c, 14, 71, 0
1, 57862, Note_on_c, 5, 81, 0
1, 57868, Note_on_c, 5, 73, 0
1, 57874, Note_on_c, 5, 76, 0
1, 57876, Note_on_c, 1, 33, 117
1, 57892, Note_on_c, 9, 44, 55
1, 57896, Note_on_c, 9, 44, 0
1, 57952, Note_on_c, 4, 73, 0
1, 57956, Note_on_c, 1, 33, 0
1, 57970, Note_on_c, 14, 69, 0
1, 57974, Note_on_c, 1, 40, 115
1, 57974, Note_on_c, 5, 73, 68
1, 57984, Note_on_c, 9, 38, 124
1, 57986, Note_on_c, 5, 76, 68
1, 57986, Note_on_c, 9, 42, 55
1, 57988, Note_on_c, 9, 38, 0
1, 57990, Note_on_c, 9, 42, 0
1, 57990, Note_on_c, 5, 81, 70
1, 58050, Note_on_c, 5, 73, 0
1, 58062, Note_on_c, 5, 76, 0
1, 58066, Note_on_c, 5, 81, 0
1, 58076, Note_on_c, 5, 73, 70
1, 58078, Note_on_c, 5, 76, 71
1, 58088, Note_on_c, 5, 81, 66
1, 58152, Note_on_c, 5, 73, 0
1, 58154, Note_on_c, 5, 76, 0
1, 58164, Note_on_c, 5, 81, 0
1, 58168, Note_on_c, 5, 81, 64
1, 58170, Note_on_c, 5, 73, 72
1, 58180, Note_on_c, 5, 76, 69
1, 58180, Note_on_c, 9, 42, 54
1, 58184, Note_on_c, 9, 42, 0
1, 58234, Note_on_c, 1, 40, 0
1, 58244, Note_on_c, 5, 81, 0
1, 58246, Note_on_c, 5, 73, 0
1, 58256, Note_on_c, 5, 76, 0
1, 58276, Note_on_c, 1, 42, 113
1, 58332, Note_on_c, 2, 57, 0
1, 58334, Note_on_c, 2, 61, 0
1, 58342, Note_on_c, 2, 64, 0
1, 58344, Note_on_c, 6, 52, 0
1, 58354, Note_on_c, 6, 61, 0
1, 58356, Note_on_c, 1, 42, 0
1, 58356, Note_on_c, 6, 59, 64
1, 58360, Note_on_c, 6, 62, 66
1, 58360, Note_on_c, 9, 42, 57
1, 58362, Note_on_c, 4, 62, 116
1, 58364, Note_on_c, 9, 42, 0
1, 58366, Note_on_c, 6, 57, 0
1, 58366, Note_on_c, 2, 59, 95
1, 58366, Note_on_c, 9, 36, 117
1, 58368, Pitch_bend_c, 15, 7296
1, 58370, Note_on_c, 9, 36, 0
1, 58370, Note_on_c, 15, 74, 105
1, 58372, Note_on_c, 1, 31, 110
1, 58374, Note_on_c, 2, 55, 94
1, 58374, Note_on_c, 2, 62, 97
1, 58376, Pitch_bend_c, 15, 7360
1, 58380, Note_on_c, 6, 55, 71
1, 58380, Pitch_bend_c, 15, 7424
1, 58384, Pitch_bend_c, 15, 7488
1, 58388, Pitch_bend_c, 15, 7552
1, 58392, Pitch_bend_c, 15, 7616
1, 58396, Pitch_bend_c, 15, 7680
1, 58400, Pitch_bend_c, 15, 7744
1, 58404, Pitch_bend_c, 15, 7808
1, 58408, Pitch_bend_c, 15, 7872
1, 58412, Pitch_bend_c, 15, 7936
1, 58416, Pitch_bend_c, 15, 8000
1, 58420, Pitch_bend_c, 15, 8064
1, 58424, Pitch_bend_c, 15, 8128
1, 58428, Pitch_bend_c, 15, 8192
1, 58542, Note_on_c, 4, 62, 0
1, 58552, Note_on_c, 4, 67, 115
1, 58558, Note_on_c, 9, 42, 55
1, 58562, Note_on_c, 9, 42, 0
1, 58564, Note_on_c, 5, 67, 72
1, 58566, Note_on_c, 5, 71, 73
1, 58640, Note_on_c, 5, 67, 0
1, 58642, Note_on_c, 5, 71, 0
1, 58730, Note_on_c, 15, 74, 0
1, 58732, Note_on_c, 4, 67, 0
1, 58744, Note_on_c, 4, 72, 109
1, 58748, Note_on_c, 15, 74, 103
1, 58752, Note_on_c, 9, 38, 124
1, 58754, Note_on_c, 9, 42, 55
1, 58756, Note_on_c, 9, 38, 0
1, 58758, Note_on_c, 9, 42, 0
1, 58924, Note_on_c, 4, 72, 0
1, 58940, Note_on_c, 4, 71, 117
1, 58944, Note_on_c, 9, 42, 53
1, 58948, Note_on_c, 9, 42, 0
1, 59042, Note_on_c, 9, 36, 102
1, 59046, Note_on_c, 9, 36, 0
1, 59046, Note_on_c, 9, 44, 57
1, 59050, Note_on_c, 9, 44, 0
1, 59092, Note_on_c, 1, 31, 0
1, 59108, Note_on_c, 15, 74, 0
1, 59130, Note_on_c, 9, 42, 57
1, 59130, Note_on_c, 15, 74, 103
1, 59134, Note_on_c, 9, 42, 0
1, 59136, Pitch_bend_c, 15, 7296
1, 59144, Pitch_bend_c, 15, 7360
1, 59148, Pitch_bend_c, 15, 7424
1, 59152, Pitch_bend_c, 15, 7488
1, 59156, Pitch_bend_c, 15, 7552
1, 59160, Pitch_bend_c, 15, 7616
1, 59164, Pitch_bend_c, 15, 7680
1, 59168, Pitch_bend_c, 15, 7744
1, 59172, Pitch_bend_c, 15, 7808
1, 59176, Pitch_bend_c, 15, 7872
1, 59180, Pitch_bend_c, 15, 7936
1, 59184, Pitch_bend_c, 15, 8000
1, 59188, Pitch_bend_c, 15, 8064
1, 59192, Pitch_bend_c, 15, 8128
1, 59196, Pitch_bend_c, 15, 8192
1, 59226, Note_on_c, 9, 36, 110
1, 59230, Note_on_c, 9, 36, 0
1, 59230, Note_on_c, 9, 46, 108
1, 59234, Note_on_c, 9, 46, 0
1, 59240, Note_on_c, 1, 42, 118
1, 59300, Note_on_c, 4, 71, 0
1, 59320, Note_on_c, 1, 42, 0
1, 59324, Note_on_c, 4, 67, 117
1, 59334, Note_on_c, 9, 42, 56
1, 59338, Note_on_c, 9, 42, 0
1, 59410, Note_on_c, 1, 31, 115
1, 59428, Note_on_c, 9, 44, 56
1, 59432, Note_on_c, 9, 44, 0
1, 59490, Note_on_c, 1, 31, 0
1, 59490, Note_on_c, 15, 74, 0
1, 59508, Note_on_c, 1, 40, 115
1, 59520, Note_on_c, 15, 73, 111
1, 59526, Note_on_c, 9, 38, 120
1, 59526, Note_on_c, 9, 42, 57
1, 59530, Note_on_c, 9, 42, 0
1, 59530, Note_on_c, 9, 38, 0
1, 59684, Note_on_c, 4, 67, 0
1, 59700, Note_on_c, 15, 73, 0
1, 59702, Note_on_c, 4, 62, 117
1, 59704, Note_on_c, 5, 62, 70
1, 59704, Note_on_c, 9, 42, 57
1, 59708, Note_on_c, 9, 42, 0
1, 59710, Note_on_c, 15, 72, 105
1, 59720, Note_on_c, 5, 67, 73
1, 59768, Note_on_c, 1, 40, 0
1, 59780, Note_on_c, 5, 62, 0
1, 59796, Note_on_c, 5, 67, 0
1, 59796, Note_on_c, 1, 42, 117
1, 59800, Note_on_c, 5, 62, 67
1, 59802, Note_on_c, 5, 67, 70
1, 59876, Note_on_c, 5, 62, 0
1, 59876, Note_on_c, 1, 42, 0
1, 59878, Note_on_c, 5, 67, 0
1, 59890, Note_on_c, 15, 72, 0
1, 59898, Note_on_c, 15, 71, 109
1, 59900, Note_on_c, 5, 67, 71
1, 59900, Note_on_c, 9, 42, 54
1, 59904, Note_on_c, 9, 42, 0
1, 59904, Note_on_c, 1, 31, 110
1, 59904, Note_on_c, 5, 62, 68
1, 59906, Note_on_c, 9, 36, 117
1, 59910, Note_on_c, 9, 36, 0
1, 59976, Note_on_c, 5, 67, 0
1, 59980, Note_on_c, 5, 62, 0
1, 59998, Note_on_c, 5, 62, 69
1, 60000, Control_c, 15, 1, 28
1, 60004, Note_on_c, 5, 67, 73
1, 60074, Note_on_c, 5, 62, 0
1, 60080, Note_on_c, 5, 67, 0
1, 60090, Note_on_c, 9, 42, 55
1, 60094, Note_on_c, 9, 42, 0
1, 60099, Control_c, 15, 1, 70
1, 60100, Note_on_c, 5, 67, 68
1, 60102, Note_on_c, 5, 62, 66
1, 60176, Note_on_c, 5, 67, 0
1, 60178, Note_on_c, 5, 62, 0
1, 60184, Note_on_c, 5, 67, 65
1, 60194, Note_on_c, 5, 62, 70
1, 60216, Control_c, 15, 1, 55
1, 60260, Note_on_c, 5, 67, 0
1, 60270, Note_on_c, 5, 62, 0
1, 60280, Note_on_c, 9, 42, 52
1, 60282, Note_on_c, 9, 38, 123
1, 60284, Note_on_c, 9, 42, 0
1, 60286, Note_on_c, 9, 38, 0
1, 60303, Control_c, 15, 1, 37
1, 60471, Control_c, 15, 1, 15
1, 60474, Note_on_c, 9, 42, 54
1, 60478, Note_on_c, 9, 42, 0
1, 60576, Note_on_c, 9, 36, 105
1, 60580, Note_on_c, 9, 36, 0
1, 60582, Note_on_c, 9, 44, 54
1, 60586, Note_on_c, 9, 44, 0
1, 60618, Note_on_c, 15, 71, 0
1, 60624, Note_on_c, 1, 31, 0
1, 60668, Note_on_c, 9, 42, 57
1, 60672, Note_on_c, 9, 42, 0
1, 60766, Note_on_c, 1, 28, 116
1, 60770, Note_on_c, 9, 46, 104
1, 60772, Note_on_c, 9, 36, 102
1, 60774, Note_on_c, 9, 46, 0
1, 60776, Note_on_c, 9, 36, 0
1, 60786, Note_on_c, 2, 59, 0
1, 60794, Note_on_c, 2, 62, 0
1, 60794, Note_on_c, 2, 55, 0
1, 60846, Note_on_c, 1, 28, 0
1, 60862, Note_on_c, 9, 42, 50
1, 60866, Note_on_c, 9, 42, 0
1, 60866, Note_on_c, 2, 55, 97
1, 60868, Note_on_c, 1, 28, 114
1, 60872, Note_on_c, 5, 73, 67
1, 60948, Note_on_c, 5, 73, 0
1, 60960, Note_on_c, 5, 67, 73
1, 60964, Note_on_c, 9, 44, 53
1, 60968, Note_on_c, 9, 44, 0
1, 61002, Note_on_c, 4, 62, 0
1, 61036, Note_on_c, 5, 67, 0
1, 61046, Note_on_c, 2, 55, 0
1, 61048, Note_on_c, 1, 28, 0
1, 61050, Note_on_c, 1, 31, 117
1, 61060, Note_on_c, 2, 59, 94
1, 61060, Note_on_c, 9, 38, 119
1, 61060, Note_on_c, 9, 42, 58
1, 61064, Note_on_c, 9, 42, 0
1, 61064, Note_on_c, 9, 38, 0
1, 61064, Note_on_c, 5, 71, 64
1, 61140, Note_on_c, 5, 71, 0
1, 61246, Note_on_c, 9, 42, 50
1, 61250, Note_on_c, 9, 42, 0
1, 61310, Note_on_c, 1, 31, 0
1, 61352, Note_on_c, 1, 32, 112
1, 61416, Note_on_c, 6, 59, 0
1, 61420, Note_on_c, 2, 59, 0
1, 61420, Note_on_c, 6, 62, 0
1, 61432, Note_on_c, 1, 32, 0
1, 61432, Note_on_c, 6, 61, 71
1, 61434, Note_on_c, 6, 57, 68
1, 61434, Note_on_c, 9, 36, 117
1, 61434, Note_on_c, 9, 42, 53
1, 61436, Note_on_c, 2, 61, 97
1, 61438, Note_on_c, 9, 42, 0
1, 61438, Note_on_c, 9, 36, 0
1, 61440, Note_on_c, 6, 55, 0
1, 61440, Note_on_c, 1, 33, 117
1, 61440, Note_on_c, 2, 57, 95
1, 61448, Note_on_c, 2, 64, 101
1, 61448, Note_on_c, 4, 64, 110
1, 61452, Note_on_c, 6, 52, 70
1, 61622, Note_on_c, 5, 69, 73
1, 61628, Note_on_c, 4, 64, 0
1, 61628, Note_on_c, 9, 42, 51
1, 61632, Note_on_c, 9, 42, 0
1, 61636, Note_on_c, 5, 73, 66
1, 61638, Note_on_c, 4, 69, 115
1, 61698, Note_on_c, 5, 69, 0
1, 61712, Note_on_c, 5, 73, 0
1, 61818, Note_on_c, 4, 69, 0
1, 61826, Note_on_c, 9, 42, 54
1, 61828, Note_on_c, 14, 73, 115
1, 61830, Note_on_c, 9, 42, 0
1, 61830, Note_on_c, 9, 38, 121
1, 61832, Note_on_c, 4, 74, 113
1, 61834, Note_on_c, 9, 38, 0
1, 62008, Note_on_c, 14, 73, 0
1, 62012, Note_on_c, 4, 74, 0
1, 62012, Note_on_c, 14, 73, 111
1, 62014, Note_on_c, 9, 42, 53
1, 62018, Note_on_c, 9, 42, 0
1, 62022, Note_on_c, 4, 73, 115
1, 62106, Note_on_c, 9, 36, 109
1, 62108, Note_on_c, 9, 44, 59
1, 62110, Note_on_c, 9, 36, 0
1, 62112, Note_on_c, 9, 44, 0
1, 62160, Note_on_c, 1, 33, 0
1, 62192, Note_on_c, 14, 73, 0
1, 62208, Note_on_c, 9, 42, 59
1, 62212, Note_on_c, 9, 42, 0
1, 62214, Note_on_c, 14, 73, 111
1, 62294, Note_on_c, 1, 42, 116
1, 62298, Note_on_c, 9, 36, 101
1, 62302, Note_on_c, 9, 36, 0
1, 62302, Note_on_c, 9, 46, 100
1, 62306, Note_on_c, 9, 46, 0
1, 62374, Note_on_c, 1, 42, 0
1, 62398, Note_on_c, 9, 42, 55
1, 62402, Note_on_c, 9, 42, 0
1, 62490, Note_on_c, 9, 44, 58
1, 62494, Note_on_c, 9, 44, 0
1, 62508, Note_on_c, 1, 33, 110
1, 62574, Note_on_c, 14, 73, 0
1, 62588, Note_on_c, 1, 33, 0
1, 62590, Note_on_c, 9, 42, 54
1, 62592, Note_on_c, 1, 40, 110
1, 62592, Control_c, 14, 1, 28
1, 62592, Pitch_bend_c, 14, 7296
1, 62594, Note_on_c, 9, 42, 0
1, 62596, Note_on_c, 14, 78, 110
1, 62598, Note_on_c, 9, 38, 121
1, 62600, Pitch_bend_c, 14, 7360
1, 62602, Note_on_c, 9, 38, 0
1, 62604, Pitch_bend_c, 14, 7424
1, 62608, Pitch_bend_c, 14, 7488
1, 62612, Pitch_bend_c, 14, 7552
1, 62616, Pitch_bend_c, 14, 7616
1, 62620, Pitch_bend_c, 14, 7680
1, 62624, Pitch_bend_c, 14, 7744
1, 62628, Pitch_bend_c, 14, 7808
1, 62632, Pitch_bend_c, 14, 7872
1, 62636, Pitch_bend_c, 14, 7936
1, 62640, Pitch_bend_c, 14, 8000
1, 62644, Pitch_bend_c, 14, 8064
1, 62648, Pitch_bend_c, 14, 8128
1, 62652, Pitch_bend_c, 14, 8192
1, 62691, Control_c, 14, 1, 70
1, 62776, Note_on_c, 5, 64, 68
1, 62788, Note_on_c, 5, 69, 71
1, 62790, Note_on_c, 9, 42, 56
1, 62794, Note_on_c, 9, 42, 0
1, 62808, Control_c, 14, 1, 55
1, 62852, Note_on_c, 1, 40, 0
1, 62852, Note_on_c, 5, 64, 0
1, 62864, Note_on_c, 5, 69, 0
1, 62886, Note_on_c, 1, 42, 109
1, 62886, Note_on_c, 5, 64, 71
1, 62888, Note_on_c, 5, 69, 72
1, 62895, Control_c, 14, 1, 37
1, 62956, Note_on_c, 14, 78, 0
1, 62962, Note_on_c, 5, 64, 0
1, 62964, Note_on_c, 5, 69, 0
1, 62966, Note_on_c, 1, 42, 0
1, 62966, Note_on_c, 5, 64, 67
1, 62972, Note_on_c, 9, 36, 119
1, 62972, Note_on_c, 9, 42, 54
1, 62972, Note_on_c, 14, 76, 111
1, 62974, Note_on_c, 1, 33, 115
1, 62976, Note_on_c, 9, 42, 0
1, 62976, Note_on_c, 9, 36, 0
1, 62978, Note_on_c, 5, 69, 71
1, 63042, Note_on_c, 5, 64, 0
1, 63054, Note_on_c, 5, 69, 0
1, 63063, Control_c, 14, 1, 15
1, 63068, Note_on_c, 5, 69, 69
1, 63074, Note_on_c, 5, 64, 65
1, 63144, Note_on_c, 5, 69, 0
1, 63150, Note_on_c, 5, 64, 0
1, 63160, Note_on_c, 5, 64, 69
1, 63160, Note_on_c, 5, 69, 70
1, 63174, Note_on_c, 9, 42, 57
1, 63178, Note_on_c, 9, 42, 0
1, 63236, Note_on_c, 5, 64, 0
1, 63236, Note_on_c, 5, 69, 0
1, 63262, Note_on_c, 5, 73, 70
1, 63272, Note_on_c, 5, 69, 66
1, 63332, Note_on_c, 14, 76, 0
1, 63338, Note_on_c, 5, 73, 0
1, 63348, Note_on_c, 5, 69, 0
1, 63352, Note_on_c, 9, 38, 120
1, 63352, Note_on_c, 9, 42, 58
1, 63356, Note_on_c, 9, 42, 0
1, 63356, Note_on_c, 9, 38, 0
1, 63360, Control_c, 14, 1, 28
1, 63360, Note_on_c, 14, 73, 114
1, 63459, Control_c, 14, 1, 70
1, 63544, Note_on_c, 9, 42, 53
1, 63548, Note_on_c, 9, 42, 0
1, 63576, Control_c, 14, 1, 55
1, 63648, Note_on_c, 9, 36, 101
1, 63652, Note_on_c, 9, 36, 0
1, 63652, Note_on_c, 9, 44, 51
1, 63656, Note_on_c, 9, 44, 0
1, 63663, Control_c, 14, 1, 37
1, 63694, Note_on_c, 1, 33, 0
1, 63742, Note_on_c, 5, 73, 72
1, 63744, Note_on_c, 5, 81, 66
1, 63746, Note_on_c, 5, 76, 64
1, 63748, Note_on_c, 9, 42, 58
1, 63752, Note_on_c, 9, 42, 0
1, 63800, Note_on_c, 14, 73, 0
1, 63818, Note_on_c, 5, 73, 0
1, 63820, Note_on_c, 5, 81, 0
1, 63822, Note_on_c, 5, 76, 0
1, 63826, Note_on_c, 1, 42, 118
1, 63831, Control_c, 14, 1, 15
1, 63832, Note_on_c, 5, 81, 69
1, 63838, Note_on_c, 9, 36, 101
1, 63838, Note_on_c, 9, 46, 103
1, 63840, Note_on_c, 5, 73, 69
1, 63842, Note_on_c, 9, 46, 0
1, 63842, Note_on_c, 9, 36, 0
1, 63842, Note_on_c, 5, 76, 71
1, 63846, Note_on_c, 14, 71, 112
1, 63906, Note_on_c, 1, 42, 0
1, 63908, Note_on_c, 2, 61, 0
1, 63908, Note_on_c, 5, 81, 0
1, 63912, Note_on_c, 2, 57, 0
1, 63916, Note_on_c, 5, 73, 0
1, 63918, Note_on_c, 5, 76, 0
1, 63920, Note_on_c, 2, 64, 0
1, 63928, Note_on_c, 9, 42, 52
1, 63930, Note_on_c, 2, 57, 99
1, 63932, Note_on_c, 9, 42, 0
1, 63934, Note_on_c, 5, 73, 73
1, 63940, Note_on_c, 5, 81, 67
1, 63942, Note_on_c, 5, 76, 72
1, 63942, Note_on_c, 14, 69, 114
1, 63950, Note_on_c, 14, 71, 0
1, 64010, Note_on_c, 5, 73, 0
1, 64016, Note_on_c, 5, 81, 0
1, 64018, Note_on_c, 5, 76, 0
1, 64028, Note_on_c, 9, 44, 52
1, 64032, Note_on_c, 9, 44, 0
1, 64040, Note_on_c, 1, 33, 113
1, 64102, Note_on_c, 4, 73, 0
1, 64110, Note_on_c, 2, 57, 0
1, 64120, Note_on_c, 1, 33, 0
1, 64122, Note_on_c, 14, 69, 0
1, 64122, Note_on_c, 5, 81, 66
1, 64126, Note_on_c, 1, 40, 117
1, 64128, Note_on_c, 5, 73, 69
1, 64130, Note_on_c, 5, 76, 67
1, 64130, Note_on_c, 9, 42, 52
1, 64134, Note_on_c, 9, 42, 0
1, 64134, Note_on_c, 9, 38, 125
1, 64136, Note_on_c, 2, 57, 95
1, 64138, Note_on_c, 9, 38, 0
1, 64198, Note_on_c, 5, 81, 0
1, 64204, Note_on_c, 5, 73, 0
1, 64206, Note_on_c, 5, 76, 0
1, 64214, Note_on_c, 5, 76, 64
1, 64214, Note_on_c, 5, 81, 69
1, 64222, Note_on_c, 5, 73, 66
1, 64290, Note_on_c, 5, 81, 0
1, 64290, Note_on_c, 5, 76, 0
1, 64298, Note_on_c, 5, 73, 0
1, 64314, Note_on_c, 5, 76, 67
1, 64314, Note_on_c, 5, 81, 69
1, 64318, Note_on_c, 5, 73, 69
1, 64326, Note_on_c, 9, 42, 54
1, 64330, Note_on_c, 9, 42, 0
1, 64386, Note_on_c, 1, 40, 0
1, 64390, Note_on_c, 5, 81, 0
1, 64390, Note_on_c, 5, 76, 0
1, 64394, Note_on_c, 5, 73, 0
1, 64406, Note_on_c, 1, 42, 112
1, 64486, Note_on_c, 1, 42, 0
1, 64492, Note_on_c, 6, 61, 0
1, 64494, Note_on_c, 6, 57, 0
1, 64496, Note_on_c, 2, 57, 0
1, 64498, Note_on_c, 6, 54, 73
1, 64504, Note_on_c, 2, 64, 100
1, 64506, Note_on_c, 2, 71, 99
1, 64506, Note_on_c, 6, 59, 71
1, 64506, Note_on_c, 6, 64, 70
1, 64506, Note_on_c, 9, 42, 53
1, 64508, Note_on_c, 2, 66, 97
1, 64510, Note_on_c, 9, 42, 0
1, 64512, Note_on_c, 6, 52, 0
1, 64512, Note_on_c, 1, 35, 113
1, 64518, Note_on_c, 9, 36, 118
1, 64522, Note_on_c, 9, 36, 0
1, 64704, Note_on_c, 9, 42, 53
1, 64706, Note_on_c, 4, 66, 115
1, 64708, Note_on_c, 9, 42, 0
1, 64886, Note_on_c, 4, 66, 0
1, 64886, Note_on_c, 4, 71, 118
1, 64892, Note_on_c, 9, 38, 125
1, 64896, Note_on_c, 9, 38, 0
1, 64898, Note_on_c, 9, 42, 52
1, 64902, Note_on_c, 9, 42, 0
1, 65066, Note_on_c, 4, 71, 0
1, 65082, Note_on_c, 4, 59, 114
1, 65086, Note_on_c, 9, 42, 57
1, 65090, Note_on_c, 9, 42, 0
1, 65178, Note_on_c, 9, 36, 108
1, 65182, Note_on_c, 9, 36, 0
1, 65182, Note_on_c, 9, 44, 55
1, 65186, Note_on_c, 9, 44, 0
1, 65232, Note_on_c, 1, 35, 0
1, 65262, Note_on_c, 4, 59, 0
1, 65276, Note_on_c, 13, 75, 112
1, 65278, Note_on_c, 14, 75, 110
1, 65280, Note_on_c, 15, 75, 109
1, 65284, Note_on_c, 9, 42, 54
1, 65286, Note_on_c, 4, 66, 112
1, 65286, Note_on_c, 13, 63, 107
1, 65288, Note_on_c, 9, 42, 0
1, 65368, Note_on_c, 5, 71, 73
1, 65368, Note_on_c, 5, 78, 66
1, 65370, Note_on_c, 9, 46, 102
1, 65374, Note_on_c, 9, 46, 0
1, 65380, Note_on_c, 1, 42, 115
1, 65380, Note_on_c, 5, 76, 73
1, 65382, Note_on_c, 9, 36, 110
1, 65386, Note_on_c, 9, 36, 0
1, 65444, Note_on_c, 5, 78, 0
1, 65444, Note_on_c, 5, 71, 0
1, 65456, Note_on_c, 5, 76, 0
1, 65460, Note_on_c, 1, 42, 0
1, 65466, Note_on_c, 4, 66, 0
1, 65476, Note_on_c, 9, 42, 57
1, 65480, Note_on_c, 9, 42, 0
1, 65480, Note_on_c, 4, 71, 113
1, 65536, Note_on_c, 13, 75, 0
1, 65538, Note_on_c, 14, 75, 0
1, 65540, Note_on_c, 15, 75, 0
1, 65546, Note_on_c, 13, 63, 0
1, 65554, Note_on_c, 1, 35, 109
1, 65558, Note_on_c, 5, 76, 69
1, 65560, Note_on_c, 5, 78, 70
1, 65564, Note_on_c, 5, 71, 71
1, 65566, Note_on_c, 9, 44, 53
1, 65566, Note_on_c, 13, 63, 112
1, 65568, Note_on_c, 14, 75, 113
1, 65570, Note_on_c, 9, 44, 0
1, 65570, Note_on_c, 15, 75, 105
1, 65574, Note_on_c, 13, 75, 109
1, 65634, Note_on_c, 1, 35, 0
1, 65634, Note_on_c, 5, 76, 0
1, 65636, Note_on_c, 5, 78, 0
1, 65640, Note_on_c, 5, 71, 0
1, 65656, Note_on_c, 5, 78, 70
1, 65658, Note_on_c, 5, 76, 66
1, 65660, Note_on_c, 4, 71, 0
1, 65662, Note_on_c, 5, 71, 71
1, 65666, Note_on_c, 4, 59, 117
1, 65666, Note_on_c, 9, 38, 125
1, 65668, Note_on_c, 9, 42, 58
1, 65670, Note_on_c, 9, 38, 0
1, 65672, Note_on_c, 9, 42, 0
1, 65672, Note_on_c, 1, 40, 116
1, 65732, Note_on_c, 5, 78, 0
1, 65734, Note_on_c, 5, 76, 0
1, 65738, Note_on_c, 5, 71, 0
1, 65826, Note_on_c, 13, 63, 0
1, 65828, Note_on_c, 14, 75, 0
1, 65830, Note_on_c, 15, 75, 0
1, 65834, Note_on_c, 13, 75, 0
1, 65846, Note_on_c, 4, 59, 0
1, 65848, Note_on_c, 4, 66, 116
1, 65850, Note_on_c, 15, 80, 104
1, 65852, Note_on_c, 9, 42, 58
1, 65856, Note_on_c, 9, 42, 0
1, 65856, Pitch_bend_c, 14, 7296
1, 65856, Pitch_bend_c, 15, 7296
1, 65862, Note_on_c, 14, 80, 116
1, 65864, Note_on_c, 13, 68, 112
1, 65864, Pitch_bend_c, 14, 7360
1, 65864, Pitch_bend_c, 15, 7360
1, 65868, Pitch_bend_c, 14, 7424
1, 65868, Pitch_bend_c, 15, 7424
1, 65872, Note_on_c, 13, 80, 104
1, 65872, Pitch_bend_c, 14, 7488
1, 65872, Pitch_bend_c, 15, 7488
1, 65876, Pitch_bend_c, 14, 7552
1, 65876, Pitch_bend_c, 15, 7552
1, 65880, Pitch_bend_c, 14, 7616
1, 65880, Pitch_bend_c, 15, 7616
1, 65884, Pitch_bend_c, 14, 7680
1, 65884, Pitch_bend_c, 15, 7680
1, 65888, Pitch_bend_c, 14, 7744
1, 65888, Pitch_bend_c, 15, 7744
1, 65892, Pitch_bend_c, 14, 7808
1, 65892, Pitch_bend_c, 15, 7808
1, 65896, Pitch_bend_c, 14, 7872
1, 65896, Pitch_bend_c, 15, 7872
1, 65900, Pitch_bend_c, 14, 7936
1, 65900, Pitch_bend_c, 15, 7936
1, 65904, Pitch_bend_c, 14, 8000
1, 65904, Pitch_bend_c, 15, 8000
1, 65908, Pitch_bend_c, 14, 8064
1, 65908, Pitch_bend_c, 15, 8064
1, 65912, Pitch_bend_c, 14, 8128
1, 65912, Pitch_bend_c, 15, 8128
1, 65916, Pitch_bend_c, 14, 8192
1, 65916, Pitch_bend_c, 15, 8192
1, 65932, Note_on_c, 1, 40, 0
1, 65944, Note_on_c, 5, 76, 72
1, 65946, Note_on_c, 5, 78, 65
1, 65948, Note_on_c, 5, 71, 71
1, 65950, Note_on_c, 1, 42, 113
1, 66016, Note_on_c, 2, 64, 0
1, 66020, Note_on_c, 5, 76, 0
1, 66022, Note_on_c, 5, 78, 0
1, 66024, Note_on_c, 5, 71, 0
1, 66026, Note_on_c, 6, 64, 0
1, 66028, Note_on_c, 4, 66, 0
1, 66030, Note_on_c, 15, 80, 0
1, 66030, Note_on_c, 1, 42, 0
1, 66040, Note_on_c, 14, 78, 115
1, 66042, Note_on_c, 14, 80, 0
1, 66042, Note_on_c, 5, 71, 73
1, 66044, Note_on_c, 13, 68, 0
1, 66046, Note_on_c, 9, 36, 118
1, 66046, Note_on_c, 15, 78, 108
1, 66048, Note_on_c, 5, 75, 67
1, 66048, Note_on_c, 5, 78, 67
1, 66048, Control_c, 14, 1, 28
1, 66048, Control_c, 15, 1, 28
1, 66050, Note_on_c, 9, 36, 0
1, 66050, Note_on_c, 1, 35, 118
1, 66050, Note_on_c, 4, 71, 114
1, 66050, Note_on_c, 13, 78, 111
1, 66052, Note_on_c, 13, 80, 0
1, 66060, Note_on_c, 6, 63, 73
1, 66060, Note_on_c, 13, 66, 104
1, 66118, Note_on_c, 5, 71, 0
1, 66124, Note_on_c, 5, 75, 0
1, 66124, Note_on_c, 5, 78, 0
1, 66136, Note_on_c, 2, 63, 97
1, 66147, Control_c, 14, 1, 70
1, 66147, Control_c, 15, 1, 70
1, 66230, Note_on_c, 4, 71, 0
1, 66238, Note_on_c, 9, 36, 123
1, 66240, Note_on_c, 5, 71, 67
1, 66242, Note_on_c, 9, 36, 0
1, 66242, Note_on_c, 5, 78, 72
1, 66248, Note_on_c, 4, 59, 112
1, 66248, Note_on_c, 5, 75, 67
1, 66264, Control_c, 14, 1, 55
1, 66264, Control_c, 15, 1, 55
1, 66316, Note_on_c, 5, 71, 0
1, 66318, Note_on_c, 5, 78, 0
1, 66324, Note_on_c, 5, 75, 0
1, 66328, Note_on_c, 5, 75, 70
1, 66328, Note_on_c, 5, 78, 70
1, 66342, Note_on_c, 5, 71, 66
1, 66351, Control_c, 14, 1, 37
1, 66351, Control_c, 15, 1, 37
1, 66400, Note_on_c, 14, 78, 0
1, 66404, Note_on_c, 5, 78, 0
1, 66404, Note_on_c, 5, 75, 0
1, 66406, Note_on_c, 15, 78, 0
1, 66410, Note_on_c, 1, 35, 0
1, 66410, Note_on_c, 13, 78, 0
1, 66418, Note_on_c, 5, 71, 0
1, 66420, Note_on_c, 13, 66, 0
1, 66424, Note_on_c, 5, 71, 71
1, 66428, Note_on_c, 4, 59, 0
1, 66428, Note_on_c, 9, 38, 121
1, 66430, Note_on_c, 4, 66, 111
1, 66430, Note_on_c, 5, 78, 71
1, 66432, Note_on_c, 9, 38, 0
1, 66434, Note_on_c, 5, 75, 65
1, 66440, Note_on_c, 1, 42, 109
1, 66500, Note_on_c, 5, 71, 0
1, 66506, Note_on_c, 5, 78, 0
1, 66510, Note_on_c, 5, 75, 0
1, 66519, Control_c, 14, 1, 15
1, 66519, Control_c, 15, 1, 15
1, 66610, Note_on_c, 4, 66, 0
1, 66618, Note_on_c, 9, 49, 96
1, 66620, Note_on_c, 1, 42, 0
1, 66622, Note_on_c, 9, 49, 0
1, 66628, Note_on_c, 4, 71, 117
1, 66630, Note_on_c, 9, 36, 102
1, 66634, Note_on_c, 9, 36, 0
1, 66636, Note_on_c, 1, 35, 118
1, 66808, Note_on_c, 4, 71, 0
1, 66808, Note_on_c, 4, 59, 114
1, 66808, Note_on_c, 9, 36, 119
1, 66810, Note_on_c, 9, 49, 119
1, 66810, Note_on_c, 15, 76, 107
1, 66812, Note_on_c, 9, 36, 0
1, 66814, Note_on_c, 9, 49, 0
1, 66814, Note_on_c, 13, 64, 111
1, 66816, Note_on_c, 1, 35, 0
1, 66816, Note_on_c, 14, 76, 115
1, 66818, Note_on_c, 13, 76, 107
1, 66904, Note_on_c, 1, 33, 112
1, 66984, Note_on_c, 1, 33, 0
1, 66988, Note_on_c, 4, 59, 0
1, 66994, Note_on_c, 1, 35, 117
1, 67000, Note_on_c, 4, 66, 110
1, 67000, Note_on_c, 9, 38, 116
1, 67004, Note_on_c, 9, 38, 0
1, 67170, Note_on_c, 15, 76, 0
1, 67174, Note_on_c, 1, 35, 0
1, 67174, Note_on_c, 13, 64, 0
1, 67176, Note_on_c, 14, 76, 0
1, 67178, Note_on_c, 13, 76, 0
1, 67180, Note_on_c, 4, 66, 0
1, 67194, Note_on_c, 14, 78, 111
1, 67196, Note_on_c, 4, 71, 115
1, 67204, Note_on_c, 9, 38, 124
1, 67206, Note_on_c, 15, 73, 112
1, 67208, Note_on_c, 9, 38, 0
1, 67210, Note_on_c, 13, 61, 103
1, 67212, Note_on_c, 1, 42, 115
1, 67212, Note_on_c, 13, 73, 103
1, 67288, Note_on_c, 9, 38, 123
1, 67292, Note_on_c, 9, 38, 0
1, 67376, Note_on_c, 4, 71, 0
1, 67388, Note_on_c, 4, 59, 118
1, 67390, Note_on_c, 9, 50, 119
1, 67394, Note_on_c, 9, 50, 0
1, 67472, Note_on_c, 1, 42, 0
1, 67482, Note_on_c, 1, 40, 114
1, 67488, Control_c, 4, 1, 5
1, 67546, Note_on_c, 2, 71, 0
1, 67548, Note_on_c, 2, 66, 0
1, 67554, Note_on_c, 14, 78, 0
1, 67558, Note_on_c, 6, 54, 0
1, 67562, Note_on_c, 1, 40, 0
1, 67566, Note_on_c, 6, 59, 0
1, 67566, Note_on_c, 15, 73, 0
1, 67568, Note_on_c, 4, 59, 0
1, 67570, Note_on_c, 13, 61, 0
1, 67570, Note_on_c, 7, 64, 80
1, 67572, Note_on_c, 13, 73, 0
1, 67574, Note_on_c, 2, 59, 96
1, 67574, Note_on_c, 2, 64, 102
1, 67574, Note_on_c, 4, 64, 65
1, 67576, Note_on_c, 7, 76, 74
1, 67578, Note_on_c, 1, 28, 116
1, 67578, Note_on_c, 9, 69, 35
1, 67580, Note_on_c, 6, 63, 0
1, 67580, Note_on_c, 4, 59, 59
1, 67580, Note_on_c, 6, 56, 68
1, 67582, Note_on_c, 9, 69, 0
1, 67582, Note_on_c, 2, 68, 94
1, 67584, Note_on_c, 9, 36, 119
1, 67588, Note_on_c, 9, 36, 0
1, 67588, Note_on_c, 9, 49, 104
1, 67590, Note_on_c, 6, 64, 64
1, 67590, Note_on_c, 9, 63, 86
1, 67592, Note_on_c, 9, 49, 0
1, 67592, Note_on_c, 6, 59, 70
1, 67594, Note_on_c, 9, 63, 0
1, 67628, Note_on_c, 4, 64, 0
1, 67634, Note_on_c, 4, 59, 0
1, 67648, Note_on_c, 2, 63, 0
1, 67676, Note_on_c, 9, 63, 79
1, 67678, Note_on_c, 4, 59, 96
1, 67678, Note_on_c, 9, 69, 37
1, 67680, Note_on_c, 9, 63, 0
1, 67682, Note_on_c, 9, 69, 0
1, 67682, Note_on_c, 9, 44, 54
1, 67684, Note_on_c, 4, 64, 103
1, 67686, Note_on_c, 9, 44, 0
1, 67688, Note_on_c, 4, 68, 101
1, 67768, Note_on_c, 8, 83, 74
1, 67770, Note_on_c, 9, 69, 34
1, 67774, Note_on_c, 9, 69, 0
1, 67774, Note_on_c, 9, 42, 51
1, 67778, Note_on_c, 9, 42, 0
1, 67856, Note_on_c, 8, 83, 0
1, 67858, Note_on_c, 4, 59, 0
1, 67864, Note_on_c, 4, 64, 0
1, 67864, Note_on_c, 9, 69, 36
1, 67868, Note_on_c, 9, 69, 0
1, 67868, Note_on_c, 4, 68, 0
1, 67868, Note_on_c, 4, 59, 65
1, 67868, Note_on_c, 4, 68, 60
1, 67868, Note_on_c, 9, 44, 57
1, 67872, Note_on_c, 9, 44, 0
1, 67878, Note_on_c, 4, 64, 62
1, 67922, Note_on_c, 4, 59, 0
1, 67922, Note_on_c, 4, 68, 0
1, 67932, Note_on_c, 4, 64, 0
1, 67938, Note_on_c, 1, 28, 0
1, 67958, Note_on_c, 8, 81, 82
1, 67960, Note_on_c, 9, 69, 31
1, 67964, Note_on_c, 9, 69, 0
1, 67964, Note_on_c, 9, 64, 88
1, 67968, Note_on_c, 9, 64, 0
1, 67972, Note_on_c, 9, 38, 123
1, 67972, Note_on_c, 9, 42, 56
1, 67976, Note_on_c, 9, 42, 0
1, 67976, Note_on_c, 9, 38, 0
1, 68046, Note_on_c, 8, 81, 0
1, 68062, Note_on_c, 9, 69, 36
1, 68066, Note_on_c, 9, 69, 0
1, 68070, Note_on_c, 9, 44, 57
1, 68074, Note_on_c, 9, 44, 0
1, 68150, Note_on_c, 5, 71, 71
1, 68152, Note_on_c, 9, 42, 52
1, 68152, Note_on_c, 15, 71, 104
1, 68154, Note_on_c, 8, 80, 76
1, 68156, Note_on_c, 9, 42, 0
1, 68158, Note_on_c, 1, 35, 115
1, 68160, Pitch_bend_c, 14, 7296
1, 68160, Pitch_bend_c, 15, 7296
1, 68164, Note_on_c, 9, 36, 107
1, 68166, Note_on_c, 9, 69, 35
1, 68166, Note_on_c, 14, 80, 112
1, 68168, Note_on_c, 9, 36, 0
1, 68168, Pitch_bend_c, 14, 7360
1, 68168, Pitch_bend_c, 15, 7360
1, 68170, Note_on_c, 9, 69, 0
1, 68172, Pitch_bend_c, 14, 7424
1, 68172, Pitch_bend_c, 15, 7424
1, 68174, Note_on_c, 13, 68, 105
1, 68176, Note_on_c, 13, 71, 112
1, 68176, Pitch_bend_c, 14, 7488
1, 68176, Pitch_bend_c, 15, 7488
1, 68180, Pitch_bend_c, 14, 7552
1, 68180, Pitch_bend_c, 15, 7552
1, 68184, Pitch_bend_c, 14, 7616
1, 68184, Pitch_bend_c, 15, 7616
1, 68188, Pitch_bend_c, 14, 7680
1, 68188, Pitch_bend_c, 15, 7680
1, 68192, Pitch_bend_c, 14, 7744
1, 68192, Pitch_bend_c, 15, 7744
1, 68196, Pitch_bend_c, 14, 7808
1, 68196, Pitch_bend_c, 15, 7808
1, 68200, Pitch_bend_c, 14, 7872
1, 68200, Pitch_bend_c, 15, 7872
1, 68204, Pitch_bend_c, 14, 7936
1, 68204, Pitch_bend_c, 15, 7936
1, 68208, Pitch_bend_c, 14, 8000
1, 68208, Pitch_bend_c, 15, 8000
1, 68212, Pitch_bend_c, 14, 8064
1, 68212, Pitch_bend_c, 15, 8064
1, 68216, Pitch_bend_c, 14, 8128
1, 68216, Pitch_bend_c, 15, 8128
1, 68220, Pitch_bend_c, 14, 8192
1, 68220, Pitch_bend_c, 15, 8192
1, 68226, Note_on_c, 5, 71, 0
1, 68238, Note_on_c, 1, 35, 0
1, 68242, Note_on_c, 8, 80, 0
1, 68248, Note_on_c, 1, 40, 115
1, 68248, Note_on_c, 9, 69, 31
1, 68250, Note_on_c, 9, 36, 104
1, 68252, Note_on_c, 9, 69, 0
1, 68254, Note_on_c, 9, 36, 0
1, 68254, Note_on_c, 9, 63, 88
1, 68256, Control_c, 14, 1, 28
1, 68256, Control_c, 15, 1, 28
1, 68258, Note_on_c, 9, 63, 0
1, 68260, Note_on_c, 5, 71, 69
1, 68260, Note_on_c, 9, 44, 56
1, 68264, Note_on_c, 9, 44, 0
1, 68310, Note_on_c, 7, 64, 0
1, 68316, Note_on_c, 7, 76, 0
1, 68328, Note_on_c, 1, 40, 0
1, 68336, Note_on_c, 5, 71, 0
1, 68338, Note_on_c, 7, 71, 81
1, 68342, Note_on_c, 7, 59, 83
1, 68344, Note_on_c, 5, 71, 71
1, 68348, Note_on_c, 8, 78, 78
1, 68348, Note_on_c, 9, 69, 37
1, 68352, Note_on_c, 9, 69, 0
1, 68352, Note_on_c, 9, 42, 54
1, 68355, Control_c, 14, 1, 70
1, 68355, Control_c, 15, 1, 70
1, 68356, Note_on_c, 9, 42, 0
1, 68420, Note_on_c, 5, 71, 0
1, 68436, Note_on_c, 8, 78, 0
1, 68442, Note_on_c, 1, 35, 118
1, 68442, Note_on_c, 5, 71, 67
1, 68446, Note_on_c, 9, 44, 55
1, 68448, Note_on_c, 9, 69, 36
1, 68450, Note_on_c, 9, 44, 0
1, 68452, Note_on_c, 9, 69, 0
1, 68452, Note_on_c, 9, 62, 88
1, 68456, Note_on_c, 9, 62, 0
1, 68472, Control_c, 14, 1, 55
1, 68472, Control_c, 15, 1, 55
1, 68518, Note_on_c, 5, 71, 0
1, 68522, Note_on_c, 1, 35, 0
1, 68532, Note_on_c, 1, 40, 117
1, 68538, Note_on_c, 9, 42, 58
1, 68538, Note_on_c, 9, 64, 84
1, 68540, Note_on_c, 9, 69, 37
1, 68542, Note_on_c, 9, 64, 0
1, 68542, Note_on_c, 9, 42, 0
1, 68544, Note_on_c, 9, 69, 0
1, 68550, Note_on_c, 8, 76, 76
1, 68559, Control_c, 14, 1, 37
1, 68559, Control_c, 15, 1, 37
1, 68612, Note_on_c, 1, 40, 0
1, 68638, Note_on_c, 8, 76, 0
1, 68638, Note_on_c, 1, 35, 110
1, 68642, Note_on_c, 9, 44, 58
1, 68644, Note_on_c, 5, 76, 69
1, 68646, Note_on_c, 9, 44, 0
1, 68646, Note_on_c, 9, 69, 30
1, 68650, Note_on_c, 9, 69, 0
1, 68718, Note_on_c, 1, 35, 0
1, 68720, Note_on_c, 5, 76, 0
1, 68727, Control_c, 14, 1, 15
1, 68727, Control_c, 15, 1, 15
1, 68730, Note_on_c, 1, 28, 110
1, 68730, Note_on_c, 9, 38, 120
1, 68734, Note_on_c, 9, 38, 0
1, 68742, Note_on_c, 9, 42, 55
1, 68742, Note_on_c, 9, 69, 38
1, 68744, Note_on_c, 8, 78, 78
1, 68746, Note_on_c, 9, 69, 0
1, 68746, Note_on_c, 9, 42, 0
1, 68810, Note_on_c, 1, 28, 0
1, 68824, Note_on_c, 9, 69, 38
1, 68828, Note_on_c, 9, 69, 0
1, 68832, Note_on_c, 8, 78, 0
1, 68838, Note_on_c, 9, 44, 51
1, 68840, Note_on_c, 1, 40, 109
1, 68842, Note_on_c, 9, 44, 0
1, 68872, Note_on_c, 15, 71, 0
1, 68886, Note_on_c, 14, 80, 0
1, 68894, Note_on_c, 13, 68, 0
1, 68896, Note_on_c, 13, 71, 0
1, 68918, Note_on_c, 13, 68, 112
1, 68918, Note_on_c, 13, 71, 111
1, 68922, Note_on_c, 15, 71, 105
1, 68928, Control_c, 14, 1, 28
1, 68932, Note_on_c, 9, 42, 54
1, 68932, Note_on_c, 9, 69, 36
1, 68934, Note_on_c, 14, 80, 112
1, 68936, Note_on_c, 9, 69, 0
1, 68936, Note_on_c, 9, 42, 0
1, 68936, Note_on_c, 8, 80, 82
1, 69016, Note_on_c, 9, 36, 119
1, 69016, Note_on_c, 9, 69, 36
1, 69020, Note_on_c, 9, 69, 0
1, 69020, Note_on_c, 9, 36, 0
1, 69024, Note_on_c, 8, 80, 0
1, 69024, Note_on_c, 9, 44, 50
1, 69024, Control_c, 15, 1, 28
1, 69027, Control_c, 14, 1, 70
1, 69028, Note_on_c, 9, 44, 0
1, 69078, Note_on_c, 7, 71, 0
1, 69082, Note_on_c, 7, 59, 0
1, 69086, Note_on_c, 2, 59, 0
1, 69086, Note_on_c, 2, 64, 0
1, 69094, Note_on_c, 2, 68, 0
1, 69100, Note_on_c, 1, 40, 0
1, 69114, Note_on_c, 9, 69, 32
1, 69116, Note_on_c, 2, 59, 102
1, 69116, Note_on_c, 9, 63, 80
1, 69118, Note_on_c, 9, 69, 0
1, 69118, Note_on_c, 4, 64, 67
1, 69118, Note_on_c, 7, 68, 79
1, 69118, Note_on_c, 9, 42, 55
1, 69120, Note_on_c, 9, 63, 0
1, 69120, Note_on_c, 9, 36, 122
1, 69122, Note_on_c, 9, 42, 0
1, 69122, Note_on_c, 2, 68, 96
1, 69123, Control_c, 15, 1, 70
1, 69124, Note_on_c, 9, 36, 0
1, 69124, Note_on_c, 1, 37, 109
1, 69124, Note_on_c, 2, 64, 103
1, 69124, Note_on_c, 4, 59, 68
1, 69124, Note_on_c, 7, 80, 81
1, 69144, Control_c, 14, 1, 55
1, 69172, Note_on_c, 4, 64, 0
1, 69178, Note_on_c, 4, 59, 0
1, 69212, Note_on_c, 9, 44, 52
1, 69214, Note_on_c, 9, 63, 86
1, 69216, Note_on_c, 9, 44, 0
1, 69216, Note_on_c, 4, 59, 95
1, 69216, Note_on_c, 9, 69, 37
1, 69218, Note_on_c, 9, 63, 0
1, 69220, Note_on_c, 9, 69, 0
1, 69222, Note_on_c, 4, 64, 95
1, 69222, Note_on_c, 4, 68, 96
1, 69231, Control_c, 14, 1, 37
1, 69240, Control_c, 15, 1, 55
1, 69314, Note_on_c, 8, 83, 83
1, 69316, Note_on_c, 9, 42, 54
1, 69318, Note_on_c, 9, 69, 34
1, 69320, Note_on_c, 9, 42, 0
1, 69322, Note_on_c, 9, 69, 0
1, 69327, Control_c, 15, 1, 37
1, 69396, Note_on_c, 4, 59, 0
1, 69398, Note_on_c, 4, 59, 60
1, 69399, Control_c, 14, 1, 15
1, 69402, Note_on_c, 4, 68, 0
1, 69402, Note_on_c, 8, 83, 0
1, 69402, Note_on_c, 4, 64, 0
1, 69402, Note_on_c, 9, 69, 29
1, 69404, Note_on_c, 4, 64, 66
1, 69406, Note_on_c, 9, 69, 0
1, 69408, Note_on_c, 9, 44, 50
1, 69410, Note_on_c, 4, 68, 63
1, 69412, Note_on_c, 9, 44, 0
1, 69452, Note_on_c, 4, 59, 0
1, 69458, Note_on_c, 4, 64, 0
1, 69458, Note_on_c, 13, 71, 0
1, 69458, Note_on_c, 13, 68, 0
1, 69462, Note_on_c, 15, 71, 0
1, 69464, Note_on_c, 4, 68, 0
1, 69474, Note_on_c, 14, 80, 0
1, 69495, Control_c, 15, 1, 15
1, 69498, Note_on_c, 9, 38, 121
1, 69502, Note_on_c, 9, 38, 0
1, 69508, Note_on_c, 9, 42, 50
1, 69508, Note_on_c, 9, 69, 29
1, 69510, Note_on_c, 8, 81, 74
1, 69510, Note_on_c, 9, 64, 81
1, 69512, Note_on_c, 9, 69, 0
1, 69512, Note_on_c, 9, 42, 0
1, 69514, Note_on_c, 9, 64, 0
1, 69584, Note_on_c, 1, 37, 0
1, 69598, Note_on_c, 8, 81, 0
1, 69602, Note_on_c, 9, 69, 34
1, 69606, Note_on_c, 9, 69, 0
1, 69606, Note_on_c, 9, 44, 50
1, 69610, Note_on_c, 9, 44, 0
1, 69692, Note_on_c, 8, 80, 77
1, 69692, Note_on_c, 13, 68, 103
1, 69694, Note_on_c, 9, 36, 107
1, 69694, Note_on_c, 13, 59, 106
1, 69694, Note_on_c, 14, 71, 114
1, 69696, Note_on_c, 9, 69, 34
1, 69698, Note_on_c, 9, 36, 0
1, 69698, Note_on_c, 9, 42, 53
1, 69698, Note_on_c, 15, 68, 111
1, 69700, Note_on_c, 9, 69, 0
1, 69702, Note_on_c, 9, 42, 0
1, 69702, Note_on_c, 1, 32, 110
1, 69702, Note_on_c, 5, 71, 64
1, 69778, Note_on_c, 5, 71, 0
1, 69780, Note_on_c, 8, 80, 0
1, 69782, Note_on_c, 1, 32, 0
1, 69788, Note_on_c, 9, 36, 105
1, 69790, Note_on_c, 9, 63, 87
1, 69790, Note_on_c, 9, 69, 30
1, 69792, Note_on_c, 9, 36, 0
1, 69792, Note_on_c, 1, 37, 109
1, 69794, Note_on_c, 9, 69, 0
1, 69794, Note_on_c, 9, 63, 0
1, 69794, Note_on_c, 5, 71, 66
1, 69796, Note_on_c, 9, 44, 59
1, 69800, Note_on_c, 9, 44, 0
1, 69870, Note_on_c, 5, 71, 0
1, 69872, Note_on_c, 1, 37, 0
1, 69872, Note_on_c, 13, 68, 0
1, 69874, Note_on_c, 14, 71, 0
1, 69874, Note_on_c, 13, 59, 0
1, 69878, Note_on_c, 15, 68, 0
1, 69878, Note_on_c, 13, 68, 104
1, 69888, Note_on_c, 15, 68, 105
1, 69890, Note_on_c, 8, 78, 81
1, 69892, Note_on_c, 9, 42, 55
1, 69894, Note_on_c, 5, 71, 73
1, 69894, Note_on_c, 9, 69, 38
1, 69894, Note_on_c, 14, 76, 118
1, 69896, Note_on_c, 9, 42, 0
1, 69898, Note_on_c, 9, 69, 0
1, 69898, Note_on_c, 13, 64, 107
1, 69970, Note_on_c, 5, 71, 0
1, 69978, Note_on_c, 8, 78, 0
1, 69986, Note_on_c, 9, 62, 87
1, 69988, Note_on_c, 5, 71, 68
1, 69988, Note_on_c, 9, 44, 59
1, 69990, Note_on_c, 9, 62, 0
1, 69990, Note_on_c, 9, 69, 31
1, 69992, Note_on_c, 9, 44, 0
1, 69994, Note_on_c, 9, 69, 0
1, 69996, Note_on_c, 1, 32, 115
1, 70064, Note_on_c, 5, 71, 0
1, 70072, Note_on_c, 9, 69, 32
1, 70076, Note_on_c, 9, 69, 0
1, 70076, Note_on_c, 1, 32, 0
1, 70082, Note_on_c, 4, 68, 68
1, 70084, Note_on_c, 1, 37, 113
1, 70084, Note_on_c, 9, 42, 59
1, 70084, Note_on_c, 9, 64, 82
1, 70088, Note_on_c, 9, 64, 0
1, 70088, Note_on_c, 9, 42, 0
1, 70088, Note_on_c, 4, 64, 95
1, 70088, Note_on_c, 8, 76, 76
1, 70136, Note_on_c, 4, 68, 0
1, 70138, Note_on_c, 13, 68, 0
1, 70148, Note_on_c, 15, 68, 0
1, 70154, Note_on_c, 14, 76, 0
1, 70158, Note_on_c, 13, 64, 0
1, 70170, Note_on_c, 4, 69, 64
1, 70170, Note_on_c, 13, 66, 105
1, 70170, Note_on_c, 15, 69, 112
1, 70172, Note_on_c, 9, 69, 37
1, 70172, Note_on_c, 14, 78, 114
1, 70176, Note_on_c, 9, 69, 0
1, 70176, Note_on_c, 8, 76, 0
1, 70176, Note_on_c, 9, 44, 57
1, 70180, Note_on_c, 9, 44, 0
1, 70182, Note_on_c, 13, 69, 109
1, 70224, Note_on_c, 4, 69, 0
1, 70264, Note_on_c, 1, 37, 0
1, 70272, Note_on_c, 9, 38, 124
1, 70272, Note_on_c, 9, 42, 57
1, 70274, Note_on_c, 1, 37, 109
1, 70274, Note_on_c, 9, 69, 34
1, 70276, Note_on_c, 9, 42, 0
1, 70276, Note_on_c, 9, 38, 0
1, 70278, Note_on_c, 9, 69, 0
1, 70278, Note_on_c, 4, 68, 95
1, 70280, Note_on_c, 8, 78, 77
1, 70368, Note_on_c, 8, 78, 0
1, 70368, Note_on_c, 9, 69, 30
1, 70372, Note_on_c, 9, 69, 0
1, 70374, Note_on_c, 9, 44, 51
1, 70378, Note_on_c, 9, 44, 0
1, 70430, Note_on_c, 13, 66, 0
1, 70430, Note_on_c, 15, 69, 0
1, 70432, Note_on_c, 14, 78, 0
1, 70442, Note_on_c, 13, 69, 0
1, 70454, Note_on_c, 1, 37, 0
1, 70454, Note_on_c, 8, 80, 80
1, 70456, Note_on_c, 9, 69, 31
1, 70456, Note_on_c, 13, 68, 106
1, 70458, Note_on_c, 1, 35, 110
1, 70460, Note_on_c, 9, 69, 0
1, 70460, Note_on_c, 9, 42, 51
1, 70460, Note_on_c, 15, 71, 109
1, 70464, Note_on_c, 9, 42, 0
1, 70464, Note_on_c, 14, 80, 115
1, 70472, Note_on_c, 13, 71, 104
1, 70538, Note_on_c, 1, 35, 0
1, 70542, Note_on_c, 8, 80, 0
1, 70558, Note_on_c, 9, 36, 118
1, 70562, Note_on_c, 9, 36, 0
1, 70562, Note_on_c, 9, 69, 31
1, 70564, Note_on_c, 1, 37, 113
1, 70564, Note_on_c, 9, 44, 57
1, 70566, Note_on_c, 9, 69, 0
1, 70568, Note_on_c, 9, 44, 0
1, 70618, Note_on_c, 7, 68, 0
1, 70624, Note_on_c, 7, 80, 0
1, 70628, Note_on_c, 2, 59, 0
1, 70634, Note_on_c, 2, 68, 0
1, 70636, Note_on_c, 2, 64, 0
1, 70636, Note_on_c, 13, 68, 0
1, 70638, Note_on_c, 4, 68, 0
1, 70640, Note_on_c, 6, 56, 0
1, 70640, Note_on_c, 15, 71, 0
1, 70644, Note_on_c, 14, 80, 0
1, 70646, Note_on_c, 6, 54, 68
1, 70648, Note_on_c, 4, 64, 0
1, 70648, Note_on_c, 7, 81, 81
1, 70650, Note_on_c, 6, 64, 0
1, 70650, Note_on_c, 1, 38, 110
1, 70650, Note_on_c, 2, 66, 99
1, 70650, Note_on_c, 13, 73, 103
1, 70652, Note_on_c, 6, 59, 0
1, 70652, Note_on_c, 13, 71, 0
1, 70652, Note_on_c, 2, 57, 97
1, 70652, Note_on_c, 6, 62, 68
1, 70652, Note_on_c, 14, 81, 109
1, 70656, Note_on_c, 7, 69, 79
1, 70656, Pitch_bend_c, 14, 7296
1, 70656, Note_on_c, 15, 73, 109
1, 70658, Note_on_c, 9, 69, 36
1, 70660, Note_on_c, 1, 37, 0
1, 70660, Note_on_c, 2, 62, 103
1, 70660, Note_on_c, 4, 62, 61
1, 70660, Note_on_c, 9, 63, 87
1, 70660, Note_on_c, 9, 36, 119
1, 70662, Note_on_c, 9, 69, 0
1, 70662, Note_on_c, 6, 57, 67
1, 70662, Note_on_c, 9, 42, 54
1, 70664, Note_on_c, 9, 36, 0
1, 70664, Note_on_c, 9, 63, 0
1, 70664, Note_on_c, 4, 57, 61
1, 70664, Pitch_bend_c, 14, 7360
1, 70666, Note_on_c, 9, 42, 0
1, 70668, Pitch_bend_c, 14, 7424
1, 70670, Note_on_c, 13, 69, 104
1, 70672, Pitch_bend_c, 14, 7488
1, 70676, Pitch_bend_c, 14, 7552
1, 70680, Pitch_bend_c, 14, 7616
1, 70684, Pitch_bend_c, 14, 7680
1, 70688, Pitch_bend_c, 14, 7744
1, 70692, Pitch_bend_c, 14, 7808
1, 70696, Pitch_bend_c, 14, 7872
1, 70700, Pitch_bend_c, 14, 7936
1, 70704, Pitch_bend_c, 14, 8000
1, 70708, Pitch_bend_c, 14, 8064
1, 70712, Pitch_bend_c, 14, 8128
1, 70714, Note_on_c, 4, 62, 0
1, 70716, Pitch_bend_c, 14, 8192
1, 70718, Note_on_c, 4, 57, 0
1, 70730, Note_on_c, 13, 73, 0
1, 70742, Note_on_c, 4, 62, 97
1, 70746, Note_on_c, 9, 69, 30
1, 70746, Note_on_c, 13, 71, 103
1, 70746, Note_on_c, 14, 80, 118
1, 70748, Note_on_c, 4, 57, 97
1, 70750, Note_on_c, 9, 69, 0
1, 70750, Note_on_c, 13, 69, 0
1, 70750, Note_on_c, 9, 63, 86
1, 70752, Note_on_c, 9, 44, 56
1, 70754, Note_on_c, 9, 63, 0
1, 70756, Note_on_c, 9, 44, 0
1, 70756, Note_on_c, 14, 81, 0
1, 70758, Note_on_c, 15, 71, 112
1, 70760, Note_on_c, 15, 73, 0
1, 70760, Note_on_c, 4, 66, 97
1, 70760, Note_on_c, 13, 68, 107
1, 70826, Note_on_c, 13, 71, 0
1, 70840, Note_on_c, 13, 68, 0
1, 70840, Note_on_c, 15, 69, 106
1, 70842, Note_on_c, 13, 66, 107
1, 70846, Note_on_c, 8, 81, 74
1, 70848, Note_on_c, 9, 69, 32
1, 70848, Note_on_c, 13, 69, 112
1, 70848, Control_c, 14, 1, 28
1, 70850, Note_on_c, 14, 80, 0
1, 70850, Note_on_c, 14, 78, 118
1, 70852, Note_on_c, 9, 69, 0
1, 70852, Note_on_c, 9, 42, 51
1, 70856, Note_on_c, 9, 42, 0
1, 70862, Note_on_c, 15, 71, 0
1, 70922, Note_on_c, 4, 62, 0
1, 70928, Note_on_c, 4, 57, 0
1, 70934, Note_on_c, 8, 81, 0
1, 70940, Note_on_c, 4, 66, 0
1, 70942, Note_on_c, 4, 57, 68
1, 70942, Note_on_c, 9, 69, 34
1, 70944, Note_on_c, 4, 66, 66
1, 70946, Note_on_c, 9, 69, 0
1, 70947, Control_c, 14, 1, 70
1, 70948, Note_on_c, 9, 44, 56
1, 70952, Note_on_c, 9, 44, 0
1, 70952, Note_on_c, 4, 62, 59
1, 70996, Note_on_c, 4, 57, 0
1, 70998, Note_on_c, 4, 66, 0
1, 71006, Note_on_c, 4, 62, 0
1, 71010, Note_on_c, 1, 38, 0
1, 71032, Note_on_c, 9, 38, 119
1, 71036, Note_on_c, 9, 38, 0
1, 71036, Note_on_c, 9, 42, 57
1, 71038, Note_on_c, 8, 80, 78
1, 71040, Note_on_c, 9, 42, 0
1, 71040, Note_on_c, 9, 69, 35
1, 71044, Note_on_c, 9, 69, 0
1, 71044, Note_on_c, 9, 64, 85
1, 71048, Note_on_c, 9, 64, 0
1, 71050, Note_on_c, 1, 38, 112
1, 71064, Control_c, 14, 1, 55
1, 71126, Note_on_c, 8, 80, 0
1, 71138, Note_on_c, 9, 44, 50
1, 71142, Note_on_c, 9, 44, 0
1, 71142, Note_on_c, 9, 69, 35
1, 71146, Note_on_c, 9, 69, 0
1, 71151, Control_c, 14, 1, 37
1, 71200, Note_on_c, 15, 69, 0
1, 71218, Note_on_c, 1, 38, 0
1, 71218, Note_on_c, 1, 38, 115
1, 71226, Note_on_c, 9, 42, 59
1, 71230, Note_on_c, 9, 42, 0
1, 71230, Note_on_c, 5, 74, 67
1, 71230, Note_on_c, 8, 78, 78
1, 71230, Note_on_c, 9, 36, 105
1, 71234, Note_on_c, 9, 36, 0
1, 71234, Note_on_c, 9, 69, 31
1, 71238, Note_on_c, 9, 69, 0
1, 71306, Note_on_c, 5, 74, 0
1, 71318, Note_on_c, 8, 78, 0
1, 71319, Control_c, 14, 1, 15
1, 71322, Note_on_c, 5, 74, 69
1, 71322, Note_on_c, 9, 36, 107
1, 71322, Note_on_c, 9, 44, 58
1, 71322, Note_on_c, 9, 69, 36
1, 71326, Note_on_c, 9, 69, 0
1, 71326, Note_on_c, 9, 44, 0
1, 71326, Note_on_c, 9, 36, 0
1, 71334, Note_on_c, 9, 63, 80
1, 71338, Note_on_c, 9, 63, 0
1, 71382, Note_on_c, 13, 66, 0
1, 71388, Note_on_c, 13, 69, 0
1, 71390, Note_on_c, 14, 78, 0
1, 71398, Note_on_c, 5, 74, 0
1, 71398, Note_on_c, 1, 38, 0
1, 71416, Note_on_c, 9, 42, 57
1, 71420, Note_on_c, 9, 42, 0
1, 71422, Note_on_c, 9, 69, 31
1, 71426, Note_on_c, 9, 69, 0
1, 71426, Note_on_c, 1, 38, 110
1, 71426, Note_on_c, 5, 69, 69
1, 71426, Note_on_c, 8, 76, 77
1, 71502, Note_on_c, 5, 69, 0
1, 71512, Note_on_c, 9, 69, 31
1, 71514, Note_on_c, 8, 76, 0
1, 71516, Note_on_c, 9, 69, 0
1, 71522, Note_on_c, 9, 62, 82
1, 71522, Note_on_c, 9, 44, 53
1, 71526, Note_on_c, 9, 44, 0
1, 71526, Note_on_c, 9, 62, 0
1, 71610, Note_on_c, 13, 59, 111
1, 71614, Note_on_c, 9, 42, 57
1, 71614, Note_on_c, 14, 71, 118
1, 71616, Note_on_c, 9, 64, 87
1, 71618, Note_on_c, 9, 42, 0
1, 71620, Note_on_c, 9, 64, 0
1, 71620, Note_on_c, 8, 75, 83
1, 71620, Note_on_c, 9, 69, 38
1, 71622, Note_on_c, 5, 71, 69
1, 71622, Note_on_c, 15, 59, 110
1, 71624, Note_on_c, 9, 69, 0
1, 71686, Note_on_c, 1, 38, 0
1, 71698, Note_on_c, 5, 71, 0
1, 71700, Note_on_c, 1, 33, 111
1, 71702, Note_on_c, 4, 57, 68
1, 71706, Note_on_c, 4, 62, 65
1, 71708, Note_on_c, 8, 75, 0
1, 71708, Note_on_c, 9, 69, 29
1, 71712, Note_on_c, 9, 69, 0
1, 71714, Note_on_c, 5, 71, 69
1, 71714, Note_on_c, 9, 44, 56
1, 71716, Note_on_c, 4, 66, 68
1, 71718, Note_on_c, 9, 44, 0
1, 71756, Note_on_c, 4, 57, 0
1, 71760, Note_on_c, 4, 62, 0
1, 71770, Note_on_c, 4, 66, 0
1, 71780, Note_on_c, 1, 33, 0
1, 71790, Note_on_c, 13, 59, 0
1, 71790, Note_on_c, 5, 71, 0
1, 71794, Note_on_c, 14, 71, 0
1, 71800, Note_on_c, 15, 59, 0
1, 71800, Note_on_c, 15, 59, 105
1, 71804, Note_on_c, 9, 38, 119
1, 71804, Note_on_c, 13, 59, 111
1, 71806, Note_on_c, 5, 64, 73
1, 71808, Note_on_c, 9, 38, 0
1, 71808, Note_on_c, 9, 69, 37
1, 71810, Note_on_c, 9, 42, 53
1, 71812, Note_on_c, 9, 69, 0
1, 71812, Note_on_c, 14, 71, 115
1, 71814, Note_on_c, 9, 42, 0
1, 71814, Note_on_c, 8, 76, 74
1, 71816, Note_on_c, 1, 33, 117
1, 71882, Note_on_c, 5, 64, 0
1, 71896, Note_on_c, 1, 33, 0
1, 71896, Note_on_c, 5, 64, 70
1, 71900, Note_on_c, 1, 37, 116
1, 71902, Note_on_c, 8, 76, 0
1, 71902, Note_on_c, 9, 44, 53
1, 71902, Note_on_c, 9, 69, 32
1, 71906, Note_on_c, 9, 69, 0
1, 71906, Note_on_c, 9, 44, 0
1, 71972, Note_on_c, 5, 64, 0
1, 71980, Note_on_c, 15, 59, 0
1, 71980, Note_on_c, 1, 37, 0
1, 71984, Note_on_c, 13, 59, 0
1, 71992, Note_on_c, 14, 71, 0
1, 71994, Note_on_c, 9, 69, 36
1, 71994, Note_on_c, 15, 73, 112
1, 71998, Note_on_c, 9, 69, 0
1, 71998, Note_on_c, 8, 78, 78
1, 72000, Control_c, 14, 1, 28
1, 72000, Pitch_bend_c, 14, 7296
1, 72000, Pitch_bend_c, 15, 7296
1, 72004, Note_on_c, 1, 38, 111
1, 72004, Note_on_c, 13, 73, 112
1, 72006, Note_on_c, 5, 64, 64
1, 72006, Note_on_c, 9, 42, 59
1, 72006, Note_on_c, 14, 81, 110
1, 72008, Pitch_bend_c, 14, 7360
1, 72008, Pitch_bend_c, 15, 7360
1, 72010, Note_on_c, 9, 42, 0
1, 72012, Note_on_c, 13, 69, 109
1, 72012, Pitch_bend_c, 14, 7424
1, 72012, Pitch_bend_c, 15, 7424
1, 72016, Pitch_bend_c, 14, 7488
1, 72016, Pitch_bend_c, 15, 7488
1, 72020, Pitch_bend_c, 14, 7552
1, 72020, Pitch_bend_c, 15, 7552
1, 72024, Pitch_bend_c, 14, 7616
1, 72024, Pitch_bend_c, 15, 7616
1, 72028, Pitch_bend_c, 14, 7680
1, 72028, Pitch_bend_c, 15, 7680
1, 72032, Pitch_bend_c, 14, 7744
1, 72032, Pitch_bend_c, 15, 7744
1, 72036, Pitch_bend_c, 14, 7808
1, 72036, Pitch_bend_c, 15, 7808
1, 72040, Pitch_bend_c, 14, 7872
1, 72040, Pitch_bend_c, 15, 7872
1, 72044, Pitch_bend_c, 14, 7936
1, 72044, Pitch_bend_c, 15, 7936
1, 72048, Pitch_bend_c, 14, 8000
1, 72048, Pitch_bend_c, 15, 8000
1, 72052, Pitch_bend_c, 14, 8064
1, 72052, Pitch_bend_c, 15, 8064
1, 72056, Pitch_bend_c, 14, 8128
1, 72056, Pitch_bend_c, 15, 8128
1, 72060, Pitch_bend_c, 14, 8192
1, 72060, Pitch_bend_c, 15, 8192
1, 72082, Note_on_c, 5, 64, 0
1, 72084, Note_on_c, 1, 38, 0
1, 72086, Note_on_c, 8, 78, 0
1, 72094, Note_on_c, 1, 35, 109
1, 72094, Note_on_c, 9, 36, 125
1, 72094, Note_on_c, 9, 69, 34
1, 72098, Note_on_c, 9, 69, 0
1, 72098, Note_on_c, 9, 36, 0
1, 72099, Control_c, 14, 1, 70
1, 72100, Note_on_c, 9, 44, 57
1, 72104, Note_on_c, 9, 44, 0
1, 72162, Note_on_c, 2, 66, 0
1, 72164, Note_on_c, 2, 57, 0
1, 72172, Note_on_c, 2, 62, 0
1, 72174, Note_on_c, 1, 35, 0
1, 72186, Note_on_c, 2, 62, 94
1, 72186, Note_on_c, 2, 66, 101
1, 72188, Note_on_c, 9, 63, 83
1, 72190, Note_on_c, 9, 69, 36
1, 72192, Note_on_c, 9, 63, 0
1, 72192, Note_on_c, 2, 57, 100
1, 72194, Note_on_c, 9, 69, 0
1, 72196, Note_on_c, 4, 57, 64
1, 72198, Note_on_c, 9, 36, 120
1, 72198, Note_on_c, 9, 42, 55
1, 72200, Note_on_c, 1, 38, 109
1, 72200, Note_on_c, 4, 62, 65
1, 72202, Note_on_c, 9, 42, 0
1, 72202, Note_on_c, 9, 36, 0
1, 72216, Control_c, 14, 1, 55
1, 72250, Note_on_c, 4, 57, 0
1, 72254, Note_on_c, 4, 62, 0
1, 72284, Note_on_c, 9, 63, 79
1, 72286, Note_on_c, 4, 66, 102
1, 72288, Note_on_c, 9, 63, 0
1, 72288, Note_on_c, 9, 44, 54
1, 72288, Note_on_c, 9, 69, 35
1, 72290, Note_on_c, 4, 62, 101
1, 72292, Note_on_c, 9, 69, 0
1, 72292, Note_on_c, 9, 44, 0
1, 72296, Note_on_c, 4, 57, 94
1, 72303, Control_c, 14, 1, 37
1, 72376, Note_on_c, 8, 81, 74
1, 72380, Note_on_c, 9, 42, 51
1, 72384, Note_on_c, 9, 42, 0
1, 72386, Note_on_c, 9, 69, 33
1, 72390, Note_on_c, 9, 69, 0
1, 72464, Note_on_c, 8, 81, 0
1, 72466, Note_on_c, 4, 66, 0
1, 72470, Note_on_c, 4, 62, 0
1, 72471, Control_c, 14, 1, 15
1, 72472, Note_on_c, 9, 69, 33
1, 72474, Note_on_c, 9, 44, 57
1, 72476, Note_on_c, 9, 69, 0
1, 72476, Note_on_c, 4, 57, 0
1, 72476, Note_on_c, 4, 57, 68
1, 72478, Note_on_c, 9, 44, 0
1, 72480, Note_on_c, 4, 62, 68
1, 72482, Note_on_c, 4, 66, 63
1, 72530, Note_on_c, 4, 57, 0
1, 72534, Note_on_c, 4, 62, 0
1, 72534, Note_on_c, 15, 73, 0
1, 72536, Note_on_c, 4, 66, 0
1, 72544, Note_on_c, 13, 73, 0
1, 72546, Note_on_c, 14, 81, 0
1, 72552, Note_on_c, 13, 69, 0
1, 72560, Note_on_c, 1, 38, 0
1, 72562, Note_on_c, 1, 38, 111
1, 72568, Note_on_c, 9, 69, 37
1, 72570, Note_on_c, 9, 38, 116
1, 72572, Note_on_c, 9, 69, 0
1, 72572, Note_on_c, 14, 81, 116
1, 72574, Note_on_c, 9, 38, 0
1, 72576, Note_on_c, 9, 42, 59
1, 72576, Note_on_c, 13, 69, 108
1, 72578, Note_on_c, 8, 80, 77
1, 72578, Note_on_c, 15, 73, 108
1, 72580, Note_on_c, 9, 42, 0
1, 72582, Note_on_c, 9, 64, 84
1, 72586, Note_on_c, 9, 64, 0
1, 72590, Note_on_c, 13, 73, 111
1, 72666, Note_on_c, 8, 80, 0
1, 72670, Note_on_c, 9, 69, 31
1, 72674, Note_on_c, 9, 69, 0
1, 72676, Note_on_c, 9, 44, 50
1, 72680, Note_on_c, 9, 44, 0
1, 72742, Note_on_c, 1, 38, 0
1, 72752, Note_on_c, 14, 81, 0
1, 72756, Note_on_c, 13, 69, 0
1, 72758, Note_on_c, 15, 73, 0
1, 72762, Note_on_c, 14, 80, 110
1, 72764, Note_on_c, 9, 42, 56
1, 72768, Note_on_c, 9, 42, 0
1, 72768, Note_on_c, 9, 69, 29
1, 72768, Note_on_c, 13, 68, 103
1, 72770, Note_on_c, 13, 73, 0
1, 72772, Note_on_c, 9, 69, 0
1, 72772, Note_on_c, 13, 71, 106
1, 72772, Note_on_c, 15, 71, 108
1, 72774, Note_on_c, 8, 78, 76
1, 72774, Note_on_c, 9, 36, 105
1, 72778, Note_on_c, 9, 36, 0
1, 72780, Note_on_c, 1, 38, 117
1, 72860, Note_on_c, 9, 36, 105
1, 72860, Note_on_c, 9, 63, 87
1, 72862, Note_on_c, 8, 78, 0
1, 72862, Note_on_c, 9, 69, 32
1, 72864, Note_on_c, 9, 63, 0
1, 72864, Note_on_c, 9, 36, 0
1, 72866, Note_on_c, 9, 69, 0
1, 72866, Note_on_c, 4, 52, 99
1, 72868, Note_on_c, 9, 44, 57
1, 72872, Note_on_c, 9, 44, 0
1, 72946, Note_on_c, 1, 38, 0
1, 72946, Note_on_c, 1, 38, 115
1, 72952, Note_on_c, 8, 76, 79
1, 72962, Note_on_c, 9, 42, 53
1, 72966, Note_on_c, 9, 42, 0
1, 72966, Note_on_c, 9, 69, 36
1, 72970, Note_on_c, 9, 69, 0
1, 73040, Note_on_c, 8, 76, 0
1, 73046, Note_on_c, 4, 52, 0
1, 73050, Note_on_c, 4, 52, 65
1, 73054, Note_on_c, 9, 62, 82
1, 73056, Note_on_c, 9, 44, 56
1, 73058, Note_on_c, 9, 62, 0
1, 73060, Note_on_c, 9, 44, 0
1, 73060, Note_on_c, 9, 69, 31
1, 73064, Note_on_c, 9, 69, 0
1, 73104, Note_on_c, 4, 52, 0
1, 73122, Note_on_c, 14, 80, 0
1, 73128, Note_on_c, 13, 68, 0
1, 73132, Note_on_c, 13, 71, 0
1, 73132, Note_on_c, 15, 71, 0
1, 73142, Note_on_c, 8, 75, 77
1, 73144, Note_on_c, 9, 69, 34
1, 73146, Note_on_c, 4, 54, 97
1, 73146, Note_on_c, 13, 66, 105
1, 73146, Note_on_c, 15, 69, 103
1, 73148, Note_on_c, 9, 69, 0
1, 73148, Note_on_c, 9, 64, 83
1, 73148, Note_on_c, 14, 78, 118
1, 73152, Note_on_c, 9, 64, 0
1, 73156, Note_on_c, 9, 42, 59
1, 73160, Note_on_c, 9, 42, 0
1, 73168, Note_on_c, 13, 69, 105
1, 73206, Note_on_c, 1, 38, 0
1, 73230, Note_on_c, 8, 75, 0
1, 73234, Note_on_c, 1, 35, 115
1, 73246, Note_on_c, 9, 44, 51
1, 73250, Note_on_c, 9, 44, 0
1, 73252, Note_on_c, 9, 69, 29
1, 73256, Note_on_c, 9, 69, 0
1, 73306, Note_on_c, 2, 66, 0
1, 73306, Note_on_c, 2, 62, 0
1, 73312, Note_on_c, 2, 57, 0
1, 73314, Note_on_c, 1, 35, 0
1, 73326, Note_on_c, 4, 54, 0
1, 73326, Note_on_c, 13, 66, 0
1, 73326, Note_on_c, 15, 69, 0
1, 73328, Note_on_c, 14, 78, 0
1, 73334, Note_on_c, 2, 62, 102
1, 73334, Note_on_c, 2, 66, 99
1, 73336, Note_on_c, 2, 57, 102
1, 73336, Note_on_c, 9, 42, 52
1, 73336, Note_on_c, 13, 64, 111
1, 73338, Note_on_c, 9, 69, 33
1, 73340, Note_on_c, 9, 42, 0
1, 73340, Note_on_c, 1, 33, 109
1, 73342, Note_on_c, 9, 69, 0
1, 73342, Note_on_c, 15, 68, 109
1, 73344, Note_on_c, 4, 56, 101
1, 73344, Note_on_c, 9, 38, 119
1, 73346, Note_on_c, 8, 76, 74
1, 73346, Note_on_c, 14, 76, 118
1, 73348, Note_on_c, 9, 38, 0
1, 73348, Note_on_c, 13, 69, 0
1, 73360, Note_on_c, 13, 68, 110
1, 73434, Note_on_c, 8, 76, 0
1, 73440, Note_on_c, 9, 69, 37
1, 73444, Note_on_c, 9, 69, 0
1, 73444, Note_on_c, 9, 44, 56
1, 73448, Note_on_c, 9, 44, 0
1, 73516, Note_on_c, 13, 64, 0
1, 73520, Note_on_c, 1, 33, 0
1, 73522, Note_on_c, 15, 68, 0
1, 73524, Note_on_c, 4, 56, 0
1, 73526, Note_on_c, 14, 76, 0
1, 73528, Note_on_c, 1, 38, 117
1, 73530, Note_on_c, 4, 59, 102
1, 73532, Note_on_c, 8, 78, 81
1, 73534, Note_on_c, 14, 78, 112
1, 73536, Note_on_c, 9, 42, 55
1, 73536, Note_on_c, 9, 69, 35
1, 73540, Note_on_c, 9, 69, 0
1, 73540, Note_on_c, 9, 42, 0
1, 73540, Note_on_c, 13, 68, 0
1, 73540, Note_on_c, 15, 69, 109
1, 73542, Note_on_c, 13, 66, 110
1, 73546, Note_on_c, 13, 69, 111
1, 73608, Note_on_c, 1, 38, 0
1, 73620, Note_on_c, 8, 78, 0
1, 73622, Note_on_c, 1, 40, 109
1, 73624, Note_on_c, 9, 36, 121
1, 73628, Note_on_c, 9, 36, 0
1, 73632, Note_on_c, 9, 44, 50
1, 73636, Note_on_c, 9, 44, 0
1, 73636, Note_on_c, 9, 69, 29
1, 73640, Note_on_c, 9, 69, 0
1, 73694, Note_on_c, 2, 66, 0
1, 73694, Note_on_c, 2, 62, 0
1, 73696, Note_on_c, 2, 57, 0
1, 73702, Note_on_c, 1, 40, 0
1, 73706, Note_on_c, 6, 54, 0
1, 73710, Note_on_c, 4, 59, 0
1, 73712, Note_on_c, 6, 62, 0
1, 73714, Note_on_c, 14, 78, 0
1, 73716, Note_on_c, 6, 59, 67
1, 73718, Note_on_c, 6, 64, 67
1, 73720, Note_on_c, 15, 69, 0
1, 73722, Note_on_c, 6, 57, 0
1, 73722, Note_on_c, 13, 66, 0
1, 73722, Note_on_c, 14, 76, 118
1, 73724, Note_on_c, 9, 63, 79
1, 73724, Note_on_c, 9, 69, 38
1, 73726, Note_on_c, 13, 69, 0
1, 73728, Note_on_c, 9, 69, 0
1, 73728, Note_on_c, 9, 63, 0
1, 73728, Note_on_c, 1, 28, 110
1, 73728, Note_on_c, 9, 36, 121
1, 73728, Note_on_c, 13, 64, 109
1, 73728, Control_c, 15, 1, 28
1, 73728, Note_on_c, 15, 68, 111
1, 73732, Note_on_c, 9, 36, 0
1, 73734, Note_on_c, 2, 59, 102
1, 73734, Note_on_c, 2, 64, 98
1, 73734, Note_on_c, 2, 68, 98
1, 73734, Note_on_c, 4, 64, 67
1, 73734, Note_on_c, 9, 42, 51
1, 73736, Note_on_c, 4, 59, 64
1, 73736, Note_on_c, 13, 68, 108
1, 73738, Note_on_c, 9, 42, 0
1, 73738, Note_on_c, 6, 56, 64
1, 73788, Note_on_c, 4, 64, 0
1, 73788, Note_on_c, 7, 81, 0
1, 73790, Note_on_c, 4, 59, 0
1, 73796, Note_on_c, 7, 69, 0
1, 73814, Note_on_c, 4, 68, 100
1, 73822, Note_on_c, 9, 44, 51
1, 73824, Note_on_c, 9, 63, 79
1, 73826, Note_on_c, 9, 44, 0
1, 73826, Note_on_c, 4, 52, 96
1, 73826, Note_on_c, 9, 69, 31
1, 73827, Control_c, 15, 1, 70
1, 73828, Note_on_c, 9, 63, 0
1, 73830, Note_on_c, 9, 69, 0
1, 73830, Note_on_c, 4, 59, 99
1, 73914, Note_on_c, 9, 69, 30
1, 73918, Note_on_c, 9, 69, 0
1, 73920, Note_on_c, 8, 83, 83
1, 73922, Note_on_c, 9, 42, 51
1, 73926, Note_on_c, 9, 42, 0
1, 73944, Control_c, 15, 1, 55
1, 73994, Note_on_c, 4, 68, 0
1, 74006, Note_on_c, 4, 52, 0
1, 74008, Note_on_c, 8, 83, 0
1, 74010, Note_on_c, 4, 59, 0
1, 74012, Note_on_c, 4, 59, 68
1, 74016, Note_on_c, 4, 68, 62
1, 74018, Note_on_c, 9, 44, 52
1, 74022, Note_on_c, 9, 44, 0
1, 74022, Note_on_c, 9, 69, 33
1, 74024, Note_on_c, 4, 52, 66
1, 74026, Note_on_c, 9, 69, 0
1, 74031, Control_c, 15, 1, 37
1, 74066, Note_on_c, 4, 59, 0
1, 74070, Note_on_c, 4, 68, 0
1, 74078, Note_on_c, 4, 52, 0
1, 74082, Note_on_c, 14, 76, 0
1, 74088, Note_on_c, 15, 68, 0
1, 74088, Note_on_c, 1, 28, 0
1, 74088, Note_on_c, 13, 64, 0
1, 74096, Note_on_c, 13, 68, 0
1, 74106, Note_on_c, 7, 71, 77
1, 74106, Note_on_c, 8, 81, 80
1, 74108, Note_on_c, 9, 38, 123
1, 74108, Note_on_c, 9, 64, 81
1, 74112, Note_on_c, 9, 64, 0
1, 74112, Note_on_c, 9, 38, 0
1, 74112, Note_on_c, 9, 69, 32
1, 74112, Note_on_c, 9, 42, 51
1, 74116, Note_on_c, 9, 42, 0
1, 74116, Note_on_c, 9, 69, 0
1, 74116, Note_on_c, 7, 83, 80
1, 74194, Note_on_c, 8, 81, 0
1, 74199, Control_c, 15, 1, 15
1, 74200, Note_on_c, 9, 69, 37
1, 74204, Note_on_c, 9, 69, 0
1, 74204, Note_on_c, 9, 44, 51
1, 74208, Note_on_c, 9, 44, 0
1, 74296, Note_on_c, 5, 71, 73
1, 74296, Note_on_c, 8, 80, 75
1, 74296, Note_on_c, 9, 42, 51
1, 74300, Note_on_c, 9, 42, 0
1, 74304, Note_on_c, 9, 69, 33
1, 74308, Note_on_c, 9, 69, 0
1, 74310, Note_on_c, 9, 36, 105
1, 74312, Note_on_c, 1, 28, 112
1, 74314, Note_on_c, 9, 36, 0
1, 74372, Note_on_c, 5, 71, 0
1, 74384, Note_on_c, 8, 80, 0
1, 74396, Note_on_c, 9, 69, 37
1, 74400, Note_on_c, 9, 69, 0
1, 74402, Note_on_c, 9, 44, 57
1, 74404, Note_on_c, 5, 71, 72
1, 74404, Note_on_c, 9, 36, 103
1, 74404, Note_on_c, 9, 63, 85
1, 74406, Note_on_c, 9, 44, 0
1, 74408, Note_on_c, 9, 63, 0
1, 74408, Note_on_c, 9, 36, 0
1, 74466, Note_on_c, 7, 71, 0
1, 74476, Note_on_c, 7, 83, 0
1, 74480, Note_on_c, 5, 71, 0
1, 74490, Note_on_c, 9, 69, 35
1, 74492, Note_on_c, 1, 28, 0
1, 74492, Note_on_c, 7, 81, 75
1, 74494, Note_on_c, 9, 69, 0
1, 74496, Note_on_c, 7, 69, 74
1, 74500, Note_on_c, 5, 71, 69
1, 74500, Note_on_c, 8, 78, 77
1, 74500, Note_on_c, 9, 42, 55
1, 74502, Note_on_c, 1, 28, 115
1, 74504, Note_on_c, 9, 42, 0
1, 74576, Note_on_c, 5, 71, 0
1, 74588, Note_on_c, 8, 78, 0
1, 74590, Note_on_c, 9, 69, 29
1, 74592, Note_on_c, 5, 71, 72
1, 74594, Note_on_c, 9, 69, 0
1, 74594, Note_on_c, 9, 44, 59
1, 74594, Note_on_c, 9, 62, 86
1, 74598, Note_on_c, 9, 62, 0
1, 74598, Note_on_c, 9, 44, 0
1, 74668, Note_on_c, 5, 71, 0
1, 74680, Note_on_c, 9, 69, 33
1, 74680, Note_on_c, 15, 59, 103
1, 74684, Note_on_c, 9, 69, 0
1, 74684, Note_on_c, 9, 64, 88
1, 74686, Note_on_c, 9, 42, 50
1, 74688, Note_on_c, 9, 64, 0
1, 74690, Note_on_c, 9, 42, 0
1, 74692, Note_on_c, 8, 76, 76
1, 74694, Note_on_c, 14, 71, 116
1, 74698, Note_on_c, 13, 59, 112
1, 74762, Note_on_c, 1, 28, 0
1, 74774, Note_on_c, 5, 76, 68
1, 74778, Note_on_c, 4, 52, 65
1, 74780, Note_on_c, 8, 76, 0
1, 74784, Note_on_c, 4, 59, 62
1, 74784, Note_on_c, 9, 69, 33
1, 74786, Note_on_c, 4, 68, 61
1, 74788, Note_on_c, 9, 69, 0
1, 74790, Note_on_c, 9, 44, 55
1, 74794, Note_on_c, 9, 44, 0
1, 74796, Note_on_c, 1, 35, 115
1, 74832, Note_on_c, 4, 52, 0
1, 74838, Note_on_c, 4, 59, 0
1, 74840, Note_on_c, 4, 68, 0
1, 74850, Note_on_c, 5, 76, 0
1, 74852, Note_on_c, 7, 81, 0
1, 74856, Note_on_c, 7, 69, 0
1, 74860, Note_on_c, 15, 59, 0
1, 74866, Note_on_c, 1, 28, 110
1, 74872, Note_on_c, 9, 38, 123
1, 74872, Note_on_c, 9, 69, 38
1, 74874, Note_on_c, 14, 71, 0
1, 74876, Note_on_c, 9, 38, 0
1, 74876, Note_on_c, 9, 69, 0
1, 74876, Note_on_c, 1, 35, 0
1, 74878, Note_on_c, 13, 59, 0
1, 74880, Note_on_c, 7, 80, 79
1, 74880, Note_on_c, 8, 78, 74
1, 74880, Pitch_bend_c, 14, 7296
1, 74880, Pitch_bend_c, 15, 7296
1, 74882, Note_on_c, 13, 66, 104
1, 74882, Note_on_c, 14, 78, 116
1, 74882, Note_on_c, 15, 69, 110
1, 74886, Note_on_c, 9, 42, 59
1, 74886, Note_on_c, 13, 69, 111
1, 74888, Pitch_bend_c, 14, 7360
1, 74888, Pitch_bend_c, 15, 7360
1, 74890, Note_on_c, 9, 42, 0
1, 74892, Note_on_c, 7, 68, 74
1, 74892, Pitch_bend_c, 14, 7424
1, 74892, Pitch_bend_c, 15, 7424
1, 74896, Pitch_bend_c, 14, 7488
1, 74896, Pitch_bend_c, 15, 7488
1, 74900, Pitch_bend_c, 14, 7552
1, 74900, Pitch_bend_c, 15, 7552
1, 74904, Pitch_bend_c, 14, 7616
1, 74904, Pitch_bend_c, 15, 7616
1, 74908, Pitch_bend_c, 14, 7680
1, 74908, Pitch_bend_c, 15, 7680
1, 74912, Pitch_bend_c, 14, 7744
1, 74912, Pitch_bend_c, 15, 7744
1, 74916, Pitch_bend_c, 14, 7808
1, 74916, Pitch_bend_c, 15, 7808
1, 74920, Pitch_bend_c, 14, 7872
1, 74920, Pitch_bend_c, 15, 7872
1, 74924, Pitch_bend_c, 14, 7936
1, 74924, Pitch_bend_c, 15, 7936
1, 74928, Pitch_bend_c, 14, 8000
1, 74928, Pitch_bend_c, 15, 8000
1, 74932, Pitch_bend_c, 14, 8064
1, 74932, Pitch_bend_c, 15, 8064
1, 74936, Pitch_bend_c, 14, 8128
1, 74936, Pitch_bend_c, 15, 8128
1, 74940, Pitch_bend_c, 14, 8192
1, 74940, Pitch_bend_c, 15, 8192
1, 74946, Note_on_c, 1, 28, 0
1, 74968, Note_on_c, 8, 78, 0
1, 74970, Note_on_c, 9, 44, 54
1, 74974, Note_on_c, 9, 44, 0
1, 74974, Note_on_c, 9, 69, 37
1, 74978, Note_on_c, 9, 69, 0
1, 74980, Note_on_c, 1, 28, 109
1, 75058, Note_on_c, 1, 28, 0
1, 75058, Note_on_c, 1, 28, 109
1, 75066, Note_on_c, 9, 42, 52
1, 75068, Note_on_c, 8, 80, 78
1, 75070, Note_on_c, 9, 42, 0
1, 75076, Note_on_c, 9, 69, 37
1, 75080, Note_on_c, 9, 69, 0
1, 75156, Note_on_c, 8, 80, 0
1, 75162, Note_on_c, 9, 44, 59
1, 75164, Note_on_c, 9, 69, 32
1, 75166, Note_on_c, 9, 44, 0
1, 75166, Note_on_c, 9, 36, 119
1, 75168, Note_on_c, 9, 69, 0
1, 75170, Note_on_c, 9, 36, 0
1, 75238, Note_on_c, 1, 28, 0
1, 75240, Note_on_c, 7, 80, 0
1, 75242, Note_on_c, 14, 78, 0
1, 75242, Note_on_c, 13, 66, 0
1, 75242, Note_on_c, 15, 69, 0
1, 75246, Note_on_c, 2, 68, 0
1, 75246, Note_on_c, 2, 64, 0
1, 75246, Note_on_c, 13, 69, 0
1, 75246, Note_on_c, 2, 59, 0
1, 75252, Note_on_c, 7, 68, 0
1, 75254, Note_on_c, 13, 64, 104
1, 75258, Note_on_c, 4, 59, 59
1, 75258, Note_on_c, 15, 68, 106
1, 75262, Note_on_c, 9, 36, 116
1, 75262, Note_on_c, 9, 63, 88
1, 75262, Note_on_c, 14, 76, 112
1, 75264, Note_on_c, 2, 59, 94
1, 75264, Note_on_c, 2, 64, 97
1, 75264, Note_on_c, 2, 68, 100
1, 75264, Control_c, 14, 1, 28
1, 75264, Control_c, 15, 1, 28
1, 75266, Note_on_c, 9, 63, 0
1, 75266, Note_on_c, 9, 36, 0
1, 75268, Note_on_c, 9, 69, 31
1, 75268, Note_on_c, 9, 42, 53
1, 75268, Note_on_c, 13, 68, 112
1, 75272, Note_on_c, 9, 42, 0
1, 75272, Note_on_c, 9, 69, 0
1, 75272, Note_on_c, 1, 37, 111
1, 75272, Note_on_c, 4, 64, 63
1, 75274, Note_on_c, 7, 66, 83
1, 75274, Note_on_c, 7, 78, 78
1, 75312, Note_on_c, 4, 59, 0
1, 75326, Note_on_c, 4, 64, 0
1, 75354, Note_on_c, 9, 63, 82
1, 75358, Note_on_c, 9, 63, 0
1, 75358, Note_on_c, 9, 44, 58
1, 75362, Note_on_c, 9, 44, 0
1, 75362, Note_on_c, 4, 59, 95
1, 75363, Control_c, 14, 1, 70
1, 75363, Control_c, 15, 1, 70
1, 75364, Note_on_c, 9, 69, 36
1, 75366, Note_on_c, 4, 64, 99
1, 75366, Note_on_c, 4, 68, 101
1, 75368, Note_on_c, 9, 69, 0
1, 75448, Note_on_c, 9, 69, 31
1, 75450, Note_on_c, 9, 42, 54
1, 75452, Note_on_c, 9, 69, 0
1, 75454, Note_on_c, 9, 42, 0
1, 75462, Note_on_c, 8, 83, 83
1, 75480, Control_c, 14, 1, 55
1, 75480, Control_c, 15, 1, 55
1, 75542, Note_on_c, 4, 59, 0
1, 75546, Note_on_c, 4, 64, 0
1, 75546, Note_on_c, 4, 68, 0
1, 75550, Note_on_c, 8, 83, 0
1, 75550, Note_on_c, 4, 59, 60
1, 75550, Note_on_c, 4, 64, 59
1, 75550, Note_on_c, 9, 44, 59
1, 75550, Note_on_c, 9, 69, 32
1, 75554, Note_on_c, 9, 69, 0
1, 75554, Note_on_c, 9, 44, 0
1, 75558, Note_on_c, 4, 68, 64
1, 75567, Control_c, 14, 1, 37
1, 75567, Control_c, 15, 1, 37
1, 75604, Note_on_c, 4, 64, 0
1, 75604, Note_on_c, 4, 59, 0
1, 75612, Note_on_c, 4, 68, 0
1, 75634, Note_on_c, 7, 66, 0
1, 75634, Note_on_c, 7, 78, 0
1, 75640, Note_on_c, 9, 38, 123
1, 75642, Note_on_c, 9, 42, 58
1, 75644, Note_on_c, 9, 38, 0
1, 75644, Note_on_c, 7, 76, 78
1, 75646, Note_on_c, 9, 42, 0
1, 75646, Note_on_c, 9, 64, 86
1, 75650, Note_on_c, 9, 64, 0
1, 75650, Note_on_c, 7, 64, 82
1, 75654, Note_on_c, 8, 81, 76
1, 75654, Note_on_c, 9, 69, 30
1, 75658, Note_on_c, 9, 69, 0
1, 75732, Note_on_c, 1, 37, 0
1, 75735, Control_c, 14, 1, 15
1, 75735, Control_c, 15, 1, 15
1, 75736, Note_on_c, 1, 32, 114
1, 75740, Note_on_c, 9, 44, 54
1, 75742, Note_on_c, 8, 81, 0
1, 75744, Note_on_c, 9, 44, 0
1, 75744, Note_on_c, 9, 69, 34
1, 75748, Note_on_c, 9, 69, 0
1, 75794, Note_on_c, 13, 64, 0
1, 75798, Note_on_c, 15, 68, 0
1, 75802, Note_on_c, 14, 76, 0
1, 75808, Note_on_c, 13, 68, 0
1, 75816, Note_on_c, 1, 32, 0
1, 75836, Note_on_c, 1, 37, 118
1, 75836, Note_on_c, 9, 42, 57
1, 75838, Note_on_c, 5, 71, 71
1, 75840, Note_on_c, 9, 42, 0
1, 75840, Note_on_c, 9, 69, 34
1, 75842, Note_on_c, 8, 80, 75
1, 75844, Note_on_c, 9, 69, 0
1, 75844, Note_on_c, 9, 36, 108
1, 75848, Note_on_c, 9, 36, 0
1, 75914, Note_on_c, 5, 71, 0
1, 75926, Note_on_c, 5, 71, 72
1, 75928, Note_on_c, 9, 36, 107
1, 75928, Note_on_c, 9, 44, 57
1, 75928, Note_on_c, 9, 63, 80
1, 75930, Note_on_c, 8, 80, 0
1, 75932, Note_on_c, 9, 63, 0
1, 75932, Note_on_c, 9, 36, 0
1, 75932, Note_on_c, 9, 44, 0
1, 75936, Note_on_c, 9, 69, 33
1, 75940, Note_on_c, 9, 69, 0
1, 76002, Note_on_c, 5, 71, 0
1, 76004, Note_on_c, 7, 76, 0
1, 76010, Note_on_c, 7, 64, 0
1, 76016, Note_on_c, 1, 37, 0
1, 76022, Note_on_c, 7, 78, 80
1, 76024, Note_on_c, 9, 42, 52
1, 76024, Note_on_c, 9, 69, 29
1, 76028, Note_on_c, 9, 69, 0
1, 76028, Note_on_c, 9, 42, 0
1, 76034, Note_on_c, 8, 78, 80
1, 76038, Note_on_c, 5, 71, 73
1, 76038, Note_on_c, 7, 66, 82
1, 76114, Note_on_c, 5, 71, 0
1, 76120, Note_on_c, 9, 62, 80
1, 76122, Note_on_c, 8, 78, 0
1, 76122, Note_on_c, 9, 69, 37
1, 76124, Note_on_c, 9, 62, 0
1, 76126, Note_on_c, 9, 69, 0
1, 76126, Note_on_c, 5, 71, 73
1, 76128, Note_on_c, 1, 37, 115
1, 76132, Note_on_c, 9, 44, 56
1, 76136, Note_on_c, 9, 44, 0
1, 76202, Note_on_c, 5, 71, 0
1, 76208, Note_on_c, 1, 37, 0
1, 76216, Note_on_c, 13, 66, 105
1, 76216, Note_on_c, 15, 69, 108
1, 76220, Note_on_c, 9, 42, 53
1, 76222, Note_on_c, 4, 68, 68
1, 76222, Note_on_c, 9, 69, 33
1, 76222, Note_on_c, 14, 78, 111
1, 76224, Note_on_c, 9, 42, 0
1, 76226, Note_on_c, 9, 69, 0
1, 76226, Note_on_c, 9, 64, 85
1, 76230, Note_on_c, 9, 64, 0
1, 76230, Note_on_c, 4, 64, 94
1, 76230, Note_on_c, 8, 76, 78
1, 76232, Note_on_c, 13, 69, 109
1, 76276, Note_on_c, 4, 68, 0
1, 76312, Note_on_c, 4, 69, 64
1, 76318, Note_on_c, 8, 76, 0
1, 76318, Note_on_c, 9, 44, 50
1, 76320, Note_on_c, 9, 69, 38
1, 76322, Note_on_c, 9, 44, 0
1, 76324, Note_on_c, 9, 69, 0
1, 76324, Note_on_c, 1, 37, 117
1, 76366, Note_on_c, 4, 69, 0
1, 76382, Note_on_c, 7, 78, 0
1, 76396, Note_on_c, 15, 69, 0
1, 76396, Note_on_c, 13, 66, 0
1, 76398, Note_on_c, 7, 66, 0
1, 76402, Note_on_c, 14, 78, 0
1, 76404, Note_on_c, 1, 37, 0
1, 76408, Note_on_c, 1, 35, 110
1, 76408, Note_on_c, 15, 71, 104
1, 76410, Note_on_c, 13, 68, 111
1, 76410, Note_on_c, 13, 71, 110
1, 76410, Note_on_c, 14, 80, 112
1, 76412, Note_on_c, 13, 69, 0
1, 76412, Note_on_c, 8, 78, 81
1, 76414, Note_on_c, 4, 68, 95
1, 76416, Note_on_c, 9, 38, 121
1, 76418, Note_on_c, 9, 42, 57
1, 76420, Note_on_c, 9, 38, 0
1, 76422, Note_on_c, 9, 42, 0
1, 76422, Note_on_c, 7, 80, 81
1, 76422, Note_on_c, 9, 69, 32
1, 76426, Note_on_c, 9, 69, 0
1, 76428, Note_on_c, 7, 68, 81
1, 76500, Note_on_c, 8, 78, 0
1, 76506, Note_on_c, 9, 44, 51
1, 76510, Note_on_c, 9, 44, 0
1, 76514, Note_on_c, 9, 69, 30
1, 76518, Note_on_c, 9, 69, 0
1, 76588, Note_on_c, 1, 35, 0
1, 76588, Note_on_c, 15, 71, 0
1, 76590, Note_on_c, 13, 68, 0
1, 76590, Note_on_c, 14, 80, 0
1, 76590, Note_on_c, 13, 71, 0
1, 76600, Note_on_c, 9, 42, 54
1, 76602, Note_on_c, 15, 73, 105
1, 76604, Note_on_c, 9, 42, 0
1, 76604, Note_on_c, 8, 80, 80
1, 76604, Note_on_c, 13, 73, 106
1, 76608, Pitch_bend_c, 14, 7296
1, 76610, Note_on_c, 1, 37, 115
1, 76610, Note_on_c, 9, 69, 35
1, 76610, Note_on_c, 14, 81, 116
1, 76614, Note_on_c, 9, 69, 0
1, 76614, Note_on_c, 13, 69, 106
1, 76616, Pitch_bend_c, 14, 7360
1, 76620, Pitch_bend_c, 14, 7424
1, 76624, Pitch_bend_c, 14, 7488
1, 76628, Pitch_bend_c, 14, 7552
1, 76632, Pitch_bend_c, 14, 7616
1, 76636, Pitch_bend_c, 14, 7680
1, 76640, Pitch_bend_c, 14, 7744
1, 76644, Pitch_bend_c, 14, 7808
1, 76648, Pitch_bend_c, 14, 7872
1, 76652, Pitch_bend_c, 14, 7936
1, 76656, Pitch_bend_c, 14, 8000
1, 76660, Pitch_bend_c, 14, 8064
1, 76664, Pitch_bend_c, 14, 8128
1, 76668, Pitch_bend_c, 14, 8192
1, 76692, Note_on_c, 8, 80, 0
1, 76710, Note_on_c, 9, 36, 116
1, 76710, Note_on_c, 9, 44, 58
1, 76710, Note_on_c, 9, 69, 32
1, 76714, Note_on_c, 9, 69, 0
1, 76714, Note_on_c, 9, 44, 0
1, 76714, Note_on_c, 9, 36, 0
1, 76774, Note_on_c, 4, 68, 0
1, 76776, Note_on_c, 2, 68, 0
1, 76776, Note_on_c, 6, 59, 0
1, 76776, Note_on_c, 2, 59, 0
1, 76776, Note_on_c, 2, 64, 0
1, 76778, Note_on_c, 6, 64, 0
1, 76782, Note_on_c, 7, 80, 0
1, 76786, Note_on_c, 6, 62, 73
1, 76788, Note_on_c, 7, 68, 0
1, 76790, Note_on_c, 4, 64, 0
1, 76790, Note_on_c, 1, 37, 0
1, 76794, Note_on_c, 4, 62, 62
1, 76794, Note_on_c, 9, 42, 59
1, 76794, Note_on_c, 9, 69, 29
1, 76796, Note_on_c, 1, 38, 115
1, 76796, Note_on_c, 2, 62, 96
1, 76798, Note_on_c, 9, 69, 0
1, 76798, Note_on_c, 9, 42, 0
1, 76798, Note_on_c, 6, 56, 0
1, 76798, Note_on_c, 7, 69, 82
1, 76800, Note_on_c, 6, 57, 66
1, 76800, Note_on_c, 9, 63, 83
1, 76802, Note_on_c, 9, 36, 122
1, 76804, Note_on_c, 9, 63, 0
1, 76804, Note_on_c, 2, 66, 94
1, 76804, Note_on_c, 6, 54, 65
1, 76806, Note_on_c, 9, 36, 0
1, 76806, Note_on_c, 4, 57, 63
1, 76806, Note_on_c, 7, 81, 75
1, 76808, Note_on_c, 2, 57, 103
1, 76848, Note_on_c, 4, 62, 0
1, 76860, Note_on_c, 4, 57, 0
1, 76862, Note_on_c, 15, 73, 0
1, 76864, Note_on_c, 13, 73, 0
1, 76870, Note_on_c, 14, 81, 0
1, 76874, Note_on_c, 13, 69, 0
1, 76888, Note_on_c, 4, 57, 96
1, 76894, Note_on_c, 4, 66, 103
1, 76896, Note_on_c, 9, 69, 36
1, 76898, Note_on_c, 13, 68, 107
1, 76898, Note_on_c, 13, 71, 107
1, 76900, Note_on_c, 9, 69, 0
1, 76900, Note_on_c, 9, 63, 86
1, 76900, Note_on_c, 14, 80, 111
1, 76900, Note_on_c, 15, 71, 111
1, 76902, Note_on_c, 9, 44, 55
1, 76904, Note_on_c, 9, 63, 0
1, 76904, Note_on_c, 4, 62, 103
1, 76906, Note_on_c, 9, 44, 0
1, 76978, Note_on_c, 13, 71, 0
1, 76978, Note_on_c, 13, 68, 0
1, 76984, Note_on_c, 13, 66, 108
1, 76984, Note_on_c, 14, 78, 115
1, 76986, Note_on_c, 8, 81, 74
1, 76992, Note_on_c, 9, 42, 51
1, 76994, Note_on_c, 15, 69, 106
1, 76996, Note_on_c, 9, 42, 0
1, 76996, Note_on_c, 9, 69, 32
1, 77000, Note_on_c, 9, 69, 0
1, 77002, Note_on_c, 13, 69, 103
1, 77004, Note_on_c, 15, 71, 0
1, 77004, Note_on_c, 14, 80, 0
1, 77056, Note_on_c, 1, 38, 0
1, 77068, Note_on_c, 4, 57, 0
1, 77074, Note_on_c, 8, 81, 0
1, 77074, Note_on_c, 4, 66, 0
1, 77082, Note_on_c, 4, 57, 68
1, 77084, Note_on_c, 4, 62, 0
1, 77084, Note_on_c, 9, 69, 31
1, 77086, Note_on_c, 9, 44, 51
1, 77088, Note_on_c, 9, 69, 0
1, 77090, Note_on_c, 9, 44, 0
1, 77090, Note_on_c, 4, 66, 68
1, 77092, Note_on_c, 1, 38, 113
1, 77092, Note_on_c, 4, 62, 65
1, 77136, Note_on_c, 4, 57, 0
1, 77144, Note_on_c, 4, 66, 0
1, 77146, Note_on_c, 4, 62, 0
1, 77172, Note_on_c, 1, 38, 0
1, 77174, Note_on_c, 8, 80, 80
1, 77176, Note_on_c, 9, 42, 53
1, 77176, Note_on_c, 9, 69, 32
1, 77178, Note_on_c, 9, 38, 119
1, 77180, Note_on_c, 9, 69, 0
1, 77180, Note_on_c, 9, 42, 0
1, 77180, Note_on_c, 9, 64, 87
1, 77182, Note_on_c, 9, 38, 0
1, 77184, Note_on_c, 9, 64, 0
1, 77262, Note_on_c, 8, 80, 0
1, 77274, Note_on_c, 9, 44, 55
1, 77276, Note_on_c, 1, 33, 111
1, 77278, Note_on_c, 9, 44, 0
1, 77278, Note_on_c, 9, 69, 36
1, 77282, Note_on_c, 9, 69, 0
1, 77344, Note_on_c, 13, 66, 0
1, 77344, Note_on_c, 14, 78, 0
1, 77354, Note_on_c, 15, 69, 0
1, 77356, Note_on_c, 1, 33, 0
1, 77362, Note_on_c, 13, 69, 0
1, 77372, Note_on_c, 9, 36, 104
1, 77374, Note_on_c, 1, 33, 118
1, 77374, Note_on_c, 8, 78, 77
1, 77374, Note_on_c, 9, 69, 38
1, 77376, Note_on_c, 9, 36, 0
1, 77376, Note_on_c, 5, 74, 67
1, 77378, Note_on_c, 9, 69, 0
1, 77380, Note_on_c, 9, 42, 54
1, 77384, Note_on_c, 9, 42, 0
1, 77452, Note_on_c, 5, 74, 0
1, 77454, Note_on_c, 1, 33, 0
1, 77462, Note_on_c, 8, 78, 0
1, 77468, Note_on_c, 9, 36, 108
1, 77470, Note_on_c, 9, 44, 53
1, 77472, Note_on_c, 9, 36, 0
1, 77472, Note_on_c, 9, 63, 87
1, 77474, Note_on_c, 9, 44, 0
1, 77474, Note_on_c, 5, 74, 68
1, 77476, Note_on_c, 9, 63, 0
1, 77476, Note_on_c, 9, 69, 36
1, 77480, Note_on_c, 9, 69, 0
1, 77484, Note_on_c, 1, 37, 115
1, 77550, Note_on_c, 5, 74, 0
1, 77564, Note_on_c, 1, 37, 0
1, 77568, Note_on_c, 9, 69, 30
1, 77570, Note_on_c, 8, 76, 79
1, 77572, Note_on_c, 9, 69, 0
1, 77572, Note_on_c, 9, 42, 50
1, 77574, Note_on_c, 5, 69, 72
1, 77576, Note_on_c, 9, 42, 0
1, 77576, Note_on_c, 1, 38, 109
1, 77650, Note_on_c, 5, 69, 0
1, 77656, Note_on_c, 9, 44, 51
1, 77656, Note_on_c, 9, 62, 85
1, 77658, Note_on_c, 8, 76, 0
1, 77660, Note_on_c, 9, 44, 0
1, 77660, Note_on_c, 9, 62, 0
1, 77660, Note_on_c, 9, 69, 31
1, 77664, Note_on_c, 9, 69, 0
1, 77752, Note_on_c, 5, 71, 65
1, 77754, Note_on_c, 9, 64, 83
1, 77756, Note_on_c, 8, 75, 76
1, 77758, Note_on_c, 9, 64, 0
1, 77758, Note_on_c, 9, 42, 57
1, 77760, Note_on_c, 14, 71, 112
1, 77762, Note_on_c, 9, 42, 0
1, 77762, Note_on_c, 9, 69, 36
1, 77764, Note_on_c, 15, 59, 106
1, 77766, Note_on_c, 9, 69, 0
1, 77776, Note_on_c, 13, 59, 110
1, 77828, Note_on_c, 5, 71, 0
1, 77844, Note_on_c, 8, 75, 0
1, 77848, Note_on_c, 4, 73, 97
1, 77850, Note_on_c, 5, 71, 72
1, 77856, Note_on_c, 9, 44, 53
1, 77860, Note_on_c, 9, 44, 0
1, 77860, Note_on_c, 9, 69, 36
1, 77862, Note_on_c, 4, 66, 95
1, 77864, Note_on_c, 9, 69, 0
1, 77864, Note_on_c, 4, 69, 95
1, 77926, Note_on_c, 5, 71, 0
1, 77936, Note_on_c, 1, 38, 0
1, 77940, Note_on_c, 14, 71, 0
1, 77944, Note_on_c, 15, 59, 0
1, 77946, Note_on_c, 15, 59, 109
1, 77950, Note_on_c, 9, 69, 31
1, 77954, Note_on_c, 9, 69, 0
1, 77956, Note_on_c, 13, 59, 0
1, 77956, Note_on_c, 9, 42, 59
1, 77956, Note_on_c, 13, 59, 104
1, 77958, Note_on_c, 5, 64, 68
1, 77958, Note_on_c, 8, 76, 78
1, 77958, Note_on_c, 9, 38, 121
1, 77958, Note_on_c, 14, 71, 113
1, 77960, Note_on_c, 9, 42, 0
1, 77962, Note_on_c, 9, 38, 0
1, 78028, Note_on_c, 4, 73, 0
1, 78034, Note_on_c, 5, 64, 0
1, 78042, Note_on_c, 4, 66, 0
1, 78042, Note_on_c, 9, 69, 30
1, 78044, Note_on_c, 4, 69, 0
1, 78044, Note_on_c, 9, 44, 57
1, 78046, Note_on_c, 8, 76, 0
1, 78046, Note_on_c, 9, 69, 0
1, 78046, Note_on_c, 5, 64, 67
1, 78048, Note_on_c, 9, 44, 0
1, 78122, Note_on_c, 5, 64, 0
1, 78134, Note_on_c, 5, 64, 73
1, 78142, Note_on_c, 9, 69, 30
1, 78144, Note_on_c, 9, 42, 58
1, 78146, Note_on_c, 9, 69, 0
1, 78148, Note_on_c, 9, 42, 0
1, 78150, Note_on_c, 8, 78, 83
1, 78156, Note_on_c, 1, 38, 109
1, 78210, Note_on_c, 5, 64, 0
1, 78230, Note_on_c, 1, 37, 113
1, 78236, Note_on_c, 1, 38, 0
1, 78238, Note_on_c, 8, 78, 0
1, 78240, Note_on_c, 9, 36, 123
1, 78240, Note_on_c, 9, 69, 37
1, 78242, Note_on_c, 9, 44, 57
1, 78244, Note_on_c, 9, 69, 0
1, 78244, Note_on_c, 9, 36, 0
1, 78246, Note_on_c, 9, 44, 0
1, 78306, Note_on_c, 15, 59, 0
1, 78308, Note_on_c, 2, 62, 0
1, 78310, Note_on_c, 1, 37, 0
1, 78316, Note_on_c, 2, 66, 0
1, 78316, Note_on_c, 13, 59, 0
1, 78318, Note_on_c, 14, 71, 0
1, 78320, Note_on_c, 2, 57, 0
1, 78326, Note_on_c, 4, 62, 68
1, 78328, Note_on_c, 9, 36, 116
1, 78330, Note_on_c, 2, 62, 96
1, 78332, Note_on_c, 9, 36, 0
1, 78332, Note_on_c, 9, 42, 53
1, 78334, Note_on_c, 14, 81, 109
1, 78336, Note_on_c, 9, 42, 0
1, 78336, Note_on_c, 2, 57, 94
1, 78336, Note_on_c, 9, 69, 33
1, 78336, Pitch_bend_c, 14, 7296
1, 78336, Pitch_bend_c, 15, 7296
1, 78338, Note_on_c, 2, 66, 98
1, 78340, Note_on_c, 9, 69, 0
1, 78340, Note_on_c, 4, 57, 64
1, 78340, Note_on_c, 15, 73, 112
1, 78342, Note_on_c, 9, 63, 87
1, 78344, Pitch_bend_c, 14, 7360
1, 78344, Pitch_bend_c, 15, 7360
1, 78346, Note_on_c, 9, 63, 0
1, 78346, Note_on_c, 13, 69, 105
1, 78346, Note_on_c, 13, 73, 104
1, 78348, Note_on_c, 1, 35, 118
1, 78348, Pitch_bend_c, 14, 7424
1, 78348, Pitch_bend_c, 15, 7424
1, 78352, Pitch_bend_c, 14, 7488
1, 78352, Pitch_bend_c, 15, 7488
1, 78356, Pitch_bend_c, 14, 7552
1, 78356, Pitch_bend_c, 15, 7552
1, 78360, Pitch_bend_c, 14, 7616
1, 78360, Pitch_bend_c, 15, 7616
1, 78364, Pitch_bend_c, 14, 7680
1, 78364, Pitch_bend_c, 15, 7680
1, 78368, Pitch_bend_c, 14, 7744
1, 78368, Pitch_bend_c, 15, 7744
1, 78372, Pitch_bend_c, 14, 7808
1, 78372, Pitch_bend_c, 15, 7808
1, 78376, Pitch_bend_c, 14, 7872
1, 78376, Pitch_bend_c, 15, 7872
1, 78380, Note_on_c, 4, 62, 0
1, 78380, Pitch_bend_c, 14, 7936
1, 78380, Pitch_bend_c, 15, 7936
1, 78384, Pitch_bend_c, 14, 8000
1, 78384, Pitch_bend_c, 15, 8000
1, 78388, Pitch_bend_c, 14, 8064
1, 78388, Pitch_bend_c, 15, 8064
1, 78392, Pitch_bend_c, 14, 8128
1, 78392, Pitch_bend_c, 15, 8128
1, 78394, Note_on_c, 4, 57, 0
1, 78396, Pitch_bend_c, 14, 8192
1, 78396, Pitch_bend_c, 15, 8192
1, 78424, Note_on_c, 9, 44, 51
1, 78428, Note_on_c, 9, 44, 0
1, 78430, Note_on_c, 9, 63, 86
1, 78432, Note_on_c, 4, 62, 96
1, 78432, Note_on_c, 4, 66, 100
1, 78434, Note_on_c, 9, 63, 0
1, 78436, Note_on_c, 9, 69, 37
1, 78438, Note_on_c, 4, 57, 102
1, 78440, Note_on_c, 9, 69, 0
1, 78514, Note_on_c, 14, 81, 0
1, 78520, Note_on_c, 15, 73, 0
1, 78520, Note_on_c, 9, 69, 33
1, 78520, Note_on_c, 14, 81, 110
1, 78520, Note_on_c, 15, 73, 106
1, 78522, Note_on_c, 13, 69, 0
1, 78522, Note_on_c, 13, 69, 109
1, 78524, Note_on_c, 9, 69, 0
1, 78526, Note_on_c, 13, 73, 0
1, 78526, Note_on_c, 8, 81, 78
1, 78526, Note_on_c, 9, 42, 52
1, 78530, Note_on_c, 9, 42, 0
1, 78544, Note_on_c, 13, 73, 110
1, 78612, Note_on_c, 4, 66, 0
1, 78612, Note_on_c, 4, 62, 0
1, 78614, Note_on_c, 8, 81, 0
1, 78616, Note_on_c, 9, 44, 51
1, 78616, Note_on_c, 9, 69, 32
1, 78618, Note_on_c, 4, 57, 0
1, 78620, Note_on_c, 9, 69, 0
1, 78620, Note_on_c, 9, 44, 0
1, 78620, Note_on_c, 4, 66, 68
1, 78622, Note_on_c, 4, 62, 67
1, 78624, Note_on_c, 4, 57, 66
1, 78674, Note_on_c, 4, 66, 0
1, 78676, Note_on_c, 4, 62, 0
1, 78678, Note_on_c, 4, 57, 0
1, 78700, Note_on_c, 15, 73, 0
1, 78700, Note_on_c, 14, 81, 0
1, 78702, Note_on_c, 13, 69, 0
1, 78708, Note_on_c, 1, 35, 0
1, 78712, Note_on_c, 13, 73, 0
1, 78712, Note_on_c, 13, 73, 107
1, 78712, Note_on_c, 14, 81, 110
1, 78714, Note_on_c, 9, 69, 35
1, 78716, Note_on_c, 9, 38, 116
1, 78716, Note_on_c, 9, 42, 55
1, 78716, Note_on_c, 15, 73, 110
1, 78718, Note_on_c, 9, 69, 0
1, 78720, Note_on_c, 9, 42, 0
1, 78720, Note_on_c, 9, 38, 0
1, 78724, Note_on_c, 8, 80, 81
1, 78724, Note_on_c, 9, 64, 81
1, 78726, Note_on_c, 9, 36, 119
1, 78728, Note_on_c, 9, 64, 0
1, 78730, Note_on_c, 9, 36, 0
1, 78734, Note_on_c, 13, 69, 110
1, 78812, Note_on_c, 8, 80, 0
1, 78812, Note_on_c, 9, 44, 58
1, 78816, Note_on_c, 9, 44, 0
1, 78818, Note_on_c, 9, 69, 38
1, 78822, Note_on_c, 9, 69, 0
1, 78892, Note_on_c, 13, 73, 0
1, 78892, Note_on_c, 14, 81, 0
1, 78896, Note_on_c, 15, 73, 0
1, 78902, Note_on_c, 1, 35, 114
1, 78902, Note_on_c, 8, 78, 83
1, 78904, Note_on_c, 9, 69, 30
1, 78908, Note_on_c, 9, 69, 0
1, 78910, Note_on_c, 9, 42, 50
1, 78910, Note_on_c, 14, 81, 113
1, 78912, Note_on_c, 13, 69, 0
1, 78912, Note_on_c, 13, 69, 106
1, 78914, Note_on_c, 9, 42, 0
1, 78914, Note_on_c, 9, 50, 118
1, 78914, Note_on_c, 15, 73, 104
1, 78918, Note_on_c, 9, 50, 0
1, 78918, Note_on_c, 13, 73, 110
1, 78990, Note_on_c, 8, 78, 0
1, 79000, Note_on_c, 9, 44, 59
1, 79004, Note_on_c, 9, 44, 0
1, 79006, Note_on_c, 9, 63, 88
1, 79006, Note_on_c, 9, 69, 36
1, 79010, Note_on_c, 9, 69, 0
1, 79010, Note_on_c, 9, 63, 0
1, 79082, Note_on_c, 1, 35, 0
1, 79090, Note_on_c, 14, 81, 0
1, 79092, Note_on_c, 13, 69, 0
1, 79094, Note_on_c, 15, 73, 0
1, 79096, Note_on_c, 13, 71, 110
1, 79098, Note_on_c, 13, 73, 0
1, 79098, Note_on_c, 4, 69, 62
1, 79098, Note_on_c, 9, 38, 123
1, 79098, Note_on_c, 9, 42, 54
1, 79098, Note_on_c, 15, 71, 103
1, 79100, Note_on_c, 9, 69, 30
1, 79102, Note_on_c, 9, 42, 0
1, 79102, Note_on_c, 9, 38, 0
1, 79102, Note_on_c, 9, 36, 120
1, 79104, Note_on_c, 9, 69, 0
1, 79104, Note_on_c, 4, 66, 59
1, 79104, Note_on_c, 13, 68, 107
1, 79104, Note_on_c, 14, 80, 117
1, 79106, Note_on_c, 9, 36, 0
1, 79106, Note_on_c, 1, 35, 113
1, 79108, Note_on_c, 8, 76, 83
1, 79152, Note_on_c, 4, 69, 0
1, 79158, Note_on_c, 4, 66, 0
1, 79194, Note_on_c, 9, 44, 55
1, 79194, Note_on_c, 9, 50, 123
1, 79196, Note_on_c, 8, 76, 0
1, 79198, Note_on_c, 9, 50, 0
1, 79198, Note_on_c, 9, 44, 0
1, 79198, Note_on_c, 9, 69, 30
1, 79200, Note_on_c, 9, 62, 87
1, 79202, Note_on_c, 9, 69, 0
1, 79204, Note_on_c, 9, 62, 0
1, 79276, Note_on_c, 13, 71, 0
1, 79278, Note_on_c, 15, 71, 0
1, 79284, Note_on_c, 13, 68, 0
1, 79284, Note_on_c, 14, 80, 0
1, 79286, Note_on_c, 13, 66, 107
1, 79294, Note_on_c, 9, 38, 116
1, 79294, Note_on_c, 9, 64, 85
1, 79296, Control_c, 14, 1, 28
1, 79298, Note_on_c, 9, 64, 0
1, 79298, Note_on_c, 9, 38, 0
1, 79298, Note_on_c, 8, 75, 80
1, 79298, Note_on_c, 9, 69, 32
1, 79298, Note_on_c, 14, 78, 109
1, 79298, Note_on_c, 15, 69, 112
1, 79302, Note_on_c, 9, 69, 0
1, 79302, Note_on_c, 9, 42, 50
1, 79306, Note_on_c, 9, 42, 0
1, 79308, Note_on_c, 13, 69, 110
1, 79366, Note_on_c, 1, 35, 0
1, 79384, Note_on_c, 9, 69, 32
1, 79386, Note_on_c, 8, 75, 0
1, 79388, Note_on_c, 9, 69, 0
1, 79388, Note_on_c, 4, 76, 60
1, 79392, Control_c, 15, 1, 28
1, 79395, Control_c, 14, 1, 70
1, 79398, Note_on_c, 9, 44, 51
1, 79400, Note_on_c, 1, 35, 112
1, 79400, Note_on_c, 5, 69, 71
1, 79402, Note_on_c, 9, 44, 0
1, 79442, Note_on_c, 4, 76, 0
1, 79450, Note_on_c, 2, 62, 0
1, 79456, Note_on_c, 2, 57, 0
1, 79458, Note_on_c, 2, 66, 0
1, 79476, Note_on_c, 5, 69, 0
1, 79478, Note_on_c, 2, 57, 99
1, 79480, Note_on_c, 1, 35, 0
1, 79482, Note_on_c, 4, 73, 65
1, 79482, Note_on_c, 9, 36, 122
1, 79484, Note_on_c, 2, 66, 94
1, 79484, Note_on_c, 4, 66, 65
1, 79484, Note_on_c, 4, 69, 64
1, 79484, Note_on_c, 8, 76, 79
1, 79484, Note_on_c, 9, 42, 51
1, 79486, Note_on_c, 9, 36, 0
1, 79486, Note_on_c, 2, 62, 103
1, 79486, Note_on_c, 5, 69, 64
1, 79488, Note_on_c, 9, 42, 0
1, 79488, Note_on_c, 9, 50, 118
1, 79490, Note_on_c, 1, 35, 114
1, 79491, Control_c, 15, 1, 70
1, 79492, Note_on_c, 9, 50, 0
1, 79492, Note_on_c, 9, 69, 30
1, 79496, Note_on_c, 9, 69, 0
1, 79512, Control_c, 14, 1, 55
1, 79536, Note_on_c, 4, 73, 0
1, 79538, Note_on_c, 4, 69, 0
1, 79538, Note_on_c, 4, 66, 0
1, 79562, Note_on_c, 5, 69, 0
1, 79572, Note_on_c, 8, 76, 0
1, 79578, Note_on_c, 9, 69, 29
1, 79582, Note_on_c, 9, 69, 0
1, 79582, Note_on_c, 9, 44, 59
1, 79586, Note_on_c, 9, 44, 0
1, 79599, Control_c, 14, 1, 37
1, 79608, Control_c, 15, 1, 55
1, 79670, Note_on_c, 1, 35, 0
1, 79670, Note_on_c, 5, 69, 67
1, 79678, Note_on_c, 1, 35, 115
1, 79678, Note_on_c, 9, 47, 119
1, 79680, Note_on_c, 9, 42, 52
1, 79680, Note_on_c, 9, 69, 30
1, 79682, Note_on_c, 9, 47, 0
1, 79684, Note_on_c, 9, 69, 0
1, 79684, Note_on_c, 9, 42, 0
1, 79688, Note_on_c, 8, 78, 80
1, 79695, Control_c, 15, 1, 37
1, 79758, Note_on_c, 5, 69, 0
1, 79767, Control_c, 14, 1, 15
1, 79768, Note_on_c, 5, 71, 64
1, 79772, Note_on_c, 9, 69, 34
1, 79776, Note_on_c, 9, 69, 0
1, 79776, Note_on_c, 8, 78, 0
1, 79782, Note_on_c, 9, 44, 53
1, 79786, Note_on_c, 9, 44, 0
1, 79826, Note_on_c, 13, 66, 0
1, 79838, Note_on_c, 2, 57, 0
1, 79838, Note_on_c, 15, 69, 0
1, 79838, Note_on_c, 14, 78, 0
1, 79844, Note_on_c, 5, 71, 0
1, 79844, Note_on_c, 2, 66, 0
1, 79846, Note_on_c, 2, 62, 0
1, 79846, Note_on_c, 6, 62, 0
1, 79848, Note_on_c, 13, 69, 0
1, 79858, Note_on_c, 1, 35, 0
1, 79858, Note_on_c, 1, 28, 109
1, 79860, Note_on_c, 6, 57, 0
1, 79862, Note_on_c, 5, 64, 68
1, 79863, Control_c, 15, 1, 15
1, 79864, Note_on_c, 6, 54, 0
1, 79864, Note_on_c, 4, 59, 62
1, 79864, Note_on_c, 9, 49, 122
1, 79868, Note_on_c, 9, 49, 0
1, 79868, Note_on_c, 6, 64, 66
1, 79870, Note_on_c, 9, 36, 120
1, 79870, Note_on_c, 14, 76, 114
1, 79870, Note_on_c, 15, 68, 105
1, 79872, Note_on_c, 12, 88, 117
1, 79872, Note_on_c, 13, 64, 108
1, 79874, Note_on_c, 9, 36, 0
1, 79878, Note_on_c, 9, 69, 37
1, 79882, Note_on_c, 9, 69, 0
1, 79884, Note_on_c, 6, 56, 66
1, 79884, Note_on_c, 6, 59, 68
1, 79888, Note_on_c, 13, 68, 112
1, 79918, Note_on_c, 4, 59, 0
1, 79938, Note_on_c, 5, 64, 0
1, 79938, Note_on_c, 7, 69, 0
1, 79946, Note_on_c, 7, 81, 0
1, 79962, Note_on_c, 5, 64, 70
1, 79962, Note_on_c, 9, 69, 35
1, 79966, Note_on_c, 9, 69, 0
1, 79968, Note_on_c, 4, 59, 67
1, 80022, Note_on_c, 4, 59, 0
1, 80038, Note_on_c, 5, 64, 0
1, 80054, Note_on_c, 4, 59, 65
1, 80058, Note_on_c, 9, 69, 34
1, 80060, Note_on_c, 9, 42, 59
1, 80062, Note_on_c, 9, 69, 0
1, 80064, Note_on_c, 9, 42, 0
1, 80064, Control_c, 15, 1, 28
1, 80068, Note_on_c, 5, 64, 69
1, 80108, Note_on_c, 4, 59, 0
1, 80144, Note_on_c, 5, 64, 0
1, 80152, Note_on_c, 4, 64, 68
1, 80160, Control_c, 14, 1, 28
1, 80163, Control_c, 15, 1, 70
1, 80164, Note_on_c, 5, 71, 66
1, 80206, Note_on_c, 4, 64, 0
1, 80240, Note_on_c, 5, 71, 0
1, 80254, Note_on_c, 9, 38, 124
1, 80258, Note_on_c, 9, 38, 0
1, 80259, Control_c, 14, 1, 70
1, 80262, Note_on_c, 9, 42, 58
1, 80266, Note_on_c, 9, 42, 0
1, 80280, Control_c, 15, 1, 55
1, 80350, Note_on_c, 5, 64, 67
1, 80352, Note_on_c, 4, 59, 97
1, 80367, Control_c, 15, 1, 37
1, 80376, Control_c, 14, 1, 55
1, 80398, Note_on_c, 1, 28, 0
1, 80426, Note_on_c, 5, 64, 0
1, 80442, Note_on_c, 9, 42, 52
1, 80446, Note_on_c, 9, 42, 0
1, 80532, Note_on_c, 4, 59, 0
1, 80538, Note_on_c, 5, 71, 70
1, 80546, Note_on_c, 4, 64, 67
1, 80548, Note_on_c, 1, 40, 118
1, 80548, Note_on_c, 9, 69, 35
1, 80550, Note_on_c, 9, 36, 103
1, 80552, Note_on_c, 9, 69, 0
1, 80554, Note_on_c, 9, 36, 0
1, 80600, Note_on_c, 4, 64, 0
1, 80614, Note_on_c, 5, 71, 0
1, 80628, Note_on_c, 1, 40, 0
1, 80638, Note_on_c, 9, 42, 59
1, 80642, Note_on_c, 9, 42, 0
1, 80728, Note_on_c, 5, 64, 65
1, 80738, Note_on_c, 9, 36, 102
1, 80740, Note_on_c, 9, 69, 30
1, 80742, Note_on_c, 9, 36, 0
1, 80744, Note_on_c, 9, 69, 0
1, 80744, Note_on_c, 4, 64, 67
1, 80746, Note_on_c, 1, 40, 118
1, 80752, Control_c, 12, 11, 127
1, 80784, Control_c, 12, 11, 126
1, 80798, Note_on_c, 4, 64, 0
1, 80800, Control_c, 12, 11, 125
1, 80804, Note_on_c, 5, 64, 0
1, 80816, Control_c, 12, 11, 124
1, 80824, Note_on_c, 9, 42, 52
1, 80826, Note_on_c, 1, 40, 0
1, 80828, Note_on_c, 9, 42, 0
1, 80828, Note_on_c, 4, 59, 97
1, 80830, Note_on_c, 9, 69, 38
1, 80832, Note_on_c, 5, 64, 70
1, 80832, Control_c, 12, 11, 123
1, 80834, Note_on_c, 9, 69, 0
1, 80836, Note_on_c, 9, 36, 121
1, 80840, Note_on_c, 9, 36, 0
1, 80842, Note_on_c, 1, 28, 116
1, 80864, Control_c, 12, 11, 122
1, 80880, Control_c, 12, 11, 121
1, 80896, Pitch_bend_c, 12, 7936
1, 80896, Control_c, 12, 11, 120
1, 80908, Note_on_c, 5, 64, 0
1, 80912, Pitch_bend_c, 12, 7808
1, 80928, Pitch_bend_c, 12, 7680
1, 80928, Control_c, 12, 11, 119
1, 80960, Pitch_bend_c, 12, 7424
1, 80960, Control_c, 12, 11, 118
1, 80976, Pitch_bend_c, 12, 7296
1, 80992, Pitch_bend_c, 12, 7168
1, 80992, Control_c, 12, 11, 117
1, 81008, Note_on_c, 4, 59, 0
1, 81016, Note_on_c, 5, 71, 72
1, 81020, Note_on_c, 4, 64, 67
1, 81020, Note_on_c, 9, 42, 54
1, 81022, Note_on_c, 1, 28, 0
1, 81024, Note_on_c, 9, 42, 0
1, 81024, Note_on_c, 9, 38, 117
1, 81024, Control_c, 12, 11, 116
1, 81026, Note_on_c, 9, 69, 34
1, 81028, Note_on_c, 9, 38, 0
1, 81030, Note_on_c, 9, 69, 0
1, 81034, Note_on_c, 1, 40, 117
1, 81040, Pitch_bend_c, 12, 7040
1, 81056, Control_c, 12, 11, 115
1, 81074, Note_on_c, 4, 64, 0
1, 81088, Pitch_bend_c, 12, 6912
1, 81092, Note_on_c, 5, 71, 0
1, 81104, Control_c, 12, 11, 114
1, 81114, Note_on_c, 1, 40, 0
1, 81116, Note_on_c, 4, 59, 68
1, 81120, Note_on_c, 5, 71, 67
1, 81120, Note_on_c, 9, 69, 33
1, 81120, Pitch_bend_c, 12, 6784
1, 81120, Control_c, 12, 11, 113
1, 81124, Note_on_c, 9, 69, 0
1, 81132, Note_on_c, 1, 40, 112
1, 81152, Pitch_bend_c, 12, 6656
1, 81152, Control_c, 12, 11, 112
1, 81168, Pitch_bend_c, 12, 6528
1, 81170, Note_on_c, 4, 59, 0
1, 81184, Pitch_bend_c, 12, 6400
1, 81184, Control_c, 12, 11, 111
1, 81196, Note_on_c, 5, 71, 0
1, 81200, Pitch_bend_c, 12, 6272
1, 81200, Control_c, 12, 11, 110
1, 81206, Note_on_c, 4, 59, 100
1, 81212, Note_on_c, 1, 40, 0
1, 81212, Note_on_c, 9, 42, 51
1, 81214, Note_on_c, 5, 64, 70
1, 81216, Note_on_c, 9, 42, 0
1, 81216, Note_on_c, 9, 69, 32
1, 81220, Note_on_c, 9, 69, 0
1, 81226, Note_on_c, 1, 28, 109
1, 81231, Control_c, 14, 1, 37
1, 81232, Pitch_bend_c, 12, 6144
1, 81232, Control_c, 12, 11, 109
1, 81248, Pitch_bend_c, 12, 6016
1, 81248, Control_c, 12, 11, 108
1, 81264, Control_c, 12, 11, 107
1, 81280, Pitch_bend_c, 12, 5888
1, 81280, Control_c, 12, 11, 106
1, 81290, Note_on_c, 5, 64, 0
1, 81296, Pitch_bend_c, 12, 5760
1, 81296, Control_c, 12, 11, 104
1, 81303, Control_c, 15, 1, 15
1, 81312, Pitch_bend_c, 12, 5504
1, 81312, Control_c, 12, 11, 103
1, 81328, Pitch_bend_c, 12, 5376
1, 81328, Control_c, 12, 11, 102
1, 81344, Pitch_bend_c, 12, 5248
1, 81344, Control_c, 12, 11, 101
1, 81360, Pitch_bend_c, 12, 5120
1, 81360, Control_c, 12, 11, 100
1, 81370, Note_on_c, 15, 68, 0
1, 81376, Pitch_bend_c, 12, 4864
1, 81376, Control_c, 12, 11, 99
1, 81386, Note_on_c, 4, 59, 0
1, 81392, Pitch_bend_c, 12, 4608
1, 81392, Control_c, 12, 11, 96
1, 81402, Note_on_c, 1, 28, 0
1, 81402, Note_on_c, 1, 28, 116
1, 81402, Note_on_c, 4, 59, 63
1, 81402, Note_on_c, 9, 49, 120
1, 81404, Pitch_bend_c, 12, 8192
1, 81404, Control_c, 12, 11, 127
1, 81406, Note_on_c, 9, 49, 0
1, 81408, Note_on_c, 12, 88, 0
1, 81408, Note_on_c, 9, 69, 38
1, 81412, Note_on_c, 9, 69, 0
1, 81412, Note_on_c, 9, 36, 118
1, 81412, Note_on_c, 9, 42, 57
1, 81416, Note_on_c, 9, 42, 0
1, 81416, Note_on_c, 9, 36, 0
1, 81416, Note_on_c, 5, 64, 65
1, 81456, Note_on_c, 4, 59, 0
1, 81492, Note_on_c, 5, 64, 0
1, 81494, Note_on_c, 5, 64, 71
1, 81502, Note_on_c, 4, 59, 62
1, 81504, Note_on_c, 9, 69, 31
1, 81508, Note_on_c, 9, 69, 0
1, 81556, Note_on_c, 4, 59, 0
1, 81570, Note_on_c, 5, 64, 0
1, 81592, Note_on_c, 5, 64, 70
1, 81602, Note_on_c, 4, 59, 63
1, 81602, Note_on_c, 9, 42, 54
1, 81604, Note_on_c, 9, 69, 35
1, 81606, Note_on_c, 9, 42, 0
1, 81608, Note_on_c, 9, 69, 0
1, 81656, Note_on_c, 4, 59, 0
1, 81668, Note_on_c, 5, 64, 0
1, 81696, Note_on_c, 9, 46, 107
1, 81700, Note_on_c, 9, 46, 0
1, 81702, Note_on_c, 5, 71, 69
1, 81704, Note_on_c, 4, 64, 60
1, 81758, Note_on_c, 4, 64, 0
1, 81778, Note_on_c, 5, 71, 0
1, 81784, Note_on_c, 9, 42, 58
1, 81786, Note_on_c, 9, 38, 125
1, 81788, Note_on_c, 9, 42, 0
1, 81790, Note_on_c, 9, 38, 0
1, 81882, Note_on_c, 4, 59, 98
1, 81892, Note_on_c, 5, 64, 66
1, 81942, Note_on_c, 1, 28, 0
1, 81968, Note_on_c, 5, 64, 0
1, 81980, Note_on_c, 5, 64, 67
1, 81980, Note_on_c, 9, 42, 55
1, 81984, Note_on_c, 9, 42, 0
1, 82056, Note_on_c, 5, 64, 0
1, 82062, Note_on_c, 4, 59, 0
1, 82068, Note_on_c, 1, 40, 110
1, 82074, Note_on_c, 9, 69, 36
1, 82078, Note_on_c, 9, 69, 0
1, 82078, Note_on_c, 5, 71, 70
1, 82080, Note_on_c, 4, 64, 59
1, 82086, Note_on_c, 9, 36, 102
1, 82090, Note_on_c, 9, 36, 0
1, 82130, Note_on_c, 14, 76, 0
1, 82134, Note_on_c, 4, 64, 0
1, 82148, Note_on_c, 1, 40, 0
1, 82152, Note_on_c, 13, 64, 0
1, 82154, Note_on_c, 5, 71, 0
1, 82167, Control_c, 14, 1, 15
1, 82168, Note_on_c, 13, 68, 0
1, 82178, Note_on_c, 9, 42, 50
1, 82182, Note_on_c, 9, 42, 0
1, 82264, Note_on_c, 9, 36, 103
1, 82268, Note_on_c, 9, 36, 0
1, 82272, Note_on_c, 1, 40, 114
1, 82272, Note_on_c, 9, 69, 37
1, 82276, Note_on_c, 9, 69, 0
1, 82276, Note_on_c, 5, 64, 72
1, 82278, Note_on_c, 4, 64, 60
1, 82332, Note_on_c, 4, 64, 0
1, 82352, Note_on_c, 1, 40, 0
1, 82352, Note_on_c, 5, 64, 0
1, 82360, Note_on_c, 9, 69, 31
1, 82364, Note_on_c, 9, 69, 0
1, 82368, Note_on_c, 9, 36, 122
1, 82372, Note_on_c, 9, 36, 0
1, 82374, Note_on_c, 5, 64, 67
1, 82374, Note_on_c, 9, 42, 54
1, 82376, Note_on_c, 4, 59, 94
1, 82378, Note_on_c, 9, 42, 0
1, 82378, Note_on_c, 1, 28, 110
1, 82450, Note_on_c, 5, 64, 0
1, 82454, Note_on_c, 5, 71, 72
1, 82530, Note_on_c, 5, 71, 0
1, 82552, Note_on_c, 5, 71, 70
1, 82556, Note_on_c, 4, 59, 0
1, 82558, Note_on_c, 1, 28, 0
1, 82558, Note_on_c, 4, 64, 66
1, 82558, Note_on_c, 15, 76, 103
1, 82560, Note_on_c, 1, 40, 110
1, 82560, Note_on_c, 9, 42, 51
1, 82560, Pitch_bend_c, 15, 7296
1, 82564, Note_on_c, 9, 42, 0
1, 82564, Note_on_c, 9, 38, 123
1, 82566, Note_on_c, 9, 69, 29
1, 82568, Note_on_c, 9, 38, 0
1, 82568, Pitch_bend_c, 15, 7360
1, 82570, Note_on_c, 9, 69, 0
1, 82572, Pitch_bend_c, 15, 7424
1, 82576, Pitch_bend_c, 15, 7488
1, 82580, Pitch_bend_c, 15, 7552
1, 82584, Pitch_bend_c, 15, 7616
1, 82588, Pitch_bend_c, 15, 7680
1, 82592, Pitch_bend_c, 15, 7744
1, 82596, Pitch_bend_c, 15, 7808
1, 82600, Pitch_bend_c, 15, 7872
1, 82604, Pitch_bend_c, 15, 7936
1, 82608, Pitch_bend_c, 15, 8000
1, 82612, Note_on_c, 4, 64, 0
1, 82612, Pitch_bend_c, 15, 8064
1, 82616, Pitch_bend_c, 15, 8128
1, 82620, Pitch_bend_c, 15, 8192
1, 82628, Note_on_c, 5, 71, 0
1, 82640, Note_on_c, 1, 40, 0
1, 82648, Note_on_c, 4, 59, 61
1, 82650, Note_on_c, 1, 40, 118
1, 82652, Note_on_c, 5, 64, 71
1, 82658, Note_on_c, 9, 69, 30
1, 82660, Note_on_c, 15, 71, 104
1, 82662, Note_on_c, 9, 69, 0
1, 82662, Note_on_c, 15, 76, 0
1, 82702, Note_on_c, 4, 59, 0
1, 82728, Note_on_c, 5, 64, 0
1, 82730, Note_on_c, 1, 40, 0
1, 82744, Note_on_c, 1, 28, 110
1, 82748, Note_on_c, 9, 69, 30
1, 82750, Note_on_c, 4, 59, 98
1, 82752, Note_on_c, 9, 69, 0
1, 82758, Note_on_c, 9, 42, 52
1, 82762, Note_on_c, 9, 42, 0
1, 82840, Note_on_c, 15, 71, 0
1, 82848, Control_c, 15, 1, 28
1, 82854, Note_on_c, 15, 73, 112
1, 82924, Note_on_c, 1, 28, 0
1, 82930, Note_on_c, 4, 59, 0
1, 82934, Note_on_c, 5, 62, 70
1, 82936, Note_on_c, 4, 59, 67
1, 82936, Note_on_c, 6, 54, 66
1, 82942, Note_on_c, 1, 28, 118
1, 82942, Note_on_c, 6, 62, 73
1, 82944, Note_on_c, 6, 59, 0
1, 82944, Note_on_c, 6, 56, 0
1, 82946, Note_on_c, 9, 42, 57
1, 82946, Note_on_c, 9, 49, 123
1, 82947, Control_c, 15, 1, 70
1, 82950, Note_on_c, 9, 49, 0
1, 82950, Note_on_c, 9, 42, 0
1, 82950, Note_on_c, 6, 57, 66
1, 82950, Note_on_c, 9, 36, 118
1, 82950, Note_on_c, 9, 69, 33
1, 82954, Note_on_c, 9, 69, 0
1, 82954, Note_on_c, 9, 36, 0
1, 82990, Note_on_c, 4, 59, 0
1, 83010, Note_on_c, 5, 62, 0
1, 83036, Note_on_c, 9, 69, 32
1, 83038, Note_on_c, 4, 59, 66
1, 83040, Note_on_c, 9, 69, 0
1, 83044, Note_on_c, 5, 62, 71
1, 83064, Control_c, 15, 1, 55
1, 83092, Note_on_c, 4, 59, 0
1, 83120, Note_on_c, 5, 62, 0
1, 83128, Note_on_c, 4, 59, 66
1, 83136, Note_on_c, 9, 69, 32
1, 83140, Note_on_c, 9, 69, 0
1, 83140, Note_on_c, 9, 42, 51
1, 83144, Note_on_c, 9, 42, 0
1, 83144, Note_on_c, 5, 62, 65
1, 83151, Control_c, 15, 1, 37
1, 83182, Note_on_c, 4, 59, 0
1, 83214, Note_on_c, 15, 73, 0
1, 83220, Note_on_c, 5, 62, 0
1, 83222, Note_on_c, 4, 64, 61
1, 83226, Note_on_c, 9, 46, 105
1, 83230, Note_on_c, 9, 46, 0
1, 83230, Note_on_c, 15, 76, 108
1, 83236, Note_on_c, 5, 69, 68
1, 83276, Note_on_c, 4, 64, 0
1, 83312, Note_on_c, 5, 69, 0
1, 83319, Control_c, 15, 1, 15
1, 83328, Note_on_c, 9, 42, 51
1, 83330, Note_on_c, 9, 38, 124
1, 83332, Note_on_c, 9, 42, 0
1, 83334, Note_on_c, 9, 38, 0
1, 83334, Note_on_c, 15, 76, 0
1, 83416, Note_on_c, 5, 62, 71
1, 83422, Note_on_c, 4, 59, 99
1, 83482, Note_on_c, 1, 28, 0
1, 83492, Note_on_c, 5, 62, 0
1, 83514, Note_on_c, 9, 42, 57
1, 83518, Note_on_c, 9, 42, 0
1, 83602, Note_on_c, 4, 59, 0
1, 83606, Note_on_c, 5, 69, 72
1, 83614, Note_on_c, 4, 64, 60
1, 83616, Note_on_c, 9, 69, 36
1, 83618, Note_on_c, 9, 36, 103
1, 83620, Note_on_c, 9, 69, 0
1, 83620, Note_on_c, 1, 40, 114
1, 83622, Note_on_c, 9, 36, 0
1, 83668, Note_on_c, 4, 64, 0
1, 83682, Note_on_c, 5, 69, 0
1, 83700, Note_on_c, 1, 40, 0
1, 83710, Note_on_c, 9, 42, 54
1, 83714, Note_on_c, 9, 42, 0
1, 83802, Note_on_c, 5, 62, 66
1, 83804, Note_on_c, 1, 40, 112
1, 83804, Note_on_c, 9, 69, 38
1, 83808, Note_on_c, 9, 69, 0
1, 83808, Note_on_c, 9, 36, 104
1, 83812, Note_on_c, 9, 36, 0
1, 83814, Note_on_c, 4, 64, 62
1, 83868, Note_on_c, 4, 64, 0
1, 83878, Note_on_c, 5, 62, 0
1, 83884, Note_on_c, 1, 40, 0
1, 83896, Note_on_c, 9, 42, 50
1, 83896, Note_on_c, 9, 69, 34
1, 83900, Note_on_c, 9, 69, 0
1, 83900, Note_on_c, 9, 42, 0
1, 83902, Note_on_c, 4, 59, 94
1, 83902, Note_on_c, 5, 62, 68
1, 83902, Note_on_c, 9, 36, 125
1, 83906, Note_on_c, 9, 36, 0
1, 83912, Note_on_c, 1, 28, 114
1, 83978, Note_on_c, 5, 62, 0
1, 84082, Note_on_c, 4, 59, 0
1, 84082, Note_on_c, 1, 40, 109
1, 84086, Note_on_c, 5, 69, 64
1, 84088, Note_on_c, 9, 38, 122
1, 84092, Note_on_c, 9, 38, 0
1, 84092, Note_on_c, 1, 28, 0
1, 84092, Note_on_c, 9, 42, 55
1, 84096, Note_on_c, 9, 42, 0
1, 84096, Note_on_c, 9, 69, 37
1, 84100, Note_on_c, 9, 69, 0
1, 84102, Note_on_c, 4, 64, 63
1, 84156, Note_on_c, 4, 64, 0
1, 84162, Note_on_c, 5, 69, 0
1, 84162, Note_on_c, 1, 40, 0
1, 84182, Note_on_c, 4, 59, 68
1, 84184, Note_on_c, 9, 69, 31
1, 84188, Note_on_c, 9, 69, 0
1, 84194, Note_on_c, 5, 69, 69
1, 84196, Note_on_c, 1, 40, 115
1, 84236, Note_on_c, 4, 59, 0
1, 84270, Note_on_c, 5, 69, 0
1, 84276, Note_on_c, 1, 40, 0
1, 84276, Note_on_c, 1, 28, 115
1, 84286, Note_on_c, 9, 69, 38
1, 84290, Note_on_c, 9, 69, 0
1, 84292, Note_on_c, 9, 42, 51
1, 84294, Note_on_c, 4, 59, 99
1, 84294, Note_on_c, 5, 62, 72
1, 84296, Note_on_c, 9, 42, 0
1, 84370, Note_on_c, 5, 62, 0
1, 84456, Note_on_c, 1, 28, 0
1, 84466, Note_on_c, 1, 28, 110
1, 84474, Note_on_c, 4, 59, 0
1, 84474, Note_on_c, 9, 49, 116
1, 84476, Note_on_c, 4, 68, 60
1, 84476, Note_on_c, 9, 36, 121
1, 84478, Note_on_c, 9, 49, 0
1, 84480, Note_on_c, 9, 36, 0
1, 84480, Note_on_c, 4, 64, 66
1, 84482, Note_on_c, 5, 76, 69
1, 84486, Note_on_c, 9, 42, 53
1, 84490, Note_on_c, 9, 42, 0
1, 84530, Note_on_c, 4, 68, 0
1, 84534, Note_on_c, 4, 64, 0
1, 84558, Note_on_c, 5, 76, 0
1, 84578, Note_on_c, 5, 76, 72
1, 84582, Note_on_c, 4, 68, 64
1, 84584, Note_on_c, 4, 64, 67
1, 84636, Note_on_c, 4, 68, 0
1, 84638, Note_on_c, 4, 64, 0
1, 84654, Note_on_c, 5, 76, 0
1, 84666, Note_on_c, 9, 42, 52
1, 84668, Note_on_c, 4, 66, 99
1, 84670, Note_on_c, 9, 42, 0
1, 84670, Note_on_c, 4, 61, 102
1, 84680, Note_on_c, 5, 73, 69
1, 84756, Note_on_c, 5, 73, 0
1, 84772, Note_on_c, 9, 38, 122
1, 84776, Note_on_c, 9, 38, 0
1, 84848, Note_on_c, 4, 66, 0
1, 84850, Note_on_c, 4, 61, 0
1, 84860, Note_on_c, 4, 64, 96
1, 84862, Note_on_c, 4, 59, 96
1, 84862, Note_on_c, 5, 71, 70
1, 84868, Note_on_c, 9, 38, 125
1, 84872, Note_on_c, 9, 38, 0
1, 84938, Note_on_c, 5, 71, 0
1, 85006, Note_on_c, 1, 28, 0
1, 85040, Note_on_c, 4, 64, 0
1, 85042, Note_on_c, 4, 59, 0
1, 85048, Note_on_c, 4, 66, 67
1, 85054, Note_on_c, 9, 42, 58
1, 85056, Note_on_c, 5, 73, 68
1, 85058, Note_on_c, 9, 42, 0
1, 85062, Note_on_c, 4, 61, 65
1, 85102, Note_on_c, 4, 66, 0
1, 85116, Note_on_c, 4, 61, 0
1, 85132, Note_on_c, 5, 73, 0
1, 85150, Note_on_c, 4, 59, 96
1, 85150, Note_on_c, 9, 44, 50
1, 85152, Note_on_c, 4, 64, 96
1, 85152, Note_on_c, 5, 71, 68
1, 85154, Note_on_c, 9, 44, 0
1, 85158, Note_on_c, 1, 40, 116
1, 85158, Note_on_c, 9, 36, 110
1, 85162, Note_on_c, 9, 36, 0
1, 85238, Note_on_c, 1, 40, 0
1, 85252, Note_on_c, 9, 43, 118
1, 85256, Note_on_c, 9, 43, 0
1, 85342, Note_on_c, 1, 40, 109
1, 85422, Note_on_c, 1, 40, 0
1, 85430, Note_on_c, 1, 28, 109
1, 85434, Note_on_c, 9, 38, 116
1, 85438, Note_on_c, 9, 38, 0
1, 85442, Note_on_c, 9, 36, 125
1, 85446, Note_on_c, 9, 36, 0
1, 85536, Note_on_c, 5, 71, 0
1, 85610, Note_on_c, 1, 28, 0
1, 85632, Note_on_c, 14, 71, 112
1, 85634, Note_on_c, 9, 38, 123
1, 85638, Note_on_c, 9, 38, 0
1, 85638, Note_on_c, 1, 40, 109
1, 85718, Note_on_c, 1, 40, 0
1, 85732, Note_on_c, 9, 38, 118
1, 85736, Note_on_c, 9, 38, 0
1, 85740, Note_on_c, 1, 40, 114
1, 85812, Note_on_c, 14, 71, 0
1, 85816, Note_on_c, 1, 28, 116
1, 85820, Note_on_c, 1, 40, 0
1, 85824, Note_on_c, 14, 73, 111
1, 85988, Note_on_c, 6, 64, 0
1, 85990, Note_on_c, 4, 59, 0
1, 85992, Note_on_c, 4, 64, 0
1, 85996, Note_on_c, 1, 28, 0
1, 85996, Note_on_c, 6, 54, 0
1, 86002, Note_on_c, 6, 62, 0
1, 86002, Note_on_c, 6, 54, 66
1, 86004, Note_on_c, 14, 73, 0
1, 86008, Note_on_c, 9, 36, 123
1, 86010, Note_on_c, 6, 57, 0
1, 86010, Note_on_c, 9, 69, 34
1, 86012, Note_on_c, 9, 36, 0
1, 86014, Note_on_c, 9, 69, 0
1, 86016, Note_on_c, 9, 42, 55
1, 86016, Control_c, 14, 1, 28
1, 86016, Pitch_bend_c, 14, 7296
1, 86018, Note_on_c, 6, 62, 73
1, 86018, Note_on_c, 14, 74, 118
1, 86020, Note_on_c, 9, 42, 0
1, 86020, Note_on_c, 9, 37, 91
1, 86022, Note_on_c, 5, 64, 70
1, 86024, Note_on_c, 9, 37, 0
1, 86024, Pitch_bend_c, 14, 7360
1, 86026, Note_on_c, 6, 57, 72
1, 86028, Note_on_c, 1, 28, 111
1, 86028, Pitch_bend_c, 14, 7424
1, 86032, Pitch_bend_c, 14, 7488
1, 86036, Pitch_bend_c, 14, 7552
1, 86040, Pitch_bend_c, 14, 7616
1, 86044, Pitch_bend_c, 14, 7680
1, 86048, Pitch_bend_c, 14, 7744
1, 86052, Pitch_bend_c, 14, 7808
1, 86056, Pitch_bend_c, 14, 7872
1, 86060, Pitch_bend_c, 14, 7936
1, 86064, Pitch_bend_c, 14, 8000
1, 86068, Pitch_bend_c, 14, 8064
1, 86072, Pitch_bend_c, 14, 8128
1, 86076, Pitch_bend_c, 14, 8192
1, 86098, Note_on_c, 5, 64, 0
1, 86102, Note_on_c, 5, 64, 64
1, 86104, Note_on_c, 9, 69, 30
1, 86108, Note_on_c, 9, 69, 0
1, 86115, Control_c, 14, 1, 70
1, 86178, Note_on_c, 5, 64, 0
1, 86204, Note_on_c, 9, 42, 55
1, 86206, Note_on_c, 9, 69, 35
1, 86208, Note_on_c, 9, 42, 0
1, 86210, Note_on_c, 9, 69, 0
1, 86212, Note_on_c, 5, 64, 66
1, 86232, Control_c, 14, 1, 55
1, 86288, Note_on_c, 5, 64, 0
1, 86319, Control_c, 14, 1, 37
1, 86378, Note_on_c, 14, 74, 0
1, 86394, Note_on_c, 9, 42, 56
1, 86398, Note_on_c, 9, 42, 0
1, 86404, Note_on_c, 14, 74, 114
1, 86406, Note_on_c, 9, 37, 93
1, 86410, Note_on_c, 9, 37, 0
1, 86487, Control_c, 14, 1, 15
1, 86568, Note_on_c, 1, 28, 0
1, 86584, Note_on_c, 14, 74, 0
1, 86590, Note_on_c, 5, 64, 64
1, 86590, Note_on_c, 9, 42, 54
1, 86594, Note_on_c, 9, 42, 0
1, 86596, Note_on_c, 14, 73, 114
1, 86666, Note_on_c, 5, 64, 0
1, 86678, Note_on_c, 1, 40, 118
1, 86684, Note_on_c, 5, 64, 71
1, 86688, Note_on_c, 9, 36, 105
1, 86692, Note_on_c, 9, 36, 0
1, 86694, Note_on_c, 9, 69, 37
1, 86694, Note_on_c, 14, 74, 109
1, 86698, Note_on_c, 9, 69, 0
1, 86700, Note_on_c, 14, 73, 0
1, 86758, Note_on_c, 1, 40, 0
1, 86760, Note_on_c, 5, 64, 0
1, 86784, Note_on_c, 9, 42, 59
1, 86788, Note_on_c, 9, 42, 0
1, 86788, Note_on_c, 9, 37, 96
1, 86792, Note_on_c, 9, 37, 0
1, 86870, Note_on_c, 1, 40, 118
1, 86874, Note_on_c, 14, 74, 0
1, 86878, Note_on_c, 9, 36, 106
1, 86882, Note_on_c, 9, 36, 0
1, 86884, Note_on_c, 5, 64, 69
1, 86884, Note_on_c, 9, 69, 29
1, 86888, Note_on_c, 9, 69, 0
1, 86950, Note_on_c, 1, 40, 0
1, 86960, Note_on_c, 5, 64, 0
1, 86966, Note_on_c, 1, 28, 115
1, 86972, Note_on_c, 9, 36, 117
1, 86976, Note_on_c, 9, 36, 0
1, 86978, Note_on_c, 5, 52, 72
1, 86978, Note_on_c, 9, 42, 52
1, 86980, Note_on_c, 14, 71, 111
1, 86982, Note_on_c, 9, 42, 0
1, 87054, Note_on_c, 5, 52, 0
1, 87146, Note_on_c, 1, 28, 0
1, 87154, Note_on_c, 1, 40, 117
1, 87160, Note_on_c, 14, 71, 0
1, 87162, Note_on_c, 9, 69, 37
1, 87166, Note_on_c, 9, 69, 0
1, 87170, Note_on_c, 9, 38, 119
1, 87170, Note_on_c, 9, 42, 52
1, 87170, Note_on_c, 14, 71, 114
1, 87172, Note_on_c, 5, 64, 66
1, 87174, Note_on_c, 9, 42, 0
1, 87174, Note_on_c, 9, 38, 0
1, 87234, Note_on_c, 1, 40, 0
1, 87248, Note_on_c, 5, 64, 0
1, 87262, Note_on_c, 9, 69, 30
1, 87264, Note_on_c, 5, 64, 71
1, 87266, Note_on_c, 9, 69, 0
1, 87274, Note_on_c, 1, 40, 110
1, 87340, Note_on_c, 5, 64, 0
1, 87350, Note_on_c, 14, 71, 0
1, 87352, Note_on_c, 9, 42, 54
1, 87354, Note_on_c, 1, 40, 0
1, 87354, Note_on_c, 5, 52, 72
1, 87356, Note_on_c, 9, 42, 0
1, 87356, Note_on_c, 9, 69, 30
1, 87360, Note_on_c, 9, 69, 0
1, 87360, Note_on_c, 14, 73, 113
1, 87364, Note_on_c, 1, 28, 113
1, 87430, Note_on_c, 5, 52, 0
1, 87540, Note_on_c, 14, 73, 0
1, 87542, Note_on_c, 1, 28, 0
1, 87542, Note_on_c, 1, 28, 115
1, 87546, Note_on_c, 9, 42, 53
1, 87548, Note_on_c, 14, 74, 109
1, 87550, Note_on_c, 9, 42, 0
1, 87550, Note_on_c, 9, 37, 93
1, 87552, Note_on_c, 5, 64, 72
1, 87552, Control_c, 14, 1, 28
1, 87554, Note_on_c, 9, 37, 0
1, 87556, Note_on_c, 9, 36, 122
1, 87556, Note_on_c, 9, 69, 29
1, 87560, Note_on_c, 9, 69, 0
1, 87560, Note_on_c, 9, 36, 0
1, 87628, Note_on_c, 5, 64, 0
1, 87650, Note_on_c, 9, 69, 32
1, 87651, Control_c, 14, 1, 70
1, 87652, Note_on_c, 5, 64, 67
1, 87654, Note_on_c, 9, 69, 0
1, 87728, Note_on_c, 5, 64, 0
1, 87736, Note_on_c, 9, 69, 31
1, 87740, Note_on_c, 9, 69, 0
1, 87742, Note_on_c, 5, 64, 64
1, 87744, Note_on_c, 9, 42, 57
1, 87748, Note_on_c, 9, 42, 0
1, 87768, Control_c, 14, 1, 55
1, 87818, Note_on_c, 5, 64, 0
1, 87855, Control_c, 14, 1, 37
1, 87908, Note_on_c, 14, 74, 0
1, 87938, Note_on_c, 9, 42, 59
1, 87940, Note_on_c, 9, 37, 90
1, 87942, Note_on_c, 9, 42, 0
1, 87942, Note_on_c, 14, 74, 117
1, 87944, Note_on_c, 9, 37, 0
1, 88023, Control_c, 14, 1, 15
1, 88082, Note_on_c, 1, 28, 0
1, 88122, Note_on_c, 14, 74, 0
1, 88126, Note_on_c, 14, 73, 114
1, 88130, Note_on_c, 9, 42, 50
1, 88134, Note_on_c, 9, 42, 0
1, 88136, Note_on_c, 5, 64, 68
1, 88212, Note_on_c, 5, 64, 0
1, 88216, Note_on_c, 9, 36, 104
1, 88218, Note_on_c, 5, 64, 73
1, 88220, Note_on_c, 9, 36, 0
1, 88220, Note_on_c, 14, 74, 110
1, 88224, Note_on_c, 1, 40, 109
1, 88224, Note_on_c, 9, 69, 37
1, 88228, Note_on_c, 9, 69, 0
1, 88230, Note_on_c, 14, 73, 0
1, 88294, Note_on_c, 5, 64, 0
1, 88304, Note_on_c, 1, 40, 0
1, 88322, Note_on_c, 9, 37, 92
1, 88326, Note_on_c, 9, 37, 0
1, 88326, Note_on_c, 9, 42, 56
1, 88330, Note_on_c, 9, 42, 0
1, 88408, Note_on_c, 9, 36, 105
1, 88408, Note_on_c, 9, 69, 31
1, 88412, Note_on_c, 9, 69, 0
1, 88412, Note_on_c, 9, 36, 0
1, 88416, Note_on_c, 5, 64, 67
1, 88422, Note_on_c, 1, 40, 118
1, 88480, Note_on_c, 14, 74, 0
1, 88492, Note_on_c, 5, 64, 0
1, 88502, Note_on_c, 1, 40, 0
1, 88502, Note_on_c, 1, 28, 110
1, 88504, Note_on_c, 5, 52, 73
1, 88506, Note_on_c, 9, 42, 52
1, 88508, Note_on_c, 9, 36, 120
1, 88510, Note_on_c, 9, 42, 0
1, 88510, Note_on_c, 14, 73, 117
1, 88512, Note_on_c, 9, 36, 0
1, 88580, Note_on_c, 5, 52, 0
1, 88602, Note_on_c, 14, 71, 115
1, 88614, Note_on_c, 14, 73, 0
1, 88682, Note_on_c, 1, 28, 0
1, 88700, Note_on_c, 5, 64, 67
1, 88700, Note_on_c, 9, 69, 30
1, 88704, Note_on_c, 9, 69, 0
1, 88704, Note_on_c, 9, 42, 57
1, 88708, Note_on_c, 9, 42, 0
1, 88708, Note_on_c, 9, 38, 118
1, 88712, Note_on_c, 9, 38, 0
1, 88712, Note_on_c, 1, 40, 109
1, 88776, Note_on_c, 5, 64, 0
1, 88792, Note_on_c, 1, 40, 0
1, 88798, Note_on_c, 5, 64, 66
1, 88802, Note_on_c, 1, 40, 118
1, 88802, Note_on_c, 9, 69, 30
1, 88806, Note_on_c, 9, 69, 0
1, 88862, Note_on_c, 14, 71, 0
1, 88874, Note_on_c, 5, 64, 0
1, 88882, Note_on_c, 1, 40, 0
1, 88886, Note_on_c, 5, 52, 72
1, 88888, Note_on_c, 1, 28, 113
1, 88892, Note_on_c, 9, 42, 51
1, 88894, Note_on_c, 9, 69, 34
1, 88896, Note_on_c, 9, 42, 0
1, 88898, Note_on_c, 9, 69, 0
1, 88902, Note_on_c, 14, 71, 109
1, 88962, Note_on_c, 5, 52, 0
1, 89062, Note_on_c, 6, 54, 0
1, 89068, Note_on_c, 1, 28, 0
1, 89078, Note_on_c, 6, 62, 0
1, 89080, Note_on_c, 14, 71, 0
1, 89080, Note_on_c, 6, 56, 73
1, 89080, Note_on_c, 14, 71, 110
1, 89084, Note_on_c, 9, 36, 116
1, 89086, Note_on_c, 6, 57, 0
1, 89086, Note_on_c, 6, 59, 72
1, 89086, Note_on_c, 9, 42, 51
1, 89086, Note_on_c, 9, 69, 35
1, 89088, Note_on_c, 9, 36, 0
1, 89088, Note_on_c, 9, 37, 96
1, 89090, Note_on_c, 9, 42, 0
1, 89090, Note_on_c, 9, 69, 0
1, 89092, Note_on_c, 9, 37, 0
1, 89092, Note_on_c, 1, 28, 118
1, 89092, Note_on_c, 5, 64, 64
1, 89096, Note_on_c, 6, 64, 70
1, 89168, Note_on_c, 5, 64, 0
1, 89174, Note_on_c, 5, 64, 71
1, 89178, Note_on_c, 9, 69, 36
1, 89182, Note_on_c, 9, 69, 0
1, 89250, Note_on_c, 5, 64, 0
1, 89260, Note_on_c, 14, 71, 0
1, 89280, Note_on_c, 14, 66, 113
1, 89284, Note_on_c, 5, 64, 68
1, 89284, Note_on_c, 9, 42, 55
1, 89286, Note_on_c, 9, 69, 32
1, 89288, Note_on_c, 9, 42, 0
1, 89290, Note_on_c, 9, 69, 0
1, 89360, Note_on_c, 5, 64, 0
1, 89370, Note_on_c, 14, 68, 111
1, 89376, Control_c, 14, 1, 28
1, 89384, Note_on_c, 14, 66, 0
1, 89464, Note_on_c, 9, 42, 55
1, 89468, Note_on_c, 9, 42, 0
1, 89475, Control_c, 14, 1, 70
1, 89476, Note_on_c, 9, 37, 88
1, 89480, Note_on_c, 9, 37, 0
1, 89592, Control_c, 14, 1, 55
1, 89632, Note_on_c, 1, 28, 0
1, 89668, Note_on_c, 5, 64, 67
1, 89668, Note_on_c, 9, 42, 56
1, 89672, Note_on_c, 9, 42, 0
1, 89679, Control_c, 14, 1, 37
1, 89744, Note_on_c, 5, 64, 0
1, 89758, Note_on_c, 1, 40, 115
1, 89758, Note_on_c, 9, 36, 103
1, 89758, Note_on_c, 9, 69, 35
1, 89760, Note_on_c, 5, 64, 66
1, 89762, Note_on_c, 9, 69, 0
1, 89762, Note_on_c, 9, 36, 0
1, 89830, Note_on_c, 14, 68, 0
1, 89836, Note_on_c, 5, 64, 0
1, 89838, Note_on_c, 1, 40, 0
1, 89847, Control_c, 14, 1, 15
1, 89848, Note_on_c, 9, 42, 58
1, 89850, Note_on_c, 9, 37, 94
1, 89852, Note_on_c, 9, 42, 0
1, 89854, Note_on_c, 9, 37, 0
1, 89946, Note_on_c, 9, 36, 109
1, 89950, Note_on_c, 9, 36, 0
1, 89954, Note_on_c, 9, 69, 35
1, 89958, Note_on_c, 9, 69, 0
1, 89960, Note_on_c, 5, 64, 68
1, 89962, Note_on_c, 1, 40, 113
1, 90036, Note_on_c, 5, 64, 0
1, 90040, Note_on_c, 5, 52, 70
1, 90042, Note_on_c, 1, 40, 0
1, 90044, Note_on_c, 9, 36, 120
1, 90046, Note_on_c, 1, 28, 109
1, 90046, Note_on_c, 9, 42, 52
1, 90048, Note_on_c, 9, 36, 0
1, 90050, Note_on_c, 9, 42, 0
1, 90116, Note_on_c, 5, 52, 0
1, 90226, Note_on_c, 1, 28, 0
1, 90230, Note_on_c, 1, 40, 114
1, 90230, Note_on_c, 5, 64, 64
1, 90230, Note_on_c, 12, 88, 123
1, 90232, Note_on_c, 9, 42, 53
1, 90236, Note_on_c, 9, 42, 0
1, 90236, Note_on_c, 7, 80, 80
1, 90236, Note_on_c, 9, 38, 124
1, 90236, Note_on_c, 9, 69, 30
1, 90240, Note_on_c, 9, 69, 0
1, 90240, Note_on_c, 9, 38, 0
1, 90242, Note_on_c, 7, 88, 75
1, 90248, Note_on_c, 7, 71, 76
1, 90250, Note_on_c, 12, 76, 114
1, 90294, Note_on_c, 12, 88, 0
1, 90306, Note_on_c, 5, 64, 0
1, 90310, Note_on_c, 1, 40, 0
1, 90314, Note_on_c, 12, 76, 0
1, 90328, Note_on_c, 1, 40, 117
1, 90328, Note_on_c, 5, 64, 72
1, 90328, Note_on_c, 9, 69, 33
1, 90332, Note_on_c, 9, 69, 0
1, 90336, Note_on_c, 12, 76, 120
1, 90340, Note_on_c, 12, 88, 117
1, 90400, Note_on_c, 12, 76, 0
1, 90404, Note_on_c, 12, 88, 0
1, 90404, Note_on_c, 7, 80, 0
1, 90404, Note_on_c, 5, 64, 0
1, 90408, Note_on_c, 1, 40, 0
1, 90410, Note_on_c, 7, 88, 0
1, 90418, Note_on_c, 1, 28, 112
1, 90424, Note_on_c, 7, 71, 0
1, 90424, Note_on_c, 9, 69, 33
1, 90426, Note_on_c, 12, 76, 123
1, 90428, Note_on_c, 9, 69, 0
1, 90432, Note_on_c, 9, 42, 51
1, 90434, Note_on_c, 12, 88, 120
1, 90436, Note_on_c, 9, 42, 0
1, 90438, Note_on_c, 5, 52, 73
1, 90490, Note_on_c, 12, 76, 0
1, 90498, Note_on_c, 12, 88, 0
1, 90514, Note_on_c, 5, 52, 0
1, 90598, Note_on_c, 1, 28, 0
1, 90612, Note_on_c, 1, 28, 117
1, 90618, Note_on_c, 9, 42, 56
1, 90620, Note_on_c, 9, 36, 118
1, 90620, Note_on_c, 9, 69, 31
1, 90622, Note_on_c, 9, 42, 0
1, 90624, Note_on_c, 9, 36, 0
1, 90624, Note_on_c, 9, 69, 0
1, 90626, Note_on_c, 5, 64, 72
1, 90628, Note_on_c, 9, 37, 95
1, 90632, Note_on_c, 9, 37, 0
1, 90702, Note_on_c, 5, 64, 0
1, 90726, Note_on_c, 5, 64, 65
1, 90726, Note_on_c, 9, 69, 38
1, 90730, Note_on_c, 9, 69, 0
1, 90802, Note_on_c, 5, 64, 0
1, 90816, Note_on_c, 9, 42, 52
1, 90820, Note_on_c, 9, 42, 0
1, 90820, Note_on_c, 5, 64, 73
1, 90820, Note_on_c, 9, 69, 31
1, 90824, Note_on_c, 9, 69, 0
1, 90896, Note_on_c, 5, 64, 0
1, 90998, Note_on_c, 4, 73, 127
1, 91014, Note_on_c, 9, 37, 95
1, 91014, Note_on_c, 9, 42, 55
1, 91018, Note_on_c, 9, 42, 0
1, 91018, Note_on_c, 9, 37, 0
1, 91152, Note_on_c, 1, 28, 0
1, 91196, Note_on_c, 9, 42, 56
1, 91200, Note_on_c, 9, 42, 0
1, 91208, Note_on_c, 5, 64, 73
1, 91282, Note_on_c, 1, 40, 110
1, 91284, Note_on_c, 5, 64, 0
1, 91292, Note_on_c, 5, 64, 66
1, 91292, Note_on_c, 9, 36, 103
1, 91292, Note_on_c, 9, 69, 34
1, 91296, Note_on_c, 9, 69, 0
1, 91296, Note_on_c, 9, 36, 0
1, 91362, Note_on_c, 1, 40, 0
1, 91368, Note_on_c, 5, 64, 0
1, 91386, Note_on_c, 9, 37, 94
1, 91390, Note_on_c, 9, 37, 0
1, 91392, Pitch_bend_c, 4, 6834
1, 91398, Note_on_c, 9, 42, 58
1, 91402, Note_on_c, 9, 42, 0
1, 91476, Note_on_c, 1, 40, 111
1, 91488, Note_on_c, 9, 36, 108
1, 91490, Note_on_c, 5, 64, 70
1, 91490, Note_on_c, 9, 69, 34
1, 91492, Note_on_c, 9, 36, 0
1, 91494, Note_on_c, 9, 69, 0
1, 91556, Note_on_c, 1, 40, 0
1, 91566, Note_on_c, 5, 64, 0
1, 91574, Note_on_c, 1, 28, 115
1, 91576, Note_on_c, 9, 42, 56
1, 91580, Note_on_c, 9, 42, 0
1, 91582, Note_on_c, 9, 36, 117
1, 91586, Note_on_c, 9, 36, 0
1, 91586, Note_on_c, 5, 52, 73
1, 91662, Note_on_c, 5, 52, 0
1, 91754, Note_on_c, 1, 28, 0
1, 91766, Note_on_c, 5, 64, 72
1, 91772, Note_on_c, 9, 69, 36
1, 91774, Note_on_c, 15, 71, 104
1, 91776, Note_on_c, 9, 69, 0
1, 91776, Note_on_c, 9, 42, 58
1, 91780, Note_on_c, 9, 42, 0
1, 91782, Note_on_c, 9, 38, 118
1, 91786, Note_on_c, 9, 38, 0
1, 91786, Note_on_c, 1, 40, 117
1, 91842, Note_on_c, 5, 64, 0
1, 91866, Note_on_c, 1, 40, 0
1, 91868, Note_on_c, 1, 40, 114
1, 91872, Note_on_c, 5, 64, 68
1, 91872, Note_on_c, 9, 69, 33
1, 91876, Note_on_c, 9, 69, 0
1, 91948, Note_on_c, 5, 64, 0
1, 91948, Note_on_c, 1, 40, 0
1, 91954, Note_on_c, 15, 71, 0
1, 91962, Note_on_c, 9, 69, 32
1, 91966, Note_on_c, 9, 69, 0
1, 91966, Note_on_c, 9, 42, 51
1, 91968, Note_on_c, 15, 73, 103
1, 91970, Note_on_c, 9, 42, 0
1, 91970, Note_on_c, 1, 28, 114
1, 91974, Note_on_c, 5, 52, 70
1, 92050, Note_on_c, 5, 52, 0
1, 92102, Note_on_c, 4, 73, 0
1, 92140, Note_on_c, 6, 56, 0
1, 92146, Note_on_c, 6, 59, 0
1, 92148, Note_on_c, 15, 73, 0
1, 92150, Note_on_c, 1, 28, 0
1, 92152, Note_on_c, 1, 28, 116
1, 92152, Note_on_c, 9, 37, 93
1, 92152, Note_on_c, 9, 69, 34
1, 92154, Note_on_c, 5, 64, 66
1, 92156, Note_on_c, 9, 69, 0
1, 92156, Note_on_c, 9, 37, 0
1, 92156, Note_on_c, 6, 64, 0
1, 92158, Note_on_c, 6, 57, 67
1, 92158, Note_on_c, 6, 66, 66
1, 92160, Note_on_c, 9, 42, 51
1, 92162, Note_on_c, 9, 36, 124
1, 92164, Note_on_c, 9, 42, 0
1, 92166, Note_on_c, 9, 36, 0
1, 92168, Pitch_bend_c, 4, 8064
1, 92168, Note_on_c, 6, 62, 66
1, 92230, Note_on_c, 5, 64, 0
1, 92248, Note_on_c, 9, 69, 34
1, 92252, Note_on_c, 9, 69, 0
1, 92262, Note_on_c, 5, 64, 70
1, 92338, Note_on_c, 5, 64, 0
1, 92348, Note_on_c, 15, 74, 109
1, 92352, Note_on_c, 9, 42, 58
1, 92352, Pitch_bend_c, 15, 7296
1, 92354, Note_on_c, 9, 69, 35
1, 92356, Note_on_c, 9, 42, 0
1, 92356, Note_on_c, 5, 64, 73
1, 92358, Note_on_c, 9, 69, 0
1, 92360, Pitch_bend_c, 15, 7360
1, 92364, Pitch_bend_c, 15, 7424
1, 92368, Pitch_bend_c, 15, 7488
1, 92372, Pitch_bend_c, 15, 7552
1, 92376, Pitch_bend_c, 15, 7616
1, 92380, Pitch_bend_c, 15, 7680
1, 92384, Pitch_bend_c, 15, 7744
1, 92388, Pitch_bend_c, 15, 7808
1, 92392, Pitch_bend_c, 15, 7872
1, 92396, Pitch_bend_c, 15, 7936
1, 92400, Pitch_bend_c, 15, 8000
1, 92404, Pitch_bend_c, 15, 8064
1, 92408, Pitch_bend_c, 15, 8128
1, 92412, Pitch_bend_c, 15, 8192
1, 92432, Note_on_c, 5, 64, 0
1, 92528, Note_on_c, 15, 74, 0
1, 92542, Note_on_c, 15, 74, 107
1, 92544, Note_on_c, 9, 37, 96
1, 92548, Note_on_c, 9, 37, 0
1, 92550, Note_on_c, 9, 42, 57
1, 92554, Note_on_c, 9, 42, 0
1, 92692, Note_on_c, 1, 28, 0
1, 92722, Note_on_c, 15, 74, 0
1, 92726, Note_on_c, 5, 64, 72
1, 92732, Note_on_c, 9, 42, 56
1, 92736, Note_on_c, 9, 42, 0
1, 92736, Note_on_c, 15, 73, 103
1, 92802, Note_on_c, 5, 64, 0
1, 92822, Note_on_c, 1, 40, 116
1, 92822, Note_on_c, 5, 64, 64
1, 92826, Note_on_c, 9, 36, 104
1, 92826, Note_on_c, 9, 69, 33
1, 92828, Note_on_c, 15, 74, 105
1, 92830, Note_on_c, 9, 69, 0
1, 92830, Note_on_c, 9, 36, 0
1, 92832, Pitch_bend_c, 15, 7296
1, 92840, Note_on_c, 15, 73, 0
1, 92840, Pitch_bend_c, 15, 7360
1, 92844, Pitch_bend_c, 15, 7424
1, 92848, Pitch_bend_c, 15, 7488
1, 92852, Pitch_bend_c, 15, 7552
1, 92856, Pitch_bend_c, 15, 7616
1, 92860, Pitch_bend_c, 15, 7680
1, 92864, Pitch_bend_c, 15, 7744
1, 92868, Pitch_bend_c, 15, 7808
1, 92872, Pitch_bend_c, 15, 7872
1, 92876, Pitch_bend_c, 15, 7936
1, 92880, Pitch_bend_c, 15, 8000
1, 92884, Pitch_bend_c, 15, 8064
1, 92888, Pitch_bend_c, 15, 8128
1, 92892, Pitch_bend_c, 15, 8192
1, 92898, Note_on_c, 5, 64, 0
1, 92902, Note_on_c, 1, 40, 0
1, 92920, Note_on_c, 9, 37, 96
1, 92924, Note_on_c, 9, 37, 0
1, 92926, Note_on_c, 9, 42, 55
1, 92930, Note_on_c, 9, 42, 0
1, 93008, Note_on_c, 15, 74, 0
1, 93014, Note_on_c, 1, 40, 115
1, 93018, Note_on_c, 9, 69, 37
1, 93022, Note_on_c, 9, 69, 0
1, 93026, Note_on_c, 5, 64, 69
1, 93030, Note_on_c, 9, 36, 106
1, 93034, Note_on_c, 9, 36, 0
1, 93094, Note_on_c, 1, 40, 0
1, 93102, Note_on_c, 5, 64, 0
1, 93114, Note_on_c, 9, 42, 52
1, 93114, Note_on_c, 15, 71, 111
1, 93116, Note_on_c, 5, 52, 66
1, 93118, Note_on_c, 9, 42, 0
1, 93118, Note_on_c, 1, 28, 110
1, 93118, Note_on_c, 9, 36, 119
1, 93122, Note_on_c, 9, 36, 0
1, 93192, Note_on_c, 5, 52, 0
1, 93294, Note_on_c, 15, 71, 0
1, 93298, Note_on_c, 1, 28, 0
1, 93304, Note_on_c, 9, 42, 55
1, 93304, Note_on_c, 15, 71, 110
1, 93306, Note_on_c, 9, 69, 35
1, 93308, Note_on_c, 9, 42, 0
1, 93310, Note_on_c, 9, 69, 0
1, 93316, Note_on_c, 5, 64, 70
1, 93318, Note_on_c, 9, 38, 120
1, 93320, Note_on_c, 1, 40, 109
1, 93322, Note_on_c, 9, 38, 0
1, 93392, Note_on_c, 5, 64, 0
1, 93400, Note_on_c, 1, 40, 0
1, 93400, Note_on_c, 9, 69, 36
1, 93404, Note_on_c, 9, 69, 0
1, 93406, Note_on_c, 1, 40, 114
1, 93416, Note_on_c, 5, 64, 71
1, 93484, Note_on_c, 15, 71, 0
1, 93486, Note_on_c, 1, 40, 0
1, 93492, Note_on_c, 5, 64, 0
1, 93496, Note_on_c, 1, 28, 112
1, 93502, Note_on_c, 5, 52, 67
1, 93508, Note_on_c, 15, 73, 111
1, 93510, Note_on_c, 9, 42, 56
1, 93510, Note_on_c, 9, 69, 31
1, 93514, Note_on_c, 9, 69, 0
1, 93514, Note_on_c, 9, 42, 0
1, 93578, Note_on_c, 5, 52, 0
1, 93600, Control_c, 15, 1, 28
1, 93600, Pitch_bend_c, 15, 7296
1, 93606, Note_on_c, 15, 74, 103
1, 93608, Pitch_bend_c, 15, 7360
1, 93612, Note_on_c, 15, 73, 0
1, 93612, Pitch_bend_c, 15, 7424
1, 93616, Pitch_bend_c, 15, 7488
1, 93620, Pitch_bend_c, 15, 7552
1, 93624, Pitch_bend_c, 15, 7616
1, 93628, Pitch_bend_c, 15, 7680
1, 93632, Pitch_bend_c, 15, 7744
1, 93636, Pitch_bend_c, 15, 7808
1, 93640, Pitch_bend_c, 15, 7872
1, 93644, Pitch_bend_c, 15, 7936
1, 93648, Pitch_bend_c, 15, 8000
1, 93652, Pitch_bend_c, 15, 8064
1, 93656, Pitch_bend_c, 15, 8128
1, 93660, Pitch_bend_c, 15, 8192
1, 93676, Note_on_c, 1, 28, 0
1, 93680, Note_on_c, 4, 62, 100
1, 93690, Note_on_c, 9, 69, 32
1, 93692, Note_on_c, 5, 64, 72
1, 93692, Note_on_c, 9, 36, 117
1, 93694, Note_on_c, 9, 69, 0
1, 93694, Note_on_c, 9, 42, 54
1, 93696, Note_on_c, 9, 36, 0
1, 93697, Note_on_c, 4, 66, 97
1, 93698, Note_on_c, 9, 42, 0
1, 93699, Control_c, 15, 1, 70
1, 93700, Note_on_c, 9, 37, 95
1, 93704, Note_on_c, 9, 37, 0
1, 93704, Note_on_c, 1, 28, 116
1, 93738, Note_on_c, 4, 69, 96
1, 93768, Note_on_c, 5, 64, 0
1, 93788, Note_on_c, 9, 69, 35
1, 93792, Note_on_c, 9, 69, 0
1, 93794, Note_on_c, 5, 64, 72
1, 93816, Control_c, 15, 1, 55
1, 93870, Note_on_c, 5, 64, 0
1, 93878, Note_on_c, 5, 64, 67
1, 93884, Note_on_c, 9, 42, 58
1, 93888, Note_on_c, 9, 42, 0
1, 93894, Note_on_c, 9, 69, 34
1, 93898, Note_on_c, 9, 69, 0
1, 93903, Control_c, 15, 1, 37
1, 93954, Note_on_c, 5, 64, 0
1, 94066, Note_on_c, 15, 74, 0
1, 94071, Control_c, 15, 1, 15
1, 94082, Note_on_c, 9, 37, 95
1, 94082, Note_on_c, 9, 42, 52
1, 94086, Note_on_c, 9, 42, 0
1, 94086, Note_on_c, 9, 37, 0
1, 94244, Note_on_c, 1, 28, 0
1, 94264, Note_on_c, 15, 74, 108
1, 94266, Note_on_c, 5, 64, 72
1, 94272, Note_on_c, 9, 42, 50
1, 94276, Note_on_c, 9, 42, 0
1, 94342, Note_on_c, 5, 64, 0
1, 94368, Note_on_c, 5, 64, 64
1, 94370, Note_on_c, 9, 36, 105
1, 94370, Note_on_c, 9, 69, 37
1, 94374, Note_on_c, 9, 69, 0
1, 94374, Note_on_c, 9, 36, 0
1, 94380, Note_on_c, 1, 40, 109
1, 94444, Note_on_c, 15, 74, 0
1, 94444, Note_on_c, 5, 64, 0
1, 94460, Note_on_c, 1, 40, 0
1, 94460, Note_on_c, 15, 74, 111
1, 94464, Note_on_c, 9, 37, 96
1, 94464, Note_on_c, 9, 42, 57
1, 94468, Note_on_c, 9, 42, 0
1, 94468, Note_on_c, 9, 37, 0
1, 94550, Note_on_c, 5, 64, 66
1, 94554, Note_on_c, 1, 40, 116
1, 94560, Note_on_c, 9, 69, 31
1, 94564, Note_on_c, 9, 69, 0
1, 94566, Note_on_c, 9, 36, 108
1, 94570, Note_on_c, 9, 36, 0
1, 94626, Note_on_c, 5, 64, 0
1, 94634, Note_on_c, 1, 40, 0
1, 94654, Note_on_c, 9, 36, 117
1, 94656, Note_on_c, 9, 42, 59
1, 94658, Note_on_c, 9, 36, 0
1, 94660, Note_on_c, 9, 42, 0
1, 94664, Note_on_c, 5, 52, 71
1, 94668, Note_on_c, 1, 28, 118
1, 94740, Note_on_c, 5, 52, 0
1, 94820, Note_on_c, 15, 74, 0
1, 94840, Note_on_c, 5, 64, 69
1, 94848, Note_on_c, 1, 28, 0
1, 94848, Note_on_c, 9, 38, 122
1, 94848, Pitch_bend_c, 15, 7296
1, 94848, Note_on_c, 15, 78, 112
1, 94850, Note_on_c, 9, 42, 55
1, 94850, Note_on_c, 9, 69, 36
1, 94852, Note_on_c, 9, 38, 0
1, 94852, Note_on_c, 1, 40, 114
1, 94854, Note_on_c, 9, 69, 0
1, 94854, Note_on_c, 9, 42, 0
1, 94856, Pitch_bend_c, 15, 7360
1, 94860, Pitch_bend_c, 15, 7424
1, 94864, Pitch_bend_c, 15, 7488
1, 94868, Pitch_bend_c, 15, 7552
1, 94872, Pitch_bend_c, 15, 7616
1, 94876, Pitch_bend_c, 15, 7680
1, 94880, Pitch_bend_c, 15, 7744
1, 94884, Pitch_bend_c, 15, 7808
1, 94888, Pitch_bend_c, 15, 7872
1, 94892, Pitch_bend_c, 15, 7936
1, 94896, Pitch_bend_c, 15, 8000
1, 94900, Pitch_bend_c, 15, 8064
1, 94904, Pitch_bend_c, 15, 8128
1, 94908, Pitch_bend_c, 15, 8192
1, 94916, Note_on_c, 5, 64, 0
1, 94932, Note_on_c, 1, 40, 0
1, 94934, Note_on_c, 5, 64, 65
1, 94940, Note_on_c, 1, 40, 110
1, 94940, Note_on_c, 9, 69, 37
1, 94944, Note_on_c, 9, 69, 0
1, 95010, Note_on_c, 5, 64, 0
1, 95020, Note_on_c, 1, 40, 0
1, 95038, Note_on_c, 1, 28, 117
1, 95042, Note_on_c, 9, 42, 57
1, 95046, Note_on_c, 9, 42, 0
1, 95046, Note_on_c, 5, 52, 69
1, 95046, Note_on_c, 9, 69, 33
1, 95050, Note_on_c, 9, 69, 0
1, 95102, Note_on_c, 4, 69, 0
1, 95105, Note_on_c, 4, 66, 0
1, 95108, Note_on_c, 15, 78, 0
1, 95122, Note_on_c, 5, 52, 0
1, 95138, Note_on_c, 15, 76, 108
1, 95140, Note_on_c, 4, 62, 0
1, 95218, Note_on_c, 1, 28, 0
1, 95218, Note_on_c, 6, 57, 0
1, 95218, Note_on_c, 6, 66, 0
1, 95218, Note_on_c, 1, 28, 118
1, 95220, Note_on_c, 6, 59, 68
1, 95220, Note_on_c, 6, 68, 66
1, 95226, Note_on_c, 9, 69, 31
1, 95228, Note_on_c, 6, 62, 0
1, 95230, Note_on_c, 9, 69, 0
1, 95234, Note_on_c, 9, 36, 120
1, 95236, Note_on_c, 9, 42, 50
1, 95238, Note_on_c, 9, 36, 0
1, 95238, Note_on_c, 9, 37, 94
1, 95240, Note_on_c, 9, 42, 0
1, 95240, Note_on_c, 5, 64, 68
1, 95242, Note_on_c, 9, 37, 0
1, 95242, Note_on_c, 6, 64, 65
1, 95316, Note_on_c, 5, 64, 0
1, 95318, Note_on_c, 15, 76, 0
1, 95320, Note_on_c, 15, 73, 111
1, 95326, Note_on_c, 9, 69, 32
1, 95330, Note_on_c, 9, 69, 0
1, 95330, Note_on_c, 5, 64, 67
1, 95406, Note_on_c, 5, 64, 0
1, 95420, Note_on_c, 5, 64, 66
1, 95422, Note_on_c, 9, 69, 30
1, 95424, Note_on_c, 15, 73, 0
1, 95426, Note_on_c, 9, 69, 0
1, 95426, Note_on_c, 9, 42, 56
1, 95430, Note_on_c, 9, 42, 0
1, 95430, Note_on_c, 15, 71, 108
1, 95496, Note_on_c, 5, 64, 0
1, 95616, Note_on_c, 9, 42, 56
1, 95618, Note_on_c, 9, 37, 95
1, 95620, Note_on_c, 9, 42, 0
1, 95622, Note_on_c, 9, 37, 0
1, 95758, Note_on_c, 1, 28, 0
1, 95790, Note_on_c, 15, 71, 0
1, 95800, Note_on_c, 5, 64, 66
1, 95812, Note_on_c, 15, 68, 108
1, 95814, Note_on_c, 9, 42, 53
1, 95818, Note_on_c, 9, 42, 0
1, 95876, Note_on_c, 5, 64, 0
1, 95896, Note_on_c, 9, 69, 32
1, 95898, Note_on_c, 1, 40, 109
1, 95898, Note_on_c, 9, 36, 104
1, 95900, Note_on_c, 9, 69, 0
1, 95902, Note_on_c, 9, 36, 0
1, 95906, Note_on_c, 15, 66, 103
1, 95910, Note_on_c, 5, 64, 65
1, 95916, Note_on_c, 15, 68, 0
1, 95978, Note_on_c, 1, 40, 0
1, 95986, Note_on_c, 5, 64, 0
1, 95990, Note_on_c, 7, 61, 76
1, 95992, Note_on_c, 15, 64, 110
1, 95996, Note_on_c, 9, 42, 50
1, 96000, Note_on_c, 9, 42, 0
1, 96000, Control_c, 15, 1, 28
1, 96006, Note_on_c, 7, 73, 75
1, 96006, Note_on_c, 9, 37, 88
1, 96010, Note_on_c, 9, 37, 0
1, 96010, Note_on_c, 15, 66, 0
1, 96088, Note_on_c, 9, 69, 29
1, 96092, Note_on_c, 9, 69, 0
1, 96096, Note_on_c, 1, 40, 112
1, 96096, Note_on_c, 9, 36, 102
1, 96099, Control_c, 15, 1, 70
1, 96100, Note_on_c, 9, 36, 0
1, 96102, Note_on_c, 5, 64, 73
1, 96176, Note_on_c, 1, 40, 0
1, 96178, Note_on_c, 5, 64, 0
1, 96184, Note_on_c, 9, 36, 119
1, 96188, Note_on_c, 9, 36, 0
1, 96190, Note_on_c, 9, 42, 54
1, 96194, Note_on_c, 9, 42, 0
1, 96200, Note_on_c, 5, 52, 70
1, 96204, Note_on_c, 1, 28, 117
1, 96216, Control_c, 15, 1, 55
1, 96276, Note_on_c, 5, 52, 0
1, 96303, Control_c, 15, 1, 37
1, 96350, Note_on_c, 7, 61, 0
1, 96352, Note_on_c, 15, 64, 0
1, 96366, Note_on_c, 7, 73, 0
1, 96378, Note_on_c, 9, 38, 119
1, 96382, Note_on_c, 9, 38, 0
1, 96384, Note_on_c, 1, 28, 0
1, 96384, Note_on_c, 5, 64, 70
1, 96384, Note_on_c, 7, 71, 78
1, 96384, Note_on_c, 9, 42, 54
1, 96386, Note_on_c, 9, 69, 38
1, 96388, Note_on_c, 9, 42, 0
1, 96390, Note_on_c, 9, 69, 0
1, 96394, Note_on_c, 1, 40, 118
1, 96394, Note_on_c, 7, 59, 76
1, 96460, Note_on_c, 5, 64, 0
1, 96471, Control_c, 15, 1, 15
1, 96472, Note_on_c, 1, 40, 0
1, 96472, Note_on_c, 1, 40, 112
1, 96474, Note_on_c, 5, 64, 65
1, 96484, Note_on_c, 9, 69, 33
1, 96488, Note_on_c, 9, 69, 0
1, 96550, Note_on_c, 5, 64, 0
1, 96552, Note_on_c, 1, 40, 0
1, 96574, Note_on_c, 9, 42, 54
1, 96576, Note_on_c, 5, 52, 66
1, 96576, Note_on_c, 9, 69, 38
1, 96578, Note_on_c, 9, 42, 0
1, 96580, Note_on_c, 9, 69, 0
1, 96586, Note_on_c, 1, 28, 114
1, 96652, Note_on_c, 5, 52, 0
1, 96744, Note_on_c, 7, 71, 0
1, 96754, Note_on_c, 7, 59, 0
1, 96756, Note_on_c, 1, 28, 0
1, 96756, Note_on_c, 1, 28, 110
1, 96760, Note_on_c, 9, 36, 124
1, 96760, Note_on_c, 9, 69, 30
1, 96764, Note_on_c, 9, 69, 0
1, 96764, Note_on_c, 9, 36, 0
1, 96766, Note_on_c, 5, 64, 64
1, 96770, Note_on_c, 9, 42, 56
1, 96772, Note_on_c, 7, 78, 81
1, 96774, Note_on_c, 9, 42, 0
1, 96774, Note_on_c, 9, 37, 94
1, 96776, Note_on_c, 7, 66, 82
1, 96778, Note_on_c, 9, 37, 0
1, 96842, Note_on_c, 5, 64, 0
1, 96854, Note_on_c, 5, 64, 72
1, 96864, Note_on_c, 9, 69, 35
1, 96868, Note_on_c, 9, 69, 0
1, 96930, Note_on_c, 5, 64, 0
1, 96952, Note_on_c, 9, 42, 50
1, 96954, Note_on_c, 9, 69, 32
1, 96956, Note_on_c, 9, 42, 0
1, 96958, Note_on_c, 9, 69, 0
1, 96958, Note_on_c, 5, 64, 68
1, 97034, Note_on_c, 5, 64, 0
1, 97132, Note_on_c, 7, 78, 0
1, 97136, Note_on_c, 7, 66, 0
1, 97150, Note_on_c, 7, 76, 83
1, 97150, Note_on_c, 9, 37, 94
1, 97150, Note_on_c, 9, 42, 50
1, 97154, Note_on_c, 9, 42, 0
1, 97154, Note_on_c, 9, 37, 0
1, 97156, Note_on_c, 7, 64, 80
1, 97296, Note_on_c, 1, 28, 0
1, 97340, Note_on_c, 9, 42, 50
1, 97344, Note_on_c, 9, 42, 0
1, 97348, Note_on_c, 5, 64, 72
1, 97424, Note_on_c, 5, 64, 0
1, 97426, Note_on_c, 1, 40, 115
1, 97434, Note_on_c, 5, 64, 69
1, 97438, Note_on_c, 9, 36, 106
1, 97442, Note_on_c, 9, 36, 0
1, 97442, Note_on_c, 9, 69, 35
1, 97446, Note_on_c, 9, 69, 0
1, 97506, Note_on_c, 1, 40, 0
1, 97510, Note_on_c, 7, 76, 0
1, 97510, Note_on_c, 5, 64, 0
1, 97516, Note_on_c, 7, 64, 0
1, 97522, Note_on_c, 7, 69, 82
1, 97528, Note_on_c, 7, 81, 83
1, 97528, Note_on_c, 9, 37, 92
1, 97532, Note_on_c, 9, 37, 0
1, 97536, Note_on_c, 9, 42, 59
1, 97540, Note_on_c, 9, 42, 0
1, 97542, Note_on_c, 5, 64, 70
1, 97618, Note_on_c, 5, 64, 0
1, 97620, Note_on_c, 1, 40, 117
1, 97624, Note_on_c, 9, 69, 35
1, 97626, Note_on_c, 9, 36, 108
1, 97628, Note_on_c, 9, 69, 0
1, 97630, Note_on_c, 9, 36, 0
1, 97700, Note_on_c, 1, 40, 0
1, 97724, Note_on_c, 9, 42, 54
1, 97726, Note_on_c, 9, 36, 117
1, 97728, Note_on_c, 9, 42, 0
1, 97728, Note_on_c, 5, 71, 71
1, 97730, Note_on_c, 9, 36, 0
1, 97736, Note_on_c, 5, 68, 68
1, 97740, Note_on_c, 1, 28, 109
1, 97804, Note_on_c, 5, 71, 0
1, 97812, Note_on_c, 5, 68, 0
1, 97818, Note_on_c, 5, 69, 68
1, 97822, Note_on_c, 5, 73, 64
1, 97882, Note_on_c, 7, 69, 0
1, 97888, Note_on_c, 7, 81, 0
1, 97906, Note_on_c, 5, 69, 0
1, 97908, Note_on_c, 7, 68, 81
1, 97910, Note_on_c, 5, 73, 0
1, 97910, Note_on_c, 5, 71, 73
1, 97914, Note_on_c, 7, 80, 77
1, 97914, Note_on_c, 9, 38, 124
1, 97916, Note_on_c, 14, 71, 115
1, 97918, Note_on_c, 9, 38, 0
1, 97920, Note_on_c, 1, 28, 0
1, 97922, Note_on_c, 5, 74, 71
1, 97922, Note_on_c, 9, 69, 30
1, 97924, Note_on_c, 1, 40, 113
1, 97924, Note_on_c, 9, 42, 57
1, 97926, Note_on_c, 9, 69, 0
1, 97928, Note_on_c, 9, 42, 0
1, 98004, Note_on_c, 1, 40, 0
1, 98008, Note_on_c, 9, 69, 33
1, 98012, Note_on_c, 9, 69, 0
1, 98024, Note_on_c, 1, 40, 113
1, 98096, Note_on_c, 14, 71, 0
1, 98102, Note_on_c, 5, 71, 0
1, 98104, Note_on_c, 1, 40, 0
1, 98106, Note_on_c, 14, 73, 111
1, 98110, Note_on_c, 9, 69, 37
1, 98114, Note_on_c, 9, 69, 0
1, 98114, Note_on_c, 5, 74, 0
1, 98116, Note_on_c, 1, 28, 110
1, 98116, Note_on_c, 9, 42, 52
1, 98120, Note_on_c, 9, 42, 0
1, 98268, Note_on_c, 7, 68, 0
1, 98274, Note_on_c, 7, 80, 0
1, 98280, Note_on_c, 6, 59, 0
1, 98280, Note_on_c, 6, 68, 0
1, 98286, Note_on_c, 14, 73, 0
1, 98290, Note_on_c, 7, 66, 76
1, 98292, Note_on_c, 7, 78, 77
1, 98296, Note_on_c, 1, 28, 0
1, 98296, Note_on_c, 5, 64, 70
1, 98298, Note_on_c, 9, 42, 50
1, 98298, Note_on_c, 14, 74, 109
1, 98300, Note_on_c, 1, 28, 115
1, 98300, Note_on_c, 9, 69, 35
1, 98302, Note_on_c, 9, 42, 0
1, 98302, Note_on_c, 6, 64, 0
1, 98304, Note_on_c, 9, 69, 0
1, 98304, Pitch_bend_c, 14, 7296
1, 98308, Note_on_c, 7, 69, 82
1, 98308, Note_on_c, 9, 36, 122
1, 98308, Note_on_c, 9, 37, 88
1, 98310, Note_on_c, 6, 57, 69
1, 98310, Note_on_c, 6, 62, 71
1, 98312, Note_on_c, 9, 37, 0
1, 98312, Note_on_c, 9, 36, 0
1, 98312, Pitch_bend_c, 14, 7360
1, 98316, Pitch_bend_c, 14, 7424
1, 98320, Pitch_bend_c, 14, 7488
1, 98324, Note_on_c, 6, 66, 65
1, 98324, Pitch_bend_c, 14, 7552
1, 98328, Pitch_bend_c, 14, 7616
1, 98332, Pitch_bend_c, 14, 7680
1, 98336, Pitch_bend_c, 14, 7744
1, 98340, Pitch_bend_c, 14, 7808
1, 98344, Pitch_bend_c, 14, 7872
1, 98348, Pitch_bend_c, 14, 7936
1, 98352, Pitch_bend_c, 14, 8000
1, 98356, Pitch_bend_c, 14, 8064
1, 98360, Pitch_bend_c, 14, 8128
1, 98364, Pitch_bend_c, 14, 8192
1, 98372, Note_on_c, 5, 64, 0
1, 98402, Note_on_c, 9, 69, 29
1, 98406, Note_on_c, 9, 69, 0
1, 98406, Note_on_c, 5, 64, 72
1, 98478, Note_on_c, 14, 74, 0
1, 98482, Note_on_c, 5, 64, 0
1, 98490, Note_on_c, 5, 64, 71
1, 98494, Note_on_c, 9, 42, 54
1, 98494, Note_on_c, 14, 74, 118
1, 98498, Note_on_c, 9, 42, 0
1, 98500, Note_on_c, 9, 69, 30
1, 98504, Note_on_c, 9, 69, 0
1, 98566, Note_on_c, 5, 64, 0
1, 98590, Note_on_c, 14, 74, 0
1, 98592, Note_on_c, 14, 74, 110
1, 98688, Note_on_c, 9, 37, 91
1, 98690, Note_on_c, 9, 42, 57
1, 98692, Note_on_c, 9, 37, 0
1, 98694, Note_on_c, 9, 42, 0
1, 98784, Pitch_bend_c, 14, 7296
1, 98789, Note_on_c, 14, 74, 0
1, 98790, Note_on_c, 14, 76, 118
1, 98792, Pitch_bend_c, 14, 7360
1, 98796, Pitch_bend_c, 14, 7424
1, 98800, Pitch_bend_c, 14, 7488
1, 98804, Pitch_bend_c, 14, 7552
1, 98808, Pitch_bend_c, 14, 7616
1, 98812, Pitch_bend_c, 14, 7680
1, 98816, Pitch_bend_c, 14, 7744
1, 98820, Pitch_bend_c, 14, 7808
1, 98824, Pitch_bend_c, 14, 7872
1, 98828, Pitch_bend_c, 14, 7936
1, 98832, Pitch_bend_c, 14, 8000
1, 98836, Pitch_bend_c, 14, 8064
1, 98840, Note_on_c, 1, 28, 0
1, 98840, Pitch_bend_c, 14, 8128
1, 98844, Pitch_bend_c, 14, 8192
1, 98876, Note_on_c, 5, 64, 67
1, 98880, Note_on_c, 9, 42, 57
1, 98884, Note_on_c, 9, 42, 0
1, 98952, Note_on_c, 5, 64, 0
1, 98968, Note_on_c, 1, 40, 113
1, 98970, Note_on_c, 14, 76, 0
1, 98974, Note_on_c, 14, 74, 118
1, 98976, Note_on_c, 9, 69, 34
1, 98978, Note_on_c, 5, 64, 73
1, 98978, Note_on_c, 9, 36, 105
1, 98980, Note_on_c, 9, 69, 0
1, 98982, Note_on_c, 9, 36, 0
1, 99048, Note_on_c, 1, 40, 0
1, 99054, Note_on_c, 5, 64, 0
1, 99068, Note_on_c, 9, 37, 88
1, 99068, Note_on_c, 9, 42, 54
1, 99072, Note_on_c, 9, 42, 0
1, 99072, Note_on_c, 9, 37, 0
1, 99154, Note_on_c, 14, 74, 0
1, 99160, Note_on_c, 9, 69, 36
1, 99162, Note_on_c, 1, 40, 111
1, 99164, Note_on_c, 9, 69, 0
1, 99164, Note_on_c, 14, 73, 112
1, 99174, Note_on_c, 9, 36, 101
1, 99176, Note_on_c, 5, 64, 64
1, 99178, Note_on_c, 9, 36, 0
1, 99242, Note_on_c, 1, 40, 0
1, 99252, Note_on_c, 5, 64, 0
1, 99256, Note_on_c, 5, 52, 71
1, 99260, Note_on_c, 9, 36, 122
1, 99262, Note_on_c, 14, 71, 109
1, 99264, Note_on_c, 9, 36, 0
1, 99264, Note_on_c, 9, 42, 51
1, 99268, Note_on_c, 9, 42, 0
1, 99268, Note_on_c, 14, 73, 0
1, 99276, Note_on_c, 1, 28, 116
1, 99332, Note_on_c, 5, 52, 0
1, 99442, Note_on_c, 14, 71, 0
1, 99448, Note_on_c, 1, 40, 109
1, 99448, Note_on_c, 9, 69, 32
1, 99452, Note_on_c, 9, 69, 0
1, 99454, Note_on_c, 14, 71, 117
1, 99456, Note_on_c, 1, 28, 0
1, 99456, Note_on_c, 9, 42, 54
1, 99458, Note_on_c, 9, 38, 123
1, 99460, Note_on_c, 9, 42, 0
1, 99462, Note_on_c, 9, 38, 0
1, 99462, Note_on_c, 5, 64, 66
1, 99528, Note_on_c, 1, 40, 0
1, 99538, Note_on_c, 5, 64, 0
1, 99546, Note_on_c, 9, 69, 36
1, 99550, Note_on_c, 9, 69, 0
1, 99554, Note_on_c, 1, 40, 112
1, 99560, Note_on_c, 5, 64, 65
1, 99634, Note_on_c, 1, 40, 0
1, 99634, Note_on_c, 14, 71, 0
1, 99634, Note_on_c, 1, 28, 116
1, 99636, Note_on_c, 5, 64, 0
1, 99638, Note_on_c, 5, 52, 66
1, 99640, Note_on_c, 9, 42, 57
1, 99640, Note_on_c, 14, 73, 115
1, 99644, Note_on_c, 9, 42, 0
1, 99646, Note_on_c, 9, 69, 37
1, 99650, Note_on_c, 9, 69, 0
1, 99714, Note_on_c, 5, 52, 0
1, 99814, Note_on_c, 1, 28, 0
1, 99820, Note_on_c, 14, 73, 0
1, 99832, Note_on_c, 9, 36, 122
1, 99832, Note_on_c, 9, 37, 90
1, 99832, Note_on_c, 9, 42, 51
1, 99834, Note_on_c, 14, 74, 113
1, 99836, Note_on_c, 9, 42, 0
1, 99836, Note_on_c, 9, 37, 0
1, 99836, Note_on_c, 9, 36, 0
1, 99836, Note_on_c, 1, 28, 116
1, 99836, Note_on_c, 9, 69, 34
1, 99840, Note_on_c, 9, 69, 0
1, 99840, Control_c, 14, 1, 28
1, 99840, Pitch_bend_c, 14, 7296
1, 99844, Note_on_c, 5, 64, 66
1, 99848, Pitch_bend_c, 14, 7360
1, 99852, Pitch_bend_c, 14, 7424
1, 99856, Pitch_bend_c, 14, 7488
1, 99860, Pitch_bend_c, 14, 7552
1, 99864, Pitch_bend_c, 14, 7616
1, 99868, Pitch_bend_c, 14, 7680
1, 99872, Pitch_bend_c, 14, 7744
1, 99876, Pitch_bend_c, 14, 7808
1, 99880, Pitch_bend_c, 14, 7872
1, 99884, Pitch_bend_c, 14, 7936
1, 99888, Pitch_bend_c, 14, 8000
1, 99892, Pitch_bend_c, 14, 8064
1, 99896, Pitch_bend_c, 14, 8128
1, 99900, Pitch_bend_c, 14, 8192
1, 99920, Note_on_c, 5, 64, 0
1, 99936, Note_on_c, 5, 64, 67
1, 99938, Note_on_c, 9, 69, 38
1, 99939, Control_c, 14, 1, 70
1, 99942, Note_on_c, 9, 69, 0
1, 100012, Note_on_c, 5, 64, 0
1, 100024, Note_on_c, 9, 42, 57
1, 100024, Note_on_c, 9, 69, 38
1, 100026, Note_on_c, 5, 64, 66
1, 100028, Note_on_c, 9, 69, 0
1, 100028, Note_on_c, 9, 42, 0
1, 100056, Control_c, 14, 1, 55
1, 100102, Note_on_c, 5, 64, 0
1, 100143, Control_c, 14, 1, 37
1, 100194, Note_on_c, 14, 74, 0
1, 100228, Note_on_c, 9, 37, 91
1, 100230, Note_on_c, 9, 42, 55
1, 100232, Note_on_c, 9, 37, 0
1, 100234, Note_on_c, 9, 42, 0
1, 100311, Control_c, 14, 1, 15
1, 100376, Note_on_c, 1, 28, 0
1, 100414, Note_on_c, 9, 42, 55
1, 100416, Note_on_c, 5, 64, 64
1, 100418, Note_on_c, 9, 42, 0
1, 100492, Note_on_c, 5, 64, 0
1, 100498, Note_on_c, 1, 40, 110
1, 100510, Note_on_c, 9, 69, 30
1, 100512, Note_on_c, 5, 64, 71
1, 100514, Note_on_c, 9, 69, 0
1, 100514, Note_on_c, 9, 36, 105
1, 100518, Note_on_c, 9, 36, 0
1, 100578, Note_on_c, 1, 40, 0
1, 100588, Note_on_c, 5, 64, 0
1, 100604, Note_on_c, 9, 37, 88
1, 100608, Note_on_c, 9, 37, 0
1, 100608, Pitch_bend_c, 14, 7296
1, 100610, Note_on_c, 9, 42, 58
1, 100610, Note_on_c, 14, 78, 111
1, 100614, Note_on_c, 9, 42, 0
1, 100616, Pitch_bend_c, 14, 7360
1, 100620, Pitch_bend_c, 14, 7424
1, 100624, Pitch_bend_c, 14, 7488
1, 100628, Pitch_bend_c, 14, 7552
1, 100632, Pitch_bend_c, 14, 7616
1, 100636, Pitch_bend_c, 14, 7680
1, 100640, Pitch_bend_c, 14, 7744
1, 100644, Pitch_bend_c, 14, 7808
1, 100648, Pitch_bend_c, 14, 7872
1, 100652, Pitch_bend_c, 14, 7936
1, 100656, Pitch_bend_c, 14, 8000
1, 100660, Pitch_bend_c, 14, 8064
1, 100664, Pitch_bend_c, 14, 8128
1, 100668, Pitch_bend_c, 14, 8192
1, 100694, Note_on_c, 5, 64, 66
1, 100700, Note_on_c, 9, 36, 102
1, 100704, Note_on_c, 9, 36, 0
1, 100706, Note_on_c, 9, 69, 30
1, 100710, Note_on_c, 9, 69, 0
1, 100710, Note_on_c, 1, 40, 113
1, 100770, Note_on_c, 5, 64, 0
1, 100790, Note_on_c, 1, 40, 0
1, 100790, Note_on_c, 14, 78, 0
1, 100792, Note_on_c, 1, 28, 115
1, 100794, Note_on_c, 5, 52, 72
1, 100800, Note_on_c, 14, 78, 113
1, 100802, Note_on_c, 9, 36, 116
1, 100802, Note_on_c, 9, 42, 59
1, 100806, Note_on_c, 9, 42, 0
1, 100806, Note_on_c, 9, 36, 0
1, 100870, Note_on_c, 5, 52, 0
1, 100972, Note_on_c, 1, 28, 0
1, 100980, Note_on_c, 14, 78, 0
1, 100980, Note_on_c, 1, 40, 111
1, 100982, Note_on_c, 5, 64, 73
1, 100990, Note_on_c, 9, 38, 124
1, 100990, Note_on_c, 9, 69, 35
1, 100992, Note_on_c, 14, 78, 118
1, 100994, Note_on_c, 9, 69, 0
1, 100994, Note_on_c, 9, 38, 0
1, 100998, Note_on_c, 9, 42, 54
1, 101002, Note_on_c, 9, 42, 0
1, 101058, Note_on_c, 5, 64, 0
1, 101060, Note_on_c, 1, 40, 0
1, 101084, Note_on_c, 5, 64, 68
1, 101086, Note_on_c, 9, 69, 34
1, 101090, Note_on_c, 9, 69, 0
1, 101094, Note_on_c, 1, 40, 111
1, 101160, Note_on_c, 5, 64, 0
1, 101172, Note_on_c, 1, 28, 114
1, 101174, Note_on_c, 1, 40, 0
1, 101182, Note_on_c, 9, 42, 57
1, 101184, Note_on_c, 9, 69, 29
1, 101186, Note_on_c, 9, 42, 0
1, 101186, Note_on_c, 5, 52, 67
1, 101188, Note_on_c, 9, 69, 0
1, 101252, Note_on_c, 14, 78, 0
1, 101262, Note_on_c, 5, 52, 0
1, 101276, Note_on_c, 14, 76, 115
1, 101330, Note_on_c, 7, 66, 0
1, 101332, Note_on_c, 7, 78, 0
1, 101348, Note_on_c, 7, 69, 0
1, 101352, Note_on_c, 1, 28, 0
1, 101370, Note_on_c, 6, 62, 0
1, 101370, Note_on_c, 6, 57, 0
1, 101370, Note_on_c, 1, 28, 109
1, 101372, Note_on_c, 14, 76, 0
1, 101372, Note_on_c, 7, 76, 78
1, 101372, Note_on_c, 14, 76, 113
1, 101374, Note_on_c, 9, 36, 117
1, 101374, Note_on_c, 9, 37, 92
1, 101376, Note_on_c, 9, 42, 54
1, 101378, Note_on_c, 9, 37, 0
1, 101378, Note_on_c, 9, 36, 0
1, 101378, Note_on_c, 9, 69, 33
1, 101380, Note_on_c, 9, 42, 0
1, 101380, Note_on_c, 6, 59, 73
1, 101382, Note_on_c, 9, 69, 0
1, 101384, Note_on_c, 6, 66, 0
1, 101384, Note_on_c, 5, 64, 67
1, 101386, Note_on_c, 6, 56, 67
1, 101388, Note_on_c, 6, 64, 68
1, 101388, Note_on_c, 7, 80, 74
1, 101460, Note_on_c, 5, 64, 0
1, 101468, Note_on_c, 5, 64, 65
1, 101476, Note_on_c, 9, 69, 35
1, 101480, Note_on_c, 9, 69, 0
1, 101544, Note_on_c, 5, 64, 0
1, 101568, Note_on_c, 5, 64, 72
1, 101574, Note_on_c, 9, 42, 59
1, 101574, Note_on_c, 9, 69, 33
1, 101578, Note_on_c, 9, 69, 0
1, 101578, Note_on_c, 9, 42, 0
1, 101644, Note_on_c, 5, 64, 0
1, 101662, Note_on_c, 14, 76, 0
1, 101666, Note_on_c, 14, 78, 109
1, 101752, Note_on_c, 14, 80, 114
1, 101760, Pitch_bend_c, 14, 7296
1, 101762, Note_on_c, 9, 37, 88
1, 101764, Note_on_c, 9, 42, 58
1, 101766, Note_on_c, 9, 37, 0
1, 101768, Note_on_c, 9, 42, 0
1, 101768, Pitch_bend_c, 14, 7360
1, 101770, Note_on_c, 14, 78, 0
1, 101772, Pitch_bend_c, 14, 7424
1, 101776, Pitch_bend_c, 14, 7488
1, 101780, Pitch_bend_c, 14, 7552
1, 101784, Pitch_bend_c, 14, 7616
1, 101788, Pitch_bend_c, 14, 7680
1, 101792, Pitch_bend_c, 14, 7744
1, 101796, Pitch_bend_c, 14, 7808
1, 101800, Pitch_bend_c, 14, 7872
1, 101804, Pitch_bend_c, 14, 7936
1, 101808, Pitch_bend_c, 14, 8000
1, 101812, Pitch_bend_c, 14, 8064
1, 101816, Pitch_bend_c, 14, 8128
1, 101820, Pitch_bend_c, 14, 8192
1, 101910, Note_on_c, 1, 28, 0
1, 101944, Note_on_c, 9, 42, 51
1, 101948, Note_on_c, 9, 42, 0
1, 101948, Note_on_c, 5, 64, 72
1, 101952, Control_c, 14, 1, 28
1, 102024, Note_on_c, 5, 64, 0
1, 102038, Note_on_c, 1, 40, 118
1, 102040, Note_on_c, 9, 69, 36
1, 102044, Note_on_c, 9, 69, 0
1, 102048, Note_on_c, 5, 64, 71
1, 102050, Note_on_c, 9, 36, 108
1, 102051, Control_c, 14, 1, 70
1, 102054, Note_on_c, 9, 36, 0
1, 102118, Note_on_c, 1, 40, 0
1, 102124, Note_on_c, 5, 64, 0
1, 102140, Note_on_c, 9, 42, 55
1, 102142, Note_on_c, 9, 37, 95
1, 102144, Note_on_c, 9, 42, 0
1, 102146, Note_on_c, 9, 37, 0
1, 102168, Control_c, 14, 1, 55
1, 102234, Note_on_c, 9, 36, 103
1, 102238, Note_on_c, 9, 36, 0
1, 102238, Note_on_c, 1, 40, 114
1, 102242, Note_on_c, 9, 69, 38
1, 102246, Note_on_c, 9, 69, 0
1, 102248, Note_on_c, 5, 64, 69
1, 102318, Note_on_c, 1, 40, 0
1, 102324, Note_on_c, 5, 64, 0
1, 102328, Note_on_c, 1, 28, 112
1, 102328, Note_on_c, 9, 42, 50
1, 102332, Note_on_c, 9, 42, 0
1, 102332, Note_on_c, 9, 36, 120
1, 102334, Note_on_c, 5, 52, 64
1, 102336, Note_on_c, 9, 36, 0
1, 102410, Note_on_c, 5, 52, 0
1, 102424, Note_on_c, 15, 76, 105
1, 102432, Pitch_bend_c, 15, 7296
1, 102440, Pitch_bend_c, 15, 7360
1, 102444, Pitch_bend_c, 15, 7424
1, 102448, Pitch_bend_c, 15, 7488
1, 102452, Pitch_bend_c, 15, 7552
1, 102456, Pitch_bend_c, 15, 7616
1, 102460, Pitch_bend_c, 15, 7680
1, 102464, Pitch_bend_c, 15, 7744
1, 102468, Pitch_bend_c, 15, 7808
1, 102472, Pitch_bend_c, 15, 7872
1, 102476, Pitch_bend_c, 15, 7936
1, 102480, Pitch_bend_c, 15, 8000
1, 102484, Pitch_bend_c, 15, 8064
1, 102488, Pitch_bend_c, 15, 8128
1, 102492, Pitch_bend_c, 15, 8192
1, 102508, Note_on_c, 1, 28, 0
1, 102522, Note_on_c, 5, 64, 70
1, 102526, Note_on_c, 9, 38, 123
1, 102530, Note_on_c, 9, 38, 0
1, 102532, Note_on_c, 9, 69, 38
1, 102534, Note_on_c, 9, 42, 59
1, 102536, Note_on_c, 9, 69, 0
1, 102538, Note_on_c, 9, 42, 0
1, 102540, Note_on_c, 1, 40, 116
1, 102598, Note_on_c, 5, 64, 0
1, 102604, Note_on_c, 15, 76, 0
1, 102618, Note_on_c, 1, 40, 0
1, 102618, Note_on_c, 1, 40, 116
1, 102622, Note_on_c, 15, 73, 109
1, 102624, Note_on_c, 9, 69, 35
1, 102628, Note_on_c, 9, 69, 0
1, 102628, Note_on_c, 5, 64, 64
1, 102639, Control_c, 14, 1, 37
1, 102692, Note_on_c, 7, 76, 0
1, 102698, Note_on_c, 1, 40, 0
1, 102704, Note_on_c, 5, 64, 0
1, 102712, Note_on_c, 9, 42, 54
1, 102716, Note_on_c, 9, 42, 0
1, 102716, Note_on_c, 7, 73, 79
1, 102722, Note_on_c, 9, 69, 29
1, 102722, Note_on_c, 15, 71, 104
1, 102724, Note_on_c, 5, 52, 71
1, 102726, Note_on_c, 9, 69, 0
1, 102726, Note_on_c, 15, 73, 0
1, 102726, Note_on_c, 1, 28, 110
1, 102800, Note_on_c, 5, 52, 0
1, 102810, Note_on_c, 15, 76, 104
1, 102816, Control_c, 15, 1, 28
1, 102826, Note_on_c, 15, 71, 0
1, 102896, Note_on_c, 7, 73, 0
1, 102906, Note_on_c, 1, 28, 0
1, 102910, Note_on_c, 9, 42, 50
1, 102912, Note_on_c, 9, 37, 88
1, 102914, Note_on_c, 9, 42, 0
1, 102915, Control_c, 15, 1, 70
1, 102916, Note_on_c, 9, 37, 0
1, 102916, Note_on_c, 9, 36, 122
1, 102916, Note_on_c, 9, 69, 30
1, 102918, Note_on_c, 1, 28, 115
1, 102918, Note_on_c, 5, 64, 67
1, 102920, Note_on_c, 9, 69, 0
1, 102920, Note_on_c, 9, 36, 0
1, 102924, Note_on_c, 7, 71, 76
1, 102994, Note_on_c, 5, 64, 0
1, 103004, Note_on_c, 9, 69, 31
1, 103006, Note_on_c, 5, 64, 68
1, 103008, Note_on_c, 9, 69, 0
1, 103032, Control_c, 15, 1, 55
1, 103082, Note_on_c, 5, 64, 0
1, 103098, Note_on_c, 9, 69, 29
1, 103100, Note_on_c, 9, 42, 59
1, 103102, Note_on_c, 9, 69, 0
1, 103102, Note_on_c, 5, 64, 72
1, 103104, Note_on_c, 9, 42, 0
1, 103119, Control_c, 15, 1, 37
1, 103178, Note_on_c, 5, 64, 0
1, 103270, Note_on_c, 15, 76, 0
1, 103287, Control_c, 15, 1, 15
1, 103288, Note_on_c, 9, 42, 51
1, 103290, Note_on_c, 9, 37, 94
1, 103292, Note_on_c, 9, 42, 0
1, 103294, Note_on_c, 9, 37, 0
1, 103458, Note_on_c, 1, 28, 0
1, 103480, Note_on_c, 9, 42, 57
1, 103484, Note_on_c, 9, 42, 0
1, 103490, Note_on_c, 5, 64, 69
1, 103566, Note_on_c, 5, 64, 0
1, 103570, Note_on_c, 1, 40, 117
1, 103575, Control_c, 14, 1, 15
1, 103582, Note_on_c, 5, 64, 65
1, 103584, Note_on_c, 9, 36, 102
1, 103588, Note_on_c, 9, 36, 0
1, 103588, Note_on_c, 9, 69, 36
1, 103592, Note_on_c, 9, 69, 0
1, 103632, Note_on_c, 14, 80, 0
1, 103650, Note_on_c, 1, 40, 0
1, 103658, Note_on_c, 5, 64, 0
1, 103674, Note_on_c, 15, 80, 107
1, 103680, Note_on_c, 9, 37, 96
1, 103680, Note_on_c, 9, 42, 54
1, 103680, Pitch_bend_c, 15, 7296
1, 103684, Note_on_c, 9, 42, 0
1, 103684, Note_on_c, 9, 37, 0
1, 103688, Pitch_bend_c, 15, 7360
1, 103692, Pitch_bend_c, 15, 7424
1, 103696, Pitch_bend_c, 15, 7488
1, 103700, Pitch_bend_c, 15, 7552
1, 103704, Pitch_bend_c, 15, 7616
1, 103708, Pitch_bend_c, 15, 7680
1, 103712, Pitch_bend_c, 15, 7744
1, 103716, Pitch_bend_c, 15, 7808
1, 103720, Pitch_bend_c, 15, 7872
1, 103724, Pitch_bend_c, 15, 7936
1, 103728, Pitch_bend_c, 15, 8000
1, 103732, Pitch_bend_c, 15, 8064
1, 103736, Pitch_bend_c, 15, 8128
1, 103740, Pitch_bend_c, 15, 8192
1, 103768, Note_on_c, 9, 36, 109
1, 103772, Note_on_c, 9, 36, 0
1, 103780, Note_on_c, 5, 64, 72
1, 103782, Note_on_c, 1, 40, 117
1, 103782, Note_on_c, 9, 69, 34
1, 103786, Note_on_c, 9, 69, 0
1, 103854, Note_on_c, 15, 80, 0
1, 103856, Note_on_c, 5, 64, 0
1, 103862, Note_on_c, 1, 40, 0
1, 103866, Note_on_c, 1, 28, 115
1, 103866, Note_on_c, 9, 42, 54
1, 103868, Note_on_c, 9, 36, 117
1, 103870, Note_on_c, 9, 42, 0
1, 103870, Note_on_c, 15, 78, 109
1, 103872, Note_on_c, 9, 36, 0
1, 103876, Note_on_c, 5, 52, 64
1, 103952, Note_on_c, 5, 52, 0
1, 103962, Note_on_c, 15, 76, 105
1, 103974, Note_on_c, 15, 78, 0
1, 104046, Note_on_c, 1, 28, 0
1, 104058, Note_on_c, 1, 40, 117
1, 104058, Note_on_c, 9, 38, 121
1, 104060, Note_on_c, 5, 64, 65
1, 104062, Note_on_c, 9, 38, 0
1, 104062, Note_on_c, 9, 69, 33
1, 104066, Note_on_c, 9, 69, 0
1, 104070, Note_on_c, 9, 42, 51
1, 104074, Note_on_c, 9, 42, 0
1, 104136, Note_on_c, 5, 64, 0
1, 104138, Note_on_c, 1, 40, 0
1, 104152, Note_on_c, 5, 64, 69
1, 104158, Note_on_c, 1, 40, 111
1, 104158, Note_on_c, 9, 38, 118
1, 104160, Note_on_c, 9, 69, 36
1, 104162, Note_on_c, 9, 38, 0
1, 104164, Note_on_c, 9, 69, 0
1, 104222, Note_on_c, 15, 76, 0
1, 104228, Note_on_c, 5, 64, 0
1, 104238, Note_on_c, 1, 40, 0
1, 104242, Note_on_c, 1, 28, 116
1, 104252, Note_on_c, 9, 69, 34
1, 104254, Note_on_c, 5, 52, 71
1, 104256, Note_on_c, 9, 69, 0
1, 104262, Note_on_c, 9, 38, 118
1, 104262, Note_on_c, 15, 71, 107
1, 104266, Note_on_c, 9, 38, 0
1, 104330, Note_on_c, 5, 52, 0
1, 104350, Note_on_c, 9, 38, 125
1, 104354, Note_on_c, 9, 38, 0
1, 104404, Note_on_c, 7, 71, 0
1, 104422, Note_on_c, 1, 28, 0
1, 104428, Note_on_c, 7, 80, 0
1, 104440, Note_on_c, 6, 59, 0
1, 104440, Note_on_c, 1, 33, 112
1, 104440, Note_on_c, 2, 57, 101
1, 104440, Note_on_c, 2, 61, 100
1, 104442, Note_on_c, 15, 71, 0
1, 104444, Note_on_c, 2, 64, 95
1, 104444, Note_on_c, 6, 52, 67
1, 104444, Note_on_c, 9, 42, 51
1, 104446, Note_on_c, 6, 56, 0
1, 104448, Note_on_c, 9, 42, 0
1, 104448, Note_on_c, 6, 64, 0
1, 104448, Note_on_c, 6, 57, 72
1, 104452, Note_on_c, 9, 36, 123
1, 104456, Note_on_c, 9, 36, 0
1, 104456, Note_on_c, 4, 64, 100
1, 104458, Note_on_c, 6, 61, 66
1, 104636, Note_on_c, 4, 64, 0
1, 104638, Note_on_c, 4, 69, 102
1, 104640, Note_on_c, 9, 42, 57
1, 104644, Note_on_c, 9, 42, 0
1, 104740, Note_on_c, 9, 44, 58
1, 104744, Note_on_c, 9, 44, 0
1, 104818, Note_on_c, 4, 69, 0
1, 104830, Note_on_c, 9, 42, 57
1, 104832, Note_on_c, 9, 38, 124
1, 104834, Note_on_c, 9, 42, 0
1, 104836, Note_on_c, 9, 38, 0
1, 104836, Note_on_c, 4, 74, 100
1, 105016, Note_on_c, 4, 74, 0
1, 105022, Note_on_c, 4, 73, 98
1, 105030, Note_on_c, 9, 42, 59
1, 105034, Note_on_c, 9, 42, 0
1, 105126, Note_on_c, 9, 36, 106
1, 105126, Note_on_c, 9, 46, 107
1, 105130, Note_on_c, 9, 46, 0
1, 105130, Note_on_c, 9, 36, 0
1, 105160, Note_on_c, 1, 33, 0
1, 105212, Note_on_c, 9, 42, 58
1, 105214, Note_on_c, 15, 73, 107
1, 105216, Note_on_c, 9, 42, 0
1, 105216, Control_c, 15, 1, 28
1, 105308, Note_on_c, 9, 36, 105
1, 105312, Note_on_c, 9, 36, 0
1, 105312, Note_on_c, 5, 73, 64
1, 105314, Note_on_c, 5, 69, 73
1, 105315, Control_c, 15, 1, 70
1, 105316, Note_on_c, 9, 46, 107
1, 105318, Note_on_c, 1, 42, 112
1, 105320, Note_on_c, 9, 46, 0
1, 105388, Note_on_c, 5, 73, 0
1, 105390, Note_on_c, 5, 69, 0
1, 105398, Note_on_c, 1, 42, 0
1, 105410, Note_on_c, 9, 42, 52
1, 105414, Note_on_c, 9, 42, 0
1, 105432, Control_c, 15, 1, 55
1, 105504, Note_on_c, 9, 44, 57
1, 105506, Note_on_c, 5, 69, 69
1, 105508, Note_on_c, 9, 44, 0
1, 105510, Note_on_c, 5, 73, 65
1, 105512, Note_on_c, 1, 33, 116
1, 105519, Control_c, 15, 1, 37
1, 105582, Note_on_c, 5, 69, 0
1, 105586, Note_on_c, 5, 73, 0
1, 105592, Note_on_c, 1, 33, 0
1, 105598, Note_on_c, 9, 42, 50
1, 105602, Note_on_c, 9, 42, 0
1, 105604, Note_on_c, 9, 38, 125
1, 105608, Note_on_c, 9, 38, 0
1, 105608, Note_on_c, 5, 69, 71
1, 105608, Note_on_c, 5, 73, 72
1, 105612, Note_on_c, 1, 40, 109
1, 105684, Note_on_c, 5, 73, 0
1, 105684, Note_on_c, 5, 69, 0
1, 105687, Control_c, 15, 1, 15
1, 105754, Note_on_c, 15, 73, 0
1, 105782, Note_on_c, 5, 73, 72
1, 105784, Note_on_c, 15, 78, 109
1, 105792, Pitch_bend_c, 15, 7296
1, 105794, Note_on_c, 9, 42, 50
1, 105798, Note_on_c, 9, 42, 0
1, 105800, Note_on_c, 5, 69, 66
1, 105800, Pitch_bend_c, 15, 7360
1, 105804, Pitch_bend_c, 15, 7424
1, 105808, Pitch_bend_c, 15, 7488
1, 105812, Pitch_bend_c, 15, 7552
1, 105816, Pitch_bend_c, 15, 7616
1, 105820, Pitch_bend_c, 15, 7680
1, 105824, Pitch_bend_c, 15, 7744
1, 105828, Pitch_bend_c, 15, 7808
1, 105832, Pitch_bend_c, 15, 7872
1, 105836, Pitch_bend_c, 15, 7936
1, 105840, Pitch_bend_c, 15, 8000
1, 105844, Pitch_bend_c, 15, 8064
1, 105848, Pitch_bend_c, 15, 8128
1, 105852, Pitch_bend_c, 15, 8192
1, 105858, Note_on_c, 5, 73, 0
1, 105872, Note_on_c, 1, 40, 0
1, 105876, Note_on_c, 5, 69, 0
1, 105880, Note_on_c, 5, 73, 68
1, 105892, Note_on_c, 1, 42, 109
1, 105896, Note_on_c, 5, 69, 73
1, 105956, Note_on_c, 5, 73, 0
1, 105964, Note_on_c, 15, 78, 0
1, 105972, Note_on_c, 1, 42, 0
1, 105972, Note_on_c, 5, 69, 0
1, 105974, Note_on_c, 5, 69, 70
1, 105976, Note_on_c, 1, 33, 113
1, 105978, Note_on_c, 9, 36, 120
1, 105982, Note_on_c, 9, 36, 0
1, 105984, Control_c, 15, 1, 28
1, 105986, Note_on_c, 15, 76, 111
1, 105988, Note_on_c, 5, 73, 69
1, 105988, Note_on_c, 9, 42, 58
1, 105992, Note_on_c, 9, 42, 0
1, 106050, Note_on_c, 5, 69, 0
1, 106064, Note_on_c, 5, 73, 0
1, 106083, Control_c, 15, 1, 70
1, 106170, Note_on_c, 9, 42, 56
1, 106174, Note_on_c, 9, 42, 0
1, 106200, Control_c, 15, 1, 55
1, 106264, Note_on_c, 9, 44, 52
1, 106268, Note_on_c, 9, 44, 0
1, 106287, Control_c, 15, 1, 37
1, 106364, Note_on_c, 9, 38, 119
1, 106364, Note_on_c, 9, 42, 51
1, 106368, Note_on_c, 9, 42, 0
1, 106368, Note_on_c, 9, 38, 0
1, 106455, Control_c, 15, 1, 15
1, 106464, Note_on_c, 5, 73, 64
1, 106468, Note_on_c, 5, 69, 73
1, 106526, Note_on_c, 15, 76, 0
1, 106540, Note_on_c, 5, 73, 0
1, 106544, Note_on_c, 5, 69, 0
1, 106564, Note_on_c, 9, 42, 58
1, 106566, Note_on_c, 15, 73, 103
1, 106568, Note_on_c, 9, 42, 0
1, 106646, Note_on_c, 5, 73, 70
1, 106654, Note_on_c, 9, 36, 109
1, 106654, Note_on_c, 9, 46, 107
1, 106658, Note_on_c, 9, 46, 0
1, 106658, Note_on_c, 9, 36, 0
1, 106658, Note_on_c, 5, 69, 71
1, 106696, Note_on_c, 1, 33, 0
1, 106722, Note_on_c, 5, 73, 0
1, 106734, Note_on_c, 5, 69, 0
1, 106746, Note_on_c, 5, 73, 68
1, 106746, Note_on_c, 9, 42, 57
1, 106750, Note_on_c, 9, 42, 0
1, 106750, Note_on_c, 5, 69, 72
1, 106822, Note_on_c, 5, 73, 0
1, 106826, Note_on_c, 5, 69, 0
1, 106826, Note_on_c, 15, 73, 0
1, 106834, Note_on_c, 1, 42, 116
1, 106842, Note_on_c, 15, 71, 112
1, 106850, Note_on_c, 9, 46, 100
1, 106854, Note_on_c, 9, 46, 0
1, 106854, Note_on_c, 9, 36, 103
1, 106858, Note_on_c, 9, 36, 0
1, 106914, Note_on_c, 1, 42, 0
1, 106936, Note_on_c, 9, 42, 51
1, 106940, Note_on_c, 9, 42, 0
1, 106942, Note_on_c, 15, 69, 108
1, 106946, Note_on_c, 15, 71, 0
1, 107034, Note_on_c, 1, 33, 117
1, 107042, Note_on_c, 5, 69, 64
1, 107044, Note_on_c, 9, 44, 52
1, 107048, Note_on_c, 9, 44, 0
1, 107048, Note_on_c, 5, 73, 73
1, 107102, Note_on_c, 4, 73, 0
1, 107114, Note_on_c, 1, 33, 0
1, 107118, Note_on_c, 5, 69, 0
1, 107122, Note_on_c, 15, 69, 0
1, 107124, Note_on_c, 5, 73, 0
1, 107128, Note_on_c, 9, 42, 50
1, 107132, Note_on_c, 9, 42, 0
1, 107136, Note_on_c, 9, 38, 123
1, 107140, Note_on_c, 9, 38, 0
1, 107148, Note_on_c, 1, 40, 116
1, 107320, Note_on_c, 14, 73, 110
1, 107332, Note_on_c, 9, 42, 55
1, 107336, Note_on_c, 9, 42, 0
1, 107408, Note_on_c, 1, 40, 0
1, 107420, Note_on_c, 1, 42, 118
1, 107480, Note_on_c, 2, 57, 0
1, 107480, Note_on_c, 2, 61, 0
1, 107484, Note_on_c, 2, 64, 0
1, 107500, Note_on_c, 1, 42, 0
1, 107500, Note_on_c, 14, 73, 0
1, 107504, Note_on_c, 6, 52, 0
1, 107508, Note_on_c, 6, 57, 0
1, 107512, Note_on_c, 6, 55, 65
1, 107516, Note_on_c, 2, 59, 96
1, 107516, Note_on_c, 5, 67, 73
1, 107516, Note_on_c, 9, 42, 57
1, 107518, Note_on_c, 6, 61, 0
1, 107518, Note_on_c, 2, 62, 96
1, 107518, Note_on_c, 6, 62, 72
1, 107518, Note_on_c, 9, 36, 122
1, 107520, Note_on_c, 9, 42, 0
1, 107520, Note_on_c, 4, 62, 98
1, 107520, Note_on_c, 5, 71, 66
1, 107520, Control_c, 14, 1, 28
1, 107520, Pitch_bend_c, 14, 7296
1, 107520, Note_on_c, 14, 74, 118
1, 107522, Note_on_c, 9, 36, 0
1, 107528, Note_on_c, 2, 55, 100
1, 107528, Pitch_bend_c, 14, 7360
1, 107530, Note_on_c, 6, 59, 71
1, 107532, Note_on_c, 1, 31, 114
1, 107532, Pitch_bend_c, 14, 7424
1, 107536, Pitch_bend_c, 14, 7488
1, 107540, Pitch_bend_c, 14, 7552
1, 107544, Pitch_bend_c, 14, 7616
1, 107548, Pitch_bend_c, 14, 7680
1, 107552, Pitch_bend_c, 14, 7744
1, 107556, Pitch_bend_c, 14, 7808
1, 107560, Pitch_bend_c, 14, 7872
1, 107564, Pitch_bend_c, 14, 7936
1, 107568, Pitch_bend_c, 14, 8000
1, 107572, Pitch_bend_c, 14, 8064
1, 107576, Pitch_bend_c, 14, 8128
1, 107580, Pitch_bend_c, 14, 8192
1, 107592, Note_on_c, 5, 67, 0
1, 107596, Note_on_c, 5, 71, 0
1, 107619, Control_c, 14, 1, 70
1, 107700, Note_on_c, 4, 62, 0
1, 107704, Note_on_c, 4, 67, 99
1, 107716, Note_on_c, 9, 42, 50
1, 107720, Note_on_c, 9, 42, 0
1, 107736, Control_c, 14, 1, 55
1, 107823, Control_c, 14, 1, 37
1, 107880, Note_on_c, 14, 74, 0
1, 107884, Note_on_c, 4, 67, 0
1, 107896, Note_on_c, 9, 42, 54
1, 107898, Note_on_c, 9, 38, 122
1, 107898, Note_on_c, 14, 74, 113
1, 107900, Note_on_c, 9, 42, 0
1, 107902, Note_on_c, 9, 38, 0
1, 107904, Note_on_c, 4, 72, 101
1, 107991, Control_c, 14, 1, 15
1, 107994, Note_on_c, 5, 71, 71
1, 107996, Note_on_c, 5, 67, 64
1, 108070, Note_on_c, 5, 71, 0
1, 108072, Note_on_c, 5, 67, 0
1, 108084, Note_on_c, 4, 72, 0
1, 108086, Note_on_c, 4, 71, 94
1, 108100, Note_on_c, 9, 42, 50
1, 108104, Note_on_c, 9, 42, 0
1, 108190, Note_on_c, 9, 36, 104
1, 108190, Note_on_c, 9, 44, 58
1, 108194, Note_on_c, 9, 44, 0
1, 108194, Note_on_c, 9, 36, 0
1, 108200, Note_on_c, 5, 67, 68
1, 108200, Note_on_c, 5, 71, 71
1, 108252, Note_on_c, 1, 31, 0
1, 108258, Note_on_c, 14, 74, 0
1, 108276, Note_on_c, 5, 67, 0
1, 108276, Note_on_c, 5, 71, 0
1, 108278, Note_on_c, 5, 67, 69
1, 108288, Pitch_bend_c, 14, 7296
1, 108292, Note_on_c, 9, 42, 51
1, 108292, Note_on_c, 14, 74, 113
1, 108296, Note_on_c, 9, 42, 0
1, 108296, Note_on_c, 5, 71, 72
1, 108296, Pitch_bend_c, 14, 7360
1, 108300, Pitch_bend_c, 14, 7424
1, 108304, Pitch_bend_c, 14, 7488
1, 108308, Pitch_bend_c, 14, 7552
1, 108312, Pitch_bend_c, 14, 7616
1, 108316, Pitch_bend_c, 14, 7680
1, 108320, Pitch_bend_c, 14, 7744
1, 108324, Pitch_bend_c, 14, 7808
1, 108328, Pitch_bend_c, 14, 7872
1, 108332, Pitch_bend_c, 14, 7936
1, 108336, Pitch_bend_c, 14, 8000
1, 108340, Pitch_bend_c, 14, 8064
1, 108344, Pitch_bend_c, 14, 8128
1, 108348, Pitch_bend_c, 14, 8192
1, 108354, Note_on_c, 5, 67, 0
1, 108372, Note_on_c, 5, 71, 0
1, 108384, Note_on_c, 9, 36, 102
1, 108388, Note_on_c, 9, 36, 0
1, 108388, Note_on_c, 9, 46, 106
1, 108390, Note_on_c, 1, 42, 109
1, 108392, Note_on_c, 9, 46, 0
1, 108446, Note_on_c, 4, 71, 0
1, 108470, Note_on_c, 1, 42, 0
1, 108480, Note_on_c, 4, 67, 102
1, 108486, Note_on_c, 9, 42, 56
1, 108490, Note_on_c, 9, 42, 0
1, 108552, Note_on_c, 14, 74, 0
1, 108568, Note_on_c, 5, 71, 73
1, 108570, Note_on_c, 14, 73, 113
1, 108572, Note_on_c, 5, 67, 73
1, 108572, Note_on_c, 9, 44, 53
1, 108576, Note_on_c, 9, 44, 0
1, 108578, Note_on_c, 1, 31, 116
1, 108644, Note_on_c, 5, 71, 0
1, 108648, Note_on_c, 5, 67, 0
1, 108658, Note_on_c, 1, 31, 0
1, 108664, Note_on_c, 1, 38, 111
1, 108668, Note_on_c, 9, 38, 121
1, 108672, Note_on_c, 9, 38, 0
1, 108676, Note_on_c, 9, 42, 55
1, 108680, Note_on_c, 9, 42, 0
1, 108830, Note_on_c, 14, 73, 0
1, 108840, Note_on_c, 4, 67, 0
1, 108860, Note_on_c, 4, 62, 101
1, 108860, Note_on_c, 14, 72, 112
1, 108866, Note_on_c, 9, 42, 56
1, 108870, Note_on_c, 9, 42, 0
1, 108924, Note_on_c, 1, 38, 0
1, 108962, Note_on_c, 1, 40, 109
1, 109040, Note_on_c, 14, 72, 0
1, 109042, Note_on_c, 1, 40, 0
1, 109050, Note_on_c, 9, 42, 59
1, 109052, Note_on_c, 5, 67, 71
1, 109054, Note_on_c, 9, 42, 0
1, 109054, Note_on_c, 5, 71, 64
1, 109054, Note_on_c, 9, 36, 125
1, 109056, Note_on_c, 14, 71, 114
1, 109058, Note_on_c, 9, 36, 0
1, 109062, Note_on_c, 1, 31, 111
1, 109128, Note_on_c, 5, 67, 0
1, 109130, Note_on_c, 5, 71, 0
1, 109152, Control_c, 14, 1, 28
1, 109244, Note_on_c, 9, 42, 54
1, 109248, Note_on_c, 9, 42, 0
1, 109251, Control_c, 14, 1, 70
1, 109368, Control_c, 14, 1, 55
1, 109432, Note_on_c, 9, 38, 118
1, 109432, Note_on_c, 9, 42, 50
1, 109436, Note_on_c, 9, 42, 0
1, 109436, Note_on_c, 9, 38, 0
1, 109455, Control_c, 14, 1, 37
1, 109530, Note_on_c, 5, 71, 72
1, 109538, Note_on_c, 5, 67, 70
1, 109606, Note_on_c, 5, 71, 0
1, 109614, Note_on_c, 5, 67, 0
1, 109623, Control_c, 14, 1, 15
1, 109626, Note_on_c, 9, 42, 55
1, 109630, Note_on_c, 9, 42, 0
1, 109726, Note_on_c, 9, 36, 106
1, 109726, Note_on_c, 9, 44, 57
1, 109730, Note_on_c, 9, 44, 0
1, 109730, Note_on_c, 9, 36, 0
1, 109734, Note_on_c, 5, 67, 65
1, 109736, Note_on_c, 5, 71, 69
1, 109776, Note_on_c, 14, 71, 0
1, 109782, Note_on_c, 1, 31, 0
1, 109810, Note_on_c, 5, 67, 0
1, 109812, Note_on_c, 5, 71, 0
1, 109816, Note_on_c, 5, 67, 66
1, 109816, Note_on_c, 9, 42, 50
1, 109818, Note_on_c, 5, 71, 73
1, 109820, Note_on_c, 9, 42, 0
1, 109892, Note_on_c, 5, 67, 0
1, 109894, Note_on_c, 5, 71, 0
1, 109912, Note_on_c, 1, 28, 114
1, 109916, Note_on_c, 9, 46, 106
1, 109918, Note_on_c, 9, 36, 108
1, 109920, Note_on_c, 9, 46, 0
1, 109922, Note_on_c, 9, 36, 0
1, 109936, Note_on_c, 2, 59, 0
1, 109938, Note_on_c, 2, 62, 0
1, 109948, Note_on_c, 2, 55, 0
1, 109992, Note_on_c, 1, 28, 0
1, 110014, Note_on_c, 1, 28, 116
1, 110018, Note_on_c, 9, 42, 51
1, 110020, Note_on_c, 2, 55, 101
1, 110022, Note_on_c, 9, 42, 0
1, 110104, Note_on_c, 5, 67, 64
1, 110104, Note_on_c, 5, 71, 64
1, 110112, Note_on_c, 9, 44, 57
1, 110116, Note_on_c, 9, 44, 0
1, 110160, Note_on_c, 4, 62, 0
1, 110180, Note_on_c, 5, 71, 0
1, 110180, Note_on_c, 5, 67, 0
1, 110194, Note_on_c, 1, 28, 0
1, 110198, Note_on_c, 1, 31, 112
1, 110200, Note_on_c, 2, 55, 0
1, 110200, Note_on_c, 9, 42, 52
1, 110204, Note_on_c, 9, 42, 0
1, 110206, Note_on_c, 2, 59, 99
1, 110208, Note_on_c, 9, 38, 117
1, 110212, Note_on_c, 9, 38, 0
1, 110402, Note_on_c, 9, 42, 52
1, 110406, Note_on_c, 9, 42, 0
1, 110458, Note_on_c, 1, 31, 0
1, 110488, Note_on_c, 1, 32, 116
1, 110566, Note_on_c, 2, 59, 0
1, 110568, Note_on_c, 1, 32, 0
1, 110572, Note_on_c, 6, 55, 0
1, 110578, Note_on_c, 6, 62, 0
1, 110584, Note_on_c, 9, 42, 57
1, 110586, Note_on_c, 4, 64, 101
1, 110588, Note_on_c, 9, 42, 0
1, 110590, Note_on_c, 6, 59, 0
1, 110590, Note_on_c, 2, 61, 102
1, 110592, Note_on_c, 1, 33, 112
1, 110596, Note_on_c, 2, 57, 102
1, 110596, Note_on_c, 6, 61, 68
1, 110598, Note_on_c, 2, 64, 102
1, 110598, Note_on_c, 6, 52, 65
1, 110598, Note_on_c, 9, 36, 123
1, 110602, Note_on_c, 9, 36, 0
1, 110604, Note_on_c, 6, 57, 64
1, 110766, Note_on_c, 4, 64, 0
1, 110774, Note_on_c, 4, 69, 94
1, 110788, Note_on_c, 9, 42, 52
1, 110792, Note_on_c, 9, 42, 0
1, 110954, Note_on_c, 4, 69, 0
1, 110966, Note_on_c, 4, 74, 98
1, 110970, Note_on_c, 9, 38, 122
1, 110972, Note_on_c, 15, 73, 109
1, 110974, Note_on_c, 9, 38, 0
1, 110974, Note_on_c, 9, 42, 56
1, 110978, Note_on_c, 9, 42, 0
1, 111146, Note_on_c, 4, 74, 0
1, 111152, Note_on_c, 15, 73, 0
1, 111162, Note_on_c, 4, 73, 102
1, 111168, Note_on_c, 9, 42, 53
1, 111172, Note_on_c, 9, 42, 0
1, 111172, Note_on_c, 15, 73, 104
1, 111256, Note_on_c, 9, 44, 56
1, 111260, Note_on_c, 9, 44, 0
1, 111262, Note_on_c, 9, 36, 102
1, 111266, Note_on_c, 9, 36, 0
1, 111312, Note_on_c, 1, 33, 0
1, 111352, Note_on_c, 15, 73, 0
1, 111352, Note_on_c, 9, 42, 54
1, 111354, Note_on_c, 15, 73, 110
1, 111356, Note_on_c, 9, 42, 0
1, 111450, Note_on_c, 1, 42, 118
1, 111450, Note_on_c, 9, 46, 105
1, 111454, Note_on_c, 9, 46, 0
1, 111456, Note_on_c, 9, 36, 105
1, 111458, Note_on_c, 5, 73, 73
1, 111460, Note_on_c, 9, 36, 0
1, 111460, Note_on_c, 5, 69, 66
1, 111530, Note_on_c, 1, 42, 0
1, 111534, Note_on_c, 5, 73, 0
1, 111536, Note_on_c, 5, 69, 0
1, 111548, Note_on_c, 9, 42, 58
1, 111552, Note_on_c, 9, 42, 0
1, 111640, Note_on_c, 1, 33, 113
1, 111642, Note_on_c, 5, 73, 73
1, 111650, Note_on_c, 5, 69, 70
1, 111652, Note_on_c, 9, 44, 52
1, 111656, Note_on_c, 9, 44, 0
1, 111714, Note_on_c, 15, 73, 0
1, 111718, Note_on_c, 5, 73, 0
1, 111720, Note_on_c, 1, 33, 0
1, 111726, Note_on_c, 5, 69, 0
1, 111742, Note_on_c, 5, 69, 73
1, 111744, Control_c, 15, 1, 28
1, 111744, Pitch_bend_c, 15, 7296
1, 111746, Note_on_c, 1, 40, 114
1, 111746, Note_on_c, 5, 73, 69
1, 111746, Note_on_c, 9, 38, 116
1, 111746, Note_on_c, 9, 42, 57
1, 111746, Note_on_c, 15, 78, 111
1, 111750, Note_on_c, 9, 42, 0
1, 111750, Note_on_c, 9, 38, 0
1, 111752, Pitch_bend_c, 15, 7360
1, 111756, Pitch_bend_c, 15, 7424
1, 111760, Pitch_bend_c, 15, 7488
1, 111764, Pitch_bend_c, 15, 7552
1, 111768, Pitch_bend_c, 15, 7616
1, 111772, Pitch_bend_c, 15, 7680
1, 111776, Pitch_bend_c, 15, 7744
1, 111780, Pitch_bend_c, 15, 7808
1, 111784, Pitch_bend_c, 15, 7872
1, 111788, Pitch_bend_c, 15, 7936
1, 111792, Pitch_bend_c, 15, 8000
1, 111796, Pitch_bend_c, 15, 8064
1, 111800, Pitch_bend_c, 15, 8128
1, 111804, Pitch_bend_c, 15, 8192
1, 111818, Note_on_c, 5, 69, 0
1, 111822, Note_on_c, 5, 73, 0
1, 111843, Control_c, 15, 1, 70
1, 111930, Note_on_c, 9, 42, 50
1, 111932, Note_on_c, 5, 73, 66
1, 111934, Note_on_c, 9, 42, 0
1, 111944, Note_on_c, 5, 69, 71
1, 111960, Control_c, 15, 1, 55
1, 112006, Note_on_c, 1, 40, 0
1, 112008, Note_on_c, 5, 73, 0
1, 112020, Note_on_c, 5, 69, 0
1, 112024, Note_on_c, 1, 42, 112
1, 112032, Note_on_c, 5, 69, 65
1, 112038, Note_on_c, 5, 73, 65
1, 112047, Control_c, 15, 1, 16
1, 112104, Note_on_c, 1, 42, 0
1, 112106, Note_on_c, 15, 78, 0
1, 112108, Note_on_c, 5, 69, 0
1, 112114, Note_on_c, 5, 73, 0
1, 112122, Note_on_c, 9, 36, 120
1, 112124, Note_on_c, 5, 73, 72
1, 112126, Note_on_c, 9, 36, 0
1, 112126, Note_on_c, 15, 76, 105
1, 112128, Control_c, 15, 1, 28
1, 112130, Note_on_c, 5, 69, 70
1, 112132, Note_on_c, 9, 42, 59
1, 112136, Note_on_c, 9, 42, 0
1, 112140, Note_on_c, 1, 33, 118
1, 112200, Note_on_c, 5, 73, 0
1, 112206, Note_on_c, 5, 69, 0
1, 112227, Control_c, 15, 1, 70
1, 112324, Note_on_c, 9, 42, 50
1, 112328, Note_on_c, 9, 42, 0
1, 112344, Control_c, 15, 1, 55
1, 112431, Control_c, 15, 1, 37
1, 112506, Note_on_c, 9, 38, 123
1, 112506, Note_on_c, 9, 42, 57
1, 112510, Note_on_c, 9, 42, 0
1, 112510, Note_on_c, 9, 38, 0
1, 112599, Control_c, 15, 1, 15
1, 112610, Note_on_c, 5, 73, 72
1, 112614, Note_on_c, 5, 69, 70
1, 112666, Note_on_c, 15, 76, 0
1, 112686, Note_on_c, 5, 73, 0
1, 112690, Note_on_c, 5, 69, 0
1, 112696, Note_on_c, 15, 73, 109
1, 112700, Note_on_c, 9, 42, 55
1, 112704, Note_on_c, 9, 42, 0
1, 112796, Note_on_c, 9, 44, 59
1, 112798, Note_on_c, 5, 73, 65
1, 112800, Note_on_c, 9, 44, 0
1, 112806, Note_on_c, 5, 69, 66
1, 112806, Note_on_c, 9, 36, 105
1, 112810, Note_on_c, 9, 36, 0
1, 112860, Note_on_c, 1, 33, 0
1, 112874, Note_on_c, 5, 73, 0
1, 112882, Note_on_c, 5, 69, 0
1, 112892, Note_on_c, 5, 69, 73
1, 112894, Note_on_c, 9, 42, 51
1, 112898, Note_on_c, 9, 42, 0
1, 112898, Note_on_c, 5, 73, 68
1, 112956, Note_on_c, 15, 73, 0
1, 112968, Note_on_c, 5, 69, 0
1, 112974, Note_on_c, 5, 73, 0
1, 112990, Note_on_c, 1, 42, 110
1, 112990, Note_on_c, 9, 36, 108
1, 112990, Note_on_c, 15, 71, 111
1, 112994, Note_on_c, 9, 36, 0
1, 112994, Note_on_c, 9, 46, 107
1, 112998, Note_on_c, 9, 46, 0
1, 113062, Note_on_c, 2, 61, 0
1, 113068, Note_on_c, 2, 57, 0
1, 113070, Note_on_c, 1, 42, 0
1, 113070, Note_on_c, 2, 64, 0
1, 113084, Note_on_c, 9, 42, 56
1, 113088, Note_on_c, 9, 42, 0
1, 113090, Note_on_c, 15, 69, 104
1, 113094, Note_on_c, 15, 71, 0
1, 113094, Note_on_c, 2, 57, 98
1, 113178, Note_on_c, 5, 73, 72
1, 113182, Note_on_c, 1, 33, 109
1, 113184, Note_on_c, 9, 44, 57
1, 113188, Note_on_c, 9, 44, 0
1, 113192, Note_on_c, 5, 69, 73
1, 113242, Note_on_c, 4, 73, 0
1, 113254, Note_on_c, 5, 73, 0
1, 113262, Note_on_c, 1, 33, 0
1, 113268, Note_on_c, 5, 69, 0
1, 113268, Note_on_c, 1, 40, 118
1, 113270, Note_on_c, 15, 69, 0
1, 113274, Note_on_c, 2, 57, 0
1, 113282, Note_on_c, 2, 57, 101
1, 113284, Note_on_c, 9, 42, 52
1, 113286, Note_on_c, 9, 38, 123
1, 113288, Note_on_c, 9, 42, 0
1, 113290, Note_on_c, 9, 38, 0
1, 113464, Note_on_c, 9, 42, 52
1, 113468, Note_on_c, 9, 42, 0
1, 113528, Note_on_c, 1, 40, 0
1, 113564, Note_on_c, 1, 42, 115
1, 113642, Note_on_c, 2, 57, 0
1, 113644, Note_on_c, 1, 42, 0
1, 113650, Note_on_c, 1, 35, 113
1, 113654, Note_on_c, 2, 71, 96
1, 113654, Note_on_c, 6, 54, 66
1, 113656, Note_on_c, 6, 61, 0
1, 113658, Note_on_c, 6, 52, 0
1, 113658, Note_on_c, 6, 59, 64
1, 113660, Note_on_c, 5, 71, 71
1, 113660, Note_on_c, 5, 76, 66
1, 113662, Note_on_c, 9, 36, 119
1, 113664, Note_on_c, 6, 57, 0
1, 113664, Note_on_c, 2, 66, 101
1, 113666, Note_on_c, 9, 36, 0
1, 113666, Note_on_c, 9, 42, 55
1, 113670, Note_on_c, 9, 42, 0
1, 113670, Note_on_c, 2, 64, 102
1, 113672, Note_on_c, 6, 64, 65
1, 113736, Note_on_c, 5, 76, 0
1, 113736, Note_on_c, 5, 71, 0
1, 113854, Note_on_c, 9, 42, 52
1, 113858, Note_on_c, 9, 42, 0
1, 113860, Note_on_c, 4, 66, 100
1, 114040, Note_on_c, 4, 66, 0
1, 114042, Note_on_c, 4, 71, 94
1, 114046, Note_on_c, 9, 38, 121
1, 114046, Note_on_c, 9, 42, 59
1, 114050, Note_on_c, 9, 42, 0
1, 114050, Note_on_c, 9, 38, 0
1, 114222, Note_on_c, 4, 71, 0
1, 114232, Note_on_c, 9, 42, 53
1, 114236, Note_on_c, 9, 42, 0
1, 114238, Note_on_c, 4, 59, 95
1, 114330, Note_on_c, 9, 44, 56
1, 114334, Note_on_c, 9, 44, 0
1, 114342, Note_on_c, 9, 36, 103
1, 114346, Note_on_c, 9, 36, 0
1, 114370, Note_on_c, 1, 35, 0
1, 114418, Note_on_c, 4, 59, 0
1, 114422, Note_on_c, 4, 66, 94
1, 114428, Note_on_c, 9, 42, 51
1, 114432, Note_on_c, 9, 42, 0
1, 114432, Note_on_c, 15, 75, 109
1, 114436, Note_on_c, 14, 75, 116
1, 114440, Note_on_c, 13, 63, 103
1, 114446, Note_on_c, 13, 75, 104
1, 114522, Note_on_c, 5, 76, 71
1, 114522, Note_on_c, 9, 36, 109
1, 114526, Note_on_c, 9, 36, 0
1, 114530, Note_on_c, 1, 42, 118
1, 114530, Note_on_c, 9, 46, 105
1, 114532, Note_on_c, 5, 71, 66
1, 114534, Note_on_c, 9, 46, 0
1, 114598, Note_on_c, 5, 76, 0
1, 114602, Note_on_c, 4, 66, 0
1, 114608, Note_on_c, 5, 71, 0
1, 114610, Note_on_c, 1, 42, 0
1, 114626, Note_on_c, 9, 42, 59
1, 114628, Note_on_c, 4, 71, 101
1, 114630, Note_on_c, 9, 42, 0
1, 114692, Note_on_c, 15, 75, 0
1, 114696, Note_on_c, 14, 75, 0
1, 114700, Note_on_c, 13, 63, 0
1, 114706, Note_on_c, 13, 75, 0
1, 114712, Note_on_c, 5, 76, 70
1, 114722, Note_on_c, 14, 75, 117
1, 114722, Note_on_c, 15, 75, 105
1, 114724, Note_on_c, 5, 71, 66
1, 114724, Note_on_c, 9, 44, 58
1, 114726, Note_on_c, 13, 63, 109
1, 114728, Note_on_c, 9, 44, 0
1, 114728, Note_on_c, 1, 35, 109
1, 114732, Note_on_c, 13, 75, 109
1, 114788, Note_on_c, 5, 76, 0
1, 114800, Note_on_c, 5, 71, 0
1, 114808, Note_on_c, 4, 71, 0
1, 114808, Note_on_c, 1, 35, 0
1, 114808, Note_on_c, 4, 59, 96
1, 114812, Note_on_c, 9, 42, 52
1, 114814, Note_on_c, 1, 40, 114
1, 114814, Note_on_c, 9, 38, 116
1, 114816, Note_on_c, 9, 42, 0
1, 114818, Note_on_c, 9, 38, 0
1, 114908, Note_on_c, 5, 76, 66
1, 114912, Note_on_c, 5, 71, 73
1, 114982, Note_on_c, 15, 75, 0
1, 114982, Note_on_c, 14, 75, 0
1, 114984, Note_on_c, 5, 76, 0
1, 114986, Note_on_c, 13, 63, 0
1, 114988, Note_on_c, 4, 59, 0
1, 114988, Note_on_c, 5, 71, 0
1, 114992, Note_on_c, 13, 75, 0
1, 115002, Note_on_c, 4, 66, 95
1, 115006, Note_on_c, 14, 80, 114
1, 115006, Note_on_c, 15, 80, 112
1, 115008, Pitch_bend_c, 14, 7296
1, 115008, Pitch_bend_c, 15, 7296
1, 115010, Note_on_c, 9, 42, 53
1, 115014, Note_on_c, 9, 42, 0
1, 115016, Pitch_bend_c, 14, 7360
1, 115016, Pitch_bend_c, 15, 7360
1, 115020, Pitch_bend_c, 14, 7424
1, 115020, Pitch_bend_c, 15, 7424
1, 115022, Note_on_c, 13, 80, 105
1, 115024, Note_on_c, 13, 68, 106
1, 115024, Pitch_bend_c, 14, 7488
1, 115024, Pitch_bend_c, 15, 7488
1, 115028, Pitch_bend_c, 14, 7552
1, 115028, Pitch_bend_c, 15, 7552
1, 115032, Pitch_bend_c, 14, 7616
1, 115032, Pitch_bend_c, 15, 7616
1, 115036, Pitch_bend_c, 14, 7680
1, 115036, Pitch_bend_c, 15, 7680
1, 115040, Pitch_bend_c, 14, 7744
1, 115040, Pitch_bend_c, 15, 7744
1, 115044, Pitch_bend_c, 14, 7808
1, 115044, Pitch_bend_c, 15, 7808
1, 115048, Pitch_bend_c, 14, 7872
1, 115048, Pitch_bend_c, 15, 7872
1, 115052, Pitch_bend_c, 14, 7936
1, 115052, Pitch_bend_c, 15, 7936
1, 115056, Pitch_bend_c, 14, 8000
1, 115056, Pitch_bend_c, 15, 8000
1, 115060, Pitch_bend_c, 14, 8064
1, 115060, Pitch_bend_c, 15, 8064
1, 115064, Pitch_bend_c, 14, 8128
1, 115064, Pitch_bend_c, 15, 8128
1, 115068, Pitch_bend_c, 14, 8192
1, 115068, Pitch_bend_c, 15, 8192
1, 115074, Note_on_c, 1, 40, 0
1, 115102, Note_on_c, 5, 76, 71
1, 115104, Note_on_c, 1, 42, 113
1, 115106, Note_on_c, 5, 71, 70
1, 115178, Note_on_c, 5, 76, 0
1, 115182, Note_on_c, 4, 66, 0
1, 115182, Note_on_c, 5, 71, 0
1, 115182, Note_on_c, 2, 64, 0
1, 115184, Note_on_c, 1, 42, 0
1, 115186, Note_on_c, 15, 80, 0
1, 115186, Note_on_c, 14, 80, 0
1, 115186, Note_on_c, 6, 63, 73
1, 115190, Note_on_c, 5, 75, 71
1, 115192, Note_on_c, 6, 64, 0
1, 115194, Note_on_c, 15, 78, 108
1, 115198, Note_on_c, 5, 71, 70
1, 115200, Note_on_c, 13, 66, 106
1, 115200, Control_c, 14, 1, 28
1, 115200, Note_on_c, 14, 78, 109
1, 115202, Note_on_c, 13, 80, 0
1, 115202, Note_on_c, 9, 38, 125
1, 115204, Note_on_c, 13, 68, 0
1, 115204, Note_on_c, 1, 35, 115
1, 115204, Note_on_c, 4, 71, 97
1, 115206, Note_on_c, 9, 38, 0
1, 115216, Note_on_c, 13, 78, 105
1, 115266, Note_on_c, 5, 75, 0
1, 115274, Note_on_c, 5, 71, 0
1, 115299, Control_c, 14, 1, 70
1, 115302, Note_on_c, 2, 63, 97
1, 115374, Note_on_c, 15, 78, 0
1, 115384, Note_on_c, 4, 71, 0
1, 115390, Note_on_c, 15, 73, 110
1, 115392, Note_on_c, 4, 59, 97
1, 115392, Note_on_c, 9, 50, 120
1, 115394, Note_on_c, 13, 73, 111
1, 115396, Note_on_c, 9, 50, 0
1, 115396, Note_on_c, 13, 78, 0
1, 115416, Control_c, 14, 1, 55
1, 115482, Note_on_c, 5, 71, 73
1, 115490, Note_on_c, 5, 75, 66
1, 115503, Control_c, 14, 1, 37
1, 115558, Note_on_c, 5, 71, 0
1, 115560, Note_on_c, 13, 66, 0
1, 115560, Note_on_c, 14, 78, 0
1, 115564, Note_on_c, 1, 35, 0
1, 115566, Note_on_c, 5, 75, 0
1, 115570, Note_on_c, 15, 73, 0
1, 115570, Note_on_c, 1, 42, 111
1, 115572, Note_on_c, 4, 59, 0
1, 115574, Note_on_c, 13, 73, 0
1, 115580, Note_on_c, 5, 71, 65
1, 115582, Note_on_c, 9, 38, 121
1, 115586, Note_on_c, 9, 38, 0
1, 115588, Note_on_c, 5, 75, 65
1, 115592, Note_on_c, 4, 66, 100
1, 115656, Note_on_c, 5, 71, 0
1, 115664, Note_on_c, 5, 75, 0
1, 115671, Control_c, 14, 1, 15
1, 115682, Note_on_c, 5, 75, 67
1, 115682, Note_on_c, 9, 38, 118
1, 115686, Note_on_c, 9, 38, 0
1, 115686, Note_on_c, 5, 71, 71
1, 115750, Note_on_c, 1, 42, 0
1, 115758, Note_on_c, 5, 75, 0
1, 115762, Note_on_c, 5, 71, 0
1, 115766, Note_on_c, 1, 35, 112
1, 115772, Note_on_c, 4, 66, 0
1, 115776, Note_on_c, 5, 71, 67
1, 115778, Note_on_c, 4, 71, 95
1, 115780, Note_on_c, 5, 75, 71
1, 115852, Note_on_c, 5, 71, 0
1, 115856, Note_on_c, 5, 75, 0
1, 115864, Note_on_c, 9, 47, 117
1, 115868, Note_on_c, 9, 47, 0
1, 115946, Note_on_c, 1, 35, 0
1, 115958, Note_on_c, 4, 71, 0
1, 115960, Note_on_c, 9, 43, 124
1, 115964, Note_on_c, 9, 43, 0
1, 115964, Note_on_c, 15, 76, 103
1, 115966, Note_on_c, 4, 59, 97
1, 115966, Note_on_c, 14, 80, 112
1, 115968, Note_on_c, 5, 71, 70
1, 115968, Control_c, 14, 1, 28
1, 115968, Pitch_bend_c, 15, 7296
1, 115970, Note_on_c, 5, 75, 70
1, 115974, Note_on_c, 9, 89, 120
1, 115974, Note_on_c, 13, 68, 104
1, 115974, Note_on_c, 13, 76, 110
1, 115976, Pitch_bend_c, 15, 7360
1, 115978, Note_on_c, 9, 89, 0
1, 115980, Pitch_bend_c, 15, 7424
1, 115984, Pitch_bend_c, 15, 7488
1, 115988, Pitch_bend_c, 15, 7552
1, 115992, Pitch_bend_c, 15, 7616
1, 115996, Pitch_bend_c, 15, 7680
1, 116000, Pitch_bend_c, 15, 7744
1, 116004, Pitch_bend_c, 15, 7808
1, 116008, Pitch_bend_c, 15, 7872
1, 116012, Pitch_bend_c, 15, 7936
1, 116016, Pitch_bend_c, 15, 8000
1, 116020, Pitch_bend_c, 15, 8064
1, 116024, Pitch_bend_c, 15, 8128
1, 116028, Pitch_bend_c, 15, 8192
1, 116044, Note_on_c, 5, 71, 0
1, 116046, Note_on_c, 5, 75, 0
1, 116067, Control_c, 14, 1, 70
1, 116072, Note_on_c, 1, 33, 113
1, 116146, Note_on_c, 4, 59, 0
1, 116152, Note_on_c, 1, 33, 0
1, 116152, Note_on_c, 1, 35, 109
1, 116158, Note_on_c, 9, 38, 122
1, 116160, Note_on_c, 4, 66, 97
1, 116162, Note_on_c, 9, 38, 0
1, 116162, Note_on_c, 5, 75, 72
1, 116164, Note_on_c, 5, 71, 71
1, 116184, Control_c, 14, 1, 55
1, 116238, Note_on_c, 5, 75, 0
1, 116240, Note_on_c, 5, 71, 0
1, 116248, Note_on_c, 5, 75, 68
1, 116256, Note_on_c, 9, 38, 117
1, 116260, Note_on_c, 9, 38, 0
1, 116264, Note_on_c, 5, 71, 68
1, 116271, Control_c, 14, 1, 37
1, 116324, Note_on_c, 5, 75, 0
1, 116324, Note_on_c, 15, 76, 0
1, 116326, Note_on_c, 14, 80, 0
1, 116332, Note_on_c, 1, 35, 0
1, 116334, Note_on_c, 13, 68, 0
1, 116334, Note_on_c, 13, 76, 0
1, 116340, Note_on_c, 4, 66, 0
1, 116340, Note_on_c, 5, 71, 0
1, 116346, Note_on_c, 13, 73, 112
1, 116348, Note_on_c, 4, 71, 96
1, 116350, Note_on_c, 1, 42, 115
1, 116352, Note_on_c, 5, 71, 69
1, 116352, Note_on_c, 5, 75, 71
1, 116352, Note_on_c, 9, 38, 122
1, 116352, Note_on_c, 15, 73, 112
1, 116356, Note_on_c, 9, 38, 0
1, 116356, Note_on_c, 14, 81, 112
1, 116368, Note_on_c, 13, 69, 104
1, 116428, Note_on_c, 5, 71, 0
1, 116428, Note_on_c, 5, 75, 0
1, 116439, Control_c, 14, 1, 15
1, 116442, Note_on_c, 14, 83, 114
1, 116444, Note_on_c, 5, 71, 67
1, 116448, Note_on_c, 13, 69, 0
1, 116448, Note_on_c, 9, 50, 122
1, 116452, Note_on_c, 9, 50, 0
1, 116452, Note_on_c, 13, 71, 108
1, 116454, Note_on_c, 5, 75, 67
1, 116460, Note_on_c, 14, 81, 0
1, 116520, Note_on_c, 5, 71, 0
1, 116526, Note_on_c, 13, 73, 0
1, 116528, Note_on_c, 4, 71, 0
1, 116530, Note_on_c, 5, 75, 0
1, 116532, Note_on_c, 15, 73, 0
1, 116532, Note_on_c, 13, 71, 0
1, 116536, Note_on_c, 5, 75, 66
1, 116536, Note_on_c, 9, 47, 117
1, 116540, Note_on_c, 9, 47, 0
1, 116540, Note_on_c, 13, 71, 108
1, 116542, Note_on_c, 13, 69, 112
1, 116544, Note_on_c, 5, 71, 70
1, 116544, Note_on_c, 15, 71, 109
1, 116546, Note_on_c, 14, 83, 0
1, 116550, Note_on_c, 4, 59, 96
1, 116550, Note_on_c, 14, 81, 110
1, 116610, Note_on_c, 1, 42, 0
1, 116612, Note_on_c, 5, 75, 0
1, 116620, Note_on_c, 5, 71, 0
1, 116634, Note_on_c, 9, 36, 117
1, 116636, Note_on_c, 9, 89, 123
1, 116638, Note_on_c, 9, 36, 0
1, 116638, Note_on_c, 9, 43, 125
1, 116640, Note_on_c, 9, 89, 0
1, 116642, Note_on_c, 9, 43, 0
1, 116642, Note_on_c, 1, 40, 112
1, 116694, Note_on_c, 2, 71, 0
1, 116704, Note_on_c, 2, 66, 0
1, 116706, Note_on_c, 6, 63, 0
1, 116714, Note_on_c, 6, 54, 0
1, 116718, Note_on_c, 6, 59, 0
1, 116720, Note_on_c, 13, 71, 0
1, 116722, Note_on_c, 13, 69, 0
1, 116722, Note_on_c, 1, 40, 0
1, 116724, Note_on_c, 15, 71, 0
1, 116726, Note_on_c, 2, 68, 98
1, 116726, Note_on_c, 4, 64, 62
1, 116728, Note_on_c, 2, 59, 94
1, 116728, Note_on_c, 7, 64, 79
1, 116728, Note_on_c, 9, 36, 120
1, 116728, Note_on_c, 9, 69, 30
1, 116730, Note_on_c, 4, 59, 0
1, 116730, Note_on_c, 14, 81, 0
1, 116730, Note_on_c, 4, 59, 67
1, 116732, Note_on_c, 9, 69, 0
1, 116732, Note_on_c, 9, 36, 0
1, 116732, Note_on_c, 6, 59, 68
1, 116734, Note_on_c, 1, 28, 115
1, 116734, Note_on_c, 9, 49, 103
1, 116738, Note_on_c, 9, 49, 0
1, 116738, Note_on_c, 6, 64, 65
1, 116740, Note_on_c, 7, 76, 81
1, 116740, Note_on_c, 9, 63, 84
1, 116744, Note_on_c, 9, 63, 0
1, 116744, Note_on_c, 2, 64, 101
1, 116748, Note_on_c, 6, 56, 66
1, 116780, Note_on_c, 4, 64, 0
1, 116784, Note_on_c, 4, 59, 0
1, 116814, Note_on_c, 2, 63, 0
1, 116828, Note_on_c, 4, 64, 102
1, 116828, Note_on_c, 9, 63, 88
1, 116830, Note_on_c, 4, 59, 102
1, 116830, Note_on_c, 4, 68, 103
1, 116832, Note_on_c, 9, 63, 0
1, 116834, Note_on_c, 9, 69, 36
1, 116836, Note_on_c, 9, 44, 59
1, 116838, Note_on_c, 9, 69, 0
1, 116840, Note_on_c, 9, 44, 0
1, 116920, Note_on_c, 8, 83, 74
1, 116920, Note_on_c, 9, 69, 34
1, 116924, Note_on_c, 9, 69, 0
1, 116932, Note_on_c, 9, 42, 54
1, 116936, Note_on_c, 9, 42, 0
1, 117008, Note_on_c, 8, 83, 0
1, 117008, Note_on_c, 4, 64, 0
1, 117010, Note_on_c, 4, 68, 0
1, 117010, Note_on_c, 4, 59, 0
1, 117018, Note_on_c, 4, 59, 62
1, 117018, Note_on_c, 9, 44, 50
1, 117022, Note_on_c, 9, 44, 0
1, 117024, Note_on_c, 4, 64, 65
1, 117024, Note_on_c, 9, 69, 33
1, 117028, Note_on_c, 9, 69, 0
1, 117028, Note_on_c, 4, 68, 65
1, 117072, Note_on_c, 4, 59, 0
1, 117078, Note_on_c, 4, 64, 0
1, 117082, Note_on_c, 4, 68, 0
1, 117094, Note_on_c, 1, 28, 0
1, 117118, Note_on_c, 9, 38, 123
1, 117118, Note_on_c, 9, 69, 37
1, 117120, Note_on_c, 8, 81, 75
1, 117122, Note_on_c, 9, 69, 0
1, 117122, Note_on_c, 9, 38, 0
1, 117124, Note_on_c, 9, 42, 50
1, 117126, Note_on_c, 9, 64, 80
1, 117128, Note_on_c, 9, 42, 0
1, 117130, Note_on_c, 9, 64, 0
1, 117208, Note_on_c, 8, 81, 0
1, 117208, Note_on_c, 9, 69, 30
1, 117212, Note_on_c, 9, 69, 0
1, 117222, Note_on_c, 9, 44, 56
1, 117226, Note_on_c, 9, 44, 0
1, 117302, Note_on_c, 13, 68, 112
1, 117304, Note_on_c, 1, 35, 117
1, 117306, Note_on_c, 9, 42, 53
1, 117308, Note_on_c, 5, 71, 73
1, 117310, Note_on_c, 9, 42, 0
1, 117312, Control_c, 14, 1, 28
1, 117312, Pitch_bend_c, 14, 7296
1, 117312, Control_c, 15, 1, 28
1, 117314, Note_on_c, 9, 69, 29
1, 117316, Note_on_c, 15, 71, 106
1, 117318, Note_on_c, 9, 69, 0
1, 117318, Note_on_c, 8, 80, 78
1, 117318, Note_on_c, 9, 36, 109
1, 117318, Note_on_c, 14, 80, 117
1, 117320, Pitch_bend_c, 14, 7360
1, 117322, Note_on_c, 9, 36, 0
1, 117322, Note_on_c, 13, 71, 104
1, 117324, Pitch_bend_c, 14, 7424
1, 117328, Pitch_bend_c, 14, 7488
1, 117332, Pitch_bend_c, 14, 7552
1, 117336, Pitch_bend_c, 14, 7616
1, 117340, Pitch_bend_c, 14, 7680
1, 117344, Pitch_bend_c, 14, 7744
1, 117348, Pitch_bend_c, 14, 7808
1, 117352, Pitch_bend_c, 14, 7872
1, 117356, Pitch_bend_c, 14, 7936
1, 117360, Pitch_bend_c, 14, 8000
1, 117364, Pitch_bend_c, 14, 8064
1, 117368, Pitch_bend_c, 14, 8128
1, 117372, Pitch_bend_c, 14, 8192
1, 117384, Note_on_c, 1, 35, 0
1, 117384, Note_on_c, 5, 71, 0
1, 117402, Note_on_c, 9, 69, 32
1, 117404, Note_on_c, 9, 44, 58
1, 117406, Note_on_c, 9, 69, 0
1, 117406, Note_on_c, 8, 80, 0
1, 117406, Note_on_c, 9, 36, 101
1, 117408, Note_on_c, 9, 44, 0
1, 117408, Note_on_c, 1, 40, 112
1, 117410, Note_on_c, 9, 36, 0
1, 117410, Note_on_c, 9, 63, 81
1, 117411, Control_c, 14, 1, 70
1, 117411, Control_c, 15, 1, 70
1, 117414, Note_on_c, 9, 63, 0
1, 117414, Note_on_c, 5, 71, 72
1, 117468, Note_on_c, 7, 64, 0
1, 117480, Note_on_c, 7, 76, 0
1, 117488, Note_on_c, 1, 40, 0
1, 117490, Note_on_c, 5, 71, 0
1, 117498, Note_on_c, 7, 59, 78
1, 117498, Note_on_c, 9, 69, 35
1, 117500, Note_on_c, 8, 78, 74
1, 117502, Note_on_c, 9, 69, 0
1, 117502, Note_on_c, 9, 42, 51
1, 117506, Note_on_c, 9, 42, 0
1, 117506, Note_on_c, 5, 71, 64
1, 117508, Note_on_c, 7, 71, 81
1, 117528, Control_c, 14, 1, 55
1, 117528, Control_c, 15, 1, 55
1, 117582, Note_on_c, 5, 71, 0
1, 117588, Note_on_c, 8, 78, 0
1, 117590, Note_on_c, 1, 35, 113
1, 117594, Note_on_c, 5, 71, 68
1, 117596, Note_on_c, 9, 69, 35
1, 117600, Note_on_c, 9, 69, 0
1, 117602, Note_on_c, 9, 62, 79
1, 117602, Note_on_c, 9, 44, 52
1, 117606, Note_on_c, 9, 44, 0
1, 117606, Note_on_c, 9, 62, 0
1, 117615, Control_c, 14, 1, 37
1, 117615, Control_c, 15, 1, 37
1, 117670, Note_on_c, 5, 71, 0
1, 117670, Note_on_c, 1, 35, 0
1, 117692, Note_on_c, 9, 42, 51
1, 117696, Note_on_c, 9, 42, 0
1, 117698, Note_on_c, 9, 69, 33
1, 117700, Note_on_c, 1, 40, 115
1, 117700, Note_on_c, 9, 64, 85
1, 117702, Note_on_c, 9, 69, 0
1, 117704, Note_on_c, 9, 64, 0
1, 117704, Note_on_c, 8, 76, 78
1, 117780, Note_on_c, 1, 40, 0
1, 117783, Control_c, 14, 1, 15
1, 117783, Control_c, 15, 1, 15
1, 117788, Note_on_c, 9, 69, 33
1, 117790, Note_on_c, 1, 35, 110
1, 117792, Note_on_c, 9, 69, 0
1, 117792, Note_on_c, 8, 76, 0
1, 117792, Note_on_c, 9, 44, 50
1, 117794, Note_on_c, 5, 76, 64
1, 117796, Note_on_c, 9, 44, 0
1, 117870, Note_on_c, 5, 76, 0
1, 117870, Note_on_c, 1, 35, 0
1, 117882, Note_on_c, 8, 78, 80
1, 117886, Note_on_c, 9, 42, 52
1, 117888, Note_on_c, 1, 28, 115
1, 117888, Note_on_c, 9, 38, 117
1, 117890, Note_on_c, 9, 42, 0
1, 117892, Note_on_c, 9, 38, 0
1, 117894, Note_on_c, 9, 69, 30
1, 117898, Note_on_c, 9, 69, 0
1, 117968, Note_on_c, 1, 28, 0
1, 117970, Note_on_c, 8, 78, 0
1, 117978, Note_on_c, 9, 44, 50
1, 117982, Note_on_c, 9, 44, 0
1, 117984, Note_on_c, 1, 40, 110
1, 117990, Note_on_c, 9, 69, 35
1, 117994, Note_on_c, 9, 69, 0
1, 118022, Note_on_c, 13, 68, 0
1, 118036, Note_on_c, 15, 71, 0
1, 118038, Note_on_c, 14, 80, 0
1, 118042, Note_on_c, 13, 71, 0
1, 118072, Note_on_c, 13, 68, 106
1, 118074, Note_on_c, 9, 42, 57
1, 118076, Note_on_c, 8, 80, 76
1, 118078, Note_on_c, 9, 42, 0
1, 118078, Note_on_c, 9, 69, 38
1, 118080, Control_c, 14, 1, 28
1, 118080, Note_on_c, 14, 80, 113
1, 118080, Control_c, 15, 1, 28
1, 118082, Note_on_c, 9, 69, 0
1, 118086, Note_on_c, 15, 71, 106
1, 118094, Note_on_c, 13, 71, 103
1, 118164, Note_on_c, 8, 80, 0
1, 118172, Note_on_c, 9, 44, 57
1, 118176, Note_on_c, 9, 44, 0
1, 118178, Note_on_c, 9, 69, 33
1, 118179, Control_c, 14, 1, 70
1, 118179, Control_c, 15, 1, 70
1, 118180, Note_on_c, 9, 36, 125
1, 118182, Note_on_c, 9, 69, 0
1, 118184, Note_on_c, 9, 36, 0
1, 118238, Note_on_c, 2, 68, 0
1, 118238, Note_on_c, 7, 59, 0
1, 118240, Note_on_c, 2, 59, 0
1, 118244, Note_on_c, 1, 40, 0
1, 118248, Note_on_c, 7, 71, 0
1, 118256, Note_on_c, 2, 64, 0
1, 118266, Note_on_c, 2, 64, 98
1, 118268, Note_on_c, 2, 68, 94
1, 118268, Note_on_c, 9, 42, 51
1, 118270, Note_on_c, 4, 64, 60
1, 118272, Note_on_c, 9, 42, 0
1, 118274, Note_on_c, 9, 63, 87
1, 118276, Note_on_c, 9, 36, 118
1, 118278, Note_on_c, 9, 63, 0
1, 118278, Note_on_c, 2, 59, 103
1, 118278, Note_on_c, 4, 59, 62
1, 118278, Note_on_c, 9, 69, 35
1, 118280, Note_on_c, 9, 36, 0
1, 118280, Note_on_c, 1, 37, 112
1, 118282, Note_on_c, 9, 69, 0
1, 118282, Note_on_c, 7, 68, 79
1, 118282, Note_on_c, 7, 80, 83
1, 118296, Control_c, 14, 1, 55
1, 118296, Control_c, 15, 1, 55
1, 118324, Note_on_c, 4, 64, 0
1, 118332, Note_on_c, 4, 59, 0
1, 118362, Note_on_c, 9, 69, 35
1, 118366, Note_on_c, 9, 69, 0
1, 118366, Note_on_c, 4, 68, 102
1, 118368, Note_on_c, 9, 63, 84
1, 118372, Note_on_c, 9, 63, 0
1, 118372, Note_on_c, 9, 44, 58
1, 118376, Note_on_c, 9, 44, 0
1, 118376, Note_on_c, 4, 59, 100
1, 118376, Note_on_c, 4, 64, 94
1, 118383, Control_c, 14, 1, 37
1, 118383, Control_c, 15, 1, 37
1, 118464, Note_on_c, 8, 83, 83
1, 118466, Note_on_c, 9, 69, 30
1, 118470, Note_on_c, 9, 69, 0
1, 118470, Note_on_c, 9, 42, 56
1, 118474, Note_on_c, 9, 42, 0
1, 118546, Note_on_c, 4, 68, 0
1, 118550, Note_on_c, 4, 68, 66
1, 118551, Control_c, 14, 1, 15
1, 118551, Control_c, 15, 1, 15
1, 118552, Note_on_c, 8, 83, 0
1, 118554, Note_on_c, 4, 59, 0
1, 118554, Note_on_c, 4, 59, 59
1, 118556, Note_on_c, 4, 64, 0
1, 118556, Note_on_c, 9, 69, 35
1, 118560, Note_on_c, 9, 69, 0
1, 118560, Note_on_c, 9, 46, 100
1, 118564, Note_on_c, 9, 46, 0
1, 118564, Note_on_c, 4, 64, 65
1, 118604, Note_on_c, 4, 68, 0
1, 118608, Note_on_c, 4, 59, 0
1, 118612, Note_on_c, 13, 68, 0
1, 118618, Note_on_c, 4, 64, 0
1, 118620, Note_on_c, 14, 80, 0
1, 118626, Note_on_c, 15, 71, 0
1, 118634, Note_on_c, 13, 71, 0
1, 118648, Note_on_c, 9, 38, 125
1, 118650, Note_on_c, 8, 81, 83
1, 118652, Note_on_c, 9, 38, 0
1, 118652, Note_on_c, 9, 42, 59
1, 118656, Note_on_c, 9, 42, 0
1, 118658, Note_on_c, 9, 69, 37
1, 118662, Note_on_c, 9, 69, 0
1, 118662, Note_on_c, 9, 64, 79
1, 118666, Note_on_c, 9, 64, 0
1, 118738, Note_on_c, 8, 81, 0
1, 118740, Note_on_c, 1, 37, 0
1, 118752, Note_on_c, 9, 69, 35
1, 118754, Note_on_c, 1, 32, 114
1, 118756, Note_on_c, 9, 69, 0
1, 118758, Note_on_c, 9, 44, 54
1, 118762, Note_on_c, 9, 44, 0
1, 118834, Note_on_c, 1, 32, 0
1, 118838, Note_on_c, 13, 68, 105
1, 118840, Note_on_c, 15, 68, 106
1, 118842, Note_on_c, 5, 71, 67
1, 118842, Note_on_c, 14, 71, 112
1, 118846, Note_on_c, 9, 42, 52
1, 118848, Note_on_c, 9, 69, 35
1, 118850, Note_on_c, 9, 42, 0
1, 118852, Note_on_c, 9, 69, 0
1, 118852, Note_on_c, 1, 37, 110
1, 118854, Note_on_c, 8, 80, 80
1, 118854, Note_on_c, 9, 36, 103
1, 118858, Note_on_c, 9, 36, 0
1, 118862, Note_on_c, 13, 59, 109
1, 118918, Note_on_c, 5, 71, 0
1, 118936, Note_on_c, 9, 63, 80
1, 118936, Note_on_c, 9, 69, 38
1, 118938, Note_on_c, 9, 44, 51
1, 118940, Note_on_c, 9, 69, 0
1, 118940, Note_on_c, 9, 63, 0
1, 118942, Note_on_c, 9, 44, 0
1, 118942, Note_on_c, 8, 80, 0
1, 118950, Note_on_c, 9, 36, 104
1, 118952, Note_on_c, 5, 71, 68
1, 118954, Note_on_c, 9, 36, 0
1, 119018, Note_on_c, 13, 68, 0
1, 119020, Note_on_c, 15, 68, 0
1, 119022, Note_on_c, 14, 71, 0
1, 119028, Note_on_c, 5, 71, 0
1, 119032, Note_on_c, 1, 37, 0
1, 119032, Note_on_c, 8, 78, 81
1, 119034, Note_on_c, 9, 42, 58
1, 119034, Note_on_c, 9, 69, 30
1, 119036, Note_on_c, 13, 68, 111
1, 119038, Note_on_c, 9, 69, 0
1, 119038, Note_on_c, 9, 42, 0
1, 119038, Note_on_c, 5, 71, 67
1, 119038, Note_on_c, 14, 76, 112
1, 119042, Note_on_c, 13, 59, 0
1, 119042, Note_on_c, 15, 68, 108
1, 119050, Note_on_c, 1, 37, 110
1, 119050, Note_on_c, 13, 64, 110
1, 119114, Note_on_c, 5, 71, 0
1, 119120, Note_on_c, 8, 78, 0
1, 119126, Note_on_c, 5, 71, 69
1, 119128, Note_on_c, 9, 62, 85
1, 119132, Note_on_c, 9, 62, 0
1, 119138, Note_on_c, 9, 44, 50
1, 119142, Note_on_c, 9, 44, 0
1, 119142, Note_on_c, 9, 69, 36
1, 119146, Note_on_c, 9, 69, 0
1, 119202, Note_on_c, 5, 71, 0
1, 119234, Note_on_c, 8, 76, 79
1, 119234, Note_on_c, 9, 42, 56
1, 119234, Note_on_c, 9, 64, 82
1, 119234, Note_on_c, 9, 69, 30
1, 119236, Note_on_c, 4, 68, 60
1, 119238, Note_on_c, 9, 69, 0
1, 119238, Note_on_c, 9, 64, 0
1, 119238, Note_on_c, 9, 42, 0
1, 119240, Note_on_c, 4, 64, 94
1, 119290, Note_on_c, 4, 68, 0
1, 119296, Note_on_c, 13, 68, 0
1, 119298, Note_on_c, 14, 76, 0
1, 119302, Note_on_c, 15, 68, 0
1, 119310, Note_on_c, 1, 37, 0
1, 119310, Note_on_c, 13, 64, 0
1, 119320, Note_on_c, 14, 78, 110
1, 119322, Note_on_c, 8, 76, 0
1, 119322, Note_on_c, 13, 66, 104
1, 119322, Note_on_c, 15, 69, 109
1, 119326, Note_on_c, 1, 37, 111
1, 119326, Note_on_c, 9, 69, 31
1, 119330, Note_on_c, 9, 69, 0
1, 119334, Note_on_c, 9, 44, 56
1, 119336, Note_on_c, 4, 69, 60
1, 119338, Note_on_c, 9, 44, 0
1, 119342, Note_on_c, 13, 69, 103
1, 119390, Note_on_c, 4, 69, 0
1, 119406, Note_on_c, 1, 37, 0
1, 119414, Note_on_c, 4, 68, 103
1, 119418, Note_on_c, 9, 42, 54
1, 119422, Note_on_c, 9, 42, 0
1, 119424, Note_on_c, 8, 78, 76
1, 119426, Note_on_c, 9, 38, 124
1, 119430, Note_on_c, 9, 38, 0
1, 119430, Note_on_c, 9, 69, 30
1, 119432, Note_on_c, 1, 35, 114
1, 119434, Note_on_c, 9, 69, 0
1, 119512, Note_on_c, 8, 78, 0
1, 119514, Note_on_c, 9, 69, 38
1, 119518, Note_on_c, 9, 69, 0
1, 119522, Note_on_c, 9, 44, 58
1, 119526, Note_on_c, 9, 44, 0
1, 119580, Note_on_c, 14, 78, 0
1, 119582, Note_on_c, 13, 66, 0
1, 119582, Note_on_c, 15, 69, 0
1, 119602, Note_on_c, 13, 69, 0
1, 119606, Note_on_c, 13, 68, 104
1, 119608, Note_on_c, 9, 69, 35
1, 119608, Note_on_c, 14, 80, 116
1, 119612, Note_on_c, 9, 69, 0
1, 119612, Note_on_c, 1, 35, 0
1, 119616, Note_on_c, 15, 71, 112
1, 119622, Note_on_c, 9, 42, 57
1, 119622, Note_on_c, 13, 71, 109
1, 119624, Note_on_c, 8, 80, 79
1, 119626, Note_on_c, 9, 42, 0
1, 119628, Note_on_c, 1, 37, 116
1, 119710, Note_on_c, 9, 69, 29
1, 119712, Note_on_c, 8, 80, 0
1, 119714, Note_on_c, 9, 69, 0
1, 119716, Note_on_c, 9, 36, 118
1, 119718, Note_on_c, 9, 44, 52
1, 119720, Note_on_c, 9, 36, 0
1, 119722, Note_on_c, 9, 44, 0
1, 119774, Note_on_c, 4, 68, 0
1, 119778, Note_on_c, 2, 64, 0
1, 119780, Note_on_c, 2, 68, 0
1, 119782, Note_on_c, 7, 68, 0
1, 119782, Note_on_c, 7, 80, 0
1, 119786, Note_on_c, 13, 68, 0
1, 119788, Note_on_c, 14, 80, 0
1, 119790, Note_on_c, 2, 59, 0
1, 119792, Note_on_c, 6, 59, 0
1, 119796, Note_on_c, 15, 71, 0
1, 119798, Note_on_c, 6, 64, 0
1, 119798, Note_on_c, 2, 57, 96
1, 119798, Note_on_c, 4, 62, 64
1, 119800, Note_on_c, 4, 64, 0
1, 119802, Note_on_c, 13, 71, 0
1, 119802, Note_on_c, 2, 66, 102
1, 119802, Note_on_c, 13, 73, 110
1, 119804, Note_on_c, 4, 57, 63
1, 119804, Note_on_c, 7, 81, 74
1, 119804, Note_on_c, 9, 69, 33
1, 119804, Note_on_c, 14, 81, 116
1, 119806, Note_on_c, 13, 69, 105
1, 119808, Note_on_c, 9, 69, 0
1, 119808, Note_on_c, 1, 37, 0
1, 119808, Note_on_c, 6, 56, 0
1, 119808, Note_on_c, 6, 57, 64
1, 119808, Pitch_bend_c, 14, 7296
1, 119810, Note_on_c, 6, 54, 72
1, 119810, Note_on_c, 9, 36, 120
1, 119810, Note_on_c, 9, 63, 82
1, 119810, Note_on_c, 15, 73, 107
1, 119814, Note_on_c, 9, 63, 0
1, 119814, Note_on_c, 9, 36, 0
1, 119814, Note_on_c, 1, 38, 113
1, 119814, Note_on_c, 6, 62, 71
1, 119814, Note_on_c, 7, 69, 81
1, 119814, Note_on_c, 9, 42, 59
1, 119816, Note_on_c, 2, 62, 94
1, 119816, Pitch_bend_c, 14, 7360
1, 119818, Note_on_c, 9, 42, 0
1, 119820, Pitch_bend_c, 14, 7424
1, 119824, Pitch_bend_c, 14, 7488
1, 119828, Pitch_bend_c, 14, 7552
1, 119832, Pitch_bend_c, 14, 7616
1, 119836, Pitch_bend_c, 14, 7680
1, 119840, Pitch_bend_c, 14, 7744
1, 119844, Pitch_bend_c, 14, 7808
1, 119848, Pitch_bend_c, 14, 7872
1, 119852, Note_on_c, 4, 62, 0
1, 119852, Pitch_bend_c, 14, 7936
1, 119856, Pitch_bend_c, 14, 8000
1, 119858, Note_on_c, 4, 57, 0
1, 119860, Pitch_bend_c, 14, 8064
1, 119864, Pitch_bend_c, 14, 8128
1, 119868, Pitch_bend_c, 14, 8192
1, 119882, Note_on_c, 13, 73, 0
1, 119886, Note_on_c, 13, 69, 0
1, 119896, Note_on_c, 9, 63, 86
1, 119898, Note_on_c, 4, 62, 96
1, 119898, Note_on_c, 13, 71, 109
1, 119900, Note_on_c, 9, 63, 0
1, 119900, Note_on_c, 15, 71, 103
1, 119904, Note_on_c, 4, 66, 101
1, 119906, Note_on_c, 9, 44, 54
1, 119908, Note_on_c, 14, 81, 0
1, 119910, Note_on_c, 9, 44, 0
1, 119910, Note_on_c, 9, 69, 36
1, 119910, Note_on_c, 14, 80, 114
1, 119912, Note_on_c, 4, 57, 99
1, 119914, Note_on_c, 9, 69, 0
1, 119914, Note_on_c, 15, 73, 0
1, 119920, Note_on_c, 13, 68, 108
1, 119978, Note_on_c, 13, 71, 0
1, 119996, Note_on_c, 15, 69, 105
1, 119998, Note_on_c, 9, 42, 55
1, 120000, Note_on_c, 13, 68, 0
1, 120000, Control_c, 14, 1, 28
1, 120002, Note_on_c, 9, 42, 0
1, 120002, Note_on_c, 13, 69, 108
1, 120002, Note_on_c, 14, 78, 118
1, 120004, Note_on_c, 15, 71, 0
1, 120004, Note_on_c, 13, 66, 108
1, 120006, Note_on_c, 8, 81, 74
1, 120006, Note_on_c, 9, 69, 29
1, 120010, Note_on_c, 9, 69, 0
1, 120014, Note_on_c, 14, 80, 0
1, 120078, Note_on_c, 4, 62, 0
1, 120084, Note_on_c, 4, 66, 0
1, 120086, Note_on_c, 4, 57, 0
1, 120086, Note_on_c, 4, 57, 61
1, 120094, Note_on_c, 8, 81, 0
1, 120099, Control_c, 14, 1, 70
1, 120100, Note_on_c, 4, 62, 67
1, 120100, Note_on_c, 9, 46, 103
1, 120102, Note_on_c, 4, 66, 61
1, 120102, Note_on_c, 9, 69, 33
1, 120104, Note_on_c, 9, 46, 0
1, 120106, Note_on_c, 9, 69, 0
1, 120140, Note_on_c, 4, 57, 0
1, 120154, Note_on_c, 4, 62, 0
1, 120156, Note_on_c, 4, 66, 0
1, 120174, Note_on_c, 1, 38, 0
1, 120186, Note_on_c, 9, 69, 30
1, 120188, Note_on_c, 9, 64, 83
1, 120190, Note_on_c, 9, 69, 0
1, 120192, Note_on_c, 9, 64, 0
1, 120192, Note_on_c, 9, 42, 50
1, 120194, Note_on_c, 8, 80, 79
1, 120194, Note_on_c, 9, 38, 124
1, 120196, Note_on_c, 9, 42, 0
1, 120196, Note_on_c, 1, 38, 114
1, 120198, Note_on_c, 9, 38, 0
1, 120216, Control_c, 14, 1, 55
1, 120276, Note_on_c, 1, 38, 0
1, 120278, Note_on_c, 1, 33, 115
1, 120282, Note_on_c, 8, 80, 0
1, 120294, Note_on_c, 9, 44, 56
1, 120294, Note_on_c, 9, 69, 38
1, 120298, Note_on_c, 9, 69, 0
1, 120298, Note_on_c, 9, 44, 0
1, 120303, Control_c, 14, 1, 37
1, 120356, Note_on_c, 15, 69, 0
1, 120358, Note_on_c, 1, 33, 0
1, 120372, Note_on_c, 1, 38, 117
1, 120378, Note_on_c, 9, 42, 55
1, 120378, Note_on_c, 9, 69, 36
1, 120382, Note_on_c, 9, 69, 0
1, 120382, Note_on_c, 9, 42, 0
1, 120382, Note_on_c, 5, 74, 70
1, 120386, Note_on_c, 9, 36, 109
1, 120390, Note_on_c, 9, 36, 0
1, 120390, Note_on_c, 8, 78, 81
1, 120458, Note_on_c, 5, 74, 0
1, 120470, Note_on_c, 5, 74, 69
1, 120471, Control_c, 14, 1, 15
1, 120472, Note_on_c, 9, 44, 57
1, 120476, Note_on_c, 9, 44, 0
1, 120476, Note_on_c, 9, 63, 87
1, 120478, Note_on_c, 8, 78, 0
1, 120480, Note_on_c, 9, 63, 0
1, 120480, Note_on_c, 9, 36, 108
1, 120484, Note_on_c, 9, 36, 0
1, 120484, Note_on_c, 9, 69, 32
1, 120488, Note_on_c, 9, 69, 0
1, 120542, Note_on_c, 13, 69, 0
1, 120542, Note_on_c, 14, 78, 0
1, 120544, Note_on_c, 13, 66, 0
1, 120546, Note_on_c, 5, 74, 0
1, 120552, Note_on_c, 1, 38, 0
1, 120566, Note_on_c, 8, 76, 77
1, 120574, Note_on_c, 1, 38, 109
1, 120580, Note_on_c, 9, 42, 54
1, 120582, Note_on_c, 9, 69, 33
1, 120584, Note_on_c, 9, 42, 0
1, 120584, Note_on_c, 5, 69, 64
1, 120586, Note_on_c, 9, 69, 0
1, 120654, Note_on_c, 8, 76, 0
1, 120660, Note_on_c, 5, 69, 0
1, 120666, Note_on_c, 9, 62, 86
1, 120670, Note_on_c, 9, 62, 0
1, 120678, Note_on_c, 9, 69, 36
1, 120678, Note_on_c, 9, 44, 59
1, 120682, Note_on_c, 9, 44, 0
1, 120682, Note_on_c, 9, 69, 0
1, 120754, Note_on_c, 1, 38, 0
1, 120760, Note_on_c, 8, 75, 83
1, 120760, Note_on_c, 14, 71, 110
1, 120762, Note_on_c, 5, 71, 65
1, 120766, Note_on_c, 9, 64, 82
1, 120768, Note_on_c, 15, 59, 104
1, 120770, Note_on_c, 9, 64, 0
1, 120772, Note_on_c, 9, 69, 36
1, 120774, Note_on_c, 9, 42, 50
1, 120776, Note_on_c, 9, 69, 0
1, 120778, Note_on_c, 9, 42, 0
1, 120778, Note_on_c, 13, 59, 106
1, 120838, Note_on_c, 5, 71, 0
1, 120848, Note_on_c, 8, 75, 0
1, 120850, Note_on_c, 1, 35, 113
1, 120854, Note_on_c, 4, 57, 59
1, 120858, Note_on_c, 9, 44, 51
1, 120858, Note_on_c, 9, 69, 31
1, 120860, Note_on_c, 4, 66, 65
1, 120862, Note_on_c, 9, 69, 0
1, 120862, Note_on_c, 9, 44, 0
1, 120872, Note_on_c, 4, 62, 68
1, 120872, Note_on_c, 5, 71, 67
1, 120908, Note_on_c, 4, 57, 0
1, 120914, Note_on_c, 4, 66, 0
1, 120926, Note_on_c, 4, 62, 0
1, 120930, Note_on_c, 1, 35, 0
1, 120940, Note_on_c, 14, 71, 0
1, 120948, Note_on_c, 5, 71, 0
1, 120948, Note_on_c, 15, 59, 0
1, 120952, Note_on_c, 5, 64, 66
1, 120954, Note_on_c, 8, 76, 83
1, 120954, Note_on_c, 9, 38, 116
1, 120956, Note_on_c, 9, 42, 58
1, 120958, Note_on_c, 9, 38, 0
1, 120958, Note_on_c, 13, 59, 0
1, 120960, Note_on_c, 9, 42, 0
1, 120962, Note_on_c, 1, 38, 114
1, 120964, Note_on_c, 13, 59, 111
1, 120964, Note_on_c, 14, 71, 113
1, 120964, Note_on_c, 15, 59, 107
1, 120966, Note_on_c, 9, 69, 36
1, 120970, Note_on_c, 9, 69, 0
1, 121028, Note_on_c, 5, 64, 0
1, 121042, Note_on_c, 8, 76, 0
1, 121056, Note_on_c, 1, 38, 0
1, 121056, Note_on_c, 1, 38, 118
1, 121056, Note_on_c, 5, 64, 70
1, 121056, Note_on_c, 9, 69, 31
1, 121060, Note_on_c, 9, 69, 0
1, 121060, Note_on_c, 9, 44, 57
1, 121064, Note_on_c, 9, 44, 0
1, 121132, Note_on_c, 5, 64, 0
1, 121144, Note_on_c, 14, 71, 0
1, 121144, Note_on_c, 13, 59, 0
1, 121144, Note_on_c, 15, 59, 0
1, 121144, Note_on_c, 9, 42, 52
1, 121146, Note_on_c, 14, 81, 117
1, 121148, Note_on_c, 9, 42, 0
1, 121148, Note_on_c, 8, 78, 75
1, 121148, Note_on_c, 15, 73, 106
1, 121152, Note_on_c, 1, 38, 0
1, 121152, Control_c, 14, 1, 28
1, 121152, Pitch_bend_c, 14, 7296
1, 121152, Control_c, 15, 1, 28
1, 121152, Pitch_bend_c, 15, 7296
1, 121154, Note_on_c, 5, 64, 65
1, 121156, Note_on_c, 9, 69, 37
1, 121160, Note_on_c, 9, 69, 0
1, 121160, Note_on_c, 13, 73, 105
1, 121160, Pitch_bend_c, 14, 7360
1, 121160, Pitch_bend_c, 15, 7360
1, 121164, Note_on_c, 1, 35, 118
1, 121164, Note_on_c, 13, 69, 103
1, 121164, Pitch_bend_c, 14, 7424
1, 121164, Pitch_bend_c, 15, 7424
1, 121168, Pitch_bend_c, 14, 7488
1, 121168, Pitch_bend_c, 15, 7488
1, 121172, Pitch_bend_c, 14, 7552
1, 121172, Pitch_bend_c, 15, 7552
1, 121176, Pitch_bend_c, 14, 7616
1, 121176, Pitch_bend_c, 15, 7616
1, 121180, Pitch_bend_c, 14, 7680
1, 121180, Pitch_bend_c, 15, 7680
1, 121184, Pitch_bend_c, 14, 7744
1, 121184, Pitch_bend_c, 15, 7744
1, 121188, Pitch_bend_c, 14, 7808
1, 121188, Pitch_bend_c, 15, 7808
1, 121192, Pitch_bend_c, 14, 7872
1, 121192, Pitch_bend_c, 15, 7872
1, 121196, Pitch_bend_c, 14, 7936
1, 121196, Pitch_bend_c, 15, 7936
1, 121200, Pitch_bend_c, 14, 8000
1, 121200, Pitch_bend_c, 15, 8000
1, 121204, Pitch_bend_c, 14, 8064
1, 121204, Pitch_bend_c, 15, 8064
1, 121208, Pitch_bend_c, 14, 8128
1, 121208, Pitch_bend_c, 15, 8128
1, 121212, Pitch_bend_c, 14, 8192
1, 121212, Pitch_bend_c, 15, 8192
1, 121230, Note_on_c, 5, 64, 0
1, 121236, Note_on_c, 8, 78, 0
1, 121244, Note_on_c, 1, 35, 0
1, 121244, Note_on_c, 1, 33, 111
1, 121244, Note_on_c, 9, 44, 55
1, 121246, Note_on_c, 9, 69, 29
1, 121248, Note_on_c, 9, 44, 0
1, 121250, Note_on_c, 9, 69, 0
1, 121251, Control_c, 14, 1, 70
1, 121251, Control_c, 15, 1, 70
1, 121254, Note_on_c, 9, 36, 120
1, 121258, Note_on_c, 9, 36, 0
1, 121310, Note_on_c, 2, 57, 0
1, 121314, Note_on_c, 2, 66, 0
1, 121324, Note_on_c, 1, 33, 0
1, 121328, Note_on_c, 2, 62, 0
1, 121336, Note_on_c, 2, 62, 98
1, 121336, Note_on_c, 9, 42, 53
1, 121340, Note_on_c, 9, 42, 0
1, 121340, Note_on_c, 2, 66, 99
1, 121342, Note_on_c, 4, 62, 68
1, 121344, Note_on_c, 2, 57, 98
1, 121344, Note_on_c, 9, 36, 122
1, 121346, Note_on_c, 1, 38, 115
1, 121346, Note_on_c, 9, 63, 86
1, 121348, Note_on_c, 9, 36, 0
1, 121348, Note_on_c, 9, 69, 35
1, 121350, Note_on_c, 9, 63, 0
1, 121352, Note_on_c, 9, 69, 0
1, 121352, Note_on_c, 4, 57, 59
1, 121368, Control_c, 14, 1, 55
1, 121368, Control_c, 15, 1, 55
1, 121396, Note_on_c, 4, 62, 0
1, 121406, Note_on_c, 4, 57, 0
1, 121430, Note_on_c, 4, 62, 95
1, 121432, Note_on_c, 9, 44, 56
1, 121436, Note_on_c, 9, 44, 0
1, 121436, Note_on_c, 4, 57, 102
1, 121436, Note_on_c, 9, 63, 82
1, 121438, Note_on_c, 9, 69, 29
1, 121440, Note_on_c, 9, 63, 0
1, 121442, Note_on_c, 9, 69, 0
1, 121448, Note_on_c, 4, 66, 95
1, 121455, Control_c, 14, 1, 37
1, 121455, Control_c, 15, 1, 37
1, 121534, Note_on_c, 9, 42, 57
1, 121534, Note_on_c, 9, 69, 36
1, 121536, Note_on_c, 8, 81, 77
1, 121538, Note_on_c, 9, 69, 0
1, 121538, Note_on_c, 9, 42, 0
1, 121610, Note_on_c, 4, 62, 0
1, 121616, Note_on_c, 4, 57, 0
1, 121622, Note_on_c, 4, 66, 0
1, 121622, Note_on_c, 4, 57, 67
1, 121622, Note_on_c, 4, 66, 65
1, 121623, Control_c, 14, 1, 15
1, 121623, Control_c, 15, 1, 15
1, 121624, Note_on_c, 8, 81, 0
1, 121626, Note_on_c, 9, 46, 106
1, 121630, Note_on_c, 9, 46, 0
1, 121630, Note_on_c, 4, 62, 63
1, 121632, Note_on_c, 9, 69, 29
1, 121636, Note_on_c, 9, 69, 0
1, 121676, Note_on_c, 4, 66, 0
1, 121676, Note_on_c, 4, 57, 0
1, 121684, Note_on_c, 4, 62, 0
1, 121686, Note_on_c, 14, 81, 0
1, 121688, Note_on_c, 15, 73, 0
1, 121700, Note_on_c, 13, 73, 0
1, 121704, Note_on_c, 13, 69, 0
1, 121706, Note_on_c, 1, 38, 0
1, 121720, Note_on_c, 13, 69, 108
1, 121720, Note_on_c, 15, 73, 112
1, 121722, Note_on_c, 9, 69, 37
1, 121726, Note_on_c, 9, 69, 0
1, 121726, Note_on_c, 1, 38, 113
1, 121728, Note_on_c, 9, 42, 59
1, 121728, Note_on_c, 13, 73, 109
1, 121728, Note_on_c, 14, 81, 110
1, 121732, Note_on_c, 9, 42, 0
1, 121732, Note_on_c, 9, 38, 116
1, 121734, Note_on_c, 9, 64, 83
1, 121736, Note_on_c, 9, 38, 0
1, 121736, Note_on_c, 8, 80, 81
1, 121738, Note_on_c, 9, 64, 0
1, 121806, Note_on_c, 1, 38, 0
1, 121812, Note_on_c, 1, 33, 114
1, 121818, Note_on_c, 9, 44, 53
1, 121822, Note_on_c, 9, 44, 0
1, 121822, Note_on_c, 9, 69, 38
1, 121824, Note_on_c, 8, 80, 0
1, 121826, Note_on_c, 9, 69, 0
1, 121892, Note_on_c, 1, 33, 0
1, 121900, Note_on_c, 15, 73, 0
1, 121900, Note_on_c, 13, 69, 0
1, 121908, Note_on_c, 13, 73, 0
1, 121908, Note_on_c, 14, 81, 0
1, 121910, Note_on_c, 13, 68, 110
1, 121912, Note_on_c, 1, 38, 110
1, 121912, Note_on_c, 9, 36, 102
1, 121916, Note_on_c, 9, 36, 0
1, 121916, Note_on_c, 8, 78, 74
1, 121920, Note_on_c, 9, 42, 58
1, 121920, Note_on_c, 9, 69, 36
1, 121922, Note_on_c, 13, 71, 108
1, 121924, Note_on_c, 9, 69, 0
1, 121924, Note_on_c, 9, 42, 0
1, 121924, Note_on_c, 15, 71, 103
1, 121926, Note_on_c, 14, 80, 111
1, 122004, Note_on_c, 8, 78, 0
1, 122008, Note_on_c, 9, 44, 51
1, 122010, Note_on_c, 9, 69, 37
1, 122012, Note_on_c, 9, 44, 0
1, 122014, Note_on_c, 9, 69, 0
1, 122018, Note_on_c, 9, 36, 101
1, 122022, Note_on_c, 9, 36, 0
1, 122022, Note_on_c, 9, 63, 82
1, 122024, Note_on_c, 4, 52, 102
1, 122026, Note_on_c, 9, 63, 0
1, 122092, Note_on_c, 1, 38, 0
1, 122110, Note_on_c, 1, 38, 115
1, 122112, Note_on_c, 9, 42, 50
1, 122116, Note_on_c, 9, 42, 0
1, 122118, Note_on_c, 9, 69, 31
1, 122120, Note_on_c, 8, 76, 78
1, 122122, Note_on_c, 9, 69, 0
1, 122204, Note_on_c, 4, 52, 0
1, 122206, Note_on_c, 4, 52, 68
1, 122206, Note_on_c, 9, 62, 79
1, 122208, Note_on_c, 8, 76, 0
1, 122210, Note_on_c, 9, 62, 0
1, 122214, Note_on_c, 9, 69, 36
1, 122214, Note_on_c, 9, 44, 57
1, 122218, Note_on_c, 9, 44, 0
1, 122218, Note_on_c, 9, 69, 0
1, 122260, Note_on_c, 4, 52, 0
1, 122270, Note_on_c, 13, 68, 0
1, 122282, Note_on_c, 13, 71, 0
1, 122284, Note_on_c, 15, 71, 0
1, 122286, Note_on_c, 14, 80, 0
1, 122302, Note_on_c, 9, 69, 35
1, 122304, Note_on_c, 4, 54, 103
1, 122304, Note_on_c, 8, 75, 79
1, 122304, Note_on_c, 9, 64, 83
1, 122304, Note_on_c, 14, 78, 110
1, 122306, Note_on_c, 9, 69, 0
1, 122306, Note_on_c, 13, 69, 103
1, 122308, Note_on_c, 9, 64, 0
1, 122308, Note_on_c, 9, 42, 54
1, 122308, Note_on_c, 15, 69, 108
1, 122312, Note_on_c, 9, 42, 0
1, 122320, Note_on_c, 13, 66, 107
1, 122392, Note_on_c, 8, 75, 0
1, 122394, Note_on_c, 9, 69, 37
1, 122398, Note_on_c, 9, 69, 0
1, 122406, Note_on_c, 9, 44, 50
1, 122410, Note_on_c, 9, 44, 0
1, 122456, Note_on_c, 2, 62, 0
1, 122460, Note_on_c, 2, 66, 0
1, 122464, Note_on_c, 2, 57, 0
1, 122470, Note_on_c, 1, 38, 0
1, 122484, Note_on_c, 4, 54, 0
1, 122484, Note_on_c, 14, 78, 0
1, 122486, Note_on_c, 13, 69, 0
1, 122486, Note_on_c, 8, 76, 81
1, 122486, Note_on_c, 13, 64, 109
1, 122488, Note_on_c, 15, 69, 0
1, 122488, Note_on_c, 2, 62, 95
1, 122488, Note_on_c, 9, 38, 117
1, 122490, Note_on_c, 2, 57, 101
1, 122490, Note_on_c, 15, 68, 103
1, 122492, Note_on_c, 9, 38, 0
1, 122494, Note_on_c, 4, 56, 101
1, 122496, Note_on_c, 9, 42, 55
1, 122498, Note_on_c, 9, 69, 33
1, 122500, Note_on_c, 9, 42, 0
1, 122500, Note_on_c, 13, 66, 0
1, 122500, Note_on_c, 1, 33, 115
1, 122502, Note_on_c, 9, 69, 0
1, 122502, Note_on_c, 14, 76, 113
1, 122504, Note_on_c, 2, 66, 101
1, 122506, Note_on_c, 13, 68, 109
1, 122574, Note_on_c, 8, 76, 0
1, 122586, Note_on_c, 9, 69, 32
1, 122590, Note_on_c, 9, 69, 0
1, 122590, Note_on_c, 1, 35, 114
1, 122592, Note_on_c, 9, 44, 56
1, 122596, Note_on_c, 9, 44, 0
1, 122596, Note_on_c, 1, 33, 0
1, 122666, Note_on_c, 13, 64, 0
1, 122670, Note_on_c, 15, 68, 0
1, 122674, Note_on_c, 4, 56, 0
1, 122678, Note_on_c, 4, 59, 100
1, 122678, Note_on_c, 13, 66, 107
1, 122680, Note_on_c, 15, 69, 107
1, 122682, Note_on_c, 14, 76, 0
1, 122684, Note_on_c, 9, 42, 53
1, 122684, Note_on_c, 14, 78, 116
1, 122686, Note_on_c, 13, 68, 0
1, 122686, Note_on_c, 1, 35, 0
1, 122688, Note_on_c, 9, 42, 0
1, 122688, Note_on_c, 8, 78, 74
1, 122688, Note_on_c, 9, 69, 35
1, 122692, Note_on_c, 9, 69, 0
1, 122700, Note_on_c, 1, 38, 114
1, 122704, Note_on_c, 13, 69, 107
1, 122776, Note_on_c, 8, 78, 0
1, 122776, Note_on_c, 9, 44, 51
1, 122780, Note_on_c, 9, 44, 0
1, 122780, Note_on_c, 1, 38, 0
1, 122786, Note_on_c, 1, 40, 117
1, 122786, Note_on_c, 9, 69, 37
1, 122788, Note_on_c, 9, 36, 124
1, 122790, Note_on_c, 9, 69, 0
1, 122792, Note_on_c, 9, 36, 0
1, 122848, Note_on_c, 2, 62, 0
1, 122850, Note_on_c, 2, 57, 0
1, 122858, Note_on_c, 4, 59, 0
1, 122858, Note_on_c, 13, 66, 0
1, 122860, Note_on_c, 15, 69, 0
1, 122864, Note_on_c, 14, 78, 0
1, 122864, Note_on_c, 2, 66, 0
1, 122866, Note_on_c, 1, 40, 0
1, 122866, Note_on_c, 6, 56, 69
1, 122868, Note_on_c, 6, 57, 0
1, 122870, Note_on_c, 6, 54, 0
1, 122872, Note_on_c, 4, 59, 60
1, 122872, Note_on_c, 9, 69, 30
1, 122874, Note_on_c, 6, 62, 0
1, 122874, Note_on_c, 2, 59, 98
1, 122874, Note_on_c, 6, 64, 67
1, 122874, Note_on_c, 9, 42, 57
1, 122874, Note_on_c, 15, 68, 108
1, 122876, Note_on_c, 9, 69, 0
1, 122878, Note_on_c, 9, 42, 0
1, 122878, Note_on_c, 9, 36, 117
1, 122878, Note_on_c, 13, 64, 110
1, 122880, Note_on_c, 9, 63, 81
1, 122880, Control_c, 14, 1, 28
1, 122880, Control_c, 15, 1, 28
1, 122882, Note_on_c, 9, 36, 0
1, 122882, Note_on_c, 1, 28, 110
1, 122882, Note_on_c, 2, 68, 98
1, 122884, Note_on_c, 9, 63, 0
1, 122884, Note_on_c, 13, 69, 0
1, 122884, Note_on_c, 2, 64, 98
1, 122884, Note_on_c, 4, 64, 60
1, 122884, Note_on_c, 14, 76, 113
1, 122890, Note_on_c, 6, 59, 73
1, 122892, Note_on_c, 13, 68, 105
1, 122926, Note_on_c, 4, 59, 0
1, 122938, Note_on_c, 4, 64, 0
1, 122944, Note_on_c, 7, 81, 0
1, 122954, Note_on_c, 7, 69, 0
1, 122966, Note_on_c, 4, 68, 99
1, 122970, Note_on_c, 4, 59, 102
1, 122972, Note_on_c, 9, 63, 86
1, 122976, Note_on_c, 9, 63, 0
1, 122976, Note_on_c, 4, 52, 97
1, 122978, Note_on_c, 9, 44, 59
1, 122978, Note_on_c, 9, 69, 36
1, 122979, Control_c, 14, 1, 70
1, 122979, Control_c, 15, 1, 70
1, 122982, Note_on_c, 9, 69, 0
1, 122982, Note_on_c, 9, 44, 0
1, 123068, Note_on_c, 9, 69, 37
1, 123072, Note_on_c, 9, 69, 0
1, 123074, Note_on_c, 9, 42, 58
1, 123078, Note_on_c, 9, 42, 0
1, 123078, Note_on_c, 8, 83, 81
1, 123096, Control_c, 14, 1, 55
1, 123096, Control_c, 15, 1, 55
1, 123146, Note_on_c, 4, 68, 0
1, 123150, Note_on_c, 4, 59, 0
1, 123156, Note_on_c, 4, 52, 0
1, 123166, Note_on_c, 8, 83, 0
1, 123166, Note_on_c, 4, 68, 59
1, 123170, Note_on_c, 4, 52, 67
1, 123170, Note_on_c, 4, 59, 65
1, 123172, Note_on_c, 9, 46, 102
1, 123174, Note_on_c, 9, 69, 31
1, 123176, Note_on_c, 9, 46, 0
1, 123178, Note_on_c, 9, 69, 0
1, 123183, Control_c, 14, 1, 37
1, 123183, Control_c, 15, 1, 37
1, 123220, Note_on_c, 4, 68, 0
1, 123224, Note_on_c, 4, 52, 0
1, 123224, Note_on_c, 4, 59, 0
1, 123234, Note_on_c, 15, 68, 0
1, 123238, Note_on_c, 13, 64, 0
1, 123242, Note_on_c, 1, 28, 0
1, 123244, Note_on_c, 14, 76, 0
1, 123252, Note_on_c, 13, 68, 0
1, 123254, Note_on_c, 7, 83, 82
1, 123256, Note_on_c, 9, 42, 54
1, 123256, Note_on_c, 9, 64, 81
1, 123260, Note_on_c, 9, 64, 0
1, 123260, Note_on_c, 9, 42, 0
1, 123264, Note_on_c, 9, 69, 34
1, 123266, Note_on_c, 9, 38, 116
1, 123268, Note_on_c, 9, 69, 0
1, 123268, Note_on_c, 8, 81, 76
1, 123270, Note_on_c, 9, 38, 0
1, 123276, Note_on_c, 7, 71, 80
1, 123351, Control_c, 14, 1, 15
1, 123351, Control_c, 15, 1, 15
1, 123356, Note_on_c, 8, 81, 0
1, 123356, Note_on_c, 9, 44, 57
1, 123360, Note_on_c, 9, 44, 0
1, 123364, Note_on_c, 9, 69, 34
1, 123368, Note_on_c, 9, 69, 0
1, 123450, Note_on_c, 9, 36, 101
1, 123450, Note_on_c, 9, 42, 52
1, 123454, Note_on_c, 9, 42, 0
1, 123454, Note_on_c, 9, 36, 0
1, 123454, Note_on_c, 5, 71, 70
1, 123454, Note_on_c, 9, 69, 36
1, 123458, Note_on_c, 9, 69, 0
1, 123458, Note_on_c, 8, 80, 76
1, 123460, Note_on_c, 1, 28, 113
1, 123530, Note_on_c, 5, 71, 0
1, 123540, Note_on_c, 1, 28, 0
1, 123546, Note_on_c, 8, 80, 0
1, 123550, Note_on_c, 9, 36, 107
1, 123554, Note_on_c, 9, 36, 0
1, 123554, Note_on_c, 9, 69, 37
1, 123556, Note_on_c, 5, 71, 73
1, 123556, Note_on_c, 9, 44, 57
1, 123558, Note_on_c, 9, 69, 0
1, 123558, Note_on_c, 9, 63, 84
1, 123560, Note_on_c, 9, 44, 0
1, 123562, Note_on_c, 9, 63, 0
1, 123564, Note_on_c, 1, 28, 113
1, 123614, Note_on_c, 7, 83, 0
1, 123632, Note_on_c, 5, 71, 0
1, 123636, Note_on_c, 7, 71, 0
1, 123640, Note_on_c, 7, 81, 75
1, 123642, Note_on_c, 8, 78, 81
1, 123644, Note_on_c, 1, 28, 0
1, 123646, Note_on_c, 5, 71, 68
1, 123648, Note_on_c, 9, 42, 51
1, 123652, Note_on_c, 9, 42, 0
1, 123654, Note_on_c, 9, 69, 37
1, 123656, Note_on_c, 1, 40, 118
1, 123656, Note_on_c, 7, 69, 76
1, 123658, Note_on_c, 9, 69, 0
1, 123722, Note_on_c, 5, 71, 0
1, 123730, Note_on_c, 8, 78, 0
1, 123738, Note_on_c, 5, 71, 70
1, 123738, Note_on_c, 9, 44, 58
1, 123742, Note_on_c, 9, 44, 0
1, 123742, Note_on_c, 9, 69, 34
1, 123744, Note_on_c, 9, 62, 81
1, 123746, Note_on_c, 9, 69, 0
1, 123748, Note_on_c, 9, 62, 0
1, 123814, Note_on_c, 5, 71, 0
1, 123830, Note_on_c, 8, 76, 74
1, 123834, Note_on_c, 9, 42, 58
1, 123834, Note_on_c, 15, 59, 106
1, 123836, Note_on_c, 14, 71, 116
1, 123838, Note_on_c, 9, 42, 0
1, 123838, Note_on_c, 9, 69, 37
1, 123840, Note_on_c, 9, 64, 83
1, 123842, Note_on_c, 9, 69, 0
1, 123844, Note_on_c, 9, 64, 0
1, 123846, Note_on_c, 13, 59, 103
1, 123916, Note_on_c, 1, 40, 0
1, 123918, Note_on_c, 8, 76, 0
1, 123928, Note_on_c, 4, 68, 61
1, 123930, Note_on_c, 4, 59, 66
1, 123932, Note_on_c, 4, 52, 67
1, 123934, Note_on_c, 1, 28, 112
1, 123934, Note_on_c, 5, 76, 69
1, 123938, Note_on_c, 9, 44, 56
1, 123938, Note_on_c, 9, 69, 31
1, 123942, Note_on_c, 9, 69, 0
1, 123942, Note_on_c, 9, 44, 0
1, 123982, Note_on_c, 4, 68, 0
1, 123984, Note_on_c, 4, 59, 0
1, 123986, Note_on_c, 4, 52, 0
1, 124000, Note_on_c, 7, 81, 0
1, 124010, Note_on_c, 5, 76, 0
1, 124014, Note_on_c, 15, 59, 0
1, 124014, Note_on_c, 1, 28, 0
1, 124016, Note_on_c, 7, 69, 0
1, 124016, Note_on_c, 14, 71, 0
1, 124022, Note_on_c, 7, 68, 80
1, 124026, Note_on_c, 13, 59, 0
1, 124026, Note_on_c, 8, 78, 76
1, 124026, Note_on_c, 9, 42, 55
1, 124030, Note_on_c, 9, 42, 0
1, 124030, Note_on_c, 13, 69, 108
1, 124032, Note_on_c, 1, 28, 116
1, 124032, Pitch_bend_c, 14, 7296
1, 124032, Pitch_bend_c, 15, 7296
1, 124036, Note_on_c, 7, 80, 81
1, 124036, Note_on_c, 9, 38, 119
1, 124036, Note_on_c, 9, 69, 30
1, 124036, Note_on_c, 14, 78, 116
1, 124038, Note_on_c, 15, 69, 109
1, 124040, Note_on_c, 9, 69, 0
1, 124040, Note_on_c, 9, 38, 0
1, 124040, Pitch_bend_c, 14, 7360
1, 124040, Pitch_bend_c, 15, 7360
1, 124042, Note_on_c, 13, 66, 105
1, 124044, Pitch_bend_c, 14, 7424
1, 124044, Pitch_bend_c, 15, 7424
1, 124048, Pitch_bend_c, 14, 7488
1, 124048, Pitch_bend_c, 15, 7488
1, 124052, Pitch_bend_c, 14, 7552
1, 124052, Pitch_bend_c, 15, 7552
1, 124056, Pitch_bend_c, 14, 7616
1, 124056, Pitch_bend_c, 15, 7616
1, 124060, Pitch_bend_c, 14, 7680
1, 124060, Pitch_bend_c, 15, 7680
1, 124064, Pitch_bend_c, 14, 7744
1, 124064, Pitch_bend_c, 15, 7744
1, 124068, Pitch_bend_c, 14, 7808
1, 124068, Pitch_bend_c, 15, 7808
1, 124072, Pitch_bend_c, 14, 7872
1, 124072, Pitch_bend_c, 15, 7872
1, 124076, Pitch_bend_c, 14, 7936
1, 124076, Pitch_bend_c, 15, 7936
1, 124080, Pitch_bend_c, 14, 8000
1, 124080, Pitch_bend_c, 15, 8000
1, 124084, Pitch_bend_c, 14, 8064
1, 124084, Pitch_bend_c, 15, 8064
1, 124088, Pitch_bend_c, 14, 8128
1, 124088, Pitch_bend_c, 15, 8128
1, 124092, Pitch_bend_c, 14, 8192
1, 124092, Pitch_bend_c, 15, 8192
1, 124112, Note_on_c, 1, 28, 0
1, 124114, Note_on_c, 8, 78, 0
1, 124120, Note_on_c, 9, 69, 30
1, 124124, Note_on_c, 9, 69, 0
1, 124132, Note_on_c, 9, 44, 56
1, 124136, Note_on_c, 9, 44, 0
1, 124138, Note_on_c, 1, 28, 116
1, 124218, Note_on_c, 9, 42, 54
1, 124222, Note_on_c, 9, 42, 0
1, 124224, Note_on_c, 9, 69, 29
1, 124226, Note_on_c, 8, 80, 74
1, 124228, Note_on_c, 9, 69, 0
1, 124314, Note_on_c, 8, 80, 0
1, 124316, Note_on_c, 9, 44, 53
1, 124316, Note_on_c, 9, 69, 29
1, 124318, Note_on_c, 1, 28, 0
1, 124320, Note_on_c, 9, 69, 0
1, 124320, Note_on_c, 9, 44, 0
1, 124320, Note_on_c, 9, 36, 121
1, 124324, Note_on_c, 9, 36, 0
1, 124382, Note_on_c, 7, 68, 0
1, 124386, Note_on_c, 2, 59, 0
1, 124390, Note_on_c, 13, 69, 0
1, 124394, Note_on_c, 2, 68, 0
1, 124396, Note_on_c, 7, 80, 0
1, 124396, Note_on_c, 2, 64, 0
1, 124396, Note_on_c, 14, 78, 0
1, 124398, Note_on_c, 15, 69, 0
1, 124402, Note_on_c, 13, 66, 0
1, 124404, Note_on_c, 7, 66, 80
1, 124408, Note_on_c, 9, 63, 83
1, 124408, Note_on_c, 14, 76, 112
1, 124410, Note_on_c, 2, 68, 94
1, 124410, Note_on_c, 4, 59, 59
1, 124412, Note_on_c, 9, 63, 0
1, 124414, Note_on_c, 2, 59, 101
1, 124414, Note_on_c, 2, 64, 103
1, 124416, Note_on_c, 9, 36, 123
1, 124416, Control_c, 14, 1, 28
1, 124416, Control_c, 15, 1, 28
1, 124416, Note_on_c, 15, 68, 107
1, 124420, Note_on_c, 9, 36, 0
1, 124420, Note_on_c, 4, 64, 65
1, 124420, Note_on_c, 9, 42, 50
1, 124420, Note_on_c, 13, 64, 109
1, 124422, Note_on_c, 9, 69, 35
1, 124424, Note_on_c, 9, 42, 0
1, 124424, Note_on_c, 13, 68, 103
1, 124426, Note_on_c, 9, 69, 0
1, 124426, Note_on_c, 7, 78, 74
1, 124428, Note_on_c, 1, 37, 110
1, 124464, Note_on_c, 4, 59, 0
1, 124474, Note_on_c, 4, 64, 0
1, 124504, Note_on_c, 4, 68, 94
1, 124512, Note_on_c, 4, 59, 101
1, 124512, Note_on_c, 4, 64, 97
1, 124512, Note_on_c, 9, 44, 56
1, 124512, Note_on_c, 9, 63, 79
1, 124515, Control_c, 14, 1, 70
1, 124515, Control_c, 15, 1, 70
1, 124516, Note_on_c, 9, 63, 0
1, 124516, Note_on_c, 9, 44, 0
1, 124518, Note_on_c, 9, 69, 36
1, 124522, Note_on_c, 9, 69, 0
1, 124606, Note_on_c, 8, 83, 74
1, 124606, Note_on_c, 9, 69, 38
1, 124610, Note_on_c, 9, 69, 0
1, 124610, Note_on_c, 9, 42, 52
1, 124614, Note_on_c, 9, 42, 0
1, 124632, Control_c, 14, 1, 55
1, 124632, Control_c, 15, 1, 55
1, 124684, Note_on_c, 4, 68, 0
1, 124692, Note_on_c, 4, 64, 0
1, 124692, Note_on_c, 4, 59, 0
1, 124694, Note_on_c, 8, 83, 0
1, 124696, Note_on_c, 4, 64, 60
1, 124698, Note_on_c, 4, 59, 68
1, 124700, Note_on_c, 4, 68, 67
1, 124702, Note_on_c, 9, 69, 34
1, 124704, Note_on_c, 9, 46, 104
1, 124706, Note_on_c, 9, 69, 0
1, 124708, Note_on_c, 9, 46, 0
1, 124719, Control_c, 14, 1, 37
1, 124719, Control_c, 15, 1, 37
1, 124750, Note_on_c, 4, 64, 0
1, 124752, Note_on_c, 4, 59, 0
1, 124754, Note_on_c, 4, 68, 0
1, 124764, Note_on_c, 7, 66, 0
1, 124786, Note_on_c, 7, 78, 0
1, 124790, Note_on_c, 8, 81, 80
1, 124794, Note_on_c, 7, 76, 78
1, 124796, Note_on_c, 9, 38, 118
1, 124800, Note_on_c, 9, 38, 0
1, 124800, Note_on_c, 9, 64, 84
1, 124800, Note_on_c, 9, 69, 32
1, 124802, Note_on_c, 9, 42, 55
1, 124804, Note_on_c, 9, 69, 0
1, 124804, Note_on_c, 9, 64, 0
1, 124806, Note_on_c, 9, 42, 0
1, 124810, Note_on_c, 7, 64, 76
1, 124878, Note_on_c, 8, 81, 0
1, 124887, Control_c, 14, 1, 15
1, 124887, Control_c, 15, 1, 15
1, 124888, Note_on_c, 1, 37, 0
1, 124896, Note_on_c, 9, 69, 34
1, 124900, Note_on_c, 9, 69, 0
1, 124902, Note_on_c, 9, 44, 54
1, 124904, Note_on_c, 1, 32, 110
1, 124906, Note_on_c, 9, 44, 0
1, 124948, Note_on_c, 14, 76, 0
1, 124956, Note_on_c, 15, 68, 0
1, 124960, Note_on_c, 13, 64, 0
1, 124964, Note_on_c, 13, 68, 0
1, 124978, Note_on_c, 1, 37, 113
1, 124984, Note_on_c, 1, 32, 0
1, 124984, Note_on_c, 9, 69, 31
1, 124986, Note_on_c, 5, 71, 68
1, 124988, Note_on_c, 9, 69, 0
1, 124988, Note_on_c, 9, 42, 59
1, 124990, Note_on_c, 8, 80, 78
1, 124990, Note_on_c, 9, 36, 102
1, 124992, Note_on_c, 9, 42, 0
1, 124994, Note_on_c, 9, 36, 0
1, 125062, Note_on_c, 5, 71, 0
1, 125078, Note_on_c, 8, 80, 0
1, 125082, Note_on_c, 9, 63, 88
1, 125086, Note_on_c, 9, 63, 0
1, 125086, Note_on_c, 5, 71, 71
1, 125092, Note_on_c, 9, 69, 29
1, 125094, Note_on_c, 9, 36, 107
1, 125094, Note_on_c, 9, 44, 58
1, 125096, Note_on_c, 9, 69, 0
1, 125098, Note_on_c, 9, 44, 0
1, 125098, Note_on_c, 9, 36, 0
1, 125154, Note_on_c, 7, 76, 0
1, 125158, Note_on_c, 1, 37, 0
1, 125162, Note_on_c, 5, 71, 0
1, 125170, Note_on_c, 7, 64, 0
1, 125176, Note_on_c, 7, 66, 74
1, 125178, Note_on_c, 8, 78, 82
1, 125178, Note_on_c, 9, 42, 54
1, 125180, Note_on_c, 5, 71, 67
1, 125182, Note_on_c, 9, 42, 0
1, 125186, Note_on_c, 9, 69, 30
1, 125188, Note_on_c, 7, 78, 75
1, 125190, Note_on_c, 9, 69, 0
1, 125196, Note_on_c, 1, 37, 110
1, 125256, Note_on_c, 5, 71, 0
1, 125266, Note_on_c, 8, 78, 0
1, 125272, Note_on_c, 9, 69, 37
1, 125276, Note_on_c, 9, 69, 0
1, 125280, Note_on_c, 9, 62, 80
1, 125280, Note_on_c, 9, 44, 55
1, 125284, Note_on_c, 9, 44, 0
1, 125284, Note_on_c, 9, 62, 0
1, 125286, Note_on_c, 5, 71, 64
1, 125362, Note_on_c, 5, 71, 0
1, 125366, Note_on_c, 8, 76, 81
1, 125368, Note_on_c, 14, 78, 113
1, 125368, Note_on_c, 15, 69, 112
1, 125370, Note_on_c, 9, 69, 35
1, 125372, Note_on_c, 4, 64, 99
1, 125372, Note_on_c, 13, 66, 109
1, 125374, Note_on_c, 9, 69, 0
1, 125374, Note_on_c, 9, 42, 59
1, 125378, Note_on_c, 9, 42, 0
1, 125378, Note_on_c, 4, 68, 63
1, 125382, Note_on_c, 9, 64, 83
1, 125384, Note_on_c, 13, 69, 112
1, 125386, Note_on_c, 9, 64, 0
1, 125432, Note_on_c, 4, 68, 0
1, 125454, Note_on_c, 8, 76, 0
1, 125456, Note_on_c, 1, 37, 0
1, 125462, Note_on_c, 4, 69, 61
1, 125466, Note_on_c, 9, 69, 38
1, 125470, Note_on_c, 9, 69, 0
1, 125470, Note_on_c, 9, 44, 50
1, 125474, Note_on_c, 9, 44, 0
1, 125476, Note_on_c, 1, 37, 118
1, 125516, Note_on_c, 4, 69, 0
1, 125536, Note_on_c, 7, 66, 0
1, 125548, Note_on_c, 7, 78, 0
1, 125548, Note_on_c, 14, 78, 0
1, 125548, Note_on_c, 15, 69, 0
1, 125552, Note_on_c, 13, 66, 0
1, 125554, Note_on_c, 7, 68, 82
1, 125556, Note_on_c, 1, 37, 0
1, 125558, Note_on_c, 4, 68, 94
1, 125558, Note_on_c, 13, 68, 104
1, 125558, Note_on_c, 13, 71, 105
1, 125560, Note_on_c, 9, 38, 118
1, 125562, Note_on_c, 8, 78, 77
1, 125564, Note_on_c, 9, 38, 0
1, 125564, Note_on_c, 13, 69, 0
1, 125566, Note_on_c, 15, 71, 111
1, 125570, Note_on_c, 9, 69, 33
1, 125570, Note_on_c, 14, 80, 115
1, 125574, Note_on_c, 9, 69, 0
1, 125574, Note_on_c, 7, 80, 76
1, 125574, Note_on_c, 9, 42, 53
1, 125578, Note_on_c, 9, 42, 0
1, 125578, Note_on_c, 1, 35, 110
1, 125650, Note_on_c, 8, 78, 0
1, 125666, Note_on_c, 9, 69, 37
1, 125670, Note_on_c, 9, 69, 0
1, 125670, Note_on_c, 9, 44, 52
1, 125674, Note_on_c, 9, 44, 0
1, 125738, Note_on_c, 13, 68, 0
1, 125738, Note_on_c, 13, 71, 0
1, 125746, Note_on_c, 15, 71, 0
1, 125750, Note_on_c, 14, 80, 0
1, 125752, Note_on_c, 1, 37, 113
1, 125754, Note_on_c, 9, 42, 59
1, 125754, Note_on_c, 9, 69, 35
1, 125754, Note_on_c, 13, 69, 107
1, 125756, Note_on_c, 14, 81, 112
1, 125756, Note_on_c, 15, 73, 106
1, 125758, Note_on_c, 9, 69, 0
1, 125758, Note_on_c, 9, 42, 0
1, 125758, Note_on_c, 1, 35, 0
1, 125760, Pitch_bend_c, 14, 7296
1, 125760, Pitch_bend_c, 15, 7296
1, 125764, Note_on_c, 8, 80, 80
1, 125764, Note_on_c, 13, 73, 110
1, 125768, Pitch_bend_c, 14, 7360
1, 125768, Pitch_bend_c, 15, 7360
1, 125772, Pitch_bend_c, 14, 7424
1, 125772, Pitch_bend_c, 15, 7424
1, 125776, Pitch_bend_c, 14, 7488
1, 125776, Pitch_bend_c, 15, 7488
1, 125780, Pitch_bend_c, 14, 7552
1, 125780, Pitch_bend_c, 15, 7552
1, 125784, Pitch_bend_c, 14, 7616
1, 125784, Pitch_bend_c, 15, 7616
1, 125788, Pitch_bend_c, 14, 7680
1, 125788, Pitch_bend_c, 15, 7680
1, 125792, Pitch_bend_c, 14, 7744
1, 125792, Pitch_bend_c, 15, 7744
1, 125796, Pitch_bend_c, 14, 7808
1, 125796, Pitch_bend_c, 15, 7808
1, 125800, Pitch_bend_c, 14, 7872
1, 125800, Pitch_bend_c, 15, 7872
1, 125804, Pitch_bend_c, 14, 7936
1, 125804, Pitch_bend_c, 15, 7936
1, 125808, Pitch_bend_c, 14, 8000
1, 125808, Pitch_bend_c, 15, 8000
1, 125812, Pitch_bend_c, 14, 8064
1, 125812, Pitch_bend_c, 15, 8064
1, 125816, Pitch_bend_c, 14, 8128
1, 125816, Pitch_bend_c, 15, 8128
1, 125820, Pitch_bend_c, 14, 8192
1, 125820, Pitch_bend_c, 15, 8192
1, 125848, Note_on_c, 9, 44, 51
1, 125852, Note_on_c, 9, 44, 0
1, 125852, Note_on_c, 8, 80, 0
1, 125860, Note_on_c, 9, 36, 125
1, 125862, Note_on_c, 9, 69, 33
1, 125864, Note_on_c, 9, 36, 0
1, 125866, Note_on_c, 9, 69, 0
1, 125914, Note_on_c, 7, 68, 0
1, 125918, Note_on_c, 4, 68, 0
1, 125922, Note_on_c, 2, 68, 0
1, 125926, Note_on_c, 2, 59, 0
1, 125926, Note_on_c, 2, 64, 0
1, 125926, Note_on_c, 6, 56, 0
1, 125932, Note_on_c, 4, 64, 0
1, 125932, Note_on_c, 1, 37, 0
1, 125934, Note_on_c, 7, 80, 0
1, 125934, Note_on_c, 6, 64, 0
1, 125938, Note_on_c, 1, 38, 115
1, 125944, Note_on_c, 2, 66, 99
1, 125946, Note_on_c, 6, 54, 73
1, 125948, Note_on_c, 6, 62, 69
1, 125948, Note_on_c, 9, 36, 118
1, 125948, Note_on_c, 9, 69, 29
1, 125950, Note_on_c, 6, 59, 0
1, 125950, Note_on_c, 2, 57, 99
1, 125950, Note_on_c, 9, 63, 80
1, 125952, Note_on_c, 9, 69, 0
1, 125952, Note_on_c, 9, 36, 0
1, 125952, Note_on_c, 4, 62, 66
1, 125952, Note_on_c, 6, 57, 64
1, 125952, Note_on_c, 7, 81, 74
1, 125954, Note_on_c, 9, 63, 0
1, 125954, Note_on_c, 7, 69, 81
1, 125956, Note_on_c, 2, 62, 95
1, 125956, Note_on_c, 4, 57, 66
1, 125956, Note_on_c, 9, 42, 52
1, 125960, Note_on_c, 9, 42, 0
1, 126006, Note_on_c, 4, 62, 0
1, 126010, Note_on_c, 4, 57, 0
1, 126014, Note_on_c, 13, 69, 0
1, 126016, Note_on_c, 15, 73, 0
1, 126016, Note_on_c, 14, 81, 0
1, 126024, Note_on_c, 13, 73, 0
1, 126040, Note_on_c, 4, 66, 98
1, 126040, Note_on_c, 15, 71, 109
1, 126042, Note_on_c, 9, 44, 59
1, 126046, Note_on_c, 9, 44, 0
1, 126050, Note_on_c, 9, 69, 36
1, 126052, Note_on_c, 4, 57, 99
1, 126052, Note_on_c, 4, 62, 100
1, 126054, Note_on_c, 9, 69, 0
1, 126054, Note_on_c, 9, 63, 81
1, 126054, Note_on_c, 13, 71, 103
1, 126054, Note_on_c, 14, 80, 110
1, 126056, Note_on_c, 13, 68, 108
1, 126058, Note_on_c, 9, 63, 0
1, 126134, Note_on_c, 13, 71, 0
1, 126136, Note_on_c, 13, 68, 0
1, 126136, Note_on_c, 15, 69, 106
1, 126140, Note_on_c, 9, 69, 30
1, 126140, Note_on_c, 14, 78, 112
1, 126144, Note_on_c, 9, 69, 0
1, 126144, Note_on_c, 15, 71, 0
1, 126144, Note_on_c, 8, 81, 74
1, 126144, Note_on_c, 13, 66, 105
1, 126144, Control_c, 14, 1, 28
1, 126144, Control_c, 15, 1, 28
1, 126148, Note_on_c, 9, 42, 58
1, 126152, Note_on_c, 9, 42, 0
1, 126158, Note_on_c, 14, 80, 0
1, 126160, Note_on_c, 13, 69, 103
1, 126220, Note_on_c, 4, 66, 0
1, 126230, Note_on_c, 4, 57, 0
1, 126230, Note_on_c, 4, 57, 61
1, 126232, Note_on_c, 8, 81, 0
1, 126232, Note_on_c, 4, 62, 0
1, 126232, Note_on_c, 4, 62, 62
1, 126232, Note_on_c, 4, 66, 68
1, 126238, Note_on_c, 9, 46, 100
1, 126240, Note_on_c, 9, 69, 32
1, 126242, Note_on_c, 9, 46, 0
1, 126243, Control_c, 14, 1, 70
1, 126243, Control_c, 15, 1, 70
1, 126244, Note_on_c, 9, 69, 0
1, 126284, Note_on_c, 4, 57, 0
1, 126286, Note_on_c, 4, 66, 0
1, 126286, Note_on_c, 4, 62, 0
1, 126298, Note_on_c, 1, 38, 0
1, 126326, Note_on_c, 8, 80, 81
1, 126334, Note_on_c, 9, 64, 87
1, 126334, Note_on_c, 9, 69, 31
1, 126336, Note_on_c, 9, 38, 125
1, 126338, Note_on_c, 9, 69, 0
1, 126338, Note_on_c, 9, 64, 0
1, 126340, Note_on_c, 9, 38, 0
1, 126340, Note_on_c, 9, 42, 53
1, 126344, Note_on_c, 9, 42, 0
1, 126360, Control_c, 14, 1, 55
1, 126360, Control_c, 15, 1, 55
1, 126414, Note_on_c, 8, 80, 0
1, 126428, Note_on_c, 9, 69, 30
1, 126432, Note_on_c, 9, 69, 0
1, 126432, Note_on_c, 9, 44, 51
1, 126436, Note_on_c, 9, 44, 0
1, 126447, Control_c, 14, 1, 37
1, 126447, Control_c, 15, 1, 37
1, 126496, Note_on_c, 15, 69, 0
1, 126500, Note_on_c, 14, 78, 0
1, 126504, Note_on_c, 13, 66, 0
1, 126520, Note_on_c, 13, 69, 0
1, 126520, Note_on_c, 8, 78, 82
1, 126522, Note_on_c, 9, 42, 54
1, 126526, Note_on_c, 9, 42, 0
1, 126526, Note_on_c, 9, 36, 108
1, 126528, Note_on_c, 1, 38, 111
1, 126530, Note_on_c, 9, 36, 0
1, 126530, Note_on_c, 5, 74, 67
1, 126530, Note_on_c, 9, 69, 30
1, 126534, Note_on_c, 9, 69, 0
1, 126606, Note_on_c, 5, 74, 0
1, 126608, Note_on_c, 8, 78, 0
1, 126615, Control_c, 14, 1, 15
1, 126615, Control_c, 15, 1, 15
1, 126618, Note_on_c, 9, 36, 109
1, 126618, Note_on_c, 9, 44, 50
1, 126622, Note_on_c, 9, 44, 0
1, 126622, Note_on_c, 9, 36, 0
1, 126624, Note_on_c, 9, 69, 38
1, 126628, Note_on_c, 9, 69, 0
1, 126628, Note_on_c, 9, 63, 82
1, 126632, Note_on_c, 9, 63, 0
1, 126632, Note_on_c, 5, 74, 68
1, 126708, Note_on_c, 5, 74, 0
1, 126708, Note_on_c, 1, 38, 0
1, 126714, Note_on_c, 1, 38, 116
1, 126718, Note_on_c, 9, 42, 59
1, 126718, Note_on_c, 9, 69, 30
1, 126722, Note_on_c, 9, 69, 0
1, 126722, Note_on_c, 9, 42, 0
1, 126722, Note_on_c, 8, 76, 74
1, 126724, Note_on_c, 5, 69, 64
1, 126800, Note_on_c, 5, 69, 0
1, 126810, Note_on_c, 8, 76, 0
1, 126812, Note_on_c, 9, 44, 57
1, 126812, Note_on_c, 9, 62, 86
1, 126814, Note_on_c, 9, 69, 37
1, 126816, Note_on_c, 9, 62, 0
1, 126816, Note_on_c, 9, 44, 0
1, 126818, Note_on_c, 9, 69, 0
1, 126906, Note_on_c, 5, 71, 68
1, 126906, Note_on_c, 9, 69, 38
1, 126906, Note_on_c, 15, 59, 107
1, 126908, Note_on_c, 9, 64, 82
1, 126908, Note_on_c, 14, 71, 109
1, 126910, Note_on_c, 9, 69, 0
1, 126910, Note_on_c, 13, 59, 109
1, 126912, Note_on_c, 9, 64, 0
1, 126912, Note_on_c, 8, 75, 79
1, 126916, Note_on_c, 9, 42, 50
1, 126920, Note_on_c, 9, 42, 0
1, 126970, Note_on_c, 1, 38, 0
1, 126982, Note_on_c, 5, 71, 0
1, 127000, Note_on_c, 8, 75, 0
1, 127000, Note_on_c, 4, 73, 103
1, 127004, Note_on_c, 4, 69, 94
1, 127006, Note_on_c, 9, 69, 34
1, 127010, Note_on_c, 9, 69, 0
1, 127012, Note_on_c, 9, 44, 50
1, 127014, Note_on_c, 4, 66, 97
1, 127016, Note_on_c, 9, 44, 0
1, 127016, Note_on_c, 5, 71, 68
1, 127086, Note_on_c, 15, 59, 0
1, 127088, Note_on_c, 14, 71, 0
1, 127090, Note_on_c, 13, 59, 0
1, 127092, Note_on_c, 5, 71, 0
1, 127096, Note_on_c, 5, 64, 71
1, 127096, Note_on_c, 13, 59, 112
1, 127096, Note_on_c, 14, 71, 109
1, 127098, Note_on_c, 8, 76, 77
1, 127098, Note_on_c, 9, 38, 124
1, 127102, Note_on_c, 9, 38, 0
1, 127104, Note_on_c, 9, 42, 53
1, 127106, Note_on_c, 9, 69, 29
1, 127106, Note_on_c, 15, 59, 110
1, 127108, Note_on_c, 9, 42, 0
1, 127110, Note_on_c, 9, 69, 0
1, 127110, Note_on_c, 1, 33, 113
1, 127172, Note_on_c, 5, 64, 0
1, 127180, Note_on_c, 4, 73, 0
1, 127184, Note_on_c, 4, 69, 0
1, 127186, Note_on_c, 8, 76, 0
1, 127190, Note_on_c, 5, 64, 68
1, 127194, Note_on_c, 4, 66, 0
1, 127196, Note_on_c, 9, 69, 36
1, 127200, Note_on_c, 9, 69, 0
1, 127204, Note_on_c, 9, 44, 50
1, 127206, Note_on_c, 1, 33, 0
1, 127208, Note_on_c, 9, 44, 0
1, 127212, Note_on_c, 1, 35, 110
1, 127266, Note_on_c, 5, 64, 0
1, 127294, Note_on_c, 9, 69, 38
1, 127296, Note_on_c, 5, 64, 70
1, 127298, Note_on_c, 9, 69, 0
1, 127298, Note_on_c, 1, 38, 116
1, 127298, Note_on_c, 9, 42, 50
1, 127302, Note_on_c, 9, 42, 0
1, 127304, Note_on_c, 8, 78, 79
1, 127308, Note_on_c, 1, 35, 0
1, 127372, Note_on_c, 5, 64, 0
1, 127378, Note_on_c, 1, 38, 0
1, 127388, Note_on_c, 1, 40, 118
1, 127392, Note_on_c, 8, 78, 0
1, 127392, Note_on_c, 9, 36, 118
1, 127392, Note_on_c, 9, 69, 30
1, 127394, Note_on_c, 9, 44, 53
1, 127396, Note_on_c, 9, 69, 0
1, 127396, Note_on_c, 9, 36, 0
1, 127398, Note_on_c, 9, 44, 0
1, 127456, Note_on_c, 2, 66, 0
1, 127456, Note_on_c, 13, 59, 0
1, 127456, Note_on_c, 14, 71, 0
1, 127462, Note_on_c, 2, 57, 0
1, 127466, Note_on_c, 15, 59, 0
1, 127468, Note_on_c, 2, 62, 0
1, 127468, Note_on_c, 1, 40, 0
1, 127480, Note_on_c, 4, 57, 60
1, 127480, Note_on_c, 13, 69, 105
1, 127480, Note_on_c, 15, 73, 110
1, 127486, Note_on_c, 9, 36, 121
1, 127486, Note_on_c, 9, 69, 37
1, 127486, Note_on_c, 13, 73, 103
1, 127486, Note_on_c, 14, 81, 115
1, 127488, Note_on_c, 1, 42, 113
1, 127488, Note_on_c, 9, 63, 85
1, 127488, Pitch_bend_c, 15, 7296
1, 127490, Note_on_c, 9, 69, 0
1, 127490, Note_on_c, 9, 36, 0
1, 127490, Note_on_c, 9, 42, 58
1, 127492, Note_on_c, 9, 63, 0
1, 127492, Note_on_c, 2, 57, 101
1, 127492, Note_on_c, 2, 66, 95
1, 127492, Note_on_c, 4, 62, 68
1, 127494, Note_on_c, 9, 42, 0
1, 127494, Note_on_c, 2, 62, 95
1, 127496, Pitch_bend_c, 15, 7360
1, 127500, Pitch_bend_c, 15, 7424
1, 127504, Pitch_bend_c, 15, 7488
1, 127508, Pitch_bend_c, 15, 7552
1, 127512, Pitch_bend_c, 15, 7616
1, 127516, Pitch_bend_c, 15, 7680
1, 127520, Pitch_bend_c, 15, 7744
1, 127524, Pitch_bend_c, 15, 7808
1, 127528, Pitch_bend_c, 15, 7872
1, 127532, Pitch_bend_c, 15, 7936
1, 127534, Note_on_c, 4, 57, 0
1, 127536, Pitch_bend_c, 15, 8000
1, 127540, Pitch_bend_c, 15, 8064
1, 127544, Pitch_bend_c, 15, 8128
1, 127546, Note_on_c, 4, 62, 0
1, 127548, Pitch_bend_c, 15, 8192
1, 127576, Note_on_c, 4, 66, 94
1, 127576, Note_on_c, 9, 69, 34
1, 127580, Note_on_c, 9, 69, 0
1, 127586, Note_on_c, 4, 62, 99
1, 127586, Note_on_c, 9, 63, 82
1, 127588, Note_on_c, 4, 57, 95
1, 127590, Note_on_c, 9, 63, 0
1, 127660, Note_on_c, 15, 73, 0
1, 127660, Note_on_c, 13, 69, 0
1, 127666, Note_on_c, 13, 73, 0
1, 127666, Note_on_c, 14, 81, 0
1, 127672, Note_on_c, 5, 76, 64
1, 127674, Note_on_c, 8, 81, 74
1, 127674, Note_on_c, 9, 42, 57
1, 127676, Note_on_c, 9, 69, 37
1, 127676, Note_on_c, 15, 73, 104
1, 127678, Note_on_c, 9, 42, 0
1, 127680, Note_on_c, 9, 69, 0
1, 127680, Note_on_c, 14, 81, 109
1, 127682, Note_on_c, 13, 73, 105
1, 127694, Note_on_c, 13, 69, 108
1, 127744, Note_on_c, 1, 42, 0
1, 127748, Note_on_c, 5, 76, 0
1, 127756, Note_on_c, 4, 66, 0
1, 127762, Note_on_c, 8, 81, 0
1, 127766, Note_on_c, 4, 62, 0
1, 127768, Note_on_c, 4, 57, 0
1, 127772, Note_on_c, 4, 62, 64
1, 127776, Note_on_c, 4, 57, 68
1, 127780, Note_on_c, 4, 66, 62
1, 127780, Note_on_c, 9, 69, 32
1, 127782, Note_on_c, 1, 42, 115
1, 127784, Note_on_c, 9, 69, 0
1, 127826, Note_on_c, 4, 62, 0
1, 127830, Note_on_c, 4, 57, 0
1, 127834, Note_on_c, 4, 66, 0
1, 127856, Note_on_c, 15, 73, 0
1, 127860, Note_on_c, 14, 81, 0
1, 127862, Note_on_c, 1, 42, 0
1, 127862, Note_on_c, 13, 73, 0
1, 127864, Note_on_c, 8, 80, 80
1, 127864, Note_on_c, 9, 38, 124
1, 127866, Note_on_c, 1, 37, 116
1, 127866, Note_on_c, 9, 64, 80
1, 127866, Note_on_c, 15, 73, 110
1, 127868, Note_on_c, 9, 38, 0
1, 127868, Note_on_c, 9, 69, 37
1, 127870, Note_on_c, 9, 64, 0
1, 127872, Note_on_c, 13, 69, 0
1, 127872, Note_on_c, 9, 69, 0
1, 127872, Note_on_c, 13, 69, 103
1, 127872, Note_on_c, 14, 81, 113
1, 127876, Note_on_c, 9, 42, 55
1, 127876, Note_on_c, 13, 73, 109
1, 127880, Note_on_c, 9, 42, 0
1, 127952, Note_on_c, 8, 80, 0
1, 127970, Note_on_c, 9, 69, 38
1, 127974, Note_on_c, 9, 69, 0
1, 128046, Note_on_c, 15, 73, 0
1, 128052, Note_on_c, 13, 69, 0
1, 128052, Note_on_c, 14, 81, 0
1, 128056, Note_on_c, 13, 73, 0
1, 128056, Note_on_c, 9, 69, 29
1, 128056, Note_on_c, 14, 81, 115
1, 128060, Note_on_c, 9, 69, 0
1, 128064, Pitch_bend_c, 14, 7296
1, 128064, Note_on_c, 15, 73, 103
1, 128070, Note_on_c, 5, 76, 71
1, 128070, Note_on_c, 8, 78, 80
1, 128070, Note_on_c, 9, 42, 58
1, 128072, Note_on_c, 13, 69, 106
1, 128072, Note_on_c, 13, 73, 103
1, 128072, Pitch_bend_c, 14, 7360
1, 128074, Note_on_c, 9, 42, 0
1, 128076, Pitch_bend_c, 14, 7424
1, 128080, Pitch_bend_c, 14, 7488
1, 128084, Pitch_bend_c, 14, 7552
1, 128088, Pitch_bend_c, 14, 7616
1, 128092, Pitch_bend_c, 14, 7680
1, 128096, Pitch_bend_c, 14, 7744
1, 128100, Pitch_bend_c, 14, 7808
1, 128104, Pitch_bend_c, 14, 7872
1, 128108, Pitch_bend_c, 14, 7936
1, 128112, Pitch_bend_c, 14, 8000
1, 128116, Pitch_bend_c, 14, 8064
1, 128120, Pitch_bend_c, 14, 8128
1, 128122, Note_on_c, 1, 37, 0
1, 128124, Pitch_bend_c, 14, 8192
1, 128146, Note_on_c, 5, 76, 0
1, 128156, Note_on_c, 9, 69, 30
1, 128158, Note_on_c, 8, 78, 0
1, 128160, Note_on_c, 9, 69, 0
1, 128162, Note_on_c, 9, 63, 85
1, 128166, Note_on_c, 9, 63, 0
1, 128166, Note_on_c, 1, 30, 109
1, 128236, Note_on_c, 14, 81, 0
1, 128244, Note_on_c, 15, 73, 0
1, 128246, Note_on_c, 1, 30, 0
1, 128248, Note_on_c, 8, 76, 78
1, 128250, Note_on_c, 1, 35, 113
1, 128250, Note_on_c, 4, 59, 68
1, 128250, Note_on_c, 4, 62, 64
1, 128250, Note_on_c, 9, 36, 124
1, 128250, Note_on_c, 13, 68, 108
1, 128252, Note_on_c, 13, 73, 0
1, 128252, Note_on_c, 13, 69, 0
1, 128254, Note_on_c, 9, 36, 0
1, 128254, Note_on_c, 14, 80, 118
1, 128254, Note_on_c, 15, 71, 103
1, 128256, Note_on_c, 4, 66, 61
1, 128260, Note_on_c, 9, 42, 56
1, 128262, Note_on_c, 9, 69, 31
1, 128262, Note_on_c, 13, 71, 109
1, 128264, Note_on_c, 9, 42, 0
1, 128266, Note_on_c, 9, 69, 0
1, 128304, Note_on_c, 4, 59, 0
1, 128304, Note_on_c, 4, 62, 0
1, 128310, Note_on_c, 4, 66, 0
1, 128336, Note_on_c, 8, 76, 0
1, 128344, Note_on_c, 9, 69, 30
1, 128348, Note_on_c, 9, 69, 0
1, 128350, Note_on_c, 9, 62, 85
1, 128354, Note_on_c, 9, 62, 0
1, 128430, Note_on_c, 13, 68, 0
1, 128434, Note_on_c, 15, 71, 0
1, 128434, Note_on_c, 14, 80, 0
1, 128438, Note_on_c, 13, 66, 107
1, 128442, Note_on_c, 13, 71, 0
1, 128446, Note_on_c, 8, 75, 79
1, 128448, Note_on_c, 9, 69, 33
1, 128448, Note_on_c, 13, 69, 110
1, 128452, Note_on_c, 9, 69, 0
1, 128452, Note_on_c, 9, 64, 80
1, 128452, Note_on_c, 14, 78, 116
1, 128454, Note_on_c, 15, 69, 109
1, 128456, Note_on_c, 9, 64, 0
1, 128514, Note_on_c, 1, 35, 0
1, 128534, Note_on_c, 8, 75, 0
1, 128536, Note_on_c, 9, 44, 50
1, 128540, Note_on_c, 9, 44, 0
1, 128550, Note_on_c, 9, 69, 31
1, 128554, Note_on_c, 9, 69, 0
1, 128558, Note_on_c, 1, 42, 109
1, 128612, Note_on_c, 2, 57, 0
1, 128612, Note_on_c, 2, 66, 0
1, 128614, Note_on_c, 2, 62, 0
1, 128618, Note_on_c, 13, 66, 0
1, 128628, Note_on_c, 13, 69, 0
1, 128630, Note_on_c, 2, 66, 95
1, 128632, Note_on_c, 14, 78, 0
1, 128634, Note_on_c, 15, 69, 0
1, 128634, Note_on_c, 4, 59, 61
1, 128634, Note_on_c, 8, 76, 81
1, 128638, Note_on_c, 1, 42, 0
1, 128640, Note_on_c, 9, 36, 124
1, 128640, Note_on_c, 9, 38, 122
1, 128640, Note_on_c, 9, 42, 52
1, 128642, Note_on_c, 4, 66, 61
1, 128642, Note_on_c, 13, 64, 103
1, 128644, Note_on_c, 9, 42, 0
1, 128644, Note_on_c, 9, 38, 0
1, 128644, Note_on_c, 9, 36, 0
1, 128644, Note_on_c, 1, 35, 116
1, 128644, Note_on_c, 2, 57, 98
1, 128644, Note_on_c, 2, 62, 97
1, 128644, Note_on_c, 9, 69, 34
1, 128644, Note_on_c, 13, 68, 103
1, 128644, Note_on_c, 14, 76, 110
1, 128644, Note_on_c, 15, 68, 110
1, 128648, Note_on_c, 9, 69, 0
1, 128648, Note_on_c, 4, 62, 60
1, 128648, Note_on_c, 5, 71, 64
1, 128688, Note_on_c, 4, 59, 0
1, 128696, Note_on_c, 4, 66, 0
1, 128702, Note_on_c, 4, 62, 0
1, 128722, Note_on_c, 8, 76, 0
1, 128724, Note_on_c, 5, 71, 0
1, 128728, Note_on_c, 9, 38, 117
1, 128730, Note_on_c, 9, 69, 34
1, 128732, Note_on_c, 9, 38, 0
1, 128734, Note_on_c, 9, 69, 0
1, 128796, Note_on_c, 1, 35, 0
1, 128822, Note_on_c, 13, 64, 0
1, 128822, Note_on_c, 8, 78, 80
1, 128824, Note_on_c, 15, 68, 0
1, 128824, Note_on_c, 14, 76, 0
1, 128824, Note_on_c, 13, 68, 0
1, 128824, Note_on_c, 15, 69, 108
1, 128826, Note_on_c, 9, 69, 38
1, 128828, Note_on_c, 5, 71, 72
1, 128830, Note_on_c, 9, 69, 0
1, 128830, Note_on_c, 1, 35, 114
1, 128830, Note_on_c, 13, 69, 107
1, 128830, Note_on_c, 14, 78, 113
1, 128838, Note_on_c, 9, 38, 118
1, 128842, Note_on_c, 9, 38, 0
1, 128842, Note_on_c, 13, 66, 104
1, 128904, Note_on_c, 5, 71, 0
1, 128910, Note_on_c, 8, 78, 0
1, 128920, Note_on_c, 5, 73, 69
1, 128920, Note_on_c, 9, 69, 36
1, 128924, Note_on_c, 9, 69, 0
1, 128930, Note_on_c, 9, 44, 52
1, 128932, Note_on_c, 9, 38, 121
1, 128934, Note_on_c, 9, 44, 0
1, 128936, Note_on_c, 9, 38, 0
1, 128986, Note_on_c, 1, 35, 0
1, 128990, Note_on_c, 2, 66, 0
1, 128996, Note_on_c, 5, 73, 0
1, 129004, Note_on_c, 2, 57, 0
1, 129004, Note_on_c, 15, 69, 0
1, 129004, Note_on_c, 2, 62, 0
1, 129006, Note_on_c, 6, 54, 0
1, 129008, Note_on_c, 6, 62, 0
1, 129010, Note_on_c, 14, 78, 0
1, 129010, Note_on_c, 13, 69, 0
1, 129012, Note_on_c, 6, 57, 0
1, 129012, Note_on_c, 1, 28, 115
1, 129014, Note_on_c, 6, 64, 69
1, 129016, Note_on_c, 4, 59, 63
1, 129018, Note_on_c, 9, 63, 83
1, 129020, Note_on_c, 13, 68, 112
1, 129022, Note_on_c, 9, 63, 0
1, 129022, Note_on_c, 13, 66, 0
1, 129022, Note_on_c, 4, 64, 62
1, 129022, Note_on_c, 14, 76, 112
1, 129024, Note_on_c, 2, 68, 94
1, 129024, Note_on_c, 6, 59, 71
1, 129024, Note_on_c, 9, 69, 31
1, 129026, Note_on_c, 2, 64, 101
1, 129028, Note_on_c, 9, 69, 0
1, 129028, Note_on_c, 9, 36, 125
1, 129028, Note_on_c, 9, 49, 106
1, 129030, Note_on_c, 13, 64, 109
1, 129030, Note_on_c, 15, 68, 106
1, 129032, Note_on_c, 9, 49, 0
1, 129032, Note_on_c, 9, 36, 0
1, 129032, Note_on_c, 2, 59, 102
1, 129036, Note_on_c, 6, 56, 64
1, 129070, Note_on_c, 4, 59, 0
1, 129076, Note_on_c, 4, 64, 0
1, 129092, Note_on_c, 7, 81, 0
1, 129094, Note_on_c, 7, 69, 0
1, 129110, Note_on_c, 4, 59, 99
1, 129112, Note_on_c, 4, 68, 97
1, 129116, Note_on_c, 9, 69, 35
1, 129120, Note_on_c, 9, 69, 0
1, 129120, Control_c, 14, 1, 28
1, 129120, Control_c, 15, 1, 28
1, 129122, Note_on_c, 9, 44, 51
1, 129124, Note_on_c, 9, 63, 87
1, 129126, Note_on_c, 9, 44, 0
1, 129126, Note_on_c, 4, 64, 101
1, 129128, Note_on_c, 9, 63, 0
1, 129208, Note_on_c, 8, 83, 77
1, 129210, Note_on_c, 9, 42, 54
1, 129212, Note_on_c, 9, 69, 29
1, 129214, Note_on_c, 9, 42, 0
1, 129216, Note_on_c, 9, 69, 0
1, 129219, Control_c, 14, 1, 70
1, 129219, Control_c, 15, 1, 70
1, 129290, Note_on_c, 4, 59, 0
1, 129292, Note_on_c, 4, 68, 0
1, 129296, Note_on_c, 8, 83, 0
1, 129304, Note_on_c, 4, 64, 0
1, 129304, Note_on_c, 4, 64, 66
1, 129308, Note_on_c, 9, 46, 102
1, 129312, Note_on_c, 9, 46, 0
1, 129314, Note_on_c, 9, 69, 37
1, 129316, Note_on_c, 4, 59, 65
1, 129316, Note_on_c, 4, 68, 60
1, 129318, Note_on_c, 9, 69, 0
1, 129336, Control_c, 14, 1, 55
1, 129336, Control_c, 15, 1, 55
1, 129358, Note_on_c, 4, 64, 0
1, 129370, Note_on_c, 4, 59, 0
1, 129370, Note_on_c, 4, 68, 0
1, 129372, Note_on_c, 1, 28, 0
1, 129394, Note_on_c, 7, 80, 83
1, 129400, Note_on_c, 9, 64, 83
1, 129404, Note_on_c, 9, 64, 0
1, 129406, Note_on_c, 8, 81, 77
1, 129408, Note_on_c, 9, 42, 58
1, 129412, Note_on_c, 9, 42, 0
1, 129412, Note_on_c, 9, 69, 35
1, 129414, Note_on_c, 9, 38, 116
1, 129416, Note_on_c, 9, 69, 0
1, 129418, Note_on_c, 9, 38, 0
1, 129418, Note_on_c, 7, 68, 82
1, 129423, Control_c, 14, 1, 37
1, 129423, Control_c, 15, 1, 37
1, 129494, Note_on_c, 8, 81, 0
1, 129496, Note_on_c, 9, 69, 32
1, 129500, Note_on_c, 9, 69, 0
1, 129500, Note_on_c, 9, 44, 50
1, 129504, Note_on_c, 9, 44, 0
1, 129591, Control_c, 14, 1, 15
1, 129591, Control_c, 15, 1, 15
1, 129592, Note_on_c, 9, 42, 55
1, 129596, Note_on_c, 9, 42, 0
1, 129596, Note_on_c, 8, 80, 81
1, 129596, Note_on_c, 9, 36, 103
1, 129600, Note_on_c, 9, 36, 0
1, 129604, Note_on_c, 5, 71, 67
1, 129606, Note_on_c, 9, 69, 30
1, 129608, Note_on_c, 1, 28, 117
1, 129610, Note_on_c, 9, 69, 0
1, 129680, Note_on_c, 5, 71, 0
1, 129684, Note_on_c, 8, 80, 0
1, 129686, Note_on_c, 5, 71, 71
1, 129688, Note_on_c, 1, 28, 0
1, 129688, Note_on_c, 9, 63, 88
1, 129692, Note_on_c, 9, 63, 0
1, 129692, Note_on_c, 9, 36, 105
1, 129694, Note_on_c, 1, 28, 116
1, 129696, Note_on_c, 9, 36, 0
1, 129698, Note_on_c, 9, 44, 52
1, 129698, Note_on_c, 9, 69, 37
1, 129702, Note_on_c, 9, 69, 0
1, 129702, Note_on_c, 9, 44, 0
1, 129740, Note_on_c, 13, 68, 0
1, 129742, Note_on_c, 14, 76, 0
1, 129750, Note_on_c, 13, 64, 0
1, 129750, Note_on_c, 15, 68, 0
1, 129754, Note_on_c, 7, 80, 0
1, 129762, Note_on_c, 5, 71, 0
1, 129774, Note_on_c, 1, 28, 0
1, 129778, Note_on_c, 7, 68, 0
1, 129784, Note_on_c, 5, 71, 73
1, 129794, Note_on_c, 7, 64, 79
1, 129796, Note_on_c, 8, 78, 75
1, 129798, Note_on_c, 7, 76, 81
1, 129798, Note_on_c, 9, 42, 50
1, 129798, Note_on_c, 9, 69, 37
1, 129802, Note_on_c, 9, 69, 0
1, 129802, Note_on_c, 9, 42, 0
1, 129802, Note_on_c, 1, 40, 115
1, 129860, Note_on_c, 5, 71, 0
1, 129880, Note_on_c, 5, 71, 65
1, 129882, Note_on_c, 9, 44, 54
1, 129884, Note_on_c, 8, 78, 0
1, 129884, Note_on_c, 9, 62, 83
1, 129886, Note_on_c, 9, 44, 0
1, 129888, Note_on_c, 9, 62, 0
1, 129890, Note_on_c, 9, 69, 32
1, 129894, Note_on_c, 9, 69, 0
1, 129956, Note_on_c, 5, 71, 0
1, 129978, Note_on_c, 8, 76, 81
1, 129982, Note_on_c, 9, 42, 57
1, 129986, Note_on_c, 9, 42, 0
1, 129990, Note_on_c, 9, 64, 86
1, 129990, Note_on_c, 9, 69, 34
1, 129994, Note_on_c, 9, 69, 0
1, 129994, Note_on_c, 9, 64, 0
1, 130062, Note_on_c, 1, 40, 0
1, 130066, Note_on_c, 8, 76, 0
1, 130066, Note_on_c, 1, 28, 116
1, 130074, Note_on_c, 9, 69, 35
1, 130078, Note_on_c, 9, 69, 0
1, 130078, Note_on_c, 5, 76, 65
1, 130086, Note_on_c, 9, 44, 52
1, 130090, Note_on_c, 9, 44, 0
1, 130146, Note_on_c, 1, 28, 0
1, 130154, Note_on_c, 7, 64, 0
1, 130154, Note_on_c, 5, 76, 0
1, 130158, Note_on_c, 7, 76, 0
1, 130164, Note_on_c, 7, 71, 80
1, 130170, Note_on_c, 9, 42, 59
1, 130174, Note_on_c, 9, 42, 0
1, 130174, Note_on_c, 9, 69, 33
1, 130178, Note_on_c, 9, 69, 0
1, 130180, Note_on_c, 9, 38, 118
1, 130184, Note_on_c, 9, 38, 0
1, 130184, Note_on_c, 8, 78, 74
1, 130186, Note_on_c, 1, 28, 115
1, 130186, Note_on_c, 7, 59, 78
1, 130266, Note_on_c, 1, 28, 0
1, 130270, Note_on_c, 9, 44, 51
1, 130270, Note_on_c, 9, 69, 32
1, 130272, Note_on_c, 8, 78, 0
1, 130274, Note_on_c, 9, 69, 0
1, 130274, Note_on_c, 9, 44, 0
1, 130276, Note_on_c, 1, 28, 109
1, 130360, Note_on_c, 9, 42, 57
1, 130360, Note_on_c, 9, 69, 32
1, 130362, Note_on_c, 8, 80, 81
1, 130364, Note_on_c, 9, 69, 0
1, 130364, Note_on_c, 9, 42, 0
1, 130450, Note_on_c, 8, 80, 0
1, 130456, Note_on_c, 1, 28, 0
1, 130460, Note_on_c, 9, 44, 55
1, 130464, Note_on_c, 9, 44, 0
1, 130466, Note_on_c, 9, 69, 34
1, 130468, Note_on_c, 9, 36, 119
1, 130470, Note_on_c, 9, 69, 0
1, 130472, Note_on_c, 9, 36, 0
1, 130476, Note_on_c, 1, 35, 115
1, 130536, Note_on_c, 2, 68, 0
1, 130538, Note_on_c, 2, 64, 0
1, 130544, Note_on_c, 2, 59, 0
1, 130550, Note_on_c, 2, 64, 94
1, 130550, Note_on_c, 2, 68, 99
1, 130550, Note_on_c, 4, 59, 65
1, 130554, Note_on_c, 9, 69, 38
1, 130556, Note_on_c, 1, 35, 0
1, 130556, Note_on_c, 9, 36, 122
1, 130558, Note_on_c, 9, 69, 0
1, 130558, Note_on_c, 9, 42, 52
1, 130560, Note_on_c, 9, 36, 0
1, 130560, Note_on_c, 4, 64, 62
1, 130560, Note_on_c, 13, 64, 110
1, 130560, Control_c, 14, 1, 28
1, 130562, Note_on_c, 9, 42, 0
1, 130564, Note_on_c, 2, 59, 95
1, 130564, Note_on_c, 9, 63, 86
1, 130564, Note_on_c, 14, 76, 114
1, 130566, Note_on_c, 1, 37, 114
1, 130566, Note_on_c, 15, 68, 109
1, 130568, Note_on_c, 9, 63, 0
1, 130570, Note_on_c, 13, 68, 103
1, 130604, Note_on_c, 4, 59, 0
1, 130614, Note_on_c, 4, 64, 0
1, 130648, Note_on_c, 9, 44, 52
1, 130650, Note_on_c, 9, 69, 34
1, 130652, Note_on_c, 9, 44, 0
1, 130652, Note_on_c, 4, 59, 99
1, 130652, Note_on_c, 4, 64, 103
1, 130654, Note_on_c, 9, 69, 0
1, 130658, Note_on_c, 9, 63, 87
1, 130659, Control_c, 14, 1, 70
1, 130662, Note_on_c, 9, 63, 0
1, 130664, Note_on_c, 4, 68, 100
1, 130748, Note_on_c, 9, 42, 59
1, 130748, Note_on_c, 9, 69, 38
1, 130752, Note_on_c, 9, 69, 0
1, 130752, Note_on_c, 9, 42, 0
1, 130758, Note_on_c, 8, 83, 78
1, 130776, Control_c, 14, 1, 55
1, 130832, Note_on_c, 4, 64, 0
1, 130832, Note_on_c, 4, 59, 0
1, 130842, Note_on_c, 4, 68, 0
1, 130842, Note_on_c, 4, 68, 68
1, 130842, Note_on_c, 9, 69, 31
1, 130846, Note_on_c, 9, 69, 0
1, 130846, Note_on_c, 8, 83, 0
1, 130846, Note_on_c, 9, 44, 59
1, 130850, Note_on_c, 9, 44, 0
1, 130854, Note_on_c, 4, 59, 65
1, 130856, Note_on_c, 4, 64, 61
1, 130863, Control_c, 14, 1, 37
1, 130896, Note_on_c, 4, 68, 0
1, 130908, Note_on_c, 4, 59, 0
1, 130910, Note_on_c, 4, 64, 0
1, 130920, Note_on_c, 13, 64, 0
1, 130924, Note_on_c, 14, 76, 0
1, 130926, Note_on_c, 15, 68, 0
1, 130930, Note_on_c, 13, 68, 0
1, 130936, Note_on_c, 9, 38, 121
1, 130938, Note_on_c, 8, 81, 82
1, 130940, Note_on_c, 9, 38, 0
1, 130940, Note_on_c, 9, 42, 55
1, 130944, Note_on_c, 9, 42, 0
1, 130946, Note_on_c, 9, 69, 37
1, 130948, Note_on_c, 9, 64, 84
1, 130950, Note_on_c, 9, 69, 0
1, 130952, Note_on_c, 9, 64, 0
1, 131026, Note_on_c, 8, 81, 0
1, 131026, Note_on_c, 1, 37, 0
1, 131031, Control_c, 14, 1, 15
1, 131034, Note_on_c, 9, 44, 51
1, 131038, Note_on_c, 9, 44, 0
1, 131038, Note_on_c, 9, 69, 36
1, 131042, Note_on_c, 9, 69, 0
1, 131044, Note_on_c, 1, 32, 110
1, 131122, Note_on_c, 1, 37, 110
1, 131124, Note_on_c, 1, 32, 0
1, 131128, Note_on_c, 9, 36, 103
1, 131132, Note_on_c, 9, 36, 0
1, 131132, Note_on_c, 5, 71, 66
1, 131134, Note_on_c, 14, 71, 116
1, 131136, Note_on_c, 9, 69, 38
1, 131138, Note_on_c, 8, 80, 78
1, 131138, Note_on_c, 15, 59, 104
1, 131140, Note_on_c, 9, 69, 0
1, 131140, Note_on_c, 9, 42, 59
1, 131144, Note_on_c, 9, 42, 0
1, 131144, Note_on_c, 13, 59, 106
1, 131208, Note_on_c, 5, 71, 0
1, 131226, Note_on_c, 8, 80, 0
1, 131230, Note_on_c, 9, 36, 104
1, 131230, Note_on_c, 9, 69, 34
1, 131232, Note_on_c, 5, 71, 72
1, 131232, Note_on_c, 9, 63, 84
1, 131234, Note_on_c, 9, 69, 0
1, 131234, Note_on_c, 9, 36, 0
1, 131236, Note_on_c, 9, 63, 0
1, 131236, Note_on_c, 9, 44, 53
1, 131240, Note_on_c, 9, 44, 0
1, 131302, Note_on_c, 1, 37, 0
1, 131308, Note_on_c, 5, 71, 0
1, 131314, Note_on_c, 14, 71, 0
1, 131318, Note_on_c, 15, 59, 0
1, 131324, Note_on_c, 13, 59, 0
1, 131324, Note_on_c, 9, 42, 51
1, 131326, Note_on_c, 5, 71, 67
1, 131328, Note_on_c, 9, 42, 0
1, 131328, Note_on_c, 9, 69, 30
1, 131328, Note_on_c, 15, 68, 104
1, 131332, Note_on_c, 9, 69, 0
1, 131332, Note_on_c, 13, 64, 109
1, 131334, Note_on_c, 14, 76, 116
1, 131336, Note_on_c, 1, 37, 116
1, 131336, Note_on_c, 8, 78, 81
1, 131344, Note_on_c, 13, 68, 106
1, 131402, Note_on_c, 5, 71, 0
1, 131414, Note_on_c, 5, 71, 71
1, 131422, Note_on_c, 9, 69, 30
1, 131424, Note_on_c, 8, 78, 0
1, 131426, Note_on_c, 9, 69, 0
1, 131428, Note_on_c, 9, 62, 82
1, 131428, Note_on_c, 9, 44, 54
1, 131432, Note_on_c, 9, 44, 0
1, 131432, Note_on_c, 9, 62, 0
1, 131490, Note_on_c, 5, 71, 0
1, 131510, Note_on_c, 4, 68, 61
1, 131510, Note_on_c, 8, 76, 75
1, 131514, Note_on_c, 9, 64, 86
1, 131518, Note_on_c, 9, 64, 0
1, 131518, Note_on_c, 4, 64, 94
1, 131522, Note_on_c, 9, 42, 59
1, 131524, Note_on_c, 9, 69, 36
1, 131526, Note_on_c, 9, 42, 0
1, 131528, Note_on_c, 9, 69, 0
1, 131564, Note_on_c, 4, 68, 0
1, 131588, Note_on_c, 15, 68, 0
1, 131592, Note_on_c, 13, 64, 0
1, 131594, Note_on_c, 14, 76, 0
1, 131596, Note_on_c, 1, 37, 0
1, 131598, Note_on_c, 8, 76, 0
1, 131602, Note_on_c, 1, 37, 111
1, 131604, Note_on_c, 13, 68, 0
1, 131610, Note_on_c, 9, 69, 32
1, 131610, Note_on_c, 13, 69, 104
1, 131610, Note_on_c, 15, 69, 105
1, 131612, Note_on_c, 4, 69, 60
1, 131614, Note_on_c, 9, 69, 0
1, 131616, Note_on_c, 14, 78, 118
1, 131620, Note_on_c, 9, 44, 53
1, 131624, Note_on_c, 9, 44, 0
1, 131624, Note_on_c, 13, 66, 108
1, 131666, Note_on_c, 4, 69, 0
1, 131682, Note_on_c, 1, 37, 0
1, 131704, Note_on_c, 1, 35, 112
1, 131704, Note_on_c, 9, 38, 120
1, 131704, Note_on_c, 9, 42, 54
1, 131706, Note_on_c, 8, 78, 76
1, 131708, Note_on_c, 9, 42, 0
1, 131708, Note_on_c, 9, 38, 0
1, 131710, Note_on_c, 4, 68, 102
1, 131714, Note_on_c, 9, 69, 33
1, 131718, Note_on_c, 9, 69, 0
1, 131784, Note_on_c, 1, 35, 0
1, 131794, Note_on_c, 8, 78, 0
1, 131800, Note_on_c, 9, 69, 38
1, 131804, Note_on_c, 9, 69, 0
1, 131814, Note_on_c, 9, 44, 52
1, 131818, Note_on_c, 9, 44, 0
1, 131818, Note_on_c, 1, 35, 109
1, 131870, Note_on_c, 15, 69, 0
1, 131870, Note_on_c, 13, 69, 0
1, 131876, Note_on_c, 14, 78, 0
1, 131884, Note_on_c, 13, 66, 0
1, 131896, Note_on_c, 9, 42, 57
1, 131898, Note_on_c, 1, 35, 0
1, 131898, Note_on_c, 9, 69, 32
1, 131900, Note_on_c, 9, 42, 0
1, 131900, Note_on_c, 15, 71, 108
1, 131902, Note_on_c, 9, 69, 0
1, 131902, Note_on_c, 13, 71, 112
1, 131904, Note_on_c, 8, 80, 75
1, 131904, Note_on_c, 13, 68, 107
1, 131906, Note_on_c, 14, 80, 110
1, 131912, Note_on_c, 1, 37, 112
1, 131992, Note_on_c, 8, 80, 0
1, 131992, Note_on_c, 9, 36, 116
1, 131996, Note_on_c, 9, 36, 0
1, 132002, Note_on_c, 9, 44, 52
1, 132006, Note_on_c, 9, 44, 0
1, 132006, Note_on_c, 9, 69, 30
1, 132010, Note_on_c, 9, 69, 0
1, 132044, Note_on_c, 7, 71, 0
1, 132062, Note_on_c, 2, 64, 0
1, 132062, Note_on_c, 2, 68, 0
1, 132066, Note_on_c, 7, 59, 0
1, 132070, Note_on_c, 4, 68, 0
1, 132074, Note_on_c, 6, 64, 0
1, 132076, Note_on_c, 2, 59, 0
1, 132078, Note_on_c, 4, 64, 0
1, 132080, Note_on_c, 15, 71, 0
1, 132082, Note_on_c, 13, 71, 0
1, 132084, Note_on_c, 13, 68, 0
1, 132084, Note_on_c, 6, 59, 0
1, 132086, Note_on_c, 14, 80, 0
1, 132088, Note_on_c, 2, 62, 98
1, 132088, Note_on_c, 2, 66, 96
1, 132090, Note_on_c, 2, 57, 98
1, 132090, Note_on_c, 4, 57, 62
1, 132092, Note_on_c, 1, 37, 0
1, 132092, Note_on_c, 4, 62, 64
1, 132092, Note_on_c, 9, 36, 121
1, 132094, Note_on_c, 15, 73, 106
1, 132096, Note_on_c, 9, 36, 0
1, 132096, Note_on_c, 6, 56, 0
1, 132096, Note_on_c, 6, 62, 68
1, 132096, Note_on_c, 9, 42, 52
1, 132096, Note_on_c, 9, 63, 85
1, 132096, Note_on_c, 14, 81, 111
1, 132096, Pitch_bend_c, 15, 7296
1, 132098, Note_on_c, 1, 38, 115
1, 132098, Note_on_c, 9, 69, 30
1, 132100, Note_on_c, 9, 63, 0
1, 132100, Note_on_c, 9, 42, 0
1, 132100, Note_on_c, 7, 81, 83
1, 132100, Note_on_c, 13, 69, 108
1, 132102, Note_on_c, 9, 69, 0
1, 132102, Note_on_c, 6, 54, 65
1, 132102, Note_on_c, 7, 69, 74
1, 132104, Pitch_bend_c, 15, 7360
1, 132108, Note_on_c, 6, 57, 71
1, 132108, Pitch_bend_c, 15, 7424
1, 132112, Note_on_c, 13, 73, 105
1, 132112, Pitch_bend_c, 15, 7488
1, 132116, Pitch_bend_c, 15, 7552
1, 132120, Pitch_bend_c, 15, 7616
1, 132124, Pitch_bend_c, 15, 7680
1, 132128, Pitch_bend_c, 15, 7744
1, 132132, Pitch_bend_c, 15, 7808
1, 132136, Pitch_bend_c, 15, 7872
1, 132140, Pitch_bend_c, 15, 7936
1, 132144, Note_on_c, 4, 57, 0
1, 132144, Pitch_bend_c, 15, 8000
1, 132146, Note_on_c, 4, 62, 0
1, 132148, Pitch_bend_c, 15, 8064
1, 132152, Pitch_bend_c, 15, 8128
1, 132156, Pitch_bend_c, 15, 8192
1, 132180, Note_on_c, 13, 69, 0
1, 132182, Note_on_c, 4, 57, 97
1, 132184, Note_on_c, 4, 62, 97
1, 132186, Note_on_c, 14, 80, 109
1, 132188, Note_on_c, 4, 66, 100
1, 132192, Note_on_c, 13, 73, 0
1, 132192, Note_on_c, 9, 63, 82
1, 132192, Note_on_c, 15, 71, 105
1, 132194, Note_on_c, 13, 71, 108
1, 132196, Note_on_c, 9, 63, 0
1, 132196, Note_on_c, 9, 44, 52
1, 132196, Note_on_c, 9, 69, 35
1, 132198, Note_on_c, 15, 73, 0
1, 132200, Note_on_c, 9, 69, 0
1, 132200, Note_on_c, 9, 44, 0
1, 132200, Note_on_c, 14, 81, 0
1, 132200, Note_on_c, 13, 68, 111
1, 132274, Note_on_c, 13, 71, 0
1, 132280, Note_on_c, 13, 68, 0
1, 132280, Note_on_c, 9, 42, 52
1, 132284, Note_on_c, 9, 42, 0
1, 132286, Note_on_c, 14, 78, 116
1, 132286, Note_on_c, 15, 69, 106
1, 132288, Control_c, 14, 1, 28
1, 132288, Control_c, 15, 1, 28
1, 132290, Note_on_c, 14, 80, 0
1, 132290, Note_on_c, 9, 69, 34
1, 132294, Note_on_c, 9, 69, 0
1, 132294, Note_on_c, 8, 81, 76
1, 132296, Note_on_c, 15, 71, 0
1, 132298, Note_on_c, 13, 66, 107
1, 132304, Note_on_c, 13, 69, 112
1, 132362, Note_on_c, 4, 57, 0
1, 132364, Note_on_c, 4, 62, 0
1, 132368, Note_on_c, 4, 66, 0
1, 132374, Note_on_c, 4, 57, 66
1, 132374, Note_on_c, 4, 66, 67
1, 132376, Note_on_c, 4, 62, 59
1, 132378, Note_on_c, 9, 44, 50
1, 132380, Note_on_c, 9, 69, 38
1, 132382, Note_on_c, 9, 44, 0
1, 132382, Note_on_c, 8, 81, 0
1, 132384, Note_on_c, 9, 69, 0
1, 132387, Control_c, 14, 1, 70
1, 132387, Control_c, 15, 1, 70
1, 132428, Note_on_c, 4, 66, 0
1, 132428, Note_on_c, 4, 57, 0
1, 132430, Note_on_c, 4, 62, 0
1, 132458, Note_on_c, 1, 38, 0
1, 132466, Note_on_c, 1, 38, 118
1, 132472, Note_on_c, 9, 42, 51
1, 132476, Note_on_c, 9, 42, 0
1, 132478, Note_on_c, 8, 80, 83
1, 132482, Note_on_c, 9, 69, 30
1, 132484, Note_on_c, 9, 64, 87
1, 132486, Note_on_c, 9, 69, 0
1, 132486, Note_on_c, 9, 38, 120
1, 132488, Note_on_c, 9, 64, 0
1, 132490, Note_on_c, 9, 38, 0
1, 132504, Control_c, 14, 1, 55
1, 132504, Control_c, 15, 1, 55
1, 132546, Note_on_c, 1, 38, 0
1, 132566, Note_on_c, 8, 80, 0
1, 132568, Note_on_c, 1, 33, 116
1, 132574, Note_on_c, 9, 69, 38
1, 132578, Note_on_c, 9, 69, 0
1, 132580, Note_on_c, 9, 44, 51
1, 132584, Note_on_c, 9, 44, 0
1, 132591, Control_c, 14, 1, 37
1, 132591, Control_c, 15, 1, 37
1, 132646, Note_on_c, 15, 69, 0
1, 132646, Note_on_c, 14, 78, 0
1, 132648, Note_on_c, 1, 33, 0
1, 132658, Note_on_c, 13, 66, 0
1, 132662, Note_on_c, 8, 78, 81
1, 132664, Note_on_c, 13, 69, 0
1, 132670, Note_on_c, 5, 74, 72
1, 132670, Note_on_c, 9, 69, 36
1, 132674, Note_on_c, 9, 69, 0
1, 132676, Note_on_c, 1, 38, 118
1, 132676, Note_on_c, 9, 36, 105
1, 132678, Note_on_c, 9, 42, 58
1, 132680, Note_on_c, 9, 36, 0
1, 132682, Note_on_c, 9, 42, 0
1, 132746, Note_on_c, 5, 74, 0
1, 132750, Note_on_c, 8, 78, 0
1, 132759, Control_c, 14, 1, 15
1, 132759, Control_c, 15, 1, 15
1, 132766, Note_on_c, 9, 69, 31
1, 132768, Note_on_c, 9, 36, 102
1, 132770, Note_on_c, 9, 69, 0
1, 132770, Note_on_c, 9, 44, 53
1, 132772, Note_on_c, 9, 36, 0
1, 132772, Note_on_c, 9, 63, 79
1, 132774, Note_on_c, 9, 44, 0
1, 132776, Note_on_c, 9, 63, 0
1, 132776, Note_on_c, 5, 74, 71
1, 132852, Note_on_c, 5, 74, 0
1, 132856, Note_on_c, 1, 38, 0
1, 132860, Note_on_c, 1, 38, 113
1, 132860, Note_on_c, 9, 42, 58
1, 132864, Note_on_c, 9, 42, 0
1, 132864, Note_on_c, 9, 69, 31
1, 132866, Note_on_c, 5, 69, 73
1, 132868, Note_on_c, 9, 69, 0
1, 132872, Note_on_c, 8, 76, 81
1, 132942, Note_on_c, 5, 69, 0
1, 132952, Note_on_c, 5, 71, 65
1, 132956, Note_on_c, 9, 44, 59
1, 132960, Note_on_c, 9, 44, 0
1, 132960, Note_on_c, 8, 76, 0
1, 132964, Note_on_c, 9, 62, 82
1, 132966, Note_on_c, 9, 69, 33
1, 132968, Note_on_c, 9, 62, 0
1, 132970, Note_on_c, 9, 69, 0
1, 133028, Note_on_c, 5, 71, 0
1, 133048, Note_on_c, 5, 71, 68
1, 133048, Note_on_c, 13, 59, 110
1, 133050, Note_on_c, 9, 42, 50
1, 133052, Note_on_c, 15, 59, 112
1, 133054, Note_on_c, 9, 42, 0
1, 133054, Note_on_c, 9, 64, 87
1, 133056, Note_on_c, 8, 75, 78
1, 133058, Note_on_c, 9, 64, 0
1, 133060, Note_on_c, 14, 71, 109
1, 133062, Note_on_c, 9, 69, 30
1, 133066, Note_on_c, 9, 69, 0
1, 133124, Note_on_c, 5, 71, 0
1, 133144, Note_on_c, 8, 75, 0
1, 133146, Note_on_c, 4, 57, 65
1, 133146, Note_on_c, 9, 69, 34
1, 133150, Note_on_c, 9, 69, 0
1, 133154, Note_on_c, 9, 44, 52
1, 133156, Note_on_c, 4, 62, 60
1, 133156, Note_on_c, 4, 66, 67
1, 133158, Note_on_c, 9, 44, 0
1, 133200, Note_on_c, 4, 57, 0
1, 133210, Note_on_c, 4, 66, 0
1, 133210, Note_on_c, 4, 62, 0
1, 133220, Note_on_c, 1, 38, 0
1, 133228, Note_on_c, 13, 59, 0
1, 133232, Note_on_c, 15, 59, 0
1, 133240, Note_on_c, 14, 71, 0
1, 133240, Note_on_c, 1, 38, 117
1, 133240, Note_on_c, 8, 76, 75
1, 133242, Note_on_c, 14, 71, 110
1, 133242, Note_on_c, 15, 59, 103
1, 133244, Note_on_c, 5, 64, 72
1, 133246, Note_on_c, 9, 42, 52
1, 133248, Note_on_c, 13, 59, 111
1, 133250, Note_on_c, 9, 42, 0
1, 133250, Note_on_c, 9, 38, 122
1, 133250, Note_on_c, 9, 69, 32
1, 133254, Note_on_c, 9, 69, 0
1, 133254, Note_on_c, 9, 38, 0
1, 133320, Note_on_c, 5, 64, 0
1, 133328, Note_on_c, 8, 76, 0
1, 133334, Note_on_c, 5, 64, 69
1, 133336, Note_on_c, 1, 38, 0
1, 133340, Note_on_c, 1, 38, 117
1, 133340, Note_on_c, 9, 44, 58
1, 133344, Note_on_c, 9, 44, 0
1, 133348, Note_on_c, 9, 69, 34
1, 133352, Note_on_c, 9, 69, 0
1, 133410, Note_on_c, 5, 64, 0
1, 133430, Note_on_c, 5, 64, 73
1, 133434, Note_on_c, 1, 35, 118
1, 133434, Note_on_c, 9, 69, 33
1, 133436, Note_on_c, 1, 38, 0
1, 133436, Note_on_c, 8, 78, 74
1, 133438, Note_on_c, 9, 69, 0
1, 133442, Note_on_c, 9, 42, 51
1, 133446, Note_on_c, 9, 42, 0
1, 133506, Note_on_c, 5, 64, 0
1, 133514, Note_on_c, 1, 35, 0
1, 133524, Note_on_c, 8, 78, 0
1, 133530, Note_on_c, 1, 33, 111
1, 133530, Note_on_c, 9, 36, 119
1, 133534, Note_on_c, 9, 36, 0
1, 133534, Note_on_c, 9, 44, 51
1, 133538, Note_on_c, 9, 44, 0
1, 133542, Note_on_c, 9, 69, 29
1, 133546, Note_on_c, 9, 69, 0
1, 133600, Note_on_c, 2, 62, 0
1, 133600, Note_on_c, 2, 66, 0
1, 133602, Note_on_c, 2, 57, 0
1, 133602, Note_on_c, 14, 71, 0
1, 133602, Note_on_c, 15, 59, 0
1, 133608, Note_on_c, 13, 59, 0
1, 133610, Note_on_c, 1, 33, 0
1, 133618, Note_on_c, 1, 38, 112
1, 133624, Note_on_c, 2, 57, 99
1, 133624, Note_on_c, 4, 57, 66
1, 133628, Note_on_c, 9, 42, 58
1, 133628, Note_on_c, 9, 69, 33
1, 133628, Note_on_c, 14, 81, 109
1, 133632, Note_on_c, 9, 69, 0
1, 133632, Note_on_c, 9, 42, 0
1, 133632, Pitch_bend_c, 14, 7296
1, 133632, Pitch_bend_c, 15, 7296
1, 133634, Note_on_c, 2, 66, 97
1, 133634, Note_on_c, 9, 36, 122
1, 133634, Note_on_c, 13, 73, 112
1, 133638, Note_on_c, 9, 36, 0
1, 133638, Note_on_c, 2, 62, 102
1, 133638, Note_on_c, 9, 63, 85
1, 133638, Note_on_c, 13, 69, 112
1, 133638, Note_on_c, 15, 73, 106
1, 133640, Note_on_c, 4, 62, 99
1, 133640, Pitch_bend_c, 14, 7360
1, 133640, Pitch_bend_c, 15, 7360
1, 133642, Note_on_c, 9, 63, 0
1, 133644, Pitch_bend_c, 14, 7424
1, 133644, Pitch_bend_c, 15, 7424
1, 133648, Pitch_bend_c, 14, 7488
1, 133648, Pitch_bend_c, 15, 7488
1, 133652, Pitch_bend_c, 14, 7552
1, 133652, Pitch_bend_c, 15, 7552
1, 133656, Pitch_bend_c, 14, 7616
1, 133656, Pitch_bend_c, 15, 7616
1, 133660, Pitch_bend_c, 14, 7680
1, 133660, Pitch_bend_c, 15, 7680
1, 133664, Pitch_bend_c, 14, 7744
1, 133664, Pitch_bend_c, 15, 7744
1, 133668, Pitch_bend_c, 14, 7808
1, 133668, Pitch_bend_c, 15, 7808
1, 133672, Pitch_bend_c, 14, 7872
1, 133672, Pitch_bend_c, 15, 7872
1, 133676, Pitch_bend_c, 14, 7936
1, 133676, Pitch_bend_c, 15, 7936
1, 133678, Note_on_c, 4, 57, 0
1, 133680, Pitch_bend_c, 14, 8000
1, 133680, Pitch_bend_c, 15, 8000
1, 133684, Pitch_bend_c, 14, 8064
1, 133684, Pitch_bend_c, 15, 8064
1, 133688, Pitch_bend_c, 14, 8128
1, 133688, Pitch_bend_c, 15, 8128
1, 133692, Pitch_bend_c, 14, 8192
1, 133692, Pitch_bend_c, 15, 8192
1, 133718, Note_on_c, 4, 62, 0
1, 133718, Note_on_c, 4, 62, 102
1, 133726, Note_on_c, 4, 57, 103
1, 133728, Note_on_c, 4, 66, 103
1, 133728, Note_on_c, 9, 63, 84
1, 133730, Note_on_c, 9, 44, 51
1, 133732, Note_on_c, 9, 63, 0
1, 133734, Note_on_c, 9, 44, 0
1, 133734, Note_on_c, 9, 69, 34
1, 133738, Note_on_c, 9, 69, 0
1, 133816, Note_on_c, 9, 42, 57
1, 133818, Note_on_c, 9, 69, 37
1, 133820, Note_on_c, 9, 42, 0
1, 133820, Note_on_c, 8, 81, 75
1, 133822, Note_on_c, 9, 69, 0
1, 133898, Note_on_c, 4, 62, 0
1, 133906, Note_on_c, 4, 57, 0
1, 133908, Note_on_c, 8, 81, 0
1, 133908, Note_on_c, 4, 66, 0
1, 133914, Note_on_c, 9, 46, 106
1, 133918, Note_on_c, 9, 46, 0
1, 133924, Note_on_c, 9, 69, 34
1, 133926, Note_on_c, 4, 62, 59
1, 133928, Note_on_c, 9, 69, 0
1, 133928, Note_on_c, 4, 57, 59
1, 133928, Note_on_c, 4, 66, 68
1, 133978, Note_on_c, 1, 38, 0
1, 133980, Note_on_c, 4, 62, 0
1, 133982, Note_on_c, 4, 66, 0
1, 133982, Note_on_c, 4, 57, 0
1, 133988, Note_on_c, 14, 81, 0
1, 133994, Note_on_c, 13, 73, 0
1, 133998, Note_on_c, 13, 69, 0
1, 133998, Note_on_c, 15, 73, 0
1, 134008, Note_on_c, 9, 38, 119
1, 134008, Note_on_c, 9, 64, 84
1, 134008, Note_on_c, 13, 73, 106
1, 134008, Note_on_c, 15, 73, 110
1, 134010, Note_on_c, 9, 42, 50
1, 134012, Note_on_c, 9, 64, 0
1, 134012, Note_on_c, 9, 38, 0
1, 134014, Note_on_c, 9, 42, 0
1, 134018, Note_on_c, 1, 38, 116
1, 134018, Note_on_c, 8, 80, 80
1, 134022, Note_on_c, 9, 69, 33
1, 134022, Note_on_c, 14, 81, 116
1, 134026, Note_on_c, 9, 69, 0
1, 134028, Note_on_c, 13, 69, 108
1, 134098, Note_on_c, 1, 38, 0
1, 134106, Note_on_c, 8, 80, 0
1, 134108, Note_on_c, 9, 69, 29
1, 134112, Note_on_c, 9, 69, 0
1, 134114, Note_on_c, 9, 44, 52
1, 134118, Note_on_c, 9, 44, 0
1, 134124, Note_on_c, 1, 33, 113
1, 134188, Note_on_c, 13, 73, 0
1, 134188, Note_on_c, 15, 73, 0
1, 134200, Note_on_c, 13, 68, 111
1, 134200, Note_on_c, 15, 71, 106
1, 134202, Note_on_c, 14, 81, 0
1, 134204, Note_on_c, 1, 33, 0
1, 134206, Note_on_c, 9, 69, 32
1, 134206, Note_on_c, 14, 80, 111
1, 134208, Note_on_c, 13, 69, 0
1, 134210, Note_on_c, 9, 69, 0
1, 134210, Note_on_c, 8, 78, 82
1, 134212, Note_on_c, 9, 36, 105
1, 134212, Note_on_c, 13, 71, 107
1, 134214, Note_on_c, 9, 42, 50
1, 134216, Note_on_c, 9, 36, 0
1, 134218, Note_on_c, 9, 42, 0
1, 134218, Note_on_c, 1, 38, 116
1, 134296, Note_on_c, 9, 44, 53
1, 134296, Note_on_c, 9, 63, 88
1, 134298, Note_on_c, 8, 78, 0
1, 134300, Note_on_c, 9, 63, 0
1, 134300, Note_on_c, 9, 44, 0
1, 134306, Note_on_c, 9, 36, 108
1, 134308, Note_on_c, 4, 52, 98
1, 134310, Note_on_c, 9, 36, 0
1, 134310, Note_on_c, 9, 69, 34
1, 134314, Note_on_c, 9, 69, 0
1, 134390, Note_on_c, 8, 76, 75
1, 134392, Note_on_c, 9, 69, 32
1, 134396, Note_on_c, 9, 69, 0
1, 134398, Note_on_c, 1, 38, 0
1, 134404, Note_on_c, 1, 38, 112
1, 134404, Note_on_c, 9, 38, 120
1, 134408, Note_on_c, 9, 38, 0
1, 134478, Note_on_c, 8, 76, 0
1, 134488, Note_on_c, 4, 52, 0
1, 134490, Note_on_c, 9, 62, 86
1, 134494, Note_on_c, 9, 62, 0
1, 134500, Note_on_c, 4, 52, 63
1, 134502, Note_on_c, 9, 69, 33
1, 134506, Note_on_c, 9, 69, 0
1, 134554, Note_on_c, 4, 52, 0
1, 134560, Note_on_c, 15, 71, 0
1, 134560, Note_on_c, 13, 68, 0
1, 134566, Note_on_c, 14, 80, 0
1, 134572, Note_on_c, 13, 71, 0
1, 134590, Note_on_c, 4, 54, 99
1, 134590, Note_on_c, 9, 47, 120
1, 134590, Note_on_c, 15, 69, 105
1, 134592, Note_on_c, 9, 64, 88
1, 134594, Note_on_c, 9, 47, 0
1, 134594, Note_on_c, 8, 75, 82
1, 134594, Note_on_c, 13, 69, 108
1, 134594, Note_on_c, 14, 78, 110
1, 134596, Note_on_c, 9, 64, 0
1, 134596, Note_on_c, 9, 69, 29
1, 134600, Note_on_c, 9, 69, 0
1, 134600, Note_on_c, 13, 66, 110
1, 134664, Note_on_c, 1, 38, 0
1, 134680, Note_on_c, 9, 69, 31
1, 134682, Note_on_c, 8, 75, 0
1, 134684, Note_on_c, 9, 69, 0
1, 134688, Note_on_c, 1, 38, 115
1, 134744, Note_on_c, 2, 57, 0
1, 134754, Note_on_c, 2, 66, 0
1, 134758, Note_on_c, 2, 62, 0
1, 134770, Note_on_c, 4, 54, 0
1, 134770, Note_on_c, 15, 69, 0
1, 134774, Note_on_c, 13, 69, 0
1, 134774, Note_on_c, 14, 78, 0
1, 134776, Note_on_c, 8, 76, 83
1, 134776, Note_on_c, 13, 68, 104
1, 134778, Note_on_c, 9, 38, 116
1, 134780, Note_on_c, 13, 66, 0
1, 134780, Note_on_c, 14, 76, 109
1, 134782, Note_on_c, 9, 38, 0
1, 134782, Note_on_c, 2, 57, 96
1, 134782, Note_on_c, 4, 56, 99
1, 134784, Note_on_c, 1, 38, 0
1, 134784, Note_on_c, 9, 69, 29
1, 134784, Note_on_c, 15, 68, 108
1, 134788, Note_on_c, 9, 69, 0
1, 134788, Note_on_c, 2, 66, 99
1, 134792, Note_on_c, 1, 33, 111
1, 134792, Note_on_c, 2, 62, 94
1, 134792, Note_on_c, 13, 64, 108
1, 134864, Note_on_c, 8, 76, 0
1, 134874, Note_on_c, 9, 69, 38
1, 134878, Note_on_c, 9, 69, 0
1, 134888, Note_on_c, 1, 33, 0
1, 134888, Note_on_c, 1, 35, 113
1, 134956, Note_on_c, 13, 68, 0
1, 134960, Note_on_c, 14, 76, 0
1, 134962, Note_on_c, 4, 56, 0
1, 134964, Note_on_c, 15, 68, 0
1, 134968, Note_on_c, 15, 69, 110
1, 134970, Note_on_c, 14, 78, 116
1, 134972, Note_on_c, 13, 64, 0
1, 134972, Note_on_c, 4, 59, 102
1, 134976, Note_on_c, 1, 38, 111
1, 134976, Note_on_c, 13, 66, 104
1, 134976, Note_on_c, 13, 69, 103
1, 134980, Note_on_c, 9, 38, 122
1, 134980, Note_on_c, 9, 69, 36
1, 134984, Note_on_c, 9, 69, 0
1, 134984, Note_on_c, 9, 38, 0
1, 134984, Note_on_c, 1, 35, 0
1, 134984, Note_on_c, 8, 78, 77
1, 135056, Note_on_c, 1, 38, 0
1, 135070, Note_on_c, 1, 40, 112
1, 135072, Note_on_c, 8, 78, 0
1, 135072, Note_on_c, 9, 38, 123
1, 135074, Note_on_c, 9, 69, 29
1, 135076, Note_on_c, 9, 38, 0
1, 135078, Note_on_c, 9, 69, 0
1, 135142, Note_on_c, 2, 57, 0
1, 135148, Note_on_c, 15, 69, 0
1, 135148, Note_on_c, 2, 66, 0
1, 135150, Note_on_c, 14, 78, 0
1, 135150, Note_on_c, 1, 40, 0
1, 135152, Note_on_c, 2, 62, 0
1, 135152, Note_on_c, 4, 59, 0
1, 135156, Note_on_c, 6, 62, 0
1, 135156, Note_on_c, 13, 69, 0
1, 135156, Note_on_c, 13, 66, 0
1, 135158, Note_on_c, 2, 68, 95
1, 135158, Note_on_c, 4, 64, 62
1, 135160, Note_on_c, 4, 59, 60
1, 135160, Note_on_c, 13, 68, 106
1, 135162, Note_on_c, 6, 54, 0
1, 135162, Note_on_c, 1, 28, 110
1, 135162, Note_on_c, 2, 64, 96
1, 135162, Note_on_c, 6, 59, 69
1, 135162, Note_on_c, 14, 76, 109
1, 135166, Note_on_c, 9, 49, 107
1, 135168, Note_on_c, 6, 57, 0
1, 135168, Note_on_c, 6, 56, 66
1, 135168, Note_on_c, 9, 63, 87
1, 135168, Note_on_c, 9, 69, 35
1, 135168, Control_c, 15, 1, 28
1, 135170, Note_on_c, 9, 49, 0
1, 135170, Note_on_c, 9, 36, 118
1, 135170, Note_on_c, 13, 64, 108
1, 135172, Note_on_c, 9, 69, 0
1, 135172, Note_on_c, 9, 63, 0
1, 135172, Note_on_c, 15, 68, 110
1, 135174, Note_on_c, 9, 36, 0
1, 135174, Note_on_c, 2, 59, 100
1, 135174, Note_on_c, 6, 64, 68
1, 135212, Note_on_c, 4, 64, 0
1, 135214, Note_on_c, 4, 59, 0
1, 135240, Note_on_c, 7, 81, 0
1, 135242, Note_on_c, 7, 69, 0
1, 135258, Note_on_c, 4, 59, 94
1, 135260, Note_on_c, 4, 52, 98
1, 135260, Note_on_c, 9, 69, 36
1, 135264, Note_on_c, 9, 69, 0
1, 135264, Note_on_c, 4, 68, 100
1, 135264, Note_on_c, 9, 63, 86
1, 135266, Note_on_c, 9, 44, 57
1, 135267, Control_c, 15, 1, 70
1, 135268, Note_on_c, 9, 63, 0
1, 135270, Note_on_c, 9, 44, 0
1, 135356, Note_on_c, 8, 83, 83
1, 135364, Note_on_c, 9, 42, 58
1, 135364, Note_on_c, 9, 69, 30
1, 135368, Note_on_c, 9, 69, 0
1, 135368, Note_on_c, 9, 42, 0
1, 135384, Control_c, 15, 1, 55
1, 135438, Note_on_c, 4, 59, 0
1, 135440, Note_on_c, 4, 52, 0
1, 135444, Note_on_c, 4, 68, 0
1, 135444, Note_on_c, 8, 83, 0
1, 135448, Note_on_c, 4, 68, 60
1, 135458, Note_on_c, 4, 59, 64
1, 135458, Note_on_c, 9, 69, 37
1, 135460, Note_on_c, 4, 52, 68
1, 135460, Note_on_c, 9, 46, 105
1, 135462, Note_on_c, 9, 69, 0
1, 135464, Note_on_c, 9, 46, 0
1, 135471, Control_c, 15, 1, 37
1, 135502, Note_on_c, 4, 68, 0
1, 135512, Note_on_c, 4, 59, 0
1, 135514, Note_on_c, 4, 52, 0
1, 135520, Note_on_c, 13, 68, 0
1, 135522, Note_on_c, 14, 76, 0
1, 135530, Note_on_c, 13, 64, 0
1, 135532, Note_on_c, 15, 68, 0
1, 135542, Note_on_c, 8, 81, 78
1, 135544, Note_on_c, 9, 69, 30
1, 135546, Note_on_c, 9, 64, 85
1, 135548, Note_on_c, 9, 69, 0
1, 135548, Note_on_c, 7, 80, 79
1, 135548, Note_on_c, 9, 42, 50
1, 135550, Note_on_c, 9, 64, 0
1, 135552, Note_on_c, 9, 42, 0
1, 135554, Note_on_c, 7, 68, 75
1, 135556, Note_on_c, 9, 38, 120
1, 135560, Note_on_c, 9, 38, 0
1, 135630, Note_on_c, 8, 81, 0
1, 135639, Control_c, 15, 1, 15
1, 135654, Note_on_c, 9, 44, 53
1, 135654, Note_on_c, 9, 69, 38
1, 135658, Note_on_c, 9, 69, 0
1, 135658, Note_on_c, 9, 44, 0
1, 135702, Note_on_c, 1, 28, 0
1, 135734, Note_on_c, 8, 80, 83
1, 135738, Note_on_c, 1, 28, 116
1, 135738, Note_on_c, 9, 69, 37
1, 135742, Note_on_c, 9, 69, 0
1, 135748, Note_on_c, 5, 71, 68
1, 135748, Note_on_c, 9, 36, 106
1, 135750, Note_on_c, 9, 42, 53
1, 135752, Note_on_c, 9, 36, 0
1, 135754, Note_on_c, 9, 42, 0
1, 135822, Note_on_c, 8, 80, 0
1, 135824, Note_on_c, 5, 71, 0
1, 135834, Note_on_c, 9, 63, 79
1, 135834, Note_on_c, 9, 69, 29
1, 135838, Note_on_c, 9, 69, 0
1, 135838, Note_on_c, 9, 63, 0
1, 135840, Note_on_c, 9, 36, 106
1, 135844, Note_on_c, 9, 36, 0
1, 135844, Note_on_c, 5, 71, 70
1, 135844, Note_on_c, 9, 44, 59
1, 135848, Note_on_c, 9, 44, 0
1, 135908, Note_on_c, 7, 80, 0
1, 135914, Note_on_c, 7, 68, 0
1, 135918, Note_on_c, 1, 28, 0
1, 135920, Note_on_c, 5, 71, 0
1, 135928, Note_on_c, 9, 69, 38
1, 135930, Note_on_c, 5, 71, 65
1, 135930, Note_on_c, 7, 76, 76
1, 135932, Note_on_c, 9, 69, 0
1, 135932, Note_on_c, 8, 78, 74
1, 135936, Note_on_c, 9, 42, 58
1, 135940, Note_on_c, 9, 42, 0
1, 135940, Note_on_c, 7, 64, 79
1, 135948, Note_on_c, 1, 40, 111
1, 136006, Note_on_c, 5, 71, 0
1, 136020, Note_on_c, 8, 78, 0
1, 136022, Note_on_c, 5, 71, 68
1, 136024, Note_on_c, 9, 44, 56
1, 136028, Note_on_c, 9, 44, 0
1, 136028, Note_on_c, 9, 69, 32
1, 136032, Note_on_c, 9, 69, 0
1, 136038, Note_on_c, 9, 62, 85
1, 136042, Note_on_c, 9, 62, 0
1, 136098, Note_on_c, 5, 71, 0
1, 136120, Note_on_c, 14, 71, 118
1, 136126, Note_on_c, 13, 59, 107
1, 136130, Note_on_c, 9, 42, 57
1, 136132, Note_on_c, 9, 69, 31
1, 136134, Note_on_c, 9, 42, 0
1, 136134, Note_on_c, 9, 64, 84
1, 136134, Note_on_c, 15, 59, 107
1, 136136, Note_on_c, 9, 69, 0
1, 136136, Note_on_c, 8, 76, 81
1, 136138, Note_on_c, 9, 64, 0
1, 136208, Note_on_c, 1, 40, 0
1, 136214, Note_on_c, 5, 64, 65
1, 136216, Note_on_c, 4, 59, 62
1, 136220, Note_on_c, 9, 69, 35
1, 136224, Note_on_c, 9, 69, 0
1, 136224, Note_on_c, 8, 76, 0
1, 136226, Note_on_c, 1, 28, 115
1, 136226, Note_on_c, 4, 52, 66
1, 136226, Note_on_c, 9, 44, 50
1, 136230, Note_on_c, 9, 44, 0
1, 136232, Note_on_c, 4, 68, 62
1, 136270, Note_on_c, 4, 59, 0
1, 136280, Note_on_c, 4, 52, 0
1, 136286, Note_on_c, 4, 68, 0
1, 136290, Note_on_c, 7, 76, 0
1, 136290, Note_on_c, 5, 64, 0
1, 136300, Note_on_c, 14, 71, 0
1, 136300, Note_on_c, 7, 64, 0
1, 136306, Note_on_c, 13, 59, 0
1, 136306, Note_on_c, 1, 28, 0
1, 136306, Note_on_c, 1, 28, 111
1, 136314, Note_on_c, 15, 59, 0
1, 136314, Note_on_c, 9, 38, 119
1, 136316, Note_on_c, 9, 42, 53
1, 136318, Note_on_c, 9, 38, 0
1, 136318, Note_on_c, 13, 69, 105
1, 136320, Note_on_c, 9, 42, 0
1, 136320, Note_on_c, 9, 69, 38
1, 136320, Pitch_bend_c, 14, 7296
1, 136320, Note_on_c, 14, 78, 114
1, 136320, Pitch_bend_c, 15, 7296
1, 136322, Note_on_c, 7, 59, 83
1, 136324, Note_on_c, 9, 69, 0
1, 136324, Note_on_c, 13, 66, 105
1, 136326, Note_on_c, 15, 69, 104
1, 136328, Note_on_c, 7, 71, 82
1, 136328, Note_on_c, 8, 78, 80
1, 136328, Pitch_bend_c, 14, 7360
1, 136328, Pitch_bend_c, 15, 7360
1, 136332, Pitch_bend_c, 14, 7424
1, 136332, Pitch_bend_c, 15, 7424
1, 136336, Pitch_bend_c, 14, 7488
1, 136336, Pitch_bend_c, 15, 7488
1, 136340, Pitch_bend_c, 14, 7552
1, 136340, Pitch_bend_c, 15, 7552
1, 136344, Pitch_bend_c, 14, 7616
1, 136344, Pitch_bend_c, 15, 7616
1, 136348, Pitch_bend_c, 14, 7680
1, 136348, Pitch_bend_c, 15, 7680
1, 136352, Pitch_bend_c, 14, 7744
1, 136352, Pitch_bend_c, 15, 7744
1, 136356, Pitch_bend_c, 14, 7808
1, 136356, Pitch_bend_c, 15, 7808
1, 136360, Pitch_bend_c, 14, 7872
1, 136360, Pitch_bend_c, 15, 7872
1, 136364, Pitch_bend_c, 14, 7936
1, 136364, Pitch_bend_c, 15, 7936
1, 136368, Pitch_bend_c, 14, 8000
1, 136368, Pitch_bend_c, 15, 8000
1, 136372, Pitch_bend_c, 14, 8064
1, 136372, Pitch_bend_c, 15, 8064
1, 136376, Pitch_bend_c, 14, 8128
1, 136376, Pitch_bend_c, 15, 8128
1, 136380, Pitch_bend_c, 14, 8192
1, 136380, Pitch_bend_c, 15, 8192
1, 136386, Note_on_c, 1, 28, 0
1, 136406, Note_on_c, 1, 28, 114
1, 136414, Note_on_c, 9, 44, 57
1, 136416, Note_on_c, 8, 78, 0
1, 136418, Note_on_c, 9, 44, 0
1, 136420, Note_on_c, 9, 69, 29
1, 136424, Note_on_c, 9, 69, 0
1, 136504, Note_on_c, 9, 42, 56
1, 136508, Note_on_c, 9, 42, 0
1, 136508, Note_on_c, 9, 69, 38
1, 136512, Note_on_c, 9, 69, 0
1, 136516, Note_on_c, 8, 80, 80
1, 136586, Note_on_c, 1, 28, 0
1, 136600, Note_on_c, 9, 69, 32
1, 136604, Note_on_c, 9, 69, 0
1, 136604, Note_on_c, 8, 80, 0
1, 136610, Note_on_c, 9, 36, 116
1, 136612, Note_on_c, 1, 35, 110
1, 136614, Note_on_c, 9, 36, 0
1, 136614, Note_on_c, 9, 44, 55
1, 136618, Note_on_c, 9, 44, 0
1, 136670, Note_on_c, 2, 68, 0
1, 136674, Note_on_c, 2, 64, 0
1, 136678, Note_on_c, 13, 69, 0
1, 136680, Note_on_c, 14, 78, 0
1, 136684, Note_on_c, 13, 66, 0
1, 136686, Note_on_c, 2, 59, 0
1, 136686, Note_on_c, 15, 69, 0
1, 136692, Note_on_c, 1, 35, 0
1, 136696, Note_on_c, 2, 59, 102
1, 136696, Note_on_c, 2, 68, 102
1, 136696, Note_on_c, 15, 68, 106
1, 136698, Note_on_c, 9, 69, 37
1, 136700, Note_on_c, 1, 37, 113
1, 136700, Note_on_c, 4, 59, 67
1, 136700, Note_on_c, 9, 63, 88
1, 136702, Note_on_c, 9, 69, 0
1, 136702, Note_on_c, 13, 68, 108
1, 136704, Note_on_c, 9, 63, 0
1, 136704, Control_c, 14, 1, 28
1, 136704, Control_c, 15, 1, 28
1, 136706, Note_on_c, 9, 42, 51
1, 136708, Note_on_c, 2, 64, 96
1, 136708, Note_on_c, 4, 64, 59
1, 136710, Note_on_c, 9, 42, 0
1, 136710, Note_on_c, 9, 36, 121
1, 136710, Note_on_c, 14, 76, 113
1, 136714, Note_on_c, 9, 36, 0
1, 136716, Note_on_c, 13, 64, 105
1, 136754, Note_on_c, 4, 59, 0
1, 136762, Note_on_c, 4, 64, 0
1, 136792, Note_on_c, 9, 44, 53
1, 136796, Note_on_c, 9, 44, 0
1, 136796, Note_on_c, 4, 64, 98
1, 136800, Note_on_c, 4, 59, 101
1, 136802, Note_on_c, 9, 63, 85
1, 136803, Control_c, 14, 1, 70
1, 136803, Control_c, 15, 1, 70
1, 136804, Note_on_c, 4, 68, 100
1, 136806, Note_on_c, 9, 63, 0
1, 136806, Note_on_c, 9, 69, 37
1, 136810, Note_on_c, 9, 69, 0
1, 136898, Note_on_c, 9, 42, 59
1, 136900, Note_on_c, 8, 83, 82
1, 136900, Note_on_c, 9, 69, 37
1, 136902, Note_on_c, 9, 42, 0
1, 136904, Note_on_c, 9, 69, 0
1, 136920, Control_c, 14, 1, 55
1, 136920, Control_c, 15, 1, 55
1, 136976, Note_on_c, 4, 64, 0
1, 136980, Note_on_c, 4, 59, 0
1, 136984, Note_on_c, 4, 68, 0
1, 136984, Note_on_c, 9, 69, 30
1, 136988, Note_on_c, 9, 69, 0
1, 136988, Note_on_c, 8, 83, 0
1, 136990, Note_on_c, 4, 64, 68
1, 136990, Note_on_c, 4, 68, 66
1, 136990, Note_on_c, 9, 46, 106
1, 136994, Note_on_c, 9, 46, 0
1, 137000, Note_on_c, 4, 59, 67
1, 137007, Control_c, 14, 1, 37
1, 137007, Control_c, 15, 1, 37
1, 137044, Note_on_c, 4, 68, 0
1, 137044, Note_on_c, 4, 64, 0
1, 137054, Note_on_c, 4, 59, 0
1, 137080, Note_on_c, 9, 64, 86
1, 137082, Note_on_c, 9, 69, 33
1, 137084, Note_on_c, 9, 64, 0
1, 137084, Note_on_c, 8, 81, 78
1, 137086, Note_on_c, 9, 69, 0
1, 137088, Note_on_c, 9, 38, 123
1, 137090, Note_on_c, 9, 42, 54
1, 137092, Note_on_c, 9, 38, 0
1, 137094, Note_on_c, 9, 42, 0
1, 137160, Note_on_c, 1, 37, 0
1, 137172, Note_on_c, 8, 81, 0
1, 137175, Control_c, 14, 1, 15
1, 137175, Control_c, 15, 1, 15
1, 137180, Note_on_c, 9, 69, 36
1, 137184, Note_on_c, 9, 69, 0
1, 137184, Note_on_c, 9, 44, 56
1, 137186, Note_on_c, 1, 32, 111
1, 137188, Note_on_c, 9, 44, 0
1, 137236, Note_on_c, 15, 68, 0
1, 137242, Note_on_c, 13, 68, 0
1, 137256, Note_on_c, 13, 64, 0
1, 137266, Note_on_c, 1, 32, 0
1, 137266, Note_on_c, 14, 76, 0
1, 137266, Note_on_c, 1, 37, 118
1, 137270, Note_on_c, 5, 71, 68
1, 137270, Note_on_c, 8, 80, 80
1, 137274, Note_on_c, 9, 69, 33
1, 137278, Note_on_c, 9, 69, 0
1, 137282, Note_on_c, 9, 36, 102
1, 137284, Note_on_c, 9, 42, 54
1, 137286, Note_on_c, 9, 36, 0
1, 137288, Note_on_c, 9, 42, 0
1, 137346, Note_on_c, 5, 71, 0
1, 137358, Note_on_c, 8, 80, 0
1, 137370, Note_on_c, 9, 36, 110
1, 137372, Note_on_c, 5, 71, 68
1, 137372, Note_on_c, 9, 63, 81
1, 137374, Note_on_c, 9, 36, 0
1, 137374, Note_on_c, 9, 44, 59
1, 137374, Note_on_c, 9, 69, 36
1, 137376, Note_on_c, 9, 63, 0
1, 137378, Note_on_c, 9, 69, 0
1, 137378, Note_on_c, 9, 44, 0
1, 137446, Note_on_c, 1, 37, 0
1, 137448, Note_on_c, 5, 71, 0
1, 137464, Note_on_c, 8, 78, 80
1, 137470, Note_on_c, 9, 69, 36
1, 137474, Note_on_c, 9, 69, 0
1, 137474, Note_on_c, 5, 71, 72
1, 137474, Note_on_c, 9, 42, 51
1, 137476, Note_on_c, 1, 37, 118
1, 137478, Note_on_c, 9, 42, 0
1, 137550, Note_on_c, 5, 71, 0
1, 137552, Note_on_c, 8, 78, 0
1, 137560, Note_on_c, 5, 71, 71
1, 137562, Note_on_c, 9, 62, 84
1, 137564, Note_on_c, 9, 69, 34
1, 137566, Note_on_c, 9, 62, 0
1, 137568, Note_on_c, 9, 69, 0
1, 137568, Note_on_c, 9, 44, 51
1, 137572, Note_on_c, 9, 44, 0
1, 137636, Note_on_c, 5, 71, 0
1, 137658, Note_on_c, 9, 42, 50
1, 137658, Note_on_c, 9, 69, 36
1, 137660, Note_on_c, 14, 78, 109
1, 137662, Note_on_c, 9, 69, 0
1, 137662, Note_on_c, 9, 42, 0
1, 137668, Note_on_c, 4, 64, 100
1, 137670, Note_on_c, 4, 68, 66
1, 137670, Note_on_c, 9, 64, 85
1, 137670, Note_on_c, 13, 66, 112
1, 137670, Note_on_c, 15, 69, 106
1, 137672, Note_on_c, 8, 76, 74
1, 137674, Note_on_c, 9, 64, 0
1, 137680, Note_on_c, 13, 69, 112
1, 137724, Note_on_c, 4, 68, 0
1, 137736, Note_on_c, 1, 37, 0
1, 137750, Note_on_c, 1, 37, 109
1, 137758, Note_on_c, 4, 69, 68
1, 137760, Note_on_c, 8, 76, 0
1, 137762, Note_on_c, 9, 69, 33
1, 137766, Note_on_c, 9, 69, 0
1, 137766, Note_on_c, 9, 44, 56
1, 137770, Note_on_c, 9, 44, 0
1, 137812, Note_on_c, 4, 69, 0
1, 137830, Note_on_c, 1, 37, 0
1, 137840, Note_on_c, 14, 78, 0
1, 137848, Note_on_c, 4, 68, 97
1, 137848, Note_on_c, 8, 78, 79
1, 137848, Note_on_c, 13, 68, 109
1, 137850, Note_on_c, 13, 66, 0
1, 137850, Note_on_c, 15, 69, 0
1, 137850, Note_on_c, 9, 69, 32
1, 137850, Note_on_c, 14, 80, 115
1, 137854, Note_on_c, 9, 69, 0
1, 137856, Note_on_c, 9, 38, 123
1, 137860, Note_on_c, 9, 38, 0
1, 137860, Note_on_c, 13, 69, 0
1, 137860, Note_on_c, 13, 71, 103
1, 137860, Note_on_c, 15, 71, 106
1, 137862, Note_on_c, 1, 35, 111
1, 137862, Note_on_c, 9, 42, 50
1, 137866, Note_on_c, 9, 42, 0
1, 137936, Note_on_c, 8, 78, 0
1, 137940, Note_on_c, 1, 35, 0
1, 137940, Note_on_c, 1, 35, 110
1, 137956, Note_on_c, 9, 69, 34
1, 137958, Note_on_c, 9, 44, 55
1, 137960, Note_on_c, 9, 69, 0
1, 137962, Note_on_c, 9, 44, 0
1, 138020, Note_on_c, 1, 35, 0
1, 138028, Note_on_c, 13, 68, 0
1, 138030, Note_on_c, 14, 80, 0
1, 138034, Note_on_c, 1, 37, 109
1, 138040, Note_on_c, 13, 71, 0
1, 138040, Note_on_c, 15, 71, 0
1, 138044, Note_on_c, 15, 73, 111
1, 138046, Note_on_c, 9, 69, 35
1, 138046, Note_on_c, 14, 81, 116
1, 138048, Control_c, 14, 1, 28
1, 138048, Pitch_bend_c, 14, 7296
1, 138048, Control_c, 15, 1, 28
1, 138048, Pitch_bend_c, 15, 7296
1, 138050, Note_on_c, 9, 69, 0
1, 138050, Note_on_c, 8, 80, 79
1, 138050, Note_on_c, 9, 42, 51
1, 138054, Note_on_c, 9, 42, 0
1, 138056, Pitch_bend_c, 14, 7360
1, 138056, Pitch_bend_c, 15, 7360
1, 138060, Pitch_bend_c, 14, 7424
1, 138060, Pitch_bend_c, 15, 7424
1, 138062, Note_on_c, 13, 73, 106
1, 138064, Note_on_c, 13, 69, 107
1, 138064, Pitch_bend_c, 14, 7488
1, 138064, Pitch_bend_c, 15, 7488
1, 138068, Pitch_bend_c, 14, 7552
1, 138068, Pitch_bend_c, 15, 7552
1, 138072, Pitch_bend_c, 14, 7616
1, 138072, Pitch_bend_c, 15, 7616
1, 138076, Pitch_bend_c, 14, 7680
1, 138076, Pitch_bend_c, 15, 7680
1, 138080, Pitch_bend_c, 14, 7744
1, 138080, Pitch_bend_c, 15, 7744
1, 138084, Pitch_bend_c, 14, 7808
1, 138084, Pitch_bend_c, 15, 7808
1, 138088, Pitch_bend_c, 14, 7872
1, 138088, Pitch_bend_c, 15, 7872
1, 138092, Pitch_bend_c, 14, 7936
1, 138092, Pitch_bend_c, 15, 7936
1, 138096, Pitch_bend_c, 14, 8000
1, 138096, Pitch_bend_c, 15, 8000
1, 138100, Pitch_bend_c, 14, 8064
1, 138100, Pitch_bend_c, 15, 8064
1, 138104, Pitch_bend_c, 14, 8128
1, 138104, Pitch_bend_c, 15, 8128
1, 138108, Pitch_bend_c, 14, 8192
1, 138108, Pitch_bend_c, 15, 8192
1, 138114, Note_on_c, 1, 37, 0
1, 138130, Note_on_c, 1, 37, 115
1, 138138, Note_on_c, 8, 80, 0
1, 138144, Note_on_c, 9, 36, 125
1, 138147, Control_c, 14, 1, 70
1, 138147, Control_c, 15, 1, 70
1, 138148, Note_on_c, 9, 36, 0
1, 138148, Note_on_c, 9, 44, 52
1, 138150, Note_on_c, 9, 69, 31
1, 138152, Note_on_c, 9, 44, 0
1, 138154, Note_on_c, 9, 69, 0
1, 138202, Note_on_c, 7, 59, 0
1, 138208, Note_on_c, 2, 68, 0
1, 138208, Note_on_c, 2, 59, 0
1, 138208, Note_on_c, 4, 68, 0
1, 138208, Note_on_c, 7, 71, 0
1, 138210, Note_on_c, 1, 37, 0
1, 138220, Note_on_c, 2, 64, 0
1, 138222, Note_on_c, 6, 59, 0
1, 138228, Note_on_c, 4, 64, 0
1, 138228, Note_on_c, 6, 56, 0
1, 138228, Note_on_c, 1, 38, 116
1, 138230, Note_on_c, 6, 57, 66
1, 138230, Note_on_c, 7, 81, 77
1, 138232, Note_on_c, 6, 54, 68
1, 138234, Note_on_c, 6, 64, 0
1, 138234, Note_on_c, 7, 69, 77
1, 138236, Note_on_c, 4, 57, 65
1, 138236, Note_on_c, 4, 62, 59
1, 138240, Note_on_c, 2, 62, 94
1, 138240, Note_on_c, 2, 66, 103
1, 138240, Note_on_c, 9, 42, 51
1, 138242, Note_on_c, 2, 57, 100
1, 138242, Note_on_c, 6, 62, 71
1, 138244, Note_on_c, 9, 42, 0
1, 138244, Note_on_c, 9, 63, 82
1, 138246, Note_on_c, 9, 69, 37
1, 138246, Note_on_c, 9, 36, 116
1, 138248, Note_on_c, 9, 63, 0
1, 138250, Note_on_c, 9, 36, 0
1, 138250, Note_on_c, 9, 69, 0
1, 138264, Control_c, 14, 1, 55
1, 138264, Control_c, 15, 1, 55
1, 138290, Note_on_c, 4, 57, 0
1, 138290, Note_on_c, 4, 62, 0
1, 138330, Note_on_c, 4, 62, 95
1, 138332, Note_on_c, 9, 69, 34
1, 138334, Note_on_c, 9, 63, 87
1, 138336, Note_on_c, 9, 69, 0
1, 138336, Note_on_c, 9, 44, 50
1, 138338, Note_on_c, 9, 63, 0
1, 138338, Note_on_c, 4, 57, 94
1, 138340, Note_on_c, 9, 44, 0
1, 138342, Note_on_c, 4, 66, 98
1, 138351, Control_c, 14, 1, 37
1, 138351, Control_c, 15, 1, 37
1, 138434, Note_on_c, 9, 69, 29
1, 138436, Note_on_c, 9, 42, 55
1, 138438, Note_on_c, 9, 69, 0
1, 138438, Note_on_c, 8, 81, 79
1, 138440, Note_on_c, 9, 42, 0
1, 138504, Note_on_c, 15, 73, 0
1, 138506, Note_on_c, 14, 81, 0
1, 138510, Note_on_c, 4, 62, 0
1, 138518, Note_on_c, 4, 57, 0
1, 138519, Control_c, 14, 1, 15
1, 138519, Control_c, 15, 1, 15
1, 138522, Note_on_c, 4, 66, 0
1, 138522, Note_on_c, 13, 73, 0
1, 138524, Note_on_c, 13, 69, 0
1, 138524, Note_on_c, 9, 69, 29
1, 138526, Note_on_c, 8, 81, 0
1, 138526, Note_on_c, 13, 71, 111
1, 138528, Note_on_c, 9, 69, 0
1, 138528, Note_on_c, 14, 80, 110
1, 138530, Note_on_c, 4, 62, 68
1, 138530, Note_on_c, 4, 66, 63
1, 138532, Note_on_c, 13, 68, 112
1, 138534, Note_on_c, 4, 57, 66
1, 138534, Note_on_c, 9, 46, 107
1, 138534, Note_on_c, 15, 71, 107
1, 138538, Note_on_c, 9, 46, 0
1, 138584, Note_on_c, 4, 66, 0
1, 138584, Note_on_c, 4, 62, 0
1, 138588, Note_on_c, 4, 57, 0
1, 138606, Note_on_c, 13, 71, 0
1, 138612, Note_on_c, 13, 68, 0
1, 138614, Note_on_c, 13, 69, 109
1, 138616, Note_on_c, 8, 80, 74
1, 138616, Note_on_c, 9, 38, 121
1, 138616, Note_on_c, 9, 64, 85
1, 138620, Note_on_c, 9, 64, 0
1, 138620, Note_on_c, 9, 38, 0
1, 138620, Note_on_c, 9, 69, 29
1, 138624, Note_on_c, 9, 69, 0
1, 138628, Note_on_c, 14, 78, 114
1, 138628, Note_on_c, 15, 69, 112
1, 138630, Note_on_c, 9, 42, 55
1, 138632, Note_on_c, 14, 80, 0
1, 138634, Note_on_c, 9, 42, 0
1, 138636, Note_on_c, 13, 66, 107
1, 138638, Note_on_c, 15, 71, 0
1, 138704, Note_on_c, 8, 80, 0
1, 138726, Note_on_c, 9, 44, 54
1, 138726, Note_on_c, 9, 69, 38
1, 138730, Note_on_c, 9, 69, 0
1, 138730, Note_on_c, 9, 44, 0
1, 138768, Note_on_c, 1, 38, 0
1, 138808, Note_on_c, 9, 69, 33
1, 138812, Note_on_c, 9, 69, 0
1, 138812, Note_on_c, 9, 36, 108
1, 138816, Note_on_c, 9, 36, 0
1, 138816, Note_on_c, 5, 74, 69
1, 138818, Note_on_c, 1, 38, 112
1, 138818, Note_on_c, 9, 42, 56
1, 138822, Note_on_c, 9, 42, 0
1, 138824, Note_on_c, 8, 78, 83
1, 138892, Note_on_c, 5, 74, 0
1, 138910, Note_on_c, 9, 69, 32
1, 138912, Note_on_c, 8, 78, 0
1, 138912, Note_on_c, 5, 74, 66
1, 138914, Note_on_c, 9, 69, 0
1, 138914, Note_on_c, 9, 36, 108
1, 138914, Note_on_c, 9, 63, 81
1, 138916, Note_on_c, 9, 44, 52
1, 138918, Note_on_c, 9, 63, 0
1, 138918, Note_on_c, 9, 36, 0
1, 138920, Note_on_c, 9, 44, 0
1, 138974, Note_on_c, 13, 69, 0
1, 138988, Note_on_c, 14, 78, 0
1, 138988, Note_on_c, 5, 74, 0
1, 138988, Note_on_c, 15, 69, 0
1, 138996, Note_on_c, 13, 66, 0
1, 138998, Note_on_c, 1, 38, 0
1, 139000, Note_on_c, 8, 76, 76
1, 139004, Note_on_c, 1, 38, 113
1, 139004, Note_on_c, 9, 42, 50
1, 139004, Note_on_c, 9, 69, 32
1, 139008, Note_on_c, 9, 69, 0
1, 139008, Note_on_c, 9, 42, 0
1, 139010, Note_on_c, 5, 69, 66
1, 139086, Note_on_c, 5, 69, 0
1, 139088, Note_on_c, 8, 76, 0
1, 139098, Note_on_c, 9, 44, 59
1, 139100, Note_on_c, 9, 62, 79
1, 139102, Note_on_c, 9, 44, 0
1, 139102, Note_on_c, 5, 71, 73
1, 139104, Note_on_c, 9, 62, 0
1, 139110, Note_on_c, 9, 69, 38
1, 139114, Note_on_c, 9, 69, 0
1, 139178, Note_on_c, 5, 71, 0
1, 139190, Note_on_c, 8, 75, 74
1, 139194, Note_on_c, 9, 64, 88
1, 139196, Note_on_c, 14, 71, 118
1, 139198, Note_on_c, 9, 64, 0
1, 139198, Note_on_c, 5, 71, 70
1, 139198, Note_on_c, 9, 69, 29
1, 139198, Note_on_c, 15, 59, 109
1, 139200, Note_on_c, 9, 42, 52
1, 139202, Note_on_c, 9, 69, 0
1, 139204, Note_on_c, 9, 42, 0
1, 139206, Note_on_c, 13, 59, 111
1, 139264, Note_on_c, 1, 38, 0
1, 139274, Note_on_c, 5, 71, 0
1, 139278, Note_on_c, 8, 75, 0
1, 139286, Note_on_c, 4, 69, 96
1, 139288, Note_on_c, 4, 73, 100
1, 139290, Note_on_c, 4, 66, 101
1, 139292, Note_on_c, 9, 69, 31
1, 139294, Note_on_c, 9, 44, 54
1, 139296, Note_on_c, 9, 69, 0
1, 139298, Note_on_c, 9, 44, 0
1, 139298, Note_on_c, 1, 35, 118
1, 139376, Note_on_c, 14, 71, 0
1, 139378, Note_on_c, 1, 35, 0
1, 139378, Note_on_c, 15, 59, 0
1, 139384, Note_on_c, 1, 33, 115
1, 139384, Note_on_c, 9, 38, 119
1, 139384, Note_on_c, 15, 59, 108
1, 139386, Note_on_c, 13, 59, 0
1, 139388, Note_on_c, 9, 38, 0
1, 139388, Note_on_c, 14, 71, 116
1, 139390, Note_on_c, 5, 64, 71
1, 139390, Note_on_c, 9, 69, 32
1, 139394, Note_on_c, 9, 69, 0
1, 139398, Note_on_c, 8, 76, 80
1, 139398, Note_on_c, 9, 42, 56
1, 139402, Note_on_c, 9, 42, 0
1, 139406, Note_on_c, 13, 59, 111
1, 139466, Note_on_c, 5, 64, 0
1, 139466, Note_on_c, 4, 69, 0
1, 139468, Note_on_c, 4, 73, 0
1, 139470, Note_on_c, 4, 66, 0
1, 139480, Note_on_c, 1, 33, 0
1, 139486, Note_on_c, 8, 76, 0
1, 139488, Note_on_c, 1, 35, 110
1, 139488, Note_on_c, 9, 69, 32
1, 139490, Note_on_c, 5, 64, 68
1, 139490, Note_on_c, 9, 44, 51
1, 139492, Note_on_c, 9, 69, 0
1, 139494, Note_on_c, 9, 44, 0
1, 139564, Note_on_c, 15, 59, 0
1, 139566, Note_on_c, 5, 64, 0
1, 139568, Note_on_c, 14, 71, 0
1, 139576, Note_on_c, 8, 78, 77
1, 139580, Note_on_c, 5, 64, 73
1, 139580, Note_on_c, 9, 42, 59
1, 139582, Note_on_c, 9, 69, 31
1, 139584, Note_on_c, 9, 42, 0
1, 139584, Note_on_c, 1, 35, 0
1, 139586, Note_on_c, 13, 59, 0
1, 139586, Note_on_c, 9, 69, 0
1, 139592, Note_on_c, 1, 38, 118
1, 139656, Note_on_c, 5, 64, 0
1, 139664, Note_on_c, 8, 78, 0
1, 139668, Note_on_c, 1, 33, 111
1, 139672, Note_on_c, 1, 38, 0
1, 139674, Note_on_c, 9, 69, 38
1, 139678, Note_on_c, 9, 69, 0
1, 139678, Note_on_c, 9, 44, 55
1, 139682, Note_on_c, 9, 44, 0
1, 139684, Note_on_c, 9, 36, 121
1, 139688, Note_on_c, 9, 36, 0
1, 139748, Note_on_c, 1, 33, 0
1, 139752, Note_on_c, 2, 62, 0
1, 139752, Note_on_c, 2, 66, 0
1, 139754, Note_on_c, 2, 57, 0
1, 139768, Note_on_c, 4, 57, 61
1, 139768, Note_on_c, 15, 73, 106
1, 139770, Note_on_c, 13, 69, 112
1, 139774, Note_on_c, 2, 62, 97
1, 139774, Note_on_c, 9, 69, 33
1, 139776, Pitch_bend_c, 15, 7296
1, 139778, Note_on_c, 9, 69, 0
1, 139778, Note_on_c, 2, 57, 102
1, 139778, Note_on_c, 4, 62, 63
1, 139778, Note_on_c, 9, 36, 125
1, 139778, Note_on_c, 9, 63, 81
1, 139780, Note_on_c, 2, 66, 97
1, 139780, Note_on_c, 9, 42, 56
1, 139780, Note_on_c, 14, 81, 114
1, 139782, Note_on_c, 9, 63, 0
1, 139782, Note_on_c, 9, 36, 0
1, 139784, Note_on_c, 9, 42, 0
1, 139784, Pitch_bend_c, 15, 7360
1, 139786, Note_on_c, 1, 35, 118
1, 139786, Note_on_c, 13, 73, 111
1, 139788, Pitch_bend_c, 15, 7424
1, 139792, Pitch_bend_c, 15, 7488
1, 139796, Pitch_bend_c, 15, 7552
1, 139800, Pitch_bend_c, 15, 7616
1, 139804, Pitch_bend_c, 15, 7680
1, 139808, Pitch_bend_c, 15, 7744
1, 139812, Pitch_bend_c, 15, 7808
1, 139816, Pitch_bend_c, 15, 7872
1, 139820, Pitch_bend_c, 15, 7936
1, 139822, Note_on_c, 4, 57, 0
1, 139824, Pitch_bend_c, 15, 8000
1, 139828, Pitch_bend_c, 15, 8064
1, 139832, Note_on_c, 4, 62, 0
1, 139832, Pitch_bend_c, 15, 8128
1, 139836, Pitch_bend_c, 15, 8192
1, 139864, Note_on_c, 9, 63, 87
1, 139864, Note_on_c, 9, 69, 36
1, 139868, Note_on_c, 9, 69, 0
1, 139868, Note_on_c, 9, 63, 0
1, 139872, Note_on_c, 9, 44, 51
1, 139876, Note_on_c, 9, 44, 0
1, 139876, Note_on_c, 4, 62, 96
1, 139878, Note_on_c, 4, 57, 94
1, 139878, Note_on_c, 4, 66, 102
1, 139948, Note_on_c, 15, 73, 0
1, 139950, Note_on_c, 13, 69, 0
1, 139958, Note_on_c, 8, 81, 81
1, 139960, Note_on_c, 14, 81, 0
1, 139960, Note_on_c, 13, 69, 103
1, 139966, Note_on_c, 13, 73, 0
1, 139968, Note_on_c, 9, 42, 57
1, 139968, Note_on_c, 14, 81, 117
1, 139970, Note_on_c, 9, 69, 31
1, 139970, Note_on_c, 13, 73, 109
1, 139972, Note_on_c, 9, 42, 0
1, 139974, Note_on_c, 9, 69, 0
1, 139974, Note_on_c, 15, 73, 103
1, 140046, Note_on_c, 8, 81, 0
1, 140056, Note_on_c, 4, 62, 0
1, 140058, Note_on_c, 4, 57, 0
1, 140058, Note_on_c, 4, 66, 0
1, 140058, Note_on_c, 4, 62, 66
1, 140060, Note_on_c, 4, 66, 68
1, 140060, Note_on_c, 9, 69, 38
1, 140064, Note_on_c, 9, 69, 0
1, 140066, Note_on_c, 9, 46, 108
1, 140070, Note_on_c, 9, 46, 0
1, 140072, Note_on_c, 4, 57, 59
1, 140112, Note_on_c, 4, 62, 0
1, 140114, Note_on_c, 4, 66, 0
1, 140126, Note_on_c, 4, 57, 0
1, 140140, Note_on_c, 13, 69, 0
1, 140146, Note_on_c, 1, 35, 0
1, 140148, Note_on_c, 14, 81, 0
1, 140148, Note_on_c, 1, 35, 115
1, 140150, Note_on_c, 13, 73, 0
1, 140150, Note_on_c, 8, 80, 81
1, 140152, Note_on_c, 9, 69, 37
1, 140154, Note_on_c, 15, 73, 0
1, 140154, Note_on_c, 15, 73, 107
1, 140156, Note_on_c, 9, 69, 0
1, 140156, Note_on_c, 9, 38, 117
1, 140158, Note_on_c, 14, 81, 111
1, 140160, Note_on_c, 9, 38, 0
1, 140160, Note_on_c, 9, 42, 54
1, 140160, Note_on_c, 13, 73, 109
1, 140164, Note_on_c, 9, 42, 0
1, 140166, Note_on_c, 9, 64, 81
1, 140168, Note_on_c, 13, 69, 111
1, 140170, Note_on_c, 9, 64, 0
1, 140238, Note_on_c, 8, 80, 0
1, 140258, Note_on_c, 9, 44, 55
1, 140262, Note_on_c, 9, 44, 0
1, 140262, Note_on_c, 9, 69, 31
1, 140266, Note_on_c, 9, 69, 0
1, 140334, Note_on_c, 15, 73, 0
1, 140338, Note_on_c, 14, 81, 0
1, 140340, Note_on_c, 13, 73, 0
1, 140342, Note_on_c, 13, 69, 0
1, 140342, Note_on_c, 8, 78, 77
1, 140342, Note_on_c, 13, 69, 109
1, 140348, Note_on_c, 9, 42, 55
1, 140350, Note_on_c, 9, 36, 107
1, 140352, Note_on_c, 9, 42, 0
1, 140354, Note_on_c, 9, 36, 0
1, 140354, Note_on_c, 15, 73, 110
1, 140356, Note_on_c, 14, 81, 116
1, 140358, Note_on_c, 9, 69, 36
1, 140362, Note_on_c, 9, 69, 0
1, 140364, Note_on_c, 13, 73, 107
1, 140408, Note_on_c, 1, 35, 0
1, 140430, Note_on_c, 8, 78, 0
1, 140440, Note_on_c, 9, 69, 38
1, 140442, Note_on_c, 9, 36, 105
1, 140444, Note_on_c, 9, 69, 0
1, 140446, Note_on_c, 9, 36, 0
1, 140446, Note_on_c, 9, 63, 81
1, 140446, Note_on_c, 9, 44, 57
1, 140448, Note_on_c, 1, 35, 118
1, 140450, Note_on_c, 9, 44, 0
1, 140450, Note_on_c, 9, 63, 0
1, 140522, Note_on_c, 13, 69, 0
1, 140528, Note_on_c, 1, 35, 0
1, 140534, Note_on_c, 15, 73, 0
1, 140536, Note_on_c, 14, 81, 0
1, 140540, Note_on_c, 15, 71, 112
1, 140542, Note_on_c, 8, 76, 77
1, 140544, Note_on_c, 13, 73, 0
1, 140544, Note_on_c, 5, 78, 73
1, 140546, Note_on_c, 4, 66, 62
1, 140546, Note_on_c, 9, 69, 36
1, 140548, Note_on_c, 9, 42, 58
1, 140548, Note_on_c, 14, 80, 111
1, 140550, Note_on_c, 9, 69, 0
1, 140552, Note_on_c, 9, 42, 0
1, 140552, Note_on_c, 1, 35, 114
1, 140552, Note_on_c, 4, 69, 67
1, 140556, Note_on_c, 13, 68, 110
1, 140560, Note_on_c, 13, 71, 106
1, 140600, Note_on_c, 4, 66, 0
1, 140606, Note_on_c, 4, 69, 0
1, 140630, Note_on_c, 8, 76, 0
1, 140632, Note_on_c, 9, 62, 83
1, 140634, Note_on_c, 9, 44, 50
1, 140636, Note_on_c, 9, 62, 0
1, 140636, Note_on_c, 9, 69, 29
1, 140638, Note_on_c, 9, 44, 0
1, 140640, Note_on_c, 9, 69, 0
1, 140720, Note_on_c, 15, 71, 0
1, 140720, Note_on_c, 5, 78, 0
1, 140728, Note_on_c, 14, 80, 0
1, 140728, Note_on_c, 15, 69, 106
1, 140730, Note_on_c, 9, 69, 36
1, 140734, Note_on_c, 9, 69, 0
1, 140736, Note_on_c, 13, 68, 0
1, 140736, Note_on_c, 13, 66, 107
1, 140738, Note_on_c, 4, 76, 98
1, 140738, Note_on_c, 9, 64, 82
1, 140740, Note_on_c, 13, 71, 0
1, 140740, Note_on_c, 13, 69, 103
1, 140742, Note_on_c, 9, 64, 0
1, 140742, Note_on_c, 5, 76, 73
1, 140742, Note_on_c, 8, 75, 83
1, 140742, Note_on_c, 9, 42, 59
1, 140742, Note_on_c, 14, 78, 112
1, 140746, Note_on_c, 9, 42, 0
1, 140818, Note_on_c, 5, 76, 0
1, 140830, Note_on_c, 8, 75, 0
1, 140830, Note_on_c, 9, 44, 54
1, 140830, Note_on_c, 9, 69, 38
1, 140832, Control_c, 14, 1, 28
1, 140832, Control_c, 15, 1, 28
1, 140834, Note_on_c, 9, 69, 0
1, 140834, Note_on_c, 9, 44, 0
1, 140836, Note_on_c, 9, 38, 119
1, 140840, Note_on_c, 9, 38, 0
1, 140894, Note_on_c, 2, 62, 0
1, 140898, Note_on_c, 2, 57, 0
1, 140900, Note_on_c, 2, 66, 0
1, 140912, Note_on_c, 1, 35, 0
1, 140918, Note_on_c, 4, 76, 0
1, 140926, Note_on_c, 2, 66, 100
1, 140928, Note_on_c, 2, 57, 94
1, 140928, Note_on_c, 9, 42, 55
1, 140930, Note_on_c, 1, 35, 115
1, 140930, Note_on_c, 9, 69, 35
1, 140931, Control_c, 14, 1, 70
1, 140931, Control_c, 15, 1, 70
1, 140932, Note_on_c, 9, 42, 0
1, 140932, Note_on_c, 2, 62, 97
1, 140934, Note_on_c, 9, 69, 0
1, 140934, Note_on_c, 9, 38, 122
1, 140936, Note_on_c, 8, 76, 83
1, 140938, Note_on_c, 9, 38, 0
1, 141010, Note_on_c, 1, 35, 0
1, 141020, Note_on_c, 9, 44, 51
1, 141024, Note_on_c, 9, 44, 0
1, 141024, Note_on_c, 8, 76, 0
1, 141028, Note_on_c, 1, 37, 110
1, 141028, Note_on_c, 9, 69, 32
1, 141032, Note_on_c, 9, 69, 0
1, 141048, Control_c, 14, 1, 55
1, 141048, Control_c, 15, 1, 55
1, 141108, Note_on_c, 1, 37, 0
1, 141114, Note_on_c, 8, 78, 76
1, 141116, Note_on_c, 9, 69, 29
1, 141118, Note_on_c, 9, 42, 50
1, 141120, Note_on_c, 9, 69, 0
1, 141120, Note_on_c, 1, 40, 111
1, 141122, Note_on_c, 9, 42, 0
1, 141122, Note_on_c, 4, 57, 98
1, 141126, Note_on_c, 9, 38, 125
1, 141130, Note_on_c, 9, 38, 0
1, 141135, Control_c, 14, 1, 37
1, 141135, Control_c, 15, 1, 37
1, 141202, Note_on_c, 8, 78, 0
1, 141212, Note_on_c, 9, 36, 118
1, 141212, Note_on_c, 9, 69, 29
1, 141216, Note_on_c, 9, 69, 0
1, 141216, Note_on_c, 9, 36, 0
1, 141216, Note_on_c, 9, 44, 52
1, 141220, Note_on_c, 9, 44, 0
1, 141268, Note_on_c, 15, 69, 0
1, 141276, Note_on_c, 13, 66, 0
1, 141280, Note_on_c, 13, 69, 0
1, 141282, Note_on_c, 14, 78, 0
1, 141286, Note_on_c, 2, 66, 0
1, 141288, Note_on_c, 2, 57, 0
1, 141290, Note_on_c, 6, 57, 0
1, 141292, Note_on_c, 6, 54, 0
1, 141292, Note_on_c, 2, 62, 0
1, 141300, Note_on_c, 1, 40, 0
1, 141300, Note_on_c, 6, 56, 68
1, 141302, Note_on_c, 6, 62, 0
1, 141302, Note_on_c, 4, 57, 0
1, 141303, Control_c, 14, 1, 15
1, 141303, Control_c, 15, 1, 15
1, 141304, Note_on_c, 2, 59, 103
1, 141304, Note_on_c, 2, 64, 95
1, 141306, Note_on_c, 6, 64, 73
1, 141306, Note_on_c, 15, 68, 105
1, 141308, Note_on_c, 1, 28, 112
1, 141308, Note_on_c, 2, 56, 102
1, 141310, Note_on_c, 13, 68, 112
1, 141310, Note_on_c, 14, 76, 114
1, 141312, Note_on_c, 9, 36, 118
1, 141312, Note_on_c, 9, 49, 100
1, 141314, Note_on_c, 4, 56, 103
1, 141314, Note_on_c, 9, 69, 36
1, 141316, Note_on_c, 9, 49, 0
1, 141316, Note_on_c, 9, 36, 0
1, 141316, Note_on_c, 6, 59, 69
1, 141318, Note_on_c, 9, 69, 0
1, 141318, Note_on_c, 5, 64, 65
1, 141320, Note_on_c, 13, 64, 105
1, 141370, Note_on_c, 7, 81, 0
1, 141374, Note_on_c, 7, 69, 0
1, 141394, Note_on_c, 5, 64, 0
1, 141408, Note_on_c, 9, 69, 35
1, 141412, Note_on_c, 9, 69, 0
1, 141490, Control_c, 15, 1, 28
1, 141494, Note_on_c, 4, 56, 0
1, 141496, Note_on_c, 9, 42, 53
1, 141498, Note_on_c, 4, 64, 94
1, 141498, Note_on_c, 5, 64, 68
1, 141500, Note_on_c, 9, 42, 0
1, 141500, Note_on_c, 9, 69, 38
1, 141504, Note_on_c, 9, 69, 0
1, 141574, Note_on_c, 5, 64, 0
1, 141598, Note_on_c, 5, 71, 71
1, 141606, Note_on_c, 9, 46, 104
1, 141610, Note_on_c, 9, 46, 0
1, 141674, Note_on_c, 5, 71, 0
1, 141688, Note_on_c, 9, 42, 55
1, 141690, Control_c, 15, 1, 50
1, 141692, Note_on_c, 9, 42, 0
1, 141696, Note_on_c, 9, 38, 123
1, 141696, Control_c, 14, 1, 28
1, 141700, Note_on_c, 9, 38, 0
1, 141784, Note_on_c, 8, 68, 82
1, 141786, Note_on_c, 5, 64, 65
1, 141792, Note_on_c, 8, 64, 82
1, 141795, Control_c, 14, 1, 70
1, 141796, Note_on_c, 8, 71, 80
1, 141798, Note_on_c, 8, 66, 78
1, 141798, Note_on_c, 9, 44, 59
1, 141802, Note_on_c, 9, 44, 0
1, 141848, Note_on_c, 1, 28, 0
1, 141862, Note_on_c, 5, 64, 0
1, 141882, Note_on_c, 9, 36, 104
1, 141886, Note_on_c, 9, 36, 0
1, 141890, Note_on_c, 9, 42, 59
1, 141894, Note_on_c, 9, 42, 0
1, 141912, Control_c, 14, 1, 55
1, 141964, Note_on_c, 8, 68, 0
1, 141972, Note_on_c, 8, 64, 0
1, 141976, Note_on_c, 8, 71, 0
1, 141976, Note_on_c, 9, 44, 56
1, 141978, Note_on_c, 8, 66, 0
1, 141980, Note_on_c, 9, 44, 0
1, 141986, Note_on_c, 9, 69, 34
1, 141990, Note_on_c, 9, 69, 0
1, 141990, Note_on_c, 1, 40, 117
1, 141990, Note_on_c, 5, 71, 64
1, 141990, Note_on_c, 9, 36, 110
1, 141994, Note_on_c, 9, 36, 0
1, 142008, Control_c, 15, 1, 47
1, 142066, Note_on_c, 5, 71, 0
1, 142070, Note_on_c, 1, 40, 0
1, 142070, Note_on_c, 8, 66, 77
1, 142074, Note_on_c, 8, 64, 78
1, 142074, Note_on_c, 8, 71, 78
1, 142074, Note_on_c, 9, 42, 50
1, 142078, Note_on_c, 9, 42, 0
1, 142078, Note_on_c, 8, 68, 80
1, 142095, Control_c, 15, 1, 37
1, 142178, Note_on_c, 9, 69, 29
1, 142180, Note_on_c, 9, 44, 55
1, 142182, Note_on_c, 9, 69, 0
1, 142182, Note_on_c, 1, 40, 118
1, 142184, Note_on_c, 9, 44, 0
1, 142184, Note_on_c, 5, 71, 69
1, 142260, Note_on_c, 5, 71, 0
1, 142262, Note_on_c, 1, 40, 0
1, 142262, Note_on_c, 5, 64, 65
1, 142268, Note_on_c, 9, 42, 59
1, 142272, Note_on_c, 9, 42, 0
1, 142272, Note_on_c, 1, 28, 113
1, 142338, Note_on_c, 5, 64, 0
1, 142374, Note_on_c, 9, 44, 51
1, 142378, Note_on_c, 9, 44, 0
1, 142383, Control_c, 14, 1, 37
1, 142430, Note_on_c, 8, 66, 0
1, 142434, Note_on_c, 8, 64, 0
1, 142434, Note_on_c, 8, 71, 0
1, 142438, Note_on_c, 8, 68, 0
1, 142452, Note_on_c, 1, 28, 0
1, 142456, Note_on_c, 1, 40, 118
1, 142456, Note_on_c, 9, 42, 50
1, 142460, Note_on_c, 9, 42, 0
1, 142460, Note_on_c, 9, 69, 37
1, 142464, Note_on_c, 9, 69, 0
1, 142464, Note_on_c, 5, 71, 73
1, 142464, Note_on_c, 9, 38, 122
1, 142468, Note_on_c, 9, 38, 0
1, 142536, Note_on_c, 1, 40, 0
1, 142540, Note_on_c, 5, 71, 0
1, 142552, Note_on_c, 5, 71, 65
1, 142554, Note_on_c, 9, 69, 30
1, 142558, Note_on_c, 9, 69, 0
1, 142562, Note_on_c, 1, 40, 109
1, 142562, Note_on_c, 9, 44, 59
1, 142566, Note_on_c, 9, 44, 0
1, 142628, Note_on_c, 5, 71, 0
1, 142642, Note_on_c, 1, 40, 0
1, 142646, Note_on_c, 1, 28, 115
1, 142648, Note_on_c, 5, 64, 66
1, 142650, Note_on_c, 9, 69, 38
1, 142654, Note_on_c, 9, 69, 0
1, 142660, Note_on_c, 9, 42, 56
1, 142664, Note_on_c, 9, 42, 0
1, 142724, Note_on_c, 5, 64, 0
1, 142750, Note_on_c, 9, 36, 119
1, 142752, Note_on_c, 9, 44, 54
1, 142754, Note_on_c, 9, 36, 0
1, 142756, Note_on_c, 9, 44, 0
1, 142806, Note_on_c, 15, 68, 0
1, 142818, Note_on_c, 4, 64, 0
1, 142826, Note_on_c, 1, 28, 0
1, 142840, Note_on_c, 5, 64, 67
1, 142842, Note_on_c, 1, 28, 111
1, 142850, Note_on_c, 9, 42, 56
1, 142850, Note_on_c, 9, 69, 29
1, 142854, Note_on_c, 9, 69, 0
1, 142854, Note_on_c, 9, 42, 0
1, 142854, Note_on_c, 9, 36, 125
1, 142858, Note_on_c, 9, 36, 0
1, 142916, Note_on_c, 5, 64, 0
1, 142935, Control_c, 14, 1, 15
1, 142950, Note_on_c, 9, 69, 32
1, 142954, Note_on_c, 9, 69, 0
1, 143031, Control_c, 15, 1, 15
1, 143032, Note_on_c, 9, 42, 57
1, 143036, Note_on_c, 9, 42, 0
1, 143040, Note_on_c, 5, 64, 66
1, 143040, Note_on_c, 9, 69, 37
1, 143044, Note_on_c, 9, 69, 0
1, 143116, Note_on_c, 5, 64, 0
1, 143126, Note_on_c, 5, 71, 65
1, 143128, Note_on_c, 9, 46, 102
1, 143132, Note_on_c, 9, 46, 0
1, 143202, Note_on_c, 5, 71, 0
1, 143228, Note_on_c, 9, 38, 118
1, 143232, Note_on_c, 9, 38, 0
1, 143236, Note_on_c, 9, 42, 59
1, 143240, Note_on_c, 9, 42, 0
1, 143318, Note_on_c, 8, 68, 79
1, 143324, Note_on_c, 9, 44, 53
1, 143328, Note_on_c, 9, 44, 0
1, 143330, Note_on_c, 5, 71, 67
1, 143332, Note_on_c, 8, 64, 80
1, 143332, Note_on_c, 8, 71, 78
1, 143334, Note_on_c, 8, 66, 83
1, 143382, Note_on_c, 1, 28, 0
1, 143406, Note_on_c, 5, 71, 0
1, 143426, Note_on_c, 9, 36, 107
1, 143428, Note_on_c, 9, 42, 55
1, 143430, Note_on_c, 9, 36, 0
1, 143430, Note_on_c, 5, 64, 70
1, 143432, Note_on_c, 9, 42, 0
1, 143434, Note_on_c, 1, 28, 115
1, 143498, Note_on_c, 8, 68, 0
1, 143506, Note_on_c, 5, 64, 0
1, 143512, Note_on_c, 8, 64, 0
1, 143512, Note_on_c, 8, 71, 0
1, 143512, Note_on_c, 1, 40, 110
1, 143514, Note_on_c, 8, 66, 0
1, 143514, Note_on_c, 1, 28, 0
1, 143516, Note_on_c, 9, 36, 106
1, 143518, Note_on_c, 8, 68, 81
1, 143520, Note_on_c, 9, 36, 0
1, 143520, Note_on_c, 5, 71, 67
1, 143520, Note_on_c, 8, 64, 75
1, 143520, Note_on_c, 9, 69, 31
1, 143524, Note_on_c, 9, 69, 0
1, 143524, Note_on_c, 8, 66, 79
1, 143524, Note_on_c, 8, 71, 77
1, 143524, Note_on_c, 9, 44, 58
1, 143528, Note_on_c, 9, 44, 0
1, 143570, Note_on_c, 14, 76, 0
1, 143590, Note_on_c, 13, 68, 0
1, 143592, Note_on_c, 1, 40, 0
1, 143596, Note_on_c, 5, 71, 0
1, 143598, Note_on_c, 8, 68, 0
1, 143600, Note_on_c, 13, 64, 0
1, 143600, Note_on_c, 8, 64, 0
1, 143604, Note_on_c, 8, 66, 0
1, 143604, Note_on_c, 8, 71, 0
1, 143608, Note_on_c, 8, 64, 79
1, 143608, Note_on_c, 8, 71, 77
1, 143610, Note_on_c, 8, 68, 77
1, 143612, Note_on_c, 9, 42, 52
1, 143616, Note_on_c, 9, 42, 0
1, 143622, Note_on_c, 8, 66, 79
1, 143706, Note_on_c, 1, 40, 111
1, 143710, Note_on_c, 5, 71, 72
1, 143712, Note_on_c, 9, 69, 34
1, 143716, Note_on_c, 9, 69, 0
1, 143718, Note_on_c, 9, 44, 56
1, 143722, Note_on_c, 9, 44, 0
1, 143786, Note_on_c, 5, 71, 0
1, 143786, Note_on_c, 1, 40, 0
1, 143798, Note_on_c, 5, 64, 72
1, 143802, Note_on_c, 9, 42, 56
1, 143806, Note_on_c, 9, 42, 0
1, 143816, Note_on_c, 1, 28, 118
1, 143868, Note_on_c, 8, 64, 0
1, 143868, Note_on_c, 8, 71, 0
1, 143870, Note_on_c, 8, 68, 0
1, 143874, Note_on_c, 5, 64, 0
1, 143882, Note_on_c, 8, 66, 0
1, 143902, Note_on_c, 9, 44, 53
1, 143904, Note_on_c, 8, 71, 75
1, 143906, Note_on_c, 9, 44, 0
1, 143908, Note_on_c, 8, 64, 79
1, 143908, Note_on_c, 8, 68, 78
1, 143912, Note_on_c, 5, 71, 66
1, 143912, Note_on_c, 8, 66, 82
1, 143984, Note_on_c, 8, 71, 0
1, 143988, Note_on_c, 5, 71, 0
1, 143988, Note_on_c, 8, 68, 0
1, 143988, Note_on_c, 8, 64, 0
1, 143988, Note_on_c, 1, 40, 111
1, 143990, Note_on_c, 5, 71, 68
1, 143990, Note_on_c, 8, 64, 81
1, 143992, Note_on_c, 8, 66, 0
1, 143992, Note_on_c, 8, 71, 76
1, 143996, Note_on_c, 1, 28, 0
1, 143996, Note_on_c, 9, 38, 119
1, 143996, Note_on_c, 9, 42, 59
1, 144000, Note_on_c, 9, 42, 0
1, 144000, Note_on_c, 9, 38, 0
1, 144004, Note_on_c, 8, 66, 74
1, 144006, Note_on_c, 9, 69, 38
1, 144008, Note_on_c, 8, 68, 74
1, 144010, Note_on_c, 9, 69, 0
1, 144066, Note_on_c, 5, 71, 0
1, 144068, Note_on_c, 1, 40, 0
1, 144088, Note_on_c, 9, 69, 34
1, 144092, Note_on_c, 9, 69, 0
1, 144100, Note_on_c, 1, 40, 115
1, 144102, Note_on_c, 9, 44, 55
1, 144106, Note_on_c, 9, 44, 0
1, 144170, Note_on_c, 8, 64, 0
1, 144172, Note_on_c, 8, 71, 0
1, 144180, Note_on_c, 1, 40, 0
1, 144182, Note_on_c, 5, 64, 67
1, 144184, Note_on_c, 8, 66, 0
1, 144184, Note_on_c, 8, 71, 80
1, 144188, Note_on_c, 8, 68, 0
1, 144188, Note_on_c, 9, 42, 57
1, 144188, Note_on_c, 9, 69, 32
1, 144192, Note_on_c, 9, 69, 0
1, 144192, Note_on_c, 9, 42, 0
1, 144192, Note_on_c, 8, 68, 83
1, 144194, Note_on_c, 8, 66, 78
1, 144200, Note_on_c, 8, 64, 80
1, 144204, Note_on_c, 1, 28, 117
1, 144258, Note_on_c, 5, 64, 0
1, 144290, Note_on_c, 9, 36, 117
1, 144294, Note_on_c, 9, 36, 0
1, 144344, Note_on_c, 2, 64, 0
1, 144344, Note_on_c, 2, 59, 0
1, 144348, Note_on_c, 2, 56, 0
1, 144360, Note_on_c, 6, 56, 0
1, 144364, Note_on_c, 8, 71, 0
1, 144372, Note_on_c, 8, 68, 0
1, 144374, Note_on_c, 8, 66, 0
1, 144374, Note_on_c, 2, 62, 97
1, 144376, Note_on_c, 6, 59, 0
1, 144376, Note_on_c, 2, 57, 98
1, 144378, Note_on_c, 2, 54, 98
1, 144378, Note_on_c, 5, 62, 67
1, 144378, Note_on_c, 6, 62, 71
1, 144378, Note_on_c, 9, 42, 54
1, 144380, Note_on_c, 8, 64, 0
1, 144382, Note_on_c, 9, 42, 0
1, 144384, Note_on_c, 1, 28, 0
1, 144384, Note_on_c, 2, 64, 97
1, 144386, Note_on_c, 1, 28, 114
1, 144386, Note_on_c, 9, 69, 35
1, 144390, Note_on_c, 9, 69, 0
1, 144390, Note_on_c, 9, 36, 124
1, 144394, Note_on_c, 9, 36, 0
1, 144394, Note_on_c, 6, 54, 71
1, 144396, Note_on_c, 6, 57, 68
1, 144454, Note_on_c, 5, 62, 0
1, 144482, Note_on_c, 9, 69, 35
1, 144486, Note_on_c, 9, 69, 0
1, 144578, Note_on_c, 5, 62, 71
1, 144580, Note_on_c, 9, 42, 56
1, 144580, Note_on_c, 9, 69, 38
1, 144584, Note_on_c, 9, 69, 0
1, 144584, Note_on_c, 9, 42, 0
1, 144654, Note_on_c, 5, 62, 0
1, 144674, Note_on_c, 9, 46, 100
1, 144678, Note_on_c, 9, 46, 0
1, 144680, Note_on_c, 5, 69, 65
1, 144756, Note_on_c, 5, 69, 0
1, 144760, Note_on_c, 9, 38, 125
1, 144764, Note_on_c, 9, 38, 0
1, 144768, Note_on_c, 9, 42, 58
1, 144772, Note_on_c, 9, 42, 0
1, 144856, Note_on_c, 9, 44, 51
1, 144860, Note_on_c, 9, 44, 0
1, 144872, Note_on_c, 5, 62, 64
1, 144926, Note_on_c, 1, 28, 0
1, 144948, Note_on_c, 5, 62, 0
1, 144950, Note_on_c, 8, 69, 83
1, 144952, Note_on_c, 9, 42, 58
1, 144956, Note_on_c, 9, 42, 0
1, 144956, Note_on_c, 9, 36, 110
1, 144958, Note_on_c, 8, 73, 75
1, 144960, Note_on_c, 9, 36, 0
1, 144960, Note_on_c, 1, 28, 117
1, 144962, Note_on_c, 8, 66, 76
1, 144968, Note_on_c, 8, 64, 81
1, 145038, Note_on_c, 8, 69, 0
1, 145040, Note_on_c, 1, 28, 0
1, 145046, Note_on_c, 8, 73, 0
1, 145046, Note_on_c, 8, 73, 77
1, 145048, Note_on_c, 8, 66, 0
1, 145048, Note_on_c, 8, 66, 74
1, 145048, Note_on_c, 9, 44, 53
1, 145050, Note_on_c, 9, 36, 104
1, 145052, Note_on_c, 9, 44, 0
1, 145052, Note_on_c, 8, 69, 80
1, 145054, Note_on_c, 9, 36, 0
1, 145054, Note_on_c, 8, 64, 0
1, 145054, Note_on_c, 8, 64, 80
1, 145056, Note_on_c, 1, 40, 114
1, 145056, Note_on_c, 9, 69, 31
1, 145060, Note_on_c, 9, 69, 0
1, 145062, Note_on_c, 5, 69, 72
1, 145136, Note_on_c, 1, 40, 0
1, 145138, Note_on_c, 5, 69, 0
1, 145154, Note_on_c, 9, 42, 54
1, 145158, Note_on_c, 9, 42, 0
1, 145242, Note_on_c, 9, 44, 50
1, 145246, Note_on_c, 9, 44, 0
1, 145246, Note_on_c, 5, 69, 70
1, 145250, Note_on_c, 1, 40, 116
1, 145250, Note_on_c, 9, 69, 35
1, 145254, Note_on_c, 9, 69, 0
1, 145322, Note_on_c, 5, 69, 0
1, 145326, Note_on_c, 8, 73, 0
1, 145328, Note_on_c, 8, 66, 0
1, 145330, Note_on_c, 1, 40, 0
1, 145332, Note_on_c, 8, 69, 0
1, 145334, Note_on_c, 8, 64, 0
1, 145334, Note_on_c, 5, 62, 72
1, 145334, Note_on_c, 8, 64, 78
1, 145338, Note_on_c, 8, 69, 78
1, 145344, Note_on_c, 8, 66, 74
1, 145346, Note_on_c, 9, 42, 51
1, 145350, Note_on_c, 9, 42, 0
1, 145350, Note_on_c, 1, 28, 111
1, 145352, Note_on_c, 8, 73, 75
1, 145410, Note_on_c, 5, 62, 0
1, 145440, Note_on_c, 9, 44, 54
1, 145444, Note_on_c, 9, 44, 0
1, 145458, Note_on_c, 8, 64, 0
1, 145462, Note_on_c, 8, 69, 0
1, 145472, Note_on_c, 8, 66, 0
1, 145472, Note_on_c, 8, 73, 0
1, 145528, Note_on_c, 9, 69, 38
1, 145530, Note_on_c, 1, 28, 0
1, 145530, Note_on_c, 9, 42, 57
1, 145532, Note_on_c, 9, 69, 0
1, 145534, Note_on_c, 9, 42, 0
1, 145534, Note_on_c, 9, 38, 121
1, 145536, Note_on_c, 5, 69, 67
1, 145538, Note_on_c, 9, 38, 0
1, 145548, Note_on_c, 1, 40, 113
1, 145612, Note_on_c, 5, 69, 0
1, 145622, Note_on_c, 1, 40, 0
1, 145622, Note_on_c, 1, 40, 109
1, 145628, Note_on_c, 9, 44, 54
1, 145628, Note_on_c, 9, 69, 33
1, 145632, Note_on_c, 9, 69, 0
1, 145632, Note_on_c, 9, 44, 0
1, 145634, Note_on_c, 5, 69, 71
1, 145702, Note_on_c, 1, 40, 0
1, 145710, Note_on_c, 5, 69, 0
1, 145722, Note_on_c, 1, 28, 110
1, 145728, Note_on_c, 5, 62, 64
1, 145728, Note_on_c, 9, 42, 58
1, 145732, Note_on_c, 9, 42, 0
1, 145734, Note_on_c, 9, 69, 29
1, 145738, Note_on_c, 9, 69, 0
1, 145804, Note_on_c, 5, 62, 0
1, 145826, Note_on_c, 9, 36, 124
1, 145830, Note_on_c, 9, 36, 0
1, 145902, Note_on_c, 1, 28, 0
1, 145912, Note_on_c, 9, 36, 125
1, 145916, Note_on_c, 9, 36, 0
1, 145916, Note_on_c, 5, 62, 67
1, 145918, Note_on_c, 1, 28, 118
1, 145918, Note_on_c, 9, 69, 36
1, 145922, Note_on_c, 9, 69, 0
1, 145924, Note_on_c, 9, 42, 50
1, 145928, Note_on_c, 9, 42, 0
1, 145992, Note_on_c, 5, 62, 0
1, 146016, Note_on_c, 9, 69, 34
1, 146020, Note_on_c, 9, 69, 0
1, 146110, Note_on_c, 9, 42, 55
1, 146114, Note_on_c, 9, 42, 0
1, 146116, Note_on_c, 5, 62, 73
1, 146116, Note_on_c, 9, 69, 37
1, 146120, Note_on_c, 9, 69, 0
1, 146192, Note_on_c, 5, 62, 0
1, 146208, Note_on_c, 9, 46, 102
1, 146212, Note_on_c, 9, 46, 0
1, 146212, Note_on_c, 5, 69, 72
1, 146288, Note_on_c, 5, 69, 0
1, 146306, Note_on_c, 9, 42, 50
1, 146310, Note_on_c, 9, 42, 0
1, 146310, Note_on_c, 9, 38, 120
1, 146314, Note_on_c, 9, 38, 0
1, 146396, Note_on_c, 8, 64, 83
1, 146398, Note_on_c, 5, 69, 72
1, 146402, Note_on_c, 8, 66, 76
1, 146406, Note_on_c, 8, 69, 76
1, 146406, Note_on_c, 9, 44, 55
1, 146410, Note_on_c, 9, 44, 0
1, 146458, Note_on_c, 1, 28, 0
1, 146474, Note_on_c, 5, 69, 0
1, 146490, Note_on_c, 9, 42, 52
1, 146494, Note_on_c, 9, 42, 0
1, 146494, Note_on_c, 1, 28, 109
1, 146502, Note_on_c, 9, 36, 110
1, 146504, Note_on_c, 5, 62, 72
1, 146506, Note_on_c, 9, 36, 0
1, 146574, Note_on_c, 1, 28, 0
1, 146576, Note_on_c, 8, 64, 0
1, 146580, Note_on_c, 5, 62, 0
1, 146582, Note_on_c, 8, 66, 0
1, 146586, Note_on_c, 8, 69, 0
1, 146586, Note_on_c, 5, 69, 65
1, 146588, Note_on_c, 9, 36, 103
1, 146592, Note_on_c, 9, 36, 0
1, 146594, Note_on_c, 9, 44, 52
1, 146594, Note_on_c, 9, 69, 32
1, 146596, Note_on_c, 1, 40, 118
1, 146598, Note_on_c, 9, 69, 0
1, 146598, Note_on_c, 9, 44, 0
1, 146662, Note_on_c, 5, 69, 0
1, 146676, Note_on_c, 1, 40, 0
1, 146688, Note_on_c, 8, 64, 81
1, 146688, Note_on_c, 9, 42, 58
1, 146690, Note_on_c, 8, 66, 83
1, 146692, Note_on_c, 9, 42, 0
1, 146696, Note_on_c, 8, 73, 74
1, 146774, Note_on_c, 1, 40, 117
1, 146776, Note_on_c, 9, 69, 35
1, 146780, Note_on_c, 9, 69, 0
1, 146790, Note_on_c, 5, 69, 64
1, 146790, Note_on_c, 9, 44, 55
1, 146794, Note_on_c, 9, 44, 0
1, 146854, Note_on_c, 1, 40, 0
1, 146866, Note_on_c, 5, 69, 0
1, 146880, Note_on_c, 9, 42, 56
1, 146884, Note_on_c, 9, 42, 0
1, 146884, Note_on_c, 1, 28, 109
1, 146886, Note_on_c, 4, 62, 94
1, 146886, Note_on_c, 5, 62, 64
1, 146962, Note_on_c, 5, 62, 0
1, 146976, Note_on_c, 5, 69, 67
1, 146980, Note_on_c, 9, 44, 58
1, 146984, Note_on_c, 9, 44, 0
1, 147048, Note_on_c, 8, 64, 0
1, 147050, Note_on_c, 8, 66, 0
1, 147052, Note_on_c, 5, 69, 0
1, 147056, Note_on_c, 8, 73, 0
1, 147060, Note_on_c, 1, 40, 116
1, 147062, Note_on_c, 8, 66, 80
1, 147064, Note_on_c, 1, 28, 0
1, 147066, Note_on_c, 9, 69, 30
1, 147070, Note_on_c, 9, 69, 0
1, 147072, Note_on_c, 9, 38, 120
1, 147076, Note_on_c, 9, 38, 0
1, 147080, Note_on_c, 5, 69, 69
1, 147080, Note_on_c, 8, 64, 78
1, 147080, Note_on_c, 8, 69, 78
1, 147156, Note_on_c, 5, 69, 0
1, 147162, Note_on_c, 9, 69, 35
1, 147166, Note_on_c, 9, 69, 0
1, 147240, Note_on_c, 1, 40, 0
1, 147242, Note_on_c, 8, 66, 0
1, 147258, Note_on_c, 9, 69, 30
1, 147260, Note_on_c, 8, 64, 0
1, 147260, Note_on_c, 8, 69, 0
1, 147262, Note_on_c, 9, 69, 0
1, 147268, Note_on_c, 5, 62, 65
1, 147268, Note_on_c, 9, 38, 121
1, 147272, Note_on_c, 9, 38, 0
1, 147274, Note_on_c, 1, 40, 112
1, 147344, Note_on_c, 5, 62, 0
1, 147352, Note_on_c, 9, 36, 119
1, 147356, Note_on_c, 9, 36, 0
1, 147364, Note_on_c, 9, 38, 125
1, 147368, Note_on_c, 9, 38, 0
1, 147414, Note_on_c, 2, 62, 0
1, 147416, Note_on_c, 2, 57, 0
1, 147418, Note_on_c, 2, 54, 0
1, 147424, Note_on_c, 2, 64, 0
1, 147426, Note_on_c, 6, 64, 0
1, 147426, Note_on_c, 4, 62, 0
1, 147438, Note_on_c, 6, 62, 0
1, 147450, Note_on_c, 6, 63, 68
1, 147450, Note_on_c, 9, 36, 120
1, 147452, Note_on_c, 2, 64, 95
1, 147454, Note_on_c, 9, 36, 0
1, 147454, Note_on_c, 6, 54, 0
1, 147454, Note_on_c, 1, 40, 0
1, 147456, Note_on_c, 6, 57, 0
1, 147456, Note_on_c, 6, 66, 66
1, 147456, Note_on_c, 9, 49, 103
1, 147458, Note_on_c, 6, 59, 68
1, 147458, Note_on_c, 8, 64, 83
1, 147458, Note_on_c, 8, 71, 77
1, 147460, Note_on_c, 9, 49, 0
1, 147460, Note_on_c, 2, 66, 101
1, 147462, Note_on_c, 2, 59, 94
1, 147462, Note_on_c, 8, 66, 81
1, 147468, Note_on_c, 1, 42, 113
1, 147728, Note_on_c, 1, 42, 0
1, 147736, Note_on_c, 1, 42, 113
1, 147748, Note_on_c, 9, 38, 117
1, 147752, Note_on_c, 9, 38, 0
1, 147816, Note_on_c, 1, 42, 0
1, 147834, Note_on_c, 9, 38, 116
1, 147838, Note_on_c, 9, 38, 0
1, 147850, Note_on_c, 1, 37, 113
1, 147998, Note_on_c, 8, 64, 0
1, 147998, Note_on_c, 8, 71, 0
1, 148000, Note_on_c, 2, 64, 0
1, 148002, Note_on_c, 8, 66, 0
1, 148008, Note_on_c, 2, 66, 0
1, 148010, Note_on_c, 2, 59, 0
1, 148020, Note_on_c, 1, 35, 112
1, 148024, Note_on_c, 8, 61, 81
1, 148024, Note_on_c, 9, 36, 104
1, 148026, Note_on_c, 8, 69, 77
1, 148028, Note_on_c, 9, 36, 0
1, 148028, Note_on_c, 2, 61, 97
1, 148028, Note_on_c, 9, 49, 105
1, 148030, Note_on_c, 1, 37, 0
1, 148032, Note_on_c, 9, 49, 0
1, 148034, Note_on_c, 2, 66, 102
1, 148036, Note_on_c, 2, 57, 103
1, 148036, Note_on_c, 8, 64, 76
1, 148122, Note_on_c, 9, 36, 107
1, 148126, Note_on_c, 9, 36, 0
1, 148200, Note_on_c, 1, 35, 0
1, 148216, Note_on_c, 9, 49, 109
1, 148220, Note_on_c, 9, 49, 0
1, 148224, Note_on_c, 1, 35, 118
1, 148418, Note_on_c, 9, 38, 118
1, 148422, Note_on_c, 9, 38, 0
1, 148422, Note_on_c, 5, 64, 73
1, 148498, Note_on_c, 5, 64, 0
1, 148584, Note_on_c, 1, 35, 0
1, 148594, Note_on_c, 1, 35, 112
1, 148612, Note_on_c, 9, 38, 125
1, 148616, Note_on_c, 9, 38, 0
1, 148616, Note_on_c, 5, 64, 67
1, 148690, Note_on_c, 1, 35, 0
1, 148692, Note_on_c, 5, 64, 0
1, 148702, Note_on_c, 1, 37, 109
1, 148708, Note_on_c, 9, 50, 119
1, 148710, Note_on_c, 5, 64, 73
1, 148712, Note_on_c, 9, 50, 0
1, 148786, Note_on_c, 5, 64, 0
1, 148798, Note_on_c, 1, 37, 0
1, 148800, Note_on_c, 1, 40, 118
1, 148800, Note_on_c, 9, 47, 118
1, 148804, Note_on_c, 9, 47, 0
1, 148808, Note_on_c, 5, 64, 72
1, 148880, Note_on_c, 1, 40, 0
1, 148884, Note_on_c, 5, 64, 0
1, 148886, Note_on_c, 5, 64, 67
1, 148892, Note_on_c, 9, 43, 116
1, 148892, Note_on_c, 9, 89, 125
1, 148896, Note_on_c, 9, 89, 0
1, 148896, Note_on_c, 9, 43, 0
1, 148902, Note_on_c, 9, 36, 123
1, 148904, Note_on_c, 1, 40, 116
1, 148906, Note_on_c, 9, 36, 0
1, 148908, Control_c, 10, 1, 15
1, 148956, Control_c, 11, 1, 15
1, 148962, Note_on_c, 5, 64, 0
1, 148964, Note_on_c, 8, 61, 0
1, 148966, Note_on_c, 8, 69, 0
1, 148968, Note_on_c, 2, 61, 0
1, 148970, Note_on_c, 6, 63, 0
1, 148974, Note_on_c, 2, 66, 0
1, 148976, Note_on_c, 6, 66, 0
1, 148976, Note_on_c, 2, 57, 0
1, 148976, Note_on_c, 8, 64, 0
1, 148978, Note_on_c, 6, 59, 0
1, 148978, Note_on_c, 1, 28, 109
1, 148978, Note_on_c, 7, 64, 76
1, 148984, Note_on_c, 1, 40, 0
1, 148984, Note_on_c, 2, 64, 100
1, 148988, Note_on_c, 9, 36, 124
1, 148990, Note_on_c, 9, 69, 29
1, 148992, Note_on_c, 9, 36, 0
1, 148992, Note_on_c, 9, 49, 100
1, 148992, Pitch_bend_c, 10, 7360
1, 148994, Note_on_c, 9, 69, 0
1, 148996, Note_on_c, 9, 49, 0
1, 148996, Note_on_c, 2, 59, 95
1, 148996, Note_on_c, 2, 68, 101
1, 148996, Note_on_c, 4, 59, 65
1, 149000, Note_on_c, 4, 64, 66
1, 149000, Note_on_c, 7, 76, 81
1, 149002, Note_on_c, 6, 56, 70
1, 149002, Note_on_c, 6, 59, 66
1, 149002, Note_on_c, 6, 64, 67
1, 149002, Pitch_bend_c, 10, 7296
1, 149012, Pitch_bend_c, 10, 7424
1, 149022, Pitch_bend_c, 10, 7488
1, 149026, Note_on_c, 10, 76, 120
1, 149032, Pitch_bend_c, 10, 7552
1, 149040, Pitch_bend_c, 11, 7360
1, 149042, Pitch_bend_c, 10, 7616
1, 149050, Note_on_c, 4, 59, 0
1, 149050, Pitch_bend_c, 11, 7296
1, 149052, Pitch_bend_c, 10, 7680
1, 149054, Note_on_c, 4, 64, 0
1, 149060, Pitch_bend_c, 11, 7424
1, 149062, Pitch_bend_c, 10, 7744
1, 149070, Pitch_bend_c, 11, 7488
1, 149072, Pitch_bend_c, 10, 7808
1, 149074, Note_on_c, 11, 76, 120
1, 149078, Note_on_c, 4, 68, 96
1, 149080, Note_on_c, 4, 64, 103
1, 149080, Pitch_bend_c, 11, 7552
1, 149082, Note_on_c, 4, 59, 95
1, 149082, Pitch_bend_c, 10, 7872
1, 149090, Pitch_bend_c, 11, 7616
1, 149092, Note_on_c, 9, 44, 52
1, 149092, Note_on_c, 9, 69, 31
1, 149092, Pitch_bend_c, 10, 7936
1, 149096, Note_on_c, 9, 69, 0
1, 149096, Note_on_c, 9, 44, 0
1, 149100, Pitch_bend_c, 11, 7680
1, 149102, Pitch_bend_c, 10, 8000
1, 149110, Pitch_bend_c, 11, 7744
1, 149112, Pitch_bend_c, 10, 8064
1, 149120, Pitch_bend_c, 11, 7808
1, 149122, Pitch_bend_c, 10, 8128
1, 149124, Control_c, 10, 1, 25
1, 149130, Pitch_bend_c, 11, 7872
1, 149132, Pitch_bend_c, 10, 8192
1, 149140, Pitch_bend_c, 11, 7936
1, 149150, Pitch_bend_c, 11, 8000
1, 149160, Pitch_bend_c, 11, 8064
1, 149170, Pitch_bend_c, 11, 8128
1, 149172, Control_c, 11, 1, 25
1, 149176, Note_on_c, 9, 69, 29
1, 149180, Note_on_c, 9, 69, 0
1, 149180, Note_on_c, 9, 42, 53
1, 149180, Pitch_bend_c, 11, 8192
1, 149182, Note_on_c, 8, 83, 80
1, 149184, Note_on_c, 9, 42, 0
1, 149256, Control_c, 10, 1, 40
1, 149258, Note_on_c, 4, 68, 0
1, 149260, Note_on_c, 4, 64, 0
1, 149262, Note_on_c, 4, 59, 0
1, 149270, Note_on_c, 8, 83, 0
1, 149272, Note_on_c, 4, 64, 59
1, 149276, Note_on_c, 9, 46, 106
1, 149278, Note_on_c, 4, 68, 60
1, 149280, Note_on_c, 9, 46, 0
1, 149288, Note_on_c, 4, 59, 59
1, 149304, Control_c, 11, 1, 40
1, 149326, Note_on_c, 4, 64, 0
1, 149332, Note_on_c, 4, 68, 0
1, 149342, Note_on_c, 4, 59, 0
1, 149352, Note_on_c, 7, 76, 0
1, 149362, Note_on_c, 7, 76, 83
1, 149362, Note_on_c, 7, 88, 79
1, 149368, Note_on_c, 8, 81, 76
1, 149372, Note_on_c, 9, 38, 117
1, 149376, Note_on_c, 9, 38, 0
1, 149376, Control_c, 10, 1, 78
1, 149382, Note_on_c, 9, 42, 54
1, 149386, Note_on_c, 9, 42, 0
1, 149424, Control_c, 11, 1, 78
1, 149456, Note_on_c, 8, 81, 0
1, 149472, Note_on_c, 9, 44, 58
1, 149476, Note_on_c, 9, 44, 0
1, 149518, Note_on_c, 1, 28, 0
1, 149538, Note_on_c, 7, 76, 0
1, 149542, Note_on_c, 7, 88, 0
1, 149556, Note_on_c, 1, 28, 114
1, 149562, Note_on_c, 9, 42, 58
1, 149566, Note_on_c, 9, 42, 0
1, 149568, Note_on_c, 8, 80, 78
1, 149570, Note_on_c, 9, 36, 109
1, 149572, Note_on_c, 5, 71, 69
1, 149574, Note_on_c, 9, 36, 0
1, 149592, Control_c, 10, 1, 55
1, 149640, Control_c, 11, 1, 55
1, 149648, Note_on_c, 5, 71, 0
1, 149656, Note_on_c, 8, 80, 0
1, 149658, Note_on_c, 9, 69, 32
1, 149660, Note_on_c, 5, 71, 71
1, 149662, Note_on_c, 9, 69, 0
1, 149662, Note_on_c, 9, 36, 101
1, 149662, Note_on_c, 9, 44, 53
1, 149666, Note_on_c, 9, 44, 0
1, 149666, Note_on_c, 9, 36, 0
1, 149718, Note_on_c, 7, 64, 0
1, 149736, Note_on_c, 1, 28, 0
1, 149736, Note_on_c, 5, 71, 0
1, 149748, Control_c, 10, 1, 39
1, 149752, Note_on_c, 9, 42, 53
1, 149754, Note_on_c, 7, 71, 76
1, 149756, Note_on_c, 9, 42, 0
1, 149756, Note_on_c, 5, 71, 68
1, 149756, Note_on_c, 8, 78, 78
1, 149762, Note_on_c, 1, 40, 114
1, 149768, Note_on_c, 7, 59, 82
1, 149796, Control_c, 11, 1, 39
1, 149832, Note_on_c, 5, 71, 0
1, 149844, Note_on_c, 8, 78, 0
1, 149848, Note_on_c, 9, 44, 50
1, 149852, Note_on_c, 9, 44, 0
1, 149852, Note_on_c, 9, 69, 35
1, 149856, Note_on_c, 9, 69, 0
1, 149942, Note_on_c, 5, 71, 70
1, 149952, Note_on_c, 8, 76, 74
1, 149954, Note_on_c, 9, 42, 56
1, 149958, Note_on_c, 9, 42, 0
1, 149964, Control_c, 10, 1, 15
1, 150012, Control_c, 11, 1, 15
1, 150018, Note_on_c, 5, 71, 0
1, 150022, Note_on_c, 1, 40, 0
1, 150038, Note_on_c, 5, 76, 65
1, 150040, Note_on_c, 8, 76, 0
1, 150050, Note_on_c, 9, 44, 50
1, 150054, Note_on_c, 9, 44, 0
1, 150058, Note_on_c, 1, 28, 113
1, 150110, Note_on_c, 10, 76, 0
1, 150114, Note_on_c, 5, 76, 0
1, 150138, Note_on_c, 1, 28, 0
1, 150140, Note_on_c, 9, 69, 38
1, 150144, Note_on_c, 9, 69, 0
1, 150144, Note_on_c, 8, 78, 78
1, 150144, Note_on_c, 9, 38, 123
1, 150146, Note_on_c, 9, 42, 57
1, 150148, Note_on_c, 9, 38, 0
1, 150150, Note_on_c, 9, 42, 0
1, 150152, Note_on_c, 10, 73, 124
1, 150153, Control_c, 10, 1, 28
1, 150156, Note_on_c, 1, 28, 113
1, 150158, Note_on_c, 11, 76, 0
1, 150200, Note_on_c, 11, 73, 124
1, 150201, Control_c, 11, 1, 28
1, 150232, Note_on_c, 8, 78, 0
1, 150236, Note_on_c, 1, 28, 0
1, 150236, Note_on_c, 1, 28, 115
1, 150238, Note_on_c, 9, 44, 50
1, 150242, Note_on_c, 9, 44, 0
1, 150246, Note_on_c, 9, 69, 33
1, 150250, Note_on_c, 9, 69, 0
1, 150252, Control_c, 10, 1, 70
1, 150300, Control_c, 11, 1, 70
1, 150316, Note_on_c, 1, 28, 0
1, 150330, Note_on_c, 9, 42, 53
1, 150334, Note_on_c, 9, 42, 0
1, 150336, Note_on_c, 1, 32, 113
1, 150336, Note_on_c, 9, 69, 32
1, 150340, Note_on_c, 9, 69, 0
1, 150340, Note_on_c, 8, 80, 79
1, 150369, Control_c, 10, 1, 55
1, 150416, Note_on_c, 1, 32, 0
1, 150417, Control_c, 11, 1, 55
1, 150424, Note_on_c, 1, 35, 116
1, 150428, Note_on_c, 8, 80, 0
1, 150428, Note_on_c, 9, 36, 125
1, 150432, Note_on_c, 9, 36, 0
1, 150432, Pitch_bend_c, 10, 9576
1, 150434, Note_on_c, 9, 44, 52
1, 150438, Note_on_c, 9, 44, 0
1, 150456, Control_c, 10, 1, 37
1, 150480, Pitch_bend_c, 10, 8192
1, 150480, Pitch_bend_c, 11, 9576
1, 150494, Note_on_c, 7, 71, 0
1, 150496, Note_on_c, 2, 64, 0
1, 150504, Note_on_c, 1, 35, 0
1, 150504, Control_c, 11, 1, 37
1, 150508, Note_on_c, 2, 59, 0
1, 150508, Note_on_c, 2, 68, 0
1, 150508, Note_on_c, 7, 59, 0
1, 150516, Note_on_c, 1, 37, 110
1, 150524, Note_on_c, 2, 59, 96
1, 150524, Note_on_c, 2, 68, 98
1, 150524, Note_on_c, 9, 36, 124
1, 150526, Note_on_c, 7, 80, 81
1, 150528, Note_on_c, 9, 36, 0
1, 150528, Note_on_c, 2, 64, 95
1, 150528, Note_on_c, 7, 68, 81
1, 150528, Pitch_bend_c, 10, 6834
1, 150528, Pitch_bend_c, 11, 8192
1, 150530, Note_on_c, 4, 64, 61
1, 150530, Note_on_c, 9, 42, 59
1, 150532, Note_on_c, 4, 59, 67
1, 150532, Note_on_c, 9, 69, 34
1, 150534, Note_on_c, 9, 42, 0
1, 150536, Note_on_c, 9, 69, 0
1, 150576, Pitch_bend_c, 11, 6834
1, 150584, Note_on_c, 4, 64, 0
1, 150586, Note_on_c, 4, 59, 0
1, 150616, Note_on_c, 9, 44, 55
1, 150620, Note_on_c, 9, 44, 0
1, 150624, Note_on_c, 4, 64, 101
1, 150624, Note_on_c, 9, 69, 36
1, 150624, Control_c, 10, 1, 15
1, 150628, Note_on_c, 9, 69, 0
1, 150628, Note_on_c, 4, 68, 101
1, 150630, Note_on_c, 4, 59, 95
1, 150672, Control_c, 11, 1, 15
1, 150696, Note_on_c, 10, 73, 0
1, 150712, Pitch_bend_c, 10, 8192
1, 150714, Note_on_c, 9, 69, 37
1, 150718, Note_on_c, 9, 69, 0
1, 150724, Note_on_c, 9, 42, 50
1, 150726, Note_on_c, 8, 83, 76
1, 150728, Note_on_c, 9, 42, 0
1, 150728, Note_on_c, 10, 71, 125
1, 150744, Note_on_c, 11, 73, 0
1, 150760, Pitch_bend_c, 11, 8192
1, 150776, Note_on_c, 11, 71, 125
1, 150796, Note_on_c, 10, 71, 0
1, 150804, Note_on_c, 4, 64, 0
1, 150808, Note_on_c, 4, 68, 0
1, 150810, Note_on_c, 4, 59, 0
1, 150812, Note_on_c, 9, 46, 103
1, 150812, Note_on_c, 10, 71, 125
1, 150814, Note_on_c, 8, 83, 0
1, 150816, Note_on_c, 9, 46, 0
1, 150822, Note_on_c, 4, 59, 61
1, 150822, Note_on_c, 4, 64, 61
1, 150822, Note_on_c, 4, 68, 61
1, 150844, Note_on_c, 11, 71, 0
1, 150860, Note_on_c, 11, 71, 125
1, 150876, Note_on_c, 4, 68, 0
1, 150876, Note_on_c, 4, 59, 0
1, 150876, Note_on_c, 4, 64, 0
1, 150904, Note_on_c, 8, 81, 77
1, 150906, Note_on_c, 9, 42, 52
1, 150910, Note_on_c, 9, 42, 0
1, 150910, Note_on_c, 9, 38, 116
1, 150914, Note_on_c, 9, 38, 0
1, 150976, Note_on_c, 1, 37, 0
1, 150992, Note_on_c, 8, 81, 0
1, 151006, Note_on_c, 1, 32, 118
1, 151006, Note_on_c, 9, 44, 56
1, 151010, Note_on_c, 9, 44, 0
1, 151076, Note_on_c, 10, 71, 0
1, 151080, Pitch_bend_c, 10, 7360
1, 151086, Note_on_c, 1, 32, 0
1, 151090, Pitch_bend_c, 10, 7296
1, 151096, Note_on_c, 9, 42, 53
1, 151096, Note_on_c, 10, 73, 121
1, 151098, Note_on_c, 8, 80, 76
1, 151100, Note_on_c, 9, 42, 0
1, 151100, Pitch_bend_c, 10, 7424
1, 151104, Control_c, 10, 1, 28
1, 151108, Note_on_c, 9, 36, 108
1, 151110, Note_on_c, 5, 71, 72
1, 151110, Pitch_bend_c, 10, 7488
1, 151112, Note_on_c, 9, 36, 0
1, 151114, Note_on_c, 1, 37, 115
1, 151120, Pitch_bend_c, 10, 7552
1, 151124, Note_on_c, 11, 71, 0
1, 151128, Pitch_bend_c, 11, 7360
1, 151130, Pitch_bend_c, 10, 7616
1, 151138, Pitch_bend_c, 11, 7296
1, 151140, Pitch_bend_c, 10, 7680
1, 151144, Note_on_c, 11, 73, 121
1, 151148, Pitch_bend_c, 11, 7424
1, 151150, Pitch_bend_c, 10, 7744
1, 151152, Control_c, 11, 1, 28
1, 151158, Pitch_bend_c, 11, 7488
1, 151160, Pitch_bend_c, 10, 7808
1, 151168, Pitch_bend_c, 11, 7552
1, 151170, Pitch_bend_c, 10, 7872
1, 151178, Pitch_bend_c, 11, 7616
1, 151180, Pitch_bend_c, 10, 7936
1, 151186, Note_on_c, 8, 80, 0
1, 151186, Note_on_c, 5, 71, 0
1, 151188, Pitch_bend_c, 11, 7680
1, 151190, Note_on_c, 5, 71, 65
1, 151190, Pitch_bend_c, 10, 8000
1, 151192, Note_on_c, 9, 69, 31
1, 151196, Note_on_c, 9, 69, 0
1, 151198, Pitch_bend_c, 11, 7744
1, 151200, Pitch_bend_c, 10, 8064
1, 151203, Control_c, 10, 1, 70
1, 151204, Note_on_c, 9, 36, 105
1, 151206, Note_on_c, 9, 44, 55
1, 151208, Note_on_c, 9, 36, 0
1, 151208, Pitch_bend_c, 11, 7808
1, 151210, Note_on_c, 9, 44, 0
1, 151210, Pitch_bend_c, 10, 8128
1, 151218, Pitch_bend_c, 11, 7872
1, 151220, Pitch_bend_c, 10, 8192
1, 151228, Pitch_bend_c, 11, 7936
1, 151238, Pitch_bend_c, 11, 8000
1, 151248, Pitch_bend_c, 11, 8064
1, 151251, Control_c, 11, 1, 70
1, 151258, Pitch_bend_c, 11, 8128
1, 151266, Note_on_c, 5, 71, 0
1, 151268, Pitch_bend_c, 11, 8192
1, 151294, Note_on_c, 1, 37, 0
1, 151294, Note_on_c, 1, 37, 110
1, 151296, Note_on_c, 9, 42, 50
1, 151300, Note_on_c, 9, 42, 0
1, 151300, Note_on_c, 5, 71, 70
1, 151304, Note_on_c, 8, 78, 80
1, 151320, Control_c, 10, 1, 55
1, 151368, Control_c, 11, 1, 55
1, 151376, Note_on_c, 5, 71, 0
1, 151386, Note_on_c, 9, 44, 58
1, 151390, Note_on_c, 9, 44, 0
1, 151392, Note_on_c, 8, 78, 0
1, 151392, Note_on_c, 5, 71, 65
1, 151396, Note_on_c, 9, 69, 34
1, 151400, Note_on_c, 9, 69, 0
1, 151407, Control_c, 10, 1, 37
1, 151455, Control_c, 11, 1, 37
1, 151468, Note_on_c, 5, 71, 0
1, 151480, Note_on_c, 9, 42, 59
1, 151484, Note_on_c, 9, 42, 0
1, 151488, Note_on_c, 4, 64, 94
1, 151492, Note_on_c, 8, 76, 80
1, 151496, Note_on_c, 4, 68, 61
1, 151550, Note_on_c, 4, 68, 0
1, 151552, Note_on_c, 10, 73, 0
1, 151554, Note_on_c, 1, 37, 0
1, 151575, Control_c, 10, 1, 15
1, 151580, Note_on_c, 8, 76, 0
1, 151582, Note_on_c, 9, 44, 50
1, 151584, Note_on_c, 4, 69, 67
1, 151586, Note_on_c, 9, 44, 0
1, 151590, Note_on_c, 1, 37, 110
1, 151592, Note_on_c, 10, 68, 125
1, 151600, Note_on_c, 11, 73, 0
1, 151623, Control_c, 11, 1, 15
1, 151638, Note_on_c, 4, 69, 0
1, 151640, Note_on_c, 11, 68, 125
1, 151668, Note_on_c, 1, 35, 112
1, 151670, Note_on_c, 1, 37, 0
1, 151672, Note_on_c, 9, 42, 57
1, 151676, Note_on_c, 9, 42, 0
1, 151680, Note_on_c, 4, 68, 96
1, 151680, Note_on_c, 9, 69, 38
1, 151684, Note_on_c, 9, 69, 0
1, 151684, Note_on_c, 10, 68, 0
1, 151684, Note_on_c, 9, 38, 119
1, 151684, Note_on_c, 10, 66, 122
1, 151686, Note_on_c, 8, 78, 81
1, 151688, Note_on_c, 9, 38, 0
1, 151732, Note_on_c, 11, 68, 0
1, 151732, Note_on_c, 11, 66, 122
1, 151770, Note_on_c, 9, 44, 57
1, 151770, Note_on_c, 10, 64, 127
1, 151772, Note_on_c, 10, 66, 0
1, 151774, Note_on_c, 9, 44, 0
1, 151774, Note_on_c, 8, 78, 0
1, 151774, Note_on_c, 9, 69, 37
1, 151778, Note_on_c, 9, 69, 0
1, 151818, Note_on_c, 11, 64, 127
1, 151820, Note_on_c, 11, 66, 0
1, 151848, Note_on_c, 1, 35, 0
1, 151858, Note_on_c, 10, 64, 0
1, 151864, Note_on_c, 9, 69, 34
1, 151866, Note_on_c, 8, 80, 80
1, 151868, Note_on_c, 9, 69, 0
1, 151872, Note_on_c, 10, 61, 120
1, 151874, Note_on_c, 9, 42, 54
1, 151878, Note_on_c, 9, 42, 0
1, 151882, Note_on_c, 1, 37, 117
1, 151906, Note_on_c, 11, 64, 0
1, 151920, Note_on_c, 11, 61, 120
1, 151954, Note_on_c, 8, 80, 0
1, 151960, Note_on_c, 10, 61, 0
1, 151964, Note_on_c, 9, 36, 125
1, 151964, Note_on_c, 9, 44, 54
1, 151968, Note_on_c, 9, 44, 0
1, 151968, Note_on_c, 9, 36, 0
1, 152008, Note_on_c, 11, 61, 0
1, 152026, Note_on_c, 7, 80, 0
1, 152028, Note_on_c, 7, 68, 0
1, 152036, Note_on_c, 2, 68, 0
1, 152036, Note_on_c, 2, 59, 0
1, 152040, Note_on_c, 4, 68, 0
1, 152040, Note_on_c, 2, 64, 0
1, 152048, Note_on_c, 4, 64, 0
1, 152052, Note_on_c, 6, 57, 73
1, 152052, Note_on_c, 7, 69, 80
1, 152054, Note_on_c, 2, 62, 101
1, 152058, Note_on_c, 2, 57, 98
1, 152058, Note_on_c, 9, 36, 121
1, 152058, Note_on_c, 9, 69, 29
1, 152060, Note_on_c, 6, 62, 67
1, 152060, Note_on_c, 9, 42, 56
1, 152062, Note_on_c, 9, 69, 0
1, 152062, Note_on_c, 9, 36, 0
1, 152062, Note_on_c, 6, 59, 0
1, 152062, Note_on_c, 1, 37, 0
1, 152062, Note_on_c, 6, 56, 0
1, 152062, Note_on_c, 6, 64, 0
1, 152062, Note_on_c, 4, 57, 61
1, 152064, Note_on_c, 9, 42, 0
1, 152064, Note_on_c, 6, 54, 68
1, 152066, Note_on_c, 4, 62, 64
1, 152066, Note_on_c, 10, 64, 126
1, 152070, Note_on_c, 2, 66, 97
1, 152072, Note_on_c, 7, 81, 77
1, 152074, Note_on_c, 1, 38, 111
1, 152114, Note_on_c, 11, 64, 126
1, 152116, Note_on_c, 4, 57, 0
1, 152120, Note_on_c, 4, 62, 0
1, 152154, Note_on_c, 10, 64, 0
1, 152154, Note_on_c, 4, 62, 98
1, 152162, Note_on_c, 4, 66, 103
1, 152162, Note_on_c, 9, 69, 34
1, 152164, Note_on_c, 4, 57, 98
1, 152166, Note_on_c, 9, 69, 0
1, 152166, Note_on_c, 9, 44, 53
1, 152170, Note_on_c, 9, 44, 0
1, 152202, Note_on_c, 11, 64, 0
1, 152246, Note_on_c, 8, 81, 80
1, 152250, Note_on_c, 9, 69, 35
1, 152254, Note_on_c, 9, 69, 0
1, 152254, Note_on_c, 10, 64, 120
1, 152262, Note_on_c, 9, 42, 53
1, 152266, Note_on_c, 9, 42, 0
1, 152302, Note_on_c, 11, 64, 120
1, 152318, Note_on_c, 10, 64, 0
1, 152334, Note_on_c, 4, 62, 0
1, 152334, Note_on_c, 8, 81, 0
1, 152342, Note_on_c, 4, 66, 0
1, 152342, Note_on_c, 4, 62, 60
1, 152344, Note_on_c, 4, 57, 0
1, 152346, Note_on_c, 4, 66, 67
1, 152352, Control_c, 10, 1, 28
1, 152352, Pitch_bend_c, 10, 7296
1, 152358, Note_on_c, 9, 46, 104
1, 152360, Note_on_c, 4, 57, 63
1, 152360, Pitch_bend_c, 10, 7360
1, 152360, Note_on_c, 10, 64, 127
1, 152362, Note_on_c, 9, 46, 0
1, 152364, Pitch_bend_c, 10, 7424
1, 152366, Note_on_c, 11, 64, 0
1, 152368, Pitch_bend_c, 10, 7488
1, 152372, Pitch_bend_c, 10, 7552
1, 152376, Pitch_bend_c, 10, 7616
1, 152380, Pitch_bend_c, 10, 7680
1, 152384, Pitch_bend_c, 10, 7744
1, 152388, Pitch_bend_c, 10, 7808
1, 152392, Pitch_bend_c, 10, 7872
1, 152396, Note_on_c, 4, 62, 0
1, 152396, Pitch_bend_c, 10, 7936
1, 152400, Note_on_c, 4, 66, 0
1, 152400, Pitch_bend_c, 10, 8000
1, 152400, Control_c, 11, 1, 28
1, 152400, Pitch_bend_c, 11, 7296
1, 152404, Pitch_bend_c, 10, 8064
1, 152408, Pitch_bend_c, 10, 8128
1, 152408, Pitch_bend_c, 11, 7360
1, 152408, Note_on_c, 11, 64, 127
1, 152412, Pitch_bend_c, 10, 8192
1, 152412, Pitch_bend_c, 11, 7424
1, 152414, Note_on_c, 4, 57, 0
1, 152416, Pitch_bend_c, 11, 7488
1, 152420, Pitch_bend_c, 11, 7552
1, 152424, Pitch_bend_c, 11, 7616
1, 152428, Pitch_bend_c, 11, 7680
1, 152432, Pitch_bend_c, 11, 7744
1, 152436, Pitch_bend_c, 11, 7808
1, 152440, Pitch_bend_c, 11, 7872
1, 152444, Note_on_c, 8, 80, 76
1, 152444, Pitch_bend_c, 11, 7936
1, 152448, Note_on_c, 9, 38, 120
1, 152448, Pitch_bend_c, 11, 8000
1, 152451, Control_c, 10, 1, 70
1, 152452, Note_on_c, 9, 38, 0
1, 152452, Note_on_c, 9, 42, 55
1, 152452, Pitch_bend_c, 11, 8064
1, 152456, Note_on_c, 9, 42, 0
1, 152456, Pitch_bend_c, 11, 8128
1, 152460, Pitch_bend_c, 11, 8192
1, 152499, Control_c, 11, 1, 70
1, 152532, Note_on_c, 8, 80, 0
1, 152534, Note_on_c, 1, 38, 0
1, 152538, Note_on_c, 1, 33, 109
1, 152544, Note_on_c, 9, 44, 53
1, 152548, Note_on_c, 9, 44, 0
1, 152568, Control_c, 10, 1, 55
1, 152616, Control_c, 11, 1, 55
1, 152618, Note_on_c, 1, 33, 0
1, 152632, Note_on_c, 10, 66, 127
1, 152634, Note_on_c, 5, 74, 66
1, 152636, Note_on_c, 9, 36, 102
1, 152638, Note_on_c, 1, 38, 117
1, 152640, Note_on_c, 9, 36, 0
1, 152640, Note_on_c, 8, 78, 82
1, 152640, Note_on_c, 9, 42, 53
1, 152644, Note_on_c, 9, 42, 0
1, 152648, Note_on_c, 10, 64, 0
1, 152655, Control_c, 10, 1, 37
1, 152680, Note_on_c, 11, 66, 127
1, 152696, Note_on_c, 11, 64, 0
1, 152703, Control_c, 11, 1, 37
1, 152710, Note_on_c, 5, 74, 0
1, 152720, Note_on_c, 10, 66, 0
1, 152728, Note_on_c, 8, 78, 0
1, 152734, Note_on_c, 9, 36, 105
1, 152736, Note_on_c, 9, 69, 31
1, 152738, Note_on_c, 9, 36, 0
1, 152738, Note_on_c, 5, 74, 65
1, 152738, Note_on_c, 9, 44, 59
1, 152740, Note_on_c, 9, 69, 0
1, 152742, Note_on_c, 9, 44, 0
1, 152768, Note_on_c, 11, 66, 0
1, 152814, Note_on_c, 5, 74, 0
1, 152818, Note_on_c, 1, 38, 0
1, 152820, Note_on_c, 1, 38, 115
1, 152823, Control_c, 10, 1, 15
1, 152824, Note_on_c, 8, 76, 80
1, 152828, Note_on_c, 5, 69, 69
1, 152832, Note_on_c, 9, 42, 55
1, 152836, Note_on_c, 9, 42, 0
1, 152871, Control_c, 11, 1, 15
1, 152904, Note_on_c, 5, 69, 0
1, 152912, Note_on_c, 8, 76, 0
1, 152920, Note_on_c, 9, 69, 37
1, 152924, Note_on_c, 9, 69, 0
1, 152928, Note_on_c, 9, 44, 54
1, 152932, Note_on_c, 9, 44, 0
1, 152936, Note_on_c, 5, 71, 73
1, 153000, Note_on_c, 1, 38, 0
1, 153012, Note_on_c, 5, 71, 0
1, 153024, Note_on_c, 8, 75, 79
1, 153030, Note_on_c, 9, 42, 58
1, 153032, Note_on_c, 5, 71, 70
1, 153034, Note_on_c, 9, 42, 0
1, 153108, Note_on_c, 5, 71, 0
1, 153110, Note_on_c, 1, 35, 115
1, 153112, Note_on_c, 8, 75, 0
1, 153118, Note_on_c, 4, 66, 66
1, 153122, Note_on_c, 4, 62, 61
1, 153124, Note_on_c, 9, 44, 58
1, 153126, Note_on_c, 4, 57, 67
1, 153128, Note_on_c, 9, 44, 0
1, 153172, Note_on_c, 4, 66, 0
1, 153176, Note_on_c, 4, 62, 0
1, 153180, Note_on_c, 4, 57, 0
1, 153190, Note_on_c, 1, 35, 0
1, 153208, Note_on_c, 9, 69, 34
1, 153210, Note_on_c, 9, 42, 55
1, 153212, Note_on_c, 9, 69, 0
1, 153214, Note_on_c, 9, 42, 0
1, 153214, Note_on_c, 8, 76, 83
1, 153218, Note_on_c, 5, 64, 64
1, 153220, Note_on_c, 1, 38, 116
1, 153222, Note_on_c, 9, 38, 116
1, 153226, Note_on_c, 9, 38, 0
1, 153294, Note_on_c, 5, 64, 0
1, 153300, Note_on_c, 1, 38, 0
1, 153300, Note_on_c, 1, 38, 111
1, 153302, Note_on_c, 8, 76, 0
1, 153304, Note_on_c, 5, 64, 69
1, 153310, Note_on_c, 9, 69, 34
1, 153314, Note_on_c, 9, 69, 0
1, 153314, Note_on_c, 10, 59, 120
1, 153316, Note_on_c, 9, 44, 51
1, 153320, Note_on_c, 9, 44, 0
1, 153362, Note_on_c, 11, 59, 120
1, 153380, Note_on_c, 5, 64, 0
1, 153396, Note_on_c, 1, 38, 0
1, 153400, Note_on_c, 9, 69, 33
1, 153402, Note_on_c, 10, 59, 0
1, 153404, Note_on_c, 9, 69, 0
1, 153404, Note_on_c, 8, 78, 80
1, 153406, Note_on_c, 1, 35, 113
1, 153408, Note_on_c, 10, 61, 121
1, 153412, Note_on_c, 9, 42, 57
1, 153414, Note_on_c, 5, 64, 64
1, 153416, Note_on_c, 9, 42, 0
1, 153450, Note_on_c, 11, 59, 0
1, 153456, Note_on_c, 11, 61, 121
1, 153486, Note_on_c, 1, 35, 0
1, 153490, Note_on_c, 5, 64, 0
1, 153492, Note_on_c, 8, 78, 0
1, 153496, Note_on_c, 10, 61, 0
1, 153510, Note_on_c, 9, 36, 121
1, 153510, Note_on_c, 9, 44, 58
1, 153512, Note_on_c, 1, 33, 113
1, 153514, Note_on_c, 9, 44, 0
1, 153514, Note_on_c, 9, 36, 0
1, 153544, Note_on_c, 11, 61, 0
1, 153566, Note_on_c, 2, 62, 0
1, 153570, Note_on_c, 2, 57, 0
1, 153582, Note_on_c, 2, 66, 0
1, 153588, Note_on_c, 1, 38, 114
1, 153592, Note_on_c, 1, 33, 0
1, 153592, Note_on_c, 4, 57, 68
1, 153594, Note_on_c, 4, 62, 68
1, 153598, Note_on_c, 9, 36, 119
1, 153600, Note_on_c, 2, 57, 97
1, 153602, Note_on_c, 9, 36, 0
1, 153602, Note_on_c, 2, 66, 101
1, 153602, Note_on_c, 9, 69, 34
1, 153606, Note_on_c, 9, 69, 0
1, 153606, Note_on_c, 9, 42, 53
1, 153606, Note_on_c, 10, 64, 119
1, 153608, Note_on_c, 2, 62, 103
1, 153610, Note_on_c, 9, 42, 0
1, 153646, Note_on_c, 4, 57, 0
1, 153648, Note_on_c, 4, 62, 0
1, 153654, Note_on_c, 11, 64, 119
1, 153694, Note_on_c, 10, 64, 0
1, 153698, Note_on_c, 9, 69, 30
1, 153700, Note_on_c, 4, 62, 98
1, 153702, Note_on_c, 9, 69, 0
1, 153702, Note_on_c, 4, 57, 96
1, 153702, Note_on_c, 4, 66, 94
1, 153702, Note_on_c, 9, 44, 56
1, 153706, Note_on_c, 9, 44, 0
1, 153722, Note_on_c, 10, 64, 120
1, 153742, Note_on_c, 11, 64, 0
1, 153770, Note_on_c, 11, 64, 120
1, 153786, Note_on_c, 10, 64, 0
1, 153786, Note_on_c, 8, 81, 83
1, 153786, Note_on_c, 9, 42, 54
1, 153786, Note_on_c, 10, 61, 121
1, 153790, Note_on_c, 9, 42, 0
1, 153790, Note_on_c, 9, 69, 32
1, 153794, Note_on_c, 9, 69, 0
1, 153834, Note_on_c, 11, 64, 0
1, 153834, Note_on_c, 11, 61, 121
1, 153850, Note_on_c, 10, 61, 0
1, 153852, Note_on_c, 10, 59, 126
1, 153874, Note_on_c, 8, 81, 0
1, 153880, Note_on_c, 4, 62, 0
1, 153880, Note_on_c, 4, 62, 63
1, 153882, Note_on_c, 4, 66, 0
1, 153882, Note_on_c, 4, 57, 0
1, 153886, Note_on_c, 4, 57, 65
1, 153892, Note_on_c, 9, 46, 106
1, 153894, Note_on_c, 4, 66, 60
1, 153896, Note_on_c, 9, 46, 0
1, 153898, Note_on_c, 11, 61, 0
1, 153900, Note_on_c, 11, 59, 126
1, 153912, Note_on_c, 10, 56, 122
1, 153916, Note_on_c, 10, 59, 0
1, 153934, Note_on_c, 4, 62, 0
1, 153940, Note_on_c, 4, 57, 0
1, 153948, Note_on_c, 4, 66, 0
1, 153960, Note_on_c, 11, 56, 122
1, 153964, Note_on_c, 11, 59, 0
1, 153976, Note_on_c, 10, 56, 0
1, 153978, Note_on_c, 9, 38, 120
1, 153982, Note_on_c, 9, 38, 0
1, 153984, Note_on_c, 8, 80, 80
1, 153988, Note_on_c, 10, 64, 121
1, 153990, Note_on_c, 9, 42, 59
1, 153994, Note_on_c, 9, 42, 0
1, 154024, Note_on_c, 11, 56, 0
1, 154036, Note_on_c, 11, 64, 121
1, 154048, Note_on_c, 1, 38, 0
1, 154072, Note_on_c, 8, 80, 0
1, 154076, Note_on_c, 10, 64, 0
1, 154084, Note_on_c, 1, 33, 111
1, 154084, Note_on_c, 9, 44, 50
1, 154088, Note_on_c, 9, 44, 0
1, 154108, Note_on_c, 10, 64, 121
1, 154124, Note_on_c, 11, 64, 0
1, 154156, Note_on_c, 11, 64, 121
1, 154164, Note_on_c, 1, 33, 0
1, 154166, Note_on_c, 8, 78, 78
1, 154170, Note_on_c, 10, 61, 127
1, 154172, Note_on_c, 10, 64, 0
1, 154174, Note_on_c, 1, 38, 116
1, 154174, Note_on_c, 5, 64, 72
1, 154176, Note_on_c, 9, 42, 59
1, 154180, Note_on_c, 9, 42, 0
1, 154182, Note_on_c, 9, 36, 109
1, 154186, Note_on_c, 9, 36, 0
1, 154218, Note_on_c, 11, 61, 127
1, 154220, Note_on_c, 11, 64, 0
1, 154234, Note_on_c, 10, 61, 0
1, 154236, Note_on_c, 10, 59, 127
1, 154250, Note_on_c, 5, 64, 0
1, 154254, Note_on_c, 8, 78, 0
1, 154266, Note_on_c, 9, 44, 54
1, 154268, Note_on_c, 5, 64, 70
1, 154270, Note_on_c, 9, 44, 0
1, 154270, Note_on_c, 9, 69, 35
1, 154272, Note_on_c, 4, 52, 99
1, 154274, Note_on_c, 9, 69, 0
1, 154276, Note_on_c, 9, 36, 102
1, 154280, Note_on_c, 9, 36, 0
1, 154282, Note_on_c, 11, 61, 0
1, 154284, Note_on_c, 11, 59, 127
1, 154300, Note_on_c, 10, 59, 0
1, 154300, Note_on_c, 10, 56, 119
1, 154344, Note_on_c, 5, 64, 0
1, 154348, Note_on_c, 11, 59, 0
1, 154348, Note_on_c, 11, 56, 119
1, 154354, Note_on_c, 1, 38, 0
1, 154356, Pitch_bend_c, 10, 7296
1, 154362, Note_on_c, 8, 76, 79
1, 154364, Note_on_c, 10, 56, 0
1, 154364, Pitch_bend_c, 10, 7360
1, 154366, Note_on_c, 10, 66, 124
1, 154368, Note_on_c, 5, 64, 64
1, 154368, Pitch_bend_c, 10, 7424
1, 154370, Note_on_c, 9, 42, 51
1, 154372, Pitch_bend_c, 10, 7488
1, 154374, Note_on_c, 9, 42, 0
1, 154376, Pitch_bend_c, 10, 7552
1, 154378, Note_on_c, 1, 38, 118
1, 154380, Pitch_bend_c, 10, 7616
1, 154384, Pitch_bend_c, 10, 7680
1, 154388, Pitch_bend_c, 10, 7744
1, 154392, Pitch_bend_c, 10, 7808
1, 154396, Pitch_bend_c, 10, 7872
1, 154400, Pitch_bend_c, 10, 7936
1, 154404, Pitch_bend_c, 10, 8000
1, 154404, Pitch_bend_c, 11, 7296
1, 154408, Pitch_bend_c, 10, 8064
1, 154412, Note_on_c, 11, 56, 0
1, 154412, Pitch_bend_c, 10, 8128
1, 154412, Pitch_bend_c, 11, 7360
1, 154414, Note_on_c, 11, 66, 124
1, 154416, Pitch_bend_c, 10, 8192
1, 154416, Pitch_bend_c, 11, 7424
1, 154420, Pitch_bend_c, 11, 7488
1, 154424, Pitch_bend_c, 11, 7552
1, 154428, Pitch_bend_c, 11, 7616
1, 154432, Pitch_bend_c, 11, 7680
1, 154436, Pitch_bend_c, 11, 7744
1, 154440, Pitch_bend_c, 11, 7808
1, 154444, Note_on_c, 5, 64, 0
1, 154444, Pitch_bend_c, 11, 7872
1, 154448, Pitch_bend_c, 11, 7936
1, 154450, Note_on_c, 8, 76, 0
1, 154452, Note_on_c, 4, 52, 0
1, 154452, Pitch_bend_c, 11, 8000
1, 154456, Pitch_bend_c, 11, 8064
1, 154458, Note_on_c, 9, 44, 51
1, 154460, Pitch_bend_c, 11, 8128
1, 154462, Note_on_c, 9, 44, 0
1, 154464, Note_on_c, 4, 52, 64
1, 154464, Note_on_c, 5, 64, 67
1, 154464, Pitch_bend_c, 11, 8192
1, 154470, Note_on_c, 9, 69, 37
1, 154474, Note_on_c, 9, 69, 0
1, 154518, Note_on_c, 4, 52, 0
1, 154540, Note_on_c, 5, 64, 0
1, 154550, Note_on_c, 8, 75, 82
1, 154558, Note_on_c, 10, 66, 0
1, 154560, Note_on_c, 9, 42, 51
1, 154560, Note_on_c, 10, 67, 126
1, 154564, Note_on_c, 9, 42, 0
1, 154566, Note_on_c, 4, 54, 97
1, 154606, Note_on_c, 11, 66, 0
1, 154608, Note_on_c, 11, 67, 126
1, 154614, Note_on_c, 10, 66, 121
1, 154624, Note_on_c, 10, 67, 0
1, 154638, Note_on_c, 8, 75, 0
1, 154662, Note_on_c, 9, 44, 56
1, 154662, Note_on_c, 11, 66, 121
1, 154666, Note_on_c, 9, 44, 0
1, 154672, Note_on_c, 11, 67, 0
1, 154678, Note_on_c, 10, 66, 0
1, 154680, Note_on_c, 10, 64, 126
1, 154720, Note_on_c, 2, 57, 0
1, 154722, Note_on_c, 2, 66, 0
1, 154726, Note_on_c, 11, 66, 0
1, 154728, Note_on_c, 2, 62, 0
1, 154728, Note_on_c, 11, 64, 126
1, 154738, Note_on_c, 1, 38, 0
1, 154744, Note_on_c, 10, 64, 0
1, 154744, Note_on_c, 2, 57, 96
1, 154744, Note_on_c, 9, 38, 122
1, 154746, Note_on_c, 4, 54, 0
1, 154748, Note_on_c, 9, 38, 0
1, 154748, Note_on_c, 2, 62, 100
1, 154748, Note_on_c, 9, 69, 32
1, 154750, Note_on_c, 9, 42, 56
1, 154752, Note_on_c, 9, 69, 0
1, 154754, Note_on_c, 9, 42, 0
1, 154754, Note_on_c, 2, 66, 98
1, 154754, Note_on_c, 4, 56, 102
1, 154754, Note_on_c, 10, 66, 120
1, 154756, Note_on_c, 5, 71, 70
1, 154760, Note_on_c, 8, 76, 76
1, 154764, Note_on_c, 1, 33, 117
1, 154792, Note_on_c, 11, 64, 0
1, 154802, Note_on_c, 11, 66, 120
1, 154818, Note_on_c, 10, 66, 0
1, 154832, Note_on_c, 5, 71, 0
1, 154848, Note_on_c, 8, 76, 0
1, 154852, Note_on_c, 9, 44, 52
1, 154852, Note_on_c, 9, 69, 34
1, 154854, Note_on_c, 1, 35, 112
1, 154854, Note_on_c, 5, 71, 64
1, 154856, Note_on_c, 9, 69, 0
1, 154856, Note_on_c, 9, 44, 0
1, 154860, Note_on_c, 1, 33, 0
1, 154866, Note_on_c, 11, 66, 0
1, 154870, Note_on_c, 10, 64, 125
1, 154918, Note_on_c, 11, 64, 125
1, 154930, Note_on_c, 5, 71, 0
1, 154934, Note_on_c, 4, 56, 0
1, 154934, Note_on_c, 10, 64, 0
1, 154934, Note_on_c, 4, 59, 100
1, 154934, Note_on_c, 5, 76, 71
1, 154936, Note_on_c, 10, 61, 123
1, 154940, Note_on_c, 8, 78, 83
1, 154942, Note_on_c, 9, 42, 52
1, 154946, Note_on_c, 9, 42, 0
1, 154946, Note_on_c, 9, 69, 35
1, 154950, Note_on_c, 9, 69, 0
1, 154950, Note_on_c, 1, 35, 0
1, 154952, Note_on_c, 1, 38, 115
1, 154982, Note_on_c, 11, 64, 0
1, 154984, Note_on_c, 11, 61, 123
1, 155000, Note_on_c, 10, 61, 0
1, 155010, Note_on_c, 5, 76, 0
1, 155028, Note_on_c, 8, 78, 0
1, 155032, Note_on_c, 1, 38, 0
1, 155034, Note_on_c, 1, 40, 109
1, 155040, Note_on_c, 9, 44, 56
1, 155044, Note_on_c, 9, 44, 0
1, 155046, Note_on_c, 5, 76, 70
1, 155046, Note_on_c, 9, 36, 116
1, 155048, Note_on_c, 11, 61, 0
1, 155050, Note_on_c, 9, 36, 0
1, 155104, Note_on_c, 2, 57, 0
1, 155108, Note_on_c, 2, 62, 0
1, 155112, Note_on_c, 6, 57, 0
1, 155114, Note_on_c, 4, 59, 0
1, 155114, Note_on_c, 2, 66, 0
1, 155114, Note_on_c, 1, 40, 0
1, 155120, Note_on_c, 6, 62, 0
1, 155122, Note_on_c, 5, 76, 0
1, 155122, Note_on_c, 6, 59, 69
1, 155124, Note_on_c, 6, 54, 0
1, 155124, Pitch_bend_c, 10, 7296
1, 155126, Note_on_c, 2, 68, 101
1, 155128, Note_on_c, 1, 28, 111
1, 155128, Note_on_c, 4, 59, 66
1, 155128, Note_on_c, 9, 42, 59
1, 155128, Note_on_c, 10, 73, 119
1, 155130, Note_on_c, 2, 59, 96
1, 155132, Note_on_c, 9, 42, 0
1, 155132, Note_on_c, 9, 69, 34
1, 155132, Pitch_bend_c, 10, 7360
1, 155134, Note_on_c, 2, 64, 96
1, 155134, Note_on_c, 6, 56, 71
1, 155136, Note_on_c, 9, 69, 0
1, 155136, Note_on_c, 6, 64, 73
1, 155136, Pitch_bend_c, 10, 7424
1, 155138, Note_on_c, 4, 64, 64
1, 155140, Pitch_bend_c, 10, 7488
1, 155142, Note_on_c, 9, 36, 119
1, 155144, Pitch_bend_c, 10, 7552
1, 155146, Note_on_c, 9, 36, 0
1, 155148, Pitch_bend_c, 10, 7616
1, 155152, Pitch_bend_c, 10, 7680
1, 155156, Pitch_bend_c, 10, 7744
1, 155160, Pitch_bend_c, 10, 7808
1, 155164, Pitch_bend_c, 10, 7872
1, 155168, Pitch_bend_c, 10, 7936
1, 155172, Pitch_bend_c, 10, 8000
1, 155172, Pitch_bend_c, 11, 7296
1, 155176, Pitch_bend_c, 10, 8064
1, 155176, Note_on_c, 11, 73, 119
1, 155180, Pitch_bend_c, 10, 8128
1, 155180, Pitch_bend_c, 11, 7360
1, 155182, Note_on_c, 4, 59, 0
1, 155184, Pitch_bend_c, 10, 8192
1, 155184, Pitch_bend_c, 11, 7424
1, 155188, Pitch_bend_c, 11, 7488
1, 155192, Note_on_c, 7, 69, 0
1, 155192, Note_on_c, 4, 64, 0
1, 155192, Pitch_bend_c, 11, 7552
1, 155196, Pitch_bend_c, 11, 7616
1, 155200, Pitch_bend_c, 11, 7680
1, 155204, Pitch_bend_c, 11, 7744
1, 155208, Note_on_c, 1, 28, 0
1, 155208, Pitch_bend_c, 11, 7808
1, 155212, Note_on_c, 7, 81, 0
1, 155212, Pitch_bend_c, 11, 7872
1, 155216, Pitch_bend_c, 11, 7936
1, 155220, Pitch_bend_c, 11, 8000
1, 155224, Note_on_c, 4, 52, 100
1, 155224, Pitch_bend_c, 11, 8064
1, 155228, Pitch_bend_c, 11, 8128
1, 155230, Note_on_c, 4, 59, 102
1, 155232, Pitch_bend_c, 11, 8192
1, 155236, Note_on_c, 9, 44, 55
1, 155236, Note_on_c, 9, 69, 38
1, 155238, Note_on_c, 1, 28, 116
1, 155238, Note_on_c, 4, 68, 101
1, 155240, Note_on_c, 9, 69, 0
1, 155240, Note_on_c, 9, 44, 0
1, 155244, Note_on_c, 10, 73, 0
1, 155264, Note_on_c, 10, 71, 126
1, 155292, Note_on_c, 11, 73, 0
1, 155312, Note_on_c, 11, 71, 126
1, 155320, Note_on_c, 10, 71, 0
1, 155326, Note_on_c, 8, 83, 78
1, 155326, Note_on_c, 9, 42, 50
1, 155328, Note_on_c, 10, 73, 125
1, 155330, Note_on_c, 9, 42, 0
1, 155330, Note_on_c, 9, 69, 29
1, 155334, Note_on_c, 9, 69, 0
1, 155368, Note_on_c, 11, 71, 0
1, 155376, Note_on_c, 11, 73, 125
1, 155404, Note_on_c, 4, 52, 0
1, 155410, Note_on_c, 4, 59, 0
1, 155414, Note_on_c, 8, 83, 0
1, 155418, Note_on_c, 4, 68, 0
1, 155424, Note_on_c, 4, 52, 63
1, 155426, Note_on_c, 9, 46, 101
1, 155428, Note_on_c, 4, 59, 68
1, 155430, Note_on_c, 9, 46, 0
1, 155430, Note_on_c, 4, 68, 59
1, 155444, Note_on_c, 10, 73, 0
1, 155460, Note_on_c, 10, 71, 127
1, 155478, Note_on_c, 4, 52, 0
1, 155482, Note_on_c, 4, 59, 0
1, 155484, Note_on_c, 4, 68, 0
1, 155492, Note_on_c, 11, 73, 0
1, 155508, Note_on_c, 7, 71, 82
1, 155508, Note_on_c, 11, 71, 127
1, 155516, Note_on_c, 9, 42, 59
1, 155520, Note_on_c, 9, 42, 0
1, 155524, Note_on_c, 8, 81, 75
1, 155526, Note_on_c, 7, 83, 81
1, 155526, Note_on_c, 9, 38, 119
1, 155530, Note_on_c, 9, 38, 0
1, 155612, Note_on_c, 8, 81, 0
1, 155620, Note_on_c, 9, 44, 50
1, 155624, Note_on_c, 9, 44, 0
1, 155696, Note_on_c, 10, 71, 0
1, 155698, Note_on_c, 1, 28, 0
1, 155706, Note_on_c, 9, 36, 105
1, 155706, Note_on_c, 9, 42, 58
1, 155710, Note_on_c, 9, 42, 0
1, 155710, Note_on_c, 9, 36, 0
1, 155714, Note_on_c, 1, 28, 118
1, 155716, Note_on_c, 8, 80, 78
1, 155718, Note_on_c, 5, 71, 67
1, 155720, Note_on_c, 10, 79, 125
1, 155744, Note_on_c, 11, 71, 0
1, 155768, Note_on_c, 11, 79, 125
1, 155794, Note_on_c, 1, 28, 0
1, 155794, Note_on_c, 5, 71, 0
1, 155796, Note_on_c, 1, 28, 118
1, 155800, Note_on_c, 9, 69, 38
1, 155804, Note_on_c, 9, 69, 0
1, 155804, Note_on_c, 8, 80, 0
1, 155804, Note_on_c, 10, 78, 127
1, 155808, Note_on_c, 10, 79, 0
1, 155808, Control_c, 10, 1, 28
1, 155810, Note_on_c, 9, 36, 101
1, 155812, Note_on_c, 5, 71, 69
1, 155814, Note_on_c, 9, 36, 0
1, 155814, Note_on_c, 9, 44, 54
1, 155818, Note_on_c, 9, 44, 0
1, 155852, Note_on_c, 11, 78, 127
1, 155856, Note_on_c, 11, 79, 0
1, 155856, Control_c, 11, 1, 28
1, 155868, Note_on_c, 7, 71, 0
1, 155876, Note_on_c, 1, 28, 0
1, 155886, Note_on_c, 7, 83, 0
1, 155888, Note_on_c, 5, 71, 0
1, 155890, Note_on_c, 7, 81, 74
1, 155902, Note_on_c, 5, 71, 67
1, 155906, Note_on_c, 1, 40, 115
1, 155906, Note_on_c, 7, 69, 77
1, 155906, Note_on_c, 9, 42, 55
1, 155907, Control_c, 10, 1, 70
1, 155910, Note_on_c, 9, 42, 0
1, 155910, Note_on_c, 8, 78, 77
1, 155955, Control_c, 11, 1, 70
1, 155978, Note_on_c, 5, 71, 0
1, 155986, Note_on_c, 1, 40, 0
1, 155992, Note_on_c, 9, 69, 33
1, 155996, Note_on_c, 9, 69, 0
1, 155996, Note_on_c, 5, 71, 72
1, 155998, Note_on_c, 8, 78, 0
1, 156000, Note_on_c, 9, 44, 54
1, 156004, Note_on_c, 9, 44, 0
1, 156008, Note_on_c, 1, 40, 115
1, 156024, Control_c, 10, 1, 55
1, 156072, Note_on_c, 5, 71, 0
1, 156072, Control_c, 11, 1, 55
1, 156090, Note_on_c, 9, 42, 54
1, 156092, Note_on_c, 8, 76, 83
1, 156094, Note_on_c, 9, 42, 0
1, 156111, Control_c, 10, 1, 37
1, 156159, Control_c, 11, 1, 37
1, 156180, Note_on_c, 8, 76, 0
1, 156182, Note_on_c, 1, 35, 114
1, 156186, Note_on_c, 4, 52, 65
1, 156188, Note_on_c, 1, 40, 0
1, 156190, Note_on_c, 4, 68, 68
1, 156190, Note_on_c, 9, 44, 50
1, 156194, Note_on_c, 9, 44, 0
1, 156196, Note_on_c, 4, 59, 63
1, 156196, Note_on_c, 5, 64, 72
1, 156240, Note_on_c, 4, 52, 0
1, 156244, Note_on_c, 4, 68, 0
1, 156250, Note_on_c, 7, 81, 0
1, 156250, Note_on_c, 4, 59, 0
1, 156262, Note_on_c, 1, 35, 0
1, 156266, Note_on_c, 7, 69, 0
1, 156272, Note_on_c, 5, 64, 0
1, 156278, Note_on_c, 1, 28, 118
1, 156279, Control_c, 10, 1, 15
1, 156282, Note_on_c, 10, 76, 124
1, 156284, Note_on_c, 10, 78, 0
1, 156284, Note_on_c, 7, 80, 74
1, 156284, Note_on_c, 9, 69, 38
1, 156288, Note_on_c, 9, 69, 0
1, 156288, Note_on_c, 9, 38, 121
1, 156288, Note_on_c, 9, 42, 54
1, 156290, Note_on_c, 8, 78, 77
1, 156292, Note_on_c, 9, 42, 0
1, 156292, Note_on_c, 9, 38, 0
1, 156296, Note_on_c, 7, 68, 81
1, 156327, Control_c, 11, 1, 15
1, 156330, Note_on_c, 11, 76, 124
1, 156332, Note_on_c, 11, 78, 0
1, 156358, Note_on_c, 1, 28, 0
1, 156378, Note_on_c, 8, 78, 0
1, 156384, Note_on_c, 9, 44, 53
1, 156388, Note_on_c, 9, 44, 0
1, 156388, Note_on_c, 9, 69, 38
1, 156392, Note_on_c, 9, 69, 0
1, 156396, Note_on_c, 1, 28, 112
1, 156474, Note_on_c, 8, 80, 82
1, 156482, Note_on_c, 9, 42, 55
1, 156486, Note_on_c, 9, 42, 0
1, 156486, Note_on_c, 9, 69, 34
1, 156490, Note_on_c, 9, 69, 0
1, 156562, Note_on_c, 8, 80, 0
1, 156570, Note_on_c, 10, 76, 0
1, 156574, Note_on_c, 1, 35, 116
1, 156576, Note_on_c, 1, 28, 0
1, 156576, Note_on_c, 9, 44, 59
1, 156578, Note_on_c, 9, 36, 125
1, 156580, Note_on_c, 9, 44, 0
1, 156582, Note_on_c, 9, 36, 0
1, 156618, Note_on_c, 11, 76, 0
1, 156638, Note_on_c, 2, 68, 0
1, 156642, Note_on_c, 2, 59, 0
1, 156644, Note_on_c, 7, 80, 0
1, 156646, Note_on_c, 2, 64, 0
1, 156654, Note_on_c, 1, 35, 0
1, 156656, Note_on_c, 7, 68, 0
1, 156662, Note_on_c, 1, 37, 113
1, 156664, Note_on_c, 7, 78, 78
1, 156664, Note_on_c, 9, 36, 125
1, 156666, Note_on_c, 2, 59, 101
1, 156666, Note_on_c, 4, 64, 61
1, 156668, Note_on_c, 9, 36, 0
1, 156670, Note_on_c, 2, 68, 99
1, 156670, Note_on_c, 9, 69, 31
1, 156672, Note_on_c, 10, 67, 121
1, 156674, Note_on_c, 9, 69, 0
1, 156674, Note_on_c, 2, 64, 99
1, 156676, Note_on_c, 4, 59, 68
1, 156678, Note_on_c, 9, 42, 52
1, 156682, Note_on_c, 9, 42, 0
1, 156684, Note_on_c, 7, 66, 79
1, 156720, Note_on_c, 4, 64, 0
1, 156720, Note_on_c, 11, 67, 121
1, 156730, Note_on_c, 4, 59, 0
1, 156736, Note_on_c, 10, 67, 0
1, 156742, Note_on_c, 10, 66, 127
1, 156760, Note_on_c, 9, 69, 38
1, 156762, Note_on_c, 4, 59, 102
1, 156764, Note_on_c, 9, 69, 0
1, 156764, Note_on_c, 9, 44, 54
1, 156766, Note_on_c, 4, 64, 100
1, 156768, Note_on_c, 9, 44, 0
1, 156770, Note_on_c, 4, 68, 97
1, 156784, Note_on_c, 11, 67, 0
1, 156790, Note_on_c, 11, 66, 127
1, 156804, Note_on_c, 10, 64, 121
1, 156806, Note_on_c, 10, 66, 0
1, 156852, Note_on_c, 11, 64, 121
1, 156854, Note_on_c, 11, 66, 0
1, 156858, Note_on_c, 8, 83, 80
1, 156866, Note_on_c, 9, 42, 57
1, 156868, Note_on_c, 10, 64, 0
1, 156868, Note_on_c, 9, 69, 33
1, 156868, Note_on_c, 10, 61, 125
1, 156870, Note_on_c, 9, 42, 0
1, 156872, Note_on_c, 9, 69, 0
1, 156916, Note_on_c, 11, 64, 0
1, 156916, Note_on_c, 11, 61, 125
1, 156942, Note_on_c, 4, 59, 0
1, 156946, Note_on_c, 8, 83, 0
1, 156946, Note_on_c, 4, 64, 0
1, 156950, Note_on_c, 4, 68, 0
1, 156950, Note_on_c, 4, 64, 64
1, 156954, Note_on_c, 4, 68, 64
1, 156954, Note_on_c, 9, 46, 103
1, 156956, Note_on_c, 10, 61, 0
1, 156958, Note_on_c, 9, 46, 0
1, 156960, Note_on_c, 4, 59, 61
1, 157004, Note_on_c, 11, 61, 0
1, 157004, Note_on_c, 4, 64, 0
1, 157008, Note_on_c, 4, 68, 0
1, 157014, Note_on_c, 4, 59, 0
1, 157024, Note_on_c, 7, 78, 0
1, 157042, Note_on_c, 7, 76, 82
1, 157044, Note_on_c, 7, 66, 0
1, 157044, Pitch_bend_c, 10, 7296
1, 157052, Note_on_c, 7, 64, 74
1, 157052, Pitch_bend_c, 10, 7360
1, 157052, Note_on_c, 10, 64, 121
1, 157054, Note_on_c, 9, 38, 122
1, 157054, Note_on_c, 9, 42, 55
1, 157056, Note_on_c, 8, 81, 79
1, 157056, Pitch_bend_c, 10, 7424
1, 157058, Note_on_c, 9, 42, 0
1, 157058, Note_on_c, 9, 38, 0
1, 157060, Pitch_bend_c, 10, 7488
1, 157064, Pitch_bend_c, 10, 7552
1, 157068, Pitch_bend_c, 10, 7616
1, 157072, Pitch_bend_c, 10, 7680
1, 157076, Pitch_bend_c, 10, 7744
1, 157080, Pitch_bend_c, 10, 7808
1, 157084, Pitch_bend_c, 10, 7872
1, 157088, Pitch_bend_c, 10, 7936
1, 157092, Pitch_bend_c, 10, 8000
1, 157092, Pitch_bend_c, 11, 7296
1, 157096, Pitch_bend_c, 10, 8064
1, 157100, Pitch_bend_c, 10, 8128
1, 157100, Pitch_bend_c, 11, 7360
1, 157100, Note_on_c, 11, 64, 121
1, 157104, Pitch_bend_c, 10, 8192
1, 157104, Pitch_bend_c, 11, 7424
1, 157108, Pitch_bend_c, 11, 7488
1, 157112, Pitch_bend_c, 11, 7552
1, 157116, Pitch_bend_c, 11, 7616
1, 157120, Pitch_bend_c, 11, 7680
1, 157122, Note_on_c, 1, 37, 0
1, 157124, Pitch_bend_c, 11, 7744
1, 157128, Pitch_bend_c, 11, 7808
1, 157132, Pitch_bend_c, 11, 7872
1, 157136, Pitch_bend_c, 11, 7936
1, 157140, Pitch_bend_c, 11, 8000
1, 157144, Note_on_c, 8, 81, 0
1, 157144, Pitch_bend_c, 11, 8064
1, 157148, Pitch_bend_c, 11, 8128
1, 157150, Note_on_c, 9, 44, 50
1, 157152, Note_on_c, 1, 32, 117
1, 157152, Pitch_bend_c, 11, 8192
1, 157154, Note_on_c, 9, 44, 0
1, 157232, Note_on_c, 1, 32, 0
1, 157244, Note_on_c, 10, 64, 0
1, 157244, Note_on_c, 5, 71, 69
1, 157252, Note_on_c, 9, 36, 108
1, 157252, Note_on_c, 9, 42, 54
1, 157256, Note_on_c, 9, 42, 0
1, 157256, Note_on_c, 9, 36, 0
1, 157256, Note_on_c, 8, 80, 81
1, 157258, Note_on_c, 1, 37, 112
1, 157292, Note_on_c, 11, 64, 0
1, 157320, Note_on_c, 5, 71, 0
1, 157336, Note_on_c, 9, 36, 110
1, 157338, Note_on_c, 5, 71, 66
1, 157338, Note_on_c, 9, 44, 53
1, 157338, Note_on_c, 9, 69, 38
1, 157340, Note_on_c, 9, 36, 0
1, 157342, Note_on_c, 9, 69, 0
1, 157342, Note_on_c, 9, 44, 0
1, 157344, Note_on_c, 8, 80, 0
1, 157402, Note_on_c, 7, 76, 0
1, 157412, Note_on_c, 7, 64, 0
1, 157414, Note_on_c, 5, 71, 0
1, 157432, Note_on_c, 5, 71, 73
1, 157436, Note_on_c, 9, 42, 53
1, 157438, Note_on_c, 1, 37, 0
1, 157440, Note_on_c, 9, 42, 0
1, 157442, Note_on_c, 8, 78, 80
1, 157446, Note_on_c, 1, 37, 109
1, 157448, Note_on_c, 7, 66, 82
1, 157452, Note_on_c, 7, 78, 83
1, 157508, Note_on_c, 5, 71, 0
1, 157530, Note_on_c, 8, 78, 0
1, 157530, Note_on_c, 9, 69, 34
1, 157532, Note_on_c, 5, 71, 65
1, 157534, Note_on_c, 9, 69, 0
1, 157536, Note_on_c, 9, 44, 51
1, 157540, Note_on_c, 9, 44, 0
1, 157608, Note_on_c, 5, 71, 0
1, 157622, Note_on_c, 4, 64, 97
1, 157624, Note_on_c, 4, 68, 66
1, 157630, Note_on_c, 8, 76, 81
1, 157630, Note_on_c, 10, 64, 125
1, 157638, Note_on_c, 9, 42, 53
1, 157642, Note_on_c, 9, 42, 0
1, 157678, Note_on_c, 4, 68, 0
1, 157678, Note_on_c, 11, 64, 125
1, 157706, Note_on_c, 1, 37, 0
1, 157718, Note_on_c, 8, 76, 0
1, 157726, Note_on_c, 1, 37, 118
1, 157732, Note_on_c, 4, 69, 64
1, 157732, Note_on_c, 9, 44, 56
1, 157736, Note_on_c, 9, 44, 0
1, 157738, Note_on_c, 10, 64, 0
1, 157762, Note_on_c, 10, 64, 121
1, 157786, Note_on_c, 11, 64, 0
1, 157786, Note_on_c, 4, 69, 0
1, 157806, Note_on_c, 1, 37, 0
1, 157808, Note_on_c, 7, 66, 0
1, 157810, Note_on_c, 11, 64, 121
1, 157812, Note_on_c, 7, 78, 0
1, 157814, Note_on_c, 7, 68, 81
1, 157814, Note_on_c, 7, 80, 83
1, 157818, Note_on_c, 8, 78, 74
1, 157820, Note_on_c, 1, 35, 112
1, 157822, Note_on_c, 9, 42, 58
1, 157826, Note_on_c, 9, 42, 0
1, 157826, Note_on_c, 10, 64, 0
1, 157826, Note_on_c, 9, 38, 125
1, 157826, Note_on_c, 9, 69, 38
1, 157826, Note_on_c, 10, 66, 119
1, 157830, Note_on_c, 9, 69, 0
1, 157830, Note_on_c, 9, 38, 0
1, 157832, Note_on_c, 4, 68, 99
1, 157874, Note_on_c, 11, 64, 0
1, 157874, Note_on_c, 11, 66, 119
1, 157906, Note_on_c, 8, 78, 0
1, 157914, Note_on_c, 10, 66, 0
1, 157916, Note_on_c, 9, 44, 57
1, 157920, Note_on_c, 9, 44, 0
1, 157920, Pitch_bend_c, 10, 7296
1, 157920, Note_on_c, 10, 68, 122
1, 157926, Note_on_c, 9, 69, 37
1, 157928, Pitch_bend_c, 10, 7360
1, 157930, Note_on_c, 9, 69, 0
1, 157932, Pitch_bend_c, 10, 7424
1, 157936, Pitch_bend_c, 10, 7488
1, 157940, Pitch_bend_c, 10, 7552
1, 157944, Pitch_bend_c, 10, 7616
1, 157948, Pitch_bend_c, 10, 7680
1, 157952, Pitch_bend_c, 10, 7744
1, 157956, Pitch_bend_c, 10, 7808
1, 157960, Pitch_bend_c, 10, 7872
1, 157962, Note_on_c, 11, 66, 0
1, 157964, Pitch_bend_c, 10, 7936
1, 157968, Pitch_bend_c, 10, 8000
1, 157968, Pitch_bend_c, 11, 7296
1, 157968, Note_on_c, 11, 68, 122
1, 157972, Pitch_bend_c, 10, 8064
1, 157976, Pitch_bend_c, 10, 8128
1, 157976, Pitch_bend_c, 11, 7360
1, 157980, Pitch_bend_c, 10, 8192
1, 157980, Pitch_bend_c, 11, 7424
1, 157984, Pitch_bend_c, 11, 7488
1, 157988, Pitch_bend_c, 11, 7552
1, 157992, Pitch_bend_c, 11, 7616
1, 157996, Pitch_bend_c, 11, 7680
1, 158000, Note_on_c, 1, 35, 0
1, 158000, Pitch_bend_c, 11, 7744
1, 158002, Note_on_c, 1, 37, 116
1, 158004, Pitch_bend_c, 11, 7808
1, 158008, Note_on_c, 9, 69, 37
1, 158008, Pitch_bend_c, 11, 7872
1, 158010, Note_on_c, 8, 80, 83
1, 158012, Note_on_c, 9, 69, 0
1, 158012, Pitch_bend_c, 11, 7936
1, 158016, Pitch_bend_c, 11, 8000
1, 158020, Pitch_bend_c, 11, 8064
1, 158022, Note_on_c, 9, 42, 50
1, 158024, Pitch_bend_c, 11, 8128
1, 158026, Note_on_c, 9, 42, 0
1, 158028, Pitch_bend_c, 11, 8192
1, 158098, Note_on_c, 8, 80, 0
1, 158110, Note_on_c, 9, 36, 122
1, 158112, Note_on_c, 10, 68, 0
1, 158112, Note_on_c, 9, 44, 52
1, 158114, Note_on_c, 9, 36, 0
1, 158116, Note_on_c, 9, 44, 0
1, 158160, Note_on_c, 11, 68, 0
1, 158174, Note_on_c, 7, 80, 0
1, 158174, Note_on_c, 7, 68, 0
1, 158178, Note_on_c, 2, 59, 0
1, 158182, Note_on_c, 2, 68, 0
1, 158182, Note_on_c, 4, 64, 0
1, 158182, Note_on_c, 6, 59, 0
1, 158182, Note_on_c, 1, 37, 0
1, 158186, Note_on_c, 2, 64, 0
1, 158192, Note_on_c, 4, 68, 0
1, 158194, Note_on_c, 6, 56, 0
1, 158194, Note_on_c, 7, 81, 76
1, 158196, Note_on_c, 6, 64, 0
1, 158196, Note_on_c, 6, 62, 72
1, 158200, Note_on_c, 4, 57, 61
1, 158200, Note_on_c, 6, 54, 72
1, 158200, Note_on_c, 9, 69, 31
1, 158204, Note_on_c, 9, 69, 0
1, 158204, Note_on_c, 4, 62, 59
1, 158204, Note_on_c, 6, 57, 64
1, 158204, Note_on_c, 9, 42, 57
1, 158208, Note_on_c, 9, 42, 0
1, 158208, Note_on_c, 2, 66, 98
1, 158210, Note_on_c, 2, 57, 102
1, 158210, Note_on_c, 2, 62, 101
1, 158212, Note_on_c, 1, 38, 113
1, 158212, Note_on_c, 7, 69, 80
1, 158214, Note_on_c, 9, 36, 116
1, 158216, Note_on_c, 10, 69, 123
1, 158218, Note_on_c, 9, 36, 0
1, 158254, Note_on_c, 4, 57, 0
1, 158258, Note_on_c, 4, 62, 0
1, 158264, Note_on_c, 11, 69, 123
1, 158296, Note_on_c, 9, 69, 38
1, 158300, Note_on_c, 9, 69, 0
1, 158300, Note_on_c, 9, 44, 51
1, 158302, Note_on_c, 4, 57, 97
1, 158304, Note_on_c, 9, 44, 0
1, 158304, Note_on_c, 10, 69, 0
1, 158304, Note_on_c, 4, 62, 101
1, 158308, Note_on_c, 4, 66, 103
1, 158332, Note_on_c, 10, 69, 121
1, 158352, Note_on_c, 11, 69, 0
1, 158380, Note_on_c, 11, 69, 121
1, 158394, Note_on_c, 8, 81, 81
1, 158396, Note_on_c, 9, 42, 59
1, 158398, Note_on_c, 9, 69, 32
1, 158398, Note_on_c, 10, 70, 124
1, 158400, Note_on_c, 9, 42, 0
1, 158402, Note_on_c, 9, 69, 0
1, 158408, Note_on_c, 10, 69, 0
1, 158446, Note_on_c, 11, 70, 124
1, 158456, Note_on_c, 11, 69, 0
1, 158482, Note_on_c, 8, 81, 0
1, 158482, Note_on_c, 4, 57, 0
1, 158484, Note_on_c, 4, 62, 0
1, 158488, Note_on_c, 4, 66, 0
1, 158492, Note_on_c, 4, 66, 59
1, 158494, Note_on_c, 4, 57, 63
1, 158496, Note_on_c, 4, 62, 66
1, 158496, Note_on_c, 9, 46, 109
1, 158500, Note_on_c, 9, 46, 0
1, 158510, Note_on_c, 10, 70, 0
1, 158510, Note_on_c, 10, 70, 120
1, 158546, Note_on_c, 4, 66, 0
1, 158548, Note_on_c, 4, 57, 0
1, 158550, Note_on_c, 4, 62, 0
1, 158558, Note_on_c, 11, 70, 0
1, 158558, Note_on_c, 11, 70, 120
1, 158578, Note_on_c, 10, 70, 0
1, 158584, Note_on_c, 9, 42, 57
1, 158588, Note_on_c, 9, 42, 0
1, 158588, Note_on_c, 8, 80, 82
1, 158588, Note_on_c, 10, 71, 120
1, 158598, Note_on_c, 9, 38, 124
1, 158602, Note_on_c, 9, 38, 0
1, 158626, Note_on_c, 11, 70, 0
1, 158636, Note_on_c, 11, 71, 120
1, 158648, Note_on_c, 10, 71, 0
1, 158676, Note_on_c, 8, 80, 0
1, 158682, Note_on_c, 9, 44, 58
1, 158686, Note_on_c, 9, 44, 0
1, 158696, Note_on_c, 11, 71, 0
1, 158704, Note_on_c, 10, 67, 123
1, 158752, Note_on_c, 1, 38, 0
1, 158752, Note_on_c, 11, 67, 123
1, 158772, Note_on_c, 1, 38, 114
1, 158774, Note_on_c, 10, 66, 121
1, 158783, Note_on_c, 10, 67, 0
1, 158784, Note_on_c, 9, 36, 107
1, 158784, Note_on_c, 9, 42, 50
1, 158786, Note_on_c, 5, 74, 65
1, 158788, Note_on_c, 9, 42, 0
1, 158788, Note_on_c, 9, 36, 0
1, 158790, Note_on_c, 8, 78, 82
1, 158822, Note_on_c, 11, 66, 121
1, 158831, Note_on_c, 11, 67, 0
1, 158862, Note_on_c, 5, 74, 0
1, 158872, Note_on_c, 5, 74, 69
1, 158878, Note_on_c, 8, 78, 0
1, 158878, Note_on_c, 9, 36, 102
1, 158880, Note_on_c, 10, 66, 0
1, 158880, Note_on_c, 9, 44, 52
1, 158882, Note_on_c, 9, 36, 0
1, 158884, Note_on_c, 9, 44, 0
1, 158886, Note_on_c, 9, 69, 32
1, 158888, Note_on_c, 10, 61, 124
1, 158890, Note_on_c, 9, 69, 0
1, 158928, Note_on_c, 11, 66, 0
1, 158936, Note_on_c, 11, 61, 124
1, 158948, Note_on_c, 5, 74, 0
1, 158952, Note_on_c, 1, 38, 0
1, 158972, Note_on_c, 1, 38, 115
1, 158976, Note_on_c, 5, 69, 70
1, 158976, Control_c, 10, 1, 28
1, 158976, Pitch_bend_c, 10, 7296
1, 158979, Note_on_c, 10, 61, 0
1, 158980, Note_on_c, 8, 76, 78
1, 158980, Note_on_c, 9, 42, 59
1, 158982, Note_on_c, 10, 64, 122
1, 158984, Note_on_c, 9, 42, 0
1, 158984, Pitch_bend_c, 10, 7360
1, 158988, Pitch_bend_c, 10, 7424
1, 158992, Pitch_bend_c, 10, 7488
1, 158996, Pitch_bend_c, 10, 7552
1, 159000, Pitch_bend_c, 10, 7616
1, 159004, Pitch_bend_c, 10, 7680
1, 159008, Pitch_bend_c, 10, 7744
1, 159012, Pitch_bend_c, 10, 7808
1, 159016, Pitch_bend_c, 10, 7872
1, 159020, Pitch_bend_c, 10, 7936
1, 159024, Pitch_bend_c, 10, 8000
1, 159024, Control_c, 11, 1, 28
1, 159024, Pitch_bend_c, 11, 7296
1, 159027, Note_on_c, 11, 61, 0
1, 159028, Pitch_bend_c, 10, 8064
1, 159030, Note_on_c, 11, 64, 122
1, 159032, Pitch_bend_c, 10, 8128
1, 159032, Pitch_bend_c, 11, 7360
1, 159036, Pitch_bend_c, 10, 8192
1, 159036, Pitch_bend_c, 11, 7424
1, 159040, Pitch_bend_c, 11, 7488
1, 159044, Pitch_bend_c, 11, 7552
1, 159048, Pitch_bend_c, 11, 7616
1, 159052, Note_on_c, 5, 69, 0
1, 159052, Pitch_bend_c, 11, 7680
1, 159056, Pitch_bend_c, 11, 7744
1, 159060, Pitch_bend_c, 11, 7808
1, 159064, Pitch_bend_c, 11, 7872
1, 159068, Note_on_c, 8, 76, 0
1, 159068, Pitch_bend_c, 11, 7936
1, 159070, Note_on_c, 5, 71, 65
1, 159072, Note_on_c, 9, 69, 34
1, 159072, Pitch_bend_c, 11, 8000
1, 159075, Control_c, 10, 1, 70
1, 159076, Note_on_c, 9, 69, 0
1, 159076, Note_on_c, 9, 44, 53
1, 159076, Pitch_bend_c, 11, 8064
1, 159080, Note_on_c, 9, 44, 0
1, 159080, Pitch_bend_c, 11, 8128
1, 159084, Pitch_bend_c, 11, 8192
1, 159123, Control_c, 11, 1, 70
1, 159146, Note_on_c, 5, 71, 0
1, 159164, Note_on_c, 9, 42, 59
1, 159166, Note_on_c, 5, 71, 71
1, 159168, Note_on_c, 9, 42, 0
1, 159174, Note_on_c, 8, 75, 81
1, 159192, Control_c, 10, 1, 55
1, 159232, Note_on_c, 1, 38, 0
1, 159240, Control_c, 11, 1, 55
1, 159242, Note_on_c, 5, 71, 0
1, 159260, Note_on_c, 4, 69, 95
1, 159262, Note_on_c, 8, 75, 0
1, 159262, Note_on_c, 4, 66, 97
1, 159266, Note_on_c, 4, 73, 96
1, 159266, Note_on_c, 9, 44, 56
1, 159270, Note_on_c, 9, 44, 0
1, 159274, Note_on_c, 1, 38, 110
1, 159279, Control_c, 10, 1, 37
1, 159327, Control_c, 11, 1, 37
1, 159354, Note_on_c, 1, 38, 0
1, 159354, Note_on_c, 8, 76, 83
1, 159356, Note_on_c, 9, 42, 57
1, 159360, Note_on_c, 9, 42, 0
1, 159362, Note_on_c, 1, 35, 114
1, 159364, Note_on_c, 9, 69, 30
1, 159366, Note_on_c, 10, 64, 0
1, 159366, Note_on_c, 9, 38, 119
1, 159368, Note_on_c, 9, 69, 0
1, 159368, Note_on_c, 5, 64, 69
1, 159370, Note_on_c, 9, 38, 0
1, 159414, Note_on_c, 11, 64, 0
1, 159440, Note_on_c, 4, 69, 0
1, 159442, Note_on_c, 4, 66, 0
1, 159442, Note_on_c, 8, 76, 0
1, 159444, Note_on_c, 5, 64, 0
1, 159446, Note_on_c, 4, 73, 0
1, 159447, Control_c, 10, 1, 15
1, 159452, Note_on_c, 1, 35, 0
1, 159452, Note_on_c, 1, 35, 115
1, 159452, Note_on_c, 9, 69, 33
1, 159456, Note_on_c, 9, 69, 0
1, 159456, Note_on_c, 9, 44, 54
1, 159458, Note_on_c, 5, 64, 72
1, 159460, Note_on_c, 9, 44, 0
1, 159495, Control_c, 11, 1, 15
1, 159534, Note_on_c, 5, 64, 0
1, 159542, Note_on_c, 5, 64, 72
1, 159542, Note_on_c, 10, 79, 120
1, 159544, Note_on_c, 9, 69, 36
1, 159548, Note_on_c, 9, 69, 0
1, 159548, Note_on_c, 1, 35, 0
1, 159548, Note_on_c, 1, 38, 110
1, 159554, Note_on_c, 8, 78, 78
1, 159556, Note_on_c, 9, 42, 57
1, 159560, Note_on_c, 9, 42, 0
1, 159590, Note_on_c, 11, 79, 120
1, 159618, Note_on_c, 5, 64, 0
1, 159628, Note_on_c, 1, 38, 0
1, 159630, Note_on_c, 10, 79, 0
1, 159642, Note_on_c, 8, 78, 0
1, 159648, Note_on_c, 9, 36, 116
1, 159650, Note_on_c, 1, 40, 118
1, 159652, Note_on_c, 9, 36, 0
1, 159652, Note_on_c, 9, 44, 51
1, 159654, Note_on_c, 10, 78, 121
1, 159656, Note_on_c, 9, 44, 0
1, 159678, Note_on_c, 11, 79, 0
1, 159702, Note_on_c, 11, 78, 121
1, 159720, Note_on_c, 2, 66, 0
1, 159722, Note_on_c, 2, 62, 0
1, 159722, Note_on_c, 2, 57, 0
1, 159730, Note_on_c, 1, 40, 0
1, 159734, Note_on_c, 4, 57, 64
1, 159736, Note_on_c, 2, 59, 100
1, 159740, Note_on_c, 1, 42, 115
1, 159740, Note_on_c, 4, 62, 63
1, 159740, Note_on_c, 9, 36, 123
1, 159742, Note_on_c, 10, 78, 0
1, 159744, Note_on_c, 9, 36, 0
1, 159744, Control_c, 10, 1, 28
1, 159744, Pitch_bend_c, 10, 7360
1, 159746, Note_on_c, 2, 66, 97
1, 159746, Note_on_c, 9, 42, 55
1, 159746, Note_on_c, 10, 76, 122
1, 159748, Note_on_c, 2, 64, 101
1, 159748, Note_on_c, 9, 69, 33
1, 159750, Note_on_c, 9, 42, 0
1, 159752, Note_on_c, 9, 69, 0
1, 159754, Pitch_bend_c, 10, 7296
1, 159764, Pitch_bend_c, 10, 7424
1, 159774, Pitch_bend_c, 10, 7488
1, 159784, Pitch_bend_c, 10, 7552
1, 159788, Note_on_c, 4, 57, 0
1, 159790, Note_on_c, 11, 78, 0
1, 159792, Control_c, 11, 1, 28
1, 159792, Pitch_bend_c, 11, 7360
1, 159794, Note_on_c, 4, 62, 0
1, 159794, Pitch_bend_c, 10, 7616
1, 159794, Note_on_c, 11, 76, 122
1, 159802, Pitch_bend_c, 11, 7296
1, 159804, Pitch_bend_c, 10, 7680
1, 159812, Pitch_bend_c, 11, 7424
1, 159814, Pitch_bend_c, 10, 7744
1, 159822, Pitch_bend_c, 11, 7488
1, 159824, Pitch_bend_c, 10, 7808
1, 159832, Pitch_bend_c, 11, 7552
1, 159834, Note_on_c, 4, 57, 98
1, 159834, Note_on_c, 4, 66, 97
1, 159834, Note_on_c, 9, 69, 35
1, 159834, Pitch_bend_c, 10, 7872
1, 159838, Note_on_c, 9, 69, 0
1, 159840, Note_on_c, 4, 62, 95
1, 159840, Note_on_c, 9, 44, 54
1, 159842, Pitch_bend_c, 11, 7616
1, 159843, Control_c, 10, 1, 70
1, 159844, Note_on_c, 9, 44, 0
1, 159844, Pitch_bend_c, 10, 7936
1, 159852, Pitch_bend_c, 11, 7680
1, 159854, Pitch_bend_c, 10, 8000
1, 159862, Pitch_bend_c, 11, 7744
1, 159864, Pitch_bend_c, 10, 8064
1, 159872, Pitch_bend_c, 11, 7808
1, 159874, Pitch_bend_c, 10, 8128
1, 159882, Pitch_bend_c, 11, 7872
1, 159884, Pitch_bend_c, 10, 8192
1, 159891, Control_c, 11, 1, 70
1, 159892, Pitch_bend_c, 11, 7936
1, 159902, Pitch_bend_c, 11, 8000
1, 159912, Pitch_bend_c, 11, 8064
1, 159922, Pitch_bend_c, 11, 8128
1, 159930, Note_on_c, 9, 69, 29
1, 159932, Pitch_bend_c, 11, 8192
1, 159934, Note_on_c, 9, 69, 0
1, 159934, Note_on_c, 8, 81, 82
1, 159936, Note_on_c, 9, 42, 55
1, 159940, Note_on_c, 9, 42, 0
1, 159960, Control_c, 10, 1, 55
1, 160000, Note_on_c, 1, 42, 0
1, 160008, Control_c, 11, 1, 55
1, 160014, Note_on_c, 4, 57, 0
1, 160014, Note_on_c, 4, 66, 0
1, 160020, Note_on_c, 4, 62, 0
1, 160022, Note_on_c, 8, 81, 0
1, 160024, Note_on_c, 9, 46, 106
1, 160026, Note_on_c, 9, 69, 31
1, 160028, Note_on_c, 9, 46, 0
1, 160030, Note_on_c, 9, 69, 0
1, 160036, Note_on_c, 1, 30, 114
1, 160036, Note_on_c, 4, 62, 63
1, 160036, Note_on_c, 4, 66, 66
1, 160038, Note_on_c, 4, 57, 66
1, 160047, Control_c, 10, 1, 37
1, 160090, Note_on_c, 4, 66, 0
1, 160090, Note_on_c, 4, 62, 0
1, 160092, Note_on_c, 4, 57, 0
1, 160095, Control_c, 11, 1, 37
1, 160116, Note_on_c, 1, 30, 0
1, 160122, Note_on_c, 9, 38, 116
1, 160126, Note_on_c, 9, 38, 0
1, 160134, Note_on_c, 9, 42, 52
1, 160134, Note_on_c, 9, 69, 36
1, 160136, Note_on_c, 8, 80, 74
1, 160138, Note_on_c, 9, 69, 0
1, 160138, Note_on_c, 9, 42, 0
1, 160138, Note_on_c, 1, 37, 116
1, 160215, Control_c, 10, 1, 15
1, 160216, Note_on_c, 9, 69, 31
1, 160218, Note_on_c, 10, 71, 122
1, 160220, Note_on_c, 9, 69, 0
1, 160224, Note_on_c, 8, 80, 0
1, 160226, Note_on_c, 10, 76, 0
1, 160228, Note_on_c, 9, 44, 55
1, 160232, Note_on_c, 9, 44, 0
1, 160263, Control_c, 11, 1, 15
1, 160266, Note_on_c, 11, 71, 122
1, 160274, Note_on_c, 11, 76, 0
1, 160276, Note_on_c, 2, 59, 0
1, 160286, Note_on_c, 2, 66, 0
1, 160288, Note_on_c, 2, 64, 0
1, 160306, Note_on_c, 10, 71, 0
1, 160312, Note_on_c, 2, 66, 95
1, 160312, Note_on_c, 8, 78, 82
1, 160312, Note_on_c, 9, 69, 32
1, 160316, Note_on_c, 9, 69, 0
1, 160316, Note_on_c, 2, 61, 96
1, 160326, Note_on_c, 9, 42, 56
1, 160328, Note_on_c, 2, 57, 98
1, 160330, Note_on_c, 9, 42, 0
1, 160354, Note_on_c, 11, 71, 0
1, 160398, Note_on_c, 1, 37, 0
1, 160400, Note_on_c, 8, 78, 0
1, 160408, Note_on_c, 9, 69, 36
1, 160410, Note_on_c, 10, 71, 119
1, 160412, Note_on_c, 9, 69, 0
1, 160414, Note_on_c, 9, 44, 59
1, 160418, Note_on_c, 9, 44, 0
1, 160424, Note_on_c, 1, 30, 111
1, 160458, Note_on_c, 11, 71, 119
1, 160498, Note_on_c, 10, 71, 0
1, 160504, Note_on_c, 1, 30, 0
1, 160506, Note_on_c, 10, 73, 124
1, 160508, Note_on_c, 8, 76, 78
1, 160508, Note_on_c, 9, 36, 116
1, 160512, Note_on_c, 9, 36, 0
1, 160514, Note_on_c, 9, 50, 116
1, 160518, Note_on_c, 9, 50, 0
1, 160518, Note_on_c, 9, 69, 33
1, 160520, Note_on_c, 4, 66, 68
1, 160520, Note_on_c, 4, 69, 64
1, 160522, Note_on_c, 9, 69, 0
1, 160522, Note_on_c, 1, 35, 118
1, 160546, Note_on_c, 11, 71, 0
1, 160554, Note_on_c, 11, 73, 124
1, 160574, Note_on_c, 4, 66, 0
1, 160574, Note_on_c, 4, 69, 0
1, 160594, Note_on_c, 10, 73, 0
1, 160596, Note_on_c, 8, 76, 0
1, 160608, Note_on_c, 10, 71, 119
1, 160610, Note_on_c, 9, 69, 34
1, 160614, Note_on_c, 9, 69, 0
1, 160642, Note_on_c, 11, 73, 0
1, 160656, Note_on_c, 11, 71, 119
1, 160696, Note_on_c, 10, 71, 0
1, 160696, Note_on_c, 9, 69, 29
1, 160698, Note_on_c, 8, 75, 82
1, 160698, Note_on_c, 9, 50, 119
1, 160698, Note_on_c, 10, 67, 123
1, 160700, Note_on_c, 9, 69, 0
1, 160700, Note_on_c, 1, 35, 0
1, 160700, Note_on_c, 1, 35, 110
1, 160702, Note_on_c, 9, 50, 0
1, 160708, Note_on_c, 4, 76, 98
1, 160708, Note_on_c, 5, 69, 73
1, 160744, Note_on_c, 11, 71, 0
1, 160746, Note_on_c, 11, 67, 123
1, 160784, Note_on_c, 5, 69, 0
1, 160786, Note_on_c, 10, 67, 0
1, 160786, Note_on_c, 8, 75, 0
1, 160790, Note_on_c, 10, 66, 120
1, 160792, Note_on_c, 9, 38, 119
1, 160796, Note_on_c, 9, 38, 0
1, 160804, Note_on_c, 9, 69, 38
1, 160808, Note_on_c, 9, 69, 0
1, 160834, Note_on_c, 11, 67, 0
1, 160838, Note_on_c, 11, 66, 120
1, 160878, Note_on_c, 10, 66, 0
1, 160880, Note_on_c, 1, 35, 0
1, 160886, Note_on_c, 5, 69, 66
1, 160888, Note_on_c, 4, 76, 0
1, 160888, Note_on_c, 4, 69, 63
1, 160888, Note_on_c, 4, 73, 63
1, 160894, Note_on_c, 4, 66, 60
1, 160896, Note_on_c, 8, 76, 81
1, 160896, Note_on_c, 9, 69, 29
1, 160896, Control_c, 10, 1, 28
1, 160900, Note_on_c, 9, 69, 0
1, 160900, Note_on_c, 9, 38, 120
1, 160900, Note_on_c, 10, 64, 121
1, 160902, Note_on_c, 9, 36, 117
1, 160904, Note_on_c, 9, 38, 0
1, 160906, Note_on_c, 9, 36, 0
1, 160906, Note_on_c, 1, 35, 111
1, 160926, Note_on_c, 11, 66, 0
1, 160942, Note_on_c, 4, 69, 0
1, 160942, Note_on_c, 4, 73, 0
1, 160944, Control_c, 11, 1, 28
1, 160948, Note_on_c, 4, 66, 0
1, 160948, Note_on_c, 11, 64, 121
1, 160962, Note_on_c, 5, 69, 0
1, 160984, Note_on_c, 8, 76, 0
1, 160984, Note_on_c, 9, 69, 29
1, 160988, Note_on_c, 9, 69, 0
1, 160990, Note_on_c, 1, 35, 0
1, 160990, Note_on_c, 1, 35, 112
1, 160995, Control_c, 10, 1, 70
1, 161043, Control_c, 11, 1, 70
1, 161084, Note_on_c, 8, 78, 78
1, 161086, Note_on_c, 1, 35, 0
1, 161088, Note_on_c, 1, 39, 109
1, 161088, Note_on_c, 5, 69, 72
1, 161094, Note_on_c, 9, 47, 120
1, 161094, Note_on_c, 9, 69, 37
1, 161098, Note_on_c, 9, 69, 0
1, 161098, Note_on_c, 9, 47, 0
1, 161112, Control_c, 10, 1, 55
1, 161160, Control_c, 11, 1, 55
1, 161164, Note_on_c, 5, 69, 0
1, 161168, Note_on_c, 1, 39, 0
1, 161172, Note_on_c, 8, 78, 0
1, 161174, Note_on_c, 1, 40, 115
1, 161178, Note_on_c, 5, 71, 72
1, 161182, Note_on_c, 9, 38, 121
1, 161186, Note_on_c, 9, 38, 0
1, 161190, Note_on_c, 9, 69, 36
1, 161194, Note_on_c, 9, 69, 0
1, 161199, Control_c, 10, 1, 37
1, 161234, Note_on_c, 7, 81, 0
1, 161247, Control_c, 11, 1, 37
1, 161252, Note_on_c, 2, 66, 0
1, 161252, Note_on_c, 7, 69, 0
1, 161254, Note_on_c, 1, 40, 0
1, 161254, Note_on_c, 5, 71, 0
1, 161256, Note_on_c, 2, 61, 0
1, 161256, Note_on_c, 6, 62, 0
1, 161260, Note_on_c, 6, 54, 0
1, 161264, Note_on_c, 6, 57, 0
1, 161266, Note_on_c, 6, 48, 67
1, 161268, Note_on_c, 2, 57, 0
1, 161268, Note_on_c, 1, 42, 113
1, 161270, Note_on_c, 5, 72, 68
1, 161270, Note_on_c, 12, 72, 123
1, 161272, Note_on_c, 2, 72, 95
1, 161272, Note_on_c, 9, 36, 118
1, 161276, Note_on_c, 9, 36, 0
1, 161278, Note_on_c, 2, 60, 102
1, 161278, Note_on_c, 8, 72, 74
1, 161282, Note_on_c, 8, 60, 79
1, 161284, Note_on_c, 10, 64, 0
1, 161284, Note_on_c, 7, 72, 81
1, 161286, Note_on_c, 9, 38, 125
1, 161286, Note_on_c, 9, 49, 103
1, 161288, Note_on_c, 7, 60, 82
1, 161290, Note_on_c, 9, 49, 0
1, 161290, Note_on_c, 9, 38, 0
1, 161332, Note_on_c, 11, 64, 0
1, 161348, Note_on_c, 1, 42, 0
1, 161367, Control_c, 10, 1, 15
1, 161368, Note_on_c, 1, 42, 114
1, 161376, Note_on_c, 9, 38, 116
1, 161380, Note_on_c, 9, 38, 0
1, 161415, Control_c, 11, 1, 15
1, 161446, Note_on_c, 12, 72, 0
1, 161446, Note_on_c, 6, 48, 0
1, 161448, Note_on_c, 1, 42, 0
1, 161452, Note_on_c, 2, 72, 0
1, 161458, Note_on_c, 8, 72, 0
1, 161458, Note_on_c, 2, 60, 0
1, 161462, Note_on_c, 5, 72, 0
1, 161462, Note_on_c, 8, 60, 0
1, 161464, Note_on_c, 7, 72, 0
1, 161464, Note_on_c, 2, 57, 102
1, 161464, Note_on_c, 5, 69, 72
1, 161464, Note_on_c, 8, 69, 76
1, 161464, Note_on_c, 9, 42, 51
1, 161468, Note_on_c, 9, 42, 0
1, 161468, Note_on_c, 7, 60, 0
1, 161468, Note_on_c, 6, 45, 64
1, 161472, Note_on_c, 9, 36, 125
1, 161474, Note_on_c, 8, 57, 80
1, 161476, Note_on_c, 9, 36, 0
1, 161476, Note_on_c, 7, 57, 77
1, 161478, Note_on_c, 12, 69, 122
1, 161480, Note_on_c, 2, 69, 103
1, 161480, Note_on_c, 7, 69, 82
1, 161484, Note_on_c, 1, 40, 113
1, 161572, Note_on_c, 9, 36, 122
1, 161576, Note_on_c, 9, 36, 0
1, 161644, Note_on_c, 2, 57, 0
1, 161644, Note_on_c, 8, 69, 0
1, 161648, Note_on_c, 6, 45, 0
1, 161652, Note_on_c, 6, 42, 70
1, 161654, Note_on_c, 12, 69, 0
1, 161654, Note_on_c, 8, 57, 0
1, 161654, Note_on_c, 8, 54, 82
1, 161656, Note_on_c, 5, 69, 0
1, 161656, Note_on_c, 7, 57, 0
1, 161656, Note_on_c, 9, 42, 52
1, 161658, Note_on_c, 2, 54, 99
1, 161660, Note_on_c, 9, 42, 0
1, 161660, Note_on_c, 7, 69, 0
1, 161660, Note_on_c, 2, 69, 0
1, 161664, Note_on_c, 1, 40, 0
1, 161664, Note_on_c, 5, 66, 66
1, 161664, Note_on_c, 8, 66, 79
1, 161666, Note_on_c, 1, 38, 115
1, 161668, Note_on_c, 7, 66, 79
1, 161668, Note_on_c, 12, 66, 115
1, 161670, Note_on_c, 7, 54, 74
1, 161670, Note_on_c, 9, 38, 121
1, 161672, Note_on_c, 2, 66, 99
1, 161674, Note_on_c, 9, 38, 0
1, 161832, Note_on_c, 6, 42, 0
1, 161834, Note_on_c, 8, 54, 0
1, 161838, Note_on_c, 2, 54, 0
1, 161842, Note_on_c, 6, 50, 72
1, 161844, Note_on_c, 12, 66, 0
1, 161844, Note_on_c, 8, 66, 0
1, 161848, Note_on_c, 7, 66, 0
1, 161848, Note_on_c, 2, 50, 101
1, 161848, Note_on_c, 2, 62, 103
1, 161850, Note_on_c, 7, 54, 0
1, 161850, Note_on_c, 9, 42, 51
1, 161852, Note_on_c, 2, 66, 0
1, 161852, Note_on_c, 5, 74, 73
1, 161854, Note_on_c, 9, 42, 0
1, 161856, Note_on_c, 5, 66, 0
1, 161856, Note_on_c, 7, 62, 79
1, 161856, Note_on_c, 7, 74, 82
1, 161856, Note_on_c, 8, 50, 83
1, 161860, Note_on_c, 8, 62, 76
1, 161864, Note_on_c, 12, 74, 119
1, 161926, Note_on_c, 1, 38, 0
1, 161944, Note_on_c, 9, 36, 104
1, 161948, Note_on_c, 9, 36, 0
1, 161964, Note_on_c, 1, 38, 110
1, 162022, Note_on_c, 6, 50, 0
1, 162028, Note_on_c, 2, 50, 0
1, 162028, Note_on_c, 2, 62, 0
1, 162036, Note_on_c, 8, 50, 0
1, 162036, Note_on_c, 7, 74, 0
1, 162036, Note_on_c, 7, 62, 0
1, 162038, Note_on_c, 7, 71, 79
1, 162040, Note_on_c, 12, 74, 0
1, 162040, Note_on_c, 8, 62, 0
1, 162040, Note_on_c, 9, 42, 56
1, 162044, Note_on_c, 9, 42, 0
1, 162044, Note_on_c, 5, 74, 0
1, 162044, Note_on_c, 1, 38, 0
1, 162050, Note_on_c, 2, 71, 95
1, 162050, Note_on_c, 7, 59, 76
1, 162052, Note_on_c, 8, 59, 78
1, 162052, Note_on_c, 8, 71, 78
1, 162052, Note_on_c, 12, 71, 117
1, 162054, Note_on_c, 2, 59, 94
1, 162054, Note_on_c, 5, 71, 66
1, 162054, Note_on_c, 6, 47, 68
1, 162138, Note_on_c, 9, 36, 107
1, 162142, Note_on_c, 9, 36, 0
1, 162146, Note_on_c, 1, 38, 115
1, 162218, Note_on_c, 7, 71, 0
1, 162226, Note_on_c, 1, 38, 0
1, 162226, Note_on_c, 7, 67, 80
1, 162228, Note_on_c, 12, 71, 0
1, 162230, Note_on_c, 2, 71, 0
1, 162230, Note_on_c, 7, 59, 0
1, 162230, Note_on_c, 7, 55, 74
1, 162232, Note_on_c, 8, 59, 0
1, 162232, Note_on_c, 8, 71, 0
1, 162232, Note_on_c, 1, 26, 118
1, 162232, Note_on_c, 8, 67, 82
1, 162234, Note_on_c, 2, 59, 0
1, 162234, Note_on_c, 6, 47, 0
1, 162234, Note_on_c, 9, 42, 50
1, 162236, Note_on_c, 2, 67, 94
1, 162236, Note_on_c, 8, 55, 78
1, 162238, Note_on_c, 9, 42, 0
1, 162238, Note_on_c, 2, 55, 99
1, 162238, Note_on_c, 6, 43, 66
1, 162242, Note_on_c, 5, 67, 65
1, 162242, Note_on_c, 12, 67, 115
1, 162246, Note_on_c, 5, 71, 0
1, 162246, Note_on_c, 9, 36, 121
1, 162250, Note_on_c, 9, 36, 0
1, 162406, Note_on_c, 7, 67, 0
1, 162410, Note_on_c, 7, 55, 0
1, 162412, Note_on_c, 1, 26, 0
1, 162412, Note_on_c, 8, 67, 0
1, 162416, Note_on_c, 2, 67, 0
1, 162416, Note_on_c, 8, 55, 0
1, 162418, Note_on_c, 12, 67, 0
1, 162418, Note_on_c, 2, 55, 0
1, 162418, Note_on_c, 6, 43, 0
1, 162418, Note_on_c, 7, 76, 79
1, 162420, Note_on_c, 7, 64, 82
1, 162420, Note_on_c, 12, 76, 114
1, 162424, Note_on_c, 1, 38, 111
1, 162428, Note_on_c, 5, 76, 70
1, 162428, Note_on_c, 9, 42, 56
1, 162430, Note_on_c, 2, 52, 96
1, 162430, Note_on_c, 2, 64, 100
1, 162430, Note_on_c, 6, 52, 67
1, 162430, Note_on_c, 8, 52, 77
1, 162430, Note_on_c, 8, 64, 74
1, 162432, Note_on_c, 9, 42, 0
1, 162434, Note_on_c, 5, 67, 0
1, 162504, Note_on_c, 1, 38, 0
1, 162538, Note_on_c, 1, 38, 113
1, 162596, Note_on_c, 12, 76, 0
1, 162598, Note_on_c, 7, 76, 0
1, 162600, Note_on_c, 7, 64, 0
1, 162610, Note_on_c, 6, 52, 0
1, 162610, Note_on_c, 2, 52, 0
1, 162610, Note_on_c, 8, 64, 0
1, 162610, Note_on_c, 8, 52, 0
1, 162610, Note_on_c, 2, 64, 0
1, 162612, Note_on_c, 7, 72, 76
1, 162616, Note_on_c, 2, 60, 99
1, 162616, Note_on_c, 9, 42, 58
1, 162618, Note_on_c, 1, 38, 0
1, 162618, Note_on_c, 6, 48, 64
1, 162618, Note_on_c, 8, 60, 81
1, 162620, Note_on_c, 5, 76, 0
1, 162620, Note_on_c, 9, 42, 0
1, 162620, Note_on_c, 12, 72, 122
1, 162624, Note_on_c, 2, 72, 98
1, 162626, Note_on_c, 1, 26, 118
1, 162628, Note_on_c, 5, 72, 64
1, 162628, Note_on_c, 8, 72, 74
1, 162634, Note_on_c, 7, 60, 82
1, 162792, Note_on_c, 7, 72, 0
1, 162796, Note_on_c, 12, 72, 0
1, 162796, Note_on_c, 2, 60, 0
1, 162798, Note_on_c, 8, 60, 0
1, 162798, Note_on_c, 6, 48, 0
1, 162804, Note_on_c, 2, 72, 0
1, 162806, Note_on_c, 1, 26, 0
1, 162806, Note_on_c, 2, 57, 103
1, 162806, Note_on_c, 2, 69, 102
1, 162808, Note_on_c, 8, 72, 0
1, 162808, Note_on_c, 7, 69, 80
1, 162812, Note_on_c, 9, 36, 124
1, 162814, Note_on_c, 7, 60, 0
1, 162814, Note_on_c, 6, 45, 64
1, 162814, Note_on_c, 7, 57, 82
1, 162816, Note_on_c, 9, 36, 0
1, 162818, Note_on_c, 1, 26, 115
1, 162818, Note_on_c, 5, 69, 65
1, 162818, Note_on_c, 8, 57, 78
1, 162818, Note_on_c, 8, 69, 80
1, 162818, Note_on_c, 9, 42, 55
1, 162820, Note_on_c, 5, 72, 0
1, 162822, Note_on_c, 9, 42, 0
1, 162824, Note_on_c, 12, 69, 121
1, 162986, Note_on_c, 2, 57, 0
1, 162986, Note_on_c, 2, 69, 0
1, 162988, Note_on_c, 7, 69, 0
1, 162994, Note_on_c, 7, 57, 0
1, 162994, Note_on_c, 6, 45, 0
1, 162998, Note_on_c, 8, 57, 0
1, 162998, Note_on_c, 8, 69, 0
1, 163000, Note_on_c, 12, 69, 0
1, 163000, Note_on_c, 12, 78, 122
1, 163004, Note_on_c, 8, 78, 78
1, 163008, Note_on_c, 9, 42, 55
1, 163010, Note_on_c, 5, 69, 0
1, 163010, Note_on_c, 8, 66, 76
1, 163012, Note_on_c, 9, 42, 0
1, 163012, Note_on_c, 2, 66, 95
1, 163014, Note_on_c, 5, 78, 71
1, 163014, Note_on_c, 6, 54, 65
1, 163016, Note_on_c, 2, 78, 94
1, 163018, Note_on_c, 7, 66, 80
1, 163018, Note_on_c, 7, 78, 81
1, 163078, Note_on_c, 1, 26, 0
1, 163110, Note_on_c, 1, 26, 111
1, 163110, Note_on_c, 9, 36, 120
1, 163114, Note_on_c, 9, 36, 0
1, 163176, Note_on_c, 12, 78, 0
1, 163184, Note_on_c, 8, 78, 0
1, 163186, Note_on_c, 7, 74, 75
1, 163188, Note_on_c, 1, 26, 0
1, 163188, Note_on_c, 1, 26, 113
1, 163188, Note_on_c, 7, 62, 79
1, 163190, Note_on_c, 8, 66, 0
1, 163190, Note_on_c, 8, 62, 83
1, 163192, Note_on_c, 2, 66, 0
1, 163192, Note_on_c, 6, 50, 68
1, 163194, Note_on_c, 6, 54, 0
1, 163196, Note_on_c, 2, 78, 0
1, 163196, Note_on_c, 8, 50, 76
1, 163196, Note_on_c, 9, 42, 53
1, 163198, Note_on_c, 7, 66, 0
1, 163198, Note_on_c, 7, 78, 0
1, 163198, Note_on_c, 2, 62, 102
1, 163200, Note_on_c, 9, 42, 0
1, 163202, Note_on_c, 2, 50, 96
1, 163202, Note_on_c, 5, 74, 67
1, 163206, Note_on_c, 5, 78, 0
1, 163206, Note_on_c, 9, 38, 123
1, 163206, Note_on_c, 12, 74, 117
1, 163210, Note_on_c, 9, 38, 0
1, 163366, Note_on_c, 7, 74, 0
1, 163368, Note_on_c, 7, 62, 0
1, 163370, Note_on_c, 8, 62, 0
1, 163372, Note_on_c, 6, 50, 0
1, 163376, Note_on_c, 8, 50, 0
1, 163378, Note_on_c, 2, 62, 0
1, 163380, Note_on_c, 6, 47, 67
1, 163382, Note_on_c, 2, 50, 0
1, 163382, Note_on_c, 12, 74, 0
1, 163384, Note_on_c, 2, 71, 98
1, 163384, Note_on_c, 7, 59, 80
1, 163384, Note_on_c, 12, 71, 116
1, 163390, Note_on_c, 5, 71, 70
1, 163392, Note_on_c, 7, 71, 79
1, 163394, Note_on_c, 5, 74, 0
1, 163394, Note_on_c, 8, 59, 77
1, 163396, Note_on_c, 9, 42, 58
1, 163398, Note_on_c, 8, 71, 80
1, 163400, Note_on_c, 9, 42, 0
1, 163400, Note_on_c, 2, 59, 96
1, 163448, Note_on_c, 1, 26, 0
1, 163490, Note_on_c, 9, 36, 105
1, 163494, Note_on_c, 9, 36, 0
1, 163496, Note_on_c, 1, 38, 115
1, 163560, Note_on_c, 6, 47, 0
1, 163560, Note_on_c, 12, 71, 0
1, 163564, Note_on_c, 7, 59, 0
1, 163564, Note_on_c, 2, 71, 0
1, 163572, Note_on_c, 7, 71, 0
1, 163572, Note_on_c, 7, 67, 78
1, 163574, Note_on_c, 8, 59, 0
1, 163576, Note_on_c, 1, 38, 0
1, 163576, Note_on_c, 2, 67, 102
1, 163578, Note_on_c, 8, 71, 0
1, 163580, Note_on_c, 2, 59, 0
1, 163580, Note_on_c, 2, 79, 98
1, 163580, Note_on_c, 7, 79, 79
1, 163580, Note_on_c, 9, 42, 52
1, 163580, Note_on_c, 12, 79, 116
1, 163582, Note_on_c, 5, 71, 0
1, 163582, Note_on_c, 8, 67, 80
1, 163584, Note_on_c, 9, 42, 0
1, 163584, Note_on_c, 8, 79, 77
1, 163590, Note_on_c, 5, 79, 69
1, 163594, Note_on_c, 6, 55, 65
1, 163686, Note_on_c, 9, 36, 108
1, 163690, Note_on_c, 9, 36, 0
1, 163690, Note_on_c, 1, 38, 112
1, 163752, Note_on_c, 7, 67, 0
1, 163756, Note_on_c, 2, 67, 0
1, 163756, Note_on_c, 12, 79, 0
1, 163760, Note_on_c, 2, 79, 0
1, 163760, Note_on_c, 7, 79, 0
1, 163762, Note_on_c, 8, 67, 0
1, 163764, Note_on_c, 8, 79, 0
1, 163766, Note_on_c, 12, 76, 119
1, 163768, Note_on_c, 7, 76, 79
1, 163770, Note_on_c, 1, 38, 0
1, 163770, Note_on_c, 9, 42, 55
1, 163772, Note_on_c, 2, 52, 99
1, 163772, Note_on_c, 2, 64, 101
1, 163774, Note_on_c, 9, 42, 0
1, 163774, Note_on_c, 6, 55, 0
1, 163774, Note_on_c, 9, 36, 120
1, 163778, Note_on_c, 9, 36, 0
1, 163780, Note_on_c, 1, 26, 117
1, 163780, Note_on_c, 5, 76, 69
1, 163780, Note_on_c, 8, 52, 83
1, 163782, Note_on_c, 5, 79, 0
1, 163782, Note_on_c, 6, 52, 69
1, 163782, Note_on_c, 8, 64, 78
1, 163784, Note_on_c, 7, 64, 78
1, 163942, Note_on_c, 12, 76, 0
1, 163948, Note_on_c, 7, 76, 0
1, 163952, Note_on_c, 2, 52, 0
1, 163952, Note_on_c, 2, 64, 0
1, 163960, Note_on_c, 8, 52, 0
1, 163960, Note_on_c, 1, 26, 0
1, 163960, Note_on_c, 8, 81, 82
1, 163962, Note_on_c, 8, 64, 0
1, 163962, Note_on_c, 6, 52, 0
1, 163962, Note_on_c, 2, 69, 101
1, 163962, Note_on_c, 9, 38, 117
1, 163962, Note_on_c, 9, 42, 50
1, 163964, Note_on_c, 7, 64, 0
1, 163966, Note_on_c, 9, 38, 0
1, 163966, Note_on_c, 9, 42, 0
1, 163970, Note_on_c, 6, 57, 65
1, 163972, Note_on_c, 5, 76, 0
1, 163972, Note_on_c, 12, 81, 122
1, 163974, Note_on_c, 2, 81, 101
1, 163974, Note_on_c, 5, 81, 71
1, 163976, Note_on_c, 8, 69, 79
1, 163978, Note_on_c, 7, 81, 80
1, 163980, Note_on_c, 1, 38, 110
1, 163980, Note_on_c, 7, 69, 81
1, 164060, Note_on_c, 1, 38, 0
1, 164072, Note_on_c, 1, 38, 112
1, 164140, Note_on_c, 8, 81, 0
1, 164142, Note_on_c, 2, 69, 0
1, 164146, Note_on_c, 7, 66, 75
1, 164148, Note_on_c, 12, 81, 0
1, 164148, Note_on_c, 1, 33, 115
1, 164150, Note_on_c, 6, 57, 0
1, 164152, Note_on_c, 1, 38, 0
1, 164154, Note_on_c, 2, 81, 0
1, 164154, Note_on_c, 2, 78, 97
1, 164156, Note_on_c, 8, 69, 0
1, 164156, Note_on_c, 5, 78, 69
1, 164156, Note_on_c, 15, 59, 109
1, 164158, Note_on_c, 7, 81, 0
1, 164158, Note_on_c, 2, 66, 103
1, 164158, Note_on_c, 8, 66, 74
1, 164160, Note_on_c, 7, 69, 0
1, 164160, Note_on_c, 7, 78, 80
1, 164164, Note_on_c, 6, 54, 69
1, 164164, Note_on_c, 9, 46, 100
1, 164166, Note_on_c, 5, 81, 0
1, 164168, Note_on_c, 9, 46, 0
1, 164168, Note_on_c, 8, 78, 78
1, 164168, Note_on_c, 12, 78, 123
1, 164228, Note_on_c, 1, 33, 0
1, 164256, Note_on_c, 1, 26, 117
1, 164326, Note_on_c, 7, 66, 0
1, 164334, Note_on_c, 2, 78, 0
1, 164336, Note_on_c, 15, 59, 0
1, 164336, Note_on_c, 1, 26, 0
1, 164338, Note_on_c, 2, 66, 0
1, 164338, Note_on_c, 8, 66, 0
1, 164340, Note_on_c, 7, 78, 0
1, 164344, Note_on_c, 12, 78, 0
1, 164344, Note_on_c, 6, 54, 0
1, 164344, Note_on_c, 15, 64, 110
1, 164346, Note_on_c, 12, 80, 120
1, 164348, Note_on_c, 5, 78, 0
1, 164348, Note_on_c, 8, 78, 0
1, 164348, Note_on_c, 5, 68, 69
1, 164348, Note_on_c, 5, 71, 67
1, 164348, Note_on_c, 6, 59, 66
1, 164352, Note_on_c, 6, 64, 71
1, 164352, Pitch_bend_c, 15, 7296
1, 164358, Note_on_c, 6, 56, 71
1, 164360, Pitch_bend_c, 15, 7360
1, 164364, Note_on_c, 1, 28, 113
1, 164364, Pitch_bend_c, 15, 7424
1, 164368, Pitch_bend_c, 15, 7488
1, 164372, Pitch_bend_c, 15, 7552
1, 164376, Pitch_bend_c, 15, 7616
1, 164380, Pitch_bend_c, 15, 7680
1, 164384, Pitch_bend_c, 15, 7744
1, 164388, Pitch_bend_c, 15, 7808
1, 164392, Pitch_bend_c, 15, 7872
1, 164396, Pitch_bend_c, 15, 7936
1, 164400, Pitch_bend_c, 15, 8000
1, 164404, Pitch_bend_c, 15, 8064
1, 164408, Pitch_bend_c, 15, 8128
1, 164412, Pitch_bend_c, 15, 8192
1, 164544, Control_c, 15, 1, 28
1, 164643, Control_c, 15, 1, 70
1, 164742, Note_on_c, 9, 42, 55
1, 164746, Note_on_c, 9, 42, 0
1, 164760, Control_c, 15, 1, 55
1, 164847, Control_c, 15, 1, 37
1, 165015, Control_c, 15, 1, 15
1, 165118, Note_on_c, 14, 78, 112
1, 165220, Note_on_c, 14, 80, 117
1, 165222, Note_on_c, 14, 78, 0
1, 165232, Control_c, 12, 11, 127
1, 165264, Control_c, 12, 11, 126
1, 165296, Control_c, 12, 11, 125
1, 165312, Control_c, 12, 11, 124
1, 165312, Control_c, 14, 1, 28
1, 165344, Control_c, 12, 11, 123
1, 165360, Control_c, 12, 11, 121
1, 165376, Control_c, 12, 11, 120
1, 165392, Control_c, 12, 11, 119
1, 165408, Control_c, 12, 11, 118
1, 165411, Control_c, 14, 1, 70
1, 165424, Note_on_c, 15, 64, 0
1, 165424, Control_c, 12, 11, 117
1, 165440, Control_c, 12, 11, 116
1, 165456, Control_c, 12, 11, 115
1, 165472, Control_c, 12, 11, 113
1, 165488, Control_c, 12, 11, 112
1, 165504, Control_c, 12, 11, 111
1, 165520, Control_c, 12, 11, 110
1, 165528, Control_c, 14, 1, 55
1, 165536, Control_c, 12, 11, 109
1, 165552, Control_c, 12, 11, 108
1, 165568, Control_c, 12, 11, 107
1, 165584, Control_c, 12, 11, 105
1, 165600, Control_c, 12, 11, 104
1, 165615, Control_c, 14, 1, 37
1, 165616, Control_c, 12, 11, 102
1, 165632, Control_c, 12, 11, 100
1, 165648, Control_c, 12, 11, 96
1, 165664, Control_c, 12, 11, 94
1, 165680, Control_c, 12, 11, 92
1, 165696, Control_c, 12, 11, 91
1, 165728, Control_c, 12, 11, 90
1, 165760, Control_c, 12, 11, 89
1, 165776, Control_c, 12, 11, 87
1, 165783, Control_c, 14, 1, 15
1, 165792, Control_c, 12, 11, 86
1, 165808, Control_c, 12, 11, 85
1, 165824, Control_c, 12, 11, 84
1, 165840, Control_c, 12, 11, 83
1, 165856, Control_c, 12, 11, 82
1, 165860, Note_on_c, 14, 80, 0
1, 165866, Note_on_c, 12, 80, 0
1, 165876, Note_on_c, 1, 25, 113
1, 165876, Control_c, 12, 11, 127
1, 165884, Note_on_c, 5, 71, 0
1, 165884, Note_on_c, 1, 28, 0
1, 165884, Note_on_c, 5, 68, 0
1, 165888, Control_c, 15, 1, 28
1, 165888, Pitch_bend_c, 15, 7296
1, 165892, Note_on_c, 15, 64, 103
1, 165896, Pitch_bend_c, 15, 7360
1, 165900, Pitch_bend_c, 15, 7424
1, 165904, Pitch_bend_c, 15, 7488
1, 165908, Pitch_bend_c, 15, 7552
1, 165912, Pitch_bend_c, 15, 7616
1, 165916, Pitch_bend_c, 15, 7680
1, 165920, Pitch_bend_c, 15, 7744
1, 165924, Pitch_bend_c, 15, 7808
1, 165928, Pitch_bend_c, 15, 7872
1, 165932, Pitch_bend_c, 15, 7936
1, 165936, Pitch_bend_c, 15, 8000
1, 165940, Pitch_bend_c, 15, 8064
1, 165944, Pitch_bend_c, 15, 8128
1, 165948, Pitch_bend_c, 15, 8192
1, 165987, Control_c, 15, 1, 70
1, 166104, Control_c, 15, 1, 55
1, 166191, Control_c, 15, 1, 37
1, 166359, Control_c, 15, 1, 15
1, 166432, Note_on_c, 15, 64, 0
1, 166458, Note_on_c, 15, 59, 106
1, 166638, Note_on_c, 15, 59, 0
1, 166656, Pitch_bend_c, 15, 7296
1, 166660, Note_on_c, 5, 73, 67
1, 166662, Note_on_c, 15, 64, 109
1, 166664, Pitch_bend_c, 15, 7360
1, 166668, Pitch_bend_c, 15, 7424
1, 166672, Pitch_bend_c, 15, 7488
1, 166676, Pitch_bend_c, 15, 7552
1, 166680, Pitch_bend_c, 15, 7616
1, 166684, Pitch_bend_c, 15, 7680
1, 166688, Pitch_bend_c, 15, 7744
1, 166692, Pitch_bend_c, 15, 7808
1, 166696, Pitch_bend_c, 15, 7872
1, 166700, Pitch_bend_c, 15, 7936
1, 166704, Pitch_bend_c, 15, 8000
1, 166708, Pitch_bend_c, 15, 8064
1, 166712, Pitch_bend_c, 15, 8128
1, 166716, Pitch_bend_c, 15, 8192
1, 166922, Note_on_c, 15, 64, 0
1, 166942, Note_on_c, 15, 66, 110
1, 167040, Pitch_bend_c, 5, 6784
1, 167202, Note_on_c, 15, 66, 0
1, 167226, Note_on_c, 15, 68, 108
1, 167396, Note_on_c, 1, 25, 0
1, 167406, Note_on_c, 15, 68, 0
1, 167408, Note_on_c, 6, 59, 0
1, 167416, Note_on_c, 6, 57, 69
1, 167418, Note_on_c, 6, 56, 0
1, 167422, Note_on_c, 15, 69, 111
1, 167424, Pitch_bend_c, 5, 5376
1, 167424, Pitch_bend_c, 15, 7296
1, 167428, Note_on_c, 1, 26, 112
1, 167432, Pitch_bend_c, 15, 7360
1, 167434, Note_on_c, 6, 66, 71
1, 167436, Pitch_bend_c, 15, 7424
1, 167440, Pitch_bend_c, 15, 7488
1, 167444, Pitch_bend_c, 15, 7552
1, 167448, Pitch_bend_c, 15, 7616
1, 167452, Pitch_bend_c, 15, 7680
1, 167456, Pitch_bend_c, 15, 7744
1, 167460, Pitch_bend_c, 15, 7808
1, 167464, Pitch_bend_c, 15, 7872
1, 167468, Pitch_bend_c, 15, 7936
1, 167472, Pitch_bend_c, 15, 8000
1, 167476, Pitch_bend_c, 15, 8064
1, 167480, Pitch_bend_c, 15, 8128
1, 167484, Pitch_bend_c, 15, 8192
1, 167522, Note_on_c, 15, 68, 103
1, 167526, Note_on_c, 15, 69, 0
1, 167618, Note_on_c, 15, 66, 103
1, 167626, Note_on_c, 15, 68, 0
1, 167712, Control_c, 15, 1, 28
1, 167811, Control_c, 15, 1, 70
1, 167928, Control_c, 15, 1, 55
1, 167998, Note_on_c, 14, 81, 111
1, 168000, Pitch_bend_c, 14, 7296
1, 168008, Pitch_bend_c, 14, 7360
1, 168012, Pitch_bend_c, 14, 7424
1, 168015, Control_c, 15, 1, 37
1, 168016, Pitch_bend_c, 14, 7488
1, 168020, Pitch_bend_c, 14, 7552
1, 168024, Pitch_bend_c, 14, 7616
1, 168028, Pitch_bend_c, 14, 7680
1, 168032, Pitch_bend_c, 14, 7744
1, 168036, Pitch_bend_c, 14, 7808
1, 168040, Pitch_bend_c, 14, 7872
1, 168044, Pitch_bend_c, 14, 7936
1, 168048, Pitch_bend_c, 14, 8000
1, 168052, Pitch_bend_c, 14, 8064
1, 168056, Pitch_bend_c, 14, 8128
1, 168060, Pitch_bend_c, 14, 8192
1, 168096, Control_c, 14, 1, 28
1, 168172, Note_on_c, 6, 64, 0
1, 168183, Control_c, 15, 1, 15
1, 168188, Note_on_c, 6, 62, 64
1, 168195, Control_c, 14, 1, 70
1, 168312, Control_c, 14, 1, 55
1, 168338, Note_on_c, 15, 66, 0
1, 168570, Note_on_c, 15, 59, 112
1, 168750, Note_on_c, 15, 59, 0
1, 168772, Note_on_c, 5, 73, 0
1, 168772, Note_on_c, 15, 59, 109
1, 168904, Pitch_bend_c, 5, 8192
1, 168920, Note_on_c, 5, 62, 66
1, 168948, Note_on_c, 1, 26, 0
1, 168952, Note_on_c, 15, 59, 0
1, 168958, Note_on_c, 15, 69, 112
1, 168960, Pitch_bend_c, 15, 7296
1, 168962, Note_on_c, 1, 38, 118
1, 168964, Note_on_c, 5, 66, 65
1, 168968, Pitch_bend_c, 15, 7360
1, 168972, Pitch_bend_c, 15, 7424
1, 168976, Pitch_bend_c, 15, 7488
1, 168980, Pitch_bend_c, 15, 7552
1, 168984, Pitch_bend_c, 15, 7616
1, 168988, Pitch_bend_c, 15, 7680
1, 168992, Pitch_bend_c, 15, 7744
1, 168996, Pitch_bend_c, 15, 7808
1, 169000, Pitch_bend_c, 15, 7872
1, 169002, Note_on_c, 5, 69, 71
1, 169004, Pitch_bend_c, 15, 7936
1, 169008, Pitch_bend_c, 15, 8000
1, 169012, Pitch_bend_c, 15, 8064
1, 169016, Pitch_bend_c, 15, 8128
1, 169020, Pitch_bend_c, 15, 8192
1, 169167, Control_c, 14, 1, 37
1, 169318, Note_on_c, 15, 69, 0
1, 169342, Note_on_c, 15, 69, 111
1, 169522, Note_on_c, 15, 69, 0
1, 169528, Note_on_c, 15, 68, 111
1, 169678, Note_on_c, 14, 81, 0
1, 169719, Control_c, 14, 1, 15
1, 169888, Note_on_c, 15, 68, 0
1, 169926, Note_on_c, 15, 66, 104
1, 170106, Note_on_c, 15, 66, 0
1, 170116, Note_on_c, 15, 64, 104
1, 170296, Note_on_c, 15, 64, 0
1, 170308, Note_on_c, 15, 66, 104
1, 170406, Note_on_c, 5, 69, 0
1, 170424, Note_on_c, 5, 66, 0
1, 170440, Note_on_c, 5, 62, 0
1, 170454, Note_on_c, 5, 56, 73
1, 170476, Note_on_c, 6, 62, 0
1, 170476, Note_on_c, 6, 57, 0
1, 170482, Note_on_c, 1, 38, 0
1, 170482, Note_on_c, 6, 64, 73
1, 170488, Note_on_c, 15, 66, 0
1, 170490, Note_on_c, 5, 59, 71
1, 170492, Note_on_c, 6, 59, 65
1, 170494, Note_on_c, 6, 66, 0
1, 170494, Note_on_c, 6, 56, 71
1, 170500, Note_on_c, 15, 64, 110
1, 170506, Note_on_c, 1, 28, 114
1, 170550, Note_on_c, 5, 64, 72
1, 170592, Control_c, 15, 1, 28
1, 170691, Control_c, 15, 1, 70
1, 170808, Control_c, 15, 1, 55
1, 170882, Note_on_c, 12, 69, 79
1, 170882, Note_on_c, 14, 80, 115
1, 170895, Control_c, 15, 1, 37
1, 171062, Note_on_c, 14, 80, 0
1, 171063, Control_c, 15, 1, 15
1, 171074, Note_on_c, 14, 81, 117
1, 171220, Note_on_c, 15, 64, 0
1, 171250, Note_on_c, 12, 69, 0
1, 171252, Note_on_c, 12, 68, 79
1, 171254, Note_on_c, 14, 81, 0
1, 171264, Control_c, 14, 1, 28
1, 171264, Pitch_bend_c, 14, 7296
1, 171268, Note_on_c, 14, 83, 112
1, 171272, Pitch_bend_c, 14, 7360
1, 171276, Pitch_bend_c, 14, 7424
1, 171280, Pitch_bend_c, 14, 7488
1, 171284, Pitch_bend_c, 14, 7552
1, 171288, Pitch_bend_c, 14, 7616
1, 171292, Pitch_bend_c, 14, 7680
1, 171296, Pitch_bend_c, 14, 7744
1, 171300, Pitch_bend_c, 14, 7808
1, 171304, Pitch_bend_c, 14, 7872
1, 171308, Pitch_bend_c, 14, 7936
1, 171312, Pitch_bend_c, 14, 8000
1, 171316, Pitch_bend_c, 14, 8064
1, 171320, Pitch_bend_c, 14, 8128
1, 171324, Pitch_bend_c, 14, 8192
1, 171363, Control_c, 14, 1, 70
1, 171448, Note_on_c, 15, 59, 112
1, 171480, Control_c, 14, 1, 55
1, 171567, Control_c, 14, 1, 37
1, 171628, Note_on_c, 15, 59, 0
1, 171628, Note_on_c, 14, 83, 0
1, 171640, Note_on_c, 15, 66, 103
1, 171648, Pitch_bend_c, 10, 7296
1, 171648, Note_on_c, 10, 49, 69
1, 171648, Note_on_c, 14, 80, 113
1, 171648, Pitch_bend_c, 15, 7296
1, 171656, Pitch_bend_c, 10, 7360
1, 171656, Pitch_bend_c, 15, 7360
1, 171660, Pitch_bend_c, 10, 7424
1, 171660, Pitch_bend_c, 15, 7424
1, 171664, Pitch_bend_c, 10, 7488
1, 171664, Pitch_bend_c, 15, 7488
1, 171668, Pitch_bend_c, 10, 7552
1, 171668, Pitch_bend_c, 15, 7552
1, 171672, Pitch_bend_c, 10, 7616
1, 171672, Pitch_bend_c, 15, 7616
1, 171676, Pitch_bend_c, 10, 7680
1, 171676, Pitch_bend_c, 15, 7680
1, 171680, Pitch_bend_c, 10, 7744
1, 171680, Pitch_bend_c, 15, 7744
1, 171684, Pitch_bend_c, 10, 7808
1, 171684, Pitch_bend_c, 15, 7808
1, 171688, Pitch_bend_c, 10, 7872
1, 171688, Pitch_bend_c, 15, 7872
1, 171692, Pitch_bend_c, 10, 7936
1, 171692, Pitch_bend_c, 15, 7936
1, 171696, Pitch_bend_c, 10, 8000
1, 171696, Pitch_bend_c, 15, 8000
1, 171700, Pitch_bend_c, 10, 8064
1, 171700, Pitch_bend_c, 15, 8064
1, 171704, Pitch_bend_c, 10, 8128
1, 171704, Pitch_bend_c, 15, 8128
1, 171708, Pitch_bend_c, 10, 8192
1, 171708, Pitch_bend_c, 15, 8192
1, 171735, Control_c, 14, 1, 15
1, 171946, Note_on_c, 5, 59, 0
1, 171950, Note_on_c, 5, 64, 0
1, 171954, Note_on_c, 5, 56, 0
1, 171992, Note_on_c, 5, 56, 73
1, 172000, Note_on_c, 15, 66, 0
1, 172004, Note_on_c, 10, 49, 0
1, 172008, Note_on_c, 14, 80, 0
1, 172026, Note_on_c, 1, 28, 0
1, 172026, Note_on_c, 5, 59, 69
1, 172030, Note_on_c, 15, 64, 108
1, 172036, Note_on_c, 1, 25, 114
1, 172036, Note_on_c, 14, 76, 118
1, 172038, Note_on_c, 10, 47, 65
1, 172082, Note_on_c, 5, 64, 64
1, 172128, Control_c, 15, 1, 28
1, 172224, Control_c, 14, 1, 28
1, 172227, Control_c, 15, 1, 70
1, 172320, Control_c, 10, 1, 25
1, 172323, Control_c, 14, 1, 70
1, 172344, Control_c, 15, 1, 55
1, 172431, Control_c, 15, 1, 37
1, 172440, Control_c, 14, 1, 55
1, 172452, Control_c, 10, 1, 40
1, 172527, Control_c, 14, 1, 37
1, 172572, Control_c, 10, 1, 78
1, 172599, Control_c, 15, 1, 15
1, 172695, Control_c, 14, 1, 15
1, 172750, Note_on_c, 15, 64, 0
1, 172756, Note_on_c, 14, 76, 0
1, 172788, Control_c, 10, 1, 55
1, 172944, Control_c, 10, 1, 39
1, 172990, Note_on_c, 15, 71, 109
1, 172992, Pitch_bend_c, 15, 7296
1, 173000, Pitch_bend_c, 15, 7360
1, 173004, Pitch_bend_c, 15, 7424
1, 173008, Pitch_bend_c, 15, 7488
1, 173012, Pitch_bend_c, 15, 7552
1, 173016, Pitch_bend_c, 15, 7616
1, 173020, Pitch_bend_c, 15, 7680
1, 173024, Pitch_bend_c, 15, 7744
1, 173028, Pitch_bend_c, 15, 7808
1, 173032, Pitch_bend_c, 15, 7872
1, 173036, Pitch_bend_c, 15, 7936
1, 173040, Pitch_bend_c, 15, 8000
1, 173044, Pitch_bend_c, 15, 8064
1, 173048, Pitch_bend_c, 15, 8128
1, 173052, Pitch_bend_c, 15, 8192
1, 173160, Control_c, 10, 1, 15
1, 173250, Note_on_c, 15, 71, 0
1, 173278, Note_on_c, 15, 71, 105
1, 173514, Note_on_c, 5, 59, 0
1, 173526, Note_on_c, 5, 64, 0
1, 173528, Note_on_c, 5, 56, 0
1, 173538, Note_on_c, 15, 71, 0
1, 173540, Note_on_c, 12, 68, 0
1, 173542, Note_on_c, 10, 47, 0
1, 173542, Note_on_c, 6, 64, 0
1, 173552, Note_on_c, 6, 59, 0
1, 173554, Note_on_c, 6, 56, 0
1, 173556, Note_on_c, 1, 25, 0
1, 173564, Note_on_c, 6, 62, 69
1, 173564, Note_on_c, 15, 69, 112
1, 173570, Note_on_c, 1, 26, 110
1, 173572, Note_on_c, 10, 45, 57
1, 173574, Note_on_c, 6, 57, 66
1, 173576, Note_on_c, 6, 66, 67
1, 173658, Note_on_c, 15, 68, 110
1, 173668, Note_on_c, 15, 69, 0
1, 173756, Note_on_c, 15, 66, 103
1, 173762, Note_on_c, 15, 68, 0
1, 173856, Control_c, 10, 1, 25
1, 173856, Control_c, 15, 1, 28
1, 173955, Control_c, 15, 1, 70
1, 173988, Control_c, 10, 1, 40
1, 174072, Control_c, 15, 1, 55
1, 174108, Control_c, 10, 1, 78
1, 174159, Control_c, 15, 1, 37
1, 174296, Note_on_c, 15, 66, 0
1, 174324, Control_c, 10, 1, 55
1, 174327, Control_c, 15, 1, 15
1, 174480, Control_c, 10, 1, 39
1, 174524, Note_on_c, 15, 71, 110
1, 174696, Control_c, 10, 1, 15
1, 174704, Note_on_c, 15, 71, 0
1, 174726, Note_on_c, 15, 71, 108
1, 174906, Note_on_c, 15, 71, 0
1, 174912, Pitch_bend_c, 15, 7296
1, 174916, Note_on_c, 15, 74, 106
1, 174920, Pitch_bend_c, 15, 7360
1, 174924, Pitch_bend_c, 15, 7424
1, 174928, Pitch_bend_c, 15, 7488
1, 174932, Pitch_bend_c, 15, 7552
1, 174936, Pitch_bend_c, 15, 7616
1, 174940, Pitch_bend_c, 15, 7680
1, 174944, Pitch_bend_c, 15, 7744
1, 174948, Pitch_bend_c, 15, 7808
1, 174952, Pitch_bend_c, 15, 7872
1, 174956, Pitch_bend_c, 15, 7936
1, 174960, Pitch_bend_c, 15, 8000
1, 174964, Pitch_bend_c, 15, 8064
1, 174968, Pitch_bend_c, 15, 8128
1, 174972, Pitch_bend_c, 15, 8192
1, 175060, Note_on_c, 10, 45, 0
1, 175084, Note_on_c, 6, 62, 0
1, 175090, Note_on_c, 1, 26, 0
1, 175090, Note_on_c, 7, 54, 83
1, 175094, Note_on_c, 6, 57, 0
1, 175094, Note_on_c, 1, 26, 111
1, 175094, Note_on_c, 7, 57, 77
1, 175096, Note_on_c, 6, 66, 0
1, 175102, Note_on_c, 9, 47, 121
1, 175102, Note_on_c, 12, 74, 119
1, 175106, Note_on_c, 9, 47, 0
1, 175106, Note_on_c, 8, 62, 78
1, 175106, Note_on_c, 9, 36, 120
1, 175106, Note_on_c, 9, 38, 117
1, 175108, Note_on_c, 5, 62, 68
1, 175110, Note_on_c, 9, 38, 0
1, 175110, Note_on_c, 9, 36, 0
1, 175112, Note_on_c, 7, 62, 74
1, 175276, Note_on_c, 15, 74, 0
1, 175294, Note_on_c, 15, 76, 112
1, 175300, Note_on_c, 5, 62, 0
1, 175318, Note_on_c, 1, 26, 0
1, 175350, Note_on_c, 7, 54, 0
1, 175354, Note_on_c, 7, 57, 0
1, 175366, Note_on_c, 8, 62, 0
1, 175372, Note_on_c, 7, 62, 0
1, 175374, Note_on_c, 12, 74, 0
1, 175382, Note_on_c, 7, 64, 75
1, 175382, Note_on_c, 12, 76, 116
1, 175386, Note_on_c, 7, 59, 80
1, 175392, Note_on_c, 5, 64, 70
1, 175392, Note_on_c, 8, 64, 74
1, 175392, Note_on_c, 9, 38, 122
1, 175392, Note_on_c, 9, 47, 122
1, 175396, Note_on_c, 9, 47, 0
1, 175396, Note_on_c, 9, 38, 0
1, 175398, Note_on_c, 1, 28, 114
1, 175398, Note_on_c, 7, 56, 79
1, 175474, Note_on_c, 15, 76, 0
1, 175482, Note_on_c, 15, 76, 106
1, 175552, Note_on_c, 8, 64, 0
1, 175558, Note_on_c, 7, 64, 0
1, 175562, Note_on_c, 7, 59, 0
1, 175574, Note_on_c, 7, 56, 0
1, 175578, Note_on_c, 1, 28, 0
1, 175584, Note_on_c, 5, 64, 0
1, 175654, Note_on_c, 12, 76, 0
1, 175662, Note_on_c, 15, 76, 0
1, 175666, Note_on_c, 1, 30, 118
1, 175666, Note_on_c, 7, 57, 76
1, 175674, Note_on_c, 7, 62, 74
1, 175674, Note_on_c, 8, 66, 76
1, 175676, Note_on_c, 9, 38, 119
1, 175676, Note_on_c, 9, 47, 123
1, 175680, Note_on_c, 9, 47, 0
1, 175680, Note_on_c, 9, 38, 0
1, 175686, Note_on_c, 7, 66, 80
1, 175686, Note_on_c, 9, 36, 103
1, 175686, Note_on_c, 15, 78, 106
1, 175688, Note_on_c, 5, 66, 70
1, 175690, Note_on_c, 9, 36, 0
1, 175690, Note_on_c, 12, 78, 118
1, 175866, Note_on_c, 15, 78, 0
1, 175872, Note_on_c, 15, 61, 112
1, 175880, Note_on_c, 5, 66, 0
1, 175910, Note_on_c, 1, 30, 0
1, 175926, Note_on_c, 7, 57, 0
1, 175934, Note_on_c, 8, 66, 0
1, 175934, Note_on_c, 7, 62, 0
1, 175946, Note_on_c, 7, 66, 0
1, 175954, Note_on_c, 7, 64, 80
1, 175956, Note_on_c, 1, 32, 110
1, 175956, Note_on_c, 7, 59, 79
1, 175962, Note_on_c, 12, 78, 0
1, 175962, Note_on_c, 8, 68, 74
1, 175974, Note_on_c, 7, 68, 80
1, 175974, Note_on_c, 9, 38, 116
1, 175974, Note_on_c, 15, 71, 104
1, 175976, Note_on_c, 15, 61, 0
1, 175976, Note_on_c, 5, 68, 70
1, 175976, Note_on_c, 12, 80, 116
1, 175978, Note_on_c, 9, 38, 0
1, 176056, Note_on_c, 15, 71, 0
1, 176056, Note_on_c, 15, 71, 107
1, 176134, Note_on_c, 7, 64, 0
1, 176136, Note_on_c, 7, 59, 0
1, 176142, Note_on_c, 8, 68, 0
1, 176154, Note_on_c, 7, 68, 0
1, 176160, Control_c, 15, 1, 28
1, 176168, Note_on_c, 5, 68, 0
1, 176188, Note_on_c, 1, 32, 0
1, 176242, Note_on_c, 7, 66, 83
1, 176244, Note_on_c, 7, 62, 75
1, 176248, Note_on_c, 12, 80, 0
1, 176248, Note_on_c, 1, 33, 118
1, 176252, Note_on_c, 5, 69, 71
1, 176258, Note_on_c, 8, 69, 77
1, 176258, Note_on_c, 12, 81, 114
1, 176259, Control_c, 15, 1, 70
1, 176260, Note_on_c, 9, 38, 123
1, 176264, Note_on_c, 9, 38, 0
1, 176266, Note_on_c, 7, 69, 76
1, 176338, Note_on_c, 12, 81, 0
1, 176338, Note_on_c, 7, 66, 0
1, 176340, Note_on_c, 7, 62, 0
1, 176344, Note_on_c, 1, 33, 0
1, 176344, Note_on_c, 9, 47, 121
1, 176348, Note_on_c, 9, 47, 0
1, 176362, Note_on_c, 7, 69, 0
1, 176376, Control_c, 15, 1, 55
1, 176434, Note_on_c, 1, 35, 111
1, 176438, Note_on_c, 8, 69, 0
1, 176440, Note_on_c, 7, 64, 80
1, 176442, Note_on_c, 7, 68, 82
1, 176442, Note_on_c, 9, 47, 119
1, 176444, Note_on_c, 5, 69, 0
1, 176446, Note_on_c, 9, 47, 0
1, 176446, Note_on_c, 9, 38, 120
1, 176448, Note_on_c, 9, 36, 118
1, 176450, Note_on_c, 9, 38, 0
1, 176450, Note_on_c, 5, 71, 66
1, 176450, Note_on_c, 12, 83, 117
1, 176452, Note_on_c, 9, 36, 0
1, 176452, Note_on_c, 7, 71, 81
1, 176452, Note_on_c, 8, 71, 75
1, 176463, Control_c, 15, 1, 37
1, 176530, Note_on_c, 1, 35, 0
1, 176530, Note_on_c, 12, 83, 0
1, 176536, Note_on_c, 7, 64, 0
1, 176538, Note_on_c, 7, 68, 0
1, 176548, Note_on_c, 7, 71, 0
1, 176598, Note_on_c, 15, 71, 0
1, 176630, Note_on_c, 2, 64, 95
1, 176631, Control_c, 15, 1, 15
1, 176632, Note_on_c, 8, 71, 0
1, 176632, Note_on_c, 1, 28, 111
1, 176632, Note_on_c, 6, 56, 65
1, 176632, Note_on_c, 7, 76, 76
1, 176634, Note_on_c, 4, 59, 63
1, 176634, Note_on_c, 9, 63, 86
1, 176634, Note_on_c, 13, 68, 108
1, 176636, Note_on_c, 9, 49, 104
1, 176636, Note_on_c, 9, 69, 31
1, 176638, Note_on_c, 9, 63, 0
1, 176638, Note_on_c, 2, 59, 94
1, 176638, Note_on_c, 7, 64, 74
1, 176640, Note_on_c, 9, 69, 0
1, 176640, Note_on_c, 9, 49, 0
1, 176640, Pitch_bend_c, 14, 7296
1, 176642, Note_on_c, 5, 71, 0
1, 176642, Note_on_c, 4, 64, 65
1, 176642, Note_on_c, 13, 64, 104
1, 176642, Note_on_c, 15, 68, 109
1, 176644, Note_on_c, 2, 68, 102
1, 176644, Note_on_c, 9, 36, 118
1, 176646, Note_on_c, 14, 76, 115
1, 176648, Note_on_c, 9, 36, 0
1, 176648, Note_on_c, 6, 59, 72
1, 176648, Note_on_c, 6, 64, 64
1, 176648, Pitch_bend_c, 14, 7360
1, 176652, Pitch_bend_c, 14, 7424
1, 176656, Pitch_bend_c, 14, 7488
1, 176660, Pitch_bend_c, 14, 7552
1, 176664, Pitch_bend_c, 14, 7616
1, 176668, Pitch_bend_c, 14, 7680
1, 176672, Pitch_bend_c, 14, 7744
1, 176676, Pitch_bend_c, 14, 7808
1, 176680, Pitch_bend_c, 14, 7872
1, 176684, Pitch_bend_c, 14, 7936
1, 176688, Note_on_c, 4, 59, 0
1, 176688, Pitch_bend_c, 14, 8000
1, 176692, Pitch_bend_c, 14, 8064
1, 176696, Note_on_c, 4, 64, 0
1, 176696, Pitch_bend_c, 14, 8128
1, 176700, Pitch_bend_c, 14, 8192
1, 176736, Note_on_c, 9, 63, 85
1, 176736, Note_on_c, 9, 69, 36
1, 176736, Control_c, 14, 1, 28
1, 176736, Control_c, 15, 1, 28
1, 176738, Note_on_c, 4, 64, 96
1, 176740, Note_on_c, 9, 69, 0
1, 176740, Note_on_c, 9, 63, 0
1, 176740, Note_on_c, 4, 59, 94
1, 176740, Note_on_c, 9, 44, 58
1, 176744, Note_on_c, 9, 44, 0
1, 176744, Note_on_c, 4, 68, 103
1, 176834, Note_on_c, 8, 83, 81
1, 176834, Note_on_c, 9, 42, 58
1, 176834, Note_on_c, 9, 69, 31
1, 176835, Control_c, 14, 1, 70
1, 176835, Control_c, 15, 1, 70
1, 176838, Note_on_c, 9, 69, 0
1, 176838, Note_on_c, 9, 42, 0
1, 176918, Note_on_c, 4, 64, 0
1, 176920, Note_on_c, 4, 59, 0
1, 176922, Note_on_c, 8, 83, 0
1, 176924, Note_on_c, 4, 68, 0
1, 176926, Note_on_c, 4, 68, 66
1, 176926, Note_on_c, 9, 69, 32
1, 176928, Note_on_c, 4, 59, 65
1, 176930, Note_on_c, 9, 69, 0
1, 176934, Note_on_c, 9, 44, 57
1, 176936, Note_on_c, 4, 64, 67
1, 176938, Note_on_c, 9, 44, 0
1, 176952, Control_c, 14, 1, 55
1, 176952, Control_c, 15, 1, 55
1, 176980, Note_on_c, 4, 68, 0
1, 176982, Note_on_c, 4, 59, 0
1, 176990, Note_on_c, 4, 64, 0
1, 176992, Note_on_c, 1, 28, 0
1, 177020, Note_on_c, 9, 42, 51
1, 177024, Note_on_c, 9, 42, 0
1, 177026, Note_on_c, 9, 69, 36
1, 177028, Note_on_c, 8, 81, 74
1, 177028, Note_on_c, 9, 64, 81
1, 177028, Note_on_c, 9, 38, 125
1, 177030, Note_on_c, 9, 69, 0
1, 177032, Note_on_c, 9, 38, 0
1, 177032, Note_on_c, 9, 64, 0
1, 177039, Control_c, 14, 1, 37
1, 177039, Control_c, 15, 1, 37
1, 177112, Note_on_c, 9, 69, 33
1, 177116, Note_on_c, 9, 69, 0
1, 177116, Note_on_c, 8, 81, 0
1, 177124, Note_on_c, 9, 44, 53
1, 177128, Note_on_c, 9, 44, 0
1, 177206, Note_on_c, 8, 80, 81
1, 177207, Control_c, 14, 1, 15
1, 177207, Control_c, 15, 1, 15
1, 177210, Note_on_c, 9, 36, 101
1, 177214, Note_on_c, 9, 36, 0
1, 177216, Note_on_c, 9, 42, 52
1, 177216, Note_on_c, 9, 69, 34
1, 177218, Note_on_c, 1, 28, 110
1, 177220, Note_on_c, 9, 69, 0
1, 177220, Note_on_c, 9, 42, 0
1, 177220, Note_on_c, 5, 71, 69
1, 177294, Note_on_c, 8, 80, 0
1, 177296, Note_on_c, 5, 71, 0
1, 177302, Note_on_c, 5, 71, 65
1, 177310, Note_on_c, 9, 36, 101
1, 177312, Note_on_c, 9, 63, 87
1, 177312, Note_on_c, 9, 69, 30
1, 177314, Note_on_c, 9, 36, 0
1, 177316, Note_on_c, 9, 69, 0
1, 177316, Note_on_c, 9, 63, 0
1, 177318, Note_on_c, 9, 44, 57
1, 177322, Note_on_c, 9, 44, 0
1, 177354, Note_on_c, 13, 68, 0
1, 177362, Note_on_c, 15, 68, 0
1, 177362, Note_on_c, 13, 64, 0
1, 177366, Note_on_c, 14, 76, 0
1, 177378, Note_on_c, 5, 71, 0
1, 177398, Note_on_c, 1, 28, 0
1, 177398, Note_on_c, 8, 78, 77
1, 177408, Note_on_c, 9, 42, 57
1, 177408, Note_on_c, 9, 69, 34
1, 177412, Note_on_c, 9, 69, 0
1, 177412, Note_on_c, 9, 42, 0
1, 177412, Note_on_c, 1, 28, 115
1, 177416, Note_on_c, 5, 71, 70
1, 177486, Note_on_c, 8, 78, 0
1, 177492, Note_on_c, 5, 71, 0
1, 177496, Note_on_c, 9, 44, 50
1, 177498, Note_on_c, 9, 69, 35
1, 177500, Note_on_c, 9, 44, 0
1, 177502, Note_on_c, 9, 69, 0
1, 177502, Note_on_c, 9, 62, 79
1, 177506, Note_on_c, 9, 62, 0
1, 177598, Note_on_c, 9, 64, 86
1, 177598, Note_on_c, 9, 69, 30
1, 177602, Note_on_c, 9, 69, 0
1, 177602, Note_on_c, 9, 64, 0
1, 177602, Note_on_c, 8, 76, 79
1, 177604, Note_on_c, 5, 71, 64
1, 177604, Note_on_c, 9, 42, 56
1, 177608, Note_on_c, 9, 42, 0
1, 177672, Note_on_c, 1, 28, 0
1, 177680, Note_on_c, 5, 71, 0
1, 177688, Note_on_c, 9, 44, 51
1, 177690, Note_on_c, 8, 76, 0
1, 177692, Note_on_c, 9, 44, 0
1, 177694, Note_on_c, 5, 76, 70
1, 177702, Note_on_c, 9, 69, 35
1, 177704, Note_on_c, 1, 40, 114
1, 177706, Note_on_c, 9, 69, 0
1, 177752, Note_on_c, 7, 76, 0
1, 177758, Note_on_c, 7, 64, 0
1, 177770, Note_on_c, 5, 76, 0
1, 177778, Note_on_c, 7, 71, 77
1, 177784, Note_on_c, 1, 40, 0
1, 177784, Note_on_c, 8, 78, 78
1, 177784, Note_on_c, 9, 69, 35
1, 177788, Note_on_c, 9, 69, 0
1, 177792, Note_on_c, 1, 35, 117
1, 177792, Note_on_c, 7, 59, 80
1, 177794, Note_on_c, 9, 42, 54
1, 177796, Note_on_c, 9, 38, 121
1, 177798, Note_on_c, 9, 42, 0
1, 177800, Note_on_c, 9, 38, 0
1, 177872, Note_on_c, 1, 35, 0
1, 177872, Note_on_c, 8, 78, 0
1, 177882, Note_on_c, 9, 69, 38
1, 177886, Note_on_c, 9, 69, 0
1, 177890, Note_on_c, 1, 35, 111
1, 177890, Note_on_c, 9, 44, 56
1, 177894, Note_on_c, 9, 44, 0
1, 177970, Note_on_c, 1, 35, 0
1, 177972, Note_on_c, 1, 40, 113
1, 177982, Note_on_c, 8, 80, 79
1, 177986, Note_on_c, 9, 69, 32
1, 177990, Note_on_c, 9, 69, 0
1, 177990, Note_on_c, 9, 42, 58
1, 177994, Note_on_c, 9, 42, 0
1, 178052, Note_on_c, 1, 40, 0
1, 178070, Note_on_c, 8, 80, 0
1, 178074, Note_on_c, 9, 44, 50
1, 178076, Note_on_c, 9, 69, 31
1, 178078, Note_on_c, 9, 44, 0
1, 178078, Note_on_c, 9, 36, 119
1, 178080, Note_on_c, 9, 69, 0
1, 178082, Note_on_c, 9, 36, 0
1, 178086, Note_on_c, 1, 39, 112
1, 178142, Note_on_c, 2, 64, 0
1, 178150, Note_on_c, 2, 59, 0
1, 178156, Note_on_c, 2, 68, 0
1, 178166, Note_on_c, 1, 39, 0
1, 178170, Note_on_c, 1, 37, 109
1, 178170, Note_on_c, 2, 68, 102
1, 178170, Note_on_c, 9, 36, 122
1, 178170, Note_on_c, 15, 68, 112
1, 178172, Note_on_c, 9, 63, 83
1, 178174, Note_on_c, 9, 36, 0
1, 178176, Note_on_c, 9, 63, 0
1, 178176, Note_on_c, 4, 64, 60
1, 178176, Note_on_c, 9, 42, 56
1, 178176, Note_on_c, 13, 68, 110
1, 178176, Control_c, 14, 1, 28
1, 178176, Pitch_bend_c, 14, 7296
1, 178176, Control_c, 15, 1, 28
1, 178176, Pitch_bend_c, 15, 7296
1, 178180, Note_on_c, 9, 42, 0
1, 178180, Note_on_c, 2, 59, 102
1, 178180, Note_on_c, 9, 69, 32
1, 178182, Note_on_c, 2, 64, 99
1, 178182, Note_on_c, 14, 76, 118
1, 178184, Note_on_c, 9, 69, 0
1, 178184, Note_on_c, 4, 59, 65
1, 178184, Pitch_bend_c, 14, 7360
1, 178184, Pitch_bend_c, 15, 7360
1, 178188, Pitch_bend_c, 14, 7424
1, 178188, Pitch_bend_c, 15, 7424
1, 178190, Note_on_c, 13, 64, 112
1, 178192, Pitch_bend_c, 14, 7488
1, 178192, Pitch_bend_c, 15, 7488
1, 178196, Pitch_bend_c, 14, 7552
1, 178196, Pitch_bend_c, 15, 7552
1, 178200, Pitch_bend_c, 14, 7616
1, 178200, Pitch_bend_c, 15, 7616
1, 178204, Pitch_bend_c, 14, 7680
1, 178204, Pitch_bend_c, 15, 7680
1, 178208, Pitch_bend_c, 14, 7744
1, 178208, Pitch_bend_c, 15, 7744
1, 178212, Pitch_bend_c, 14, 7808
1, 178212, Pitch_bend_c, 15, 7808
1, 178216, Pitch_bend_c, 14, 7872
1, 178216, Pitch_bend_c, 15, 7872
1, 178220, Pitch_bend_c, 14, 7936
1, 178220, Pitch_bend_c, 15, 7936
1, 178224, Pitch_bend_c, 14, 8000
1, 178224, Pitch_bend_c, 15, 8000
1, 178228, Pitch_bend_c, 14, 8064
1, 178228, Pitch_bend_c, 15, 8064
1, 178230, Note_on_c, 4, 64, 0
1, 178232, Pitch_bend_c, 14, 8128
1, 178232, Pitch_bend_c, 15, 8128
1, 178236, Pitch_bend_c, 14, 8192
1, 178236, Pitch_bend_c, 15, 8192
1, 178238, Note_on_c, 4, 59, 0
1, 178264, Note_on_c, 9, 63, 88
1, 178266, Note_on_c, 9, 69, 36
1, 178268, Note_on_c, 9, 63, 0
1, 178268, Note_on_c, 4, 64, 95
1, 178270, Note_on_c, 9, 69, 0
1, 178272, Note_on_c, 9, 44, 52
1, 178275, Control_c, 14, 1, 70
1, 178275, Control_c, 15, 1, 70
1, 178276, Note_on_c, 9, 44, 0
1, 178278, Note_on_c, 4, 68, 94
1, 178280, Note_on_c, 4, 59, 96
1, 178366, Note_on_c, 9, 69, 38
1, 178368, Note_on_c, 8, 83, 79
1, 178368, Note_on_c, 9, 42, 52
1, 178370, Note_on_c, 9, 69, 0
1, 178372, Note_on_c, 9, 42, 0
1, 178392, Control_c, 14, 1, 55
1, 178392, Control_c, 15, 1, 55
1, 178448, Note_on_c, 4, 64, 0
1, 178454, Note_on_c, 4, 68, 0
1, 178454, Note_on_c, 4, 68, 60
1, 178456, Note_on_c, 8, 83, 0
1, 178460, Note_on_c, 4, 59, 0
1, 178462, Note_on_c, 4, 59, 68
1, 178464, Note_on_c, 9, 44, 50
1, 178466, Note_on_c, 9, 69, 38
1, 178468, Note_on_c, 9, 44, 0
1, 178468, Note_on_c, 4, 64, 68
1, 178470, Note_on_c, 9, 69, 0
1, 178479, Control_c, 14, 1, 37
1, 178479, Control_c, 15, 1, 37
1, 178508, Note_on_c, 4, 68, 0
1, 178516, Note_on_c, 4, 59, 0
1, 178522, Note_on_c, 4, 64, 0
1, 178530, Note_on_c, 15, 68, 0
1, 178536, Note_on_c, 13, 68, 0
1, 178542, Note_on_c, 14, 76, 0
1, 178550, Note_on_c, 13, 64, 0
1, 178552, Note_on_c, 8, 81, 78
1, 178552, Note_on_c, 9, 42, 50
1, 178556, Note_on_c, 9, 42, 0
1, 178558, Note_on_c, 9, 69, 32
1, 178560, Note_on_c, 9, 64, 85
1, 178562, Note_on_c, 9, 69, 0
1, 178562, Note_on_c, 9, 38, 123
1, 178564, Note_on_c, 9, 64, 0
1, 178566, Note_on_c, 9, 38, 0
1, 178630, Note_on_c, 1, 37, 0
1, 178640, Note_on_c, 8, 81, 0
1, 178647, Control_c, 14, 1, 15
1, 178647, Control_c, 15, 1, 15
1, 178650, Note_on_c, 1, 32, 112
1, 178652, Note_on_c, 9, 44, 52
1, 178656, Note_on_c, 9, 44, 0
1, 178658, Note_on_c, 9, 69, 37
1, 178662, Note_on_c, 9, 69, 0
1, 178730, Note_on_c, 1, 32, 0
1, 178744, Note_on_c, 15, 59, 112
1, 178746, Note_on_c, 13, 59, 103
1, 178748, Note_on_c, 9, 36, 103
1, 178748, Note_on_c, 9, 42, 59
1, 178748, Note_on_c, 14, 71, 110
1, 178752, Note_on_c, 9, 42, 0
1, 178752, Note_on_c, 9, 36, 0
1, 178756, Note_on_c, 5, 71, 65
1, 178756, Note_on_c, 8, 80, 75
1, 178758, Note_on_c, 9, 69, 29
1, 178760, Note_on_c, 1, 37, 114
1, 178762, Note_on_c, 9, 69, 0
1, 178832, Note_on_c, 5, 71, 0
1, 178842, Note_on_c, 9, 69, 30
1, 178844, Note_on_c, 8, 80, 0
1, 178846, Note_on_c, 9, 69, 0
1, 178850, Note_on_c, 9, 36, 108
1, 178852, Note_on_c, 9, 46, 103
1, 178854, Note_on_c, 9, 36, 0
1, 178854, Note_on_c, 5, 71, 66
1, 178854, Note_on_c, 9, 63, 86
1, 178856, Note_on_c, 9, 46, 0
1, 178858, Note_on_c, 9, 63, 0
1, 178924, Note_on_c, 15, 59, 0
1, 178926, Note_on_c, 13, 59, 0
1, 178928, Note_on_c, 14, 71, 0
1, 178930, Note_on_c, 5, 71, 0
1, 178932, Note_on_c, 1, 37, 0
1, 178932, Note_on_c, 1, 37, 115
1, 178938, Note_on_c, 9, 42, 50
1, 178938, Note_on_c, 15, 68, 109
1, 178940, Note_on_c, 14, 76, 117
1, 178942, Note_on_c, 9, 42, 0
1, 178944, Pitch_bend_c, 14, 7296
1, 178946, Note_on_c, 9, 69, 32
1, 178948, Note_on_c, 8, 78, 82
1, 178950, Note_on_c, 9, 69, 0
1, 178952, Note_on_c, 5, 71, 67
1, 178952, Pitch_bend_c, 14, 7360
1, 178956, Pitch_bend_c, 14, 7424
1, 178958, Note_on_c, 13, 64, 109
1, 178960, Note_on_c, 13, 68, 104
1, 178960, Pitch_bend_c, 14, 7488
1, 178964, Pitch_bend_c, 14, 7552
1, 178968, Pitch_bend_c, 14, 7616
1, 178972, Pitch_bend_c, 14, 7680
1, 178976, Pitch_bend_c, 14, 7744
1, 178980, Pitch_bend_c, 14, 7808
1, 178984, Pitch_bend_c, 14, 7872
1, 178988, Pitch_bend_c, 14, 7936
1, 178992, Pitch_bend_c, 14, 8000
1, 178996, Pitch_bend_c, 14, 8064
1, 179000, Pitch_bend_c, 14, 8128
1, 179004, Pitch_bend_c, 14, 8192
1, 179028, Note_on_c, 5, 71, 0
1, 179032, Note_on_c, 5, 71, 71
1, 179034, Note_on_c, 9, 44, 58
1, 179036, Note_on_c, 8, 78, 0
1, 179038, Note_on_c, 9, 44, 0
1, 179038, Note_on_c, 9, 62, 82
1, 179042, Note_on_c, 9, 62, 0
1, 179042, Note_on_c, 9, 69, 31
1, 179046, Note_on_c, 9, 69, 0
1, 179108, Note_on_c, 5, 71, 0
1, 179126, Note_on_c, 8, 76, 79
1, 179132, Note_on_c, 9, 69, 33
1, 179136, Note_on_c, 9, 69, 0
1, 179138, Note_on_c, 4, 64, 94
1, 179138, Note_on_c, 4, 68, 96
1, 179138, Note_on_c, 9, 64, 81
1, 179140, Note_on_c, 9, 42, 59
1, 179142, Note_on_c, 9, 64, 0
1, 179144, Note_on_c, 9, 42, 0
1, 179192, Note_on_c, 1, 37, 0
1, 179198, Note_on_c, 15, 68, 0
1, 179200, Note_on_c, 14, 76, 0
1, 179214, Note_on_c, 8, 76, 0
1, 179218, Note_on_c, 13, 64, 0
1, 179220, Note_on_c, 13, 68, 0
1, 179224, Note_on_c, 1, 37, 113
1, 179226, Note_on_c, 9, 44, 57
1, 179228, Note_on_c, 13, 66, 105
1, 179230, Note_on_c, 9, 44, 0
1, 179230, Note_on_c, 4, 69, 65
1, 179230, Note_on_c, 9, 69, 37
1, 179230, Note_on_c, 13, 69, 103
1, 179234, Note_on_c, 9, 69, 0
1, 179234, Note_on_c, 14, 78, 116
1, 179234, Note_on_c, 15, 69, 112
1, 179284, Note_on_c, 4, 69, 0
1, 179304, Note_on_c, 1, 37, 0
1, 179326, Note_on_c, 9, 42, 59
1, 179330, Note_on_c, 9, 42, 0
1, 179330, Note_on_c, 9, 38, 121
1, 179334, Note_on_c, 9, 38, 0
1, 179334, Note_on_c, 1, 35, 114
1, 179334, Note_on_c, 8, 78, 78
1, 179334, Note_on_c, 9, 69, 37
1, 179338, Note_on_c, 9, 69, 0
1, 179414, Note_on_c, 1, 35, 0
1, 179416, Note_on_c, 9, 44, 57
1, 179420, Note_on_c, 9, 44, 0
1, 179420, Note_on_c, 9, 69, 32
1, 179422, Note_on_c, 8, 78, 0
1, 179424, Note_on_c, 9, 69, 0
1, 179432, Note_on_c, 1, 35, 109
1, 179488, Note_on_c, 13, 66, 0
1, 179490, Note_on_c, 13, 69, 0
1, 179494, Note_on_c, 15, 69, 0
1, 179494, Note_on_c, 14, 78, 0
1, 179508, Note_on_c, 1, 37, 116
1, 179512, Note_on_c, 1, 35, 0
1, 179516, Note_on_c, 14, 80, 111
1, 179520, Note_on_c, 8, 80, 74
1, 179520, Note_on_c, 15, 71, 107
1, 179524, Note_on_c, 9, 42, 54
1, 179524, Note_on_c, 9, 69, 32
1, 179524, Note_on_c, 13, 71, 112
1, 179528, Note_on_c, 9, 69, 0
1, 179528, Note_on_c, 9, 42, 0
1, 179528, Note_on_c, 13, 68, 103
1, 179608, Note_on_c, 8, 80, 0
1, 179612, Note_on_c, 9, 44, 50
1, 179614, Note_on_c, 9, 69, 31
1, 179616, Note_on_c, 9, 44, 0
1, 179618, Note_on_c, 9, 69, 0
1, 179618, Note_on_c, 9, 36, 116
1, 179622, Note_on_c, 9, 36, 0
1, 179658, Note_on_c, 7, 71, 0
1, 179672, Note_on_c, 7, 59, 0
1, 179678, Note_on_c, 4, 68, 0
1, 179678, Note_on_c, 4, 64, 0
1, 179682, Note_on_c, 2, 68, 0
1, 179688, Note_on_c, 1, 37, 0
1, 179692, Note_on_c, 6, 56, 0
1, 179692, Note_on_c, 2, 59, 0
1, 179694, Note_on_c, 2, 64, 0
1, 179696, Note_on_c, 14, 80, 0
1, 179700, Note_on_c, 15, 71, 0
1, 179702, Note_on_c, 2, 57, 96
1, 179702, Note_on_c, 2, 62, 103
1, 179704, Note_on_c, 13, 71, 0
1, 179704, Note_on_c, 9, 36, 121
1, 179704, Note_on_c, 14, 81, 115
1, 179706, Note_on_c, 9, 42, 50
1, 179706, Note_on_c, 15, 73, 103
1, 179708, Note_on_c, 9, 36, 0
1, 179708, Note_on_c, 13, 68, 0
1, 179708, Note_on_c, 6, 64, 0
1, 179708, Note_on_c, 6, 59, 0
1, 179708, Note_on_c, 4, 62, 63
1, 179708, Note_on_c, 7, 69, 80
1, 179710, Note_on_c, 9, 42, 0
1, 179710, Note_on_c, 13, 73, 103
1, 179714, Note_on_c, 4, 57, 67
1, 179714, Note_on_c, 6, 54, 65
1, 179716, Note_on_c, 2, 66, 94
1, 179716, Note_on_c, 9, 69, 33
1, 179718, Note_on_c, 1, 38, 112
1, 179718, Note_on_c, 6, 57, 72
1, 179718, Note_on_c, 9, 63, 86
1, 179720, Note_on_c, 9, 69, 0
1, 179720, Note_on_c, 7, 81, 82
1, 179722, Note_on_c, 9, 63, 0
1, 179722, Note_on_c, 6, 62, 67
1, 179728, Note_on_c, 13, 69, 110
1, 179762, Note_on_c, 4, 62, 0
1, 179768, Note_on_c, 4, 57, 0
1, 179790, Note_on_c, 13, 73, 0
1, 179798, Note_on_c, 4, 62, 95
1, 179800, Note_on_c, 9, 63, 84
1, 179802, Note_on_c, 14, 80, 117
1, 179804, Note_on_c, 9, 63, 0
1, 179804, Note_on_c, 9, 69, 34
1, 179804, Note_on_c, 15, 71, 107
1, 179806, Note_on_c, 13, 71, 109
1, 179808, Note_on_c, 9, 69, 0
1, 179808, Note_on_c, 14, 81, 0
1, 179808, Note_on_c, 13, 69, 0
1, 179810, Note_on_c, 15, 73, 0
1, 179810, Note_on_c, 4, 57, 102
1, 179814, Note_on_c, 4, 66, 100
1, 179814, Note_on_c, 9, 44, 55
1, 179814, Note_on_c, 13, 68, 104
1, 179818, Note_on_c, 9, 44, 0
1, 179886, Note_on_c, 13, 71, 0
1, 179894, Note_on_c, 13, 68, 0
1, 179896, Note_on_c, 15, 69, 112
1, 179900, Note_on_c, 8, 81, 75
1, 179900, Note_on_c, 9, 69, 36
1, 179900, Note_on_c, 14, 78, 112
1, 179904, Note_on_c, 9, 69, 0
1, 179904, Note_on_c, 13, 69, 112
1, 179904, Control_c, 14, 1, 28
1, 179904, Control_c, 15, 1, 28
1, 179906, Note_on_c, 14, 80, 0
1, 179908, Note_on_c, 15, 71, 0
1, 179908, Note_on_c, 9, 42, 55
1, 179912, Note_on_c, 9, 42, 0
1, 179920, Note_on_c, 13, 66, 106
1, 179978, Note_on_c, 4, 62, 0
1, 179988, Note_on_c, 8, 81, 0
1, 179990, Note_on_c, 4, 57, 0
1, 179992, Note_on_c, 4, 57, 59
1, 179994, Note_on_c, 4, 66, 0
1, 179994, Note_on_c, 4, 66, 62
1, 179996, Note_on_c, 4, 62, 62
1, 180002, Note_on_c, 9, 69, 29
1, 180003, Control_c, 14, 1, 70
1, 180003, Control_c, 15, 1, 70
1, 180004, Note_on_c, 9, 44, 55
1, 180006, Note_on_c, 9, 69, 0
1, 180008, Note_on_c, 9, 44, 0
1, 180046, Note_on_c, 4, 57, 0
1, 180048, Note_on_c, 4, 66, 0
1, 180050, Note_on_c, 4, 62, 0
1, 180088, Note_on_c, 9, 42, 55
1, 180090, Note_on_c, 9, 38, 121
1, 180090, Note_on_c, 9, 69, 33
1, 180092, Note_on_c, 9, 42, 0
1, 180094, Note_on_c, 9, 69, 0
1, 180094, Note_on_c, 9, 38, 0
1, 180094, Note_on_c, 9, 64, 80
1, 180096, Note_on_c, 8, 80, 76
1, 180098, Note_on_c, 9, 64, 0
1, 180120, Control_c, 14, 1, 55
1, 180120, Control_c, 15, 1, 55
1, 180184, Note_on_c, 8, 80, 0
1, 180194, Note_on_c, 9, 44, 53
1, 180198, Note_on_c, 9, 44, 0
1, 180198, Note_on_c, 9, 69, 29
1, 180202, Note_on_c, 9, 69, 0
1, 180207, Control_c, 14, 1, 37
1, 180207, Control_c, 15, 1, 37
1, 180258, Note_on_c, 1, 38, 0
1, 180280, Note_on_c, 5, 74, 69
1, 180280, Note_on_c, 9, 69, 34
1, 180282, Note_on_c, 8, 78, 75
1, 180282, Note_on_c, 9, 36, 109
1, 180284, Note_on_c, 9, 69, 0
1, 180286, Note_on_c, 9, 36, 0
1, 180286, Note_on_c, 1, 38, 117
1, 180286, Note_on_c, 9, 42, 55
1, 180290, Note_on_c, 9, 42, 0
1, 180356, Note_on_c, 5, 74, 0
1, 180370, Note_on_c, 8, 78, 0
1, 180375, Control_c, 14, 1, 15
1, 180375, Control_c, 15, 1, 15
1, 180376, Note_on_c, 9, 46, 106
1, 180380, Note_on_c, 9, 46, 0
1, 180382, Note_on_c, 9, 69, 38
1, 180386, Note_on_c, 9, 69, 0
1, 180386, Note_on_c, 5, 74, 67
1, 180386, Note_on_c, 9, 63, 80
1, 180388, Note_on_c, 9, 36, 105
1, 180390, Note_on_c, 9, 63, 0
1, 180392, Note_on_c, 9, 36, 0
1, 180436, Note_on_c, 15, 69, 0
1, 180440, Note_on_c, 14, 78, 0
1, 180444, Note_on_c, 13, 69, 0
1, 180460, Note_on_c, 13, 66, 0
1, 180462, Note_on_c, 5, 74, 0
1, 180466, Note_on_c, 1, 38, 0
1, 180472, Note_on_c, 8, 76, 80
1, 180476, Note_on_c, 9, 69, 31
1, 180480, Note_on_c, 9, 69, 0
1, 180486, Note_on_c, 5, 69, 67
1, 180486, Note_on_c, 9, 42, 59
1, 180490, Note_on_c, 9, 42, 0
1, 180490, Note_on_c, 1, 38, 118
1, 180560, Note_on_c, 8, 76, 0
1, 180562, Note_on_c, 5, 69, 0
1, 180570, Note_on_c, 9, 69, 37
1, 180572, Note_on_c, 9, 62, 83
1, 180574, Note_on_c, 9, 69, 0
1, 180574, Note_on_c, 9, 44, 59
1, 180576, Note_on_c, 9, 62, 0
1, 180578, Note_on_c, 9, 44, 0
1, 180582, Note_on_c, 5, 71, 73
1, 180658, Note_on_c, 5, 71, 0
1, 180664, Note_on_c, 15, 59, 110
1, 180666, Note_on_c, 8, 75, 83
1, 180668, Note_on_c, 9, 64, 87
1, 180668, Note_on_c, 13, 59, 111
1, 180672, Note_on_c, 9, 64, 0
1, 180674, Note_on_c, 9, 69, 34
1, 180676, Note_on_c, 9, 42, 53
1, 180676, Note_on_c, 14, 71, 116
1, 180678, Note_on_c, 9, 69, 0
1, 180680, Note_on_c, 9, 42, 0
1, 180680, Note_on_c, 5, 71, 69
1, 180750, Note_on_c, 1, 38, 0
1, 180754, Note_on_c, 8, 75, 0
1, 180756, Note_on_c, 5, 71, 0
1, 180760, Note_on_c, 4, 57, 68
1, 180760, Note_on_c, 9, 44, 56
1, 180762, Note_on_c, 4, 66, 68
1, 180764, Note_on_c, 9, 44, 0
1, 180768, Note_on_c, 4, 62, 67
1, 180770, Note_on_c, 9, 69, 30
1, 180772, Note_on_c, 1, 33, 113
1, 180774, Note_on_c, 9, 69, 0
1, 180814, Note_on_c, 4, 57, 0
1, 180816, Note_on_c, 4, 66, 0
1, 180822, Note_on_c, 4, 62, 0
1, 180844, Note_on_c, 15, 59, 0
1, 180848, Note_on_c, 13, 59, 0
1, 180850, Note_on_c, 1, 35, 113
1, 180852, Note_on_c, 1, 33, 0
1, 180854, Note_on_c, 8, 76, 83
1, 180856, Note_on_c, 14, 71, 0
1, 180856, Note_on_c, 9, 69, 32
1, 180856, Note_on_c, 13, 59, 109
1, 180858, Note_on_c, 9, 42, 54
1, 180858, Note_on_c, 14, 71, 116
1, 180860, Note_on_c, 9, 69, 0
1, 180862, Note_on_c, 9, 42, 0
1, 180862, Note_on_c, 15, 59, 106
1, 180864, Note_on_c, 9, 38, 125
1, 180868, Note_on_c, 9, 38, 0
1, 180868, Note_on_c, 5, 64, 71
1, 180942, Note_on_c, 8, 76, 0
1, 180944, Note_on_c, 5, 64, 0
1, 180946, Note_on_c, 1, 35, 0
1, 180956, Note_on_c, 1, 38, 118
1, 180956, Note_on_c, 9, 69, 33
1, 180958, Note_on_c, 5, 64, 69
1, 180958, Note_on_c, 9, 44, 53
1, 180960, Note_on_c, 9, 69, 0
1, 180962, Note_on_c, 9, 44, 0
1, 181034, Note_on_c, 5, 64, 0
1, 181036, Note_on_c, 13, 59, 0
1, 181038, Note_on_c, 14, 71, 0
1, 181042, Note_on_c, 15, 59, 0
1, 181050, Note_on_c, 1, 35, 113
1, 181050, Note_on_c, 9, 69, 29
1, 181050, Note_on_c, 13, 69, 107
1, 181052, Note_on_c, 1, 38, 0
1, 181054, Note_on_c, 9, 69, 0
1, 181054, Note_on_c, 8, 78, 80
1, 181054, Note_on_c, 15, 73, 110
1, 181056, Control_c, 14, 1, 28
1, 181056, Control_c, 15, 1, 28
1, 181056, Pitch_bend_c, 15, 7296
1, 181058, Note_on_c, 14, 81, 112
1, 181062, Note_on_c, 9, 42, 56
1, 181062, Note_on_c, 13, 73, 109
1, 181064, Note_on_c, 5, 64, 73
1, 181064, Pitch_bend_c, 15, 7360
1, 181066, Note_on_c, 9, 42, 0
1, 181068, Pitch_bend_c, 15, 7424
1, 181072, Pitch_bend_c, 15, 7488
1, 181076, Pitch_bend_c, 15, 7552
1, 181080, Pitch_bend_c, 15, 7616
1, 181084, Pitch_bend_c, 15, 7680
1, 181088, Pitch_bend_c, 15, 7744
1, 181092, Pitch_bend_c, 15, 7808
1, 181096, Pitch_bend_c, 15, 7872
1, 181100, Pitch_bend_c, 15, 7936
1, 181104, Pitch_bend_c, 15, 8000
1, 181108, Pitch_bend_c, 15, 8064
1, 181112, Pitch_bend_c, 15, 8128
1, 181116, Pitch_bend_c, 15, 8192
1, 181130, Note_on_c, 1, 35, 0
1, 181140, Note_on_c, 5, 64, 0
1, 181142, Note_on_c, 8, 78, 0
1, 181148, Note_on_c, 9, 36, 118
1, 181150, Note_on_c, 9, 44, 58
1, 181152, Note_on_c, 9, 36, 0
1, 181154, Note_on_c, 9, 44, 0
1, 181154, Note_on_c, 9, 69, 38
1, 181155, Control_c, 14, 1, 70
1, 181155, Control_c, 15, 1, 70
1, 181158, Note_on_c, 9, 69, 0
1, 181164, Note_on_c, 1, 33, 117
1, 181214, Note_on_c, 2, 57, 0
1, 181214, Note_on_c, 2, 62, 0
1, 181228, Note_on_c, 2, 66, 0
1, 181238, Note_on_c, 4, 57, 65
1, 181240, Note_on_c, 2, 57, 95
1, 181240, Note_on_c, 2, 66, 102
1, 181242, Note_on_c, 9, 36, 119
1, 181244, Note_on_c, 1, 33, 0
1, 181244, Note_on_c, 9, 63, 82
1, 181246, Note_on_c, 9, 36, 0
1, 181246, Note_on_c, 1, 38, 118
1, 181246, Note_on_c, 9, 42, 58
1, 181246, Note_on_c, 9, 69, 34
1, 181248, Note_on_c, 9, 63, 0
1, 181250, Note_on_c, 9, 69, 0
1, 181250, Note_on_c, 9, 42, 0
1, 181252, Note_on_c, 2, 62, 103
1, 181256, Note_on_c, 4, 62, 98
1, 181272, Control_c, 14, 1, 55
1, 181272, Control_c, 15, 1, 55
1, 181292, Note_on_c, 4, 57, 0
1, 181334, Note_on_c, 4, 62, 0
1, 181334, Note_on_c, 4, 62, 95
1, 181336, Note_on_c, 9, 63, 83
1, 181338, Note_on_c, 4, 57, 103
1, 181340, Note_on_c, 9, 63, 0
1, 181340, Note_on_c, 9, 69, 35
1, 181344, Note_on_c, 9, 69, 0
1, 181344, Note_on_c, 9, 44, 57
1, 181346, Note_on_c, 4, 66, 98
1, 181348, Note_on_c, 9, 44, 0
1, 181359, Control_c, 14, 1, 37
1, 181359, Control_c, 15, 1, 37
1, 181432, Note_on_c, 9, 42, 59
1, 181436, Note_on_c, 9, 42, 0
1, 181438, Note_on_c, 9, 69, 35
1, 181440, Note_on_c, 8, 81, 76
1, 181442, Note_on_c, 9, 69, 0
1, 181514, Note_on_c, 4, 62, 0
1, 181518, Note_on_c, 4, 57, 0
1, 181526, Note_on_c, 4, 66, 0
1, 181527, Control_c, 14, 1, 15
1, 181527, Control_c, 15, 1, 15
1, 181528, Note_on_c, 8, 81, 0
1, 181528, Note_on_c, 9, 44, 55
1, 181530, Note_on_c, 4, 57, 66
1, 181530, Note_on_c, 4, 62, 68
1, 181532, Note_on_c, 9, 44, 0
1, 181538, Note_on_c, 4, 66, 60
1, 181540, Note_on_c, 9, 69, 36
1, 181544, Note_on_c, 9, 69, 0
1, 181584, Note_on_c, 4, 62, 0
1, 181584, Note_on_c, 4, 57, 0
1, 181590, Note_on_c, 13, 69, 0
1, 181592, Note_on_c, 4, 66, 0
1, 181594, Note_on_c, 15, 73, 0
1, 181598, Note_on_c, 14, 81, 0
1, 181602, Note_on_c, 13, 73, 0
1, 181624, Note_on_c, 8, 80, 83
1, 181624, Note_on_c, 13, 69, 103
1, 181626, Note_on_c, 9, 64, 88
1, 181626, Note_on_c, 9, 69, 35
1, 181630, Note_on_c, 9, 69, 0
1, 181630, Note_on_c, 9, 64, 0
1, 181632, Pitch_bend_c, 14, 7296
1, 181632, Note_on_c, 14, 81, 116
1, 181632, Pitch_bend_c, 15, 7296
1, 181634, Note_on_c, 9, 38, 121
1, 181634, Note_on_c, 13, 73, 112
1, 181636, Note_on_c, 9, 42, 55
1, 181636, Note_on_c, 15, 73, 104
1, 181638, Note_on_c, 9, 38, 0
1, 181640, Note_on_c, 9, 42, 0
1, 181640, Pitch_bend_c, 14, 7360
1, 181640, Pitch_bend_c, 15, 7360
1, 181644, Pitch_bend_c, 14, 7424
1, 181644, Pitch_bend_c, 15, 7424
1, 181648, Pitch_bend_c, 14, 7488
1, 181648, Pitch_bend_c, 15, 7488
1, 181652, Pitch_bend_c, 14, 7552
1, 181652, Pitch_bend_c, 15, 7552
1, 181656, Pitch_bend_c, 14, 7616
1, 181656, Pitch_bend_c, 15, 7616
1, 181660, Pitch_bend_c, 14, 7680
1, 181660, Pitch_bend_c, 15, 7680
1, 181664, Pitch_bend_c, 14, 7744
1, 181664, Pitch_bend_c, 15, 7744
1, 181668, Pitch_bend_c, 14, 7808
1, 181668, Pitch_bend_c, 15, 7808
1, 181672, Pitch_bend_c, 14, 7872
1, 181672, Pitch_bend_c, 15, 7872
1, 181676, Pitch_bend_c, 14, 7936
1, 181676, Pitch_bend_c, 15, 7936
1, 181680, Pitch_bend_c, 14, 8000
1, 181680, Pitch_bend_c, 15, 8000
1, 181684, Pitch_bend_c, 14, 8064
1, 181684, Pitch_bend_c, 15, 8064
1, 181688, Pitch_bend_c, 14, 8128
1, 181688, Pitch_bend_c, 15, 8128
1, 181692, Pitch_bend_c, 14, 8192
1, 181692, Pitch_bend_c, 15, 8192
1, 181712, Note_on_c, 8, 80, 0
1, 181726, Note_on_c, 9, 69, 36
1, 181730, Note_on_c, 9, 69, 0
1, 181734, Note_on_c, 9, 44, 55
1, 181738, Note_on_c, 9, 44, 0
1, 181786, Note_on_c, 1, 38, 0
1, 181804, Note_on_c, 13, 69, 0
1, 181812, Note_on_c, 14, 81, 0
1, 181814, Note_on_c, 13, 73, 0
1, 181816, Note_on_c, 15, 73, 0
1, 181816, Note_on_c, 13, 71, 104
1, 181818, Note_on_c, 9, 36, 105
1, 181820, Note_on_c, 8, 78, 74
1, 181820, Note_on_c, 9, 42, 52
1, 181820, Note_on_c, 9, 69, 31
1, 181822, Note_on_c, 9, 36, 0
1, 181824, Note_on_c, 9, 69, 0
1, 181824, Note_on_c, 9, 42, 0
1, 181824, Note_on_c, 1, 38, 109
1, 181828, Note_on_c, 15, 71, 106
1, 181830, Note_on_c, 14, 80, 114
1, 181832, Note_on_c, 13, 68, 105
1, 181908, Note_on_c, 8, 78, 0
1, 181914, Note_on_c, 9, 36, 107
1, 181916, Note_on_c, 9, 46, 106
1, 181916, Note_on_c, 9, 63, 79
1, 181918, Note_on_c, 9, 36, 0
1, 181920, Note_on_c, 9, 63, 0
1, 181920, Note_on_c, 9, 46, 0
1, 181924, Note_on_c, 4, 52, 96
1, 181924, Note_on_c, 9, 69, 32
1, 181928, Note_on_c, 9, 69, 0
1, 182004, Note_on_c, 1, 38, 0
1, 182006, Note_on_c, 1, 38, 115
1, 182010, Note_on_c, 9, 42, 59
1, 182010, Note_on_c, 9, 69, 35
1, 182014, Note_on_c, 9, 69, 0
1, 182014, Note_on_c, 9, 42, 0
1, 182024, Note_on_c, 8, 76, 77
1, 182104, Note_on_c, 4, 52, 0
1, 182106, Note_on_c, 9, 69, 35
1, 182110, Note_on_c, 9, 69, 0
1, 182112, Note_on_c, 8, 76, 0
1, 182112, Note_on_c, 9, 62, 80
1, 182112, Note_on_c, 9, 44, 59
1, 182116, Note_on_c, 9, 44, 0
1, 182116, Note_on_c, 9, 62, 0
1, 182116, Note_on_c, 4, 52, 68
1, 182170, Note_on_c, 4, 52, 0
1, 182176, Note_on_c, 13, 71, 0
1, 182188, Note_on_c, 15, 71, 0
1, 182190, Note_on_c, 14, 80, 0
1, 182192, Note_on_c, 13, 68, 0
1, 182200, Note_on_c, 14, 78, 111
1, 182202, Note_on_c, 13, 69, 109
1, 182204, Note_on_c, 9, 42, 53
1, 182204, Note_on_c, 9, 69, 37
1, 182208, Note_on_c, 9, 69, 0
1, 182208, Note_on_c, 9, 42, 0
1, 182208, Note_on_c, 15, 69, 112
1, 182210, Note_on_c, 8, 75, 76
1, 182210, Note_on_c, 9, 64, 80
1, 182214, Note_on_c, 9, 64, 0
1, 182214, Note_on_c, 4, 54, 94
1, 182222, Note_on_c, 13, 66, 106
1, 182266, Note_on_c, 1, 38, 0
1, 182296, Note_on_c, 9, 44, 53
1, 182298, Note_on_c, 8, 75, 0
1, 182300, Note_on_c, 9, 44, 0
1, 182300, Note_on_c, 9, 69, 34
1, 182304, Note_on_c, 9, 69, 0
1, 182316, Note_on_c, 1, 35, 116
1, 182360, Note_on_c, 2, 57, 0
1, 182360, Note_on_c, 2, 66, 0
1, 182372, Note_on_c, 2, 62, 0
1, 182380, Note_on_c, 14, 78, 0
1, 182382, Note_on_c, 13, 69, 0
1, 182388, Note_on_c, 15, 69, 0
1, 182392, Note_on_c, 4, 56, 97
1, 182394, Note_on_c, 4, 54, 0
1, 182394, Note_on_c, 2, 66, 102
1, 182396, Note_on_c, 1, 35, 0
1, 182396, Note_on_c, 1, 33, 116
1, 182396, Note_on_c, 2, 57, 102
1, 182398, Note_on_c, 8, 76, 79
1, 182398, Note_on_c, 9, 42, 59
1, 182398, Note_on_c, 9, 69, 37
1, 182400, Note_on_c, 9, 38, 121
1, 182402, Note_on_c, 9, 69, 0
1, 182402, Note_on_c, 9, 42, 0
1, 182402, Note_on_c, 13, 66, 0
1, 182402, Note_on_c, 2, 62, 97
1, 182404, Note_on_c, 9, 38, 0
1, 182404, Note_on_c, 13, 64, 107
1, 182404, Note_on_c, 15, 68, 104
1, 182406, Note_on_c, 14, 76, 112
1, 182408, Note_on_c, 13, 68, 104
1, 182486, Note_on_c, 8, 76, 0
1, 182486, Note_on_c, 1, 35, 116
1, 182488, Note_on_c, 9, 44, 51
1, 182490, Note_on_c, 9, 69, 35
1, 182492, Note_on_c, 9, 44, 0
1, 182492, Note_on_c, 1, 33, 0
1, 182494, Note_on_c, 9, 69, 0
1, 182572, Note_on_c, 4, 56, 0
1, 182582, Note_on_c, 1, 35, 0
1, 182584, Note_on_c, 13, 64, 0
1, 182584, Note_on_c, 15, 68, 0
1, 182584, Note_on_c, 4, 59, 95
1, 182586, Note_on_c, 14, 76, 0
1, 182588, Note_on_c, 13, 68, 0
1, 182588, Note_on_c, 15, 69, 108
1, 182590, Note_on_c, 9, 69, 30
1, 182594, Note_on_c, 9, 69, 0
1, 182594, Note_on_c, 9, 42, 59
1, 182596, Note_on_c, 14, 78, 113
1, 182598, Note_on_c, 9, 42, 0
1, 182598, Note_on_c, 8, 78, 78
1, 182598, Note_on_c, 13, 69, 106
1, 182600, Note_on_c, 1, 38, 111
1, 182600, Note_on_c, 13, 66, 112
1, 182678, Note_on_c, 1, 40, 117
1, 182680, Note_on_c, 1, 38, 0
1, 182682, Note_on_c, 9, 69, 31
1, 182686, Note_on_c, 9, 69, 0
1, 182686, Note_on_c, 8, 78, 0
1, 182686, Note_on_c, 9, 36, 116
1, 182690, Note_on_c, 9, 36, 0
1, 182690, Note_on_c, 9, 44, 52
1, 182694, Note_on_c, 9, 44, 0
1, 182748, Note_on_c, 7, 69, 0
1, 182754, Note_on_c, 2, 66, 0
1, 182756, Note_on_c, 2, 57, 0
1, 182758, Note_on_c, 1, 40, 0
1, 182760, Note_on_c, 7, 81, 0
1, 182762, Note_on_c, 2, 62, 0
1, 182764, Note_on_c, 4, 59, 0
1, 182768, Note_on_c, 15, 69, 0
1, 182772, Note_on_c, 1, 28, 117
1, 182774, Note_on_c, 6, 54, 0
1, 182776, Note_on_c, 14, 78, 0
1, 182776, Note_on_c, 2, 64, 96
1, 182776, Note_on_c, 9, 69, 35
1, 182778, Note_on_c, 6, 57, 0
1, 182778, Note_on_c, 13, 69, 0
1, 182778, Note_on_c, 4, 64, 62
1, 182778, Note_on_c, 7, 76, 81
1, 182778, Note_on_c, 15, 68, 112
1, 182780, Note_on_c, 13, 66, 0
1, 182780, Note_on_c, 9, 69, 0
1, 182780, Note_on_c, 4, 59, 66
1, 182780, Note_on_c, 6, 59, 73
1, 182780, Note_on_c, 9, 63, 84
1, 182780, Note_on_c, 14, 76, 116
1, 182782, Note_on_c, 6, 62, 0
1, 182782, Note_on_c, 13, 68, 105
1, 182784, Note_on_c, 9, 63, 0
1, 182784, Note_on_c, 9, 42, 56
1, 182788, Note_on_c, 9, 42, 0
1, 182788, Note_on_c, 9, 36, 122
1, 182790, Note_on_c, 2, 59, 95
1, 182790, Note_on_c, 2, 68, 97
1, 182790, Note_on_c, 6, 64, 65
1, 182792, Note_on_c, 9, 36, 0
1, 182792, Note_on_c, 6, 56, 64
1, 182796, Note_on_c, 7, 64, 75
1, 182800, Note_on_c, 13, 64, 106
1, 182832, Note_on_c, 4, 64, 0
1, 182834, Note_on_c, 4, 59, 0
1, 182870, Note_on_c, 4, 68, 95
1, 182872, Note_on_c, 9, 69, 32
1, 182874, Note_on_c, 4, 52, 97
1, 182874, Note_on_c, 9, 63, 83
1, 182876, Note_on_c, 9, 69, 0
1, 182878, Note_on_c, 9, 63, 0
1, 182884, Note_on_c, 9, 44, 55
1, 182886, Note_on_c, 4, 59, 99
1, 182888, Note_on_c, 9, 44, 0
1, 182968, Note_on_c, 9, 42, 50
1, 182972, Note_on_c, 9, 42, 0
1, 182974, Note_on_c, 8, 83, 81
1, 182978, Note_on_c, 9, 69, 33
1, 182982, Note_on_c, 9, 69, 0
1, 183050, Note_on_c, 4, 68, 0
1, 183054, Note_on_c, 4, 52, 0
1, 183062, Note_on_c, 8, 83, 0
1, 183064, Note_on_c, 9, 44, 53
1, 183066, Note_on_c, 4, 59, 0
1, 183068, Note_on_c, 9, 44, 0
1, 183068, Note_on_c, 4, 59, 61
1, 183070, Note_on_c, 4, 68, 61
1, 183072, Note_on_c, 4, 52, 63
1, 183072, Note_on_c, 9, 69, 36
1, 183076, Note_on_c, 9, 69, 0
1, 183122, Note_on_c, 4, 59, 0
1, 183124, Note_on_c, 4, 68, 0
1, 183126, Note_on_c, 4, 52, 0
1, 183132, Note_on_c, 1, 28, 0
1, 183138, Note_on_c, 15, 68, 0
1, 183140, Note_on_c, 14, 76, 0
1, 183142, Note_on_c, 13, 68, 0
1, 183160, Note_on_c, 13, 64, 0
1, 183164, Note_on_c, 9, 64, 79
1, 183168, Note_on_c, 9, 64, 0
1, 183168, Note_on_c, 8, 81, 80
1, 183168, Note_on_c, 9, 69, 36
1, 183172, Note_on_c, 9, 69, 0
1, 183172, Note_on_c, 9, 42, 53
1, 183174, Note_on_c, 9, 38, 125
1, 183176, Note_on_c, 9, 42, 0
1, 183178, Note_on_c, 9, 38, 0
1, 183256, Note_on_c, 8, 81, 0
1, 183256, Note_on_c, 9, 44, 56
1, 183260, Note_on_c, 9, 44, 0
1, 183266, Note_on_c, 9, 69, 32
1, 183270, Note_on_c, 9, 69, 0
1, 183352, Note_on_c, 9, 36, 108
1, 183356, Note_on_c, 9, 36, 0
1, 183356, Note_on_c, 1, 28, 109
1, 183356, Note_on_c, 5, 71, 65
1, 183356, Note_on_c, 8, 80, 81
1, 183364, Note_on_c, 9, 42, 58
1, 183364, Note_on_c, 9, 69, 37
1, 183368, Note_on_c, 9, 69, 0
1, 183368, Note_on_c, 9, 42, 0
1, 183432, Note_on_c, 5, 71, 0
1, 183444, Note_on_c, 8, 80, 0
1, 183450, Note_on_c, 5, 71, 70
1, 183456, Note_on_c, 9, 46, 100
1, 183458, Note_on_c, 9, 63, 81
1, 183460, Note_on_c, 9, 46, 0
1, 183462, Note_on_c, 9, 63, 0
1, 183462, Note_on_c, 9, 36, 109
1, 183462, Note_on_c, 9, 69, 31
1, 183466, Note_on_c, 9, 69, 0
1, 183466, Note_on_c, 9, 36, 0
1, 183526, Note_on_c, 5, 71, 0
1, 183536, Note_on_c, 1, 28, 0
1, 183548, Note_on_c, 5, 71, 65
1, 183550, Note_on_c, 1, 40, 113
1, 183552, Note_on_c, 9, 42, 52
1, 183552, Note_on_c, 9, 69, 33
1, 183556, Note_on_c, 9, 69, 0
1, 183556, Note_on_c, 9, 42, 0
1, 183558, Note_on_c, 8, 78, 76
1, 183624, Note_on_c, 5, 71, 0
1, 183640, Note_on_c, 5, 71, 72
1, 183646, Note_on_c, 8, 78, 0
1, 183646, Note_on_c, 9, 62, 81
1, 183648, Note_on_c, 9, 69, 34
1, 183650, Note_on_c, 9, 62, 0
1, 183652, Note_on_c, 9, 69, 0
1, 183652, Note_on_c, 9, 44, 55
1, 183656, Note_on_c, 9, 44, 0
1, 183716, Note_on_c, 5, 71, 0
1, 183736, Note_on_c, 9, 64, 79
1, 183740, Note_on_c, 9, 64, 0
1, 183740, Note_on_c, 14, 71, 114
1, 183742, Note_on_c, 9, 42, 59
1, 183746, Note_on_c, 9, 42, 0
1, 183746, Note_on_c, 9, 69, 29
1, 183748, Note_on_c, 8, 76, 79
1, 183750, Note_on_c, 9, 69, 0
1, 183750, Note_on_c, 13, 59, 111
1, 183750, Note_on_c, 15, 59, 103
1, 183810, Note_on_c, 1, 40, 0
1, 183832, Note_on_c, 9, 69, 33
1, 183836, Note_on_c, 9, 69, 0
1, 183836, Note_on_c, 8, 76, 0
1, 183836, Note_on_c, 4, 52, 64
1, 183838, Note_on_c, 9, 44, 58
1, 183840, Note_on_c, 4, 68, 59
1, 183842, Note_on_c, 9, 44, 0
1, 183842, Note_on_c, 4, 59, 66
1, 183844, Note_on_c, 5, 76, 65
1, 183852, Note_on_c, 1, 28, 109
1, 183890, Note_on_c, 4, 52, 0
1, 183890, Note_on_c, 7, 76, 0
1, 183894, Note_on_c, 4, 68, 0
1, 183896, Note_on_c, 4, 59, 0
1, 183900, Note_on_c, 7, 64, 0
1, 183920, Note_on_c, 14, 71, 0
1, 183920, Note_on_c, 5, 76, 0
1, 183924, Note_on_c, 7, 71, 78
1, 183926, Note_on_c, 1, 40, 113
1, 183928, Note_on_c, 15, 69, 104
1, 183930, Note_on_c, 15, 59, 0
1, 183930, Note_on_c, 13, 59, 0
1, 183932, Note_on_c, 1, 28, 0
1, 183934, Note_on_c, 13, 69, 103
1, 183936, Note_on_c, 9, 69, 38
1, 183936, Pitch_bend_c, 14, 7296
1, 183936, Pitch_bend_c, 15, 7296
1, 183938, Note_on_c, 9, 42, 54
1, 183938, Note_on_c, 13, 66, 107
1, 183938, Note_on_c, 14, 78, 117
1, 183940, Note_on_c, 9, 69, 0
1, 183940, Note_on_c, 7, 59, 74
1, 183940, Note_on_c, 9, 38, 116
1, 183942, Note_on_c, 9, 42, 0
1, 183944, Note_on_c, 9, 38, 0
1, 183944, Note_on_c, 8, 78, 80
1, 183944, Pitch_bend_c, 14, 7360
1, 183944, Pitch_bend_c, 15, 7360
1, 183948, Pitch_bend_c, 14, 7424
1, 183948, Pitch_bend_c, 15, 7424
1, 183952, Pitch_bend_c, 14, 7488
1, 183952, Pitch_bend_c, 15, 7488
1, 183956, Pitch_bend_c, 14, 7552
1, 183956, Pitch_bend_c, 15, 7552
1, 183960, Pitch_bend_c, 14, 7616
1, 183960, Pitch_bend_c, 15, 7616
1, 183964, Pitch_bend_c, 14, 7680
1, 183964, Pitch_bend_c, 15, 7680
1, 183968, Pitch_bend_c, 14, 7744
1, 183968, Pitch_bend_c, 15, 7744
1, 183972, Pitch_bend_c, 14, 7808
1, 183972, Pitch_bend_c, 15, 7808
1, 183976, Pitch_bend_c, 14, 7872
1, 183976, Pitch_bend_c, 15, 7872
1, 183980, Pitch_bend_c, 14, 7936
1, 183980, Pitch_bend_c, 15, 7936
1, 183984, Pitch_bend_c, 14, 8000
1, 183984, Pitch_bend_c, 15, 8000
1, 183988, Pitch_bend_c, 14, 8064
1, 183988, Pitch_bend_c, 15, 8064
1, 183992, Pitch_bend_c, 14, 8128
1, 183992, Pitch_bend_c, 15, 8128
1, 183996, Pitch_bend_c, 14, 8192
1, 183996, Pitch_bend_c, 15, 8192
1, 184006, Note_on_c, 1, 40, 0
1, 184018, Note_on_c, 1, 28, 112
1, 184032, Note_on_c, 8, 78, 0
1, 184032, Note_on_c, 9, 69, 36
1, 184036, Note_on_c, 9, 69, 0
1, 184036, Note_on_c, 9, 44, 56
1, 184040, Note_on_c, 9, 44, 0
1, 184098, Note_on_c, 1, 28, 0
1, 184124, Note_on_c, 9, 69, 29
1, 184126, Note_on_c, 8, 80, 77
1, 184128, Note_on_c, 9, 69, 0
1, 184130, Note_on_c, 1, 40, 112
1, 184134, Note_on_c, 9, 42, 58
1, 184138, Note_on_c, 9, 42, 0
1, 184210, Note_on_c, 1, 40, 0
1, 184214, Note_on_c, 8, 80, 0
1, 184216, Note_on_c, 9, 44, 57
1, 184218, Note_on_c, 1, 35, 109
1, 184220, Note_on_c, 9, 44, 0
1, 184222, Note_on_c, 9, 69, 32
1, 184224, Note_on_c, 9, 36, 119
1, 184226, Note_on_c, 9, 69, 0
1, 184228, Note_on_c, 9, 36, 0
1, 184288, Note_on_c, 15, 69, 0
1, 184288, Note_on_c, 2, 64, 0
1, 184294, Note_on_c, 13, 69, 0
1, 184298, Note_on_c, 14, 78, 0
1, 184298, Note_on_c, 13, 66, 0
1, 184298, Note_on_c, 1, 35, 0
1, 184302, Note_on_c, 2, 68, 0
1, 184302, Note_on_c, 2, 59, 0
1, 184314, Note_on_c, 13, 64, 103
1, 184316, Note_on_c, 2, 64, 102
1, 184316, Note_on_c, 9, 69, 33
1, 184318, Note_on_c, 1, 37, 115
1, 184318, Note_on_c, 9, 42, 50
1, 184318, Note_on_c, 14, 76, 117
1, 184318, Note_on_c, 15, 68, 111
1, 184320, Note_on_c, 9, 69, 0
1, 184320, Control_c, 14, 1, 28
1, 184322, Note_on_c, 9, 42, 0
1, 184322, Note_on_c, 9, 36, 125
1, 184324, Note_on_c, 2, 68, 100
1, 184324, Note_on_c, 9, 63, 80
1, 184326, Note_on_c, 9, 36, 0
1, 184326, Note_on_c, 2, 59, 99
1, 184328, Note_on_c, 9, 63, 0
1, 184328, Note_on_c, 4, 59, 59
1, 184328, Note_on_c, 4, 64, 65
1, 184334, Note_on_c, 13, 68, 103
1, 184382, Note_on_c, 4, 64, 0
1, 184382, Note_on_c, 4, 59, 0
1, 184408, Note_on_c, 4, 59, 95
1, 184412, Note_on_c, 4, 64, 103
1, 184412, Note_on_c, 4, 68, 94
1, 184416, Note_on_c, 9, 63, 84
1, 184416, Control_c, 15, 1, 28
1, 184418, Note_on_c, 9, 69, 36
1, 184419, Control_c, 14, 1, 70
1, 184420, Note_on_c, 9, 63, 0
1, 184420, Note_on_c, 9, 44, 52
1, 184422, Note_on_c, 9, 69, 0
1, 184424, Note_on_c, 9, 44, 0
1, 184504, Note_on_c, 9, 69, 36
1, 184508, Note_on_c, 9, 69, 0
1, 184515, Control_c, 15, 1, 70
1, 184518, Note_on_c, 8, 83, 80
1, 184518, Note_on_c, 9, 42, 54
1, 184522, Note_on_c, 9, 42, 0
1, 184536, Control_c, 14, 1, 55
1, 184588, Note_on_c, 4, 59, 0
1, 184592, Note_on_c, 4, 68, 0
1, 184592, Note_on_c, 4, 64, 0
1, 184598, Note_on_c, 4, 64, 61
1, 184600, Note_on_c, 4, 68, 62
1, 184602, Note_on_c, 9, 44, 51
1, 184602, Note_on_c, 9, 69, 36
1, 184604, Note_on_c, 4, 59, 67
1, 184606, Note_on_c, 9, 69, 0
1, 184606, Note_on_c, 9, 44, 0
1, 184606, Note_on_c, 8, 83, 0
1, 184623, Control_c, 14, 1, 37
1, 184632, Control_c, 15, 1, 55
1, 184652, Note_on_c, 4, 64, 0
1, 184654, Note_on_c, 4, 68, 0
1, 184658, Note_on_c, 4, 59, 0
1, 184678, Note_on_c, 1, 37, 0
1, 184698, Note_on_c, 9, 38, 117
1, 184702, Note_on_c, 9, 38, 0
1, 184702, Note_on_c, 9, 42, 53
1, 184704, Note_on_c, 9, 69, 31
1, 184706, Note_on_c, 9, 42, 0
1, 184706, Note_on_c, 9, 64, 87
1, 184708, Note_on_c, 9, 69, 0
1, 184710, Note_on_c, 9, 64, 0
1, 184710, Note_on_c, 8, 81, 79
1, 184719, Control_c, 15, 1, 37
1, 184791, Control_c, 14, 1, 15
1, 184798, Note_on_c, 8, 81, 0
1, 184802, Note_on_c, 1, 32, 114
1, 184804, Note_on_c, 9, 44, 57
1, 184804, Note_on_c, 9, 69, 36
1, 184808, Note_on_c, 9, 69, 0
1, 184808, Note_on_c, 9, 44, 0
1, 184854, Note_on_c, 13, 64, 0
1, 184858, Note_on_c, 14, 76, 0
1, 184858, Note_on_c, 15, 68, 0
1, 184874, Note_on_c, 13, 68, 0
1, 184882, Note_on_c, 1, 32, 0
1, 184886, Note_on_c, 5, 71, 66
1, 184886, Note_on_c, 8, 80, 83
1, 184887, Control_c, 15, 1, 15
1, 184888, Note_on_c, 9, 36, 105
1, 184892, Note_on_c, 9, 36, 0
1, 184892, Note_on_c, 1, 37, 115
1, 184896, Note_on_c, 9, 42, 52
1, 184900, Note_on_c, 9, 42, 0
1, 184900, Note_on_c, 9, 69, 34
1, 184904, Note_on_c, 9, 69, 0
1, 184962, Note_on_c, 5, 71, 0
1, 184974, Note_on_c, 8, 80, 0
1, 184988, Note_on_c, 9, 69, 37
1, 184992, Note_on_c, 9, 69, 0
1, 184994, Note_on_c, 9, 46, 102
1, 184996, Note_on_c, 9, 36, 102
1, 184998, Note_on_c, 9, 46, 0
1, 184998, Note_on_c, 9, 63, 81
1, 185000, Note_on_c, 9, 36, 0
1, 185000, Note_on_c, 5, 71, 64
1, 185002, Note_on_c, 9, 63, 0
1, 185072, Note_on_c, 1, 37, 0
1, 185076, Note_on_c, 5, 71, 0
1, 185084, Note_on_c, 9, 42, 57
1, 185088, Note_on_c, 9, 42, 0
1, 185090, Note_on_c, 5, 71, 72
1, 185090, Note_on_c, 8, 78, 74
1, 185092, Note_on_c, 1, 37, 115
1, 185094, Note_on_c, 9, 69, 38
1, 185098, Note_on_c, 9, 69, 0
1, 185166, Note_on_c, 5, 71, 0
1, 185178, Note_on_c, 8, 78, 0
1, 185178, Note_on_c, 9, 69, 36
1, 185182, Note_on_c, 9, 69, 0
1, 185182, Note_on_c, 5, 71, 73
1, 185182, Note_on_c, 9, 62, 88
1, 185186, Note_on_c, 9, 62, 0
1, 185188, Note_on_c, 9, 44, 50
1, 185192, Note_on_c, 9, 44, 0
1, 185258, Note_on_c, 5, 71, 0
1, 185270, Note_on_c, 4, 64, 98
1, 185272, Note_on_c, 4, 68, 64
1, 185272, Note_on_c, 15, 69, 108
1, 185276, Note_on_c, 14, 78, 115
1, 185282, Note_on_c, 9, 69, 38
1, 185284, Note_on_c, 8, 76, 77
1, 185286, Note_on_c, 9, 69, 0
1, 185286, Note_on_c, 9, 42, 51
1, 185286, Note_on_c, 9, 64, 84
1, 185286, Note_on_c, 13, 69, 106
1, 185290, Note_on_c, 9, 64, 0
1, 185290, Note_on_c, 9, 42, 0
1, 185292, Note_on_c, 13, 66, 104
1, 185326, Note_on_c, 4, 68, 0
1, 185352, Note_on_c, 1, 37, 0
1, 185368, Note_on_c, 4, 69, 63
1, 185368, Note_on_c, 9, 69, 29
1, 185370, Note_on_c, 9, 44, 52
1, 185372, Note_on_c, 9, 69, 0
1, 185372, Note_on_c, 8, 76, 0
1, 185374, Note_on_c, 9, 44, 0
1, 185382, Note_on_c, 1, 37, 114
1, 185422, Note_on_c, 4, 69, 0
1, 185452, Note_on_c, 15, 69, 0
1, 185456, Note_on_c, 14, 78, 0
1, 185462, Note_on_c, 1, 37, 0
1, 185464, Note_on_c, 9, 42, 54
1, 185464, Note_on_c, 9, 69, 36
1, 185464, Note_on_c, 14, 80, 110
1, 185464, Note_on_c, 15, 71, 105
1, 185466, Note_on_c, 13, 69, 0
1, 185468, Note_on_c, 9, 69, 0
1, 185468, Note_on_c, 9, 42, 0
1, 185470, Note_on_c, 9, 38, 120
1, 185470, Note_on_c, 13, 68, 104
1, 185472, Note_on_c, 13, 66, 0
1, 185474, Note_on_c, 9, 38, 0
1, 185476, Note_on_c, 13, 71, 103
1, 185478, Note_on_c, 4, 68, 103
1, 185480, Note_on_c, 8, 78, 81
1, 185484, Note_on_c, 1, 35, 114
1, 185562, Note_on_c, 1, 35, 0
1, 185562, Note_on_c, 1, 35, 112
1, 185566, Note_on_c, 9, 69, 37
1, 185568, Note_on_c, 8, 78, 0
1, 185568, Note_on_c, 9, 44, 52
1, 185570, Note_on_c, 9, 69, 0
1, 185572, Note_on_c, 9, 44, 0
1, 185642, Note_on_c, 1, 35, 0
1, 185644, Note_on_c, 14, 80, 0
1, 185644, Note_on_c, 15, 71, 0
1, 185650, Note_on_c, 13, 68, 0
1, 185656, Note_on_c, 13, 71, 0
1, 185656, Note_on_c, 13, 69, 103
1, 185656, Note_on_c, 14, 81, 115
1, 185660, Note_on_c, 8, 80, 83
1, 185662, Note_on_c, 9, 42, 52
1, 185664, Pitch_bend_c, 14, 7296
1, 185664, Pitch_bend_c, 15, 7296
1, 185666, Note_on_c, 9, 42, 0
1, 185670, Note_on_c, 9, 69, 32
1, 185670, Note_on_c, 15, 73, 107
1, 185672, Pitch_bend_c, 14, 7360
1, 185672, Pitch_bend_c, 15, 7360
1, 185674, Note_on_c, 9, 69, 0
1, 185676, Note_on_c, 1, 37, 118
1, 185676, Note_on_c, 13, 73, 103
1, 185676, Pitch_bend_c, 14, 7424
1, 185676, Pitch_bend_c, 15, 7424
1, 185680, Pitch_bend_c, 14, 7488
1, 185680, Pitch_bend_c, 15, 7488
1, 185684, Pitch_bend_c, 14, 7552
1, 185684, Pitch_bend_c, 15, 7552
1, 185688, Pitch_bend_c, 14, 7616
1, 185688, Pitch_bend_c, 15, 7616
1, 185692, Pitch_bend_c, 14, 7680
1, 185692, Pitch_bend_c, 15, 7680
1, 185696, Pitch_bend_c, 14, 7744
1, 185696, Pitch_bend_c, 15, 7744
1, 185700, Pitch_bend_c, 14, 7808
1, 185700, Pitch_bend_c, 15, 7808
1, 185704, Pitch_bend_c, 14, 7872
1, 185704, Pitch_bend_c, 15, 7872
1, 185708, Pitch_bend_c, 14, 7936
1, 185708, Pitch_bend_c, 15, 7936
1, 185712, Pitch_bend_c, 14, 8000
1, 185712, Pitch_bend_c, 15, 8000
1, 185716, Pitch_bend_c, 14, 8064
1, 185716, Pitch_bend_c, 15, 8064
1, 185720, Pitch_bend_c, 14, 8128
1, 185720, Pitch_bend_c, 15, 8128
1, 185724, Pitch_bend_c, 14, 8192
1, 185724, Pitch_bend_c, 15, 8192
1, 185748, Note_on_c, 8, 80, 0
1, 185754, Note_on_c, 9, 36, 124
1, 185756, Note_on_c, 9, 69, 37
1, 185758, Note_on_c, 9, 36, 0
1, 185760, Note_on_c, 9, 69, 0
1, 185766, Note_on_c, 9, 44, 57
1, 185770, Note_on_c, 9, 44, 0
1, 185804, Note_on_c, 7, 71, 0
1, 185820, Note_on_c, 7, 59, 0
1, 185828, Note_on_c, 2, 64, 0
1, 185830, Note_on_c, 4, 64, 0
1, 185836, Note_on_c, 2, 68, 0
1, 185838, Note_on_c, 4, 68, 0
1, 185838, Note_on_c, 2, 59, 0
1, 185840, Note_on_c, 6, 59, 0
1, 185846, Note_on_c, 4, 62, 63
1, 185848, Note_on_c, 4, 57, 63
1, 185848, Note_on_c, 7, 69, 83
1, 185848, Note_on_c, 7, 81, 81
1, 185850, Note_on_c, 6, 64, 0
1, 185850, Note_on_c, 1, 38, 112
1, 185850, Note_on_c, 2, 62, 98
1, 185850, Note_on_c, 9, 42, 54
1, 185852, Note_on_c, 6, 56, 0
1, 185852, Note_on_c, 6, 62, 65
1, 185854, Note_on_c, 9, 42, 0
1, 185854, Note_on_c, 6, 54, 69
1, 185854, Note_on_c, 9, 36, 117
1, 185856, Note_on_c, 1, 37, 0
1, 185856, Note_on_c, 2, 57, 94
1, 185858, Note_on_c, 9, 36, 0
1, 185858, Note_on_c, 9, 63, 84
1, 185858, Note_on_c, 9, 69, 29
1, 185860, Note_on_c, 2, 66, 100
1, 185862, Note_on_c, 9, 69, 0
1, 185862, Note_on_c, 9, 63, 0
1, 185864, Note_on_c, 6, 57, 66
1, 185900, Note_on_c, 4, 62, 0
1, 185902, Note_on_c, 4, 57, 0
1, 185916, Note_on_c, 13, 69, 0
1, 185916, Note_on_c, 14, 81, 0
1, 185930, Note_on_c, 15, 73, 0
1, 185936, Note_on_c, 13, 73, 0
1, 185944, Note_on_c, 4, 66, 95
1, 185946, Note_on_c, 4, 57, 103
1, 185948, Note_on_c, 13, 71, 112
1, 185948, Note_on_c, 14, 80, 115
1, 185954, Note_on_c, 9, 44, 52
1, 185954, Note_on_c, 9, 69, 36
1, 185956, Note_on_c, 9, 63, 82
1, 185958, Note_on_c, 9, 69, 0
1, 185958, Note_on_c, 9, 44, 0
1, 185958, Note_on_c, 15, 71, 103
1, 185960, Note_on_c, 9, 63, 0
1, 185960, Note_on_c, 4, 62, 98
1, 185968, Note_on_c, 13, 68, 111
1, 186028, Note_on_c, 13, 71, 0
1, 186040, Note_on_c, 9, 69, 32
1, 186042, Note_on_c, 9, 42, 53
1, 186044, Note_on_c, 9, 69, 0
1, 186046, Note_on_c, 9, 42, 0
1, 186048, Note_on_c, 13, 68, 0
1, 186048, Control_c, 14, 1, 28
1, 186050, Note_on_c, 15, 69, 107
1, 186052, Note_on_c, 14, 80, 0
1, 186052, Note_on_c, 8, 81, 75
1, 186052, Note_on_c, 14, 78, 117
1, 186060, Note_on_c, 13, 69, 106
1, 186062, Note_on_c, 15, 71, 0
1, 186062, Note_on_c, 13, 66, 105
1, 186124, Note_on_c, 4, 66, 0
1, 186126, Note_on_c, 4, 57, 0
1, 186138, Note_on_c, 4, 57, 64
1, 186140, Note_on_c, 8, 81, 0
1, 186140, Note_on_c, 4, 62, 0
1, 186142, Note_on_c, 4, 62, 68
1, 186146, Note_on_c, 9, 44, 55
1, 186147, Control_c, 14, 1, 70
1, 186150, Note_on_c, 9, 44, 0
1, 186150, Note_on_c, 4, 66, 60
1, 186150, Note_on_c, 9, 69, 35
1, 186154, Note_on_c, 9, 69, 0
1, 186192, Note_on_c, 4, 57, 0
1, 186196, Note_on_c, 4, 62, 0
1, 186204, Note_on_c, 4, 66, 0
1, 186236, Note_on_c, 9, 64, 82
1, 186240, Note_on_c, 9, 64, 0
1, 186240, Note_on_c, 9, 69, 38
1, 186240, Note_on_c, 9, 42, 54
1, 186244, Note_on_c, 9, 42, 0
1, 186244, Note_on_c, 9, 69, 0
1, 186244, Note_on_c, 9, 38, 118
1, 186248, Note_on_c, 9, 38, 0
1, 186248, Note_on_c, 8, 80, 83
1, 186264, Control_c, 14, 1, 55
1, 186334, Note_on_c, 9, 44, 51
1, 186336, Note_on_c, 8, 80, 0
1, 186338, Note_on_c, 9, 44, 0
1, 186340, Note_on_c, 9, 69, 30
1, 186344, Note_on_c, 9, 69, 0
1, 186351, Control_c, 14, 1, 37
1, 186390, Note_on_c, 1, 38, 0
1, 186410, Note_on_c, 15, 69, 0
1, 186412, Note_on_c, 14, 78, 0
1, 186420, Note_on_c, 13, 69, 0
1, 186422, Note_on_c, 13, 66, 0
1, 186426, Note_on_c, 1, 38, 112
1, 186426, Note_on_c, 9, 42, 57
1, 186428, Note_on_c, 5, 74, 72
1, 186430, Note_on_c, 9, 42, 0
1, 186432, Note_on_c, 8, 78, 82
1, 186432, Note_on_c, 9, 69, 30
1, 186434, Note_on_c, 9, 36, 101
1, 186436, Note_on_c, 9, 69, 0
1, 186438, Note_on_c, 9, 36, 0
1, 186504, Note_on_c, 5, 74, 0
1, 186519, Control_c, 14, 1, 15
1, 186520, Note_on_c, 8, 78, 0
1, 186520, Note_on_c, 9, 69, 33
1, 186522, Note_on_c, 9, 63, 83
1, 186524, Note_on_c, 9, 69, 0
1, 186524, Note_on_c, 9, 36, 110
1, 186526, Note_on_c, 9, 63, 0
1, 186528, Note_on_c, 9, 36, 0
1, 186530, Note_on_c, 5, 74, 69
1, 186532, Note_on_c, 9, 46, 105
1, 186536, Note_on_c, 9, 46, 0
1, 186606, Note_on_c, 5, 74, 0
1, 186606, Note_on_c, 1, 38, 0
1, 186618, Note_on_c, 1, 38, 115
1, 186618, Note_on_c, 5, 69, 67
1, 186618, Note_on_c, 9, 69, 37
1, 186622, Note_on_c, 9, 69, 0
1, 186626, Note_on_c, 9, 42, 50
1, 186630, Note_on_c, 9, 42, 0
1, 186632, Note_on_c, 8, 76, 83
1, 186694, Note_on_c, 5, 69, 0
1, 186718, Note_on_c, 5, 71, 69
1, 186720, Note_on_c, 8, 76, 0
1, 186720, Note_on_c, 9, 62, 84
1, 186722, Note_on_c, 9, 44, 55
1, 186724, Note_on_c, 9, 62, 0
1, 186726, Note_on_c, 9, 44, 0
1, 186726, Note_on_c, 9, 69, 32
1, 186730, Note_on_c, 9, 69, 0
1, 186794, Note_on_c, 5, 71, 0
1, 186808, Note_on_c, 8, 75, 80
1, 186810, Note_on_c, 9, 64, 80
1, 186814, Note_on_c, 9, 64, 0
1, 186816, Note_on_c, 5, 71, 69
1, 186816, Note_on_c, 9, 69, 31
1, 186820, Note_on_c, 9, 69, 0
1, 186820, Note_on_c, 15, 59, 107
1, 186822, Note_on_c, 9, 42, 54
1, 186822, Note_on_c, 14, 71, 112
1, 186826, Note_on_c, 9, 42, 0
1, 186828, Note_on_c, 13, 59, 104
1, 186878, Note_on_c, 1, 38, 0
1, 186892, Note_on_c, 5, 71, 0
1, 186896, Note_on_c, 8, 75, 0
1, 186902, Note_on_c, 4, 66, 97
1, 186902, Note_on_c, 4, 69, 103
1, 186904, Note_on_c, 4, 73, 100
1, 186904, Note_on_c, 9, 44, 50
1, 186908, Note_on_c, 9, 44, 0
1, 186908, Note_on_c, 9, 69, 32
1, 186912, Note_on_c, 9, 69, 0
1, 186916, Note_on_c, 1, 38, 118
1, 186996, Note_on_c, 1, 38, 0
1, 186998, Note_on_c, 13, 59, 0
1, 186998, Note_on_c, 13, 59, 107
1, 187000, Note_on_c, 15, 59, 0
1, 187002, Note_on_c, 14, 71, 0
1, 187006, Note_on_c, 5, 64, 64
1, 187008, Note_on_c, 9, 42, 52
1, 187008, Note_on_c, 15, 59, 112
1, 187010, Note_on_c, 8, 76, 81
1, 187010, Note_on_c, 9, 69, 34
1, 187010, Note_on_c, 14, 71, 114
1, 187012, Note_on_c, 9, 42, 0
1, 187012, Note_on_c, 9, 38, 123
1, 187014, Note_on_c, 9, 69, 0
1, 187016, Note_on_c, 9, 38, 0
1, 187020, Note_on_c, 1, 33, 116
1, 187082, Note_on_c, 5, 64, 0
1, 187082, Note_on_c, 4, 66, 0
1, 187082, Note_on_c, 4, 69, 0
1, 187084, Note_on_c, 4, 73, 0
1, 187090, Note_on_c, 1, 35, 110
1, 187098, Note_on_c, 8, 76, 0
1, 187102, Note_on_c, 5, 64, 68
1, 187102, Note_on_c, 9, 69, 36
1, 187104, Note_on_c, 9, 44, 57
1, 187106, Note_on_c, 9, 69, 0
1, 187108, Note_on_c, 9, 44, 0
1, 187116, Note_on_c, 1, 33, 0
1, 187178, Note_on_c, 5, 64, 0
1, 187186, Note_on_c, 1, 35, 0
1, 187192, Note_on_c, 8, 78, 75
1, 187202, Note_on_c, 9, 69, 32
1, 187204, Note_on_c, 1, 38, 112
1, 187204, Note_on_c, 9, 42, 51
1, 187206, Note_on_c, 9, 69, 0
1, 187206, Note_on_c, 5, 64, 71
1, 187208, Note_on_c, 9, 42, 0
1, 187280, Note_on_c, 8, 78, 0
1, 187282, Note_on_c, 5, 64, 0
1, 187284, Note_on_c, 1, 38, 0
1, 187288, Note_on_c, 9, 69, 31
1, 187290, Note_on_c, 1, 35, 112
1, 187292, Note_on_c, 9, 69, 0
1, 187292, Note_on_c, 9, 36, 117
1, 187294, Note_on_c, 9, 44, 53
1, 187296, Note_on_c, 9, 36, 0
1, 187298, Note_on_c, 9, 44, 0
1, 187358, Note_on_c, 13, 59, 0
1, 187362, Note_on_c, 2, 62, 0
1, 187368, Note_on_c, 2, 57, 0
1, 187368, Note_on_c, 15, 59, 0
1, 187370, Note_on_c, 14, 71, 0
1, 187370, Note_on_c, 1, 35, 0
1, 187372, Note_on_c, 2, 66, 0
1, 187386, Note_on_c, 1, 42, 112
1, 187386, Note_on_c, 5, 73, 67
1, 187388, Note_on_c, 2, 66, 99
1, 187388, Note_on_c, 13, 69, 107
1, 187388, Note_on_c, 14, 81, 115
1, 187388, Note_on_c, 15, 73, 111
1, 187390, Note_on_c, 2, 62, 96
1, 187390, Note_on_c, 9, 36, 125
1, 187390, Note_on_c, 9, 63, 88
1, 187392, Note_on_c, 4, 57, 68
1, 187392, Pitch_bend_c, 15, 7296
1, 187394, Note_on_c, 9, 63, 0
1, 187394, Note_on_c, 9, 36, 0
1, 187394, Note_on_c, 2, 57, 97
1, 187394, Note_on_c, 4, 62, 63
1, 187394, Note_on_c, 9, 42, 58
1, 187394, Note_on_c, 9, 69, 31
1, 187398, Note_on_c, 9, 69, 0
1, 187398, Note_on_c, 9, 42, 0
1, 187400, Pitch_bend_c, 15, 7360
1, 187404, Pitch_bend_c, 15, 7424
1, 187406, Note_on_c, 13, 73, 111
1, 187408, Pitch_bend_c, 15, 7488
1, 187412, Pitch_bend_c, 15, 7552
1, 187416, Pitch_bend_c, 15, 7616
1, 187420, Pitch_bend_c, 15, 7680
1, 187424, Pitch_bend_c, 15, 7744
1, 187428, Pitch_bend_c, 15, 7808
1, 187432, Pitch_bend_c, 15, 7872
1, 187436, Pitch_bend_c, 15, 7936
1, 187440, Pitch_bend_c, 15, 8000
1, 187444, Pitch_bend_c, 15, 8064
1, 187446, Note_on_c, 4, 57, 0
1, 187448, Note_on_c, 4, 62, 0
1, 187448, Pitch_bend_c, 15, 8128
1, 187452, Pitch_bend_c, 15, 8192
1, 187462, Note_on_c, 5, 73, 0
1, 187480, Note_on_c, 9, 63, 84
1, 187484, Note_on_c, 9, 63, 0
1, 187484, Note_on_c, 4, 66, 102
1, 187486, Note_on_c, 4, 57, 101
1, 187486, Note_on_c, 4, 62, 95
1, 187490, Note_on_c, 9, 44, 53
1, 187492, Note_on_c, 9, 69, 29
1, 187494, Note_on_c, 9, 44, 0
1, 187494, Note_on_c, 5, 73, 68
1, 187496, Note_on_c, 9, 69, 0
1, 187568, Note_on_c, 14, 81, 0
1, 187568, Note_on_c, 13, 69, 0
1, 187568, Note_on_c, 15, 73, 0
1, 187570, Note_on_c, 5, 73, 0
1, 187580, Note_on_c, 9, 69, 31
1, 187582, Note_on_c, 14, 81, 116
1, 187584, Note_on_c, 9, 69, 0
1, 187586, Note_on_c, 13, 73, 0
1, 187586, Note_on_c, 1, 42, 0
1, 187586, Note_on_c, 9, 42, 57
1, 187586, Note_on_c, 13, 69, 104
1, 187588, Note_on_c, 13, 73, 110
1, 187590, Note_on_c, 9, 42, 0
1, 187590, Note_on_c, 15, 73, 105
1, 187592, Note_on_c, 8, 81, 81
1, 187664, Note_on_c, 4, 66, 0
1, 187666, Note_on_c, 4, 57, 0
1, 187666, Note_on_c, 4, 62, 0
1, 187672, Note_on_c, 5, 73, 67
1, 187672, Note_on_c, 9, 44, 51
1, 187676, Note_on_c, 9, 44, 0
1, 187676, Note_on_c, 1, 30, 118
1, 187676, Note_on_c, 4, 66, 68
1, 187678, Note_on_c, 9, 69, 33
1, 187680, Note_on_c, 8, 81, 0
1, 187682, Note_on_c, 9, 69, 0
1, 187684, Note_on_c, 4, 57, 68
1, 187688, Note_on_c, 4, 62, 65
1, 187730, Note_on_c, 4, 66, 0
1, 187738, Note_on_c, 4, 57, 0
1, 187742, Note_on_c, 4, 62, 0
1, 187748, Note_on_c, 5, 73, 0
1, 187756, Note_on_c, 1, 30, 0
1, 187762, Note_on_c, 14, 81, 0
1, 187766, Note_on_c, 13, 69, 0
1, 187766, Note_on_c, 1, 37, 113
1, 187768, Note_on_c, 15, 73, 0
1, 187768, Note_on_c, 13, 73, 0
1, 187768, Note_on_c, 9, 38, 125
1, 187768, Note_on_c, 15, 73, 106
1, 187770, Note_on_c, 8, 80, 82
1, 187770, Note_on_c, 9, 42, 53
1, 187770, Note_on_c, 9, 64, 86
1, 187772, Note_on_c, 9, 38, 0
1, 187772, Note_on_c, 13, 69, 103
1, 187772, Note_on_c, 13, 73, 108
1, 187774, Note_on_c, 9, 64, 0
1, 187774, Note_on_c, 9, 42, 0
1, 187774, Note_on_c, 9, 69, 34
1, 187776, Note_on_c, 14, 81, 115
1, 187778, Note_on_c, 9, 69, 0
1, 187858, Note_on_c, 8, 80, 0
1, 187868, Note_on_c, 9, 44, 56
1, 187868, Note_on_c, 9, 69, 38
1, 187872, Note_on_c, 9, 69, 0
1, 187872, Note_on_c, 9, 44, 0
1, 187948, Note_on_c, 15, 73, 0
1, 187952, Note_on_c, 13, 73, 0
1, 187952, Note_on_c, 13, 69, 0
1, 187956, Note_on_c, 14, 81, 0
1, 187960, Note_on_c, 9, 36, 105
1, 187960, Note_on_c, 9, 69, 33
1, 187960, Note_on_c, 15, 73, 111
1, 187962, Note_on_c, 8, 78, 78
1, 187962, Note_on_c, 13, 69, 112
1, 187964, Note_on_c, 9, 69, 0
1, 187964, Note_on_c, 9, 36, 0
1, 187964, Note_on_c, 14, 81, 118
1, 187968, Note_on_c, 9, 42, 55
1, 187970, Note_on_c, 13, 73, 104
1, 187972, Note_on_c, 9, 42, 0
1, 188026, Note_on_c, 1, 37, 0
1, 188050, Note_on_c, 8, 78, 0
1, 188056, Note_on_c, 9, 44, 58
1, 188058, Note_on_c, 9, 63, 87
1, 188060, Note_on_c, 9, 44, 0
1, 188060, Note_on_c, 9, 69, 38
1, 188062, Note_on_c, 9, 63, 0
1, 188062, Note_on_c, 9, 36, 101
1, 188064, Note_on_c, 9, 69, 0
1, 188066, Note_on_c, 9, 36, 0
1, 188074, Note_on_c, 1, 30, 118
1, 188140, Note_on_c, 15, 73, 0
1, 188142, Note_on_c, 13, 69, 0
1, 188144, Note_on_c, 14, 81, 0
1, 188146, Note_on_c, 1, 35, 111
1, 188150, Note_on_c, 13, 73, 0
1, 188150, Note_on_c, 4, 62, 65
1, 188152, Note_on_c, 5, 71, 67
1, 188154, Note_on_c, 1, 30, 0
1, 188156, Note_on_c, 9, 69, 34
1, 188158, Note_on_c, 4, 66, 59
1, 188158, Note_on_c, 13, 68, 104
1, 188160, Note_on_c, 9, 69, 0
1, 188160, Pitch_bend_c, 14, 7296
1, 188162, Note_on_c, 13, 71, 104
1, 188164, Note_on_c, 9, 42, 55
1, 188164, Note_on_c, 9, 47, 123
1, 188164, Note_on_c, 14, 80, 114
1, 188166, Note_on_c, 15, 71, 109
1, 188168, Note_on_c, 9, 47, 0
1, 188168, Note_on_c, 9, 42, 0
1, 188168, Note_on_c, 4, 59, 68
1, 188168, Note_on_c, 8, 76, 77
1, 188168, Pitch_bend_c, 14, 7360
1, 188172, Pitch_bend_c, 14, 7424
1, 188176, Pitch_bend_c, 14, 7488
1, 188180, Pitch_bend_c, 14, 7552
1, 188184, Pitch_bend_c, 14, 7616
1, 188188, Pitch_bend_c, 14, 7680
1, 188192, Pitch_bend_c, 14, 7744
1, 188196, Pitch_bend_c, 14, 7808
1, 188200, Pitch_bend_c, 14, 7872
1, 188204, Note_on_c, 4, 62, 0
1, 188204, Pitch_bend_c, 14, 7936
1, 188208, Pitch_bend_c, 14, 8000
1, 188212, Note_on_c, 4, 66, 0
1, 188212, Pitch_bend_c, 14, 8064
1, 188216, Pitch_bend_c, 14, 8128
1, 188220, Pitch_bend_c, 14, 8192
1, 188222, Note_on_c, 4, 59, 0
1, 188228, Note_on_c, 5, 71, 0
1, 188250, Note_on_c, 9, 62, 80
1, 188254, Note_on_c, 9, 62, 0
1, 188256, Note_on_c, 8, 76, 0
1, 188258, Note_on_c, 9, 44, 56
1, 188262, Note_on_c, 9, 44, 0
1, 188262, Note_on_c, 9, 69, 37
1, 188266, Note_on_c, 9, 69, 0
1, 188326, Note_on_c, 1, 35, 0
1, 188338, Note_on_c, 13, 68, 0
1, 188342, Note_on_c, 13, 71, 0
1, 188344, Note_on_c, 14, 80, 0
1, 188344, Note_on_c, 8, 75, 79
1, 188344, Note_on_c, 9, 69, 31
1, 188346, Note_on_c, 15, 71, 0
1, 188346, Note_on_c, 5, 71, 73
1, 188348, Note_on_c, 9, 69, 0
1, 188348, Note_on_c, 1, 35, 114
1, 188348, Note_on_c, 15, 69, 103
1, 188352, Note_on_c, 13, 66, 111
1, 188354, Note_on_c, 9, 64, 86
1, 188354, Note_on_c, 13, 69, 110
1, 188354, Note_on_c, 14, 78, 113
1, 188358, Note_on_c, 9, 64, 0
1, 188358, Note_on_c, 9, 42, 54
1, 188362, Note_on_c, 9, 42, 0
1, 188422, Note_on_c, 5, 71, 0
1, 188432, Note_on_c, 8, 75, 0
1, 188442, Note_on_c, 9, 44, 57
1, 188444, Note_on_c, 9, 47, 116
1, 188446, Note_on_c, 9, 44, 0
1, 188448, Note_on_c, 9, 47, 0
1, 188452, Note_on_c, 9, 69, 35
1, 188456, Note_on_c, 9, 69, 0
1, 188508, Note_on_c, 2, 66, 0
1, 188510, Note_on_c, 2, 62, 0
1, 188514, Note_on_c, 2, 57, 0
1, 188528, Note_on_c, 1, 35, 0
1, 188528, Note_on_c, 15, 69, 0
1, 188532, Note_on_c, 13, 66, 0
1, 188534, Note_on_c, 14, 78, 0
1, 188534, Note_on_c, 13, 69, 0
1, 188534, Note_on_c, 4, 66, 67
1, 188536, Note_on_c, 8, 76, 83
1, 188536, Note_on_c, 13, 64, 107
1, 188538, Note_on_c, 4, 62, 64
1, 188540, Note_on_c, 9, 69, 30
1, 188542, Note_on_c, 2, 66, 100
1, 188542, Note_on_c, 9, 47, 122
1, 188544, Note_on_c, 9, 69, 0
1, 188544, Note_on_c, 5, 71, 72
1, 188544, Note_on_c, 15, 68, 104
1, 188546, Note_on_c, 9, 47, 0
1, 188546, Note_on_c, 2, 62, 100
1, 188546, Note_on_c, 9, 38, 117
1, 188548, Note_on_c, 2, 57, 98
1, 188550, Note_on_c, 9, 38, 0
1, 188550, Note_on_c, 9, 42, 51
1, 188550, Note_on_c, 13, 68, 108
1, 188550, Note_on_c, 14, 76, 109
1, 188552, Note_on_c, 1, 35, 118
1, 188552, Note_on_c, 4, 59, 65
1, 188554, Note_on_c, 9, 42, 0
1, 188588, Note_on_c, 4, 66, 0
1, 188592, Note_on_c, 4, 62, 0
1, 188606, Note_on_c, 4, 59, 0
1, 188620, Note_on_c, 5, 71, 0
1, 188624, Note_on_c, 8, 76, 0
1, 188632, Note_on_c, 1, 35, 0
1, 188636, Note_on_c, 9, 69, 37
1, 188640, Note_on_c, 9, 69, 0
1, 188640, Note_on_c, 5, 71, 69
1, 188642, Note_on_c, 1, 37, 115
1, 188642, Note_on_c, 9, 44, 59
1, 188646, Note_on_c, 9, 44, 0
1, 188716, Note_on_c, 5, 71, 0
1, 188716, Note_on_c, 13, 64, 0
1, 188722, Note_on_c, 1, 37, 0
1, 188724, Note_on_c, 15, 68, 0
1, 188726, Note_on_c, 1, 40, 113
1, 188730, Note_on_c, 13, 68, 0
1, 188730, Note_on_c, 14, 76, 0
1, 188730, Note_on_c, 13, 69, 107
1, 188732, Note_on_c, 5, 71, 65
1, 188732, Note_on_c, 8, 78, 82
1, 188732, Note_on_c, 9, 50, 117
1, 188732, Note_on_c, 9, 69, 29
1, 188736, Note_on_c, 9, 69, 0
1, 188736, Note_on_c, 9, 50, 0
1, 188736, Note_on_c, 15, 69, 112
1, 188740, Note_on_c, 9, 42, 59
1, 188740, Note_on_c, 14, 78, 118
1, 188744, Note_on_c, 9, 42, 0
1, 188752, Note_on_c, 13, 66, 104
1, 188806, Note_on_c, 1, 40, 0
1, 188808, Note_on_c, 5, 71, 0
1, 188820, Note_on_c, 8, 78, 0
1, 188826, Note_on_c, 9, 69, 31
1, 188830, Note_on_c, 9, 69, 0
1, 188830, Note_on_c, 9, 44, 53
1, 188834, Note_on_c, 9, 44, 0
1, 188834, Note_on_c, 9, 36, 120
1, 188838, Note_on_c, 9, 36, 0
1, 188844, Note_on_c, 1, 42, 113
1, 188888, Note_on_c, 7, 69, 0
1, 188888, Note_on_c, 7, 81, 0
1, 188902, Note_on_c, 2, 66, 0
1, 188906, Note_on_c, 2, 62, 0
1, 188908, Note_on_c, 2, 57, 0
1, 188910, Note_on_c, 13, 69, 0
1, 188912, Note_on_c, 6, 62, 0
1, 188914, Note_on_c, 6, 54, 0
1, 188914, Note_on_c, 6, 56, 64
1, 188916, Note_on_c, 15, 69, 0
1, 188920, Note_on_c, 14, 78, 0
1, 188920, Note_on_c, 2, 68, 103
1, 188920, Note_on_c, 13, 64, 107
1, 188922, Note_on_c, 15, 68, 110
1, 188924, Note_on_c, 1, 42, 0
1, 188924, Note_on_c, 6, 57, 0
1, 188924, Note_on_c, 2, 64, 103
1, 188924, Note_on_c, 13, 68, 107
1, 188926, Note_on_c, 6, 59, 69
1, 188926, Note_on_c, 9, 49, 108
1, 188926, Note_on_c, 9, 69, 34
1, 188928, Note_on_c, 7, 64, 83
1, 188928, Note_on_c, 9, 36, 120
1, 188930, Note_on_c, 9, 69, 0
1, 188930, Note_on_c, 9, 49, 0
1, 188930, Note_on_c, 4, 64, 63
1, 188932, Note_on_c, 13, 66, 0
1, 188932, Note_on_c, 9, 36, 0
1, 188932, Note_on_c, 2, 59, 100
1, 188932, Note_on_c, 9, 63, 81
1, 188934, Note_on_c, 4, 59, 66
1, 188934, Note_on_c, 6, 64, 67
1, 188934, Note_on_c, 14, 76, 115
1, 188936, Note_on_c, 9, 63, 0
1, 188936, Note_on_c, 1, 28, 116
1, 188936, Note_on_c, 7, 76, 80
1, 188984, Note_on_c, 4, 64, 0
1, 188988, Note_on_c, 4, 59, 0
1, 189014, Note_on_c, 4, 59, 95
1, 189018, Note_on_c, 4, 64, 100
1, 189024, Control_c, 14, 1, 28
1, 189024, Control_c, 15, 1, 28
1, 189028, Note_on_c, 9, 44, 52
1, 189028, Note_on_c, 9, 63, 87
1, 189028, Note_on_c, 9, 69, 36
1, 189032, Note_on_c, 9, 69, 0
1, 189032, Note_on_c, 9, 63, 0
1, 189032, Note_on_c, 9, 44, 0
1, 189032, Note_on_c, 4, 68, 94
1, 189122, Note_on_c, 9, 42, 54
1, 189122, Note_on_c, 9, 69, 30
1, 189123, Control_c, 14, 1, 70
1, 189123, Control_c, 15, 1, 70
1, 189124, Note_on_c, 8, 83, 78
1, 189126, Note_on_c, 9, 69, 0
1, 189126, Note_on_c, 9, 42, 0
1, 189194, Note_on_c, 4, 59, 0
1, 189198, Note_on_c, 4, 64, 0
1, 189212, Note_on_c, 4, 68, 0
1, 189212, Note_on_c, 8, 83, 0
1, 189212, Note_on_c, 4, 59, 66
1, 189212, Note_on_c, 9, 69, 36
1, 189216, Note_on_c, 9, 69, 0
1, 189218, Note_on_c, 9, 44, 51
1, 189222, Note_on_c, 9, 44, 0
1, 189224, Note_on_c, 4, 64, 62
1, 189224, Note_on_c, 4, 68, 61
1, 189240, Control_c, 14, 1, 55
1, 189240, Control_c, 15, 1, 55
1, 189266, Note_on_c, 4, 59, 0
1, 189278, Note_on_c, 4, 68, 0
1, 189278, Note_on_c, 4, 64, 0
1, 189296, Note_on_c, 1, 28, 0
1, 189304, Note_on_c, 9, 42, 56
1, 189308, Note_on_c, 9, 42, 0
1, 189310, Note_on_c, 8, 81, 74
1, 189312, Note_on_c, 9, 38, 120
1, 189312, Note_on_c, 9, 64, 81
1, 189314, Note_on_c, 9, 69, 38
1, 189316, Note_on_c, 9, 64, 0
1, 189316, Note_on_c, 9, 38, 0
1, 189318, Note_on_c, 9, 69, 0
1, 189327, Control_c, 14, 1, 37
1, 189327, Control_c, 15, 1, 37
1, 189398, Note_on_c, 8, 81, 0
1, 189404, Note_on_c, 9, 69, 30
1, 189408, Note_on_c, 9, 69, 0
1, 189410, Note_on_c, 9, 44, 59
1, 189414, Note_on_c, 9, 44, 0
1, 189495, Control_c, 14, 1, 15
1, 189495, Control_c, 15, 1, 15
1, 189496, Note_on_c, 8, 80, 81
1, 189498, Note_on_c, 9, 69, 34
1, 189502, Note_on_c, 9, 69, 0
1, 189502, Note_on_c, 1, 28, 114
1, 189506, Note_on_c, 9, 36, 108
1, 189510, Note_on_c, 9, 36, 0
1, 189510, Note_on_c, 9, 42, 56
1, 189512, Note_on_c, 5, 71, 66
1, 189514, Note_on_c, 9, 42, 0
1, 189584, Note_on_c, 8, 80, 0
1, 189588, Note_on_c, 5, 71, 0
1, 189592, Note_on_c, 9, 44, 59
1, 189596, Note_on_c, 9, 44, 0
1, 189598, Note_on_c, 9, 69, 38
1, 189600, Note_on_c, 5, 71, 69
1, 189602, Note_on_c, 9, 69, 0
1, 189604, Note_on_c, 9, 36, 103
1, 189606, Note_on_c, 9, 63, 82
1, 189608, Note_on_c, 9, 36, 0
1, 189610, Note_on_c, 9, 63, 0
1, 189640, Note_on_c, 13, 64, 0
1, 189642, Note_on_c, 15, 68, 0
1, 189644, Note_on_c, 13, 68, 0
1, 189654, Note_on_c, 14, 76, 0
1, 189668, Note_on_c, 7, 64, 0
1, 189676, Note_on_c, 7, 76, 0
1, 189676, Note_on_c, 5, 71, 0
1, 189682, Note_on_c, 1, 28, 0
1, 189690, Note_on_c, 9, 42, 55
1, 189692, Note_on_c, 7, 71, 78
1, 189694, Note_on_c, 9, 42, 0
1, 189694, Note_on_c, 5, 71, 69
1, 189694, Note_on_c, 7, 59, 81
1, 189698, Note_on_c, 9, 69, 34
1, 189700, Note_on_c, 8, 78, 74
1, 189702, Note_on_c, 9, 69, 0
1, 189706, Note_on_c, 1, 28, 118
1, 189770, Note_on_c, 5, 71, 0
1, 189786, Note_on_c, 9, 62, 82
1, 189788, Note_on_c, 8, 78, 0
1, 189788, Note_on_c, 9, 69, 32
1, 189790, Note_on_c, 9, 62, 0
1, 189792, Note_on_c, 9, 69, 0
1, 189798, Note_on_c, 9, 44, 51
1, 189802, Note_on_c, 9, 44, 0
1, 189878, Note_on_c, 5, 71, 69
1, 189878, Note_on_c, 8, 76, 74
1, 189884, Note_on_c, 9, 42, 50
1, 189888, Note_on_c, 9, 42, 0
1, 189888, Note_on_c, 9, 69, 32
1, 189892, Note_on_c, 9, 69, 0
1, 189894, Note_on_c, 9, 64, 79
1, 189898, Note_on_c, 9, 64, 0
1, 189954, Note_on_c, 5, 71, 0
1, 189966, Note_on_c, 8, 76, 0
1, 189966, Note_on_c, 1, 28, 0
1, 189978, Note_on_c, 1, 40, 118
1, 189978, Note_on_c, 5, 76, 70
1, 189986, Note_on_c, 9, 44, 54
1, 189988, Note_on_c, 9, 69, 33
1, 189990, Note_on_c, 9, 44, 0
1, 189992, Note_on_c, 9, 69, 0
1, 190054, Note_on_c, 5, 76, 0
1, 190058, Note_on_c, 1, 40, 0
1, 190072, Note_on_c, 9, 38, 120
1, 190076, Note_on_c, 9, 38, 0
1, 190086, Note_on_c, 9, 42, 58
1, 190086, Note_on_c, 9, 69, 37
1, 190088, Note_on_c, 1, 35, 111
1, 190088, Note_on_c, 8, 78, 82
1, 190090, Note_on_c, 9, 69, 0
1, 190090, Note_on_c, 9, 42, 0
1, 190168, Note_on_c, 1, 35, 0
1, 190176, Note_on_c, 8, 78, 0
1, 190178, Note_on_c, 9, 69, 38
1, 190180, Note_on_c, 9, 44, 53
1, 190182, Note_on_c, 9, 69, 0
1, 190182, Note_on_c, 1, 35, 109
1, 190184, Note_on_c, 9, 44, 0
1, 190262, Note_on_c, 1, 35, 0
1, 190270, Note_on_c, 1, 40, 118
1, 190272, Note_on_c, 8, 80, 77
1, 190274, Note_on_c, 9, 42, 50
1, 190276, Note_on_c, 9, 69, 36
1, 190278, Note_on_c, 9, 42, 0
1, 190280, Note_on_c, 9, 69, 0
1, 190350, Note_on_c, 1, 40, 0
1, 190356, Note_on_c, 1, 39, 112
1, 190360, Note_on_c, 8, 80, 0
1, 190360, Note_on_c, 9, 69, 37
1, 190364, Note_on_c, 9, 69, 0
1, 190364, Note_on_c, 9, 36, 118
1, 190368, Note_on_c, 9, 36, 0
1, 190372, Note_on_c, 9, 44, 53
1, 190376, Note_on_c, 9, 44, 0
1, 190432, Note_on_c, 7, 71, 0
1, 190432, Note_on_c, 2, 68, 0
1, 190434, Note_on_c, 7, 59, 0
1, 190436, Note_on_c, 2, 64, 0
1, 190436, Note_on_c, 1, 39, 0
1, 190444, Note_on_c, 2, 59, 0
1, 190454, Note_on_c, 2, 64, 100
1, 190456, Note_on_c, 4, 59, 66
1, 190456, Note_on_c, 9, 36, 120
1, 190456, Note_on_c, 9, 42, 52
1, 190456, Note_on_c, 9, 69, 34
1, 190460, Note_on_c, 9, 69, 0
1, 190460, Note_on_c, 9, 42, 0
1, 190460, Note_on_c, 9, 36, 0
1, 190460, Note_on_c, 9, 63, 80
1, 190462, Note_on_c, 2, 68, 102
1, 190462, Note_on_c, 13, 64, 110
1, 190464, Note_on_c, 9, 63, 0
1, 190464, Note_on_c, 4, 64, 64
1, 190464, Control_c, 14, 1, 28
1, 190464, Pitch_bend_c, 14, 7296
1, 190464, Control_c, 15, 1, 28
1, 190466, Note_on_c, 1, 37, 113
1, 190466, Note_on_c, 2, 59, 102
1, 190466, Note_on_c, 7, 68, 82
1, 190468, Note_on_c, 14, 76, 113
1, 190470, Note_on_c, 7, 80, 79
1, 190470, Note_on_c, 15, 68, 107
1, 190472, Pitch_bend_c, 14, 7360
1, 190476, Pitch_bend_c, 14, 7424
1, 190480, Note_on_c, 13, 68, 111
1, 190480, Pitch_bend_c, 14, 7488
1, 190484, Pitch_bend_c, 14, 7552
1, 190488, Pitch_bend_c, 14, 7616
1, 190492, Pitch_bend_c, 14, 7680
1, 190496, Pitch_bend_c, 14, 7744
1, 190500, Pitch_bend_c, 14, 7808
1, 190504, Pitch_bend_c, 14, 7872
1, 190508, Pitch_bend_c, 14, 7936
1, 190510, Note_on_c, 4, 59, 0
1, 190512, Pitch_bend_c, 14, 8000
1, 190516, Pitch_bend_c, 14, 8064
1, 190518, Note_on_c, 4, 64, 0
1, 190520, Pitch_bend_c, 14, 8128
1, 190524, Pitch_bend_c, 14, 8192
1, 190550, Note_on_c, 4, 64, 97
1, 190552, Note_on_c, 4, 59, 100
1, 190552, Note_on_c, 4, 68, 95
1, 190552, Note_on_c, 9, 63, 84
1, 190556, Note_on_c, 9, 63, 0
1, 190556, Note_on_c, 9, 69, 30
1, 190556, Note_on_c, 9, 44, 53
1, 190560, Note_on_c, 9, 44, 0
1, 190560, Note_on_c, 9, 69, 0
1, 190563, Control_c, 14, 1, 70
1, 190563, Control_c, 15, 1, 70
1, 190652, Note_on_c, 8, 83, 74
1, 190652, Note_on_c, 9, 42, 50
1, 190656, Note_on_c, 9, 42, 0
1, 190660, Note_on_c, 9, 69, 32
1, 190664, Note_on_c, 9, 69, 0
1, 190680, Control_c, 14, 1, 55
1, 190680, Control_c, 15, 1, 55
1, 190730, Note_on_c, 4, 64, 0
1, 190732, Note_on_c, 4, 68, 0
1, 190732, Note_on_c, 4, 59, 0
1, 190740, Note_on_c, 8, 83, 0
1, 190746, Note_on_c, 4, 59, 64
1, 190750, Note_on_c, 4, 64, 66
1, 190754, Note_on_c, 4, 68, 62
1, 190754, Note_on_c, 9, 44, 57
1, 190754, Note_on_c, 9, 69, 30
1, 190758, Note_on_c, 9, 69, 0
1, 190758, Note_on_c, 9, 44, 0
1, 190767, Control_c, 14, 1, 37
1, 190767, Control_c, 15, 1, 37
1, 190800, Note_on_c, 4, 59, 0
1, 190804, Note_on_c, 4, 64, 0
1, 190808, Note_on_c, 4, 68, 0
1, 190822, Note_on_c, 13, 64, 0
1, 190828, Note_on_c, 14, 76, 0
1, 190830, Note_on_c, 15, 68, 0
1, 190840, Note_on_c, 13, 68, 0
1, 190842, Note_on_c, 9, 42, 54
1, 190844, Note_on_c, 9, 38, 125
1, 190844, Note_on_c, 9, 69, 34
1, 190846, Note_on_c, 9, 42, 0
1, 190848, Note_on_c, 9, 38, 0
1, 190848, Note_on_c, 9, 69, 0
1, 190848, Note_on_c, 9, 64, 79
1, 190852, Note_on_c, 9, 64, 0
1, 190852, Note_on_c, 8, 81, 76
1, 190926, Note_on_c, 1, 37, 0
1, 190935, Control_c, 14, 1, 15
1, 190935, Control_c, 15, 1, 15
1, 190936, Note_on_c, 9, 44, 53
1, 190940, Note_on_c, 9, 44, 0
1, 190940, Note_on_c, 8, 81, 0
1, 190944, Note_on_c, 9, 69, 35
1, 190948, Note_on_c, 9, 69, 0
1, 190954, Note_on_c, 1, 32, 115
1, 191034, Note_on_c, 1, 32, 0
1, 191034, Note_on_c, 5, 71, 71
1, 191034, Note_on_c, 8, 80, 83
1, 191036, Note_on_c, 9, 36, 109
1, 191036, Note_on_c, 9, 69, 34
1, 191038, Note_on_c, 9, 42, 58
1, 191038, Note_on_c, 13, 59, 103
1, 191040, Note_on_c, 9, 69, 0
1, 191040, Note_on_c, 9, 36, 0
1, 191042, Note_on_c, 9, 42, 0
1, 191044, Note_on_c, 1, 37, 116
1, 191044, Note_on_c, 15, 59, 111
1, 191046, Note_on_c, 14, 71, 115
1, 191110, Note_on_c, 5, 71, 0
1, 191122, Note_on_c, 8, 80, 0
1, 191128, Note_on_c, 9, 63, 79
1, 191130, Note_on_c, 9, 69, 34
1, 191130, Note_on_c, 9, 46, 101
1, 191132, Note_on_c, 9, 63, 0
1, 191132, Note_on_c, 9, 36, 109
1, 191134, Note_on_c, 9, 46, 0
1, 191134, Note_on_c, 9, 69, 0
1, 191136, Note_on_c, 9, 36, 0
1, 191140, Note_on_c, 5, 71, 68
1, 191216, Note_on_c, 5, 71, 0
1, 191218, Note_on_c, 13, 59, 0
1, 191222, Note_on_c, 1, 37, 0
1, 191222, Note_on_c, 1, 37, 110
1, 191224, Note_on_c, 15, 59, 0
1, 191224, Note_on_c, 5, 71, 73
1, 191226, Note_on_c, 14, 71, 0
1, 191226, Note_on_c, 9, 69, 31
1, 191230, Note_on_c, 9, 69, 0
1, 191230, Note_on_c, 13, 64, 104
1, 191232, Pitch_bend_c, 14, 7296
1, 191232, Pitch_bend_c, 15, 7296
1, 191234, Note_on_c, 13, 68, 103
1, 191234, Note_on_c, 14, 76, 115
1, 191236, Note_on_c, 9, 42, 59
1, 191236, Note_on_c, 15, 68, 112
1, 191240, Note_on_c, 9, 42, 0
1, 191240, Note_on_c, 8, 78, 83
1, 191240, Pitch_bend_c, 14, 7360
1, 191240, Pitch_bend_c, 15, 7360
1, 191244, Pitch_bend_c, 14, 7424
1, 191244, Pitch_bend_c, 15, 7424
1, 191248, Pitch_bend_c, 14, 7488
1, 191248, Pitch_bend_c, 15, 7488
1, 191252, Pitch_bend_c, 14, 7552
1, 191252, Pitch_bend_c, 15, 7552
1, 191256, Pitch_bend_c, 14, 7616
1, 191256, Pitch_bend_c, 15, 7616
1, 191260, Pitch_bend_c, 14, 7680
1, 191260, Pitch_bend_c, 15, 7680
1, 191264, Pitch_bend_c, 14, 7744
1, 191264, Pitch_bend_c, 15, 7744
1, 191268, Pitch_bend_c, 14, 7808
1, 191268, Pitch_bend_c, 15, 7808
1, 191272, Pitch_bend_c, 14, 7872
1, 191272, Pitch_bend_c, 15, 7872
1, 191276, Pitch_bend_c, 14, 7936
1, 191276, Pitch_bend_c, 15, 7936
1, 191280, Pitch_bend_c, 14, 8000
1, 191280, Pitch_bend_c, 15, 8000
1, 191284, Pitch_bend_c, 14, 8064
1, 191284, Pitch_bend_c, 15, 8064
1, 191288, Pitch_bend_c, 14, 8128
1, 191288, Pitch_bend_c, 15, 8128
1, 191292, Pitch_bend_c, 14, 8192
1, 191292, Pitch_bend_c, 15, 8192
1, 191300, Note_on_c, 5, 71, 0
1, 191326, Note_on_c, 9, 44, 52
1, 191326, Note_on_c, 9, 62, 86
1, 191328, Note_on_c, 8, 78, 0
1, 191330, Note_on_c, 9, 62, 0
1, 191330, Note_on_c, 9, 44, 0
1, 191330, Note_on_c, 9, 69, 29
1, 191334, Note_on_c, 9, 69, 0
1, 191336, Note_on_c, 5, 71, 72
1, 191412, Note_on_c, 5, 71, 0
1, 191420, Note_on_c, 9, 64, 83
1, 191422, Note_on_c, 9, 42, 53
1, 191424, Note_on_c, 9, 64, 0
1, 191424, Note_on_c, 9, 69, 31
1, 191426, Note_on_c, 9, 42, 0
1, 191426, Note_on_c, 4, 64, 100
1, 191426, Note_on_c, 8, 76, 75
1, 191428, Note_on_c, 9, 69, 0
1, 191430, Note_on_c, 4, 68, 102
1, 191482, Note_on_c, 1, 37, 0
1, 191490, Note_on_c, 13, 64, 0
1, 191494, Note_on_c, 13, 68, 0
1, 191494, Note_on_c, 14, 76, 0
1, 191496, Note_on_c, 15, 68, 0
1, 191512, Note_on_c, 1, 37, 111
1, 191512, Note_on_c, 4, 69, 68
1, 191514, Note_on_c, 8, 76, 0
1, 191516, Note_on_c, 14, 78, 117
1, 191518, Note_on_c, 15, 69, 110
1, 191520, Note_on_c, 13, 69, 108
1, 191524, Note_on_c, 9, 44, 50
1, 191526, Note_on_c, 9, 69, 37
1, 191528, Note_on_c, 9, 44, 0
1, 191530, Note_on_c, 9, 69, 0
1, 191530, Note_on_c, 13, 66, 110
1, 191566, Note_on_c, 4, 69, 0
1, 191592, Note_on_c, 1, 37, 0
1, 191608, Note_on_c, 9, 38, 119
1, 191610, Note_on_c, 9, 42, 50
1, 191612, Note_on_c, 9, 38, 0
1, 191614, Note_on_c, 9, 42, 0
1, 191614, Note_on_c, 8, 78, 81
1, 191616, Note_on_c, 9, 69, 37
1, 191620, Note_on_c, 9, 69, 0
1, 191622, Note_on_c, 1, 35, 110
1, 191702, Note_on_c, 1, 35, 0
1, 191702, Note_on_c, 8, 78, 0
1, 191710, Note_on_c, 9, 44, 52
1, 191712, Note_on_c, 9, 69, 34
1, 191714, Note_on_c, 9, 44, 0
1, 191716, Note_on_c, 9, 69, 0
1, 191720, Note_on_c, 1, 35, 113
1, 191776, Note_on_c, 14, 78, 0
1, 191778, Note_on_c, 15, 69, 0
1, 191780, Note_on_c, 13, 69, 0
1, 191790, Note_on_c, 13, 66, 0
1, 191800, Note_on_c, 1, 35, 0
1, 191800, Note_on_c, 14, 80, 112
1, 191804, Note_on_c, 1, 37, 112
1, 191804, Note_on_c, 15, 71, 105
1, 191808, Note_on_c, 9, 69, 29
1, 191812, Note_on_c, 9, 69, 0
1, 191812, Note_on_c, 8, 80, 81
1, 191812, Note_on_c, 9, 42, 55
1, 191816, Note_on_c, 9, 42, 0
1, 191816, Note_on_c, 13, 68, 110
1, 191818, Note_on_c, 13, 71, 111
1, 191896, Note_on_c, 9, 69, 33
1, 191900, Note_on_c, 9, 69, 0
1, 191900, Note_on_c, 8, 80, 0
1, 191902, Note_on_c, 9, 36, 123
1, 191904, Note_on_c, 9, 44, 56
1, 191906, Note_on_c, 9, 36, 0
1, 191908, Note_on_c, 9, 44, 0
1, 191966, Note_on_c, 7, 68, 0
1, 191966, Note_on_c, 4, 64, 0
1, 191966, Note_on_c, 2, 64, 0
1, 191970, Note_on_c, 4, 68, 0
1, 191970, Note_on_c, 7, 80, 0
1, 191974, Note_on_c, 6, 56, 0
1, 191974, Note_on_c, 2, 68, 0
1, 191978, Note_on_c, 2, 59, 0
1, 191980, Note_on_c, 14, 80, 0
1, 191984, Note_on_c, 15, 71, 0
1, 191984, Note_on_c, 1, 37, 0
1, 191986, Note_on_c, 6, 59, 0
1, 191990, Note_on_c, 6, 54, 66
1, 191990, Note_on_c, 7, 69, 79
1, 191990, Note_on_c, 7, 81, 79
1, 191994, Note_on_c, 6, 64, 0
1, 191996, Note_on_c, 13, 68, 0
1, 191996, Note_on_c, 2, 62, 95
1, 191996, Note_on_c, 9, 36, 120
1, 191998, Note_on_c, 13, 71, 0
1, 191998, Note_on_c, 14, 81, 112
1, 192000, Note_on_c, 9, 36, 0
1, 192000, Note_on_c, 2, 66, 101
1, 192000, Pitch_bend_c, 15, 7296
1, 192002, Note_on_c, 4, 62, 59
1, 192004, Note_on_c, 13, 73, 108
1, 192004, Note_on_c, 15, 73, 105
1, 192006, Note_on_c, 2, 57, 98
1, 192006, Note_on_c, 6, 57, 72
1, 192006, Note_on_c, 9, 42, 52
1, 192006, Note_on_c, 9, 63, 81
1, 192006, Note_on_c, 9, 69, 33
1, 192008, Note_on_c, 1, 38, 117
1, 192008, Note_on_c, 4, 57, 65
1, 192008, Pitch_bend_c, 15, 7360
1, 192010, Note_on_c, 9, 69, 0
1, 192010, Note_on_c, 9, 63, 0
1, 192010, Note_on_c, 9, 42, 0
1, 192010, Note_on_c, 6, 62, 67
1, 192012, Pitch_bend_c, 15, 7424
1, 192014, Note_on_c, 13, 69, 106
1, 192016, Pitch_bend_c, 15, 7488
1, 192020, Pitch_bend_c, 15, 7552
1, 192024, Pitch_bend_c, 15, 7616
1, 192028, Pitch_bend_c, 15, 7680
1, 192032, Pitch_bend_c, 15, 7744
1, 192036, Pitch_bend_c, 15, 7808
1, 192040, Pitch_bend_c, 15, 7872
1, 192044, Pitch_bend_c, 15, 7936
1, 192048, Pitch_bend_c, 15, 8000
1, 192052, Pitch_bend_c, 15, 8064
1, 192056, Note_on_c, 4, 62, 0
1, 192056, Pitch_bend_c, 15, 8128
1, 192060, Pitch_bend_c, 15, 8192
1, 192062, Note_on_c, 4, 57, 0
1, 192084, Note_on_c, 13, 73, 0
1, 192088, Note_on_c, 9, 44, 58
1, 192090, Note_on_c, 15, 69, 108
1, 192092, Note_on_c, 9, 44, 0
1, 192092, Note_on_c, 4, 62, 98
1, 192094, Note_on_c, 13, 69, 0
1, 192094, Note_on_c, 13, 71, 108
1, 192096, Note_on_c, 4, 66, 99
1, 192096, Note_on_c, 14, 80, 109
1, 192102, Note_on_c, 14, 81, 0
1, 192102, Note_on_c, 9, 63, 81
1, 192102, Note_on_c, 9, 69, 38
1, 192104, Note_on_c, 4, 57, 96
1, 192106, Note_on_c, 9, 69, 0
1, 192106, Note_on_c, 9, 63, 0
1, 192108, Note_on_c, 15, 73, 0
1, 192108, Note_on_c, 13, 68, 108
1, 192174, Note_on_c, 13, 71, 0
1, 192186, Note_on_c, 8, 81, 75
1, 192188, Note_on_c, 13, 68, 0
1, 192190, Note_on_c, 9, 42, 56
1, 192192, Note_on_c, 13, 69, 104
1, 192192, Note_on_c, 14, 78, 114
1, 192192, Note_on_c, 15, 71, 111
1, 192194, Note_on_c, 9, 42, 0
1, 192194, Note_on_c, 15, 69, 0
1, 192198, Note_on_c, 9, 69, 32
1, 192200, Note_on_c, 14, 80, 0
1, 192202, Note_on_c, 9, 69, 0
1, 192206, Note_on_c, 13, 66, 105
1, 192272, Note_on_c, 4, 62, 0
1, 192274, Note_on_c, 8, 81, 0
1, 192276, Note_on_c, 4, 66, 0
1, 192278, Note_on_c, 4, 62, 63
1, 192284, Note_on_c, 4, 57, 0
1, 192284, Note_on_c, 4, 57, 64
1, 192288, Note_on_c, 4, 66, 64
1, 192288, Note_on_c, 9, 69, 35
1, 192292, Note_on_c, 9, 69, 0
1, 192292, Note_on_c, 9, 44, 55
1, 192296, Note_on_c, 9, 44, 0
1, 192332, Note_on_c, 4, 62, 0
1, 192338, Note_on_c, 4, 57, 0
1, 192342, Note_on_c, 4, 66, 0
1, 192380, Note_on_c, 8, 80, 82
1, 192382, Note_on_c, 9, 42, 57
1, 192382, Note_on_c, 9, 69, 30
1, 192384, Note_on_c, 9, 38, 117
1, 192386, Note_on_c, 9, 69, 0
1, 192386, Note_on_c, 9, 42, 0
1, 192388, Note_on_c, 9, 38, 0
1, 192390, Note_on_c, 9, 64, 85
1, 192394, Note_on_c, 9, 64, 0
1, 192468, Note_on_c, 8, 80, 0
1, 192474, Note_on_c, 9, 69, 32
1, 192478, Note_on_c, 9, 69, 0
1, 192486, Note_on_c, 9, 44, 50
1, 192490, Note_on_c, 9, 44, 0
1, 192548, Note_on_c, 1, 38, 0
1, 192552, Note_on_c, 15, 71, 0
1, 192552, Note_on_c, 14, 78, 0
1, 192552, Note_on_c, 13, 69, 0
1, 192566, Note_on_c, 13, 66, 0
1, 192568, Note_on_c, 1, 38, 118
1, 192568, Note_on_c, 9, 42, 53
1, 192572, Note_on_c, 9, 42, 0
1, 192572, Note_on_c, 5, 74, 70
1, 192574, Note_on_c, 8, 78, 82
1, 192582, Note_on_c, 9, 36, 110
1, 192582, Note_on_c, 9, 69, 33
1, 192586, Note_on_c, 9, 69, 0
1, 192586, Note_on_c, 9, 36, 0
1, 192648, Note_on_c, 5, 74, 0
1, 192662, Note_on_c, 8, 78, 0
1, 192664, Note_on_c, 9, 63, 87
1, 192668, Note_on_c, 9, 63, 0
1, 192672, Note_on_c, 5, 74, 69
1, 192672, Note_on_c, 9, 69, 38
1, 192672, Note_on_c, 9, 36, 109
1, 192672, Note_on_c, 9, 46, 108
1, 192676, Note_on_c, 9, 46, 0
1, 192676, Note_on_c, 9, 36, 0
1, 192676, Note_on_c, 9, 69, 0
1, 192748, Note_on_c, 5, 74, 0
1, 192748, Note_on_c, 1, 38, 0
1, 192758, Note_on_c, 1, 38, 116
1, 192760, Note_on_c, 9, 69, 36
1, 192764, Note_on_c, 9, 69, 0
1, 192764, Note_on_c, 5, 69, 64
1, 192768, Note_on_c, 8, 76, 75
1, 192772, Note_on_c, 9, 42, 53
1, 192776, Note_on_c, 9, 42, 0
1, 192840, Note_on_c, 5, 69, 0
1, 192856, Note_on_c, 8, 76, 0
1, 192866, Note_on_c, 9, 44, 59
1, 192868, Note_on_c, 9, 62, 81
1, 192870, Note_on_c, 9, 44, 0
1, 192870, Note_on_c, 5, 71, 70
1, 192870, Note_on_c, 9, 69, 34
1, 192872, Note_on_c, 9, 62, 0
1, 192874, Note_on_c, 9, 69, 0
1, 192946, Note_on_c, 5, 71, 0
1, 192952, Note_on_c, 14, 71, 114
1, 192954, Note_on_c, 13, 59, 108
1, 192956, Note_on_c, 9, 42, 58
1, 192956, Note_on_c, 9, 69, 35
1, 192960, Note_on_c, 9, 69, 0
1, 192960, Note_on_c, 9, 42, 0
1, 192960, Note_on_c, 15, 59, 106
1, 192962, Note_on_c, 8, 75, 76
1, 192962, Note_on_c, 9, 64, 82
1, 192964, Note_on_c, 5, 71, 66
1, 192966, Note_on_c, 9, 64, 0
1, 193018, Note_on_c, 1, 38, 0
1, 193040, Note_on_c, 5, 71, 0
1, 193048, Note_on_c, 4, 57, 67
1, 193048, Note_on_c, 4, 66, 64
1, 193050, Note_on_c, 8, 75, 0
1, 193052, Note_on_c, 1, 33, 117
1, 193052, Note_on_c, 4, 62, 65
1, 193058, Note_on_c, 9, 69, 38
1, 193060, Note_on_c, 9, 44, 51
1, 193062, Note_on_c, 9, 69, 0
1, 193064, Note_on_c, 9, 44, 0
1, 193102, Note_on_c, 4, 66, 0
1, 193102, Note_on_c, 4, 57, 0
1, 193106, Note_on_c, 4, 62, 0
1, 193132, Note_on_c, 14, 71, 0
1, 193132, Note_on_c, 1, 33, 0
1, 193134, Note_on_c, 13, 59, 0
1, 193140, Note_on_c, 15, 59, 0
1, 193142, Note_on_c, 5, 64, 66
1, 193144, Note_on_c, 9, 42, 59
1, 193146, Note_on_c, 13, 59, 105
1, 193148, Note_on_c, 9, 42, 0
1, 193152, Note_on_c, 8, 76, 77
1, 193156, Note_on_c, 1, 35, 118
1, 193156, Note_on_c, 9, 38, 124
1, 193156, Note_on_c, 14, 71, 115
1, 193158, Note_on_c, 9, 69, 38
1, 193158, Note_on_c, 15, 59, 108
1, 193160, Note_on_c, 9, 38, 0
1, 193162, Note_on_c, 9, 69, 0
1, 193218, Note_on_c, 5, 64, 0
1, 193236, Note_on_c, 1, 38, 111
1, 193240, Note_on_c, 8, 76, 0
1, 193240, Note_on_c, 5, 64, 69
1, 193252, Note_on_c, 1, 35, 0
1, 193252, Note_on_c, 9, 44, 56
1, 193252, Note_on_c, 9, 69, 34
1, 193256, Note_on_c, 9, 69, 0
1, 193256, Note_on_c, 9, 44, 0
1, 193316, Note_on_c, 5, 64, 0
1, 193332, Note_on_c, 1, 38, 0
1, 193336, Note_on_c, 5, 64, 69
1, 193336, Note_on_c, 9, 42, 52
1, 193340, Note_on_c, 9, 42, 0
1, 193344, Note_on_c, 8, 78, 79
1, 193346, Note_on_c, 9, 69, 33
1, 193350, Note_on_c, 9, 69, 0
1, 193350, Note_on_c, 1, 35, 118
1, 193412, Note_on_c, 5, 64, 0
1, 193430, Note_on_c, 1, 35, 0
1, 193432, Note_on_c, 8, 78, 0
1, 193434, Note_on_c, 9, 36, 117
1, 193438, Note_on_c, 9, 36, 0
1, 193440, Note_on_c, 9, 44, 54
1, 193442, Note_on_c, 9, 69, 32
1, 193444, Note_on_c, 9, 44, 0
1, 193446, Note_on_c, 9, 69, 0
1, 193446, Note_on_c, 1, 33, 110
1, 193506, Note_on_c, 13, 59, 0
1, 193508, Note_on_c, 2, 62, 0
1, 193512, Note_on_c, 2, 66, 0
1, 193516, Note_on_c, 14, 71, 0
1, 193518, Note_on_c, 15, 59, 0
1, 193518, Note_on_c, 2, 57, 0
1, 193526, Note_on_c, 1, 33, 0
1, 193526, Note_on_c, 13, 73, 104
1, 193528, Note_on_c, 9, 42, 58
1, 193528, Note_on_c, 9, 63, 88
1, 193528, Note_on_c, 15, 73, 104
1, 193530, Note_on_c, 1, 38, 111
1, 193530, Note_on_c, 2, 66, 95
1, 193530, Note_on_c, 14, 81, 112
1, 193532, Note_on_c, 9, 63, 0
1, 193532, Note_on_c, 9, 42, 0
1, 193532, Note_on_c, 2, 57, 97
1, 193534, Note_on_c, 4, 62, 63
1, 193536, Note_on_c, 9, 36, 123
1, 193536, Note_on_c, 9, 69, 33
1, 193536, Pitch_bend_c, 15, 7296
1, 193538, Note_on_c, 13, 69, 111
1, 193540, Note_on_c, 9, 69, 0
1, 193540, Note_on_c, 9, 36, 0
1, 193540, Note_on_c, 2, 62, 100
1, 193544, Note_on_c, 4, 57, 68
1, 193544, Pitch_bend_c, 15, 7360
1, 193548, Pitch_bend_c, 15, 7424
1, 193552, Pitch_bend_c, 15, 7488
1, 193556, Pitch_bend_c, 15, 7552
1, 193560, Pitch_bend_c, 15, 7616
1, 193564, Pitch_bend_c, 15, 7680
1, 193568, Pitch_bend_c, 15, 7744
1, 193572, Pitch_bend_c, 15, 7808
1, 193576, Pitch_bend_c, 15, 7872
1, 193580, Pitch_bend_c, 15, 7936
1, 193584, Pitch_bend_c, 15, 8000
1, 193588, Note_on_c, 4, 62, 0
1, 193588, Pitch_bend_c, 15, 8064
1, 193592, Pitch_bend_c, 15, 8128
1, 193596, Pitch_bend_c, 15, 8192
1, 193598, Note_on_c, 4, 57, 0
1, 193630, Note_on_c, 9, 63, 83
1, 193632, Note_on_c, 4, 66, 103
1, 193632, Note_on_c, 9, 69, 30
1, 193634, Note_on_c, 9, 63, 0
1, 193636, Note_on_c, 9, 69, 0
1, 193638, Note_on_c, 4, 57, 100
1, 193638, Note_on_c, 4, 62, 99
1, 193638, Note_on_c, 9, 44, 57
1, 193642, Note_on_c, 9, 44, 0
1, 193724, Note_on_c, 8, 81, 81
1, 193730, Note_on_c, 9, 42, 53
1, 193732, Note_on_c, 9, 69, 33
1, 193734, Note_on_c, 9, 42, 0
1, 193736, Note_on_c, 9, 69, 0
1, 193812, Note_on_c, 8, 81, 0
1, 193812, Note_on_c, 4, 66, 0
1, 193816, Note_on_c, 4, 66, 59
1, 193818, Note_on_c, 4, 62, 0
1, 193818, Note_on_c, 4, 57, 0
1, 193822, Note_on_c, 4, 57, 59
1, 193822, Note_on_c, 9, 44, 51
1, 193824, Note_on_c, 4, 62, 60
1, 193826, Note_on_c, 9, 44, 0
1, 193826, Note_on_c, 9, 69, 36
1, 193830, Note_on_c, 9, 69, 0
1, 193870, Note_on_c, 4, 66, 0
1, 193876, Note_on_c, 4, 57, 0
1, 193878, Note_on_c, 4, 62, 0
1, 193886, Note_on_c, 13, 73, 0
1, 193888, Note_on_c, 15, 73, 0
1, 193890, Note_on_c, 14, 81, 0
1, 193898, Note_on_c, 13, 69, 0
1, 193912, Note_on_c, 9, 64, 81
1, 193912, Note_on_c, 13, 69, 106
1, 193912, Note_on_c, 15, 73, 109
1, 193914, Note_on_c, 9, 38, 118
1, 193916, Note_on_c, 9, 64, 0
1, 193916, Note_on_c, 9, 69, 35
1, 193916, Note_on_c, 14, 81, 109
1, 193918, Note_on_c, 9, 38, 0
1, 193918, Note_on_c, 9, 42, 53
1, 193920, Note_on_c, 9, 69, 0
1, 193922, Note_on_c, 9, 42, 0
1, 193926, Note_on_c, 13, 73, 112
1, 193928, Note_on_c, 8, 80, 82
1, 194008, Note_on_c, 9, 44, 57
1, 194012, Note_on_c, 9, 44, 0
1, 194016, Note_on_c, 8, 80, 0
1, 194016, Note_on_c, 9, 69, 34
1, 194020, Note_on_c, 9, 69, 0
1, 194070, Note_on_c, 1, 38, 0
1, 194092, Note_on_c, 13, 69, 0
1, 194092, Note_on_c, 15, 73, 0
1, 194096, Note_on_c, 14, 81, 0
1, 194104, Note_on_c, 9, 36, 105
1, 194104, Note_on_c, 9, 69, 30
1, 194104, Note_on_c, 14, 80, 109
1, 194106, Note_on_c, 13, 73, 0
1, 194106, Note_on_c, 13, 68, 106
1, 194108, Note_on_c, 9, 69, 0
1, 194108, Note_on_c, 9, 36, 0
1, 194108, Note_on_c, 15, 71, 108
1, 194110, Note_on_c, 13, 71, 111
1, 194112, Note_on_c, 1, 38, 118
1, 194112, Note_on_c, 9, 42, 55
1, 194116, Note_on_c, 9, 42, 0
1, 194120, Note_on_c, 8, 78, 78
1, 194202, Note_on_c, 9, 46, 109
1, 194206, Note_on_c, 9, 46, 0
1, 194208, Note_on_c, 8, 78, 0
1, 194208, Note_on_c, 9, 63, 79
1, 194210, Note_on_c, 9, 36, 106
1, 194212, Note_on_c, 9, 63, 0
1, 194214, Note_on_c, 9, 36, 0
1, 194214, Note_on_c, 4, 52, 98
1, 194214, Note_on_c, 9, 69, 29
1, 194218, Note_on_c, 9, 69, 0
1, 194292, Note_on_c, 1, 38, 0
1, 194298, Note_on_c, 8, 76, 79
1, 194298, Note_on_c, 9, 42, 51
1, 194302, Note_on_c, 9, 42, 0
1, 194302, Note_on_c, 1, 38, 109
1, 194302, Note_on_c, 9, 69, 32
1, 194306, Note_on_c, 9, 69, 0
1, 194386, Note_on_c, 8, 76, 0
1, 194392, Note_on_c, 4, 52, 0
1, 194392, Note_on_c, 4, 52, 65
1, 194392, Note_on_c, 9, 44, 51
1, 194394, Note_on_c, 9, 62, 80
1, 194396, Note_on_c, 9, 44, 0
1, 194398, Note_on_c, 9, 62, 0
1, 194406, Note_on_c, 9, 69, 36
1, 194410, Note_on_c, 9, 69, 0
1, 194446, Note_on_c, 4, 52, 0
1, 194464, Note_on_c, 14, 80, 0
1, 194466, Note_on_c, 13, 68, 0
1, 194468, Note_on_c, 15, 71, 0
1, 194470, Note_on_c, 13, 71, 0
1, 194486, Note_on_c, 13, 66, 111
1, 194488, Note_on_c, 13, 69, 103
1, 194490, Note_on_c, 9, 42, 59
1, 194492, Note_on_c, 8, 75, 80
1, 194494, Note_on_c, 9, 42, 0
1, 194496, Note_on_c, 9, 64, 86
1, 194496, Note_on_c, 14, 78, 115
1, 194498, Note_on_c, 9, 69, 31
1, 194500, Note_on_c, 9, 64, 0
1, 194500, Note_on_c, 4, 54, 97
1, 194502, Note_on_c, 9, 69, 0
1, 194502, Note_on_c, 15, 69, 104
1, 194562, Note_on_c, 1, 38, 0
1, 194580, Note_on_c, 8, 75, 0
1, 194592, Note_on_c, 1, 35, 112
1, 194592, Note_on_c, 9, 44, 52
1, 194596, Note_on_c, 9, 44, 0
1, 194598, Note_on_c, 9, 69, 33
1, 194602, Note_on_c, 9, 69, 0
1, 194650, Note_on_c, 2, 66, 0
1, 194652, Note_on_c, 2, 57, 0
1, 194660, Note_on_c, 2, 62, 0
1, 194666, Note_on_c, 13, 66, 0
1, 194668, Note_on_c, 13, 69, 0
1, 194672, Note_on_c, 1, 35, 0
1, 194676, Note_on_c, 14, 78, 0
1, 194676, Note_on_c, 1, 33, 111
1, 194678, Note_on_c, 2, 57, 95
1, 194678, Note_on_c, 13, 68, 103
1, 194680, Note_on_c, 4, 54, 0
1, 194680, Note_on_c, 9, 69, 32
1, 194682, Note_on_c, 15, 69, 0
1, 194682, Note_on_c, 14, 76, 116
1, 194682, Note_on_c, 15, 68, 112
1, 194684, Note_on_c, 9, 69, 0
1, 194686, Note_on_c, 8, 76, 74
1, 194688, Note_on_c, 2, 66, 101
1, 194688, Note_on_c, 4, 56, 98
1, 194690, Note_on_c, 9, 38, 117
1, 194692, Note_on_c, 9, 42, 58
1, 194694, Note_on_c, 9, 38, 0
1, 194694, Note_on_c, 2, 62, 99
1, 194694, Note_on_c, 13, 64, 109
1, 194696, Note_on_c, 9, 42, 0
1, 194772, Note_on_c, 1, 33, 0
1, 194774, Note_on_c, 8, 76, 0
1, 194778, Note_on_c, 9, 38, 117
1, 194780, Note_on_c, 9, 44, 51
1, 194782, Note_on_c, 9, 38, 0
1, 194784, Note_on_c, 9, 44, 0
1, 194784, Note_on_c, 1, 35, 111
1, 194790, Note_on_c, 9, 69, 31
1, 194794, Note_on_c, 9, 69, 0
1, 194858, Note_on_c, 13, 68, 0
1, 194862, Note_on_c, 14, 76, 0
1, 194862, Note_on_c, 15, 68, 0
1, 194868, Note_on_c, 4, 56, 0
1, 194872, Note_on_c, 9, 43, 117
1, 194874, Note_on_c, 13, 64, 0
1, 194876, Note_on_c, 9, 43, 0
1, 194878, Note_on_c, 14, 78, 112
1, 194880, Note_on_c, 1, 35, 0
1, 194880, Note_on_c, 9, 69, 38
1, 194882, Note_on_c, 9, 42, 57
1, 194882, Note_on_c, 13, 66, 105
1, 194882, Note_on_c, 15, 69, 112
1, 194884, Note_on_c, 9, 69, 0
1, 194884, Note_on_c, 8, 78, 78
1, 194886, Note_on_c, 9, 42, 0
1, 194886, Note_on_c, 4, 59, 98
1, 194892, Note_on_c, 1, 38, 111
1, 194894, Note_on_c, 13, 69, 109
1, 194964, Note_on_c, 1, 40, 113
1, 194968, Note_on_c, 9, 44, 55
1, 194972, Note_on_c, 9, 44, 0
1, 194972, Note_on_c, 1, 38, 0
1, 194972, Note_on_c, 8, 78, 0
1, 194972, Note_on_c, 9, 69, 34
1, 194976, Note_on_c, 9, 69, 0
1, 194978, Note_on_c, 9, 36, 122
1, 194982, Note_on_c, 9, 36, 0
1, 195038, Note_on_c, 2, 57, 0
1, 195044, Note_on_c, 1, 40, 0
1, 195048, Note_on_c, 2, 66, 0
1, 195050, Note_on_c, 6, 54, 0
1, 195054, Note_on_c, 2, 62, 0
1, 195058, Note_on_c, 14, 78, 0
1, 195058, Note_on_c, 6, 64, 68
1, 195062, Note_on_c, 13, 66, 0
1, 195062, Note_on_c, 15, 69, 0
1, 195064, Note_on_c, 9, 69, 36
1, 195066, Note_on_c, 6, 57, 0
1, 195066, Note_on_c, 4, 59, 0
1, 195066, Note_on_c, 14, 76, 111
1, 195068, Note_on_c, 9, 69, 0
1, 195068, Note_on_c, 2, 59, 94
1, 195068, Note_on_c, 2, 64, 102
1, 195068, Note_on_c, 6, 59, 73
1, 195068, Note_on_c, 15, 68, 104
1, 195070, Note_on_c, 6, 62, 0
1, 195072, Note_on_c, 4, 59, 59
1, 195072, Note_on_c, 9, 49, 109
1, 195072, Control_c, 14, 1, 28
1, 195072, Control_c, 15, 1, 28
1, 195074, Note_on_c, 13, 69, 0
1, 195074, Note_on_c, 4, 64, 60
1, 195074, Note_on_c, 9, 63, 82
1, 195076, Note_on_c, 9, 49, 0
1, 195076, Note_on_c, 1, 28, 114
1, 195078, Note_on_c, 9, 63, 0
1, 195078, Note_on_c, 2, 68, 101
1, 195078, Note_on_c, 6, 56, 72
1, 195078, Note_on_c, 9, 36, 116
1, 195078, Note_on_c, 13, 64, 111
1, 195082, Note_on_c, 9, 36, 0
1, 195084, Note_on_c, 13, 68, 111
1, 195126, Note_on_c, 4, 59, 0
1, 195128, Note_on_c, 4, 64, 0
1, 195130, Note_on_c, 7, 81, 0
1, 195130, Note_on_c, 7, 69, 0
1, 195162, Note_on_c, 9, 69, 34
1, 195166, Note_on_c, 9, 69, 0
1, 195166, Note_on_c, 4, 52, 100
1, 195166, Note_on_c, 9, 63, 84
1, 195166, Note_on_c, 9, 44, 57
1, 195170, Note_on_c, 9, 44, 0
1, 195170, Note_on_c, 9, 63, 0
1, 195170, Note_on_c, 4, 59, 99
1, 195171, Control_c, 14, 1, 70
1, 195171, Control_c, 15, 1, 70
1, 195172, Note_on_c, 4, 68, 98
1, 195258, Note_on_c, 9, 69, 30
1, 195262, Note_on_c, 9, 69, 0
1, 195266, Note_on_c, 9, 42, 58
1, 195268, Note_on_c, 8, 83, 77
1, 195270, Note_on_c, 9, 42, 0
1, 195288, Control_c, 14, 1, 55
1, 195288, Control_c, 15, 1, 55
1, 195346, Note_on_c, 4, 52, 0
1, 195350, Note_on_c, 4, 59, 0
1, 195352, Note_on_c, 4, 68, 0
1, 195354, Note_on_c, 9, 44, 58
1, 195356, Note_on_c, 8, 83, 0
1, 195356, Note_on_c, 4, 52, 67
1, 195358, Note_on_c, 9, 44, 0
1, 195358, Note_on_c, 9, 69, 38
1, 195362, Note_on_c, 9, 69, 0
1, 195362, Note_on_c, 4, 68, 60
1, 195366, Note_on_c, 4, 59, 68
1, 195375, Control_c, 14, 1, 37
1, 195375, Control_c, 15, 1, 37
1, 195410, Note_on_c, 4, 52, 0
1, 195416, Note_on_c, 4, 68, 0
1, 195420, Note_on_c, 4, 59, 0
1, 195426, Note_on_c, 14, 76, 0
1, 195428, Note_on_c, 15, 68, 0
1, 195436, Note_on_c, 1, 28, 0
1, 195438, Note_on_c, 13, 64, 0
1, 195444, Note_on_c, 13, 68, 0
1, 195446, Note_on_c, 7, 83, 79
1, 195448, Note_on_c, 7, 71, 82
1, 195448, Note_on_c, 9, 69, 30
1, 195452, Note_on_c, 9, 69, 0
1, 195456, Note_on_c, 8, 81, 74
1, 195460, Note_on_c, 9, 38, 121
1, 195460, Note_on_c, 9, 64, 82
1, 195462, Note_on_c, 9, 42, 57
1, 195464, Note_on_c, 9, 64, 0
1, 195464, Note_on_c, 9, 38, 0
1, 195466, Note_on_c, 9, 42, 0
1, 195543, Control_c, 14, 1, 15
1, 195543, Control_c, 15, 1, 15
1, 195544, Note_on_c, 8, 81, 0
1, 195548, Note_on_c, 9, 44, 52
1, 195550, Note_on_c, 9, 69, 29
1, 195552, Note_on_c, 9, 44, 0
1, 195554, Note_on_c, 9, 69, 0
1, 195640, Note_on_c, 8, 80, 78
1, 195644, Note_on_c, 5, 71, 71
1, 195648, Note_on_c, 1, 28, 109
1, 195652, Note_on_c, 9, 36, 105
1, 195654, Note_on_c, 9, 42, 53
1, 195654, Note_on_c, 9, 69, 34
1, 195656, Note_on_c, 9, 36, 0
1, 195658, Note_on_c, 9, 69, 0
1, 195658, Note_on_c, 9, 42, 0
1, 195720, Note_on_c, 5, 71, 0
1, 195728, Note_on_c, 8, 80, 0
1, 195736, Note_on_c, 9, 46, 101
1, 195740, Note_on_c, 9, 46, 0
1, 195742, Note_on_c, 9, 69, 37
1, 195746, Note_on_c, 9, 69, 0
1, 195746, Note_on_c, 9, 63, 82
1, 195746, Note_on_c, 9, 36, 101
1, 195750, Note_on_c, 9, 36, 0
1, 195750, Note_on_c, 9, 63, 0
1, 195750, Note_on_c, 5, 71, 71
1, 195806, Note_on_c, 7, 83, 0
1, 195808, Note_on_c, 7, 71, 0
1, 195826, Note_on_c, 5, 71, 0
1, 195828, Note_on_c, 1, 28, 0
1, 195830, Note_on_c, 1, 40, 110
1, 195832, Note_on_c, 5, 71, 65
1, 195834, Note_on_c, 7, 81, 79
1, 195834, Note_on_c, 9, 42, 55
1, 195838, Note_on_c, 9, 42, 0
1, 195838, Note_on_c, 9, 69, 31
1, 195840, Note_on_c, 8, 78, 77
1, 195842, Note_on_c, 9, 69, 0
1, 195842, Note_on_c, 7, 69, 77
1, 195908, Note_on_c, 5, 71, 0
1, 195926, Note_on_c, 5, 71, 70
1, 195928, Note_on_c, 8, 78, 0
1, 195934, Note_on_c, 9, 69, 34
1, 195938, Note_on_c, 9, 69, 0
1, 195938, Note_on_c, 9, 62, 87
1, 195942, Note_on_c, 9, 62, 0
1, 195942, Note_on_c, 9, 44, 54
1, 195946, Note_on_c, 9, 44, 0
1, 196002, Note_on_c, 5, 71, 0
1, 196026, Note_on_c, 9, 64, 87
1, 196028, Note_on_c, 13, 59, 106
1, 196030, Note_on_c, 9, 64, 0
1, 196030, Note_on_c, 14, 71, 115
1, 196032, Note_on_c, 9, 69, 30
1, 196034, Note_on_c, 8, 76, 75
1, 196034, Note_on_c, 15, 59, 112
1, 196036, Note_on_c, 9, 69, 0
1, 196038, Note_on_c, 9, 42, 57
1, 196042, Note_on_c, 9, 42, 0
1, 196090, Note_on_c, 1, 40, 0
1, 196118, Note_on_c, 1, 28, 117
1, 196122, Note_on_c, 8, 76, 0
1, 196122, Note_on_c, 9, 44, 55
1, 196122, Note_on_c, 9, 69, 31
1, 196124, Note_on_c, 4, 68, 61
1, 196126, Note_on_c, 9, 69, 0
1, 196126, Note_on_c, 9, 44, 0
1, 196130, Note_on_c, 5, 76, 70
1, 196132, Note_on_c, 4, 52, 66
1, 196132, Note_on_c, 4, 59, 66
1, 196178, Note_on_c, 4, 68, 0
1, 196186, Note_on_c, 4, 59, 0
1, 196186, Note_on_c, 4, 52, 0
1, 196194, Note_on_c, 7, 81, 0
1, 196198, Note_on_c, 1, 28, 0
1, 196202, Note_on_c, 7, 69, 0
1, 196206, Note_on_c, 5, 76, 0
1, 196208, Note_on_c, 13, 59, 0
1, 196210, Note_on_c, 14, 71, 0
1, 196210, Note_on_c, 7, 68, 79
1, 196214, Note_on_c, 15, 59, 0
1, 196216, Note_on_c, 9, 69, 36
1, 196216, Note_on_c, 15, 69, 112
1, 196218, Note_on_c, 8, 78, 80
1, 196220, Note_on_c, 9, 69, 0
1, 196220, Note_on_c, 7, 80, 83
1, 196220, Note_on_c, 9, 42, 54
1, 196224, Note_on_c, 9, 42, 0
1, 196224, Note_on_c, 1, 40, 115
1, 196224, Note_on_c, 9, 38, 117
1, 196224, Pitch_bend_c, 14, 7296
1, 196224, Pitch_bend_c, 15, 7296
1, 196228, Note_on_c, 9, 38, 0
1, 196230, Note_on_c, 14, 78, 112
1, 196232, Pitch_bend_c, 14, 7360
1, 196232, Pitch_bend_c, 15, 7360
1, 196236, Note_on_c, 13, 69, 104
1, 196236, Pitch_bend_c, 14, 7424
1, 196236, Pitch_bend_c, 15, 7424
1, 196240, Note_on_c, 13, 66, 109
1, 196240, Pitch_bend_c, 14, 7488
1, 196240, Pitch_bend_c, 15, 7488
1, 196244, Pitch_bend_c, 14, 7552
1, 196244, Pitch_bend_c, 15, 7552
1, 196248, Pitch_bend_c, 14, 7616
1, 196248, Pitch_bend_c, 15, 7616
1, 196252, Pitch_bend_c, 14, 7680
1, 196252, Pitch_bend_c, 15, 7680
1, 196256, Pitch_bend_c, 14, 7744
1, 196256, Pitch_bend_c, 15, 7744
1, 196260, Pitch_bend_c, 14, 7808
1, 196260, Pitch_bend_c, 15, 7808
1, 196264, Pitch_bend_c, 14, 7872
1, 196264, Pitch_bend_c, 15, 7872
1, 196268, Pitch_bend_c, 14, 7936
1, 196268, Pitch_bend_c, 15, 7936
1, 196272, Pitch_bend_c, 14, 8000
1, 196272, Pitch_bend_c, 15, 8000
1, 196276, Pitch_bend_c, 14, 8064
1, 196276, Pitch_bend_c, 15, 8064
1, 196280, Pitch_bend_c, 14, 8128
1, 196280, Pitch_bend_c, 15, 8128
1, 196284, Pitch_bend_c, 14, 8192
1, 196284, Pitch_bend_c, 15, 8192
1, 196304, Note_on_c, 1, 40, 0
1, 196306, Note_on_c, 8, 78, 0
1, 196312, Note_on_c, 1, 28, 116
1, 196322, Note_on_c, 9, 69, 35
1, 196326, Note_on_c, 9, 69, 0
1, 196326, Note_on_c, 9, 44, 54
1, 196330, Note_on_c, 9, 44, 0
1, 196392, Note_on_c, 1, 28, 0
1, 196410, Note_on_c, 9, 69, 38
1, 196412, Note_on_c, 9, 42, 52
1, 196414, Note_on_c, 9, 69, 0
1, 196416, Note_on_c, 9, 42, 0
1, 196422, Note_on_c, 1, 40, 118
1, 196422, Note_on_c, 8, 80, 78
1, 196502, Note_on_c, 1, 40, 0
1, 196508, Note_on_c, 9, 69, 30
1, 196510, Note_on_c, 8, 80, 0
1, 196512, Note_on_c, 9, 69, 0
1, 196512, Note_on_c, 9, 36, 118
1, 196514, Note_on_c, 1, 35, 117
1, 196516, Note_on_c, 9, 36, 0
1, 196516, Note_on_c, 9, 44, 54
1, 196520, Note_on_c, 9, 44, 0
1, 196570, Note_on_c, 7, 68, 0
1, 196576, Note_on_c, 15, 69, 0
1, 196580, Note_on_c, 2, 64, 0
1, 196580, Note_on_c, 7, 80, 0
1, 196580, Note_on_c, 2, 59, 0
1, 196590, Note_on_c, 2, 68, 0
1, 196590, Note_on_c, 14, 78, 0
1, 196594, Note_on_c, 1, 35, 0
1, 196596, Note_on_c, 13, 69, 0
1, 196598, Note_on_c, 4, 59, 63
1, 196600, Note_on_c, 13, 66, 0
1, 196602, Note_on_c, 1, 37, 117
1, 196602, Note_on_c, 13, 64, 105
1, 196604, Note_on_c, 2, 68, 95
1, 196604, Note_on_c, 9, 36, 123
1, 196606, Note_on_c, 14, 76, 114
1, 196608, Note_on_c, 9, 36, 0
1, 196608, Note_on_c, 2, 64, 98
1, 196610, Note_on_c, 4, 64, 63
1, 196610, Note_on_c, 13, 68, 105
1, 196612, Note_on_c, 7, 66, 82
1, 196612, Note_on_c, 9, 42, 59
1, 196612, Note_on_c, 9, 69, 32
1, 196612, Note_on_c, 15, 68, 108
1, 196614, Note_on_c, 2, 59, 98
1, 196614, Note_on_c, 9, 63, 81
1, 196616, Note_on_c, 9, 69, 0
1, 196616, Note_on_c, 9, 42, 0
1, 196616, Note_on_c, 7, 78, 79
1, 196618, Note_on_c, 9, 63, 0
1, 196652, Note_on_c, 4, 59, 0
1, 196664, Note_on_c, 4, 64, 0
1, 196698, Note_on_c, 4, 64, 101
1, 196702, Note_on_c, 9, 63, 82
1, 196704, Note_on_c, 9, 44, 51
1, 196704, Control_c, 14, 1, 28
1, 196704, Control_c, 15, 1, 28
1, 196706, Note_on_c, 9, 63, 0
1, 196706, Note_on_c, 9, 69, 31
1, 196708, Note_on_c, 9, 44, 0
1, 196710, Note_on_c, 9, 69, 0
1, 196712, Note_on_c, 4, 59, 103
1, 196712, Note_on_c, 4, 68, 100
1, 196796, Note_on_c, 9, 69, 34
1, 196800, Note_on_c, 9, 69, 0
1, 196800, Note_on_c, 9, 42, 57
1, 196803, Control_c, 14, 1, 70
1, 196803, Control_c, 15, 1, 70
1, 196804, Note_on_c, 9, 42, 0
1, 196806, Note_on_c, 8, 83, 78
1, 196878, Note_on_c, 4, 64, 0
1, 196886, Note_on_c, 4, 64, 62
1, 196888, Note_on_c, 4, 68, 0
1, 196888, Note_on_c, 4, 68, 59
1, 196890, Note_on_c, 4, 59, 0
1, 196890, Note_on_c, 4, 59, 63
1, 196892, Note_on_c, 9, 44, 56
1, 196894, Note_on_c, 8, 83, 0
1, 196894, Note_on_c, 9, 69, 35
1, 196896, Note_on_c, 9, 44, 0
1, 196898, Note_on_c, 9, 69, 0
1, 196920, Control_c, 14, 1, 55
1, 196920, Control_c, 15, 1, 55
1, 196940, Note_on_c, 4, 64, 0
1, 196942, Note_on_c, 4, 68, 0
1, 196944, Note_on_c, 4, 59, 0
1, 196962, Note_on_c, 1, 37, 0
1, 196972, Note_on_c, 7, 66, 0
1, 196976, Note_on_c, 7, 78, 0
1, 196982, Note_on_c, 7, 76, 79
1, 196984, Note_on_c, 9, 64, 83
1, 196988, Note_on_c, 9, 64, 0
1, 196988, Note_on_c, 9, 42, 50
1, 196990, Note_on_c, 9, 38, 117
1, 196992, Note_on_c, 9, 42, 0
1, 196994, Note_on_c, 9, 38, 0
1, 196996, Note_on_c, 8, 81, 77
1, 196998, Note_on_c, 7, 64, 74
1, 196998, Note_on_c, 9, 69, 33
1, 197002, Note_on_c, 9, 69, 0
1, 197007, Control_c, 14, 1, 37
1, 197007, Control_c, 15, 1, 37
1, 197076, Note_on_c, 1, 32, 114
1, 197082, Note_on_c, 9, 69, 31
1, 197084, Note_on_c, 8, 81, 0
1, 197086, Note_on_c, 9, 69, 0
1, 197088, Note_on_c, 9, 44, 58
1, 197092, Note_on_c, 9, 44, 0
1, 197142, Note_on_c, 13, 64, 0
1, 197146, Note_on_c, 14, 76, 0
1, 197150, Note_on_c, 13, 68, 0
1, 197152, Note_on_c, 15, 68, 0
1, 197156, Note_on_c, 1, 32, 0
1, 197175, Control_c, 14, 1, 15
1, 197175, Control_c, 15, 1, 15
1, 197180, Note_on_c, 9, 42, 54
1, 197182, Note_on_c, 8, 80, 75
1, 197182, Note_on_c, 9, 36, 102
1, 197184, Note_on_c, 9, 42, 0
1, 197184, Note_on_c, 9, 69, 30
1, 197186, Note_on_c, 9, 36, 0
1, 197186, Note_on_c, 1, 37, 114
1, 197188, Note_on_c, 9, 69, 0
1, 197190, Note_on_c, 5, 71, 67
1, 197266, Note_on_c, 5, 71, 0
1, 197270, Note_on_c, 8, 80, 0
1, 197276, Note_on_c, 5, 71, 70
1, 197276, Note_on_c, 9, 36, 110
1, 197280, Note_on_c, 9, 36, 0
1, 197280, Note_on_c, 9, 46, 109
1, 197282, Note_on_c, 9, 63, 85
1, 197284, Note_on_c, 9, 46, 0
1, 197284, Note_on_c, 9, 69, 32
1, 197286, Note_on_c, 9, 63, 0
1, 197288, Note_on_c, 9, 69, 0
1, 197342, Note_on_c, 7, 76, 0
1, 197352, Note_on_c, 5, 71, 0
1, 197358, Note_on_c, 7, 64, 0
1, 197362, Note_on_c, 7, 66, 77
1, 197364, Note_on_c, 1, 37, 0
1, 197364, Note_on_c, 1, 37, 109
1, 197370, Note_on_c, 8, 78, 75
1, 197374, Note_on_c, 7, 78, 81
1, 197376, Note_on_c, 5, 71, 66
1, 197376, Note_on_c, 9, 69, 30
1, 197378, Note_on_c, 9, 42, 54
1, 197380, Note_on_c, 9, 69, 0
1, 197382, Note_on_c, 9, 42, 0
1, 197452, Note_on_c, 5, 71, 0
1, 197458, Note_on_c, 8, 78, 0
1, 197470, Note_on_c, 9, 44, 50
1, 197474, Note_on_c, 9, 44, 0
1, 197474, Note_on_c, 9, 62, 83
1, 197476, Note_on_c, 5, 71, 66
1, 197478, Note_on_c, 9, 62, 0
1, 197478, Note_on_c, 9, 69, 34
1, 197482, Note_on_c, 9, 69, 0
1, 197552, Note_on_c, 5, 71, 0
1, 197558, Note_on_c, 13, 69, 108
1, 197562, Note_on_c, 4, 68, 61
1, 197562, Note_on_c, 9, 69, 33
1, 197564, Note_on_c, 9, 42, 52
1, 197564, Note_on_c, 9, 64, 87
1, 197566, Note_on_c, 9, 69, 0
1, 197566, Note_on_c, 13, 66, 109
1, 197566, Note_on_c, 15, 69, 103
1, 197568, Note_on_c, 9, 64, 0
1, 197568, Note_on_c, 9, 42, 0
1, 197568, Note_on_c, 14, 78, 111
1, 197572, Note_on_c, 8, 76, 82
1, 197576, Note_on_c, 4, 64, 95
1, 197616, Note_on_c, 4, 68, 0
1, 197624, Note_on_c, 1, 37, 0
1, 197660, Note_on_c, 8, 76, 0
1, 197660, Note_on_c, 1, 37, 118
1, 197662, Note_on_c, 9, 69, 38
1, 197664, Note_on_c, 4, 69, 59
1, 197664, Note_on_c, 9, 44, 58
1, 197666, Note_on_c, 9, 69, 0
1, 197668, Note_on_c, 9, 44, 0
1, 197718, Note_on_c, 4, 69, 0
1, 197722, Note_on_c, 7, 66, 0
1, 197734, Note_on_c, 7, 78, 0
1, 197738, Note_on_c, 13, 69, 0
1, 197740, Note_on_c, 1, 37, 0
1, 197746, Note_on_c, 13, 66, 0
1, 197746, Note_on_c, 15, 69, 0
1, 197746, Note_on_c, 7, 80, 78
1, 197748, Note_on_c, 14, 78, 0
1, 197750, Note_on_c, 4, 68, 95
1, 197750, Note_on_c, 7, 68, 81
1, 197750, Note_on_c, 8, 78, 80
1, 197756, Note_on_c, 14, 80, 110
1, 197762, Note_on_c, 1, 35, 116
1, 197764, Note_on_c, 9, 38, 117
1, 197764, Note_on_c, 9, 42, 54
1, 197764, Note_on_c, 9, 69, 29
1, 197764, Note_on_c, 13, 68, 104
1, 197766, Note_on_c, 15, 71, 110
1, 197768, Note_on_c, 9, 69, 0
1, 197768, Note_on_c, 9, 42, 0
1, 197768, Note_on_c, 9, 38, 0
1, 197770, Note_on_c, 13, 71, 103
1, 197838, Note_on_c, 8, 78, 0
1, 197842, Note_on_c, 1, 35, 0
1, 197858, Note_on_c, 9, 44, 56
1, 197860, Note_on_c, 9, 69, 38
1, 197862, Note_on_c, 9, 44, 0
1, 197862, Note_on_c, 1, 35, 115
1, 197864, Note_on_c, 9, 69, 0
1, 197936, Note_on_c, 14, 80, 0
1, 197942, Note_on_c, 1, 35, 0
1, 197944, Note_on_c, 13, 68, 0
1, 197944, Note_on_c, 1, 37, 110
1, 197946, Note_on_c, 15, 71, 0
1, 197946, Note_on_c, 9, 42, 59
1, 197946, Note_on_c, 13, 69, 108
1, 197946, Note_on_c, 15, 73, 109
1, 197948, Note_on_c, 9, 69, 30
1, 197948, Note_on_c, 13, 73, 105
1, 197950, Note_on_c, 9, 42, 0
1, 197950, Note_on_c, 13, 71, 0
1, 197950, Note_on_c, 8, 80, 74
1, 197950, Note_on_c, 14, 81, 118
1, 197952, Note_on_c, 9, 69, 0
1, 197952, Control_c, 14, 1, 28
1, 197952, Control_c, 15, 1, 28
1, 197952, Pitch_bend_c, 15, 7296
1, 197960, Pitch_bend_c, 15, 7360
1, 197964, Pitch_bend_c, 15, 7424
1, 197968, Pitch_bend_c, 15, 7488
1, 197972, Pitch_bend_c, 15, 7552
1, 197976, Pitch_bend_c, 15, 7616
1, 197980, Pitch_bend_c, 15, 7680
1, 197984, Pitch_bend_c, 15, 7744
1, 197988, Pitch_bend_c, 15, 7808
1, 197992, Pitch_bend_c, 15, 7872
1, 197996, Pitch_bend_c, 15, 7936
1, 198000, Pitch_bend_c, 15, 8000
1, 198004, Pitch_bend_c, 15, 8064
1, 198008, Pitch_bend_c, 15, 8128
1, 198012, Pitch_bend_c, 15, 8192
1, 198038, Note_on_c, 8, 80, 0
1, 198042, Note_on_c, 9, 36, 119
1, 198046, Note_on_c, 9, 36, 0
1, 198048, Note_on_c, 9, 44, 56
1, 198050, Note_on_c, 9, 69, 29
1, 198051, Control_c, 14, 1, 70
1, 198051, Control_c, 15, 1, 70
1, 198052, Note_on_c, 9, 44, 0
1, 198054, Note_on_c, 9, 69, 0
1, 198106, Note_on_c, 7, 80, 0
1, 198110, Note_on_c, 7, 68, 0
1, 198110, Note_on_c, 4, 68, 0
1, 198116, Note_on_c, 2, 68, 0
1, 198118, Note_on_c, 6, 64, 0
1, 198120, Note_on_c, 2, 64, 0
1, 198124, Note_on_c, 1, 37, 0
1, 198126, Note_on_c, 2, 59, 0
1, 198128, Note_on_c, 6, 59, 0
1, 198136, Note_on_c, 4, 64, 0
1, 198136, Note_on_c, 9, 36, 122
1, 198138, Note_on_c, 6, 56, 0
1, 198138, Note_on_c, 1, 38, 113
1, 198138, Note_on_c, 4, 57, 66
1, 198138, Note_on_c, 6, 66, 66
1, 198138, Note_on_c, 7, 69, 81
1, 198140, Note_on_c, 9, 36, 0
1, 198140, Note_on_c, 9, 63, 85
1, 198144, Note_on_c, 9, 63, 0
1, 198144, Note_on_c, 2, 62, 94
1, 198146, Note_on_c, 4, 62, 66
1, 198146, Note_on_c, 6, 62, 68
1, 198146, Note_on_c, 9, 42, 52
1, 198148, Note_on_c, 7, 81, 79
1, 198150, Note_on_c, 9, 42, 0
1, 198150, Note_on_c, 2, 57, 94
1, 198150, Note_on_c, 2, 66, 95
1, 198150, Note_on_c, 9, 69, 38
1, 198152, Note_on_c, 6, 57, 65
1, 198154, Note_on_c, 9, 69, 0
1, 198168, Control_c, 14, 1, 55
1, 198168, Control_c, 15, 1, 55
1, 198192, Note_on_c, 4, 57, 0
1, 198200, Note_on_c, 4, 62, 0
1, 198232, Note_on_c, 4, 57, 101
1, 198232, Note_on_c, 4, 62, 98
1, 198232, Note_on_c, 9, 69, 38
1, 198234, Note_on_c, 4, 66, 96
1, 198236, Note_on_c, 9, 69, 0
1, 198238, Note_on_c, 9, 44, 51
1, 198242, Note_on_c, 9, 44, 0
1, 198244, Note_on_c, 9, 63, 79
1, 198248, Note_on_c, 9, 63, 0
1, 198255, Control_c, 14, 1, 37
1, 198255, Control_c, 15, 1, 37
1, 198338, Note_on_c, 9, 69, 35
1, 198342, Note_on_c, 9, 69, 0
1, 198342, Note_on_c, 9, 42, 52
1, 198344, Note_on_c, 8, 81, 75
1, 198346, Note_on_c, 9, 42, 0
1, 198406, Note_on_c, 13, 69, 0
1, 198406, Note_on_c, 15, 73, 0
1, 198408, Note_on_c, 13, 73, 0
1, 198410, Note_on_c, 14, 81, 0
1, 198412, Note_on_c, 4, 62, 0
1, 198412, Note_on_c, 4, 57, 0
1, 198414, Note_on_c, 4, 66, 0
1, 198422, Note_on_c, 4, 62, 68
1, 198422, Note_on_c, 13, 68, 109
1, 198423, Control_c, 14, 1, 15
1, 198423, Control_c, 15, 1, 15
1, 198424, Note_on_c, 13, 71, 111
1, 198428, Note_on_c, 9, 69, 34
1, 198428, Note_on_c, 14, 80, 110
1, 198432, Note_on_c, 9, 69, 0
1, 198432, Note_on_c, 8, 81, 0
1, 198432, Note_on_c, 4, 57, 68
1, 198436, Note_on_c, 4, 66, 60
1, 198436, Note_on_c, 9, 44, 52
1, 198438, Note_on_c, 15, 71, 112
1, 198440, Note_on_c, 9, 44, 0
1, 198476, Note_on_c, 4, 62, 0
1, 198486, Note_on_c, 4, 57, 0
1, 198490, Note_on_c, 4, 66, 0
1, 198502, Note_on_c, 13, 68, 0
1, 198504, Note_on_c, 13, 71, 0
1, 198524, Note_on_c, 9, 64, 83
1, 198526, Note_on_c, 13, 66, 112
1, 198528, Note_on_c, 9, 64, 0
1, 198528, Note_on_c, 9, 42, 53
1, 198528, Note_on_c, 9, 69, 34
1, 198528, Note_on_c, 13, 69, 110
1, 198532, Note_on_c, 9, 69, 0
1, 198532, Note_on_c, 9, 42, 0
1, 198532, Note_on_c, 14, 80, 0
1, 198532, Note_on_c, 15, 69, 103
1, 198534, Note_on_c, 8, 80, 80
1, 198534, Note_on_c, 9, 38, 120
1, 198534, Note_on_c, 14, 78, 114
1, 198538, Note_on_c, 9, 38, 0
1, 198542, Note_on_c, 15, 71, 0
1, 198620, Note_on_c, 9, 69, 37
1, 198622, Note_on_c, 8, 80, 0
1, 198624, Note_on_c, 9, 69, 0
1, 198630, Note_on_c, 9, 44, 56
1, 198634, Note_on_c, 9, 44, 0
1, 198678, Note_on_c, 1, 38, 0
1, 198712, Note_on_c, 9, 36, 110
1, 198716, Note_on_c, 9, 36, 0
1, 198716, Note_on_c, 8, 78, 79
1, 198718, Note_on_c, 1, 38, 113
1, 198720, Note_on_c, 5, 74, 71
1, 198724, Note_on_c, 9, 42, 52
1, 198724, Note_on_c, 9, 69, 36
1, 198728, Note_on_c, 9, 69, 0
1, 198728, Note_on_c, 9, 42, 0
1, 198796, Note_on_c, 5, 74, 0
1, 198804, Note_on_c, 8, 78, 0
1, 198812, Note_on_c, 5, 74, 66
1, 198812, Note_on_c, 9, 69, 31
1, 198816, Note_on_c, 9, 69, 0
1, 198816, Note_on_c, 9, 63, 83
1, 198818, Note_on_c, 9, 46, 104
1, 198820, Note_on_c, 9, 63, 0
1, 198822, Note_on_c, 9, 46, 0
1, 198822, Note_on_c, 9, 36, 101
1, 198826, Note_on_c, 9, 36, 0
1, 198886, Note_on_c, 13, 66, 0
1, 198888, Note_on_c, 13, 69, 0
1, 198888, Note_on_c, 5, 74, 0
1, 198892, Note_on_c, 15, 69, 0
1, 198894, Note_on_c, 14, 78, 0
1, 198898, Note_on_c, 1, 38, 0
1, 198900, Note_on_c, 1, 38, 110
1, 198908, Note_on_c, 8, 76, 78
1, 198912, Note_on_c, 5, 69, 73
1, 198918, Note_on_c, 9, 42, 56
1, 198918, Note_on_c, 9, 69, 34
1, 198922, Note_on_c, 9, 69, 0
1, 198922, Note_on_c, 9, 42, 0
1, 198988, Note_on_c, 5, 69, 0
1, 198996, Note_on_c, 8, 76, 0
1, 199000, Note_on_c, 9, 44, 50
1, 199000, Note_on_c, 9, 62, 81
1, 199002, Note_on_c, 5, 71, 69
1, 199004, Note_on_c, 9, 62, 0
1, 199004, Note_on_c, 9, 44, 0
1, 199014, Note_on_c, 9, 69, 36
1, 199018, Note_on_c, 9, 69, 0
1, 199078, Note_on_c, 5, 71, 0
1, 199098, Note_on_c, 14, 71, 110
1, 199098, Note_on_c, 15, 59, 104
1, 199104, Note_on_c, 8, 75, 82
1, 199104, Note_on_c, 9, 64, 83
1, 199108, Note_on_c, 9, 64, 0
1, 199108, Note_on_c, 9, 42, 50
1, 199110, Note_on_c, 9, 69, 29
1, 199110, Note_on_c, 13, 59, 108
1, 199112, Note_on_c, 9, 42, 0
1, 199112, Note_on_c, 5, 71, 64
1, 199114, Note_on_c, 9, 69, 0
1, 199160, Note_on_c, 1, 38, 0
1, 199188, Note_on_c, 5, 71, 0
1, 199188, Note_on_c, 1, 38, 115
1, 199190, Note_on_c, 4, 73, 94
1, 199192, Note_on_c, 8, 75, 0
1, 199198, Note_on_c, 4, 69, 103
1, 199202, Note_on_c, 4, 66, 99
1, 199204, Note_on_c, 9, 69, 34
1, 199206, Note_on_c, 9, 44, 57
1, 199208, Note_on_c, 9, 69, 0
1, 199210, Note_on_c, 9, 44, 0
1, 199268, Note_on_c, 1, 38, 0
1, 199278, Note_on_c, 15, 59, 0
1, 199278, Note_on_c, 14, 71, 0
1, 199286, Note_on_c, 1, 33, 114
1, 199288, Note_on_c, 9, 69, 32
1, 199290, Note_on_c, 13, 59, 0
1, 199290, Note_on_c, 9, 38, 120
1, 199292, Note_on_c, 9, 69, 0
1, 199292, Note_on_c, 13, 59, 111
1, 199292, Note_on_c, 14, 71, 116
1, 199294, Note_on_c, 9, 38, 0
1, 199296, Note_on_c, 5, 64, 69
1, 199296, Note_on_c, 9, 42, 51
1, 199300, Note_on_c, 9, 42, 0
1, 199302, Note_on_c, 15, 59, 107
1, 199304, Note_on_c, 8, 76, 76
1, 199370, Note_on_c, 4, 73, 0
1, 199372, Note_on_c, 5, 64, 0
1, 199378, Note_on_c, 4, 69, 0
1, 199382, Note_on_c, 4, 66, 0
1, 199382, Note_on_c, 1, 33, 0
1, 199386, Note_on_c, 5, 64, 68
1, 199390, Note_on_c, 9, 44, 57
1, 199392, Note_on_c, 8, 76, 0
1, 199394, Note_on_c, 9, 44, 0
1, 199394, Note_on_c, 1, 35, 109
1, 199398, Note_on_c, 9, 69, 36
1, 199402, Note_on_c, 9, 69, 0
1, 199462, Note_on_c, 5, 64, 0
1, 199472, Note_on_c, 14, 71, 0
1, 199472, Note_on_c, 13, 59, 0
1, 199480, Note_on_c, 1, 38, 117
1, 199482, Note_on_c, 15, 59, 0
1, 199484, Note_on_c, 8, 78, 78
1, 199488, Note_on_c, 9, 69, 37
1, 199490, Note_on_c, 1, 35, 0
1, 199492, Note_on_c, 9, 69, 0
1, 199492, Note_on_c, 5, 64, 64
1, 199494, Note_on_c, 9, 42, 57
1, 199498, Note_on_c, 9, 42, 0
1, 199560, Note_on_c, 1, 38, 0
1, 199568, Note_on_c, 5, 64, 0
1, 199572, Note_on_c, 8, 78, 0
1, 199576, Note_on_c, 9, 44, 50
1, 199580, Note_on_c, 9, 44, 0
1, 199580, Note_on_c, 9, 69, 38
1, 199582, Note_on_c, 1, 35, 115
1, 199582, Note_on_c, 9, 36, 118
1, 199584, Note_on_c, 9, 69, 0
1, 199586, Note_on_c, 9, 36, 0
1, 199656, Note_on_c, 2, 62, 0
1, 199662, Note_on_c, 2, 66, 0
1, 199662, Note_on_c, 1, 35, 0
1, 199662, Note_on_c, 2, 57, 0
1, 199670, Note_on_c, 2, 62, 96
1, 199672, Note_on_c, 5, 74, 67
1, 199672, Note_on_c, 9, 42, 58
1, 199672, Note_on_c, 13, 69, 104
1, 199676, Note_on_c, 9, 42, 0
1, 199676, Note_on_c, 1, 42, 109
1, 199676, Note_on_c, 2, 57, 98
1, 199678, Note_on_c, 9, 63, 79
1, 199680, Note_on_c, 2, 66, 96
1, 199680, Note_on_c, 5, 78, 71
1, 199680, Note_on_c, 9, 69, 32
1, 199680, Note_on_c, 14, 81, 117
1, 199680, Pitch_bend_c, 15, 7296
1, 199682, Note_on_c, 9, 63, 0
1, 199682, Note_on_c, 13, 73, 108
1, 199684, Note_on_c, 9, 69, 0
1, 199684, Note_on_c, 5, 69, 64
1, 199684, Note_on_c, 15, 73, 111
1, 199686, Note_on_c, 9, 36, 125
1, 199688, Pitch_bend_c, 15, 7360
1, 199690, Note_on_c, 9, 36, 0
1, 199692, Pitch_bend_c, 15, 7424
1, 199696, Pitch_bend_c, 15, 7488
1, 199700, Pitch_bend_c, 15, 7552
1, 199704, Pitch_bend_c, 15, 7616
1, 199708, Pitch_bend_c, 15, 7680
1, 199712, Pitch_bend_c, 15, 7744
1, 199716, Pitch_bend_c, 15, 7808
1, 199720, Pitch_bend_c, 15, 7872
1, 199724, Pitch_bend_c, 15, 7936
1, 199728, Pitch_bend_c, 15, 8000
1, 199732, Pitch_bend_c, 15, 8064
1, 199736, Pitch_bend_c, 15, 8128
1, 199740, Pitch_bend_c, 15, 8192
1, 199768, Note_on_c, 9, 44, 58
1, 199768, Note_on_c, 9, 63, 83
1, 199772, Note_on_c, 9, 63, 0
1, 199772, Note_on_c, 9, 44, 0
1, 199774, Note_on_c, 9, 69, 35
1, 199778, Note_on_c, 9, 69, 0
1, 199852, Note_on_c, 13, 69, 0
1, 199860, Note_on_c, 14, 81, 0
1, 199862, Note_on_c, 13, 73, 0
1, 199864, Note_on_c, 15, 73, 0
1, 199866, Note_on_c, 8, 81, 81
1, 199866, Note_on_c, 14, 81, 113
1, 199868, Note_on_c, 15, 73, 109
1, 199870, Note_on_c, 9, 69, 34
1, 199874, Note_on_c, 9, 69, 0
1, 199876, Note_on_c, 1, 42, 0
1, 199876, Note_on_c, 9, 42, 54
1, 199878, Note_on_c, 13, 73, 108
1, 199880, Note_on_c, 9, 42, 0
1, 199884, Note_on_c, 13, 69, 109
1, 199954, Note_on_c, 8, 81, 0
1, 199960, Note_on_c, 1, 30, 118
1, 199962, Note_on_c, 9, 44, 53
1, 199966, Note_on_c, 9, 44, 0
1, 199968, Note_on_c, 9, 69, 34
1, 199972, Note_on_c, 9, 69, 0
1, 200040, Note_on_c, 1, 30, 0
1, 200046, Note_on_c, 14, 81, 0
1, 200048, Note_on_c, 15, 73, 0
1, 200056, Note_on_c, 9, 42, 52
1, 200058, Note_on_c, 13, 73, 0
1, 200058, Note_on_c, 9, 38, 120
1, 200058, Note_on_c, 9, 69, 35
1, 200060, Note_on_c, 9, 42, 0
1, 200062, Note_on_c, 9, 69, 0
1, 200062, Note_on_c, 9, 38, 0
1, 200064, Note_on_c, 13, 69, 0
1, 200064, Note_on_c, 9, 64, 82
1, 200064, Note_on_c, 15, 73, 112
1, 200066, Note_on_c, 14, 81, 117
1, 200068, Note_on_c, 9, 64, 0
1, 200070, Note_on_c, 8, 80, 80
1, 200076, Note_on_c, 1, 37, 115
1, 200078, Note_on_c, 13, 69, 104
1, 200078, Note_on_c, 13, 73, 108
1, 200158, Note_on_c, 8, 80, 0
1, 200166, Note_on_c, 9, 44, 55
1, 200166, Note_on_c, 9, 69, 35
1, 200170, Note_on_c, 9, 69, 0
1, 200170, Note_on_c, 9, 44, 0
1, 200244, Note_on_c, 15, 73, 0
1, 200246, Note_on_c, 14, 81, 0
1, 200248, Note_on_c, 13, 69, 0
1, 200248, Note_on_c, 13, 69, 108
1, 200256, Note_on_c, 8, 78, 78
1, 200256, Pitch_bend_c, 14, 7296
1, 200256, Note_on_c, 15, 73, 108
1, 200258, Note_on_c, 13, 73, 0
1, 200258, Note_on_c, 9, 36, 109
1, 200258, Note_on_c, 13, 73, 111
1, 200260, Note_on_c, 9, 42, 50
1, 200260, Note_on_c, 9, 69, 31
1, 200262, Note_on_c, 9, 36, 0
1, 200262, Note_on_c, 14, 81, 113
1, 200264, Note_on_c, 9, 69, 0
1, 200264, Note_on_c, 9, 42, 0
1, 200264, Pitch_bend_c, 14, 7360
1, 200268, Pitch_bend_c, 14, 7424
1, 200272, Pitch_bend_c, 14, 7488
1, 200276, Pitch_bend_c, 14, 7552
1, 200280, Pitch_bend_c, 14, 7616
1, 200284, Pitch_bend_c, 14, 7680
1, 200288, Pitch_bend_c, 14, 7744
1, 200292, Pitch_bend_c, 14, 7808
1, 200296, Pitch_bend_c, 14, 7872
1, 200300, Pitch_bend_c, 14, 7936
1, 200304, Pitch_bend_c, 14, 8000
1, 200308, Pitch_bend_c, 14, 8064
1, 200312, Pitch_bend_c, 14, 8128
1, 200316, Pitch_bend_c, 14, 8192
1, 200336, Note_on_c, 1, 37, 0
1, 200342, Note_on_c, 1, 30, 117
1, 200344, Note_on_c, 8, 78, 0
1, 200346, Note_on_c, 9, 36, 107
1, 200350, Note_on_c, 9, 36, 0
1, 200352, Note_on_c, 9, 46, 107
1, 200356, Note_on_c, 9, 46, 0
1, 200358, Note_on_c, 9, 63, 83
1, 200358, Note_on_c, 9, 69, 29
1, 200362, Note_on_c, 9, 69, 0
1, 200362, Note_on_c, 9, 63, 0
1, 200422, Note_on_c, 1, 30, 0
1, 200428, Note_on_c, 13, 69, 0
1, 200436, Note_on_c, 15, 73, 0
1, 200438, Note_on_c, 13, 73, 0
1, 200440, Note_on_c, 9, 69, 34
1, 200440, Note_on_c, 13, 68, 104
1, 200442, Note_on_c, 14, 81, 0
1, 200444, Note_on_c, 9, 69, 0
1, 200444, Note_on_c, 8, 76, 75
1, 200444, Note_on_c, 15, 71, 105
1, 200446, Note_on_c, 9, 42, 53
1, 200450, Note_on_c, 9, 42, 0
1, 200452, Note_on_c, 1, 35, 115
1, 200452, Note_on_c, 14, 80, 110
1, 200460, Note_on_c, 13, 71, 110
1, 200532, Note_on_c, 8, 76, 0
1, 200536, Note_on_c, 9, 69, 30
1, 200540, Note_on_c, 9, 69, 0
1, 200548, Note_on_c, 9, 62, 83
1, 200550, Note_on_c, 9, 44, 52
1, 200552, Note_on_c, 9, 62, 0
1, 200554, Note_on_c, 9, 44, 0
1, 200620, Note_on_c, 13, 68, 0
1, 200624, Note_on_c, 15, 71, 0
1, 200630, Note_on_c, 1, 35, 0
1, 200630, Note_on_c, 1, 35, 110
1, 200632, Note_on_c, 14, 80, 0
1, 200636, Note_on_c, 15, 69, 107
1, 200638, Note_on_c, 9, 64, 88
1, 200640, Note_on_c, 13, 71, 0
1, 200640, Note_on_c, 9, 69, 29
1, 200640, Note_on_c, 13, 66, 112
1, 200642, Note_on_c, 9, 64, 0
1, 200642, Note_on_c, 14, 78, 111
1, 200644, Note_on_c, 9, 69, 0
1, 200644, Note_on_c, 9, 42, 55
1, 200646, Note_on_c, 8, 75, 82
1, 200648, Note_on_c, 9, 42, 0
1, 200650, Note_on_c, 13, 69, 107
1, 200728, Note_on_c, 9, 69, 31
1, 200732, Note_on_c, 9, 69, 0
1, 200734, Note_on_c, 8, 75, 0
1, 200736, Note_on_c, 9, 44, 57
1, 200736, Control_c, 14, 1, 28
1, 200736, Control_c, 15, 1, 28
1, 200740, Note_on_c, 9, 44, 0
1, 200790, Note_on_c, 2, 62, 0
1, 200796, Note_on_c, 2, 57, 0
1, 200800, Note_on_c, 2, 66, 0
1, 200810, Note_on_c, 1, 35, 0
1, 200824, Note_on_c, 2, 62, 97
1, 200826, Note_on_c, 2, 66, 103
1, 200834, Note_on_c, 9, 42, 57
1, 200835, Control_c, 14, 1, 70
1, 200835, Control_c, 15, 1, 70
1, 200836, Note_on_c, 9, 38, 125
1, 200838, Note_on_c, 9, 42, 0
1, 200838, Note_on_c, 9, 69, 35
1, 200840, Note_on_c, 9, 38, 0
1, 200840, Note_on_c, 1, 35, 110
1, 200840, Note_on_c, 2, 57, 98
1, 200840, Note_on_c, 8, 76, 81
1, 200842, Note_on_c, 9, 69, 0
1, 200920, Note_on_c, 1, 35, 0
1, 200924, Note_on_c, 1, 37, 112
1, 200928, Note_on_c, 8, 76, 0
1, 200928, Note_on_c, 9, 69, 32
1, 200932, Note_on_c, 9, 69, 0
1, 200932, Note_on_c, 9, 44, 55
1, 200936, Note_on_c, 9, 44, 0
1, 200952, Control_c, 14, 1, 55
1, 200952, Control_c, 15, 1, 55
1, 201000, Note_on_c, 5, 74, 0
1, 201004, Note_on_c, 1, 37, 0
1, 201008, Note_on_c, 5, 78, 0
1, 201010, Note_on_c, 1, 35, 115
1, 201012, Note_on_c, 5, 69, 0
1, 201020, Note_on_c, 9, 38, 116
1, 201020, Note_on_c, 9, 42, 50
1, 201024, Note_on_c, 9, 42, 0
1, 201024, Note_on_c, 9, 38, 0
1, 201026, Note_on_c, 8, 78, 81
1, 201026, Note_on_c, 9, 69, 32
1, 201030, Note_on_c, 9, 69, 0
1, 201039, Control_c, 14, 1, 37
1, 201039, Control_c, 15, 1, 37
1, 201114, Note_on_c, 8, 78, 0
1, 201114, Note_on_c, 9, 36, 121
1, 201116, Note_on_c, 9, 69, 30
1, 201118, Note_on_c, 9, 36, 0
1, 201120, Note_on_c, 9, 69, 0
1, 201122, Note_on_c, 9, 38, 120
1, 201124, Note_on_c, 9, 44, 56
1, 201126, Note_on_c, 9, 38, 0
1, 201128, Note_on_c, 9, 44, 0
1, 201178, Note_on_c, 7, 69, 0
1, 201184, Note_on_c, 2, 62, 0
1, 201186, Note_on_c, 2, 66, 0
1, 201188, Note_on_c, 7, 81, 0
1, 201190, Note_on_c, 1, 35, 0
1, 201198, Note_on_c, 6, 66, 0
1, 201200, Note_on_c, 2, 57, 0
1, 201204, Note_on_c, 7, 62, 80
1, 201206, Note_on_c, 6, 62, 0
1, 201206, Note_on_c, 8, 62, 74
1, 201207, Control_c, 14, 1, 15
1, 201207, Control_c, 15, 1, 15
1, 201210, Note_on_c, 9, 36, 124
1, 201210, Note_on_c, 9, 69, 32
1, 201212, Note_on_c, 6, 57, 0
1, 201214, Note_on_c, 9, 69, 0
1, 201214, Note_on_c, 9, 36, 0
1, 201214, Note_on_c, 1, 26, 114
1, 201216, Note_on_c, 12, 74, 114
1, 201218, Note_on_c, 9, 42, 55
1, 201218, Note_on_c, 9, 50, 121
1, 201220, Note_on_c, 2, 62, 98
1, 201220, Note_on_c, 4, 50, 101
1, 201222, Note_on_c, 9, 50, 0
1, 201222, Note_on_c, 9, 42, 0
1, 201222, Note_on_c, 2, 54, 97
1, 201222, Note_on_c, 2, 57, 100
1, 201224, Note_on_c, 5, 62, 68
1, 201300, Note_on_c, 5, 62, 0
1, 201310, Note_on_c, 9, 69, 31
1, 201314, Note_on_c, 9, 69, 0
1, 201316, Note_on_c, 9, 44, 57
1, 201320, Note_on_c, 9, 44, 0
1, 201400, Note_on_c, 9, 42, 59
1, 201404, Note_on_c, 9, 42, 0
1, 201410, Note_on_c, 9, 69, 29
1, 201414, Note_on_c, 9, 69, 0
1, 201464, Note_on_c, 7, 62, 0
1, 201466, Note_on_c, 8, 62, 0
1, 201474, Note_on_c, 1, 26, 0
1, 201480, Note_on_c, 2, 62, 0
1, 201480, Note_on_c, 4, 50, 0
1, 201482, Note_on_c, 2, 54, 0
1, 201482, Note_on_c, 2, 57, 0
1, 201492, Note_on_c, 7, 64, 75
1, 201494, Note_on_c, 2, 59, 103
1, 201498, Note_on_c, 8, 64, 75
1, 201498, Note_on_c, 9, 47, 125
1, 201500, Note_on_c, 2, 64, 97
1, 201500, Note_on_c, 5, 64, 65
1, 201500, Note_on_c, 9, 44, 50
1, 201502, Note_on_c, 9, 47, 0
1, 201504, Note_on_c, 12, 74, 0
1, 201504, Note_on_c, 9, 44, 0
1, 201504, Note_on_c, 1, 28, 113
1, 201504, Note_on_c, 12, 76, 115
1, 201506, Note_on_c, 9, 69, 30
1, 201508, Note_on_c, 2, 56, 95
1, 201508, Note_on_c, 9, 36, 119
1, 201510, Note_on_c, 9, 69, 0
1, 201512, Note_on_c, 9, 36, 0
1, 201512, Note_on_c, 4, 52, 101
1, 201576, Note_on_c, 5, 64, 0
1, 201596, Note_on_c, 9, 69, 29
1, 201600, Note_on_c, 9, 69, 0
1, 201600, Note_on_c, 9, 42, 53
1, 201604, Note_on_c, 9, 42, 0
1, 201690, Note_on_c, 9, 44, 51
1, 201692, Note_on_c, 4, 52, 0
1, 201694, Note_on_c, 9, 44, 0
1, 201696, Note_on_c, 9, 69, 36
1, 201700, Note_on_c, 9, 69, 0
1, 201732, Note_on_c, 7, 64, 0
1, 201734, Note_on_c, 2, 59, 0
1, 201738, Note_on_c, 8, 64, 0
1, 201740, Note_on_c, 2, 64, 0
1, 201748, Note_on_c, 2, 56, 0
1, 201756, Note_on_c, 15, 69, 0
1, 201760, Note_on_c, 13, 66, 0
1, 201762, Note_on_c, 14, 78, 0
1, 201768, Note_on_c, 1, 28, 0
1, 201768, Note_on_c, 12, 76, 0
1, 201770, Note_on_c, 13, 69, 0
1, 201782, Note_on_c, 7, 66, 77
1, 201784, Note_on_c, 1, 30, 116
1, 201784, Note_on_c, 8, 66, 75
1, 201784, Note_on_c, 12, 78, 114
1, 201788, Note_on_c, 4, 54, 102
1, 201788, Note_on_c, 9, 69, 35
1, 201790, Note_on_c, 2, 66, 100
1, 201790, Note_on_c, 9, 36, 108
1, 201792, Note_on_c, 9, 69, 0
1, 201792, Note_on_c, 9, 47, 120
1, 201794, Note_on_c, 9, 36, 0
1, 201794, Note_on_c, 2, 57, 99
1, 201794, Note_on_c, 9, 42, 57
1, 201796, Note_on_c, 9, 47, 0
1, 201798, Note_on_c, 9, 42, 0
1, 201798, Note_on_c, 5, 66, 70
1, 201800, Note_on_c, 2, 62, 100
1, 201874, Note_on_c, 5, 66, 0
1, 201890, Note_on_c, 9, 44, 55
1, 201892, Note_on_c, 9, 69, 34
1, 201894, Note_on_c, 9, 44, 0
1, 201896, Note_on_c, 9, 69, 0
1, 201960, Note_on_c, 1, 30, 0
1, 201978, Note_on_c, 9, 69, 32
1, 201982, Note_on_c, 9, 69, 0
1, 201990, Note_on_c, 9, 42, 58
1, 201994, Note_on_c, 9, 42, 0
1, 202012, Note_on_c, 4, 54, 0
1, 202042, Note_on_c, 7, 66, 0
1, 202044, Note_on_c, 8, 66, 0
1, 202050, Note_on_c, 2, 66, 0
1, 202054, Note_on_c, 2, 57, 0
1, 202060, Note_on_c, 2, 62, 0
1, 202070, Note_on_c, 7, 68, 83
1, 202072, Note_on_c, 12, 78, 0
1, 202076, Note_on_c, 4, 56, 99
1, 202076, Note_on_c, 5, 68, 64
1, 202076, Note_on_c, 12, 80, 114
1, 202078, Note_on_c, 9, 43, 122
1, 202078, Note_on_c, 9, 69, 30
1, 202080, Note_on_c, 9, 44, 52
1, 202082, Note_on_c, 9, 69, 0
1, 202082, Note_on_c, 9, 43, 0
1, 202082, Note_on_c, 9, 89, 123
1, 202084, Note_on_c, 9, 44, 0
1, 202084, Note_on_c, 2, 68, 101
1, 202086, Note_on_c, 9, 89, 0
1, 202086, Note_on_c, 2, 64, 97
1, 202086, Note_on_c, 8, 68, 81
1, 202088, Note_on_c, 1, 32, 115
1, 202088, Note_on_c, 2, 59, 97
1, 202152, Note_on_c, 5, 68, 0
1, 202174, Note_on_c, 9, 36, 121
1, 202174, Note_on_c, 9, 69, 30
1, 202178, Note_on_c, 9, 69, 0
1, 202178, Note_on_c, 9, 36, 0
1, 202178, Note_on_c, 9, 42, 57
1, 202182, Note_on_c, 9, 42, 0
1, 202250, Note_on_c, 7, 68, 0
1, 202264, Note_on_c, 2, 68, 0
1, 202266, Note_on_c, 8, 68, 0
1, 202266, Note_on_c, 2, 64, 0
1, 202268, Note_on_c, 2, 59, 0
1, 202268, Note_on_c, 9, 44, 50
1, 202268, Note_on_c, 9, 69, 38
1, 202272, Note_on_c, 9, 69, 0
1, 202272, Note_on_c, 9, 44, 0
1, 202336, Note_on_c, 4, 56, 0
1, 202348, Note_on_c, 1, 32, 0
1, 202354, Note_on_c, 1, 33, 115
1, 202356, Note_on_c, 12, 80, 0
1, 202360, Note_on_c, 5, 69, 72
1, 202360, Note_on_c, 9, 36, 118
1, 202364, Note_on_c, 9, 36, 0
1, 202364, Note_on_c, 2, 66, 94
1, 202364, Note_on_c, 2, 69, 100
1, 202366, Note_on_c, 9, 38, 122
1, 202366, Note_on_c, 9, 69, 33
1, 202368, Note_on_c, 8, 69, 76
1, 202368, Note_on_c, 9, 42, 59
1, 202370, Note_on_c, 9, 69, 0
1, 202370, Note_on_c, 9, 38, 0
1, 202370, Note_on_c, 4, 57, 99
1, 202372, Note_on_c, 9, 42, 0
1, 202376, Note_on_c, 2, 62, 102
1, 202378, Note_on_c, 12, 81, 118
1, 202380, Note_on_c, 7, 69, 81
1, 202436, Note_on_c, 5, 69, 0
1, 202458, Note_on_c, 9, 50, 121
1, 202462, Note_on_c, 9, 50, 0
1, 202462, Note_on_c, 9, 44, 56
1, 202466, Note_on_c, 9, 44, 0
1, 202466, Note_on_c, 9, 69, 38
1, 202470, Note_on_c, 9, 69, 0
1, 202474, Note_on_c, 12, 81, 0
1, 202534, Note_on_c, 1, 33, 0
1, 202544, Note_on_c, 2, 69, 0
1, 202544, Note_on_c, 2, 66, 0
1, 202548, Note_on_c, 8, 69, 0
1, 202550, Note_on_c, 4, 57, 0
1, 202550, Note_on_c, 2, 64, 101
1, 202554, Note_on_c, 5, 71, 72
1, 202554, Note_on_c, 7, 71, 81
1, 202556, Note_on_c, 2, 62, 0
1, 202556, Note_on_c, 9, 42, 52
1, 202560, Note_on_c, 9, 42, 0
1, 202560, Note_on_c, 7, 69, 0
1, 202562, Note_on_c, 2, 71, 99
1, 202562, Note_on_c, 9, 47, 119
1, 202562, Note_on_c, 9, 69, 36
1, 202564, Note_on_c, 4, 59, 95
1, 202564, Note_on_c, 8, 71, 74
1, 202566, Note_on_c, 9, 69, 0
1, 202566, Note_on_c, 9, 47, 0
1, 202566, Note_on_c, 2, 68, 94
1, 202566, Note_on_c, 12, 83, 116
1, 202568, Note_on_c, 1, 35, 116
1, 202630, Note_on_c, 5, 71, 0
1, 202648, Note_on_c, 9, 43, 116
1, 202652, Note_on_c, 9, 43, 0
1, 202658, Note_on_c, 9, 69, 30
1, 202660, Note_on_c, 9, 89, 121
1, 202662, Note_on_c, 9, 69, 0
1, 202662, Note_on_c, 12, 83, 0
1, 202662, Note_on_c, 9, 44, 59
1, 202664, Note_on_c, 9, 89, 0
1, 202666, Note_on_c, 9, 44, 0
1, 202730, Note_on_c, 2, 64, 0
1, 202734, Note_on_c, 7, 71, 0
1, 202742, Note_on_c, 2, 71, 0
1, 202742, Note_on_c, 4, 64, 97
1, 202742, Note_on_c, 7, 76, 83
1, 202744, Note_on_c, 4, 59, 0
1, 202744, Note_on_c, 8, 71, 0
1, 202744, Note_on_c, 2, 71, 99
1, 202744, Note_on_c, 2, 76, 101
1, 202746, Note_on_c, 2, 68, 0
1, 202746, Note_on_c, 9, 49, 108
1, 202748, Note_on_c, 1, 35, 0
1, 202750, Note_on_c, 9, 49, 0
1, 202750, Note_on_c, 8, 76, 79
1, 202754, Note_on_c, 9, 69, 30
1, 202756, Note_on_c, 5, 76, 73
1, 202756, Note_on_c, 9, 38, 120
1, 202758, Note_on_c, 9, 69, 0
1, 202758, Note_on_c, 1, 28, 113
1, 202758, Note_on_c, 9, 36, 117
1, 202760, Note_on_c, 9, 38, 0
1, 202760, Note_on_c, 2, 68, 96
1, 202760, Note_on_c, 12, 88, 127
1, 202762, Note_on_c, 9, 36, 0
1, 202832, Note_on_c, 5, 76, 0
1, 202854, Note_on_c, 4, 64, 0
1, 202902, Note_on_c, 7, 76, 0
1, 202926, Note_on_c, 8, 76, 0
1, 202928, Note_on_c, 2, 71, 0
1, 202942, Note_on_c, 1, 28, 0
1, 202944, Note_on_c, 2, 76, 0
1, 202952, Note_on_c, 2, 68, 0
1, 202964, Note_on_c, 12, 88, 0
1, 207201, MIDI_port, 0
1, 207201, System_exclusive, 5, 126, 127, 9, 1, 247
1, 207201, System_exclusive, 10, 65, 16, 66, 18, 64, 0, 127, 127, 66, 247
1, 207201, MIDI_port, 0
1, 207201, End_track
0, 0, End_of_file
